<svg xmlns="http://www.w3.org/2000/svg" viewBox="0 0 59.31 49.16"><defs><style>.cls-1{fill:#666;}</style></defs><title>quote</title><g id="Layer_2" data-name="Layer 2"><g id="Content"><path class="cls-1" d="M23.71,28.78a13.41,13.41,0,0,1,2,7.38A12.64,12.64,0,0,1,22,45.52a12.27,12.27,0,0,1-9,3.64,12.48,12.48,0,0,1-13-13,21.88,21.88,0,0,1,.71-5.55c.48-1.8,1.4-4.49,2.78-8.09L11.9,0H24.58L18.24,24.26A11.58,11.58,0,0,1,23.71,28.78Zm33.62,0a13.41,13.41,0,0,1,2,7.38,12.67,12.67,0,0,1-3.64,9.36,12.3,12.3,0,0,1-9,3.64,12.48,12.48,0,0,1-13-13,21.88,21.88,0,0,1,.71-5.55c.48-1.8,1.41-4.49,2.78-8.09L45.52,0H58.2L51.86,24.26A11.58,11.58,0,0,1,57.33,28.78Z"/></g></g></svg>