<svg xmlns="http://www.w3.org/2000/svg" viewBox="0 0 123.4 24.79"><defs><style>.cls-1{fill:#d62727;}</style></defs><title>staples-sm</title><g id="Layer_2" data-name="Layer 2"><g id="Content"><path id="_Path_" data-name="&lt;Path&gt;" class="cls-1" d="M9.39,24.79h0C.9,24.79,0,19.27,0,16.92v-.07H4.49v.07c0,1.1.55,3.73,4.56,3.73a7.47,7.47,0,0,0,3.1-.56,2.51,2.51,0,0,0,1.45-2.41c0-1.73-1.52-2.21-3.93-2.83l-2.35-.62c-3.59-.9-7-1.73-7-7A7.54,7.54,0,0,1,1.86,2.62C3.31.9,5.66,0,8.77,0s5.32.9,6.84,2.76a7.91,7.91,0,0,1,1.79,4.9v.07H12.91V7.66c-.14-1-.41-3.52-4.42-3.45a5,5,0,0,0-2.55.62A2.39,2.39,0,0,0,4.7,7C4.7,8.84,6.15,9.18,7,9.39l5.32,1.38c3,.76,5.8,2.07,5.8,6.36a7,7,0,0,1-3.59,6.56,13,13,0,0,1-5.11,1.1"/><polygon id="_Path_2" data-name="&lt;Path&gt;" class="cls-1" points="29 24.17 24.38 24.17 24.38 24.1 24.38 4.9 17.75 4.83 17.75 0.62 35.63 0.62 35.63 4.9 29 4.9 29 24.17"/><polygon id="_Path_3" data-name="&lt;Path&gt;" class="cls-1" points="104 24.17 103.93 24.17 87.28 24.17 87.28 24.1 87.22 0.62 87.28 0.62 103.44 0.62 103.44 4.9 91.84 4.9 91.84 9.74 102.48 9.74 102.48 13.95 91.84 13.95 91.84 19.96 103.93 19.96 104 24.17"/><path id="_Path_4" data-name="&lt;Path&gt;" class="cls-1" d="M114.7,24.79h0c-3.52,0-6.15-1-7.74-2.83a8.14,8.14,0,0,1-1.72-5v-.07h4.49v.07c0,1.1.55,3.73,4.55,3.73a7.49,7.49,0,0,0,3.11-.56,2.51,2.51,0,0,0,1.45-2.41c0-1.73-1.45-2.21-3.93-2.83l-2.35-.62c-3.59-.9-7-1.73-7-7,0-1.73.62-7.25,8.43-7.25,3,0,5.32.9,6.83,2.76a7.88,7.88,0,0,1,1.8,4.9v.07h-4.49V7.66c-.14-1-.41-3.45-4.42-3.45C111.94,4.21,110,5,110,7s1.45,2.21,2.28,2.42l5.32,1.38c3,.76,5.8,2.07,5.8,6.36a6.82,6.82,0,0,1-3.59,6.49,10.85,10.85,0,0,1-5.11,1.17"/><path id="_Path_5" data-name="&lt;Path&gt;" class="cls-1" d="M71,21.61V4.35a4.53,4.53,0,0,1,9-.07l1.25,7.32-4,1L75.68,4.35h-.2V20H86.25v4.35H73.34A2.74,2.74,0,0,1,71,21.61"/><path id="_Compound_Path_" data-name="&lt;Compound Path&gt;" class="cls-1" d="M47,24.17h0l-1.39-4.83h-8l-1.51,4.83H31.21V24.1L39,.62h5.31V.69l7.74,23.55Zm-8.15-9h5.45L41.64,6Z"/><path id="_Compound_Path_2" data-name="&lt;Compound Path&gt;" class="cls-1" d="M57.8,24.17H53.1V.62h10C67.33.62,70,3.52,70,8.22a8.82,8.82,0,0,1-1.31,4.55,6.26,6.26,0,0,1-5.73,3H57.73ZM57.73,11.6h4.21c3.39,0,3.39-2.55,3.39-3.59,0-2.28-1.18-3.18-4-3.18H57.73Z"/></g></g></svg>