<svg xmlns="http://www.w3.org/2000/svg" viewBox="0 0 211.95 42.58"><defs><style>.cls-1{fill:#fff;}</style></defs><title>story-staples</title><g id="Layer_2" data-name="Layer 2"><g id="Content"><path id="_Path_" data-name="&lt;Path&gt;" class="cls-1" d="M16.13,42.58h0C1.54,42.58,0,33.09,0,29.06v-.12H7.71v.12c0,1.9,1,6.4,7.83,6.4a12.88,12.88,0,0,0,5.33-1,4.33,4.33,0,0,0,2.5-4.15c0-3-2.61-3.79-6.77-4.86l-4-1.07c-6.17-1.54-12-3-12-12A12.94,12.94,0,0,1,3.2,4.51C5.69,1.54,9.73,0,15.06,0c5.1,0,9.14,1.54,11.74,4.74a13.52,13.52,0,0,1,3.09,8.43v.11H22.18v-.11c-.24-1.67-.71-6-7.59-5.94A8.63,8.63,0,0,0,10.2,8.3,4.1,4.1,0,0,0,8.07,12c0,3.2,2.49,3.79,3.91,4.15l9.13,2.37c5.1,1.31,10,3.56,10,10.91,0,5.22-2.13,9-6.16,11.27a22.28,22.28,0,0,1-8.78,1.9"/><polygon id="_Path_2" data-name="&lt;Path&gt;" class="cls-1" points="49.81 41.51 41.87 41.51 41.87 41.39 41.87 8.42 30.48 8.3 30.48 1.07 61.2 1.07 61.2 8.42 49.81 8.42 49.81 41.51"/><polygon id="_Path_3" data-name="&lt;Path&gt;" class="cls-1" points="178.62 41.51 178.5 41.51 149.92 41.51 149.92 41.39 149.8 1.07 149.92 1.07 177.67 1.07 177.67 8.42 157.75 8.42 157.75 16.72 176.01 16.72 176.01 23.96 157.75 23.96 157.75 34.28 178.5 34.28 178.62 41.51"/><path id="_Path_4" data-name="&lt;Path&gt;" class="cls-1" d="M197,42.58h0c-6.05,0-10.55-1.66-13.28-4.86a14,14,0,0,1-3-8.66v-.12h7.71v.12c0,1.9.95,6.4,7.83,6.4a13,13,0,0,0,5.34-1,4.33,4.33,0,0,0,2.49-4.15c0-3-2.49-3.79-6.76-4.86l-4-1.07c-6.17-1.54-12-3-12-12,0-3,1.06-12.45,14.47-12.45,5.1,0,9.13,1.54,11.74,4.74a13.49,13.49,0,0,1,3.08,8.43v.11h-7.71v-.11c-.23-1.67-.71-5.94-7.59-5.94-3.08,0-6.4,1.31-6.4,4.75,0,3.2,2.49,3.79,3.91,4.15L202,18.5c5.1,1.31,10,3.56,10,10.91,0,5.22-2.14,9-6.17,11.15a18.58,18.58,0,0,1-8.78,2"/><path id="_Path_5" data-name="&lt;Path&gt;" class="cls-1" d="M121.93,37.12V7.47a7.77,7.77,0,0,1,15.53-.12l2.14,12.58-6.88,1.66L130,7.47h-.35V34.28h18.5v7.47H126c-2.26-.12-4-2.49-4-4.63"/><path id="_Compound_Path_" data-name="&lt;Compound Path&gt;" class="cls-1" d="M80.77,41.51h0l-2.37-8.3H64.64L62,41.51H53.61v-.12L67,1.07h9.13v.12L89.43,41.63Zm-14-15.42h9.37L71.52,10.32Z"/><path id="_Compound_Path_2" data-name="&lt;Compound Path&gt;" class="cls-1" d="M99.27,41.51H91.21V1.07H108.4c7.24,0,11.75,5,11.75,13a15.29,15.29,0,0,1-2.26,7.83c-2.13,3.44-5.45,5.1-9.84,5.1h-8.9Zm-.12-21.58h7.24c5.81,0,5.81-4.39,5.81-6.17,0-3.92-2-5.46-6.88-5.46H99.15Z"/></g></g></svg>