<svg xmlns="http://www.w3.org/2000/svg" viewBox="0 0 154.22 59.62"><defs><style>.cls-1{fill:#fff;}</style></defs><title>story-tulip</title><g id="Layer_2" data-name="Layer 2"><g id="Content"><path class="cls-1" d="M72.28,46.93h-4V11H55V7.45H85.5V11H72.28Z"/><path class="cls-1" d="M98,46.93c-.08-.71-.13-1.49-.16-2.35s0-1.57,0-2.12h-.1a8.77,8.77,0,0,1-3.64,3.72,10.52,10.52,0,0,1-5.31,1.43,9.16,9.16,0,0,1-7.45-3,11.69,11.69,0,0,1-2.48-7.8v-16h3.8V35.26A20.28,20.28,0,0,0,83,39a8,8,0,0,0,1.14,2.87,5.48,5.48,0,0,0,2.18,1.87,7.47,7.47,0,0,0,3.42.66,7,7,0,0,0,5.43-2.47A9.27,9.27,0,0,0,97,38.74a14,14,0,0,0,.67-4.54V20.82h3.73V43.91c0,1.12.09,2.12.16,3Z"/><path class="cls-1" d="M111.2,46.93h-3.72V7.45h3.72Z"/><path class="cls-1" d="M121.8,10.11A2.53,2.53,0,0,1,121,12a2.67,2.67,0,0,1-3.82-3.73l.14-.12A2.59,2.59,0,0,1,121,8.13l.06.06A2.48,2.48,0,0,1,121.8,10.11ZM121,46.94h-3.8V20.85H121Z"/><path class="cls-1" d="M130.73,59.62h-3.8V20.81h3.8v4.52h.16a10.31,10.31,0,0,1,4.34-3.88,12.57,12.57,0,0,1,5.49-1.32,14.27,14.27,0,0,1,5.55,1.06,12.23,12.23,0,0,1,4.23,2.91,13,13,0,0,1,2.75,4.34,15.61,15.61,0,0,1,0,10.82,13.1,13.1,0,0,1-2.75,4.36,12.68,12.68,0,0,1-4.23,2.9,13.74,13.74,0,0,1-5.55,1,12.42,12.42,0,0,1-5.49-1.24,10.59,10.59,0,0,1-4.34-3.73h-.16Zm19.46-25.76a12.47,12.47,0,0,0-.67-4.11,9.94,9.94,0,0,0-1.92-3.34,8.9,8.9,0,0,0-3.1-2.26,10,10,0,0,0-11.39,2.2A10.3,10.3,0,0,0,131,29.7,11.77,11.77,0,0,0,131,38a9.83,9.83,0,0,0,9.29,6.36,10.61,10.61,0,0,0,4.2-.81,8.9,8.9,0,0,0,3.09-2.24A9.89,9.89,0,0,0,149.52,38,12,12,0,0,0,150.19,33.86Z"/><path class="cls-1" d="M47.79,34.06a38.74,38.74,0,0,0-7.62-5.8c.47-.82.93-1.67,1.39-2.56,1.24-2.3,4.9-10,3-12.81C43.65,11.65,41.26,11,37.42,11a47.61,47.61,0,0,0-9.14,1c-1.09-6.11-3-11-5.15-11.79A2.91,2.91,0,0,0,22.21,0C16.55,0,2.48,15,.3,27.23-.54,31.91.05,38,6.57,41.92a12.77,12.77,0,0,0,2.48,3.64C11.85,48.44,16.14,50,21.78,50h0C33.24,50,49.83,42.91,50,38,50,36.9,49.27,35.62,47.79,34.06ZM37.42,12.81c3.82,0,5.33.72,5.63,1.14.6.86,0,4.81-3.11,10.9-.42.82-.88,1.66-1.35,2.49A61,61,0,0,0,29.31,23a67,67,0,0,0-.74-9.27,45.9,45.9,0,0,1,8.83-1ZM16.31,43H15.06a15.09,15.09,0,0,1-5.73-5.17A17.75,17.75,0,0,1,7,33.44c.45-7.14,4.17-10.76,11-10.76a31.4,31.4,0,0,1,9.41,1.71,44,44,0,0,1-.59,6.38C26,36.32,23.32,43,16.34,43Zm1.76-22.25c-4,0-8.45,1.12-11,5.49a8.67,8.67,0,0,1,.38-.82c2.48-4.76,8.43-7.76,13-9.45a53.48,53.48,0,0,1,6.3-1.86,62.34,62.34,0,0,1,.68,8.3A32,32,0,0,0,18.07,20.78ZM7.91,38.87a22.49,22.49,0,0,0,2.4,2.85A19.14,19.14,0,0,1,8,40.64,13.87,13.87,0,0,1,7.3,38c.2.29.4.61.61.9Zm20.82-7.82A43.9,43.9,0,0,0,29.29,25a59.06,59.06,0,0,1,8.37,3.93c-4.24,6.79-10,12.89-15.75,14.52C25.34,41.35,27.66,37.16,28.73,31.05ZM2.1,27.55C4.28,15.2,18.33,1.84,22.23,1.84a.71.71,0,0,1,.29,0c1.33.48,3,4.74,4,10.43-8.58,2-17.48,6.2-20.63,12.32a11.64,11.64,0,0,0-1.24,3.79s-.09.77-.09,1.34a29.65,29.65,0,0,0,.94,8.9.57.57,0,0,0,.09.37C2.48,36.23,1.24,32.41,2.1,27.55ZM21.77,48.13c-5.12,0-9-1.24-11.46-3.86-.15-.15-.3-.31-.44-.47a31.32,31.32,0,0,0,7.7,1.77c.34,0,1.25.1,1.44.1h0c5.1,0,13.15-4.25,20.24-15.85a37.61,37.61,0,0,1,7.23,5.52c1.24,1.3,1.67,2.2,1.66,2.59C48.07,40.48,34.29,48.13,21.77,48.13Z"/></g></g></svg>