<svg xmlns="http://www.w3.org/2000/svg" viewBox="0 0 235.65 44.2"><defs><style>.cls-1{fill:#fff;}.cls-2{fill:#231f20;}</style></defs><title>story-carfax</title><g id="Layer_2" data-name="Layer 2"><g id="Content"><g id="g3339"><path id="path3341" class="cls-1" d="M226.62,39.85a3.45,3.45,0,0,1-3.42,3.42H4.36A3.46,3.46,0,0,1,.93,39.85V4.36A3.46,3.46,0,0,1,4.36.93H223.2a3.45,3.45,0,0,1,3.42,3.43V39.85Z"/><path id="path3343" class="cls-2" d="M4.36,0A4.35,4.35,0,0,0,0,4.36V39.85A4.45,4.45,0,0,0,4.36,44.2H223.2a4.35,4.35,0,0,0,4.36-4.35V4.36A4.46,4.46,0,0,0,223.2,0ZM1.87,39.85V4.36A2.46,2.46,0,0,1,4.36,1.87H223.2a2.46,2.46,0,0,1,2.49,2.49V39.85a2.46,2.46,0,0,1-2.49,2.49H4.36A2.46,2.46,0,0,1,1.87,39.85Z"/></g><g id="g3345"><rect id="rect3347" class="cls-1" x="188.96" y="4.05" width="34.4" height="35.95"/><path id="path3349" class="cls-2" d="M188.49,3.58V40.47h35.33V3.58Zm34.4.93v35H189.42v-35Z"/></g><g id="g3351"><rect id="rect3353" class="cls-2" x="41.25" y="4.05" width="34.4" height="35.95"/><path id="path3355" class="cls-2" d="M40.78,3.58V40.47H76.11V3.58ZM75,4.51v35H41.56v-35Z"/></g><g id="g3357"><rect id="rect3359" class="cls-2" x="77.98" y="4.05" width="34.4" height="35.95"/><path id="path3361" class="cls-2" d="M77.51,3.58V40.47h35.33V3.58Zm34.4.93v35H78.45v-35Z"/></g><g id="g3363"><rect id="rect3365" class="cls-2" x="115.18" y="4.05" width="34.4" height="35.95"/><path id="path3367" class="cls-2" d="M114.71,3.58V40.47H150V3.58ZM149,4.51v35H115.49v-35Z"/></g><g id="g3369"><rect id="rect3371" class="cls-2" x="152.22" y="4.05" width="34.4" height="35.95"/><path id="path3373" class="cls-2" d="M151.76,3.58V40.47h35.33V3.58ZM186,4.51v35H152.53v-35Z"/></g><g id="g3375"><rect id="rect3377" class="cls-2" x="4.2" y="4.05" width="34.4" height="35.95"/><path id="path3379" class="cls-2" d="M3.74,3.58V40.47H39.07V3.58ZM38,4.51v35H4.51v-35Z"/></g><path id="path3381" class="cls-1" d="M22.1,35c-7.31,0-11.2-5.45-11.2-12.76,0-7.94,4.66-12.77,11.2-12.77,6.07,0,8.41,2.65,10.12,7.32L26,19.3c-.93-2.33-1.71-3.74-4-3.74-2.81,0-4.05,2.81-4.05,6.85,0,3.74,1.24,6.85,4.2,6.85,2.18,0,3.11-1.09,4.36-3.42L32.22,29C30.66,31.91,28,35,22.1,35Z"/><path id="path3383" class="cls-1" d="M60.55,24.59h-4L57,23a51,51,0,0,0,1.55-6.23c.31,1.71.78,3,1.56,6.23ZM71,34.4,62,9.65H55.1L46.23,34.24h7.31l1.4-4.36h7.47l1.41,4.36H71Z"/><path id="path3385" class="cls-1" d="M98.68,18.06c0,1.71-.93,2.8-3.11,2.8h-4V15.41h4C97.9,15.41,98.68,16.5,98.68,18.06ZM106,34.4l-5-9.34a7.5,7.5,0,0,0,4.51-7.16c0-5.92-3.89-8.09-9.65-8.09h-11V34.4h6.69V26.15h2.8l4.05,8.25Z"/><path id="path3387" class="cls-1" d="M129.34,15.56V19h7.79v5.76h-7.79V34.4h-6.85V9.81H142v5.75Z"/><path id="path3389" class="cls-1" d="M171.21,24.75h-4l.46-1.56A49.15,49.15,0,0,0,169.19,17c.31,1.71.78,3,1.56,6.22Zm10.27,9.8L172.61,10h-6.85l-8.87,24.59h7.32l1.4-4.35h7.31l1.4,4.35Z"/><path id="path3435" class="cls-2" d="M209.66,40.31l-1.09-1.71c-.94-1.56-1.87-3.11-2.65-4.51a38.52,38.52,0,0,1-2.64,4.51L202,40.31h-8.4l8.09-11.2L193.16,17h8.71l1.56,2.33a51.3,51.3,0,0,1,2.65,4.51c.62-1.24,1.71-2.95,2.64-4.51L210.28,17h8.4l-8.56,12,7.94,11.36Z"/><g id="g3437"><g id="g3439"><path id="path3441" class="cls-2" d="M235.49,3.42a3.27,3.27,0,1,1-6.53,0,3.27,3.27,0,1,1,6.53,0Zm-.46,0a3.27,3.27,0,0,0-.78-2,2.11,2.11,0,0,0-1.87-.78,3.24,3.24,0,0,0-2,.78,2.4,2.4,0,0,0-.78,2,3.27,3.27,0,0,0,.78,2,2.26,2.26,0,0,0,1.87.78,2.59,2.59,0,0,0,1.86-.78A2.73,2.73,0,0,0,235,3.42Zm-.94-.77a2.14,2.14,0,0,1-.31.93,2.14,2.14,0,0,1-.93.31l1.24,1.56h-.77l-1.25-1.56h-.62V5.45h-.63V1.4h1.87a1.36,1.36,0,0,1,.94.31,1.11,1.11,0,0,1,.46.94Zm-.62,0c0-.47-.31-.63-.93-.63h-1.09V3.27h1.24A.71.71,0,0,0,233.47,2.65Z"/><path id="path3443" class="cls-2" d="M230.05,1.09a3.14,3.14,0,0,0-.94,2.33,3.2,3.2,0,0,0,3.27,3.27,3.18,3.18,0,0,0,3.27-3.27,3.3,3.3,0,0,0-5.6-2.33Zm0,4.67a3.14,3.14,0,0,1-.94-2.34,3.14,3.14,0,0,1,.94-2.33,3.07,3.07,0,0,1,2.18-.93,2.81,2.81,0,0,1,2.17.93,3.14,3.14,0,0,1,.94,2.33,3.14,3.14,0,0,1-.94,2.34,3,3,0,0,1-4.35,0Z"/><path id="path3445" class="cls-2" d="M230.36,1.4a3.27,3.27,0,0,0-.78,2,3.27,3.27,0,0,0,.78,2,2.38,2.38,0,0,0,2,.78,2.61,2.61,0,0,0,1.87-.78,3.27,3.27,0,0,0,.78-2,3.27,3.27,0,0,0-.78-2,2.29,2.29,0,0,0-1.87-.78A2.92,2.92,0,0,0,230.36,1.4Zm0,4.05a2.88,2.88,0,0,1-.78-1.87,3.24,3.24,0,0,1,.78-2,2.56,2.56,0,0,1,1.87-.78,3.2,3.2,0,0,1,1.86.78,3.2,3.2,0,0,1,.78,1.86,3.27,3.27,0,0,1-.78,2,2.59,2.59,0,0,1-1.86.78A3.26,3.26,0,0,1,230.36,5.45Z"/><path id="path3447" class="cls-2" d="M230.82,1.4V5.45h.63V3.89h.62l1.09,1.56h.93s-1.09-1.4-1.24-1.56a1.18,1.18,0,0,0,.78-.31.94.94,0,0,0,.46-.93,1.14,1.14,0,0,0-.31-.78,2.19,2.19,0,0,0-1.09-.31h-1.87Zm2,.16a1.27,1.27,0,0,1,.93.31,1.12,1.12,0,0,1,0,1.55c-.31.16-.46.32-.78.32h-.15s1.09,1.4,1.24,1.55h-.62l-1.09-1.55h-.78V5.29h-.46V1.56Z"/><path id="path3449" class="cls-2" d="M231.45,1.87v1.4h1.24c.63,0,.94-.31.94-.78,0-.16-.16-.31-.31-.47a1.22,1.22,0,0,0-.78-.15Zm1.09.15c.31,0,.46,0,.62.16s.16.15.16.47-.32.62-.78.62h-1.09V2.18C231.6,2,232.54,2,232.54,2Z"/></g></g></g></g></svg>