<svg xmlns="http://www.w3.org/2000/svg" viewBox="0 0 163.6 76.53"><defs><style>.cls-1{opacity:0.75;}.cls-2{fill:#020202;}.cls-3{fill:#f01616;}.cls-4{fill:#010101;}.cls-5{fill:none;}</style></defs><title>adobe</title><g id="Layer_2" data-name="Layer 2"><g id="Top-nav"><g id="_9M7WIB" data-name="9M7WIB" class="cls-1"><path class="cls-2" d="M122.72,32.8c.14-.08.18-.22.25-.34A5.23,5.23,0,0,1,129,30a5.65,5.65,0,0,1,3.39,3.05,13.89,13.89,0,0,1,1.47,5,25.39,25.39,0,0,1-.2,8,11.68,11.68,0,0,1-2.52,5.67,5.44,5.44,0,0,1-5.41,1.95,4.25,4.25,0,0,1-2.68-1.85,11.51,11.51,0,0,1-.68-1.12c0-.1-.08-.23-.22-.19s-.08.16-.08.24c-.07.8-.15,1.6-.2,2.4,0,.2-.07.26-.28.26h-3.35c-.21,0-.26-.06-.26-.27.37-10.83.09-21.66.17-32.49,0-.28.08-.34.35-.34,1.28,0,2.55,0,3.83,0,.28,0,.33.08.33.34q0,5.86,0,11.74C122.67,32.53,122.62,32.67,122.72,32.8Zm0,8.74c0,1.54,0,2.73,0,3.91A6,6,0,0,0,124,49.08a2.43,2.43,0,0,0,3.81.09,4.5,4.5,0,0,0,.9-1.52,13.16,13.16,0,0,0,.76-3.88,21.92,21.92,0,0,0-.33-6.26,6.33,6.33,0,0,0-1.3-2.89,2.42,2.42,0,0,0-3.83,0,5.29,5.29,0,0,0-1.27,3C122.58,39,122.71,40.47,122.67,41.54Z"/><path class="cls-2" d="M92.15,32.42V32c0-3.76,0-7.53,0-11.29,0-.32.07-.41.4-.4,1.22,0,2.45,0,3.68,0,.34,0,.44.06.44.42,0,8.39,0,16.78,0,25.17,0,2.4,0,4.79.18,7.18,0,.23,0,.34-.3.33H93.25c-.24,0-.3-.08-.32-.3-.06-.77-.15-1.53-.22-2.29,0-.08,0-.19-.09-.21s-.14.1-.19.18a5.35,5.35,0,0,1-3.34,2.78,5.21,5.21,0,0,1-5.67-1.83,10.2,10.2,0,0,1-2.1-4.5,22.88,22.88,0,0,1,.32-11.73,8.82,8.82,0,0,1,2.85-4.47A5.21,5.21,0,0,1,89.27,30a4.16,4.16,0,0,1,2.63,2.13C92,32.22,92,32.36,92.15,32.42Zm0,9.46h0c0-1.29,0-2.57,0-3.86a5.56,5.56,0,0,0-.66-2.55,3.15,3.15,0,0,0-1.67-1.64A2.6,2.6,0,0,0,86.74,35a6.79,6.79,0,0,0-1,2.51,21.4,21.4,0,0,0-.12,8.21,7.29,7.29,0,0,0,1.22,3.2,2.5,2.5,0,0,0,4.23,0,5.49,5.49,0,0,0,1.08-3.19C92.15,44.41,92.14,43.14,92.14,41.88Z"/><path class="cls-2" d="M70.42,21.2c.78,0,1.55,0,2.33,0,.24,0,.31.09.35.29l1.83,8.68q1.84,8.67,3.68,17.35c.4,1.86.79,3.72,1.19,5.58,0,.23,0,.35-.25.34H75.69c-.22,0-.28-.06-.33-.27-.57-2.77-1.16-5.53-1.73-8.3,0-.27-.15-.34-.42-.34-2,0-4,0-6,0-.3,0-.4.09-.45.36-.58,2.74-1.18,5.47-1.75,8.21-.06.28-.16.35-.42.34H60.86c-.25,0-.29,0-.23-.3q2.65-11.75,5.29-23.51.92-4,1.8-8c.07-.31.16-.44.51-.42C69,21.22,69.69,21.2,70.42,21.2ZM73,40.94a.22.22,0,0,1,0-.06c-.93-4.91-2-9.8-2.62-14.75,0-.09,0-.23-.12-.23s-.14.13-.15.23c-.21,1.32-.39,2.64-.62,4-.62,3.53-1.36,7-2.06,10.56,0,.24,0,.3.25.3H73Z"/><path class="cls-3" d="M12.37,53.24v-.32q0-15.6,0-31.19c0-.35.06-.46.45-.46H25.38c.42,0,.42,0,.27.37L12.57,53l-.13.3Z"/><path class="cls-3" d="M48.6,53.26l-1.26-3q-6-14.3-11.92-28.57c-.17-.41-.17-.41.27-.41H48.3c.3,0,.38.09.38.38q0,15.72,0,31.44v.14Z"/><path class="cls-2" d="M99.36,41.91a18.06,18.06,0,0,1,1.22-7,8.26,8.26,0,0,1,3.65-4.25,6.85,6.85,0,0,1,9.32,2.67,13.62,13.62,0,0,1,1.73,5.43,22.55,22.55,0,0,1-.27,7.6,10.5,10.5,0,0,1-2.6,5.28,7,7,0,0,1-11.09-1.25,13.38,13.38,0,0,1-1.75-5.31A25.67,25.67,0,0,1,99.36,41.91Zm11.51-.07a21,21,0,0,0-.38-4.41,7,7,0,0,0-1.24-3.11,2.3,2.3,0,0,0-3.72-.06,5.56,5.56,0,0,0-1.08,2.24,21.62,21.62,0,0,0-.58,6.21,17.41,17.41,0,0,0,.58,4.42,5.11,5.11,0,0,0,1.36,2.52,2.33,2.33,0,0,0,3.37-.2,5.14,5.14,0,0,0,1-1.82A19.22,19.22,0,0,0,110.87,41.84Z"/><path class="cls-2" d="M146.16,42.72h-5.1c-.27,0-.35.05-.34.33a11.7,11.7,0,0,0,.73,4.1,4.52,4.52,0,0,0,4.38,3,9.19,9.19,0,0,0,4-.73c.24-.1.3-.07.34.18.17.88.35,1.76.55,2.63.05.25,0,.37-.23.47a12.2,12.2,0,0,1-3.56.86,11.38,11.38,0,0,1-4.23-.23,7.7,7.7,0,0,1-5.14-4.57A14.33,14.33,0,0,1,136.39,44a20.21,20.21,0,0,1,.7-7.5,10.54,10.54,0,0,1,2.74-4.72,6.77,6.77,0,0,1,7.84-1.17,7.23,7.23,0,0,1,3.12,4,16.24,16.24,0,0,1,.9,5.87c0,.68-.05,1.35-.06,2,0,.25-.09.32-.34.32h-5.13Zm-2-3.2c1,0,2,0,3,0,.26,0,.32-.07.32-.32a13,13,0,0,0-.23-2.42,5.81,5.81,0,0,0-1.2-2.73,2.24,2.24,0,0,0-3.38-.15,3.79,3.79,0,0,0-.75,1,10.34,10.34,0,0,0-1.09,4c0,.56,0,.56.54.56Z"/><path class="cls-3" d="M30.53,33.15c.67,1.58,1.31,3.1,1.95,4.63L38.9,53c.17.41.17.42-.28.42H33.81a.44.44,0,0,1-.48-.32c-.75-1.93-1.52-3.85-2.26-5.78a.48.48,0,0,0-.55-.37c-1.85,0-3.69,0-5.54,0-.27,0-.3,0-.2-.3Q27.63,40,30.46,33.3Z"/><path class="cls-4" d="M49.42,22.31a1,1,0,0,1,1-1,1,1,0,1,1-1,1Zm1.47.63s0,.06.08,0a.9.9,0,0,0,.12-1.18.81.81,0,0,0-1.1-.2.91.91,0,0,0-.26,1.2.82.82,0,0,0,1.08.31c.06,0,.18-.05.09-.17Z"/><path class="cls-2" d="M152.33,30.8a1,1,0,0,1-1,1,1,1,0,0,1-1-1,1,1,0,0,1,1.05-1A1,1,0,0,1,152.33,30.8Zm-1.83,0a.85.85,0,0,0,.81.89.87.87,0,0,0,0-1.74A.82.82,0,0,0,150.5,30.77Z"/><path class="cls-4" d="M50.9,22.93c-.23,0-.26-.13-.28-.28a.24.24,0,0,0-.28-.22c-.18,0-.07.17-.1.25s0,.23-.09.23-.08-.15-.09-.23a5,5,0,0,1,0-.55c0-.12-.08-.3.07-.35a.71.71,0,0,1,.6,0,.22.22,0,0,1,.1.25c-.22.31,0,.58.06.86Zm-.25-.85c0-.15-.14-.18-.27-.18s-.13.12-.14.22,0,.17.15.16A.24.24,0,0,0,50.65,22.08Z"/><path class="cls-2" d="M150.94,30.78a1.08,1.08,0,0,1,0-.18c0-.13-.08-.32.07-.36a.69.69,0,0,1,.59.05c.1.06.18.19.12.27-.21.23,0,.43,0,.65,0,.06.07.15-.05.17s-.12-.05-.14-.13a2.17,2.17,0,0,0-.07-.24.22.22,0,0,0-.24-.12c-.13,0-.08.12-.1.2s.08.29-.1.28-.06-.2-.08-.3A1.4,1.4,0,0,1,150.94,30.78Zm.3,0c.17,0,.29,0,.28-.2s-.11-.17-.22-.18-.18,0-.17.16S151.1,30.75,151.24,30.74Z"/></g><rect class="cls-5" width="163.6" height="76.53"/></g></g></svg>