<svg xmlns="http://www.w3.org/2000/svg" viewBox="0 0 163.6 76.53"><defs><style>.cls-1{fill:#020202;}.cls-2{fill:#fe9a02;}.cls-3{fill:none;}</style></defs><title>amazon</title><g id="Layer_2" data-name="Layer 2"><g id="Top-nav"><g id="ZV68Q7"><path class="cls-1" d="M45.75,27.82A5.45,5.45,0,0,1,55.9,28l.35-.68a5.73,5.73,0,0,1,9.48-.68,5.52,5.52,0,0,1,1,3.34c0,5.06,0,10.13,0,15.19,0,.68-.25.91-.94.92-1.14,0-2.27,0-3.41,0-.77,0-1-.22-1-1V32.43a5.9,5.9,0,0,0-.06-.83c-.17-1.33-.76-2-1.86-2.1a2.58,2.58,0,0,0-2.78,1.71,9,9,0,0,0-.32,2.92V45c0,.93-.18,1.11-1.14,1.11s-2,0-3,0S51,46,51,45V33.2a8.19,8.19,0,0,0-.2-2,2.08,2.08,0,0,0-2-1.78,2.22,2.22,0,0,0-2.39,1.46A7.42,7.42,0,0,0,46,33.75c0,3.71,0,7.42,0,11.13,0,1.11-.14,1.24-1.27,1.24s-2.1,0-3.15,0c-.68,0-.92-.25-.92-.94V25.88c0-.72.25-1,.95-1,1.05,0,2.1,0,3.15,0,.74,0,1,.25,1,1S45.75,27.18,45.75,27.82Z"/><path class="cls-1" d="M31.51,43.51a6.48,6.48,0,0,1-.46.6,7.61,7.61,0,0,1-7.13,2.15A5.22,5.22,0,0,1,19.43,41c-.19-4.14,2-6.81,6.26-7.67,1.53-.31,3.09-.46,4.64-.62.36,0,.48-.13.45-.49s0-.72,0-1.09a2.59,2.59,0,0,0-3.57-2.61,2.74,2.74,0,0,0-2.1,2.11.86.86,0,0,1-1.11.76c-1-.13-2-.23-3.06-.35-.8-.1-1-.38-.82-1.16a6.46,6.46,0,0,1,4-4.73,11.33,11.33,0,0,1,8.28-.26c2.66.93,3.86,2.83,3.88,5.92,0,2.51,0,5,0,7.53a5.59,5.59,0,0,0,1.22,3.75c.69.87.64,1.06-.21,1.79s-1.52,1.32-2.29,2c-.6.52-.91.51-1.5,0A9.91,9.91,0,0,1,31.51,43.51Zm-.73-6.14c0-1.62,0-1.62-1.62-1.46l-.32,0c-2.58.36-3.85,1.7-3.74,4a2.36,2.36,0,0,0,1.44,2.36,2.52,2.52,0,0,0,2.82-.69A5.48,5.48,0,0,0,30.78,37.37Z"/><path class="cls-1" d="M82.19,43.61a8.38,8.38,0,0,1-4,2.55,8.93,8.93,0,0,1-4.08,0c-2.63-.64-4.18-2.93-4.08-6,.1-3.43,2.13-5.81,5.73-6.7A38,38,0,0,1,81,32.74c.35,0,.48-.13.45-.49s0-.86,0-1.29c-.07-2.12-1.7-2.81-3.51-2.42a2.72,2.72,0,0,0-2.15,2.07c-.22.79-.36.89-1.18.8l-3.07-.35c-.71-.08-.9-.39-.75-1.1a6.59,6.59,0,0,1,4.39-5,11.65,11.65,0,0,1,7.08-.33c3.13.82,4.64,2.8,4.66,6,0,2.6,0,5.19,0,7.79A5.44,5.44,0,0,0,88,42.08c.73.93.7,1.05-.19,1.82s-1.51,1.33-2.28,2c-.59.51-.91.49-1.51,0A9.86,9.86,0,0,1,82.19,43.61Zm-.79-6.18c0-.4,0-.81,0-1.22s-.11-.4-.41-.39a9.4,9.4,0,0,0-3,.51,3.43,3.43,0,0,0-2.23,4,2.3,2.3,0,0,0,1.54,2,2.53,2.53,0,0,0,2.65-.69A5.45,5.45,0,0,0,81.4,37.43Z"/><path class="cls-1" d="M133.34,28.48c.31-.59.52-1.05.78-1.48,1.23-2.06,3.15-2.85,5.81-2.4a5,5,0,0,1,4,4,14.51,14.51,0,0,1,.29,2.94V45.1c0,.84-.18,1-1,1-1.11,0-2.23,0-3.34,0-.73,0-.94-.23-.94-1V33.44a8.44,8.44,0,0,0-.27-2.35A2.07,2.07,0,0,0,137,29.45a2.26,2.26,0,0,0-2.25.78,4.91,4.91,0,0,0-1,2.73,32,32,0,0,0-.11,4v8c0,.88-.18,1.07-1,1.07-1.12,0-2.23,0-3.35,0-.69,0-.92-.24-.92-.93V25.82c0-.68.24-.92.93-.93q1.6,0,3.21,0c.66,0,.88.25.88.9C133.35,26.64,133.34,27.48,133.34,28.48Z"/><path class="cls-1" d="M125.47,35.7a12.55,12.55,0,0,1-2.55,7.87A8.08,8.08,0,0,1,109.34,42a14.52,14.52,0,0,1-.06-12.84,7.57,7.57,0,0,1,7.44-4.64,7.91,7.91,0,0,1,7.47,4.94A15,15,0,0,1,125.47,35.7Zm-5.75-.07a16.12,16.12,0,0,0-.66-5.39,2.3,2.3,0,0,0-2.14-1.66,2.41,2.41,0,0,0-2.48,1.36,4.77,4.77,0,0,0-.53,1.51,24.47,24.47,0,0,0,0,7.35,5.6,5.6,0,0,0,.93,2.64,2.31,2.31,0,0,0,3.53.3,3.94,3.94,0,0,0,1-1.84A15.33,15.33,0,0,0,119.72,35.63Z"/><path class="cls-2" d="M68.27,61.93A47.51,47.51,0,0,1,37.44,49.61l-.15-.13c-.27-.28-.5-.59-.23-1s.64-.28,1-.09C39,49,40,49.5,40.92,50a64.94,64.94,0,0,0,17.93,6A66.33,66.33,0,0,0,71.12,57.1a65,65,0,0,0,24.37-5l.23-.11a1.21,1.21,0,0,1,1.55.37c.25.46.07,1-.53,1.43a38.41,38.41,0,0,1-8.2,4.49A53.47,53.47,0,0,1,68.27,61.93Z"/><path class="cls-1" d="M98.86,29.13H92.59c-.91,0-1.08-.17-1.08-1.09V25.72a.75.75,0,0,1,.86-.86q6.24,0,12.48,0c.56,0,.84.25.84.81,0,.77,0,1.54,0,2.31a2.67,2.67,0,0,1-.71,1.48c-2.23,3.2-4.47,6.39-6.75,9.64.83.06,1.61.1,2.38.17a12.57,12.57,0,0,1,4.59,1.33,1.44,1.44,0,0,1,.88,1.43c0,.9,0,1.8,0,2.7s-.45,1-1.15.7a14.42,14.42,0,0,0-13,0c-.66.32-1.11.07-1.12-.66,0-1,0-2.11,0-3.16a3.32,3.32,0,0,1,.67-1.9c2.35-3.35,4.68-6.71,7-10.06Z"/><path class="cls-2" d="M98.57,47a12.56,12.56,0,0,1,3.61.47,1.28,1.28,0,0,1,1,1.37,14.07,14.07,0,0,1-4.13,10l-.21.16c-.26.2-.55.41-.86.17s-.12-.55,0-.82A38.4,38.4,0,0,0,99.81,53a6.79,6.79,0,0,0,.24-1.84,1.18,1.18,0,0,0-1-1.33,10.87,10.87,0,0,0-3.64-.2c-1.27.1-2.55.24-3.83.34-.26,0-.62.13-.74-.21s.13-.59.41-.79a11.63,11.63,0,0,1,5.07-1.84A16.06,16.06,0,0,1,98.57,47Z"/></g><rect class="cls-3" width="163.6" height="76.53"/></g></g></svg>