<svg xmlns="http://www.w3.org/2000/svg" viewBox="0 0 163.6 76.53"><defs><style>.cls-1{fill:#333;}.cls-2{fill:none;}</style></defs><title>asos</title><g id="Layer_2" data-name="Layer 2"><g id="Top-nav"><path class="cls-1" d="M130.49,58.57h-2.73a1.46,1.46,0,0,0-.22,0,26.73,26.73,0,0,1-3.33-.38A16.27,16.27,0,0,1,120.28,57a11.48,11.48,0,0,1-4.64-3.81,12.88,12.88,0,0,1-1.9-4.14l-.06-.23-.05,0-.08.12a18.55,18.55,0,0,1-2.29,3.21,18.74,18.74,0,0,1-6.85,5,17.68,17.68,0,0,1-5.73,1.38c-.21,0-.41,0-.62.07H96.43a1.46,1.46,0,0,0-.22,0,23.78,23.78,0,0,1-2.92-.37,18.15,18.15,0,0,1-6.85-2.85,19.48,19.48,0,0,1-5-5l-.15-.2,0,.15a8.93,8.93,0,0,1-2.86,4.59,13.06,13.06,0,0,1-3.83,2.24,22.78,22.78,0,0,1-6.63,1.38l-.78.08H64.37a1.38,1.38,0,0,0-.2,0c-.85-.06-1.7-.12-2.55-.25a18.76,18.76,0,0,1-3.55-.86,12.69,12.69,0,0,1-4-2.31,11.34,11.34,0,0,1-2.91-3.95L51.05,51h0v2.56c0,1.12,0,2.24,0,3.36a.64.64,0,0,1-.68.67H43.77a.55.55,0,0,1-.38-.18.6.6,0,0,1-.18-.48V55.31a.74.74,0,0,0,0-.26.19.19,0,0,0-.3-.15,1.25,1.25,0,0,0-.24.16,15.87,15.87,0,0,1-8.52,3.44l-.43.07H31.94l-.24,0c-.71-.08-1.42-.13-2.13-.24a16.92,16.92,0,0,1-5.43-1.83,19.39,19.39,0,0,1-4.7-3.6A18.29,18.29,0,0,1,14.13,40a21,21,0,0,1,.28-3.72,17.56,17.56,0,0,1,1.78-5.38,19,19,0,0,1,4.42-5.54,18.73,18.73,0,0,1,5.57-3.44,18.08,18.08,0,0,1,4.75-1.13,18.84,18.84,0,0,1,2.81-.06,15.13,15.13,0,0,1,4.15.87,19.67,19.67,0,0,1,4.77,2.53.86.86,0,0,0,.2.13c.17.09.29,0,.33-.16a1,1,0,0,0,0-.24V22.25a.59.59,0,0,1,.47-.61.93.93,0,0,1,.24,0h6.5a.6.6,0,0,1,.59.6,1.09,1.09,0,0,1,0,.18v6a.15.15,0,0,0,.07-.11A8.77,8.77,0,0,1,55,23.08a13.77,13.77,0,0,1,3.8-1.63,26.71,26.71,0,0,1,10.94-.4,16.08,16.08,0,0,1,4,1.3,11.32,11.32,0,0,1,4.7,4.13,12.67,12.67,0,0,1,1.68,4.32,1.42,1.42,0,0,0,.05.16l0,0,0-.07A19.33,19.33,0,0,1,87,23.56a17.9,17.9,0,0,1,8.76-2.87,20.14,20.14,0,0,1,3.72.14A18.89,18.89,0,0,1,104,22,19.17,19.17,0,0,1,114,31.08l.1.17a.46.46,0,0,0,0-.19,12.47,12.47,0,0,1,.22-2.1,8.72,8.72,0,0,1,3.37-5.4,12.43,12.43,0,0,1,3.8-1.9,23.15,23.15,0,0,1,6.24-1,24.87,24.87,0,0,1,5.17.32,17,17,0,0,1,4,1.23,11.58,11.58,0,0,1,4.32,3.37,11.84,11.84,0,0,1,2.15,4.53c.11.43.19.87.27,1.31a.45.45,0,0,1-.4.58,1,1,0,0,1-.3,0l-4.07,0-2.77,0a.63.63,0,0,1-.73-.58c0-.16-.07-.31-.1-.46a5.81,5.81,0,0,0-2.1-3.26,6.72,6.72,0,0,0-3.39-1.26,10.12,10.12,0,0,0-2.52,0,6.62,6.62,0,0,0-2.17.6,3.72,3.72,0,0,0-1.21,5.85A5.42,5.42,0,0,0,125.48,34a15,15,0,0,0,2.83,1c1.36.37,2.74.64,4.12.93a29.67,29.67,0,0,1,4.35,1.26,16.33,16.33,0,0,1,4.1,2.24,10.21,10.21,0,0,1,3,3.61,9.63,9.63,0,0,1,1,3.75,1.13,1.13,0,0,0,0,.18v1.35a1.08,1.08,0,0,0,0,.19c0,.27,0,.54-.08.81a8.79,8.79,0,0,1-3,5.43A12.66,12.66,0,0,1,138.23,57a22.5,22.5,0,0,1-6.91,1.5ZM86.62,39.71a17.68,17.68,0,0,0,.19,2.47,13.48,13.48,0,0,0,1,3.58A9.52,9.52,0,0,0,93.35,51a10.78,10.78,0,0,0,5.82.44,9.61,9.61,0,0,0,7-5.34,14.36,14.36,0,0,0,1.35-5.62,16.29,16.29,0,0,0-.24-3.69A12.9,12.9,0,0,0,106,33a9.65,9.65,0,0,0-5.65-4.76,10.56,10.56,0,0,0-4.74-.4,9.45,9.45,0,0,0-3.21,1,9.94,9.94,0,0,0-4.73,5.26A15,15,0,0,0,86.62,39.71Zm-43.56-.26a18.19,18.19,0,0,0-.2-2.73,13.25,13.25,0,0,0-.9-3.29,8.69,8.69,0,0,0-4.56-4.71,11.36,11.36,0,0,0-5-.93,9.78,9.78,0,0,0-3.22.61,9.63,9.63,0,0,0-4.64,3.66,12.94,12.94,0,0,0-2.23,6.63A15,15,0,0,0,22.65,43a11.44,11.44,0,0,0,1.92,4.39,9.82,9.82,0,0,0,7.64,4.18,10.5,10.5,0,0,0,3.93-.52A9.07,9.07,0,0,0,40.69,48a10.77,10.77,0,0,0,1.88-4A18.06,18.06,0,0,0,43.06,39.45Zm8,6.47h.51l5,.07,1.18,0a.55.55,0,0,1,.58.44.94.94,0,0,1,0,.16c.1.37.17.76.29,1.12a6.17,6.17,0,0,0,2.62,3.49A8.62,8.62,0,0,0,65,52.42a14.56,14.56,0,0,0,2.19,0A8.23,8.23,0,0,0,69.54,52a5.05,5.05,0,0,0,2.2-1.49,4.64,4.64,0,0,0,1.06-2.64,4.17,4.17,0,0,0-.1-1.45,3.69,3.69,0,0,0-1.25-1.84,7.57,7.57,0,0,0-1.83-1.09,16.37,16.37,0,0,0-3.11-1c-1.46-.34-2.93-.63-4.4-1a34.44,34.44,0,0,1-4.1-1.1,15.6,15.6,0,0,1-3.56-1.72,7.94,7.94,0,0,1-3.37-4.48.62.62,0,0,0-.06-.12Zm63.88,0h.18l4.13.06,1.9,0a.57.57,0,0,1,.63.49l0,.14c.11.41.19.84.33,1.25a6.18,6.18,0,0,0,3.07,3.62,8.41,8.41,0,0,0,2.63.83,13.17,13.17,0,0,0,3.26.08,7.34,7.34,0,0,0,2.17-.53,4.74,4.74,0,0,0,2.5-2.31,5.11,5.11,0,0,0,.47-2.21,3.36,3.36,0,0,0-.8-2.21,5.11,5.11,0,0,0-1.31-1.1,11.77,11.77,0,0,0-2.6-1.13,42.91,42.91,0,0,0-4.61-1.1c-1.36-.28-2.72-.56-4.06-.94A19.79,19.79,0,0,1,119,39.43a9.67,9.67,0,0,1-3.24-2.58l-.09-.07A20.32,20.32,0,0,1,114.9,45.91ZM79.69,32.06h-.17l-3.85,0-3,0a.63.63,0,0,1-.72-.57c0-.12,0-.24-.08-.36a5.82,5.82,0,0,0-2-3.26,6.27,6.27,0,0,0-2.78-1.25,10.37,10.37,0,0,0-3.6-.08,5.9,5.9,0,0,0-2.15.73,3.5,3.5,0,0,0-1.84,3,3.6,3.6,0,0,0,1.19,2.91,6.66,6.66,0,0,0,1.79,1.12,17.71,17.71,0,0,0,3.17,1c1.24.29,2.48.55,3.72.82a26.13,26.13,0,0,1,4.65,1.46,14.88,14.88,0,0,1,4,2.46l.12.09A19.51,19.51,0,0,1,79.69,32.06Z"/><rect class="cls-2" width="163.6" height="76.53"/></g></g></svg>