<svg xmlns="http://www.w3.org/2000/svg" xmlns:xlink="http://www.w3.org/1999/xlink" viewBox="0 0 163.6 76.53"><defs><style>.cls-1{fill:none;}.cls-2{opacity:0.9;}.cls-3{fill:#000002;}.cls-4{fill:url(#linear-gradient);}.cls-5{fill:url(#linear-gradient-2);}.cls-6{fill:#219c93;}.cls-7{fill:#357821;}.cls-8{fill:#0f9cd6;}.cls-9{fill:url(#linear-gradient-3);}</style><linearGradient id="linear-gradient" x1="11.64" y1="27.68" x2="36.25" y2="48.33" gradientUnits="userSpaceOnUse"><stop offset="0" stop-color="#0f9cd6"/><stop offset="1" stop-color="#1155a2"/></linearGradient><linearGradient id="linear-gradient-2" x1="6.09" y1="34.93" x2="18.06" y2="34.93" gradientUnits="userSpaceOnUse"><stop offset="0" stop-color="#8ab600"/><stop offset="1" stop-color="#015f24"/></linearGradient><linearGradient id="linear-gradient-3" x1="6.07" y1="47.48" x2="23.36" y2="47.48" gradientUnits="userSpaceOnUse"><stop offset="0" stop-color="#037f7a"/><stop offset="1" stop-color="#2eb5a6"/></linearGradient></defs><title>autodesk</title><g id="Layer_2" data-name="Layer 2"><g id="Top-nav"><rect class="cls-1" width="163.6" height="76.53"/><g class="cls-2"><path class="cls-3" d="M101.83,37.08c0-2.34,0-4.69,0-7,0-.42.12-.49.51-.49,1.87,0,3.74,0,5.61,0a7.47,7.47,0,0,1,1.36,14.8,9.18,9.18,0,0,1-1.81.18c-1.72,0-3.44,0-5.16,0-.44,0-.51-.13-.51-.53C101.84,41.73,101.83,39.41,101.83,37.08Zm2.71,0c0,1.56,0,3.13,0,4.69,0,.16-.1.39.22.39a24.32,24.32,0,0,0,3.82-.12,4.9,4.9,0,0,0,4-5,4.79,4.79,0,0,0-4.16-4.92,28,28,0,0,0-3.55-.1c-.34,0-.39.11-.38.41C104.55,34,104.54,35.54,104.54,37.1Z"/><path class="cls-3" d="M99.09,37.1a7.77,7.77,0,1,1-7.75-7.79A7.73,7.73,0,0,1,99.09,37.1Zm-7.8,5.29a5.32,5.32,0,1,0-5-5.31A5.13,5.13,0,0,0,91.29,42.39Z"/><path class="cls-3" d="M118,37.05c0-2.36,0-4.72,0-7.08,0-.31.06-.41.39-.41,3.32,0,6.63,0,9.95,0,.31,0,.38.1.37.39,0,.54,0,1.09,0,1.64,0,.35-.07.46-.44.46-2.37,0-4.75,0-7.12,0-.43,0-.5.12-.49.51,0,1,0,1.91,0,2.87,0,.32.08.41.4.41,1.45,0,2.89,0,4.34,0,.35,0,.44.11.42.44,0,.52,0,1,0,1.55,0,.34-.07.44-.42.44-1.42,0-2.83,0-4.25,0-.42,0-.5.13-.49.51,0,1,0,2,0,3.06,0,.33.1.4.41.4h7.22c.33,0,.45.06.43.41,0,.57,0,1.13,0,1.69,0,.23,0,.32-.3.32q-5.05,0-10.13,0c-.33,0-.28-.18-.28-.38Z"/><path class="cls-3" d="M53.91,44.58c-.86,0-1.69,0-2.53,0-.24,0-.29-.14-.36-.32-.42-1-.85-2-1.25-3A.43.43,0,0,0,49.3,41q-3.19,0-6.39,0a.44.44,0,0,0-.5.32c-.4,1-.83,1.95-1.24,2.94a.44.44,0,0,1-.49.34c-.77,0-1.55,0-2.38,0l.65-1.5q2.88-6.6,5.76-13.22a.55.55,0,0,1,.61-.39c.58,0,1.16,0,1.73,0a.37.37,0,0,1,.43.24q3.21,7.38,6.44,14.76A.58.58,0,0,1,53.91,44.58Zm-10.37-6c1.61,0,3.16,0,4.7,0,.41,0,.37-.13.24-.41C47.73,36.49,47,34.76,46.24,33c0-.09,0-.25-.21-.26C45.21,34.71,44.38,36.64,43.54,38.61Z"/><path class="cls-3" d="M57.78,34.4c0,1.37,0,2.74,0,4.11a3.74,3.74,0,1,0,7.47.07c.09-2.54,0-5.08,0-7.62,0-.32,0-.64,0-1s0-.46.41-.44c.66,0,1.31,0,2,0,.24,0,.3.07.3.3,0,2.94,0,5.88,0,8.82a6,6,0,0,1-2.75,5.18c-2.3,1.48-6.55,1.37-8.57-1.11A7.34,7.34,0,0,1,55.07,38c0-2.69,0-5.39,0-8.08,0-.28,0-.41.36-.4q1,0,2,0c.29,0,.36.09.35.37C57.77,31.42,57.78,32.91,57.78,34.4Z"/><path class="cls-3" d="M147.57,36.73l2-2.13c1.48-1.6,3-3.19,4.43-4.79a.58.58,0,0,1,.5-.24h3c-.54.6-1,1.13-1.53,1.67-1.63,1.76-3.26,3.53-4.9,5.28-.23.25-.24.39,0,.64,2.23,2.3,4.45,4.62,6.68,6.93l.45.49a11,11,0,0,0-1.42,0,3.23,3.23,0,0,1-3.14-1.28c-1.84-2.1-3.84-4.07-5.77-6.09-.09-.09-.15-.19-.24-.3-.16.18-.09.34-.09.47,0,2.26,0,4.51,0,6.76,0,.37-.11.46-.45.44a15.88,15.88,0,0,0-1.69,0c-.33,0-.41-.1-.4-.41,0-2.8,0-5.6,0-8.4,0-1.9,0-3.8,0-5.71,0-.43.14-.53.53-.51a13,13,0,0,0,1.65,0c.31,0,.37.1.37.39,0,2.11,0,4.23,0,6.34A.66.66,0,0,0,147.57,36.73Z"/><path class="cls-3" d="M131.91,40.36a10.2,10.2,0,0,0,2.5,1.52,6,6,0,0,0,3.52.4,1.93,1.93,0,0,0,1.72-2.1,1.66,1.66,0,0,0-.86-1.18,8.31,8.31,0,0,0-2.07-.91,16.19,16.19,0,0,1-3.36-1.39,3.73,3.73,0,0,1-1.55-5.13,4.28,4.28,0,0,1,2.88-2,9.81,9.81,0,0,1,6.65.78c.3.15.4.28.23.61a13.94,13.94,0,0,0-.61,1.37c-.12.31-.22.4-.58.23a7.49,7.49,0,0,0-5.1-.61,2.83,2.83,0,0,0-.55.21,1.31,1.31,0,0,0-.28,2.2,4.53,4.53,0,0,0,1.48.8c1.23.48,2.52.8,3.71,1.37a4.71,4.71,0,0,1,2.2,1.84,4.22,4.22,0,0,1-2,5.87,8.53,8.53,0,0,1-8.67-1.35.3.3,0,0,1-.1-.42C131.33,41.79,131.61,41.09,131.91,40.36Z"/><path class="cls-3" d="M83.21,29.64c-.31.73-.63,1.47-.92,2.21-.1.25-.29.19-.46.19-1.06,0-2.13,0-3.19,0-.33,0-.4.09-.4.41,0,3.89,0,7.78,0,11.68,0,.37-.07.5-.46.47a16,16,0,0,0-1.83,0c-.33,0-.39-.1-.39-.41,0-3.88,0-7.76,0-11.64,0-.42-.12-.52-.53-.51-1.29,0-2.58,0-3.88,0-.27,0-.37-.06-.36-.35,0-.6,0-1.21,0-1.82,0-.2,0-.3.27-.3h12S83.15,29.6,83.21,29.64Z"/><path class="cls-3" d="M160.39,44.58a1,1,0,1,1,1-1A1,1,0,0,1,160.39,44.58Zm.84-1a.81.81,0,0,0-.79-.87.85.85,0,1,0-.06,1.69A.82.82,0,0,0,161.23,43.6Z"/><path class="cls-3" d="M160.82,44.09c-.31,0-.3-.31-.5-.37s0,.31-.24.37a7.18,7.18,0,0,1,0-.93c0-.24.27-.13.41-.11s.34.24.22.36C160.44,43.69,160.72,43.85,160.82,44.09Z"/><g id="wlEqUK"><path class="cls-4" d="M33.54,51.06c-.34-.81-.68-1.62-1-2.43s-.7-1.67-1.06-2.51-.62-1.49-.94-2.24L30,42.68l-.17-.44L28.87,40c-.14-.35-.28-.7-.44-1v0l-.68-1.62c-.35-.82-.69-1.63-1-2.44l-.57-1.33a.39.39,0,0,0-.05-.14l-.72-1.69L24.6,29.9l-.69-1.62c-.11-.28-.23-.56-.35-.84-.19-.46-.39-.92-.57-1.39a1.33,1.33,0,0,0-1.36-.93H14.37a1.19,1.19,0,0,0-.77.23c.05,0,.09,0,.14,0a1.31,1.31,0,0,1,1.82.71c.32.77.65,1.54,1,2.3.25.58.49,1.16.73,1.74l.42,1,.05.1h0v0c.06,0,.1.05.05.11l.28.69s.05.08.07.13c.43,1,.86,2.06,1.3,3.09.17.4.32.8.51,1.19l.59,1.41c.39.94.79,1.89,1.19,2.83.17.39.34.78.5,1.17l1.54,3.7c.11.25.22.5.32.75l.57,1.35c.19.44.37.89.56,1.34L25.69,50c.18.42.35.84.52,1.26a.18.18,0,0,0,.2.14h7.13c.05,0,.09,0,.14,0S33.59,51.17,33.54,51.06Z"/><path class="cls-5" d="M17.78,31.26a.37.37,0,0,1-.05-.11v0l-.05-.1-.42-1c-.24-.58-.48-1.16-.73-1.74-.32-.76-.65-1.53-1-2.3a1.31,1.31,0,0,0-1.82-.71c-.05,0-.09.06-.14,0a1,1,0,0,0-.4.47c-.07.16-.13.32-.19.48-.21.51-.43,1-.65,1.54,0,0,0,.09,0,.11s0,.05,0,.08,0,0,0,.06c-.13.32-.27.63-.39.95s-.29.63-.38,1-.28.66-.43,1-.2.5-.3.74a2.27,2.27,0,0,0-.18.47c-.05,0-.06.08-.08.12-.12.29-.23.59-.36.88s-.27.64-.41,1-.17.43-.26.64l-.4.93c-.11.27-.21.55-.32.83a1.24,1.24,0,0,0-.17.37c-.13.3-.25.61-.38.91s-.23.57-.35.85-.2.45-.28.69a7.4,7.4,0,0,0-.38.87c-.17.39-.33.77-.49,1.16l-.42,1a1.38,1.38,0,0,0-.17.66,2,2,0,0,0,0,.49,1.53,1.53,0,0,0,1.4,1.1,10.77,10.77,0,0,0,1.27,0c.34,0,.69,0,1,0h2.85l.83-2a4.74,4.74,0,0,0,.29-.74A2.43,2.43,0,0,0,14,41.6c.13-.3.27-.6.4-.91.21-.49.41-1,.61-1.46s.51-1.18.75-1.78l.2-.44c.3-.72.6-1.44.91-2.16s.52-1.22.77-1.83a.58.58,0,0,0,.11-.31l.06-.1.3-.66Z"/><path class="cls-6" d="M6.12,43.55h0a.69.69,0,0,1,0-.49A2,2,0,0,0,6.12,43.55Z"/><path class="cls-7" d="M12.36,27.84s0,.09,0,.11A.11.11,0,0,1,12.36,27.84Z"/><path class="cls-8" d="M17.78,31.26a.37.37,0,0,1-.05-.11C17.79,31.17,17.83,31.2,17.78,31.26Z"/><path class="cls-9" d="M17.37,48.43l2.17-1.34L21.3,46l1.11-.69.95-.59v0H8.79a10.77,10.77,0,0,1-1.27,0,1.53,1.53,0,0,1-1.4-1.1h0a2.47,2.47,0,0,0,.29.71c.33.64.68,1.27,1,1.9l.76,1.41.68,1.26c.32.59.64,1.18,1,1.77a1.47,1.47,0,0,0,1.4.82,2.78,2.78,0,0,0,.76-.1,5.36,5.36,0,0,0,.57-.17,10.88,10.88,0,0,0,1.31-.58Z"/></g></g></g></g></svg>