<svg xmlns="http://www.w3.org/2000/svg" viewBox="0 0 163.6 76.53"><defs><style>.cls-1{fill:#023b73;}.cls-2{fill:#db240c;}.cls-3{fill:none;}</style></defs><title>citibank</title><g id="Layer_2" data-name="Layer 2"><g id="Top-nav"><g id="ttiLg2"><path class="cls-1" d="M29.19,47.71l2.59,3.14a12,12,0,0,1-1.4,1.45,9.56,9.56,0,0,1-4.86,2.3,11.79,11.79,0,0,1-3.14.07,12.36,12.36,0,0,1-3.87-1,10.54,10.54,0,0,1-6.09-7.22,13.53,13.53,0,0,1-.36-4.3,12.07,12.07,0,0,1,.77-3.62,10.33,10.33,0,0,1,5-5.62,12.67,12.67,0,0,1,6.73-1.37,9.64,9.64,0,0,1,6.38,3c.26.26.49.53.74.79.07.08.07.13,0,.22l-2.51,3c-.12-.11-.23-.21-.33-.32A8.75,8.75,0,0,0,26,36.33,6.81,6.81,0,0,0,16.92,41a7.75,7.75,0,0,0,.64,5.78,6.46,6.46,0,0,0,5,3.43,7,7,0,0,0,5.73-1.68C28.57,48.31,28.86,48,29.19,47.71Z"/><path class="cls-1" d="M57.26,49.32c0,.33-.15.63-.22.94-.27,1.05-.54,2.09-.8,3.13a.45.45,0,0,1-.24.32,7.1,7.1,0,0,1-3.1.92,6.5,6.5,0,0,1-2.11-.15,4.82,4.82,0,0,1-3.29-2.92A6.94,6.94,0,0,1,47,48.71V36.48c0-.36,0-.36-.38-.36H43.33c-.25,0-.26,0-.26-.24V32.13c0-.24,0-.25.25-.25h3.44c.21,0,.21,0,.21-.22,0-1.35,0-2.69,0-4a.45.45,0,0,1,.29-.47l3.91-2.08.31-.16v6.66c0,.31,0,.3.3.3h4a1,1,0,0,0,.17,0c.16,0,.19.06.19.2v3.83c0,.2,0,.21-.24.21H51.78c-.35,0-.31,0-.31.29V47.9a5.28,5.28,0,0,0,.11,1.19,1.77,1.77,0,0,0,1.73,1.45,5.48,5.48,0,0,0,2.43-.45,9.58,9.58,0,0,0,1.31-.68C57.11,49.38,57.16,49.32,57.26,49.32Z"/><path class="cls-1" d="M74.15,51.34v2.75c0,.21,0,.22-.22.22H71.74c-.21,0-.21,0-.22-.22V25.2a1.33,1.33,0,0,0,0-.2.24.24,0,0,1,.16-.26L74,23.4s.06,0,.12,0v11.8c.14,0,.18-.13.25-.2a12.79,12.79,0,0,1,2-1.91,7.91,7.91,0,0,1,5.14-1.54,6.62,6.62,0,0,1,5.82,3.77,12.43,12.43,0,0,1,1.24,3.81,22.31,22.31,0,0,1,.27,4.69,17.13,17.13,0,0,1-1,5.35,9.69,9.69,0,0,1-2.29,3.67,6.63,6.63,0,0,1-4.08,1.91,7.45,7.45,0,0,1-6.28-2.26c-.27-.28-.53-.57-.78-.86l-.26-.3Zm0-8.26v5.56a.73.73,0,0,0,.09.41,7.7,7.7,0,0,0,4.32,3.21,6.41,6.41,0,0,0,3.31.13,4.7,4.7,0,0,0,3-2.36,10.11,10.11,0,0,0,1.16-3.54,19.74,19.74,0,0,0,.25-2.87,18.5,18.5,0,0,0-.3-4.27,9.25,9.25,0,0,0-1.2-3.13,5,5,0,0,0-4-2.42,6.6,6.6,0,0,0-3.8.91A9.8,9.8,0,0,0,74.34,37a.73.73,0,0,0-.2.51C74.15,39.39,74.15,41.24,74.15,43.08Z"/><path class="cls-1" d="M106,42.19a.23.23,0,0,0,0-.17c0-1.05,0-2.09,0-3.13a6.61,6.61,0,0,0-.45-2.52A3.9,3.9,0,0,0,103,34a7.76,7.76,0,0,0-2.67-.31A11.86,11.86,0,0,0,95,35.24l-.12.06c-.06,0-.08-.08-.1-.13L94,33.44c-.1-.24-.13-.22.13-.35a14.88,14.88,0,0,1,3.62-1.23,16.24,16.24,0,0,1,4.56-.28,9.47,9.47,0,0,1,2.52.55,5.43,5.43,0,0,1,3.46,3.9,8.81,8.81,0,0,1,.3,2.28q0,4.75,0,9.53V54c0,.35,0,.31-.33.31h-2c-.37,0-.31,0-.31-.3,0-.85,0-1.7,0-2.55v-.34a.49.49,0,0,0-.24.2,12.91,12.91,0,0,1-2,1.82,8.34,8.34,0,0,1-4.27,1.61,8.74,8.74,0,0,1-3.66-.41,5.53,5.53,0,0,1-3.65-3.75A8.86,8.86,0,0,1,92,46.05a6,6,0,0,1,3.16-4.18,9.41,9.41,0,0,1,3.31-1,12.79,12.79,0,0,1,4.53.22,9.37,9.37,0,0,1,2.67,1A.86.86,0,0,0,106,42.19Zm0,4.47c0-.76,0-1.51,0-2.27a.31.31,0,0,0-.18-.31,10,10,0,0,0-2.09-.87,13.68,13.68,0,0,0-3.93-.44,7.18,7.18,0,0,0-2.55.45,4.16,4.16,0,0,0-2.7,3,6.62,6.62,0,0,0,.21,3.66,4,4,0,0,0,1,1.6,4.2,4.2,0,0,0,2.41,1.15,7.65,7.65,0,0,0,4.61-.72,8.61,8.61,0,0,0,3.13-2.68.55.55,0,0,0,.1-.35Z"/><path class="cls-1" d="M138.75,23.37V44.63c.07,0,.09,0,.11-.07,2.2-3.46,4.62-6.76,6.92-10.15l1.51-2.19a.4.4,0,0,1,.39-.21h2.57c0,.12-.09.19-.15.27l-5.29,7.26a.42.42,0,0,0-.05.51q3.36,7,6.71,14a1.6,1.6,0,0,1,.1.23c-.06.08-.14.05-.21.05-.77,0-1.55,0-2.32,0a.32.32,0,0,1-.36-.23L143.91,44l-.82-1.74L143,42c-.09,0-.12.13-.17.2l-3.92,5.49a.7.7,0,0,0-.14.44V54c0,.33.05.32-.32.32h-2c-.26,0-.26,0-.26-.26V25a.18.18,0,0,1,.11-.2l2.44-1.39Z"/><path class="cls-2" d="M68.36,28.15a.52.52,0,0,1-.27,0H63.35a.57.57,0,0,1-.44-.18,18.64,18.64,0,0,0-6.1-4.16,17.58,17.58,0,0,0-5-1.3,17.78,17.78,0,0,0-12.5,3.34A17.48,17.48,0,0,0,36.83,28a.48.48,0,0,1-.34.16h-5s-.08,0-.12,0,.08-.14.12-.21A22.51,22.51,0,0,1,44,19.18a20.59,20.59,0,0,1,4.74-.78,22.61,22.61,0,0,1,19.41,9.42Z"/><path class="cls-1" d="M116.72,35.37l.41-.6a7.32,7.32,0,0,1,1.28-1.5A6.8,6.8,0,0,1,122,31.62a8.61,8.61,0,0,1,4.09.37,6.18,6.18,0,0,1,3.76,3.62,11.51,11.51,0,0,1,.8,3.32c.12,1.27.07,2.53.07,3.8,0,2.7,0,5.39,0,8.09,0,1.08,0,2.15,0,3.23,0,.26,0,.26-.27.26h-2.07c-.34,0-.28,0-.28-.29,0-3.83,0-7.65,0-11.47,0-.57,0-1.13,0-1.7a12.35,12.35,0,0,0-.51-3.58,5.73,5.73,0,0,0-.77-1.57,4.15,4.15,0,0,0-2.13-1.58,6.56,6.56,0,0,0-3.8-.12,5.08,5.08,0,0,0-3.35,2.88,9.2,9.2,0,0,0-.79,3,14.89,14.89,0,0,0-.06,1.64V54c0,.25,0,.28-.28.28h-2.07c-.3,0-.28,0-.28-.28V32.41c0-.39,0-.39.39-.39.62,0,1.24,0,1.87,0,.43,0,.36-.05.37.35v3Z"/><path class="cls-1" d="M34.42,43.1V32.2c0-.39,0-.33.33-.33,1.31,0,2.63,0,3.94,0h.17c.13,0,.17.06.16.17a.75.75,0,0,0,0,.15V54c0,.31,0,.31-.3.31H34.58c-.11,0-.17,0-.16-.14V43.1Z"/><path class="cls-1" d="M65.43,43.08V54c0,.36.06.34-.33.34H61c-.21,0-.21,0-.21-.22V32.22c0-.41,0-.35.34-.35,1.31,0,2.63,0,3.94,0h.2q.12,0,.12.12V43.08Z"/></g><rect class="cls-3" width="163.6" height="76.53"/></g></g></svg>