<svg xmlns="http://www.w3.org/2000/svg" viewBox="0 0 163.6 76.53"><defs><style>.cls-1{fill:#f70000;}.cls-2{fill:none;}</style></defs><title>coca-cola</title><g id="Layer_2" data-name="Layer 2"><g id="Top-nav"><path class="cls-1" d="M72.77,60a21.14,21.14,0,0,0-2.88-1.59A16.62,16.62,0,0,0,63,56.93a8,8,0,0,0-2.66.39,6,6,0,0,0-3,2.24l-.18.27,0,0a8.79,8.79,0,0,0-1.52-2,9.54,9.54,0,0,0-5-2.42,22.07,22.07,0,0,0-7.07,0,76.25,76.25,0,0,0-7.78,1.79c-2.6.64-5.19,1.28-7.84,1.68a12.12,12.12,0,0,1-7.81-1.09,8.92,8.92,0,0,1-4.65-6.36,14.23,14.23,0,0,1-.28-1.85s0-.11-.06-.14v-2.6a4.51,4.51,0,0,0,.17-1.1,31.46,31.46,0,0,1,4.27-11.74A43.82,43.82,0,0,1,32.7,20,20,20,0,0,1,40,16.74a7.8,7.8,0,0,1,3-.17,3.24,3.24,0,0,1,2.67,3.54,7.37,7.37,0,0,1-1.92,4.3,2.39,2.39,0,0,1-1.53.8,1.08,1.08,0,0,1-1.32-1,3.24,3.24,0,0,1,1-2.64,2.53,2.53,0,0,1,2-.95.29.29,0,0,0,.31-.23,1.31,1.31,0,0,0-1-1.85,3.37,3.37,0,0,0-1.64.17,14.74,14.74,0,0,0-5.28,3.1A51,51,0,0,0,22.93,40.3a26.15,26.15,0,0,0-1.73,6,11.57,11.57,0,0,0,.5,6.3,5.88,5.88,0,0,0,3,3.07,10.47,10.47,0,0,0,5.58,1.1,45.78,45.78,0,0,0,7.42-1.4c3.36-.81,6.71-1.67,10.08-2.46a37.3,37.3,0,0,1,8.55-1,18.86,18.86,0,0,1,8.55,1.85,31.13,31.13,0,0,1,5.48,3.76,15.56,15.56,0,0,1,2.36,2.3,1.32,1.32,0,0,1,.12.2Z"/><path class="cls-1" d="M136.53,23c.32-.65.61-1.23.89-1.82a4.45,4.45,0,0,0,.55-2.07c0-.38-.19-.53-.55-.43a4.43,4.43,0,0,0-1.6.93,43,43,0,0,0-6.08,6.21,103.55,103.55,0,0,0-10.42,16.4c-.11.22-.21.45-.35.75a5.81,5.81,0,0,0,1.18-.74,56.67,56.67,0,0,0,6-5.51,73.21,73.21,0,0,0,6.77-7.84.4.4,0,0,1,.36-.19l1.16-.12c0,.15-.09.25-.16.35a48.45,48.45,0,0,1-3.85,4.94,76.41,76.41,0,0,1-8.2,8.29c-1.36,1.16-2.77,2.27-4.24,3.29a1.43,1.43,0,0,0-.52.62,32.9,32.9,0,0,0-2.25,6.28,4.73,4.73,0,0,0-.19,2.08.9.9,0,0,0,1.51.63,8.57,8.57,0,0,0,2-2c1.19-1.52,2.16-3.2,3.22-4.82a48.45,48.45,0,0,1,4.79-6.35,19.53,19.53,0,0,1,4.34-3.61,4.54,4.54,0,0,1,2.17-.68,2.22,2.22,0,0,1,2.06.86c.17.23.35.45.55.7l.52-.89c0-.1.11-.19.25-.18h4a.27.27,0,0,1-.08.27c-2,3.57-4,7.14-6,10.69-.76,1.34-1.61,2.63-2.29,4-.18.37-.35.75-.5,1.13s-.2.55.07.76.53.08.77-.07a12.59,12.59,0,0,0,3.1-2.86,30.06,30.06,0,0,0,2.38-3.33A1,1,0,0,1,139,48.1a5.26,5.26,0,0,0,.69,0c-.44.69-.83,1.31-1.25,1.93a38.58,38.58,0,0,1-5.36,6.53,13.09,13.09,0,0,1-3.51,2.33,2.51,2.51,0,0,1-.89.24,1.87,1.87,0,0,1-2.25-1.94,5.41,5.41,0,0,1,.07-1.39c-.15,0-.2.13-.27.2a14.08,14.08,0,0,1-3.64,2.78,3.19,3.19,0,0,1-1.94.33,2.35,2.35,0,0,1-2-2.23,4.71,4.71,0,0,1-.06-1c0-.33,0-.66.07-1.06-.34.39-.63.74-.93,1.07a14.53,14.53,0,0,1-2.56,2.33,5.85,5.85,0,0,1-1.54.77,2.48,2.48,0,0,1-3.12-1.28,4.5,4.5,0,0,1-.43-2.5,21.36,21.36,0,0,1,1.13-4.85c.29-.9.59-1.79.89-2.69-.16-.08-.29,0-.43,0-.53.06-1,.14-1.58.18a.53.53,0,0,0-.49.31A42.84,42.84,0,0,1,106.55,53a19.43,19.43,0,0,1-5.65,5.3,5.45,5.45,0,0,1-2.46.85,2.5,2.5,0,0,1-2.69-1.82,6.5,6.5,0,0,1-.1-3.13,17.84,17.84,0,0,1,2.17-5.87,28.26,28.26,0,0,1,6.85-8.48,11.59,11.59,0,0,1,3.61-2A4.26,4.26,0,0,1,110,37.6a2.36,2.36,0,0,1,2.2,2.24,8.67,8.67,0,0,1-.64,4.24,19.91,19.91,0,0,1-1,2.23c-.11.21-.09.3.17.29a5.47,5.47,0,0,0,1.86-.46c.18-.08.23-.23.3-.38a99.57,99.57,0,0,1,6.66-11.83,64.51,64.51,0,0,1,11.18-13,23.18,23.18,0,0,1,4.3-3.13,5.12,5.12,0,0,1,2.83-.73,1.34,1.34,0,0,1,1.31,1.3,5.6,5.6,0,0,1-.45,2.77,6,6,0,0,0-.36.82C138.16,22.88,137.33,22.84,136.53,23ZM123.94,54a.83.83,0,0,0,.3.92,1,1,0,0,0,1,0l.09-.05a6.07,6.07,0,0,0,1.42-1.25,38,38,0,0,0,2.85-4.14c1.72-2.8,3.24-5.71,5-8.51a.69.69,0,0,0,0-.84.73.73,0,0,0-.81-.24,2.86,2.86,0,0,0-1.27.68,21.71,21.71,0,0,0-4,4.4,37.89,37.89,0,0,0-3.92,6.6A7.29,7.29,0,0,0,123.94,54Zm-19-9.53a26.65,26.65,0,0,0-4,7.06,5.41,5.41,0,0,0-.34,2.22,1.24,1.24,0,0,0,1.76,1.16,4.15,4.15,0,0,0,1.49-.92,20.7,20.7,0,0,0,4.52-6.14c.07-.13.06-.21-.09-.28A6.92,6.92,0,0,1,104.92,44.43Zm6-3.11a2.54,2.54,0,0,0-.2-1.23.91.91,0,0,0-.68-.58,2,2,0,0,0-1.26.21,5.8,5.8,0,0,0-1.46,1.15c-1.78,2-.69,4.6,1.64,5.43a.26.26,0,0,0,.37-.16c.2-.42.44-.82.62-1.25A8.85,8.85,0,0,0,110.89,41.32Z"/><path class="cls-1" d="M73,28.35c.17-.81.76-.8,1.4-.78,1,0,1.94,0,2.9,0,.33,0,.32.07.18.31q-3.48,6-6.93,12c-.58,1-1.17,2-1.76,3.06a1.71,1.71,0,0,0-.27.85c0,.43.25.61.66.49a3.39,3.39,0,0,0,1-.57,19.32,19.32,0,0,0,3.27-3.37c.58-.72,1.14-1.47,1.7-2.22a.43.43,0,0,1,.41-.21h1.1a.14.14,0,0,1,0,.18,46.35,46.35,0,0,1-5.91,7.34A14.45,14.45,0,0,1,67,48.22a3.22,3.22,0,0,1-2,.35,2,2,0,0,1-1.44-2c0-.38,0-.76.06-1.23a16.5,16.5,0,0,1-1.82,1.75A7.2,7.2,0,0,1,59,48.55a2.85,2.85,0,0,1-1.42,0,2.26,2.26,0,0,1-1.77-2.25,8.27,8.27,0,0,1,.35-2.57,1.42,1.42,0,0,0,.11-.55.86.86,0,0,0-.34.28,35.75,35.75,0,0,1-3.86,3.42,8.78,8.78,0,0,1-3.7,1.68,3.89,3.89,0,0,1-3.47-.8,4.71,4.71,0,0,1-1.31-2.88,9.21,9.21,0,0,1,1-5.16,33,33,0,0,1,1.71-3.42,8.75,8.75,0,0,1-1.27.32,1.56,1.56,0,0,0-1.31.94,38.9,38.9,0,0,1-2.92,4.57A22.88,22.88,0,0,1,35,47.69a6.35,6.35,0,0,1-2.21.89,2.77,2.77,0,0,1-3.4-2.37,8.92,8.92,0,0,1,.3-4.35,21.9,21.9,0,0,1,3.66-7.2,25,25,0,0,1,6-6,8.88,8.88,0,0,1,3.59-1.59,2.71,2.71,0,0,1,2.85.92,3.73,3.73,0,0,1,.59,2.7,14.14,14.14,0,0,1-1.18,4.14c0,.09-.14.2-.08.28s.2,0,.31,0a5.37,5.37,0,0,0,1.82-.87,18.42,18.42,0,0,0,3.36-2.87,19.93,19.93,0,0,1,3.8-3.24A6,6,0,0,1,58,27a2.78,2.78,0,0,1,2.73,3.29,6.8,6.8,0,0,1-1.9,3.88,2.25,2.25,0,0,1-1.28.74,1.09,1.09,0,0,1-1.26-1,2.05,2.05,0,0,1,.13-1,3.24,3.24,0,0,1,2.22-2.15l.27,0c.41,0,.48-.1.51-.51a.92.92,0,0,0-1-1.09,3.27,3.27,0,0,0-1.92.85,21.47,21.47,0,0,0-4,4.35,29.18,29.18,0,0,0-3.66,7.08,5,5,0,0,0-.28,2.43,1.77,1.77,0,0,0,2.37,1.59,6.64,6.64,0,0,0,2.71-1.58,36,36,0,0,0,5-5.63c1.4-1.9,2.7-3.87,4.25-5.64a23.35,23.35,0,0,1,4.84-4.47,6.66,6.66,0,0,1,2.3-1,2.57,2.57,0,0,1,2.79,1.11l.08.1ZM61.91,44.51a.8.8,0,0,0,.48-.15,6.91,6.91,0,0,0,1.39-1.08,17.27,17.27,0,0,0,2.46-3.36c2-3.25,3.86-6.56,5.72-9.88a.55.55,0,0,0-.37-.88,1.3,1.3,0,0,0-.91.11A4.9,4.9,0,0,0,69,30.53c-1,1.17-2,2.42-2.94,3.66a33.35,33.35,0,0,0-4.14,6.74,10.62,10.62,0,0,0-.82,2.56A.83.83,0,0,0,61.91,44.51ZM38.8,33.67a31.13,31.13,0,0,0-3.7,6.44,7.89,7.89,0,0,0-.63,2.47,1.64,1.64,0,0,0,.66,1.62A1.61,1.61,0,0,0,36.8,44,7.7,7.7,0,0,0,38,43.14,26,26,0,0,0,42.55,37s0-.09.05-.12,0-.23-.14-.29A5.92,5.92,0,0,1,38.8,33.67Zm6.05-2.84a2.45,2.45,0,0,0-.19-1.07A1,1,0,0,0,43.53,29a2,2,0,0,0-.49.07,4,4,0,0,0-2.67,3,2.13,2.13,0,0,0,.69,2.14,3.8,3.8,0,0,0,2.16,1c.2,0,.3-.05.38-.24.22-.54.49-1.06.69-1.61A7.79,7.79,0,0,0,44.85,30.83Z"/><path class="cls-1" d="M107.76,18.64a3.39,3.39,0,0,0-2.35,0A14.57,14.57,0,0,0,102,20.38a33.74,33.74,0,0,0-6.78,5.89,67.19,67.19,0,0,0-9,12.34,34,34,0,0,0-3.72,9.26,23.7,23.7,0,0,0-.47,3,6.22,6.22,0,0,0,.27,2.31,3.52,3.52,0,0,0,5,2.28,11.66,11.66,0,0,0,3.9-2.85A20.93,20.93,0,0,0,96.36,44a8.53,8.53,0,0,0,.38-2.93C96.67,40,96,39.5,94.9,39.91A4.3,4.3,0,0,0,93,41.48a11.61,11.61,0,0,0-2.25,5,.37.37,0,0,1-.22.33,17.06,17.06,0,0,0-5.22,4,.26.26,0,0,1-.14.09c0-.23.05-.46.08-.69s.07-.46.11-.69a17.89,17.89,0,0,1,3.28-7.89A10.08,10.08,0,0,1,94,37.82a4.18,4.18,0,0,1,1.64-.22,2.5,2.5,0,0,1,2.18,1.84,7.44,7.44,0,0,1,.1,3.63,19.76,19.76,0,0,1-3,7.09,23.15,23.15,0,0,1-7.65,7.66A9,9,0,0,1,83,59.13a5.74,5.74,0,0,1-5.52-3.05,9.2,9.2,0,0,1-1.2-4.59A18.17,18.17,0,0,1,77.49,45a46.1,46.1,0,0,1,5.78-11.09A54.14,54.14,0,0,1,94.17,22a27.18,27.18,0,0,1,9.42-5,6.92,6.92,0,0,1,3.88-.12,3.35,3.35,0,0,1,1.49.84.45.45,0,0,0,.53.1,19.89,19.89,0,0,1,3-.93A11.84,11.84,0,0,1,120.24,18c2.62,1.35,5.18,2.83,7.69,4.38l.07.07-2,2.05c-.36.38-.71.76-1,1.17a.32.32,0,0,1-.48.08c-1.11-.59-2.14-1.3-3.19-2a54.3,54.3,0,0,0-5.19-3.19,13.31,13.31,0,0,0-4.34-1.45,3.52,3.52,0,0,0-1.61.11c-.14.05-.26.1-.24.3a12.35,12.35,0,0,1-1.2,6,18.74,18.74,0,0,1-4.65,6.59,7.61,7.61,0,0,1-3,1.7,2.39,2.39,0,0,1-1.54,0,2.14,2.14,0,0,1-1.34-1.87,5.13,5.13,0,0,1,.44-2.86,20.19,20.19,0,0,1,6-8.17A25.87,25.87,0,0,1,107.76,18.64Zm.93,1.81a.87.87,0,0,0,0-.19c0-.46,0-.47-.42-.25l-.46.26a20,20,0,0,0-6.77,7,12.93,12.93,0,0,0-1.4,2.9,3.46,3.46,0,0,0-.18,1.28,1.17,1.17,0,0,0,1.66,1.06,5.23,5.23,0,0,0,1.37-.8,15.65,15.65,0,0,0,4.74-5.81A15,15,0,0,0,108.69,20.45Z"/><path class="cls-1" d="M148.38,16.84a16,16,0,0,1-1.69,2.74,20.87,20.87,0,0,1-10.3,7.68,12.78,12.78,0,0,1-6.66.52l-.42-.1c0-.11.05-.16.1-.23.87-1.14,1.79-2.24,2.74-3.32a.35.35,0,0,1,.33-.15,15.87,15.87,0,0,0,9.21-2.11,27.19,27.19,0,0,0,6.64-5.08Z"/><path class="cls-1" d="M78.4,31.25c.57-.93,1.1-1.8,1.64-2.66.2-.33.35-.76.64-.95s.76-.05,1.14-.06h2.7l.06,0c0,.11,0,.17-.08.24l-2,3.2c-.06.1-.11.21-.27.21Z"/><path class="cls-1" d="M148.33,16.79l.09-.07c0,.05,0,.09,0,.12Z"/><path class="cls-1" d="M72.8,60s.07,0,0,.06,0,0-.07,0Z"/><rect class="cls-2" width="163.6" height="76.53"/></g></g></svg>