<svg xmlns="http://www.w3.org/2000/svg" viewBox="0 0 163.6 78.32"><defs><style>.cls-1{fill:#333;}.cls-2{fill:none;}</style></defs><title>disney</title><g id="Layer_2" data-name="Layer 2"><g id="Top-nav"><path class="cls-1" d="M43,44.43a37.37,37.37,0,0,0,.28,5.89c.12.89.24,1,1.1,1.17a28.08,28.08,0,0,0,13.94-1.06,17.35,17.35,0,0,0,3.79-1.93A7.52,7.52,0,0,0,65.5,41,12.83,12.83,0,0,0,63,35,26.37,26.37,0,0,0,55,27.82a52.73,52.73,0,0,0-19.56-7.6,50.34,50.34,0,0,0-10.9-.62,9.2,9.2,0,0,0-2.92.59c-.22.08-.53.16-.53.41s.34.27.56.33.65.16,1,.26.55.19.52.53-.31.45-.61.52a4.65,4.65,0,0,1-1.82,0,3.14,3.14,0,0,1-.4-.08,1.38,1.38,0,0,1-.92-2.28,5.62,5.62,0,0,1,2.33-2,11.87,11.87,0,0,1,4.7-1.19A49.78,49.78,0,0,1,62.15,28.4,24.63,24.63,0,0,1,69,37a13.11,13.11,0,0,1,1.3,6,9.55,9.55,0,0,1-2.43,5.84,18,18,0,0,1-9.64,5.88,30.31,30.31,0,0,1-10.61.66,29.55,29.55,0,0,1-3.86-.62c-.26-.06-.4,0-.48.26a5.61,5.61,0,0,1-.43,1,2,2,0,0,1-2.06,1.1,1.9,1.9,0,0,1-1.68-1.48,15,15,0,0,1-.37-1.89,2.41,2.41,0,0,0-1.51-1.88A21.7,21.7,0,0,1,27.57,44c-.18-.27-.34-.55-.49-.83a2.26,2.26,0,0,1,.66-3,21.06,21.06,0,0,1,7.71-3.38c.92-.23,1.85-.45,2.78-.6a.77.77,0,0,0,.75-.82c.1-1.29.2-2.57.33-3.85A17.69,17.69,0,0,1,40,27.89c.24-.72.74-.86,1.31-.37a4.9,4.9,0,0,1,1.53,3.33c.16,1.23.16,2.48.41,3.69.21,1,.21,1,1.25,1.09a40.5,40.5,0,0,1,7.36.85,15.1,15.1,0,0,1,5,2.1A4,4,0,0,1,58.33,43a3.35,3.35,0,0,1-3,2.1A5.84,5.84,0,0,1,53.56,45c-.21,0-.46-.09-.51-.35s.12-.39.28-.51c.45-.36.92-.69,1.36-1.06.7-.58.65-1-.15-1.42a13.15,13.15,0,0,0-3.68-1.11c-2.26-.45-4.55-.72-6.84-1-.66-.09-.87.09-.87.76,0,1.38,0,2.75,0,4.12Zm-4.3-.73c0-1.06,0-2.11,0-3.16,0-.33,0-.68-.53-.66a35.39,35.39,0,0,0-6.41.67,18.23,18.23,0,0,0-2.82.82c-1.07.43-1.27,1.18-.56,2.05A13.58,13.58,0,0,0,31.15,46a21.6,21.6,0,0,0,6.42,3.21c.74.2.73.19.82-.59A39.68,39.68,0,0,0,38.7,43.7Z"/><path class="cls-1" d="M124.81,62.91a23,23,0,0,1,1.25-6.46c.57-1.84,1.34-3.61,2-5.42a.65.65,0,0,0,.05-.58,8.77,8.77,0,0,1-.33-6.58,17.09,17.09,0,0,1,5.39-8.21.51.51,0,0,1,.59-.16c.28.12.22.35.2.56a8.29,8.29,0,0,1-1,3.08c-.52,1-1.08,1.92-1.61,2.88a9.31,9.31,0,0,0-1.23,3.42c0,.17,0,.34,0,.51a.43.43,0,0,0,.22.47c.22.11.3-.11.4-.22.92-1.07,1.83-2.14,2.74-3.22a26.44,26.44,0,0,1,4.25-4.21,12.35,12.35,0,0,1,2.7-1.51,1.78,1.78,0,0,1,1.56.08A3.15,3.15,0,0,1,143.62,39a9.63,9.63,0,0,1-1.5,10.34,12.45,12.45,0,0,1-7,4.37,8.28,8.28,0,0,1-2.48.17.48.48,0,0,0-.58.38,59.7,59.7,0,0,0-3.54,13.26c-.11.72-.43.88-1.09.59a4.34,4.34,0,0,1-2.48-3.59A7.28,7.28,0,0,1,124.81,62.91ZM142.1,42.28a2,2,0,0,0-.46-1.32c-.25-.41-.49-.34-.77-.08a19.27,19.27,0,0,0-1.44,1.42,25.68,25.68,0,0,0-4.17,5.91c-.13.28-.45.69-.28.85s.67.07,1,0a10.43,10.43,0,0,0,2.28-1A6.66,6.66,0,0,0,142.1,42.28Z"/><path class="cls-1" d="M88.43,35.56a34.49,34.49,0,0,1,6.42.64c.46.08,1,.21,1.09.77A1.8,1.8,0,0,1,95,38.55a5,5,0,0,1-1,.16c-2.29.28-4.6.33-6.9.52a24.43,24.43,0,0,0-5.35.9c-.16,0-.41,0-.41.28s.19.34.38.42a9.77,9.77,0,0,0,2.45.43c2.5.32,5,.52,7.5,1S95,43.56,95.46,46a5.49,5.49,0,0,1-.07,2.76,4.12,4.12,0,0,1-2.15,2.65,12.3,12.3,0,0,1-12.09-.5,5,5,0,0,1-1.81-1.82A2.81,2.81,0,0,1,81,45a12.52,12.52,0,0,1,9.42,1.24.47.47,0,0,1,0,.85c-1.41.76-2.85,1.38-4.49.67-.77-.34-1.56-.63-2.36-.92a3.53,3.53,0,0,0-2.44,0,1.12,1.12,0,0,0-.67.59.59.59,0,0,0,.36.92,11.15,11.15,0,0,0,5.89.57,36.26,36.26,0,0,0,5.05-1.17l.09,0c.46-.17.91-.4,1-.92a1.31,1.31,0,0,0-.57-1.23,5.94,5.94,0,0,0-2.43-1.09,35,35,0,0,0-6.3-.81c-1.06-.08-2.13-.1-3.19-.24-1.94-.26-2.38-1.24-2.16-3.3a2.6,2.6,0,0,1,1.08-1.77,13.57,13.57,0,0,1,7.09-2.63A15.24,15.24,0,0,1,88.43,35.56Z"/><path class="cls-1" d="M120.94,45.37a21.92,21.92,0,0,0-2.41,0,1.56,1.56,0,0,0-1.27.88,11.87,11.87,0,0,0-.73,2.47c-.06.2.11.22.22.26a1.63,1.63,0,0,0,1,0,34.48,34.48,0,0,1,4.5-.8,7.1,7.1,0,0,1,1.22,0,1.47,1.47,0,0,1,1.44,1.57.72.72,0,0,1-.25.63,16.11,16.11,0,0,1-5.78,3.2,7.56,7.56,0,0,1-4.06,0,3.13,3.13,0,0,1-2.31-2.33,5.07,5.07,0,0,1,.26-3.67c.22-.48.45-.95.65-1.43a2.18,2.18,0,0,0,0-1.82,1,1,0,0,1,.81-1.44,1.34,1.34,0,0,0,1.14-1,8.52,8.52,0,0,1,.65-1.7c.16-.23-.07-.31-.19-.38-.5-.28-1-.54-1.52-.81a1.74,1.74,0,0,1-1.06-1.33.5.5,0,0,1,.39-.65,4.84,4.84,0,0,1,1.4-.24,42.51,42.51,0,0,0,4.63-.61,27.13,27.13,0,0,1,5.33-.13,1.43,1.43,0,0,1,1,.45,7.8,7.8,0,0,1,1.23,1.68c.34.62.21.92-.45,1.15a8.5,8.5,0,0,1-2.54.46c-1.27.06-2.55.07-3.82.13a2,2,0,0,0-1.55,2.17.76.76,0,0,0,.84.52c.66,0,1.32-.07,2-.12a3.93,3.93,0,0,1,1.8.19,1.52,1.52,0,0,1,.42,2.45.82.82,0,0,1-.52.18A16.11,16.11,0,0,1,120.94,45.37Z"/><path class="cls-1" d="M100.17,46.67a16.6,16.6,0,0,1-.29,4.1,6.64,6.64,0,0,1-.72,1.67.83.83,0,0,1-1.07.39,1.63,1.63,0,0,1-1.18-1.15,11,11,0,0,1-.35-4.59,44.8,44.8,0,0,1,.71-5.18,11,11,0,0,1,1.9-4.56.64.64,0,0,1,1-.19,7.43,7.43,0,0,1,2.29,2.21c1.23,1.81,2.4,3.66,3.54,5.52.33.53.72,1,1.07,1.54.17.27.33.22.51,0a1.22,1.22,0,0,0,.27-1,28.88,28.88,0,0,0-.78-4.81c-.38-1.56-.81-3.11-1.22-4.67a7.64,7.64,0,0,1-.25-1.85,1.24,1.24,0,0,1,.11-.6c.16-.33.35-.44.71-.23a5.89,5.89,0,0,1,2,2,18.79,18.79,0,0,1,3,11.14,7.85,7.85,0,0,1-1.2,3.84,3.75,3.75,0,0,1-1,1.07c-1.13.79-1.81.87-2.83-.11a19.13,19.13,0,0,1-3.34-4.46L101,43c-.08-.14-.12-.38-.31-.35s-.28.27-.33.46a11.15,11.15,0,0,0-.21,2.38Z"/><path class="cls-1" d="M74.75,32.92a6.61,6.61,0,0,1-2.34-.34.52.52,0,0,0-.62.17c-.26.27-.51.55-.79.79a.79.79,0,0,1-1.3-.14,1.81,1.81,0,0,1-.35-1.14c0-.38,0-.75,0-1.12a1.32,1.32,0,0,0-.66-1.28c-.47-.27-.51-.81-.59-1.29A4.29,4.29,0,0,1,68.56,26,9.47,9.47,0,0,1,74,21.19a8.85,8.85,0,0,1,5.76-.5,5.06,5.06,0,0,1,2,1.1,1.61,1.61,0,0,0,.89.42A3,3,0,0,1,84.86,27,13.35,13.35,0,0,1,78,32.4,8.5,8.5,0,0,1,74.75,32.92Zm.32-3a10.39,10.39,0,0,0,7.24-2.73A2.88,2.88,0,0,0,83.13,26a1.37,1.37,0,0,0-1.32-1.73,7.82,7.82,0,0,0-1.6.23c-2.67.86-4.49,2.81-6.25,4.84-.22.27-.08.53.27.59A7.31,7.31,0,0,0,75.07,30Zm-4.71-2.68c0,.34,0,.65.18.76s.36-.18.51-.32c1.25-1.11,2.16-2.57,3.64-3.44a.33.33,0,0,0,.14-.36c-.08-.18-.24-.08-.36-.06A6.22,6.22,0,0,0,71.85,25,3.68,3.68,0,0,0,70.36,27.28Z"/><path class="cls-1" d="M76.34,47.39c0,1.29,0,2.58,0,3.87a1.44,1.44,0,0,1-1.47,1.62,1.74,1.74,0,0,1-2.24-1.43,6.4,6.4,0,0,1-.3-1.9A64.31,64.31,0,0,1,72.9,38.2a14,14,0,0,1,.41-1.67.82.82,0,0,1,1.38-.47,2.66,2.66,0,0,1,1,2.16C76,41.27,76.26,44.33,76.34,47.39Z"/><rect class="cls-2" width="163.6" height="78.32"/></g></g></svg>