<svg xmlns="http://www.w3.org/2000/svg" viewBox="0 0 163.6 76.53"><defs><style>.cls-1{fill:none;}.cls-2{opacity:0.85;}.cls-3{fill:#fcc200;}.cls-4{fill:#042e55;}</style></defs><title>expedia</title><g id="Layer_2" data-name="Layer 2"><g id="Top-nav"><rect class="cls-1" width="163.6" height="76.53"/><g class="cls-2"><circle class="cls-3" cx="29.6" cy="34.7" r="16.08"/><path class="cls-4" d="M13.9,38l.25-.09c6.25-1.53,12.58-2.78,18.79-4.7a8.93,8.93,0,0,1,.42,2.53c-.2,2.15-.38,4.3-.57,6.46,0,.66-.11,1.33-.17,2,.54-.11.92-.23,1.11-.85,1.1-3.68,2.27-7.35,3.4-11a.62.62,0,0,1,.49-.47c1.69-.47,3.38-.93,5.05-1.44a15.78,15.78,0,0,0,1.73-.78l.34-.19a16,16,0,0,1-3.06,15.92A16.15,16.15,0,0,1,24.15,49.9,16,16,0,0,1,13.9,38Z"/><path class="cls-4" d="M44.14,28c-2.5.17-4.78,1.16-7.16,1.76a.6.6,0,0,1-.6-.14c-2.89-2.51-5.81-5-8.69-7.54a1.09,1.09,0,0,0-1.41-.15l1.06,1.43c1.41,1.88,2.84,3.73,4.19,5.64a10.41,10.41,0,0,1,.88,2.08C26,32.68,20,35.13,13.72,37.18A16.09,16.09,0,0,1,23.34,20,16,16,0,0,1,44.14,28Z"/><path class="cls-4" d="M64.08,45.94c-.22.73-.39,1.39-.63,2a2.77,2.77,0,0,1-.71,1.27c-.28.21-.84.07-1.27.07-2.62,0-5.25,0-7.87,0A2.31,2.31,0,0,1,51.23,47q0-8.49,0-17a2.25,2.25,0,0,1,2.41-2.39H64a7.64,7.64,0,0,1-1.15,3.22.57.57,0,0,1-.42.16c-2.29,0-4.59,0-6.88,0-.47,0-.47,0-.47.46v4.34h7.3c.3,0,.38.08.37.37,0,.91,0,1.82,0,2.72,0,.1,0,.21,0,.34H55.08v6.74Z"/><path class="cls-4" d="M122.17,50.11V48.92a4,4,0,0,0-.39.17,8.3,8.3,0,0,1-3.45.9,6.29,6.29,0,0,1-5.66-2.84,7.85,7.85,0,0,1,1-9.86,7.33,7.33,0,0,1,5.93-2c.69.06,1.38.21,2.13.33v-.38c0-2.1,0-4.19,0-6.29a.53.53,0,0,1,.27-.51,8.13,8.13,0,0,1,3.38-1.24c0,.12,0,.25,0,.37q0,10.41,0,20.82a.52.52,0,0,1-.27.51A8.73,8.73,0,0,1,122.17,50.11Zm-.47-7.71v-3c0-.91,0-.91-.88-1.18a4.1,4.1,0,0,0-5.2,2.24,6.21,6.21,0,0,0-.22,4.31,3.16,3.16,0,0,0,3.11,2.35,6.16,6.16,0,0,0,2.91-.7.43.43,0,0,0,.28-.46C121.69,44.75,121.7,43.57,121.7,42.4Z"/><path class="cls-4" d="M84.71,49.82v.42c0,2,0,3.93,0,5.89a.59.59,0,0,1-.3.57,8.52,8.52,0,0,1-3.1,1.2,1.28,1.28,0,0,1-.29,0V36.24c0-.46,0-.46.47-.46s.85,0,1.27,0a15.57,15.57,0,0,0,3.47-.38,7.45,7.45,0,0,1,7.29,11.8,7.28,7.28,0,0,1-4.47,2.59,11.54,11.54,0,0,1-4.06,0Zm0-7.11h0c0,1.35,0,2.69,0,4,0,.25.07.37.31.4a18.62,18.62,0,0,0,2.1.19,4.07,4.07,0,0,0,3.79-2.68,6.13,6.13,0,0,0,.28-3.12,4,4,0,0,0-3.06-3.42,6.47,6.47,0,0,0-3.06.19.39.39,0,0,0-.35.46C84.73,40.08,84.72,41.4,84.72,42.71Z"/><path class="cls-4" d="M144.71,48.46l-.12.07A4.73,4.73,0,0,1,140.74,50a7.16,7.16,0,0,1-4.17-1.31A6.43,6.43,0,0,1,134,44.42a7.85,7.85,0,0,1,1.23-6.08,6.79,6.79,0,0,1,6-3.05,7.86,7.86,0,0,1,2.83.66l.46.17,0-.06c0-.65,0-.57.63-.57s1.49,0,2.23,0c.26,0,.38.07.38.36q0,6.33,0,12.67a.51.51,0,0,1-.17.34,8,8,0,0,1-2.79,1.22h-.18Zm-.53-6c0-1.14,0-2.28,0-3.42,0-.13-.06-.34-.15-.38a8.33,8.33,0,0,0-2-.67,3.77,3.77,0,0,0-4,2.61,6.59,6.59,0,0,0-.28,3.6,3.42,3.42,0,0,0,3,2.84,5.13,5.13,0,0,0,3.16-.72.44.44,0,0,0,.27-.47C144.17,44.76,144.18,43.63,144.18,42.5Z"/><path class="cls-4" d="M109.46,45.36v2.43c0,.71,0,.73-.67,1a15.69,15.69,0,0,1-4.72,1.2,7.08,7.08,0,0,1-7.64-5.8,7.54,7.54,0,0,1,1.12-5.86,6.77,6.77,0,0,1,4.87-3,7.08,7.08,0,0,1,4.71.79,5.58,5.58,0,0,1,2.81,4.55c.08.9,0,1.82,0,2.77H100a3.47,3.47,0,0,0,1.8,3.12,5.56,5.56,0,0,0,3.85.31,14.14,14.14,0,0,0,3.3-1.29Zm-2.93-4a2.93,2.93,0,0,0-1.39-2.71,3.2,3.2,0,0,0-3.42.06A3.6,3.6,0,0,0,100,41.34Z"/><path class="cls-4" d="M72.62,39.85c.66-.79,1.28-1.55,1.91-2.32.43-.51.85-1,1.28-1.55a.54.54,0,0,1,.35-.18c1.07,0,2.14,0,3.21,0l.21,0L74.4,42.07l5.94,7.31h-.78c-1.12,0-2.24,0-3.36,0a.62.62,0,0,1-.53-.25c-1.1-1.37-2.21-2.72-3.32-4.08l-.2-.22-1.26,1.52c-.77.95-1.54,1.9-2.32,2.84a.5.5,0,0,1-.31.18c-1.1,0-2.19,0-3.29,0l-.1-.06,5.5-6.75-5.49-6.75.46,0c1.2,0,2.4,0,3.6,0a.72.72,0,0,1,.63.3q1.38,1.74,2.78,3.47Z"/><path class="cls-4" d="M128.14,49.38V36.25c0-.46,0-.46.46-.46,1,0,1.91,0,2.86,0,.28,0,.36.1.36.37q0,6.43,0,12.88c0,.17,0,.35-.25.35C130.44,49.37,129.32,49.38,128.14,49.38Z"/><path class="cls-4" d="M130,33a2.2,2.2,0,0,1-2.2-2.15A2.21,2.21,0,1,1,130,33Z"/><path class="cls-4" d="M149.5,35.45a2.61,2.61,0,1,1,2.58,2.63A2.62,2.62,0,0,1,149.5,35.45Zm.36,0a2.25,2.25,0,1,0,2.23-2.26A2.26,2.26,0,0,0,149.86,35.48Z"/><path class="cls-4" d="M152.75,35.58l.61,1.27c-.63.07-.63.07-.88-.44l-.19-.42c-.17-.36-.17-.36-.64-.29v1.16h-.57V34a5.36,5.36,0,0,1,1.83.09.63.63,0,0,1,.47.56.76.76,0,0,1-.32.77A2.94,2.94,0,0,1,152.75,35.58Zm-1.08-.29c.38,0,.78.13,1-.25a.48.48,0,0,0,0-.45c-.25-.35-.64-.23-1-.25Z"/></g></g></g></svg>