<svg xmlns="http://www.w3.org/2000/svg" viewBox="0 0 163.6 76.53"><defs><style>.cls-1{fill:#005297;}.cls-2{fill:none;}</style></defs><title>gennett</title><g id="Layer_2" data-name="Layer 2"><g id="Top-nav"><path class="cls-1" d="M90.93,40.81v-.3c0-4,0-8,0-12,0-.23,0-.3.29-.3.92,0,1.84,0,2.77,0,.24,0,.32.06.32.32,0,4.65,0,9.29,0,13.94,0,1.92,0,3.84,0,5.76,0,.13.07.29-.13.37s-.31,0-.42-.16C93,47.65,92.2,46.83,91.43,46c-1.39-1.45-2.77-2.91-4.16-4.37-1.22-1.29-2.44-2.59-3.67-3.88l-2.11-2.22s0,0-.11,0,0,.18,0,.27V47.92c0,.38,0,.38-.39.38H78V28c.46-.19.46-.19.79.15l4.66,4.91,4.2,4.41c1,1.05,2,2.12,3,3.17a1.9,1.9,0,0,0,.21.19Z"/><path class="cls-1" d="M18.72,40.65V37.71H26.3c.28,0,.35.07.35.35q0,4,0,8a.55.55,0,0,1-.31.54,12.5,12.5,0,0,1-5,1.84,12,12,0,0,1-6.73-.79,9.76,9.76,0,0,1-5.7-6.55,10.32,10.32,0,0,1,.85-7.81,9.93,9.93,0,0,1,5.07-4.53,11.88,11.88,0,0,1,6-.76,13.09,13.09,0,0,1,5.31,1.9l.1.09-1.52,2.66c-.53-.27-1-.55-1.54-.78a8.7,8.7,0,0,0-6.32-.5,6.43,6.43,0,0,0-4.49,5,7.91,7.91,0,0,0,.28,4.74,6.78,6.78,0,0,0,3.9,4,8,8,0,0,0,3.95.47A8.41,8.41,0,0,0,23,44.86a.6.6,0,0,0,.4-.63c0-1.07,0-2.15,0-3.23,0-.27-.09-.34-.35-.34h-4Z"/><path class="cls-1" d="M58.14,35.47c0,.13,0,.22,0,.32q0,6.12,0,12.26c0,.19-.05.25-.25.25H55c-.18,0-.24,0-.24-.23s0-.63,0-.94V28.32c0-.11,0-.22,0-.31a.56.56,0,0,1,.77.14c1.42,1.52,2.87,3,4.3,4.54l3.63,3.81c1.29,1.36,2.58,2.71,3.86,4.07a3.4,3.4,0,0,1,.25.31l.1-.06V28.26h3.4c0,.1,0,.21,0,.31V48.32a.37.37,0,0,1-.14.28c-.13.1-.26,0-.38-.08C69.38,47.24,68.16,46,67,44.68l-3.34-3.51-4-4.2-1.32-1.4A1.53,1.53,0,0,0,58.14,35.47Z"/><path class="cls-1" d="M113.36,45.23c0,.09,0,.16,0,.23,0,.86,0,1.72,0,2.58,0,.21-.06.26-.27.26H101.46l-.23,0v-20h12.13c0,.08,0,.16,0,.23,0,.85,0,1.7,0,2.55,0,.25-.06.31-.31.31H105c-.42,0-.42,0-.42.42v4.5c0,.36,0,.36.36.36h7.27c.28,0,.36.07.36.35q0,1.16,0,2.31c0,.24-.08.31-.31.3H105c-.46,0-.46,0-.46.47,0,1.61,0,3.22,0,4.83,0,.27.09.34.35.34h8.46Z"/><path class="cls-1" d="M49.49,48.3h-2c-.41,0-.82,0-1.23,0a.41.41,0,0,1-.47-.3c-.56-1.36-1.14-2.7-1.71-4.06a.35.35,0,0,0-.39-.25H36.32a.38.38,0,0,0-.41.27c-.56,1.37-1.15,2.72-1.72,4.09a.36.36,0,0,1-.41.26H30.9l-.32,0c.18-.38.33-.74.49-1.09L36,36.38c1.24-2.72,2.48-5.43,3.71-8.15.07-.15.12-.28.34-.28s.3.11.38.28q1.71,3.8,3.43,7.58,2.19,4.81,4.37,9.62c.4.89.8,1.78,1.21,2.67C49.45,48.15,49.46,48.2,49.49,48.3ZM42.86,41l-2.81-6.61H40c0,.09-.1.18-.14.28q-1.28,3-2.54,6c-.14.32-.12.34.24.34h5Z"/><path class="cls-1" d="M139,31.35V28.26h16.09a1.1,1.1,0,0,1,0,.18c0,.88,0,1.76,0,2.64,0,.21-.07.27-.29.27h-5.7c-.37,0-.37,0-.37.39V48.28l-.3,0h-2.77c-.25,0-.33-.06-.33-.32q0-8.08,0-16.18c0-.45,0-.45-.44-.45H139Z"/><path class="cls-1" d="M134.81,28.26c0,1,0,1.93,0,2.88,0,.23-.14.21-.29.21h-5.87c-.16,0-.22.07-.21.21V48.28l-.23,0h-2.88c-.21,0-.27-.07-.27-.27V31.65c0-.24-.08-.31-.31-.31H119c-.26,0-.33-.07-.32-.32,0-.91,0-1.83,0-2.77Z"/><rect class="cls-2" width="163.6" height="76.53"/></g></g></svg>