<svg xmlns="http://www.w3.org/2000/svg" viewBox="0 0 163.6 76.53"><defs><style>.cls-1{fill:#ed0005;}.cls-2{fill:#f89e00;}.cls-3{fill:#fe5e00;}.cls-4{fill:#252122;}.cls-5{fill:none;}</style></defs><title>mastercard</title><g id="Layer_2" data-name="Layer 2"><g id="Top-nav"><g id="OkfcSj"><path class="cls-1" d="M61.52,4.41h3.34c0,.1.14.06.22.07a26.61,26.61,0,0,1,14.75,5.66,4.64,4.64,0,0,1-.39.38A26.1,26.1,0,0,0,75.09,15a26.79,26.79,0,0,0-5.51,15.84c0,.93.06,1.85.13,2.78A26.4,26.4,0,0,0,75.36,48a23.86,23.86,0,0,0,2.53,2.79c.63.59,1.3,1.15,1.94,1.73l0,.06a26.88,26.88,0,0,1-14.16,5.58,26.78,26.78,0,0,1-22-8.38,26.25,26.25,0,0,1-6.83-23.34A26,26,0,0,1,48.57,8.76,26,26,0,0,1,60,4.6,9.34,9.34,0,0,0,61.52,4.41Z"/><path class="cls-2" d="M94.83,4.41h3.56c0,.09.12.06.18.07.77.08,1.54.15,2.3.28A26.52,26.52,0,0,1,118.11,15.3a26.17,26.17,0,0,1,5.2,13.85,6.53,6.53,0,0,0,.12,1.39v2.39c-.09.06-.06.15-.07.23a22.4,22.4,0,0,1-.28,2.45A26.23,26.23,0,0,1,114,51.74a26.25,26.25,0,0,1-20.32,6.31,25.59,25.59,0,0,1-9.35-2.77,23.15,23.15,0,0,1-4.38-2.81C80.48,52,81,51.52,81.55,51a27.29,27.29,0,0,0,3.85-4.46,26.67,26.67,0,0,0,4.73-14.15c0-.72,0-1.42,0-2.13a22.63,22.63,0,0,0-.39-3.77A27,27,0,0,0,86.8,18.3a28.28,28.28,0,0,0-4.15-5.64,34.37,34.37,0,0,0-2.75-2.51,26,26,0,0,1,5.46-3.32A26.6,26.6,0,0,1,93.27,4.6,8.21,8.21,0,0,0,94.83,4.41Z"/><path class="cls-3" d="M79.83,10.14h.07a34.37,34.37,0,0,1,2.75,2.51A28.28,28.28,0,0,1,86.8,18.3a27,27,0,0,1,2.92,8.22,22.63,22.63,0,0,1,.39,3.77c0,.71,0,1.41,0,2.13A26.67,26.67,0,0,1,85.4,46.57,27.29,27.29,0,0,1,81.55,51c-.52.49-1.07,1-1.61,1.44h-.11c-.64-.58-1.31-1.14-1.94-1.73A23.86,23.86,0,0,1,75.36,48a26.4,26.4,0,0,1-5.65-14.31c-.07-.93-.15-1.85-.13-2.78A26.79,26.79,0,0,1,75.09,15a26.1,26.1,0,0,1,4.35-4.5A4.64,4.64,0,0,0,79.83,10.14Z"/><path class="cls-4" d="M42.4,65.42a2.8,2.8,0,0,1,3.94-.33,2.29,2.29,0,0,1,.36.4c.12.18.18.15.3,0a2.9,2.9,0,0,1,3.24-.94A2.46,2.46,0,0,1,52.15,67c0,1.51,0,3,0,4.54,0,.19-.07.25-.25.24-.34,0-.68,0-1,0s-.3-.07-.3-.31c0-1.07,0-2.15,0-3.22a9.1,9.1,0,0,0,0-.91,1.43,1.43,0,0,0-1.36-1.43,1.69,1.69,0,0,0-1.83,1.16,3,3,0,0,0-.09.72c0,1.22,0,2.44,0,3.66,0,.25,0,.35-.31.33a8,8,0,0,0-1,0c-.25,0-.3-.08-.3-.31q0-1.74,0-3.48a4.25,4.25,0,0,0-.06-.87,1.39,1.39,0,0,0-1.3-1.21,1.69,1.69,0,0,0-1.76.94,2.21,2.21,0,0,0-.17.92c0,1.23,0,2.47,0,3.7,0,.23-.05.33-.3.31a8.51,8.51,0,0,0-1,0c-.24,0-.28-.08-.28-.29q0-3.3,0-6.6c0-.23.06-.29.29-.28a7.85,7.85,0,0,0,1,0c.24,0,.34.06.31.3A4.64,4.64,0,0,0,42.4,65.42Z"/><path class="cls-4" d="M117.68,70.94a3.26,3.26,0,0,1-3.93.58,3.77,3.77,0,0,1-1.89-3.72,3.54,3.54,0,0,1,4.33-3.29,2.67,2.67,0,0,1,1.49,1c0-1.18,0-2.27,0-3.35,0-.33.08-.42.39-.39a3.93,3.93,0,0,0,.84,0c.28,0,.33.08.33.34,0,2.69,0,5.37,0,8.06,0,.43,0,.87,0,1.3,0,.24,0,.35-.31.33a7.37,7.37,0,0,0-.94,0c-.24,0-.33-.06-.3-.3A4.5,4.5,0,0,0,117.68,70.94Zm-2-5a2.14,2.14,0,0,0-2.23,2.18,2.17,2.17,0,1,0,2.23-2.18Z"/><path class="cls-4" d="M59.32,65.38l.06-.08c0-.22-.1-.53.06-.66s.48,0,.73,0c.77,0,.77,0,.77.77,0,2,0,4,0,6.06,0,.28-.06.36-.34.34a5.06,5.06,0,0,0-.87,0c-.29,0-.39-.08-.35-.36a2.54,2.54,0,0,0,0-.39s-.07,0-.08,0a3,3,0,0,1-3.33.74,3.4,3.4,0,0,1-2.36-2.86,3.84,3.84,0,0,1,.87-3.28,3.48,3.48,0,0,1,4-.85A3,3,0,0,1,59.32,65.38Zm-2,5.08a2.29,2.29,0,1,0-2.21-2.3A2.16,2.16,0,0,0,57.35,70.46Z"/><path class="cls-4" d="M103.24,65.41c0-.82,0-.82.84-.82s.72,0,.72.71c0,2,0,4,0,6.06,0,.3,0,.46-.39.4a2.17,2.17,0,0,0-.26,0,2,2,0,0,1-.82,0c-.24-.14,0-.51-.12-.77a3.06,3.06,0,0,1-3.65.66,3.43,3.43,0,0,1-2.13-3.19A3.58,3.58,0,0,1,99,65,3.24,3.24,0,0,1,103.24,65.41Zm.09,2.81a2.16,2.16,0,1,0-4.3.07,2.11,2.11,0,0,0,2.18,2.17A2.14,2.14,0,0,0,103.33,68.22Z"/><path class="cls-4" d="M81,68.78c-.78,0-1.57,0-2.35,0-.27,0-.31.08-.24.31a2,2,0,0,0,2.06,1.44,3.23,3.23,0,0,0,1.87-.6c.19-.15.28-.1.38.08s.18.29.27.43c.35.54.35.54-.21.89a4.33,4.33,0,0,1-5-.39c-1.76-1.74-1.28-5.15.88-6.15a3.37,3.37,0,0,1,5,2.75,6.84,6.84,0,0,1,.06.91c0,.25-.07.35-.35.35C82.52,68.77,81.75,68.78,81,68.78Zm-.81-1.24c.53,0,1.06,0,1.59,0,.22,0,.27-.06.23-.27a1.76,1.76,0,0,0-1.8-1.47,1.84,1.84,0,0,0-1.82,1.48c0,.22,0,.26.24.26Z"/><path class="cls-4" d="M65.46,71.92a5.11,5.11,0,0,1-2.82-.78c-.16-.11-.19-.18-.08-.34s.33-.53.49-.8.15-.2.32-.09a4,4,0,0,0,2.88.56,1.14,1.14,0,0,0,.25-.06c.45-.15.68-.41.68-.74s-.26-.54-.73-.65c-.67-.17-1.36-.17-2-.38l-.13,0a1.91,1.91,0,0,1-1.55-1.85,2.06,2.06,0,0,1,1.47-2.09A5.55,5.55,0,0,1,68.4,65c.18.1.21.18.1.36a7.6,7.6,0,0,0-.42.8c-.09.2-.17.21-.37.12a4.07,4.07,0,0,0-2.49-.44,1.27,1.27,0,0,0-.38.11.71.71,0,0,0-.48.67c0,.33.25.46.53.56a12.43,12.43,0,0,0,1.6.27,3.65,3.65,0,0,1,1.52.57,2,2,0,0,1,.15,3A3.79,3.79,0,0,1,65.46,71.92Z"/><path class="cls-4" d="M71.3,68c0-.57,0-1.14,0-1.7,0-.23-.07-.3-.29-.28s-.63,0-.94,0-.25,0-.23-.22v0c0-.37-.13-.86.06-1.09s.7-.08,1.07-.07.34-.1.33-.35c0-.51,0-1,0-1.52,0-.22,0-.31.27-.3a8.68,8.68,0,0,0,1,0c.23,0,.28.08.28.3,0,.5,0,1,0,1.52,0,.3.09.36.36.35.64,0,1.28,0,1.92,0,.21,0,.28.06.27.27,0,.37.11.84-.07,1.09s-.68.06-1,.07-.79,0-1.19,0c-.19,0-.25,0-.25.24,0,1,0,2,0,3s.47,1.29,1.42,1.14a1.66,1.66,0,0,0,.65-.21c.32-.21.39,0,.46.23s.12.34.18.51c.16.47.16.48-.28.66a4,4,0,0,1-2.42.23,2,2,0,0,1-1.56-2c0-.59,0-1.19,0-1.78Z"/><path class="cls-4" d="M94.24,71.92a3.65,3.65,0,0,1-3.78-2.41,3.84,3.84,0,0,1,1.26-4.39,4.32,4.32,0,0,1,4.65,0c.2.13.26.24.11.45a5.34,5.34,0,0,0-.41.68c-.12.23-.21.31-.48.14a2.65,2.65,0,0,0-1.9-.43,2,2,0,0,0-1.8,1.77,2.28,2.28,0,0,0,1.38,2.65A2.74,2.74,0,0,0,95.6,70c.22-.14.34-.15.45.11a4.72,4.72,0,0,0,.41.68c.19.24.09.36-.12.51A3.71,3.71,0,0,1,94.24,71.92Z"/><path class="cls-4" d="M86.78,65.34a2.48,2.48,0,0,1,2.68-.83c.22,0,.35.11.23.38s-.21.64-.31,1-.12.22-.31.16a2,2,0,0,0-1-.08,1.49,1.49,0,0,0-1.24,1.69q0,1.89,0,3.78c0,.27,0,.39-.35.36a8,8,0,0,0-1,0c-.18,0-.22-.06-.22-.23V64.82c0-.2.07-.24.25-.23s.61,0,.91,0,.43,0,.38.36A2.54,2.54,0,0,0,86.78,65.34Z"/><path class="cls-4" d="M108.43,65.38a2.36,2.36,0,0,1,2.65-.87c.23,0,.33.13.22.38s-.22.64-.31,1-.14.22-.31.16a2.14,2.14,0,0,0-1-.1,1.49,1.49,0,0,0-1.3,1.68q0,1.91,0,3.81c0,.27,0,.39-.35.36a5.06,5.06,0,0,0-.87,0c-.27,0-.34-.06-.34-.34,0-2.07,0-4.13,0-6.2,0-.63,0-.63.62-.63h.07c.27,0,.58-.07.78,0S108.34,65.1,108.43,65.38Z"/><path class="cls-2" d="M122.38,47.39c-.4.57-.4.57-.76,0v.39c0,.06,0,.16-.09.16s-.12-.08-.12-.17v-.65c0-.08,0-.18.11-.2a.2.2,0,0,1,.23.13c.07.17.15.35.25.57.11-.23.19-.4.26-.58s.13-.12.23-.11.11.11.11.19v.65c0,.07,0,.16-.09.17s-.1-.1-.11-.17S122.39,47.57,122.38,47.39Z"/><path class="cls-4" d="M121.83,70.72a.71.71,0,0,1,.72.71.74.74,0,0,1-.74.7.71.71,0,0,1-.7-.72A.7.7,0,0,1,121.83,70.72Zm-.33,1.12a.45.45,0,0,0,.67,0,.54.54,0,0,0,0-.81.62.62,0,0,0-.76,0A.53.53,0,0,0,121.5,71.84Z"/><path class="cls-2" d="M120.8,46.94h.29s.1,0,.11.06,0,.12-.06.11c-.32,0-.23.21-.27.39s.14.44-.12.44,0-.28-.07-.44.06-.41-.26-.38a.09.09,0,0,1-.09-.1c0-.06.06-.07.1-.07s.25,0,.37,0Z"/><path class="cls-4" d="M122.06,71.7c-.2.12-.16-.19-.3-.16s0,.25-.2.21c0-.12,0-.24,0-.36s-.07-.24.08-.27.32-.07.44.07,0,.21-.07.3S122.07,71.62,122.06,71.7Z"/><path class="cls-4" d="M122.11,71.75s-.09,0-.06-.06Z"/></g><rect class="cls-5" width="163.6" height="76.53"/></g></g></svg>