<svg xmlns="http://www.w3.org/2000/svg" viewBox="0 0 163.6 76.53"><defs><style>.cls-1{fill:#fb5500;}.cls-2{fill:none;}</style></defs><title>nike</title><g id="Layer_2" data-name="Layer 2"><g id="Top-nav"><path class="cls-1" d="M147.7,20.16l-4.92,2.11L61.35,57.11A64.85,64.85,0,0,1,49,61.2a27.58,27.58,0,0,1-9.28.56c-4.6-.62-8.18-2.76-10.28-7a12.75,12.75,0,0,1-1-7.08c.55-5.28,2.77-9.92,5.61-14.3a95.47,95.47,0,0,1,9.3-11.64c.67-.74,1.35-1.48,2.11-2.17-.12.22-.24.44-.37.66a31.11,31.11,0,0,0-3.67,9.63,13.5,13.5,0,0,0,.41,7.4,10,10,0,0,0,8,6.53,23.47,23.47,0,0,0,10.18-.47C65.39,42,70.82,40.48,76.26,39l64-17,7.15-1.9.29-.06Z"/><rect class="cls-2" width="163.6" height="76.53"/></g></g></svg>