<svg xmlns="http://www.w3.org/2000/svg" viewBox="0 0 163.6 76.53"><defs><style>.cls-1{fill:#333;}.cls-2{fill:none;}</style></defs><title>nyt</title><g id="Layer_2" data-name="Layer 2"><g id="Top-nav"><path class="cls-1" d="M73.59,47.39V44.47c0-.95,0-1.9,0-2.86,0-.23-.09-.35-.3-.32a2.06,2.06,0,0,0-.74.18c-.44.23-.39.69.09,1.14A1.26,1.26,0,0,1,71.49,42a1.92,1.92,0,0,1,.86-2.84,8.31,8.31,0,0,1,1.22-.36.33.33,0,0,0,0-.11c0-1.19,0-2.37,0-3.56a1.76,1.76,0,0,0-.17-.71.83.83,0,0,0-1.49-.13c-.14.18-.22.4-.38.61,0-.22,0-.44.1-.65a2.64,2.64,0,0,1,2.85-1.85,2.19,2.19,0,0,1,2,2.41V47.24l1.59.32V32.47h.14v1.93l.09,0L81,32.3l2,1.75c.36-.2.6-.59,1-.75l.08.11c-.25.22-.51.42-.74.66a.7.7,0,0,0-.21.44c0,3.71,0,7.42,0,11.12a5.51,5.51,0,0,1-.05.81,2,2,0,0,1-2.31,1.83,14.3,14.3,0,0,1-2.5-.47,11.37,11.37,0,0,0-3.38-.43,3.35,3.35,0,0,0-1.07.26,1.15,1.15,0,0,0-.72,1.2,1,1,0,0,0,1.08.92,14.36,14.36,0,0,0,2.17-.21c1.31-.19,2.6-.43,3.91-.6a2.8,2.8,0,0,1,2,.44,2.22,2.22,0,0,1,.26,3.53,3.29,3.29,0,0,1-1.66.78,5.42,5.42,0,0,0,.46-.56,1,1,0,0,0,0-1.06.75.75,0,0,0-.82-.33c-1,.15-2,.35-3,.5a25.53,25.53,0,0,1-3,.35,2.68,2.68,0,0,1-2.59-3.49,2.77,2.77,0,0,1,1.49-1.55Zm4.66.21a1.47,1.47,0,0,0,1.92-1.45c0-1.41,0-2.82,0-4.24a.82.82,0,0,0-.8-.93.93.93,0,0,0-1.12.93V47.6Zm.61-13.35a1.81,1.81,0,0,1-.23.18.75.75,0,0,0-.39.79c0,1.11,0,2.22,0,3.33a1,1,0,0,0,1.92.09c0-.56,0-1.12,0-1.67a4,4,0,0,0-.07-1.59c-.22-.45-.78-.74-1.19-1.11Zm-.6,6.88a1.45,1.45,0,0,1,1.89-.07V39.39a1.42,1.42,0,0,1-1.89,0Z"/><path class="cls-1" d="M6.15,35.45A5,5,0,0,0,3.9,38.06l4.46-2c0,.11,0,.18,0,.25,0,1.93,0,3.86,0,5.78a.42.42,0,0,1-.28.44c-1,.49-2,1-3,1.51l-.33.17a4.29,4.29,0,0,0,3.71,1.55,10.34,10.34,0,0,0,1.67-.45.39.39,0,0,0,.28-.43c0-1.17,0-2.33,0-3.5a.56.56,0,0,0-.24-.48c-.4-.3-.78-.63-1.21-1,.42-.34.81-.67,1.21-1a.55.55,0,0,0,.24-.48c0-.87,0-1.73,0-2.56l-4-1c-.78-.19-1.56-.42-2.35-.57a1.18,1.18,0,0,0-1.52,1.2,3.59,3.59,0,0,0,.27.8,1.72,1.72,0,0,1-.91-.72A2.68,2.68,0,0,1,2.81,32a3.54,3.54,0,0,1,3-.38l3.6,1.07a6,6,0,0,0,.91.21,1.89,1.89,0,0,0,.67,0,.84.84,0,0,0,.73-.73.94.94,0,0,0-.61-.84,2.54,2.54,0,0,0-.45-.13,3.9,3.9,0,0,1-.46-.12,2.74,2.74,0,0,1,2.43.6A2,2,0,0,1,13.16,34a2.58,2.58,0,0,1-2.58,1.88c0,.92,0,1.84,0,2.75a.51.51,0,0,0,.21.32c.39.33.79.64,1.21,1-.43.35-.84.67-1.24,1a.52.52,0,0,0-.18.33c0,1.2,0,2.41,0,3.62a.58.58,0,0,0,0,.14A5.09,5.09,0,0,0,12,43.77c.37-.48.68-1,1-1.52a5.49,5.49,0,0,1-.37,2.26,5.82,5.82,0,0,1-7.82,3.22A6.14,6.14,0,0,1,1,42.13a6.7,6.7,0,0,1,4.71-6.65,2.48,2.48,0,0,1,.39-.1Zm-.55,2c-.6.27-1.15.51-1.7.77a.52.52,0,0,0-.2.28A5.92,5.92,0,0,0,4.63,44l.1,0c.71-.18.92-.61.89-1.36C5.55,41,5.6,39.26,5.6,37.5Z"/><path class="cls-1" d="M119.37,35.38a5.64,5.64,0,0,0-2.21,2.68l4.49-2v.38c0,1.89,0,3.77,0,5.65a.45.45,0,0,1-.29.46c-1,.49-2,1-3,1.51l-.3.16a4.42,4.42,0,0,0,1.55,1.18,4.3,4.3,0,0,0,3.83-.08.41.41,0,0,0,.26-.44c0-1.17,0-2.33,0-3.5a.63.63,0,0,0-.21-.44c-.38-.34-.79-.66-1.21-1,.42-.33.83-.64,1.21-1a.65.65,0,0,0,.21-.43c0-.88,0-1.75,0-2.58l-4.73-1.22c-.52-.13-1-.27-1.57-.37a1.23,1.23,0,0,0-1.47.71c-.18.42-.13.7.18,1.32a5,5,0,0,1-.61-.41,2.53,2.53,0,0,1,.07-3.46,3.2,3.2,0,0,1,3.24-.91c1.22.31,2.42.71,3.63,1.07a11.25,11.25,0,0,0,1.15.26,2.17,2.17,0,0,0,.76,0,.75.75,0,0,0,.63-.66.75.75,0,0,0-.44-.8,8.19,8.19,0,0,0-1.09-.36,2.79,2.79,0,0,1,2.5.66,2.1,2.1,0,0,1,.5,2.35,2.62,2.62,0,0,1-2.56,1.8c0,.93,0,1.86,0,2.79a.54.54,0,0,0,.19.25c.4.34.81.67,1.24,1-.43.35-.85.68-1.26,1a.46.46,0,0,0-.17.32c0,1.2,0,2.4,0,3.6a.86.86,0,0,0,0,.17,6.85,6.85,0,0,0,2.39-2.91,7,7,0,0,1,0,1,5.67,5.67,0,0,1-6,5,6.3,6.3,0,0,1-6-5.8A6.79,6.79,0,0,1,119,35.48,3.06,3.06,0,0,1,119.37,35.38Zm-.49,2.12c-.57.25-1.08.47-1.58.71a.79.79,0,0,0-.33.37,5.58,5.58,0,0,0-.24,2.75,6.17,6.17,0,0,0,1.17,2.72c.29-.15.57-.27.83-.41a.31.31,0,0,0,.14-.23C118.88,41.46,118.88,39.52,118.88,37.5Z"/><path class="cls-1" d="M38.12,48.12a2.62,2.62,0,0,0-1.48-.93,1.23,1.23,0,0,0-1,.22,1.13,1.13,0,0,0,.2,2,5.45,5.45,0,0,0,.76.3,2.51,2.51,0,0,1-3-2.14,2.9,2.9,0,0,1,2.83-3.12l.6,0V43.23c0-.8,0-1.61,0-2.42,0-.22-.08-.32-.29-.3a2.54,2.54,0,0,0-.55.1.65.65,0,0,0-.32,1.11.93.93,0,0,0,.13.15c-.68.1-1.4-.66-1.55-1.62-.2-1.28.54-2,2.58-2.32V36.54c0-.26,0-.52,0-.77a1.49,1.49,0,0,0-.66-1.32.8.8,0,0,0-1.33.31c-.08.17-.13.35-.22.58,0-.11-.06-.18-.07-.24a3,3,0,0,1,.77-2.45,2.27,2.27,0,0,1,3.32.15A6,6,0,0,1,39.61,34c1.55,2.78,3.07,5.56,4.61,8.35l.1.17V35.46a9.81,9.81,0,0,1-1.21-.33A8.74,8.74,0,0,1,42,34.48l-.71.8-.08,0c0-.08,0-.17.06-.22.83-1,1.66-1.91,2.5-2.86,1.42,1.31,2.88.88,3.16-.44a2.33,2.33,0,0,1-.23,2.44,2.91,2.91,0,0,1-2.2,1.25v.39q0,5.94,0,11.88c0,.14-.05.38-.14.41S44,48,43.9,47.83Q40.69,42,37.47,36.12c-.07-.14-.15-.27-.27-.47v8.73a4.74,4.74,0,0,1,2.7,1.45l.75-.76.11.12Z"/><path class="cls-1" d="M58.7,39.05l2.17-1.92,2,1.75c-.05,0-.07.11-.11.14a1.84,1.84,0,0,0-.66,1.7c.05,1.39,0,2.78,0,4.17a.66.66,0,0,0,.21.45c.52.46,1.06.89,1.59,1.33.27-.06.35-.22.35-.49,0-1.94,0-3.87,0-5.81a.89.89,0,0,0-.34-.78,4.77,4.77,0,0,1-.48-.51l2.14-2,2,1.66.82-.69.1.11-.21.22c-.46.41-.93.81-1.38,1.23a.69.69,0,0,0-.2.45c0,1.6,0,3.2,0,4.8a.52.52,0,0,1-.16.39c-1.46.92-2.93,1.82-4.4,2.72l-.11,0L59.68,46.2l-2.35,1.86-2.17-1.79-.95.66-.08-.08c.07-.08.12-.18.21-.22a1.38,1.38,0,0,0,.76-1.5c-.07-1.3,0-2.62,0-3.93a2.19,2.19,0,0,0-.88-1.93,2.08,2.08,0,0,1-.86-2.33,2.49,2.49,0,0,1,2.41-1.75.91.91,0,0,0-.23.15,1.1,1.1,0,0,0,0,1.75c.25.23.54.4.81.61a8.45,8.45,0,0,1,.69.53,1.57,1.57,0,0,1,.55,1.28c0,1.78,0,3.56,0,5.34a.68.68,0,0,0,.21.44c.42.37.87.71,1.31,1.06a.63.63,0,0,0,.43-.66c0-1.81,0-3.61,0-5.42a.81.81,0,0,0-.3-.69C59.06,39.42,58.89,39.24,58.7,39.05Z"/><path class="cls-1" d="M138.64,37.27l1.84,2,2.61-2.07,1.82,2c.37-.18.63-.55,1-.67l.07.11c-.25.19-.51.38-.75.59a.58.58,0,0,0-.19.38q0,2.49,0,5a.66.66,0,0,0,.14.38c.26.31.54.6.82.91l.7-.56.1.12-2.7,2.5-2-2.17s0-.06,0-.07a1.16,1.16,0,0,0,.43-1.12c0-1.18,0-2.37,0-3.56a1.06,1.06,0,0,0-.33-.86c-.38-.37-.71-.78-1.07-1.18a.85.85,0,0,0-.56.84c0,1.62,0,3.23,0,4.84a1,1,0,0,0,.36.91c.13.11.23.24.34.35l-2,2-1.77-2a.85.85,0,0,1,0-.09,1.21,1.21,0,0,0,.48-1.17c0-1.26,0-2.53,0-3.8a.66.66,0,0,0-.11-.39c-.4-.49-.81-1-1.23-1.45a.82.82,0,0,0-.52.83c0,1.61,0,3.23,0,4.84a.94.94,0,0,0,.33.82A4.5,4.5,0,0,1,137,46l-1.91,2-1.94-2.2s0-.06,0-.06a1.29,1.29,0,0,0,.56-1.32c0-1.25,0-2.49,0-3.74a.73.73,0,0,0-.17-.44c-.32-.4-.68-.77-1-1.18l-.82.68-.07,0c0-.07,0-.16.05-.2l2.58-2.25,1.85,2Z"/><path class="cls-1" d="M14,34.31l3.23-2.49v7.42l2.53-2.16,2,2.19c.33-.17.56-.49.9-.61l.08.12a8.17,8.17,0,0,1-.68.52.45.45,0,0,0-.2.42c0,1.74,0,3.48,0,5.21a8.38,8.38,0,0,1-.27,2.73,3.74,3.74,0,0,1-3.25,2.59,9.1,9.1,0,0,1-1.28,0v-.09l.17-.08a2.79,2.79,0,0,0,2-2.38,13.75,13.75,0,0,0,.14-1.7c0-1.8,0-3.59,0-5.38a1,1,0,0,0-.18-.52c-.32-.44-.68-.86-1-1.31-.26.22-.51.42-.74.64a.33.33,0,0,0-.08.24c0,1.81,0,3.62,0,5.44a.42.42,0,0,0,.1.26c.17.21.36.41.54.61l.76-.55a14.09,14.09,0,0,1-2.82,2.41l-1.77-1.64-.7.43-.07-.12c.34-.25.66-.53,1-.75a.71.71,0,0,0,.35-.71q0-4.8,0-9.59C14.66,35,14.61,34.52,14,34.31Z"/><path class="cls-1" d="M89.47,37.16l2.76,2.4.79-.69.08.06c0,.08-.06.19-.13.22a1.43,1.43,0,0,0-.6,1.47c0,1.51,0,3,0,4.54a.48.48,0,0,1-.15.36c-1.45.83-2.92,1.64-4.42,2.47l-2.59-2.18-.76.57-.09-.11c.17-.15.33-.31.51-.45a.56.56,0,0,0,.23-.51c0-1.85,0-3.7,0-5.55a.43.43,0,0,1,.29-.45C86.73,38.62,88.07,37.9,89.47,37.16Zm.39,9.49c0-2.06,0-4,0-6a.52.52,0,0,0-.18-.33c-.45-.44-.91-.86-1.37-1.29l-.63-.56a.7.7,0,0,0,0,.14c0,1.94,0,3.89,0,5.84a.56.56,0,0,0,.17.33c.38.36.76.7,1.14,1Z"/><path class="cls-1" d="M162.31,36.69a1.71,1.71,0,0,1,.13,1.23,5.44,5.44,0,0,1-1.15,2.14c-.11.15-.23.3-.37.46.51.41,1,.8,1.49,1.22a.59.59,0,0,1,.19.41c0,1,0,2.09,0,3.13a.51.51,0,0,1-.18.37c-1.19.76-2.39,1.5-3.59,2.24a.19.19,0,0,1-.08,0c-.31-.23-.59-.47-.9-.66a1,1,0,0,0-1.11,0,.63.63,0,0,0-.12,1,4.34,4.34,0,0,0,.54.42c-.54.12-1.37-.51-1.62-1.06a2.06,2.06,0,0,1,.17-2.14,14.67,14.67,0,0,1,1.13-1.37,5.8,5.8,0,0,1,.5-.46c-.47-.44-.9-.85-1.36-1.25a.67.67,0,0,1-.25-.57c0-.72,0-1.44,0-2.16a.43.43,0,0,1,.24-.42c1.15-.67,2.29-1.35,3.43-2.05a.36.36,0,0,1,.52,0,2.51,2.51,0,0,0,1,.55C161.69,38,162.15,37.57,162.31,36.69Zm-3.08,5.43a21.12,21.12,0,0,0-3.32,3.57,2.42,2.42,0,0,1,2.35-.91,3,3,0,0,1,2,1.66c0-1.11,0-2.2,0-3.3a.33.33,0,0,0-.09-.2Zm2.42-2.95c-1.17,1-2.35.84-3.55-.75,0,.92,0,1.78,0,2.65a.29.29,0,0,0,.07.18l.87.76A10.45,10.45,0,0,0,161.65,39.17Z"/><path class="cls-1" d="M104.45,31.6v2c0,3.74,0,7.48,0,11.22a.78.78,0,0,0,.21.49,7.78,7.78,0,0,0,.71.69l.63-.54.08,0a.67.67,0,0,1-.09.21L103.38,48l-1.84-1.73-.75.64-.09-.07a1,1,0,0,1,.15-.24c.31-.27.63-.53.93-.82a.57.57,0,0,0,.16-.37q0-4.9,0-9.81a4,4,0,0,0-.09-.77,1,1,0,0,0-.8-.84Z"/><path class="cls-1" d="M51.16,46.27l2.45-1.91.11.14L49.29,48l-2.54-2.3-.82.64-.08-.06c0-.07.07-.18.14-.21a1.35,1.35,0,0,0,.66-1.45c0-1.55,0-3.09,0-4.63a.44.44,0,0,1,.14-.33c1.45-.83,2.9-1.64,4.38-2.47l2,3.53-3,2.18-.73.53a.71.71,0,0,0-.08,1.21Zm-2-7.67v4.85l2-1.47Z"/><path class="cls-1" d="M152.36,37.19l2,3.55L152.7,42l-2.14,1.58a.78.78,0,0,0-.12.9c.62.6,1.27,1.19,1.92,1.8l2.45-1.91.07.07a.52.52,0,0,1-.06.15c-1.39,1.11-2.78,2.2-4.16,3.31-.15.12-.24.07-.37,0L148,45.72l-.82.65-.09-.08c.05-.07.09-.17.16-.21a1.3,1.3,0,0,0,.65-1.39c0-1.55,0-3.11,0-4.67a.46.46,0,0,1,.15-.35c1.4-.82,2.82-1.62,4.22-2.42Zm0,4.8-2-3.4v4.86Z"/><path class="cls-1" d="M28.5,37.17l2.05,3.57-2.47,1.83-1.38,1a.7.7,0,0,0-.08.92l1.89,1.77c.83-.63,1.62-1.3,2.46-1.91l.1.14L26.64,48l-2.53-2.28-.86.62-.09-.12c.2-.16.38-.33.59-.47a.58.58,0,0,0,.26-.53c0-1.73,0-3.46,0-5.18a.44.44,0,0,1,.27-.46c1.3-.72,2.59-1.47,3.88-2.21Zm-1.92,1.49,0,0v4.77l2-1.47Z"/><path class="cls-1" d="M99.62,45.66,96.84,48l-2.12-1.93-.75.7-.09,0A.63.63,0,0,1,94,46.5a5.17,5.17,0,0,1,.65-.59.93.93,0,0,0,.38-.85c0-1.48,0-3,0-4.44a.94.94,0,0,0-.22-.67c-.23-.27-.43-.55-.65-.85l-.77.65-.08,0a.48.48,0,0,1,.07-.18c.86-.78,1.71-1.55,2.6-2.34L97.42,39l1.72-1.66a1.32,1.32,0,0,0,2-.06,2.46,2.46,0,0,1-1.86,2.81,1.92,1.92,0,0,1-1.49-.59l-.26-.25v.51c0,1.75,0,3.49,0,5.24a.66.66,0,0,0,.26.58c.27.21.52.45.79.68.34-.2.59-.53.93-.69Z"/><path class="cls-1" d="M107.64,37.07a1.94,1.94,0,0,0,2.94,0c-.22,2.51-2,3.41-4.17,2.11-.14.12-.23.23-.09.44l4.13,6.21s0,0,.08.09l.83-.72.07,0c0,.06,0,.15,0,.19L108.52,48l-1-1.58q-1.41-2.27-2.83-4.53a.4.4,0,0,1,0-.53c.93-1.32,1.84-2.65,2.75-4Z"/><path class="cls-1" d="M128.65,37.23l1.87,2.17.89-.75c0,.12,0,.19,0,.23a.52.52,0,0,1-.17.16,1.41,1.41,0,0,0-.67,1.43c0,1.41,0,2.83,0,4.24a.8.8,0,0,0,.17.44c.27.34.57.67.86,1,.32-.13.47-.52.82-.59l.07.1L130,48l-1.78-2-.82.68-.11-.13c.17-.15.33-.32.51-.45a.63.63,0,0,0,.28-.6c0-1.6,0-3.2,0-4.8a1,1,0,0,0-.2-.54c-.27-.36-.59-.7-.9-1.07l-.69.58-.08,0c0-.07,0-.15.06-.19Z"/><path class="cls-1" d="M128.78,33.14l1.59,1.76-2,1.77-1.58-1.74Z"/><rect class="cls-2" width="163.6" height="76.53"/></g></g></svg>