<svg xmlns="http://www.w3.org/2000/svg" viewBox="0 0 163.6 76.53"><defs><style>.cls-1{fill:#443642;}.cls-2{fill:#6cc9db;}.cls-3{fill:#648735;}.cls-4{fill:#e9a701;}.cls-5{fill:#36b88f;}.cls-6{fill:#e20c64;}.cls-7{fill:#cd1c1f;}.cls-8{fill:#0a947d;}.cls-9{fill:#fdfdfd;}.cls-10{fill:#371139;}.cls-11{fill:none;}</style></defs><title>slack</title><g id="Layer_2" data-name="Layer 2"><g id="Top-nav"><g id="_6AaXP4" data-name="6AaXP4"><path class="cls-1" d="M136.13,19c.44.14.56.45.57.9.11,5.49.1,11,.14,16.49,0,.2,0,.4,0,.61s0,.19.11.24.2,0,.27-.1.16-.18.24-.26c2.42-2.43,4.84-4.84,7.29-7.23.17-.17.37-.33.54-.51a1.41,1.41,0,0,1,1.46-.43c1.2.27,2.41.55,3.6.88.74.21.85.59.31,1.17s-1.31,1.37-2,2q-2.43,2.43-4.88,4.84c-.39.39-.4.47-.06.9,1.28,1.63,2.61,3.22,3.82,4.9,1.38,1.92,2.64,3.93,3.93,5.92.19.29.12.5-.22.58-1,.21-2,.35-3,.49-.7.1-1.41.18-2.11.29a.72.72,0,0,1-.79-.36c-1.61-2.28-3.16-4.59-4.7-6.92-.4-.6-.8-1.19-1.21-1.78-.21-.3-.32-.31-.57,0-.55.56-1.08,1.14-1.63,1.7a1,1,0,0,0-.3.77c0,2,0,4-.07,6,0,.46-.15.62-.6.64-1.44.07-2.87,0-4.3,0-.29,0-.44-.18-.46-.51-.08-1.11-.07-2.23-.09-3.35-.12-7.63-.21-15.26-.2-22.9,0-1.32,0-2.64,0-4A.85.85,0,0,1,132,19Z"/><path class="cls-1" d="M86.45,19c.09.1.21.05.31.06.46,0,.56.13.58.59s0,1.2,0,1.8c.07,4.82.06,9.65.09,14.47q0,6.24-.08,12.47c0,.59,0,1.18,0,1.78a.53.53,0,0,1-.54.55h-4a.52.52,0,0,1-.51-.4,1.24,1.24,0,0,1-.06-.43q-.14-12.9,0-25.78c0-1.47,0-2.94.07-4.41,0-.38.09-.47.46-.52L83.87,19c.08,0,.18,0,.25-.05h.45c.14.11.31.05.47,0a3.16,3.16,0,0,0,1,0Z"/><path class="cls-2" d="M13,37.36c.11-.29.15-.61.28-.89a3.59,3.59,0,0,1,2.23-2L19,33.3c.11,0,.24,0,.31-.16h.05a.45.45,0,0,0,.05.3c.7,2.1,1.41,4.2,2.11,6.29v.06c-1.41.47-2.79,1-4.22,1.4A3.4,3.4,0,0,1,13,38.39s0-.06,0-.09Z"/><path class="cls-3" d="M86,19a3.16,3.16,0,0,1-1,0c-.16,0-.33.07-.47,0Z"/><path class="cls-1" d="M108.74,43.94c0,2.08-.09,4.11-.13,6.13,0,.36-.13.5-.51.51-1.2,0-2.4,0-3.6,0l-.72,0a.43.43,0,0,1-.42-.46c0-.37,0-.74,0-1.11,0-.1,0-.21-.12-.25s-.17,0-.24.1a7.75,7.75,0,0,1-5,2,8.67,8.67,0,0,1-4.41-.66,5.78,5.78,0,0,1-3.64-4.45A6.6,6.6,0,0,1,94.5,38a12,12,0,0,1,5.61-.42,11.44,11.44,0,0,1,2.51.65q.45.16.45-.3a11.72,11.72,0,0,0-.12-1.88,3.05,3.05,0,0,0-2.21-2.33,6.63,6.63,0,0,0-5.53.56c-.62.33-1.25.67-1.85,1a.57.57,0,0,1-.88-.16,29.92,29.92,0,0,1-1.66-2.49A.72.72,0,0,1,91,31.6a11.54,11.54,0,0,1,4.27-2.44,13.69,13.69,0,0,1,5.83-.49,10.14,10.14,0,0,1,3.32.92,7,7,0,0,1,3.47,3.85,13.31,13.31,0,0,1,.82,3.94C108.84,39.59,108.74,41.8,108.74,43.94Zm-5.54-1.25a3.65,3.65,0,0,1,0-.47.67.67,0,0,0-.45-.72,3.54,3.54,0,0,0-1.11-.32,9,9,0,0,0-2.54.06,6.87,6.87,0,0,0-2.84.94,2.52,2.52,0,0,0-1.16,2.74,2.36,2.36,0,0,0,2,1.91,6,6,0,0,0,4.74-1,2.48,2.48,0,0,0,1.29-2C103.15,43.48,103.21,43.09,103.2,42.69Z"/><path class="cls-1" d="M70.55,50.93a14.66,14.66,0,0,1-6.25-1.44,9.94,9.94,0,0,1-1.8-1.14,1.25,1.25,0,0,1-.4-1.6,9.77,9.77,0,0,1,1.16-2.1,1.09,1.09,0,0,1,1.65-.32,12.84,12.84,0,0,0,4.14,1.8A7,7,0,0,0,72.74,46a2,2,0,0,0,1.48-1.43,1.38,1.38,0,0,0-.53-1.52,6.09,6.09,0,0,0-2.43-1c-1-.25-2.06-.43-3.08-.68A11.85,11.85,0,0,1,65,40.14a5.27,5.27,0,0,1-2.8-4.68,6.44,6.44,0,0,1,4.91-6.72,13.85,13.85,0,0,1,10.43,1.19,5.09,5.09,0,0,1,.63.39,1,1,0,0,1,.39,1.21,23.32,23.32,0,0,1-1.21,2.52.73.73,0,0,1-1,.24c-.32-.13-.63-.29-1-.45a11,11,0,0,0-3.43-1.17,5.82,5.82,0,0,0-3,.26,2.5,2.5,0,0,0-.83.53,1.64,1.64,0,0,0,.48,2.81,11,11,0,0,0,2.86.81,17,17,0,0,1,5.13,1.48,5.19,5.19,0,0,1,2.85,3.95,6.83,6.83,0,0,1-3.82,7.37A11.27,11.27,0,0,1,70.55,50.93Z"/><path class="cls-1" d="M110.66,38.93A10.71,10.71,0,0,1,113.48,32a10.11,10.11,0,0,1,5.64-3.18,13,13,0,0,1,8.76,1.2,5.55,5.55,0,0,1,1.5,1.09.66.66,0,0,1,.14.92,19.2,19.2,0,0,1-1.85,3c-.2.27-.37.28-.69.06a9,9,0,0,0-2.68-1.27,7.12,7.12,0,0,0-3.72-.17,5,5,0,0,0-3.66,3.16,8,8,0,0,0,0,6A5,5,0,0,0,120.86,46a6.25,6.25,0,0,0,5.44-1.54.68.68,0,0,1,1,0,19.89,19.89,0,0,1,2.14,2.44.66.66,0,0,1-.11.88,8.08,8.08,0,0,1-3,2.27,11.73,11.73,0,0,1-5.82.9,10.93,10.93,0,0,1-5.18-1.66,9.93,9.93,0,0,1-4.06-5.44A15.08,15.08,0,0,1,110.66,38.93Z"/><path class="cls-4" d="M42.63,32.59c.85,2.51,1.69,5,2.54,7.54,0,0,0,.11,0,.16l-2.3.79-4.42,1.51,0,0c-.25-.74-.49-1.49-.73-2.23-.62-1.81-1.23-3.62-1.85-5.44a.06.06,0,0,0,0,0,.84.84,0,0,0,.32-.08l3.58-1.23Z"/><path class="cls-5" d="M21.48,39.79v-.06a.62.62,0,0,0,.33,0L23.89,39c.81-.27,1.61-.56,2.43-.82.63-.21,1.26-.46,1.91-.62h.05c.35,1.07.71,2.13,1.07,3.2l1.5,4.42s0,0,0,0l-.29.08-3.46,1.17c-1,.34-2,.65-3,1,0,0,0,0,0,0-.43-1.3-.87-2.6-1.3-3.9L21.59,40A.53.53,0,0,0,21.48,39.79Z"/><path class="cls-6" d="M30.84,45.18s0,0,0,0l2.72-.91,4.88-1.66,0,0a13.69,13.69,0,0,0,.56,1.75c.53,1.61,1.07,3.21,1.6,4.82l-3.71,1.28-3.86,1.33,0,0c0-.09,0-.19-.07-.29-.37-1.09-.73-2.18-1.1-3.26S31.23,46.17,30.84,45.18Z"/><path class="cls-2" d="M28.28,37.52h-.05a.67.67,0,0,0-.08-.37c-.69-2.08-1.39-4.15-2.08-6.22l4.3-1.45,3.3-1.12,0,0c0,.1,0,.21.09.32l1.3,3.85c.26.77.48,1.54.79,2.29a.06.06,0,0,1,0,0l-.32.08-7,2.41C28.42,37.42,28.32,37.43,28.28,37.52Z"/><path class="cls-4" d="M47.42,46.88c.51,1.45,1.07,2.89,1.45,4.37a3.55,3.55,0,0,1-6.8,2c-.48-1.35-.92-2.72-1.37-4.08a.88.88,0,0,1,.22-.1l3.94-1.34C45.72,47.44,46.56,47.13,47.42,46.88Z"/><path class="cls-5" d="M33.05,51.75l0,0,1.29,3.88a3.45,3.45,0,0,1-.8,3.76A3.58,3.58,0,0,1,27.62,58c-.4-1.21-.81-2.41-1.22-3.62a1.3,1.3,0,0,0-.1-.25s0,0,0,0c.63-.17,1.24-.41,1.86-.62C29.8,52.88,31.42,52.31,33.05,51.75Z"/><path class="cls-7" d="M47.42,46.88c-.86.25-1.7.56-2.56.85l-3.94,1.34a.88.88,0,0,0-.22.1h-.05c-.53-1.61-1.07-3.21-1.6-4.82a13.69,13.69,0,0,1-.56-1.75l4.42-1.51,2.3-.79h0c.14.43.27.86.42,1.28q.87,2.64,1.76,5.26A.05.05,0,0,1,47.42,46.88Z"/><path class="cls-8" d="M26.07,30.93c.69,2.07,1.39,4.14,2.08,6.22a.67.67,0,0,1,.08.37c-.65.16-1.28.41-1.91.62-.82.26-1.62.55-2.43.82l-2.08.72a.62.62,0,0,1-.33,0c-.7-2.09-1.41-4.19-2.11-6.29a.45.45,0,0,1-.05-.3c.64-.16,1.26-.4,1.89-.61L26,30.92Z"/><path class="cls-4" d="M33.7,28.4l0,0c-.43-1.26-.85-2.53-1.27-3.8A3.56,3.56,0,0,1,39.06,22c.5,1.34.92,2.7,1.37,4.06l-.18.06L34,28.27C33.88,28.3,33.77,28.3,33.7,28.4Z"/><path class="cls-5" d="M26,30.92l-4.81,1.61c-.63.21-1.25.45-1.89.61h-.05c-.42-1.25-.83-2.5-1.26-3.74a3.56,3.56,0,0,1,.5-3.41,3.61,3.61,0,0,1,4-1.2,3.57,3.57,0,0,1,2.22,2.28c.43,1.22.83,2.46,1.24,3.69A.9.9,0,0,1,26,30.92Z"/><path class="cls-3" d="M33.7,28.4c.07-.1.18-.1.27-.13l6.28-2.11.18-.06h0c0,.06,0,.13.05.19l1.32,3.93c.27.77.49,1.56.8,2.31,0,0,0,0,0,.05l-2.85,1L36.2,34.78a.84.84,0,0,1-.32.08c-.31-.75-.53-1.52-.79-2.29l-1.3-3.85C33.75,28.61,33.73,28.5,33.7,28.4Z"/><path class="cls-6" d="M47.44,46.84q-.88-2.62-1.76-5.26c-.15-.42-.28-.85-.42-1.28,1.41-.48,2.81-1,4.24-1.43a3.37,3.37,0,0,1,2.58.27,3.49,3.49,0,0,1,1.26,5.1,2.8,2.8,0,0,1-.91.76,8.19,8.19,0,0,1-2,.81Z"/><path class="cls-6" d="M26.31,54.05s0,0,0,0l-3.69,1.24A3.65,3.65,0,0,1,19.25,55a3.53,3.53,0,0,1-.55-5.19,3.62,3.62,0,0,1,1.6-1l3.77-1.28s0,0,0,0c.14.44.29.88.43,1.31Q25.42,51.41,26.31,54.05Z"/><path class="cls-2" d="M42.65,32.54c-.31-.75-.53-1.54-.8-2.31L40.53,26.3c0-.06,0-.13-.05-.19l3-1a7,7,0,0,1,1.75-.46,3.4,3.4,0,0,1,3.3,1.62,3.28,3.28,0,0,1-1.61,4.81c-1.18.53-2.43.87-3.65,1.29A2.52,2.52,0,0,1,42.65,32.54Z"/><path class="cls-9" d="M103.2,42.69c0,.4,0,.79-.07,1.19a2.48,2.48,0,0,1-1.29,2,6,6,0,0,1-4.74,1,2.36,2.36,0,0,1-2-1.91,2.52,2.52,0,0,1,1.16-2.74,6.87,6.87,0,0,1,2.84-.94,9,9,0,0,1,2.54-.06,3.54,3.54,0,0,1,1.11.32.67.67,0,0,1,.45.72A3.65,3.65,0,0,0,103.2,42.69Z"/><path class="cls-10" d="M26.31,54.05q-.89-2.64-1.79-5.28c-.14-.43-.29-.87-.43-1.31,1-.38,2-.69,3-1l3.46-1.17.29-.08c.39,1,.69,2,1,3s.73,2.17,1.1,3.26c0,.1.05.2.07.29-1.63.56-3.25,1.13-4.88,1.68C27.55,53.64,26.94,53.88,26.31,54.05Z"/></g><rect class="cls-11" width="163.6" height="76.53"/></g></g></svg>