<svg xmlns="http://www.w3.org/2000/svg" viewBox="0 0 163.78 78.32"><defs><style>.cls-1{fill:none;}.cls-2{fill:#333;}</style></defs><title>ubisoft</title><g id="Layer_2" data-name="Layer 2"><g id="Top-nav"><rect class="cls-1" width="163.78" height="78.32"/><path class="cls-2" d="M81.82,5.41l1.7.19a24.3,24.3,0,0,1,9,2.8A23.85,23.85,0,0,1,104.9,24.48a24.4,24.4,0,0,1-1.32,16.11A23,23,0,0,1,86.85,54.18,23.63,23.63,0,0,1,58.92,36.89a24,24,0,0,1,1.44-16c.24-.55.28-.39-.2-.74s-1-.71-1.5-1.08a.5.5,0,0,1,0-.13A26.11,26.11,0,0,1,69,8.35,23.58,23.58,0,0,1,79,5.46a1.64,1.64,0,0,0,.32,0ZM64.71,18.54l.27-.17c.92-.58,1.82-1.19,2.77-1.71a19.64,19.64,0,0,1,8-2.4,17.28,17.28,0,0,1,9.68,2c5.39,2.91,8.68,7.33,9.34,13.52a15.48,15.48,0,0,1-1.71,8.83,12.65,12.65,0,0,1-13.79,6.83,10.12,10.12,0,0,1-7.07-4.77A10.52,10.52,0,0,1,72,29.9c.42-.83,1-1.58,1.48-2.41l-.34-.34a10.13,10.13,0,0,0-2.45,2.06A11.13,11.13,0,0,0,68.15,39a13.52,13.52,0,0,0,9.21,10.61,15.84,15.84,0,0,0,8.47.61A18.1,18.1,0,0,0,97,43.84a20.08,20.08,0,0,0,3.91-19.18,21,21,0,0,0-24-14.77,18.62,18.62,0,0,0-11.11,6.37c-.51.59-.95,1.24-1.42,1.86Zm20.16,18.8a5.53,5.53,0,0,0,1.46-3.45,5.22,5.22,0,0,0-5.78-5.45,6.41,6.41,0,0,0-5.66,7.32A6.47,6.47,0,0,0,85.57,39.7a12.74,12.74,0,0,0,1.07-1.12Zm5.81-9.16-.06-.24a11.89,11.89,0,0,0-3.83-6C82,18,76.69,17.15,71,19.61A14.44,14.44,0,0,0,62.65,36c.17.73.42,1.44.63,2.19l.61-.22c0-.14,0-.28,0-.41a16.25,16.25,0,0,1,1.38-7.47,13.6,13.6,0,0,1,15.57-7.86,16.11,16.11,0,0,1,9,5.8C90.16,28.45,90.15,28.45,90.68,28.18Z"/><path class="cls-2" d="M88.87,72.9c-.4-.08-.81-.15-1.21-.25a6.44,6.44,0,0,1-4.88-6.84A6.33,6.33,0,0,1,85,61.28L84.77,61l-.22-.22a4.61,4.61,0,0,1,1.62-1.13,7.32,7.32,0,0,1,7.46.47,6.69,6.69,0,0,1,2.85,6.49,6.58,6.58,0,0,1-3.11,5.23,6.48,6.48,0,0,1-2.77,1,1.66,1.66,0,0,0-.21.06Zm-1.75-9.56a3.48,3.48,0,0,0-1.37,2.76,3.59,3.59,0,0,0,2,3.56A3.86,3.86,0,0,0,92,69.34a4.66,4.66,0,0,0,.63-6.24,4,4,0,0,0-4.32-1.22A3.52,3.52,0,0,0,86.58,63Z"/><path class="cls-2" d="M45.17,59.13h2.94v.43q0,3.61,0,7.25A7.8,7.8,0,0,0,48.2,68a2.44,2.44,0,0,0,2.87,2.12,2.41,2.41,0,0,0,2.27-2.29,8.22,8.22,0,0,0,.06-1c0-2.42,0-4.83,0-7.25v-.41H56.3a.84.84,0,0,1,0,.18c0,2.8,0,5.6,0,8.4a5,5,0,0,1-4.68,5.1l-.19.05H50.05l-.31-.06a5,5,0,0,1-4.28-3.57c-.13-.42-.19-.87-.29-1.31Z"/><path class="cls-2" d="M76.61,72.9A14.73,14.73,0,0,1,75,72.5a4.32,4.32,0,0,1-2.6-2.57l2.32-1.73.19.4a2.74,2.74,0,0,0,3,1.48,1.28,1.28,0,0,0,1-1,1.25,1.25,0,0,0-.57-1.43,13.33,13.33,0,0,0-1.46-.74c-.77-.37-1.59-.66-2.31-1.1a3.38,3.38,0,0,1-1.69-3.4,3.44,3.44,0,0,1,2.34-3.08,5.33,5.33,0,0,1,5.44.69,3.52,3.52,0,0,1,1,1.37L79.44,63c-.15-.23-.27-.45-.42-.66a2.2,2.2,0,0,0-2.46-.78,1.14,1.14,0,0,0-.86.86,1,1,0,0,0,.51,1.16,14.42,14.42,0,0,0,1.67.83c.62.28,1.27.49,1.88.79a3.49,3.49,0,0,1,2.18,3.64,4,4,0,0,1-2.53,3.65,11.41,11.41,0,0,1-1.55.42Z"/><path class="cls-2" d="M64.89,65.3l.79.42c2.1,1.19,2,4.33.38,5.74a4.49,4.49,0,0,1-2.87,1.16c-1.75.07-3.49,0-5.24,0a.51.51,0,0,1-.14,0V59.17l.12,0c1.73,0,3.47,0,5.2.06a4.15,4.15,0,0,1,2.53,1,3.16,3.16,0,0,1-.59,5A1.3,1.3,0,0,1,64.89,65.3Zm-4.15,4.75c.71,0,1.4,0,2.09,0a1.82,1.82,0,0,0,.51-.13,1.49,1.49,0,0,0,1-1.52,1.48,1.48,0,0,0-1-1.55,8.72,8.72,0,0,0-2.6-.16Zm0-8.3V64.6h1.48a2.22,2.22,0,0,0,.37,0,1.34,1.34,0,0,0,1.2-1.47,1.32,1.32,0,0,0-1.34-1.34C61.9,61.73,61.34,61.75,60.75,61.75Z"/><path class="cls-2" d="M97.73,59.16H107v2.77h-6.28v3.13h5.71v2.23h-5.72v5.35H97.73Z"/><path class="cls-2" d="M118.61,59.16v2.76h-3.77V72.65H111.9V61.93h-3.77V59.16Z"/><path class="cls-2" d="M71.32,72.65h-2.9V59.17h2.9Z"/></g></g></svg>