<svg xmlns="http://www.w3.org/2000/svg" viewBox="0 0 163.6 78.32"><defs><style>.cls-1{fill:#333;}.cls-2{fill:none;}</style></defs><title>urban-outfitters</title><g id="Layer_2" data-name="Layer 2"><g id="Top-nav"><g id="Jk0svv"><path class="cls-1" d="M110,23.33V35.94h-3.22V14.87h3.74l3.47,11h.09v-11h3.08V36c-.94,0-1.87,0-2.8,0-.1,0-.24-.19-.29-.32-1-3-1.93-6-2.9-9-.35-1.1-.71-2.21-1.07-3.31Z"/><path class="cls-1" d="M68.5,26.9v9H64.64v-21s.06-.05.08-.05c1.86,0,3.73,0,5.58.09A4.79,4.79,0,0,1,75,19.73a9.07,9.07,0,0,1-.38,3.87A4.67,4.67,0,0,1,73,25.88a.58.58,0,0,0-.11.49c.68,3.06,1.39,6.12,2.09,9.18a3.45,3.45,0,0,1,.07.39H71.2C71,35,70.8,34,70.61,33c-.37-1.88-.75-3.75-1.1-5.64-.08-.4-.23-.59-.65-.51A3.36,3.36,0,0,1,68.5,26.9Zm0-3.16A1.93,1.93,0,0,0,71,22.15a5.37,5.37,0,0,0,0-2.84A1.92,1.92,0,0,0,68.51,18Z"/><path class="cls-1" d="M131.83,62.83H128c-.6-3-1.2-6-1.8-9h-.91v9h-3.82v-21s0,0,.07,0c2,0,4-.06,6,.17,2.61.31,4,2,4.31,4.59a8.6,8.6,0,0,1-.59,4.49,3.87,3.87,0,0,1-1.35,1.72.39.39,0,0,0-.17.51q1.08,4.7,2.14,9.38A1.24,1.24,0,0,1,131.83,62.83Zm-6.57-12.18c1.51.15,2.22-.29,2.55-1.62a5.43,5.43,0,0,0,0-2.8,1.93,1.93,0,0,0-2.51-1.34Z"/><path class="cls-1" d="M33.55,51.75a25.91,25.91,0,0,1-.85,7.51,7.21,7.21,0,0,1-1.38,2.59A4.77,4.77,0,0,1,23.84,61a11.76,11.76,0,0,1-1.3-4.23,34,34,0,0,1,.07-9.39,11.5,11.5,0,0,1,1-3.34A4.5,4.5,0,0,1,28,41.32a4.5,4.5,0,0,1,4.25,2.89,13.28,13.28,0,0,1,1.09,4.43C33.47,49.85,33.51,51.07,33.55,51.75Zm-4.2.58c-.05-1.73-.06-3.47-.16-5.21a8.17,8.17,0,0,0-.44-1.93.83.83,0,0,0-.87-.59.9.9,0,0,0-.84.58,1.91,1.91,0,0,0-.19.5,17.56,17.56,0,0,0-.31,2.39c-.05,2.65-.06,5.31,0,8a18,18,0,0,0,.4,3.09,1,1,0,0,0,1,.88,1,1,0,0,0,1-.87,7.46,7.46,0,0,0,.32-1.67C29.28,55.75,29.3,54,29.35,52.33Z"/><path class="cls-1" d="M78.93,36V14.89a1.38,1.38,0,0,1,.26,0c1.58,0,3.17,0,4.75,0a4.81,4.81,0,0,1,4.92,5,8,8,0,0,1-.2,1.94,4,4,0,0,1-3.18,3,1.31,1.31,0,0,0,.19.12,4.54,4.54,0,0,1,3.59,4.33,6.35,6.35,0,0,1-1.15,4.58,4.89,4.89,0,0,1-3.83,2C82.52,36,80.75,36,78.93,36Zm3.86-3.06.79-.07c1.07-.14,1.62-.59,1.74-1.64a10.85,10.85,0,0,0,0-2.61,2,2,0,0,0-2.53-1.74Zm0-9.43a1.89,1.89,0,0,0,2.33-1.77,11.92,11.92,0,0,0,0-2.07A1.7,1.7,0,0,0,82.79,18Z"/><path class="cls-1" d="M50.17,14.86h3.88V31.17a4,4,0,0,0,.12,1,1.14,1.14,0,0,0,1.1.91,1.16,1.16,0,0,0,1.25-.71A4.06,4.06,0,0,0,56.78,31q0-7.77,0-15.56v-.55h3.26v.46c0,5.2,0,10.4,0,15.6a9.44,9.44,0,0,1-.31,2.3,3.83,3.83,0,0,1-3.23,3,6.88,6.88,0,0,1-3.06-.09,4.17,4.17,0,0,1-3.11-3.72,12.12,12.12,0,0,1-.15-2c0-5,0-10,0-15.06Z"/><path class="cls-1" d="M37.56,41.75h3.83v.53q0,7.89,0,15.77a4.3,4.3,0,0,0,.14,1.07,1.1,1.1,0,0,0,1.08.88,1.17,1.17,0,0,0,1.26-.7A3.84,3.84,0,0,0,44.13,58q0-7.83,0-15.68v-.52h3.23c0,.14,0,.28,0,.43,0,5.23,0,10.46,0,15.69a9.63,9.63,0,0,1-.33,2.33,3.85,3.85,0,0,1-3.47,3A6.85,6.85,0,0,1,40.74,63a4.09,4.09,0,0,1-3-3.48,9.21,9.21,0,0,1-.18-1.82c0-5.19,0-10.37,0-15.56C37.54,42,37.55,41.91,37.56,41.75Z"/><path class="cls-1" d="M100.68,14.85c.87,7.06,1.74,14.06,2.6,21.09H99.57c-.17-1.43-.35-2.84-.5-4.26,0-.33-.14-.42-.46-.41-.89,0-1.77,0-2.7,0l-.54,4.67H92.14c.23-1.69.47-3.35.7-5q.73-5.23,1.46-10.45c.26-1.78.5-3.57.77-5.36a.37.37,0,0,1,.27-.26C97.1,14.84,98.87,14.85,100.68,14.85Zm-2,13.33-1.1-9.89h-.1l-1.19,9.88Z"/><path class="cls-1" d="M144.61,47.74h-3.45c0-.48,0-1-.12-1.43a3.69,3.69,0,0,0-.25-.92,1.2,1.2,0,0,0-1.2-.79,1.25,1.25,0,0,0-1.24.83,2.78,2.78,0,0,0,.19,2.52,10,10,0,0,0,2,2.15,34,34,0,0,1,3,3,6.79,6.79,0,0,1,1.28,6.37,4.89,4.89,0,0,1-5.12,3.83A4.34,4.34,0,0,1,135.31,60a10.67,10.67,0,0,1-.44-3.2h3.39c.07.59.09,1.18.19,1.75A1.55,1.55,0,0,0,140,60a1.69,1.69,0,0,0,1.64-1.49,2.22,2.22,0,0,0-.15-1.59,7.5,7.5,0,0,0-1.24-1.7c-1-.91-2-1.72-3-2.6a7.24,7.24,0,0,1-2-8.3,4.82,4.82,0,0,1,7.58-1.9,5.4,5.4,0,0,1,1.56,3.19C144.48,46.29,144.52,47,144.61,47.74Z"/><path class="cls-1" d="M108.74,62.81v-21h8.68V45h-4.81v5.41h3.52v3.45h-3.52v5.74h5v3.23Z"/><path class="cls-1" d="M64.1,62.82v-21h8.61V45H68a3.43,3.43,0,0,0,0,.41c0,1.61,0,3.23,0,4.84,0,.31.08.41.4.41,1,0,2.05,0,3.11,0v3.43H68v8.76Z"/><path class="cls-1" d="M53.75,45h-3.3V41.76H60.89V45H57.63V62.82H53.75Z"/><path class="cls-1" d="M90.11,62.83H86.27V45H83V41.76H93.41V45h-3.3Z"/><path class="cls-1" d="M98.39,45H95.08V41.76h10.44V45h-3.26V62.81H98.39Z"/><path class="cls-1" d="M79.89,62.83H76.08V41.76h3.81Z"/></g><rect class="cls-2" width="163.6" height="78.32"/></g></g></svg>