<svg xmlns="http://www.w3.org/2000/svg" viewBox="0 0 163.6 76.53"><defs><style>.cls-1{fill:none;}.cls-2{opacity:0.85;}.cls-3{fill:#020202;}.cls-4{fill:#d3000c;}</style></defs><title>verizon</title><g id="Layer_2" data-name="Layer 2"><g id="Top-nav"><rect class="cls-1" width="163.6" height="76.53"/><g class="cls-2"><path class="cls-3" d="M49.58,47.79a19.35,19.35,0,0,1-1,2.2,9.74,9.74,0,0,1-6.11,4.32,12.35,12.35,0,0,1-9.1-1,10.27,10.27,0,0,1-5.3-7.88,12.37,12.37,0,0,1,.59-6.49,10.29,10.29,0,0,1,7.91-6.76,11.66,11.66,0,0,1,5.78.25,9.74,9.74,0,0,1,6.43,6,16.9,16.9,0,0,1,1.09,5.9c0,.83,0,.83-.84.83H35.22c-.93,0-1,0-.74.92A4.69,4.69,0,0,0,39,49.92,4,4,0,0,0,43,48a.74.74,0,0,1,.53-.31c1.87,0,3.74,0,5.61,0A2.29,2.29,0,0,1,49.58,47.79ZM38.75,40.88h2.87c1.75,0,1.77,0,1.11-1.65-1.06-2.62-3.66-3.11-5.82-2.15a4.65,4.65,0,0,0-2.44,3.25c-.13.42.06.57.5.57C36.23,40.86,37.49,40.88,38.75,40.88Z"/><path class="cls-3" d="M116.69,43.39a11.45,11.45,0,0,1-22.89,0,11.45,11.45,0,0,1,22.89,0Zm-16.37,0a31.51,31.51,0,0,0,.68,3.32,4.38,4.38,0,0,0,8.06.9,9.3,9.3,0,0,0,0-8.57,4,4,0,0,0-4-2.23,4.08,4.08,0,0,0-3.77,2.35A10.89,10.89,0,0,0,100.32,43.39Z"/><path class="cls-3" d="M124.63,35.37c.12-.15.24-.29.35-.44a7.84,7.84,0,0,1,7.91-2.85,7.11,7.11,0,0,1,5.55,5.66,10.41,10.41,0,0,1,.22,2.37q0,6.74,0,13.48a.61.61,0,0,1-.38.45c-1.93,0-3.86,0-5.79,0-.47,0-.42-.36-.41-.66,0-1.59,0-3.18,0-4.76,0-2.42,0-4.84,0-7.27a4.12,4.12,0,0,0-.88-2.84,3.65,3.65,0,0,0-5.9,1,5.44,5.44,0,0,0-.61,2.57c0,3.76,0,7.53,0,11.29,0,.57-.15.74-.72.72-1.72,0-3.45,0-5.18,0-.51,0-.7-.11-.7-.67,0-6.68,0-13.35,0-20,0-.83,0-.83.85-.83,1.62,0,3.25,0,4.88,0,.49,0,.65.16.64.63,0,.72,0,1.44,0,2.15Z"/><path class="cls-3" d="M83.17,48.8a3.37,3.37,0,0,0,.47.1c3,0,6.1,0,9.15,0,.6,0,.82.16.8.79,0,1.24,0,2.48,0,3.72,0,.48-.1.68-.64.68q-8.5,0-17,0c-.59,0-.84-.14-.81-.78,0-1.22,0-2.44,0-3.66a1.54,1.54,0,0,1,.35-.92c3.11-3.5,6.25-7,9.38-10.49a5.45,5.45,0,0,0,.37-.46l-.71,0c-2.89,0-5.77,0-8.66,0-.6,0-.77-.18-.75-.77,0-1.26,0-2.52,0-3.78,0-.51.17-.66.68-.66q8.27,0,16.53,0c.58,0,.79.13.76.75-.06,1.2,0,2.4,0,3.6a1.65,1.65,0,0,1-.46,1.27L83.44,48.41C83.36,48.51,83.29,48.62,83.17,48.8Z"/><path class="cls-3" d="M7.3,32.61c.2,0,.33-.06.47-.07,1.89,0,3.78,0,5.67,0a.7.7,0,0,1,.8.57C15.1,36,16,38.85,16.83,41.72c.44,1.48.92,3,1.51,4.46.11-.27.23-.53.31-.8Q20,40.85,21.39,36.3c.31-1,.62-2,.92-3.08a.82.82,0,0,1,.92-.68c1.74,0,3.5,0,5.24,0,.64,0,.68.09.48.67-.85,2.38-1.68,4.78-2.51,7.17s-1.74,5-2.6,7.46c-.62,1.77-1.24,3.55-1.84,5.34-.29.87-.26.87-1.22.87-1.79,0-3.58,0-5.37,0a.78.78,0,0,1-.9-.66c-.7-2.17-1.47-4.33-2.22-6.48L9.86,40q-1.2-3.43-2.42-6.87C7.39,33,7.36,32.83,7.3,32.61Z"/><path class="cls-3" d="M57.83,36a3.72,3.72,0,0,0,.34-.47,6.14,6.14,0,0,1,6.12-3.06c.48.06.62.26.61.71,0,1.52,0,3.05,0,4.57,0,.49-.17.56-.62.52a5.59,5.59,0,0,0-4.65,1.3,4.71,4.71,0,0,0-1.55,3.34c-.1,2.77-.08,5.53-.11,8.3,0,.79,0,1.58,0,2.37,0,.38-.13.51-.49.51-1.88,0-3.75,0-5.62,0-.43,0-.53-.18-.53-.59q0-10.09,0-20.19c0-.57.17-.75.73-.74,1.67,0,3.34,0,5,0,.47,0,.62.16.61.6,0,.92,0,1.85,0,2.78Z"/><path class="cls-3" d="M73.34,43.32c0,3.37,0,6.75,0,10.13,0,.51-.2.62-.65.61-1.81,0-3.62,0-5.43,0-.47,0-.58-.16-.58-.6q0-7.35,0-14.71c0-1.83,0-3.66,0-5.5,0-.51.11-.73.67-.72q2.68,0,5.37,0c.51,0,.61.19.61.65Q73.34,38.25,73.34,43.32Z"/><path class="cls-4" d="M145,39l2.28-4.82,4.47-9.6c.37-.81.74-1.62,1.13-2.42.06-.13.21-.31.32-.31,1,0,2,0,3,0l-.27.64q-2.7,5.82-5.42,11.64c-1.21,2.59-2.52,5.13-3.61,7.77a2.12,2.12,0,0,1-2.48,1.48,1.32,1.32,0,0,1-1.34-.91c-1.37-3-2.79-6-4.2-9-.36-.74-.32-.82.49-.83.59,0,1.18,0,1.77,0a.88.88,0,0,1,.92.61c.81,1.86,1.67,3.7,2.52,5.54l.15.32Z"/><path class="cls-3" d="M69.93,30.79c-.89,0-1.79,0-2.68,0-.45,0-.55-.16-.55-.57,0-1.59,0-3.18,0-4.76,0-.42.08-.62.58-.61,1.82,0,3.65,0,5.48,0,.46,0,.6.15.59.6,0,1.57,0,3.14,0,4.7,0,.45-.11.66-.62.64-.94,0-1.87,0-2.81,0Z"/></g></g></g></svg>