<svg xmlns="http://www.w3.org/2000/svg" viewBox="0 0 163.6 76.53"><defs><style>.cls-1{fill:#fdfeff;}.cls-2{fill:#00b4ed;}.cls-3{fill:none;}</style></defs><title>xero</title><g id="Layer_2" data-name="Layer 2"><g id="Top-nav"><path class="cls-1" d="M47.7,40.29h-.08v-2h.08Z"/><path class="cls-2" d="M47.7,40.29v-2a3.11,3.11,0,0,0,0-.61.09.09,0,0,0,0-.11c.06-.61.11-1.23.17-1.84a31.82,31.82,0,0,1,.81-4.63A33.85,33.85,0,0,1,66.82,8.78,33.3,33.3,0,0,1,75.19,6a34.64,34.64,0,0,1,4.06-.51,32.83,32.83,0,0,1,4.09,0,33.63,33.63,0,0,1,19.89,7.91,33.69,33.69,0,0,1,7.91,9.7,33,33,0,0,1,3.34,9,33.53,33.53,0,0,1,.62,4.1,32.17,32.17,0,0,1,.14,3.67,35,35,0,0,1-.36,4.33,33.34,33.34,0,0,1-2.39,8.46A33.81,33.81,0,0,1,88.21,72.43a34.93,34.93,0,0,1-4.33.59c-1.09.07-2.19.11-3.29.08a34.85,34.85,0,0,1-4.78-.47,33.57,33.57,0,0,1-16-7.44,33.78,33.78,0,0,1-11.15-18,32.48,32.48,0,0,1-.79-4.9C47.77,41.59,47.75,40.94,47.7,40.29ZM72,40a.67.67,0,0,1,.34,0H82.77a2.18,2.18,0,0,0,1.09-.27,1.72,1.72,0,0,0,1-1.48,3.18,3.18,0,0,0-.19-1.14A7.28,7.28,0,0,0,82,33.2a7.4,7.4,0,0,0-6.19-1.42,7.19,7.19,0,0,0-4.25,2.55,7.51,7.51,0,0,0-1.74,4.23,7.35,7.35,0,0,0,.22,2.6,7.5,7.5,0,0,0,3.16,4.36,7.17,7.17,0,0,0,4.86,1.22,7.37,7.37,0,0,0,5.35-3.07,1.3,1.3,0,0,0,.24-.52A1.1,1.1,0,0,0,83.17,42a1,1,0,0,0-1.24.18,3.79,3.79,0,0,0-.31.39,5.23,5.23,0,0,1-5.15,2,5.41,5.41,0,0,1-4.21-3.42A4.3,4.3,0,0,1,72,40Zm35.6-.83A7.57,7.57,0,1,0,100,46.77,7.56,7.56,0,0,0,107.57,39.21ZM56,31.64a1,1,0,0,0-.75,1.8L57,35.2,60.75,39c.18.18.2.15,0,.34l-.14.14-5.34,5.34-.21.22a1,1,0,0,0-.1,1.19,1.07,1.07,0,0,0,1.09.49,1.31,1.31,0,0,0,.65-.39l5.46-5.47c.25-.24.19-.25.43,0L68,46.24l.23.23a1,1,0,0,0,1.63-1.16,1.29,1.29,0,0,0-.36-.48l-5.41-5.44c-.25-.25-.24-.18,0-.43l5.37-5.39a1.64,1.64,0,0,0,.27-.32,1,1,0,0,0-.06-1.17,1,1,0,0,0-1.11-.36,1.21,1.21,0,0,0-.52.34l-5.4,5.41-.14.13c-.07.09-.13.08-.2,0l-.15-.16-4.76-4.75L56.63,32A1,1,0,0,0,56,31.64Zm33,1a1,1,0,0,1-.14-.25,1,1,0,0,0-1.63-.23,1.16,1.16,0,0,0-.29.89q0,6.21,0,12.42c0,.1,0,.2,0,.3a1,1,0,0,0,1.27.83A1,1,0,0,0,89,45.47V37.59a11.06,11.06,0,0,1,.12-1.82,2,2,0,0,1,1.26-1.71,3.93,3.93,0,0,1,.67-.19,7.41,7.41,0,0,1,1-.11,1,1,0,0,0,.93-.8,1,1,0,0,0-1-1.24,4.48,4.48,0,0,0-3,.87Z"/><path class="cls-1" d="M47.72,37.52a.09.09,0,0,1,0,.11S47.67,37.56,47.72,37.52Z"/><path class="cls-1" d="M72,40a4.3,4.3,0,0,0,.29,1.12,5.41,5.41,0,0,0,4.21,3.42,5.23,5.23,0,0,0,5.15-2,3.79,3.79,0,0,1,.31-.39A1,1,0,0,1,83.17,42a1.1,1.1,0,0,1,.52,1.14,1.3,1.3,0,0,1-.24.52,7.37,7.37,0,0,1-5.35,3.07,7.17,7.17,0,0,1-4.86-1.22,7.5,7.5,0,0,1-3.16-4.36,7.35,7.35,0,0,1-.22-2.6,7.51,7.51,0,0,1,1.74-4.23,7.19,7.19,0,0,1,4.25-2.55A7.4,7.4,0,0,1,82,33.2a7.28,7.28,0,0,1,2.6,3.91,3.18,3.18,0,0,1,.19,1.14,1.72,1.72,0,0,1-1,1.48,2.18,2.18,0,0,1-1.09.27H72.31A.67.67,0,0,0,72,40Zm.12-2.15c.28,0,10.37,0,10.56,0a5.43,5.43,0,0,0-10.56,0Z"/><path class="cls-1" d="M107.57,39.21A7.57,7.57,0,1,1,100,31.6,7.59,7.59,0,0,1,107.57,39.21Zm-2.13,0a5.44,5.44,0,1,0-5.25,5.44A5.46,5.46,0,0,0,105.44,39.18Z"/><path class="cls-1" d="M56,31.64a1,1,0,0,1,.68.31l.75.74,4.76,4.75.15.16c.07.08.13.09.2,0l.14-.13L68,32.06a1.21,1.21,0,0,1,.52-.34,1,1,0,0,1,1.11.36,1,1,0,0,1,.06,1.17,1.64,1.64,0,0,1-.27.32L64.08,39c-.24.25-.25.18,0,.43l5.41,5.44a1.29,1.29,0,0,1,.36.48,1,1,0,0,1-1.63,1.16L68,46.24,62.6,40.86c-.24-.25-.18-.24-.43,0l-5.46,5.47a1.31,1.31,0,0,1-.65.39A1.07,1.07,0,0,1,55,46.23a1,1,0,0,1,.1-1.19l.21-.22,5.34-5.34.14-.14c.19-.19.17-.16,0-.34L57,35.2,55.2,33.44a1,1,0,0,1,.75-1.8Z"/><path class="cls-1" d="M89,32.59a4.48,4.48,0,0,1,3-.87,1,1,0,0,1,1,1.24,1,1,0,0,1-.93.8,7.41,7.41,0,0,0-1,.11,3.93,3.93,0,0,0-.67.19,2,2,0,0,0-1.26,1.71A11.06,11.06,0,0,0,89,37.59v7.88a1,1,0,0,1-.77,1.08,1,1,0,0,1-1.27-.83c0-.1,0-.2,0-.3q0-6.21,0-12.42a1.16,1.16,0,0,1,.29-.89,1,1,0,0,1,1.63.23A1,1,0,0,0,89,32.59Z"/><path class="cls-2" d="M72.09,37.89a5.43,5.43,0,0,1,10.56,0C82.46,37.93,72.37,37.94,72.09,37.89Z"/><path class="cls-2" d="M105.44,39.18a5.44,5.44,0,1,1-5.6-5.44A5.46,5.46,0,0,1,105.44,39.18Zm-3.56,0A1.88,1.88,0,1,0,100,41.06,1.87,1.87,0,0,0,101.88,39.19Z"/><path class="cls-1" d="M101.88,39.19A1.88,1.88,0,1,1,100,37.3,1.87,1.87,0,0,1,101.88,39.19Z"/><rect class="cls-3" width="163.6" height="76.53"/></g></g></svg>