<svg xmlns="http://www.w3.org/2000/svg" width="68.448mm" height="16.333mm" viewBox="0 0 68.448198 16.33256"><g><g><path fill="#12427d" d="M15.58 0h.26c1.66.1 2.95.7 3.92 1.48.14.1.3.2.4.36-1.1.5-2.2 1.02-3.3 1.53-.17.07-.37.2-.5.2-.14 0-.3-.05-.42-.07-1.16-.13-1.88.38-2.65.73-1.73.8-3.64 1.66-5.36 2.47-.42.2-.9.4-1.25.7-.18.15-.35.33-.5.5-.1.13-.23.47-.38.58-.1.1-.32.13-.48.2-1.1.5-2.24 1.08-3.28 1.52-.04-2 .56-3.4 1.42-4.5.2-.25.46-.53.7-.75C5.02 4.23 5.97 3.8 7 3.3c1.4-.65 2.7-1.23 4.07-1.87C12.4.8 13.72.03 15.57 0"/></g><g><path fill="#12427d" d="M24.27.56c.03 1.3 0 2.65 0 3.96-2.33 1.1-4.77 2.22-7.17 3.33-.6.3-1.3.7-2.12.4-.58-.22-1-.7-1.13-1.28-.16-.73.12-1.36.55-1.75.36-.33 1.06-.57 1.6-.82 2.2-1.03 4.36-2 6.57-3.04.57-.27 1.14-.55 1.7-.8"/></g><g><path fill="#12427d" d="M22.18 6.15c.02 0 .02 0 .02.02.1 1.92-.57 3.28-1.35 4.37-.18.24-.4.43-.58.64-.96 1.05-2.45 1.6-3.87 2.24-1.1.52-2.2 1.06-3.33 1.57-.55.24-1.1.52-1.7.75-.6.24-1.22.48-1.9.55-1.96.2-3.6-.4-4.68-1.2-.13-.1-.25-.2-.37-.3-.1-.1-.25-.16-.32-.3 1.06-.47 2.2-.98 3.32-1.5.16-.07.34-.2.47-.22.14-.02.33.07.48.08 1.12.1 1.95-.46 2.75-.83 1.67-.76 3.23-1.5 4.9-2.26 1-.46 1.96-.9 2.4-1.9 1.25-.55 2.5-1.14 3.75-1.72"/></g><g><path fill="#12427d" d="M0 15.76v-3.92c2.27-1.12 4.82-2.26 7.2-3.37.46-.2.8-.45 1.33-.5.38-.02.8.1 1.06.25.53.3.96.98.86 1.78-.12 1.1-1.02 1.4-1.9 1.8-2.8 1.3-5.82 2.73-8.56 3.96"/></g><g><path fill="#12427d" d="M29.7 8.36c-.27 2.12.3 4.28 2.13 4.36 1 .05 1.57-.43 1.95-1.1.7-1.25.7-3.84-.07-5-.33-.5-.9-.94-1.92-.85-1.37.12-1.9 1.3-2.07 2.6m2.5 4.95h-.44c-2.24-.2-3.46-1.42-3.68-3.64v-.65c.08-1.8 1-3.05 2.3-3.57.77-.3 1.7-.37 2.54-.2.8.16 1.4.52 1.92 1.02 1.02 1.02 1.28 3 .73 4.54-.5 1.45-1.57 2.35-3.38 2.5"/></g><g><path fill="#12427d" d="M41.1 11.82c.58-.6.9-1.5.9-2.62.07-2.27-1.16-3.67-3.65-3.28-.08 2.1-.08 4.47 0 6.56 1.27.2 2.15-.02 2.76-.66m-4.28-6.56c1.72.13 3.67-.24 4.9.4 1.15.58 1.86 1.82 1.78 3.54-.08 1.74-.7 2.86-1.86 3.5-.64.36-1.34.45-2.26.45-.84 0-1.72-.12-2.58 0 .1-2.55.13-5.3 0-7.84 0-.02 0-.04.02-.04"/></g><g><path fill="#12427d" d="M48.93 5.26c-.05.24-.08.58 0 .82-.9-.06-1.83-.1-2.82-.1-.03.85 0 1.78 0 2.66.87.05 1.8 0 2.64-.05-.06.24-.05.53 0 .78-.84-.06-1.74-.06-2.65-.05 0 1.27-.05 2.64.06 3.82-.48-.1-1.1-.1-1.6 0 .17-2.5.14-5.3 0-7.84 0 0 0-.03 0-.04 1.43.1 2.95.08 4.37 0"/></g><g><path fill="#12427d" d="M49.57 13.3h-.48c-.45-.04-.85-.14-1.2-.3.07-.28.08-.62.08-1 0-.15-.03-.27.05-.32.12-.07.15.08.25.23.25.35.6.72 1.06.8 1.28.17 1.2-.98 1.2-2.07 0-1.75.03-3.8-.08-5.37.5.08 1.1.1 1.62 0-.12 1.57-.1 3.47-.1 5.18 0 .85-.1 1.65-.52 2.1-.42.5-1.03.68-1.9.78"/></g><g><path fill="#12427d" d="M53.58 5.26c1.38.1 2.83.07 4.22 0-.07.22-.07.6 0 .8-.85-.07-1.74-.1-2.68-.08-.04.86 0 1.8-.02 2.68.83.04 1.73 0 2.5-.07-.06.25-.07.56 0 .8-.77-.07-1.64-.07-2.5-.07v3.1c.92.03 1.86-.05 2.77-.06-.08.2-.06.58 0 .78-1.4-.1-2.9-.08-4.3 0 .13-2.55.16-5.34 0-7.9"/></g><g><path fill="#12427d" d="M59.07 5.26c.47.1 1.1.1 1.6 0-.1 2.3-.16 4.77-.08 7.12.95.05 2 .03 2.88-.08-.1.24-.06.64-.02.85-1.45-.07-2.96-.1-4.4 0 .1-2.57.1-5.36 0-7.9"/></g><g><path fill="#12427d" d="M68.45 12.3v.03c-.08.2-.08.6 0 .8v.02c-1.46-.07-2.98-.1-4.43 0 .1-2.56.1-5.37.02-7.9.46.13 1.14.06 1.6.03-.1 2.3-.16 4.76-.08 7.12 1 0 2 .02 2.9-.1"/></g><g><path fill="#12427d" d="M68.45 12.33v.8c-.08-.2-.08-.6 0-.8"/></g></g></svg>