<?xml version="1.0" encoding="utf-8"?>
<!-- Generator: Adobe Illustrator 22.1.0, SVG Export Plug-In . SVG Version: 6.00 Build 0)  -->
<svg version="1.1" id="Laag_1" xmlns="http://www.w3.org/2000/svg" xmlns:xlink="http://www.w3.org/1999/xlink" x="0px" y="0px"
	 viewBox="0 0 549.4 112.3" style="enable-background:new 0 0 549.4 112.3;" xml:space="preserve">
<style type="text/css">
	.st0{fill:#30ACE2;}
</style>
<g>
	<path class="st0" d="M84.2,112.3H18.1c-4.6,0-8-3.5-8-8V56.2C7,52.2,0,42.2,0,33.2c0-8.9,3.5-17.3,9.8-23.5C16.1,3.4,24.4,0,33.3,0
		h0.1c6.3,0,13.5,3.5,17.8,5.9C55.5,3.5,62.7,0,69,0c18.4,0,33.3,14.9,33.3,33.2c0,4.8-1.9,10.4-5.6,16.7c-1.6,2.6-2.8,4.6-3.9,6
		v48.4C92.8,108.8,89,112.3,84.2,112.3z M25,97.3h52.8v-43c-0.1-2.1,0.5-4.1,1.6-5.8l2.8-4.2l0.2-0.3c2.2-3.4,5-7.9,5-10.9
		c0-10.1-8.2-18.2-18.3-18.2c-3.2,0-9.7,3.3-13.1,5.5l-0.5,0.3c-2.7,1.5-5.9,1.5-8.6,0l-0.5-0.3c-3.4-2.2-9.9-5.5-13.1-5.5
		c0,0,0,0-0.1,0c-4.9,0-9.4,1.9-12.9,5.3s-5.4,8-5.4,12.9c0,3.8,4.6,11.1,7.7,14.9l0.1,0.2c1.1,1.4,1.8,2.9,2.1,4.6l0.1,0.7L25,97.3
		L25,97.3z"/>
	<path class="st0" d="M51.2,83.3H37c-3.1,0-4.9-1.9-4.9-5c0-3.2,1.8-5.1,4.7-5.1h28.7c3.1,0,4.7,1.9,4.7,5.1c0,3.1-1.8,5-4.8,5H51.2
		L51.2,83.3z"/>
	<path class="st0" d="M51.2,63.9H37c-3.1,0-4.9-1.9-4.9-5c0-3.2,1.8-5.1,4.7-5.1h28.7c3.1,0,4.7,1.9,4.7,5.1c0,3.1-1.8,5-4.8,5H51.2
		L51.2,63.9z"/>
	<path class="st0" d="M51.2,44.3H37c-3.1,0-4.9-1.9-4.9-5c0-3.2,1.8-5.1,4.7-5.1h28.7c3.1,0,4.7,1.9,4.7,5.1c0,3.1-1.8,5-4.8,5H51.2
		L51.2,44.3z"/>
</g>
<g>
	<path class="st0" d="M141.6,31.9h-16.8c-5.1,0-9.2-2.6-9.2-7.5c0-4.9,4.1-7.5,9.2-7.5h51.4c5.1,0,9.2,2.6,9.2,7.5
		c0,4.9-4.1,7.5-9.2,7.5h-16.8v55.6c0,5.3-3.5,8.9-8.9,8.9c-5.4,0-8.9-3.6-8.9-8.9V31.9z"/>
	<path class="st0" d="M205,36.9c19.1,0,29.3,13,29.3,29.7c0,15.8-7.7,29.8-29.3,29.8c-21.6,0-29.3-14-29.3-29.8
		C175.8,49.9,186,36.9,205,36.9z M205,84.7c9.4,0,13.4-8.5,13.4-18.1c0-10.3-4.2-18-13.4-18s-13.4,7.7-13.4,18
		C191.6,76.2,195.6,84.7,205,84.7z"/>
	<path class="st0" d="M297,79.7c0,6.6,1.6,8.1,1.6,10.6c0,3.6-3.4,6.1-7.2,6.1c-6.8,0-9.1-4.3-9.3-9.2c-6.2,6.8-13.3,9.2-21.7,9.2
		c-9,0-17.9-6.2-17.9-16.1c0-13.1,10-16.8,22.1-18.2l9.6-1.1c3.8-0.4,6.8-1.3,6.8-5.9s-4.7-6.5-10-6.5c-11.7,0-12,8.7-18.3,8.7
		c-4,0-6.7-2.8-6.7-6.1c0-6.3,8.9-14.3,25.1-14.3c15.2,0,25.7,4.9,25.7,16.3V79.7z M281.2,68.3c-1.7,1.6-5,2.2-6.8,2.5l-5.7,0.9
		c-6.6,1-10.2,3-10.2,7.8c0,3.6,3.4,6.5,8.8,6.5c8.7,0,14-5.6,14-11.5V68.3z"/>
	<path class="st0" d="M331.9,36.9c12,0,24.2,4.8,24.2,12c0,3.7-2.5,6.9-6.6,6.9c-6.2,0-6.4-7.3-16.4-7.3c-5.5,0-9.1,1.5-9.1,4.9
		c0,3.7,3.6,4.6,8.5,5.6l6.6,1.5c9,2.1,19.7,5.9,19.7,16.9c0,12.9-12.5,18.9-24.4,18.9c-14.3,0-26.2-6.4-26.2-14.2
		c0-3.5,2-6.6,6.4-6.6c6.8,0,7.5,9.8,19.2,9.8c5.6,0,9.2-2.5,9.2-5.7c0-4-3.5-4.7-9.1-6.1l-9.3-2.3c-9.2-2.3-16.4-6.1-16.4-16.7
		C308.2,41.6,321,36.9,331.9,36.9z"/>
	<path class="st0" d="M373,48.7h-2.7c-4.4,0-6.3-1.7-6.3-5.2c0-3.5,1.8-5.2,6.3-5.2h2.7v-9.6c0-5.2,3.1-7.9,7.9-7.9s7.9,2.7,7.9,7.9
		v9.6h4.8c4.7,0,7.2,1.4,7.2,5.2c0,3.8-2.5,5.2-7.2,5.2h-4.8v31.6c0,2.4,1.3,3.7,4.1,3.7h2.3c3.5,0,5.5,2,5.5,5.3
		c0,4.6-3.9,7-11.5,7c-11.5,0-16.3-4.8-16.3-14.1V48.7z"/>
	<path class="st0" d="M461.5,79.7c0,6.6,1.6,8.1,1.6,10.6c0,3.6-3.4,6.1-7.2,6.1c-6.8,0-9.1-4.3-9.3-9.2c-6.2,6.8-13.3,9.2-21.7,9.2
		c-9,0-17.9-6.2-17.9-16.1c0-13.1,10-16.8,22.1-18.2l9.6-1.1c3.8-0.4,6.8-1.3,6.8-5.9s-4.7-6.5-10-6.5c-11.7,0-12,8.7-18.3,8.7
		c-4,0-6.7-2.8-6.7-6.1c0-6.3,8.9-14.3,25.1-14.3c15.2,0,25.7,4.9,25.7,16.3V79.7z M445.7,68.3c-1.7,1.6-5,2.2-6.8,2.5l-5.7,0.9
		c-6.6,1-10.2,3-10.2,7.8c0,3.6,3.4,6.5,8.8,6.5c8.7,0,14-5.6,14-11.5V68.3z"/>
	<path class="st0" d="M476,44.2c0-4.8,3.1-7.4,7.2-7.4s7.2,2.6,7.2,7.4v6.1h0.2c1.8-6.6,5.4-13.4,13.1-13.4c5,0,8.7,3.3,8.7,7.7
		c0,5.9-3.9,7.9-7.8,7.9h-2.8c-6.4,0-9.9,4.4-9.9,17.6v18.4c0,4.2-1.7,7.9-7.9,7.9c-6.2,0-7.9-3.7-7.9-7.9V44.2z"/>
</g>
</svg>
