<svg width="241" height="60" viewBox="0 0 241 60" version="1.1" xmlns="http://www.w3.org/2000/svg" xmlns:xlink="http://www.w3.org/1999/xlink"><title>Page 1</title><defs><path id="path-1" d="M.508.69H27.76V30H.508z"/><path id="path-3" d="M.138.69H27.39V30H.14z"/><path id="path-5" d="M0 .258h44.763v43.425H0z"/><path id="path-7" d="M.077.856h15.8v17.648H.078z"/></defs><g id="header" stroke="none" stroke-width="1" fill="none" fill-rule="evenodd" transform="translate(-59 -14)"><g id="Group-8"><g id="Group-4"><g id="Page-1" transform="translate(59 13)"><path d="M134.965 53.185c-4.111 0-6.01-4.006-6.01-7.645 0-3.636 1.845-7.748 6.01-7.748 4.006 0 5.85 4.112 5.85 7.748 0 3.64-1.898 7.645-5.85 7.645m9.804-22.035c-1.845 0-3.427 1.317-3.637 3.163-1.687-2.372-4.43-3.48-7.223-3.48-6.957 0-12.544 6.378-12.544 14.707 0 8.541 5.429 14.603 12.546 14.603 2.899 0 5.27-1.212 7.22-3.53.528 2.001 1.424 3.214 3.638 3.214 3.637 0 3.637-3.005 3.637-4.955V36.104c0-1.95 0-4.954-3.637-4.954" id="Fill-1" fill="#6D8F18"/><g id="Group-5" transform="translate(41 30.144)"><mask id="mask-2" fill="#fff"><use xlink:href="#path-1"/></mask><path d="M8.1 12.814c.367-3.215 2.634-5.798 6.01-5.798 3.53 0 5.638 2.478 6.06 5.798H8.1zm19.66 1.687c0-6.326-5.429-13.81-13.65-13.81C6.095.69.507 7.7.507 15.396.508 23.78 6.202 30 14.742 30c5.64 0 12.385-3.163 12.385-6.432 0-1.634-1.474-3.269-3.109-3.269-2.003 0-4.69 3.058-8.592 3.058-3.532 0-6.64-1.739-7.169-5.48H24.44c2.318 0 3.32-1.109 3.32-3.376z" id="Fill-3" fill="#6D8F18" mask="url(#mask-2)"/></g><path d="M80.274 39.585c0-1.477 1.213-2.11 2.583-2.11 2.48 0 5.377 2.215 6.8 2.215 1.792 0 3.11-1.634 3.11-3.374 0-3.742-5.745-5.481-9.487-5.481-6.01 0-10.28 3.583-10.28 8.855.002 8.699 13.178 8.17 13.178 11.65 0 1.424-.684 2.16-3.004 2.16-3.585 0-4.902-2.582-7.854-2.582-2.108 0-3.269 2.215-3.269 3.375 0 3.425 6.326 5.85 10.596 5.85 6.536 0 10.806-3.848 10.806-8.91 0-8.644-13.179-8.117-13.179-11.648" id="Fill-6" fill="#6D8F18"/><path d="M104.839 39.585c0-1.477 1.212-2.11 2.583-2.11 2.478 0 5.377 2.215 6.8 2.215 1.792 0 3.109-1.634 3.109-3.374 0-3.742-5.744-5.481-9.488-5.481-6.01 0-10.278 3.583-10.278 8.855 0 8.699 13.178 8.17 13.178 11.65 0 1.424-.685 2.16-3.004 2.16-3.585 0-4.903-2.582-7.855-2.582-2.107 0-3.268 2.215-3.268 3.375 0 3.425 6.326 5.85 10.595 5.85 6.536 0 10.807-3.848 10.807-8.91 0-8.644-13.18-8.117-13.18-11.648" id="Fill-8" fill="#6D8F18"/><path d="M168.699 30.834c-3.584 0-5.85 1.054-7.326 3.11-.264-1.74-1.529-2.793-3.479-2.793-2.214 0-3.796 1.686-3.796 4.216V55.61c0 2.53 1.582 4.218 3.796 4.218 2.214 0 3.796-1.688 3.796-4.218l-.001-13.232c0-2.951 1.739-5.22 4.849-5.22 2.742 0 4.956 1.689 4.956 5.22V55.61c0 2.53 1.582 4.218 3.795 4.218 2.214 0 3.795-1.688 3.795-4.218V41.06c0-6.43-4.428-10.226-10.385-10.226" id="Fill-10" fill="#6D8F18"/><g id="Group-14" transform="translate(183 30.144)"><mask id="mask-4" fill="#fff"><use xlink:href="#path-3"/></mask><path d="M7.728 12.814c.368-3.215 2.635-5.798 6.01-5.798 3.53 0 5.64 2.478 6.061 5.798H7.73zm19.661 1.687c0-6.326-5.429-13.81-13.653-13.81C5.726.69.138 7.7.138 15.396.138 23.78 5.831 30 14.37 30c5.641 0 12.387-3.163 12.387-6.432 0-1.634-1.475-3.269-3.109-3.269-2.004 0-4.69 3.058-8.592 3.058-3.532 0-6.64-1.739-7.169-5.48h16.182c2.32 0 3.321-1.109 3.321-3.376z" id="Fill-12" fill="#6D8F18" mask="url(#mask-4)"/></g><path d="M229.787 30.834c-3.584 0-5.85 1.054-7.326 3.11-.264-1.74-1.53-2.793-3.48-2.793-2.213 0-3.795 1.686-3.795 4.216V55.61c0 2.53 1.582 4.218 3.796 4.218 2.214 0 3.796-1.688 3.796-4.218l-.002-13.232c0-2.951 1.74-5.22 4.85-5.22 2.742 0 4.955 1.689 4.955 5.22V55.61c0 2.53 1.582 4.218 3.796 4.218 2.214 0 3.795-1.688 3.795-4.218V41.06c0-6.43-4.428-10.226-10.385-10.226" id="Fill-15" fill="#6D8F18"/><g id="Group-19" transform="translate(0 16.144)"><mask id="mask-6" fill="#fff"><use xlink:href="#path-5"/></mask><path d="M44.763 9.366a5.39 5.39 0 0 1-.938-1.955c-.044-.174-.05-.348-.077-.522a11.206 11.206 0 0 0-5.75 5.103c.104-5.01-1.255-8.962-2.694-11.734-.294.34-.625.659-.998.94a6.503 6.503 0 0 1-1.048.638c.673 3.896.788 10.05-1.6 18.955l-3.14 11.717h-.108l-4.427-14.18c-.579-2.057-1.634-3.321-3.849-3.321-2.212 0-3.268 1.264-3.848 3.32l-4.426 14.18h-.105L7.378 18.013c-.422-1.792-1.74-3.005-3.584-3.005-2.216 0-3.796 1.37-3.796 3.057 0 1.108.265 2.056.79 3.585L7.22 39.835c.792 2.214 2.11 3.848 4.587 3.848 2.319 0 3.69-1.317 4.374-3.531l3.901-12.23h.107l3.9 12.23c.684 2.214 2.056 3.53 4.375 3.53 2.479 0 3.796-1.633 4.586-3.847 0 0 3.377-11.285 5.343-17.58 1.94-6.211 3.032-11.45 6.37-12.89" id="Fill-17" fill="#6D8F18" mask="url(#mask-6)"/></g><path d="M50.394 27.492a5.415 5.415 0 1 1-2.632-10.506c2.902-.727 11.455 2.713 11.455 2.713s-5.922 7.066-8.823 7.793" id="Fill-20" fill="#AFC90C"/><g id="Group-24" transform="translate(21 .144)"><mask id="mask-8" fill="#fff"><use xlink:href="#path-7"/></mask><path d="M14.574 8.15a6.459 6.459 0 0 1-1.269 9.049 6.463 6.463 0 0 1-9.052-1.262C2.103 13.089.077.856.077.856S12.425 5.301 14.574 8.15" id="Fill-22" fill="#AFC90C" mask="url(#mask-8)"/></g></g></g></g></g></svg>