<svg id="Layer_1" data-name="Layer 1" xmlns="http://www.w3.org/2000/svg" xmlns:xlink="http://www.w3.org/1999/xlink" viewBox="0 0 300 300"><defs><style>.cls-1{fill:none;}.cls-2{fill:#f76631;}.cls-3{fill:#fec4c9;}.cls-4{fill:#093447;}.cls-5{clip-path:url(#clip-path);}.cls-6{fill:#ffcc05;}.cls-7{fill:#ff7b57;}</style><clipPath id="clip-path"><path class="cls-1" d="M93.19,162.55c-16.42,0-29.72,19.07-29.72,42.59s13.3,42.6,29.72,42.6H206.81V162.55Z"/></clipPath></defs><title>1-empathy</title><path class="cls-2" d="M93.19,162.55c-16.42,0-29.72,19.07-29.72,42.59s13.3,42.6,29.72,42.6H206.81V162.55Z"/><ellipse class="cls-3" cx="206.81" cy="205.14" rx="29.72" ry="42.59"/><path class="cls-4" d="M149,201.27H94.17a8,8,0,0,1,0-15.92H149a8,8,0,0,1,0,15.92ZM94.17,188.66a4.66,4.66,0,1,0,0,9.31H149a4.66,4.66,0,0,0,0-9.31Z"/><g class="cls-5"><path class="cls-4" d="M162.47,247.74h-3.3c0-12.78-8.09-19.25-24-19.25H60.65v-3.31h74.49C157.73,225.18,162.47,237.45,162.47,247.74Z"/><path class="cls-4" d="M145.12,247.74h-3.31c0-1.7,0-6.22-17.67-6.22H68.93v-3.3h55.21C133.91,238.22,145.12,239.3,145.12,247.74Z"/></g><path class="cls-6" d="M95.31,162.55c0-53.4,38.27-95.31,38.27-95.31s9.34,75.88,35.11,75.88c8.9,0,12.8-21.59,12.8-21.59s21.91,21.49,17,41"/><path class="cls-7" d="M114.23,162.55c0-18.17,12.74-36.34,12.74-36.34s8.17,36.34,25.22,36.34"/><path class="cls-3" d="M173.87,81.13a9.88,9.88,0,0,1,9.61-2.41c6.61,1.8,9.67,9.93,5.26,15.13-4.57,5.37-15,17.79-15,17.79l-13.37-16c-4.13-4.87-4.55-9.91-.92-14s9.3-4.38,13.89-.86C173.44,80.88,173.59,81,173.87,81.13Z"/><path class="cls-3" d="M200.55,53.88a5.68,5.68,0,0,1,5.53-1.39c3.81,1,5.57,5.71,3,8.71s-8.65,10.24-8.65,10.24l-7.7-9.2c-2.38-2.81-2.62-5.71-.53-8.07s5.35-2.52,8-.49A3.32,3.32,0,0,0,200.55,53.88Z"/><path class="cls-2" d="M206.81,179.85c-9.39,0-17,11.35-17,25.3s7.63,25.28,17,25.28,17-11.34,17-25.28S216.19,179.85,206.81,179.85Z"/></svg>