<svg id="Layer_1" data-name="Layer 1" xmlns="http://www.w3.org/2000/svg" viewBox="0 0 300 300"><defs><style>.cls-1{fill:#093447;}.cls-2{fill:#11cc83;}.cls-3{fill:#00a343;}</style></defs><title>2-succeed</title><path class="cls-1" d="M172,88.49H169V73.34H147.07V88.49H144V71.8a1.54,1.54,0,0,1,1.55-1.54h25A1.54,1.54,0,0,1,172,71.8Z"/><path class="cls-1" d="M180.75,88.49h-3.08V73.34h-7V70.26h8.56a1.53,1.53,0,0,1,1.54,1.54Z"/><rect class="cls-1" x="152.11" y="78.92" width="3.08" height="5.2"/><rect class="cls-1" x="160.64" y="78.92" width="3.08" height="5.2"/><path class="cls-1" d="M160.42,72.65h-3V44a1.5,1.5,0,0,1,.67-1.25,1.52,1.52,0,0,1,1.42-.14l20.5,8.6a1.51,1.51,0,0,1,.92,1.44,1.5,1.5,0,0,1-1,1.37l-19.48,6.6Zm0-26.37V57.47l14.76-5Z"/><path class="cls-2" d="M263.32,257.48,185.91,89.92A5,5,0,0,0,181.33,87H140.72a5,5,0,0,0-4.61,3L61.42,257.48"/><polygon class="cls-3" points="186.96 257.48 122.03 121.68 63.27 257.48 186.96 257.48"/><path class="cls-2" d="M166.54,257.48c-1-3.46-48.17-101.12-61.47-128.65a3.82,3.82,0,0,0-6.89,0L36.68,257.48Z"/><path class="cls-3" d="M178.15,162.89l3.61-6.23,4,6.23h4.14l5.69-12.48,6.12,12.48H205l-8.16-16.61a1.48,1.48,0,0,0-2.68,0l-6.45,14.15L183,153a1.49,1.49,0,0,0-2.54.05l-5.67,9.77.12.07Z"/><path class="cls-3" d="M119.18,224.25l5.7-12.48L131,224.25h3.31l-8.15-16.61a1.49,1.49,0,0,0-2.69,0l-7.56,16.57Z"/></svg>