<svg xmlns="http://www.w3.org/2000/svg" viewBox="0 0 300 300"><defs><style>.cls-1{isolation:isolate;}.cls-2{fill:#3cb7f7;}.cls-3{opacity:0.2;mix-blend-mode:multiply;}.cls-4{fill:#007ae5;}.cls-5{fill:#0059dd;}.cls-6{fill:#093447;}</style></defs><title>3-trust</title><g class="cls-1"><g id="Layer_1" data-name="Layer 1"><polygon class="cls-2" points="125.62 95.66 97.18 151.76 150 95.66 125.62 95.66"/><polygon class="cls-2" points="150 95.66 202.82 151.76 174.38 95.66 150 95.66"/><g class="cls-3"><polygon class="cls-2" points="97.18 151.76 202.82 151.76 150 95.66 97.18 151.76"/></g><polygon class="cls-2" points="97.18 151.76 150 233.22 202.82 151.76 97.18 151.76"/><polygon class="cls-4" points="125.62 95.66 67.5 151.91 97.18 151.76 125.62 95.66"/><polygon class="cls-5" points="67.5 151.91 150 233.22 97.18 151.76 67.5 151.91"/><g class="cls-3"><polygon class="cls-2" points="174.38 95.66 232.5 151.91 202.82 151.76 174.38 95.66"/></g><polygon class="cls-4" points="232.5 151.91 150 233.22 202.82 151.76 232.5 151.91"/><rect class="cls-6" x="39.09" y="150.48" width="13.15" height="2.84"/><rect class="cls-6" x="148.58" y="66.78" width="2.84" height="12.09"/><rect class="cls-6" x="82.19" y="83.48" width="2.84" height="12.29" transform="translate(-38.79 83.17) rotate(-43.97)"/><rect class="cls-6" x="247.76" y="150.48" width="13.15" height="2.84"/><rect class="cls-6" x="210.25" y="88.2" width="12.29" height="2.84" transform="translate(1.65 183.13) rotate(-46.03)"/></g></g></svg>