<svg xmlns="http://www.w3.org/2000/svg" viewBox="0 0 300 300"><defs><style>.cls-1{isolation:isolate;}.cls-2{fill:#007ae5;}.cls-3{mix-blend-mode:multiply;}.cls-4{fill:#3cb7f7;}.cls-5{fill:#093447;}.cls-6{fill:none;}</style></defs><title>4-balance</title><g class="cls-1"><g id="Layer_1" data-name="Layer 1"><rect class="cls-2" x="126.06" y="28.65" width="32.58" height="32.58" transform="translate(73.47 -87.5) rotate(45)"/><circle class="cls-2" cx="147.2" cy="172.68" r="50.59"/><g class="cls-3"><path class="cls-4" d="M215.14,44.94a68.05,68.05,0,0,1-132,33.12"/></g><g class="cls-3"><polygon class="cls-4" points="153.65 213.62 113.35 278.1 191.64 278.1 153.65 213.62"/></g><path class="cls-5" d="M166.43,182a47.25,47.25,0,0,0,11.47,30.89c.82-.63,1.61-1.28,2.39-1.95a44.3,44.3,0,0,1,9.22-66c-.57-.86-1.15-1.71-1.77-2.53A47.44,47.44,0,0,0,166.43,182Z"/><path class="cls-5" d="M125.94,189.56A57.63,57.63,0,0,0,135.87,222c1.44.33,2.91.6,4.39.81a54.85,54.85,0,0,1,40.43-88c-1.11-1-2.26-1.91-3.45-2.79A58.05,58.05,0,0,0,125.94,189.56Z"/><circle class="cls-6" cx="147.2" cy="172.68" r="50.59"/><polygon class="cls-6" points="153.65 213.62 113.35 278.1 191.64 278.1 153.65 213.62"/><path class="cls-6" d="M215.14,44.94a68.05,68.05,0,0,1-132,33.12"/><path class="cls-5" d="M181.6,112.63a77.38,77.38,0,0,0,11.46-.86c1.46-1.25,2.87-2.55,4.21-3.92a73.66,73.66,0,0,1-81.09-38.08l-3.07.77A76.9,76.9,0,0,0,181.6,112.63Z"/><path class="cls-5" d="M135.93,242l-1.77,2.83a47,47,0,0,1,7.77,33.3h3.12a51.74,51.74,0,0,0,.45-6.63A50.14,50.14,0,0,0,135.93,242Z"/></g></g></svg>