<svg id="Layer_1" data-name="Layer 1" xmlns="http://www.w3.org/2000/svg" viewBox="0 0 300 300"><defs><style>.cls-1{fill:#69e1c6;}.cls-2{fill:#26d1c4;}.cls-3{fill:#093447;}.cls-4{fill:#fff;opacity:0.5;}</style></defs><title>5-learning</title><polygon class="cls-1" points="95.07 230.35 40.13 238.38 40.13 69.64 95.07 61.62 95.07 230.35"/><polygon class="cls-2" points="95.07 230.35 150 238.38 150 69.64 95.07 61.62 95.07 230.35"/><polygon class="cls-1" points="204.93 230.35 150 238.38 150 69.64 204.93 61.62 204.93 230.35"/><polygon class="cls-2" points="204.93 230.35 259.87 238.38 259.87 69.64 204.93 61.62 204.93 230.35"/><rect class="cls-3" x="228.1" y="145.41" width="12.9" height="2.47" transform="translate(-34.69 210.1) rotate(-45.28)"/><rect class="cls-3" x="233.17" y="140.19" width="2.47" height="12.9" transform="translate(-35.34 207.38) rotate(-44.72)"/><path class="cls-3" d="M68,156.78a5.79,5.79,0,1,1,4.87-2.65h0A5.79,5.79,0,0,1,68,156.78Zm0-9.1a3.31,3.31,0,0,0-2.79,1.51,3.25,3.25,0,0,0-.46,2.5,3.32,3.32,0,1,0,5-3.48A3.27,3.27,0,0,0,68,147.68Z"/><path class="cls-4" d="M106.36,185.61c-13.23,0-26-6.71-36.44-19.24l4.75-4c10.23,12.31,22.86,18.27,35.54,16.79,14.7-1.71,28.4-13.29,37.58-31.77,10.13-20.39,25.58-33.2,42.39-35.17,14.83-1.72,29.39,5,41,19l-4.74,3.95c-10.24-12.31-22.85-18.27-35.55-16.8-14.7,1.72-28.39,13.3-37.57,31.78-10.13,20.39-25.58,33.2-42.39,35.16A39,39,0,0,1,106.36,185.61Z"/><path class="cls-3" d="M229.38,165.23l-2.38-2c.5-.61,1-1.24,1.49-1.89l2.46,1.87C230.43,163.93,229.91,164.59,229.38,165.23Z"/><path class="cls-3" d="M193,182.76a38.83,38.83,0,0,1-5.21-.72l.63-3a35.94,35.94,0,0,0,4.8.66Zm10.5-.73-.64-3a34.79,34.79,0,0,0,4.66-1.33l1.05,2.91A39.46,39.46,0,0,1,203.52,182Zm-25.62-3.38a50.4,50.4,0,0,1-4.59-2.51l1.62-2.63c1.42.87,2.87,1.67,4.3,2.36Zm40-2.84-1.72-2.56a46.43,46.43,0,0,0,3.9-2.95l2,2.36A51.22,51.22,0,0,1,217.92,175.81ZM165,169.87c-1.26-1.13-2.5-2.35-3.7-3.62l2.24-2.12c1.14,1.21,2.33,2.37,3.53,3.45Zm-10.27-11.59c-1-1.38-2-2.81-2.89-4.27l2.61-1.66c.89,1.41,1.83,2.8,2.78,4.12Zm-8.08-13c-.9-1.41-1.83-2.8-2.78-4.12l2.5-1.8c1,1.36,2,2.8,2.89,4.27Zm-9.08-11.78c-1.15-1.21-2.33-2.38-3.53-3.46l2.07-2.29c1.25,1.14,2.5,2.36,3.7,3.63Zm-56.54-6.24-2-2.36a48.51,48.51,0,0,1,4.17-3.15L85,124.34A44.37,44.37,0,0,0,81.05,127.29Zm45.17-3.15a44.2,44.2,0,0,0-4.29-2.36l1.34-2.78a50.1,50.1,0,0,1,4.57,2.51Zm-32.61-4.22-1-2.9a37.91,37.91,0,0,1,5.07-1.44l.64,3A37,37,0,0,0,93.61,119.92Zm19.12-1.31a36.35,36.35,0,0,0-4.81-.67l.22-3.08a40.7,40.7,0,0,1,5.22.73Z"/><path class="cls-3" d="M72.62,136.24l-2.46-1.87c.52-.68,1-1.34,1.57-2l2.38,2C73.61,135,73.11,135.59,72.62,136.24Z"/><path class="cls-3" d="M150,227.14l-.18,0-54.75-8-42.41,6.19a1.24,1.24,0,0,1-1.42-1.22V80.32A1.23,1.23,0,0,1,52.3,79.1l42.59-6.22a1.09,1.09,0,0,1,.36,0l54.75,8,54.76-8a1,1,0,0,1,.35,0L247.7,79.1a1.23,1.23,0,0,1,1.06,1.22V224.1a1.24,1.24,0,0,1-1.41,1.22l-42.42-6.19-54.75,8Zm-54.93-10.5.18,0,54.75,8,54.76-8a1,1,0,0,1,.35,0l41.18,6V81.38l-41.36-6-54.75,8a1.09,1.09,0,0,1-.36,0l-54.75-8-41.36,6V222.67l41.18-6Z"/></svg>