<svg id="Layer_1" data-name="Layer 1" xmlns="http://www.w3.org/2000/svg" viewBox="0 0 300 300"><defs><style>.cls-1{fill:#fea02e;}.cls-2{fill:#ffcc05;}.cls-3{fill:#f76631;}.cls-4{fill:#00354d;}.cls-5{fill:#093447;}</style></defs><title>6-funtogether</title><circle class="cls-1" cx="207.708" cy="150" r="60.667"/><circle class="cls-2" cx="120.406" cy="150" r="60.667"/><path class="cls-3" d="M147.041,150a60.448,60.448,0,0,0,17.016,42.108,60.608,60.608,0,0,0,0-84.216A60.448,60.448,0,0,0,147.041,150"/><circle class="cls-4" cx="99.32" cy="132.243" r="2.663"/><circle class="cls-4" cx="142.231" cy="132.243" r="2.663"/><path class="cls-5" d="M120.776,179.594A29.626,29.626,0,0,1,91.183,150h2.959a26.635,26.635,0,0,0,53.269,0h2.959A29.626,29.626,0,0,1,120.776,179.594Z"/><circle class="cls-4" cx="186.252" cy="132.243" r="2.663"/><circle class="cls-4" cx="229.163" cy="132.243" r="2.663"/><path class="cls-5" d="M207.708,179.594A29.627,29.627,0,0,1,178.114,150h2.96a26.635,26.635,0,0,0,53.269,0H237.3A29.626,29.626,0,0,1,207.708,179.594Z"/><rect class="cls-3" x="118.927" y="61.218" width="2.959" height="14.797"/><rect class="cls-3" x="78.235" y="72.121" width="2.96" height="14.797" transform="translate(-29.08 50.512) rotate(-30)"/><rect class="cls-3" x="48.446" y="101.91" width="2.96" height="14.797" transform="translate(-69.701 97.891) rotate(-60)"/><rect class="cls-3" x="31.625" y="148.52" width="14.797" height="2.959"/><rect class="cls-3" x="42.528" y="189.212" width="14.797" height="2.96" transform="translate(-88.644 50.498) rotate(-29.995)"/><rect class="cls-3" x="72.317" y="218.999" width="14.797" height="2.96" transform="translate(-151.087 179.296) rotate(-60.005)"/><rect class="cls-3" x="118.927" y="223.985" width="2.959" height="14.797"/><rect class="cls-3" x="159.618" y="213.081" width="2.96" height="14.797" transform="translate(-88.657 110.089) rotate(-30)"/><rect class="cls-3" x="153.7" y="78.04" width="14.797" height="2.96" transform="matrix(0.5, -0.866, 0.866, 0.5, 11.692, 179.289)"/></svg>