<svg xmlns="http://www.w3.org/2000/svg" viewBox="0 0 53.05 53.05"><defs><style>.cls-1{fill:none;}.cls-2{fill:#0380d3;}.cls-3{fill:#61cae2;}</style></defs><title>flex-hours</title><g id="Layer_2" data-name="Layer 2"><g id="Layer_1-2" data-name="Layer 1"><g id="Frame_-_24px" data-name="Frame - 24px"><rect class="cls-1" width="53.05" height="53.05"/></g><g id="Filled_Icons" data-name="Filled Icons"><path class="cls-2" d="M22.11,39.79a17.62,17.62,0,0,1,22.11-17.1V11.05a4.43,4.43,0,0,0-4.42-4.42H35.37V0H30.95V6.63H13.26V0H8.84V6.63H4.42A4.43,4.43,0,0,0,0,11.05V39.79a4.43,4.43,0,0,0,4.42,4.42H22.68A17.66,17.66,0,0,1,22.11,39.79ZM4.42,11.05H39.79v6.63H4.42Z"/><path class="cls-3" d="M39.79,26.49A13.26,13.26,0,1,0,53.05,39.76,13.28,13.28,0,0,0,39.79,26.49ZM46.42,42H37.58V30.91H42v6.63h4.42Z"/></g></g></g></svg>