<svg xmlns="http://www.w3.org/2000/svg" viewBox="0 0 53.05 53.05"><defs><style>.cls-1{fill:none;}.cls-2{fill:#61cae2;}.cls-3{fill:#0380d3;}</style></defs><title>fun</title><g id="Layer_2" data-name="Layer 2"><g id="Layer_1-2" data-name="Layer 1"><g id="Frame_-_24px" data-name="Frame - 24px"><rect class="cls-1" width="53.05" height="53.05"/></g><g id="Filled_Icons" data-name="Filled Icons"><path class="cls-2" d="M33.16,13.26H28.74a8.85,8.85,0,0,1,8.84-8.84V8.84A4.43,4.43,0,0,0,33.16,13.26Z"/><path class="cls-2" d="M13.27,28.73v4.42a4.42,4.42,0,0,0-4.42,4.42H4.42A8.85,8.85,0,0,1,13.27,28.73Z"/><rect class="cls-2" x="18.79" y="4.28" width="4.42" height="9.11" transform="translate(-1.52 5.36) rotate(-14.05)"/><rect class="cls-2" x="6.63" y="16.44" width="4.42" height="9.11" transform="translate(-13.67 24.47) rotate(-75.94)"/><path class="cls-3" d="M38.85,23.52l9.6,22a2.21,2.21,0,0,1-2.91,2.91l-22-9.6a23.94,23.94,0,0,0,9.27-6.07A23.46,23.46,0,0,0,38.85,23.52Z"/><path class="cls-3" d="M35.91,17.14c3.22,3.22-.17,9.55-4.69,14.07C27.41,35,20.62,39.36,17.15,35.9c-3.22-3.22.17-9.55,4.69-14.07C25.53,18.14,32.4,13.64,35.91,17.14Z"/><rect class="cls-2" x="8.85" y="7.92" width="4.42" height="6.25" transform="translate(-4.57 11.05) rotate(-44.99)"/></g></g></g></svg>