<svg xmlns="http://www.w3.org/2000/svg" viewBox="0 0 53.05 53.06"><defs><style>.cls-1{fill:none;}.cls-2{fill:#0380d3;}.cls-3{fill:#61cae2;}</style></defs><title>gear</title><g id="Layer_2" data-name="Layer 2"><g id="Layer_1-2" data-name="Layer 1"><g id="Frame_-_24px" data-name="Frame - 24px"><rect class="cls-1" width="53.05" height="53.06"/></g><g id="Filled_Icons" data-name="Filled Icons"><path class="cls-2" d="M11.06,2.21H42a4.42,4.42,0,0,1,4.42,4.42V46.42A4.42,4.42,0,0,1,42,50.84H17.69A11.07,11.07,0,0,1,6.64,39.78V6.63A4.42,4.42,0,0,1,11.06,2.21ZM28.74,42h4.42v4.42h4.42V42H42V37.57H37.59V33.15H33.16v4.42H28.74ZM19.9,44.21A2.21,2.21,0,1,0,17.69,42,2.21,2.21,0,0,0,19.9,44.21Zm-4.42-4.42a2.21,2.21,0,1,0-2.21-2.21A2.21,2.21,0,0,0,15.48,39.78ZM13.27,26.52a2.21,2.21,0,0,0,2.21,2.21H37.59a2.21,2.21,0,0,0,2.21-2.21V11a2.21,2.21,0,0,0-2.21-2.21H15.48A2.21,2.21,0,0,0,13.27,11Z"/><polygon class="cls-3" points="28.74 41.99 33.16 41.99 33.16 46.42 37.59 46.42 37.59 41.99 42.01 41.99 42.01 37.57 37.59 37.57 37.59 33.15 33.16 33.15 33.16 37.57 28.74 37.57 28.74 41.99"/><circle class="cls-3" cx="19.9" cy="42" r="2.21"/></g></g></g></svg>