<svg xmlns="http://www.w3.org/2000/svg" viewBox="0 0 53.05 53.05"><defs><style>.cls-1{fill:none;}.cls-2{fill:#61cae2;}.cls-3{fill:#0380d3;}</style></defs><title>getaway</title><g id="Layer_2" data-name="Layer 2"><g id="Layer_1-2" data-name="Layer 1"><g id="Frame_-_24px" data-name="Frame - 24px"><rect class="cls-1" width="53.05" height="53.05"/></g><g id="Filled_Icons" data-name="Filled Icons"><path class="cls-2" d="M25.37,19.95,19.57,50.84H32.84L32,46.42h-5.8V44.21h5.39l-.83-4.42H26.21V37.58h4.14l-.83-4.42H26.21V30.94h2.9L27,19.93"/><path class="cls-3" d="M27,19.93a15.48,15.48,0,0,1,14.8,15.44h4.42A19.93,19.93,0,0,0,30.45,15.9a15.43,15.43,0,0,1,19-2.77L51.63,9.3a19.92,19.92,0,0,0-25.26,4.56A19.91,19.91,0,0,0,1.1,9.3l2.21,3.83a15.44,15.44,0,0,1,19,2.77A19.93,19.93,0,0,0,6.47,35.37h4.42A15.48,15.48,0,0,1,25.37,19.95"/></g></g></g></svg>