<svg xmlns="http://www.w3.org/2000/svg" viewBox="0 0 53.05 53.05"><defs><style>.cls-1{fill:none;}.cls-2{fill:#61cae2;}.cls-3{fill:#0380d3;}</style></defs><title>growth</title><g id="Layer_2" data-name="Layer 2"><g id="Layer_1-2" data-name="Layer 1"><g id="Frame_-_24px" data-name="Frame - 24px"><rect class="cls-1" width="53.05" height="53.05"/></g><g id="Filled_Icons" data-name="Filled Icons"><path class="cls-2" d="M32.94,23.65a5.35,5.35,0,0,1,.53-7.55c2.23-1.94,11.59-3,11.59-3s-1.88,8.71-4.57,11.05A5.35,5.35,0,0,1,32.94,23.65Z"/><path class="cls-2" d="M24.32,26.68a5.66,5.66,0,0,0-.63-2.37,7.77,7.77,0,0,1-9.79-1.1c-3-3.07-5.28-16.57-5.28-16.57s12.8,2,16.42,5.72a7.76,7.76,0,0,1,1.64,8.3,11,11,0,0,1,2.07,6v6.48H24.32Z"/><path class="cls-3" d="M14,35.37H39.07a2.21,2.21,0,0,1,2.12,2.82L38,49.24a2.21,2.21,0,0,1-2.12,1.6H17.14A2.21,2.21,0,0,1,15,49.24L11.86,38.19A2.21,2.21,0,0,1,14,35.37Z"/></g></g></g></svg>