<svg xmlns="http://www.w3.org/2000/svg" viewBox="0 0 53.05 53.05"><defs><style>.cls-1{fill:none;}.cls-2{fill:#0380d3;}.cls-3{fill:#61cae2;}</style></defs><title>health</title><g id="Layer_2" data-name="Layer 2"><g id="Layer_1-2" data-name="Layer 1"><g id="Frame_-_24px" data-name="Frame - 24px"><rect class="cls-1" width="53.05" height="53.05"/></g><g id="Filled_Icons" data-name="Filled Icons"><path class="cls-2" d="M7.93,28.73,30,6.63a12,12,0,0,1,16.39,0,11.6,11.6,0,0,1,3.24,8.19A11.61,11.61,0,0,1,46.42,23L24.32,45.12a11.6,11.6,0,0,1-8.19,3.24,11.61,11.61,0,0,1-8.19-3.24,12,12,0,0,1,0-16.39Zm28.9-17.22a1.66,1.66,0,1,0,0,2.34A1.66,1.66,0,0,0,36.83,11.51Zm5.48-.77a1.66,1.66,0,1,0,0,2.35A1.66,1.66,0,0,0,42.32,10.73Zm-.79,7.81a1.66,1.66,0,1,0-2.35,0A1.65,1.65,0,0,0,41.52,18.54ZM18.86,38.86a1.66,1.66,0,1,0,0-2.35A1.66,1.66,0,0,0,18.86,38.86Zm9.42-3L39.33,24.77,28.28,13.72,17.23,24.77Zm-11.76-4a1.66,1.66,0,1,0,0,2.34A1.66,1.66,0,0,0,16.51,31.83ZM13.4,39.65a1.66,1.66,0,1,0,0-2.35A1.65,1.65,0,0,0,13.4,39.65Z"/><rect class="cls-3" x="20.46" y="16.96" width="15.63" height="15.63" transform="translate(-9.23 27.25) rotate(-45)"/></g></g></g></svg>