<svg xmlns="http://www.w3.org/2000/svg" viewBox="0 0 53.05 53.05"><defs><style>.cls-1{fill:none;}.cls-2{fill:#0380d3;}.cls-3{fill:#61cae2;}</style></defs><title>snacks</title><g id="Layer_2" data-name="Layer 2"><g id="Layer_1-2" data-name="Layer 1"><g id="Frame_-_24px" data-name="Frame - 24px"><rect class="cls-1" width="53.05" height="53.05"/></g><g id="Filled_Icons" data-name="Filled Icons"><polygon class="cls-2" points="14.86 5.29 18.92 3.55 22.64 12.24 19.28 15.61 14.86 5.29"/><rect class="cls-2" x="11.04" y="7.38" width="4.42" height="11.81" transform="translate(-5.51 13.26) rotate(-45)"/><polygon class="cls-2" points="5.25 14.89 15.57 19.32 12.2 22.68 3.51 18.96 5.25 14.89"/><path class="cls-3" d="M22.07,15.85c2.87-2.87,7,.84,7.71,1.47l-6.25,6.25,2.35,2.35,6-6a125.86,125.86,0,0,1,8.62,11.93l-4.38,4.38,2.34,2.35,3.76-3.76c2.17,4,3.29,7.63,1.7,9.22-2.47,2.47-9.72-1.57-16-5.95l4.2-4.2L29.78,31.5l-4.59,4.59c-4.41-3.25-7.81-6.16-7.81-6.16s-4.69-4.69-1.56-7.82Z"/></g></g></g></svg>