<svg xmlns="http://www.w3.org/2000/svg" viewBox="0 0 51.94 51.94"><defs><style>.cls-1{fill:none;}.cls-2{fill:#61cae2;}.cls-3{fill:#0380d3;}</style></defs><title>team-events</title><g id="Layer_2" data-name="Layer 2"><g id="Layer_1-2" data-name="Layer 1"><g id="Frame_-_24px" data-name="Frame - 24px"><rect class="cls-1" width="51.94" height="51.94"/></g><g id="Filled_Icons" data-name="Filled Icons"><path class="cls-2" d="M17.31,10.82a4.33,4.33,0,1,0-8.66,0v6.49h8.66Z"/><path class="cls-2" d="M17.31,19.47H8.65c0,6.49-4.33,8.66-4.33,17.31s4.33,15.15,6.49,15.15h4.33c1.13,0,2.86-1.8,4.25-4.74a17.32,17.32,0,0,1,.89-17.94C19,25.91,17.31,23.54,17.31,19.47Z"/><path class="cls-3" d="M34.62,26a13,13,0,1,0,13,13A13,13,0,0,0,34.62,26Zm-4.33,8.66a2.16,2.16,0,1,1,2.16-2.16A2.16,2.16,0,0,1,30.29,34.62Zm4.33,6.49a2.16,2.16,0,1,1,2.16-2.16A2.16,2.16,0,0,1,34.62,41.11Zm4.33-6.49a2.16,2.16,0,1,1,2.16-2.16A2.16,2.16,0,0,1,38.95,34.62Z"/></g></g></g></svg>