<svg xmlns="http://www.w3.org/2000/svg" viewBox="0 0 53.05 53.05"><defs><style>.cls-1{fill:none;}.cls-2{fill:#0380d3;}.cls-3{fill:#61cae2;}</style></defs><title>tech</title><g id="Layer_2" data-name="Layer 2"><g id="Layer_1-2" data-name="Layer 1"><g id="Frame_-_24px" data-name="Frame - 24px"><rect class="cls-1" width="53.05" height="53.05"/></g><g id="Filled_Icons" data-name="Filled Icons"><path class="cls-2" d="M8.84,4.42H44.21a4.42,4.42,0,0,1,4.42,4.42V44.21a4.42,4.42,0,0,1-4.42,4.42H8.84a4.42,4.42,0,0,1-4.42-4.42V8.84A4.42,4.42,0,0,1,8.84,4.42ZM26.53,44.21A17.68,17.68,0,1,0,8.84,26.53,17.68,17.68,0,0,0,26.53,44.21Z"/><path class="cls-3" d="M26.53,39.79A13.28,13.28,0,0,0,39.79,26.53H35.37a8.85,8.85,0,0,1-8.84,8.84Z"/><path class="cls-3" d="M13.26,26.53h4.42a8.85,8.85,0,0,1,8.84-8.84V13.26A13.28,13.28,0,0,0,13.26,26.53Z"/><circle class="cls-3" cx="26.53" cy="26.53" r="4.42"/></g></g></g></svg>