<svg xmlns="http://www.w3.org/2000/svg" viewBox="0 0 53.05 53.05"><defs><style>.cls-1{fill:none;}.cls-2{fill:#0380d3;}.cls-3{fill:#61cae2;}</style></defs><title>wellness</title><g id="Layer_2" data-name="Layer 2"><g id="Layer_1-2" data-name="Layer 1"><g id="Frame_-_24px" data-name="Frame - 24px"><rect class="cls-1" width="53.05" height="53.05"/></g><g id="Filled_Icons" data-name="Filled Icons"><rect class="cls-2" x="7.55" y="41.93" width="4.42" height="4.42" transform="translate(-28.35 19.83) rotate(-45)"/><path class="cls-3" d="M11.32,33.2a2.21,2.21,0,1,0-3.13,3.13l9.38,9.38a2.21,2.21,0,1,0,3.13-3.13Z"/><rect class="cls-2" x="41.93" y="7.54" width="4.42" height="4.42" transform="translate(6.03 34.07) rotate(-45)"/><path class="cls-3" d="M36.33,8.19a2.21,2.21,0,0,0-3.13,3.13l9.38,9.38a2.21,2.21,0,0,0,3.13-3.13Z"/><path class="cls-2" d="M30.08,11.32a2.21,2.21,0,0,0-3.13,0l-1.56,1.56a2.21,2.21,0,0,0,0,3.13l4.69,4.69L20.7,30.07,16,25.38a2.21,2.21,0,0,0-3.13,0l-1.56,1.56a2.21,2.21,0,0,0,0,3.13l12.5,12.5a2.21,2.21,0,0,0,3.13,0L28.51,41a2.21,2.21,0,0,0,0-3.13L23.82,33.2l9.38-9.38,4.69,4.69a2.21,2.21,0,0,0,3.13,0l1.56-1.56a2.21,2.21,0,0,0,0-3.13Z"/></g></g></g></svg>