<?xml version="1.0" encoding="utf-8"?>
<!-- Generator: Adobe Illustrator 22.1.0, SVG Export Plug-In . SVG Version: 6.00 Build 0)  -->
<svg version="1.1" id="Layer_1" xmlns="http://www.w3.org/2000/svg" xmlns:xlink="http://www.w3.org/1999/xlink" x="0px" y="0px"
	 viewBox="0 0 118.5 34.3" style="enable-background:new 0 0 118.5 34.3;" xml:space="preserve">
<title>AvayaLogoWhite</title>
<path id="LetterA" d="M0,25.2L11.9,0h3.5l11.9,25.2h-4.9L13.7,6.3L8.5,17.9h8l1.8,3.5H6.7l-1.8,3.8H0z"/>
<path id="LetterV" d="M22.8,0l11.9,25.2h3.5L50.1,0h-4.9l-8.7,19.3L27.7,0H22.8z"/>
<path id="LetterA-2" d="M45.2,25.2L57.1,0h3.5l11.9,25.2h-4.9L58.9,6.3l-5.3,11.6h8.1l1.8,3.5H51.9l-1.8,3.8H45.2z"/>
<path id="LetterY" d="M68.7,0l10.5,24.9l-4.6,9.5h4.9L96,0h-5.3l-9.1,19.6L74,0L68.7,0z"/>
<path id="LetterA-3" d="M91.1,25.2L103.1,0h3.5l11.9,25.2h-4.9l-8.8-18.9l-5.3,11.6h8.1l1.8,3.5H97.8L96,25.2H91.1z"/>
</svg>
