<?xml version="1.0" encoding="utf-8"?>
<!-- Generator: Adobe Illustrator 22.1.0, SVG Export Plug-In . SVG Version: 6.00 Build 0)  -->
<svg version="1.1" id="Laag_1" xmlns="http://www.w3.org/2000/svg" xmlns:xlink="http://www.w3.org/1999/xlink" x="0px" y="0px"
	 viewBox="0 0 512.619 103.978" style="enable-background:new 0 0 512.619 103.978;" xml:space="preserve">
<style type="text/css">
	.st0{fill:#FFFFFF;}
</style>
<path d="M6.379,0.203c2.139,0,4.278,0,6.857,0c0,5.55,0,10.95,0,16.351c0,5.418,0,10.837,0,16.764
	c-0.027,0.509,0.599-0.445,0.599-0.445c7.005-14.62,31.949-15.891,41.554-1.144c7.875,12.091,7.093,32.964-1.921,43.543
	c-7.802,9.155-24.318,11.205-33.746,3.917c-2.601-2.011-4.525-4.898-6.852-7.485c0,3.138,0,6.484,0,10.191c-2.419,0-4.454,0-6.49,0
	C6.379,54.664,6.379,27.434,6.379,0.203z M13.115,51.989c0.597,4.009,0.392,6.85,1.204,10.098
	c2.427,9.714,9.712,15.685,18.946,15.833c8.992,0.144,16.104-5.45,18.903-15.154c2.202-7.634,2.103-15.317-0.642-22.814
	c-3.057-8.35-9.846-13.126-18.187-13.083c-8.448,0.043-15.238,4.754-18.111,13.138C13.914,43.845,13.393,48.379,13.115,51.989z"/>
<path d="M143.287,81.681c-2.585,0-4.7,0-6.942,0c0-19.498,0-38.858,0-58.688c1.733,0,3.511-0.12,5.253,0.081
	c0.455,0.052,1.102,1.085,1.135,1.695c0.13,2.446,0.054,4.903,0.366,7.621c4.55-6.619,10.357-10.963,18.514-11.122
	c8.186-0.16,14.621,2.754,17.823,11.226c0.781-1.095,1.334-1.891,1.909-2.67c7.117-9.657,23.195-11.559,31.45-3.769
	c3.743,3.533,5.167,8.026,5.208,12.931c0.114,13.695,0.042,27.391,0.031,41.086c0,0.481-0.124,0.962-0.21,1.588
	c-2.248,0-4.417,0-6.85,0c0-0.999,0-1.884,0-2.768c0-11.963,0.006-23.926-0.008-35.889c-0.002-1.482,0.001-2.979-0.191-4.444
	c-1.472-11.2-12.369-12.671-20.192-9.875c-6.287,2.247-9.95,8.431-9.989,16.696c-0.052,11.055-0.014,22.111-0.014,33.166
	c0,0.976,0,1.952,0,3.098c-2.301,0-4.389,0-6.782,0c0-1.045,0-2.008,0-2.972c0-11.468,0.019-22.936-0.018-34.404
	c-0.006-1.971-0.168-3.951-0.4-5.91c-0.96-8.094-6.463-11.548-14.32-10.73c-9.575,0.997-15.334,7.465-15.592,17.551
	c-0.284,11.13-0.14,22.272-0.182,33.408C143.283,79.56,143.287,80.532,143.287,81.681z"/>
<path d="M78.428,72.32c0,1.473,0,2.945,0,4.418c0,8.245-0.037,16.491,0.029,24.736c0.014,1.727-0.346,2.557-2.31,2.502
	c-5.501-0.154-4.655,0.49-4.661-4.56c-0.028-24.324-0.013-48.647-0.013-72.971c0-1.053,0-2.105,0-3.315c2.257,0,4.186,0,6.443,0
	c0,3.372,0,6.62,0,9.869c0.169,0.044,0.338,0.089,0.507,0.133c0.273-0.345,0.605-0.659,0.811-1.04
	c7.984-14.779,30.756-14.022,40.007-1.455c3.463,4.704,5.458,9.96,6.099,15.693c1.097,9.814,0.139,19.228-5.823,27.603
	c-9.349,13.133-32.214,13.141-39.833-0.843c-0.183-0.335-0.457-0.62-0.689-0.929C78.805,72.214,78.617,72.267,78.428,72.32z
	 M118.512,52.498c0.204-0.045-0.132-2.469,0.072-2.515c-0.732-4.389-0.849-6.237-2.308-10.269
	c-2.834-7.831-8.647-12.385-17.089-12.766c-7.812-0.352-14.157,2.772-17.597,9.974c-4.925,10.313-5.103,20.977,0.243,31.143
	c6.382,12.135,23.482,13.155,31.699,2.156C117.443,64.989,118.636,58.907,118.512,52.498z"/>
<path d="M513.69,54.15c-15.574,0-30.555,0-45.524,0c-0.664,13.548,7.589,26.832,24.684,23.37c5.594-1.133,9.304-4.723,11.61-9.818
	c0.707-1.563,1.191-3.226,1.805-4.92c2.106,0,4.225,0,6.355,0c-0.844,9.137-7.834,17.684-17.055,20.019
	c-17.876,4.525-33.266-6.546-34.562-24.948c-0.552-7.828,0.111-15.435,3.811-22.591c8.49-16.42,28.772-17.362,38.983-8.348
	c5.951,5.254,8.536,12.162,9.451,19.819C513.525,49.071,513.536,51.442,513.69,54.15z M468.269,48.048c12.81,0,25.439,0,38.056,0
	c0.414-11.705-8.017-21.103-18.852-21.056C477.104,27.036,469.23,34.132,468.269,48.048z"/>
<path d="M292.16,51.65c-0.166,9.938-1.932,18.246-8.555,24.616c-8.054,7.746-17.881,8.715-28.103,5.958
	c-10.246-2.763-15.797-10.278-18.117-20.285c-1.804-7.78-1.529-15.553,1.187-23.128c4.695-13.096,16.225-18.759,28.616-17.503
	c13.843,1.403,22.684,10.443,24.407,24.318C291.887,47.991,292.042,50.374,292.16,51.65z M243.509,52.472
	c-0.225,0.057,0.166,2.853-0.059,2.91c0.572,4.821,1.038,6.345,2.761,10.517c3.188,7.72,9.374,11.61,17.8,11.776
	c8.452,0.167,14.748-3.513,18.175-11.164c4.25-9.489,4.163-19.23-0.306-28.666c-3.434-7.25-9.632-10.775-17.491-10.806
	c-7.86-0.031-13.913,3.548-17.632,10.642C244.332,42.306,243.453,47.292,243.509,52.472z"/>
<path d="M302.676,23.136c2.061,0,4.003,0,6.324,0c0,3.233,0,6.469,0,9.705c0.206,0.062,0.413,0.123,0.619,0.185
	c0.453-0.605,0.954-1.179,1.352-1.818c7.102-11.416,21.363-11.741,30.043-7.592c6.004,2.87,9.058,8.2,9.217,14.519
	c0.362,14.419,0.114,28.852,0.114,43.483c-2.191,0-4.281,0-6.669,0c-0.046-0.914-0.135-1.867-0.136-2.82
	c-0.01-11.384,0.021-22.768-0.032-34.152c-0.01-2.05-0.174-4.133-0.57-6.141c-1.784-9.048-8.747-11.96-17.114-10.946
	c-9.558,1.158-15.645,8.071-15.981,18.368c-0.355,10.877-0.158,21.773-0.201,32.66c-0.004,0.973,0,1.947,0,3.074
	c-2.471,0-4.642,0-6.965,0C302.676,62.14,302.676,42.722,302.676,23.136z"/>
<path d="M451.345,81.684c-2.366,0-4.481,0-6.869,0c-0.064-1.035-0.179-2.069-0.183-3.104c-0.049-12.292,0.119-24.589-0.177-36.874
	c-0.283-11.726-8.375-15.233-17.412-14.15c-9.175,1.1-15.298,7.539-15.826,17.134c-0.566,10.28-0.359,20.603-0.481,30.908
	c-0.023,1.962-0.003,3.924-0.003,6.052c-2.362,0-4.459,0-6.756,0c0-19.464,0-38.879,0-58.489c1.999,0,3.926,0,6.207,0
	c0,3.274,0,6.507,0,9.74c0.218,0.076,0.436,0.152,0.654,0.227c0.481-0.686,0.997-1.349,1.436-2.06
	c7.296-11.793,22.932-11.562,30.966-6.897c5.847,3.395,8.255,9.005,8.368,15.375C451.516,53.483,451.345,67.428,451.345,81.684z"/>
<path d="M363.563,0.354c2.305,0,4.332,0,6.499,0c0,27.155,0,54.149,0,81.304c-2.184,0-4.271,0-6.499,0
	C363.563,54.543,363.563,27.55,363.563,0.354z"/>
<path d="M383.41,23.133c2.302,0,4.49,0,6.866,0c0,19.462,0,38.885,0,58.498c-2.226,0-4.474,0-6.866,0
	C383.41,62.141,383.41,42.72,383.41,23.133z"/>
<path d="M228.268,38.659c-3.327-5.758-6.426-11.121-9.706-16.797c6.603,0,12.73,0,19.372,0
	C234.669,27.536,231.583,32.898,228.268,38.659z"/>
<path d="M390.284,11.348c-2.378,0-4.565,0-6.882,0c0-3.791,0-7.46,0-11.348c2.213,0,4.457,0,6.882,0
	C390.284,3.69,390.284,7.418,390.284,11.348z"/>
<path class="st0" d="M468.269,48.048c0.961-13.917,8.835-21.012,19.205-21.056c10.834-0.046,19.266,9.351,18.852,21.056
	C493.708,48.048,481.079,48.048,468.269,48.048z"/>
</svg>
