<?xml version="1.0" encoding="utf-8"?>
<!-- Generator: Adobe Illustrator 22.1.0, SVG Export Plug-In . SVG Version: 6.00 Build 0)  -->
<svg version="1.1" id="layer" xmlns="http://www.w3.org/2000/svg" xmlns:xlink="http://www.w3.org/1999/xlink" x="0px" y="0px"
	 viewBox="0 0 652 652" style="enable-background:new 0 0 652 652;" xml:space="preserve">
<style type="text/css">
	.st0{fill:#282F39;}
	.st1{clip-path:url(#SVGID_2_);fill:url(#SVGID_3_);}
	.st2{clip-path:url(#SVGID_5_);fill:url(#SVGID_6_);}
	.st3{clip-path:url(#SVGID_8_);fill:url(#SVGID_9_);}
	.st4{clip-path:url(#SVGID_11_);fill:url(#SVGID_12_);}
</style>
<path class="st0" d="M193.9,295.3c0-3.2,2.4-5.6,5.6-5.6c3.2,0,5.7,2.4,5.7,5.6v21.9c3.6-5.1,8.7-9.2,16.8-9.2
	c11.5,0,22.8,9.1,22.8,25.5v0.2c0,16.3-11.2,25.5-22.8,25.5c-8.2,0-13.3-4.1-16.8-8.7v2.5c0,3.1-2.5,5.6-5.7,5.6
	c-3.1,0-5.6-2.5-5.6-5.6V295.3z M233.3,333.7v-0.2c0-9.5-6.4-15.8-14.1-15.8c-7.6,0-14.4,6.3-14.4,15.8v0.2
	c0,9.4,6.7,15.7,14.4,15.7C226.9,349.4,233.3,343.4,233.3,333.7"/>
<path class="st0" d="M256.4,314.1c0-3.2,2.4-5.7,5.6-5.7c3.2,0,5.7,2.5,5.7,5.7v5c2.6-6.2,7.4-10.8,12.4-10.8c3.5,0,5.6,2.3,5.6,5.6
	c0,3-2,4.9-4.5,5.4c-8,1.4-13.5,7.5-13.5,19.2v14.5c0,3.1-2.5,5.6-5.7,5.6c-3.1,0-5.6-2.4-5.6-5.6V314.1z"/>
<path class="st0" d="M290.5,333.9v-0.2c0-14.1,11.2-25.7,26.3-25.7c15.1,0,26.2,11.5,26.2,25.5v0.2c0,14-11.2,25.6-26.4,25.6
	C301.6,359.3,290.5,347.9,290.5,333.9 M331.7,333.9v-0.2c0-8.7-6.2-15.8-15.1-15.8c-9,0-14.8,7.1-14.8,15.7v0.2
	c0,8.6,6.2,15.8,15,15.8C325.9,349.5,331.7,342.4,331.7,333.9"/>
<path class="st0" d="M351.2,344v-0.2c0-10.6,8.3-15.8,20.3-15.8c5.5,0,9.4,0.8,13.2,2v-1.2c0-7-4.3-10.7-12.2-10.7
	c-4.3,0-7.8,0.7-10.9,2c-0.6,0.2-1.2,0.3-1.8,0.3c-2.6,0-4.7-2.1-4.7-4.7c0-2.1,1.4-3.8,3.1-4.5c4.7-1.8,9.4-2.9,15.8-2.9
	c7.4,0,12.9,2,16.3,5.5c3.6,3.6,5.3,8.8,5.3,15.2v24.2c0,3.1-2.4,5.4-5.5,5.4c-3.3,0-5.5-2.2-5.5-4.8v-1.8c-3.3,4-8.5,7.2-16,7.2
	C359.4,359.2,351.2,353.9,351.2,344 M384.9,340.5v-3.3c-2.9-1.1-6.7-2-11.2-2c-7.3,0-11.6,3.1-11.6,8.2v0.2c0,4.7,4.2,7.4,9.6,7.4
	C379.3,351,384.9,346.8,384.9,340.5"/>
<path class="st0" d="M457.5,353.1c0,3.2-2.5,5.6-5.6,5.6c-3.2,0-5.7-2.4-5.7-5.6V350c-3.6,5.1-8.8,9.2-16.8,9.2
	c-11.5,0-22.8-9.2-22.8-25.5v-0.2c0-16.3,11.1-25.5,22.8-25.5c8.1,0,13.2,4,16.8,8.7v-21.3c0-3.2,2.5-5.6,5.6-5.6
	c3.2,0,5.7,2.4,5.7,5.6V353.1z M418,333.5v0.2c0,9.5,6.5,15.8,14.2,15.8c7.6,0,14.3-6.3,14.3-15.8v-0.2c0-9.5-6.7-15.7-14.3-15.7
	C424.5,317.8,418,323.7,418,333.5"/>
<path class="st0" d="M470,353.1c-0.7-0.5-1.3-1.4-1.3-2.6c0-1.7,1.4-3.1,3.2-3.1c0.7,0,1.3,0.2,1.8,0.6c4.9,3.4,10.1,5.1,15.3,5.1
	c5.8,0,10-3,10-7.6v-0.2c0-4.8-5.7-6.7-12-8.5c-7.5-2.2-15.9-4.8-15.9-13.6V323c0-8.3,6.9-13.8,16.4-13.8c5.1,0,10.7,1.6,15.4,4.1
	c0.9,0.6,1.8,1.6,1.8,3c0,1.7-1.4,3.1-3.2,3.1c-0.7,0-1.2-0.2-1.6-0.4c-4.1-2.3-8.5-3.7-12.6-3.7c-5.7,0-9.3,3-9.3,7v0.2
	c0,4.6,6,6.3,12.4,8.3c7.5,2.2,15.5,5.1,15.5,13.8v0.2c0,9.1-7.6,14.4-17.2,14.4C482.3,359.1,475.2,356.8,470,353.1"/>
<path class="st0" d="M516.1,334.4v-0.2c0-13.6,10.6-25.2,25.2-25.2c14.4,0,25.1,11.4,25.1,25v0.2c0,13.6-10.7,25.2-25.3,25.2
	C526.6,359.3,516.1,348,516.1,334.4 M559,334.4v-0.2c0-10.3-7.7-18.8-17.9-18.8c-10.4,0-17.6,8.5-17.6,18.6v0.2
	c0,10.4,7.6,18.7,17.8,18.7C551.7,352.9,559,344.5,559,334.4"/>
<path class="st0" d="M582,316.4h-3.9c-1.8,0-3.1-1.4-3.1-3.2c0-1.7,1.4-3.1,3.1-3.1h3.9v-4.2c0-5.5,1.5-9.7,4.2-12.4
	c2.4-2.4,6-3.7,10.3-3.7c2.3,0,4.1,0.2,5.7,0.6c1.4,0.3,2.6,1.5,2.6,3.1c0,1.9-1.6,3.3-3.4,3.1c-1.2-0.2-2.5-0.5-3.9-0.5
	c-5.6,0-8.4,3.3-8.4,10.3v3.9h12.5c1.8,0,3.2,1.3,3.2,3.1c0,1.7-1.4,3.1-3.2,3.1h-12.4V355c0,2-1.5,3.6-3.6,3.6
	c-2,0-3.6-1.7-3.6-3.6V316.4z"/>
<path class="st0" d="M616,345.4v-29.1h-3.9c-1.7,0-3.2-1.5-3.2-3.2c0-1.8,1.5-3.2,3.2-3.2h3.9v-11.4c0-2,1.5-3.6,3.5-3.6
	c2,0,3.6,1.7,3.6,3.6V310h12.5c1.8,0,3.3,1.5,3.3,3.2c0,1.8-1.5,3.2-3.3,3.2h-12.5v28.2c0,5.9,3.3,8,8.1,8c2.5,0,3.8-0.6,4.4-0.6
	c1.7,0,3.1,1.4,3.1,3.1c0,1.3-0.9,2.3-2.1,2.8c-2.1,0.9-4.3,1.3-7.1,1.3C621.9,359.1,616,355.2,616,345.4"/>
<g>
	<defs>
		<path id="SVGID_1_" d="M129.7,259.8H46.6c-17.3,0-31.3,14-31.3,31.3c0,17.3,14,31.3,31.3,31.3h29.7l27.6-47.1
			c5.7-9.7,15.8-15.2,26.3-15.5H129.7z"/>
	</defs>
	<clipPath id="SVGID_2_">
		<use xlink:href="#SVGID_1_"  style="overflow:visible;"/>
	</clipPath>
	
		<linearGradient id="SVGID_3_" gradientUnits="userSpaceOnUse" x1="-431.2095" y1="710.1658" x2="-416.6464" y2="710.1658" gradientTransform="matrix(-0.9632 3.6602 -3.6602 -0.9632 2259.0137 2545.0364)">
		<stop  offset="0" style="stop-color:#F99B1C"/>
		<stop  offset="0.3936" style="stop-color:#F6811E"/>
		<stop  offset="1" style="stop-color:#F15D22"/>
	</linearGradient>
	<polygon class="st1" points="22.7,231.6 -0.1,318.4 122.8,350.7 145.6,263.9 	"/>
</g>
<g>
	<defs>
		<path id="SVGID_4_" d="M130.6,259.8c-10.6,0.1-20.9,5.6-26.7,15.5l-15.1,25.8l26.9,45.8c8.7,14.9,3.7,34.1-11.2,42.8
			c-4.7,2.7-9.7,4.1-14.8,4.3c10.4-0.3,20.5-5.8,26.2-15.5l42-71.7c8.8-14.9,3.8-34.1-11.2-42.8c-4.9-2.9-10.2-4.3-15.4-4.3H130.6z"
			/>
	</defs>
	<clipPath id="SVGID_5_">
		<use xlink:href="#SVGID_4_"  style="overflow:visible;"/>
	</clipPath>
	
		<linearGradient id="SVGID_6_" gradientUnits="userSpaceOnUse" x1="-353.5743" y1="880.6062" x2="-339.0112" y2="880.6062" gradientTransform="matrix(-3.4194 -2.8896 2.8896 -3.4194 -3622.0234 2319.7439)">
		<stop  offset="0" style="stop-color:#37B555"/>
		<stop  offset="0.3615" style="stop-color:#2F9D4C"/>
		<stop  offset="1" style="stop-color:#21773D"/>
	</linearGradient>
	<polygon class="st2" points="232.9,315.8 121.2,221.4 22.6,338.2 134.2,432.5 	"/>
</g>
<g>
	<defs>
		<path id="SVGID_7_" d="M61.6,378.7c5.8,9.9,16.2,15.4,26.9,15.5h0.3c5.3,0,10.7-1.4,15.7-4.3c9.7-5.7,15.2-15.8,15.5-26.3v-1.5
			c-0.1-5.1-1.5-10.3-4.3-15.1l-14.4-24.6H46.6c-11.3,0-21.2-6-26.7-15L61.6,378.7z"/>
	</defs>
	<clipPath id="SVGID_8_">
		<use xlink:href="#SVGID_7_"  style="overflow:visible;"/>
	</clipPath>
	
		<linearGradient id="SVGID_9_" gradientUnits="userSpaceOnUse" x1="-248.5674" y1="711.8445" x2="-234.0043" y2="711.8445" gradientTransform="matrix(4.2381 0.1926 -0.1926 4.2381 1262.7194 -2618.1362)">
		<stop  offset="0" style="stop-color:#FFE100"/>
		<stop  offset="1" style="stop-color:#DBBB00"/>
	</linearGradient>
	<polygon class="st3" points="16,394 119.7,398.7 123.9,307.6 20.1,302.9 	"/>
</g>
<g>
	<defs>
		<path id="SVGID_10_" d="M19.7,307L19.7,307C19.7,307,19.7,307,19.7,307 M19.7,307C19.7,307,19.7,306.9,19.7,307L19.7,307z
			 M19.6,306.9L19.6,306.9C19.6,306.9,19.6,306.9,19.6,306.9z M19.6,306.9C19.6,306.9,19.6,306.9,19.6,306.9
			C19.6,306.9,19.6,306.9,19.6,306.9z"/>
	</defs>
	<clipPath id="SVGID_11_">
		<use xlink:href="#SVGID_10_"  style="overflow:visible;"/>
	</clipPath>
	
		<linearGradient id="SVGID_12_" gradientUnits="userSpaceOnUse" x1="-248.5621" y1="702.7294" x2="-233.999" y2="702.7294" gradientTransform="matrix(4.2381 0.1926 -0.1926 4.2381 1262.8505 -2620.9846)">
		<stop  offset="0" style="stop-color:#148ECE"/>
		<stop  offset="0.561" style="stop-color:#2378BD"/>
		<stop  offset="1" style="stop-color:#2B6BB4"/>
	</linearGradient>
	<polygon class="st4" points="19.6,307 19.7,307 19.7,306.9 19.6,306.8 	"/>
</g>
</svg>
