<?xml version="1.0" encoding="utf-8"?>
<!-- Generator: Adobe Illustrator 22.1.0, SVG Export Plug-In . SVG Version: 6.00 Build 0)  -->
<svg version="1.1" id="layer" xmlns="http://www.w3.org/2000/svg" xmlns:xlink="http://www.w3.org/1999/xlink" x="0px" y="0px"
	 viewBox="0 0 623.6 134.3" style="enable-background:new 0 0 623.6 134.3;" xml:space="preserve">
<style type="text/css">
	.st0{fill:#282F39;}
	.st1{clip-path:url(#SVGID_2_);fill:url(#SVGID_3_);}
	.st2{clip-path:url(#SVGID_5_);fill:url(#SVGID_6_);}
	.st3{clip-path:url(#SVGID_8_);fill:url(#SVGID_9_);}
	.st4{clip-path:url(#SVGID_11_);fill:url(#SVGID_12_);}
</style>
<path class="st0" d="M178.6,35.6c0-3.2,2.4-5.6,5.6-5.6c3.2,0,5.7,2.4,5.7,5.6v21.9c3.6-5.1,8.7-9.2,16.8-9.2
	c11.5,0,22.8,9.1,22.8,25.5V74c0,16.3-11.2,25.5-22.8,25.5c-8.2,0-13.3-4.1-16.8-8.7v2.5c0,3.1-2.5,5.6-5.7,5.6
	c-3.1,0-5.6-2.5-5.6-5.6V35.6z M218,74v-0.2c0-9.5-6.4-15.8-14.1-15.8c-7.6,0-14.4,6.3-14.4,15.8V74c0,9.4,6.7,15.7,14.4,15.7
	C211.6,89.7,218,83.7,218,74"/>
<path class="st0" d="M241.1,54.4c0-3.2,2.4-5.7,5.6-5.7s5.7,2.5,5.7,5.7v5c2.6-6.2,7.4-10.8,12.4-10.8c3.5,0,5.6,2.3,5.6,5.6
	c0,3-2,4.9-4.5,5.4c-8,1.4-13.5,7.5-13.5,19.2v14.5c0,3.1-2.5,5.6-5.7,5.6c-3.1,0-5.6-2.4-5.6-5.6V54.4z"/>
<path class="st0" d="M275.2,74.2V74c0-14.1,11.2-25.7,26.3-25.7c15.1,0,26.2,11.5,26.2,25.5V74c0,14-11.2,25.6-26.4,25.6
	C286.3,99.6,275.2,88.2,275.2,74.2 M316.4,74.2V74c0-8.7-6.2-15.8-15.1-15.8c-9,0-14.8,7.1-14.8,15.7v0.2c0,8.6,6.2,15.8,15,15.8
	C310.6,89.8,316.4,82.7,316.4,74.2"/>
<path class="st0" d="M335.9,84.3v-0.2c0-10.6,8.3-15.8,20.3-15.8c5.5,0,9.4,0.8,13.2,2v-1.2c0-7-4.3-10.7-12.2-10.7
	c-4.3,0-7.8,0.7-10.9,2c-0.6,0.2-1.2,0.3-1.8,0.3c-2.6,0-4.7-2.1-4.7-4.7c0-2.1,1.4-3.8,3.1-4.5c4.7-1.8,9.4-2.9,15.8-2.9
	c7.4,0,12.9,2,16.3,5.5c3.6,3.6,5.3,8.8,5.3,15.2v24.2c0,3.1-2.4,5.4-5.5,5.4c-3.3,0-5.5-2.2-5.5-4.8v-1.8c-3.3,4-8.5,7.2-16,7.2
	C344.1,99.5,335.9,94.2,335.9,84.3 M369.6,80.8v-3.3c-2.9-1.1-6.7-2-11.2-2c-7.3,0-11.6,3.1-11.6,8.2v0.2c0,4.7,4.2,7.4,9.6,7.4
	C364,91.3,369.6,87.1,369.6,80.8"/>
<path class="st0" d="M442.2,93.4c0,3.2-2.5,5.6-5.6,5.6c-3.2,0-5.7-2.4-5.7-5.6v-3.1c-3.6,5.1-8.8,9.2-16.8,9.2
	c-11.5,0-22.8-9.2-22.8-25.5v-0.2c0-16.3,11.1-25.5,22.8-25.5c8.1,0,13.2,4,16.8,8.7V35.7c0-3.2,2.5-5.6,5.6-5.6
	c3.2,0,5.7,2.4,5.7,5.6V93.4z M402.7,73.8V74c0,9.5,6.5,15.8,14.2,15.8c7.6,0,14.3-6.3,14.3-15.8v-0.2c0-9.5-6.7-15.7-14.3-15.7
	C409.2,58.1,402.7,64,402.7,73.8"/>
<path class="st0" d="M454.7,93.4c-0.7-0.5-1.3-1.4-1.3-2.6c0-1.7,1.4-3.1,3.2-3.1c0.7,0,1.3,0.2,1.8,0.6c4.9,3.4,10.1,5.1,15.3,5.1
	c5.8,0,10-3,10-7.6v-0.2c0-4.8-5.7-6.7-12-8.5c-7.5-2.2-15.9-4.8-15.9-13.6v-0.2c0-8.3,6.9-13.8,16.4-13.8c5.1,0,10.7,1.6,15.4,4.1
	c0.9,0.6,1.8,1.6,1.8,3c0,1.7-1.4,3.1-3.2,3.1c-0.7,0-1.2-0.2-1.6-0.4c-4.1-2.3-8.5-3.7-12.6-3.7c-5.7,0-9.3,3-9.3,7v0.2
	c0,4.6,6,6.3,12.4,8.3c7.5,2.2,15.5,5.1,15.5,13.8v0.2c0,9.1-7.6,14.4-17.2,14.4C467,99.4,459.9,97.1,454.7,93.4"/>
<path class="st0" d="M500.8,74.7v-0.2c0-13.6,10.6-25.2,25.2-25.2c14.4,0,25.1,11.4,25.1,25v0.2c0,13.6-10.7,25.2-25.3,25.2
	C511.3,99.6,500.8,88.3,500.8,74.7 M543.7,74.7v-0.2c0-10.3-7.7-18.8-17.9-18.8c-10.4,0-17.6,8.5-17.6,18.6v0.2
	c0,10.4,7.6,18.7,17.8,18.7C536.4,93.2,543.7,84.8,543.7,74.7"/>
<path class="st0" d="M566.7,56.7h-3.9c-1.8,0-3.1-1.4-3.1-3.2c0-1.7,1.4-3.1,3.1-3.1h3.9v-4.2c0-5.5,1.5-9.7,4.2-12.4
	c2.4-2.4,6-3.7,10.3-3.7c2.3,0,4.1,0.2,5.7,0.6c1.4,0.3,2.6,1.5,2.6,3.1c0,1.9-1.6,3.3-3.4,3.1c-1.2-0.2-2.5-0.5-3.9-0.5
	c-5.6,0-8.4,3.3-8.4,10.3v3.9h12.5c1.8,0,3.2,1.3,3.2,3.1c0,1.7-1.4,3.1-3.2,3.1h-12.4v38.5c0,2-1.5,3.6-3.6,3.6
	c-2,0-3.6-1.7-3.6-3.6L566.7,56.7L566.7,56.7z"/>
<path class="st0" d="M600.7,85.7V56.6h-3.9c-1.7,0-3.2-1.5-3.2-3.2c0-1.8,1.5-3.2,3.2-3.2h3.9V38.8c0-2,1.5-3.6,3.5-3.6
	s3.6,1.7,3.6,3.6v11.5h12.5c1.8,0,3.3,1.5,3.3,3.2c0,1.8-1.5,3.2-3.3,3.2h-12.5v28.2c0,5.9,3.3,8,8.1,8c2.5,0,3.8-0.6,4.4-0.6
	c1.7,0,3.1,1.4,3.1,3.1c0,1.3-0.9,2.3-2.1,2.8c-2.1,0.9-4.3,1.3-7.1,1.3C606.6,99.4,600.7,95.5,600.7,85.7"/>
<g>
	<g>
		<defs>
			<path id="SVGID_1_" d="M114.4,0.1H31.3C14,0.1,0,14.1,0,31.4s14,31.3,31.3,31.3H61l27.6-47.1c5.7-9.7,15.8-15.2,26.3-15.5
				L114.4,0.1L114.4,0.1z"/>
		</defs>
		<clipPath id="SVGID_2_">
			<use xlink:href="#SVGID_1_"  style="overflow:visible;"/>
		</clipPath>
		
			<linearGradient id="SVGID_3_" gradientUnits="userSpaceOnUse" x1="-303.6458" y1="-550.6782" x2="-289.0827" y2="-550.6782" gradientTransform="matrix(-0.9632 3.6602 3.6602 0.9632 1782.7985 1664.802)">
			<stop  offset="0" style="stop-color:#F99B1C"/>
			<stop  offset="0.3936" style="stop-color:#F6811E"/>
			<stop  offset="1" style="stop-color:#F15D22"/>
		</linearGradient>
		<polygon class="st1" points="7.4,-28.1 -15.4,58.7 107.5,91 130.3,4.2 		"/>
	</g>
</g>
<g>
	<g>
		<defs>
			<path id="SVGID_4_" d="M115.3,0.1c-10.6,0.1-20.9,5.6-26.7,15.5L73.5,41.4l26.9,45.8c8.7,14.9,3.7,34.1-11.2,42.8
				c-4.7,2.7-9.7,4.1-14.8,4.3c10.4-0.3,20.5-5.8,26.2-15.5l42-71.7c8.8-14.9,3.8-34.1-11.2-42.8C126.5,1.4,121.2,0,116,0h-0.7V0.1z
				"/>
		</defs>
		<clipPath id="SVGID_5_">
			<use xlink:href="#SVGID_4_"  style="overflow:visible;"/>
		</clipPath>
		
			<linearGradient id="SVGID_6_" gradientUnits="userSpaceOnUse" x1="-137.4717" y1="-668.9667" x2="-122.9086" y2="-668.9667" gradientTransform="matrix(-3.4194 -2.8896 -2.8896 3.4194 -2286.8052 1960.7863)">
			<stop  offset="0" style="stop-color:#37B555"/>
			<stop  offset="0.3615" style="stop-color:#2F9D4C"/>
			<stop  offset="1" style="stop-color:#21773D"/>
		</linearGradient>
		<polygon class="st2" points="217.6,56.1 105.9,-38.3 7.3,78.5 118.9,172.8 		"/>
	</g>
</g>
<g>
	<g>
		<defs>
			<path id="SVGID_7_" d="M46.3,119c5.8,9.9,16.2,15.4,26.9,15.5h0.3c5.3,0,10.7-1.4,15.7-4.3c9.7-5.7,15.2-15.8,15.5-26.3v-1.5
				c-0.1-5.1-1.5-10.3-4.3-15.1L86,62.7H31.3c-11.3,0-21.2-6-26.7-15L46.3,119z"/>
		</defs>
		<clipPath id="SVGID_8_">
			<use xlink:href="#SVGID_7_"  style="overflow:visible;"/>
		</clipPath>
		
			<linearGradient id="SVGID_9_" gradientUnits="userSpaceOnUse" x1="-131.1932" y1="-455.9954" x2="-116.6301" y2="-455.9954" gradientTransform="matrix(4.2381 0.1926 0.1926 -4.2381 700.6973 -1816.0857)">
			<stop  offset="0" style="stop-color:#FFE100"/>
			<stop  offset="1" style="stop-color:#DBBB00"/>
		</linearGradient>
		<polygon class="st3" points="0.7,134.3 104.4,139 108.6,47.9 4.8,43.2 		"/>
	</g>
</g>
<g>
	<g>
		<defs>
			<path id="SVGID_10_" d="M4.4,47.3L4.4,47.3L4.4,47.3 M4.4,47.3C4.4,47.3,4.4,47.2,4.4,47.3L4.4,47.3z M4.3,47.2L4.3,47.2
				L4.3,47.2z M4.3,47.2L4.3,47.2L4.3,47.2z"/>
		</defs>
		<clipPath id="SVGID_11_">
			<use xlink:href="#SVGID_10_"  style="overflow:visible;"/>
		</clipPath>
		
			<linearGradient id="SVGID_12_" gradientUnits="userSpaceOnUse" x1="-131.1879" y1="-446.8692" x2="-116.6248" y2="-446.8692" gradientTransform="matrix(4.2381 0.1926 0.1926 -4.2381 700.8284 -1818.9341)">
			<stop  offset="0" style="stop-color:#148ECE"/>
			<stop  offset="0.561" style="stop-color:#2378BD"/>
			<stop  offset="1" style="stop-color:#2B6BB4"/>
		</linearGradient>
		<polygon class="st4" points="4.3,47.3 4.4,47.3 4.4,47.2 4.3,47.1 		"/>
	</g>
</g>
</svg>
