<?xml version="1.0" encoding="utf-8"?>
<!-- Generator: Adobe Illustrator 22.1.0, SVG Export Plug-In . SVG Version: 6.00 Build 0)  -->
<svg version="1.1" id="Layer_1" xmlns="http://www.w3.org/2000/svg" xmlns:xlink="http://www.w3.org/1999/xlink" x="0px" y="0px"
	 viewBox="0 0 126.1 66.4" style="enable-background:new 0 0 126.1 66.4;" xml:space="preserve">
<title>CiscoWhiteLogo</title>
<g id="layer1">
	<path id="path268" d="M41.2,65.9h-5.5V44.1h5.5V65.9z"/>
	<g id="g270">
		<g id="g272">
			<g id="g278">
				<path id="path280" d="M85.7,50.4c-1.4-0.9-3.1-1.3-4.7-1.2c-3.2-0.2-5.9,2.3-6.1,5.5c0,0.1,0,0.2,0,0.3c0,3.3,2.5,5.8,6.1,5.8
					c1.6,0.1,3.3-0.2,4.7-1v5.9c-1.7,0.5-3.4,0.7-5.1,0.7c-6.3,0-11.7-4.2-11.7-11.4c0-6.5,4.9-11.4,11.7-11.4
					c1.7,0.1,3.4,0.3,5.1,0.7V50.4z"/>
			</g>
			<g id="g282">
				<path id="path284" d="M28.1,50.4c-1.4-0.9-3.1-1.3-4.7-1.2c-3.2-0.2-5.9,2.3-6.1,5.5c0,0.1,0,0.2,0,0.3c0,3.3,2.5,5.8,6.1,5.8
					c1.6,0.1,3.3-0.2,4.7-1v5.9c-1.7,0.5-3.4,0.7-5.1,0.7c-6.1,0-11.7-4.2-11.7-11.4c0-6.5,4.9-11.4,11.7-11.4
					c1.7,0.1,3.4,0.3,5.1,0.7V50.4z"/>
			</g>
			<g id="g286">
				<path id="path288" d="M103.1,49.3c-3.2,0-5.8,2.6-5.8,5.8c0,3.2,2.6,5.8,5.8,5.8c3.2,0,5.8-2.6,5.8-5.8
					C108.8,51.9,106.2,49.3,103.1,49.3 M114.6,54.9c0.1,6.4-5,11.6-11.4,11.7c-6.4,0.1-11.6-5-11.7-11.4c-0.1-6.4,5-11.6,11.4-11.7
					c0.1,0,0.1,0,0.2,0c6.2-0.1,11.4,4.8,11.5,11C114.6,54.7,114.6,54.8,114.6,54.9"/>
			</g>
			<g id="g290">
				<path id="path292" d="M62.1,49.1c-1.4-0.4-2.9-0.6-4.4-0.7c-2.3,0-3.5,0.7-3.5,1.8c0,1.4,1.6,1.8,2.5,2.1l1.6,0.5
					c3.5,1.2,5.2,3.7,5.2,6.3c0,5.4-4.9,7.3-9.1,7.3c-2,0-4-0.2-5.9-0.5v-5.1c1.7,0.5,3.5,0.8,5.2,0.9c2.8,0,4-0.9,4-2.1
					c0-1-1-1.8-2.5-2.1c-0.4-0.2-0.8-0.3-1.2-0.3c-3.2-1-5.6-2.8-5.6-6.5c0-4,3.2-6.8,8.2-6.8c1.8,0.1,3.6,0.3,5.4,0.7L62.1,49.1z"
					/>
			</g>
			<g id="g294">
				<path id="path296" d="M5.6,20.6c0.1-1.5-1.1-2.9-2.6-3s-2.9,1.1-3,2.6c0,0.1,0,0.2,0,0.3v5.8c0,1.5,1.2,2.8,2.7,2.8
					c0,0,0.1,0,0.1,0c1.6-0.1,2.9-1.4,2.8-3L5.6,20.6z"/>
			</g>
			<g id="g298">
				<path id="path300" d="M20.6,13.1c0.1-1.5-1.1-2.9-2.6-3s-2.9,1.1-3,2.6c0,0.1,0,0.2,0,0.3v13.3c0,1.5,1.2,2.8,2.7,2.8
					c0,0,0.1,0,0.1,0c1.6-0.1,2.8-1.4,2.8-3L20.6,13.1z"/>
			</g>
			<g id="g302">
				<path id="path304" d="M35.7,2.8c0.1-1.5-1.1-2.9-2.6-3s-2.9,1.1-3,2.6c0,0.1,0,0.2,0,0.3v29c-0.1,1.5,1.1,2.9,2.6,3
					c1.5,0.1,2.9-1.1,3-2.6c0-0.1,0-0.2,0-0.3V2.8z"/>
			</g>
			<g id="g306">
				<path id="path308" d="M50.7,13.1c0.1-1.5-1.1-2.9-2.6-3s-2.9,1.1-3,2.6c0,0.1,0,0.2,0,0.3v13.3c0,1.5,1.2,2.8,2.7,2.8
					c0,0,0.1,0,0.1,0c1.6-0.1,2.8-1.4,2.8-3L50.7,13.1z"/>
			</g>
			<g id="g310">
				<path id="path312" d="M65.8,20.6c0.1-1.5-1.1-2.9-2.6-3s-2.9,1.1-3,2.6c0,0.1,0,0.2,0,0.3v5.8c0,1.5,1.2,2.8,2.7,2.8
					c0,0,0.1,0,0.1,0c1.6-0.1,2.8-1.4,2.8-3L65.8,20.6z"/>
			</g>
			<g id="g314">
				<path id="path316" d="M80.8,13.1c0.1-1.5-1.1-2.9-2.6-3s-2.9,1.1-3,2.6c0,0.1,0,0.2,0,0.3v13.3c0,1.5,1.2,2.8,2.7,2.8
					c0,0,0.1,0,0.1,0c1.6-0.1,2.8-1.4,2.8-3L80.8,13.1z"/>
			</g>
			<g id="g318">
				<path id="path320" d="M95.9,2.8c0.1-1.5-1.1-2.9-2.6-3s-2.9,1.1-3,2.6c0,0.1,0,0.2,0,0.3v29c-0.1,1.5,1.1,2.9,2.6,3
					c1.5,0.1,2.9-1.1,3-2.6c0-0.1,0-0.2,0-0.3V2.8z"/>
			</g>
			<g id="g322">
				<path id="path324" d="M110.9,13.1c0.1-1.5-1.1-2.9-2.6-3s-2.9,1.1-3,2.6c0,0.1,0,0.2,0,0.3v13.3c0,1.5,1.2,2.8,2.7,2.8
					c0,0,0.1,0,0.1,0c1.6-0.1,2.8-1.4,2.8-3L110.9,13.1z"/>
			</g>
			<g id="g326">
				<path id="path328" d="M126,20.6c0.1-1.5-1.1-2.9-2.6-3s-2.9,1.1-3,2.6c0,0.1,0,0.2,0,0.3v5.8c0,1.5,1.2,2.8,2.7,2.8
					c0,0,0.1,0,0.1,0c1.6-0.1,2.8-1.4,2.8-3L126,20.6z"/>
			</g>
			<g id="g330">
				<path id="path332" d="M122.8,63.1v0.2h-1v2.6h-0.3v-2.6h-1v-0.3h2.5L122.8,63.1z"/>
			</g>
			<g id="g334">
				<path id="path336" d="M123,63.1h0.7l0.9,2.5l0,0l0.9-2.5h0.7v2.8h-0.7v-2.5l0,0l-0.9,2.5h-0.3l-0.9-2.5l0,0v2.5H123V63.1z"/>
			</g>
		</g>
	</g>
</g>
</svg>
