<?xml version="1.0" encoding="utf-8"?>
<!-- Generator: Adobe Illustrator 22.1.0, SVG Export Plug-In . SVG Version: 6.00 Build 0)  -->
<svg version="1.1" id="Layer_1" xmlns="http://www.w3.org/2000/svg" xmlns:xlink="http://www.w3.org/1999/xlink" x="0px" y="0px"
	 viewBox="0 0 159.9 37.7" style="enable-background:new 0 0 159.9 37.7;" xml:space="preserve">
<style type="text/css">
	.st0{fill:#666666;}
</style>
<title>MitelLogoWhite</title>
<g id="layer1">
	<g id="g11380">
		<path id="path11382" class="st0" d="M25.8,26.1l-4.3-2.5l-1.3-0.8c-1-0.7-1.1-2.1-0.4-3c0.1-0.2,0.3-0.3,0.4-0.4l1.3-0.8l-4.3-2.5
			c-2.7,2.3-3.1,6.5-0.7,9.2c0.4,0.5,0.9,0.9,1.4,1.3l3.5,2l11.7,6.8c3.1,1.8,7.1,0.8,8.9-2.4c0.6-1,0.9-2.1,0.9-3.3V12.4
			c0-3.6-2.9-6.5-6.5-6.5c-1.2,0-2.3,0.3-3.3,0.9l-11.7,6.8l3.5,2c0.3,0.2,0.5,0.3,0.7,0.5l9.7-5.6c0.3-0.2,0.7-0.3,1.1-0.3
			c1.2,0,2.2,1,2.2,2.2v17.4c0,1.2-1,2.2-2.2,2.2c-0.4,0-0.8-0.1-1.1-0.3L25.8,26.1"/>
	</g>
	<g id="g11384">
		<path id="path11386" class="st0" d="M110.2,27.3V14.5h6.1v-4.2h-6.1V4.6h-4.4v22.7c0,6.8,4.3,10.5,10.6,9.8V33
			C113,33.2,110.2,32,110.2,27.3"/>
	</g>
	<g id="g11388">
		<path id="path11390" class="st0" d="M98.2,1.9c-1.5,0-2.7,1.2-2.7,2.7s1.2,2.7,2.7,2.7s2.7-1.2,2.7-2.7l0,0
			C100.8,3.1,99.6,1.9,98.2,1.9"/>
	</g>
	<g id="g11392">
		<path id="path11394" class="st0" d="M153,28.2v-28h-4.5v28c0,4.9,4,8.9,8.9,8.9v-4.5C155,32.7,153,30.7,153,28.2"/>
	</g>
	<g id="g11396">
		<path id="path11398" class="st0" d="M84.5,2.3L73.8,28.2L63.1,2.3h-6.3v34.3h4.5V8.4l11.6,28.3h1.8L86.4,8.4v28.3h4.4V2.3H84.5z"
			/>
	</g>
	<g id="g11400">
		<path id="path11402" class="st0" d="M21.5,18.6l1.3,0.8c1,0.7,1.1,2.1,0.4,3c-0.1,0.2-0.3,0.3-0.4,0.4l-1.3,0.8l4.3,2.5
			c2.7-2.3,3.1-6.5,0.7-9.2c-0.2-0.3-0.5-0.5-0.7-0.7c-0.2-0.2-0.5-0.4-0.7-0.5l-3.5-2L9.8,6.8C6.7,5,2.7,6.1,0.9,9.2
			c-0.6,1-0.9,2.1-0.9,3.3v17.4c0,3.6,2.9,6.5,6.5,6.5c1.1,0,2.3-0.3,3.3-0.9l11.7-6.8l-3.5-2c-0.3-0.2-0.5-0.3-0.7-0.5l-9.7,5.6
			C7.3,31.9,6.9,32,6.5,32c-1.2,0-2.2-1-2.2-2.2V12.4c0-1.2,1-2.2,2.2-2.2c0.4,0,0.8,0.1,1.1,0.3l9.7,5.6l0,0L21.5,18.6z"/>
	</g>
	<g id="g11404">
		<path id="path11406" class="st0" d="M156.9,2.3h0.5c0.4,0,0.8,0,0.8-0.5s-0.3-0.5-0.6-0.5H157L156.9,2.3z M156.4,1h1.1
			c0.7,0,1,0.3,1,0.8c0,0.4-0.3,0.8-0.7,0.8c0,0,0,0-0.1,0l0.8,1.3H158l-0.8-1.3h-0.5v1.3h-0.5L156.4,1z M157.4,4.6
			c1.2,0.1,2.2-0.8,2.2-2c0.1-1.2-0.8-2.2-2-2.2c-1.2-0.1-2.2,0.8-2.2,2v0.1c-0.1,1.1,0.8,2.1,1.9,2.1
			C157.3,4.6,157.4,4.6,157.4,4.6 M157.4,0c1.4,0,2.5,1.1,2.5,2.5S158.8,5,157.4,5s-2.5-1.1-2.5-2.5S156,0,157.4,0L157.4,0"/>
	</g>
	<path id="path11408" class="st0" d="M100.4,36.7H96V9.9h4.4V36.7z"/>
	<g id="g11410">
		<path id="path11412" class="st0" d="M131.4,13.6c4.2,0.2,7.8,3.2,8.6,7.3h-17.4C123.5,16.8,127.1,13.8,131.4,13.6 M131.7,33.7
			c-4.9-0.1-9-3.9-9.3-8.8H145c0-9.5-6.6-15.3-13.5-15.3c-7.4,0-13.5,6.4-13.5,14.1c-0.2,7.6,5.9,13.8,13.4,14c0.1,0,0.2,0,0.3,0
			c6.2,0,10.8-3.2,12.6-9h-4.7C138.3,31.9,135.1,33.8,131.7,33.7"/>
	</g>
</g>
</svg>
