<?xml version="1.0" encoding="utf-8"?>
<!-- Generator: Adobe Illustrator 22.1.0, SVG Export Plug-In . SVG Version: 6.00 Build 0)  -->
<svg version="1.1" id="Layer_1" xmlns="http://www.w3.org/2000/svg" xmlns:xlink="http://www.w3.org/1999/xlink" x="0px" y="0px"
	 viewBox="0 0 283.18 46.59" style="enable-background:new 0 0 283.18 46.59;" xml:space="preserve">
<title>perfectview-white</title>
<path d="M14.93,9.85c6.71,0,11.58,5,11.58,13.69s-4.87,13.75-11.58,13.75c-3.169,0.019-6.159-1.465-8.06-4v13.3H0V9.85H14.93z
	 M12.77,31.17c4,0,6.6-3.08,6.6-7.63s-2.65-7.58-6.6-7.58h-5.9v15.21H12.77z"/>
<path d="M29.8,23.54c-0.217-7.342,5.56-13.47,12.902-13.686c0.209-0.006,0.419-0.007,0.628-0.004c7.79,0,13.1,5.84,13.1,14.39v1.51
	H36.99c0.43,3.3,3.08,6.06,7.52,6.06c2.563-0.035,5.036-0.953,7-2.6l3,4.44c-2.6,2.38-6.71,3.63-10.77,3.63
	C35.8,37.29,29.8,31.93,29.8,23.54z M43.32,15.29c-3.347-0.095-6.18,2.452-6.44,5.79h12.88c-0.136-3.339-2.953-5.934-6.292-5.798
	C43.419,15.284,43.369,15.287,43.32,15.29z"/>
<path d="M61,36.64V10.5h6.87v3.57c2.032-2.549,5.072-4.089,8.33-4.22v6.71c-0.623-0.119-1.256-0.172-1.89-0.16
	c-2.27,0-5.3,1.3-6.44,3v17.26L61,36.64z"/>
<path d="M80.5,36.64V9.09C80.5,3.52,84.07,0,89.32,0c2.49,0,5.14,0.65,6.82,2.43l-2.6,4.06c-0.765-0.744-1.805-1.135-2.87-1.08
	c-1.89,0-3.25,1.24-3.25,3.68v1.41h5.3v6h-5.3v20.13L80.5,36.64z"/>
<path d="M95.43,23.54c-0.217-7.342,5.56-13.47,12.902-13.686c0.209-0.006,0.419-0.007,0.628-0.004c7.79,0,13.1,5.84,13.1,14.39v1.51
	h-19.43c0.43,3.3,3.08,6.06,7.52,6.06c2.563-0.035,5.036-0.953,7-2.6l3,4.44c-2.6,2.38-6.71,3.63-10.77,3.63
	C101.44,37.29,95.43,31.93,95.43,23.54z M108.96,15.29c-3.347-0.095-6.18,2.452-6.44,5.79h12.88
	c-0.136-3.339-2.953-5.934-6.292-5.798C109.059,15.284,109.009,15.287,108.96,15.29z"/>
<path d="M124.96,23.54c0-8,5.79-13.69,13.85-13.69c5.36,0,8.6,2.33,10.34,4.71l-4.49,4.22c-1.226-1.833-3.317-2.897-5.52-2.81
	c-4.17,0-7.09,3-7.09,7.58s2.92,7.63,7.09,7.63c2.193,0.039,4.261-1.014,5.52-2.81l4.49,4.17c-1.73,2.43-5,4.76-10.34,4.76
	C130.75,37.29,124.96,31.6,124.96,23.54z"/>
<path d="M153.7,30.14V3.36h6.93v7.14h5.3v6h-5.3v11.79c0,1.62,0.87,2.87,2.38,2.87c0.857,0.026,1.697-0.242,2.38-0.76l1.46,5.19
	c-1,0.92-2.87,1.68-5.74,1.68C156.3,37.29,153.7,34.8,153.7,30.14z"/>
<path d="M180.08,36.64l-10.5-26.14h7.36l6.82,18.18l6.82-18.18h7.41L187.5,36.64H180.08z"/>
<path d="M202.21,36.64V10.5h6.87v26.14L202.21,36.64z"/>
<path d="M213.57,23.54c-0.217-7.342,5.56-13.47,12.902-13.686c0.209-0.006,0.419-0.007,0.628-0.004c7.79,0,13.1,5.84,13.1,14.39
	v1.51h-19.44c0.43,3.3,3.08,6.06,7.52,6.06c2.563-0.035,5.036-0.953,7-2.6l3,4.44c-2.6,2.38-6.71,3.63-10.77,3.63
	C219.57,37.29,213.57,31.93,213.57,23.54z M227.1,15.29c-3.347-0.095-6.18,2.452-6.44,5.79h12.84
	c-0.138-3.338-2.956-5.933-6.294-5.795C227.17,15.286,227.135,15.288,227.1,15.29z"/>
<path d="M267.92,36.64l-5.52-17.8l-5.52,17.8h-7.38l-8-26.14h7.14l4.87,17.59l5.74-17.59h6.11l5.74,17.59l4.87-17.59h7.14l-8,26.14
	L267.92,36.64z"/>
</svg>
