<?xml version="1.0" encoding="utf-8"?>
<!-- Generator: Adobe Illustrator 22.1.0, SVG Export Plug-In . SVG Version: 6.00 Build 0)  -->
<svg version="1.1" id="Layer_1" xmlns="http://www.w3.org/2000/svg" xmlns:xlink="http://www.w3.org/1999/xlink" x="0px" y="0px"
	 viewBox="0 0 193.3 70.3" style="enable-background:new 0 0 193.3 70.3;" xml:space="preserve">
<style type="text/css">
	.st0{fill:#FFFFFF;stroke:#000000;stroke-width:5;stroke-miterlimit:10;}
</style>
<path class="st0" d="M65,39.9c3-16.6-8.1-32.6-24.7-35.6C36.5,3.7,32.7,3.7,29,4.4C20-0.1,9,3.5,4.4,12.5
	c-2.7,5.3-2.6,11.6,0.2,16.8C1.8,46,13.1,61.8,29.7,64.7c3.2,0.5,6.4,0.6,9.6,0.1c8.4,5.6,19.7,3.3,25.3-5.1
	C68.6,53.7,68.7,46,65,39.9z"/>
<title>SkypeforBusinessWhiteLogo</title>
<path d="M81.8,28.3v-2.6c0.3,0.3,0.7,0.5,1.1,0.7c0.4,0.2,0.9,0.4,1.3,0.5c0.5,0.1,0.9,0.3,1.4,0.3c0.4,0.1,0.9,0.1,1.3,0.1
	c1.1,0.1,2.2-0.2,3.1-0.8c1-0.9,1.3-2.4,0.7-3.6c-0.3-0.4-0.6-0.7-0.9-1c-0.4-0.3-0.9-0.6-1.4-0.9l-1.8-0.9c-0.7-0.3-1.3-0.7-1.9-1
	c-0.5-0.3-1.1-0.7-1.5-1.1c-0.4-0.4-0.8-0.9-1-1.4c-0.6-1.3-0.5-2.9,0.2-4.1c0.4-0.6,0.9-1.2,1.5-1.6c0.7-0.5,1.4-0.8,2.2-1
	c0.8-0.2,1.6-0.3,2.4-0.3c1.4-0.1,2.8,0.1,4.1,0.7v2.5c-1.3-0.8-2.8-1.2-4.3-1.2c-0.5,0-1,0-1.5,0.1c-0.5,0.1-0.9,0.3-1.3,0.5
	c-0.4,0.2-0.7,0.5-0.9,0.9c-0.2,0.4-0.4,0.9-0.4,1.3c0,0.4,0.1,0.9,0.3,1.3c0.2,0.4,0.5,0.7,0.8,1c0.4,0.3,0.8,0.6,1.3,0.9
	c0.5,0.3,1.1,0.6,1.8,0.9c0.7,0.3,1.3,0.7,2,1.1c0.6,0.3,1.1,0.8,1.6,1.2c0.4,0.4,0.8,0.9,1.1,1.5c0.3,0.6,0.4,1.2,0.4,1.9
	c0,0.8-0.2,1.7-0.5,2.4c-0.4,0.6-0.9,1.2-1.5,1.6c-0.7,0.4-1.4,0.7-2.2,0.9c-0.9,0.2-1.7,0.3-2.6,0.3c-0.4,0-0.7,0-1.1-0.1
	c-0.5,0-0.9-0.1-1.4-0.2c-0.4-0.1-0.9-0.2-1.3-0.4C82.5,28.6,82.1,28.5,81.8,28.3z"/>
<path d="M108.2,29h-3.1l-6-6.6h-0.1V29h-2.2V8.8h2.2v12.8h0l5.7-6.3h2.9l-6.3,6.6L108.2,29z"/>
<path d="M121.4,15.4l-6.3,15.8c-1.1,2.8-2.7,4.2-4.7,4.2c-0.5,0-1,0-1.4-0.2v-2c0.4,0.1,0.8,0.2,1.3,0.2c1.2,0,2.2-0.9,2.5-2
	l1.1-2.6l-5.3-13.6h2.4l3.7,10.5c0,0.1,0.1,0.5,0.3,1h0.1c0-0.2,0.1-0.5,0.3-1l3.9-10.4H121.4z"/>
<path d="M126,27.1L126,27.1l0,8.3h-2.2V15.4h2.2v2.4h0c0.9-1.7,2.8-2.8,4.7-2.7c1.6-0.1,3.1,0.6,4.1,1.8c1,1.4,1.6,3.2,1.5,4.9
	c0.1,2-0.5,3.9-1.7,5.5c-1.1,1.4-2.8,2.1-4.6,2.1C128.4,29.4,126.8,28.5,126,27.1z M125.9,21.5v1.9c0,1.1,0.4,2.1,1.1,2.9
	c1.5,1.5,4,1.6,5.6,0.1c0.1-0.1,0.2-0.3,0.4-0.4c0.8-1.3,1.2-2.7,1.1-4.2c0.1-1.3-0.3-2.5-1-3.6c-0.7-0.9-1.8-1.3-2.9-1.3
	c-1.2,0-2.3,0.4-3.1,1.3C126.3,19.1,125.9,20.3,125.9,21.5z"/>
<path d="M150.8,22.7h-9.7c0,1.3,0.4,2.5,1.2,3.5c0.9,0.9,2,1.3,3.2,1.2c1.5,0,3-0.5,4.2-1.5V28c-1.4,0.9-3.1,1.4-4.8,1.3
	c-1.7,0.1-3.4-0.6-4.5-1.9c-1.2-1.5-1.8-3.3-1.7-5.2c-0.1-1.9,0.6-3.8,1.8-5.2c1.1-1.3,2.8-2,4.5-2c1.6-0.1,3.1,0.5,4.2,1.7
	c1.1,1.4,1.6,3.1,1.5,4.8L150.8,22.7z M148.5,20.9c0.1-1.1-0.3-2.1-0.9-3c-0.6-0.7-1.6-1.1-2.5-1c-1,0-1.9,0.4-2.6,1.1
	c-0.7,0.8-1.2,1.8-1.3,2.9L148.5,20.9z"/>
<path d="M168.3,10.7c-0.4-0.2-1-0.4-1.5-0.4c-1.5,0-2.3,1-2.3,2.9v2.1h3.2v1.9h-3.2V29h-2.2V17.2h-2.3v-1.9h2.3v-2.2
	c-0.1-1.3,0.4-2.5,1.2-3.4c0.8-0.8,1.9-1.3,3.1-1.3c0.5,0,1.1,0.1,1.6,0.2L168.3,10.7z"/>
<path d="M175.8,29.4c-1.8,0.1-3.6-0.6-4.8-1.9c-1.2-1.4-1.9-3.2-1.8-5.1c-0.1-2,0.6-3.9,1.9-5.4c1.3-1.3,3.2-2,5.1-1.9
	c1.8-0.1,3.5,0.6,4.8,1.9c1.2,1.5,1.8,3.3,1.7,5.2c0.1,1.9-0.6,3.8-1.8,5.2C179.5,28.7,177.7,29.4,175.8,29.4z M176,16.9
	c-1.3-0.1-2.5,0.5-3.3,1.4c-0.9,1.1-1.3,2.6-1.2,4c-0.1,1.4,0.4,2.8,1.2,3.8c0.8,0.9,2.1,1.5,3.3,1.4c1.2,0.1,2.4-0.4,3.3-1.4
	c0.8-1.1,1.2-2.5,1.1-3.9c0.1-1.4-0.3-2.8-1.1-4C178.4,17.3,177.2,16.8,176,16.9z"/>
<path d="M193.2,17.6c-0.5-0.3-1.1-0.5-1.7-0.4c-1,0-1.8,0.5-2.3,1.3c-0.7,1.1-1,2.3-0.9,3.6v7h-2.2V15.4h2.2v2.8h0
	c0.3-0.9,0.7-1.7,1.4-2.3c0.6-0.5,1.4-0.8,2.2-0.8c0.4,0,0.9,0,1.3,0.2L193.2,17.6z"/>
<path d="M82.7,61.8V42.7h5.4c1.4-0.1,2.8,0.3,4,1.2c0.9,0.8,1.5,1.9,1.5,3.2c0,1-0.3,2-0.9,2.8c-0.6,0.8-1.5,1.4-2.4,1.7v0
	c1.2,0.1,2.3,0.6,3.1,1.5c0.8,0.9,1.2,2,1.2,3.2c0.1,1.5-0.6,3-1.8,4c-1.2,1-2.8,1.6-4.4,1.5L82.7,61.8z M84.9,44.7v6.2h2.3
	c1,0.1,2.1-0.3,2.9-0.9c0.7-0.6,1.1-1.5,1-2.5c0-1.9-1.2-2.8-3.7-2.8H84.9z M84.9,52.9v6.9h3c1.1,0.1,2.2-0.2,3.2-0.9
	c0.7-0.6,1.1-1.6,1.1-2.6c0-2.3-1.5-3.4-4.6-3.4L84.9,52.9z"/>
<path d="M109.1,61.8h-2.2v-2.2h0c-0.8,1.6-2.4,2.6-4.2,2.5c-3.3,0-4.9-1.9-4.9-5.8v-8.2h2.2V56c0,2.9,1.1,4.3,3.3,4.3
	c1,0,2-0.4,2.6-1.2c0.7-0.9,1.1-2,1-3.1v-7.9h2.2V61.8z"/>
<path d="M112.7,61.3V59c1.1,0.9,2.5,1.3,3.9,1.3c1.9,0,2.9-0.6,2.9-1.9c0-0.3-0.1-0.7-0.3-0.9c-0.2-0.3-0.4-0.5-0.7-0.7
	c-0.3-0.2-0.6-0.4-1-0.5l-1.2-0.5c-0.5-0.2-1.1-0.5-1.6-0.7c-0.4-0.2-0.8-0.5-1.2-0.8c-0.3-0.3-0.5-0.6-0.7-1
	c-0.2-0.4-0.2-0.9-0.2-1.4c0-0.6,0.1-1.2,0.4-1.7c0.3-0.5,0.7-0.9,1.2-1.2c0.5-0.3,1.1-0.6,1.7-0.8c0.6-0.2,1.3-0.3,1.9-0.3
	c1.1,0,2.2,0.2,3.2,0.6v2.2c-1-0.7-2.2-1-3.5-1c-0.4,0-0.7,0-1.1,0.1c-0.3,0.1-0.6,0.2-0.8,0.4c-0.2,0.2-0.4,0.4-0.5,0.6
	c-0.1,0.2-0.2,0.5-0.2,0.8c0,0.3,0.1,0.6,0.2,0.9c0.1,0.3,0.3,0.5,0.6,0.6c0.3,0.2,0.6,0.4,0.9,0.5l1.2,0.5c0.6,0.2,1.1,0.4,1.6,0.7
	c0.4,0.2,0.9,0.5,1.2,0.8c0.3,0.3,0.6,0.7,0.8,1.1c0.2,0.5,0.3,0.9,0.3,1.4c0,0.6-0.1,1.2-0.5,1.8c-0.3,0.5-0.7,0.9-1.2,1.2
	c-0.5,0.3-1.1,0.6-1.7,0.7c-0.7,0.2-1.3,0.2-2,0.2C115.1,62.2,113.8,61.9,112.7,61.3z"/>
<path d="M126.2,44.7c-0.4,0-0.7-0.1-1-0.4c-0.3-0.3-0.4-0.6-0.4-1c0-0.8,0.6-1.4,1.4-1.4c0,0,0,0,0.1,0c0.4,0,0.7,0.1,1,0.4
	c0.3,0.3,0.4,0.6,0.4,1c0,0.4-0.1,0.7-0.4,1C127,44.5,126.6,44.7,126.2,44.7z M127.3,61.8h-2.2V48.2h2.2L127.3,61.8z"/>
<path d="M143.1,61.8h-2.2V54c0-2.9-1.1-4.3-3.2-4.3c-1,0-2,0.4-2.7,1.2c-0.7,0.9-1.1,2-1.1,3.1v7.8h-2.2V48.2h2.2v2.3h0
	c0.9-1.6,2.6-2.6,4.5-2.6c1.3-0.1,2.6,0.5,3.4,1.5c0.9,1.2,1.3,2.7,1.2,4.2L143.1,61.8z"/>
<path d="M158.2,55.5h-9.7c0,1.3,0.4,2.5,1.2,3.5c0.9,0.9,2,1.3,3.2,1.2c1.5,0,3-0.5,4.2-1.5v2.1c-1.4,0.9-3.1,1.4-4.8,1.3
	c-1.7,0.1-3.4-0.6-4.5-1.9c-1.2-1.5-1.8-3.3-1.7-5.2c-0.1-1.9,0.6-3.7,1.8-5.2c1.1-1.3,2.8-2,4.5-2c1.6-0.1,3.1,0.5,4.2,1.7
	c1.1,1.4,1.6,3.1,1.5,4.8V55.5z M155.9,53.7c0.1-1.1-0.3-2.1-0.9-3c-0.6-0.7-1.5-1.1-2.5-1.1c-1,0-1.9,0.4-2.6,1.1
	c-0.7,0.8-1.2,1.8-1.3,2.9H155.9z"/>
<path d="M160.7,61.3V59c1.1,0.9,2.5,1.3,3.9,1.3c1.9,0,2.9-0.6,2.9-1.9c0-0.3-0.1-0.7-0.3-0.9c-0.2-0.3-0.4-0.5-0.7-0.7
	c-0.3-0.2-0.6-0.4-1-0.5l-1.2-0.5c-0.5-0.2-1.1-0.5-1.6-0.7c-0.4-0.2-0.8-0.5-1.2-0.8c-0.3-0.3-0.5-0.6-0.7-1
	c-0.2-0.4-0.2-0.9-0.2-1.4c0-0.6,0.1-1.2,0.4-1.7c0.3-0.5,0.7-0.9,1.2-1.2c0.5-0.3,1.1-0.6,1.7-0.8c0.6-0.2,1.3-0.3,1.9-0.3
	c1.1,0,2.2,0.2,3.2,0.6v2.2c-1-0.7-2.2-1-3.5-1c-0.4,0-0.7,0-1.1,0.1c-0.3,0.1-0.6,0.2-0.8,0.4c-0.2,0.2-0.4,0.4-0.5,0.6
	c-0.1,0.2-0.2,0.5-0.2,0.8c0,0.3,0.1,0.6,0.2,0.9c0.1,0.3,0.3,0.5,0.6,0.6c0.3,0.2,0.6,0.4,0.9,0.5l1.2,0.5c0.6,0.2,1.1,0.4,1.6,0.7
	c0.4,0.2,0.9,0.5,1.2,0.8c0.3,0.3,0.6,0.7,0.8,1.1c0.2,0.5,0.3,0.9,0.3,1.4c0,0.6-0.1,1.2-0.5,1.8c-0.3,0.5-0.7,0.9-1.2,1.2
	c-0.5,0.3-1.1,0.6-1.7,0.7c-0.7,0.2-1.3,0.2-2,0.2C163.1,62.2,161.8,61.9,160.7,61.3z"/>
<path d="M172.3,61.3V59c1.1,0.9,2.5,1.3,3.9,1.3c1.9,0,2.9-0.6,2.9-1.9c0-0.3-0.1-0.7-0.3-0.9c-0.2-0.3-0.4-0.5-0.7-0.7
	c-0.3-0.2-0.6-0.4-1-0.5l-1.2-0.5c-0.5-0.2-1.1-0.5-1.6-0.7c-0.4-0.2-0.8-0.5-1.2-0.8c-0.3-0.3-0.5-0.6-0.7-1
	c-0.2-0.4-0.2-0.9-0.2-1.4c0-0.6,0.1-1.2,0.4-1.7c0.3-0.5,0.7-0.9,1.2-1.2c0.5-0.3,1.1-0.6,1.7-0.8c0.6-0.2,1.3-0.3,1.9-0.3
	c1.1,0,2.2,0.2,3.2,0.6v2.2c-1-0.7-2.2-1-3.5-1c-0.4,0-0.7,0-1.1,0.1c-0.3,0.1-0.6,0.2-0.8,0.4c-0.2,0.2-0.4,0.4-0.5,0.6
	c-0.1,0.2-0.2,0.5-0.2,0.8c0,0.3,0.1,0.6,0.2,0.9c0.1,0.3,0.3,0.5,0.6,0.6c0.3,0.2,0.6,0.4,0.9,0.5l1.2,0.5c0.6,0.2,1.1,0.5,1.7,0.7
	c0.4,0.2,0.9,0.5,1.2,0.8c0.3,0.3,0.6,0.7,0.8,1.1c0.2,0.5,0.3,0.9,0.3,1.4c0,0.6-0.1,1.2-0.5,1.8c-0.3,0.5-0.7,0.9-1.2,1.2
	c-0.5,0.3-1.1,0.6-1.7,0.7c-0.7,0.2-1.3,0.2-2,0.2C174.7,62.2,173.4,61.9,172.3,61.3z"/>
<path d="M35.6,54.5c-11,0-15.9-5.4-15.9-9.4c0-1.9,1.5-3.5,3.4-3.5c0.1,0,0.2,0,0.3,0c4.7,0,3.5,6.8,12.3,6.8c4.5,0,7-2.4,7-4.9
	c0-1.5-0.7-3.2-3.7-3.9L29.2,37c-7.9-2-9.3-6.2-9.3-10.2c0-8.3,7.8-11.4,15.2-11.4c6.8,0,14.7,3.7,14.7,8.7c0,2.1-1.8,3.4-4,3.4
	c-4,0-3.3-5.5-11.3-5.5c-4,0-6.2,1.8-6.2,4.4s3.2,3.4,5.9,4l7.2,1.6c7.9,1.8,9.9,6.4,9.9,10.7C51.3,49.4,46.1,54.5,35.6,54.5z"/>
</svg>
