<?xml version="1.0" encoding="utf-8"?>
<!-- Generator: Adobe Illustrator 22.1.0, SVG Export Plug-In . SVG Version: 6.00 Build 0)  -->
<svg version="1.1" id="Layer_1" xmlns="http://www.w3.org/2000/svg" xmlns:xlink="http://www.w3.org/1999/xlink" x="0px" y="0px"
	 viewBox="0 0 368 75.1" style="enable-background:new 0 0 368 75.1;" xml:space="preserve">
<style type="text/css">
	.st0{fill:#03363D;}
</style>
<path class="st0" d="M243.5,64c6,0,10.3-2.5,12.9-5l6.4,6.9c-4.2,4.4-10.1,7.6-19.3,7.6c-15.7,0-25.8-10.4-25.8-24.5
	c0-14,10.7-24.5,24.4-24.5c15.6,0,24.4,11.8,23.6,28.3H229C230.3,59.7,235.1,64,243.5,64 M254.7,45c-1-6.4-4.8-11.1-12.4-11.1
	c-7.1,0-12,4-13.3,11.1H254.7z"/>
<polygon class="st0" points="2,63.5 30.3,34.7 2.7,34.7 2.7,25.7 43.4,25.7 43.4,34.9 15.1,63.7 43.8,63.7 43.8,72.7 2,72.7 "/>
<path class="st0" d="M75.6,64c6,0,10.3-2.5,12.9-5l6.4,6.9c-4.2,4.4-10.1,7.6-19.3,7.6c-15.7,0-25.8-10.4-25.8-24.5
	c0-14,10.7-24.5,24.4-24.5c15.6,0,24.4,11.8,23.6,28.3H61.1C62.4,59.7,67.2,64,75.6,64 M86.8,45c-1-6.4-4.8-11.1-12.4-11.1
	c-7.1,0-12,4-13.3,11.1H86.8z"/>
<path class="st0" d="M159,49.1c0-15,11.2-24.4,23.6-24.4c6.2,0,12.2,2.7,15.7,7.1V4.1h10v68.6h-10v-6.6c-3.6,4.6-9.5,7.4-15.8,7.4
	C170.5,73.5,159,64,159,49.1 M198.8,49c0-8.4-6.3-15.2-14.9-15.2c-8.4,0-14.9,6.7-14.9,15.2s6.5,15.3,14.9,15.3
	C192.5,64.3,198.8,57.4,198.8,49"/>
<path class="st0" d="M272.3,62.6l9.1-4.7c2.6,4.3,6.7,6.9,12.1,6.9c5.7,0,8.6-2.9,8.6-6.2c0-3.8-5.5-4.6-11.4-5.8
	c-8-1.7-16.3-4.3-16.3-14c0-7.4,7.1-14.3,18.2-14.2c8.8,0,15.3,3.5,19,9.1l-8.4,4.6c-2.2-3.3-5.8-5.4-10.6-5.4
	c-5.4,0-8.1,2.6-8.1,5.6c0,3.4,4.3,4.3,11.1,5.8c7.7,1.7,16.5,4.2,16.5,14c0,6.5-5.7,15.2-19.1,15.1
	C283.2,73.5,276.3,69.6,272.3,62.6"/>
<polygon class="st0" points="339.2,51.7 331.3,60.4 331.3,72.6 321.3,72.6 321.3,4 331.3,4 331.3,48.9 352.5,25.6 364.7,25.6 
	346.3,45.7 365.2,72.6 353.8,72.6 "/>
<path class="st0" d="M128.8,24.6c-11.9,0-21.8,7.7-21.8,20.5v27.5h10.2V46.4c0-7.7,4.4-12.3,12-12.3c7.6,0,11.3,4.6,11.3,12.3v26.2
	h10.2V45.1C150.6,32.3,140.7,24.6,128.8,24.6"/>
</svg>
