<?xml version="1.0" encoding="utf-8"?>
<svg version="1.1" id="Layer_1" xmlns="http://www.w3.org/2000/svg" xmlns:xlink="http://www.w3.org/1999/xlink" x="0px" y="0px"
	 viewBox="0 0 368 262" style="enable-background:new 0 0 368 262;" xml:space="preserve">
<style type="text/css">
	.st0{fill:#03363D;}
</style>
<g>
	<g>
		<polygon class="st0" points="175.8,41.5 175.8,154.4 82.3,154.4 		"/>
		<path class="st0" d="M175.8,1c0,25.8-20.9,46.7-46.7,46.7S82.3,26.8,82.3,1H175.8z"/>
		<path class="st0" d="M191.2,154.4c0-25.8,20.9-46.7,46.7-46.7s46.7,20.9,46.7,46.7H191.2z"/>
		<polygon class="st0" points="191.2,113.9 191.2,1 284.7,1 		"/>
	</g>
	<g>
		<path class="st0" d="M243.5,250.9c6,0,10.3-2.5,12.9-5l6.4,6.9c-4.2,4.4-10.1,7.6-19.3,7.6c-15.7,0-25.8-10.4-25.8-24.5
			c0-14,10.7-24.5,24.4-24.5c15.6,0,24.4,11.8,23.6,28.3H229C230.3,246.6,235.1,250.9,243.5,250.9 M254.7,231.9
			c-1-6.4-4.8-11.1-12.4-11.1c-7.1,0-12,4-13.3,11.1H254.7z"/>
		<polygon class="st0" points="2,250.4 30.3,221.6 2.7,221.6 2.7,212.6 43.4,212.6 43.4,221.8 15.1,250.6 43.8,250.6 43.8,259.6 
			2,259.6 		"/>
		<path class="st0" d="M75.6,250.9c6,0,10.3-2.5,12.9-5l6.4,6.9c-4.2,4.4-10.1,7.6-19.3,7.6c-15.7,0-25.8-10.4-25.8-24.5
			c0-14,10.7-24.5,24.4-24.5c15.6,0,24.4,11.8,23.6,28.3H61.1C62.4,246.6,67.2,250.9,75.6,250.9 M86.8,231.9
			c-1-6.4-4.8-11.1-12.4-11.1c-7.1,0-12,4-13.3,11.1H86.8z"/>
		<path class="st0" d="M159,236c0-15,11.2-24.4,23.6-24.4c6.2,0,12.2,2.7,15.7,7.1v-27.7h10v68.6h-10V253c-3.6,4.6-9.5,7.4-15.8,7.4
			C170.5,260.4,159,250.9,159,236 M198.8,235.9c0-8.4-6.3-15.2-14.9-15.2c-8.4,0-14.9,6.7-14.9,15.2s6.5,15.3,14.9,15.3
			C192.5,251.2,198.8,244.3,198.8,235.9"/>
		<path class="st0" d="M272.3,249.5l9.1-4.7c2.6,4.3,6.7,6.9,12.1,6.9c5.7,0,8.6-2.9,8.6-6.2c0-3.8-5.5-4.6-11.4-5.8
			c-8-1.7-16.3-4.3-16.3-14c0-7.4,7.1-14.3,18.2-14.2c8.8,0,15.3,3.5,19,9.1l-8.4,4.6c-2.2-3.3-5.8-5.4-10.6-5.4
			c-5.4,0-8.1,2.6-8.1,5.6c0,3.4,4.3,4.3,11.1,5.8c7.7,1.7,16.5,4.2,16.5,14c0,6.5-5.7,15.2-19.1,15.1
			C283.2,260.4,276.3,256.5,272.3,249.5"/>
		<polygon class="st0" points="339.2,238.6 331.3,247.3 331.3,259.5 321.3,259.5 321.3,190.9 331.3,190.9 331.3,235.8 352.5,212.5 
			364.7,212.5 346.3,232.6 365.2,259.5 353.8,259.5 		"/>
		<path class="st0" d="M128.8,211.5c-11.9,0-21.8,7.7-21.8,20.5v27.5h10.2v-26.2c0-7.7,4.4-12.3,12-12.3c7.6,0,11.3,4.6,11.3,12.3
			v26.2h10.2V232C150.6,219.2,140.7,211.5,128.8,211.5"/>
	</g>
</g>
</svg>