<svg xmlns="http://www.w3.org/2000/svg" viewBox="0 0 803.45 945.4"><defs><style>.cls-1{fill:#009177;}.cls-2{fill:#fff;}.cls-3,.cls-6{fill:none;}.cls-3{stroke:gray;stroke-miterlimit:10;stroke-width:3px;}.cls-4{fill:#e5f2ea;}.cls-5{fill:#2c2f67;}.cls-7{fill:#62d39a;}.cls-8{fill:#00b798;}.cls-9{fill:#2581f4;}.cls-10{fill:#26d1c4;}.cls-11{fill:#5e65ad;}.cls-12{fill:#3e414a;}.cls-13{fill:#ff7b57;}.cls-14{fill:#007ae5;}.cls-15{fill:#3cb7f7;}</style></defs><title>buyers-guide-cover</title><g id="Layer_2" data-name="Layer 2"><g id="Layer_1-2" data-name="Layer 1"><path class="cls-1" d="M539.64,0H786a17.66,17.66,0,0,1,17.44,17.87V927.53A17.66,17.66,0,0,1,786,945.4H539.64"/><rect class="cls-2" x="721.56" width="60.39" height="945.4"/><line class="cls-3" x1="739.22" x2="739.22" y2="945.4"/><line class="cls-3" x1="755.23" x2="755.23" y2="945.4"/><line class="cls-3" x1="770.13" x2="770.13" y2="945.4"/><rect class="cls-4" width="725.92" height="945.4"/><path class="cls-5" d="M58.69,259.73H80.12c12.52,0,20.09,7.41,20.09,18.13V278c0,12.14-9.45,18.44-21.21,18.44H70.23v15.73H58.69Zm20.68,26.45c5.77,0,9.15-3.45,9.15-7.94v-.15c0-5.17-3.6-7.95-9.37-7.95H70.23v16Z"/><path class="cls-5" d="M105,259.73h12.44l13.79,22.18L145,259.73h12.44v52.45H146V277.94l-14.76,22.4h-.3l-14.61-22.18v34H105Z"/><path class="cls-5" d="M162.33,279.14c5.17-.53,7.72-3.15,7.34-7.42H165v-12h12.15v10.11c0,9.89-4.95,13.87-13.87,14Z"/><path class="cls-5" d="M178.51,306.86l4.87-7.49c4.35,3.15,8.92,4.8,12.67,4.8,3.3,0,4.79-1.2,4.79-3V301c0-2.47-3.89-3.3-8.31-4.65-5.62-1.65-12-4.27-12-12.06v-.15c0-8.17,6.59-12.74,14.68-12.74a27.79,27.79,0,0,1,15,4.64l-4.34,7.87c-4-2.32-8-3.75-10.87-3.75s-4.2,1.2-4.2,2.78v.15c0,2.25,3.82,3.29,8.17,4.79,5.62,1.88,12.14,4.58,12.14,11.92V300c0,8.92-6.67,13-15.36,13A28.13,28.13,0,0,1,178.51,306.86Z"/><path class="cls-5" d="M234.49,320.13l3.9-8.54A26.22,26.22,0,0,0,252,315.26c7.79,0,11.47-3.75,11.47-10.94v-1.95c-3.38,4-7.05,6.52-13.12,6.52-9.37,0-17.83-6.82-17.83-18.74V290c0-12,8.61-18.73,17.83-18.73,6.22,0,9.89,2.62,13,6V272h11.39v31.1c0,7.19-1.73,12.44-5.1,15.81-3.75,3.75-9.52,5.4-17.31,5.4A38.07,38.07,0,0,1,234.49,320.13Zm28.93-30V290c0-5.47-4.28-9.29-9.82-9.29s-9.74,3.82-9.74,9.29v.15c0,5.55,4.19,9.29,9.74,9.29S263.42,295.62,263.42,290.15Z"/><path class="cls-5" d="M280.8,298V272h11.39v22.4c0,5.4,2.55,8.17,6.89,8.17s7.12-2.77,7.12-8.17V272h11.4v40.16H306.2v-5.69c-2.62,3.37-6,6.44-11.76,6.44C285.82,312.93,280.8,307.24,280.8,298Z"/><path class="cls-5" d="M324.26,257.48h12v10.11h-12Zm.3,14.54H336v40.16H324.56Z"/><path class="cls-5" d="M341.12,292.18V292c0-13.42,8.77-20.76,18.29-20.76a15.42,15.42,0,0,1,12.51,6V257.48h11.39v54.7H371.92v-5.77a14.73,14.73,0,0,1-12.51,6.52C350,312.93,341.12,305.59,341.12,292.18Zm30.95,0V292c0-6.67-4.42-11.1-9.74-11.1s-9.82,4.35-9.82,11.1v.15c0,6.66,4.5,11.09,9.82,11.09S372.07,298.84,372.07,292.18Z"/><path class="cls-5" d="M387.81,292.32v-.14c0-11.47,8.16-20.91,19.85-20.91,13.42,0,19.56,10.41,19.56,21.8,0,.9-.07,1.95-.15,3H399.12c1.13,5.17,4.72,7.87,9.82,7.87,3.82,0,6.59-1.2,9.74-4.12l6.52,5.77c-3.75,4.65-9.14,7.49-16.41,7.49C396.72,313.08,387.81,304.62,387.81,292.32ZM416.13,289c-.67-5.09-3.67-8.54-8.47-8.54s-7.79,3.37-8.69,8.54Z"/><path class="cls-5" d="M68.19,216H59.56v-5.76h23.5V216H74.43v22.61H68.19Z"/><path class="cls-5" d="M85,209h6.16V220c1.42-1.83,3.24-3.49,6.36-3.49,4.66,0,7.38,3.08,7.38,8.07v14.06H98.7V226.47c0-2.92-1.38-4.42-3.73-4.42s-3.85,1.5-3.85,4.42v12.12H85Z"/><path class="cls-5" d="M107.12,227.85v-.08c0-6.2,4.42-11.31,10.74-11.31,7.26,0,10.58,5.63,10.58,11.79,0,.49,0,1.06-.08,1.62H113.24a5,5,0,0,0,5.31,4.26,7.12,7.12,0,0,0,5.27-2.23l3.53,3.12a10.89,10.89,0,0,1-8.88,4C112,239.07,107.12,234.49,107.12,227.85ZM122.44,226c-.36-2.75-2-4.61-4.58-4.61s-4.21,1.82-4.7,4.61Z"/><path class="cls-5" d="M451.47,295.06V284.77h-2.59V279.5h2.59V274h6.16v5.55h5.11v5.27h-5.11v9.28c0,1.42.61,2.11,2,2.11a6.35,6.35,0,0,0,3-.77v4.94a9.09,9.09,0,0,1-4.86,1.26C454,301.59,451.47,300.09,451.47,295.06Z"/><path class="cls-5" d="M463.59,290.48v-.08c0-6.24,5-11.3,11.79-11.3s11.71,5,11.71,11.22v.08c0,6.24-5,11.31-11.79,11.31S463.59,296.73,463.59,290.48Zm17.42,0v-.08a5.76,5.76,0,0,0-5.71-6c-3.53,0-5.63,2.71-5.63,5.91v.08a5.77,5.77,0,0,0,5.71,6C478.91,296.4,481,293.69,481,290.48Z"/><path class="cls-5" d="M57.15,345.52H67.79v7.55c2.17-5.18,5.67-8.54,12-8.26v11.13H79.2c-7.07,0-11.41,4.27-11.41,13.23V383H57.15Z"/><path class="cls-5" d="M80,364.48v-.14c0-10.78,8.68-19.53,20.37-19.53s20.23,8.61,20.23,19.39v.14c0,10.78-8.68,19.53-20.37,19.53S80,375.26,80,364.48Zm30.1,0v-.14c0-5.53-4-10.36-9.87-10.36-6.09,0-9.73,4.69-9.73,10.22v.14c0,5.53,4,10.36,9.87,10.36C106.5,374.7,110.14,370,110.14,364.48Z"/><path class="cls-5" d="M122.6,372.25v-.14c0-8.19,6.23-12,15.12-12a26.66,26.66,0,0,1,9.17,1.54v-.63c0-4.41-2.73-6.86-8-6.86a27.6,27.6,0,0,0-10.36,2l-2.66-8.12a33.1,33.1,0,0,1,14.56-3c5.81,0,10,1.54,12.67,4.2s4.06,6.93,4.06,12V383H146.82V379a14.43,14.43,0,0,1-11.34,4.76C128.41,383.73,122.6,379.67,122.6,372.25ZM147,369.8v-1.89a16.5,16.5,0,0,0-6.79-1.4c-4.55,0-7.35,1.82-7.35,5.18v.14c0,2.87,2.38,4.55,5.81,4.55C143.67,376.38,147,373.65,147,369.8Z"/><path class="cls-5" d="M161.09,364.34v-.14c0-12.53,8.19-19.39,17.08-19.39a14.41,14.41,0,0,1,11.69,5.6V331.93H200.5V383H189.86v-5.39a13.78,13.78,0,0,1-11.69,6.09C169.42,383.73,161.09,376.87,161.09,364.34Zm28.91,0v-.14c0-6.23-4.13-10.36-9.1-10.36s-9.17,4.06-9.17,10.36v.14c0,6.23,4.2,10.36,9.17,10.36S190,370.57,190,364.34Z"/><path class="cls-5" d="M206.52,345.52h10.64v5.31c2.45-3.15,5.67-6,11.06-6,4.9,0,8.61,2.17,10.57,5.95,3.29-3.85,7.21-5.95,12.32-5.95,7.91,0,12.67,4.76,12.67,13.79V383H253.14V362.1c0-5-2.24-7.63-6.23-7.63s-6.44,2.59-6.44,7.63V383H229.83V362.1c0-5-2.24-7.63-6.23-7.63s-6.44,2.59-6.44,7.63V383H206.52Z"/><path class="cls-5" d="M267.27,372.25v-.14c0-8.19,6.23-12,15.12-12a26.66,26.66,0,0,1,9.17,1.54v-.63c0-4.41-2.73-6.86-8.05-6.86a27.6,27.6,0,0,0-10.36,2l-2.66-8.12a33.1,33.1,0,0,1,14.56-3c5.81,0,10,1.54,12.67,4.2s4.06,6.93,4.06,12V383H291.49V379a14.43,14.43,0,0,1-11.34,4.76C273.08,383.73,267.27,379.67,267.27,372.25Zm24.43-2.45v-1.89a16.5,16.5,0,0,0-6.79-1.4c-4.55,0-7.35,1.82-7.35,5.18v.14c0,2.87,2.38,4.55,5.81,4.55C288.34,376.38,291.7,373.65,291.7,369.8Z"/><path class="cls-5" d="M307.45,345.52h10.64v5.38a13.78,13.78,0,0,1,11.69-6.09c8.75,0,17.08,6.86,17.08,19.39v.14c0,12.53-8.19,19.39-17.08,19.39a14.41,14.41,0,0,1-11.69-5.6v16.1H307.45Zm28.77,18.82v-.14c0-6.23-4.2-10.36-9.17-10.36S318,358,318,364.2v.14c0,6.23,4.13,10.36,9.1,10.36S336.22,370.64,336.22,364.34Z"/><path class="cls-5" d="M351.2,345.52h10.64v5.38a13.78,13.78,0,0,1,11.69-6.09c8.75,0,17.08,6.86,17.08,19.39v.14c0,12.53-8.19,19.39-17.08,19.39a14.41,14.41,0,0,1-11.69-5.6v16.1H351.2ZM380,364.34v-.14c0-6.23-4.2-10.36-9.17-10.36s-9.1,4.13-9.1,10.36v.14c0,6.23,4.13,10.36,9.1,10.36S380,370.64,380,364.34Z"/><path class="cls-5" d="M395.15,331.93h11.2v9.45h-11.2Zm.28,13.59h10.64V383H395.43Z"/><path class="cls-5" d="M412.58,345.52h10.64v5.31c2.45-3.15,5.6-6,11-6,8.05,0,12.74,5.32,12.74,13.93V383H436.31V362.1c0-5-2.38-7.63-6.44-7.63s-6.65,2.59-6.65,7.63V383H412.58Z"/><path class="cls-5" d="M452.9,390.45l3.64-8a24.48,24.48,0,0,0,12.67,3.43c7.27,0,10.71-3.5,10.71-10.22v-1.82c-3.15,3.78-6.58,6.09-12.25,6.09-8.75,0-16.66-6.37-16.66-17.5v-.14c0-11.2,8.05-17.5,16.66-17.5,5.81,0,9.24,2.45,12.11,5.6v-4.89h10.63v29c0,6.72-1.6,11.62-4.75,14.77-3.5,3.5-8.89,5-16.17,5A35.6,35.6,0,0,1,452.9,390.45Zm27-28v-.14c0-5.11-4-8.68-9.17-8.68s-9.1,3.57-9.1,8.68v.14c0,5.18,3.92,8.68,9.1,8.68S479.92,367.56,479.92,362.45Z"/><path class="cls-5" d="M515.68,372.39V354.61H511.2v-9.09h4.48v-9.6h10.64v9.6h8.82v9.09h-8.82v16c0,2.45,1,3.64,3.43,3.64A10.82,10.82,0,0,0,535,373v8.54a15.69,15.69,0,0,1-8.4,2.17C520.09,383.66,515.68,381.07,515.68,372.39Z"/><path class="cls-5" d="M536.61,364.48v-.14c0-10.78,8.68-19.53,20.37-19.53s20.23,8.61,20.23,19.39v.14c0,10.78-8.68,19.53-20.37,19.53S536.61,375.26,536.61,364.48Zm30.09,0v-.14c0-5.53-4-10.36-9.86-10.36-6.09,0-9.73,4.69-9.73,10.22v.14c0,5.53,4,10.36,9.87,10.36C563.07,374.7,566.7,370,566.7,364.48Z"/><path class="cls-5" d="M579.58,364.48v-.14c0-10.78,8.68-19.53,20.37-19.53s20.23,8.61,20.23,19.39v.14c0,10.78-8.68,19.53-20.37,19.53S579.58,375.26,579.58,364.48Zm30.1,0v-.14c0-5.53-4-10.36-9.87-10.36-6.09,0-9.73,4.69-9.73,10.22v.14c0,5.53,4,10.36,9.87,10.36C606,374.7,609.68,370,609.68,364.48Z"/><path class="cls-5" d="M624.87,331.93h10.64V383H624.87Z"/><path class="cls-5" d="M639.08,378.06l4.55-7c4,2.94,8.32,4.48,11.83,4.48,3.08,0,4.48-1.12,4.48-2.8v-.14c0-2.31-3.64-3.08-7.78-4.34-5.24-1.54-11.2-4-11.2-11.27v-.14c0-7.63,6.17-11.9,13.72-11.9a26,26,0,0,1,14,4.34l-4.06,7.35c-3.72-2.17-7.42-3.5-10.15-3.5s-3.92,1.12-3.92,2.59v.14c0,2.1,3.57,3.08,7.63,4.48,5.24,1.75,11.34,4.27,11.34,11.13v.14c0,8.33-6.23,12.11-14.35,12.11A26.26,26.26,0,0,1,639.08,378.06Z"/><path class="cls-6" d="M403.93,801.94a7,7,0,0,0-7-7h-17a7,7,0,0,0-7,7v27.82a7,7,0,0,1-7,7H346.63a7,7,0,0,1-7-7V602.41a7,7,0,0,0-7-7H315.51a7,7,0,0,0-7,7v19.93a7,7,0,0,1-7,7H282.25a7,7,0,0,1-7-7V602.41a7,7,0,0,0-7-7H250.56a7,7,0,0,0-7,7.05l.12,15.7a16.64,16.64,0,0,1-15.79,16.73A156.28,156.28,0,0,0,92.26,852.49a7,7,0,0,1-3.36,9.14L71.54,870a7,7,0,0,1-9.49-3.56,189.68,189.68,0,0,1-12.86-108,7,7,0,0,0-4.73-7.9l-15.67-5.09a7,7,0,0,0-9,5.32,220.44,220.44,0,0,0-.94,75.11,7,7,0,0,1-5.58,8L0,836.44v30.65a7.25,7.25,0,0,1,1.68-.81L20,860.37a7,7,0,0,1,8.74,4.34A222.82,222.82,0,0,0,79.52,945.4H126a191,191,0,0,1-41.23-40.23,7,7,0,0,1,1.56-10l15.8-11a7,7,0,0,1,9.54,1.45,157.11,157.11,0,0,0,29.09,29.2,7,7,0,0,0,10.36-2.13l8.09-14.35a7,7,0,0,0-1.67-8.86,125.92,125.92,0,0,1,67.68-224,16.84,16.84,0,0,1,17.9,13.71,6.56,6.56,0,0,1,.14,1.39v64a7,7,0,0,1-7,7H216.94a7,7,0,0,1-7-7V711.85a7,7,0,0,0-9.76-6.44,92.73,92.73,0,0,0,29.19,178,7,7,0,0,1,6.56,7v19.3a7,7,0,0,1-7.4,7,124.71,124.71,0,0,1-31.78-6,7,7,0,0,0-8.21,3.24l-8.13,14.42a7,7,0,0,0,3.77,10,156.22,156.22,0,0,0,26,7H337.83a8.24,8.24,0,0,0,1.8-5.13V929.59a7,7,0,0,1,7-7h19.26a7,7,0,0,1,7,7v10.68a8.34,8.34,0,0,0,1.75,5.13h27.57a8.49,8.49,0,0,0,1.72-5.13ZM308.51,910.59a7,7,0,0,1-7,7H282.25a7,7,0,0,1-7-7V855.05a7,7,0,0,0-7-7H235.93a57.16,57.16,0,0,1-56.5-49,7,7,0,0,1,6.92-8.06h19.58a7,7,0,0,1,6.81,5.42,23.86,23.86,0,0,0,23.19,18.39h32.32a7,7,0,0,0,7-7v-134a7,7,0,0,1,7-7h19.26a7,7,0,0,1,7,7Z"/><path class="cls-6" d="M597.15,921.83H509.53a7,7,0,0,0-7,7V945.4H604.15V928.83A7,7,0,0,0,597.15,921.83Z"/><path class="cls-6" d="M0,945.4H35.33A251.76,251.76,0,0,1,0,882.74Z"/><path class="cls-6" d="M701.73,514.84v41.51a7,7,0,0,0,7,7h17.19V509.54H708.73C704.86,509.54,701.73,511,701.73,514.84Z"/><path class="cls-6" d="M675.29,726.17a7,7,0,0,1-7-7V699.91a7,7,0,0,1,7-7h50.63v-96.3H675.29a7,7,0,0,1-7-7V568.24h0V483.1a7,7,0,0,1,7-7h50.63V445.88L0,446.88v27.84H59.74a5.78,5.78,0,0,1,2.69,10.89C37.78,498.76,15,519.43,2.58,531.76A5.84,5.84,0,0,1,.72,533,7.12,7.12,0,0,1,0,536.05v43.87a319.37,319.37,0,0,1,63.7-54.65,7,7,0,0,1,9.78,2.19l10.14,16.39a7,7,0,0,1-2.14,9.54A286.31,286.31,0,0,0,0,634.07v65.16a252.9,252.9,0,0,1,46.47-76,7,7,0,0,1,10-.44L70.53,636a7,7,0,0,1,.43,9.77,220,220,0,0,0-37,58.3,7,7,0,0,0,4.26,9.46l15.58,5.06a7,7,0,0,0,8.57-3.87,190.38,190.38,0,0,1,142-110.67,7,7,0,0,0,5.87-6.95l-.12-16.55a7,7,0,0,0-8.13-6.86,217.07,217.07,0,0,0-101.95,44.53,7,7,0,0,1-9.71-1L78,602.49a7,7,0,0,1,1-10,250.29,250.29,0,0,1,147-54.48,16.8,16.8,0,0,1,17.15,14,7.57,7.57,0,0,1,.12,1.26v1.94a7,7,0,0,0,7,6.95h18a7,7,0,0,0,7-7V514.51a7,7,0,0,0-7-7H235.93a279.9,279.9,0,0,0-119.87,26.61,7,7,0,0,1-9.23-3.21l-8.59-17.25a7,7,0,0,1,3.27-9.46,312.87,312.87,0,0,1,134.42-29.95h63.52a8.94,8.94,0,0,1,9,8.92l.1,74.09a4.89,4.89,0,0,0,4.89,4.89h88.75a7,7,0,0,0,7-7V482.57a7,7,0,0,1,7-7h19.27a7,7,0,0,1,7,7v72.58a7,7,0,0,0,7,7h81.22a7,7,0,0,0,7-7V482.57a7,7,0,0,1,7-7h19.26a7,7,0,0,1,7,7V588.41a7,7,0,0,1-7,7h-184a7,7,0,0,0-7,7V684a7,7,0,0,0,7,7H562a7,7,0,0,1,7,7V850.71a7,7,0,0,1-7,7H542.69a7,7,0,0,1-7-7V731.22a7,7,0,0,0-7-7H379.89a7,7,0,0,0-7,7v23.46a7,7,0,0,0,7,7h50.3a7,7,0,0,1,7,7V945.4h32.08V768.53a7,7,0,0,1,7-7h19.26a7,7,0,0,1,7,7v113a7,7,0,0,0,7,7h87.62a7,7,0,0,0,7-7V664.87a4.44,4.44,0,0,0-1.79-3.06,6.88,6.88,0,0,0-4.53-1.66H578.71a4.58,4.58,0,0,1-.83-.08,6.37,6.37,0,0,0-1.23-.09H410.86a7,7,0,0,1-7-7V633.71a7,7,0,0,1,7-7H689.74a7,7,0,0,1,7,7v19.44a7,7,0,0,1-7,7H644.41a7,7,0,0,0-7,7V945.4h32.88V768.67a7,7,0,0,1,7-7h19.44a7,7,0,0,1,7,7V945.4h22.19V726.17ZM376.13,527.91a7,7,0,0,1-7,7H349.69a7,7,0,0,1-7-7V482.57a7,7,0,0,1,7-7h19.44a7,7,0,0,1,7,7Zm132.55,0a7,7,0,0,1-7,7H482.24a7,7,0,0,1-7-7V482.57a7,7,0,0,1,7-7h19.44a7,7,0,0,1,7,7Zm128.69,61.8a7,7,0,0,1-7,7H610.93a7,7,0,0,1-7-7V482.5a7,7,0,0,1,7-7h19.44a7,7,0,0,1,7,7Z"/><path class="cls-7" d="M430.19,761.68h-50.3a7,7,0,0,1-7-7V731.22a7,7,0,0,1,7-7h148.8a7,7,0,0,1,7,7V850.71a7,7,0,0,0,7,7H562a7,7,0,0,0,7-7V698a7,7,0,0,0-7-7H379.89a7,7,0,0,1-7-7V602.41a7,7,0,0,1,7-7h184a7,7,0,0,0,7-7V482.57a7,7,0,0,0-7-7H544.63a7,7,0,0,0-7,7v72.58a7,7,0,0,1-7,7H449.41a7,7,0,0,1-7-7V482.57a7,7,0,0,0-7-7H416.14a7,7,0,0,0-7,7v72.58a7,7,0,0,1-7,7H313.4a4.89,4.89,0,0,1-4.89-4.89l-.1-74.09a8.94,8.94,0,0,0-9-8.92H235.93A312.87,312.87,0,0,0,101.51,504.2a7,7,0,0,0-3.27,9.46l8.59,17.25a7,7,0,0,0,9.23,3.21,279.9,279.9,0,0,1,119.87-26.61h32.32a7,7,0,0,1,7,7v40.64a7,7,0,0,1-7,7h-18a7,7,0,0,1-7-6.95v-1.94a7.57,7.57,0,0,0-.12-1.26,16.8,16.8,0,0,0-17.15-14A250.29,250.29,0,0,0,79,592.51a7,7,0,0,0-1,10l12.39,14.76a7,7,0,0,0,9.71,1A217.07,217.07,0,0,1,202,573.69a7,7,0,0,1,8.13,6.86l.12,16.55a7,7,0,0,1-5.87,6.95,190.38,190.38,0,0,0-142,110.67,7,7,0,0,1-8.57,3.87l-15.58-5.06A7,7,0,0,1,34,704.07a220,220,0,0,1,37-58.3,7,7,0,0,0-.43-9.77L56.47,622.82a7,7,0,0,0-10,.44A252.9,252.9,0,0,0,0,699.23V836.44l13.24-2.55a7,7,0,0,0,5.58-8,220.44,220.44,0,0,1,.94-75.11,7,7,0,0,1,9-5.32l15.67,5.09a7,7,0,0,1,4.73,7.9,189.68,189.68,0,0,0,12.86,108A7,7,0,0,0,71.54,870l17.36-8.38a7,7,0,0,0,3.36-9.14,156.41,156.41,0,0,1,135.63-217.6,16.64,16.64,0,0,0,15.79-16.73l-.12-15.7a7,7,0,0,1,7-7.05h17.69a7,7,0,0,1,7,7v19.93a7,7,0,0,0,7,7h19.26a7,7,0,0,0,7-7V602.41a7,7,0,0,1,7-7h17.12a7,7,0,0,1,7,7V829.76a7,7,0,0,0,7,7h19.26a7,7,0,0,0,7-7V801.94a7,7,0,0,1,7-7h17a7,7,0,0,1,7,7V940.27a8.49,8.49,0,0,1-1.72,5.13h35V768.68A7,7,0,0,0,430.19,761.68Z"/><path class="cls-7" d="M180.41,928.35l8.13-14.42a7,7,0,0,1,8.21-3.24,124.71,124.71,0,0,0,31.78,6,7,7,0,0,0,7.4-7v-19.3a7,7,0,0,0-6.56-7,92.74,92.74,0,0,1-29.19-178,7,7,0,0,1,9.76,6.44v32.77a7,7,0,0,0,7,7H236.2a7,7,0,0,0,7-7v-64a6.56,6.56,0,0,0-.14-1.39,16.84,16.84,0,0,0-17.9-13.71,125.91,125.91,0,0,0-67.68,224,7,7,0,0,1,1.67,8.86l-8.09,14.35a7,7,0,0,1-10.36,2.13,157.11,157.11,0,0,1-29.09-29.2,7,7,0,0,0-9.54-1.45l-15.8,11a7,7,0,0,0-1.56,10A191,191,0,0,0,126,945.4h84.22a156.22,156.22,0,0,1-26-7A7,7,0,0,1,180.41,928.35Z"/><path class="cls-7" d="M372.89,929.59a7,7,0,0,0-7-7H346.63a7,7,0,0,0-7,7v10.68a8.24,8.24,0,0,1-1.8,5.13h36.81a8.34,8.34,0,0,1-1.75-5.13Z"/><rect class="cls-7" x="475.24" y="475.57" width="33.44" height="59.34" rx="7" ry="7"/><rect class="cls-7" x="603.93" y="475.5" width="33.44" height="121.21" rx="7" ry="7"/><path class="cls-7" d="M696.73,761.67H677.29a7,7,0,0,0-7,7V945.4h33.44V768.67A7,7,0,0,0,696.73,761.67Z"/><rect class="cls-8" x="342.69" y="475.57" width="33.44" height="59.34" rx="7" ry="7"/><path class="cls-8" d="M81.48,553.39a7,7,0,0,0,2.14-9.54L73.48,527.46a7,7,0,0,0-9.78-2.19A319.37,319.37,0,0,0,0,579.92v54.15A286.31,286.31,0,0,1,81.48,553.39Z"/><path class="cls-8" d="M.72,533a6.84,6.84,0,0,1-.72.25v2.81A7.12,7.12,0,0,0,.72,533Z"/><path class="cls-8" d="M20,860.37,1.68,866.28a7.25,7.25,0,0,0-1.68.81v15.65A251.76,251.76,0,0,0,35.33,945.4H79.52a222.82,222.82,0,0,1-50.75-80.69A7,7,0,0,0,20,860.37Z"/><path class="cls-8" d="M301.51,666.78H282.25a7,7,0,0,0-7,7v134a7,7,0,0,1-7,7H235.93a23.86,23.86,0,0,1-23.19-18.39,7,7,0,0,0-6.81-5.42H186.35a7,7,0,0,0-6.92,8.06,57.16,57.16,0,0,0,56.5,49h32.32a7,7,0,0,1,7,7v55.54a7,7,0,0,0,7,7h19.26a7,7,0,0,0,7-7V673.78A7,7,0,0,0,301.51,666.78Z"/><path class="cls-8" d="M668.29,699.91v19.26a7,7,0,0,0,7,7h50.63V692.91H675.29A7,7,0,0,0,668.29,699.91Z"/><path class="cls-8" d="M668.29,483.1v85.14h0v21.37a7,7,0,0,0,7,7h50.63V563.35H708.73a7,7,0,0,1-7-7V514.84c0-3.87,3.13-5.3,7-5.3h17.19V476.1H675.29A7,7,0,0,0,668.29,483.1Z"/><path class="cls-8" d="M637.41,752.91V667.15a7,7,0,0,1,7-7h45.33a7,7,0,0,0,7-7V633.71a7,7,0,0,0-7-7H410.86a7,7,0,0,0-7,7V653a7,7,0,0,0,7,7H576.65a6.37,6.37,0,0,1,1.23.09,4.58,4.58,0,0,0,.83.08h19.12a6.88,6.88,0,0,1,4.53,1.66,4.44,4.44,0,0,1,1.79,3.06v216.7a7,7,0,0,1-7,7H509.53a7,7,0,0,1-7-7v-113a7,7,0,0,0-7-7H476.27a7,7,0,0,0-7,7V945.4h33.26V928.83a7,7,0,0,1,7-7h87.62a7,7,0,0,1,7,7V945.4h33.26V752.91Z"/><path class="cls-7" d="M2.58,531.76c12.43-12.33,35.2-33,59.85-46.15a5.78,5.78,0,0,0-2.69-10.89H0v58.52A6.84,6.84,0,0,0,.72,533,5.84,5.84,0,0,0,2.58,531.76Z"/><circle class="cls-9" cx="108.53" cy="730.69" r="12.62"/><circle class="cls-10" cx="520.44" cy="675.6" r="13.08"/><circle class="cls-11" cx="379.15" cy="62.77" r="12.62"/><path class="cls-6" d="M672.74,146a5,5,0,0,1-5-5V117a5,5,0,0,1,5-5h53.18v-34H613.86a5,5,0,0,1-5-5V0H500.69V72.55a5,5,0,0,1-5,5h-24a5,5,0,0,1-5-5V0h-106V72.55a5,5,0,0,1-5,5h-24a5,5,0,0,1-5-5V0h-39V74.05a5,5,0,0,1-5,5H214.28c-48.33,0-86.08-7.18-129.43-27.74a5,5,0,0,1-2.37-6.74L93.1,23.05a5,5,0,0,1,6.59-2.33C138.38,39,171.13,45.05,214.28,45.05h34.39a5,5,0,0,0,5-5V0H214.28V12.06A258,258,0,0,1,136,0H56.09a5,5,0,0,1,1.13,6.57L44.39,26.85a5,5,0,0,1-7,1.49A325.38,325.38,0,0,1,1.06.64,5.21,5.21,0,0,0,.12,0H0V39.83A352.6,352.6,0,0,0,214.28,112H393.15a5,5,0,0,0,5-5v-72a5,5,0,0,1,5-5h24a5,5,0,0,1,5,5v72a5,5,0,0,0,5,5h95a5,5,0,0,0,5-5v-72a5,5,0,0,1,5-5h24a5,5,0,0,1,5,5v72a5,5,0,0,0,5,5h42.45a5,5,0,0,1,5,5v24c0,2.76-2.23,5-9,5H210.28C136.35,146,63,123.46,0,81.56V166H725.92V146Z"/><path class="cls-6" d="M647.86,44.05h78.06V0H642.86V39.05A5,5,0,0,0,647.86,44.05Z"/><path class="cls-7" d="M214.28,0H136a258,258,0,0,0,78.27,12.06Z"/><path class="cls-8" d="M248.67,45.05H214.28c-43.15,0-75.9-6-114.59-24.33a5,5,0,0,0-6.59,2.33L82.48,44.57a5,5,0,0,0,2.37,6.74C128.2,71.87,166,79.05,214.28,79.05h68.38a5,5,0,0,0,5-5V0h-34V40.05A5,5,0,0,1,248.67,45.05Z"/><path class="cls-8" d="M331.66,77.55h24a5,5,0,0,0,5-5V0h-34V72.55A5,5,0,0,0,331.66,77.55Z"/><path class="cls-8" d="M471.69,77.55h24a5,5,0,0,0,5-5V0h-34V72.55A5,5,0,0,0,471.69,77.55Z"/><path class="cls-7" d="M614.63,146c6.76,0,9-2.24,9-5V117a5,5,0,0,0-5-5H576.18a5,5,0,0,1-5-5v-72a5,5,0,0,0-5-5h-24a5,5,0,0,0-5,5v72a5,5,0,0,1-5,5h-95a5,5,0,0,1-5-5v-72a5,5,0,0,0-5-5h-24a5,5,0,0,0-5,5v72a5,5,0,0,1-5,5H214.28A352.6,352.6,0,0,1,0,39.83V81.56C63,123.46,136.35,146,210.28,146Z"/><path class="cls-7" d="M37.4,28.34a5,5,0,0,0,7-1.49L57.22,6.57A5,5,0,0,0,56.09,0H.12a5.21,5.21,0,0,1,.94.64A325.38,325.38,0,0,0,37.4,28.34Z"/><path class="cls-8" d="M613.86,78.05H725.92v-34H647.86a5,5,0,0,1-5-5V0h-34V73.05A5,5,0,0,0,613.86,78.05Z"/><path class="cls-7" d="M667.74,117v24a5,5,0,0,0,5,5h53.18V112H672.74A5,5,0,0,0,667.74,117Z"/><path class="cls-12" d="M292.63,690a14.6,14.6,0,0,1-14.58-14.59v-17.9a14.59,14.59,0,1,1,29.17,0v17.9A14.6,14.6,0,0,1,292.63,690Zm0-45.08a12.6,12.6,0,0,0-12.58,12.59v17.9a12.59,12.59,0,1,0,25.17,0v-17.9A12.6,12.6,0,0,0,292.63,644.89Z"/><rect class="cls-12" x="291.63" y="656.23" width="2" height="48.4"/><rect class="cls-12" x="291.44" y="670.97" width="8.15" height="2" transform="translate(-388.6 405.78) rotate(-45)"/><rect class="cls-12" x="288.97" y="659.99" width="2" height="7.55" transform="translate(-384.42 399.45) rotate(-45)"/><path class="cls-12" d="M98.69,593A14.61,14.61,0,0,1,84.1,578.4v-7.9a14.59,14.59,0,1,1,29.17,0v7.9A14.6,14.6,0,0,1,98.69,593Zm0-35.08A12.6,12.6,0,0,0,86.1,570.5v7.9a12.59,12.59,0,1,0,25.17,0v-7.9A12.6,12.6,0,0,0,98.69,557.91Z"/><rect class="cls-12" x="97.69" y="567.47" width="2" height="36.19"/><rect class="cls-12" x="97.69" y="575.5" width="6.8" height="2" transform="translate(-378.04 240.34) rotate(-45)"/><path class="cls-12" d="M215.35,123.92a14.6,14.6,0,0,1-14.58-14.59v-7.9a14.59,14.59,0,1,1,29.17,0v7.9A14.61,14.61,0,0,1,215.35,123.92Zm0-35.08a12.59,12.59,0,0,0-12.58,12.59v7.9a12.59,12.59,0,1,0,25.17,0v-7.9A12.59,12.59,0,0,0,215.35,88.84Z"/><rect class="cls-12" x="214.35" y="98.39" width="2" height="36.19"/><rect class="cls-12" x="214.36" y="106.43" width="6.8" height="2" transform="translate(-12.18 185.44) rotate(-45)"/><circle class="cls-13" cx="369.88" cy="892.38" r="10.55"/><path class="cls-10" d="M350.36,861.71v-4.1a.75.75,0,0,0-.75-.74H335.39a.74.74,0,0,0-.74.74V891A35.24,35.24,0,0,1,350.36,861.71Z"/><path class="cls-14" d="M334.65,891v11.18a.74.74,0,0,0,.74.74h14.22a.75.75,0,0,0,.75-.74h0V861.71A35.24,35.24,0,0,0,334.65,891Z"/><path class="cls-15" d="M350.36,861.71V891a19.53,19.53,0,0,1,18.8-19.51.73.73,0,0,0,.72-.73V856.54a.73.73,0,0,0-.75-.74h0A35,35,0,0,0,350.36,861.71Z"/><path class="cls-12" d="M554.22,572.32a14.6,14.6,0,0,1-14.59-14.58V539.83a14.59,14.59,0,0,1,29.17,0v17.91A14.6,14.6,0,0,1,554.22,572.32Zm0-45.07a12.6,12.6,0,0,0-12.59,12.58v17.91a12.59,12.59,0,0,0,25.17,0V539.83A12.59,12.59,0,0,0,554.22,527.25Z"/><rect class="cls-12" x="553.22" y="538.58" width="2" height="48.41"/><rect class="cls-12" x="553.02" y="553.33" width="8.15" height="2" transform="translate(-228.8 556.29) rotate(-45)"/><rect class="cls-12" x="550.55" y="542.34" width="2" height="7.55" transform="translate(-224.62 549.94) rotate(-45)"/><path class="cls-12" d="M107.53,901.6A14.6,14.6,0,0,1,93,887v-7.91a14.59,14.59,0,0,1,29.17,0V887A14.6,14.6,0,0,1,107.53,901.6Zm0-35.07A12.59,12.59,0,0,0,95,879.11V887a12.59,12.59,0,0,0,25.17,0v-7.91A12.6,12.6,0,0,0,107.53,866.53Z"/><rect class="cls-12" x="106.53" y="876.08" width="2" height="36.19"/><rect class="cls-12" x="106.54" y="884.12" width="6.8" height="2" transform="translate(-593.67 336.98) rotate(-45)"/><path class="cls-12" d="M604.21,897.33a14.61,14.61,0,0,1-14.59-14.59v-7.9a14.59,14.59,0,1,1,29.18,0v7.9A14.61,14.61,0,0,1,604.21,897.33Zm0-35.08a12.61,12.61,0,0,0-12.59,12.59v7.9a12.59,12.59,0,1,0,25.18,0v-7.9A12.61,12.61,0,0,0,604.21,862.25Z"/><rect class="cls-12" x="603.21" y="871.8" width="2" height="36.19"/><rect class="cls-12" x="600.8" y="877.44" width="2" height="6.8" transform="translate(-446.58 683.51) rotate(-45)"/><path class="cls-12" d="M554.43,120.36a14.6,14.6,0,0,1-14.58-14.59V87.87a14.59,14.59,0,1,1,29.17,0v17.9A14.6,14.6,0,0,1,554.43,120.36Zm0-45.08a12.6,12.6,0,0,0-12.58,12.59v17.9a12.59,12.59,0,1,0,25.17,0V87.87A12.6,12.6,0,0,0,554.43,75.28Z"/><rect class="cls-12" x="553.43" y="86.62" width="2" height="48.41"/><rect class="cls-12" x="553.24" y="101.36" width="8.15" height="2" transform="translate(90.85 424.06) rotate(-45)"/><rect class="cls-12" x="550.77" y="90.38" width="2" height="7.55" transform="translate(95.03 417.73) rotate(-45)"/><rect class="cls-12" x="477.64" y="674.6" width="22.33" height="2"/><rect class="cls-12" x="466.64" y="674.6" width="6.83" height="2"/><circle class="cls-13" cx="653.08" cy="456.73" r="13.08"/><rect class="cls-12" x="652.08" y="413.94" width="2" height="22.33"/><rect class="cls-12" x="652.08" y="402.94" width="2" height="6.83"/><path class="cls-12" d="M97.41,777.05l-2-.17c.13-1.62.3-3.26.49-4.88l2,.24C97.71,773.83,97.54,775.45,97.41,777.05Z"/><path class="cls-12" d="M98.48,767.87l-2-.3a143.21,143.21,0,0,1,4.62-20.49l1.91.58A142.3,142.3,0,0,0,98.48,767.87Z"/><rect class="cls-12" x="378.15" y="21.55" width="2" height="22.5"/><rect class="cls-12" x="378.15" y="12.87" width="2" height="4.81"/></g></g></svg>