<svg xmlns="http://www.w3.org/2000/svg" viewBox="0 0 87.24 71.39"><defs><style>.cls-1{fill:none;stroke:#3e414a;stroke-miterlimit:10;stroke-width:4px;}.cls-2{fill:#3e414a;}</style></defs><title>icon-about</title><g id="Layer_2" data-name="Layer 2"><g id="Layer_1-2" data-name="Layer 1"><rect class="cls-1" x="9.9" y="2.44" width="59.06" height="74.85" rx="4.1" ry="4.1" transform="translate(-0.44 79.29) rotate(-90)"/><path class="cls-1" d="M10.39,10.33V6.1A4.1,4.1,0,0,1,14.49,2H81.14a4.11,4.11,0,0,1,4.1,4.1V58a4.11,4.11,0,0,1-4.1,4.1H76.85"/><g id="Fg6tAb"><path class="cls-2" d="M46.1,51.78c0,1.26-.36,2.08-1.61,2.36a32.06,32.06,0,0,1-4.63,1.1c-4.23.25-6.27-2.21-5.35-6.36.58-2.64,1.41-5.22,2.05-7.85a12.72,12.72,0,0,0,.34-2.82,1.36,1.36,0,0,0-1.48-1.53c-1.05,0-2.09.16-3.19.26a1.88,1.88,0,0,1,1.64-2.19,33.55,33.55,0,0,1,4.53-1.1c4.11-.3,6.2,2.12,5.34,6.13-.64,2.94-1.54,5.82-2.23,8.76-.77,3.31.37,4.35,3.7,3.48Z"/><path class="cls-2" d="M46.63,26.36a4.12,4.12,0,0,1-8.22,0,4,4,0,0,1,4.12-3.88A4,4,0,0,1,46.63,26.36Z"/></g></g></g></svg>