<svg xmlns="http://www.w3.org/2000/svg" viewBox="0 0 545.31 435"><defs><style>.cls-1{fill:#cbf2da;}.cls-2{fill:#fff;}.cls-3{fill:#231f20;}.cls-4{fill:#3e414a;}.cls-5{fill:#2581f4;}.cls-6{fill:#26d1c4;}.cls-7{fill:#00b798;}.cls-8{fill:#62d39a;}.cls-9{opacity:0.8;}.cls-10{fill:#62d399;}</style></defs><title>slide-3</title><g id="Layer_2" data-name="Layer 2"><g id="Layer_1-2" data-name="Layer 1"><rect class="cls-1" width="545.31" height="435"/><rect class="cls-2" width="198.78" height="435"/><path class="cls-3" d="M43.66,56.13v3.92h6.22v2H43.66V67H41.27V54.13h9.4v2Z"/><path class="cls-3" d="M61.23,62.83H53.52a2.68,2.68,0,0,0,1.06,1.72,3.48,3.48,0,0,0,2.12.63,3.59,3.59,0,0,0,2.67-1.07l1.23,1.42a4.12,4.12,0,0,1-1.67,1.19,6.61,6.61,0,0,1-5.13-.23,4.61,4.61,0,0,1-1.91-1.8,5,5,0,0,1-.67-2.6,5.15,5.15,0,0,1,.65-2.58,4.67,4.67,0,0,1,1.81-1.8,5.32,5.32,0,0,1,2.62-.64,5.17,5.17,0,0,1,2.56.63,4.55,4.55,0,0,1,1.77,1.79,5.41,5.41,0,0,1,.63,2.65Q61.26,62.38,61.23,62.83Zm-6.8-3.27a2.77,2.77,0,0,0-.93,1.74h5.57a2.64,2.64,0,0,0-.9-1.73,2.74,2.74,0,0,0-1.87-.66A2.8,2.8,0,0,0,54.43,59.56Z"/><path class="cls-3" d="M69.81,58.11A4,4,0,0,1,71,61.24V67H68.78V65.81a2.73,2.73,0,0,1-1.2,1,5.25,5.25,0,0,1-3.82,0,2.94,2.94,0,0,1-1.27-1A2.57,2.57,0,0,1,62,64.19a2.6,2.6,0,0,1,1-2.13,4.9,4.9,0,0,1,3.1-.8h2.54v-.15A2,2,0,0,0,68,59.53,2.7,2.7,0,0,0,66.21,59a5.39,5.39,0,0,0-1.63.26,4,4,0,0,0-1.35.72l-.9-1.68a5.56,5.56,0,0,1,1.86-.9,8.19,8.19,0,0,1,2.3-.31A4.82,4.82,0,0,1,69.81,58.11Zm-2.1,7a2.16,2.16,0,0,0,1-1.13V62.79H66.28c-1.32,0-2,.43-2,1.3a1.18,1.18,0,0,0,.49,1,2.31,2.31,0,0,0,1.38.37A3,3,0,0,0,67.71,65.06Z"/><path class="cls-3" d="M79.34,66.47a2.74,2.74,0,0,1-1,.49,4.51,4.51,0,0,1-1.23.17,3.46,3.46,0,0,1-2.5-.85,3.23,3.23,0,0,1-.88-2.46V59.09H72.13V57.25h1.62V55h2.3v2.24h2.63v1.84H76.05v4.67a1.58,1.58,0,0,0,.35,1.1,1.31,1.31,0,0,0,1,.37,2,2,0,0,0,1.29-.4Z"/><path class="cls-3" d="M90.28,57.18V67H88.1V65.75a3.71,3.71,0,0,1-1.38,1,4.47,4.47,0,0,1-1.79.36,3.89,3.89,0,0,1-4.23-4.34V57.18H83v5.3a2.81,2.81,0,0,0,.6,2,2.17,2.17,0,0,0,1.7.66,2.59,2.59,0,0,0,2-.77,3.09,3.09,0,0,0,.73-2.2v-5Z"/><path class="cls-3" d="M98.52,57.07v2.19A2.61,2.61,0,0,0,98,59.2a2.81,2.81,0,0,0-2.1.78,3.16,3.16,0,0,0-.75,2.26V67h-2.3V57.18H95v1.43A3.83,3.83,0,0,1,98.52,57.07Z"/><path class="cls-3" d="M109.12,62.83h-7.71a2.72,2.72,0,0,0,1.06,1.72,3.48,3.48,0,0,0,2.12.63,3.59,3.59,0,0,0,2.67-1.07l1.23,1.42a4.12,4.12,0,0,1-1.67,1.19,6.61,6.61,0,0,1-5.13-.23,4.67,4.67,0,0,1-1.91-1.8,5.11,5.11,0,0,1-.67-2.6,5.05,5.05,0,0,1,.66-2.58,4.54,4.54,0,0,1,1.81-1.8,5.26,5.26,0,0,1,2.61-.64,5.17,5.17,0,0,1,2.56.63,4.48,4.48,0,0,1,1.77,1.79,5.41,5.41,0,0,1,.63,2.65Q109.15,62.38,109.12,62.83Zm-6.8-3.27a2.77,2.77,0,0,0-.93,1.74H107a2.7,2.7,0,0,0-2.78-2.39A2.8,2.8,0,0,0,102.32,59.56Z"/><path class="cls-3" d="M43.71,90.47a6.37,6.37,0,0,1-2.47-2.36,6.62,6.62,0,0,1-.89-3.41,6.52,6.52,0,0,1,.9-3.4,6.4,6.4,0,0,1,2.48-2.36,7.22,7.22,0,0,1,3.52-.86,7.55,7.55,0,0,1,2.89.55,5.87,5.87,0,0,1,2.2,1.6L50.8,81.69a4.49,4.49,0,0,0-3.44-1.51,4.76,4.76,0,0,0-2.37.58,4.1,4.1,0,0,0-1.64,1.61,4.61,4.61,0,0,0-.59,2.33A4.67,4.67,0,0,0,43.35,87,4.16,4.16,0,0,0,45,88.65a4.86,4.86,0,0,0,2.37.58A4.48,4.48,0,0,0,50.8,87.7l1.54,1.47a5.91,5.91,0,0,1-2.21,1.6,7.42,7.42,0,0,1-2.9.55A7.24,7.24,0,0,1,43.71,90.47Z"/><path class="cls-3" d="M55.32,90.63a4.61,4.61,0,0,1-1.86-1.8,5.29,5.29,0,0,1,0-5.19,4.65,4.65,0,0,1,1.86-1.79,6,6,0,0,1,5.39,0,4.74,4.74,0,0,1,1.87,1.79,5.36,5.36,0,0,1,0,5.19,4.7,4.7,0,0,1-1.87,1.8,6,6,0,0,1-5.39,0Zm4.78-2.18a3,3,0,0,0,.83-2.22A3,3,0,0,0,60.1,84a3,3,0,0,0-4.18,0,3.07,3.07,0,0,0-.82,2.23,3,3,0,0,0,.82,2.22,3,3,0,0,0,4.18,0Z"/><path class="cls-3" d="M80.33,82.28a4.35,4.35,0,0,1,1.09,3.23v5.63h-2.3V85.81a2.86,2.86,0,0,0-.57-1.94,2.05,2.05,0,0,0-1.64-.66,2.38,2.38,0,0,0-1.85.77,3.09,3.09,0,0,0-.7,2.18v5h-2.3V85.81a2.86,2.86,0,0,0-.57-1.94,2.05,2.05,0,0,0-1.64-.66A2.4,2.4,0,0,0,68,84a3.13,3.13,0,0,0-.69,2.19v5H65V81.32h2.18v1.25a3.59,3.59,0,0,1,1.38-1,4.79,4.79,0,0,1,1.84-.35,4.52,4.52,0,0,1,2,.41,3.21,3.21,0,0,1,1.35,1.23,4.12,4.12,0,0,1,1.57-1.21,5,5,0,0,1,2.11-.43A4,4,0,0,1,80.33,82.28Z"/><path class="cls-3" d="M91.91,81.83a4.52,4.52,0,0,1,1.78,1.77,5.25,5.25,0,0,1,.64,2.63,5.32,5.32,0,0,1-.64,2.64,4.4,4.4,0,0,1-1.78,1.77,5.17,5.17,0,0,1-2.56.63,4,4,0,0,1-3.15-1.33v4.77H83.9V81.32h2.19v1.29a3.49,3.49,0,0,1,1.41-1,4.8,4.8,0,0,1,1.85-.35A5.27,5.27,0,0,1,91.91,81.83Zm-.73,6.62A3.06,3.06,0,0,0,92,86.23,3.1,3.1,0,0,0,91.18,84a2.81,2.81,0,0,0-2.09-.84,3,3,0,0,0-1.49.37,2.8,2.8,0,0,0-1,1.08,3.56,3.56,0,0,0,0,3.24,2.77,2.77,0,0,0,1,1.07,2.87,2.87,0,0,0,1.49.38A2.78,2.78,0,0,0,91.18,88.45Z"/><path class="cls-3" d="M103,82.25a4,4,0,0,1,1.15,3.13v5.76H102v-1.2a2.68,2.68,0,0,1-1.2,1,5.25,5.25,0,0,1-3.82,0,3,3,0,0,1-1.28-1,2.63,2.63,0,0,1-.45-1.51,2.59,2.59,0,0,1,1-2.13,4.87,4.87,0,0,1,3.09-.8h2.54v-.15a2,2,0,0,0-.61-1.58,2.7,2.7,0,0,0-1.83-.55,5.29,5.29,0,0,0-1.63.26,4,4,0,0,0-1.35.72l-.9-1.68a5.6,5.6,0,0,1,1.85-.9,8.24,8.24,0,0,1,2.3-.31A4.79,4.79,0,0,1,103,82.25Zm-2.09,7a2.14,2.14,0,0,0,.94-1.13V86.93H99.48c-1.32,0-2,.43-2,1.3a1.19,1.19,0,0,0,.5,1,2.31,2.31,0,0,0,1.38.37A3,3,0,0,0,100.91,89.2Z"/><path class="cls-3" d="M112.32,81.21V83.4a3,3,0,0,0-2.63.72,3.11,3.11,0,0,0-.76,2.26v4.76h-2.3V81.32h2.19v1.43A3.84,3.84,0,0,1,112.32,81.21Z"/><path class="cls-3" d="M113.92,79.31a1.33,1.33,0,0,1-.43-1,1.29,1.29,0,0,1,.43-1,1.45,1.45,0,0,1,1-.4,1.51,1.51,0,0,1,1,.38,1.2,1.2,0,0,1,.43,1,1.39,1.39,0,0,1-.42,1,1.42,1.42,0,0,1-1,.41A1.48,1.48,0,0,1,113.92,79.31Zm-.11,2h2.3v9.82h-2.3Z"/><path class="cls-3" d="M119.36,91a6.09,6.09,0,0,1-1.82-.79l.88-1.75a6.12,6.12,0,0,0,1.59.71,6.91,6.91,0,0,0,1.83.26c1.38,0,2.06-.36,2.06-1.08a.72.72,0,0,0-.52-.72,10.13,10.13,0,0,0-1.68-.39,13.34,13.34,0,0,1-2-.42,3,3,0,0,1-1.32-.84,2.29,2.29,0,0,1-.56-1.66A2.59,2.59,0,0,1,119,82.05a5.31,5.31,0,0,1,3.16-.84,9.27,9.27,0,0,1,2,.23,5.9,5.9,0,0,1,1.66.61L125,83.8a5.43,5.43,0,0,0-2.81-.73,3.15,3.15,0,0,0-1.54.3.9.9,0,0,0-.52.8.8.8,0,0,0,.56.78,8.68,8.68,0,0,0,1.74.43,14.32,14.32,0,0,1,1.93.43,3.11,3.11,0,0,1,1.3.81,2.25,2.25,0,0,1,.54,1.61,2.56,2.56,0,0,1-1.2,2.21,5.62,5.62,0,0,1-3.25.83A9.16,9.16,0,0,1,119.36,91Z"/><path class="cls-3" d="M129.4,90.63a4.67,4.67,0,0,1-1.86-1.8,5.36,5.36,0,0,1,0-5.19,4.71,4.71,0,0,1,1.86-1.79,6,6,0,0,1,5.39,0,4.74,4.74,0,0,1,1.87,1.79,5.36,5.36,0,0,1,0,5.19,4.7,4.7,0,0,1-1.87,1.8,6,6,0,0,1-5.39,0Zm4.79-2.18a3,3,0,0,0,.82-2.22,3.07,3.07,0,0,0-.82-2.23,2.85,2.85,0,0,0-2.1-.84A2.8,2.8,0,0,0,130,84a3.11,3.11,0,0,0-.82,2.23,3.07,3.07,0,0,0,.82,2.22,2.77,2.77,0,0,0,2.09.85A2.82,2.82,0,0,0,134.19,88.45Z"/><path class="cls-3" d="M147.63,82.29a4.29,4.29,0,0,1,1.12,3.22v5.63h-2.3V85.81a2.77,2.77,0,0,0-.6-1.94,2.25,2.25,0,0,0-1.73-.66,2.66,2.66,0,0,0-2,.77,3,3,0,0,0-.73,2.19v5h-2.3V81.32h2.19v1.27a3.47,3.47,0,0,1,1.43-1,5.25,5.25,0,0,1,2-.35A4.12,4.12,0,0,1,147.63,82.29Z"/><rect class="cls-4" x="148.85" y="188.68" width="2" height="27.04"/><rect class="cls-4" x="143.72" y="188.68" width="2" height="27.04"/><circle class="cls-5" cx="101.25" cy="169.69" r="8.23"/><circle class="cls-6" cx="145.9" cy="279.26" r="8.01"/><rect class="cls-4" x="144.9" y="253.53" width="2" height="13.68"/><rect class="cls-4" x="144.9" y="246.79" width="2" height="4.19"/><path class="cls-7" d="M72.34,226.76H50.19V189.82c0-29.73,23.74-54.41,53.48-54.7a54.1,54.1,0,0,1,54.32,49,4.57,4.57,0,0,1-4.54,5H140.34a4.57,4.57,0,0,1-4.52-4,31.91,31.91,0,0,0-32.23-27.86c-17.45.33-31.25,14.94-31.25,32.39Z"/><path class="cls-8" d="M198.78,283.19h-32a11.08,11.08,0,0,1-11.08-11.08V239.8a4.56,4.56,0,0,0-4.56-4.56h-9.65a4.57,4.57,0,0,1-4.56-4.57v-13a4.56,4.56,0,0,1,4.56-4.56h25.29a11.08,11.08,0,0,1,11.08,11.08v32.32A4.56,4.56,0,0,0,182.4,261h16.38Z"/><path class="cls-4" d="M81.48,193.12c0-.51,0-1,0-1.55a25.82,25.82,0,0,1,.4-4.48l2,.36a23.64,23.64,0,0,0-.37,4.12c0,.48,0,1,0,1.43Z"/><path class="cls-4" d="M84.67,184.09l-1.89-.65A23.35,23.35,0,0,1,90,173l1.27,1.54A21.35,21.35,0,0,0,84.67,184.09Z"/><path class="cls-8" d="M140.48,302.58a4.56,4.56,0,0,1-4.56-4.56V268.79a11,11,0,0,0-.87-4.31,11.16,11.16,0,0,0-10.28-6.83H71.52A4.56,4.56,0,0,0,67,262.21v13a4.56,4.56,0,0,0,4.56,4.56h37.74l-.05.07a4.56,4.56,0,0,1,4.56,4.56V298a4.56,4.56,0,0,1-4.56,4.56H52.82A4.57,4.57,0,0,1,48.25,298V242.4a4.57,4.57,0,0,1,4.57-4.56H104.2a11.08,11.08,0,0,0,11.08-11.08V192.84A11.31,11.31,0,0,0,104,181.48a11.06,11.06,0,0,0-10.86,11.07v18.58a4.56,4.56,0,0,1-4.56,4.56H37.18A11.08,11.08,0,0,0,26.1,226.76v86.9a11.08,11.08,0,0,0,11.08,11.08h161.6V302.58Z"/><path class="cls-3" d="M235,173.74a6.6,6.6,0,0,1-2.39-1.22l.9-2a7.12,7.12,0,0,0,2.11,1.11,7.84,7.84,0,0,0,2.51.43,4.38,4.38,0,0,0,2.33-.5,1.54,1.54,0,0,0,.77-1.32,1.3,1.3,0,0,0-.43-1,3,3,0,0,0-1.09-.61c-.44-.15-1-.32-1.8-.5a22.69,22.69,0,0,1-2.59-.76,4.31,4.31,0,0,1-1.7-1.19,3.17,3.17,0,0,1-.71-2.19,3.71,3.71,0,0,1,.63-2.11,4.18,4.18,0,0,1,1.9-1.51,7.55,7.55,0,0,1,3.11-.56,9.78,9.78,0,0,1,2.52.32,7,7,0,0,1,2.14.92l-.82,2a8,8,0,0,0-1.92-.82,7.11,7.11,0,0,0-1.94-.28,4,4,0,0,0-2.29.52,1.59,1.59,0,0,0-.75,1.38,1.25,1.25,0,0,0,.43,1,3.15,3.15,0,0,0,1.09.6c.44.14,1,.31,1.8.5a19.09,19.09,0,0,1,2.56.75,4.41,4.41,0,0,1,1.71,1.19,3.14,3.14,0,0,1,.71,2.16,3.7,3.7,0,0,1-.63,2.1,4.4,4.4,0,0,1-1.91,1.5,7.87,7.87,0,0,1-3.12.56A10.87,10.87,0,0,1,235,173.74Z"/><path class="cls-3" d="M256.11,169.46h-8.38a2.89,2.89,0,0,0,1.15,1.87,3.77,3.77,0,0,0,2.31.69,3.91,3.91,0,0,0,2.9-1.16l1.34,1.54a4.64,4.64,0,0,1-1.82,1.3,6.72,6.72,0,0,1-2.48.44,6.65,6.65,0,0,1-3.1-.7,5,5,0,0,1-2.07-1.95,5.88,5.88,0,0,1,0-5.64,4.93,4.93,0,0,1,2-1.95,5.69,5.69,0,0,1,2.84-.7,5.6,5.6,0,0,1,2.79.69,4.84,4.84,0,0,1,1.92,1.94,5.86,5.86,0,0,1,.69,2.89C256.15,168.89,256.13,169.14,256.11,169.46Zm-7.39-3.55a2.94,2.94,0,0,0-1,1.89h6.06a3.11,3.11,0,0,0-5.05-1.89Z"/><path class="cls-3" d="M260.47,173.44a5.16,5.16,0,0,1-2.06-1.95,5.41,5.41,0,0,1-.74-2.83,5.3,5.3,0,0,1,.74-2.82,5,5,0,0,1,2-1.94,6.2,6.2,0,0,1,3-.7,5.75,5.75,0,0,1,2.77.64,4.14,4.14,0,0,1,1.79,1.84l-1.92,1.12a3,3,0,0,0-1.15-1.11,3.36,3.36,0,0,0-3.83.54,3.22,3.22,0,0,0-.92,2.43,3.28,3.28,0,0,0,.91,2.43,3.17,3.17,0,0,0,2.33.91,3.24,3.24,0,0,0,1.51-.37,3.13,3.13,0,0,0,1.15-1.11l1.92,1.12a4.42,4.42,0,0,1-1.81,1.85,5.7,5.7,0,0,1-2.75.65A6.33,6.33,0,0,1,260.47,173.44Z"/><path class="cls-3" d="M280.51,163.32V174h-2.38v-1.36a4,4,0,0,1-1.5,1.11,4.84,4.84,0,0,1-1.94.39,4.65,4.65,0,0,1-3.37-1.19,4.71,4.71,0,0,1-1.23-3.53v-6.1h2.5v5.76a3.07,3.07,0,0,0,.65,2.15,2.39,2.39,0,0,0,1.85.71,2.82,2.82,0,0,0,2.13-.83,3.38,3.38,0,0,0,.79-2.39v-5.4Z"/><path class="cls-3" d="M290,163.2v2.38a3.26,3.26,0,0,0-.58-.06,3,3,0,0,0-2.28.85,3.36,3.36,0,0,0-.82,2.45V174h-2.5V163.32h2.38v1.56A4.16,4.16,0,0,1,290,163.2Z"/><path class="cls-3" d="M292.21,161.13a1.41,1.41,0,0,1-.46-1.07,1.38,1.38,0,0,1,.46-1.07,1.57,1.57,0,0,1,1.14-.43,1.63,1.63,0,0,1,1.14.41,1.33,1.33,0,0,1,.46,1,1.51,1.51,0,0,1-.45,1.11,1.57,1.57,0,0,1-1.15.45A1.61,1.61,0,0,1,292.21,161.13Zm-.12,2.19h2.5V174h-2.5Z"/><path class="cls-3" d="M304.29,173.42a3,3,0,0,1-1.07.54,4.85,4.85,0,0,1-1.33.18,3.78,3.78,0,0,1-2.72-.92,3.56,3.56,0,0,1-1-2.68V165.4h-1.76v-2h1.76V161h2.5v2.44h2.86v2h-2.86v5.08a1.67,1.67,0,0,0,.38,1.19,1.43,1.43,0,0,0,1.1.41,2.23,2.23,0,0,0,1.4-.44Z"/><path class="cls-3" d="M316.17,163.32l-5,11.54a5.49,5.49,0,0,1-1.7,2.45,4.12,4.12,0,0,1-2.42.71,5,5,0,0,1-1.58-.26,3.66,3.66,0,0,1-1.28-.72l1-1.84a2.94,2.94,0,0,0,.85.54,2.61,2.61,0,0,0,1,.2,1.75,1.75,0,0,0,1.09-.34,3.14,3.14,0,0,0,.79-1.14l.18-.42-4.66-10.72H307l3.36,7.9,3.38-7.9Z"/><path class="cls-3" d="M232.18,214a3.9,3.9,0,0,0,2.91,1.33c1.5,0,2.46-.81,2.46-2s-.81-1.63-1.78-2.07l-1.5-.67a2.72,2.72,0,0,1-2-2.46,2.59,2.59,0,0,1,2.87-2.43,3.78,3.78,0,0,1,2.76,1.18l-.41.47a3.11,3.11,0,0,0-2.35-1c-1.31,0-2.18.69-2.18,1.77s1,1.57,1.71,1.9l1.5.66c1.1.5,2.07,1.11,2.07,2.63S237,216,235.08,216a4.35,4.35,0,0,1-3.33-1.48Z"/><path class="cls-3" d="M243.1,208.4c1.71,0,2.76,1.22,2.76,3.33a3.26,3.26,0,0,1,0,.54h-5.19c0,1.82,1.1,3.12,2.72,3.12a3.17,3.17,0,0,0,1.93-.64l.27.51a4,4,0,0,1-2.26.7c-1.85,0-3.33-1.41-3.33-3.76S241.5,208.4,243.1,208.4Zm2.13,3.36c0-1.84-.82-2.79-2.11-2.79s-2.33,1.07-2.48,2.79Z"/><path class="cls-3" d="M250.87,208.4a3,3,0,0,1,2.12.89l-.39.46a2.49,2.49,0,0,0-1.71-.76c-1.47,0-2.61,1.3-2.61,3.21s1,3.18,2.61,3.18a2.92,2.92,0,0,0,1.92-.83l.34.45a3.37,3.37,0,0,1-2.29,1c-1.86,0-3.27-1.38-3.27-3.76S249.12,208.4,250.87,208.4Z"/><path class="cls-3" d="M255.19,208.58h.66v4.53c0,1.53.48,2.25,1.64,2.25.85,0,1.48-.45,2.32-1.47v-5.31h.66v7.2h-.55l-.08-1.2h0a3.18,3.18,0,0,1-2.44,1.38c-1.49,0-2.18-.9-2.18-2.76Z"/><path class="cls-3" d="M263.61,208.58h.57l.06,1.34h0a2.47,2.47,0,0,1,2-1.52,1.48,1.48,0,0,1,.72.15l-.15.6a1.55,1.55,0,0,0-.66-.12c-.64,0-1.41.5-2,1.85v4.9h-.66Z"/><path class="cls-3" d="M268.48,206.26a.6.6,0,1,1,1.2,0,.6.6,0,0,1-1.2,0Zm.26,2.32h.66v7.2h-.66Z"/><path class="cls-3" d="M272.71,209.15h-1.12v-.51l1.14-.06.09-2.08h.57v2.08h2.08v.57h-2.08v4.7c0,.91.22,1.53,1.21,1.53a2.4,2.4,0,0,0,.9-.23l.18.54a4,4,0,0,1-1.17.27c-1.39,0-1.8-.88-1.8-2.17Z"/><path class="cls-3" d="M277.32,218.45c.88,0,1.48-.81,1.84-1.9l.2-.63-3-7.34h.72l1.74,4.53c.23.6.51,1.38.78,2h.06c.23-.63.47-1.41.66-2l1.55-4.53h.67l-2.85,8.1c-.4,1.2-1.12,2.39-2.41,2.39a1.88,1.88,0,0,1-.74-.15l.15-.59A1.72,1.72,0,0,0,277.32,218.45Z"/><path class="cls-3" d="M287.62,206.26a.6.6,0,0,1,1.2,0,.6.6,0,0,1-1.2,0Zm.26,2.32h.66v7.2h-.66Z"/><path class="cls-3" d="M291.17,214.48a3.35,3.35,0,0,0,2.3.91c1.12,0,1.71-.66,1.71-1.42s-.93-1.29-1.76-1.59c-1.09-.39-2.29-.83-2.29-2.06,0-1,.82-1.92,2.32-1.92a3.38,3.38,0,0,1,2.06.75l-.36.47a2.73,2.73,0,0,0-1.73-.65c-1.1,0-1.61.65-1.61,1.31s.83,1.14,1.69,1.45c1.12.42,2.35.8,2.35,2.21a2.15,2.15,0,0,1-2.43,2,4.14,4.14,0,0,1-2.63-1Z"/><path class="cls-3" d="M305.74,211.27c0-1.1-.29-2.28-1.7-2.28a4,4,0,0,0-2.29.84l-.3-.5a4.81,4.81,0,0,1,2.67-.93c1.71,0,2.28,1.23,2.28,2.78v4.6h-.56l-.07-.93h0a4.27,4.27,0,0,1-2.55,1.11,1.89,1.89,0,0,1-2.1-2C301.09,212.39,302.54,211.63,305.74,211.27Zm-2.45,4.12a3.76,3.76,0,0,0,2.45-1.17v-2.44c-3,.34-4,1-4,2.17A1.35,1.35,0,0,0,303.29,215.39Z"/><path class="cls-3" d="M312.88,209.15h-1.13v-.51l1.14-.06.09-2.08h.57v2.08h2.09v.57h-2.09v4.7c0,.91.23,1.53,1.22,1.53a2.44,2.44,0,0,0,.9-.23l.18.54a4,4,0,0,1-1.17.27c-1.4,0-1.8-.88-1.8-2.17Z"/><path class="cls-3" d="M320.24,208.4c1.74,0,3.24,1.38,3.24,3.8S322,216,320.24,216,317,214.58,317,212.2,318.52,208.4,320.24,208.4Zm0,7c1.46,0,2.55-1.29,2.55-3.18S321.7,209,320.24,209s-2.53,1.3-2.53,3.21S318.79,215.38,320.24,215.38Z"/><path class="cls-3" d="M326.68,216.41V219H326V208.58h.57l.06.9h0a4.26,4.26,0,0,1,2.45-1.08c1.92,0,2.88,1.44,2.88,3.68,0,2.44-1.49,3.88-3.18,3.88a3.82,3.82,0,0,1-2.16-.88Zm2.13-1c1.45,0,2.5-1.35,2.5-3.3,0-1.77-.63-3.09-2.28-3.09a3.82,3.82,0,0,0-2.35,1.18v4.28A3.54,3.54,0,0,0,328.81,215.38Z"/><path class="cls-3" d="M340.6,208.4a2.94,2.94,0,0,1,2.11.89l-.39.46a2.45,2.45,0,0,0-1.71-.76c-1.47,0-2.61,1.3-2.61,3.21s1,3.18,2.61,3.18a2.88,2.88,0,0,0,1.92-.83l.35.45a3.39,3.39,0,0,1-2.3,1c-1.86,0-3.27-1.38-3.27-3.76S338.84,208.4,340.6,208.4Z"/><path class="cls-3" d="M347.39,208.4c1.74,0,3.24,1.38,3.24,3.8s-1.5,3.76-3.24,3.76-3.22-1.38-3.22-3.76S345.67,208.4,347.39,208.4Zm0,7c1.46,0,2.55-1.29,2.55-3.18s-1.09-3.21-2.55-3.21-2.53,1.3-2.53,3.21S345.94,215.38,347.39,215.38Z"/><path class="cls-3" d="M353.17,208.58h.57l.06,1.11h0a3.55,3.55,0,0,1,2.48-1.29c1.48,0,2.17.9,2.17,2.76v4.62h-.66v-4.53c0-1.53-.48-2.25-1.65-2.25-.85,0-1.47.45-2.35,1.35v5.43h-.66Z"/><path class="cls-3" d="M364.21,208.4a2.94,2.94,0,0,1,2.11.89l-.39.46a2.45,2.45,0,0,0-1.71-.76c-1.47,0-2.61,1.3-2.61,3.21s1,3.18,2.61,3.18a2.88,2.88,0,0,0,1.92-.83l.35.45a3.39,3.39,0,0,1-2.3,1c-1.86,0-3.27-1.38-3.27-3.76S362.45,208.4,364.21,208.4Z"/><path class="cls-3" d="M370.91,208.4c1.71,0,2.76,1.22,2.76,3.33a3.26,3.26,0,0,1,0,.54h-5.19c0,1.82,1.1,3.12,2.72,3.12a3.17,3.17,0,0,0,1.93-.64l.27.51a4,4,0,0,1-2.26.7c-1.85,0-3.33-1.41-3.33-3.76S369.31,208.4,370.91,208.4Zm2.13,3.36c0-1.84-.82-2.79-2.11-2.79s-2.33,1.07-2.48,2.79Z"/><path class="cls-3" d="M376,208.58h.57l.06,1.34h0a2.47,2.47,0,0,1,2-1.52,1.48,1.48,0,0,1,.72.15l-.15.6a1.55,1.55,0,0,0-.66-.12c-.64,0-1.41.5-2,1.85v4.9H376Z"/><path class="cls-3" d="M381.13,208.58h.57l.06,1.11h0a3.55,3.55,0,0,1,2.48-1.29c1.48,0,2.17.9,2.17,2.76v4.62h-.66v-4.53c0-1.53-.48-2.25-1.65-2.25-.85,0-1.47.45-2.35,1.35v5.43h-.66Z"/><path class="cls-3" d="M395.6,205.6a1.94,1.94,0,0,0-.87-.21c-.76,0-1.12.6-1.12,1.63v1.56h1.66v.57h-1.66v6.63H393v-6.63h-1v-.51l1-.06V207c0-1.43.64-2.16,1.78-2.16a2.67,2.67,0,0,1,1,.24Z"/><path class="cls-3" d="M399.64,208.4c1.74,0,3.24,1.38,3.24,3.8s-1.5,3.76-3.24,3.76-3.23-1.38-3.23-3.76S397.91,208.4,399.64,208.4Zm0,7c1.45,0,2.55-1.29,2.55-3.18s-1.1-3.21-2.55-3.21-2.54,1.3-2.54,3.21S398.18,215.38,399.64,215.38Z"/><path class="cls-3" d="M405.41,208.58H406l.06,1.34h0a2.46,2.46,0,0,1,2-1.52,1.48,1.48,0,0,1,.72.15l-.15.6A1.58,1.58,0,0,0,408,209c-.65,0-1.41.5-2,1.85v4.9h-.66Z"/><path class="cls-3" d="M419.39,215.78l-2.67-4.54h-2.1v4.54h-.69V205.9h2.82c2,0,3.26.72,3.26,2.61a2.59,2.59,0,0,1-2.54,2.68l2.72,4.59Zm-2.82-5.11c1.76,0,2.72-.71,2.72-2.16s-1-2-2.72-2h-1.95v4.19Z"/><path class="cls-3" d="M425.05,208.4c1.74,0,3.24,1.38,3.24,3.8s-1.5,3.76-3.24,3.76-3.23-1.38-3.23-3.76S423.32,208.4,425.05,208.4Zm0,7c1.45,0,2.55-1.29,2.55-3.18s-1.1-3.21-2.55-3.21-2.54,1.3-2.54,3.21S423.59,215.38,425.05,215.38Z"/><path class="cls-3" d="M434.84,211.27c0-1.1-.28-2.28-1.69-2.28a4,4,0,0,0-2.3.84l-.3-.5a4.81,4.81,0,0,1,2.67-.93c1.71,0,2.28,1.23,2.28,2.78v4.6H435l-.08-.93h0a4.22,4.22,0,0,1-2.55,1.11,1.89,1.89,0,0,1-2.1-2C430.19,212.39,431.65,211.63,434.84,211.27Zm-2.44,4.12a3.74,3.74,0,0,0,2.44-1.17v-2.44c-2.95.34-4,1-4,2.17A1.35,1.35,0,0,0,432.4,215.39Z"/><path class="cls-3" d="M441.05,208.4a3.32,3.32,0,0,1,2.18.89l0-1.32v-3h.66v10.78h-.57l-.06-.93h-.05a3.34,3.34,0,0,1-2.34,1.11c-1.81,0-3-1.33-3-3.76S439.34,208.4,441.05,208.4Zm-.12,7a3.25,3.25,0,0,0,2.27-1.19v-4.27a3,3,0,0,0-2.1-.93c-1.44,0-2.54,1.39-2.54,3.21S439.4,215.38,440.93,215.38Z"/><path class="cls-3" d="M447,208.58h.57l.06,1.11h.05a3.31,3.31,0,0,1,2.26-1.29,1.88,1.88,0,0,1,2,1.47,3.6,3.6,0,0,1,2.44-1.47c1.44,0,2.16.9,2.16,2.76v4.62h-.67v-4.53c0-1.53-.51-2.25-1.61-2.25a3.16,3.16,0,0,0-2.16,1.35v5.43h-.66v-4.53c0-1.53-.51-2.25-1.62-2.25a3.22,3.22,0,0,0-2.16,1.35v5.43H447Z"/><path class="cls-3" d="M459.44,208.58h.66v4.53c0,1.53.48,2.25,1.64,2.25.85,0,1.48-.45,2.32-1.47v-5.31h.66v7.2h-.55l-.08-1.2h0a3.18,3.18,0,0,1-2.44,1.38c-1.49,0-2.18-.9-2.18-2.76Z"/><path class="cls-3" d="M467.86,208.58h.57l.06,1.11h0A3.55,3.55,0,0,1,471,208.4c1.48,0,2.17.9,2.17,2.76v4.62h-.66v-4.53c0-1.53-.48-2.25-1.65-2.25-.85,0-1.47.45-2.35,1.35v5.43h-.66Z"/><path class="cls-3" d="M476.21,205h.66V213h0l3.56-4.37h.76l-2.34,2.85,2.73,4.35h-.73l-2.39-3.85-1.62,1.89v2h-.66Z"/><path class="cls-3" d="M233.14,237.41V240h-.66V229.58h.57l.06.9h0a4.23,4.23,0,0,1,2.44-1.08c1.92,0,2.88,1.44,2.88,3.68,0,2.44-1.48,3.88-3.18,3.88a3.84,3.84,0,0,1-2.16-.88Zm2.13-1c1.46,0,2.51-1.35,2.51-3.3,0-1.77-.63-3.09-2.28-3.09a3.84,3.84,0,0,0-2.36,1.18v4.28A3.58,3.58,0,0,0,235.27,236.38Z"/><path class="cls-3" d="M241,229.58h.57l.06,1.34h0a2.47,2.47,0,0,1,2-1.52,1.48,1.48,0,0,1,.72.15l-.15.6a1.55,1.55,0,0,0-.66-.12c-.64,0-1.41.5-2,1.85v4.9H241Z"/><path class="cls-3" d="M248.62,229.4c1.74,0,3.24,1.38,3.24,3.8s-1.5,3.76-3.24,3.76-3.22-1.38-3.22-3.76S246.9,229.4,248.62,229.4Zm0,7c1.46,0,2.55-1.29,2.55-3.18s-1.09-3.21-2.55-3.21-2.53,1.3-2.53,3.21S247.17,236.38,248.62,236.38Z"/><path class="cls-3" d="M253.89,235.48a3.32,3.32,0,0,0,2.29.91c1.13,0,1.71-.66,1.71-1.42s-.93-1.29-1.75-1.59c-1.1-.39-2.3-.83-2.3-2.06,0-1,.83-1.92,2.33-1.92a3.36,3.36,0,0,1,2.05.75l-.36.47a2.73,2.73,0,0,0-1.72-.65c-1.11,0-1.62.65-1.62,1.31s.84,1.14,1.69,1.45c1.13.42,2.36.8,2.36,2.21a2.15,2.15,0,0,1-2.43,2,4.15,4.15,0,0,1-2.64-1Z"/><path class="cls-3" d="M261.51,237.41V240h-.66V229.58h.57l.06.9h0A4.26,4.26,0,0,1,264,229.4c1.92,0,2.88,1.44,2.88,3.68,0,2.44-1.49,3.88-3.18,3.88a3.82,3.82,0,0,1-2.16-.88Zm2.13-1c1.45,0,2.5-1.35,2.5-3.3,0-1.77-.63-3.09-2.28-3.09a3.82,3.82,0,0,0-2.35,1.18v4.28A3.54,3.54,0,0,0,263.64,236.38Z"/><path class="cls-3" d="M271.92,229.4c1.71,0,2.76,1.22,2.76,3.33a3.26,3.26,0,0,1,0,.54h-5.19c0,1.82,1.09,3.12,2.71,3.12a3.2,3.2,0,0,0,1.94-.64l.27.51a4.07,4.07,0,0,1-2.27.7c-1.84,0-3.33-1.41-3.33-3.76S270.31,229.4,271.92,229.4Zm2.13,3.36c0-1.84-.83-2.79-2.12-2.79s-2.32,1.07-2.47,2.79Z"/><path class="cls-3" d="M279.69,229.4a2.94,2.94,0,0,1,2.11.89l-.39.46a2.45,2.45,0,0,0-1.71-.76c-1.47,0-2.61,1.3-2.61,3.21s1,3.18,2.61,3.18a2.88,2.88,0,0,0,1.92-.83l.35.45a3.39,3.39,0,0,1-2.3,1c-1.86,0-3.27-1.38-3.27-3.76S277.93,229.4,279.69,229.4Z"/><path class="cls-3" d="M284.28,230.15h-1.13v-.51l1.14-.06.09-2.08H285v2.08H287v.57H285v4.7c0,.91.23,1.53,1.22,1.53a2.44,2.44,0,0,0,.9-.23l.18.54a4,4,0,0,1-1.17.27c-1.4,0-1.8-.88-1.8-2.17Z"/><path class="cls-3" d="M288.66,235.48a3.32,3.32,0,0,0,2.29.91c1.13,0,1.71-.66,1.71-1.42s-.93-1.29-1.75-1.59c-1.1-.39-2.3-.83-2.3-2.06,0-1,.83-1.92,2.33-1.92a3.36,3.36,0,0,1,2.05.75l-.36.47a2.73,2.73,0,0,0-1.72-.65c-1.11,0-1.62.65-1.62,1.31s.84,1.14,1.69,1.45c1.13.42,2.36.8,2.36,2.21a2.15,2.15,0,0,1-2.43,2,4.15,4.15,0,0,1-2.64-1Z"/><path class="cls-3" d="M303.22,232.27c0-1.1-.28-2.28-1.69-2.28a4,4,0,0,0-2.3.84l-.3-.5a4.81,4.81,0,0,1,2.67-.93c1.71,0,2.28,1.23,2.28,2.78v4.6h-.55l-.08-.93h0a4.22,4.22,0,0,1-2.55,1.11,1.89,1.89,0,0,1-2.1-2C298.57,233.39,300,232.63,303.22,232.27Zm-2.44,4.12a3.74,3.74,0,0,0,2.44-1.17v-2.44c-3,.34-4,1-4,2.17A1.35,1.35,0,0,0,300.78,236.39Z"/><path class="cls-3" d="M306.84,229.58h.57l.06,1.11h0A3.55,3.55,0,0,1,310,229.4c1.48,0,2.17.9,2.17,2.76v4.62h-.66v-4.53c0-1.53-.48-2.25-1.65-2.25-.85,0-1.47.45-2.35,1.35v5.43h-.66Z"/><path class="cls-3" d="M317.79,229.4a3.29,3.29,0,0,1,2.17.89l0-1.32v-3h.66v10.78H320l-.06-.93h0a3.36,3.36,0,0,1-2.34,1.11c-1.82,0-3-1.33-3-3.76S316.08,229.4,317.79,229.4Zm-.12,7a3.23,3.23,0,0,0,2.26-1.19v-4.27a3,3,0,0,0-2.1-.93c-1.44,0-2.53,1.39-2.53,3.21S316.14,236.38,317.67,236.38Z"/><path class="cls-3" d="M327,229.58h.66v4.53c0,1.53.48,2.25,1.64,2.25.85,0,1.48-.45,2.32-1.47v-5.31h.66v7.2h-.56l-.07-1.2h0a3.22,3.22,0,0,1-2.44,1.38c-1.49,0-2.18-.9-2.18-2.76Z"/><path class="cls-3" d="M334.88,235.48a3.35,3.35,0,0,0,2.3.91c1.12,0,1.71-.66,1.71-1.42s-.93-1.29-1.76-1.59c-1.09-.39-2.29-.83-2.29-2.06,0-1,.82-1.92,2.32-1.92a3.38,3.38,0,0,1,2.06.75l-.36.47a2.73,2.73,0,0,0-1.73-.65c-1.1,0-1.61.65-1.61,1.31s.83,1.14,1.69,1.45c1.12.42,2.35.8,2.35,2.21a2.15,2.15,0,0,1-2.43,2,4.19,4.19,0,0,1-2.64-1Z"/><path class="cls-3" d="M344.38,229.4c1.71,0,2.76,1.22,2.76,3.33a3.26,3.26,0,0,1,0,.54h-5.19c0,1.82,1.09,3.12,2.71,3.12a3.2,3.2,0,0,0,1.94-.64l.27.51a4.07,4.07,0,0,1-2.27.7c-1.84,0-3.33-1.41-3.33-3.76S342.77,229.4,344.38,229.4Zm2.13,3.36c0-1.84-.83-2.79-2.12-2.79s-2.32,1.07-2.47,2.79Z"/><path class="cls-3" d="M349.46,229.58H350l.06,1.34h.05a2.46,2.46,0,0,1,2-1.52,1.48,1.48,0,0,1,.72.15l-.15.6a1.58,1.58,0,0,0-.66-.12c-.65,0-1.41.5-2,1.85v4.9h-.66Z"/><path class="cls-3" d="M353.93,235.48a3.35,3.35,0,0,0,2.3.91c1.12,0,1.71-.66,1.71-1.42s-.93-1.29-1.76-1.59c-1.09-.39-2.29-.83-2.29-2.06,0-1,.82-1.92,2.32-1.92a3.38,3.38,0,0,1,2.06.75l-.36.47a2.73,2.73,0,0,0-1.73-.65c-1.11,0-1.62.65-1.62,1.31s.84,1.14,1.7,1.45c1.12.42,2.35.8,2.35,2.21a2.15,2.15,0,0,1-2.43,2,4.19,4.19,0,0,1-2.64-1Z"/><path class="cls-3" d="M368.5,232.27c0-1.1-.29-2.28-1.7-2.28a4,4,0,0,0-2.29.84l-.3-.5a4.81,4.81,0,0,1,2.67-.93c1.71,0,2.28,1.23,2.28,2.78v4.6h-.56l-.07-.93h0A4.27,4.27,0,0,1,366,237a1.89,1.89,0,0,1-2.1-2C363.85,233.39,365.3,232.63,368.5,232.27Zm-2.45,4.12a3.76,3.76,0,0,0,2.45-1.17v-2.44c-3,.34-4,1-4,2.17A1.35,1.35,0,0,0,366.05,236.39Z"/><path class="cls-3" d="M372.11,226h.66v9.91c0,.32.14.47.32.47a1.16,1.16,0,0,0,.27,0l.12.54a1.57,1.57,0,0,1-.48.07c-.59,0-.89-.36-.89-1.14Z"/><path class="cls-3" d="M375.79,227.26a.6.6,0,0,1,1.2,0,.6.6,0,0,1-1.2,0Zm.25,2.32h.66v7.2H376Z"/><path class="cls-3" d="M379.85,226h.66V234h0l3.56-4.37h.76l-2.34,2.85,2.73,4.35h-.73l-2.39-3.85-1.62,1.89v2h-.66Z"/><path class="cls-3" d="M389.54,229.4c1.71,0,2.76,1.22,2.76,3.33a3.26,3.26,0,0,1,0,.54h-5.19c0,1.82,1.1,3.12,2.72,3.12a3.17,3.17,0,0,0,1.93-.64l.27.51a4,4,0,0,1-2.26.7c-1.85,0-3.33-1.41-3.33-3.76S387.94,229.4,389.54,229.4Zm2.13,3.36c0-1.84-.82-2.79-2.11-2.79s-2.33,1.07-2.48,2.79Z"/><path class="cls-3" d="M397.21,232.76h6v.54h-6Z"/><path class="cls-3" d="M409.58,237.41V240h-.66V229.58h.57l.06.9h.05A4.23,4.23,0,0,1,412,229.4c1.92,0,2.88,1.44,2.88,3.68,0,2.44-1.48,3.88-3.18,3.88a3.84,3.84,0,0,1-2.16-.88Zm2.13-1c1.46,0,2.51-1.35,2.51-3.3,0-1.77-.63-3.09-2.28-3.09a3.84,3.84,0,0,0-2.36,1.18v4.28A3.58,3.58,0,0,0,411.71,236.38Z"/><path class="cls-3" d="M417.46,229.58H418l.06,1.34h0a2.47,2.47,0,0,1,2-1.52,1.48,1.48,0,0,1,.72.15l-.15.6a1.55,1.55,0,0,0-.66-.12c-.64,0-1.41.5-2,1.85v4.9h-.66Z"/><path class="cls-3" d="M425.06,229.4c1.74,0,3.24,1.38,3.24,3.8s-1.5,3.76-3.24,3.76-3.22-1.38-3.22-3.76S423.34,229.4,425.06,229.4Zm0,7c1.46,0,2.55-1.29,2.55-3.18s-1.09-3.21-2.55-3.21-2.53,1.3-2.53,3.21S423.61,236.38,425.06,236.38Z"/><path class="cls-3" d="M433.43,229.4a3.32,3.32,0,0,1,2.18.89l0-1.32v-3h.66v10.78h-.57l-.06-.93h-.05a3.34,3.34,0,0,1-2.34,1.11c-1.81,0-3-1.33-3-3.76S431.72,229.4,433.43,229.4Zm-.12,7a3.25,3.25,0,0,0,2.27-1.19v-4.27a3,3,0,0,0-2.1-.93c-1.44,0-2.54,1.39-2.54,3.21S431.78,236.38,433.31,236.38Z"/><path class="cls-3" d="M439.27,229.58h.66v4.53c0,1.53.48,2.25,1.63,2.25.86,0,1.49-.45,2.33-1.47v-5.31h.66v7.2H444l-.07-1.2h0a3.22,3.22,0,0,1-2.45,1.38c-1.48,0-2.17-.9-2.17-2.76Z"/><path class="cls-3" d="M450.37,229.4a2.94,2.94,0,0,1,2.11.89l-.39.46a2.45,2.45,0,0,0-1.71-.76c-1.47,0-2.61,1.3-2.61,3.21s1,3.18,2.61,3.18a2.88,2.88,0,0,0,1.92-.83l.35.45a3.39,3.39,0,0,1-2.3,1c-1.86,0-3.27-1.38-3.27-3.76S448.61,229.4,450.37,229.4Z"/><path class="cls-3" d="M455,230.15h-1.13v-.51l1.14-.06.09-2.08h.57v2.08h2.09v.57h-2.09v4.7c0,.91.23,1.53,1.22,1.53a2.44,2.44,0,0,0,.9-.23l.18.54a4,4,0,0,1-1.17.27c-1.4,0-1.8-.88-1.8-2.17Z"/><path class="cls-3" d="M463.37,230.15h-1.12v-.51l1.14-.06.09-2.08h.57v2.08h2.08v.57h-2.08v4.7c0,.91.22,1.53,1.21,1.53a2.4,2.4,0,0,0,.9-.23l.18.54a4,4,0,0,1-1.17.27c-1.39,0-1.8-.88-1.8-2.17Z"/><path class="cls-3" d="M470.65,229.4c1.71,0,2.76,1.22,2.76,3.33a3.26,3.26,0,0,1,0,.54h-5.19c0,1.82,1.09,3.12,2.71,3.12a3.2,3.2,0,0,0,1.94-.64l.27.51a4.07,4.07,0,0,1-2.27.7c-1.84,0-3.33-1.41-3.33-3.76S469,229.4,470.65,229.4Zm2.13,3.36c0-1.84-.83-2.79-2.12-2.79s-2.32,1.07-2.47,2.79Z"/><path class="cls-3" d="M479.75,232.27c0-1.1-.28-2.28-1.69-2.28a4,4,0,0,0-2.3.84l-.3-.5a4.81,4.81,0,0,1,2.67-.93c1.71,0,2.28,1.23,2.28,2.78v4.6h-.55l-.08-.93h0A4.22,4.22,0,0,1,477.2,237a1.89,1.89,0,0,1-2.1-2C475.1,233.39,476.56,232.63,479.75,232.27Zm-2.44,4.12a3.74,3.74,0,0,0,2.44-1.17v-2.44c-2.95.34-4,1-4,2.17A1.35,1.35,0,0,0,477.31,236.39Z"/><path class="cls-3" d="M483.37,229.58h.57l.06,1.11h0a3.33,3.33,0,0,1,2.27-1.29,1.87,1.87,0,0,1,2,1.47,3.62,3.62,0,0,1,2.45-1.47c1.44,0,2.16.9,2.16,2.76v4.62h-.68v-4.53c0-1.53-.51-2.25-1.6-2.25a3.12,3.12,0,0,0-2.16,1.35v5.43h-.66v-4.53c0-1.53-.51-2.25-1.62-2.25a3.18,3.18,0,0,0-2.16,1.35v5.43h-.66Z"/><path class="cls-3" d="M495.41,235.48a3.35,3.35,0,0,0,2.3.91c1.12,0,1.71-.66,1.71-1.42s-.93-1.29-1.76-1.59c-1.09-.39-2.29-.83-2.29-2.06,0-1,.82-1.92,2.32-1.92a3.38,3.38,0,0,1,2.06.75l-.36.47a2.73,2.73,0,0,0-1.73-.65c-1.11,0-1.62.65-1.62,1.31s.84,1.14,1.7,1.45c1.12.42,2.35.8,2.35,2.21a2.15,2.15,0,0,1-2.43,2,4.19,4.19,0,0,1-2.64-1Z"/><path class="cls-3" d="M232.48,247h.66v9.91c0,.32.14.47.32.47a1.16,1.16,0,0,0,.27,0l.12.54a1.57,1.57,0,0,1-.48.07c-.59,0-.89-.36-.89-1.14Z"/><path class="cls-3" d="M236.16,248.26a.6.6,0,1,1,1.2,0,.6.6,0,0,1-1.2,0Zm.25,2.32h.66v7.2h-.66Z"/><path class="cls-3" d="M240.22,247h.66V255h0l3.56-4.37h.76l-2.34,2.85,2.73,4.35h-.73l-2.39-3.85-1.62,1.89v2h-.66Z"/><path class="cls-3" d="M249.91,250.4c1.71,0,2.76,1.22,2.76,3.33a3.26,3.26,0,0,1,0,.54h-5.19c0,1.82,1.1,3.12,2.72,3.12a3.17,3.17,0,0,0,1.93-.64l.27.51a4,4,0,0,1-2.26.7c-1.85,0-3.33-1.41-3.33-3.76S248.31,250.4,249.91,250.4Zm2.13,3.36c0-1.84-.82-2.79-2.11-2.79s-2.33,1.07-2.48,2.79Z"/><path class="cls-3" d="M258.52,251.15H257.4v-.51l1.14-.06.09-2.08h.57v2.08h2.08v.57H259.2v4.7c0,.91.22,1.53,1.21,1.53a2.4,2.4,0,0,0,.9-.23l.18.54a4,4,0,0,1-1.17.27c-1.39,0-1.8-.88-1.8-2.17Z"/><path class="cls-3" d="M265.89,250.4c1.74,0,3.24,1.38,3.24,3.8s-1.5,3.76-3.24,3.76-3.23-1.38-3.23-3.76S264.16,250.4,265.89,250.4Zm0,7c1.45,0,2.55-1.29,2.55-3.18s-1.1-3.21-2.55-3.21-2.54,1.3-2.54,3.21S264.43,257.38,265.89,257.38Z"/><path class="cls-3" d="M275,247h.66V255h0l3.56-4.37H280l-2.34,2.85,2.73,4.35h-.73l-2.39-3.85-1.62,1.89v2H275Z"/><path class="cls-3" d="M282.36,250.58h.57l.06,1.11h0a3.55,3.55,0,0,1,2.48-1.29c1.48,0,2.17.9,2.17,2.76v4.62H287v-4.53c0-1.53-.48-2.25-1.65-2.25-.85,0-1.47.45-2.35,1.35v5.43h-.66Z"/><path class="cls-3" d="M293.34,250.4c1.74,0,3.24,1.38,3.24,3.8s-1.5,3.76-3.24,3.76-3.23-1.38-3.23-3.76S291.61,250.4,293.34,250.4Zm0,7c1.45,0,2.55-1.29,2.55-3.18s-1.1-3.21-2.55-3.21-2.54,1.3-2.54,3.21S291.88,257.38,293.34,257.38Z"/><path class="cls-3" d="M298.09,250.58h.72l1.29,4.67c.18.66.35,1.27.5,1.92h.06c.16-.65.34-1.26.52-1.92l1.31-4.67h.79l1.31,4.67c.18.66.36,1.27.54,1.92h.06c.16-.65.34-1.26.51-1.92l1.27-4.67h.68l-2.07,7.2h-.87l-1.26-4.47c-.21-.69-.35-1.35-.56-2.05h-.06c-.16.7-.34,1.39-.57,2.08L301,257.78h-.8Z"/><path class="cls-3" d="M313.29,251.15h-1.13v-.51l1.14-.06.09-2.08H314v2.08h2.09v.57H314v4.7c0,.91.23,1.53,1.22,1.53a2.44,2.44,0,0,0,.9-.23l.18.54a4,4,0,0,1-1.17.27c-1.4,0-1.8-.88-1.8-2.17Z"/><path class="cls-3" d="M318.18,247h.66v4.71a3.54,3.54,0,0,1,2.49-1.31c1.48,0,2.17.9,2.17,2.76v4.62h-.66v-4.53c0-1.53-.48-2.25-1.65-2.25-.85,0-1.47.45-2.35,1.35v5.43h-.66Z"/><path class="cls-3" d="M330.71,253.27c0-1.1-.28-2.28-1.69-2.28a4,4,0,0,0-2.29.84l-.3-.5a4.81,4.81,0,0,1,2.67-.93c1.71,0,2.27,1.23,2.27,2.78v4.6h-.55l-.08-.93h0a4.22,4.22,0,0,1-2.54,1.11,1.89,1.89,0,0,1-2.1-2C326.07,254.39,327.52,253.63,330.71,253.27Zm-2.44,4.12a3.72,3.72,0,0,0,2.44-1.17v-2.44c-2.95.34-3.95,1-3.95,2.17A1.35,1.35,0,0,0,328.27,257.39Z"/><path class="cls-3" d="M334.49,251.15h-1.12v-.51l1.14-.06.09-2.08h.57v2.08h2.09v.57h-2.09v4.7c0,.91.22,1.53,1.21,1.53a2.4,2.4,0,0,0,.9-.23l.18.54a4,4,0,0,1-1.16.27c-1.4,0-1.81-.88-1.81-2.17Z"/><path class="cls-3" d="M342.91,251.15h-1.13v-.51l1.14-.06.09-2.08h.57v2.08h2.09v.57h-2.09v4.7c0,.91.23,1.53,1.22,1.53a2.44,2.44,0,0,0,.9-.23l.18.54a4,4,0,0,1-1.17.27c-1.4,0-1.8-.88-1.8-2.17Z"/><path class="cls-3" d="M347.8,247h.66v4.71A3.54,3.54,0,0,1,351,250.4c1.48,0,2.17.9,2.17,2.76v4.62h-.66v-4.53c0-1.53-.48-2.25-1.65-2.25-.85,0-1.47.45-2.35,1.35v5.43h-.66Z"/><path class="cls-3" d="M358.63,250.4c1.71,0,2.76,1.22,2.76,3.33a3.26,3.26,0,0,1,0,.54h-5.19c0,1.82,1.09,3.12,2.71,3.12a3.2,3.2,0,0,0,1.94-.64l.27.51a4.07,4.07,0,0,1-2.27.7c-1.84,0-3.33-1.41-3.33-3.76S357,250.4,358.63,250.4Zm2.13,3.36c0-1.84-.83-2.79-2.12-2.79s-2.32,1.07-2.47,2.79Z"/><path class="cls-3" d="M363.46,248.26a.6.6,0,0,1,1.2,0,.6.6,0,0,1-1.2,0Zm.25,2.32h.66v7.2h-.66Z"/><path class="cls-3" d="M367.52,250.58h.57l.06,1.34h.05a2.46,2.46,0,0,1,2-1.52,1.48,1.48,0,0,1,.72.15l-.15.6a1.58,1.58,0,0,0-.66-.12c-.65,0-1.41.5-2,1.85v4.9h-.66Z"/><path class="cls-3" d="M378.61,250.4a3.29,3.29,0,0,1,2.17.89l0-1.32v-3h.66v10.78h-.57l-.06-.93h0A3.36,3.36,0,0,1,378.4,258c-1.82,0-3-1.33-3-3.76S376.9,250.4,378.61,250.4Zm-.12,7a3.23,3.23,0,0,0,2.26-1.19v-4.27a3,3,0,0,0-2.1-.93c-1.44,0-2.53,1.39-2.53,3.21S377,257.38,378.49,257.38Z"/><path class="cls-3" d="M388.79,253.27c0-1.1-.28-2.28-1.69-2.28a4,4,0,0,0-2.3.84l-.3-.5a4.81,4.81,0,0,1,2.67-.93c1.71,0,2.28,1.23,2.28,2.78v4.6h-.55l-.08-.93h0a4.22,4.22,0,0,1-2.55,1.11,1.89,1.89,0,0,1-2.1-2C384.14,254.39,385.6,253.63,388.79,253.27Zm-2.44,4.12a3.74,3.74,0,0,0,2.44-1.17v-2.44c-3,.34-4,1-4,2.17A1.35,1.35,0,0,0,386.35,257.39Z"/><path class="cls-3" d="M392.57,251.15h-1.12v-.51l1.14-.06.09-2.08h.57v2.08h2.08v.57h-2.08v4.7c0,.91.22,1.53,1.21,1.53a2.4,2.4,0,0,0,.9-.23l.18.54a4,4,0,0,1-1.17.27c-1.39,0-1.8-.88-1.8-2.17Z"/><path class="cls-3" d="M401.39,253.27c0-1.1-.28-2.28-1.69-2.28a4,4,0,0,0-2.3.84l-.3-.5a4.81,4.81,0,0,1,2.67-.93c1.71,0,2.28,1.23,2.28,2.78v4.6h-.55l-.08-.93h0a4.22,4.22,0,0,1-2.55,1.11,1.89,1.89,0,0,1-2.1-2C396.74,254.39,398.2,253.63,401.39,253.27ZM399,257.39a3.74,3.74,0,0,0,2.44-1.17v-2.44c-2.95.34-4,1-4,2.17A1.35,1.35,0,0,0,399,257.39Z"/><path class="cls-3" d="M408.11,248.26a.6.6,0,0,1,1.2,0,.6.6,0,0,1-1.2,0Zm.26,2.32H409v7.2h-.66Z"/><path class="cls-3" d="M411.67,256.48a3.32,3.32,0,0,0,2.29.91c1.13,0,1.71-.66,1.71-1.42s-.93-1.29-1.75-1.59c-1.1-.39-2.3-.83-2.3-2.06,0-1,.83-1.92,2.33-1.92a3.36,3.36,0,0,1,2.05.75l-.36.47a2.73,2.73,0,0,0-1.72-.65c-1.11,0-1.62.65-1.62,1.31s.84,1.14,1.69,1.45c1.13.42,2.36.8,2.36,2.21a2.15,2.15,0,0,1-2.43,2,4.15,4.15,0,0,1-2.64-1Z"/><path class="cls-3" d="M421.48,256.48a3.32,3.32,0,0,0,2.29.91c1.13,0,1.71-.66,1.71-1.42s-.93-1.29-1.75-1.59c-1.1-.39-2.3-.83-2.3-2.06,0-1,.83-1.92,2.33-1.92a3.36,3.36,0,0,1,2.05.75l-.36.47a2.73,2.73,0,0,0-1.72-.65c-1.11,0-1.62.65-1.62,1.31s.84,1.14,1.69,1.45c1.13.42,2.36.8,2.36,2.21a2.15,2.15,0,0,1-2.43,2,4.15,4.15,0,0,1-2.64-1Z"/><path class="cls-3" d="M431,250.4c1.71,0,2.76,1.22,2.76,3.33a3.26,3.26,0,0,1,0,.54h-5.19c0,1.82,1.1,3.12,2.72,3.12a3.17,3.17,0,0,0,1.93-.64l.27.51a4,4,0,0,1-2.26.7c-1.85,0-3.33-1.41-3.33-3.76S429.37,250.4,431,250.4Zm2.13,3.36c0-1.84-.82-2.79-2.11-2.79s-2.33,1.07-2.48,2.79Z"/><path class="cls-3" d="M438.74,250.4a3,3,0,0,1,2.12.89l-.39.46a2.49,2.49,0,0,0-1.71-.76c-1.47,0-2.61,1.3-2.61,3.21s1,3.18,2.61,3.18a2.92,2.92,0,0,0,1.92-.83l.34.45a3.37,3.37,0,0,1-2.29,1c-1.86,0-3.27-1.38-3.27-3.76S437,250.4,438.74,250.4Z"/><path class="cls-3" d="M443.06,250.58h.66v4.53c0,1.53.48,2.25,1.64,2.25.85,0,1.48-.45,2.32-1.47v-5.31h.66v7.2h-.55l-.08-1.2h0a3.18,3.18,0,0,1-2.44,1.38c-1.49,0-2.18-.9-2.18-2.76Z"/><path class="cls-3" d="M451.48,250.58h.57l.06,1.34h0a2.47,2.47,0,0,1,2-1.52,1.48,1.48,0,0,1,.72.15l-.15.6a1.55,1.55,0,0,0-.66-.12c-.64,0-1.41.5-2,1.85v4.9h-.66Z"/><path class="cls-3" d="M459,250.4c1.71,0,2.76,1.22,2.76,3.33a3.26,3.26,0,0,1,0,.54h-5.19c0,1.82,1.1,3.12,2.72,3.12a3.17,3.17,0,0,0,1.93-.64l.27.51a4,4,0,0,1-2.26.7c-1.85,0-3.33-1.41-3.33-3.76S457.39,250.4,459,250.4Zm2.13,3.36c0-1.84-.82-2.79-2.11-2.79s-2.33,1.07-2.48,2.79Z"/><path class="cls-3" d="M464.35,256.6a.68.68,0,0,1,0,1.36.68.68,0,0,1,0-1.36Z"/><path class="cls-3" d="M473.26,248.5h-3.15v-.6h7v.6H474v9.28h-.69Z"/><path class="cls-3" d="M479.23,247h.66v4.71a3.54,3.54,0,0,1,2.49-1.31c1.48,0,2.17.9,2.17,2.76v4.62h-.66v-4.53c0-1.53-.48-2.25-1.65-2.25-.85,0-1.47.45-2.35,1.35v5.43h-.66Z"/><path class="cls-3" d="M487.27,248.26a.6.6,0,0,1,1.2,0,.6.6,0,0,1-1.2,0Zm.25,2.32h.66v7.2h-.66Z"/><path class="cls-3" d="M490.82,256.48a3.35,3.35,0,0,0,2.3.91c1.12,0,1.71-.66,1.71-1.42s-.93-1.29-1.76-1.59c-1.09-.39-2.29-.83-2.29-2.06,0-1,.82-1.92,2.32-1.92a3.38,3.38,0,0,1,2.06.75l-.36.47a2.73,2.73,0,0,0-1.73-.65c-1.11,0-1.62.65-1.62,1.31s.84,1.14,1.7,1.45c1.12.42,2.35.8,2.35,2.21a2.15,2.15,0,0,1-2.43,2,4.19,4.19,0,0,1-2.64-1Z"/><path class="cls-3" d="M500.89,248.26a.6.6,0,1,1,1.2,0,.6.6,0,0,1-1.2,0Zm.25,2.32h.66v7.2h-.66Z"/><path class="cls-3" d="M504.44,256.48a3.35,3.35,0,0,0,2.3.91c1.12,0,1.71-.66,1.71-1.42s-.93-1.29-1.76-1.59c-1.09-.39-2.29-.83-2.29-2.06,0-1,.82-1.92,2.32-1.92a3.38,3.38,0,0,1,2.06.75l-.36.47a2.73,2.73,0,0,0-1.73-.65c-1.11,0-1.62.65-1.62,1.31s.84,1.14,1.7,1.45c1.12.42,2.35.8,2.35,2.21a2.15,2.15,0,0,1-2.43,2,4.19,4.19,0,0,1-2.64-1Z"/><path class="cls-3" d="M232.48,268h.66v4.71a3.54,3.54,0,0,1,2.49-1.31c1.49,0,2.18.9,2.18,2.76v4.62h-.66v-4.53c0-1.53-.48-2.25-1.65-2.25-.86,0-1.47.45-2.36,1.35v5.43h-.66Z"/><path class="cls-3" d="M243.4,271.4c1.74,0,3.24,1.38,3.24,3.8s-1.5,3.76-3.24,3.76-3.22-1.38-3.22-3.76S241.68,271.4,243.4,271.4Zm0,7c1.46,0,2.55-1.29,2.55-3.18S244.86,272,243.4,272s-2.53,1.3-2.53,3.21S242,278.38,243.4,278.38Z"/><path class="cls-3" d="M248.16,271.58h.72l1.29,4.67c.18.66.34,1.27.49,1.92h.06c.17-.65.35-1.26.53-1.92l1.3-4.67h.8l1.3,4.67c.18.66.36,1.27.54,1.92h.06c.17-.65.35-1.26.51-1.92l1.28-4.67h.67l-2.07,7.2h-.87l-1.26-4.47c-.21-.69-.34-1.35-.55-2.05h-.06c-.17.7-.35,1.39-.57,2.08l-1.25,4.44h-.79Z"/><path class="cls-3" d="M265.72,271.4c1.71,0,2.76,1.22,2.76,3.33a3.26,3.26,0,0,1,0,.54h-5.19c0,1.82,1.1,3.12,2.72,3.12a3.17,3.17,0,0,0,1.93-.64l.27.51a4,4,0,0,1-2.26.7c-1.85,0-3.33-1.41-3.33-3.76S264.12,271.4,265.72,271.4Zm2.13,3.36c0-1.84-.82-2.79-2.11-2.79s-2.33,1.07-2.48,2.79Z"/><path class="cls-3" d="M274.83,274.27c0-1.1-.29-2.28-1.7-2.28a4,4,0,0,0-2.29.84l-.3-.5a4.81,4.81,0,0,1,2.67-.93c1.71,0,2.28,1.23,2.28,2.78v4.6h-.56l-.07-.93h0a4.27,4.27,0,0,1-2.55,1.11,1.89,1.89,0,0,1-2.1-2C270.18,275.39,271.63,274.63,274.83,274.27Zm-2.45,4.12a3.76,3.76,0,0,0,2.45-1.17v-2.44c-3,.34-4,1-4,2.17A1.35,1.35,0,0,0,272.38,278.39Z"/><path class="cls-3" d="M281.13,271.4a2.94,2.94,0,0,1,2.11.89l-.39.46a2.45,2.45,0,0,0-1.71-.76c-1.47,0-2.61,1.3-2.61,3.21s1,3.18,2.61,3.18a2.88,2.88,0,0,0,1.92-.83l.35.45a3.39,3.39,0,0,1-2.3,1c-1.86,0-3.27-1.38-3.27-3.76S279.37,271.4,281.13,271.4Z"/><path class="cls-3" d="M285.55,268h.66v4.71a3.54,3.54,0,0,1,2.49-1.31c1.49,0,2.18.9,2.18,2.76v4.62h-.66v-4.53c0-1.53-.48-2.25-1.65-2.25-.86,0-1.47.45-2.36,1.35v5.43h-.66Z"/><path class="cls-3" d="M297.37,272.15h-1.12v-.51l1.14-.06.09-2.08h.57v2.08h2.08v.57h-2.08v4.7c0,.91.22,1.53,1.21,1.53a2.4,2.4,0,0,0,.9-.23l.18.54a4,4,0,0,1-1.17.27c-1.39,0-1.8-.88-1.8-2.17Z"/><path class="cls-3" d="M304.74,271.4c1.74,0,3.23,1.38,3.23,3.8s-1.49,3.76-3.23,3.76-3.23-1.38-3.23-3.76S303,271.4,304.74,271.4Zm0,7c1.45,0,2.55-1.29,2.55-3.18s-1.1-3.21-2.55-3.21-2.54,1.3-2.54,3.21S303.28,278.38,304.74,278.38Z"/><path class="cls-3" d="M313.14,271.4c1.74,0,3.23,1.38,3.23,3.8s-1.49,3.76-3.23,3.76-3.23-1.38-3.23-3.76S311.41,271.4,313.14,271.4Zm0,7c1.45,0,2.54-1.29,2.54-3.18s-1.09-3.21-2.54-3.21-2.54,1.3-2.54,3.21S311.68,278.38,313.14,278.38Z"/><path class="cls-3" d="M318.91,268h.66v9.91c0,.32.13.47.32.47a1.21,1.21,0,0,0,.27,0l.12.54a1.57,1.57,0,0,1-.48.07c-.59,0-.89-.36-.89-1.14Z"/><path class="cls-3" d="M326.2,268h.66v4.71a3.54,3.54,0,0,1,2.49-1.31c1.48,0,2.17.9,2.17,2.76v4.62h-.66v-4.53c0-1.53-.48-2.25-1.65-2.25-.85,0-1.47.45-2.35,1.35v5.43h-.66Z"/><path class="cls-3" d="M338.74,274.27c0-1.1-.29-2.28-1.7-2.28a4,4,0,0,0-2.29.84l-.3-.5a4.81,4.81,0,0,1,2.67-.93c1.71,0,2.28,1.23,2.28,2.78v4.6h-.56l-.07-.93h0a4.27,4.27,0,0,1-2.55,1.11,1.89,1.89,0,0,1-2.1-2C334.09,275.39,335.54,274.63,338.74,274.27Zm-2.45,4.12a3.76,3.76,0,0,0,2.45-1.17v-2.44c-3,.34-4,1-4,2.17A1.35,1.35,0,0,0,336.29,278.39Z"/><path class="cls-3" d="M342.35,271.58h.57l.06,1.11h0a3.51,3.51,0,0,1,2.47-1.29c1.49,0,2.18.9,2.18,2.76v4.62H347v-4.53c0-1.53-.48-2.25-1.65-2.25-.86,0-1.47.45-2.36,1.35v5.43h-.66Z"/><path class="cls-3" d="M353.3,271.4a3.32,3.32,0,0,1,2.18.89l0-1.32v-3h.66v10.78h-.57l-.06-.93h-.05a3.34,3.34,0,0,1-2.34,1.11c-1.81,0-3-1.33-3-3.76S351.59,271.4,353.3,271.4Zm-.12,7a3.25,3.25,0,0,0,2.27-1.19v-4.27a3,3,0,0,0-2.1-.93c-1.44,0-2.54,1.39-2.54,3.21S351.65,278.38,353.18,278.38Z"/><path class="cls-3" d="M359.24,268h.66v9.91c0,.32.14.47.32.47a1.16,1.16,0,0,0,.27,0l.12.54a1.57,1.57,0,0,1-.48.07c-.59,0-.89-.36-.89-1.14Z"/><path class="cls-3" d="M365.71,271.4c1.71,0,2.76,1.22,2.76,3.33a3.26,3.26,0,0,1,0,.54h-5.19c0,1.82,1.09,3.12,2.71,3.12a3.2,3.2,0,0,0,1.94-.64l.27.51a4.07,4.07,0,0,1-2.27.7c-1.84,0-3.33-1.41-3.33-3.76S364.1,271.4,365.71,271.4Zm2.13,3.36c0-1.84-.83-2.79-2.12-2.79s-2.32,1.07-2.47,2.79Z"/><path class="cls-3" d="M370.28,277.48a3.35,3.35,0,0,0,2.3.91c1.12,0,1.71-.66,1.71-1.42s-.93-1.29-1.76-1.59c-1.09-.39-2.29-.83-2.29-2.06,0-1.05.82-1.92,2.32-1.92a3.38,3.38,0,0,1,2.06.75l-.36.47a2.73,2.73,0,0,0-1.73-.65c-1.11,0-1.62.65-1.62,1.31s.84,1.14,1.7,1.45c1.12.42,2.35.8,2.35,2.21a2.15,2.15,0,0,1-2.43,2,4.19,4.19,0,0,1-2.64-1Z"/><path class="cls-3" d="M380.5,271.58h.66v4.53c0,1.53.48,2.25,1.63,2.25.86,0,1.49-.45,2.33-1.47v-5.31h.66v7.2h-.56l-.07-1.2h0a3.22,3.22,0,0,1-2.45,1.38c-1.48,0-2.17-.9-2.17-2.76Z"/><path class="cls-3" d="M388.4,277.48a3.35,3.35,0,0,0,2.3.91c1.12,0,1.71-.66,1.71-1.42s-.93-1.29-1.76-1.59c-1.09-.39-2.29-.83-2.29-2.06,0-1.05.82-1.92,2.32-1.92a3.38,3.38,0,0,1,2.06.75l-.36.47a2.73,2.73,0,0,0-1.73-.65c-1.11,0-1.62.65-1.62,1.31s.84,1.14,1.7,1.45c1.12.42,2.35.8,2.35,2.21a2.15,2.15,0,0,1-2.43,2,4.19,4.19,0,0,1-2.64-1Z"/><path class="cls-3" d="M397.9,271.4c1.71,0,2.76,1.22,2.76,3.33a3.26,3.26,0,0,1,0,.54h-5.19c0,1.82,1.09,3.12,2.71,3.12a3.2,3.2,0,0,0,1.94-.64l.27.51a4.07,4.07,0,0,1-2.27.7c-1.84,0-3.33-1.41-3.33-3.76S396.29,271.4,397.9,271.4Zm2.13,3.36c0-1.84-.83-2.79-2.12-2.79s-2.32,1.07-2.47,2.79Z"/><path class="cls-3" d="M403,271.58h.57l.06,1.34h.05a2.46,2.46,0,0,1,2-1.52,1.48,1.48,0,0,1,.72.15l-.15.6a1.58,1.58,0,0,0-.66-.12c-.65,0-1.41.5-2,1.85v4.9H403Z"/><path class="cls-3" d="M411,277.48a3.35,3.35,0,0,0,2.3.91c1.12,0,1.71-.66,1.71-1.42s-.93-1.29-1.76-1.59c-1.09-.39-2.29-.83-2.29-2.06,0-1.05.82-1.92,2.32-1.92a3.38,3.38,0,0,1,2.06.75l-.36.47a2.73,2.73,0,0,0-1.73-.65c-1.11,0-1.62.65-1.62,1.31s.84,1.14,1.7,1.45c1.12.42,2.35.8,2.35,2.21a2.15,2.15,0,0,1-2.43,2,4.19,4.19,0,0,1-2.64-1Z"/><path class="cls-3" d="M420.46,271.4c1.71,0,2.76,1.22,2.76,3.33a3.26,3.26,0,0,1,0,.54H418c0,1.82,1.09,3.12,2.71,3.12a3.2,3.2,0,0,0,1.94-.64l.27.51a4.07,4.07,0,0,1-2.27.7c-1.84,0-3.33-1.41-3.33-3.76S418.85,271.4,420.46,271.4Zm2.13,3.36c0-1.84-.83-2.79-2.12-2.79s-2.32,1.07-2.47,2.79Z"/><path class="cls-3" d="M428.23,271.4a2.94,2.94,0,0,1,2.11.89l-.39.46a2.45,2.45,0,0,0-1.71-.76c-1.47,0-2.61,1.3-2.61,3.21s1,3.18,2.61,3.18a2.88,2.88,0,0,0,1.92-.83l.35.45a3.39,3.39,0,0,1-2.3,1c-1.86,0-3.27-1.38-3.27-3.76S426.47,271.4,428.23,271.4Z"/><path class="cls-3" d="M432.55,271.58h.66v4.53c0,1.53.48,2.25,1.63,2.25.86,0,1.49-.45,2.33-1.47v-5.31h.66v7.2h-.56l-.07-1.2h0a3.22,3.22,0,0,1-2.45,1.38c-1.48,0-2.17-.9-2.17-2.76Z"/><path class="cls-3" d="M441,271.58h.57l.06,1.34h.05a2.46,2.46,0,0,1,2-1.52,1.48,1.48,0,0,1,.72.15l-.15.6a1.58,1.58,0,0,0-.66-.12c-.65,0-1.41.5-2,1.85v4.9H441Z"/><path class="cls-3" d="M445.84,269.26a.6.6,0,1,1,1.2,0,.6.6,0,0,1-1.2,0Zm.25,2.32h.66v7.2h-.66Z"/><path class="cls-3" d="M450.07,272.15h-1.13v-.51l1.14-.06.09-2.08h.57v2.08h2.09v.57h-2.09v4.7c0,.91.23,1.53,1.22,1.53a2.44,2.44,0,0,0,.9-.23l.18.54a4,4,0,0,1-1.17.27c-1.4,0-1.8-.88-1.8-2.17Z"/><path class="cls-3" d="M454.67,281.45c.89,0,1.49-.81,1.85-1.9l.19-.63-2.95-7.34h.72l1.74,4.53c.22.6.51,1.38.78,2h.06c.22-.63.46-1.41.66-2l1.54-4.53h.68l-2.85,8.1c-.41,1.2-1.13,2.39-2.42,2.39a1.79,1.79,0,0,1-.73-.15l.15-.59A1.66,1.66,0,0,0,454.67,281.45Z"/><path class="cls-3" d="M461.84,277.6a.68.68,0,1,1-.64.69A.64.64,0,0,1,461.84,277.6Z"/><g class="cls-9"><circle class="cls-10" cx="454.26" cy="166.59" r="18.78"/></g><path class="cls-4" d="M464.54,174H445.43a6.76,6.76,0,0,1-6.74-6.74,6.64,6.64,0,0,1,2-4.79,6.48,6.48,0,0,1,4.77-2h.4a9,9,0,0,1,3-4,8.92,8.92,0,0,1,14.37,7h1.34a5.29,5.29,0,0,1,0,10.58Zm-19.11-11.8a4.71,4.71,0,0,0-3.52,1.5,4.88,4.88,0,0,0-1.47,3.56,5,5,0,0,0,5,5h19.11a3.54,3.54,0,0,0,0-7.08h-2.21a.88.88,0,0,1-.88-.88v-.76a7.19,7.19,0,0,0-11.55-5.72,7.25,7.25,0,0,0-2.6,3.77.87.87,0,0,1-.84.62Z"/><g class="cls-9"><circle class="cls-10" cx="403.45" cy="166.59" r="18.78"/></g><path class="cls-4" d="M410,178.79H396.89a2.56,2.56,0,0,1-2.56-2.56v-10.8a2.56,2.56,0,0,1,2.56-2.56H410a2.56,2.56,0,0,1,2.56,2.56v10.8A2.56,2.56,0,0,1,410,178.79Zm-13.12-14.17a.81.81,0,0,0-.81.81v10.8a.81.81,0,0,0,.81.81H410a.81.81,0,0,0,.81-.81v-10.8a.81.81,0,0,0-.81-.81Z"/><path class="cls-4" d="M410,163.74h-1.75v-4.86a4.82,4.82,0,1,0-9.63,0v4.86h-1.75v-4.86a6.57,6.57,0,1,1,13.13,0Z"/><circle class="cls-4" cx="403.45" cy="170.83" r="1.79"/><g class="cls-9"><circle class="cls-10" cx="352.64" cy="166.59" r="18.78"/></g><path class="cls-4" d="M352.64,180.5c-12.07,0-12.21-19.33-12.21-20.15a2,2,0,0,1,1-1.75l10.21-5.67a2,2,0,0,1,1.95,0l10.2,5.67a2,2,0,0,1,1,1.75C364.85,161.17,364.71,180.5,352.64,180.5Zm0-26.07-.12,0-10.21,5.67a.25.25,0,0,0-.13.22c0,.75.12,18.4,10.46,18.4s10.46-17.65,10.46-18.4a.25.25,0,0,0-.13-.22h0l-10.2-5.67A.28.28,0,0,0,352.64,154.43Z"/><path class="cls-4" d="M350.91,172.05a.85.85,0,0,1-.68-.33l-2.52-3.18,1.38-1.08,1.78,2.25a84.41,84.41,0,0,1,6.45-8.33l1.24,1.24c-2.19,2.18-6.88,9-6.93,9a.87.87,0,0,1-.69.38Z"/></g></g></svg>