<svg xmlns="http://www.w3.org/2000/svg" xmlns:xlink="http://www.w3.org/1999/xlink" viewBox="0 0 132.79 36.01"><defs><style>.cls-1{fill:#777878;}.cls-2{fill:#fff;}.cls-3{fill:url(#linear-gradient);}.cls-4{fill:none;}</style><linearGradient id="linear-gradient" x1="17.49" y1="58" x2="17.49" y2="35.61" gradientTransform="matrix(1, 0, 0, -1, 0, 64.81)" gradientUnits="userSpaceOnUse"><stop offset="0" stop-color="#be67ae"/><stop offset="1" stop-color="#884aa3"/></linearGradient></defs><title>apple-music</title><g id="Layer_2" data-name="Layer 2"><g id="notes"><g id="_Group_" data-name="&lt;Group&gt;"><path id="_Path_" data-name="&lt;Path&gt;" class="cls-1" d="M132.78,9.08c0-.33,0-.66,0-1a14.52,14.52,0,0,0-.2-2.15,7.17,7.17,0,0,0-.67-2,6.95,6.95,0,0,0-3-3,7.24,7.24,0,0,0-2.05-.68A14,14,0,0,0,124.7,0H8.09A14.35,14.35,0,0,0,5.93.21a7.19,7.19,0,0,0-2,.68A6.89,6.89,0,0,0,2.15,2.15,6.69,6.69,0,0,0,.88,3.89a7.09,7.09,0,0,0-.67,2A14,14,0,0,0,0,8.09c0,.33,0,.66,0,1V26.94c0,.33,0,.66,0,1a13.87,13.87,0,0,0,.19,2.15,7.07,7.07,0,0,0,.67,2,6.68,6.68,0,0,0,1.27,1.74,6.7,6.7,0,0,0,1.74,1.27,7.17,7.17,0,0,0,2,.68A14.35,14.35,0,0,0,8.09,36H124.7a14.15,14.15,0,0,0,2.15-.19,7.25,7.25,0,0,0,2.05-.68,6.71,6.71,0,0,0,1.74-1.27,6.88,6.88,0,0,0,1.27-1.74,7.18,7.18,0,0,0,.67-2,14.52,14.52,0,0,0,.2-2.15c0-.33,0-.66,0-1s0-.78,0-1.18V10.25C132.79,9.86,132.79,9.47,132.78,9.08Z"/><path id="_Path_2" data-name="&lt;Path&gt;" class="cls-2" d="M132.13,25.76c0,.39,0,.77,0,1.18s0,.65,0,1a13.78,13.78,0,0,1-.19,2.06,6.52,6.52,0,0,1-.6,1.85,6.32,6.32,0,0,1-1.15,1.58,6.2,6.2,0,0,1-1.57,1.14,6.67,6.67,0,0,1-1.86.62,14.5,14.5,0,0,1-2,.18H8.1A14.36,14.36,0,0,1,6,35.16a6.6,6.6,0,0,1-1.86-.62,6.28,6.28,0,0,1-2.72-2.72A6.59,6.59,0,0,1,.86,30a13.43,13.43,0,0,1-.18-2.05c0-.23,0-.46,0-.68V8.79c0-.23,0-.45,0-.69A13.42,13.42,0,0,1,.86,6.05a6.46,6.46,0,0,1,.61-1.86A6.06,6.06,0,0,1,2.62,2.62,6.24,6.24,0,0,1,4.19,1.47,6.58,6.58,0,0,1,6,.86,14.6,14.6,0,0,1,8.1.68H124.68a14.31,14.31,0,0,1,2.05.18,6.62,6.62,0,0,1,1.86.61,6.13,6.13,0,0,1,1.57,1.14,6.3,6.3,0,0,1,1.15,1.57,6.42,6.42,0,0,1,.61,1.87,13.58,13.58,0,0,1,.19,2c0,.32,0,.65,0,1s0,.77,0,1.16V25.76Z"/></g><path id="_Path_3" data-name="&lt;Path&gt;" class="cls-2" d="M132.13,25.76c0,.39,0,.77,0,1.18s0,.65,0,1a13.78,13.78,0,0,1-.19,2.06,6.52,6.52,0,0,1-.6,1.85,6.32,6.32,0,0,1-1.15,1.58,6.2,6.2,0,0,1-1.57,1.14,6.67,6.67,0,0,1-1.86.62,14.5,14.5,0,0,1-2,.18H8.1A14.36,14.36,0,0,1,6,35.16a6.6,6.6,0,0,1-1.86-.62,6.28,6.28,0,0,1-2.72-2.72A6.59,6.59,0,0,1,.86,30a13.43,13.43,0,0,1-.18-2.05c0-.23,0-.46,0-.68V8.79c0-.23,0-.45,0-.69A13.42,13.42,0,0,1,.86,6.05a6.46,6.46,0,0,1,.61-1.86A6.06,6.06,0,0,1,2.62,2.62,6.24,6.24,0,0,1,4.19,1.47,6.58,6.58,0,0,1,6,.86,14.6,14.6,0,0,1,8.1.68H124.68a14.31,14.31,0,0,1,2.05.18,6.62,6.62,0,0,1,1.86.61,6.13,6.13,0,0,1,1.57,1.14,6.3,6.3,0,0,1,1.15,1.57,6.42,6.42,0,0,1,.61,1.87,13.58,13.58,0,0,1,.19,2c0,.32,0,.65,0,1s0,.77,0,1.16V25.76Z"/><g id="_Group_2" data-name="&lt;Group&gt;"><path class="cls-1" d="M37.18,14H33.26V7.58h.81v5.73h3.11Z"/><path class="cls-1" d="M38.16,8.11a.49.49,0,1,1,.48.48A.48.48,0,0,1,38.16,8.11Zm.09,1.26H39V14h-.78Z"/><path class="cls-1" d="M42,9.34a1.54,1.54,0,0,1,1.7,1.34H43c0-.43-.42-.7-1-.7s-.94.27-.94.67.25.52.77.65l.72.17c.94.24,1.28.57,1.28,1.24S43,14.07,42,14.07a1.62,1.62,0,0,1-1.81-1.36h.78c.08.47.46.72,1.08.72s1-.26,1-.67-.19-.49-.72-.63l-.82-.21c-.82-.21-1.22-.62-1.22-1.25C40.27,9.89,41,9.34,42,9.34Z"/><path class="cls-1" d="M45.91,8.26V9.38h.9V10h-.9v2.76c0,.43.18.62.58.62l.32,0V14a2.81,2.81,0,0,1-.49,0c-.85,0-1.19-.35-1.19-1.24V10h-.69V9.38h.69V8.26Z"/><path class="cls-1" d="M51.63,12.7a1.83,1.83,0,0,1-1.94,1.38,2.1,2.1,0,0,1-2.14-2.35,2.12,2.12,0,0,1,2.1-2.39,2,2,0,0,1,2,2.28v.3H48.35v0a1.32,1.32,0,0,0,1.36,1.44,1.12,1.12,0,0,0,1.15-.7Zm-3.27-1.39h2.53A1.22,1.22,0,0,0,49.64,10,1.28,1.28,0,0,0,48.35,11.31Z"/><path class="cls-1" d="M52.74,9.38h.73v.76h0a1.66,1.66,0,0,1,3.08.91v3H55.8V11.18c0-.75-.35-1.16-1.07-1.16a1.18,1.18,0,0,0-1.21,1.31V14h-.78Z"/><path class="cls-1" d="M59.75,11.7a2.16,2.16,0,1,1,4.31,0,2.16,2.16,0,1,1-4.31,0Zm3.51,0c0-1.06-.51-1.69-1.36-1.69s-1.36.63-1.36,1.69.51,1.69,1.36,1.69S63.26,12.76,63.26,11.7Z"/><path class="cls-1" d="M65.11,9.38h.73v.76h0a1.66,1.66,0,0,1,3.08.91v3h-.78V11.18c0-.75-.35-1.16-1.07-1.16a1.18,1.18,0,0,0-1.21,1.31V14h-.78Z"/><path d="M38.61,25.4H35L34.08,28H32.53L36,18.41H37.6L41.05,28H39.48ZM35.33,24.2h2.89L36.8,20h0Z"/><path d="M48.7,24.49c0,2.17-1.16,3.56-2.91,3.56a2.37,2.37,0,0,1-2.2-1.22h0v3.46H42.12V21h1.39v1.16h0a2.48,2.48,0,0,1,2.22-1.23C47.53,20.93,48.7,22.33,48.7,24.49Zm-1.47,0c0-1.41-.73-2.34-1.85-2.34s-1.83.95-1.83,2.34.74,2.35,1.83,2.35S47.22,25.92,47.22,24.49Z"/><path d="M56.44,24.49c0,2.17-1.16,3.56-2.91,3.56a2.37,2.37,0,0,1-2.2-1.22h0v3.46H49.86V21h1.39v1.16h0a2.48,2.48,0,0,1,2.22-1.23C55.27,20.93,56.44,22.33,56.44,24.49Zm-1.47,0c0-1.41-.73-2.34-1.85-2.34s-1.83.95-1.83,2.34.74,2.35,1.83,2.35S55,25.92,55,24.49Z"/><path d="M57.65,18.41h1.43V28H57.65Z"/><path d="M66.84,25.93a2.8,2.8,0,0,1-3,2.14c-2,0-3.29-1.36-3.29-3.54s1.27-3.61,3.23-3.61,3.15,1.33,3.15,3.44v.49H62v.09a1.82,1.82,0,0,0,1.88,2,1.58,1.58,0,0,0,1.61-1ZM62,23.85h3.49a1.68,1.68,0,0,0-1.71-1.77A1.77,1.77,0,0,0,62,23.85Z"/><path d="M75.09,18.41a3,3,0,0,1,3.15,3.15A3,3,0,0,1,75,24.71H73V28H71.5V18.4h3.59ZM73,23.46h1.71a1.79,1.79,0,0,0,2-1.91,1.79,1.79,0,0,0-2-1.9H73v3.8Z"/><path d="M78.92,24.49c0-2.2,1.29-3.58,3.31-3.58s3.31,1.38,3.31,3.58-1.28,3.58-3.31,3.58S78.92,26.7,78.92,24.49Zm5.16,0c0-1.51-.69-2.4-1.85-2.4s-1.85.9-1.85,2.4.69,2.4,1.85,2.4S84.08,26,84.08,24.49Z"/><path d="M86.54,24.49c0-2.16,1.19-3.56,2.92-3.56a2.36,2.36,0,0,1,2.19,1.23h0V18.41h1.44V28H91.72V26.8h0a2.38,2.38,0,0,1-2.22,1.26C87.72,28.06,86.54,26.65,86.54,24.49Zm1.47,0c0,1.43.73,2.35,1.85,2.35s1.84-.93,1.84-2.35-.74-2.34-1.84-2.34S88,23.07,88,24.49Z"/><path d="M99.33,23.4a1.54,1.54,0,0,0-1.65-1.29c-1.1,0-1.83.92-1.83,2.38s.74,2.38,1.85,2.38a1.5,1.5,0,0,0,1.63-1.25h1.38a2.79,2.79,0,0,1-3,2.45c-2,0-3.29-1.36-3.29-3.58s1.3-3.58,3.28-3.58a2.81,2.81,0,0,1,3,2.49H99.33Z"/><path d="M101.62,26c0-1.22.94-1.94,2.68-2l1.86-.11V23.3c0-.79-.52-1.21-1.43-1.21a1.31,1.31,0,0,0-1.41,1H102c0-1.25,1.21-2.16,2.79-2.16s2.82.9,2.82,2.28V28h-1.37V26.84h0a2.49,2.49,0,0,1-2.2,1.25A2.13,2.13,0,0,1,101.62,26Zm4.53-.62v-.54l-1.67.11c-.93.05-1.42.41-1.42,1s.51,1,1.31,1A1.65,1.65,0,0,0,106.15,25.37Z"/><path d="M111.77,20.92c1.55,0,2.65.86,2.69,2.09h-1.35c-.06-.62-.58-1-1.38-1s-1.29.36-1.29.9.35.7,1.07.88l1.18.27c1.41.34,1.94.86,1.94,1.88,0,1.26-1.19,2.12-2.9,2.12S109,27.23,108.86,26h1.42c.1.67.64,1,1.51,1s1.39-.35,1.39-.91-.27-.66-1-.85l-1.25-.31C109.68,24.61,109,24,109,23,109,21.76,110.15,20.92,111.77,20.92Z"/><path d="M117.79,19.35V21h1.33v1.14h-1.33V26c0,.6.27.88.85.88a4.43,4.43,0,0,0,.47,0V28a3.94,3.94,0,0,1-.8.07c-1.41,0-2-.53-2-1.89v-4h-1V21h1V19.35Z"/><path d="M123,20.92c1.55,0,2.65.86,2.69,2.09h-1.35c-.06-.62-.58-1-1.38-1s-1.29.36-1.29.9.35.7,1.07.88l1.18.27c1.41.34,1.94.86,1.94,1.88,0,1.26-1.19,2.12-2.9,2.12s-2.75-.84-2.86-2.12h1.42c.1.67.64,1,1.51,1s1.39-.35,1.39-.91-.27-.66-1-.85l-1.25-.31c-1.26-.31-1.9-.95-1.9-1.92C120.23,21.76,121.34,20.92,123,20.92Z"/></g><g id="_Group_3" data-name="&lt;Group&gt;"><g id="_Group_4" data-name="&lt;Group&gt;"><path id="_Path_4" data-name="&lt;Path&gt;" class="cls-3" d="M28.24,26.22a4.74,4.74,0,0,1-1.43,1.88,4.68,4.68,0,0,1-1.58.82,9.75,9.75,0,0,1-2.71.28H12.45a9.75,9.75,0,0,1-2.71-.28,4.74,4.74,0,0,1-3-2.7A8.79,8.79,0,0,1,6.29,23h0V13h0A8.77,8.77,0,0,1,6.74,9.8a4.74,4.74,0,0,1,3-2.7,9.75,9.75,0,0,1,2.71-.28H22.53a9.75,9.75,0,0,1,2.71.28,4.74,4.74,0,0,1,3,2.7A8.79,8.79,0,0,1,28.69,13V23A8.77,8.77,0,0,1,28.24,26.22Z"/><path id="_Path_5" data-name="&lt;Path&gt;" class="cls-4" d="M28.24,26.22a4.74,4.74,0,0,1-1.43,1.88,4.68,4.68,0,0,1-1.58.82,9.75,9.75,0,0,1-2.71.28H12.45a9.75,9.75,0,0,1-2.71-.28,4.74,4.74,0,0,1-3-2.7A8.79,8.79,0,0,1,6.29,23h0V13h0A8.77,8.77,0,0,1,6.74,9.8a4.74,4.74,0,0,1,3-2.7,9.75,9.75,0,0,1,2.71-.28H22.53a9.75,9.75,0,0,1,2.71.28,4.74,4.74,0,0,1,3,2.7A8.79,8.79,0,0,1,28.69,13V23A8.77,8.77,0,0,1,28.24,26.22Z"/><g id="_Group_5" data-name="&lt;Group&gt;"><path class="cls-2" d="M19.11,19.68a2.24,2.24,0,0,0-1.62-.58,2.24,2.24,0,0,0-1.62.58,1,1,0,0,0-.3.65,8.37,8.37,0,0,0,0,1.69c.06.69.17,1.6.31,2.53a9.71,9.71,0,0,0,.26,1.28,1.27,1.27,0,0,0,1.31.78,1.27,1.27,0,0,0,1.31-.78,9.63,9.63,0,0,0,.26-1.28c.15-.93.26-1.85.31-2.53a8.45,8.45,0,0,0,0-1.69A1,1,0,0,0,19.11,19.68Zm-3.45-3.16a1.83,1.83,0,1,0,1.83-1.83A1.83,1.83,0,0,0,15.66,16.52Zm1.81-7.23A7.87,7.87,0,0,0,14.89,24.6a.11.11,0,0,0,.14-.11c0-.27-.08-.54-.11-.81a.27.27,0,0,0-.16-.21,6.87,6.87,0,1,1,5.48,0,.27.27,0,0,0-.16.21c0,.27-.07.54-.11.81a.11.11,0,0,0,.14.11,7.87,7.87,0,0,0-2.63-15.3Zm-.14,3.61a4.27,4.27,0,0,1,3.09,7.38.33.33,0,0,0-.1.26,7.76,7.76,0,0,1,0,.9.1.1,0,0,0,.16.09,5.27,5.27,0,1,0-5.94,0,.1.1,0,0,0,.16-.09,7.36,7.36,0,0,1,0-.9.33.33,0,0,0-.1-.26,4.27,4.27,0,0,1,2.75-7.38Z"/></g></g></g></g></g></svg>