<svg xmlns="http://www.w3.org/2000/svg" xmlns:xlink="http://www.w3.org/1999/xlink" viewBox="0 0 169.58 79.91"><defs><style>.cls-1{opacity:0.6;}.cls-2{fill:none;}.cls-3{fill:#474747;}.cls-4{fill:url(#linear-gradient);}.cls-5{fill:#757575;}</style><linearGradient id="linear-gradient" x1="82.11" y1="-985.2" x2="68.31" y2="-1009.1" gradientTransform="matrix(1, 0, 0, -1, 0, -950.88)" gradientUnits="userSpaceOnUse"><stop offset="0" stop-color="#474747"/><stop offset="0.92" stop-color="#757575"/></linearGradient></defs><title>logo-atlassian</title><g id="Layer_2" data-name="Layer 2"><g id="Layer_1-2" data-name="Layer 1"><g class="cls-1"><rect class="cls-2" width="169.58" height="79.91"/><g id="Layer_2-2" data-name="Layer 2"><g id="Blue"><path class="cls-3" d="M82.22,65.57c0,1.05.49,1.89,2.4,2.26,1.14.23,1.38.42,1.38.8s-.24.61-1,.61a6,6,0,0,1-2.77-.75V70.2a5.59,5.59,0,0,0,2.75.6c2,0,2.79-.89,2.79-2.21m0,0c0-1.25-.66-1.84-2.53-2.24-1-.23-1.28-.46-1.28-.78s.37-.59,1-.59a5.91,5.91,0,0,1,2.41.6V63.94A5.32,5.32,0,0,0,85,63.45c-1.84,0-2.8.8-2.8,2.12"/><polygon class="cls-3" points="107.89 63.56 107.89 70.69 109.42 70.69 109.42 65.25 110.06 66.7 112.2 70.69 114.12 70.69 114.12 63.56 112.6 63.56 112.6 68.16 112.02 66.83 110.29 63.56 107.89 63.56"/><rect class="cls-3" x="96.56" y="63.56" width="1.66" height="7.13"/><path class="cls-3" d="M94.65,68.59c0-1.25-.67-1.84-2.53-2.24-1-.23-1.29-.46-1.29-.78S91.2,65,91.89,65a6,6,0,0,1,2.41.6V63.94a5.35,5.35,0,0,0-2.36-.49c-1.85,0-2.8.8-2.8,2.12,0,1.05.49,1.89,2.4,2.25,1.14.24,1.38.43,1.38.81s-.24.61-1,.61a6,6,0,0,1-2.77-.75V70.2a5.66,5.66,0,0,0,2.74.6c2,0,2.8-.89,2.8-2.22"/><polygon class="cls-3" points="69.32 63.56 69.32 70.69 72.73 70.69 73.27 69.15 70.99 69.15 70.99 63.56 69.32 63.56"/><polygon class="cls-3" points="62.57 63.56 62.57 65.1 64.42 65.1 64.42 70.69 66.09 70.69 66.09 65.1 68.06 65.1 68.06 63.56 62.57 63.56"/><path class="cls-3" d="M60.14,63.56H58l-2.49,7.13h1.9l.36-1.2a4.63,4.63,0,0,0,2.66,0l.35,1.2h1.9Zm-1.09,4.65a3.21,3.21,0,0,1-.92-.14L59.05,65,60,68.07A3.09,3.09,0,0,1,59.05,68.21Z"/><path class="cls-3" d="M78.62,63.56H76.43l-2.49,7.13h1.9l.35-1.2a4.63,4.63,0,0,0,2.66,0l.36,1.2h1.9Zm-1.1,4.65a3.14,3.14,0,0,1-.91-.14L77.52,65l.92,3.11a3.21,3.21,0,0,1-.92.14Z"/><path class="cls-3" d="M104.21,63.56H102l-2.49,7.13h1.9l.35-1.2a4.67,4.67,0,0,0,2.67,0l.35,1.2h1.9Zm-1.09,4.65a3.21,3.21,0,0,1-.92-.14l.92-3.11.91,3.11a3.14,3.14,0,0,1-.91.14Z"/><path class="cls-4" d="M74.93,30.32A1.5,1.5,0,0,0,72.81,30a1.59,1.59,0,0,0-.46.57L59.28,56.74a1.55,1.55,0,0,0,.7,2.09,1.51,1.51,0,0,0,.7.17h18.2a1.52,1.52,0,0,0,1.4-.86C84.21,50,81.83,37.68,74.93,30.32Z"/><path class="cls-5" d="M84.52,6.54a34.5,34.5,0,0,0-2,34l8.78,17.56a1.54,1.54,0,0,0,1.39.86h18.21a1.56,1.56,0,0,0,1.56-1.56,1.54,1.54,0,0,0-.17-.7S87.8,7.76,87.18,6.53a1.47,1.47,0,0,0-2-.68A1.54,1.54,0,0,0,84.52,6.54Z"/></g></g></g></g></g></svg>