<svg xmlns="http://www.w3.org/2000/svg" viewBox="0 0 169.58 79.91"><defs><style>.cls-1{opacity:0.6;}.cls-2{fill:none;}.cls-3{fill:#474747;}</style></defs><title>logo-squarespace</title><g id="Layer_2" data-name="Layer 2"><g id="Layer_1-2" data-name="Layer 1"><g class="cls-1"><rect class="cls-2" width="169.58" height="79.91"/><path class="cls-3" d="M89.36,48.55l.36-.37q7.43-7.5,14.83-15a5.12,5.12,0,0,0-1.48-8.36,4.94,4.94,0,0,0-5.51,1c-2.23,2.19-4.42,4.42-6.63,6.64q-4.71,4.76-9.43,9.5a2.62,2.62,0,0,1-3.3.55,2.54,2.54,0,0,1-.53-4c1.66-1.63,3.32-3.27,5-4.92Q88.2,28,93.73,22.43a10,10,0,0,1,8.34-3.08,10.13,10.13,0,0,1,8.88,8,10,10,0,0,1-2.76,9.3c-3.85,3.94-7.72,7.84-11.6,11.75A5,5,0,0,1,89.36,48.55Z"/><path class="cls-3" d="M80.48,10.41l-.39.4L65.38,25.68a5.16,5.16,0,0,0-1.28,5.78,5,5,0,0,0,8.3,1.6c2.25-2.22,4.46-4.48,6.69-6.72l8.54-8.59c.22-.23.43-.47.63-.71a2.54,2.54,0,0,1,3.51-.39,2.57,2.57,0,0,1,.48,3.5,5.2,5.2,0,0,1-.38.44q-7.91,8-15.79,16A10.15,10.15,0,1,1,61.59,22.33c3.86-4,7.76-7.89,11.66-11.82A5,5,0,0,1,80,10C80.19,10.14,80.32,10.27,80.48,10.41Z"/><path class="cls-3" d="M66.2,29.62a2.57,2.57,0,0,1,.91-2.1l.67-.61q7.57-7.64,15.15-15.26a10,10,0,0,1,6.91-3.16,9.76,9.76,0,0,1,7.61,3,2.53,2.53,0,0,1-.11,3.59A2.5,2.5,0,0,1,93.79,15a5,5,0,0,0-6.87-.16c-.79.73-1.53,1.51-2.29,2.27l-13.87,14a2.62,2.62,0,0,1-3.26.59A2.36,2.36,0,0,1,66.2,29.62Z"/><path class="cls-3" d="M79.66,50.5A10.31,10.31,0,0,1,72.84,48a2.85,2.85,0,0,1-1.27-2.23,2.52,2.52,0,0,1,4.06-2c.41.29.77.64,1.19.91a5,5,0,0,0,6.08-.51c1.11-1,2.15-2.13,3.22-3.2L98.49,28.46a6.17,6.17,0,0,0,.48-.54,2.53,2.53,0,1,1,3.86,3.28l-.25.26L86.86,47.36A10.05,10.05,0,0,1,79.66,50.5Z"/><path class="cls-3" d="M53.68,69.8l1.1.93-.63.7-1.1-1a4.44,4.44,0,0,1-6.15-.78,4.55,4.55,0,0,1,.48-5.95,4.4,4.4,0,0,1,5.76-.2A4.57,4.57,0,0,1,53.68,69.8Zm-2.29-2,1.54,1.39a3.64,3.64,0,0,0-.43-4.94,3.32,3.32,0,0,0-4.62.3,3.75,3.75,0,0,0,.24,5.09,3.21,3.21,0,0,0,4.16.17l-1.52-1.31Z"/><path class="cls-3" d="M75.31,62.64c1.59.06,3.16,0,4.69.2a2.33,2.33,0,0,1,1.92,3,2.44,2.44,0,0,1-1.8,1.75l-.43.12,2.56,3.42c-.65.06-1.15.14-1.55-.5-.53-.86-1.2-1.63-1.79-2.45a.69.69,0,0,0-.64-.32c-.67,0-1.33,0-2,0v3.26h-.92ZM76.23,67a32.35,32.35,0,0,0,3.27,0,1.66,1.66,0,0,0-.11-3.32c-.71-.07-1.42,0-2.13-.06h-1Z"/><path class="cls-3" d="M130.91,66.43v.89h-4.57v3h5.19v.82H125.4V62.73h6.06v.8h-5.13v2.9Z"/><path class="cls-3" d="M84.1,71.13V62.74h6.07v.78H85v2.92h4.57v.88H85v3h5.21v.81Z"/><path class="cls-3" d="M73.5,71.12c-.87.17-.91.14-1.24-.6-.19-.43-.39-.85-.56-1.28a.44.44,0,0,0-.48-.31h-4a.48.48,0,0,0-.53.37c-.16.42-.36.82-.55,1.24-.32.72-.36.74-1.22.57.53-1.19,1.07-2.36,1.6-3.54.71-1.56,1.41-3.11,2.1-4.67a.41.41,0,0,1,.49-.28c.23,0,.5-.11.65.24,1.21,2.7,2.44,5.39,3.65,8.09A.47.47,0,0,1,73.5,71.12Zm-2.32-3.06-1.94-4.35-1.95,4.35Z"/><path class="cls-3" d="M115.14,71.13c-.94.12-.94.11-1.29-.67-.22-.49-.33-1.18-.72-1.42s-1.07-.1-1.63-.1c-.86,0-1.72,0-2.58,0a.5.5,0,0,0-.57.38c-.17.42-.37.83-.55,1.24-.33.72-.33.72-1.19.57a3.21,3.21,0,0,1,.12-.33c1.17-2.61,2.36-5.22,3.53-7.84a.5.5,0,0,1,.59-.33c.26,0,.47,0,.61.31,1.18,2.64,2.38,5.28,3.57,7.92A2,2,0,0,1,115.14,71.13Zm-4.29-7.42c-.67,1.51-1.3,2.91-1.94,4.34h3.87Z"/><path class="cls-3" d="M101,71.15H100V62.74a1.86,1.86,0,0,1,.34,0c1,0,2,0,3,0a4,4,0,0,1,1.24.21,2.39,2.39,0,0,1,1.74,2.38,2.48,2.48,0,0,1-1.66,2.55,5.67,5.67,0,0,1-1.59.3c-.68,0-1.38,0-2.13,0Zm0-3.76c1-.08,2.08-.08,3.08-.25a1.7,1.7,0,0,0,1.35-1.76,1.63,1.63,0,0,0-1.4-1.7,30.26,30.26,0,0,0-3-.17Z"/><path class="cls-3" d="M62.73,62.72h.94v.43c0,1.46,0,2.91,0,4.36a6.66,6.66,0,0,1-.14,1.26,3.39,3.39,0,0,1-4.33,2.44,3.06,3.06,0,0,1-2.56-3c-.09-1.81,0-3.63,0-5.48h.91v.53c0,1.62,0,3.24.07,4.85a2.56,2.56,0,0,0,4,2,2.27,2.27,0,0,0,1.11-2c0-1.6,0-3.2,0-4.81Z"/><path class="cls-3" d="M38.05,69.94l.58-.67c.25.19.47.37.71.53a3.61,3.61,0,0,0,2.89.56,1.39,1.39,0,0,0,1.22-1.27c0-.7-.23-1.1-1-1.4-.51-.18-1.05-.29-1.57-.44s-.8-.26-1.19-.42a1.93,1.93,0,0,1-1.27-1.91,2.06,2.06,0,0,1,1.3-2,4.29,4.29,0,0,1,4.46.66l-.52.74-.5-.33a3.34,3.34,0,0,0-2.73-.45,1.31,1.31,0,0,0-1.06,1.21,1.2,1.2,0,0,0,.9,1.3c.57.22,1.16.34,1.74.52a8.6,8.6,0,0,1,.94.31A2.08,2.08,0,0,1,44.42,69a2.26,2.26,0,0,1-1.7,2.15A4.8,4.8,0,0,1,38.05,69.94Z"/><path class="cls-3" d="M91.68,69.92l.54-.63,0,.13a14.66,14.66,0,0,0,2.21.94,3.93,3.93,0,0,0,1.73-.11A1.24,1.24,0,0,0,97.07,69a1.18,1.18,0,0,0-.88-1.23c-.56-.21-1.15-.34-1.73-.52a8.1,8.1,0,0,1-1.35-.5,2.11,2.11,0,0,1-.21-3.61,4.08,4.08,0,0,1,4.83.5l-.5.66L96.74,64A3.34,3.34,0,0,0,94,63.53,1.31,1.31,0,0,0,93,64.73a1.2,1.2,0,0,0,.9,1.31c.52.2,1.07.33,1.6.49.36.11.73.2,1.08.34A2,2,0,0,1,98,69.05a2.28,2.28,0,0,1-1.73,2.08A4.79,4.79,0,0,1,91.68,69.92Z"/><path class="cls-3" d="M123.07,69.25l.54.58a4.39,4.39,0,0,1-6.08.51,4.57,4.57,0,0,1-.35-6.46,4.47,4.47,0,0,1,6.41,0l-.63.68a3.63,3.63,0,0,0-3.27-1.11,3.06,3.06,0,0,0-1.9,1.13,3.79,3.79,0,0,0,.21,4.9C119.31,70.83,121.06,70.75,123.07,69.25Z"/></g></g></g></svg>