<svg xmlns="http://www.w3.org/2000/svg" viewBox="0 0 169.58 79.91"><defs><style>.cls-1{opacity:0.6;}.cls-2{fill:none;}.cls-3{fill:#474747;}</style></defs><title>logo-square</title><g id="Layer_2" data-name="Layer 2"><g id="Layer_1-2" data-name="Layer 1"><g class="cls-1"><rect class="cls-2" width="169.58" height="79.91"/><path class="cls-3" d="M17.32,39.93V29a5.46,5.46,0,0,1,4.17-5.34,5.86,5.86,0,0,1,1.38-.17h21.8A5.5,5.5,0,0,1,50.22,29q0,11,0,21.9a5.48,5.48,0,0,1-5.53,5.49H22.86a5.49,5.49,0,0,1-5.54-5.56Zm6,0V48.5a1.77,1.77,0,0,0,1.93,1.92H42.3a1.78,1.78,0,0,0,1.94-1.94V31.41a1.77,1.77,0,0,0-1.93-1.92H25.25a1.78,1.78,0,0,0-1.95,1.94Z"/><path class="cls-3" d="M60.84,46.76l1.68-1.22c.22-.16.35,0,.47.16a6,6,0,0,0,2.35,2,7.69,7.69,0,0,0,6.11.31,3.6,3.6,0,0,0,2.25-4.28,2.8,2.8,0,0,0-1.47-1.82,9.91,9.91,0,0,0-1.73-.69c-1.47-.43-3-.81-4.45-1.23a8,8,0,0,1-2.86-1.44,4.53,4.53,0,0,1-1.79-3.26A5.43,5.43,0,0,1,62.78,31a5.77,5.77,0,0,1,2.9-1.68A9.46,9.46,0,0,1,74.53,31c.43.35.8.79,1.24,1.23l-1.93,1.45a1.45,1.45,0,0,0-.1-.18,7,7,0,0,0-7.57-2A3.13,3.13,0,0,0,63.88,34a2.5,2.5,0,0,0,.8,2.4,6.44,6.44,0,0,0,2.63,1.3c1.41.43,2.83.8,4.23,1.24a8.86,8.86,0,0,1,3,1.61,4.69,4.69,0,0,1,1.62,2.94,5.85,5.85,0,0,1-2.91,6,10.24,10.24,0,0,1-10.91-1A6.77,6.77,0,0,1,60.84,46.76Z"/><path class="cls-3" d="M90.57,37.71v-2.6H92.8V55.38H90.57V47.74a1.16,1.16,0,0,0-.26.2,5.41,5.41,0,0,1-3.79,2.51,6.27,6.27,0,0,1-6-1.74,7.65,7.65,0,0,1-2-4.29A9.83,9.83,0,0,1,79,39.08,6.43,6.43,0,0,1,84,34.83a6.3,6.3,0,0,1,5.58,1.6A10.07,10.07,0,0,1,90.57,37.71Zm-9.81,5.11c0,.28,0,.71.09,1.14a5.73,5.73,0,0,0,.13.7,4.69,4.69,0,0,0,4,3.85,4.77,4.77,0,0,0,5.11-3.18,7.82,7.82,0,0,0,.24-4.54,4.68,4.68,0,0,0-4.6-4,4.37,4.37,0,0,0-4.36,2.64A8.4,8.4,0,0,0,80.76,42.82Z"/><path class="cls-3" d="M150.08,46.49l1.53,1.39a7.36,7.36,0,0,1-3.8,2.43,7.78,7.78,0,0,1-7.26-1.46,6.94,6.94,0,0,1-2.2-4,9.55,9.55,0,0,1,.66-6.27,6.81,6.81,0,0,1,7-3.86,7.12,7.12,0,0,1,3.19,1.07A6.55,6.55,0,0,1,152.05,40a9.49,9.49,0,0,1,.2,2.6c0,.31-.11.42-.44.42h-9.65c-.4,0-.79,0-1.19,0s-.49.09-.43.46a11.27,11.27,0,0,0,.39,2,4.75,4.75,0,0,0,4.4,3.08A5.51,5.51,0,0,0,150.08,46.49Zm-9.51-5.26h9.33a4.4,4.4,0,0,0-4.61-4.58A4.53,4.53,0,0,0,140.57,41.23Z"/><path class="cls-3" d="M114.07,38.2l-1-1.66c.51-.28,1-.59,1.5-.82a9.55,9.55,0,0,1,7-.59,3.89,3.89,0,0,1,2.91,3.21,1.53,1.53,0,0,1,0,.3l0,11.32c0,.08,0,.16,0,.26h-2.19V48.34l-.09,0a2.08,2.08,0,0,0-.21.21,5.09,5.09,0,0,1-3.73,2,6.78,6.78,0,0,1-3.34-.39,4,4,0,0,1-2.67-3.65c-.19-2.48,1.09-4.13,3.68-4.7,1.19-.27,2.41-.42,3.61-.64a4.2,4.2,0,0,0,2.11-.87,1.82,1.82,0,0,0,.11-2.61,3.21,3.21,0,0,0-2.24-.92,8.2,8.2,0,0,0-5.42,1.39Zm8.32,3.67c-.09,0-.12,0-.13,0a6,6,0,0,1-2.76,1c-1.09.23-2.17.45-3.24.73a2.07,2.07,0,0,0-1.38,1.09,2.63,2.63,0,0,0,1.51,3.71,5.37,5.37,0,0,0,2.39.18,3.74,3.74,0,0,0,3.4-3.12A33.28,33.28,0,0,0,122.39,41.87Z"/><path class="cls-3" d="M96.64,35.1h2.28c0,.13,0,.26,0,.39,0,2.54,0,5.08,0,7.62a23.36,23.36,0,0,0,.11,2.37c.22,2.26,1.63,3.1,3.56,3A4.43,4.43,0,0,0,107,44.44a22.69,22.69,0,0,0,.06-2.61q0-3.19,0-6.39c0-.28.07-.38.36-.37.62,0,1.24,0,1.88,0V50.22h-2.22V47.79l-.08,0a2.27,2.27,0,0,0-.18.25,6,6,0,0,1-7.51,2,4.73,4.73,0,0,1-2.55-3.75,11.57,11.57,0,0,1-.11-1.66q0-4.56,0-9.11Z"/><path class="cls-3" d="M130.84,37.55a5.07,5.07,0,0,1,3.72-2.69,4.08,4.08,0,0,1,2.73.41c-.15.61-.29,1.21-.45,1.81-.06.22-.22.15-.38.1a4.12,4.12,0,0,0-5.41,3.12,10.46,10.46,0,0,0-.26,2.38c0,2.37,0,4.74,0,7.11v.43h-2.23V35.11h2.22V37.5Z"/><path class="cls-3" d="M33.81,35.47h3.3a1,1,0,0,1,1.15,1.15v6.66a1,1,0,0,1-1.14,1.16h-6.7a1,1,0,0,1-1.13-1.14V36.61a1,1,0,0,1,1.16-1.14Z"/></g></g></g></svg>