<svg xmlns="http://www.w3.org/2000/svg" viewBox="0 0 169.58 79.91"><defs><style>.cls-1{opacity:0.75;}.cls-2{fill:#474747;}.cls-3{fill:#a7a7a7;}.cls-4{fill:none;}</style></defs><title>lgo-amazon</title><g id="Layer_2" data-name="Layer 2"><g id="Layer_1-2" data-name="Layer 1"><g id="YDrqv7" class="cls-1"><path class="cls-2" d="M47.88,31.7A5.44,5.44,0,0,1,53.21,28c2.55,0,4.07,1.44,5,3.67.22-.17.25-.43.36-.63a5.85,5.85,0,0,1,9.65-.9,5.78,5.78,0,0,1,1,3.49c0,3.21,0,6.42,0,9.63v5.83c0,.76-.25,1-1,1h-3.4c-.76,0-1-.26-1-1,0-4,0-8,0-11.95,0-.58,0-1.17,0-1.75a2.12,2.12,0,0,0-1.48-2.18,2.68,2.68,0,0,0-2.94.94,3.78,3.78,0,0,0-.63,1.93,26.67,26.67,0,0,0-.09,2.83V49.08c0,.84-.22,1.06-1.07,1.06h-3.4c-.67,0-.93-.26-.93-.93V38a13.8,13.8,0,0,0-.17-2.87,2.17,2.17,0,0,0-2.1-2A2.32,2.32,0,0,0,48.5,34.8a10,10,0,0,0-.37,3.26c0,3.66,0,7.31,0,11,0,.91-.21,1.11-1.13,1.11H43.65c-.68,0-.93-.25-.93-.93V29.43c0-.72.23-.95,1-1H47c.65,0,.9.27.91.91Z"/><path class="cls-2" d="M89.94,38.42V42.7a4.84,4.84,0,0,0,.92,2.94c.2.28.42.55.6.84a.74.74,0,0,1-.14,1.09c-.95.8-1.87,1.61-2.81,2.41a.86.86,0,0,1-1.32,0,8.3,8.3,0,0,1-1.77-2.06c-.18-.3-.29-.31-.54-.06A7.78,7.78,0,0,1,81,50.19a8.83,8.83,0,0,1-4.09,0,5.25,5.25,0,0,1-4-4.51,6.93,6.93,0,0,1,3.36-7.51,11.2,11.2,0,0,1,3.24-1.11c1.52-.3,3.06-.4,4.59-.6.17,0,.34,0,.34-.26a14,14,0,0,0-.08-2.05A2.4,2.4,0,0,0,81.9,32a3.08,3.08,0,0,0-3.37,2.32c-.19.66-.39.81-1.07.74l-3.23-.36c-.74-.1-.93-.39-.76-1.13a6.56,6.56,0,0,1,4.1-4.87,11.62,11.62,0,0,1,8.11-.34A5.56,5.56,0,0,1,89.91,34c0,1.48,0,3,0,4.43Zm-5.55,2.76c0-.4,0-.79,0-1.19s-.06-.39-.37-.38a12,12,0,0,0-2.39.26,3.63,3.63,0,0,0-3,4.46,2.36,2.36,0,0,0,3.46,1.85,3.45,3.45,0,0,0,1.47-1.31A6.3,6.3,0,0,0,84.39,41.18Z"/><path class="cls-2" d="M38.13,38.38c0,1.43,0,2.85,0,4.28a5,5,0,0,0,1,3.07l.46.62c.39.57.36.84-.15,1.28L36.74,50a.87.87,0,0,1-1.36,0,8.47,8.47,0,0,1-1.76-2.06c-.18-.29-.29-.32-.55-.06a7.71,7.71,0,0,1-3.89,2.36,9,9,0,0,1-3.94,0,5,5,0,0,1-3.85-3.35A7.25,7.25,0,0,1,23.19,39a9.28,9.28,0,0,1,4.46-2c1.52-.31,3.06-.42,4.59-.6.29,0,.38-.12.36-.4,0-.51,0-1-.05-1.54A2.49,2.49,0,0,0,29.66,32a3,3,0,0,0-2.93,2.35c-.18.59-.4.77-1,.71-1.12-.11-2.25-.23-3.37-.37-.66-.09-.85-.39-.71-1a6.6,6.6,0,0,1,4.13-5A11.75,11.75,0,0,1,34,28.44a5.54,5.54,0,0,1,4.05,5.46c0,1.5,0,3,0,4.48ZM32.6,41.22c0-.41,0-.82,0-1.23s-.08-.39-.37-.38a17.74,17.74,0,0,0-1.79.14c-2.66.39-3.92,1.9-3.68,4.38a2.39,2.39,0,0,0,3.67,2,3.76,3.76,0,0,0,1.47-1.54A6.85,6.85,0,0,0,32.6,41.22Z"/><path class="cls-2" d="M137.52,32.05c.36-.56.62-1.13,1-1.67a5,5,0,0,1,4.84-2.32c2.95.2,4.73,2,5.11,4.95a25.86,25.86,0,0,1,.2,3.18V49.12c0,.77-.25,1-1,1h-3.45c-.73,0-1-.25-1-1V36.94A7.85,7.85,0,0,0,143,35c-.29-1.18-.89-1.82-1.85-1.94a2.5,2.5,0,0,0-2.59,1.39,6.92,6.92,0,0,0-.72,3.28c0,3.73,0,7.46,0,11.18,0,1.05-.19,1.23-1.23,1.23h-3.24c-.69,0-1-.27-1-1V29.39c0-.65.25-.91.91-.92h3.34c.66,0,.88.25.88.92C137.53,30.28,137.52,31.16,137.52,32.05Z"/><path class="cls-2" d="M129.45,39.56A12.49,12.49,0,0,1,127,47.28a8.26,8.26,0,0,1-14-1.36,15.22,15.22,0,0,1-1.36-8.51A12.67,12.67,0,0,1,112.81,33a8,8,0,0,1,7.62-4.92,8.09,8.09,0,0,1,7.71,5A15.06,15.06,0,0,1,129.45,39.56Zm-12.12-.16c0,.47,0,1.35.11,2.22a8.23,8.23,0,0,0,.91,3.5,2.42,2.42,0,0,0,4.15.19,4.52,4.52,0,0,0,.71-1.58,21.76,21.76,0,0,0,.34-6.34,11.49,11.49,0,0,0-.65-3.58,2.33,2.33,0,0,0-2.07-1.6,2.48,2.48,0,0,0-2.62,1.31,5.26,5.26,0,0,0-.47,1.19A18.2,18.2,0,0,0,117.33,39.4Z"/><path class="cls-3" d="M72.36,66.31a49.69,49.69,0,0,1-29.69-9.94,41.8,41.8,0,0,1-3.26-2.68c-.32-.3-.72-.61-.37-1.08s.74-.2,1.11,0a61.87,61.87,0,0,0,8.28,4,68.58,68.58,0,0,0,15.16,4.05,66.63,66.63,0,0,0,11.55.71,66.25,66.25,0,0,0,17-2.72,70.77,70.77,0,0,0,6.69-2.37,1.6,1.6,0,0,1,1.14-.17.91.91,0,0,1,.48,1.5,2.9,2.9,0,0,1-.71.59A41.89,41.89,0,0,1,87.65,64,52.21,52.21,0,0,1,72.36,66.31Z"/><path class="cls-2" d="M102.28,32.76H97.85c-.76,0-1.51,0-2.27,0-.57,0-.81-.25-.82-.81q0-1.36,0-2.73a.73.73,0,0,1,.79-.81h12.57c.92,0,1.1.18,1.1,1.12a12.89,12.89,0,0,0,0,1.39,3,3,0,0,1-.67,2.1q-3.36,4.77-6.71,9.56c-.09.13-.18.27-.32.46a20.31,20.31,0,0,1,3.7.3,12.26,12.26,0,0,1,3.48,1.19,1.47,1.47,0,0,1,.9,1.47c0,.88,0,1.75,0,2.63s-.45,1.14-1.22.77a14.94,14.94,0,0,0-12.83-.17c-.19.09-.36.2-.55.28A.64.64,0,0,1,94,49a34,34,0,0,1,0-3.91,2.76,2.76,0,0,1,.58-1.35l7.24-10.38C102,33.17,102.11,33,102.28,32.76Z"/><path class="cls-3" d="M102,51.06a11.57,11.57,0,0,1,3.75.52,1.19,1.19,0,0,1,.91,1.16,12.25,12.25,0,0,1-.75,4.69,13.1,13.1,0,0,1-3.21,5.44,5.11,5.11,0,0,1-.63.52.53.53,0,0,1-.67.07c-.23-.18-.15-.43-.07-.66.24-.61.48-1.21.71-1.82a22.23,22.23,0,0,0,1.44-5.13c.15-1.31-.16-1.75-1.45-2a16.61,16.61,0,0,0-4.51,0c-.92.06-1.84.18-2.76.27-.27,0-.6.11-.72-.22s.14-.57.39-.76a10.64,10.64,0,0,1,3.7-1.61A15.27,15.27,0,0,1,102,51.06Z"/></g><rect class="cls-4" width="169.58" height="79.91"/></g></g></svg>