<svg xmlns="http://www.w3.org/2000/svg" viewBox="0 0 169.58 79.91"><defs><style>.cls-1{opacity:0.45;}.cls-2{fill:none;}</style></defs><title>logo-pinterest</title><g id="Layer_2" data-name="Layer 2"><g id="Layer_1-2" data-name="Layer 1"><g class="cls-1"><path d="M23.15,56.83c1.9-2.62,2.54-5.69,3.3-8.76A4.64,4.64,0,0,0,30,50a7.78,7.78,0,0,0,5.4-1.57,10.36,10.36,0,0,0,3.91-6.12A11.06,11.06,0,0,0,39,35.2a10,10,0,0,0-7.36-6,12.64,12.64,0,0,0-9.27,1.23,9.93,9.93,0,0,0-5.19,8.12,8.93,8.93,0,0,0,1.66,6.27,4.62,4.62,0,0,0,1.8,1.57c.46.23.59.17.71-.31s.31-1.15.42-1.73a1,1,0,0,0-.11-.69,6.93,6.93,0,0,1-.79-6.68A7.33,7.33,0,0,1,27.23,32a7.85,7.85,0,0,1,5.41,1.13,6.64,6.64,0,0,1,3.06,5.48,10.37,10.37,0,0,1-1.19,5.7,5.18,5.18,0,0,1-3.43,2.79,2.93,2.93,0,0,1-2.89-.69,2.25,2.25,0,0,1-.66-2.21c.33-1.32.74-2.62,1.1-3.93A6.48,6.48,0,0,0,29,37.69a2.22,2.22,0,0,0-3.28-1.82,3.8,3.8,0,0,0-2,2.79A6.54,6.54,0,0,0,24,42.27a1.13,1.13,0,0,1,.05.6c-.67,2.92-1.38,5.82-2,8.74a13.27,13.27,0,0,0-.1,4c0,.23,0,.46.05.71a17.17,17.17,0,1,1,1.23.48Z"/><path d="M57.29,42.75v6.84H52.6V29.12a1,1,0,0,1,.24,0c2.93,0,5.87,0,8.8.06a6.61,6.61,0,0,1,5.69,3.09,7.18,7.18,0,0,1-.87,8.64,7.09,7.09,0,0,1-5.13,1.87h-4Zm0-4h3.38a6.06,6.06,0,0,0,.85-.05,2.52,2.52,0,0,0,2.25-2.54,2.45,2.45,0,0,0-1.93-2.69,3.56,3.56,0,0,0-.92-.11c-1.11,0-2.22,0-3.34,0l-.29,0Z"/><path d="M112.34,43.45H101.77a3.26,3.26,0,0,0,4.64,2.94,5.31,5.31,0,0,0,1-.93c.09-.08.2-.22.29-.22H112a5.55,5.55,0,0,1-1.4,2.56A7.29,7.29,0,0,1,106.09,50a9,9,0,0,1-4.06-.42,6.83,6.83,0,0,1-4.22-4,8.45,8.45,0,0,1,0-6.62,7.29,7.29,0,0,1,7.48-4.49,6.88,6.88,0,0,1,5.34,2.79,8.85,8.85,0,0,1,1.61,4.29C112.27,42.17,112.29,42.78,112.34,43.45Zm-4.79-2.77a2.81,2.81,0,0,0-2.73-2.88,2.91,2.91,0,0,0-3,2.88Z"/><path d="M136.79,43.46H126.26a3.2,3.2,0,0,0,2.57,3.18,2.94,2.94,0,0,0,2.12-.3,6.63,6.63,0,0,0,.89-.87c.09-.09.19-.23.29-.23h4.41c-.15.38-.25.72-.4,1a6.42,6.42,0,0,1-4,3.36,8.63,8.63,0,0,1-6.3-.34,6.66,6.66,0,0,1-3.57-3.69,8.47,8.47,0,0,1-.06-6.52,7.27,7.27,0,0,1,7.49-4.58,6.86,6.86,0,0,1,5.62,3.17,9.39,9.39,0,0,1,1.4,4.33C136.75,42.47,136.76,42.94,136.79,43.46Zm-10.53-2.79H132a2.82,2.82,0,0,0-2.77-2.87A2.92,2.92,0,0,0,126.26,40.67Z"/><path d="M89,49.59H84.3V41.2a5.62,5.62,0,0,0-.07-.92,2,2,0,0,0-1.5-1.8,2.35,2.35,0,0,0-2.51.66,3.32,3.32,0,0,0-.83,2.39c0,2.52,0,5,0,7.57v.48H74.74V34.94h4.48v1.94l.08,0c.1-.12.2-.23.29-.35a5.35,5.35,0,0,1,6.32-1.71,4.76,4.76,0,0,1,3,4A7.8,7.8,0,0,1,89,40q0,4.6,0,9.2C89,49.35,89,49.46,89,49.59Z"/><path d="M150.14,39.16h-4.25a2.25,2.25,0,0,1-.08-.24,1.61,1.61,0,0,0-1.43-1.37,8.73,8.73,0,0,0-1.84,0,1.38,1.38,0,0,0-.71.36,1,1,0,0,0,.19,1.67,14.18,14.18,0,0,0,2,.56c1.14.26,2.31.43,3.43.76a4,4,0,0,1,3,2.88,4.49,4.49,0,0,1-2.75,5.56,10.36,10.36,0,0,1-5,.63,8.28,8.28,0,0,1-3-.78,4.91,4.91,0,0,1-2.91-4l.29,0H141c.16,0,.3,0,.36.21A2.17,2.17,0,0,0,143.17,47a3.83,3.83,0,0,0,2.12-.18,1.29,1.29,0,0,0,.92-1.23,1.17,1.17,0,0,0-.88-1.16c-.82-.25-1.67-.43-2.52-.6a14.48,14.48,0,0,1-3.29-.85,3.85,3.85,0,0,1-2.31-4.3,4.17,4.17,0,0,1,3-3.58,9.6,9.6,0,0,1,6.9,0,4.46,4.46,0,0,1,3,3.76C150.13,39,150.13,39.05,150.14,39.16Z"/><path d="M151.9,37.82h-1.42V34.91h1.42V30.27h4.56v4.64h2.38v2.91h-2.36c0,.16,0,.28,0,.4v6.39c0,1.12.41,1.54,1.54,1.57h.83a1.77,1.77,0,0,1,0,.3c0,.94,0,1.88,0,2.82,0,.2,0,.34-.27.36a11.41,11.41,0,0,1-4.12-.13A3.19,3.19,0,0,1,152,46.4c-.06-1.42,0-2.84,0-4.26V37.82Z"/><path d="M97.34,46.2v3.44l-.58.08a11.15,11.15,0,0,1-3.69-.2,3.22,3.22,0,0,1-2.46-3c0-.41-.06-.81-.06-1.22q0-3.51,0-7v-.49H89.06V34.92h1.48V30.27H95.1v4.64h2.23v2.9H95.15a1.86,1.86,0,0,0,0,.26q0,3.38,0,6.75c0,.84.34,1.21,1.19,1.33C96.63,46.19,97,46.19,97.34,46.2Z"/><path d="M112.94,34.93h4.45v2.24l.08.06a4.38,4.38,0,0,1,4.45-2.52v4h-.56a3.44,3.44,0,0,0-3.72,3.49c-.09,1.87,0,3.73-.07,5.6v1.74h-4.63Z"/><path d="M73.71,34.94V49.58H69.09V34.94Z"/><path d="M74.19,31a2.8,2.8,0,1,1-2.81-2.81A2.81,2.81,0,0,1,74.19,31Z"/></g><rect class="cls-2" width="169.58" height="79.91"/></g></g></svg>