<svg xmlns="http://www.w3.org/2000/svg" viewBox="0 0 169.58 79.91"><defs><style>.cls-1{opacity:0.6;}.cls-2{fill:#474747;}.cls-3{fill:none;}</style></defs><title>logo-intercom</title><g id="Layer_2" data-name="Layer 2"><g id="Layer_1-2" data-name="Layer 1"><g class="cls-1"><path class="cls-2" d="M22.55,56.9a5.32,5.32,0,0,1-1.72-.63,4.16,4.16,0,0,1-2-3.33c0-.2,0-.41,0-.61q0-12.44,0-24.88a4.39,4.39,0,0,1,.9-2.83A4.07,4.07,0,0,1,23,23H48.55A4.22,4.22,0,0,1,52.7,27c0,.39,0,.79,0,1.18q0,12.18,0,24.36a4.25,4.25,0,0,1-1.34,3.24,4.12,4.12,0,0,1-2.26,1.1c-.05,0-.11,0-.14.06Zm13.32-4.52c.47,0,1.05,0,1.62-.06a21.63,21.63,0,0,0,7-1.65,15.3,15.3,0,0,0,3.26-1.87,1.14,1.14,0,0,0,.2-1.64A1.11,1.11,0,0,0,46.31,47a6.55,6.55,0,0,1-.53.39A17.06,17.06,0,0,1,38.25,50a21,21,0,0,1-6-.16A17,17,0,0,1,25.13,47a1.12,1.12,0,0,0-1.34,1.8,13.87,13.87,0,0,0,2.92,1.73A21.9,21.9,0,0,0,35.87,52.38ZM34.64,36.81V44c0,.34,0,.67,0,1A1.11,1.11,0,0,0,36,46.14,1.12,1.12,0,0,0,36.91,45V28.81a1.93,1.93,0,0,0,0-.24,1.09,1.09,0,0,0-.61-.92,1.13,1.13,0,0,0-1.65,1Zm7.91,0V29.45c0-.1,0-.21,0-.31a1.11,1.11,0,0,0-1.43-1,1.1,1.1,0,0,0-.83,1.17V44.4a1.13,1.13,0,0,0,2.26-.12C42.56,41.78,42.55,39.28,42.55,36.79ZM29,36.73V38.9c0,1.78,0,3.57,0,5.35a1.12,1.12,0,0,0,.73,1.14,1.14,1.14,0,0,0,1.53-1.15V29.36a1.93,1.93,0,0,0,0-.24,1.06,1.06,0,0,0-.65-.92A1.11,1.11,0,0,0,29,29.27C29,31.76,29,34.24,29,36.73Zm16.94-.21c0,1.7,0,3.4,0,5.09a1.13,1.13,0,1,0,2.26,0V31.52a1.17,1.17,0,0,0-.24-.74,1.1,1.1,0,0,0-1.27-.36,1.08,1.08,0,0,0-.75,1.07Zm-22.59,0v5.06a1.13,1.13,0,1,0,2.26,0V31.52a1.17,1.17,0,0,0-.24-.74,1.1,1.1,0,0,0-1.27-.36,1.08,1.08,0,0,0-.75,1.07Z"/><path class="cls-2" d="M150.75,45.13c-.33.69-.77.94-1.41.76a1,1,0,0,1-.7-.78,2.17,2.17,0,0,1,0-.44c0-2.27,0-4.54,0-6.81v-.3c-.11,0-.11.13-.13.2l-2.64,7.13a1.18,1.18,0,0,1-2.28,0l-2.63-7.2a.81.81,0,0,0-.15-.29v7.44a1.05,1.05,0,0,1-1.54,1,1,1,0,0,1-.57-1V35.62A1.73,1.73,0,0,1,142,35l2.63,7.11.12.33a.5.5,0,0,0,.14-.28c.88-2.33,1.75-4.67,2.62-7a1.65,1.65,0,0,1,3.19.06l.05.06Z"/><path class="cls-2" d="M76.81,42V35A1.09,1.09,0,0,1,79,34.79a2.22,2.22,0,0,1,0,.37v9.18a1.48,1.48,0,0,1-1.68,1.58,1.46,1.46,0,0,1-1.13-.75c-1.46-2.35-2.93-4.68-4.4-7l-.26-.41c0,.16,0,.25,0,.34V44.7a1.13,1.13,0,0,1-.65,1.14,1.08,1.08,0,0,1-1.54-1c0-.45,0-.89,0-1.34v-8a1.49,1.49,0,0,1,1-1.53,1.56,1.56,0,0,1,1.8.7l4.47,7.07Z"/><path class="cls-2" d="M103.05,40V35.18A1.12,1.12,0,0,1,104.26,34c1.45,0,2.9-.05,4.35,0a3.7,3.7,0,0,1,3.18,1.76A3.66,3.66,0,0,1,110.3,41c-.16.07-.14.15-.08.28.47,1,.94,2.1,1.4,3.15a1.07,1.07,0,1,1-1.93.91c-.55-1.22-1.09-2.43-1.63-3.65a.32.32,0,0,0-.35-.24h-2.19c-.21,0-.25.07-.25.27,0,1.06,0,2.13,0,3.19a1.11,1.11,0,1,1-2.22-.1Zm2.26-2.32c0,.53,0,1.07,0,1.6,0,.15,0,.2.19.2,1,0,2,0,2.92,0a1.68,1.68,0,0,0,1.68-1.19,1.84,1.84,0,0,0-1.58-2.34c-1-.11-2,0-3,0-.17,0-.16.09-.16.21Z"/><path class="cls-2" d="M135.92,40.09a8.81,8.81,0,0,1-.29,2.71,4.7,4.7,0,0,1-4.08,3.33,4.85,4.85,0,0,1-4.47-1.79,4.75,4.75,0,0,1-1-2.67,14.28,14.28,0,0,1,.09-4,4.64,4.64,0,0,1,4.36-3.93,4.77,4.77,0,0,1,4.46,2,5.29,5.29,0,0,1,.88,2.73C135.91,39,135.92,39.56,135.92,40.09ZM133.75,40a18.26,18.26,0,0,0-.15-2,2.61,2.61,0,0,0-2.47-2.3,2.55,2.55,0,0,0-2.7,2.11,11,11,0,0,0-.07,3.88,2.87,2.87,0,0,0,.8,1.74,2.6,2.6,0,0,0,4.32-1.14A8.71,8.71,0,0,0,133.75,40Z"/><path class="cls-2" d="M91.91,39.92V35.11a1,1,0,0,1,1.17-1.18H99.3a1.34,1.34,0,0,1,.62.11,1,1,0,0,1-.45,1.85c-1.69,0-3.39,0-5.09,0-.23,0-.29.06-.29.29q0,1.09,0,2.19c0,.25,0,.33.32.33,1.4,0,2.81,0,4.22,0a1,1,0,1,1,.05,2H94.3c-.16,0-.2,0-.2.21,0,1,0,1.91,0,2.87,0,.2.1.2.24.2h5a1,1,0,0,1,1,.55,1,1,0,0,1-.89,1.4H92.93a.9.9,0,0,1-1-1c0-.62,0-1.24,0-1.87Z"/><path class="cls-2" d="M114.4,39.94a8,8,0,0,1,.4-3.14,4.5,4.5,0,0,1,4-3,4.6,4.6,0,0,1,4,1.52,3.72,3.72,0,0,1,.57.85,1.06,1.06,0,0,1-.39,1.44,1.11,1.11,0,0,1-1.51-.43l-.21-.4a2.52,2.52,0,0,0-4.52,1,10.86,10.86,0,0,0,0,4.47,2.55,2.55,0,0,0,3.68,1.68,2,2,0,0,0,1-1.1,1.12,1.12,0,0,1,1.11-.69,1.09,1.09,0,0,1,1,.89,1,1,0,0,1-.12.69,4.34,4.34,0,0,1-3,2.3,4.71,4.71,0,0,1-5.92-4.17c0-.32-.07-.63-.09-1S114.4,40.26,114.4,39.94Z"/><path class="cls-2" d="M86.61,40.56v4.27a1.08,1.08,0,0,1-1.49,1.09,1,1,0,0,1-.69-.82,2.29,2.29,0,0,1,0-.37c0-2.82,0-5.65,0-8.47,0-.22-.06-.27-.28-.27H81.93a1,1,0,0,1-.81-1.67,1.14,1.14,0,0,1,.95-.36H87.9c.45,0,.9,0,1.35,0a1,1,0,0,1,.92,1.08,1,1,0,0,1-1,.93H86.91c-.23,0-.31,0-.31.3C86.61,37.71,86.61,39.14,86.61,40.56Z"/><path class="cls-2" d="M63.76,39.93c0-1.59,0-3.18,0-4.78A1.13,1.13,0,0,1,64.85,34a1.1,1.1,0,0,1,1.08,1.18q0,4.83,0,9.66a1.09,1.09,0,1,1-2.17,0C63.75,43.18,63.76,41.56,63.76,39.93Z"/></g><rect class="cls-3" width="169.58" height="79.91"/></g></g></svg>