<svg xmlns="http://www.w3.org/2000/svg" viewBox="0 0 169.58 79.91"><defs><style>.cls-1{opacity:0.6;}.cls-2{fill:#474747;}.cls-3{fill:none;}</style></defs><title>logo-venmo</title><g id="Layer_2" data-name="Layer 2"><g id="Layer_1-2" data-name="Layer 1"><g class="cls-1"><path class="cls-2" d="M132.8,51.65a7.78,7.78,0,0,0-1.28-.22,7.22,7.22,0,0,1-5.92-5.76,16.65,16.65,0,0,1-.28-5.93,15.05,15.05,0,0,1,1.7-5.56A10.79,10.79,0,0,1,135,28.53a13.39,13.39,0,0,1,5.74.15,7,7,0,0,1,5.37,5.55,13.09,13.09,0,0,1,.31,2.07c0,.06,0,.14.06.18v.19c-.09.08-.06.19-.06.28,0,.48,0,.95,0,1.43a4.14,4.14,0,0,1-.05.86,15.73,15.73,0,0,1-2.1,6.78,11.07,11.07,0,0,1-8.08,5.46,5.23,5.23,0,0,0-1.11.17Zm5.69-14.1A7.21,7.21,0,0,0,138.4,36a3.69,3.69,0,0,0-.18-.65,1.59,1.59,0,0,0-1.9-1.12,2.51,2.51,0,0,0-1.48.83,5.7,5.7,0,0,0-1.17,2.28,17.82,17.82,0,0,0-.66,5.29,5.11,5.11,0,0,0,.35,1.93,1.66,1.66,0,0,0,1.88,1.1,2,2,0,0,0,1.17-.57,4.91,4.91,0,0,0,1.2-2A17.52,17.52,0,0,0,138.49,37.55Z"/><path class="cls-2" d="M146.43,38.4l-.07,0c0-.48,0-1,0-1.43,0-.09,0-.2.06-.28Z"/><path class="cls-2" d="M99.51,30.54c.47-.32.9-.61,1.36-.87a9.77,9.77,0,0,1,5.88-1.31,4.8,4.8,0,0,1,3.84,2.24c.12.19.21.09.31,0a12.8,12.8,0,0,1,3-1.64,10.49,10.49,0,0,1,6-.44,4,4,0,0,1,3.24,3.84,17.12,17.12,0,0,1-.28,4.23c-.39,2.53-.8,5.06-1.2,7.6-.35,2.23-.71,4.45-1.05,6.69,0,.23-.18.2-.33.2h-7.15c-.22,0-.26-.06-.22-.26.17-1.09.35-2.19.52-3.28l1.2-7.63c.17-1.14.35-2.27.52-3.41a2.72,2.72,0,0,0,0-1.1,1,1,0,0,0-.85-.79,3.86,3.86,0,0,0-1.9.23,2.82,2.82,0,0,0-1.08.5c-.28.26-.2.72-.26,1.1q-1.09,7-2.2,14c-.09.62-.09.62-.72.62h-6.75c-.27,0-.31,0-.27-.33q.84-5.19,1.64-10.39c.21-1.41.47-2.82.63-4.23a1.94,1.94,0,0,0,0-.68,1,1,0,0,0-.86-.85,3.71,3.71,0,0,0-1.87.22c-.33.11-.65.27-1,.39a.46.46,0,0,0-.33.42c-.27,1.77-.55,3.53-.82,5.29l-1.2,7.7c-.12.74-.24,1.48-.35,2.22,0,.18-.08.23-.27.23H89.38c-.21,0-.23-.05-.2-.24q1-6.22,2-12.44c.49-3.13,1-6.26,1.48-9.39,0-.27.12-.37.41-.36h6c.24,0,.34,0,.36.31C99.37,29.49,99.45,30,99.51,30.54Z"/><path class="cls-2" d="M76,30.45a19.41,19.41,0,0,1,1.69-1,10.53,10.53,0,0,1,6.64-1,4.08,4.08,0,0,1,3.51,4A19.12,19.12,0,0,1,87.46,37c-.39,2.54-.8,5.07-1.2,7.6-.33,2.11-.67,4.22-1,6.32,0,.18-.1.23-.28.23-2.4,0-4.79,0-7.18,0-.28,0-.27-.12-.24-.31.22-1.36.43-2.72.65-4.07q.57-3.61,1.13-7.21c.16-1.05.32-2.11.47-3.17a2.75,2.75,0,0,0,0-.86,1,1,0,0,0-.88-.86,4.71,4.71,0,0,0-2.4.4,1.17,1.17,0,0,0-.86,1.08c-.49,3.37-1,6.72-1.56,10.07-.24,1.52-.47,3-.7,4.56,0,.27-.11.37-.41.37q-3.52,0-7.06,0c-.29,0-.33-.09-.29-.35q.85-5.35,1.7-10.73.76-4.78,1.51-9.57c.08-.52.17-1,.24-1.55,0-.18.1-.24.28-.24h6.22c.2,0,.24.08.26.25A13.48,13.48,0,0,0,76,30.45Z"/><path class="cls-2" d="M33,44.12c.34-.61.66-1.13.95-1.67A28.75,28.75,0,0,0,36.59,36a9.78,9.78,0,0,0-.14-5.67c-.07-.2-.28-.41-.18-.59s.38-.11.58-.15c2.1-.43,4.2-.84,6.3-1.28a.29.29,0,0,1,.38.18,8.39,8.39,0,0,1,1,3.76,15.31,15.31,0,0,1-1.21,6.23,40.76,40.76,0,0,1-3.87,7.37c-1.11,1.74-2.32,3.42-3.55,5.07a.51.51,0,0,1-.46.22H27.05c-.23,0-.32-.05-.36-.29-.57-3.51-1.17-7-1.76-10.53s-1.17-7.06-1.77-10.59c0-.18,0-.23.18-.24l5.86-.55c.52,0,1-.09,1.56-.16.22,0,.29,0,.31.24.18,1.51.37,3,.56,4.52.23,1.9.46,3.79.7,5.69l.6,4.73A1.88,1.88,0,0,0,33,44.12Z"/><path class="cls-2" d="M63.29,43.62c-.13.86-.25,1.66-.36,2.46-.18,1.2-.37,2.39-.53,3.59a.68.68,0,0,1-.46.63,18.55,18.55,0,0,1-5.78,1.23,13.93,13.93,0,0,1-4.55-.4,7.28,7.28,0,0,1-5.52-5.82,15.17,15.17,0,0,1,2.64-12.53,10.77,10.77,0,0,1,8.36-4.44,9.44,9.44,0,0,1,4.58.69A5.63,5.63,0,0,1,65,34.84a6.17,6.17,0,0,1-3.41,5A15.1,15.1,0,0,1,56,41.66a15.05,15.05,0,0,1-2.33.2c-.11,0-.21,0-.23.16a3.2,3.2,0,0,0,1.63,3,4.31,4.31,0,0,0,2.13.35A14.19,14.19,0,0,0,63,43.78Zm-9.24-5.89a8.5,8.5,0,0,0,3.23-.82,2.6,2.6,0,0,0,1.31-1.2,1.47,1.47,0,0,0-1-2.17,2.07,2.07,0,0,0-1.32.2,4.73,4.73,0,0,0-2.54,3.57C53.61,37.75,53.62,37.75,54.05,37.73Z"/></g><rect class="cls-3" width="169.58" height="79.91"/></g></g></svg>