<svg xmlns="http://www.w3.org/2000/svg" viewBox="0 0 169.58 79.91"><defs><style>.cls-1{fill:#8c8c8c;}.cls-2{fill:#aaa;}.cls-3{fill:#4f4f4f;opacity:0.7;}.cls-4{fill:#d2d2d2;}.cls-5{fill:#ddd;}.cls-6{fill:none;}</style></defs><title>logo-vox</title><g id="Layer_2" data-name="Layer 2"><g id="Layer_1-2" data-name="Layer 1"><path class="cls-1" d="M169.49,36.22l-9.16,5.14c-.15.08-.29.24-.49.19V30.89a1.33,1.33,0,0,1,.74.29c1,.57,2,1.16,3.08,1.74,1.32.74,2.64,1.5,4,2.23a15,15,0,0,0,1.86,1Z"/><path class="cls-2" d="M169.49,36.13a15,15,0,0,1-1.86-1c-1.33-.73-2.65-1.49-4-2.23-1-.58-2-1.17-3.08-1.74a1.33,1.33,0,0,0-.74-.29.28.28,0,0,1,0-.09l.09-.08L169,25.6l.45-.23Z"/><path class="cls-3" d="M69.87,43.2c-.29,2.24-.63,4.46-.76,6.7,0,.2-.07.29-.3.29H65.42c-.21,0-.28,0-.23-.28C66,45.8,66.43,41.66,67,37.52a10,10,0,0,0,.1-1.1c0-.26.11-.33.35-.34.82,0,1.64-.06,2.46-.12.26,0,.33.13.41.32L73.78,44a1.16,1.16,0,0,0,.29.51l.91-2.1,2.61-6a.47.47,0,0,1,.52-.35c.74,0,1.47,0,2.21,0,.26,0,.38,0,.42.35.41,3.08.82,6.15,1.25,9.22.21,1.45.47,2.9.72,4.34,0,.22,0,.29-.22.3q-1.65,0-3.3.15c-.34,0-.4-.11-.42-.4-.2-2.33-.58-4.64-.92-7l-1.2,3c-.53,1.34-1.07,2.67-1.59,4a.5.5,0,0,1-.55.38,10.7,10.7,0,0,0-1.27.06c-.31,0-.44-.06-.56-.35-.87-2.17-1.76-4.33-2.64-6.49C70,43.45,69.93,43.33,69.87,43.2Z"/><path class="cls-3" d="M104.71,43.2c0-2.22,0-4.43-.11-6.64,0-.26,0-.39.32-.39a46.21,46.21,0,0,1,6,0A8.36,8.36,0,0,1,115,37.54a6.22,6.22,0,0,1,2.54,5.73,6.85,6.85,0,0,1-2.2,5,7.17,7.17,0,0,1-4.25,1.78c-2.07.19-4.15,0-6.22.09-.3,0-.27-.16-.26-.35C104.74,47.63,104.7,45.41,104.71,43.2Zm4-.12h0c0,.9,0,1.8,0,2.71,0,.43-.19,1,.1,1.25s.87.11,1.32.09a3.33,3.33,0,0,0,3.26-2.63A5.63,5.63,0,0,0,113.5,42a3.32,3.32,0,0,0-2.76-2.78,10.72,10.72,0,0,0-1.6-.08c-.33,0-.4.13-.4.43C108.76,40.71,108.75,41.89,108.75,43.08Z"/><path class="cls-3" d="M33.32,42.88a7.52,7.52,0,0,1-3.08,6.36c-3,2.14-8.28,1.85-10.47-2.23C18.1,43.88,18.84,38.44,23,36.5,26.39,35,31.13,35.83,32.8,40A7.47,7.47,0,0,1,33.32,42.88Zm-3.91.3a5.4,5.4,0,0,0-.59-2.61,3,3,0,0,0-5.17-.3,5.61,5.61,0,0,0,0,5.81,3,3,0,0,0,4.76.28A4.68,4.68,0,0,0,29.41,43.18Z"/><path class="cls-3" d="M52.2,50.17c-1.44.06-2.82.11-4.2.18-.24,0-.32-.12-.41-.28L45.07,46l-.28-.41-1.17,1.9c-.51.81-1,1.62-1.52,2.44a.44.44,0,0,1-.43.26h-4c0-.21.12-.32.21-.44,1.44-2.14,2.88-4.28,4.34-6.41a.53.53,0,0,0,0-.7q-2.07-3-4.11-6c-.08-.11-.15-.23-.26-.4.22,0,.39,0,.57,0,1.15,0,2.31-.09,3.46-.15a.55.55,0,0,1,.55.3c.87,1.38,1.75,2.75,2.64,4.13.18-.08.22-.24.29-.37.7-1.23,1.47-2.43,2.22-3.64a.6.6,0,0,1,.61-.33H52c0,.19-.13.3-.21.42-1.37,2-2.74,4.11-4.12,6.15a.55.55,0,0,0,0,.74c1.45,2.12,2.87,4.26,4.3,6.39Z"/><path class="cls-3" d="M133.27,50.19c.54-1.26,1.06-2.44,1.56-3.64,1.42-3.4,3-6.75,4.28-10.2a.31.31,0,0,1,.3-.23c.87,0,1.75-.09,2.62-.16.3,0,.43.07.55.35q2.52,5.84,5,11.67c.28.63.57,1.26.86,1.88.11.23.14.33-.19.34-1.16,0-2.32.08-3.47.15-.33,0-.5-.05-.62-.39-.24-.69-.54-1.35-.81-2a.35.35,0,0,0-.4-.27h-4.31a.36.36,0,0,0-.4.28c-.23.66-.5,1.32-.74,2-.07.16-.12.29-.35.28Zm5.95-5h3c.22,0,.17-.11.13-.24-.51-1.34-1-2.68-1.54-4.09Z"/><path class="cls-3" d="M88.93,43.12c0-2.28,0-4.55-.11-6.82,0-.31.14-.27.32-.26,1.51,0,3,.08,4.53.08s2.77,0,4.15-.09c.31,0,.38.08.35.38,0,.81-.1,1.63-.11,2.45,0,.29-.12.34-.38.33-1.44,0-2.88,0-4.32,0-.33,0-.48.07-.46.43,0,.57,0,1.13,0,1.7,0,.25.07.33.33.33l3.64,0c.29,0,.39.07.38.37,0,.69,0,1.39,0,2.08,0,.28-.08.36-.36.36-1.18,0-2.37,0-3.55,0-.32,0-.42.08-.4.4,0,.63,0,1.27,0,1.91,0,.36.13.43.46.44,1.61,0,3.22,0,4.83-.07.35,0,.43.1.38.42a19.43,19.43,0,0,0-.1,2.41c0,.28-.07.39-.38.37-3-.13-5.93-.12-8.89,0-.3,0-.4,0-.38-.37C89,47.63,89,45.37,88.93,43.12Z"/><path class="cls-3" d="M.09,36.2c1.42-.06,2.77-.1,4.12-.17.28,0,.28.2.34.35l2.82,8.28a1,1,0,0,0,.22.45C8,44,8.34,42.9,8.7,41.8q.88-2.64,1.73-5.3c.1-.31.24-.37.54-.37,1.13,0,2.26,0,3.38,0,.38,0,.42.07.28.41Q12.2,42.47,9.8,48.39c-.21.51-.39,1-.57,1.54a.41.41,0,0,1-.43.35c-.85,0-1.7.07-2.54.15-.29,0-.35-.12-.44-.34-1.62-4-3.26-7.94-4.89-11.91C.67,37.54.4,36.91.09,36.2Z"/><path class="cls-3" d="M127.75,43.16c0,2.23,0,4.46.07,6.69,0,.29-.08.34-.35.34h-3.55c-.29,0-.34-.08-.33-.36q.3-6.67,0-13.36c0-.3.08-.34.34-.34,1.19,0,2.37,0,3.55-.08.29,0,.35.07.34.35C127.71,38.65,127.76,40.91,127.75,43.16Z"/><path class="cls-4" d="M159.83,30.8a.28.28,0,0,0,0,.09V41.55c-1.15-.62-2.29-1.24-3.43-1.88-1.93-1.08-3.86-2.18-5.79-3.27-.12-.07-.29-.1-.35-.26l1.35-.77c2.18-1.23,4.36-2.47,6.54-3.68A11.61,11.61,0,0,1,159.83,30.8Z"/><path class="cls-5" d="M159.83,30.8a11.61,11.61,0,0,0-1.67.89c-2.18,1.21-4.36,2.45-6.54,3.68l-1.35.77c0-1.57,0-3.13,0-4.7,0-1.86,0-3.72,0-5.58v-.51l2.14,1.2,7.13,4,.39.16Z"/><rect class="cls-6" width="169.58" height="79.91"/></g></g></svg>