<svg xmlns="http://www.w3.org/2000/svg" viewBox="0 0 1920.08 563.07"><defs><style>.cls-1{isolation:isolate;}.cls-2{fill:#1f439b;}.cls-3{opacity:0.1;mix-blend-mode:multiply;}</style></defs><title>podcast-header-bg</title><g class="cls-1"><g id="Layer_2" data-name="Layer 2"><g id="backgrounds"><path class="cls-2" d="M1920.08,496.68C1344.38,675.86,896.92,427.92,0,496.68V0H1920.08Z"/><path class="cls-2" d="M1920.08,496.68C1344.38,675.86,896.92,427.92,0,496.68V0H1920.08Z"/><g class="cls-3"><path class="cls-2" d="M1323.66,560.39a113.57,113.57,0,0,0,23.38.28q2.78-.25,5.55-.69-22.24-1-44.66-2.41A125.52,125.52,0,0,0,1323.66,560.39Z"/><path class="cls-2" d="M1881.9,510.89l-.31-3.28q-9.21,2.59-18.39,5Z"/><path class="cls-2" d="M1158.59,49.22l-.18,0-85,8-46.3,4.36-85.39,8.05,5,52.71,7.19,76.37.2,0,1.25,13.08c4.09,43.39,47.91,74.6,93.44,79.72a113.58,113.58,0,0,0,23.38.29,103.64,103.64,0,0,0,22.89-4.93c43.68-14.56,80.6-56.56,76.93-95.48Z"/><path class="cls-2" d="M71.41,386.64l-6.4-68,26.93-2.53c46.23-4.36,80.22-44.94,75.91-90.64s-45.27-79.22-91.5-74.87L61.3,152,0,157.75V393.36l11-1Z"/><path class="cls-2" d="M415.22,202.13c-4.31-45.7-45.28-79.22-91.51-74.86l-15,1.41L190.07,139.85,195.26,195l10.4,110.34,6.4,68,118.6-11.17,77.68-7.57-69-61.88C385.53,288.42,419.52,247.84,415.22,202.13Z"/><ellipse class="cls-2" cx="562.92" cy="222.5" rx="118.64" ry="117.29" transform="translate(-18.41 53.84) rotate(-5.39)"/><path class="cls-2" d="M828.7,79.7l-22.46,2.12L743.5,87.73l-2.87.27L697.2,92.09l22,233.54,46.3-4.36v-.1l31.68-3.05,31.06-2.92v-.07L850.67,313c48.61-19,80.84-69.25,75.61-124.79S880,89.29,828.7,79.7Z"/><path class="cls-2" d="M1389.79,61.37c-50.42-41.26-125.21-34.22-167,15.73a116.34,116.34,0,0,0,15.56,165.14c50.42,41.25,125.21,34.21,167-15.74L1314,151.8Z"/><polygon class="cls-2" points="1488.43 253.18 1607.03 242.01 1596.03 125.24 1645.16 120.62 1634.22 4.43 1417.36 24.85 1428.3 141.04 1477.43 136.41 1488.43 253.18"/><path class="cls-2" d="M1446.86,460.26,1433.47,318.1h-.18l-85,8-46.3,4.36-85.39,8,5,52.72,7.19,76.37.2,0,1.25,13.07c3.61,38.36,38.27,67.19,77.71,76.91q22.41,1.38,44.66,2.41a105.67,105.67,0,0,0,17.34-4.24C1413.6,541.18,1450.53,499.19,1446.86,460.26Z"/><path class="cls-2" d="M351.23,419.44l-15.05,1.41-72.29,6.81L217.59,432l5,53c76.21-1.81,149-1.47,218.82.45C433,444.36,394.42,415.37,351.23,419.44Z"/><path class="cls-2" d="M690.09,471c-4.3-45.7-45.27-79.22-91.5-74.87l-15.05,1.42L465,408.73l5.19,55.17,2.12,22.51C547.41,489,619.13,493.34,688,498.69A82,82,0,0,0,690.09,471Z"/><path class="cls-2" d="M955.92,480.25C949.84,415.76,892,368.46,826.8,374.6c-64.8,6.11-112.55,62.66-107.22,126.63,81,6.71,158,14.67,232.18,22.61A115.9,115.9,0,0,0,955.92,480.25Z"/><path class="cls-2" d="M1201.15,457.06c-5.23-55.54-46.27-98.89-97.57-108.48l-22.46,2.11-62.74,5.91-2.87.27L972.08,361l15.7,166.75c63.82,6.87,125.56,13.56,185.87,19.21A122.46,122.46,0,0,0,1201.15,457.06Z"/><path class="cls-2" d="M1664.67,330.24C1614.24,289,1539.46,296,1497.62,346a116.34,116.34,0,0,0,15.56,165.14c50.42,41.26,125.21,34.21,167-15.73l-91.3-74.71Z"/><path class="cls-2" d="M1920,389.49,1909.1,273.3l-216.87,20.43,11,116.18,49.13-4.62,11,116.77,99.89-9.41q9.18-2.46,18.39-5L1870.9,394.12Z"/><path class="cls-2" d="M1808.36,87.13a18,18,0,1,0,19.83,16.23A18.14,18.14,0,0,0,1808.36,87.13Z"/><path class="cls-2" d="M1776.63,29.51c-43.58,4.1-75.62,42.36-71.56,85.44s42.67,74.69,86.26,70.58,75.62-42.36,71.56-85.44S1820.22,25.4,1776.63,29.51Zm-12.31,107.11-8.73.82-4.06-43.14L1734.07,96l-.81-8.63,43.64-4.11.81,8.62-17.45,1.65Zm48.34-3.77a27.91,27.91,0,1,1,25.49-30.43A28.06,28.06,0,0,1,1812.66,132.85Z"/></g></g></g></g></svg>