<svg xmlns="http://www.w3.org/2000/svg" xmlns:xlink="http://www.w3.org/1999/xlink" viewBox="0 0 38 31.69"><defs><style>.cls-1{fill:url(#linear-gradient);}.cls-2{fill:#29272a;}.cls-3{fill:none;stroke:#29272a;stroke-miterlimit:10;stroke-width:1.5px;}.cls-4{fill:#15a59d;}</style><linearGradient id="linear-gradient" x1="28.92" y1="7.76" x2="9.09" y2="27.58" gradientUnits="userSpaceOnUse"><stop offset="0" stop-color="#fcd14f"/><stop offset="1" stop-color="#fab657"/></linearGradient></defs><title>smiley</title><g id="Layer_2" data-name="Layer 2"><g id="Layer_1-2" data-name="Layer 1"><circle class="cls-1" cx="19" cy="17.67" r="14.02"/><path class="cls-2" d="M12.32,17.65c.47,0,.62.38.82.71a6.86,6.86,0,0,0,5.19,3.58,4.74,4.74,0,0,0,4-1.07,6.19,6.19,0,0,0,2.58-2.54c.25-.44.54-.87,1.08-.57s.32.84.07,1.29a10.42,10.42,0,0,1-2.24,2.62,8.45,8.45,0,0,1-5,1.7A8.36,8.36,0,0,1,11.94,19C11.59,18.41,11.48,17.9,12.32,17.65Z"/><path class="cls-2" d="M27.33,14.75c0,.4-.1.72-.55.78A.61.61,0,0,1,26,15c-.06-.52-.33-.86-.83-.87s-.78.4-.87.92a.6.6,0,0,1-.8.51c-.4-.07-.51-.38-.51-.74a2.23,2.23,0,0,1,2.19-2.07A2.18,2.18,0,0,1,27.33,14.75Z"/><path class="cls-2" d="M14.45,13.36A2.77,2.77,0,0,1,15,14.8c0,.37-.12.66-.52.73a.61.61,0,0,1-.79-.52c-.07-.54-.31-.92-.86-.92s-.74.44-.86.94-.63.58-1.11.39a.06.06,0,0,0-.07-.07,1.78,1.78,0,0,1,.56-2,2,2,0,0,1,2.13-.5,8.67,8.67,0,0,1,.82.38Z"/><path class="cls-3" d="M2.08,17.67a16.92,16.92,0,0,1,33.84,0"/><path class="cls-4" d="M33.84,13.59H36a2,2,0,0,1,2,2v4.56a2,2,0,0,1-2,2h-2.2a0,0,0,0,1,0,0v-8.5A0,0,0,0,1,33.84,13.59Z"/><path class="cls-4" d="M0,13.59H2.2a2,2,0,0,1,2,2v4.56a2,2,0,0,1-2,2H0a0,0,0,0,1,0,0v-8.5A0,0,0,0,1,0,13.59Z" transform="translate(4.17 35.67) rotate(-180)"/></g></g></svg>