<svg xmlns="http://www.w3.org/2000/svg" viewBox="0 0 1920.04 254.64"><defs><style>.cls-1{isolation:isolate;}.cls-2{fill:#1f439b;}.cls-3{opacity:0.1;mix-blend-mode:multiply;}.cls-4{fill:none;}</style></defs><title>subscribe-bnr-bg</title><g class="cls-1"><g id="Layer_2" data-name="Layer 2"><g id="Layer_1-2" data-name="Layer 1"><rect class="cls-2" x="0.02" y="0.3" width="1920" height="254.05"/><g class="cls-3"><path class="cls-4" d="M1227.25.59c-.19-.19-.37-.39-.55-.59h-64.07c-.1.2-.21.4-.32.59Z"/><path class="cls-4" d="M960.3.59c-.08-.19-.17-.39-.25-.59h-37.4c0,.2-.1.4-.16.59Z"/><path class="cls-4" d="M1486.36.59l0-.59h-85.43l-.57.59Z"/><path class="cls-4" d="M710.3.59l0-.59H681.12c0,.2,0,.4,0,.59Z"/><path class="cls-4" d="M444.6.59c0-.19,0-.39-.05-.59H412.63l-.18.59Z"/><path class="cls-4" d="M198.67.59l0-.59H168.1c0,.2,0,.4,0,.59Z"/><polygon class="cls-4" points="1605.95 0 1606.01 0.59 1920 0.59 1920 254.64 1920.04 254.64 1920.04 0 1605.95 0"/><path class="cls-2" d="M1162.31.59c.11-.19.22-.39.32-.59H960.05c.08.2.17.4.25.59Z"/><path class="cls-2" d="M1048.7,60.07a114.28,114.28,0,0,0,23.38.28A103.64,103.64,0,0,0,1095,55.42c28.41-9.47,54-30.54,67.34-54.83h-202C973.74,33.24,1010.62,55.78,1048.7,60.07Z"/><path class="cls-2" d="M0,.59H168.11c0-.19,0-.39,0-.59H0Z"/><path class="cls-2" d="M71.34,155.19l-6.41-68,26.93-2.53c44-4.14,76.87-41.09,76.25-84H0V161.91l10.93-1Z"/><path class="cls-2" d="M412.45.59l.18-.59h-214l0,.59Z"/><path class="cls-2" d="M205.58,73.91l6.41,68,118.59-11.17,77.69-7.57-69-61.88A84.06,84.06,0,0,0,412.45.59H198.67Z"/><path class="cls-2" d="M681.08.59c0-.19,0-.39,0-.59H444.55c0,.2,0,.4.05.59Z"/><path class="cls-2" d="M444.73,2.18C450.8,66.67,508.61,114,573.84,107.82,632,102.34,676.43,56.23,681.08.59H444.6C444.64,1.12,444.68,1.65,444.73,2.18Z"/><path class="cls-2" d="M922.49.59c.06-.19.11-.39.16-.59H710.25l0,.59Z"/><path class="cls-2" d="M719.12,94.18l46.3-4.36v-.1l31.67-3,31.07-2.92v-.07l22.45-2.16c35.31-13.8,62-44.1,71.9-80.93H710.3Z"/><path class="cls-2" d="M1400.31.59l.57-.59H1226.7c.18.2.36.4.55.59Z"/><path class="cls-2" d="M1238.22,10.79c48.49,39.67,119.52,34.67,162.09-10.2H1227.25A118.48,118.48,0,0,0,1238.22,10.79Z"/><polygon class="cls-2" points="1606.01 0.59 1605.95 0 1486.31 0 1486.36 0.59 1606.01 0.59"/><polygon class="cls-2" points="1488.35 21.73 1606.95 10.56 1606.01 0.59 1486.36 0.59 1488.35 21.73"/><path class="cls-2" d="M1446.78,228.81,1433.4,86.65h-.19l-85,8L1301.92,99l-85.39,8,5,52.72,7.19,76.37.2,0,1.25,13.08c.17,1.83.42,3.64.73,5.42h212.79A64.08,64.08,0,0,0,1446.78,228.81Z"/><path class="cls-2" d="M351.15,188l-15,1.41-72.29,6.81-46.3,4.36,5.09,54.07H441.46C433.33,213.21,394.57,183.9,351.15,188Z"/><path class="cls-2" d="M690,239.56c-4.31-45.7-45.27-79.22-91.51-74.87l-15,1.42L464.87,177.28l5.2,55.17,2.09,22.19H690A83.48,83.48,0,0,0,690,239.56Z"/><path class="cls-2" d="M826.72,143.15c-59.63,5.62-104.83,54-107.5,111.49h237c-.08-1.94-.22-3.88-.4-5.84C949.77,184.31,892,137,826.72,143.15Z"/><path class="cls-2" d="M1201.08,225.61c-5.23-55.54-46.28-98.89-97.58-108.48l-22.45,2.11-62.75,5.91-2.87.27L972,129.51l11.78,125.13H1200.4A124.18,124.18,0,0,0,1201.08,225.61Z"/><path class="cls-2" d="M1664.59,98.79c-50.42-41.26-125.21-34.21-167,15.73a116.31,116.31,0,0,0-7.34,140.12h178.58l-80-65.41Z"/><polygon class="cls-2" points="1919.96 158.04 1909.02 41.85 1692.16 62.28 1703.1 178.47 1752.23 173.84 1759.84 254.64 1879.49 254.64 1870.83 162.67 1919.96 158.04"/></g></g></g></g></svg>