<svg xmlns="http://www.w3.org/2000/svg" viewBox="0 0 239.02 64.8"><defs><style>.cls-1{fill:#9aa0a6;}.cls-2{fill:#fff;}.cls-3{fill:#2b343c;}</style></defs><title>blog-medium</title><g id="Layer_2" data-name="Layer 2"><g id="Layer_1-2" data-name="Layer 1"><path id="_Path_" data-name=" Path " class="cls-1" d="M239,16.31V14.53a26.38,26.38,0,0,0-.35-3.87A12.87,12.87,0,0,0,237.45,7a12.66,12.66,0,0,0-2.29-3.14A12.05,12.05,0,0,0,232,1.56a13,13,0,0,0-3.7-1.22A23.89,23.89,0,0,0,224.46,0H14.56a26.51,26.51,0,0,0-3.88.34A13,13,0,0,0,7,1.56,12.33,12.33,0,0,0,3.87,3.84,11.7,11.7,0,0,0,1.59,7,12.59,12.59,0,0,0,.38,10.66,25.11,25.11,0,0,0,0,14.53V50.24a25.08,25.08,0,0,0,.35,3.87A12.59,12.59,0,0,0,1.56,57.8a12,12,0,0,0,2.3,3.12A12.49,12.49,0,0,0,7,63.23a12.85,12.85,0,0,0,3.68,1.22,26.52,26.52,0,0,0,3.88.35h209.9a26.52,26.52,0,0,0,3.88-.35A13.12,13.12,0,0,0,232,63.23a12.47,12.47,0,0,0,5.41-5.41,12.61,12.61,0,0,0,1.2-3.68,25.21,25.21,0,0,0,.36-3.87V18.42C239,17.71,239,17,239,16.31Z"/><path id="_Path_2" data-name=" Path 2" class="cls-2" d="M237.83,46.34V50.2a27.21,27.21,0,0,1-.34,3.71,11.15,11.15,0,0,1-3.16,6.17,10.77,10.77,0,0,1-2.82,2.06,11.81,11.81,0,0,1-3.37,1.11,28.12,28.12,0,0,1-3.67.33H14.59a25.44,25.44,0,0,1-3.7-.33,11.58,11.58,0,0,1-3.35-1.11,11.14,11.14,0,0,1-4.9-4.89,11.46,11.46,0,0,1-1.1-3.35,25.56,25.56,0,0,1-.33-3.7V14.56a25.44,25.44,0,0,1,.33-3.7,11.37,11.37,0,0,1,1.1-3.35A10.78,10.78,0,0,1,4.69,4.68,11.28,11.28,0,0,1,7.55,2.6a11.81,11.81,0,0,1,3.34-1.1,25.3,25.3,0,0,1,3.69-.33H224.42a25.44,25.44,0,0,1,3.7.33,11.87,11.87,0,0,1,3.35,1.1,11.09,11.09,0,0,1,2.83,2.07,11.46,11.46,0,0,1,2.07,2.82,11.77,11.77,0,0,1,1.09,3.37,25,25,0,0,1,.33,3.68v31.8Z"/><path id="_Path_3" data-name=" Path 3" class="cls-2" d="M237.83,46.34V50.2a27.21,27.21,0,0,1-.34,3.71,11.15,11.15,0,0,1-3.16,6.17,10.77,10.77,0,0,1-2.82,2.06,11.81,11.81,0,0,1-3.37,1.11,28.12,28.12,0,0,1-3.67.33H14.59a25.44,25.44,0,0,1-3.7-.33,11.58,11.58,0,0,1-3.35-1.11,11.14,11.14,0,0,1-4.9-4.89,11.46,11.46,0,0,1-1.1-3.35,25.56,25.56,0,0,1-.33-3.7V14.56a25.44,25.44,0,0,1,.33-3.7,11.37,11.37,0,0,1,1.1-3.35A10.78,10.78,0,0,1,4.69,4.68,11.28,11.28,0,0,1,7.55,2.6a11.81,11.81,0,0,1,3.34-1.1,25.3,25.3,0,0,1,3.69-.33H224.42a25.44,25.44,0,0,1,3.7.33,11.87,11.87,0,0,1,3.35,1.1,11.09,11.09,0,0,1,2.83,2.07,11.46,11.46,0,0,1,2.07,2.82,11.77,11.77,0,0,1,1.09,3.37,25,25,0,0,1,.33,3.68v31.8Z"/><g id="Page-1"><g id="Wordmark_White" data-name="Wordmark White"><path id="Shape" d="M174.46,39.54c0,.32,0,.4.22.59l1.23,1.21v0h-5.46V39.07a3.8,3.8,0,0,1-3.62,2.52c-2.81,0-4.84-2.21-4.84-6.27,0-3.8,2.19-6.33,5.28-6.33a3.2,3.2,0,0,1,3.17,2V25.85a.62.62,0,0,0-.25-.62L169,24.1V24l5.44-.64Zm-4-.74V31.18a2,2,0,0,0-1.63-.77c-1.32,0-2.61,1.21-2.61,4.79,0,3.35,1.11,4.54,2.49,4.54A2.19,2.19,0,0,0,170.45,38.8Zm7.63,2.59V31.1a.71.71,0,0,0-.22-.62l-1.21-1.25v-.05h5.46V39.62c0,.32,0,.4.22.59l1.2,1.14v0Zm-.2-16a2.2,2.2,0,1,1,2.2,2.21,2.19,2.19,0,0,1-2.2-2.21Zm19,14.11c0,.32,0,.42.22.61l1.23,1.21v0H192.8V38.75A4,4,0,0,1,189,41.59c-2.43,0-3.74-1.78-3.74-5.15,0-1.62,0-3.4,0-5.4a.6.6,0,0,0-.22-.6l-1.2-1.21v-.05h5.41v6.71c0,2.21.32,3.68,1.7,3.68a2.2,2.2,0,0,0,1.77-1.11V31.1a.66.66,0,0,0-.21-.61l-1.22-1.26v-.05h5.46Zm18.58,1.87c0-.4.08-5.46.08-6.62,0-2.2-.35-3.73-1.89-3.73a2.5,2.5,0,0,0-2,1.06,8.71,8.71,0,0,1,.22,2.1c0,1.53,0,3.48-.07,5.43a.61.61,0,0,0,.22.59l1.23,1.13v.06h-5.51c0-.37.07-5.46.07-6.62,0-2.25-.34-3.73-1.87-3.73a2.2,2.2,0,0,0-1.81,1.09v7.5c0,.32,0,.4.22.59l1.2,1.14v0h-5.45V31.13a.72.72,0,0,0-.22-.62l-1.21-1.28v-.05h5.46v2.61A3.9,3.9,0,0,1,208.05,29a3.51,3.51,0,0,1,3.57,2.94,4.24,4.24,0,0,1,4.1-2.94c2.44,0,3.81,1.8,3.81,5.2,0,1.63-.05,3.48-.07,5.43a.61.61,0,0,0,.25.6l1.2,1.13v0Zm-68.58-1.6,1.62,1.55v0h-8.22v0l1.65-1.55a.63.63,0,0,0,.22-.6V29.27a10.84,10.84,0,0,1,.07-1.47l-5.54,13.79h-.06L130.84,28.9c-.12-.31-.16-.33-.24-.55v8.32a2.87,2.87,0,0,0,.27,1.63l2.31,3v0h-6.13v0l2.31-3.05a2.92,2.92,0,0,0,.27-1.62V27.48a1.8,1.8,0,0,0-.38-1.26l-1.63-2.12V24h5.86l4.91,10.75L142.71,24h5.74v.06l-1.61,1.8a.61.61,0,0,0-.25.61V39.19A.59.59,0,0,0,146.84,39.79Zm6.42-5v0c0,3.15,1.62,4.41,3.52,4.41A4,4,0,0,0,160.52,37h0c-.66,3.11-2.58,4.58-5.45,4.58-3.1,0-6-1.88-6-6.22,0-4.57,2.94-6.39,6.18-6.39,2.6,0,5.38,1.23,5.38,5.2v.64Zm0-.64h3.62v-.64c0-3.23-.67-4.09-1.67-4.09-1.22,0-2,1.29-2,4.73Z"/></g></g><path class="cls-3" d="M18.13,36.27l.94-1.09a3.63,3.63,0,0,0,2.35,1c1,0,1.58-.46,1.58-1.16s-.58-1-1.4-1.33l-1.24-.54a2.61,2.61,0,0,1-1.83-2.41c0-1.44,1.27-2.55,3-2.55a4,4,0,0,1,2.79,1.15l-.82,1a3,3,0,0,0-2-.77c-.85,0-1.42.4-1.42,1.06s.69,1,1.44,1.28l1.23.51a2.54,2.54,0,0,1,1.83,2.45c0,1.47-1.22,2.69-3.26,2.69A4.69,4.69,0,0,1,18.13,36.27Z"/><path class="cls-3" d="M26,35.13V31.89h-1V30.7l1.05-.07.2-1.85h1.33v1.85h1.73v1.26H27.64v3.24c0,.81.3,1.19.95,1.19a1.8,1.8,0,0,0,.71-.15l.28,1.18a4.54,4.54,0,0,1-1.39.25C26.61,37.6,26,36.6,26,35.13Z"/><path class="cls-3" d="M30.14,35.6c0-1.45,1.21-2.21,4-2.52,0-.72-.32-1.33-1.25-1.33a3.9,3.9,0,0,0-1.91.67l-.58-1.07a5.27,5.27,0,0,1,2.79-.88c1.69,0,2.54,1,2.54,2.93v4H34.42l-.11-.75h-.05a3.28,3.28,0,0,1-2.11.92A1.9,1.9,0,0,1,30.14,35.6Zm4,0V34.08c-1.86.24-2.47.72-2.47,1.4s.42.87,1,.87A2.15,2.15,0,0,0,34.15,35.6Z"/><path class="cls-3" d="M37.65,30.63H39l.11,1.21h.06a2.29,2.29,0,0,1,1.92-1.37,1.7,1.7,0,0,1,.78.14L41.55,32a2.14,2.14,0,0,0-.7-.11c-.54,0-1.19.37-1.61,1.4v4.15H37.65Z"/><path class="cls-3" d="M43.05,35.13V31.89h-1V30.7l1.05-.07.19-1.85h1.33v1.85h1.74v1.26H44.65v3.24c0,.81.31,1.19,1,1.19a1.84,1.84,0,0,0,.71-.15l.27,1.18a4.42,4.42,0,0,1-1.38.25C43.63,37.6,43.05,36.6,43.05,35.13Z"/><path class="cls-3" d="M50.58,30.63h1.31L52,31.84h.05A2.31,2.31,0,0,1,54,30.47a1.68,1.68,0,0,1,.77.14L54.48,32a2.14,2.14,0,0,0-.7-.11c-.54,0-1.19.37-1.61,1.4v4.15H50.58Z"/><path class="cls-3" d="M55.16,34a3.31,3.31,0,0,1,3.13-3.57c1.84,0,2.81,1.33,2.81,3.22a3.85,3.85,0,0,1-.07.78H56.71a2,2,0,0,0,2,1.9,2.84,2.84,0,0,0,1.58-.5l.54,1a4.3,4.3,0,0,1-2.33.74A3.28,3.28,0,0,1,55.16,34Zm4.56-.65c0-1-.46-1.69-1.39-1.69a1.7,1.7,0,0,0-1.63,1.69Z"/><path class="cls-3" d="M62.1,35.6c0-1.45,1.2-2.21,4-2.52,0-.72-.32-1.33-1.25-1.33a3.9,3.9,0,0,0-1.91.67l-.58-1.07a5.34,5.34,0,0,1,2.8-.88c1.69,0,2.53,1,2.53,2.93v4H66.38l-.11-.75h-.06a3.27,3.27,0,0,1-2.1.92A1.9,1.9,0,0,1,62.1,35.6Zm4,0V34.08c-1.86.24-2.47.72-2.47,1.4s.42.87,1,.87A2.13,2.13,0,0,0,66.1,35.6Z"/><path class="cls-3" d="M69.19,34c0-2.22,1.4-3.57,2.88-3.57a2.48,2.48,0,0,1,1.78.75l0-1.1V27.66h1.59v9.77H74.08L74,36.7h0a2.83,2.83,0,0,1-1.93.9C70.28,37.6,69.19,36.28,69.19,34Zm4.61,1.48V32.35a2.06,2.06,0,0,0-1.39-.57c-.87,0-1.58.82-1.58,2.25s.56,2.25,1.54,2.25A1.83,1.83,0,0,0,73.8,35.52Z"/><path class="cls-3" d="M77.23,28.54a1,1,0,1,1,1,.9A.91.91,0,0,1,77.23,28.54Zm.18,2.09H79v6.8H77.41Z"/><path class="cls-3" d="M81,30.63h1.31l.11.92h.06a3.14,3.14,0,0,1,2.23-1.08c1.45,0,2.09,1,2.09,2.7v4.26H85.25v-4c0-1.13-.32-1.54-1.07-1.54a2.17,2.17,0,0,0-1.55.84v4.75H81Z"/><path class="cls-3" d="M88.33,38.67a1.77,1.77,0,0,1,1-1.46v-.05A1.32,1.32,0,0,1,88.69,36a1.63,1.63,0,0,1,.75-1.26V34.7a2.29,2.29,0,0,1-.88-1.8,2.46,2.46,0,0,1,2.68-2.43,3.27,3.27,0,0,1,1,.16h2.44v1.18H93.43A1.82,1.82,0,0,1,93.82,33a2.31,2.31,0,0,1-2.58,2.31,2.44,2.44,0,0,1-.93-.18.8.8,0,0,0-.33.65c0,.39.28.63,1.11.63h1.2c1.64,0,2.5.49,2.5,1.67,0,1.35-1.41,2.4-3.63,2.4C89.54,40.44,88.33,39.86,88.33,38.67Zm4.92-.36c0-.53-.43-.68-1.2-.68h-.93a3.53,3.53,0,0,1-.93-.1,1.15,1.15,0,0,0-.53.9c0,.61.67,1,1.75,1S93.25,38.89,93.25,38.31Zm-.83-5.41a1.19,1.19,0,1,0-2.37,0,1.2,1.2,0,1,0,2.37,0Z"/><path class="cls-3" d="M98.32,34a3.25,3.25,0,1,1,6.46,0,3.25,3.25,0,1,1-6.46,0Zm4.83,0c0-1.37-.61-2.27-1.61-2.27S100,32.67,100,34s.6,2.26,1.59,2.26S103.15,35.4,103.15,34Z"/><path class="cls-3" d="M106.36,30.63h1.32l.11.92h0a3.14,3.14,0,0,1,2.23-1.08c1.46,0,2.09,1,2.09,2.7v4.26h-1.59v-4c0-1.13-.32-1.54-1.07-1.54a2.17,2.17,0,0,0-1.55.84v4.75h-1.59Z"/></g></g></svg>