<svg xmlns="http://www.w3.org/2000/svg" viewBox="0 0 339.91 314.98"><defs><style>.cls-1,.cls-2,.cls-4{fill:none;}.cls-2{stroke:#61d9d1;stroke-width:6.88px;}.cls-2,.cls-4{stroke-miterlimit:10;}.cls-3{fill:#1c4ea8;}.cls-4{stroke:#fff;stroke-width:6px;stroke-dasharray:20 16 8 10;}</style></defs><title>blog-main-img</title><g id="Layer_2" data-name="Layer 2"><g id="Layer_1-2" data-name="Layer 1"><rect class="cls-1" width="339.91" height="314.98"/><polyline class="cls-2" points="197.76 211.96 197.76 37.29 64.86 37.29 64.86 211.96"/><path class="cls-2" d="M64.87,212a41.19,41.19,0,0,0,41.19,41.2H239"/><polyline class="cls-2" points="217.26 61.43 238.96 61.43 238.96 211.96"/><path class="cls-2" d="M239,79.38h21.71V212a21.71,21.71,0,1,1-43.41,0V47.48h-19.5"/><path class="cls-2" d="M197.76,212a41.2,41.2,0,0,0,82.4,0V94.66H262.22"/><rect class="cls-2" x="82.14" y="61.43" width="102.33" height="33.22"/><rect class="cls-2" x="151.91" y="112.6" width="32.56" height="42.53"/><line class="cls-2" x1="82.14" y1="115.59" x2="133.31" y2="115.59"/><line class="cls-2" x1="82.14" y1="152.14" x2="133.31" y2="152.14"/><line class="cls-2" x1="82.14" y1="178.72" x2="184.47" y2="178.72"/><line class="cls-2" x1="82.14" y1="207.07" x2="184.47" y2="207.07"/><path class="cls-3" d="M307.79,40.06h-5V52.64H283.08V9.45h24.71a15.31,15.31,0,1,1,0,30.61Z"/><path class="cls-3" d="M41.35,293h-5v12.58H16.63V262.34H41.35a15.31,15.31,0,1,1,0,30.61Z"/><line class="cls-4" x1="275.56" y1="57.66" x2="63.46" y2="259.56"/></g></g></svg>