<svg xmlns="http://www.w3.org/2000/svg" viewBox="0 0 339.91 314.98"><defs><style>.cls-1,.cls-3,.cls-4{fill:none;}.cls-1{stroke:#1c4ea8;stroke-width:7.74px;}.cls-1,.cls-3{stroke-miterlimit:10;}.cls-2{fill:#1c4ea8;}.cls-3{stroke:#fff;stroke-width:5.42px;}</style></defs><title>podcast-main-img</title><g id="Layer_2" data-name="Layer 2"><g id="Layer_1-2" data-name="Layer 1"><rect class="cls-1" x="121.24" y="21.47" width="97.92" height="168.95" rx="48.96" ry="48.96"/><path class="cls-1" d="M230.45,115.92h11.74v31.21a70.69,70.69,0,0,1-70.69,70.69h-2.61A70.69,70.69,0,0,1,98.2,147.13V115.92h11.43"/><line class="cls-1" x1="171.5" y1="217.82" x2="171.5" y2="265.53"/><line class="cls-1" x1="136.33" y1="265.53" x2="206.67" y2="265.53"/><circle class="cls-2" cx="145.16" cy="71.46" r="4.54"/><circle class="cls-2" cx="170.19" cy="71.46" r="4.54"/><circle class="cls-2" cx="195.23" cy="71.46" r="4.54"/><circle class="cls-2" cx="145.16" cy="92.48" r="4.54"/><circle class="cls-2" cx="170.19" cy="92.48" r="4.54"/><circle class="cls-2" cx="195.23" cy="92.48" r="4.54"/><circle class="cls-2" cx="145.16" cy="113.49" r="4.54"/><circle class="cls-2" cx="170.19" cy="113.49" r="4.54"/><circle class="cls-2" cx="195.23" cy="113.49" r="4.54"/><circle class="cls-2" cx="145.16" cy="134.51" r="4.54"/><circle class="cls-2" cx="170.19" cy="134.51" r="4.54"/><circle class="cls-2" cx="195.23" cy="134.51" r="4.54"/><line class="cls-1" x1="111.41" y1="286.38" x2="231.59" y2="286.38"/><path class="cls-3" d="M68,145a15.32,15.32,0,0,0,26.18-1h0a15.31,15.31,0,0,1,13.13-7.69c5.91-.06,10.79,3.36,13.68,8.14a15.3,15.3,0,0,0,26.18-1h0a15.28,15.28,0,0,1,13.12-7.68c5.92-.06,11.41,4.77,14.5,9.21h0a15.32,15.32,0,0,0,26.18-1h0A15.3,15.3,0,0,1,214,136.29c5.92-.06,10.79,3.36,13.68,8.14a15.3,15.3,0,0,0,26.18-1h0A15.27,15.27,0,0,1,267,135.76a15.44,15.44,0,0,1,4.27.55"/><path class="cls-2" d="M311.33,151H306v13.38H285V118.47h26.29a16.28,16.28,0,1,1,0,32.56Z"/><path class="cls-2" d="M38.4,151H33.1v13.38h-21V118.47H38.4a16.28,16.28,0,1,1,0,32.56Z"/><rect class="cls-4" width="339.91" height="314.98"/></g></g></svg>