<svg xmlns="http://www.w3.org/2000/svg" viewBox="0 0 668.87 383.12"><defs><style>.cls-1{fill:#fd7159;}.cls-2{opacity:0.9;}.cls-3,.cls-9{fill:none;stroke-miterlimit:10;}.cls-3{stroke:#84e3dc;stroke-width:2.83px;}.cls-4{fill:#c20d06;}.cls-5{fill:#fff;}.cls-6{fill:#1c4ea8;}.cls-7{fill:#84e3dc;}.cls-8{opacity:0.5;}.cls-9{stroke:#fff;stroke-width:1.12px;}</style></defs><title>Event-3-community-page</title><g id="Layer_2" data-name="Layer 2"><g id="Layer_1-2" data-name="Layer 1"><rect class="cls-1" width="668.87" height="383.12"/><g class="cls-2"><path class="cls-3" d="M557.07,269l-1.5,1.62,4.14,3.84-3.38,3.64-3,3.24-4.14-3.84-10.06-9.35,3-3.25,4-4.34.84-.91A6.87,6.87,0,1,1,557.07,269Z"/><line class="cls-3" x1="477" y1="80.64" x2="463.18" y2="94.05"/><line class="cls-3" x1="476.79" y1="94.26" x2="463.39" y2="80.43"/><line class="cls-3" x1="476.38" y1="257.95" x2="449.84" y2="251.97"/><polyline class="cls-3" points="469.48 247.03 476.38 257.95 465.46 264.85"/><rect class="cls-3" x="484.45" y="15.05" width="16.68" height="16.68" transform="matrix(-0.09, -1, 1, -0.09, 513.9, 516.29)"/><circle class="cls-3" cx="484.29" cy="311.55" r="8.44"/><path class="cls-3" d="M428,38.44h0a10.43,10.43,0,0,0-13.52,12.27h0a10.43,10.43,0,0,1-12.53,12.7,10.82,10.82,0,0,0-10.59,2.33,10.44,10.44,0,0,0-2.93,9.94h0a10.43,10.43,0,0,1-12.53,12.7"/><polygon class="cls-3" points="531.92 86.65 534.79 105.58 549.41 94.44 531.92 86.65"/><path class="cls-3" d="M358.9,235.08A12.58,12.58,0,0,1,370.29,216"/><path class="cls-3" d="M458.65,154.66A9.78,9.78,0,0,0,443,161.51h0A9.77,9.77,0,0,1,428,169a10.16,10.16,0,0,0-10.1-1.09,9.7,9.7,0,0,0-3.9,3.3"/><line class="cls-3" x1="558.65" y1="176.91" x2="582.46" y2="173.22"/></g><path class="cls-4" d="M371.76,42l.72.63A3.92,3.92,0,0,0,371.76,42Z"/><path class="cls-4" d="M397.49,275.49c-1.79-2.37-2.85-4.14-2.71-7.25.36-8,1.33-16.35-5-23.82-3,10.54-4.35,21.47-14,27.94.74-2,2.18-3.71,2.7-5.68a5,5,0,0,0-1.16-4.27,72.64,72.64,0,0,0-9.23-6.46c-16.91-10.37-27.39-26.27-36-43.32-6.48-12.87-11.71-26.41-16.69-39.95-6.13-16.68-10.64-33.79-8.26-51.88.19-1.44,1.38-2.76,2.42-4.73,1.79,2.45,2.74,3.75,4.62,6.34,1.15-3.77,1.67-6.72,3-9.28,1.2-2.41,2.86-5.76,4.93-6.28,3.4-.86,4.37-3,5.58-5.43.3-.62.54-1.46,1.07-1.77,3-1.79,6.42-3,9-5.28s3.77-1.18,5.86.21c1.92,1.28,8.3,7.56,10.48,8.43l.74-1.32c-1.76-3.08-5.68-13.36-7-15.68A83.69,83.69,0,0,1,355,80.35c4.44-2.92,6.71-7,7.79-12a6,6,0,0,1,1.79-2.93c5.15-4.66,9.25-10,9.39-17.23.05-2.52-.45-4.33-1.45-5.47L367,45.91s-1.35-1.24-3.78-3.08q-11.07,4.11-22,8.49a11.63,11.63,0,0,0-4.83,3.19c-10.59,13.8-21.21,27.58-27.57,44.05-1.95,5-5.47,8.89-11.26,8.8-7.78-.12-13.66,3-18.69,8.68a9.36,9.36,0,0,1-10.4,2.64c-4.29-1.41-8.47-3.14-13.24-4.93-1.83,7.77-4.34,15.4-13.18,19,13.53,11.36,25.9,7,38.24-1.26A99.24,99.24,0,0,0,272.27,171c0,12.76,3.45,24.21,8.09,35.63,7.4,18.22,15.4,36.22,22.16,54.68,4.48,12.26,7.28,25.14,10.77,37.76,1.85,6.68,5.21,12.23,11.11,16,4.26-8.54,6.23-14.52,10.87-27.21,2.61,9,5.05,15.52,4.39,23.71a73.72,73.72,0,0,1-1.94,14.21c3.36,2.65,0,0,2.6,2.41,5.9,5.48,12.78,6.93,20.53,5.77,8.54-1.27,15.19-5.69,20.95-11.86,4.38-4.69,9-9.17,13.45-13.74a144.58,144.58,0,0,1-11.79,15.2c-7.79,9.06-17.35,14.8-29.47,15.88-2.06.18-5.85,1.33-5.81,1.53.62,3.72-2.47,2.55-3.64,2.48-13-.7-24.05-4.66-30.39-17.28-3.12-6.22-6.87-12.12-10.34-18.17-4.51,6.19-8,13.24-6,22.05l-4.93-7.31-1.43.69q2.79,7.71,5.6,15.44a4.5,4.5,0,0,1-1,0c-18.48-4.61-33.88-14.92-48.22-26.81-5.1-4.22-9.12-10.11-9.23-17.34-.06-4.21-2.08-6.65-6-8.79-7.32,10.38-17.92,14.07-30.9,13.62.83,2.09,1.29,3.61,2,5,5.75,11.16,14.82,19.12,25.31,25.54,9.77,6,14.66,15.58,19.49,25.27a11.94,11.94,0,0,1,1,4.29c.56,7-2.49,11.28-9.32,10.8a183.58,183.58,0,0,1-29.51-4.33c-22.11-5.26-35.77-21.94-48.61-38.78-9.51-12.46-17.24-26.29-25.77-39.51l-1.18.41c5.23,13,9.75,26.25,15.89,38.76s13.83,24.09,20.89,36.17L150.56,352c.65,1.37.73,1.91,1.05,2.14,7.21,5.31,14.38,10.68,21.71,15.83,3.46,2.43,7.85,3.81,10.76,6.72q3.18,3.19,6.29,6.44h80.22a23.08,23.08,0,0,0,2.21-13.73,5.28,5.28,0,0,1,1.08-3.48c4.86-6.44,9.84-12.79,15-19.5l5.45,2.2c17.1,6.91,34.72,8.75,52.6,4.17,24.16-6.19,41.5-22.33,57.19-40.63,5.41-6.31,5.87-13.68,2.94-20.82A72.79,72.79,0,0,0,397.49,275.49Z"/><path class="cls-4" d="M262.14,51.23c-3.1,4-4.7,8.83-4.18,15.12.15,1.82-1.3,4.41-2.83,5.59-4,3.09-8.61,5.39-12.7,8.39s-7.78,3.17-12.52.59c-12.2-6.62-24-2.59-27.88,10.67-4.06,13.86-11.77,19.46-26.09,18.55-10.51-.67-17.29,5.51-20.74,15.51a8.84,8.84,0,0,1-4.11,4.74c-9.82,4.48-16.66,11.77-21.83,21.09-2.83,5.1-5.76,10.6-10,14.36-17.56,15.5-35.14,31.06-53.7,45.32-15.1,11.6-27.22,25.45-37.48,41.18-2.48,3.8-4.28,8-6.39,12.09l1.22.89c3.34-2.82,6.8-5.51,10-8.49a22.81,22.81,0,0,1,16.4-6.65c4.26,0,8.51-.61,12.78-.76,5.05-.18,8.83-2.21,12.26-6.08C84.55,231.77,99,226.9,112.61,219.45c-1,4.82-1.82,8.71-2.92,14,3.85-1.24,6.59-1.7,8.89-3,4.74-2.61,9.14-5.81,13.85-8.49,12.11-6.88,16.64-17.5,15.29-30.9-.2-2-2-3.8-3.13-5.69-1.15,11.28-8.25,18-15.1,25.2l5.75-2.41a6.19,6.19,0,0,1-2.27,3.15c-5.65,3.9-19.77,4.14-25-.2-2.22-1.86-4.52-5.47-4.28-8.06.84-9.33,16.38-24.2,25.9-25.25,7.22-.8,14.52-.9,22.11-1.33l-1.59,2.43c14.62-6.7,10.73-18.23,8.22-29.53l4.14.81c-6.52-8.64-6.57-9.91-1.12-18.66,1.76-2.82,3.47-5.66,5.2-8.49l-.74-.57-3.76,2.87c3.27-6.68,17.8-10.66,24.67-7.2a43.65,43.65,0,0,1,5.6,4l-.46.59-3.49-.71,8.79,9.16c12.56-3,20.17-12.24,28.09-21.63,0,3.64-.06,6.57-.09,10,7.12-5.3,12.24-13.2,21.8-9l12.93-18.58,22.76,12.23c1.32-3.67,2.87-6,2.84-8.24-.11-7.77,1.14-15.69-6.64-21.7-6.38-4.93-11.22-11.83-10-20.73A18.24,18.24,0,0,1,269.8,50c-.06.16-.13.33-.18.5Z"/><path class="cls-4" d="M332.92,25.46a64.33,64.33,0,0,0-20-2.87c-6.26.26-12.54,1.78-18.66,3.3-4.81,1.19-6.73,4.58-7.58,8.94l.54-.16.3,1.85s-.43.11-1.15.34c-.06.48-.11,1-.16,1.48l17.41.65c0-.32,0-.64,0-1l-4.68-2.94c8.66-7.77,18-8.4,27.6-7.51h0Z"/><path class="cls-4" d="M107.63,204.82c20.24-1.92,25.52-9,25.85-19.82l-11.63,5.14.61-3C113.36,189.69,112.25,198.14,107.63,204.82Z"/><path class="cls-4" d="M372.55,42.7h0l-.09-.07-.72-.63c-16.44-14.2-36.32-15.71-38.83-16.53h0l-6.4,2.12h0C343,29.12,356.82,38,363.18,42.83c2.43,1.84,3.78,3.08,3.78,3.08Z"/><path class="cls-4" d="M287.18,34.67l-.54.16c-17.53,5.12-24.52,16.4-24.52,16.4h0l7.48-.73c.05-.17.12-.34.18-.5,3-8.21,13.1-12.06,16.53-13.14.72-.23,1.15-.34,1.15-.34Z"/><circle class="cls-4" cx="175.62" cy="136.76" r="6.6"/><path class="cls-5" d="M242,95.22l4.4,16.82,4.38-16.82h6.13v23.26h-4.71v-6.29l.43-9.7-4.65,16h-3.2l-4.65-16,.43,9.7v6.29h-4.69V95.22Z"/><path class="cls-5" d="M272.85,113.72h-6.41l-1.25,4.76h-5l7.27-23.26h4.3l7.32,23.26h-5Zm-5.39-3.91h4.35l-2.17-8.3Z"/><path class="cls-5" d="M298.37,118.48h-4.7l-6.87-15.26v15.26h-4.7V95.22h4.7l6.89,15.27V95.22h4.68Z"/><path class="cls-5" d="M314.36,113.72H308l-1.25,4.76h-5L309,95.22h4.3l7.32,23.26h-5ZM309,109.81h4.35l-2.17-8.3Z"/><path class="cls-5" d="M339.1,115.85a8.69,8.69,0,0,1-3.33,2.21,12.11,12.11,0,0,1-4.33.74,7.91,7.91,0,0,1-6.23-2.48q-2.22-2.49-2.28-7.23V104.9q0-4.82,2.1-7.41a7.42,7.42,0,0,1,6.13-2.6,7.88,7.88,0,0,1,5.71,1.88c1.28,1.24,2,3.2,2.23,5.86h-4.57a5.34,5.34,0,0,0-.93-3,3,3,0,0,0-2.3-.81,3,3,0,0,0-2.76,1.39,8.82,8.82,0,0,0-.9,4.43v4.22a8.72,8.72,0,0,0,.95,4.63,3.48,3.48,0,0,0,3.13,1.44,4.12,4.12,0,0,0,2.25-.55l.42-.29v-4.27h-3.3v-3.55h8Z"/><path class="cls-5" d="M348.15,118.48h-4.7V95.22h4.7Z"/><path class="cls-5" d="M369.18,118.48h-4.7l-6.87-15.26v15.26h-4.7V95.22h4.7l6.89,15.27V95.22h4.68Z"/><path class="cls-5" d="M389.59,115.85a8.54,8.54,0,0,1-3.33,2.21,12,12,0,0,1-4.32.74,7.9,7.9,0,0,1-6.23-2.48c-1.48-1.66-2.25-4.07-2.29-7.23V104.9q0-4.82,2.1-7.41a7.44,7.44,0,0,1,6.13-2.6,7.86,7.86,0,0,1,5.71,1.88c1.29,1.24,2,3.2,2.23,5.86H385a5.27,5.27,0,0,0-.92-3,3,3,0,0,0-2.3-.81,3,3,0,0,0-2.77,1.39,9,9,0,0,0-.89,4.43v4.22a8.63,8.63,0,0,0,.95,4.63,3.45,3.45,0,0,0,3.12,1.44,4.08,4.08,0,0,0,2.25-.55l.42-.29v-4.27h-3.29v-3.55h8Z"/><path class="cls-5" d="M416.21,99.13h-5.75v19.35h-4.72V99.13h-5.66V95.22h16.13Z"/><path class="cls-5" d="M436.05,118.48h-4.69v-10h-6.93v10h-4.7V95.22h4.7v9.41h6.93V95.22h4.69Z"/><path class="cls-5" d="M452.65,108.42h-7.32v6.16H454v3.9H440.63V95.22H454v3.91h-8.63v5.5h7.32Z"/><path class="cls-5" d="M227.31,249.48l-21-2,4.23-44.65-31.1-3-4.23,44.65-21.08-2L164,138.19l21.07,2-4,42.21,31.11,2.95,4-42.21,21,2Z"/><path class="cls-5" d="M250.84,149a10.51,10.51,0,0,1,2.54-8,12.26,12.26,0,0,1,16.1-1,10.54,10.54,0,0,1,3.49,7.58A11.09,11.09,0,1,1,250.84,149Zm27.31,96.57-20.41,1.24L253,169.05l20.41-1.24Z"/><path class="cls-5" d="M312.05,208.74l-2,36.81L289,244.43l5.56-104.67,35.66,1.89q15.52.82,24.25,10.95t7.91,25.51q-.82,15.39-10.42,23.81t-25.78,7.57Zm.93-17.61,14.53.77q6,.33,9.55-3.46T341,177.12q.42-7.85-2.72-12.65a10.82,10.82,0,0,0-8.8-5.19l-14.74-.79Z"/><path class="cls-5" d="M401.41,210.34l2.94,36.74-21.1,1.69-8.37-104.48,35.59-2.85Q426,140.2,436,149.07t11.22,24.24q1.23,15.36-7.17,25t-24.55,10.92ZM400,192.76l14.49-1.16q6-.48,9-4.7t2.38-11.74q-.63-7.83-4.37-12.18a10.86,10.86,0,0,0-9.42-4l-14.71,1.18Z"/><path class="cls-5" d="M535.32,204q-.39,21.09-10.58,32.56t-27.89,11.14q-17.64-.33-27.5-12.07t-9.61-32.54l.33-17.92q.4-21.6,10.64-33.54t28-11.61q17.49.33,27.34,12.43t9.6,33.62Zm-20.9-18q.26-14.19-3.64-21.17t-12.4-7.14q-8.42-.17-12.57,6.42t-4.55,20.19L480.91,203q-.26,13.75,3.72,20.34t12.55,6.75q8.28.15,12.43-6.14t4.47-19.68Z"/><path class="cls-3" d="M458.65,154.66A9.78,9.78,0,0,0,443,161.51h0A9.77,9.77,0,0,1,428,169a10.16,10.16,0,0,0-10.1-1.09,9.7,9.7,0,0,0-3.9,3.3"/><path class="cls-5" d="M210.81,279.12a17.28,17.28,0,0,1,.51-4.24,12.36,12.36,0,0,1,1.55-3.63,6.17,6.17,0,0,1,2.2-2.21l.52,1.54a7.07,7.07,0,0,0-1.76,3.2,18.21,18.21,0,0,0-.68,5v.59a18.9,18.9,0,0,0,.65,5.2,7.41,7.41,0,0,0,1.79,3.34l-.52,1.52a6.27,6.27,0,0,1-2.18-2.18,12,12,0,0,1-1.54-3.57,16.76,16.76,0,0,1-.54-4.16Z"/><path class="cls-5" d="M227.86,285H225v-6.14H220.7V285h-2.9V270.61h2.9v5.8H225v-5.8h2.89Z"/><path class="cls-5" d="M230.55,271.53a1.45,1.45,0,0,1,.41-1.06,1.48,1.48,0,0,1,1.1-.42,1.5,1.5,0,0,1,1.11.42,1.45,1.45,0,0,1,.41,1.06,1.52,1.52,0,1,1-3,0ZM233.47,285h-2.79V274.29h2.79Z"/><path class="cls-5" d="M235.8,279.29a6.63,6.63,0,0,1,.94-3.91,3.12,3.12,0,0,1,2.65-1.29,2.57,2.57,0,0,1,2.24,1.14l.11-.94h2.51V285a4.07,4.07,0,0,1-1.14,3.11,4.6,4.6,0,0,1-3.28,1.08,5.43,5.43,0,0,1-1.84-.35,3.33,3.33,0,0,1-1.44-.89l.93-1.93a2.92,2.92,0,0,0,1,.67,3,3,0,0,0,1.19.27,1.73,1.73,0,0,0,1.34-.45,2.06,2.06,0,0,0,.42-1.44v-.92a2.5,2.5,0,0,1-2.08,1,3,3,0,0,1-2.63-1.32,6.53,6.53,0,0,1-.95-3.74Zm2.79.7a4.48,4.48,0,0,0,.38,2.15,1.31,1.31,0,0,0,1.22.68,1.42,1.42,0,0,0,1.27-.62v-5.09a1.38,1.38,0,0,0-1.25-.68,1.3,1.3,0,0,0-1.22.68,4.44,4.44,0,0,0-.4,2.18Z"/><path class="cls-5" d="M249.5,275.23a2.75,2.75,0,0,1,2.23-1.14,2.56,2.56,0,0,1,2.21,1,5.13,5.13,0,0,1,.77,3.05V285h-2.8V278.2a2.35,2.35,0,0,0-.29-1.35,1,1,0,0,0-.94-.42,1.31,1.31,0,0,0-1.18.7V285h-2.79V269.82h2.79Z"/><path class="cls-5" d="M261.52,285.14a4.35,4.35,0,0,1-3.35-1.28,5.14,5.14,0,0,1-1.2-3.66v-.85a6.09,6.09,0,0,1,1.1-3.89,3.84,3.84,0,0,1,3.16-1.37,3.63,3.63,0,0,1,3,1.29,6.13,6.13,0,0,1,1,3.8v1.36h-5.54a2.85,2.85,0,0,0,.52,1.74,1.78,1.78,0,0,0,1.43.55,3.11,3.11,0,0,0,2.33-1l1.09,1.69a3.56,3.56,0,0,1-1.48,1.14A5,5,0,0,1,261.52,285.14Zm-1.75-6.54h2.78v-.25a3,3,0,0,0-.31-1.45,1.1,1.1,0,0,0-1-.49,1.16,1.16,0,0,0-1.06.52A3.51,3.51,0,0,0,259.77,278.6Z"/><path class="cls-5" d="M272.09,282.09a.91.91,0,0,0-.34-.66,6.78,6.78,0,0,0-1.51-.81,6.2,6.2,0,0,1-2.37-1.45,2.72,2.72,0,0,1-.65-1.86,3,3,0,0,1,1-2.31,3.9,3.9,0,0,1,2.68-.91,4.12,4.12,0,0,1,2.8.91,3,3,0,0,1,1.06,2.43H272c0-.87-.36-1.3-1.08-1.3a1,1,0,0,0-.73.28,1,1,0,0,0-.29.77.81.81,0,0,0,.32.62,6.69,6.69,0,0,0,1.48.77,6.08,6.08,0,0,1,2.41,1.41,2.84,2.84,0,0,1,.71,2,2.81,2.81,0,0,1-1.08,2.3,4.36,4.36,0,0,1-2.81.86,4.42,4.42,0,0,1-2.07-.46,3.47,3.47,0,0,1-1.41-1.27,3.35,3.35,0,0,1-.5-1.76h2.65a1.63,1.63,0,0,0,.34,1.09,1.33,1.33,0,0,0,1.05.36C271.71,283.1,272.09,282.77,272.09,282.09Z"/><path class="cls-5" d="M280.27,271.67v2.62h1.43v2.09h-1.43v5.29a1.5,1.5,0,0,0,.18.87.75.75,0,0,0,.66.24,2.42,2.42,0,0,0,.66-.07l0,2.17a4.48,4.48,0,0,1-1.54.26c-1.79,0-2.7-1-2.72-3.09v-5.67h-1.23v-2.09h1.23v-2.62Z"/><path class="cls-5" d="M291.92,279.9V285H289V270.61h4.89a4.47,4.47,0,0,1,3.39,1.32,4.71,4.71,0,0,1,1.27,3.42,4.44,4.44,0,0,1-1.25,3.33,4.74,4.74,0,0,1-3.47,1.22Zm0-2.41h2a1.58,1.58,0,0,0,1.28-.54,2.42,2.42,0,0,0,.45-1.58,2.86,2.86,0,0,0-.46-1.71,1.5,1.5,0,0,0-1.24-.64h-2Z"/><path class="cls-5" d="M305.82,285a4,4,0,0,1-.24-.83,2.38,2.38,0,0,1-2,1,3,3,0,0,1-2.22-.88,3.11,3.11,0,0,1-.88-2.3,3.24,3.24,0,0,1,1.07-2.59,4.66,4.66,0,0,1,3.08-.93h.84v-.86a1.66,1.66,0,0,0-.24-1,.92.92,0,0,0-.72-.29c-.7,0-1.05.41-1.05,1.22h-2.78a3.12,3.12,0,0,1,1.1-2.44,4.15,4.15,0,0,1,2.81-1,3.81,3.81,0,0,1,2.71.91,3.43,3.43,0,0,1,1,2.61v5a5.21,5.21,0,0,0,.39,2.16V285Zm-1.65-2a1.62,1.62,0,0,0,.79-.19,1.29,1.29,0,0,0,.48-.44v-2.22h-.67a1.42,1.42,0,0,0-1.11.45,1.71,1.71,0,0,0-.41,1.21C303.25,282.56,303.56,283,304.17,283Z"/><path class="cls-5" d="M310.75,271.53a1.42,1.42,0,0,1,.42-1.06,1.65,1.65,0,0,1,2.2,0,1.42,1.42,0,0,1,.42,1.06,1.5,1.5,0,0,1-.41,1.07,1.68,1.68,0,0,1-2.22,0A1.5,1.5,0,0,1,310.75,271.53ZM313.68,285h-2.8V274.29h2.8Z"/><path class="cls-5" d="M316,279.29a7,7,0,0,1,.88-3.91,2.93,2.93,0,0,1,2.58-1.29,2.49,2.49,0,0,1,2.05,1.07v-5.34h2.81V285h-2.53l-.13-1.09a2.56,2.56,0,0,1-2.21,1.28,2.88,2.88,0,0,1-2.55-1.28,6.68,6.68,0,0,1-.9-3.76Zm2.79.7a4.94,4.94,0,0,0,.34,2.2,1.17,1.17,0,0,0,1.13.63,1.36,1.36,0,0,0,1.25-.74v-4.87a1.32,1.32,0,0,0-1.24-.78,1.18,1.18,0,0,0-1.12.62,4.74,4.74,0,0,0-.36,2.2Z"/><path class="cls-5" d="M335,279.9V285h-2.9V270.61H337a4.5,4.5,0,0,1,3.39,1.32,4.75,4.75,0,0,1,1.26,3.42,4.4,4.4,0,0,1-1.25,3.33A4.72,4.72,0,0,1,337,279.9Zm0-2.41h2a1.59,1.59,0,0,0,1.28-.54,2.42,2.42,0,0,0,.45-1.58,2.93,2.93,0,0,0-.46-1.71,1.51,1.51,0,0,0-1.24-.64h-2Z"/><path class="cls-5" d="M348.15,285.14a4.35,4.35,0,0,1-3.35-1.28,5.14,5.14,0,0,1-1.2-3.66v-.85a6,6,0,0,1,1.1-3.89,3.84,3.84,0,0,1,3.16-1.37,3.6,3.6,0,0,1,3,1.29,6.06,6.06,0,0,1,1,3.8v1.36h-5.55a2.92,2.92,0,0,0,.53,1.74,1.76,1.76,0,0,0,1.42.55,3.14,3.14,0,0,0,2.34-1l1.09,1.69a3.59,3.59,0,0,1-1.49,1.14A5,5,0,0,1,348.15,285.14Zm-1.76-6.54h2.79v-.25a3,3,0,0,0-.31-1.45,1.1,1.1,0,0,0-1-.49,1.16,1.16,0,0,0-1.06.52A3.61,3.61,0,0,0,346.39,278.6Z"/><path class="cls-5" d="M359.26,277l-.93-.08a1.51,1.51,0,0,0-1.54,1V285H354V274.29h2.63l.08,1.15a2,2,0,0,1,1.82-1.35,2.09,2.09,0,0,1,.77.13Z"/><path class="cls-5" d="M365.91,282.09a.91.91,0,0,0-.34-.66,6.78,6.78,0,0,0-1.51-.81,6.2,6.2,0,0,1-2.37-1.45,2.72,2.72,0,0,1-.65-1.86,3,3,0,0,1,1-2.31,3.9,3.9,0,0,1,2.68-.91,4.12,4.12,0,0,1,2.8.91,3,3,0,0,1,1.06,2.43H365.8c0-.87-.36-1.3-1.08-1.3a1,1,0,0,0-.73.28,1,1,0,0,0-.29.77.81.81,0,0,0,.32.62,6.69,6.69,0,0,0,1.48.77,6.08,6.08,0,0,1,2.41,1.41,2.84,2.84,0,0,1,.71,2,2.81,2.81,0,0,1-1.08,2.3,5,5,0,0,1-4.88.4,3.47,3.47,0,0,1-1.41-1.27,3.35,3.35,0,0,1-.5-1.76h2.65a1.63,1.63,0,0,0,.34,1.09,1.33,1.33,0,0,0,1.05.36C365.53,283.1,365.91,282.77,365.91,282.09Z"/><path class="cls-5" d="M370.53,279.27a5.8,5.8,0,0,1,1.14-3.8,4.33,4.33,0,0,1,6.34,0,5.77,5.77,0,0,1,1.15,3.82V280a5.76,5.76,0,0,1-1.14,3.8,3.86,3.86,0,0,1-3.17,1.37,3.91,3.91,0,0,1-3.18-1.37,5.82,5.82,0,0,1-1.14-3.82Zm2.8.7c0,1.91.5,2.86,1.52,2.86s1.45-.8,1.52-2.39v-1.17a4.6,4.6,0,0,0-.4-2.16,1.26,1.26,0,0,0-1.15-.7,1.23,1.23,0,0,0-1.11.7,4.62,4.62,0,0,0-.39,2.16Z"/><path class="cls-5" d="M383.94,274.29l.08,1a3,3,0,0,1,2.48-1.25c1.83,0,2.77,1.29,2.82,3.85v7h-2.8v-6.8a2.44,2.44,0,0,0-.27-1.31,1,1,0,0,0-.95-.41,1.31,1.31,0,0,0-1.18.77V285h-2.8V274.29Z"/><path class="cls-5" d="M391.57,275l-1.28-.78a6.29,6.29,0,0,0,.73-2.7v-1.71h2.18v1.55a4.92,4.92,0,0,1-.46,1.94A5.23,5.23,0,0,1,391.57,275Z"/><path class="cls-5" d="M398.11,282.09a.88.88,0,0,0-.34-.66,6.78,6.78,0,0,0-1.51-.81,6.2,6.2,0,0,1-2.37-1.45,2.71,2.71,0,0,1-.64-1.86,3,3,0,0,1,1-2.31,3.9,3.9,0,0,1,2.68-.91,4.15,4.15,0,0,1,2.81.91,3,3,0,0,1,1.05,2.43H398c0-.87-.36-1.3-1.08-1.3a1,1,0,0,0-.73.28,1,1,0,0,0-.29.77.81.81,0,0,0,.32.62,6.85,6.85,0,0,0,1.49.77,6.15,6.15,0,0,1,2.41,1.41,2.88,2.88,0,0,1,.7,2,2.83,2.83,0,0,1-1.07,2.3,5,5,0,0,1-4.89.4,3.44,3.44,0,0,1-1.4-1.27,3.27,3.27,0,0,1-.51-1.76h2.65a1.69,1.69,0,0,0,.34,1.09,1.33,1.33,0,0,0,1.05.36C397.74,283.1,398.11,282.77,398.11,282.09Z"/><path class="cls-5" d="M418.44,279.07a6.7,6.7,0,0,1-1.36,4.48,5.32,5.32,0,0,1-7.58,0,6.56,6.56,0,0,1-1.4-4.42v-2.46a7.06,7.06,0,0,1,1.37-4.61,5.18,5.18,0,0,1,7.57,0,6.93,6.93,0,0,1,1.4,4.57Zm-2.9-2.41a6,6,0,0,0-.55-2.88,2,2,0,0,0-3.42,0,5.55,5.55,0,0,0-.57,2.78v2.55a5.29,5.29,0,0,0,.56,2.77,1.9,1.9,0,0,0,1.73.89,1.86,1.86,0,0,0,1.69-.87,5.35,5.35,0,0,0,.56-2.71Z"/><path class="cls-5" d="M429.19,280a7.15,7.15,0,0,1-.86,3.85,2.85,2.85,0,0,1-2.57,1.34,2.5,2.5,0,0,1-2.09-1.05v5h-2.78V274.29h2.58l.1,1a2.49,2.49,0,0,1,2.17-1.17,2.94,2.94,0,0,1,2.57,1.24,6.86,6.86,0,0,1,.88,3.81Zm-2.78-.7a4.93,4.93,0,0,0-.34-2.18,1.18,1.18,0,0,0-1.15-.64,1.33,1.33,0,0,0-1.25.72v5a1.33,1.33,0,0,0,1.27.69,1.14,1.14,0,0,0,1.15-.7,5.43,5.43,0,0,0,.32-2.18Z"/><path class="cls-5" d="M431.38,271.53a1.45,1.45,0,0,1,.41-1.06,1.48,1.48,0,0,1,1.1-.42,1.5,1.5,0,0,1,1.11.42,1.45,1.45,0,0,1,.41,1.06,1.5,1.5,0,0,1-.41,1.07,1.52,1.52,0,0,1-2.62-1.07ZM434.3,285h-2.79V274.29h2.79Z"/><path class="cls-5" d="M439.52,274.29l.07,1a3,3,0,0,1,2.48-1.25c1.83,0,2.77,1.29,2.82,3.85v7H442.1v-6.8a2.43,2.43,0,0,0-.28-1.31,1,1,0,0,0-.95-.41,1.31,1.31,0,0,0-1.18.77V285H436.9V274.29Z"/><path class="cls-5" d="M447.4,271.53a1.41,1.41,0,0,1,.41-1.06,1.46,1.46,0,0,1,1.1-.42,1.5,1.5,0,0,1,1.11.42,1.45,1.45,0,0,1,.41,1.06,1.5,1.5,0,0,1-.41,1.07,1.47,1.47,0,0,1-1.11.42,1.41,1.41,0,0,1-1.51-1.49ZM450.32,285h-2.8V274.29h2.8Z"/><path class="cls-5" d="M452.66,279.27a5.8,5.8,0,0,1,1.14-3.8,4.33,4.33,0,0,1,6.34,0,5.82,5.82,0,0,1,1.14,3.82V280a5.76,5.76,0,0,1-1.13,3.8,3.86,3.86,0,0,1-3.17,1.37,3.93,3.93,0,0,1-3.19-1.37,5.88,5.88,0,0,1-1.13-3.82Zm2.79.7c0,1.91.51,2.86,1.53,2.86s1.44-.8,1.52-2.39v-1.17a4.46,4.46,0,0,0-.41-2.16,1.25,1.25,0,0,0-1.14-.7,1.23,1.23,0,0,0-1.11.7,4.6,4.6,0,0,0-.4,2.16Z"/><path class="cls-5" d="M466.07,274.29l.08,1a3,3,0,0,1,2.47-1.25c1.84,0,2.78,1.29,2.83,3.85v7h-2.8v-6.8a2.44,2.44,0,0,0-.27-1.31,1,1,0,0,0-.95-.41,1.31,1.31,0,0,0-1.18.77V285h-2.8V274.29Z"/><path class="cls-5" d="M478.41,279.35a15.69,15.69,0,0,1-.58,4.34,12.38,12.38,0,0,1-1.63,3.6,6.15,6.15,0,0,1-2.2,2.14l-.51-1.52a7.31,7.31,0,0,0,1.77-3.28,17.92,17.92,0,0,0,.67-5v-.52a18.7,18.7,0,0,0-.64-5.13,7.67,7.67,0,0,0-1.8-3.41L474,269a5.41,5.41,0,0,1,1.55,1.28,9.9,9.9,0,0,1,1.44,2.22,14.78,14.78,0,0,1,1,3A16.82,16.82,0,0,1,478.41,279.35Z"/><path class="cls-5" d="M26.39,357.2H23.46v2.88H22.09v-6.77h1.37v2.79h2.93v-2.79h1.38v6.77H26.39Z"/><path class="cls-5" d="M32.3,360.15a3.47,3.47,0,1,1,3.5-3.47A3.42,3.42,0,0,1,32.3,360.15Zm0-1.21a2.26,2.26,0,1,0-2.1-2.26A2.05,2.05,0,0,0,32.3,358.94Z"/><path class="cls-5" d="M39.19,360.15c-1.43,0-2.53-.74-2.54-2h1.47a.94.94,0,0,0,1,.91c.64,0,1-.34,1-.83,0-1.46-3.53-.58-3.53-3,0-1.22,1-2,2.42-2a2.16,2.16,0,0,1,2.45,1.93H40a.9.9,0,0,0-1-.8c-.54,0-.94.24-.94.79,0,1.36,3.51.61,3.51,3A2.15,2.15,0,0,1,39.19,360.15Z"/><path class="cls-5" d="M42.43,353.31h5v1.1H45.63v5.67H44.26v-5.67H42.43Z"/><path class="cls-5" d="M52.43,354.41h-2.6v1.69h2.31v1.08H49.83V359h2.6v1.1h-4V353.3h4Z"/><path class="cls-5" d="M59.68,356.71a3.28,3.28,0,0,1-3.61,3.37H53.68v-6.77h2.39A3.29,3.29,0,0,1,59.68,356.71ZM56,358.93a2,2,0,0,0,2.26-2.22A2.07,2.07,0,0,0,56,354.45h-1v4.48Z"/><path class="cls-5" d="M66,360.08h-3v-6.77h2.82c1.43,0,2.23.74,2.23,1.75a1.56,1.56,0,0,1-1.17,1.55,1.65,1.65,0,0,1,1.33,1.64C68.26,359.33,67.42,360.08,66,360.08Zm-.32-5.67H64.42v1.69h1.26c.64,0,1-.29,1-.84S66.32,354.41,65.68,354.41Zm.09,2.74H64.42V359H65.8c.67,0,1.06-.32,1.06-.9S66.44,357.15,65.77,357.15Z"/><path class="cls-5" d="M68.79,353.31h1.55l1.47,3.1,1.46-3.1H74.8l-2.31,4.42v2.35H71.11v-2.35Z"/><ellipse class="cls-5" cx="90.96" cy="358.53" rx="2.99" ry="2.96"/><path class="cls-5" d="M85,349.34l.4-.25v-.31a.2.2,0,0,0-.2-.2h-4a.2.2,0,0,0-.21.2v5.54A10.62,10.62,0,0,1,85,349.34Z"/><path class="cls-5" d="M90.75,348.28a10,10,0,0,0-5.33,1.66A9.84,9.84,0,0,0,81,358.15v3.14a.2.2,0,0,0,.21.2h4a.2.2,0,0,0,.2-.2v-3.14a5.52,5.52,0,0,1,5.34-5.47.2.2,0,0,0,.2-.21v-4a.2.2,0,0,0-.21-.2Z"/><path class="cls-5" d="M103.08,351.58a2.53,2.53,0,0,0-2.54,1.41v-1a.14.14,0,0,0-.14-.14H98.9a.15.15,0,0,0-.15.14v8a.15.15,0,0,0,.15.14h1.5a.14.14,0,0,0,.14-.14v-4.26a2.09,2.09,0,0,1,2.26-2.25,2.21,2.21,0,0,1,1.35.38.14.14,0,0,0,.21-.05l.71-1.34a.15.15,0,0,0,0-.18A3.26,3.26,0,0,0,103.08,351.58Z"/><path class="cls-5" d="M145.86,355.54v4.37a.15.15,0,0,0,.14.15h1.5a.15.15,0,0,0,.15-.15v-4.37c0-1.8-.59-4-3.39-4a2.86,2.86,0,0,0-2.81,1.71,2.44,2.44,0,0,0-2.44-1.75,2.25,2.25,0,0,0-2.32,1.58V352a.14.14,0,0,0-.14-.14h-1.5a.15.15,0,0,0-.15.14v8a.15.15,0,0,0,.15.14h1.5a.14.14,0,0,0,.14-.14v-4.38a2,2,0,0,1,1.9-2.26c1.26,0,1.84,1.17,1.84,2.26v4.37a.15.15,0,0,0,.15.14h1.5a.14.14,0,0,0,.14-.14v-4.37a2.06,2.06,0,0,1,1.95-2.23C145.21,353.31,145.86,354.17,145.86,355.54Z"/><path class="cls-5" d="M109.61,351.58a4.36,4.36,0,1,0,4.4,4.36A4.39,4.39,0,0,0,109.61,351.58Zm0,7a2.64,2.64,0,1,1,2.67-2.63A2.65,2.65,0,0,1,109.61,358.57Z"/><path class="cls-5" d="M172.63,360.06h2a.14.14,0,0,0,.11-.24l-3.63-4.15,3.08-3.59a.15.15,0,0,0-.12-.24h-2a.16.16,0,0,0-.11.05l-2.8,3.26v-6.44a.14.14,0,0,0-.14-.14h-1.5a.15.15,0,0,0-.15.14v11.21a.15.15,0,0,0,.15.14H169a.14.14,0,0,0,.14-.14V356.2l3.34,3.81A.16.16,0,0,0,172.63,360.06Z"/><path class="cls-5" d="M152.22,360.28a3.25,3.25,0,0,0,2.76-1.4v1a.14.14,0,0,0,.14.14h1.5a.15.15,0,0,0,.15-.14v-8a.15.15,0,0,0-.15-.15h-1.5a.15.15,0,0,0-.14.15v4.33h0a2.21,2.21,0,0,1-2.14,2.4,2.1,2.1,0,0,1-2.15-2.33V352a.15.15,0,0,0-.15-.15h-1.49a.15.15,0,0,0-.15.15v4.47C148.92,358.77,150.22,360.28,152.22,360.28Z"/><path class="cls-5" d="M162.7,351.58a3.23,3.23,0,0,0-2.76,1.4v-1a.15.15,0,0,0-.15-.15h-1.5a.15.15,0,0,0-.14.15v8a.14.14,0,0,0,.14.14h1.5a.15.15,0,0,0,.15-.14v-4.34h0a2.2,2.2,0,0,1,2.13-2.4,2.1,2.1,0,0,1,2.15,2.33v4.41a.15.15,0,0,0,.15.14h1.5a.14.14,0,0,0,.14-.14v-4.48C166,353.09,164.69,351.58,162.7,351.58Z"/><path class="cls-5" d="M129.09,360.29a3,3,0,0,0,2.51-1.12v.75a.15.15,0,0,0,.15.14h1.5a.14.14,0,0,0,.14-.14V348.71a.14.14,0,0,0-.14-.14h-1.5a.15.15,0,0,0-.15.14v4a3,3,0,0,0-2.51-1.12h0a4.36,4.36,0,1,0,0,8.71Zm2.67-4.35a2.67,2.67,0,1,1-2.67-2.64A2.65,2.65,0,0,1,131.76,355.94Z"/><path class="cls-5" d="M119.34,360.29a3,3,0,0,0,2.5-1.12v.75a.15.15,0,0,0,.15.14h1.5a.15.15,0,0,0,.15-.14v-8a.15.15,0,0,0-.15-.14H122a.15.15,0,0,0-.15.14v.75a3,3,0,0,0-2.5-1.12h0a4.36,4.36,0,1,0,0,8.71Zm2.66-4.35a2.67,2.67,0,1,1-2.66-2.64A2.65,2.65,0,0,1,122,355.94Z"/><path class="cls-6" d="M102.17,30V25.86h17.15V37.11c0,3.08-3.2,6.1-6.73,6.92a8.16,8.16,0,0,1-1.83.21,8.68,8.68,0,0,1-1.83-.19c-3.54-.74-6.74-3.51-6.74-6.94v-1h0Z"/><path class="cls-6" d="M33.73,38.91H31.6v5.38H23.16V25.82H33.73a6.55,6.55,0,1,1,0,13.09Z"/><path class="cls-6" d="M42.72,38.91V25.82H53.29a6.55,6.55,0,1,1,0,13.09l5,5.36-6.15,0H42.72Z"/><ellipse class="cls-6" cx="71.34" cy="35.05" rx="9.34" ry="9.24"/><path class="cls-6" d="M93.24,44.27H82.83V25.82H93.24a9.64,9.64,0,0,1,0,18.45Z"/><path class="cls-6" d="M124.15,28.52a9.43,9.43,0,0,1,13.21,0l-6.61,6.53,6.61,6.54a9.43,9.43,0,0,1-13.21,0A9.17,9.17,0,0,1,124.15,28.52Z"/><polygon class="cls-6" points="139.79 25.86 156.94 25.86 156.94 35.05 153.06 35.05 153.06 44.29 143.68 44.29 143.68 35.05 139.79 35.05 139.79 25.86"/><path class="cls-6" d="M121.74,53.14V49h17.15V60.22c0,3.08-3.21,6.1-6.74,6.92a8.09,8.09,0,0,1-1.83.21,8.75,8.75,0,0,1-1.83-.19c-3.53-.74-6.74-3.51-6.74-6.94v-1h0Z"/><path class="cls-6" d="M53.29,62H51.16V67.4H42.72V48.93H53.29a6.55,6.55,0,1,1,0,13.09Z"/><path class="cls-6" d="M62.29,62V48.93H72.86a6.55,6.55,0,1,1,0,13.09l5,5.36-6.14,0H62.29Z"/><ellipse class="cls-6" cx="90.91" cy="58.16" rx="9.34" ry="9.24"/><path class="cls-6" d="M112.8,67.38H102.4V48.93h10.4a9.64,9.64,0,0,1,0,18.45Z"/><path class="cls-6" d="M143.71,51.63a9.43,9.43,0,0,1,13.21,0l-6.6,6.53,6.6,6.53a9.41,9.41,0,0,1-13.21,0A9.16,9.16,0,0,1,143.71,51.63Z"/><polygon class="cls-6" points="159.35 48.97 176.51 48.97 176.51 58.16 172.62 58.16 172.62 67.4 163.24 67.4 163.24 58.16 159.35 58.16 159.35 48.97"/><ellipse class="cls-7" cx="169.98" cy="35.05" rx="1.44" ry="1.42"/><path class="cls-7" d="M167.92,28.88a6.17,6.17,0,1,0,6.24,6.17A6.21,6.21,0,0,0,167.92,28.88Zm-.37,4.9h-1.38v3.41h-.69V33.78H164.1v-.69h3.45ZM170,37.25a2.2,2.2,0,1,1,2.23-2.2A2.21,2.21,0,0,1,170,37.25Z"/><path class="cls-5" d="M521.8,303h1.73l1.42,6.18,1.64-6.18h1.8l1.54,6.14,1.43-6.14h1.74l-2.24,8H529l-1.51-5.67L525.86,311H524Z"/><path class="cls-5" d="M536.94,311.1a3.26,3.26,0,0,1,0-6.52,3,3,0,0,1,3.15,3.12,3.24,3.24,0,0,1-.05.62h-4.67a1.49,1.49,0,0,0,1.53,1.46,1.31,1.31,0,0,0,1.28-.77h1.75A3,3,0,0,1,536.94,311.1Zm-1.56-3.85h3a1.42,1.42,0,0,0-1.53-1.36A1.48,1.48,0,0,0,535.38,307.25Z"/><path class="cls-5" d="M543.78,304.58a2.63,2.63,0,0,1,2.08,1v-3h1.64V311h-1.64v-.94a2.42,2.42,0,0,1-2.1,1,3,3,0,0,1-2.91-3.28A3,3,0,0,1,543.78,304.58Zm.4,1.4a1.69,1.69,0,0,0-1.68,1.84,1.7,1.7,0,1,0,3.38,0A1.71,1.71,0,0,0,544.18,306Z"/><path class="cls-5" d="M549.19,309.24h1.71l-1.43,3.4h-1.05Z"/><path class="cls-5" d="M557.54,311.08c-1.67,0-3-.87-3-2.38h1.73a1.11,1.11,0,0,0,1.23,1.06c.76,0,1.21-.39,1.21-1,0-1.73-4.16-.69-4.14-3.57,0-1.44,1.17-2.3,2.83-2.3s2.78.83,2.89,2.26h-1.78a1.05,1.05,0,0,0-1.15-.94c-.64,0-1.11.28-1.11.93,0,1.6,4.13.71,4.13,3.51C560.39,310,559.38,311.08,557.54,311.08Z"/><path class="cls-5" d="M564.57,311.1a3.08,3.08,0,0,1-3.2-3.26,3,3,0,0,1,3.2-3.26,3,3,0,0,1,3.15,3.12,4.3,4.3,0,0,1,0,.62H563a1.5,1.5,0,0,0,1.54,1.46,1.33,1.33,0,0,0,1.28-.77h1.74A3,3,0,0,1,564.57,311.1ZM563,307.25h3a1.41,1.41,0,0,0-1.52-1.36A1.47,1.47,0,0,0,563,307.25Z"/><path class="cls-5" d="M572.62,304.58a3,3,0,0,1,2.92,3.24,3,3,0,0,1-2.92,3.28,2.63,2.63,0,0,1-2.11-1V314H568.9v-9.32h1.61v.91A2.58,2.58,0,0,1,572.62,304.58Zm-.43,1.4a1.87,1.87,0,0,0,0,3.72,1.74,1.74,0,0,0,1.7-1.88A1.7,1.7,0,0,0,572.19,306Z"/><path class="cls-5" d="M577,306h-.77v-1.31H577v-1.56h1.62v1.56H580V306h-1.43v3.06c0,.42.18.6.68.6H580V311h-1c-1.22,0-2-.52-2-2Z"/><path class="cls-5" d="M584,311.1a3.08,3.08,0,0,1-3.21-3.26,3,3,0,0,1,3.21-3.26,3,3,0,0,1,3.15,3.12,3.24,3.24,0,0,1,0,.62h-4.67a1.49,1.49,0,0,0,1.53,1.46,1.32,1.32,0,0,0,1.28-.77H587A3,3,0,0,1,584,311.1Zm-1.56-3.85h3a1.41,1.41,0,0,0-1.52-1.36A1.48,1.48,0,0,0,582.42,307.25Z"/><path class="cls-5" d="M597.24,307.51a1.43,1.43,0,1,0-2.85,0V311h-1.62v-3.49a1.34,1.34,0,0,0-1.41-1.53,1.36,1.36,0,0,0-1.45,1.53V311H588.3v-6.32h1.61v.76a2.36,2.36,0,0,1,1.88-.85A2.43,2.43,0,0,1,594,305.8a2.55,2.55,0,0,1,2.2-1.21,2.47,2.47,0,0,1,2.61,2.7V311h-1.61Z"/><path class="cls-5" d="M604.11,304.58a3,3,0,0,1,2.92,3.24,3,3,0,0,1-2.92,3.28,2.53,2.53,0,0,1-2.11-1v.9h-1.62v-8.44H602v3A2.49,2.49,0,0,1,604.11,304.58Zm-.43,1.4a1.87,1.87,0,0,0,0,3.72,1.74,1.74,0,0,0,1.7-1.88A1.7,1.7,0,0,0,603.68,306Z"/><path class="cls-5" d="M611,311.1a3.26,3.26,0,0,1,0-6.52,3,3,0,0,1,3.15,3.12,3.24,3.24,0,0,1,0,.62h-4.67a1.49,1.49,0,0,0,1.53,1.46,1.31,1.31,0,0,0,1.28-.77H614A3,3,0,0,1,611,311.1Zm-1.56-3.85h3a1.42,1.42,0,0,0-1.53-1.36A1.48,1.48,0,0,0,609.43,307.25Z"/><path class="cls-5" d="M616.93,311h-1.62v-6.32h1.62v1a2.21,2.21,0,0,1,2-1.07v1.68h-.43c-1,0-1.53.36-1.53,1.58Z"/><path class="cls-5" d="M622.44,309.7c1.9-1.6,3.89-3.07,3.89-4.6,0-.74-.33-1.24-1.13-1.24s-1.2.55-1.21,1.42h-1.57a2.64,2.64,0,0,1,2.81-2.78A2.41,2.41,0,0,1,628,305c0,1.93-1.88,3.43-3.22,4.55h3.4v1.32h-5.69Z"/><path class="cls-5" d="M633.51,304.76a1.11,1.11,0,0,0-1.22-1c-1,0-1.53.78-1.55,2.69a2.26,2.26,0,0,1,2-1,2.45,2.45,0,0,1,2.55,2.72,2.62,2.62,0,0,1-2.81,2.78c-2.49,0-3.11-1.73-3.11-4.31s.89-4.22,3-4.22a2.47,2.47,0,0,1,2.66,2.27Zm-2.62,3.45a1.34,1.34,0,0,0,1.47,1.45,1.41,1.41,0,0,0,0-2.82A1.32,1.32,0,0,0,630.89,308.21Z"/><path class="cls-5" d="M637,306h-.76v-1.31H637v-1.56h1.63v1.56H640V306h-1.43v3.06c0,.42.17.6.68.6H640V311h-1c-1.22,0-2-.52-2-2Z"/><path class="cls-5" d="M641.18,302.56h1.62v2.91a2.55,2.55,0,0,1,4.47,1.82V311h-1.61v-3.49a1.44,1.44,0,1,0-2.86,0V311h-1.62Z"/><path class="cls-5" d="M522.23,328.76a1.1,1.1,0,0,0-1.21-1c-1,0-1.54.78-1.56,2.69a2.24,2.24,0,0,1,2-1,2.45,2.45,0,0,1,2.55,2.71,2.61,2.61,0,0,1-2.8,2.79c-2.49,0-3.12-1.74-3.12-4.31s.89-4.22,3-4.22a2.46,2.46,0,0,1,2.65,2.27Zm-2.62,3.45a1.34,1.34,0,0,0,1.48,1.45,1.42,1.42,0,0,0,0-2.83A1.33,1.33,0,0,0,519.61,332.21Z"/><path class="cls-5" d="M526.15,330.35a.94.94,0,1,1,1-.93A.95.95,0,0,1,526.15,330.35Zm0,4.72a.94.94,0,1,1,1-.93A.95.95,0,0,1,526.15,335.07Z"/><path class="cls-5" d="M531.11,326.49c1.73,0,2.65,1,2.65,2.2a1.92,1.92,0,0,1-1.27,1.88v.05a2,2,0,0,1,1.42,2.07c0,1.36-1,2.36-2.74,2.36s-2.91-.82-3-2.56h1.57a1.25,1.25,0,0,0,1.38,1.23,1.11,1.11,0,0,0,1.22-1.17c0-.93-.6-1.27-1.8-1.27h-.33V330h.33c1,0,1.64-.27,1.64-1.09,0-.65-.4-1-1.14-1a1.09,1.09,0,0,0-1.18,1H528.3C528.38,327.33,529.49,326.49,531.11,326.49Z"/><path class="cls-5" d="M538.3,326.52c2.38,0,3.12,1.81,3.12,4.21s-.74,4.24-3.12,4.24-3.11-1.81-3.11-4.24S535.92,326.52,538.3,326.52Zm0,1.49c-1.36,0-1.52,1.3-1.52,2.72s.16,2.76,1.52,2.76,1.52-1.28,1.52-2.76S539.66,328,538.3,328Z"/><path class="cls-5" d="M545.58,330.25h4.9v1.35h-4.9Z"/><path class="cls-5" d="M556.71,332.66a1.19,1.19,0,0,0,1.3,1c1,0,1.37-.69,1.37-2.56a2.19,2.19,0,0,1-1.78.77,2.47,2.47,0,0,1-2.62-2.65,2.6,2.6,0,0,1,2.84-2.76c2.28,0,3,1.53,3,4.16,0,2.83-.64,4.36-2.86,4.36a2.5,2.5,0,0,1-2.74-2.35Zm2.52-3.4a1.35,1.35,0,1,0-1.3,1.34A1.23,1.23,0,0,0,559.23,329.26Z"/><path class="cls-5" d="M563,330.35a.94.94,0,1,1,1-.93A.94.94,0,0,1,563,330.35Zm0,4.72a.94.94,0,1,1,1-.93A.94.94,0,0,1,563,335.07Z"/><path class="cls-5" d="M567.92,326.49c1.73,0,2.65,1,2.65,2.2a1.92,1.92,0,0,1-1.27,1.88v.05a2,2,0,0,1,1.42,2.07c0,1.36-1,2.36-2.73,2.36s-2.92-.82-3-2.56h1.57a1.25,1.25,0,0,0,1.38,1.23,1.11,1.11,0,0,0,1.23-1.17c0-.93-.6-1.27-1.8-1.27H567V330h.34c.94,0,1.63-.27,1.63-1.09,0-.65-.4-1-1.14-1a1.08,1.08,0,0,0-1.17,1h-1.58A2.48,2.48,0,0,1,567.92,326.49Z"/><path class="cls-5" d="M575.11,326.52c2.38,0,3.12,1.81,3.12,4.21s-.74,4.24-3.12,4.24-3.11-1.81-3.11-4.24S572.74,326.52,575.11,326.52Zm0,1.49c-1.36,0-1.52,1.3-1.52,2.72s.16,2.76,1.52,2.76,1.52-1.28,1.52-2.76S576.47,328,575.11,328Z"/><path class="cls-5" d="M583.36,328.58a3,3,0,0,1,2.91,3.23,3,3,0,0,1-2.91,3.29,2.59,2.59,0,0,1-2.11-1V338h-1.62v-9.32h1.62v.91A2.56,2.56,0,0,1,583.36,328.58Zm-.43,1.4a1.86,1.86,0,0,0,0,3.71,1.73,1.73,0,0,0,1.7-1.88A1.7,1.7,0,0,0,582.93,330Z"/><path class="cls-5" d="M596.39,331.51a1.43,1.43,0,1,0-2.85,0V335h-1.62v-3.48a1.43,1.43,0,1,0-2.86,0V335h-1.61v-6.31h1.61v.76a2.35,2.35,0,0,1,1.88-.85,2.45,2.45,0,0,1,2.25,1.21,2.54,2.54,0,0,1,2.19-1.21,2.47,2.47,0,0,1,2.62,2.7V335h-1.61Z"/><path class="cls-5" d="M604.78,328.58a2.55,2.55,0,0,1,2.11,1v-.9h1.62V335h-1.62v-.92a2.53,2.53,0,0,1-2.13,1,3,3,0,0,1-2.9-3.29A3,3,0,0,1,604.78,328.58Zm.41,1.4a1.69,1.69,0,0,0-1.68,1.83,1.73,1.73,0,0,0,1.68,1.88,1.86,1.86,0,0,0,0-3.71Z"/><path class="cls-5" d="M610.34,330h-.76v-1.31h.76v-1.56H612v1.56h1.43V330H612V333c0,.43.17.61.68.61h.75V335h-1c-1.22,0-2-.51-2-2Z"/><path class="cls-5" d="M621,335.07a4.08,4.08,0,1,1,4.12-4.08A4,4,0,0,1,621,335.07Zm0-1.42A2.42,2.42,0,0,0,623.5,331a2.47,2.47,0,1,0-4.93,0A2.43,2.43,0,0,0,621,333.65Z"/><path class="cls-5" d="M626.53,330h-.73v-1.31h.73v-.32c0-1.55.89-2.27,2.69-2.22v1.34c-.79,0-1.05.23-1.05.94v.26h1.12V330h-1.12v5h-1.64Z"/><path class="cls-5" d="M630.16,327a1,1,0,1,1,1,.94A.94.94,0,0,1,630.16,327Zm.17,1.69H632V335h-1.62Z"/><path class="cls-5" d="M636.28,328.58a2.83,2.83,0,0,1,3,2.23h-1.74a1.25,1.25,0,0,0-1.28-.88c-.9,0-1.5.67-1.5,1.91s.6,1.89,1.5,1.89a1.21,1.21,0,0,0,1.28-.87h1.74a2.9,2.9,0,0,1-3,2.24,3.26,3.26,0,0,1,0-6.52Z"/><path class="cls-5" d="M640.31,327a.94.94,0,0,1,1-.93.94.94,0,1,1,0,1.87A.94.94,0,0,1,640.31,327Zm.17,1.69h1.61V335h-1.61Z"/><path class="cls-5" d="M646.52,335.1a3.26,3.26,0,1,1,3.34-3.26A3.18,3.18,0,0,1,646.52,335.1Zm0-1.39a1.69,1.69,0,0,0,1.67-1.87,1.65,1.65,0,1,0-3.27,0C644.92,333.09,645.66,333.71,646.52,333.71Z"/><g class="cls-8"><line class="cls-9" x1="650.75" y1="318.84" x2="512.71" y2="318.84"/></g><g class="cls-8"><line class="cls-9" x1="650.75" y1="344.39" x2="511.8" y2="344.39"/></g><path class="cls-5" d="M523.57,354.7h-1.12v-1.47h2.78v8.31h-1.66Z"/><path class="cls-5" d="M529.64,353c1.73,0,2.66,1,2.66,2.2a1.93,1.93,0,0,1-1.27,1.88v.05a2,2,0,0,1,1.42,2.07c0,1.36-1,2.36-2.74,2.36s-2.92-.82-3-2.57h1.57a1.26,1.26,0,0,0,1.39,1.24,1.12,1.12,0,0,0,1.22-1.17c0-.93-.6-1.27-1.8-1.27h-.33v-1.31h.33c.95,0,1.64-.27,1.64-1.09,0-.65-.41-1-1.14-1a1.09,1.09,0,0,0-1.18,1h-1.58A2.48,2.48,0,0,1,529.64,353Z"/><path class="cls-5" d="M538.08,355.31a1.1,1.1,0,0,0-1.21-1c-1,0-1.53.78-1.56,2.69a2.25,2.25,0,0,1,2-1,2.45,2.45,0,0,1,2.55,2.71,2.6,2.6,0,0,1-2.8,2.78c-2.49,0-3.11-1.73-3.11-4.3s.88-4.22,3-4.22a2.44,2.44,0,0,1,2.65,2.27Zm-2.62,3.45a1.34,1.34,0,0,0,1.48,1.45,1.42,1.42,0,0,0,0-2.83A1.33,1.33,0,0,0,535.46,358.76Z"/><path class="cls-5" d="M547.5,361.54H544v-8h3.32c1.69,0,2.62.86,2.62,2.05a1.83,1.83,0,0,1-1.37,1.82,1.94,1.94,0,0,1,1.56,1.93C550.16,360.65,549.17,361.54,547.5,361.54Zm-.38-6.67h-1.48v2h1.48c.76,0,1.2-.34,1.2-1S547.88,354.87,547.12,354.87Zm.12,3.23h-1.6v2.14h1.63c.79,0,1.25-.37,1.25-1.05S548,358.1,547.24,358.1Z"/><path class="cls-5" d="M553.06,361.54h-1.62v-6.31h1.62v1a2.21,2.21,0,0,1,2-1.07v1.67h-.43c-1,0-1.53.37-1.53,1.59Z"/><path class="cls-5" d="M558.94,361.64a3.1,3.1,0,0,1-3.24-3.25,3.29,3.29,0,0,1,6.57,0A3.17,3.17,0,0,1,558.94,361.64Zm0-1.39a1.88,1.88,0,0,0,0-3.73,1.65,1.65,0,0,0-1.63,1.87A1.63,1.63,0,0,0,558.94,360.25Z"/><path class="cls-5" d="M566.29,361.64a3.1,3.1,0,0,1-3.24-3.25,3.29,3.29,0,0,1,6.58,0A3.17,3.17,0,0,1,566.29,361.64Zm0-1.39a1.68,1.68,0,0,0,1.68-1.86,1.67,1.67,0,0,0-1.65-1.87,1.65,1.65,0,0,0-1.63,1.87A1.63,1.63,0,0,0,566.29,360.25Z"/><path class="cls-5" d="M570.81,353.11h1.62v4.8l2.14-2.68h2.1l-2.81,3.17,2.83,3.14h-2.1l-2.16-2.69v2.69h-1.62Z"/><path class="cls-5" d="M577.54,353.11h1.62v8.43h-1.62Z"/><path class="cls-5" d="M580.58,353.54a.94.94,0,0,1,1-.93.94.94,0,1,1-1,.93Zm.17,1.69h1.61v6.31h-1.61Z"/><path class="cls-5" d="M588.43,358.05a1.44,1.44,0,1,0-2.86,0v3.49H584v-6.31h1.62V356a2.41,2.41,0,0,1,1.93-.87,2.43,2.43,0,0,1,2.54,2.7v3.7h-1.61Z"/><path class="cls-5" d="M594.37,361.64a3.26,3.26,0,0,1,0-6.51,3,3,0,0,1,3.14,3.12,4.17,4.17,0,0,1,0,.61H592.8a1.48,1.48,0,0,0,1.53,1.46,1.32,1.32,0,0,0,1.28-.76h1.74A3,3,0,0,1,594.37,361.64Zm-1.56-3.85h3a1.41,1.41,0,0,0-1.52-1.35A1.48,1.48,0,0,0,592.81,357.79Z"/><path class="cls-5" d="M606.37,360h-3.21l-.53,1.51h-1.69l2.89-8h1.88l2.9,8H606.9Zm-1.6-4.61-1.17,3.33h2.33Z"/><path class="cls-5" d="M610.74,355.23l1.61,4.84,1.62-4.84h1.71l-2.36,6.31h-2L609,355.23Z"/><path class="cls-5" d="M619.38,361.64a3.26,3.26,0,0,1,0-6.51,3,3,0,0,1,3.15,3.12,4.17,4.17,0,0,1,0,.61h-4.68a1.49,1.49,0,0,0,1.54,1.46,1.32,1.32,0,0,0,1.28-.76h1.74A3,3,0,0,1,619.38,361.64Zm-1.55-3.85h3a1.41,1.41,0,0,0-1.52-1.35A1.47,1.47,0,0,0,617.83,357.79Z"/><path class="cls-5" d="M631.32,359.6h-2.1l-.42,1.94h-1.52l.42-1.94H626v-1.42H628l.38-1.76h-1.73V355h2l.4-1.89h1.53l-.41,1.89h2.1l.4-1.89h1.54l-.4,1.89h1.47v1.42h-1.79l-.38,1.76h1.47v1.42h-1.78l-.41,1.94H630.9Zm.69-3.18h-2.1l-.38,1.76h2.1Z"/><path class="cls-5" d="M636.4,360.24c1.9-1.59,3.9-3.06,3.9-4.59,0-.74-.34-1.24-1.13-1.24s-1.2.54-1.21,1.42h-1.57a2.62,2.62,0,0,1,2.8-2.78,2.41,2.41,0,0,1,2.72,2.51c0,1.92-1.88,3.43-3.22,4.55h3.41v1.32h-5.7Z"/><path class="cls-5" d="M648.23,360H645l-.53,1.51H642.8l2.89-8h1.88l2.9,8h-1.71Zm-1.6-4.61-1.17,3.33h2.33Z"/></g></g></svg>