<svg xmlns="http://www.w3.org/2000/svg" viewBox="0 0 339.91 314.98"><defs><style>.cls-1,.cls-2{fill:none;}.cls-1{stroke:#61d9d1;stroke-miterlimit:10;stroke-width:6.62px;}</style></defs><title>subscribe-main-img</title><g id="Layer_2" data-name="Layer 2"><g id="Layer_1-2" data-name="Layer 1"><path class="cls-1" d="M55.41,283.17l102.22-87.74a19.58,19.58,0,0,1,24.65,0L284.5,283.17"/><polyline class="cls-1" points="77.55 162.53 77.55 31.82 262.78 31.82 262.78 162.28"/><line class="cls-1" x1="55.41" y1="149.43" x2="148.24" y2="204.37"/><polyline class="cls-1" points="77.6 133.6 55.41 149.43 55.41 283.17 284.5 283.17 284.5 149.43 262.2 133.53"/><line class="cls-1" x1="191.67" y1="204.37" x2="284.5" y2="149.43"/><circle class="cls-1" cx="170.17" cy="66.09" r="7.66"/><line class="cls-1" x1="143.2" y1="66.09" x2="101.82" y2="66.09"/><line class="cls-1" x1="239.04" y1="66.09" x2="196.71" y2="66.09"/><line class="cls-1" x1="101.82" y1="102.93" x2="166.9" y2="102.93"/><line class="cls-1" x1="101.82" y1="125.39" x2="166.9" y2="125.39"/><line class="cls-1" x1="101.82" y1="147.84" x2="166.9" y2="147.84"/><rect class="cls-1" x="191.67" y="102.93" width="43.79" height="44.91"/><rect class="cls-2" width="339.91" height="314.98"/></g></g></svg>