<svg xmlns="http://www.w3.org/2000/svg" viewBox="0 0 245.11 211"><defs><style>.cls-1{fill:#eaeaea;}.cls-2{fill:#0380d3;}.cls-3,.cls-4{fill:#fff;}.cls-4{stroke:#cbcbcb;stroke-miterlimit:10;}.cls-5{fill:#aaaab3;}.cls-6{fill:#3b3e41;}.cls-7{fill:none;}</style></defs><title>roadmunk-collaborate</title><g id="Layer_2" data-name="Layer 2"><g id="Layer_1-2" data-name="Layer 1"><rect class="cls-1" x="5.05" y="7.61" width="236.74" height="130.28" rx="8.26" ry="8.26"/><rect class="cls-2" x="160.66" y="180.62" width="68.74" height="22.94" rx="1.22" ry="1.22"/><path class="cls-3" d="M176.22,189.11a1.77,1.77,0,0,0-1.46.66,3.45,3.45,0,0,0,0,3.64,1.8,1.8,0,0,0,1.48.62,3.87,3.87,0,0,0,.81-.08q.39-.08.81-.21v.92a4.93,4.93,0,0,1-1.75.29,2.8,2.8,0,0,1-2.22-.87,3.66,3.66,0,0,1-.77-2.5,4,4,0,0,1,.38-1.79,2.68,2.68,0,0,1,1.09-1.18,3.29,3.29,0,0,1,1.67-.41,4.14,4.14,0,0,1,1.86.42l-.39.89a5.72,5.72,0,0,0-.7-.28A2.54,2.54,0,0,0,176.22,189.11Z"/><path class="cls-3" d="M183.56,192.36a2.72,2.72,0,0,1-.62,1.9,2.24,2.24,0,0,1-1.74.68,2.39,2.39,0,0,1-1.23-.31,2.07,2.07,0,0,1-.82-.9,3.08,3.08,0,0,1-.29-1.37,2.69,2.69,0,0,1,.62-1.89,2.25,2.25,0,0,1,1.75-.68,2.19,2.19,0,0,1,1.71.69A2.68,2.68,0,0,1,183.56,192.36Zm-3.62,0q0,1.72,1.27,1.72t1.26-1.72q0-1.7-1.27-1.7a1.08,1.08,0,0,0-1,.44A2.24,2.24,0,0,0,179.94,192.36Z"/><path class="cls-3" d="M189,194.85H187.9v-3.07a1.39,1.39,0,0,0-.22-.85.8.8,0,0,0-.67-.28,1,1,0,0,0-.9.4,2.33,2.33,0,0,0-.29,1.32v2.48h-1.06v-5h.83l.15.65h.05a1.38,1.38,0,0,1,.6-.55,1.94,1.94,0,0,1,.87-.19,1.51,1.51,0,0,1,1.52.78h.07a1.51,1.51,0,0,1,.62-.58,2,2,0,0,1,.92-.21,1.67,1.67,0,0,1,1.3.45,2,2,0,0,1,.41,1.37v3.24H191v-3.07a1.38,1.38,0,0,0-.22-.85.8.8,0,0,0-.68-.28,1,1,0,0,0-.9.38,2,2,0,0,0-.29,1.18Z"/><path class="cls-3" d="M197.76,194.85H196.7v-3.07a1.39,1.39,0,0,0-.22-.85.8.8,0,0,0-.67-.28,1,1,0,0,0-.9.4,2.33,2.33,0,0,0-.29,1.32v2.48h-1.06v-5h.83l.15.65h.05a1.38,1.38,0,0,1,.6-.55,1.94,1.94,0,0,1,.87-.19,1.51,1.51,0,0,1,1.52.78h.07a1.51,1.51,0,0,1,.62-.58,2,2,0,0,1,.92-.21,1.67,1.67,0,0,1,1.3.45,2,2,0,0,1,.41,1.37v3.24h-1.06v-3.07a1.38,1.38,0,0,0-.22-.85.8.8,0,0,0-.68-.28,1,1,0,0,0-.9.38,2,2,0,0,0-.29,1.18Z"/><path class="cls-3" d="M204.55,194.94a2.4,2.4,0,0,1-1.81-.68,2.57,2.57,0,0,1-.65-1.86,2.82,2.82,0,0,1,.61-1.92,2.1,2.1,0,0,1,1.67-.7,2,2,0,0,1,1.56.6,2.28,2.28,0,0,1,.57,1.65v.57h-3.31a1.63,1.63,0,0,0,.39,1.11,1.36,1.36,0,0,0,1,.39,3.82,3.82,0,0,0,.82-.08,4.32,4.32,0,0,0,.82-.28v.86a3.25,3.25,0,0,1-.78.26A4.78,4.78,0,0,1,204.55,194.94Zm-.19-4.35a1.06,1.06,0,0,0-.81.32,1.52,1.52,0,0,0-.36.93h2.26a1.38,1.38,0,0,0-.3-.93A1,1,0,0,0,204.35,190.59Z"/><path class="cls-3" d="M212.05,194.85H211v-3.06a1.34,1.34,0,0,0-.23-.86.9.9,0,0,0-.74-.28,1.17,1.17,0,0,0-1,.4,2.18,2.18,0,0,0-.31,1.33v2.48h-1.06v-5h.83l.15.65h.05a1.47,1.47,0,0,1,.64-.55,2.14,2.14,0,0,1,.92-.19,1.6,1.6,0,0,1,1.79,1.82Z"/><path class="cls-3" d="M215.38,194.09a2.57,2.57,0,0,0,.77-.12v.8a2.11,2.11,0,0,1-.45.13,3.13,3.13,0,0,1-.57.05q-1.5,0-1.5-1.58v-2.68h-.68v-.47l.73-.39.36-1.05h.65v1.11h1.42v.8h-1.42v2.66a.75.75,0,0,0,.19.56A.7.7,0,0,0,215.38,194.09Z"/><rect class="cls-4" x="14.21" y="74.27" width="215.35" height="42.51" rx="2.09" ry="2.09"/><path class="cls-5" d="M22.71,127.57v-5.09h.83v4.37h2.15v.71Z"/><path class="cls-5" d="M26.43,122.71a.45.45,0,0,1,.12-.34.47.47,0,0,1,.34-.12.46.46,0,0,1,.34.12.45.45,0,0,1,.12.34.44.44,0,0,1-.12.33.46.46,0,0,1-.34.12.47.47,0,0,1-.34-.12A.44.44,0,0,1,26.43,122.71Zm.87,4.87h-.82v-3.85h.82Z"/><path class="cls-5" d="M31.05,126.48a1,1,0,0,1-.41.86,2,2,0,0,1-1.18.3,2.78,2.78,0,0,1-1.23-.23v-.71a3,3,0,0,0,1.26.31q.76,0,.75-.46a.36.36,0,0,0-.08-.24,1,1,0,0,0-.27-.2,4.79,4.79,0,0,0-.53-.24,2.46,2.46,0,0,1-.9-.52,1,1,0,0,1-.23-.67.88.88,0,0,1,.4-.77,1.89,1.89,0,0,1,1.08-.27,3.07,3.07,0,0,1,1.28.27l-.26.62a2.86,2.86,0,0,0-1-.26q-.65,0-.65.37a.37.37,0,0,0,.17.31,3.72,3.72,0,0,0,.74.34,3.37,3.37,0,0,1,.69.34,1,1,0,0,1,.32.35A1,1,0,0,1,31.05,126.48Z"/><path class="cls-5" d="M34.34,127.57l-.16-.54h0a1.57,1.57,0,0,1-.56.48,1.77,1.77,0,0,1-.72.13,1.22,1.22,0,0,1-.89-.31,1.15,1.15,0,0,1-.32-.87,1,1,0,0,1,.44-.9,2.54,2.54,0,0,1,1.35-.33l.66,0V125a.78.78,0,0,0-.17-.55.7.7,0,0,0-.53-.18,1.84,1.84,0,0,0-.57.09,4.27,4.27,0,0,0-.52.21l-.26-.58a2.84,2.84,0,0,1,.69-.25,3.13,3.13,0,0,1,.7-.09,1.66,1.66,0,0,1,1.11.32,1.25,1.25,0,0,1,.37,1v2.59ZM33.12,127a1,1,0,0,0,.71-.25.9.9,0,0,0,.27-.7v-.33l-.49,0a1.69,1.69,0,0,0-.84.19.59.59,0,0,0-.26.53.52.52,0,0,0,.15.4A.66.66,0,0,0,33.12,127Z"/><path class="cls-5" d="M38,127.57v-5.09h.83v4.37H41v.71Z"/><path class="cls-5" d="M43.46,127.64a1.86,1.86,0,0,1-1.4-.52,2,2,0,0,1-.51-1.44,2.18,2.18,0,0,1,.47-1.48,1.62,1.62,0,0,1,1.29-.54,1.58,1.58,0,0,1,1.2.46,1.77,1.77,0,0,1,.44,1.27v.44H42.39a1.26,1.26,0,0,0,.3.86,1.05,1.05,0,0,0,.8.3,3,3,0,0,0,.63-.06,3.29,3.29,0,0,0,.63-.21v.66a2.48,2.48,0,0,1-.6.2A3.7,3.7,0,0,1,43.46,127.64Zm-.15-3.37a.82.82,0,0,0-.62.25,1.18,1.18,0,0,0-.28.72h1.75a1.06,1.06,0,0,0-.23-.72A.79.79,0,0,0,43.31,124.27Z"/><path class="cls-5" d="M46.76,127.57l-1.46-3.85h.86l.78,2.24a4.44,4.44,0,0,1,.24.91h0a6.12,6.12,0,0,1,.24-.91l.78-2.24h.87l-1.47,3.85Z"/><path class="cls-5" d="M49.65,122.71a.45.45,0,0,1,.12-.34.47.47,0,0,1,.34-.12.46.46,0,0,1,.34.12.45.45,0,0,1,.12.34.44.44,0,0,1-.12.33.46.46,0,0,1-.34.12.47.47,0,0,1-.34-.12A.44.44,0,0,1,49.65,122.71Zm.87,4.87H49.7v-3.85h.82Z"/><path class="cls-5" d="M53.12,127a2,2,0,0,0,.6-.09v.62a1.68,1.68,0,0,1-.35.1,2.44,2.44,0,0,1-.44,0q-1.16,0-1.16-1.22v-2.07h-.53V124l.56-.3.28-.81h.5v.86h1.1v.62h-1.1v2.06a.58.58,0,0,0,.15.44A.54.54,0,0,0,53.12,127Z"/><path class="cls-5" d="M55.92,127a2,2,0,0,0,.6-.09v.62a1.68,1.68,0,0,1-.35.1,2.44,2.44,0,0,1-.44,0q-1.16,0-1.16-1.22v-2.07H54V124l.56-.3.28-.81h.5v.86h1.1v.62h-1.1v2.06a.58.58,0,0,0,.15.44A.54.54,0,0,0,55.92,127Z"/><path class="cls-2" d="M30.32,88.63a3.57,3.57,0,0,1-.22,1.28,2.08,2.08,0,0,1-.62.9,1.42,1.42,0,0,1-.92.32,1.11,1.11,0,0,1-.67-.21,1,1,0,0,1-.38-.56h-.06a1.6,1.6,0,0,1-.59.57,1.63,1.63,0,0,1-.79.19,1.59,1.59,0,0,1-1.25-.51,2,2,0,0,1-.46-1.39A2.25,2.25,0,0,1,25,87.6,2.15,2.15,0,0,1,26.59,87a5.74,5.74,0,0,1,.82.07,4.69,4.69,0,0,1,.8.18l-.11,2.27v.12q0,.78.51.78t.61-.5a3.07,3.07,0,0,0,.23-1.27,3,3,0,0,0-.34-1.47,2.37,2.37,0,0,0-1-1,3,3,0,0,0-1.45-.34,3.65,3.65,0,0,0-1.81.43,2.85,2.85,0,0,0-1.17,1.23,4,4,0,0,0-.41,1.85,2.65,2.65,0,0,0,2.93,2.94,6.4,6.4,0,0,0,2.25-.44v.8a5.83,5.83,0,0,1-2.23.42,3.89,3.89,0,0,1-2.82-1,3.6,3.6,0,0,1-1-2.72A4.62,4.62,0,0,1,23,87.11a3.75,3.75,0,0,1,1.52-1.52,4.52,4.52,0,0,1,2.19-.53,4,4,0,0,1,1.89.44,3.12,3.12,0,0,1,1.28,1.25A3.77,3.77,0,0,1,30.32,88.63Zm-5,.62q0,1.14.89,1.14t1-1.43l.06-1.17a2.53,2.53,0,0,0-.66-.08,1.2,1.2,0,0,0-1,.42A1.7,1.7,0,0,0,25.3,89.25Z"/><path class="cls-2" d="M34.9,92.24l-2.07-6h0q.08,1.33.08,2.49v3.47H31.81V85.1h1.65l2,5.68h0l2-5.68h1.65v7.14H38V88.71q0-.53,0-1.39t0-1h0l-2.14,6Z"/><path class="cls-2" d="M44.3,92.24l-.23-.75h0a2.21,2.21,0,0,1-.79.67,2.49,2.49,0,0,1-1,.18A1.72,1.72,0,0,1,41,91.91a1.61,1.61,0,0,1-.45-1.22,1.43,1.43,0,0,1,.62-1.26A3.57,3.57,0,0,1,43,89l.93,0v-.29a1.09,1.09,0,0,0-.24-.77,1,1,0,0,0-.75-.26,2.59,2.59,0,0,0-.8.12,6,6,0,0,0-.73.29l-.37-.82a4,4,0,0,1,1-.35,4.44,4.44,0,0,1,1-.12,2.34,2.34,0,0,1,1.56.45,1.76,1.76,0,0,1,.52,1.41v3.64Zm-1.71-.78a1.42,1.42,0,0,0,1-.35,1.27,1.27,0,0,0,.38-1v-.47l-.69,0A2.37,2.37,0,0,0,42.1,90a.82.82,0,0,0-.37.74.72.72,0,0,0,.21.56A.92.92,0,0,0,42.59,91.46Z"/><path class="cls-2" d="M47.92,89.48l-1.81-2.64h1.31l1.23,1.89,1.24-1.89h1.3l-1.82,2.64,1.91,2.76H50l-1.33-2-1.33,2H46Z"/><path class="cls-6" d="M58.41,89.27v3h-.83V85.1h2a3.08,3.08,0,0,1,1.94.5,1.82,1.82,0,0,1,.63,1.51A1.9,1.9,0,0,1,60.67,89l1.94,3.21h-1l-1.73-3Zm0-.71h1.14a2,2,0,0,0,1.29-.35,1.3,1.3,0,0,0,.41-1,1.19,1.19,0,0,0-.42-1,2.26,2.26,0,0,0-1.34-.31H58.41Z"/><path class="cls-6" d="M65.9,92.34A2.46,2.46,0,0,1,64,91.61a2.8,2.8,0,0,1-.69-2A3.1,3.1,0,0,1,64,87.55a2.12,2.12,0,0,1,1.71-.76,2,2,0,0,1,1.59.66,2.54,2.54,0,0,1,.59,1.75v.51H64.18a2.12,2.12,0,0,0,.48,1.43,1.65,1.65,0,0,0,1.27.49,4.31,4.31,0,0,0,1.71-.36V92a4.31,4.31,0,0,1-.81.27A4.57,4.57,0,0,1,65.9,92.34Zm-.22-4.87a1.32,1.32,0,0,0-1,.42A1.94,1.94,0,0,0,64.2,89H67a1.78,1.78,0,0,0-.34-1.17A1.2,1.2,0,0,0,65.68,87.47Z"/><path class="cls-6" d="M72.54,92.24l-.16-.76h0a2.25,2.25,0,0,1-.8.68,2.44,2.44,0,0,1-1,.18,1.79,1.79,0,0,1-1.25-.41,1.5,1.5,0,0,1-.45-1.17q0-1.62,2.59-1.7l.91,0V88.7a1.36,1.36,0,0,0-.27-.93,1.11,1.11,0,0,0-.87-.3,3.53,3.53,0,0,0-1.51.41l-.25-.62a3.83,3.83,0,0,1,.87-.34,3.74,3.74,0,0,1,.94-.12,2,2,0,0,1,1.42.42,1.77,1.77,0,0,1,.46,1.36v3.65Zm-1.83-.57a1.64,1.64,0,0,0,1.19-.42,1.54,1.54,0,0,0,.43-1.16v-.48l-.81,0a3,3,0,0,0-1.39.3.91.91,0,0,0-.43.83.84.84,0,0,0,.27.67A1.11,1.11,0,0,0,70.71,91.67Z"/><path class="cls-6" d="M75.62,92.24h-.81v-7.6h.81Z"/><path class="cls-6" d="M78.15,92.24h-.81v-7.6h.81Z"/><path class="cls-6" d="M79,86.89h.87l1.17,3.05a11.62,11.62,0,0,1,.48,1.51h0q.06-.25.27-.85t1.33-3.71H84L81.74,93a3,3,0,0,1-.8,1.28,1.7,1.7,0,0,1-1.12.38,3.27,3.27,0,0,1-.73-.08v-.65a2.83,2.83,0,0,0,.6.06A1.24,1.24,0,0,0,80.88,93l.3-.76Z"/><path class="cls-6" d="M89.65,92.34a2.28,2.28,0,0,1-1.8-.72,2.94,2.94,0,0,1-.64-2,3,3,0,0,1,.65-2.08,2.33,2.33,0,0,1,1.84-.73,3.67,3.67,0,0,1,.77.08,2.54,2.54,0,0,1,.61.2l-.25.69a3.82,3.82,0,0,0-.59-.18,2.61,2.61,0,0,0-.56-.07Q88,87.51,88,89.59a2.48,2.48,0,0,0,.4,1.51,1.38,1.38,0,0,0,1.18.53A3.61,3.61,0,0,0,91,91.34v.72A2.92,2.92,0,0,1,89.65,92.34Z"/><path class="cls-6" d="M93,86.89v3.47a1.4,1.4,0,0,0,.3,1,1.21,1.21,0,0,0,.93.32,1.52,1.52,0,0,0,1.23-.46,2.32,2.32,0,0,0,.39-1.5V86.89h.81v5.35H96l-.12-.72h0a1.62,1.62,0,0,1-.69.61,2.32,2.32,0,0,1-1,.21,2,2,0,0,1-1.46-.46,2,2,0,0,1-.49-1.48v-3.5Z"/><path class="cls-6" d="M100.85,86.79a3.17,3.17,0,0,1,.64.06l-.11.75a2.76,2.76,0,0,0-.59-.07,1.43,1.43,0,0,0-1.11.53,1.92,1.92,0,0,0-.46,1.31v2.87h-.81V86.89h.67l.09,1h0a2.36,2.36,0,0,1,.72-.81A1.61,1.61,0,0,1,100.85,86.79Z"/><path class="cls-6" d="M102.42,85.44a.54.54,0,0,1,.14-.41.51.51,0,0,1,.68,0,.53.53,0,0,1,.14.41.54.54,0,0,1-.14.41.5.5,0,0,1-.68,0A.55.55,0,0,1,102.42,85.44Zm.88,6.8h-.81V86.89h.81Z"/><path class="cls-6" d="M109.64,89.56a3,3,0,0,1-.66,2,2.32,2.32,0,0,1-1.82.73,2.41,2.41,0,0,1-1.27-.34,2.22,2.22,0,0,1-.86-1,3.37,3.37,0,0,1-.3-1.47,3,3,0,0,1,.65-2,2.31,2.31,0,0,1,1.82-.73,2.26,2.26,0,0,1,1.78.75A2.94,2.94,0,0,1,109.64,89.56Zm-4.08,0a2.54,2.54,0,0,0,.41,1.56,1.63,1.63,0,0,0,2.41,0,2.53,2.53,0,0,0,.41-1.56,2.49,2.49,0,0,0-.41-1.55,1.45,1.45,0,0,0-1.22-.53A1.43,1.43,0,0,0,106,88,2.52,2.52,0,0,0,105.56,89.56Z"/><path class="cls-6" d="M111.82,86.89v3.47a1.4,1.4,0,0,0,.3,1,1.21,1.21,0,0,0,.93.32,1.52,1.52,0,0,0,1.23-.46,2.32,2.32,0,0,0,.39-1.5V86.89h.81v5.35h-.67l-.12-.72h0a1.62,1.62,0,0,1-.69.61,2.32,2.32,0,0,1-1,.21,2,2,0,0,1-1.46-.46,2,2,0,0,1-.49-1.48v-3.5Z"/><path class="cls-6" d="M120.65,90.78a1.34,1.34,0,0,1-.56,1.15,2.62,2.62,0,0,1-1.56.41,3.4,3.4,0,0,1-1.66-.34v-.75a4,4,0,0,0,.83.31,3.46,3.46,0,0,0,.85.11,1.93,1.93,0,0,0,1-.2.7.7,0,0,0,.07-1.15,4.27,4.27,0,0,0-1.06-.52,5.74,5.74,0,0,1-1.06-.49,1.45,1.45,0,0,1-.47-.47,1.23,1.23,0,0,1-.15-.63,1.2,1.2,0,0,1,.53-1,2.48,2.48,0,0,1,1.46-.38,4.27,4.27,0,0,1,1.69.35l-.29.66a3.88,3.88,0,0,0-1.46-.33,1.68,1.68,0,0,0-.87.18.56.56,0,0,0-.29.5.61.61,0,0,0,.11.37,1.09,1.09,0,0,0,.35.29,7.83,7.83,0,0,0,.94.4,3.5,3.5,0,0,1,1.29.7A1.23,1.23,0,0,1,120.65,90.78Z"/><path class="cls-6" d="M126.29,91.67a2.67,2.67,0,0,0,.42,0l.32-.07v.62a1.48,1.48,0,0,1-.39.1,2.9,2.9,0,0,1-.46,0q-1.55,0-1.55-1.64V87.52h-.77v-.39l.77-.34.34-1.14h.47v1.24H127v.63h-1.55v3.15a1.08,1.08,0,0,0,.23.74A.8.8,0,0,0,126.29,91.67Z"/><path class="cls-6" d="M132.71,89.56a3,3,0,0,1-.66,2,2.32,2.32,0,0,1-1.82.73A2.41,2.41,0,0,1,129,92a2.22,2.22,0,0,1-.86-1,3.37,3.37,0,0,1-.3-1.47,3,3,0,0,1,.65-2,2.31,2.31,0,0,1,1.82-.73,2.26,2.26,0,0,1,1.78.75A2.94,2.94,0,0,1,132.71,89.56Zm-4.08,0a2.54,2.54,0,0,0,.41,1.56,1.63,1.63,0,0,0,2.41,0,2.53,2.53,0,0,0,.41-1.56,2.49,2.49,0,0,0-.41-1.55,1.45,1.45,0,0,0-1.22-.53A1.43,1.43,0,0,0,129,88,2.52,2.52,0,0,0,128.64,89.56Z"/><path class="cls-6" d="M140.39,92.24V88.78a1.4,1.4,0,0,0-.3-1,1.21,1.21,0,0,0-.93-.32,1.53,1.53,0,0,0-1.23.46,2.32,2.32,0,0,0-.39,1.5v2.8h-.81v-7.6h.81v2.3a5,5,0,0,1,0,.69h0a1.65,1.65,0,0,1,.68-.61,2.22,2.22,0,0,1,1-.22,2.06,2.06,0,0,1,1.47.47,2,2,0,0,1,.49,1.48v3.49Z"/><path class="cls-6" d="M145.13,92.34a2.46,2.46,0,0,1-1.87-.72,2.8,2.8,0,0,1-.69-2,3.1,3.1,0,0,1,.64-2.06,2.12,2.12,0,0,1,1.71-.76,2,2,0,0,1,1.59.66,2.54,2.54,0,0,1,.59,1.75v.51h-3.69a2.12,2.12,0,0,0,.48,1.43,1.65,1.65,0,0,0,1.27.49,4.31,4.31,0,0,0,1.71-.36V92a4.31,4.31,0,0,1-.81.27A4.57,4.57,0,0,1,145.13,92.34Zm-.22-4.87a1.32,1.32,0,0,0-1,.42,1.94,1.94,0,0,0-.45,1.16h2.8a1.78,1.78,0,0,0-.34-1.17A1.2,1.2,0,0,0,144.91,87.47Z"/><path class="cls-6" d="M151.77,92.24l-.16-.76h0a2.25,2.25,0,0,1-.8.68,2.44,2.44,0,0,1-1,.18,1.79,1.79,0,0,1-1.25-.41,1.5,1.5,0,0,1-.45-1.17q0-1.62,2.59-1.7l.91,0V88.7a1.36,1.36,0,0,0-.27-.93,1.11,1.11,0,0,0-.87-.3,3.53,3.53,0,0,0-1.51.41l-.25-.62a3.83,3.83,0,0,1,.87-.34,3.74,3.74,0,0,1,.94-.12,2,2,0,0,1,1.42.42,1.77,1.77,0,0,1,.46,1.36v3.65Zm-1.83-.57a1.64,1.64,0,0,0,1.19-.42,1.54,1.54,0,0,0,.43-1.16v-.48l-.81,0a3,3,0,0,0-1.39.3.91.91,0,0,0-.43.83.84.84,0,0,0,.27.67A1.11,1.11,0,0,0,149.94,91.67Z"/><path class="cls-6" d="M156.48,86.79a3.17,3.17,0,0,1,.64.06l-.11.75a2.76,2.76,0,0,0-.59-.07,1.43,1.43,0,0,0-1.11.53,1.92,1.92,0,0,0-.46,1.31v2.87H154V86.89h.67l.09,1h0a2.36,2.36,0,0,1,.72-.81A1.61,1.61,0,0,1,156.48,86.79Z"/><path class="cls-6" d="M161.48,86.89v3.47a1.4,1.4,0,0,0,.3,1,1.21,1.21,0,0,0,.93.32,1.52,1.52,0,0,0,1.23-.46,2.32,2.32,0,0,0,.39-1.5V86.89h.81v5.35h-.67l-.12-.72h0a1.62,1.62,0,0,1-.69.61,2.32,2.32,0,0,1-1,.21,2,2,0,0,1-1.46-.46,2,2,0,0,1-.49-1.48v-3.5Z"/><path class="cls-6" d="M170.31,90.78a1.34,1.34,0,0,1-.56,1.15,2.62,2.62,0,0,1-1.56.41,3.4,3.4,0,0,1-1.66-.34v-.75a4,4,0,0,0,.83.31,3.46,3.46,0,0,0,.85.11,1.93,1.93,0,0,0,1-.2.7.7,0,0,0,.07-1.15,4.27,4.27,0,0,0-1.06-.52,5.74,5.74,0,0,1-1.06-.49,1.45,1.45,0,0,1-.47-.47,1.23,1.23,0,0,1-.15-.63,1.2,1.2,0,0,1,.53-1,2.48,2.48,0,0,1,1.46-.38,4.27,4.27,0,0,1,1.69.35l-.29.66a3.88,3.88,0,0,0-1.46-.33,1.68,1.68,0,0,0-.87.18.56.56,0,0,0-.29.5.61.61,0,0,0,.11.37,1.09,1.09,0,0,0,.35.29,7.83,7.83,0,0,0,.94.4,3.5,3.5,0,0,1,1.29.7A1.23,1.23,0,0,1,170.31,90.78Z"/><path class="cls-6" d="M173.89,92.34a2.46,2.46,0,0,1-1.87-.72,2.8,2.8,0,0,1-.69-2,3.1,3.1,0,0,1,.64-2.06,2.12,2.12,0,0,1,1.71-.76,2,2,0,0,1,1.59.66,2.54,2.54,0,0,1,.59,1.75v.51h-3.69a2.12,2.12,0,0,0,.48,1.43,1.65,1.65,0,0,0,1.27.49,4.31,4.31,0,0,0,1.71-.36V92a4.31,4.31,0,0,1-.81.27A4.57,4.57,0,0,1,173.89,92.34Zm-.22-4.87a1.32,1.32,0,0,0-1,.42,1.94,1.94,0,0,0-.45,1.16H175a1.78,1.78,0,0,0-.34-1.17A1.2,1.2,0,0,0,173.67,87.47Z"/><path class="cls-6" d="M179.68,86.79a3.17,3.17,0,0,1,.64.06l-.11.75a2.76,2.76,0,0,0-.59-.07,1.43,1.43,0,0,0-1.11.53,1.92,1.92,0,0,0-.46,1.31v2.87h-.81V86.89h.67l.09,1h0a2.36,2.36,0,0,1,.72-.81A1.61,1.61,0,0,1,179.68,86.79Z"/><path class="cls-6" d="M25.16,101.52H23.8v4.72H23v-4.72H22v-.37l1-.29v-.3q0-2,1.72-2a3.55,3.55,0,0,1,1,.17l-.21.65a2.68,2.68,0,0,0-.8-.15.78.78,0,0,0-.68.31,1.7,1.7,0,0,0-.22,1v.35h1.36Z"/><path class="cls-6" d="M28.4,106.34a2.46,2.46,0,0,1-1.87-.72,2.8,2.8,0,0,1-.69-2,3.1,3.1,0,0,1,.64-2.06,2.12,2.12,0,0,1,1.71-.76,2,2,0,0,1,1.59.66,2.54,2.54,0,0,1,.59,1.75v.51H26.68a2.12,2.12,0,0,0,.48,1.43,1.65,1.65,0,0,0,1.27.49,4.31,4.31,0,0,0,1.71-.36V106a4.31,4.31,0,0,1-.81.27A4.57,4.57,0,0,1,28.4,106.34Zm-.22-4.87a1.32,1.32,0,0,0-1,.42A1.94,1.94,0,0,0,26.7,103h2.8a1.78,1.78,0,0,0-.34-1.17A1.2,1.2,0,0,0,28.18,101.47Z"/><path class="cls-6" d="M34,106.34a2.46,2.46,0,0,1-1.87-.72,2.8,2.8,0,0,1-.69-2,3.1,3.1,0,0,1,.64-2.06,2.12,2.12,0,0,1,1.71-.76,2,2,0,0,1,1.59.66A2.54,2.54,0,0,1,36,103.2v.51H32.29a2.12,2.12,0,0,0,.48,1.43,1.65,1.65,0,0,0,1.27.49,4.31,4.31,0,0,0,1.71-.36V106a4.31,4.31,0,0,1-.81.27A4.57,4.57,0,0,1,34,106.34Zm-.22-4.87a1.32,1.32,0,0,0-1,.42,1.94,1.94,0,0,0-.45,1.16h2.8a1.78,1.78,0,0,0-.34-1.17A1.2,1.2,0,0,0,33.79,101.47Z"/><path class="cls-6" d="M41,105.52h0a1.9,1.9,0,0,1-1.68.82,2,2,0,0,1-1.63-.72,3.16,3.16,0,0,1-.58-2,3.21,3.21,0,0,1,.59-2.06,2,2,0,0,1,1.63-.73,2,2,0,0,1,1.67.79H41l0-.39,0-.38V98.64h.81v7.6h-.66Zm-1.62.14a1.48,1.48,0,0,0,1.2-.45,2.28,2.28,0,0,0,.37-1.46v-.17a2.68,2.68,0,0,0-.38-1.62,1.44,1.44,0,0,0-1.21-.49,1.24,1.24,0,0,0-1.09.55,2.75,2.75,0,0,0-.38,1.56,2.64,2.64,0,0,0,.38,1.55A1.27,1.27,0,0,0,39.38,105.66Z"/><path class="cls-6" d="M46,100.8a2,2,0,0,1,1.64.72,3.86,3.86,0,0,1,0,4.09,2,2,0,0,1-1.63.73,2.32,2.32,0,0,1-1-.19,1.79,1.79,0,0,1-.73-.59h-.06l-.17.69h-.58v-7.6h.81v1.85q0,.62,0,1.11h0A1.92,1.92,0,0,1,46,100.8Zm-.12.68a1.42,1.42,0,0,0-1.2.48,3.67,3.67,0,0,0,0,3.22,1.43,1.43,0,0,0,1.21.49,1.25,1.25,0,0,0,1.11-.54,2.8,2.8,0,0,0,.37-1.56A2.69,2.69,0,0,0,47,102,1.3,1.3,0,0,0,45.86,101.48Z"/><path class="cls-6" d="M52.9,106.24l-.16-.76h0a2.25,2.25,0,0,1-.8.68,2.44,2.44,0,0,1-1,.18,1.79,1.79,0,0,1-1.25-.41,1.5,1.5,0,0,1-.45-1.17q0-1.62,2.59-1.7l.91,0v-.33a1.36,1.36,0,0,0-.27-.93,1.11,1.11,0,0,0-.87-.3,3.53,3.53,0,0,0-1.51.41l-.25-.62a3.83,3.83,0,0,1,.87-.34,3.74,3.74,0,0,1,.94-.12,2,2,0,0,1,1.42.42,1.77,1.77,0,0,1,.46,1.36v3.65Zm-1.83-.57a1.64,1.64,0,0,0,1.19-.42,1.54,1.54,0,0,0,.43-1.16v-.48l-.81,0a3,3,0,0,0-1.39.3.91.91,0,0,0-.43.83.84.84,0,0,0,.27.67A1.11,1.11,0,0,0,51.07,105.67Z"/><path class="cls-6" d="M57.31,106.34a2.28,2.28,0,0,1-1.8-.72,2.94,2.94,0,0,1-.64-2,3,3,0,0,1,.65-2.08,2.33,2.33,0,0,1,1.84-.73,3.67,3.67,0,0,1,.77.08,2.54,2.54,0,0,1,.61.2l-.25.69a3.82,3.82,0,0,0-.59-.18,2.61,2.61,0,0,0-.56-.07q-1.63,0-1.63,2.08a2.48,2.48,0,0,0,.4,1.51,1.38,1.38,0,0,0,1.18.53,3.61,3.61,0,0,0,1.37-.29v.72A2.92,2.92,0,0,1,57.31,106.34Z"/><path class="cls-6" d="M60.74,103.5a9.5,9.5,0,0,1,.64-.78l1.73-1.83h1l-2.17,2.28,2.32,3.07h-1l-1.89-2.53-.61.53v2h-.8v-7.6h.8v4q0,.27,0,.83Z"/><path class="cls-6" d="M72.4,103.56a3,3,0,0,1-.66,2,2.32,2.32,0,0,1-1.82.73,2.41,2.41,0,0,1-1.27-.34,2.22,2.22,0,0,1-.86-1,3.37,3.37,0,0,1-.3-1.47,3,3,0,0,1,.65-2,2.31,2.31,0,0,1,1.82-.73,2.26,2.26,0,0,1,1.78.75A2.94,2.94,0,0,1,72.4,103.56Zm-4.08,0a2.54,2.54,0,0,0,.41,1.56,1.63,1.63,0,0,0,2.41,0,2.53,2.53,0,0,0,.41-1.56,2.49,2.49,0,0,0-.41-1.55,1.45,1.45,0,0,0-1.22-.53,1.43,1.43,0,0,0-1.2.52A2.52,2.52,0,0,0,68.32,103.56Z"/><path class="cls-6" d="M77.48,106.24v-3.46a1.4,1.4,0,0,0-.3-1,1.21,1.21,0,0,0-.93-.32,1.54,1.54,0,0,0-1.23.45,2.29,2.29,0,0,0-.39,1.5v2.81h-.81v-5.35h.66l.13.73h0a1.66,1.66,0,0,1,.7-.61,2.27,2.27,0,0,1,1-.22,2,2,0,0,1,1.46.47,2,2,0,0,1,.49,1.49v3.49Z"/><path class="cls-6" d="M84.29,105.67a2.67,2.67,0,0,0,.42,0l.32-.07v.62a1.48,1.48,0,0,1-.39.1,2.9,2.9,0,0,1-.46,0q-1.55,0-1.55-1.64v-3.18h-.77v-.39l.77-.34L83,99.65h.47v1.24H85v.63H83.43v3.15a1.08,1.08,0,0,0,.23.74A.8.8,0,0,0,84.29,105.67Z"/><path class="cls-6" d="M89.75,106.24v-3.46a1.4,1.4,0,0,0-.3-1,1.21,1.21,0,0,0-.93-.32,1.53,1.53,0,0,0-1.23.46,2.32,2.32,0,0,0-.39,1.5v2.8h-.81v-7.6h.81v2.3a5,5,0,0,1,0,.69h0a1.65,1.65,0,0,1,.68-.61,2.22,2.22,0,0,1,1-.22,2.06,2.06,0,0,1,1.47.47,2,2,0,0,1,.49,1.48v3.49Z"/><path class="cls-6" d="M94.49,106.34a2.46,2.46,0,0,1-1.87-.72,2.8,2.8,0,0,1-.69-2,3.1,3.1,0,0,1,.64-2.06,2.12,2.12,0,0,1,1.71-.76,2,2,0,0,1,1.59.66,2.54,2.54,0,0,1,.59,1.75v.51H92.77a2.12,2.12,0,0,0,.48,1.43,1.65,1.65,0,0,0,1.27.49,4.31,4.31,0,0,0,1.71-.36V106a4.31,4.31,0,0,1-.81.27A4.57,4.57,0,0,1,94.49,106.34Zm-.22-4.87a1.32,1.32,0,0,0-1,.42,1.94,1.94,0,0,0-.45,1.16h2.8a1.78,1.78,0,0,0-.34-1.17A1.2,1.2,0,0,0,94.27,101.47Z"/><path class="cls-6" d="M104.09,106.24v-3.46a1.4,1.4,0,0,0-.3-1,1.21,1.21,0,0,0-.93-.32,1.54,1.54,0,0,0-1.23.45,2.29,2.29,0,0,0-.39,1.5v2.81h-.81v-5.35h.66l.13.73h0a1.66,1.66,0,0,1,.7-.61,2.27,2.27,0,0,1,1-.22,2,2,0,0,1,1.46.47,2,2,0,0,1,.49,1.49v3.49Z"/><path class="cls-6" d="M108.83,106.34a2.46,2.46,0,0,1-1.87-.72,2.8,2.8,0,0,1-.69-2,3.1,3.1,0,0,1,.64-2.06,2.12,2.12,0,0,1,1.71-.76,2,2,0,0,1,1.59.66,2.54,2.54,0,0,1,.59,1.75v.51h-3.69a2.12,2.12,0,0,0,.48,1.43,1.65,1.65,0,0,0,1.27.49,4.31,4.31,0,0,0,1.71-.36V106a4.31,4.31,0,0,1-.81.27A4.57,4.57,0,0,1,108.83,106.34Zm-.22-4.87a1.32,1.32,0,0,0-1,.42,1.94,1.94,0,0,0-.45,1.16h2.8a1.78,1.78,0,0,0-.34-1.17A1.2,1.2,0,0,0,108.61,101.47Z"/><path class="cls-6" d="M116.55,106.24l-1-3.14q-.09-.29-.35-1.31h0q-.2.85-.34,1.32l-1,3.13h-.94l-1.46-5.35h.85l.79,3.07a12.41,12.41,0,0,1,.31,1.42h0q.05-.28.17-.72t.21-.7l1-3.07h.88l1,3.07a10.37,10.37,0,0,1,.37,1.41h0a5.18,5.18,0,0,1,.1-.54q.09-.37,1-3.94H119l-1.48,5.35Z"/><path class="cls-6" d="M125,106.34a2.32,2.32,0,0,1-1-.19,1.79,1.79,0,0,1-.73-.59h-.06a7.18,7.18,0,0,1,.06.89v2.2h-.81v-7.75h.66l.11.73h0a1.88,1.88,0,0,1,.73-.63,2.21,2.21,0,0,1,1-.2,2,2,0,0,1,1.64.73,3.87,3.87,0,0,1,0,4.09A2,2,0,0,1,125,106.34Zm-.12-4.86a1.44,1.44,0,0,0-1.19.45,2.34,2.34,0,0,0-.38,1.45v.18a2.68,2.68,0,0,0,.38,1.61,1.43,1.43,0,0,0,1.21.49,1.25,1.25,0,0,0,1.09-.56,2.66,2.66,0,0,0,.39-1.55A2.56,2.56,0,0,0,126,102,1.29,1.29,0,0,0,124.93,101.48Z"/><path class="cls-6" d="M131.13,100.79a3.17,3.17,0,0,1,.64.06l-.11.75a2.76,2.76,0,0,0-.59-.07,1.43,1.43,0,0,0-1.11.53,1.92,1.92,0,0,0-.46,1.31v2.87h-.81v-5.35h.67l.09,1h0a2.36,2.36,0,0,1,.72-.81A1.61,1.61,0,0,1,131.13,100.79Z"/><path class="cls-6" d="M137.39,103.56a3,3,0,0,1-.66,2,2.32,2.32,0,0,1-1.82.73,2.41,2.41,0,0,1-1.27-.34,2.22,2.22,0,0,1-.86-1,3.37,3.37,0,0,1-.3-1.47,3,3,0,0,1,.65-2,2.31,2.31,0,0,1,1.82-.73,2.26,2.26,0,0,1,1.78.75A2.94,2.94,0,0,1,137.39,103.56Zm-4.08,0a2.54,2.54,0,0,0,.41,1.56,1.63,1.63,0,0,0,2.41,0,2.53,2.53,0,0,0,.41-1.56,2.49,2.49,0,0,0-.41-1.55,1.45,1.45,0,0,0-1.22-.53,1.43,1.43,0,0,0-1.2.52A2.52,2.52,0,0,0,133.31,103.56Z"/><path class="cls-6" d="M140.54,105.67a2.67,2.67,0,0,0,.42,0l.32-.07v.62a1.48,1.48,0,0,1-.39.1,2.9,2.9,0,0,1-.46,0q-1.55,0-1.55-1.64v-3.18h-.77v-.39l.77-.34.34-1.14h.47v1.24h1.55v.63h-1.55v3.15a1.08,1.08,0,0,0,.23.74A.8.8,0,0,0,140.54,105.67Z"/><path class="cls-6" d="M147,103.56a3,3,0,0,1-.66,2,2.32,2.32,0,0,1-1.82.73,2.41,2.41,0,0,1-1.27-.34,2.22,2.22,0,0,1-.86-1,3.37,3.37,0,0,1-.3-1.47,3,3,0,0,1,.65-2,2.31,2.31,0,0,1,1.82-.73,2.26,2.26,0,0,1,1.78.75A2.94,2.94,0,0,1,147,103.56Zm-4.08,0a2.54,2.54,0,0,0,.41,1.56,1.63,1.63,0,0,0,2.41,0,2.53,2.53,0,0,0,.41-1.56,2.49,2.49,0,0,0-.41-1.55,1.45,1.45,0,0,0-1.22-.53,1.43,1.43,0,0,0-1.2.52A2.52,2.52,0,0,0,142.88,103.56Z"/><path class="cls-6" d="M150.11,105.67a2.67,2.67,0,0,0,.42,0l.32-.07v.62a1.48,1.48,0,0,1-.39.1,2.9,2.9,0,0,1-.46,0q-1.55,0-1.55-1.64v-3.18h-.77v-.39l.77-.34.34-1.14h.47v1.24h1.55v.63h-1.55v3.15a1.08,1.08,0,0,0,.23.74A.8.8,0,0,0,150.11,105.67Z"/><path class="cls-6" d="M151.06,100.89h.87l1.17,3.05a11.62,11.62,0,0,1,.48,1.51h0q.06-.25.27-.85t1.33-3.71h.87l-2.3,6.09a3,3,0,0,1-.8,1.28,1.7,1.7,0,0,1-1.12.38,3.27,3.27,0,0,1-.73-.08v-.65a2.83,2.83,0,0,0,.6.06,1.24,1.24,0,0,0,1.19-.94l.3-.76Z"/><path class="cls-6" d="M159.44,106.34a2.32,2.32,0,0,1-1-.19,1.79,1.79,0,0,1-.73-.59h-.06a7.18,7.18,0,0,1,.06.89v2.2h-.81v-7.75h.66l.11.73h0a1.88,1.88,0,0,1,.73-.63,2.21,2.21,0,0,1,1-.2,2,2,0,0,1,1.64.73,3.87,3.87,0,0,1,0,4.09A2,2,0,0,1,159.44,106.34Zm-.12-4.86a1.44,1.44,0,0,0-1.19.45,2.34,2.34,0,0,0-.38,1.45v.18a2.68,2.68,0,0,0,.38,1.61,1.43,1.43,0,0,0,1.21.49,1.25,1.25,0,0,0,1.09-.56,2.66,2.66,0,0,0,.39-1.55,2.56,2.56,0,0,0-.39-1.54A1.29,1.29,0,0,0,159.32,101.48Z"/><path class="cls-6" d="M165.34,106.34a2.46,2.46,0,0,1-1.87-.72,2.8,2.8,0,0,1-.69-2,3.1,3.1,0,0,1,.64-2.06,2.12,2.12,0,0,1,1.71-.76,2,2,0,0,1,1.59.66,2.54,2.54,0,0,1,.59,1.75v.51h-3.69a2.12,2.12,0,0,0,.48,1.43,1.65,1.65,0,0,0,1.27.49,4.31,4.31,0,0,0,1.71-.36V106a4.31,4.31,0,0,1-.81.27A4.57,4.57,0,0,1,165.34,106.34Zm-.22-4.87a1.32,1.32,0,0,0-1,.42,1.94,1.94,0,0,0-.45,1.16h2.8a1.78,1.78,0,0,0-.34-1.17A1.2,1.2,0,0,0,165.12,101.47Z"/><path class="cls-6" d="M172.14,104.78a1.34,1.34,0,0,1-.56,1.15,2.62,2.62,0,0,1-1.56.41,3.4,3.4,0,0,1-1.66-.34v-.75a4,4,0,0,0,.83.31,3.46,3.46,0,0,0,.85.11,1.93,1.93,0,0,0,1-.2.7.7,0,0,0,.07-1.15,4.27,4.27,0,0,0-1.06-.52,5.74,5.74,0,0,1-1.06-.49,1.45,1.45,0,0,1-.47-.47,1.23,1.23,0,0,1-.15-.63,1.2,1.2,0,0,1,.53-1,2.48,2.48,0,0,1,1.46-.38,4.27,4.27,0,0,1,1.69.35l-.29.66a3.88,3.88,0,0,0-1.46-.33,1.68,1.68,0,0,0-.87.18.56.56,0,0,0-.29.5.61.61,0,0,0,.11.37,1.09,1.09,0,0,0,.35.29,7.83,7.83,0,0,0,.94.4,3.5,3.5,0,0,1,1.29.7A1.23,1.23,0,0,1,172.14,104.78Z"/><path class="cls-6" d="M173.34,105.72a.73.73,0,0,1,.15-.5.54.54,0,0,1,.43-.17.58.58,0,0,1,.44.17.7.7,0,0,1,.16.5.68.68,0,0,1-.16.49.64.64,0,0,1-.85,0A.67.67,0,0,1,173.34,105.72Z"/><rect class="cls-4" x="14.21" y="20.95" width="215.35" height="27.2" rx="2.09" ry="2.09"/><rect class="cls-4" x="14.21" y="145.91" width="215.35" height="27.2" rx="2.09" ry="2.09"/><path class="cls-5" d="M24.9,59.24,23.43,55h0q.06.95.06,1.77v2.47h-.75V54.15h1.17l1.41,4h0l1.45-4h1.18v5.09h-.8V56.72q0-.38,0-1t0-.74h0l-1.53,4.24Z"/><path class="cls-5" d="M31.6,59.24l-.16-.54h0a1.57,1.57,0,0,1-.56.48,1.77,1.77,0,0,1-.72.13,1.22,1.22,0,0,1-.89-.31,1.15,1.15,0,0,1-.32-.87,1,1,0,0,1,.44-.9,2.54,2.54,0,0,1,1.35-.33l.66,0v-.21a.78.78,0,0,0-.17-.55.7.7,0,0,0-.53-.18,1.84,1.84,0,0,0-.57.09,4.27,4.27,0,0,0-.52.21l-.26-.58a2.84,2.84,0,0,1,.69-.25,3.13,3.13,0,0,1,.7-.09,1.66,1.66,0,0,1,1.11.32,1.25,1.25,0,0,1,.37,1v2.59Zm-1.22-.56a1,1,0,0,0,.71-.25.9.9,0,0,0,.27-.7V57.4l-.49,0a1.69,1.69,0,0,0-.84.19.59.59,0,0,0-.26.53.52.52,0,0,0,.15.4A.66.66,0,0,0,30.38,58.68Z"/><path class="cls-5" d="M34.18,57.27l-1.29-1.88h.93l.88,1.35.88-1.35h.93l-1.29,1.88,1.36,2h-.93L34.7,57.8l-.95,1.44h-.93Z"/><path class="cls-5" d="M43.88,59.24H43l-.86-3q-.06-.2-.14-.57t-.1-.52q0,.22-.11.58t-.13.53l-.84,3h-.9l-.66-2.55-.67-2.54h.85l.73,3a12.82,12.82,0,0,1,.24,1.26c0-.2.06-.42.11-.66s.1-.44.14-.59l.83-3h.82l.85,3a11.17,11.17,0,0,1,.26,1.24,9,9,0,0,1,.25-1.27l.72-3h.84Z"/><path class="cls-5" d="M45.79,54.37a.45.45,0,0,1,.12-.34.47.47,0,0,1,.34-.12.46.46,0,0,1,.34.12.45.45,0,0,1,.12.34.44.44,0,0,1-.12.33.46.46,0,0,1-.34.12.47.47,0,0,1-.34-.12A.44.44,0,0,1,45.79,54.37Zm.87,4.87h-.82V55.39h.82Z"/><path class="cls-5" d="M48.64,59.24h-.82V53.83h.82Z"/><path class="cls-5" d="M50.63,59.24h-.82V53.83h.82Z"/><path class="cls-5" d="M51.75,54.37a.45.45,0,0,1,.12-.34.47.47,0,0,1,.34-.12.46.46,0,0,1,.34.12.45.45,0,0,1,.12.34.44.44,0,0,1-.12.33.46.46,0,0,1-.34.12.47.47,0,0,1-.34-.12A.44.44,0,0,1,51.75,54.37Zm.87,4.87H51.8V55.39h.82Z"/><path class="cls-5" d="M56.19,59.24,56,58.7h0a1.57,1.57,0,0,1-.56.48,1.77,1.77,0,0,1-.72.13,1.22,1.22,0,0,1-.89-.31,1.15,1.15,0,0,1-.32-.87,1,1,0,0,1,.44-.9,2.54,2.54,0,0,1,1.35-.33l.66,0v-.21a.78.78,0,0,0-.17-.55.7.7,0,0,0-.53-.18,1.84,1.84,0,0,0-.57.09,4.27,4.27,0,0,0-.52.21l-.26-.58a2.84,2.84,0,0,1,.69-.25,3.13,3.13,0,0,1,.7-.09,1.66,1.66,0,0,1,1.11.32,1.25,1.25,0,0,1,.37,1v2.59ZM55,58.68a1,1,0,0,0,.71-.25.9.9,0,0,0,.27-.7V57.4l-.49,0a1.69,1.69,0,0,0-.84.19.59.59,0,0,0-.26.53.52.52,0,0,0,.15.4A.66.66,0,0,0,55,58.68Z"/><path class="cls-5" d="M61.16,59.24h-.82V56.87a1.08,1.08,0,0,0-.17-.66.62.62,0,0,0-.52-.22.8.8,0,0,0-.69.31,1.81,1.81,0,0,0-.22,1v1.92h-.82V55.39h.64l.11.5h0a1.07,1.07,0,0,1,.46-.42,1.49,1.49,0,0,1,.67-.15,1.17,1.17,0,0,1,1.18.61h.06a1.17,1.17,0,0,1,.48-.45,1.53,1.53,0,0,1,.71-.16,1.29,1.29,0,0,1,1,.35,1.54,1.54,0,0,1,.31,1.06v2.51h-.82V56.87a1.07,1.07,0,0,0-.17-.66.62.62,0,0,0-.52-.22.81.81,0,0,0-.7.3,1.53,1.53,0,0,0-.22.91Z"/><path class="cls-5" d="M67.31,58.14a1,1,0,0,1-.41.86,2,2,0,0,1-1.18.3,2.78,2.78,0,0,1-1.23-.23v-.71a3,3,0,0,0,1.26.31q.76,0,.75-.46a.36.36,0,0,0-.08-.24,1,1,0,0,0-.27-.2,4.79,4.79,0,0,0-.53-.24,2.46,2.46,0,0,1-.9-.52,1,1,0,0,1-.23-.67.88.88,0,0,1,.4-.77A1.89,1.89,0,0,1,66,55.32a3.07,3.07,0,0,1,1.28.27l-.26.62a2.86,2.86,0,0,0-1-.26q-.65,0-.65.37a.37.37,0,0,0,.17.31,3.72,3.72,0,0,0,.74.34,3.38,3.38,0,0,1,.69.34,1,1,0,0,1,.32.35A1,1,0,0,1,67.31,58.14Z"/><path class="cls-2" d="M30.32,34.39a3.57,3.57,0,0,1-.22,1.28,2.08,2.08,0,0,1-.62.9,1.42,1.42,0,0,1-.92.32,1.11,1.11,0,0,1-.67-.21,1,1,0,0,1-.38-.56h-.06a1.6,1.6,0,0,1-.59.57,1.63,1.63,0,0,1-.79.19,1.59,1.59,0,0,1-1.25-.51A2,2,0,0,1,24.36,35,2.25,2.25,0,0,1,25,33.36a2.15,2.15,0,0,1,1.63-.63,5.74,5.74,0,0,1,.82.07,4.69,4.69,0,0,1,.8.18l-.11,2.27v.12q0,.78.51.78t.61-.5a3.07,3.07,0,0,0,.23-1.27,3,3,0,0,0-.34-1.47,2.37,2.37,0,0,0-1-1,3,3,0,0,0-1.45-.34,3.65,3.65,0,0,0-1.81.43,2.85,2.85,0,0,0-1.17,1.23,4,4,0,0,0-.41,1.85A2.65,2.65,0,0,0,26.24,38a6.4,6.4,0,0,0,2.25-.44v.8a5.83,5.83,0,0,1-2.23.42,3.89,3.89,0,0,1-2.82-1,3.6,3.6,0,0,1-1-2.72A4.62,4.62,0,0,1,23,32.87a3.75,3.75,0,0,1,1.52-1.52,4.52,4.52,0,0,1,2.19-.53,4,4,0,0,1,1.89.44,3.12,3.12,0,0,1,1.28,1.25A3.77,3.77,0,0,1,30.32,34.39Zm-5,.62q0,1.14.89,1.14t1-1.43l.06-1.17a2.53,2.53,0,0,0-.66-.08,1.2,1.2,0,0,0-1,.42A1.7,1.7,0,0,0,25.3,35Z"/><path class="cls-2" d="M31.81,38V30.86H33V37h3v1Z"/><path class="cls-2" d="M37,31.17a.64.64,0,0,1,.17-.47.66.66,0,0,1,.48-.17.64.64,0,0,1,.47.17.64.64,0,0,1,.17.47.62.62,0,0,1-.17.46.64.64,0,0,1-.47.17.65.65,0,0,1-.48-.17A.62.62,0,0,1,37,31.17ZM38.26,38H37.11V32.6h1.15Z"/><path class="cls-2" d="M43.52,36.46a1.41,1.41,0,0,1-.58,1.21,2.76,2.76,0,0,1-1.65.42,3.9,3.9,0,0,1-1.73-.33v-1a4.26,4.26,0,0,0,1.77.44q1.06,0,1.06-.64a.51.51,0,0,0-.12-.34,1.38,1.38,0,0,0-.39-.28,6.64,6.64,0,0,0-.75-.33,3.46,3.46,0,0,1-1.26-.72,1.34,1.34,0,0,1-.33-.94,1.23,1.23,0,0,1,.56-1.08,2.65,2.65,0,0,1,1.52-.38,4.31,4.31,0,0,1,1.8.39l-.37.86a4,4,0,0,0-1.47-.36q-.91,0-.91.52a.52.52,0,0,0,.24.43,5.2,5.2,0,0,0,1,.48,4.72,4.72,0,0,1,1,.47,1.42,1.42,0,0,1,.45.5A1.43,1.43,0,0,1,43.52,36.46Z"/><path class="cls-2" d="M48.14,38l-.23-.75h0a2.21,2.21,0,0,1-.79.67,2.49,2.49,0,0,1-1,.18,1.72,1.72,0,0,1-1.24-.43,1.61,1.61,0,0,1-.45-1.22A1.43,1.43,0,0,1,45,35.19a3.58,3.58,0,0,1,1.89-.46l.93,0v-.29a1.09,1.09,0,0,0-.24-.77,1,1,0,0,0-.75-.26,2.59,2.59,0,0,0-.8.12,6,6,0,0,0-.73.29L44.93,33a4,4,0,0,1,1-.35,4.44,4.44,0,0,1,1-.12,2.34,2.34,0,0,1,1.56.45A1.76,1.76,0,0,1,49,34.36V38Zm-1.71-.78a1.42,1.42,0,0,0,1-.35,1.27,1.27,0,0,0,.38-1v-.47l-.69,0a2.37,2.37,0,0,0-1.18.27.82.82,0,0,0-.37.74.72.72,0,0,0,.21.56A.92.92,0,0,0,46.43,37.22Z"/><path class="cls-6" d="M55.92,38V30.86h.83V38Z"/><path class="cls-6" d="M59.24,30.86l.07.11q-.13.49-.37,1.14t-.5,1.2h-.6q.34-1.39.5-2.45Z"/><path class="cls-6" d="M61.1,38h-.81V30.4h.81Z"/><path class="cls-6" d="M63.63,38h-.81V30.4h.81Z"/><path class="cls-6" d="M71.39,36.54a1.34,1.34,0,0,1-.56,1.15,2.62,2.62,0,0,1-1.56.41,3.4,3.4,0,0,1-1.66-.34V37a4,4,0,0,0,.83.31,3.46,3.46,0,0,0,.85.11,1.93,1.93,0,0,0,1-.2.7.7,0,0,0,.07-1.15,4.27,4.27,0,0,0-1.06-.52,5.74,5.74,0,0,1-1.06-.49,1.45,1.45,0,0,1-.47-.47A1.23,1.23,0,0,1,67.6,34a1.2,1.2,0,0,1,.53-1,2.48,2.48,0,0,1,1.46-.38,4.27,4.27,0,0,1,1.69.35l-.29.66a3.88,3.88,0,0,0-1.46-.33,1.68,1.68,0,0,0-.87.18.56.56,0,0,0-.29.5.61.61,0,0,0,.11.37,1.09,1.09,0,0,0,.35.29,7.83,7.83,0,0,0,.94.4,3.5,3.5,0,0,1,1.29.7A1.23,1.23,0,0,1,71.39,36.54Z"/><path class="cls-6" d="M76.38,38V34.54a1.4,1.4,0,0,0-.3-1,1.21,1.21,0,0,0-.93-.32,1.53,1.53,0,0,0-1.23.46,2.32,2.32,0,0,0-.39,1.5V38h-.81V30.4h.81v2.3a5,5,0,0,1,0,.69h0a1.65,1.65,0,0,1,.68-.61,2.22,2.22,0,0,1,1-.22A2.06,2.06,0,0,1,76.7,33a2,2,0,0,1,.49,1.48V38Z"/><path class="cls-6" d="M82.14,38,82,37.24h0a2.25,2.25,0,0,1-.8.68,2.44,2.44,0,0,1-1,.18,1.79,1.79,0,0,1-1.25-.41,1.5,1.5,0,0,1-.45-1.17q0-1.62,2.59-1.7l.91,0v-.33a1.36,1.36,0,0,0-.27-.93,1.11,1.11,0,0,0-.87-.3,3.53,3.53,0,0,0-1.51.41L79.05,33a3.83,3.83,0,0,1,.87-.34,3.74,3.74,0,0,1,.94-.12,2,2,0,0,1,1.42.42,1.77,1.77,0,0,1,.46,1.36V38Zm-1.83-.57A1.64,1.64,0,0,0,81.5,37a1.54,1.54,0,0,0,.43-1.16v-.48l-.81,0a3,3,0,0,0-1.39.3.91.91,0,0,0-.43.83.84.84,0,0,0,.27.67A1.11,1.11,0,0,0,80.31,37.43Z"/><path class="cls-6" d="M86.85,32.55a3.17,3.17,0,0,1,.64.06l-.11.75a2.76,2.76,0,0,0-.59-.07,1.43,1.43,0,0,0-1.11.53,1.92,1.92,0,0,0-.46,1.31V38h-.81V32.65h.67l.09,1h0a2.36,2.36,0,0,1,.72-.81A1.61,1.61,0,0,1,86.85,32.55Z"/><path class="cls-6" d="M90.76,38.1a2.46,2.46,0,0,1-1.87-.72,2.8,2.8,0,0,1-.69-2,3.1,3.1,0,0,1,.64-2.06,2.12,2.12,0,0,1,1.71-.76,2,2,0,0,1,1.59.66A2.54,2.54,0,0,1,92.72,35v.51H89a2.12,2.12,0,0,0,.48,1.43,1.65,1.65,0,0,0,1.27.49A4.31,4.31,0,0,0,92.49,37v.72a4.31,4.31,0,0,1-.81.27A4.57,4.57,0,0,1,90.76,38.1Zm-.22-4.87a1.32,1.32,0,0,0-1,.42,1.94,1.94,0,0,0-.45,1.16h2.8a1.78,1.78,0,0,0-.34-1.17A1.2,1.2,0,0,0,90.54,33.23Z"/><path class="cls-6" d="M100,38l-.16-.76h0a2.25,2.25,0,0,1-.8.68,2.44,2.44,0,0,1-1,.18,1.79,1.79,0,0,1-1.25-.41,1.5,1.5,0,0,1-.45-1.17q0-1.62,2.59-1.7l.91,0v-.33a1.36,1.36,0,0,0-.27-.93,1.11,1.11,0,0,0-.87-.3,3.53,3.53,0,0,0-1.51.41L96.9,33a3.83,3.83,0,0,1,.87-.34,3.74,3.74,0,0,1,.94-.12,2,2,0,0,1,1.42.42,1.77,1.77,0,0,1,.46,1.36V38Zm-1.83-.57A1.64,1.64,0,0,0,99.35,37a1.54,1.54,0,0,0,.43-1.16v-.48l-.81,0a3,3,0,0,0-1.39.3.91.91,0,0,0-.43.83.84.84,0,0,0,.27.67A1.11,1.11,0,0,0,98.16,37.43Z"/><path class="cls-6" d="M104,37.43a2.67,2.67,0,0,0,.42,0l.32-.07V38a1.48,1.48,0,0,1-.39.1,2.9,2.9,0,0,1-.46,0q-1.55,0-1.55-1.64V33.28h-.77v-.39l.77-.34.34-1.14h.47v1.24h1.55v.63h-1.55v3.15a1.08,1.08,0,0,0,.23.74A.8.8,0,0,0,104,37.43Z"/><path class="cls-6" d="M113,35.32a3,3,0,0,1-.66,2,2.32,2.32,0,0,1-1.82.73,2.41,2.41,0,0,1-1.27-.34,2.22,2.22,0,0,1-.86-1,3.37,3.37,0,0,1-.3-1.47,3,3,0,0,1,.65-2,2.31,2.31,0,0,1,1.82-.73,2.26,2.26,0,0,1,1.78.75A2.94,2.94,0,0,1,113,35.32Zm-4.08,0a2.54,2.54,0,0,0,.41,1.56,1.63,1.63,0,0,0,2.41,0,2.53,2.53,0,0,0,.41-1.56,2.49,2.49,0,0,0-.41-1.55,1.45,1.45,0,0,0-1.22-.53,1.43,1.43,0,0,0-1.2.52A2.52,2.52,0,0,0,108.93,35.32Z"/><path class="cls-6" d="M115.19,32.65v3.47a1.4,1.4,0,0,0,.3,1,1.21,1.21,0,0,0,.93.32,1.52,1.52,0,0,0,1.23-.46,2.32,2.32,0,0,0,.39-1.5V32.65h.81V38h-.67l-.12-.72h0a1.62,1.62,0,0,1-.69.61,2.32,2.32,0,0,1-1,.21,2,2,0,0,1-1.46-.46,2,2,0,0,1-.49-1.48v-3.5Z"/><path class="cls-6" d="M123,32.55a3.17,3.17,0,0,1,.64.06l-.11.75a2.76,2.76,0,0,0-.59-.07,1.43,1.43,0,0,0-1.11.53,1.92,1.92,0,0,0-.46,1.31V38h-.81V32.65h.67l.09,1h0a2.36,2.36,0,0,1,.72-.81A1.61,1.61,0,0,1,123,32.55Z"/><path class="cls-6" d="M134.07,38V34.52a1.45,1.45,0,0,0-.27-1,1.06,1.06,0,0,0-.85-.32,1.37,1.37,0,0,0-1.12.43,2.07,2.07,0,0,0-.36,1.34v3h-.81V34.52a1.45,1.45,0,0,0-.27-1,1.06,1.06,0,0,0-.85-.32,1.32,1.32,0,0,0-1.12.46,2.47,2.47,0,0,0-.35,1.5V38h-.81V32.65h.66l.13.73h0a1.59,1.59,0,0,1,.65-.61,2,2,0,0,1,.94-.22,1.59,1.59,0,0,1,1.64.91h0a1.71,1.71,0,0,1,.69-.66,2.15,2.15,0,0,1,1-.24,1.81,1.81,0,0,1,1.36.47,2.09,2.09,0,0,1,.45,1.49V38Z"/><path class="cls-6" d="M138.81,38.1a2.46,2.46,0,0,1-1.87-.72,2.8,2.8,0,0,1-.69-2,3.1,3.1,0,0,1,.64-2.06,2.12,2.12,0,0,1,1.71-.76,2,2,0,0,1,1.59.66,2.54,2.54,0,0,1,.59,1.75v.51h-3.69a2.12,2.12,0,0,0,.48,1.43,1.65,1.65,0,0,0,1.27.49,4.31,4.31,0,0,0,1.71-.36v.72a4.31,4.31,0,0,1-.81.27A4.57,4.57,0,0,1,138.81,38.1Zm-.22-4.87a1.32,1.32,0,0,0-1,.42,1.94,1.94,0,0,0-.45,1.16h2.8a1.78,1.78,0,0,0-.34-1.17A1.2,1.2,0,0,0,138.59,33.23Z"/><path class="cls-6" d="M144.42,38.1a2.46,2.46,0,0,1-1.87-.72,2.8,2.8,0,0,1-.69-2,3.1,3.1,0,0,1,.64-2.06,2.12,2.12,0,0,1,1.71-.76,2,2,0,0,1,1.59.66,2.54,2.54,0,0,1,.59,1.75v.51H142.7a2.12,2.12,0,0,0,.48,1.43,1.65,1.65,0,0,0,1.27.49,4.31,4.31,0,0,0,1.71-.36v.72a4.31,4.31,0,0,1-.81.27A4.57,4.57,0,0,1,144.42,38.1Zm-.22-4.87a1.32,1.32,0,0,0-1,.42,1.94,1.94,0,0,0-.45,1.16h2.8a1.78,1.78,0,0,0-.34-1.17A1.2,1.2,0,0,0,144.2,33.23Z"/><path class="cls-6" d="M149.5,37.43a2.67,2.67,0,0,0,.42,0l.32-.07V38a1.48,1.48,0,0,1-.39.1,2.9,2.9,0,0,1-.46,0q-1.55,0-1.55-1.64V33.28h-.77v-.39l.77-.34.34-1.14h.47v1.24h1.55v.63h-1.55v3.15a1.08,1.08,0,0,0,.23.74A.8.8,0,0,0,149.5,37.43Z"/><path class="cls-6" d="M151.23,31.2a.54.54,0,0,1,.14-.41.51.51,0,0,1,.68,0,.53.53,0,0,1,.14.41.54.54,0,0,1-.14.41.5.5,0,0,1-.68,0A.55.55,0,0,1,151.23,31.2Zm.88,6.8h-.81V32.65h.81Z"/><path class="cls-6" d="M157.49,38V34.54a1.4,1.4,0,0,0-.3-1,1.21,1.21,0,0,0-.93-.32,1.54,1.54,0,0,0-1.23.45,2.29,2.29,0,0,0-.39,1.5V38h-.81V32.65h.66l.13.73h0a1.66,1.66,0,0,1,.7-.61,2.27,2.27,0,0,1,1-.22,2,2,0,0,1,1.46.47,2,2,0,0,1,.49,1.49V38Z"/><path class="cls-6" d="M164.35,32.65v.51l-1,.12a1.74,1.74,0,0,1,.35,1.07,1.58,1.58,0,0,1-.54,1.25,2.17,2.17,0,0,1-1.47.47,2.47,2.47,0,0,1-.45,0,.8.8,0,0,0-.52.69.35.35,0,0,0,.18.32,1.32,1.32,0,0,0,.62.1h.95a2.12,2.12,0,0,1,1.34.37,1.27,1.27,0,0,1,.47,1.06,1.52,1.52,0,0,1-.71,1.35,3.81,3.81,0,0,1-2.08.47,2.84,2.84,0,0,1-1.62-.39,1.26,1.26,0,0,1-.57-1.1,1.24,1.24,0,0,1,.31-.84,1.59,1.59,0,0,1,.88-.48.85.85,0,0,1-.34-.29.76.76,0,0,1-.14-.45.86.86,0,0,1,.16-.51,1.64,1.64,0,0,1,.49-.42,1.44,1.44,0,0,1-.68-.58,1.71,1.71,0,0,1-.26-.94,1.73,1.73,0,0,1,.53-1.35,2.15,2.15,0,0,1,1.49-.48,2.72,2.72,0,0,1,.76.1Zm-4.27,6.25a.73.73,0,0,0,.37.66,2,2,0,0,0,1,.22,2.93,2.93,0,0,0,1.51-.31.93.93,0,0,0,.49-.83.65.65,0,0,0-.27-.6,2.09,2.09,0,0,0-1-.17h-1a1.28,1.28,0,0,0-.86.26A.94.94,0,0,0,160.08,38.9Zm.44-4.54a1.09,1.09,0,0,0,.32.85,1.27,1.27,0,0,0,.88.29,1,1,0,0,0,1.19-1.15,1.06,1.06,0,0,0-1.2-1.21,1.19,1.19,0,0,0-.88.31A1.24,1.24,0,0,0,160.52,34.36Z"/><path class="cls-6" d="M169.77,37.43a2.67,2.67,0,0,0,.42,0l.32-.07V38a1.48,1.48,0,0,1-.39.1,2.9,2.9,0,0,1-.46,0q-1.55,0-1.55-1.64V33.28h-.77v-.39l.77-.34.34-1.14h.47v1.24h1.55v.63h-1.55v3.15a1.08,1.08,0,0,0,.23.74A.8.8,0,0,0,169.77,37.43Z"/><path class="cls-6" d="M176.19,35.32a3,3,0,0,1-.66,2,2.32,2.32,0,0,1-1.82.73,2.41,2.41,0,0,1-1.27-.34,2.22,2.22,0,0,1-.86-1,3.37,3.37,0,0,1-.3-1.47,3,3,0,0,1,.65-2,2.31,2.31,0,0,1,1.82-.73,2.26,2.26,0,0,1,1.78.75A2.94,2.94,0,0,1,176.19,35.32Zm-4.08,0a2.54,2.54,0,0,0,.41,1.56,1.63,1.63,0,0,0,2.41,0,2.53,2.53,0,0,0,.41-1.56,2.49,2.49,0,0,0-.41-1.55,1.45,1.45,0,0,0-1.22-.53,1.43,1.43,0,0,0-1.2.52A2.52,2.52,0,0,0,172.12,35.32Z"/><path class="cls-6" d="M184.44,38V34.52a1.45,1.45,0,0,0-.27-1,1.06,1.06,0,0,0-.85-.32,1.37,1.37,0,0,0-1.12.43,2.07,2.07,0,0,0-.36,1.34v3H181V34.52a1.45,1.45,0,0,0-.27-1,1.06,1.06,0,0,0-.85-.32,1.32,1.32,0,0,0-1.12.46,2.47,2.47,0,0,0-.35,1.5V38h-.81V32.65h.66l.13.73h0a1.59,1.59,0,0,1,.65-.61,2,2,0,0,1,.94-.22,1.59,1.59,0,0,1,1.64.91h0a1.71,1.71,0,0,1,.69-.66,2.15,2.15,0,0,1,1-.24,1.81,1.81,0,0,1,1.36.47,2.09,2.09,0,0,1,.45,1.49V38Z"/><path class="cls-6" d="M191.54,35.32a3,3,0,0,1-.66,2,2.32,2.32,0,0,1-1.82.73,2.41,2.41,0,0,1-1.27-.34,2.22,2.22,0,0,1-.86-1,3.37,3.37,0,0,1-.3-1.47,3,3,0,0,1,.65-2,2.31,2.31,0,0,1,1.82-.73,2.26,2.26,0,0,1,1.78.75A2.94,2.94,0,0,1,191.54,35.32Zm-4.08,0a2.54,2.54,0,0,0,.41,1.56,1.63,1.63,0,0,0,2.41,0,2.53,2.53,0,0,0,.41-1.56,2.49,2.49,0,0,0-.41-1.55,1.45,1.45,0,0,0-1.22-.53,1.43,1.43,0,0,0-1.2.52A2.52,2.52,0,0,0,187.46,35.32Z"/><path class="cls-6" d="M195.4,32.55a3.17,3.17,0,0,1,.64.06l-.11.75a2.76,2.76,0,0,0-.59-.07,1.43,1.43,0,0,0-1.11.53,1.92,1.92,0,0,0-.46,1.31V38H193V32.65h.67l.09,1h0a2.36,2.36,0,0,1,.72-.81A1.61,1.61,0,0,1,195.4,32.55Z"/><path class="cls-6" d="M199.48,32.55a3.17,3.17,0,0,1,.64.06l-.11.75a2.76,2.76,0,0,0-.59-.07,1.43,1.43,0,0,0-1.11.53,1.92,1.92,0,0,0-.46,1.31V38H197V32.65h.67l.09,1h0a2.36,2.36,0,0,1,.72-.81A1.61,1.61,0,0,1,199.48,32.55Z"/><path class="cls-6" d="M205.74,35.32a3,3,0,0,1-.66,2,2.32,2.32,0,0,1-1.82.73,2.41,2.41,0,0,1-1.27-.34,2.22,2.22,0,0,1-.86-1,3.37,3.37,0,0,1-.3-1.47,3,3,0,0,1,.65-2,2.31,2.31,0,0,1,1.82-.73,2.26,2.26,0,0,1,1.78.75A2.94,2.94,0,0,1,205.74,35.32Zm-4.08,0a2.54,2.54,0,0,0,.41,1.56,1.63,1.63,0,0,0,2.41,0,2.53,2.53,0,0,0,.41-1.56,2.49,2.49,0,0,0-.41-1.55,1.45,1.45,0,0,0-1.22-.53,1.43,1.43,0,0,0-1.2.52A2.52,2.52,0,0,0,201.66,35.32Z"/><path class="cls-6" d="M211.53,38l-1-3.14q-.09-.29-.35-1.31h0q-.2.85-.34,1.32l-1,3.13h-.94l-1.46-5.35h.85l.79,3.07a12.41,12.41,0,0,1,.31,1.42h0q.05-.28.17-.72t.21-.7l1-3.07h.88l1,3.07a10.37,10.37,0,0,1,.37,1.41h0a5.18,5.18,0,0,1,.1-.54q.09-.37,1-3.94H214L212.49,38Z"/><path class="cls-6" d="M214.82,37.48q0-.66.59-.66a.56.56,0,0,1,.44.17.71.71,0,0,1,.15.49.7.7,0,0,1-.16.49.55.55,0,0,1-.43.17A.59.59,0,0,1,215,38,.66.66,0,0,1,214.82,37.48Zm.85-1.45h-.51l-.25-5.17h1Z"/><path class="cls-6" d="M27.85,163.07,27,160.8H24.1l-.88,2.27h-.84l2.82-7.17h.7l2.81,7.17Zm-1.15-3-.83-2.21q-.16-.42-.33-1a9.33,9.33,0,0,1-.31,1l-.84,2.21Z"/><path class="cls-6" d="M33.94,163.07l-1-3.14q-.09-.29-.35-1.31h0q-.2.85-.34,1.32l-1,3.13h-.94l-1.46-5.35h.85l.79,3.07a12.41,12.41,0,0,1,.31,1.42h0q.05-.28.17-.72t.21-.7l1-3.07h.88l1,3.07a10.37,10.37,0,0,1,.37,1.41h0a5.18,5.18,0,0,1,.1-.54q.09-.37,1-3.94h.84l-1.48,5.35Z"/><path class="cls-6" d="M39.61,163.17a2.46,2.46,0,0,1-1.87-.72,2.8,2.8,0,0,1-.69-2,3.1,3.1,0,0,1,.64-2.06,2.12,2.12,0,0,1,1.71-.76,2,2,0,0,1,1.59.66,2.54,2.54,0,0,1,.59,1.75v.51H37.89a2.12,2.12,0,0,0,.48,1.43,1.65,1.65,0,0,0,1.27.49,4.31,4.31,0,0,0,1.71-.36v.72a4.31,4.31,0,0,1-.81.27A4.57,4.57,0,0,1,39.61,163.17Zm-.22-4.87a1.32,1.32,0,0,0-1,.42,1.94,1.94,0,0,0-.45,1.16h2.8a1.78,1.78,0,0,0-.34-1.17A1.2,1.2,0,0,0,39.39,158.3Z"/><path class="cls-6" d="M46.41,161.61a1.34,1.34,0,0,1-.56,1.15,2.62,2.62,0,0,1-1.56.41,3.4,3.4,0,0,1-1.66-.34v-.75a4,4,0,0,0,.83.31,3.46,3.46,0,0,0,.85.11,1.93,1.93,0,0,0,1-.2.7.7,0,0,0,.07-1.15,4.27,4.27,0,0,0-1.06-.52,5.74,5.74,0,0,1-1.06-.49,1.45,1.45,0,0,1-.47-.47,1.23,1.23,0,0,1-.15-.63,1.2,1.2,0,0,1,.53-1,2.48,2.48,0,0,1,1.46-.38,4.27,4.27,0,0,1,1.69.35l-.29.66a3.88,3.88,0,0,0-1.46-.33,1.68,1.68,0,0,0-.87.18.56.56,0,0,0-.29.5.61.61,0,0,0,.11.37,1.09,1.09,0,0,0,.35.29,7.83,7.83,0,0,0,.94.4,3.5,3.5,0,0,1,1.29.7A1.23,1.23,0,0,1,46.41,161.61Z"/><path class="cls-6" d="M52.35,160.39a3,3,0,0,1-.66,2,2.32,2.32,0,0,1-1.82.73,2.41,2.41,0,0,1-1.27-.34,2.22,2.22,0,0,1-.86-1,3.37,3.37,0,0,1-.3-1.47,3,3,0,0,1,.65-2,2.31,2.31,0,0,1,1.82-.73,2.26,2.26,0,0,1,1.78.75A2.94,2.94,0,0,1,52.35,160.39Zm-4.08,0a2.54,2.54,0,0,0,.41,1.56,1.63,1.63,0,0,0,2.41,0,2.53,2.53,0,0,0,.41-1.56,2.49,2.49,0,0,0-.41-1.55,1.45,1.45,0,0,0-1.22-.53,1.43,1.43,0,0,0-1.2.52A2.52,2.52,0,0,0,48.27,160.39Z"/><path class="cls-6" d="M60.59,163.07v-3.48a1.45,1.45,0,0,0-.27-1,1.06,1.06,0,0,0-.85-.32,1.37,1.37,0,0,0-1.12.43,2.07,2.07,0,0,0-.36,1.34v3h-.81v-3.48a1.45,1.45,0,0,0-.27-1,1.06,1.06,0,0,0-.85-.32,1.32,1.32,0,0,0-1.12.46,2.47,2.47,0,0,0-.35,1.5v2.81h-.81v-5.35h.66l.13.73h0a1.59,1.59,0,0,1,.65-.61,2,2,0,0,1,.94-.22,1.59,1.59,0,0,1,1.64.91h0a1.71,1.71,0,0,1,.69-.66,2.15,2.15,0,0,1,1-.24,1.81,1.81,0,0,1,1.36.47,2.09,2.09,0,0,1,.45,1.49v3.49Z"/><path class="cls-6" d="M65.33,163.17a2.46,2.46,0,0,1-1.87-.72,2.8,2.8,0,0,1-.69-2,3.1,3.1,0,0,1,.64-2.06,2.12,2.12,0,0,1,1.71-.76,2,2,0,0,1,1.59.66A2.54,2.54,0,0,1,67.3,160v.51H63.62a2.12,2.12,0,0,0,.48,1.43,1.65,1.65,0,0,0,1.27.49,4.31,4.31,0,0,0,1.71-.36v.72a4.31,4.31,0,0,1-.81.27A4.57,4.57,0,0,1,65.33,163.17Zm-.22-4.87a1.32,1.32,0,0,0-1,.42,1.94,1.94,0,0,0-.45,1.16h2.8a1.78,1.78,0,0,0-.34-1.17A1.2,1.2,0,0,0,65.11,158.3Z"/><path class="cls-6" d="M69.53,161.91l.07.11q-.13.49-.37,1.14t-.5,1.2h-.61q.13-.51.29-1.25t.22-1.2Z"/><path class="cls-6" d="M74.54,163.07h-.81v-7.6h.81Z"/><path class="cls-6" d="M80.88,160.39a3,3,0,0,1-.66,2,2.32,2.32,0,0,1-1.82.73,2.41,2.41,0,0,1-1.27-.34,2.22,2.22,0,0,1-.86-1,3.37,3.37,0,0,1-.3-1.47,3,3,0,0,1,.65-2,2.31,2.31,0,0,1,1.82-.73,2.26,2.26,0,0,1,1.78.75A2.94,2.94,0,0,1,80.88,160.39Zm-4.08,0a2.54,2.54,0,0,0,.41,1.56,1.63,1.63,0,0,0,2.41,0,2.53,2.53,0,0,0,.41-1.56,2.49,2.49,0,0,0-.41-1.55,1.45,1.45,0,0,0-1.22-.53,1.43,1.43,0,0,0-1.2.52A2.52,2.52,0,0,0,76.8,160.39Z"/><path class="cls-6" d="M86.92,160.39a3,3,0,0,1-.66,2,2.32,2.32,0,0,1-1.82.73,2.41,2.41,0,0,1-1.27-.34,2.22,2.22,0,0,1-.86-1,3.37,3.37,0,0,1-.3-1.47,3,3,0,0,1,.65-2,2.31,2.31,0,0,1,1.82-.73,2.26,2.26,0,0,1,1.78.75A2.94,2.94,0,0,1,86.92,160.39Zm-4.08,0a2.54,2.54,0,0,0,.41,1.56,1.63,1.63,0,0,0,2.41,0,2.53,2.53,0,0,0,.41-1.56,2.49,2.49,0,0,0-.41-1.55,1.45,1.45,0,0,0-1.22-.53,1.43,1.43,0,0,0-1.2.52A2.52,2.52,0,0,0,82.84,160.39Z"/><path class="cls-6" d="M89.14,160.33a9.5,9.5,0,0,1,.64-.78l1.73-1.83h1L90.31,160l2.32,3.07h-1l-1.89-2.53-.61.53v2h-.8v-7.6h.8v4q0,.27,0,.83Z"/><path class="cls-6" d="M93.52,156.27a.54.54,0,0,1,.14-.41.51.51,0,0,1,.68,0,.53.53,0,0,1,.14.41.54.54,0,0,1-.14.41.5.5,0,0,1-.68,0A.55.55,0,0,1,93.52,156.27Zm.88,6.8h-.81v-5.35h.81Z"/><path class="cls-6" d="M99.78,163.07v-3.46a1.4,1.4,0,0,0-.3-1,1.21,1.21,0,0,0-.93-.32,1.54,1.54,0,0,0-1.23.45,2.29,2.29,0,0,0-.39,1.5v2.81h-.81v-5.35h.66l.13.73h0a1.66,1.66,0,0,1,.7-.61,2.27,2.27,0,0,1,1-.22,2,2,0,0,1,1.46.47,2,2,0,0,1,.49,1.49v3.49Z"/><path class="cls-6" d="M106.64,157.72v.51l-1,.12a1.74,1.74,0,0,1,.35,1.07,1.58,1.58,0,0,1-.54,1.25,2.17,2.17,0,0,1-1.47.47,2.47,2.47,0,0,1-.45,0,.8.8,0,0,0-.52.69.35.35,0,0,0,.18.32,1.32,1.32,0,0,0,.62.1h.95a2.12,2.12,0,0,1,1.34.37,1.27,1.27,0,0,1,.47,1.06,1.52,1.52,0,0,1-.71,1.35,3.81,3.81,0,0,1-2.08.47,2.84,2.84,0,0,1-1.62-.39,1.26,1.26,0,0,1-.57-1.1,1.24,1.24,0,0,1,.31-.84,1.59,1.59,0,0,1,.88-.48.85.85,0,0,1-.34-.29.76.76,0,0,1-.14-.45.86.86,0,0,1,.16-.51,1.64,1.64,0,0,1,.49-.42,1.44,1.44,0,0,1-.68-.58,1.71,1.71,0,0,1-.26-.94,1.73,1.73,0,0,1,.53-1.35,2.15,2.15,0,0,1,1.49-.48,2.72,2.72,0,0,1,.76.1ZM102.37,164a.73.73,0,0,0,.37.66,2,2,0,0,0,1,.22,2.93,2.93,0,0,0,1.51-.31.93.93,0,0,0,.49-.83.65.65,0,0,0-.27-.6,2.09,2.09,0,0,0-1-.17h-1a1.28,1.28,0,0,0-.86.26A.94.94,0,0,0,102.37,164Zm.44-4.54a1.09,1.09,0,0,0,.32.85,1.27,1.27,0,0,0,.88.29,1,1,0,0,0,1.19-1.15,1.06,1.06,0,0,0-1.2-1.21,1.19,1.19,0,0,0-.88.31A1.24,1.24,0,0,0,102.81,159.43Z"/><path class="cls-6" d="M112.75,158.35h-1.36v4.72h-.81v-4.72h-1V158l1-.29v-.3q0-2,1.72-2a3.55,3.55,0,0,1,1,.17l-.21.65a2.68,2.68,0,0,0-.8-.15.78.78,0,0,0-.68.31,1.7,1.7,0,0,0-.22,1v.35h1.36Z"/><path class="cls-6" d="M118.34,160.39a3,3,0,0,1-.66,2,2.32,2.32,0,0,1-1.82.73,2.41,2.41,0,0,1-1.27-.34,2.22,2.22,0,0,1-.86-1,3.37,3.37,0,0,1-.3-1.47,3,3,0,0,1,.65-2,2.31,2.31,0,0,1,1.82-.73,2.26,2.26,0,0,1,1.78.75A2.94,2.94,0,0,1,118.34,160.39Zm-4.08,0a2.54,2.54,0,0,0,.41,1.56,1.63,1.63,0,0,0,2.41,0,2.53,2.53,0,0,0,.41-1.56,2.49,2.49,0,0,0-.41-1.55,1.45,1.45,0,0,0-1.22-.53,1.43,1.43,0,0,0-1.2.52A2.52,2.52,0,0,0,114.27,160.39Z"/><path class="cls-6" d="M122.2,157.62a3.17,3.17,0,0,1,.64.06l-.11.75a2.76,2.76,0,0,0-.59-.07,1.43,1.43,0,0,0-1.11.53,1.92,1.92,0,0,0-.46,1.31v2.87h-.81v-5.35h.67l.09,1h0a2.36,2.36,0,0,1,.72-.81A1.61,1.61,0,0,1,122.2,157.62Z"/><path class="cls-6" d="M128.22,163.07l-1-3.14q-.09-.29-.35-1.31h0q-.2.85-.34,1.32l-1,3.13h-.94l-1.46-5.35h.85l.79,3.07a12.41,12.41,0,0,1,.31,1.42h0q.05-.28.17-.72t.21-.7l1-3.07h.88l1,3.07a10.37,10.37,0,0,1,.37,1.41h0a5.18,5.18,0,0,1,.1-.54q.09-.37,1-3.94h.84l-1.48,5.35Z"/><path class="cls-6" d="M134.91,163.07l-.16-.76h0a2.25,2.25,0,0,1-.8.68,2.44,2.44,0,0,1-1,.18,1.79,1.79,0,0,1-1.25-.41,1.5,1.5,0,0,1-.45-1.17q0-1.62,2.59-1.7l.91,0v-.33a1.36,1.36,0,0,0-.27-.93,1.11,1.11,0,0,0-.87-.3,3.53,3.53,0,0,0-1.51.41l-.25-.62a3.83,3.83,0,0,1,.87-.34,3.74,3.74,0,0,1,.94-.12,2,2,0,0,1,1.42.42,1.77,1.77,0,0,1,.46,1.36v3.65Zm-1.83-.57a1.64,1.64,0,0,0,1.19-.42,1.54,1.54,0,0,0,.43-1.16v-.48l-.81,0a3,3,0,0,0-1.39.3.91.91,0,0,0-.43.83.84.84,0,0,0,.27.67A1.11,1.11,0,0,0,133.08,162.5Z"/><path class="cls-6" d="M139.63,157.62a3.17,3.17,0,0,1,.64.06l-.11.75a2.76,2.76,0,0,0-.59-.07,1.43,1.43,0,0,0-1.11.53,1.92,1.92,0,0,0-.46,1.31v2.87h-.81v-5.35h.67l.09,1h0a2.36,2.36,0,0,1,.72-.81A1.61,1.61,0,0,1,139.63,157.62Z"/><path class="cls-6" d="M144.91,162.35h0a1.9,1.9,0,0,1-1.68.82,2,2,0,0,1-1.63-.72,3.16,3.16,0,0,1-.58-2,3.21,3.21,0,0,1,.59-2.06,2,2,0,0,1,1.63-.73,2,2,0,0,1,1.67.79h.06l0-.39,0-.38v-2.18h.81v7.6H145Zm-1.62.14a1.48,1.48,0,0,0,1.2-.45,2.28,2.28,0,0,0,.37-1.46v-.17a2.68,2.68,0,0,0-.38-1.62,1.44,1.44,0,0,0-1.21-.49,1.24,1.24,0,0,0-1.09.55,2.75,2.75,0,0,0-.38,1.56,2.64,2.64,0,0,0,.38,1.55A1.27,1.27,0,0,0,143.29,162.49Z"/><path class="cls-6" d="M151.72,162.5a2.67,2.67,0,0,0,.42,0l.32-.07V163a1.48,1.48,0,0,1-.39.1,2.9,2.9,0,0,1-.46,0q-1.55,0-1.55-1.64v-3.18h-.77V158l.77-.34.34-1.14h.47v1.24h1.55v.63h-1.55v3.15a1.08,1.08,0,0,0,.23.74A.8.8,0,0,0,151.72,162.5Z"/><path class="cls-6" d="M158.14,160.39a3,3,0,0,1-.66,2,2.32,2.32,0,0,1-1.82.73,2.41,2.41,0,0,1-1.27-.34,2.22,2.22,0,0,1-.86-1,3.37,3.37,0,0,1-.3-1.47,3,3,0,0,1,.65-2,2.31,2.31,0,0,1,1.82-.73,2.26,2.26,0,0,1,1.78.75A2.94,2.94,0,0,1,158.14,160.39Zm-4.08,0a2.54,2.54,0,0,0,.41,1.56,1.63,1.63,0,0,0,2.41,0,2.53,2.53,0,0,0,.41-1.56,2.49,2.49,0,0,0-.41-1.55,1.45,1.45,0,0,0-1.22-.53,1.43,1.43,0,0,0-1.2.52A2.52,2.52,0,0,0,154.07,160.39Z"/><path class="cls-6" d="M162.09,156.27a.54.54,0,0,1,.14-.41.51.51,0,0,1,.68,0,.53.53,0,0,1,.14.41.54.54,0,0,1-.14.41.5.5,0,0,1-.68,0A.55.55,0,0,1,162.09,156.27Zm.88,6.8h-.81v-5.35H163Z"/><path class="cls-6" d="M166.42,162.5a2.67,2.67,0,0,0,.42,0l.32-.07V163a1.48,1.48,0,0,1-.39.1,2.9,2.9,0,0,1-.46,0q-1.55,0-1.55-1.64v-3.18H164V158l.77-.34.34-1.14h.47v1.24h1.55v.63h-1.55v3.15a1.08,1.08,0,0,0,.23.74A.8.8,0,0,0,166.42,162.5Z"/><path class="cls-6" d="M170.7,158.24q0-.66.58-.66t.6.66a.68.68,0,0,1-.16.49.64.64,0,0,1-.85,0A.67.67,0,0,1,170.7,158.24Zm0,4.31a.73.73,0,0,1,.15-.5.54.54,0,0,1,.43-.17.58.58,0,0,1,.44.17.7.7,0,0,1,.16.5.68.68,0,0,1-.16.49.64.64,0,0,1-.85,0A.67.67,0,0,1,170.7,162.55Z"/><path class="cls-6" d="M175.18,160.33a7.35,7.35,0,0,1-.38,2.39,5.73,5.73,0,0,1-1.09,1.93h-.78a7,7,0,0,0,1-2,7.43,7.43,0,0,0,.36-2.29A7.7,7.7,0,0,0,174,158a6.88,6.88,0,0,0-1.06-2.07h.79a6,6,0,0,1,1.09,2A7.61,7.61,0,0,1,175.18,160.33Z"/><rect class="cls-7" width="245.11" height="211"/></g></g></svg>