<svg xmlns="http://www.w3.org/2000/svg" viewBox="0 0 245.11 211"><defs><style>.cls-1,.cls-7{fill:#fff;}.cls-1{stroke:#cbcbcb;stroke-miterlimit:10;}.cls-2{fill:#3b3e41;}.cls-3{fill:#ff6e56;}.cls-4{fill:#0380d3;}.cls-5{fill:#27cab4;}.cls-6{fill:#ff9796;}.cls-8{fill:none;}</style></defs><title>roadmunk-visualize</title><g id="Layer_2" data-name="Layer 2"><g id="Layer_1-2" data-name="Layer 1"><rect class="cls-1" x="94.18" y="9.61" width="146.36" height="184.47" rx="7.17" ry="7.17"/><path class="cls-2" d="M114.51,72.65V66.06h1.08v6.59Z"/><path class="cls-2" d="M119.61,72.65h-1.08V67h-1.94v-.92h5V67h-1.94Z"/><path class="cls-2" d="M126.29,72.65h-3.73V66.06h3.73V67h-2.65v1.79h2.48v.9h-2.48v2.07h2.65Z"/><path class="cls-2" d="M130.56,72.65l-1.91-5.51h0q.08,1.23.08,2.3v3.21h-1V66.06h1.52l1.83,5.24h0L133,66.06h1.52v6.59h-1V69.39q0-.49,0-1.28t0-1h0l-2,5.5Z"/><path class="cls-2" d="M140,70.86a1.66,1.66,0,0,1-.64,1.38,2.77,2.77,0,0,1-1.75.5,4.18,4.18,0,0,1-1.83-.35v-1a5,5,0,0,0,1,.33,4.06,4.06,0,0,0,.94.12,1.5,1.5,0,0,0,.94-.24.79.79,0,0,0,.3-.65.82.82,0,0,0-.28-.63,4.2,4.2,0,0,0-1.15-.61,3.05,3.05,0,0,1-1.27-.83,1.77,1.77,0,0,1-.37-1.13,1.58,1.58,0,0,1,.59-1.3A2.43,2.43,0,0,1,138,66a4.62,4.62,0,0,1,1.88.41l-.34.88a4.12,4.12,0,0,0-1.57-.37,1.21,1.21,0,0,0-.79.23.75.75,0,0,0-.27.6.85.85,0,0,0,.11.44,1.1,1.1,0,0,0,.36.34,6.07,6.07,0,0,0,.89.43,4.88,4.88,0,0,1,1.06.56,1.66,1.66,0,0,1,.5.59A1.78,1.78,0,0,1,140,70.86Z"/><path class="cls-2" d="M175,42.47a1.78,1.78,0,0,1-.68,1.48,3,3,0,0,1-1.88.54,4.49,4.49,0,0,1-2-.37V43a5.31,5.31,0,0,0,1,.36,4.33,4.33,0,0,0,1,.13,1.61,1.61,0,0,0,1-.26.85.85,0,0,0,.33-.7.88.88,0,0,0-.3-.67,4.52,4.52,0,0,0-1.24-.65,3.28,3.28,0,0,1-1.36-.89,1.89,1.89,0,0,1-.4-1.21,1.69,1.69,0,0,1,.63-1.39,2.61,2.61,0,0,1,1.69-.51,5,5,0,0,1,2,.44l-.37.94a4.42,4.42,0,0,0-1.68-.4,1.29,1.29,0,0,0-.85.24.8.8,0,0,0-.29.65.91.91,0,0,0,.12.47,1.19,1.19,0,0,0,.38.37,6.45,6.45,0,0,0,1,.46,5.25,5.25,0,0,1,1.14.61,1.78,1.78,0,0,1,.53.63A1.91,1.91,0,0,1,175,42.47Z"/><path class="cls-2" d="M178.25,43.57a2.77,2.77,0,0,0,.83-.13v.86a2.25,2.25,0,0,1-.49.14,3.37,3.37,0,0,1-.62.06q-1.62,0-1.62-1.7V39.9h-.73v-.5l.78-.42.39-1.13h.7V39H179v.86H177.5v2.86a.8.8,0,0,0,.21.61A.75.75,0,0,0,178.25,43.57Z"/><path class="cls-2" d="M183.5,44.39l-.23-.75h0a2.2,2.2,0,0,1-.78.67,2.47,2.47,0,0,1-1,.18,1.71,1.71,0,0,1-1.23-.43,1.59,1.59,0,0,1-.44-1.2,1.42,1.42,0,0,1,.61-1.25,3.55,3.55,0,0,1,1.87-.46l.92,0v-.29a1.08,1.08,0,0,0-.24-.77,1,1,0,0,0-.74-.25,2.57,2.57,0,0,0-.79.12,6,6,0,0,0-.73.29l-.37-.81a4,4,0,0,1,1-.35,4.39,4.39,0,0,1,1-.12,2.31,2.31,0,0,1,1.54.45,1.74,1.74,0,0,1,.52,1.4v3.6Zm-1.69-.77a1.41,1.41,0,0,0,1-.35,1.25,1.25,0,0,0,.38-1v-.46l-.69,0a2.36,2.36,0,0,0-1.17.27.82.82,0,0,0-.37.73.71.71,0,0,0,.21.55A.91.91,0,0,0,181.8,43.62Z"/><path class="cls-2" d="M187.89,43.57a2.77,2.77,0,0,0,.83-.13v.86a2.25,2.25,0,0,1-.49.14,3.37,3.37,0,0,1-.62.06q-1.62,0-1.62-1.7V39.9h-.73v-.5l.78-.42.39-1.13h.7V39h1.52v.86h-1.52v2.86a.8.8,0,0,0,.21.61A.75.75,0,0,0,187.89,43.57Z"/><path class="cls-2" d="M193.57,44.39l-.16-.7h-.06a1.62,1.62,0,0,1-.68.59,2.26,2.26,0,0,1-1,.21,2,2,0,0,1-1.45-.48,2,2,0,0,1-.48-1.47V39h1.15v3.3a1.43,1.43,0,0,0,.25.92,1,1,0,0,0,.79.31,1.26,1.26,0,0,0,1.05-.43,2.36,2.36,0,0,0,.34-1.43V39h1.14v5.35Z"/><path class="cls-2" d="M199.68,42.87a1.4,1.4,0,0,1-.57,1.2,2.74,2.74,0,0,1-1.64.42,3.86,3.86,0,0,1-1.72-.32v-1a4.21,4.21,0,0,0,1.76.44q1,0,1.05-.63a.5.5,0,0,0-.12-.34,1.38,1.38,0,0,0-.38-.28,6.59,6.59,0,0,0-.74-.33,3.42,3.42,0,0,1-1.25-.72,1.33,1.33,0,0,1-.33-.93,1.22,1.22,0,0,1,.55-1.07,2.63,2.63,0,0,1,1.51-.38,4.27,4.27,0,0,1,1.79.38l-.37.86a4,4,0,0,0-1.46-.36q-.9,0-.9.51a.52.52,0,0,0,.24.43,5.17,5.17,0,0,0,1,.48,4.66,4.66,0,0,1,1,.47,1.41,1.41,0,0,1,.45.49A1.43,1.43,0,0,1,199.68,42.87Z"/><rect class="cls-3" x="113.64" y="27.7" width="35.89" height="23.51"/><rect class="cls-4" x="113.64" y="84.88" width="35.89" height="23.51"/><rect class="cls-5" x="113.64" y="119.3" width="35.89" height="23.51"/><rect class="cls-6" x="113.64" y="152.04" width="35.89" height="23.07"/><path class="cls-2" d="M170.34,164.74a2.88,2.88,0,0,0,1.89.82c.81,0,1.26-.37,1.26-.93s-.47-.79-1.13-1.06l-1-.43a2.07,2.07,0,0,1-1.46-1.93,2.2,2.2,0,0,1,2.43-2,3.21,3.21,0,0,1,2.24.92l-.66.82a2.34,2.34,0,0,0-1.57-.62c-.69,0-1.13.32-1.13.85s.55.78,1.15,1l1,.41a2,2,0,0,1,1.46,2c0,1.18-1,2.15-2.6,2.15a3.73,3.73,0,0,1-2.6-1.06Z"/><path class="cls-2" d="M178.25,161c1.47,0,2.25,1.06,2.25,2.58a2.75,2.75,0,0,1-.06.6H177a1.56,1.56,0,0,0,1.61,1.54,2.28,2.28,0,0,0,1.26-.4l.43.8a3.43,3.43,0,0,1-1.86.59,2.87,2.87,0,0,1-.18-5.71Zm1.14,2.37c0-.87-.37-1.38-1.11-1.38s-1.2.47-1.31,1.38Z"/><path class="cls-2" d="M184.2,161a2.25,2.25,0,0,1,1.59.63l-.61.81a1.36,1.36,0,0,0-.92-.4c-.87,0-1.48.72-1.48,1.82s.6,1.81,1.45,1.81a1.8,1.8,0,0,0,1.12-.47l.53.81a2.72,2.72,0,0,1-1.78.7,2.59,2.59,0,0,1-2.63-2.85A2.68,2.68,0,0,1,184.2,161Z"/><path class="cls-2" d="M187,161.11h1.27v3.25c0,.9.25,1.23.84,1.23s.8-.22,1.21-.75v-3.72h1.27v5.44h-1l-.1-.8h0a2.22,2.22,0,0,1-1.75.93c-1.16,0-1.67-.79-1.67-2.16Z"/><path class="cls-2" d="M193.32,161.11h1.05l.09,1h0A1.85,1.85,0,0,1,196,161a1.37,1.37,0,0,1,.62.11l-.22,1.11a1.74,1.74,0,0,0-.56-.09c-.43,0-1,.3-1.29,1.12v3.32h-1.27Z"/><path class="cls-2" d="M197.42,159.43a.79.79,0,1,1,.79.72A.73.73,0,0,1,197.42,159.43Zm.14,1.67h1.27v5.44h-1.27Z"/><path class="cls-2" d="M200.76,162.12H200v-1l.84-.05.16-1.48H202v1.48h1.38v1H202v2.59c0,.64.24,1,.76,1a1.56,1.56,0,0,0,.56-.12l.22.94a3.48,3.48,0,0,1-1.11.2c-1.26,0-1.73-.8-1.73-2Z"/><path class="cls-2" d="M205,167.75a1.14,1.14,0,0,0,1.08-.93l.1-.34L204,161.11h1.3l.94,2.67c.15.48.31,1,.48,1.53h0l.41-1.53.82-2.67h1.23l-2,5.68c-.45,1.23-1,2-2.21,2a2.12,2.12,0,0,1-.71-.11l.23-1A1.34,1.34,0,0,0,205,167.75Z"/><path class="cls-2" d="M170.09,127.46h2.44c1.58,0,2.75.55,2.75,2.24s-1.2,2.35-2.75,2.35h-1.15v2.66h-1.29Zm2.33,3.56c1.09,0,1.6-.43,1.6-1.32s-.54-1.21-1.6-1.21h-1V131Z"/><path class="cls-2" d="M176.61,129.26h1.05l.09,1h0a1.85,1.85,0,0,1,1.54-1.1,1.37,1.37,0,0,1,.62.11l-.22,1.11a1.8,1.8,0,0,0-.56-.09c-.43,0-1,.3-1.29,1.12v3.32h-1.27Z"/><path class="cls-2" d="M183,129.13a2.87,2.87,0,1,1-2.58,2.86A2.63,2.63,0,0,1,183,129.13Zm0,4.66c.8,0,1.29-.72,1.29-1.8s-.49-1.82-1.29-1.82-1.27.72-1.27,1.82S182.17,133.79,183,133.79Z"/><path class="cls-2" d="M188.9,129.13a2,2,0,0,1,1.43.6l0-.88v-2h1.27v7.82h-1.05l-.09-.59h0a2.27,2.27,0,0,1-1.54.72c-1.36,0-2.24-1.05-2.24-2.85S187.72,129.13,188.9,129.13Zm.24,4.65a1.47,1.47,0,0,0,1.14-.61v-2.54a1.62,1.62,0,0,0-1.11-.46c-.7,0-1.26.65-1.26,1.79S188.36,133.78,189.15,133.78Z"/><path class="cls-2" d="M193.23,129.26h1.27v3.25c0,.9.25,1.23.84,1.23s.8-.22,1.21-.75v-3.72h1.27v5.44h-1l-.1-.8h0a2.22,2.22,0,0,1-1.75.93c-1.16,0-1.67-.79-1.67-2.16Z"/><path class="cls-2" d="M201.92,129.13a2.24,2.24,0,0,1,1.59.63l-.61.81a1.35,1.35,0,0,0-.92-.4c-.87,0-1.48.72-1.48,1.82s.6,1.8,1.45,1.8a1.79,1.79,0,0,0,1.12-.46l.53.81a2.72,2.72,0,0,1-1.78.7A2.59,2.59,0,0,1,199.2,132,2.68,2.68,0,0,1,201.92,129.13Z"/><path class="cls-2" d="M205,130.27h-.78v-1l.84-.06.16-1.48h1.06v1.48h1.38v1h-1.38v2.59c0,.64.24,1,.76,1a1.56,1.56,0,0,0,.56-.12l.22.94a3.48,3.48,0,0,1-1.11.2c-1.26,0-1.73-.8-1.73-2Z"/><path class="cls-2" d="M169.71,96.83c0-2.34,1.31-3.72,3.2-3.72s3.19,1.38,3.19,3.72-1.31,3.79-3.19,3.79S169.71,99.18,169.71,96.83Zm5.07,0c0-1.62-.74-2.6-1.87-2.6s-1.88,1-1.88,2.6.74,2.67,1.88,2.67S174.78,98.46,174.78,96.83Z"/><path class="cls-2" d="M178.81,100.93v1.71h-1.27V95h1.05l.09.58h0a2.65,2.65,0,0,1,1.64-.71c1.35,0,2.14,1.09,2.14,2.77,0,1.86-1.12,2.94-2.33,2.94a2.21,2.21,0,0,1-1.4-.6Zm1.1-1.36c.72,0,1.27-.64,1.27-1.87S180.82,96,180,96a1.74,1.74,0,0,0-1.2.61v2.54A1.71,1.71,0,0,0,179.9,99.57Z"/><path class="cls-2" d="M186,94.92c1.47,0,2.25,1.06,2.25,2.58a2.75,2.75,0,0,1-.06.6h-3.46a1.56,1.56,0,0,0,1.61,1.54,2.28,2.28,0,0,0,1.26-.4l.43.8a3.43,3.43,0,0,1-1.86.59,2.87,2.87,0,0,1-.18-5.71Zm1.14,2.37c0-.87-.37-1.38-1.11-1.38s-1.2.47-1.31,1.38Z"/><path class="cls-2" d="M189.61,95h1.05l.09,1h0a1.85,1.85,0,0,1,1.54-1.1A1.37,1.37,0,0,1,193,95l-.22,1.11a1.74,1.74,0,0,0-.56-.09c-.43,0-1,.3-1.29,1.12v3.32h-1.27Z"/><path class="cls-2" d="M196.52,97c0-.58-.25-1.06-1-1.06a3,3,0,0,0-1.53.53l-.46-.85a4.21,4.21,0,0,1,2.23-.71c1.36,0,2,.83,2,2.35v3.22h-1l-.1-.6h0a2.65,2.65,0,0,1-1.68.73,1.53,1.53,0,0,1-1.62-1.6C193.32,97.86,194.29,97.25,196.52,97Zm-1.19,2.61a1.71,1.71,0,0,0,1.19-.6V97.81c-1.47.19-2,.58-2,1.12S194.88,99.62,195.33,99.62Z"/><path class="cls-2" d="M199.64,96.06h-.78v-1l.84-.05.16-1.48h1.06V95h1.38v1h-1.38v2.59c0,.64.24,1,.76,1a1.56,1.56,0,0,0,.56-.12l.22.94a3.48,3.48,0,0,1-1.11.2c-1.26,0-1.73-.8-1.73-2Z"/><path class="cls-2" d="M203.42,93.38a.79.79,0,1,1,.79.72A.73.73,0,0,1,203.42,93.38Zm.14,1.67h1.27v5.44h-1.27Z"/><path class="cls-2" d="M208.8,94.92a2.87,2.87,0,1,1-2.58,2.86A2.63,2.63,0,0,1,208.8,94.92Zm0,4.66c.8,0,1.29-.72,1.29-1.81S209.59,96,208.8,96s-1.27.72-1.27,1.82S208,99.58,208.8,99.58Z"/><path class="cls-2" d="M212.76,95h1.05l.09.73h0a2.52,2.52,0,0,1,1.78-.86c1.16,0,1.67.79,1.67,2.16v3.41h-1.27V97.24c0-.9-.25-1.23-.85-1.23a1.72,1.72,0,0,0-1.24.68v3.8h-1.27Z"/><path class="cls-2" d="M219.12,99a2.42,2.42,0,0,0,1.51.61c.59,0,.86-.28.86-.65s-.59-.65-1.16-.87-1.53-.68-1.53-1.58.76-1.63,2-1.63a2.94,2.94,0,0,1,1.81.65l-.59.78a2,2,0,0,0-1.2-.46c-.54,0-.8.26-.8.6s.54.6,1.13.81c.74.28,1.56.63,1.56,1.65s-.74,1.68-2.12,1.68a3.45,3.45,0,0,1-2.06-.75Z"/><path class="cls-4" d="M7.19,41h87V21.66h-87A1.29,1.29,0,0,0,5.9,23V39.73A1.29,1.29,0,0,0,7.19,41Z"/><path class="cls-5" d="M5.9,87.09A1.41,1.41,0,0,0,7.31,88.5H94.18V69.14H7.31A1.41,1.41,0,0,0,5.9,70.55Z"/><path class="cls-6" d="M58.94,161.07a1.23,1.23,0,0,0-1.23-1.23H5.9V179.2H57.72A1.23,1.23,0,0,0,58.94,178Z"/><path class="cls-6" d="M5.9,152.54a2.17,2.17,0,0,0,2.17,2.17H94.18V135.35H8.07a2.17,2.17,0,0,0-2.17,2.17Z"/><path class="cls-7" d="M24.35,82.19H23.28V75.76H27v.89H24.35v2h2.51v.89H24.35Z"/><path class="cls-7" d="M34.13,79a3.44,3.44,0,0,1-.81,2.44,3,3,0,0,1-2.3.87,3,3,0,0,1-2.31-.86A3.46,3.46,0,0,1,27.9,79a3.41,3.41,0,0,1,.81-2.44A3,3,0,0,1,31,75.66a3,3,0,0,1,2.29.87A3.43,3.43,0,0,1,34.13,79Zm-5.08,0a2.8,2.8,0,0,0,.5,1.8,2.07,2.07,0,0,0,2.93,0,3.55,3.55,0,0,0,0-3.6A1.76,1.76,0,0,0,31,76.56a1.79,1.79,0,0,0-1.48.61A2.78,2.78,0,0,0,29.06,79Z"/><path class="cls-7" d="M38.39,76.57a1.82,1.82,0,0,0-1.47.64,3.27,3.27,0,0,0,0,3.56,1.85,1.85,0,0,0,1.49.61,4.06,4.06,0,0,0,.82-.08q.4-.08.82-.21V82a5.15,5.15,0,0,1-1.77.29A2.89,2.89,0,0,1,36,81.42,3.5,3.5,0,0,1,35.24,79a3.83,3.83,0,0,1,.38-1.75,2.66,2.66,0,0,1,1.1-1.15,3.42,3.42,0,0,1,1.69-.4,4.31,4.31,0,0,1,1.88.41l-.39.87a6,6,0,0,0-.71-.27A2.67,2.67,0,0,0,38.39,76.57Z"/><path class="cls-7" d="M46.68,75.76v4.16a2.4,2.4,0,0,1-.32,1.25,2.08,2.08,0,0,1-.91.82,3.26,3.26,0,0,1-1.43.29,2.73,2.73,0,0,1-1.92-.63,2.25,2.25,0,0,1-.69-1.74V75.76H42.5v4.06A1.59,1.59,0,0,0,42.88,81a1.61,1.61,0,0,0,1.17.38,1.37,1.37,0,0,0,1.54-1.56V75.76Z"/><path class="cls-7" d="M52.21,80.44a1.6,1.6,0,0,1-.64,1.34,2.86,2.86,0,0,1-1.77.49A4.35,4.35,0,0,1,48,81.94v-1a5.11,5.11,0,0,0,1,.33,4.23,4.23,0,0,0,1,.12,1.56,1.56,0,0,0,1-.24.77.77,0,0,0,.31-.64.79.79,0,0,0-.28-.61,4.29,4.29,0,0,0-1.16-.59,3.08,3.08,0,0,1-1.28-.81A1.68,1.68,0,0,1,48,77.4a1.52,1.52,0,0,1,.59-1.27,2.51,2.51,0,0,1,1.59-.46,4.8,4.8,0,0,1,1.9.4l-.35.86a4.27,4.27,0,0,0-1.58-.36,1.25,1.25,0,0,0-.8.22.72.72,0,0,0-.27.59.8.8,0,0,0,.11.43,1.1,1.1,0,0,0,.36.34,6.18,6.18,0,0,0,.9.42,5,5,0,0,1,1.07.55,1.63,1.63,0,0,1,.5.58A1.69,1.69,0,0,1,52.21,80.44Z"/><path class="cls-7" d="M58.64,78.7h2.45v3.23a7.29,7.29,0,0,1-1.15.27,8.45,8.45,0,0,1-1.19.08,3.06,3.06,0,0,1-2.33-.86A3.4,3.4,0,0,1,55.59,79a3.19,3.19,0,0,1,.92-2.43,3.54,3.54,0,0,1,2.54-.88,5.1,5.1,0,0,1,2,.39l-.38.87A4,4,0,0,0,59,76.57a2.22,2.22,0,0,0-1.68.65A2.45,2.45,0,0,0,56.73,79a2.58,2.58,0,0,0,.56,1.79,2.06,2.06,0,0,0,1.6.61A5.45,5.45,0,0,0,60,81.26V79.6H58.64Z"/><path class="cls-7" d="M63.77,79.62v2.57H62.68V75.76h1.88a3.17,3.17,0,0,1,1.91.47,1.65,1.65,0,0,1,.62,1.41,1.76,1.76,0,0,1-1.29,1.71l1.88,2.84H66.43l-1.59-2.57Zm0-.87h.75a1.77,1.77,0,0,0,1.1-.27,1,1,0,0,0,.34-.81.86.86,0,0,0-.37-.78,2.07,2.07,0,0,0-1.11-.24h-.72Z"/><path class="cls-7" d="M74.54,79a3.44,3.44,0,0,1-.81,2.44,3.5,3.5,0,0,1-4.61,0A3.46,3.46,0,0,1,68.31,79a3.41,3.41,0,0,1,.81-2.44,3,3,0,0,1,2.32-.85,3,3,0,0,1,2.29.87A3.43,3.43,0,0,1,74.54,79Zm-5.08,0a2.8,2.8,0,0,0,.5,1.8,2.07,2.07,0,0,0,2.93,0,3.55,3.55,0,0,0,0-3.6,1.76,1.76,0,0,0-1.46-.61,1.79,1.79,0,0,0-1.48.61A2.78,2.78,0,0,0,69.46,79Z"/><path class="cls-7" d="M81.18,75.76v4.16a2.41,2.41,0,0,1-.32,1.25,2.08,2.08,0,0,1-.91.82,3.27,3.27,0,0,1-1.43.29,2.73,2.73,0,0,1-1.92-.63,2.25,2.25,0,0,1-.69-1.74V75.76H77v4.06A1.59,1.59,0,0,0,77.38,81a1.61,1.61,0,0,0,1.17.38,1.37,1.37,0,0,0,1.54-1.56V75.76Z"/><path class="cls-7" d="M87.28,77.7a1.85,1.85,0,0,1-.68,1.54,3.08,3.08,0,0,1-1.94.54H84v2.4H82.88V75.76h1.91a3,3,0,0,1,1.87.49A1.74,1.74,0,0,1,87.28,77.7ZM84,78.9h.58a2.13,2.13,0,0,0,1.23-.28,1,1,0,0,0,.39-.88,1,1,0,0,0-.35-.83,1.77,1.77,0,0,0-1.09-.27H84Z"/><path class="cls-7" d="M25.27,142H26.4l-2.33,6.42H22.93L20.61,142h1.12l1.39,4q.11.29.23.74t.16.67q.06-.33.18-.77t.2-.65Z"/><path class="cls-7" d="M31.4,148.47l-.66-1.78H28.2l-.65,1.78H26.4L28.89,142h1.18l2.49,6.45Zm-1-2.69L29.83,144q-.07-.18-.19-.55t-.17-.55a9.62,9.62,0,0,1-.36,1.18l-.6,1.67Z"/><path class="cls-7" d="M33.44,148.47V142h1.09v5.52h2.82v.9Z"/><path class="cls-7" d="M38.48,148.47V142h1.09v6.42Z"/><path class="cls-7" d="M46.73,145.2a3.14,3.14,0,0,1-.91,2.43,3.75,3.75,0,0,1-2.63.84H41.33V142h2.06a3.47,3.47,0,0,1,2.47.83A3,3,0,0,1,46.73,145.2Zm-1.15,0a2,2,0,0,0-2.23-2.31h-.94v4.66h.77A2.1,2.1,0,0,0,45.59,145.23Z"/><path class="cls-7" d="M52.29,148.47l-.66-1.78H49.08l-.65,1.78H47.28L49.77,142H51l2.49,6.45Zm-1-2.69L50.71,144q-.07-.18-.19-.55t-.17-.55a9.62,9.62,0,0,1-.36,1.18l-.6,1.67Z"/><path class="cls-7" d="M56.62,148.47H55.53v-5.52h-2V142h5v.9h-2Z"/><path class="cls-7" d="M59.59,148.47V142h1.09v6.42Z"/><path class="cls-7" d="M68.34,145.25a3.44,3.44,0,0,1-.81,2.44,3.5,3.5,0,0,1-4.61,0,3.46,3.46,0,0,1-.81-2.45,3.41,3.41,0,0,1,.81-2.44,3,3,0,0,1,2.32-.85,3,3,0,0,1,2.29.87A3.44,3.44,0,0,1,68.34,145.25Zm-5.08,0a2.81,2.81,0,0,0,.5,1.8,2.07,2.07,0,0,0,2.93,0,3.54,3.54,0,0,0,0-3.6,1.76,1.76,0,0,0-1.46-.61,1.79,1.79,0,0,0-1.48.61A2.79,2.79,0,0,0,63.26,145.25Z"/><path class="cls-7" d="M75.3,148.47H74l-3.27-5.12h0l0,.29q.06.82.06,1.49v3.34h-1V142h1.32l3.26,5.09h0q0-.1,0-.74t0-1V142h1Z"/><path class="cls-7" d="M18.71,28.93a1.82,1.82,0,0,0-1.47.64,2.68,2.68,0,0,0-.54,1.77,2.69,2.69,0,0,0,.52,1.79,1.85,1.85,0,0,0,1.49.61,4.06,4.06,0,0,0,.82-.08q.4-.08.82-.21v.9a5.15,5.15,0,0,1-1.77.29,2.89,2.89,0,0,1-2.24-.85,3.5,3.5,0,0,1-.78-2.45,3.84,3.84,0,0,1,.38-1.75A2.65,2.65,0,0,1,17,28.43a3.41,3.41,0,0,1,1.69-.4,4.31,4.31,0,0,1,1.88.41l-.39.87A6,6,0,0,0,19.5,29,2.66,2.66,0,0,0,18.71,28.93Z"/><path class="cls-7" d="M27.68,31.32a3.44,3.44,0,0,1-.81,2.44,3,3,0,0,1-2.3.87,3,3,0,0,1-2.31-.86,3.46,3.46,0,0,1-.81-2.45,3.41,3.41,0,0,1,.81-2.44A3,3,0,0,1,24.58,28a3,3,0,0,1,2.29.87A3.44,3.44,0,0,1,27.68,31.32Zm-5.08,0a2.81,2.81,0,0,0,.5,1.8,1.78,1.78,0,0,0,1.47.61A1.77,1.77,0,0,0,26,33.13a2.81,2.81,0,0,0,.49-1.81A2.82,2.82,0,0,0,26,29.53a1.76,1.76,0,0,0-1.46-.61,1.79,1.79,0,0,0-1.48.61A2.79,2.79,0,0,0,22.61,31.32Z"/><path class="cls-7" d="M32,34.54l-1.93-5.37h0q.08,1.2.08,2.24v3.12h-1V28.12h1.53l1.85,5.11h0l1.9-5.11H36v6.42h-1V31.37q0-.48,0-1.25t0-.93h0l-2,5.36Z"/><path class="cls-7" d="M42.11,30.06a1.85,1.85,0,0,1-.68,1.54,3.08,3.08,0,0,1-1.94.54h-.69v2.4H37.71V28.12h1.91a3,3,0,0,1,1.87.49A1.74,1.74,0,0,1,42.11,30.06Zm-3.32,1.2h.58A2.13,2.13,0,0,0,40.6,31,1,1,0,0,0,41,30.1a1,1,0,0,0-.35-.83A1.77,1.77,0,0,0,39.55,29h-.76Z"/><path class="cls-7" d="M47.2,34.54H43.44V28.12H47.2V29H44.52v1.75H47v.88H44.52v2H47.2Z"/><path class="cls-7" d="M50.93,34.54H49.84V29h-2v-.9h5V29h-2Z"/><path class="cls-7" d="M53.91,34.54V28.12H55v6.42Z"/><path class="cls-7" d="M59,34.54H58V29H56v-.9h5V29H59Z"/><path class="cls-7" d="M67.92,31.32a3.44,3.44,0,0,1-.81,2.44,3.5,3.5,0,0,1-4.61,0,3.46,3.46,0,0,1-.81-2.45,3.41,3.41,0,0,1,.81-2.44A3,3,0,0,1,64.82,28a3,3,0,0,1,2.29.87A3.44,3.44,0,0,1,67.92,31.32Zm-5.08,0a2.81,2.81,0,0,0,.5,1.8,2.07,2.07,0,0,0,2.93,0,2.81,2.81,0,0,0,.49-1.81,2.82,2.82,0,0,0-.49-1.79,1.76,1.76,0,0,0-1.46-.61,1.79,1.79,0,0,0-1.48.61A2.79,2.79,0,0,0,62.85,31.32Z"/><path class="cls-7" d="M70.44,32v2.57H69.35V28.12h1.88a3.17,3.17,0,0,1,1.91.47A1.65,1.65,0,0,1,73.75,30a1.76,1.76,0,0,1-1.29,1.71l1.88,2.84H73.1L71.51,32Zm0-.87h.76a1.77,1.77,0,0,0,1.1-.27,1,1,0,0,0,.34-.81.86.86,0,0,0-.37-.78A2.08,2.08,0,0,0,71.16,29h-.72Z"/><path class="cls-7" d="M77.72,34.54V28.12h1.09v5.52h2.82v.9Z"/><path class="cls-7" d="M82.77,34.54V28.12h1.09v6.42Z"/><path class="cls-7" d="M89.45,32.8a1.6,1.6,0,0,1-.64,1.34,2.86,2.86,0,0,1-1.77.49,4.35,4.35,0,0,1-1.85-.34v-1a5.14,5.14,0,0,0,1,.33,4.23,4.23,0,0,0,1,.12,1.56,1.56,0,0,0,1-.24.76.76,0,0,0,.31-.64.79.79,0,0,0-.28-.61,4.3,4.3,0,0,0-1.16-.59,3.09,3.09,0,0,1-1.28-.81,1.68,1.68,0,0,1-.37-1.1,1.52,1.52,0,0,1,.59-1.27A2.51,2.51,0,0,1,87.44,28a4.8,4.8,0,0,1,1.9.4l-.35.86a4.27,4.27,0,0,0-1.58-.36,1.25,1.25,0,0,0-.8.22.72.72,0,0,0-.27.59.81.81,0,0,0,.11.43,1.1,1.1,0,0,0,.36.34,6.18,6.18,0,0,0,.9.42,5,5,0,0,1,1.07.55,1.63,1.63,0,0,1,.5.58A1.68,1.68,0,0,1,89.45,32.8Z"/><path class="cls-7" d="M93,34.54H91.94V29H90v-.9h5V29H93Z"/><path class="cls-5" d="M65.21,111.84a1.24,1.24,0,0,0,1.24,1.24H94.14V94.16H66.45a1.24,1.24,0,0,0-1.24,1.24Z"/><rect class="cls-8" width="245.11" height="211"/></g></g></svg>