<?xml version="1.0" encoding="utf-8"?>
<!-- Generator: Adobe Illustrator 22.1.0, SVG Export Plug-In . SVG Version: 6.00 Build 0)  -->
<svg version="1.1" id="Laag_1" xmlns="http://www.w3.org/2000/svg" xmlns:xlink="http://www.w3.org/1999/xlink" x="0px" y="0px"
	 viewBox="0 0 141 113.6" style="enable-background:new 0 0 141 113.6;" xml:space="preserve">
<style type="text/css">
	.st0{fill:#FFFFFF;}
	.st1{fill:#321E41;}
	.st2{fill:#53B5E7;}
	.st3{fill:#E73B68;}
	.st4{fill:#E8F4F7;}
	.st5{fill:#98CDB0;}
	.st6{fill:#FCFCFA;}
	.st7{font-family:'Impact';}
	.st8{font-size:63.0246px;}
</style>
<title>Asset 65</title>
<rect x="19.5" y="37.5" class="st0" width="21.7" height="26.8"/>
<rect x="60.6" y="74.2" class="st1" width="19.8" height="36.5"/>
<rect x="30.5" y="95.8" class="st2" width="80.1" height="17.8"/>
<rect class="st3" width="141" height="82.4"/>
<path class="st4" d="M106.4,107.7v0.5c0,1.1-0.9,2.1-2.1,2.1H93.9c-1.1,0-2.1-0.9-2.1-2.1v-0.5c0-1.1,0.9-2.1,2.1-2.1h10.4
	C105.5,105.7,106.4,106.6,106.4,107.7z"/>
<path class="st4" d="M106.4,100.6v0.5c0,1.1-0.9,2.1-2.1,2.1H93.9c-1.1,0-2.1-0.9-2.1-2.1v-0.5c0-1.1,0.9-2.1,2.1-2.1h10.4
	C105.5,98.5,106.4,99.4,106.4,100.6z"/>
<circle class="st0" cx="37.5" cy="104.7" r="2.2"/>
<path class="st5" d="M103.2,49.7"/>
<path class="st5" d="M93.6,53.2"/>
<rect x="3.8" y="3.8" class="st6" width="133.5" height="74.6"/>
<text transform="matrix(1 0 0 1 22.2873 64.7323)" class="st2 st7 st8">404</text>
<rect x="66.1" y="20.9" class="st2" width="8.8" height="38.2"/>
<circle class="st0" cx="63.9" cy="27.6" r="2.2"/>
<circle class="st0" cx="78.1" cy="31.9" r="2.2"/>
<path class="st4" d="M77,46.4l0.2,0.4c0.5,1,0.1,2.3-1,2.8L66.8,54c-1,0.5-2.3,0.1-2.8-1l-0.2-0.4c-0.5-1-0.1-2.3,1-2.8l9.4-4.4
	C75.3,44.9,76.5,45.4,77,46.4z"/>
<g>
	<path d="M136.3,68c-0.6-0.7-1.2-1.3-2-1.7l0.3-0.6l0.1,0.1l0.1-0.2l-0.1-0.1l1.6-2.5l-0.5-0.5l-0.1,0.1l-6.4-8.4l0.3-0.2l0,0
		l1.1-1.7c0.7,0.7,1.4,1.7,1.5,1.8c0.2,0.3,0.6,0.5,0.8,0.3c0.1-0.1,0.2-0.2-0.1-0.5s-2.1-2.4-2.4-2.8c-0.1-0.5-0.3-0.9-0.5-1.3
		c-0.4-0.4-0.5-0.3-0.6-0.1c0,0,0,1.2,0.1,1.5c0.1,0.1,0.3,0.3,0.7,0.7l-1.2,1.7l0,0l-0.4,0.7l-3.5,0.6c-0.2-0.9-0.5-1.8-1.1-2.6
		c-2.2-2.8-6.1-3.4-8.9-1.2s-3.4,6.1-1.2,8.9c1.5,2,4,2.8,6.2,2.3c0.4,0.8,0.6,1.2,0.6,1.2s0,0.2,0.2,0.4c0,0.2,0.2,0.4,0.3,0.6
		c0.7,0.9,1.7,1.1,2.6,0.6c0.1,0.1,0.2,0.3,0.3,0.4l-0.2,0c-0.1,0-0.3,0.1-0.4,0.3c0,0.1,0,0.2,0,0.2c0.1,0.1,0.1,0.1,0.2,0.1
		l1.7,0.1c0.1,0,0.2,0,0.2,0c0.1-0.1,0.1-0.2,0.1-0.2c0-0.1-0.1-0.3-0.3-0.4l-0.7,0l-0.6-0.7c0.3-0.3,0.5-0.7,0.6-1l9.2,1.4
		l-0.1,0.1l0,0l-0.2,0.2l0.1,0.1l-0.3,0.6c-2.1-0.9-4.6-0.7-6.5,0.7c-2.8,2.2-3.3,6.2-1.2,8.9c2.2,2.8,6.2,3.3,8.9,1.2
		C137.9,74.9,138.4,70.8,136.3,68z M125.7,65.8l0.1,0c0.1,0.1,0.1,0.1,0,0.2c0,0,0,0.1-0.1,0.2c-0.1,0.1-0.1,0.1-0.1,0.1l-0.7,0
		l0.1-0.1c0.1-0.1,0.2-0.2,0.1-0.4l0,0L125.7,65.8z M124.7,66.1L124.7,66.1l-0.7,0c-0.1,0-0.2-0.1-0.2-0.2c0-0.1,0.1-0.2,0.2-0.2
		l0.7,0C124.6,65.8,124.6,65.9,124.7,66.1z M124.6,57.4l-3.9-0.7c-0.2-0.3-0.4-0.5-0.5-0.7l0,0l4.5-0.7
		C124.7,56,124.7,56.7,124.6,57.4z M117.8,56.9L117.8,56.9l-0.3,0.1l0.1-0.1L117.8,56.9z M117.7,56.9l0.2-0.2c0,0,0.1,0.1,0,0.1l0,0
		L117.7,56.9z M118,56.5c-0.1-0.3,0-0.5,0.1-0.6l0,0c0.1-0.1,0.1-0.2,0.1-0.2l0.1-0.1c0.1-0.1,0.1-0.1,0.1-0.1
		c0.5-0.3,0.9-0.2,1.1,0.2c0,0,0.1,0.1,0.1,0.1l0,0l0,0l0,0l-0.1-0.1l0,0c-0.3-0.4-0.8-0.4-1.1-0.2c-0.4,0.3-0.4,0.8-0.2,1.1
		c0.1,0.1,0.3,0.2,0.5,0.3l0,0.1l-0.3,0.6C118.2,57.2,118,56.8,118,56.5z M117.7,55.2l0.7,0.2c0,0,0,0-0.1,0.1
		c-0.1,0.1-0.1,0.1-0.2,0.2l-0.3-0.1L117.7,55.2z M117.6,55.3l-0.2-0.3l0.1,0L117.6,55.3z M118,55.7L118,55.7l-0.2-0.1L118,55.7z
		 M118.8,54.6l0.1,0.3l-0.2,0.4c-0.1,0.1-0.1,0-0.2,0L118.8,54.6z M118.9,54.5l0.1-0.4l0.1,0.4l-0.2,0.2L118.9,54.5z M119.1,54.9
		l0.2-0.2l0.2,0.7c-0.1-0.1-0.1,0-0.2-0.1L119.1,54.9z M119.1,55.3c0,0-0.1,0-0.2,0l0.1-0.2L119.1,55.3z M119.8,55.7L119.8,55.7
		l0.3-0.5l0.5-0.1l-0.5,0.5L119.8,55.7z M119.1,56.5c-0.1,0.1-0.3,0.1-0.4-0.1c-0.1-0.1-0.1-0.3,0.1-0.4c0.1-0.1,0.3-0.1,0.4,0.1
		C119.2,56.2,119.2,56.4,119.1,56.5z M119.7,55.7c-0.1-0.1-0.1-0.1-0.1-0.1c-0.1-0.1-0.1-0.1-0.2-0.1l0.6-0.1L119.7,55.7z
		 M119.8,56.3c0-0.1,0-0.1,0-0.2l0.2,0c0.1,0.1,0.3,0.4,0.5,0.7l-0.5-0.1L119.8,56.3z M119.8,56.5L119.8,56.5
		C119.8,56.4,119.8,56.4,119.8,56.5L119.8,56.5z M118.7,57.4l0,0.2l-0.3,0.7c-0.1-0.1,0-0.2-0.1-0.3L118.7,57.4z M118.8,57.2
		L118.8,57.2c0.1-0.1,0.1-0.1,0.2,0l0.1,0.1l-0.1,0.2L118.8,57.2z M119.9,56.7l0.2,0.2l-0.4-0.1c0.1-0.1,0.1-0.1,0.1-0.2L119.9,56.7
		z M120.1,56.7l0.5,0.1c0.1,0.1,0.2,0.2,0.3,0.4l-0.6-0.1L120.1,56.7z M120.9,57.3L120.9,57.3c0.7,0.9,1.5,2,2.2,2.8
		c-0.1,0.1-0.3,0.2-0.5,0.4l-2.3-3.4L120.9,57.3z M121,57.3l3.2,0.9c-0.3,0.7-0.6,1.3-1.2,1.8C122.4,59.2,121.7,58.2,121,57.3z
		 M121,57.3c-0.1-0.1-0.2-0.2-0.3-0.4l3.8,0.6c0,0.3-0.1,0.4-0.2,0.6L121,57.3z M124.6,55l-4.1,0.7l0.5-0.5l3.5-0.6
		C124.5,54.7,124.5,54.8,124.6,55z M123.5,52.8c0.4,0.5,0.7,1.1,0.9,1.6l-3.5,0.6l2.3-2.5C123.3,52.6,123.5,52.7,123.5,52.8z
		 M123.2,52.4l-2.4,2.6l-0.6,0.1l2.5-3.2C123,52.1,123.1,52.2,123.2,52.4z M122.7,51.9l-2.5,3.3l-0.7,0.1l-0.2-0.7l1.8-3.7
		C121.6,51.2,122.2,51.5,122.7,51.9z M120.9,50.9l-1.7,3.5l-0.1-0.5l1.2-3.3C120.5,50.8,120.6,50.9,120.9,50.9z M120.1,50.7
		l-1.1,3.1l-0.9-3.1C118.7,50.6,119.4,50.6,120.1,50.7z M118,50.7l1,3.3l-0.1,0.4l-1.5-3.4C117.5,50.8,117.7,50.8,118,50.7z
		 M115.7,51.7c0.4-0.3,1-0.6,1.5-0.8l1.5,3.6l-0.3,0.8l-0.9-0.2l-2-3.2C115.6,51.9,115.7,51.8,115.7,51.7z M115.4,52l1.9,3l-0.1,0
		l-2.3-2.5l0,0C115.1,52.3,115.3,52.1,115.4,52z M114.8,52.5l2.1,2.4l-3.1-0.8C114.2,53.5,114.5,53,114.8,52.5z M113.9,54.2l3.3,0.9
		l0.4,0.4l-3.8-0.8C113.8,54.5,113.8,54.3,113.9,54.2z M113.7,54.8l3.9,0.8l0.2,0.3l0,0l0.1,0.1c-0.1,0.2-0.1,0.4,0,0.7l0,0
		l-0.4,0.3l-3.9,0C113.5,56.2,113.5,55.5,113.7,54.8z M113.6,57l3.8-0.1l-0.1,0.1l-3.6,0.6l0.1,0.1C113.7,57.4,113.6,57.2,113.6,57z
		 M113.8,57.7l3.4-0.5l-2.5,2.4C114.2,59,114,58.3,113.8,57.7z M114.7,59.6l2.6-2.4l0.3-0.1L115,60
		C114.9,59.8,114.8,59.7,114.7,59.6z M115.1,60.1l2.7-3l0.1,0c0.1,0.3,0.2,0.5,0.3,0.8l-1.8,3.2C116,60.8,115.5,60.5,115.1,60.1z
		 M116.6,61.2l1.7-3.1c0.1,0.1,0,0.2,0.1,0.3l-1.3,3.1l0,0C117,61.3,116.8,61.2,116.6,61.2z M117.2,61.4l1.3-2.9
		c0.1,0.3,0.2,0.6,0.4,1l0.2,0.3c0.3,0.7,0.6,1.4,0.8,2C119,61.8,118.1,61.7,117.2,61.4z M120.1,61.7c-0.2-0.6-0.5-1.3-0.8-2
		l-0.1-0.3c-0.1-0.3-0.3-0.7-0.4-1l0.3-0.7l1.6,3.8C120.3,61.7,120.2,61.6,120.1,61.7z M120.6,61.6l-1.7-4l0.2-0.2l2.3,4
		C121.1,61.4,120.8,61.5,120.6,61.6z M121.5,61.2l-2.4-4l0.1-0.1l0.2,0l2.4,4.1C121.7,61.2,121.5,61.2,121.5,61.2z M121.9,61
		l-2.4-4.1l0,0l0.1-0.1l0.6,0.2l2.3,3.5l0,0C122.3,60.8,122.1,60.9,121.9,61z M125.5,55.2l3.1-0.5l0.3-0.4l-4.7,6.9
		c-0.1-0.1-0.3-0.4-0.4-0.6C125.1,59.2,125.7,57.2,125.5,55.2z M123.2,63L123.2,63L123.2,63c-0.1-0.1-0.1-0.1-0.2-0.1l-0.1-0.1
		l-0.3-1.3l0,0c0.4-0.1,0.8,0,1.1,0.2l-0.8,1.2L123,63L123.2,63L123.2,63z M124.3,62c0.1,0.1,0.1,0.1,0.2,0.2c0,0,0,0,0.1,0.1
		l-0.6,0.3L124.3,62z M121.9,61.9c0.1-0.1,0.1-0.1,0.3-0.1l0.5,0.8l0.1,0.4c-0.1,0.1-0.1,0.1-0.1,0.1L121.9,61.9z M122.4,63.1
		l-1.3-0.2c0.1-0.3,0.2-0.6,0.5-0.8c0.1-0.1,0.1-0.1,0.1-0.1L122.4,63.1z M122.3,61.7c0.1-0.1,0.1-0.1,0.1-0.1l0.1,0.6L122.3,61.7z
		 M123,61.2c0.2-0.2,0.4-0.3,0.6-0.4c0.2,0.2,0.3,0.4,0.4,0.6l-0.1,0.1C123.6,61.3,123.3,61.2,123,61.2z M120.4,62.4
		c0.3-0.1,0.6-0.1,0.8-0.3c-0.3,0.4-0.4,0.9-0.3,1.4C120.8,63.4,120.6,63,120.4,62.4z M121.5,64.5c-0.3-0.4-0.5-0.9-0.4-1.4l1.5,0.3
		c0,0,0.1,0.1,0.2,0.2l-0.6,1.5C121.9,64.9,121.7,64.7,121.5,64.5z M122.3,65.2l0.5-1.4c0.3,0.4,0.7,0.9,1,1.4
		C123.4,65.3,122.8,65.4,122.3,65.2z M124.4,64.7l-1.1-1.6l0,0l0.1,0.1l0.3,0.4l1.3,0.2C124.8,64.1,124.6,64.4,124.4,64.7z
		 M123.8,62.9l0.8-0.5c0.1,0.1,0.2,0.4,0.2,0.6L123.8,62.9z M125.1,63.1c0-0.3-0.2-0.7-0.4-1c-0.1-0.1-0.1-0.1-0.2-0.2l4.6-6.9
		l6.4,8.4l-0.8,1.3L125.1,63.1z M134.6,76.4l-2.3-3.4l0.3,0.1L135,76l0.1-0.1l-2.4-2.8l3.6,0.9C136,74.9,135.5,75.7,134.6,76.4z
		 M131.8,72.5L131.8,72.5L131.8,72.5L131.8,72.5z M131,73L131,73C131.1,73,131.1,73,131,73L131,73z M131.9,72.3l0-0.1l0.3,0.4
		l-0.3,0L131.9,72.3z M131,73l0,0.2l-0.2,0.4l-0.2-0.5C130.8,73,130.9,73,131,73z M131.1,73.2l0.1,0.3L131,74l-0.1-0.4L131.1,73.2z
		 M131.2,73.2l0.1-0.2c0.1-0.1,0.1-0.1,0.1-0.1l-0.2,0.5L131.2,73.2z M131.6,72.7c0.1-0.1,0.1-0.1,0.1-0.1l0.3,0l0.2,0.2L131.6,72.7
		z M132.1,72.7l0.3,0l0.2,0.3l-0.3-0.1L132.1,72.7z M136.4,74l-3.7-1l-0.2-0.3l4.1,0.6C136.6,73.5,136.5,73.7,136.4,74z M136.7,73.2
		l-4.3-0.6L132,72l0.5-0.5l4.3-0.4C136.9,71.8,136.8,72.5,136.7,73.2z M129.7,72.7l-0.2,0.2l-0.4,0.1l0.3-0.2L129.7,72.7z
		 M129.5,72.6l0.5-0.5l0,0.1l-0.2,0.3L129.5,72.6z M129.9,72.6l0.2-0.2c0.1,0.1,0.1,0.1,0.1,0.1L129.9,72.6z M130.2,72.7L130.2,72.7
		l-0.5,0.2l0.1-0.2L130.2,72.7z M130.7,72.3c-0.1-0.1-0.1-0.3,0.1-0.4c0.1-0.1,0.3-0.1,0.4,0.1c0.1,0.1,0.1,0.3-0.1,0.4
		C131,72.4,130.8,72.4,130.7,72.3z M132,71.5l-0.2,0.2c-0.1-0.1-0.1-0.1-0.1-0.1l0,0L132,71.5z M132.3,71.2l0.3-0.1L132.3,71.2
		l-0.1,0.1L132.3,71.2z M131.6,71.5L131.6,71.5l0.5-0.2l-0.1,0.2L131.6,71.5z M132,71.5l0.2,0l-0.5,0.5c0,0-0.1-0.1,0-0.1L132,71.5z
		 M136.7,71l-4.1,0.4l0.2-0.2l3.9-0.6C136.7,70.7,136.7,70.8,136.7,71z M135.6,68.5c0.4,0.6,0.7,1.3,1,1.9l-3.8,0.6l2.6-2.8
		C135.5,68.4,135.6,68.4,135.6,68.5z M135.3,68.2l-2.7,2.9l-0.3,0l2.6-3.3C135.1,67.9,135.2,68,135.3,68.2z M134.9,67.7l-2.7,3.4
		l-0.7,0.1l2.4-4.2C134.3,67.2,134.6,67.5,134.9,67.7z M129.9,71.3l0.3,0.4c-0.1,0.1,0,0.1-0.1,0.2l-0.5-0.5L129.9,71.3z
		 M129.4,71.1L129.4,71.1l0.4,0.1l0,0L129.4,71.1z M130.9,70.7l-0.2,0.5c0,0,0,0-0.1,0.1l0,0l0,0L130.9,70.7L130.9,70.7z
		 M130.9,70.5l0.1-0.3l0.1,0.3l-0.2,0.2L130.9,70.5z M131.2,70.5l0.1,0.5l-0.1,0.2l-0.2-0.4L131.2,70.5z M130.2,71.5l-0.2-0.2
		l0.4,0.1l-0.1,0.1C130.4,71.4,130.3,71.4,130.2,71.5z M130.9,71.2l0.1-0.3l0.1,0.3l0.1-0.1l-0.1,0.1
		C131.1,71.2,131,71.1,130.9,71.2z M133.5,66.7l-2,4.1l-0.1-0.5l1.8-3.8C133.2,66.7,133.3,66.7,133.5,66.7z M133,66.5l-1.8,3.7
		l-0.1-0.3l1.3-3.5C132.6,66.5,132.8,66.5,133,66.5z M132.3,66.5l-1.2,3.3l-0.9-3.4C130.9,66.3,131.6,66.3,132.3,66.5z M130.1,66.4
		l1,3.5l-0.1,0.3l-1.5-3.7C129.6,66.5,129.8,66.4,130.1,66.4z M127.8,67.4c0.5-0.4,1-0.6,1.5-0.8l1.6,3.8l-0.2,0.7L130,71l-2.6-3.2
		C127.4,67.7,127.6,67.6,127.8,67.4z M127.3,67.9l2.4,3.1l-0.4-0.1l-2.3-2.6C127,68.1,127.1,68,127.3,67.9z M126.8,68.4l2.2,2.4
		l-3.1-0.8C126.1,69.4,126.5,68.8,126.8,68.4z M125.9,70.1l3.3,0.9l0.1,0.1l-3.6-0.5C125.7,70.4,125.8,70.3,125.9,70.1z M125.7,70.6
		L125.7,70.6l3.8,0.6l0.6,0.7c0,0-0.1,0.1,0,0.1l-0.7,0.6l-3.8,0.1C125.5,72,125.6,71.3,125.7,70.6z M125.6,72.8l3.7-0.1l-0.2,0.3
		l-3.3,0.5C125.7,73.3,125.7,73,125.6,72.8z M125.8,73.7l3.1-0.5l-2.2,2.2C126.3,74.8,126,74.2,125.8,73.7z M126.8,75.4l2.3-2.3
		l0.4-0.1l-2.3,2.9l0.1,0.1l2.3-2.9l0.8-0.2l0,0c0.1,0.1,0.1,0.1,0.2,0.1l0.2,0.7l-1.7,3.5C128.1,76.7,127.4,76.2,126.8,75.4z
		 M129.1,77.1l1.7-3.3l0.1,0.4l-1.1,3.2C129.5,77.3,129.3,77.2,129.1,77.1z M129.8,77.4l1.1-3l0.8,3.2
		C131.1,77.6,130.4,77.5,129.8,77.4z M131.9,77.6l-0.8-3.4l0.2-0.5l1.3,3.7C132.3,77.4,132.1,77.5,131.9,77.6z M131.3,73.5l0.3-0.7
		l0.7,0.2l2.4,3.4l0.1-0.1c0,0,0,0-0.1,0.1c-0.6,0.4-1.3,0.7-1.9,1L131.3,73.5z"/>
	<path d="M136.4,63l0.5-0.8l0.9,1.2l0.1-0.1l1.7,2.2c0,0,0.1,0.7-0.6,0.9c-0.7,0.2-1,0.1-1.5,0c-0.6-0.1-1.2-0.2-1.2-0.2l-0.1,0.5
		c0,0,1.3,0.4,2.2,0.4c0.6,0,1.3-0.2,1.5-0.6c0.3-0.3,0.5-0.8,0-1.6c-0.6-0.7-3.1-4.1-3.1-4.1l-1,1.7L136.4,63z"/>
</g>
</svg>
