<svg xmlns="http://www.w3.org/2000/svg" viewBox="0 0 602.25 163.249"><defs><style>.cls-1{isolation:isolate;}.cls-2{fill:#61cae2;}.cls-3{fill:#015abc;}.cls-4{fill:#ff6e56;}.cls-5{fill:#fafafa;}.cls-6{fill:#fff;}.cls-7{mix-blend-mode:multiply;}.cls-8{fill:#e5e5e5;}.cls-9{fill:none;stroke:#e5e5e5;stroke-miterlimit:10;}</style></defs><title>404</title><g class="cls-1"><g id="Layer_2" data-name="Layer 2"><g id="Layer_1-2" data-name="Layer 1"><path class="cls-2" d="M158.255,96.781H136.3V60.638H81.982L111.347.01H50.236l-49.9,100.5V126.4H76.352V163.24H136.3V126.4h22.385V96.781Zm-93.779,0,11.876-24.52v24.52Z"/><path class="cls-2" d="M601.822,96.781H579.865V60.638H525.549L554.914.01H493.8l-49.9,100.5V126.4h76.019V163.24h59.945V126.4H602.25V96.781Zm-93.779,0,11.876-24.52v24.52Z"/><path class="cls-3" d="M132.217,96.782V126.4H109.831V163.24H76.019V126.4H0V100.513L49.9.01H84.88L38.01,96.782h38.01V60.638h33.812V96.782Z"/><path class="cls-3" d="M576.117,96.782V126.4H553.732V163.24H519.919V126.4H443.9V100.513L493.8.01H528.78L481.91,96.782h38.01V60.638h33.812V96.782Z"/><path class="cls-3" d="M397.992,30.554s-12.665-6.879-21.715-11.213-10.048-7.267-10.048-14.517l-.02.215A5.44,5.44,0,0,0,360.785,0h-16.7a5.444,5.444,0,0,0-5.444,5.444V113.9a5.444,5.444,0,0,0,5.444,5.444h55.14c1.51,0,9.471.195,9.471-10.893V48.715C408.7,32.582,397.992,30.554,397.992,30.554Z"/><rect class="cls-3" x="347.972" y="124.614" width="60.725" height="17.793" rx="2.667" ry="2.667"/><rect class="cls-3" x="347.972" y="146.086" width="60.725" height="17.163" rx="2.62" ry="2.62"/><rect class="cls-2" x="193.559" y="124.614" width="161.551" height="38.522" rx="3.348" ry="3.348"/><rect class="cls-2" x="197.994" y="0.096" width="152.911" height="119.243" rx="5.543" ry="5.543"/><circle class="cls-4" cx="211.621" cy="144.61" r="6.029"/><polyline class="cls-5" points="343.523 142.366 355.11 142.366 355.11 146.086 343.522 146.086"/><polygon class="cls-3" points="295.836 142.366 343.523 142.366 343.522 146.086 295.822 146.086 295.836 142.366"/><path class="cls-5" d="M295.822,146.086H223.75a1.86,1.86,0,0,1-1.86-1.86h0a1.86,1.86,0,0,1,1.86-1.86h72.086"/><path class="cls-5" d="M193.566,142.366h6.577a1.86,1.86,0,0,1,1.86,1.86h0a1.86,1.86,0,0,1-1.86,1.86h-6.591"/><rect class="cls-3" x="325.303" y="138.144" width="8.744" height="12.519" rx="1.024" ry="1.024"/><rect class="cls-6" x="212.677" y="13.411" width="125.481" height="93.236" rx="6" ry="6"/><path class="cls-3" d="M301,81.557c-.061-.168-6.318-16.78-25.25-16.78s-25.188,16.612-25.25,16.78a2.064,2.064,0,0,0,3.878,1.415,23.268,23.268,0,0,1,42.744,0A2.064,2.064,0,0,0,301,81.557Z"/><circle class="cls-3" cx="293.251" cy="46.288" r="3.338"/><circle class="cls-3" cx="258.25" cy="46.288" r="3.338"/><path class="cls-5" d="M408.613,84.217H368.088a1.86,1.86,0,0,1-1.86-1.86h0a1.86,1.86,0,0,1,1.86-1.86h40.539"/><path class="cls-5" d="M385.747,59.547a1.86,1.86,0,0,1-1.86,1.853h-15.8a1.86,1.86,0,0,1-1.86-1.86h0a1.86,1.86,0,0,1,1.86-1.86h15.8a1.86,1.86,0,0,1,1.86,1.867Z"/><path class="cls-5" d="M385.747,66.92a1.86,1.86,0,0,1-1.86,1.853h-15.8a1.86,1.86,0,0,1-1.86-1.86h0a1.86,1.86,0,0,1,1.86-1.86h15.8a1.86,1.86,0,0,1,1.86,1.867Z"/><path class="cls-5" d="M385.747,74.292a1.86,1.86,0,0,1-1.86,1.853h-15.8a1.86,1.86,0,0,1-1.86-1.86h0a1.86,1.86,0,0,1,1.86-1.86h15.8a1.86,1.86,0,0,1,1.86,1.867Z"/><circle class="cls-4" cx="330.275" cy="112.675" r="2.558"/><g class="cls-7"><path class="cls-8" d="M234.469,13.411h-3.125a6.018,6.018,0,0,0-6,6v81.236a6.018,6.018,0,0,0,6,6H218.677a6.018,6.018,0,0,1-6-6V19.411a6.018,6.018,0,0,1,6-6h15.792Z"/><path class="cls-9" d="M234.469,13.411h-3.125a6.018,6.018,0,0,0-6,6v81.236a6.018,6.018,0,0,0,6,6H218.677a6.018,6.018,0,0,1-6-6V19.411a6.018,6.018,0,0,1,6-6h15.792Z"/></g></g></g></g></svg>