<svg xmlns="http://www.w3.org/2000/svg" viewBox="0 0 1920 266.54"><defs><style>.cls-1{isolation:isolate;}.cls-2{fill:#093447;}.cls-3{opacity:0.08;mix-blend-mode:luminosity;}.cls-4{fill:#1cb7a8;}</style></defs><title>cta-bg</title><g class="cls-1"><g id="Layer_2" data-name="Layer 2"><g id="Layer_1-2" data-name="Layer 1"><rect class="cls-2" width="1920" height="266.54"/><g class="cls-3"><path class="cls-4" d="M32.39,140.81A32.34,32.34,0,0,1,9.53,85.6L18,94.09a20.34,20.34,0,1,0,28.77,28.76l8.48,8.49A32.17,32.17,0,0,1,32.39,140.81Z"/><path class="cls-4" d="M170.27,150l-8.48-8.48A20.34,20.34,0,0,0,133,112.71l-8.48-8.48A32.34,32.34,0,0,1,170.27,150Z"/><circle class="cls-4" cx="91.08" cy="42.61" r="8"/><rect class="cls-4" x="52.12" y="202.97" width="50.42" height="12" transform="translate(-125.12 115.89) rotate(-45)"/><path class="cls-4" d="M371.67,121.37A32.34,32.34,0,0,1,316.46,98.5h12a20.34,20.34,0,0,0,40.68,0h12A32.12,32.12,0,0,1,371.67,121.37Z"/><path class="cls-4" d="M268.06,212.4h-12a20.34,20.34,0,0,0-40.68,0h-12a32.34,32.34,0,1,1,64.68,0Z"/><circle class="cls-4" cx="317.72" cy="223.04" r="8"/><rect class="cls-4" x="239.99" y="38.32" width="12" height="50.42" transform="translate(27.13 192.55) rotate(-45)"/><path class="cls-4" d="M466.5,140.81A32.34,32.34,0,0,1,443.63,85.6l8.48,8.49a20.34,20.34,0,1,0,28.77,28.76l8.48,8.49A32.14,32.14,0,0,1,466.5,140.81Z"/><path class="cls-4" d="M604.37,150l-8.48-8.48a20.34,20.34,0,0,0-28.77-28.77l-8.48-8.48A32.34,32.34,0,1,1,604.37,150Z"/><circle class="cls-4" cx="525.18" cy="42.61" r="8"/><rect class="cls-4" x="486.22" y="202.97" width="50.42" height="12" transform="translate(2.03 422.85) rotate(-45)"/><path class="cls-4" d="M805.77,121.37A32.34,32.34,0,0,1,750.56,98.5h12a20.34,20.34,0,0,0,40.68,0h12A32.12,32.12,0,0,1,805.77,121.37Z"/><path class="cls-4" d="M702.16,212.4h-12a20.34,20.34,0,1,0-40.68,0h-12a32.34,32.34,0,1,1,64.68,0Z"/><circle class="cls-4" cx="751.82" cy="223.04" r="8"/><rect class="cls-4" x="674.09" y="38.32" width="12" height="50.42" transform="translate(154.27 499.51) rotate(-45)"/><path class="cls-4" d="M900.6,140.81A32.34,32.34,0,0,1,877.73,85.6l8.48,8.49A20.34,20.34,0,1,0,915,122.85l8.48,8.49A32.14,32.14,0,0,1,900.6,140.81Z"/><path class="cls-4" d="M1038.47,150l-8.48-8.48a20.34,20.34,0,0,0-28.77-28.77l-8.48-8.48A32.34,32.34,0,1,1,1038.47,150Z"/><circle class="cls-4" cx="959.28" cy="42.61" r="8"/><rect class="cls-4" x="920.32" y="202.97" width="50.42" height="12" transform="translate(129.17 729.8) rotate(-45)"/><path class="cls-4" d="M1239.87,121.37a32.35,32.35,0,0,1-55.21-22.87h12a20.34,20.34,0,1,0,40.68,0h12A32.12,32.12,0,0,1,1239.87,121.37Z"/><path class="cls-4" d="M1136.26,212.4h-12a20.34,20.34,0,1,0-40.68,0h-12a32.34,32.34,0,1,1,64.68,0Z"/><circle class="cls-4" cx="1185.92" cy="223.04" r="8"/><rect class="cls-4" x="1108.19" y="38.32" width="12" height="50.42" transform="translate(281.42 806.46) rotate(-45)"/><path class="cls-4" d="M1334.7,140.81a32.34,32.34,0,0,1-22.87-55.21l8.48,8.49a20.34,20.34,0,1,0,28.77,28.76l8.48,8.49A32.13,32.13,0,0,1,1334.7,140.81Z"/><path class="cls-4" d="M1472.57,150l-8.48-8.48a20.34,20.34,0,0,0-28.77-28.77l-8.48-8.48A32.34,32.34,0,1,1,1472.57,150Z"/><circle class="cls-4" cx="1393.38" cy="42.61" r="8"/><rect class="cls-4" x="1354.42" y="202.97" width="50.42" height="12" transform="translate(256.32 1036.76) rotate(-45)"/><path class="cls-4" d="M1674,121.37a32.35,32.35,0,0,1-55.21-22.87h12a20.34,20.34,0,1,0,40.68,0h12A32.12,32.12,0,0,1,1674,121.37Z"/><path class="cls-4" d="M1570.37,212.4h-12a20.34,20.34,0,1,0-40.68,0h-12a32.35,32.35,0,0,1,64.69,0Z"/><circle class="cls-4" cx="1620.02" cy="223.04" r="8"/><rect class="cls-4" x="1542.3" y="38.32" width="12" height="50.42" transform="translate(408.56 1113.42) rotate(-45)"/><path class="cls-4" d="M1768.8,140.81a32.34,32.34,0,0,1-22.87-55.21l8.49,8.49a20.34,20.34,0,1,0,28.76,28.76l8.49,8.49A32.17,32.17,0,0,1,1768.8,140.81Z"/><path class="cls-4" d="M1906.68,150l-8.49-8.48a20.34,20.34,0,0,0-28.77-28.77l-8.48-8.48A32.34,32.34,0,1,1,1906.68,150Z"/><circle class="cls-4" cx="1827.49" cy="42.61" r="8"/><rect class="cls-4" x="1788.52" y="202.97" width="50.42" height="12" transform="translate(383.46 1343.71) rotate(-45)"/><path class="cls-4" d="M409.68,53.15c-5.84,0-11.73-2.52-17.56-7.52-3.29-2.82-8.09-6-12.21-5-5,1.24-7.72,7.86-7.75,7.92l-10.25-4c.48-1.22,4.94-12,15.32-14.61,7-1.74,14.39.7,22,7.27,4.48,3.84,8.61,5.42,12.28,4.68,5.58-1.12,9.87-7.46,11.05-9.8L432.47,37c-.27.54-6.64,13.22-18.67,15.69A20.58,20.58,0,0,1,409.68,53.15Z"/><polygon class="cls-4" points="415.7 214.3 386.37 198.53 415.7 178.16 415.7 214.3"/><path class="cls-4" d="M1279.57,53.15c-5.84,0-11.73-2.52-17.56-7.52-3.3-2.82-8.09-6-12.22-5-4.94,1.24-7.71,7.86-7.74,7.92l-10.25-4c.48-1.22,4.94-12,15.32-14.61,7-1.74,14.39.7,22.05,7.27,4.48,3.84,8.61,5.42,12.28,4.68,5.58-1.12,9.87-7.46,11-9.8l9.86,4.88c-.27.54-6.64,13.22-18.67,15.69A20.58,20.58,0,0,1,1279.57,53.15Z"/><polygon class="cls-4" points="1285.59 214.3 1256.26 198.53 1285.59 178.16 1285.59 214.3"/><path class="cls-4" d="M827.06,190.62c5.83,0,11.72,2.51,17.55,7.51,3.3,2.83,8.09,6,12.22,5,4.94-1.24,7.71-7.85,7.74-7.92l10.25,4c-.47,1.22-4.93,12-15.32,14.6-7,1.74-14.39-.7-22-7.27-4.48-3.84-8.61-5.41-12.28-4.67-5.58,1.12-9.87,7.45-11,9.8l-9.86-4.89c.27-.54,6.64-13.22,18.67-15.68A20.6,20.6,0,0,1,827.06,190.62Z"/><polygon class="cls-4" points="821.03 29.47 850.36 45.23 821.03 65.61 821.03 29.47"/><path class="cls-4" d="M1699.81,190.62c5.84,0,11.72,2.51,17.55,7.51,3.3,2.83,8.09,6,12.22,5,4.94-1.24,7.71-7.85,7.74-7.92l10.25,4c-.47,1.22-4.93,12-15.32,14.6-7,1.74-14.39-.7-22-7.27-4.48-3.84-8.6-5.41-12.28-4.67-5.58,1.12-9.87,7.45-11.05,9.8l-9.86-4.89c.27-.54,6.65-13.22,18.67-15.68A20.6,20.6,0,0,1,1699.81,190.62Z"/><polygon class="cls-4" points="1693.78 29.47 1723.11 45.23 1693.78 65.61 1693.78 29.47"/></g></g></g></g></svg>