<?xml version="1.0" encoding="utf-8"?>
<!-- Generator: Adobe Illustrator 22.1.0, SVG Export Plug-In . SVG Version: 6.00 Build 0)  -->
<svg version="1.1" id="Laag_1" xmlns="http://www.w3.org/2000/svg" xmlns:xlink="http://www.w3.org/1999/xlink" x="0px" y="0px"
	 viewBox="0 0 160.2 113.6" style="enable-background:new 0 0 160.2 113.6;" xml:space="preserve">
<style type="text/css">
	.st0{fill:#52B7E9;}
	.st1{fill:#FFFFFF;}
	.st2{fill:#321E41;}
	.st3{fill:#FF3366;}
	.st4{fill:#EAF7F9;}
	.st5{fill:none;}
	.st6{fill:#92E1B7;}
</style>
<title>Asset 65</title>
<g id="Top_layer">
	<rect x="63.2" y="3.6" class="st0" width="61" height="109.9"/>
	<rect x="10.7" y="0" class="st1" width="23.8" height="29.4"/>
	<rect x="124.1" y="47" class="st2" width="21.7" height="66.5"/>
	<rect x="124.1" y="94" class="st0" width="29.5" height="19.5"/>
	<rect x="8.9" y="33.7" class="st2" width="30.9" height="79.8"/>
	<rect x="30.2" y="10.9" class="st3" width="33" height="102.6"/>
	<path class="st4" d="M53.2,33.5V34c0,1.2-1,2.3-2.3,2.3H39.5c-1.2,0-2.3-1-2.3-2.3v-0.5c0-1.2,1-2.3,2.3-2.3h11.4
		C52.2,31.2,53.2,32.3,53.2,33.5z"/>
	<path class="st4" d="M53.2,20.4v0.5c0,1.2-1,2.3-2.3,2.3H39.5c-1.2,0-2.3-1-2.3-2.3v-0.5c0-1.2,1-2.3,2.3-2.3h11.4
		C52.2,18.1,53.2,19.2,53.2,20.4z"/>
	<path class="st4" d="M53.2,45.4v0.5c0,1.2-1,2.3-2.3,2.3H39.5c-1.2,0-2.3-1-2.3-2.3v-0.5c0-1.2,1-2.3,2.3-2.3h11.4
		C52.2,43.2,53.2,44.2,53.2,45.4z"/>
	<path class="st4" d="M53.2,57.4v0.5c0,1.2-1,2.3-2.3,2.3H39.5c-1.2,0-2.3-1-2.3-2.3v-0.5c0-1.2,1-2.3,2.3-2.3h11.4
		C52.2,55.1,53.2,56.1,53.2,57.4z"/>
	<path class="st4" d="M53.2,69.3v0.5c0,1.2-1,2.3-2.3,2.3H39.5c-1.2,0-2.3-1-2.3-2.3v-0.5c0-1.2,1-2.3,2.3-2.3h11.4
		C52.2,67.1,53.2,68.1,53.2,69.3z"/>
	<path class="st4" d="M53.2,81.3v0.5c0,1.2-1,2.3-2.3,2.3H39.5c-1.2,0-2.3-1-2.3-2.3v-0.5c0-1.2,1-2.3,2.3-2.3h11.4
		C52.2,79,53.2,80,53.2,81.3z"/>
	<path class="st4" d="M53.2,93.2v0.5c0,1.2-1,2.3-2.3,2.3H39.5c-1.2,0-2.3-1-2.3-2.3v-0.5c0-1.2,1-2.3,2.3-2.3h11.4
		C52.2,91,53.2,92,53.2,93.2z"/>
	<rect x="74" y="30" class="st3" width="50.1" height="83.5"/>
	<path class="st4" d="M114.7,54.7l0,5.3c0,1.1-0.9,1.9-1.9,1.9h-0.3c-1.1,0-1.9-0.9-1.9-1.9v-5.3c0-1.1,0.9-1.9,1.9-1.9h0.3
		C113.8,52.8,114.7,53.7,114.7,54.7z"/>
	<path class="st4" d="M114.7,40.3v5.3c0,1.1-0.9,1.9-1.9,1.9h-0.3c-1.1,0-1.9-0.9-1.9-1.9v-5.3c0-1.1,0.9-1.9,1.9-1.9h0.3
		C113.8,38.3,114.7,39.2,114.7,40.3z"/>
	<path class="st4" d="M101.1,54.7l0,5.3c0,1.1-0.9,1.9-1.9,1.9h-0.3C97.8,62,97,61.1,97,60v-5.3c0-1.1,0.9-1.9,1.9-1.9h0.3
		C100.2,52.8,101.1,53.7,101.1,54.7z"/>
	<path class="st4" d="M101.1,40.3v5.3c0,1.1-0.9,1.9-1.9,1.9h-0.3c-1.1,0-1.9-0.9-1.9-1.9v-5.3c0-1.1,0.9-1.9,1.9-1.9h0.3
		C100.2,38.3,101.1,39.2,101.1,40.3z"/>
	<path class="st4" d="M87.5,54.7V60c0,1.1-0.9,1.9-1.9,1.9h-0.3c-1.1,0-1.9-0.9-1.9-1.9v-5.3c0-1.1,0.9-1.9,1.9-1.9h0.3
		C86.6,52.8,87.5,53.7,87.5,54.7z"/>
	<path class="st4" d="M87.5,40.3v5.3c0,1.1-0.9,1.9-1.9,1.9h-0.3c-1.1,0-1.9-0.9-1.9-1.9v-5.3c0-1.1,0.9-1.9,1.9-1.9h0.3
		C86.6,38.3,87.5,39.2,87.5,40.3z"/>
	<path class="st4" d="M114.7,69.9v5.3c0,1.1-0.9,1.9-1.9,1.9h-0.3c-1.1,0-1.9-0.9-1.9-1.9v-5.3c0-1.1,0.9-1.9,1.9-1.9h0.3
		C113.8,68,114.7,68.9,114.7,69.9z"/>
	<path class="st4" d="M101.1,69.9v5.3c0,1.1-0.9,1.9-1.9,1.9h-0.3c-1.1,0-1.9-0.9-1.9-1.9v-5.3c0-1.1,0.9-1.9,1.9-1.9h0.3
		C100.2,68,101.1,68.9,101.1,69.9z"/>
	<path class="st4" d="M87.5,69.9v5.3c0,1.1-0.9,1.9-1.9,1.9h-0.3c-1.1,0-1.9-0.9-1.9-1.9v-5.3c0-1.1,0.9-1.9,1.9-1.9h0.3
		C86.6,68,87.5,68.9,87.5,69.9z"/>
	<path class="st4" d="M114.7,85.8v5.3c0,1.1-0.9,1.9-1.9,1.9h-0.3c-1.1,0-1.9-0.9-1.9-1.9v-5.3c0-1.1,0.9-1.9,1.9-1.9h0.3
		C113.8,83.9,114.7,84.8,114.7,85.8z"/>
	<path class="st4" d="M101.1,85.8v5.3c0,1.1-0.9,1.9-1.9,1.9h-0.3c-1.1,0-1.9-0.9-1.9-1.9v-5.3c0-1.1,0.9-1.9,1.9-1.9h0.3
		C100.2,83.9,101.1,84.8,101.1,85.8z"/>
	<path class="st4" d="M87.5,85.8v5.3c0,1.1-0.9,1.9-1.9,1.9h-0.3c-1.1,0-1.9-0.9-1.9-1.9v-5.3c0-1.1,0.9-1.9,1.9-1.9h0.3
		C86.6,83.9,87.5,84.8,87.5,85.8z"/>
	<rect x="94.5" y="104.4" class="st2" width="10.2" height="9.1"/>
	<path class="st4" d="M114.7,42.9c0,1.1-0.9,1.9-1.9,1.9c-0.5,0-1-0.1-1.5-0.4l3.4-3.7V42.9z"/>
	<path class="st4" d="M140.8,106.2v-3.6c0-0.7,0.6-1.3,1.3-1.3h0.2c0.7,0,1.3,0.6,1.3,1.3v3.6c0,0.7-0.6,1.3-1.3,1.3h-0.2
		C141.4,107.5,140.8,106.9,140.8,106.2z"/>
	<path class="st4" d="M133.1,106.2v-3.6c0-0.7,0.6-1.3,1.3-1.3h0.2c0.7,0,1.3,0.6,1.3,1.3v3.6c0,0.7-0.6,1.3-1.3,1.3h-0.2
		C133.6,107.5,133.1,106.9,133.1,106.2z"/>
	<circle class="st1" cx="16.7" cy="45.7" r="2.4"/>
	<circle class="st1" cx="16.7" cy="57.6" r="2.4"/>
	<circle class="st1" cx="16.7" cy="69.6" r="2.4"/>
	<circle class="st1" cx="16.7" cy="81.5" r="2.4"/>
	<circle class="st1" cx="16.7" cy="93.5" r="2.4"/>
	<rect x="0" y="0" class="st5" width="160.2" height="113.3"/>
	<path class="st6" d="M102.6,13.4"/>
	<path class="st6" d="M92.1,17.3"/>
	<g>
		<path d="M78.7,22.2c0,4.3,3.5,7.8,7.8,7.8s7.8-3.5,7.8-7.8c0-2.9-1.7-5.5-4-6.8l0.3-0.7h0.1l0.1-0.3l0,0v-0.1l8,7.8
			c-0.3,0.3-0.6,0.8-0.6,1.3h-1.1l-0.6-0.7c-0.1-0.1-0.3-0.1-0.6,0C96,22.9,96,22.9,96,23c0,0.1,0,0.2,0.1,0.2l1.3,1.6
			c0.1,0.1,0.1,0.1,0.2,0.1c0.1,0,0.2,0,0.2-0.1c0.1-0.1,0.2-0.3,0-0.6L97.8,24c0.1,0,0.2,0,0.6,0c0.2,1.2,1.2,2.1,2.6,2.1
			c0.3,0,0.6,0,0.8-0.1c0.3,0,0.4-0.1,0.4-0.1s0.7-0.1,1.6-0.3c1.2,2.6,3.9,4.2,6.9,4.2c4.2,0,7.7-3.5,7.7-7.7
			c0-4.2-3.5-7.7-7.7-7.7c-1.2,0-2.2,0.2-3.2,0.8l-2-3.7l0.3-0.9l0,0l0.8-2.3c0.7,0.1,1.1,0.2,1.2,0.1c0.2-0.1,1.4-1,1.4-1
			c0.1-0.2,0-0.3-0.6-0.4c-0.6,0-1.1,0.2-1.7,0.4c-0.6,0.2-3.9-0.2-4.3-0.2S102,7.3,102,7.5s0.6,0.6,0.9,0.6c0.2,0,1.7,0,2.8,0.1
			l-0.8,2.3l0,0l-0.1,0.4H92v-0.1l-0.8-0.1L90,14.1h-0.1l-0.1,0.2h0.1l-0.3,0.8c-1-0.4-2-0.7-3.1-0.7C82.2,14.4,78.7,17.9,78.7,22.2
			z M96.9,23.5L96.9,23.5c-0.2,0-0.3,0.1-0.3,0.3v0.1L96,23.2c0,0-0.1-0.1,0-0.2c0-0.1,0-0.1,0.1-0.2c0,0,0.1-0.1,0.2-0.1
			c0.1,0,0.1,0,0.1,0.1L96.9,23.5z M97.2,23.8l0.6,0.7c0.1,0.1,0.1,0.2,0,0.3c-0.1,0.1-0.2,0.1-0.3,0l-0.6-0.7H97
			C97.1,24.1,97.2,24,97.2,23.8z M107.4,16.3l2.7,4.9l0,0c-0.2,0-0.6,0-1,0l-3.6-3.3C105.9,17.2,106.6,16.7,107.4,16.3z M110.9,24.2
			L110.9,24.2l-0.1-0.2l0,0L110.9,24.2z M110.8,23.9L110.8,23.9c0.1,0,0.1-0.1,0.1-0.1v0.3L110.8,23.9z M109.6,24.1l0.3-0.7l0.1-0.1
			c0.2,0.1,0.4,0.2,0.7,0.2c0.6,0,1-0.4,1-1s-0.4-1-1-1l0,0l-0.1-0.1l0,0l0,0l0,0c0.1,0,0.2,0,0.2,0c0.6,0.1,0.9,0.4,1,1
			c0,0.1,0,0.1,0,0.2v0.1c0,0.1,0,0.1-0.1,0.2l0,0c-0.1,0.2-0.2,0.4-0.6,0.6C110.8,23.8,110.3,23.9,109.6,24.1z M112.2,23l-0.3-0.2
			c0-0.1,0-0.2,0-0.3c0,0,0,0,0-0.1l0.8,0.6L112.2,23z M112.7,23L112.7,23h-0.3H112.7z M111.9,23h-0.2v-0.1L111.9,23z M111.8,22.1
			c0-0.1,0-0.1-0.1-0.2l0.2-0.4l0.3-0.1L111.8,22.1z M111.9,21.3l0.1-0.3l0.4-0.2l-0.2,0.4L111.9,21.3z M111.4,21.6
			c0,0-0.1-0.1-0.2-0.1l0.8-0.3l-0.1,0.3L111.4,21.6z M111.7,21.6l-0.1,0.2c0-0.1-0.1-0.1-0.1-0.2H111.7z M110.2,20.8l0.1-0.8
			l0.3,0.6l-0.2,0.7l0,0L110.2,20.8z M110.6,22.2c0.2,0,0.3,0.1,0.3,0.3s-0.1,0.3-0.3,0.3c-0.2,0-0.3-0.1-0.3-0.3
			C110.3,22.4,110.4,22.2,110.6,22.2z M110.7,20.7l0.3,0.7c-0.1,0-0.2,0-0.2-0.1c0,0-0.1,0-0.2,0L110.7,20.7z M109.5,21.8l-0.4-0.4
			c0.3,0,0.7,0,1,0l0.1,0.2c-0.1,0-0.1,0.1-0.2,0.1L109.5,21.8z M109.8,21.9C109.8,21.9,109.7,21.9,109.8,21.9h-0.1H109.8z
			 M109.4,24.1c-0.1,0-0.2,0.1-0.3,0.1l0.4-0.8l0.2-0.1L109.4,24.1z M109.5,23.4l0.1-0.2h0.1c0,0,0,0.1,0.1,0.1v0.1L109.5,23.4z
			 M109.7,22c0,0.1,0,0.1-0.1,0.2l-0.4-0.3h0.3L109.7,22z M108.9,21.8l-0.6-0.4c0.2,0,0.3,0,0.6,0l0.4,0.4H108.9z M108.8,21.8
			l-5,0.3c0-0.2,0-0.4,0-0.7c1.3,0,2.9,0,4.1,0h0.1L108.8,21.8z M103.9,21.2c0.1-0.9,0.4-1.7,0.9-2.5l3.2,2.5
			C106.7,21.2,105.2,21.2,103.9,21.2z M104.8,18.7c0.1-0.2,0.3-0.4,0.4-0.7l3.5,3.2c-0.2,0-0.3,0-0.6,0L104.8,18.7z M108.2,15.9
			l2,3.9l-0.1,0.8l-2.3-4.5C107.9,16,108,16,108.2,15.9z M111.1,15.6l-0.8,4l-2-3.7c0.7-0.2,1.4-0.3,2.2-0.3
			C110.7,15.4,110.8,15.4,111.1,15.6z M111.9,15.7l-1.2,4.7l-0.3-0.6l0.8-4.2C111.4,15.6,111.7,15.6,111.9,15.7z M114.2,16.6
			l-2.1,4.3l-0.9,0.3l-0.4-0.8l1.2-4.9C112.8,15.9,113.6,16.1,114.2,16.6z M115.1,17.2l-2.2,3.5l-0.6,0.2l2.1-4.2
			C114.6,16.8,114.8,17,115.1,17.2z M116.6,19.2l-3.7,1.4l2.1-3.3C115.7,17.8,116.2,18.4,116.6,19.2z M117,20.1l-4.3,1.1l0.2-0.4
			l3.8-1.4C116.7,19.6,116.9,19.8,117,20.1z M117.3,22.6l-4.5,0.4l-0.9-0.7l0.6-0.9l4.6-1.2c0.2,0.7,0.3,1.3,0.3,2
			C117.3,22.4,117.3,22.5,117.3,22.6z M117.2,23.6L117.2,23.6l-4.1-0.4L113,23l4.3-0.3C117.3,23,117.3,23.2,117.2,23.6z M116.4,25.7
			l-3.1-2.3l3.9,0.3C117.1,24.4,116.7,25,116.4,25.7z M116,26.4l-3.6-3.1l0.7,0.1l3.2,2.6C116.2,26,116.1,26.1,116,26.4z
			 M113.8,28.1l-2.8-3.9v-0.4l0,0c0.3-0.2,0.6-0.3,0.7-0.6h0.1l0,0h0.4l3.7,3.2C115.3,27.1,114.6,27.7,113.8,28.1z M113.2,28.5
			L113.2,28.5l-2.1-3.9v-0.1l2.7,3.8C113.5,28.3,113.4,28.4,113.2,28.5z M110.6,29l0.4-4.1l2,3.7C112.3,28.8,111.5,29,110.6,29z
			 M109.9,28.9l0.8-4.6l0.1,0.3l-0.4,4.3C110.3,29,110.1,29,109.9,28.9z M107.7,28.4l1.8-4.1c0.3-0.1,0.8-0.2,1-0.3l0.1,0.1
			l-0.9,4.8C109.1,28.9,108.4,28.7,107.7,28.4z M106.9,27.9L106.9,27.9l2-3.6c0.1,0,0.2-0.1,0.3-0.1l-1.8,4
			C107.4,28.3,107.2,28.1,106.9,27.9z M104.6,25.5c0.8-0.2,1.7-0.4,2.6-0.7l0.4-0.1c0.4-0.1,0.8-0.2,1.2-0.3l-1.9,3.5
			C105.9,27.4,105.2,26.5,104.6,25.5z M104.4,24.9l4.9-1.3l-0.4,0.8c-0.4,0.1-0.9,0.2-1.3,0.3l-0.4,0.1c-0.9,0.2-1.8,0.4-2.6,0.7
			C104.5,25.2,104.4,25.1,104.4,24.9z M104,23.8l5.6-0.7l-0.1,0.3l-5,1.4C104.1,24.5,104,24.1,104,23.8z M103.9,23.4l5.7-0.7
			l0.1,0.2V23l-5.7,0.7C103.9,23.6,103.9,23.5,103.9,23.4z M103.8,22.2L103.8,22.2l5.1-0.3l0.7,0.4v0.1l0,0l-5.7,0.7
			C103.8,22.9,103.8,22.6,103.8,22.2z M102.9,21.2c-0.3,0-0.6,0-0.9,0l3.2-9.7l-0.2,0.6l1.8,3.2C104.7,16.7,103.3,18.8,102.9,21.2z
			 M101.1,23.4h0.2l0.6-1.7c0.4,0.2,0.8,0.6,1,1l0,0l-1.4,0.7H101.1C101.1,23.5,101.1,23.4,101.1,23.4L101.1,23.4L101.1,23.4
			L101.1,23.4z M100.8,22.2l-0.1-0.8c0,0,0,0,0.1,0s0.2,0,0.3,0L100.8,22.2z M101.4,24c0.1-0.1,0.1-0.2,0-0.2l0.4-0.2l1.1-0.1
			c0,0.1,0,0.2,0.1,0.3L101.4,24z M103,23.9c0,0.1,0,0.1,0,0.2c-0.1,0.4-0.2,0.8-0.4,1.1l-1.2-1.1L103,23.9z M102.1,23.4l0.7-0.3
			c0,0.1,0,0.2,0,0.2L102.1,23.4z M102,21.6v-0.1c0.2,0,0.6,0,0.9,0c0,0.3,0,0.6,0,0.9C102.6,21.9,102.4,21.7,102,21.6z M102.1,25.9
			c0.6-0.3,0.9-0.8,1.1-1.3c0.1,0.3,0.2,0.7,0.3,1C102.8,25.8,102.3,25.9,102.1,25.9z M99.8,25.9l1-1.7c0.1,0,0.2,0,0.3,0l1.3,1.2
			c-0.4,0.4-1,0.7-1.7,0.7C100.5,26,100.1,26,99.8,25.9z M98.5,24.2c0.7,0,1.4,0,2,0l-0.9,1.6C99,25.5,98.6,24.9,98.5,24.2z
			 M99,22.4l1.1,1.1h0.6h0.1l0,0l-2.2,0.1C98.5,23,98.7,22.6,99,22.4z M99.7,21.8c0.2-0.1,0.4-0.2,0.8-0.2l0.1,1.1L99.7,21.8z
			 M91,13.4l0.7-1.7h12.8l-3.3,9.5c-0.1,0-0.2,0-0.3,0c-0.4,0-0.9,0.1-1.3,0.3L91,13.4z M80.6,18.7l3.5,2.8l-4.3-0.2v0.1l4.6,0.2
			l0.3,0.2L79.7,22C79.7,20.9,80.1,19.7,80.6,18.7z M85.4,22h0.1C85.5,22,85.5,22,85.4,22L85.4,22z M85.5,23
			C85.5,23,85.5,23.1,85.5,23L85.5,23L85.5,23z M85.3,21.9l-0.2-0.2h0.7l-0.1,0.1L85.3,21.9z M85.9,23.5l-0.7,0.2l0.2-0.4h0.2
			C85.6,23.2,85.8,23.4,85.9,23.5z M85.1,23.8L84.6,24l0.3-0.6l0.3-0.1L85.1,23.8z M85.1,23.2l0.3-0.6c0,0.1,0,0.1,0,0.2l-0.1,0.2
			L85.1,23.2z M85,22h0.3l0.2,0.2c0,0.1,0,0.1,0,0.2L85,22z M84.8,21.9l-0.3-0.2h0.4l0.2,0.2H84.8z M81.2,18l3.7,3.6h-0.4l-3.7-2.9
			C80.9,18.3,81,18.1,81.2,18z M83.2,16.2l2.8,4.5l-0.1,0.9H85l-3.8-3.7C81.7,17.2,82.5,16.7,83.2,16.2z M87,24.5v0.4l-0.2-0.4
			l0.1-0.2L87,24.5z M86.9,24l0.1-0.4c0.1,0,0.1-0.1,0.1-0.1L87,24.2L86.9,24z M86.5,23.7c0.1,0,0.2,0,0.2,0L86.7,24L86.5,23.7z
			 M86.8,24l-0.1,0.2l-0.3-0.7h0.1L86.8,24z M86.2,22.6c0-0.2,0.1-0.3,0.3-0.3s0.3,0.1,0.3,0.3s-0.1,0.3-0.3,0.3
			C86.3,22.9,86.2,22.8,86.2,22.6z M86.5,21.5L86.5,21.5c-0.1,0-0.1,0-0.2,0l0.1-0.3L86.5,21.5z M86.3,20.9l-0.1-0.2v-0.3l0.1,0.3
			V20.9z M86.4,21l0.1-0.2l0.3,0.7h-0.1L86.4,21z M86.1,21.5c0,0-0.1,0-0.1,0.1l0.1-0.8l0.1,0.2L86.1,21.5z M83.9,15.9l2.2,4.2v0.3
			l-2.7-4.3C83.5,16.1,83.6,16,83.9,15.9z M86.9,15.4L86.1,20l-2.2-4c0.8-0.3,1.7-0.4,2.6-0.4C86.7,15.3,86.8,15.3,86.9,15.4z
			 M87.7,15.4l-1.2,4.9L86.2,20l0.8-4.7C87.2,15.4,87.4,15.4,87.7,15.4z M89.2,15.9l-2.3,5.3l-0.4-0.8l1.3-5.1
			C88.3,15.6,88.8,15.8,89.2,15.9z M88.4,23.2l-0.9-0.1c0-0.1,0.1-0.1,0.1-0.2h0.6L88.4,23.2z M88.3,22.9L88.3,22.9l0.4,0.3h-0.1
			L88.3,22.9z M88,21.5l-0.4,0.8l0,0l0,0c0,0,0,0,0-0.1l0.3-0.6L88,21.5z M87.9,21.3l0.2-0.2l0.2-0.1l-0.2,0.3H87.9z M87.8,21.5
			l-0.6,0.1l0.1-0.2l0.6-0.2L87.8,21.5z M87.7,22.6v-0.1l0.3,0.3h-0.3C87.7,22.7,87.7,22.6,87.7,22.6z M87.2,21.7L87.2,21.7
			L87.2,21.7l0.4-0.1l-0.2,0.3C87.4,21.9,87.3,21.8,87.2,21.7z M90.2,16.4L88,21l-0.6,0.2l2.5-5C90,16.3,90.1,16.4,90.2,16.4z
			 M90.9,17l-2.5,3.8l-0.3,0.1l2.2-4.3C90.6,16.7,90.7,16.8,90.9,17z M92.6,19.1l-3.9,1.6L91,17C91.7,17.7,92.2,18.3,92.6,19.1z
			 M93,20l-4.7,1.2l0.2-0.3l4.1-1.7C92.8,19.5,92.9,19.8,93,20z M93.3,22.9l-5-0.1l-0.7-0.6l0.6-0.8l4.8-1.3
			c0.2,0.7,0.3,1.3,0.3,2.1C93.3,22.5,93.3,22.7,93.3,22.9z M93.2,23.7L89,23.4L88.5,23l4.8,0.1C93.2,23.2,93.2,23.5,93.2,23.7z
			 M92.2,25.8l-3.1-2.5l4,0.3C93,24.5,92.7,25.2,92.2,25.8z M91.8,26.5l-3.1-3.1h0.1l3.3,2.6C92.1,26.1,92,26.4,91.8,26.5z
			 M89.9,28.1l-2.8-3.7l0.1-1.1c0,0,0-0.1,0.1-0.1l1.1,0.1l3.2,3.2l0.1-0.1C91.2,27.1,90.6,27.7,89.9,28.1z M88.9,28.6L87,25
			l0.1-0.4l2.6,3.6C89.4,28.4,89.2,28.5,88.9,28.6z M86.5,29l0.4-3.7l1.8,3.3C88.1,28.9,87.3,29,86.5,29z M83.1,28.1l2.1-4.2
			l0.8-0.3c0.1,0,0.1,0.1,0.2,0.1l0,0l0.4,0.9L85.5,29h0.1l1.1-4.3l0.2,0.4L86.4,29C85.2,29,84.1,28.7,83.1,28.1z M82.3,27.6
			l2.2-3.5l0.4-0.2L83,28C82.7,27.9,82.5,27.7,82.3,27.6z M80.6,25.7l3.7-1.6l-2.1,3.3C81.6,27,81.1,26.5,80.6,25.7z M80.2,24.8
			l4.6-1.3L84.4,24l-3.8,1.6C80.4,25.4,80.3,25.1,80.2,24.8z M80.2,24.7c-0.3-0.8-0.4-1.7-0.4-2.6c0,0,0,0,0-0.1v0.1l5.1-0.2
			l0.7,0.4l-0.4,0.8L80.2,24.7z"/>
		<path d="M91.2,10.6l0.4-1.1h-1.8V9.3h-3.5c0,0-0.8,0.4-0.4,1.2c0.2,0.8,0.6,1,1.1,1.4c0.6,0.6,1.1,1,1.1,1l-0.4,0.4
			c0,0-1.2-1-2-1.9c-0.4-0.6-0.8-1.2-0.6-1.9c0.1-0.6,0.4-1.1,1.6-1.1c1.1,0,6.2,0,6.2,0l-0.9,2.1H91.2z"/>
	</g>
	<path class="st4" d="M140.9,75v0.3c0,0.9-0.7,1.6-1.6,1.6h-8.3c-0.9,0-1.6-0.7-1.6-1.6V75c0-0.9,0.7-1.6,1.6-1.6h8.3
		C140.1,73.3,140.9,74.1,140.9,75z"/>
	<path class="st4" d="M140.9,83.7V84c0,0.9-0.7,1.6-1.6,1.6h-8.3c-0.9,0-1.6-0.7-1.6-1.6v-0.3c0-0.9,0.7-1.6,1.6-1.6h8.3
		C140.1,82,140.9,82.8,140.9,83.7z"/>
</g>
</svg>
