<?xml version="1.0" encoding="utf-8"?>
<!-- Generator: Adobe Illustrator 22.1.0, SVG Export Plug-In . SVG Version: 6.00 Build 0)  -->
<svg version="1.1" id="Laag_1" xmlns="http://www.w3.org/2000/svg" xmlns:xlink="http://www.w3.org/1999/xlink" x="0px" y="0px"
	 viewBox="0 0 595.3 841.9" style="enable-background:new 0 0 595.3 841.9;" xml:space="preserve">
<style type="text/css">
	.st0{fill:#321E41;}
	.st1{fill:#52B7E9;}
	.st2{fill:#FF3366;}
	.st3{fill:#26C100;}
	.st4{fill:url(#SVGID_1_);}
	.st5{fill:url(#SVGID_2_);}
	.st6{fill:#FFFFFF;}
	.st7{font-family:'Arial-Black';}
	.st8{font-size:45.3778px;}
	.st9{font-family:'ArialMT';}
	.st10{font-size:11.3445px;}
	.st11{fill:none;}
	.st12{fill:#30ACE2;}
	.st13{fill:#5EE000;}
	.st14{font-family:'Arial-BoldItalicMT';}
	.st15{font-size:21px;}
</style>
<rect y="0" class="st0" width="562.8" height="795.9"/>
<path class="st1" d="M90.5,553.4h437.9c-15.6-43-63.2-84.3-126.9-104.7c-37.3-12-74.3-14.9-106.1-10.1c-22.1-15.1-50-24.1-80.5-24.1
	c-24.7,0-47.8,5.9-67.5,16.3c-9.5-23.5-26.5-46.2-50-64C66.7,343.4,31.1,333-0.4,335.4v200h87.1C87.4,541.6,88.7,547.6,90.5,553.4z"
	/>
<path class="st2" d="M533.5,645.9c-19.3-38.7-63.9-74.7-122-93.3c-45.1-14.5-89.7-15.7-125.3-6c-21.7-14.1-48.8-22.5-78.2-22.5
	c-19.9,0-38.7,3.8-55.5,10.7c-10.8-18.2-25.8-35.2-44.7-49.5C74.1,459.6,35,448,0.3,450.5L0.2,645.9H533.5z"/>
<g id="Layer_1-2">
	<g>
		<path class="st0" d="M-0.4,697.7h534.5c-6.6-10.3-14.1-20-22.4-28.9c-0.7-0.1-1.2-0.6-1.2-1.3c-2.3-2.4-4.7-4.8-7.1-7.2
			c-0.8,0-1.4-0.6-1.4-1.4c-9.7-9.2-20.2-17.4-31.5-24.6c-0.3,0.3-0.6,0.4-1,0.4c-0.8,0-1.5-0.7-1.5-1.5c0-0.2,0-0.3,0.1-0.5
			c-4.6-2.8-9.3-5.5-14.1-8c0,0.8-0.7,1.4-1.5,1.4s-1.5-0.7-1.5-1.5c0-0.5,0.2-0.9,0.6-1.1c-4.8-2.4-9.8-4.6-14.8-6.7
			c-0.3,0.5-0.7,0.8-1.3,0.8c-0.8,0-1.5-0.7-1.5-1.5c0-0.1,0-0.2,0.1-0.4c-7.4-2.9-15-5.3-22.8-7.4c-0.3,0.4-0.7,0.7-1.2,0.7
			c-0.8,0-1.4-0.6-1.5-1.4c-2.1-0.5-4.3-1-6.5-1.5c0.5,0.2,0.9,0.7,0.9,1.3c0,0.8-0.7,1.5-1.5,1.5s-1.5-0.7-1.5-1.5
			c0-0.8,0.7-1.5,1.5-1.5l0,0c-13.7-2.9-28-4.4-42.6-4.4s-28.8,1.5-42.5,4.4c0.8,0,1.5,0.7,1.5,1.5c0,0.8-0.7,1.5-1.5,1.5
			s-1.5-0.7-1.5-1.5c0-0.6,0.4-1.1,0.9-1.3c-2.2,0.5-4.3,0.9-6.4,1.5c-0.1,0.8-0.7,1.4-1.5,1.4c-0.5,0-1-0.3-1.2-0.7
			c-6.7,1.7-13.3,3.8-19.8,6.2c-4.2-2.1-8.6-4-13-5.7c-0.2,0-0.5-0.1-0.6-0.2c-2.3-0.9-4.6-1.7-6.9-2.5c0.4,0.3,0.7,0.7,0.7,1.2
			c0,0.8-0.7,1.5-1.5,1.5s-1.5-0.7-1.5-1.5s0.7-1.5,1.5-1.5h0.1c-8-2.6-16.2-4.6-24.7-5.9c-0.2,0.2-0.6,0.3-0.9,0.3
			c-0.5,0-0.9-0.3-1.2-0.6c-1.9-0.3-3.9-0.5-5.8-0.7c-0.1,0.8-0.7,1.3-1.5,1.3s-1.5-0.7-1.5-1.5c0-0.1,0-0.1,0-0.2
			c-1.9-0.2-3.8-0.3-5.7-0.4c0.1,0.2,0.1,0.4,0.1,0.6c0,0.8-0.7,1.5-1.5,1.5s-1.5-0.7-1.5-1.5c0-0.2,0.1-0.5,0.2-0.7
			c-1.9-0.1-3.8-0.1-5.7-0.1c-0.1,0-0.2,0-0.2,0c0.1,0.2,0.2,0.5,0.2,0.8c0,0.8-0.7,1.5-1.5,1.5s-1.5-0.7-1.5-1.5
			c0-0.3,0.1-0.5,0.2-0.7c-2,0-3.9,0.1-5.9,0.2c0.1,0.2,0.1,0.4,0.1,0.5c0,0.8-0.7,1.5-1.5,1.5s-1.5-0.7-1.5-1.5
			c0-0.1,0-0.3,0.1-0.4c-1.9,0.1-3.8,0.3-5.6,0.5c-0.1,0.8-0.7,1.4-1.5,1.4c-0.7,0-1.2-0.4-1.4-1c-2.3,0.3-4.5,0.6-6.8,1
			c-0.1,0-0.1,0-0.2,0c-8.4,1.4-16.6,3.5-24.5,6.1c0.2,0.2,0.3,0.6,0.3,0.9c0,0.8-0.7,1.5-1.5,1.5s-1.5-0.7-1.5-1.5
			c-0.7,0.3-1.4,0.5-2.2,0.8c-11-13.1-23.6-24.8-37.4-34.8c0,0.8-0.7,1.5-1.5,1.5s-1.5-0.7-1.5-1.5c0-0.6,0.4-1.2,1-1.4
			c-2.8-2-5.7-3.9-8.7-5.8c-0.1,0-0.2-0.1-0.3-0.2c-4.9-3.1-9.9-6-15-8.7c-0.3,0.3-0.6,0.5-1.1,0.5c-0.8,0-1.5-0.7-1.5-1.5
			c0-0.1,0-0.2,0-0.3c-4.9-2.5-9.9-4.8-15-6.8c-0.2,0.1-0.3,0.1-0.5,0.1c-0.6,0-1.1-0.3-1.3-0.8c-7.7-3-15.6-5.6-23.7-7.8
			c-0.2,0.1-0.3,0.1-0.5,0.1c-0.5,0-0.9-0.2-1.1-0.5c-2-0.5-4-1-6-1.4c0.1,0.2,0.1,0.3,0.1,0.5c0,0.8-0.7,1.5-1.5,1.5
			s-1.5-0.7-1.5-1.5c0-0.4,0.2-0.7,0.4-1c-13.5-2.5-27.9-4.1-42.6-4.1c-0.3,0-0.5,0-0.8,0C-0.4,534.1-0.4,697.7-0.4,697.7z
			 M528.9,691.4c0.8,0,1.5,0.7,1.5,1.5c0,0.8-0.7,1.5-1.5,1.5s-1.5-0.7-1.5-1.5C527.5,692,528.1,691.4,528.9,691.4z M520.4,682.9
			c0.8,0,1.5,0.7,1.5,1.5c0,0.8-0.7,1.5-1.5,1.5s-1.5-0.7-1.5-1.5C518.9,683.6,519.6,682.9,520.4,682.9z M520.4,691.4
			c0.8,0,1.5,0.7,1.5,1.5c0,0.8-0.7,1.5-1.5,1.5s-1.5-0.7-1.5-1.5C519,692,519.6,691.4,520.4,691.4z M511.9,674.4
			c0.8,0,1.5,0.7,1.5,1.5c0,0.8-0.7,1.5-1.5,1.5c-0.8,0-1.5-0.7-1.5-1.5C510.5,675,511.1,674.4,511.9,674.4z M511.9,682.9
			c0.8,0,1.5,0.7,1.5,1.5c0,0.8-0.7,1.5-1.5,1.5c-0.8,0-1.5-0.7-1.5-1.5C510.4,683.6,511.1,682.9,511.9,682.9z M511.9,691.4
			c0.8,0,1.5,0.7,1.5,1.5c0,0.8-0.7,1.5-1.5,1.5c-0.8,0-1.5-0.7-1.5-1.5C510.5,692,511.1,691.4,511.9,691.4z M503.4,665.9
			c0.8,0,1.5,0.7,1.5,1.5c0,0.8-0.7,1.5-1.5,1.5s-1.5-0.7-1.5-1.5C501.9,666.6,502.6,665.9,503.4,665.9z M503.4,674.4
			c0.8,0,1.5,0.7,1.5,1.5c0,0.8-0.7,1.5-1.5,1.5s-1.5-0.7-1.5-1.5C502,675,502.6,674.4,503.4,674.4z M503.4,682.9
			c0.8,0,1.5,0.7,1.5,1.5c0,0.8-0.7,1.5-1.5,1.5s-1.5-0.7-1.5-1.5C501.9,683.6,502.6,682.9,503.4,682.9z M503.4,691.4
			c0.8,0,1.5,0.7,1.5,1.5c0,0.8-0.7,1.5-1.5,1.5s-1.5-0.7-1.5-1.5C502,692,502.6,691.4,503.4,691.4z M494.9,657.3
			c0.8,0,1.5,0.7,1.5,1.5s-0.7,1.5-1.5,1.5s-1.5-0.7-1.5-1.5S494.1,657.3,494.9,657.3z M494.9,665.9c0.8,0,1.5,0.7,1.5,1.5
			c0,0.8-0.7,1.5-1.5,1.5s-1.5-0.7-1.5-1.5C493.4,666.6,494.1,665.9,494.9,665.9z M494.9,674.4c0.8,0,1.5,0.7,1.5,1.5
			c0,0.8-0.7,1.5-1.5,1.5s-1.5-0.7-1.5-1.5C493.4,675,494.1,674.4,494.9,674.4z M494.9,682.9c0.8,0,1.5,0.7,1.5,1.5
			c0,0.8-0.7,1.5-1.5,1.5s-1.5-0.7-1.5-1.5C493.4,683.6,494.1,682.9,494.9,682.9z M494.9,691.4c0.8,0,1.5,0.7,1.5,1.5
			c0,0.8-0.7,1.5-1.5,1.5s-1.5-0.7-1.5-1.5C493.4,692,494.1,691.4,494.9,691.4z M486.4,648.8c0.8,0,1.5,0.7,1.5,1.5
			s-0.7,1.5-1.5,1.5s-1.5-0.7-1.5-1.5S485.6,648.8,486.4,648.8z M486.4,657.3c0.8,0,1.5,0.7,1.5,1.5s-0.7,1.5-1.5,1.5
			s-1.5-0.7-1.5-1.5S485.6,657.3,486.4,657.3z M486.4,665.9c0.8,0,1.5,0.7,1.5,1.5c0,0.8-0.7,1.5-1.5,1.5s-1.5-0.7-1.5-1.5
			C484.9,666.6,485.6,665.9,486.4,665.9z M486.4,674.4c0.8,0,1.5,0.7,1.5,1.5c0,0.8-0.7,1.5-1.5,1.5s-1.5-0.7-1.5-1.5
			C484.9,675,485.6,674.4,486.4,674.4z M486.4,682.9c0.8,0,1.5,0.7,1.5,1.5c0,0.8-0.7,1.5-1.5,1.5s-1.5-0.7-1.5-1.5
			C484.9,683.6,485.6,682.9,486.4,682.9z M486.4,691.4c0.8,0,1.5,0.7,1.5,1.5c0,0.8-0.7,1.5-1.5,1.5s-1.5-0.7-1.5-1.5
			C484.9,692,485.6,691.4,486.4,691.4z M477.9,640.3c0.8,0,1.5,0.7,1.5,1.5s-0.7,1.5-1.5,1.5s-1.5-0.7-1.5-1.5
			S477.1,640.3,477.9,640.3z M477.9,648.8c0.8,0,1.5,0.7,1.5,1.5s-0.7,1.5-1.5,1.5s-1.5-0.7-1.5-1.5S477.1,648.8,477.9,648.8z
			 M477.9,657.3c0.8,0,1.5,0.7,1.5,1.5s-0.7,1.5-1.5,1.5s-1.5-0.7-1.5-1.5S477.1,657.3,477.9,657.3z M477.9,665.9
			c0.8,0,1.5,0.7,1.5,1.5c0,0.8-0.7,1.5-1.5,1.5s-1.5-0.7-1.5-1.5C476.4,666.6,477.1,665.9,477.9,665.9z M477.9,674.4
			c0.8,0,1.5,0.7,1.5,1.5c0,0.8-0.7,1.5-1.5,1.5s-1.5-0.7-1.5-1.5C476.4,675,477.1,674.4,477.9,674.4z M477.9,682.9
			c0.8,0,1.5,0.7,1.5,1.5c0,0.8-0.7,1.5-1.5,1.5s-1.5-0.7-1.5-1.5C476.4,683.6,477.1,682.9,477.9,682.9z M477.9,691.4
			c0.8,0,1.5,0.7,1.5,1.5c0,0.8-0.7,1.5-1.5,1.5s-1.5-0.7-1.5-1.5C476.4,692,477.1,691.4,477.9,691.4z M469.4,640.3
			c0.8,0,1.5,0.7,1.5,1.5s-0.7,1.5-1.5,1.5s-1.5-0.7-1.5-1.5S468.6,640.3,469.4,640.3z M469.4,648.8c0.8,0,1.5,0.7,1.5,1.5
			s-0.7,1.5-1.5,1.5s-1.5-0.7-1.5-1.5S468.6,648.8,469.4,648.8z M469.4,657.3c0.8,0,1.5,0.7,1.5,1.5s-0.7,1.5-1.5,1.5
			s-1.5-0.7-1.5-1.5S468.6,657.3,469.4,657.3z M469.4,665.9c0.8,0,1.5,0.7,1.5,1.5c0,0.8-0.7,1.5-1.5,1.5s-1.5-0.7-1.5-1.5
			C467.9,666.6,468.6,665.9,469.4,665.9z M469.4,674.4c0.8,0,1.5,0.7,1.5,1.5c0,0.8-0.7,1.5-1.5,1.5s-1.5-0.7-1.5-1.5
			C467.9,675,468.6,674.4,469.4,674.4z M469.4,682.9c0.8,0,1.5,0.7,1.5,1.5c0,0.8-0.7,1.5-1.5,1.5s-1.5-0.7-1.5-1.5
			C467.9,683.6,468.6,682.9,469.4,682.9z M469.4,691.4c0.8,0,1.5,0.7,1.5,1.5c0,0.8-0.7,1.5-1.5,1.5s-1.5-0.7-1.5-1.5
			C467.9,692,468.6,691.4,469.4,691.4z M460.9,631.8c0.8,0,1.5,0.7,1.5,1.5s-0.7,1.5-1.5,1.5s-1.5-0.7-1.5-1.5
			S460.1,631.8,460.9,631.8z M460.9,640.3c0.8,0,1.5,0.7,1.5,1.5s-0.7,1.5-1.5,1.5s-1.5-0.7-1.5-1.5S460.1,640.3,460.9,640.3z
			 M460.9,648.8c0.8,0,1.5,0.7,1.5,1.5s-0.7,1.5-1.5,1.5s-1.5-0.7-1.5-1.5S460.1,648.8,460.9,648.8z M460.9,657.3
			c0.8,0,1.5,0.7,1.5,1.5s-0.7,1.5-1.5,1.5s-1.5-0.7-1.5-1.5S460.1,657.3,460.9,657.3z M460.9,665.9c0.8,0,1.5,0.7,1.5,1.5
			c0,0.8-0.7,1.5-1.5,1.5s-1.5-0.7-1.5-1.5C459.4,666.6,460.1,665.9,460.9,665.9z M460.9,674.4c0.8,0,1.5,0.7,1.5,1.5
			c0,0.8-0.7,1.5-1.5,1.5s-1.5-0.7-1.5-1.5C459.4,675,460.1,674.4,460.9,674.4z M460.9,682.9c0.8,0,1.5,0.7,1.5,1.5
			c0,0.8-0.7,1.5-1.5,1.5s-1.5-0.7-1.5-1.5C459.4,683.6,460.1,682.9,460.9,682.9z M460.9,691.4c0.8,0,1.5,0.7,1.5,1.5
			c0,0.8-0.7,1.5-1.5,1.5s-1.5-0.7-1.5-1.5C459.4,692,460.1,691.4,460.9,691.4z M452.4,631.8c0.8,0,1.5,0.7,1.5,1.5
			s-0.7,1.5-1.5,1.5s-1.5-0.7-1.5-1.5S451.6,631.8,452.4,631.8z M452.4,640.3c0.8,0,1.5,0.7,1.5,1.5s-0.7,1.5-1.5,1.5
			s-1.5-0.7-1.5-1.5S451.6,640.3,452.4,640.3z M452.4,648.8c0.8,0,1.5,0.7,1.5,1.5s-0.7,1.5-1.5,1.5s-1.5-0.7-1.5-1.5
			S451.6,648.8,452.4,648.8z M452.4,657.3c0.8,0,1.5,0.7,1.5,1.5s-0.7,1.5-1.5,1.5s-1.5-0.7-1.5-1.5S451.6,657.3,452.4,657.3z
			 M452.4,665.9c0.8,0,1.5,0.7,1.5,1.5c0,0.8-0.7,1.5-1.5,1.5s-1.5-0.7-1.5-1.5C450.9,666.6,451.6,665.9,452.4,665.9z M452.4,674.4
			c0.8,0,1.5,0.7,1.5,1.5c0,0.8-0.7,1.5-1.5,1.5s-1.5-0.7-1.5-1.5C450.9,675,451.6,674.4,452.4,674.4z M452.4,682.9
			c0.8,0,1.5,0.7,1.5,1.5c0,0.8-0.7,1.5-1.5,1.5s-1.5-0.7-1.5-1.5C450.9,683.6,451.6,682.9,452.4,682.9z M452.4,691.4
			c0.8,0,1.5,0.7,1.5,1.5c0,0.8-0.7,1.5-1.5,1.5s-1.5-0.7-1.5-1.5C450.9,692,451.6,691.4,452.4,691.4z M443.9,623.3
			c0.8,0,1.5,0.7,1.5,1.5s-0.7,1.5-1.5,1.5s-1.5-0.7-1.5-1.5S443.1,623.3,443.9,623.3z M443.9,631.8c0.8,0,1.5,0.7,1.5,1.5
			s-0.7,1.5-1.5,1.5s-1.5-0.7-1.5-1.5S443.1,631.8,443.9,631.8z M443.9,640.3c0.8,0,1.5,0.7,1.5,1.5s-0.7,1.5-1.5,1.5
			s-1.5-0.7-1.5-1.5S443.1,640.3,443.9,640.3z M443.9,648.8c0.8,0,1.5,0.7,1.5,1.5s-0.7,1.5-1.5,1.5s-1.5-0.7-1.5-1.5
			S443.1,648.8,443.9,648.8z M443.9,657.3c0.8,0,1.5,0.7,1.5,1.5s-0.7,1.5-1.5,1.5s-1.5-0.7-1.5-1.5S443.1,657.3,443.9,657.3z
			 M443.9,665.9c0.8,0,1.5,0.7,1.5,1.5c0,0.8-0.7,1.5-1.5,1.5s-1.5-0.7-1.5-1.5C442.4,666.6,443.1,665.9,443.9,665.9z M443.9,674.4
			c0.8,0,1.5,0.7,1.5,1.5c0,0.8-0.7,1.5-1.5,1.5s-1.5-0.7-1.5-1.5C442.4,675,443.1,674.4,443.9,674.4z M443.9,682.9
			c0.8,0,1.5,0.7,1.5,1.5c0,0.8-0.7,1.5-1.5,1.5s-1.5-0.7-1.5-1.5C442.4,683.6,443.1,682.9,443.9,682.9z M443.9,691.4
			c0.8,0,1.5,0.7,1.5,1.5c0,0.8-0.7,1.5-1.5,1.5s-1.5-0.7-1.5-1.5C442.4,692,443.1,691.4,443.9,691.4z M435.4,623.3
			c0.8,0,1.5,0.7,1.5,1.5s-0.7,1.5-1.5,1.5s-1.5-0.7-1.5-1.5S434.6,623.3,435.4,623.3z M435.4,631.8c0.8,0,1.5,0.7,1.5,1.5
			s-0.7,1.5-1.5,1.5s-1.5-0.7-1.5-1.5S434.6,631.8,435.4,631.8z M435.4,640.3c0.8,0,1.5,0.7,1.5,1.5s-0.7,1.5-1.5,1.5
			s-1.5-0.7-1.5-1.5S434.6,640.3,435.4,640.3z M435.4,648.8c0.8,0,1.5,0.7,1.5,1.5s-0.7,1.5-1.5,1.5s-1.5-0.7-1.5-1.5
			S434.6,648.8,435.4,648.8z M435.4,657.3c0.8,0,1.5,0.7,1.5,1.5s-0.7,1.5-1.5,1.5s-1.5-0.7-1.5-1.5S434.6,657.3,435.4,657.3z
			 M435.4,665.9c0.8,0,1.5,0.7,1.5,1.5c0,0.8-0.7,1.5-1.5,1.5s-1.5-0.7-1.5-1.5C433.9,666.6,434.6,665.9,435.4,665.9z M435.4,674.4
			c0.8,0,1.5,0.7,1.5,1.5c0,0.8-0.7,1.5-1.5,1.5s-1.5-0.7-1.5-1.5C433.9,675,434.6,674.4,435.4,674.4z M435.4,682.9
			c0.8,0,1.5,0.7,1.5,1.5c0,0.8-0.7,1.5-1.5,1.5s-1.5-0.7-1.5-1.5C433.9,683.6,434.6,682.9,435.4,682.9z M435.4,691.4
			c0.8,0,1.5,0.7,1.5,1.5c0,0.8-0.7,1.5-1.5,1.5s-1.5-0.7-1.5-1.5C433.9,692,434.6,691.4,435.4,691.4z M426.9,614.8
			c0.8,0,1.5,0.7,1.5,1.5s-0.7,1.5-1.5,1.5s-1.5-0.7-1.5-1.5S426.1,614.8,426.9,614.8z M426.9,623.3c0.8,0,1.5,0.7,1.5,1.5
			s-0.7,1.5-1.5,1.5s-1.5-0.7-1.5-1.5S426.1,623.3,426.9,623.3z M426.9,631.8c0.8,0,1.5,0.7,1.5,1.5s-0.7,1.5-1.5,1.5
			s-1.5-0.7-1.5-1.5S426.1,631.8,426.9,631.8z M426.9,640.3c0.8,0,1.5,0.7,1.5,1.5s-0.7,1.5-1.5,1.5s-1.5-0.7-1.5-1.5
			S426.1,640.3,426.9,640.3z M426.9,648.8c0.8,0,1.5,0.7,1.5,1.5s-0.7,1.5-1.5,1.5s-1.5-0.7-1.5-1.5S426.1,648.8,426.9,648.8z
			 M426.9,657.3c0.8,0,1.5,0.7,1.5,1.5s-0.7,1.5-1.5,1.5s-1.5-0.7-1.5-1.5S426.1,657.3,426.9,657.3z M426.9,665.9
			c0.8,0,1.5,0.7,1.5,1.5c0,0.8-0.7,1.5-1.5,1.5s-1.5-0.7-1.5-1.5C425.4,666.6,426.1,665.9,426.9,665.9z M426.9,674.4
			c0.8,0,1.5,0.7,1.5,1.5c0,0.8-0.7,1.5-1.5,1.5s-1.5-0.7-1.5-1.5C425.4,675,426.1,674.4,426.9,674.4z M426.9,682.9
			c0.8,0,1.5,0.7,1.5,1.5c0,0.8-0.7,1.5-1.5,1.5s-1.5-0.7-1.5-1.5C425.4,683.6,426.1,682.9,426.9,682.9z M426.9,691.4
			c0.8,0,1.5,0.7,1.5,1.5c0,0.8-0.7,1.5-1.5,1.5s-1.5-0.7-1.5-1.5C425.4,692,426.1,691.4,426.9,691.4z M418.4,614.8
			c0.8,0,1.5,0.7,1.5,1.5s-0.7,1.5-1.5,1.5s-1.5-0.7-1.5-1.5S417.6,614.8,418.4,614.8z M418.4,623.3c0.8,0,1.5,0.7,1.5,1.5
			s-0.7,1.5-1.5,1.5s-1.5-0.7-1.5-1.5S417.6,623.3,418.4,623.3z M418.4,631.8c0.8,0,1.5,0.7,1.5,1.5s-0.7,1.5-1.5,1.5
			s-1.5-0.7-1.5-1.5S417.6,631.8,418.4,631.8z M418.4,640.3c0.8,0,1.5,0.7,1.5,1.5s-0.7,1.5-1.5,1.5s-1.5-0.7-1.5-1.5
			S417.6,640.3,418.4,640.3z M418.4,648.8c0.8,0,1.5,0.7,1.5,1.5s-0.7,1.5-1.5,1.5s-1.5-0.7-1.5-1.5S417.6,648.8,418.4,648.8z
			 M418.4,657.3c0.8,0,1.5,0.7,1.5,1.5s-0.7,1.5-1.5,1.5s-1.5-0.7-1.5-1.5S417.6,657.3,418.4,657.3z M418.4,665.9
			c0.8,0,1.5,0.7,1.5,1.5c0,0.8-0.7,1.5-1.5,1.5s-1.5-0.7-1.5-1.5C416.9,666.6,417.6,665.9,418.4,665.9z M418.4,674.4
			c0.8,0,1.5,0.7,1.5,1.5c0,0.8-0.7,1.5-1.5,1.5s-1.5-0.7-1.5-1.5C416.9,675,417.6,674.4,418.4,674.4z M418.4,682.9
			c0.8,0,1.5,0.7,1.5,1.5c0,0.8-0.7,1.5-1.5,1.5s-1.5-0.7-1.5-1.5C416.9,683.6,417.6,682.9,418.4,682.9z M418.4,691.4
			c0.8,0,1.5,0.7,1.5,1.5c0,0.8-0.7,1.5-1.5,1.5s-1.5-0.7-1.5-1.5C416.9,692,417.6,691.4,418.4,691.4z M409.9,614.8
			c0.8,0,1.5,0.7,1.5,1.5s-0.7,1.5-1.5,1.5s-1.5-0.7-1.5-1.5S409.1,614.8,409.9,614.8z M409.9,623.3c0.8,0,1.5,0.7,1.5,1.5
			s-0.7,1.5-1.5,1.5s-1.5-0.7-1.5-1.5S409.1,623.3,409.9,623.3z M409.9,631.8c0.8,0,1.5,0.7,1.5,1.5s-0.7,1.5-1.5,1.5
			s-1.5-0.7-1.5-1.5S409.1,631.8,409.9,631.8z M409.9,640.3c0.8,0,1.5,0.7,1.5,1.5s-0.7,1.5-1.5,1.5s-1.5-0.7-1.5-1.5
			S409.1,640.3,409.9,640.3z M409.9,648.8c0.8,0,1.5,0.7,1.5,1.5s-0.7,1.5-1.5,1.5s-1.5-0.7-1.5-1.5S409.1,648.8,409.9,648.8z
			 M409.9,657.3c0.8,0,1.5,0.7,1.5,1.5s-0.7,1.5-1.5,1.5s-1.5-0.7-1.5-1.5S409.1,657.3,409.9,657.3z M409.9,665.9
			c0.8,0,1.5,0.7,1.5,1.5c0,0.8-0.7,1.5-1.5,1.5s-1.5-0.7-1.5-1.5C408.4,666.6,409.1,665.9,409.9,665.9z M409.9,674.4
			c0.8,0,1.5,0.7,1.5,1.5c0,0.8-0.7,1.5-1.5,1.5s-1.5-0.7-1.5-1.5C408.4,675,409.1,674.4,409.9,674.4z M409.9,682.9
			c0.8,0,1.5,0.7,1.5,1.5c0,0.8-0.7,1.5-1.5,1.5s-1.5-0.7-1.5-1.5C408.4,683.6,409.1,682.9,409.9,682.9z M409.9,691.4
			c0.8,0,1.5,0.7,1.5,1.5c0,0.8-0.7,1.5-1.5,1.5s-1.5-0.7-1.5-1.5C408.4,692,409.1,691.4,409.9,691.4z M401.4,614.8
			c0.8,0,1.5,0.7,1.5,1.5s-0.7,1.5-1.5,1.5s-1.5-0.7-1.5-1.5S400.6,614.8,401.4,614.8z M401.4,623.3c0.8,0,1.5,0.7,1.5,1.5
			s-0.7,1.5-1.5,1.5s-1.5-0.7-1.5-1.5S400.6,623.3,401.4,623.3z M401.4,631.8c0.8,0,1.5,0.7,1.5,1.5s-0.7,1.5-1.5,1.5
			s-1.5-0.7-1.5-1.5S400.6,631.8,401.4,631.8z M401.4,640.3c0.8,0,1.5,0.7,1.5,1.5s-0.7,1.5-1.5,1.5s-1.5-0.7-1.5-1.5
			S400.6,640.3,401.4,640.3z M401.4,648.8c0.8,0,1.5,0.7,1.5,1.5s-0.7,1.5-1.5,1.5s-1.5-0.7-1.5-1.5S400.6,648.8,401.4,648.8z
			 M401.4,657.3c0.8,0,1.5,0.7,1.5,1.5s-0.7,1.5-1.5,1.5s-1.5-0.7-1.5-1.5S400.6,657.3,401.4,657.3z M401.4,665.9
			c0.8,0,1.5,0.7,1.5,1.5c0,0.8-0.7,1.5-1.5,1.5s-1.5-0.7-1.5-1.5C399.9,666.6,400.6,665.9,401.4,665.9z M401.4,674.4
			c0.8,0,1.5,0.7,1.5,1.5c0,0.8-0.7,1.5-1.5,1.5s-1.5-0.7-1.5-1.5C399.9,675,400.6,674.4,401.4,674.4z M401.4,682.9
			c0.8,0,1.5,0.7,1.5,1.5c0,0.8-0.7,1.5-1.5,1.5s-1.5-0.7-1.5-1.5C399.9,683.6,400.6,682.9,401.4,682.9z M401.4,691.4
			c0.8,0,1.5,0.7,1.5,1.5c0,0.8-0.7,1.5-1.5,1.5s-1.5-0.7-1.5-1.5C399.9,692,400.6,691.4,401.4,691.4z M392.9,606.3
			c0.8,0,1.5,0.7,1.5,1.5s-0.7,1.5-1.5,1.5s-1.5-0.7-1.5-1.5S392.1,606.3,392.9,606.3z M392.9,614.8c0.8,0,1.5,0.7,1.5,1.5
			s-0.7,1.5-1.5,1.5s-1.5-0.7-1.5-1.5S392.1,614.8,392.9,614.8z M392.9,623.3c0.8,0,1.5,0.7,1.5,1.5s-0.7,1.5-1.5,1.5
			s-1.5-0.7-1.5-1.5S392.1,623.3,392.9,623.3z M392.9,631.8c0.8,0,1.5,0.7,1.5,1.5s-0.7,1.5-1.5,1.5s-1.5-0.7-1.5-1.5
			S392.1,631.8,392.9,631.8z M392.9,640.3c0.8,0,1.5,0.7,1.5,1.5s-0.7,1.5-1.5,1.5s-1.5-0.7-1.5-1.5S392.1,640.3,392.9,640.3z
			 M392.9,648.8c0.8,0,1.5,0.7,1.5,1.5s-0.7,1.5-1.5,1.5s-1.5-0.7-1.5-1.5S392.1,648.8,392.9,648.8z M392.9,657.3
			c0.8,0,1.5,0.7,1.5,1.5s-0.7,1.5-1.5,1.5s-1.5-0.7-1.5-1.5S392.1,657.3,392.9,657.3z M392.9,665.9c0.8,0,1.5,0.7,1.5,1.5
			c0,0.8-0.7,1.5-1.5,1.5s-1.5-0.7-1.5-1.5C391.4,666.6,392.1,665.9,392.9,665.9z M392.9,674.4c0.8,0,1.5,0.7,1.5,1.5
			c0,0.8-0.7,1.5-1.5,1.5s-1.5-0.7-1.5-1.5C391.4,675,392.1,674.4,392.9,674.4z M392.9,682.9c0.8,0,1.5,0.7,1.5,1.5
			c0,0.8-0.7,1.5-1.5,1.5s-1.5-0.7-1.5-1.5C391.4,683.6,392.1,682.9,392.9,682.9z M392.9,691.4c0.8,0,1.5,0.7,1.5,1.5
			c0,0.8-0.7,1.5-1.5,1.5s-1.5-0.7-1.5-1.5C391.4,692,392.1,691.4,392.9,691.4z M384.4,606.3c0.8,0,1.5,0.7,1.5,1.5
			s-0.7,1.5-1.5,1.5s-1.5-0.7-1.5-1.5S383.6,606.3,384.4,606.3z M384.4,614.8c0.8,0,1.5,0.7,1.5,1.5s-0.7,1.5-1.5,1.5
			s-1.5-0.7-1.5-1.5S383.6,614.8,384.4,614.8z M384.4,623.3c0.8,0,1.5,0.7,1.5,1.5s-0.7,1.5-1.5,1.5s-1.5-0.7-1.5-1.5
			S383.6,623.3,384.4,623.3z M384.4,631.8c0.8,0,1.5,0.7,1.5,1.5s-0.7,1.5-1.5,1.5s-1.5-0.7-1.5-1.5S383.6,631.8,384.4,631.8z
			 M384.4,640.3c0.8,0,1.5,0.7,1.5,1.5s-0.7,1.5-1.5,1.5s-1.5-0.7-1.5-1.5S383.6,640.3,384.4,640.3z M384.4,648.8
			c0.8,0,1.5,0.7,1.5,1.5s-0.7,1.5-1.5,1.5s-1.5-0.7-1.5-1.5S383.6,648.8,384.4,648.8z M384.4,657.3c0.8,0,1.5,0.7,1.5,1.5
			s-0.7,1.5-1.5,1.5s-1.5-0.7-1.5-1.5S383.6,657.3,384.4,657.3z M384.4,665.9c0.8,0,1.5,0.7,1.5,1.5c0,0.8-0.7,1.5-1.5,1.5
			s-1.5-0.7-1.5-1.5C382.9,666.6,383.6,665.9,384.4,665.9z M384.4,674.4c0.8,0,1.5,0.7,1.5,1.5c0,0.8-0.7,1.5-1.5,1.5
			s-1.5-0.7-1.5-1.5C382.9,675,383.6,674.4,384.4,674.4z M384.4,682.9c0.8,0,1.5,0.7,1.5,1.5c0,0.8-0.7,1.5-1.5,1.5
			s-1.5-0.7-1.5-1.5C382.9,683.6,383.6,682.9,384.4,682.9z M384.4,691.4c0.8,0,1.5,0.7,1.5,1.5c0,0.8-0.7,1.5-1.5,1.5
			s-1.5-0.7-1.5-1.5C382.9,692,383.6,691.4,384.4,691.4z M375.9,606.3c0.8,0,1.5,0.7,1.5,1.5s-0.7,1.5-1.5,1.5s-1.5-0.7-1.5-1.5
			S375.1,606.3,375.9,606.3z M375.9,614.8c0.8,0,1.5,0.7,1.5,1.5s-0.7,1.5-1.5,1.5s-1.5-0.7-1.5-1.5S375.1,614.8,375.9,614.8z
			 M375.9,623.3c0.8,0,1.5,0.7,1.5,1.5s-0.7,1.5-1.5,1.5s-1.5-0.7-1.5-1.5S375.1,623.3,375.9,623.3z M375.9,631.8
			c0.8,0,1.5,0.7,1.5,1.5s-0.7,1.5-1.5,1.5s-1.5-0.7-1.5-1.5S375.1,631.8,375.9,631.8z M375.9,640.3c0.8,0,1.5,0.7,1.5,1.5
			s-0.7,1.5-1.5,1.5s-1.5-0.7-1.5-1.5S375.1,640.3,375.9,640.3z M375.9,648.8c0.8,0,1.5,0.7,1.5,1.5s-0.7,1.5-1.5,1.5
			s-1.5-0.7-1.5-1.5S375.1,648.8,375.9,648.8z M375.9,657.3c0.8,0,1.5,0.7,1.5,1.5s-0.7,1.5-1.5,1.5s-1.5-0.7-1.5-1.5
			S375.1,657.3,375.9,657.3z M375.9,665.9c0.8,0,1.5,0.7,1.5,1.5c0,0.8-0.7,1.5-1.5,1.5s-1.5-0.7-1.5-1.5
			C374.4,666.6,375.1,665.9,375.9,665.9z M375.9,674.4c0.8,0,1.5,0.7,1.5,1.5c0,0.8-0.7,1.5-1.5,1.5s-1.5-0.7-1.5-1.5
			C374.4,675,375.1,674.4,375.9,674.4z M375.9,682.9c0.8,0,1.5,0.7,1.5,1.5c0,0.8-0.7,1.5-1.5,1.5s-1.5-0.7-1.5-1.5
			C374.4,683.6,375.1,682.9,375.9,682.9z M375.9,691.4c0.8,0,1.5,0.7,1.5,1.5c0,0.8-0.7,1.5-1.5,1.5s-1.5-0.7-1.5-1.5
			C374.4,692,375.1,691.4,375.9,691.4z M367.4,606.3c0.8,0,1.5,0.7,1.5,1.5s-0.7,1.5-1.5,1.5s-1.5-0.7-1.5-1.5
			S366.5,606.3,367.4,606.3z M367.4,614.8c0.8,0,1.5,0.7,1.5,1.5s-0.7,1.5-1.5,1.5s-1.5-0.7-1.5-1.5S366.5,614.8,367.4,614.8z
			 M367.4,623.3c0.8,0,1.5,0.7,1.5,1.5s-0.7,1.5-1.5,1.5s-1.5-0.7-1.5-1.5S366.5,623.3,367.4,623.3z M367.4,631.8
			c0.8,0,1.5,0.7,1.5,1.5s-0.7,1.5-1.5,1.5s-1.5-0.7-1.5-1.5S366.5,631.8,367.4,631.8z M367.4,640.3c0.8,0,1.5,0.7,1.5,1.5
			s-0.7,1.5-1.5,1.5s-1.5-0.7-1.5-1.5S366.5,640.3,367.4,640.3z M367.4,648.8c0.8,0,1.5,0.7,1.5,1.5s-0.7,1.5-1.5,1.5
			s-1.5-0.7-1.5-1.5S366.5,648.8,367.4,648.8z M367.4,657.3c0.8,0,1.5,0.7,1.5,1.5s-0.7,1.5-1.5,1.5s-1.5-0.7-1.5-1.5
			S366.5,657.3,367.4,657.3z M367.4,665.9c0.8,0,1.5,0.7,1.5,1.5c0,0.8-0.7,1.5-1.5,1.5s-1.5-0.7-1.5-1.5
			C365.9,666.6,366.5,665.9,367.4,665.9z M367.4,674.4c0.8,0,1.5,0.7,1.5,1.5c0,0.8-0.7,1.5-1.5,1.5s-1.5-0.7-1.5-1.5
			C365.9,675,366.5,674.4,367.4,674.4z M367.4,682.9c0.8,0,1.5,0.7,1.5,1.5c0,0.8-0.7,1.5-1.5,1.5s-1.5-0.7-1.5-1.5
			C365.9,683.6,366.5,682.9,367.4,682.9z M367.4,691.4c0.8,0,1.5,0.7,1.5,1.5c0,0.8-0.7,1.5-1.5,1.5s-1.5-0.7-1.5-1.5
			C365.9,692,366.5,691.4,367.4,691.4z M358.9,606.3c0.8,0,1.5,0.7,1.5,1.5s-0.7,1.5-1.5,1.5s-1.5-0.7-1.5-1.5
			S358,606.3,358.9,606.3z M358.9,614.8c0.8,0,1.5,0.7,1.5,1.5s-0.7,1.5-1.5,1.5s-1.5-0.7-1.5-1.5S358,614.8,358.9,614.8z
			 M358.9,623.3c0.8,0,1.5,0.7,1.5,1.5s-0.7,1.5-1.5,1.5s-1.5-0.7-1.5-1.5S358,623.3,358.9,623.3z M358.9,631.8
			c0.8,0,1.5,0.7,1.5,1.5s-0.7,1.5-1.5,1.5s-1.5-0.7-1.5-1.5S358,631.8,358.9,631.8z M358.9,640.3c0.8,0,1.5,0.7,1.5,1.5
			s-0.7,1.5-1.5,1.5s-1.5-0.7-1.5-1.5S358,640.3,358.9,640.3z M358.9,648.8c0.8,0,1.5,0.7,1.5,1.5s-0.7,1.5-1.5,1.5
			s-1.5-0.7-1.5-1.5S358,648.8,358.9,648.8z M358.9,657.3c0.8,0,1.5,0.7,1.5,1.5s-0.7,1.5-1.5,1.5s-1.5-0.7-1.5-1.5
			S358,657.3,358.9,657.3z M358.9,665.9c0.8,0,1.5,0.7,1.5,1.5c0,0.8-0.7,1.5-1.5,1.5s-1.5-0.7-1.5-1.5
			C357.4,666.6,358,665.9,358.9,665.9z M358.9,674.4c0.8,0,1.5,0.7,1.5,1.5c0,0.8-0.7,1.5-1.5,1.5s-1.5-0.7-1.5-1.5
			C357.4,675,358,674.4,358.9,674.4z M358.9,682.9c0.8,0,1.5,0.7,1.5,1.5c0,0.8-0.7,1.5-1.5,1.5s-1.5-0.7-1.5-1.5
			C357.4,683.6,358,682.9,358.9,682.9z M358.9,691.4c0.8,0,1.5,0.7,1.5,1.5c0,0.8-0.7,1.5-1.5,1.5s-1.5-0.7-1.5-1.5
			C357.4,692,358,691.4,358.9,691.4z M350.4,606.3c0.8,0,1.5,0.7,1.5,1.5s-0.7,1.5-1.5,1.5s-1.5-0.7-1.5-1.5
			S349.5,606.3,350.4,606.3z M350.4,614.8c0.8,0,1.5,0.7,1.5,1.5s-0.7,1.5-1.5,1.5s-1.5-0.7-1.5-1.5S349.5,614.8,350.4,614.8z
			 M350.4,623.3c0.8,0,1.5,0.7,1.5,1.5s-0.7,1.5-1.5,1.5s-1.5-0.7-1.5-1.5S349.5,623.3,350.4,623.3z M350.4,631.8
			c0.8,0,1.5,0.7,1.5,1.5s-0.7,1.5-1.5,1.5s-1.5-0.7-1.5-1.5S349.5,631.8,350.4,631.8z M350.4,640.3c0.8,0,1.5,0.7,1.5,1.5
			s-0.7,1.5-1.5,1.5s-1.5-0.7-1.5-1.5S349.5,640.3,350.4,640.3z M350.4,648.8c0.8,0,1.5,0.7,1.5,1.5s-0.7,1.5-1.5,1.5
			s-1.5-0.7-1.5-1.5S349.5,648.8,350.4,648.8z M350.4,657.3c0.8,0,1.5,0.7,1.5,1.5s-0.7,1.5-1.5,1.5s-1.5-0.7-1.5-1.5
			S349.5,657.3,350.4,657.3z M350.4,665.9c0.8,0,1.5,0.7,1.5,1.5c0,0.8-0.7,1.5-1.5,1.5s-1.5-0.7-1.5-1.5
			C348.9,666.6,349.5,665.9,350.4,665.9z M350.4,674.4c0.8,0,1.5,0.7,1.5,1.5c0,0.8-0.7,1.5-1.5,1.5s-1.5-0.7-1.5-1.5
			C348.9,675,349.5,674.4,350.4,674.4z M350.4,682.9c0.8,0,1.5,0.7,1.5,1.5c0,0.8-0.7,1.5-1.5,1.5s-1.5-0.7-1.5-1.5
			C348.9,683.6,349.5,682.9,350.4,682.9z M350.4,691.4c0.8,0,1.5,0.7,1.5,1.5c0,0.8-0.7,1.5-1.5,1.5s-1.5-0.7-1.5-1.5
			C348.9,692,349.5,691.4,350.4,691.4z M341.9,606.3c0.8,0,1.5,0.7,1.5,1.5s-0.7,1.5-1.5,1.5s-1.5-0.7-1.5-1.5
			S341,606.3,341.9,606.3z M341.9,614.8c0.8,0,1.5,0.7,1.5,1.5s-0.7,1.5-1.5,1.5s-1.5-0.7-1.5-1.5S341,614.8,341.9,614.8z
			 M341.9,623.3c0.8,0,1.5,0.7,1.5,1.5s-0.7,1.5-1.5,1.5s-1.5-0.7-1.5-1.5S341,623.3,341.9,623.3z M341.9,631.8
			c0.8,0,1.5,0.7,1.5,1.5s-0.7,1.5-1.5,1.5s-1.5-0.7-1.5-1.5S341,631.8,341.9,631.8z M341.9,640.3c0.8,0,1.5,0.7,1.5,1.5
			s-0.7,1.5-1.5,1.5s-1.5-0.7-1.5-1.5S341,640.3,341.9,640.3z M341.9,648.8c0.8,0,1.5,0.7,1.5,1.5s-0.7,1.5-1.5,1.5
			s-1.5-0.7-1.5-1.5S341,648.8,341.9,648.8z M341.9,657.3c0.8,0,1.5,0.7,1.5,1.5s-0.7,1.5-1.5,1.5s-1.5-0.7-1.5-1.5
			S341,657.3,341.9,657.3z M341.9,665.9c0.8,0,1.5,0.7,1.5,1.5c0,0.8-0.7,1.5-1.5,1.5s-1.5-0.7-1.5-1.5
			C340.4,666.6,341,665.9,341.9,665.9z M341.9,674.4c0.8,0,1.5,0.7,1.5,1.5c0,0.8-0.7,1.5-1.5,1.5s-1.5-0.7-1.5-1.5
			C340.4,675,341,674.4,341.9,674.4z M341.9,682.9c0.8,0,1.5,0.7,1.5,1.5c0,0.8-0.7,1.5-1.5,1.5s-1.5-0.7-1.5-1.5
			C340.4,683.6,341,682.9,341.9,682.9z M341.9,691.4c0.8,0,1.5,0.7,1.5,1.5c0,0.8-0.7,1.5-1.5,1.5s-1.5-0.7-1.5-1.5
			C340.4,692,341,691.4,341.9,691.4z M333.3,606.3c0.8,0,1.5,0.7,1.5,1.5s-0.7,1.5-1.5,1.5s-1.5-0.7-1.5-1.5
			C331.9,607,332.5,606.3,333.3,606.3z M333.3,614.8c0.8,0,1.5,0.7,1.5,1.5s-0.7,1.5-1.5,1.5s-1.5-0.7-1.5-1.5
			S332.5,614.8,333.3,614.8z M333.3,623.3c0.8,0,1.5,0.7,1.5,1.5s-0.7,1.5-1.5,1.5s-1.5-0.7-1.5-1.5
			C331.9,624,332.5,623.3,333.3,623.3z M333.3,631.8c0.8,0,1.5,0.7,1.5,1.5s-0.7,1.5-1.5,1.5s-1.5-0.7-1.5-1.5
			S332.5,631.8,333.3,631.8z M333.3,640.3c0.8,0,1.5,0.7,1.5,1.5s-0.7,1.5-1.5,1.5s-1.5-0.7-1.5-1.5
			C331.9,641,332.5,640.3,333.3,640.3z M333.3,648.8c0.8,0,1.5,0.7,1.5,1.5s-0.7,1.5-1.5,1.5s-1.5-0.7-1.5-1.5
			S332.5,648.8,333.3,648.8z M333.3,657.3c0.8,0,1.5,0.7,1.5,1.5s-0.7,1.5-1.5,1.5s-1.5-0.7-1.5-1.5
			C331.9,658,332.5,657.3,333.3,657.3z M333.3,665.9c0.8,0,1.5,0.7,1.5,1.5c0,0.8-0.7,1.5-1.5,1.5s-1.5-0.7-1.5-1.5
			C331.8,666.6,332.5,665.9,333.3,665.9z M333.3,674.4c0.8,0,1.5,0.7,1.5,1.5c0,0.8-0.7,1.5-1.5,1.5s-1.5-0.7-1.5-1.5
			C331.9,675,332.5,674.4,333.3,674.4z M333.3,682.9c0.8,0,1.5,0.7,1.5,1.5c0,0.8-0.7,1.5-1.5,1.5s-1.5-0.7-1.5-1.5
			C331.8,683.6,332.5,682.9,333.3,682.9z M333.3,691.4c0.8,0,1.5,0.7,1.5,1.5c0,0.8-0.7,1.5-1.5,1.5s-1.5-0.7-1.5-1.5
			C331.9,692,332.5,691.4,333.3,691.4z M324.8,606.3c0.8,0,1.5,0.7,1.5,1.5s-0.7,1.5-1.5,1.5s-1.5-0.7-1.5-1.5
			C323.4,607,324,606.3,324.8,606.3z M324.8,614.8c0.8,0,1.5,0.7,1.5,1.5s-0.7,1.5-1.5,1.5s-1.5-0.7-1.5-1.5S324,614.8,324.8,614.8z
			 M324.8,623.3c0.8,0,1.5,0.7,1.5,1.5s-0.7,1.5-1.5,1.5s-1.5-0.7-1.5-1.5C323.4,624,324,623.3,324.8,623.3z M324.8,631.8
			c0.8,0,1.5,0.7,1.5,1.5s-0.7,1.5-1.5,1.5s-1.5-0.7-1.5-1.5S324,631.8,324.8,631.8z M324.8,640.3c0.8,0,1.5,0.7,1.5,1.5
			s-0.7,1.5-1.5,1.5s-1.5-0.7-1.5-1.5C323.4,641,324,640.3,324.8,640.3z M324.8,648.8c0.8,0,1.5,0.7,1.5,1.5s-0.7,1.5-1.5,1.5
			s-1.5-0.7-1.5-1.5S324,648.8,324.8,648.8z M324.8,657.3c0.8,0,1.5,0.7,1.5,1.5s-0.7,1.5-1.5,1.5s-1.5-0.7-1.5-1.5
			C323.4,658,324,657.3,324.8,657.3z M324.8,665.9c0.8,0,1.5,0.7,1.5,1.5c0,0.8-0.7,1.5-1.5,1.5s-1.5-0.7-1.5-1.5
			C323.3,666.6,324,665.9,324.8,665.9z M324.8,674.4c0.8,0,1.5,0.7,1.5,1.5c0,0.8-0.7,1.5-1.5,1.5s-1.5-0.7-1.5-1.5
			C323.4,675,324,674.4,324.8,674.4z M324.8,682.9c0.8,0,1.5,0.7,1.5,1.5c0,0.8-0.7,1.5-1.5,1.5s-1.5-0.7-1.5-1.5
			C323.3,683.6,324,682.9,324.8,682.9z M324.8,691.4c0.8,0,1.5,0.7,1.5,1.5c0,0.8-0.7,1.5-1.5,1.5s-1.5-0.7-1.5-1.5
			C323.4,692,324,691.4,324.8,691.4z M316.3,614.8c0.8,0,1.5,0.7,1.5,1.5s-0.7,1.5-1.5,1.5s-1.5-0.7-1.5-1.5
			S315.5,614.8,316.3,614.8z M316.3,623.3c0.8,0,1.5,0.7,1.5,1.5s-0.7,1.5-1.5,1.5s-1.5-0.7-1.5-1.5
			C314.9,624,315.5,623.3,316.3,623.3z M316.3,631.8c0.8,0,1.5,0.7,1.5,1.5s-0.7,1.5-1.5,1.5s-1.5-0.7-1.5-1.5
			S315.5,631.8,316.3,631.8z M316.3,640.3c0.8,0,1.5,0.7,1.5,1.5s-0.7,1.5-1.5,1.5s-1.5-0.7-1.5-1.5
			C314.9,641,315.5,640.3,316.3,640.3z M316.3,648.8c0.8,0,1.5,0.7,1.5,1.5s-0.7,1.5-1.5,1.5s-1.5-0.7-1.5-1.5
			S315.5,648.8,316.3,648.8z M316.3,657.3c0.8,0,1.5,0.7,1.5,1.5s-0.7,1.5-1.5,1.5s-1.5-0.7-1.5-1.5
			C314.9,658,315.5,657.3,316.3,657.3z M316.3,665.9c0.8,0,1.5,0.7,1.5,1.5c0,0.8-0.7,1.5-1.5,1.5s-1.5-0.7-1.5-1.5
			C314.8,666.6,315.5,665.9,316.3,665.9z M316.3,674.4c0.8,0,1.5,0.7,1.5,1.5c0,0.8-0.7,1.5-1.5,1.5s-1.5-0.7-1.5-1.5
			C314.9,675,315.5,674.4,316.3,674.4z M316.3,682.9c0.8,0,1.5,0.7,1.5,1.5c0,0.8-0.7,1.5-1.5,1.5s-1.5-0.7-1.5-1.5
			C314.8,683.6,315.5,682.9,316.3,682.9z M316.3,691.4c0.8,0,1.5,0.7,1.5,1.5c0,0.8-0.7,1.5-1.5,1.5s-1.5-0.7-1.5-1.5
			C314.9,692,315.5,691.4,316.3,691.4z M307.8,614.8c0.8,0,1.5,0.7,1.5,1.5s-0.7,1.5-1.5,1.5s-1.5-0.7-1.5-1.5
			S307,614.8,307.8,614.8z M307.8,623.3c0.8,0,1.5,0.7,1.5,1.5s-0.7,1.5-1.5,1.5s-1.5-0.7-1.5-1.5C306.4,624,307,623.3,307.8,623.3z
			 M307.8,631.8c0.8,0,1.5,0.7,1.5,1.5s-0.7,1.5-1.5,1.5s-1.5-0.7-1.5-1.5S307,631.8,307.8,631.8z M307.8,640.3
			c0.8,0,1.5,0.7,1.5,1.5s-0.7,1.5-1.5,1.5s-1.5-0.7-1.5-1.5C306.4,641,307,640.3,307.8,640.3z M307.8,648.8c0.8,0,1.5,0.7,1.5,1.5
			s-0.7,1.5-1.5,1.5s-1.5-0.7-1.5-1.5S307,648.8,307.8,648.8z M307.8,657.3c0.8,0,1.5,0.7,1.5,1.5s-0.7,1.5-1.5,1.5
			s-1.5-0.7-1.5-1.5C306.4,658,307,657.3,307.8,657.3z M307.8,665.9c0.8,0,1.5,0.7,1.5,1.5c0,0.8-0.7,1.5-1.5,1.5s-1.5-0.7-1.5-1.5
			C306.3,666.6,307,665.9,307.8,665.9z M307.8,674.4c0.8,0,1.5,0.7,1.5,1.5c0,0.8-0.7,1.5-1.5,1.5s-1.5-0.7-1.5-1.5
			C306.4,675,307,674.4,307.8,674.4z M307.8,682.9c0.8,0,1.5,0.7,1.5,1.5c0,0.8-0.7,1.5-1.5,1.5s-1.5-0.7-1.5-1.5
			C306.3,683.6,307,682.9,307.8,682.9z M307.8,691.4c0.8,0,1.5,0.7,1.5,1.5c0,0.8-0.7,1.5-1.5,1.5s-1.5-0.7-1.5-1.5
			C306.4,692,307,691.4,307.8,691.4z M299.3,614.8c0.8,0,1.5,0.7,1.5,1.5s-0.7,1.5-1.5,1.5s-1.5-0.7-1.5-1.5
			S298.5,614.8,299.3,614.8z M299.3,623.3c0.8,0,1.5,0.7,1.5,1.5s-0.7,1.5-1.5,1.5s-1.5-0.7-1.5-1.5
			C297.9,624,298.5,623.3,299.3,623.3z M299.3,631.8c0.8,0,1.5,0.7,1.5,1.5s-0.7,1.5-1.5,1.5s-1.5-0.7-1.5-1.5
			S298.5,631.8,299.3,631.8z M299.3,640.3c0.8,0,1.5,0.7,1.5,1.5s-0.7,1.5-1.5,1.5s-1.5-0.7-1.5-1.5
			C297.9,641,298.5,640.3,299.3,640.3z M299.3,648.8c0.8,0,1.5,0.7,1.5,1.5s-0.7,1.5-1.5,1.5s-1.5-0.7-1.5-1.5
			S298.5,648.8,299.3,648.8z M299.3,657.3c0.8,0,1.5,0.7,1.5,1.5s-0.7,1.5-1.5,1.5s-1.5-0.7-1.5-1.5
			C297.9,658,298.5,657.3,299.3,657.3z M299.3,665.9c0.8,0,1.5,0.7,1.5,1.5c0,0.8-0.7,1.5-1.5,1.5s-1.5-0.7-1.5-1.5
			C297.8,666.6,298.5,665.9,299.3,665.9z M299.3,674.4c0.8,0,1.5,0.7,1.5,1.5c0,0.8-0.7,1.5-1.5,1.5s-1.5-0.7-1.5-1.5
			C297.9,675,298.5,674.4,299.3,674.4z M299.3,682.9c0.8,0,1.5,0.7,1.5,1.5c0,0.8-0.7,1.5-1.5,1.5s-1.5-0.7-1.5-1.5
			C297.8,683.6,298.5,682.9,299.3,682.9z M299.3,691.4c0.8,0,1.5,0.7,1.5,1.5c0,0.8-0.7,1.5-1.5,1.5s-1.5-0.7-1.5-1.5
			C297.9,692,298.5,691.4,299.3,691.4z M290.8,614.8c0.8,0,1.5,0.7,1.5,1.5s-0.7,1.5-1.5,1.5s-1.5-0.7-1.5-1.5
			S290,614.8,290.8,614.8z M290.8,623.3c0.8,0,1.5,0.7,1.5,1.5s-0.7,1.5-1.5,1.5s-1.5-0.7-1.5-1.5C289.4,624,290,623.3,290.8,623.3z
			 M290.8,631.8c0.8,0,1.5,0.7,1.5,1.5s-0.7,1.5-1.5,1.5s-1.5-0.7-1.5-1.5S290,631.8,290.8,631.8z M290.8,640.3
			c0.8,0,1.5,0.7,1.5,1.5s-0.7,1.5-1.5,1.5s-1.5-0.7-1.5-1.5C289.4,641,290,640.3,290.8,640.3z M290.8,648.8c0.8,0,1.5,0.7,1.5,1.5
			s-0.7,1.5-1.5,1.5s-1.5-0.7-1.5-1.5S290,648.8,290.8,648.8z M290.8,657.3c0.8,0,1.5,0.7,1.5,1.5s-0.7,1.5-1.5,1.5
			s-1.5-0.7-1.5-1.5C289.4,658,290,657.3,290.8,657.3z M290.8,665.9c0.8,0,1.5,0.7,1.5,1.5c0,0.8-0.7,1.5-1.5,1.5s-1.5-0.7-1.5-1.5
			C289.3,666.6,290,665.9,290.8,665.9z M290.8,674.4c0.8,0,1.5,0.7,1.5,1.5c0,0.8-0.7,1.5-1.5,1.5s-1.5-0.7-1.5-1.5
			C289.4,675,290,674.4,290.8,674.4z M290.8,682.9c0.8,0,1.5,0.7,1.5,1.5c0,0.8-0.7,1.5-1.5,1.5s-1.5-0.7-1.5-1.5
			C289.3,683.6,290,682.9,290.8,682.9z M290.8,691.4c0.8,0,1.5,0.7,1.5,1.5c0,0.8-0.7,1.5-1.5,1.5s-1.5-0.7-1.5-1.5
			C289.4,692,290,691.4,290.8,691.4z M282.5,614.6c0.8,0,1.5,0.7,1.5,1.5s-0.7,1.5-1.5,1.5s-1.5-0.7-1.5-1.5
			S281.7,614.6,282.5,614.6z M282.5,623.1c0.8,0,1.5,0.7,1.5,1.5s-0.7,1.5-1.5,1.5s-1.5-0.7-1.5-1.5S281.7,623.1,282.5,623.1z
			 M282.5,631.6c0.8,0,1.5,0.7,1.5,1.5s-0.7,1.5-1.5,1.5s-1.5-0.7-1.5-1.5S281.7,631.6,282.5,631.6z M282.5,640.2
			c0.8,0,1.5,0.7,1.5,1.5c0,0.8-0.7,1.5-1.5,1.5s-1.5-0.7-1.5-1.5C281,640.8,281.7,640.2,282.5,640.2z M282.5,648.7
			c0.8,0,1.5,0.7,1.5,1.5c0,0.8-0.7,1.5-1.5,1.5s-1.5-0.7-1.5-1.5C281,649.4,281.7,648.7,282.5,648.7z M282.5,657.2
			c0.8,0,1.5,0.7,1.5,1.5c0,0.8-0.7,1.5-1.5,1.5s-1.5-0.7-1.5-1.5C281,657.8,281.7,657.2,282.5,657.2z M282.5,665.7
			c0.8,0,1.5,0.7,1.5,1.5c0,0.8-0.7,1.5-1.5,1.5s-1.5-0.7-1.5-1.5C281,666.4,281.7,665.7,282.5,665.7z M282.5,674.2
			c0.8,0,1.5,0.7,1.5,1.5c0,0.8-0.7,1.5-1.5,1.5s-1.5-0.7-1.5-1.5C281,674.8,281.7,674.2,282.5,674.2z M282.5,682.7
			c0.8,0,1.5,0.7,1.5,1.5c0,0.8-0.7,1.5-1.5,1.5s-1.5-0.7-1.5-1.5C281,683.4,281.7,682.7,282.5,682.7z M282.5,691.2
			c0.8,0,1.5,0.7,1.5,1.5c0,0.8-0.7,1.5-1.5,1.5s-1.5-0.7-1.5-1.5C281,691.8,281.7,691.2,282.5,691.2z M274,614.6
			c0.8,0,1.5,0.7,1.5,1.5s-0.7,1.5-1.5,1.5s-1.5-0.7-1.5-1.5S273.2,614.6,274,614.6z M274,623.1c0.8,0,1.5,0.7,1.5,1.5
			s-0.7,1.5-1.5,1.5s-1.5-0.7-1.5-1.5S273.2,623.1,274,623.1z M274,631.6c0.8,0,1.5,0.7,1.5,1.5s-0.7,1.5-1.5,1.5s-1.5-0.7-1.5-1.5
			S273.2,631.6,274,631.6z M274,640.2c0.8,0,1.5,0.7,1.5,1.5c0,0.8-0.7,1.5-1.5,1.5s-1.5-0.7-1.5-1.5
			C272.5,640.8,273.2,640.2,274,640.2z M274,648.7c0.8,0,1.5,0.7,1.5,1.5c0,0.8-0.7,1.5-1.5,1.5s-1.5-0.7-1.5-1.5
			C272.5,649.4,273.2,648.7,274,648.7z M274,657.2c0.8,0,1.5,0.7,1.5,1.5c0,0.8-0.7,1.5-1.5,1.5s-1.5-0.7-1.5-1.5
			C272.5,657.8,273.2,657.2,274,657.2z M274,665.7c0.8,0,1.5,0.7,1.5,1.5c0,0.8-0.7,1.5-1.5,1.5s-1.5-0.7-1.5-1.5
			C272.5,666.4,273.2,665.7,274,665.7z M274,674.2c0.8,0,1.5,0.7,1.5,1.5c0,0.8-0.7,1.5-1.5,1.5s-1.5-0.7-1.5-1.5
			C272.5,674.8,273.2,674.2,274,674.2z M274,682.7c0.8,0,1.5,0.7,1.5,1.5c0,0.8-0.7,1.5-1.5,1.5s-1.5-0.7-1.5-1.5
			C272.5,683.4,273.2,682.7,274,682.7z M274,691.2c0.8,0,1.5,0.7,1.5,1.5c0,0.8-0.7,1.5-1.5,1.5s-1.5-0.7-1.5-1.5
			C272.5,691.8,273.2,691.2,274,691.2z M265.5,614.6c0.8,0,1.5,0.7,1.5,1.5s-0.7,1.5-1.5,1.5s-1.5-0.7-1.5-1.5
			S264.7,614.6,265.5,614.6z M265.5,623.1c0.8,0,1.5,0.7,1.5,1.5s-0.7,1.5-1.5,1.5s-1.5-0.7-1.5-1.5S264.7,623.1,265.5,623.1z
			 M265.5,631.6c0.8,0,1.5,0.7,1.5,1.5s-0.7,1.5-1.5,1.5s-1.5-0.7-1.5-1.5S264.7,631.6,265.5,631.6z M265.5,640.2
			c0.8,0,1.5,0.7,1.5,1.5c0,0.8-0.7,1.5-1.5,1.5s-1.5-0.7-1.5-1.5C264,640.8,264.7,640.2,265.5,640.2z M265.5,648.7
			c0.8,0,1.5,0.7,1.5,1.5c0,0.8-0.7,1.5-1.5,1.5s-1.5-0.7-1.5-1.5C264,649.4,264.7,648.7,265.5,648.7z M265.5,657.2
			c0.8,0,1.5,0.7,1.5,1.5c0,0.8-0.7,1.5-1.5,1.5s-1.5-0.7-1.5-1.5C264,657.8,264.7,657.2,265.5,657.2z M265.5,665.7
			c0.8,0,1.5,0.7,1.5,1.5c0,0.8-0.7,1.5-1.5,1.5s-1.5-0.7-1.5-1.5C264,666.4,264.7,665.7,265.5,665.7z M265.5,674.2
			c0.8,0,1.5,0.7,1.5,1.5c0,0.8-0.7,1.5-1.5,1.5s-1.5-0.7-1.5-1.5C264,674.8,264.7,674.2,265.5,674.2z M265.5,682.7
			c0.8,0,1.5,0.7,1.5,1.5c0,0.8-0.7,1.5-1.5,1.5s-1.5-0.7-1.5-1.5C264,683.4,264.7,682.7,265.5,682.7z M265.5,691.2
			c0.8,0,1.5,0.7,1.5,1.5c0,0.8-0.7,1.5-1.5,1.5s-1.5-0.7-1.5-1.5C264,691.8,264.7,691.2,265.5,691.2z M257,606.1
			c0.8,0,1.5,0.7,1.5,1.5s-0.7,1.5-1.5,1.5s-1.5-0.7-1.5-1.5S256.2,606.1,257,606.1z M257,614.6c0.8,0,1.5,0.7,1.5,1.5
			s-0.7,1.5-1.5,1.5s-1.5-0.7-1.5-1.5S256.2,614.6,257,614.6z M257,623.1c0.8,0,1.5,0.7,1.5,1.5s-0.7,1.5-1.5,1.5s-1.5-0.7-1.5-1.5
			S256.2,623.1,257,623.1z M257,631.6c0.8,0,1.5,0.7,1.5,1.5s-0.7,1.5-1.5,1.5s-1.5-0.7-1.5-1.5S256.2,631.6,257,631.6z M257,640.2
			c0.8,0,1.5,0.7,1.5,1.5c0,0.8-0.7,1.5-1.5,1.5s-1.5-0.7-1.5-1.5C255.5,640.8,256.2,640.2,257,640.2z M257,648.7
			c0.8,0,1.5,0.7,1.5,1.5c0,0.8-0.7,1.5-1.5,1.5s-1.5-0.7-1.5-1.5C255.5,649.4,256.2,648.7,257,648.7z M257,657.2
			c0.8,0,1.5,0.7,1.5,1.5c0,0.8-0.7,1.5-1.5,1.5s-1.5-0.7-1.5-1.5C255.5,657.8,256.2,657.2,257,657.2z M257,665.7
			c0.8,0,1.5,0.7,1.5,1.5c0,0.8-0.7,1.5-1.5,1.5s-1.5-0.7-1.5-1.5C255.5,666.4,256.2,665.7,257,665.7z M257,674.2
			c0.8,0,1.5,0.7,1.5,1.5c0,0.8-0.7,1.5-1.5,1.5s-1.5-0.7-1.5-1.5C255.5,674.8,256.2,674.2,257,674.2z M257,682.7
			c0.8,0,1.5,0.7,1.5,1.5c0,0.8-0.7,1.5-1.5,1.5s-1.5-0.7-1.5-1.5C255.5,683.4,256.2,682.7,257,682.7z M257,691.2
			c0.8,0,1.5,0.7,1.5,1.5c0,0.8-0.7,1.5-1.5,1.5s-1.5-0.7-1.5-1.5C255.5,691.8,256.2,691.2,257,691.2z M248.5,606.1
			c0.8,0,1.5,0.7,1.5,1.5s-0.7,1.5-1.5,1.5s-1.5-0.7-1.5-1.5S247.7,606.1,248.5,606.1z M248.5,614.6c0.8,0,1.5,0.7,1.5,1.5
			s-0.7,1.5-1.5,1.5s-1.5-0.7-1.5-1.5S247.7,614.6,248.5,614.6z M248.5,623.1c0.8,0,1.5,0.7,1.5,1.5s-0.7,1.5-1.5,1.5
			s-1.5-0.7-1.5-1.5S247.7,623.1,248.5,623.1z M248.5,631.6c0.8,0,1.5,0.7,1.5,1.5s-0.7,1.5-1.5,1.5s-1.5-0.7-1.5-1.5
			S247.7,631.6,248.5,631.6z M248.5,640.2c0.8,0,1.5,0.7,1.5,1.5c0,0.8-0.7,1.5-1.5,1.5s-1.5-0.7-1.5-1.5
			C247,640.8,247.7,640.2,248.5,640.2z M248.5,648.7c0.8,0,1.5,0.7,1.5,1.5c0,0.8-0.7,1.5-1.5,1.5s-1.5-0.7-1.5-1.5
			C247,649.4,247.7,648.7,248.5,648.7z M248.5,657.2c0.8,0,1.5,0.7,1.5,1.5c0,0.8-0.7,1.5-1.5,1.5s-1.5-0.7-1.5-1.5
			C247,657.8,247.7,657.2,248.5,657.2z M248.5,665.7c0.8,0,1.5,0.7,1.5,1.5c0,0.8-0.7,1.5-1.5,1.5s-1.5-0.7-1.5-1.5
			C247,666.4,247.7,665.7,248.5,665.7z M248.5,674.2c0.8,0,1.5,0.7,1.5,1.5c0,0.8-0.7,1.5-1.5,1.5s-1.5-0.7-1.5-1.5
			C247,674.8,247.7,674.2,248.5,674.2z M248.5,682.7c0.8,0,1.5,0.7,1.5,1.5c0,0.8-0.7,1.5-1.5,1.5s-1.5-0.7-1.5-1.5
			C247,683.4,247.7,682.7,248.5,682.7z M248.5,691.2c0.8,0,1.5,0.7,1.5,1.5c0,0.8-0.7,1.5-1.5,1.5s-1.5-0.7-1.5-1.5
			C247,691.8,247.7,691.2,248.5,691.2z M240,606.1c0.8,0,1.5,0.7,1.5,1.5s-0.7,1.5-1.5,1.5s-1.5-0.7-1.5-1.5S239.2,606.1,240,606.1z
			 M240,614.6c0.8,0,1.5,0.7,1.5,1.5s-0.7,1.5-1.5,1.5s-1.5-0.7-1.5-1.5S239.2,614.6,240,614.6z M240,623.1c0.8,0,1.5,0.7,1.5,1.5
			s-0.7,1.5-1.5,1.5s-1.5-0.7-1.5-1.5S239.2,623.1,240,623.1z M240,631.6c0.8,0,1.5,0.7,1.5,1.5s-0.7,1.5-1.5,1.5s-1.5-0.7-1.5-1.5
			S239.2,631.6,240,631.6z M240,640.2c0.8,0,1.5,0.7,1.5,1.5c0,0.8-0.7,1.5-1.5,1.5s-1.5-0.7-1.5-1.5
			C238.5,640.8,239.2,640.2,240,640.2z M240,648.7c0.8,0,1.5,0.7,1.5,1.5c0,0.8-0.7,1.5-1.5,1.5s-1.5-0.7-1.5-1.5
			C238.5,649.4,239.2,648.7,240,648.7z M240,657.2c0.8,0,1.5,0.7,1.5,1.5c0,0.8-0.7,1.5-1.5,1.5s-1.5-0.7-1.5-1.5
			C238.5,657.8,239.2,657.2,240,657.2z M240,665.7c0.8,0,1.5,0.7,1.5,1.5c0,0.8-0.7,1.5-1.5,1.5s-1.5-0.7-1.5-1.5
			C238.5,666.4,239.2,665.7,240,665.7z M240,674.2c0.8,0,1.5,0.7,1.5,1.5c0,0.8-0.7,1.5-1.5,1.5s-1.5-0.7-1.5-1.5
			C238.5,674.8,239.2,674.2,240,674.2z M240,682.7c0.8,0,1.5,0.7,1.5,1.5c0,0.8-0.7,1.5-1.5,1.5s-1.5-0.7-1.5-1.5
			C238.5,683.4,239.2,682.7,240,682.7z M240,691.2c0.8,0,1.5,0.7,1.5,1.5c0,0.8-0.7,1.5-1.5,1.5s-1.5-0.7-1.5-1.5
			C238.5,691.8,239.2,691.2,240,691.2z M231.5,606.1c0.8,0,1.5,0.7,1.5,1.5s-0.7,1.5-1.5,1.5s-1.5-0.7-1.5-1.5
			S230.7,606.1,231.5,606.1z M231.5,614.6c0.8,0,1.5,0.7,1.5,1.5s-0.7,1.5-1.5,1.5s-1.5-0.7-1.5-1.5S230.7,614.6,231.5,614.6z
			 M231.5,623.1c0.8,0,1.5,0.7,1.5,1.5s-0.7,1.5-1.5,1.5s-1.5-0.7-1.5-1.5S230.7,623.1,231.5,623.1z M231.5,631.6
			c0.8,0,1.5,0.7,1.5,1.5s-0.7,1.5-1.5,1.5s-1.5-0.7-1.5-1.5S230.7,631.6,231.5,631.6z M231.5,640.2c0.8,0,1.5,0.7,1.5,1.5
			c0,0.8-0.7,1.5-1.5,1.5s-1.5-0.7-1.5-1.5C230,640.8,230.7,640.2,231.5,640.2z M231.5,648.7c0.8,0,1.5,0.7,1.5,1.5
			c0,0.8-0.7,1.5-1.5,1.5s-1.5-0.7-1.5-1.5C230,649.4,230.7,648.7,231.5,648.7z M231.5,657.2c0.8,0,1.5,0.7,1.5,1.5
			c0,0.8-0.7,1.5-1.5,1.5s-1.5-0.7-1.5-1.5C230,657.8,230.7,657.2,231.5,657.2z M231.5,665.7c0.8,0,1.5,0.7,1.5,1.5
			c0,0.8-0.7,1.5-1.5,1.5s-1.5-0.7-1.5-1.5C230,666.4,230.7,665.7,231.5,665.7z M231.5,674.2c0.8,0,1.5,0.7,1.5,1.5
			c0,0.8-0.7,1.5-1.5,1.5s-1.5-0.7-1.5-1.5C230,674.8,230.7,674.2,231.5,674.2z M231.5,682.7c0.8,0,1.5,0.7,1.5,1.5
			c0,0.8-0.7,1.5-1.5,1.5s-1.5-0.7-1.5-1.5C230,683.4,230.7,682.7,231.5,682.7z M231.5,691.2c0.8,0,1.5,0.7,1.5,1.5
			c0,0.8-0.7,1.5-1.5,1.5s-1.5-0.7-1.5-1.5C230,691.8,230.7,691.2,231.5,691.2z M223,606.1c0.8,0,1.5,0.7,1.5,1.5s-0.7,1.5-1.5,1.5
			s-1.5-0.7-1.5-1.5S222.1,606.1,223,606.1z M223,614.6c0.8,0,1.5,0.7,1.5,1.5s-0.7,1.5-1.5,1.5s-1.5-0.7-1.5-1.5
			S222.1,614.6,223,614.6z M223,623.1c0.8,0,1.5,0.7,1.5,1.5s-0.7,1.5-1.5,1.5s-1.5-0.7-1.5-1.5S222.1,623.1,223,623.1z M223,631.6
			c0.8,0,1.5,0.7,1.5,1.5s-0.7,1.5-1.5,1.5s-1.5-0.7-1.5-1.5S222.1,631.6,223,631.6z M223,640.2c0.8,0,1.5,0.7,1.5,1.5
			c0,0.8-0.7,1.5-1.5,1.5s-1.5-0.7-1.5-1.5C221.5,640.8,222.1,640.2,223,640.2z M223,648.7c0.8,0,1.5,0.7,1.5,1.5
			c0,0.8-0.7,1.5-1.5,1.5s-1.5-0.7-1.5-1.5C221.5,649.4,222.1,648.7,223,648.7z M223,657.2c0.8,0,1.5,0.7,1.5,1.5
			c0,0.8-0.7,1.5-1.5,1.5s-1.5-0.7-1.5-1.5C221.5,657.8,222.1,657.2,223,657.2z M223,665.7c0.8,0,1.5,0.7,1.5,1.5
			c0,0.8-0.7,1.5-1.5,1.5s-1.5-0.7-1.5-1.5C221.5,666.4,222.1,665.7,223,665.7z M223,674.2c0.8,0,1.5,0.7,1.5,1.5
			c0,0.8-0.7,1.5-1.5,1.5s-1.5-0.7-1.5-1.5C221.5,674.8,222.1,674.2,223,674.2z M223,682.7c0.8,0,1.5,0.7,1.5,1.5
			c0,0.8-0.7,1.5-1.5,1.5s-1.5-0.7-1.5-1.5C221.5,683.4,222.1,682.7,223,682.7z M223,691.2c0.8,0,1.5,0.7,1.5,1.5
			c0,0.8-0.7,1.5-1.5,1.5s-1.5-0.7-1.5-1.5C221.5,691.8,222.1,691.2,223,691.2z M214.5,606.1c0.8,0,1.5,0.7,1.5,1.5
			s-0.7,1.5-1.5,1.5s-1.5-0.7-1.5-1.5S213.6,606.1,214.5,606.1z M214.5,614.6c0.8,0,1.5,0.7,1.5,1.5s-0.7,1.5-1.5,1.5
			s-1.5-0.7-1.5-1.5S213.6,614.6,214.5,614.6z M214.5,623.1c0.8,0,1.5,0.7,1.5,1.5s-0.7,1.5-1.5,1.5s-1.5-0.7-1.5-1.5
			S213.6,623.1,214.5,623.1z M214.5,631.6c0.8,0,1.5,0.7,1.5,1.5s-0.7,1.5-1.5,1.5s-1.5-0.7-1.5-1.5S213.6,631.6,214.5,631.6z
			 M214.5,640.2c0.8,0,1.5,0.7,1.5,1.5c0,0.8-0.7,1.5-1.5,1.5s-1.5-0.7-1.5-1.5C213,640.8,213.6,640.2,214.5,640.2z M214.5,648.7
			c0.8,0,1.5,0.7,1.5,1.5c0,0.8-0.7,1.5-1.5,1.5s-1.5-0.7-1.5-1.5C213,649.4,213.6,648.7,214.5,648.7z M214.5,657.2
			c0.8,0,1.5,0.7,1.5,1.5c0,0.8-0.7,1.5-1.5,1.5s-1.5-0.7-1.5-1.5C213,657.8,213.6,657.2,214.5,657.2z M214.5,665.7
			c0.8,0,1.5,0.7,1.5,1.5c0,0.8-0.7,1.5-1.5,1.5s-1.5-0.7-1.5-1.5C213,666.4,213.6,665.7,214.5,665.7z M214.5,674.2
			c0.8,0,1.5,0.7,1.5,1.5c0,0.8-0.7,1.5-1.5,1.5s-1.5-0.7-1.5-1.5C213,674.8,213.6,674.2,214.5,674.2z M214.5,682.7
			c0.8,0,1.5,0.7,1.5,1.5c0,0.8-0.7,1.5-1.5,1.5s-1.5-0.7-1.5-1.5C213,683.4,213.6,682.7,214.5,682.7z M214.5,691.2
			c0.8,0,1.5,0.7,1.5,1.5c0,0.8-0.7,1.5-1.5,1.5s-1.5-0.7-1.5-1.5C213,691.8,213.6,691.2,214.5,691.2z M206,606.1
			c0.8,0,1.5,0.7,1.5,1.5s-0.7,1.5-1.5,1.5s-1.5-0.7-1.5-1.5S205.1,606.1,206,606.1z M206,614.6c0.8,0,1.5,0.7,1.5,1.5
			s-0.7,1.5-1.5,1.5s-1.5-0.7-1.5-1.5S205.1,614.6,206,614.6z M206,623.1c0.8,0,1.5,0.7,1.5,1.5s-0.7,1.5-1.5,1.5s-1.5-0.7-1.5-1.5
			S205.1,623.1,206,623.1z M206,631.6c0.8,0,1.5,0.7,1.5,1.5s-0.7,1.5-1.5,1.5s-1.5-0.7-1.5-1.5S205.1,631.6,206,631.6z M206,640.2
			c0.8,0,1.5,0.7,1.5,1.5c0,0.8-0.7,1.5-1.5,1.5s-1.5-0.7-1.5-1.5C204.5,640.8,205.1,640.2,206,640.2z M206,648.7
			c0.8,0,1.5,0.7,1.5,1.5c0,0.8-0.7,1.5-1.5,1.5s-1.5-0.7-1.5-1.5C204.5,649.4,205.1,648.7,206,648.7z M206,657.2
			c0.8,0,1.5,0.7,1.5,1.5c0,0.8-0.7,1.5-1.5,1.5s-1.5-0.7-1.5-1.5C204.5,657.8,205.1,657.2,206,657.2z M206,665.7
			c0.8,0,1.5,0.7,1.5,1.5c0,0.8-0.7,1.5-1.5,1.5s-1.5-0.7-1.5-1.5C204.5,666.4,205.1,665.7,206,665.7z M206,674.2
			c0.8,0,1.5,0.7,1.5,1.5c0,0.8-0.7,1.5-1.5,1.5s-1.5-0.7-1.5-1.5C204.5,674.8,205.1,674.2,206,674.2z M206,682.7
			c0.8,0,1.5,0.7,1.5,1.5c0,0.8-0.7,1.5-1.5,1.5s-1.5-0.7-1.5-1.5C204.5,683.4,205.1,682.7,206,682.7z M206,691.2
			c0.8,0,1.5,0.7,1.5,1.5c0,0.8-0.7,1.5-1.5,1.5s-1.5-0.7-1.5-1.5C204.5,691.8,205.1,691.2,206,691.2z M197.5,606.1
			c0.8,0,1.5,0.7,1.5,1.5s-0.7,1.5-1.5,1.5s-1.5-0.7-1.5-1.5S196.6,606.1,197.5,606.1z M197.5,614.6c0.8,0,1.5,0.7,1.5,1.5
			s-0.7,1.5-1.5,1.5s-1.5-0.7-1.5-1.5S196.6,614.6,197.5,614.6z M197.5,623.1c0.8,0,1.5,0.7,1.5,1.5s-0.7,1.5-1.5,1.5
			s-1.5-0.7-1.5-1.5S196.6,623.1,197.5,623.1z M197.5,631.6c0.8,0,1.5,0.7,1.5,1.5s-0.7,1.5-1.5,1.5s-1.5-0.7-1.5-1.5
			S196.6,631.6,197.5,631.6z M197.5,640.2c0.8,0,1.5,0.7,1.5,1.5c0,0.8-0.7,1.5-1.5,1.5s-1.5-0.7-1.5-1.5
			C196,640.8,196.6,640.2,197.5,640.2z M197.5,648.7c0.8,0,1.5,0.7,1.5,1.5c0,0.8-0.7,1.5-1.5,1.5s-1.5-0.7-1.5-1.5
			C196,649.4,196.6,648.7,197.5,648.7z M197.5,657.2c0.8,0,1.5,0.7,1.5,1.5c0,0.8-0.7,1.5-1.5,1.5s-1.5-0.7-1.5-1.5
			C196,657.8,196.6,657.2,197.5,657.2z M197.5,665.7c0.8,0,1.5,0.7,1.5,1.5c0,0.8-0.7,1.5-1.5,1.5s-1.5-0.7-1.5-1.5
			C196,666.4,196.6,665.7,197.5,665.7z M197.5,674.2c0.8,0,1.5,0.7,1.5,1.5c0,0.8-0.7,1.5-1.5,1.5s-1.5-0.7-1.5-1.5
			C196,674.8,196.6,674.2,197.5,674.2z M197.5,682.7c0.8,0,1.5,0.7,1.5,1.5c0,0.8-0.7,1.5-1.5,1.5s-1.5-0.7-1.5-1.5
			C196,683.4,196.6,682.7,197.5,682.7z M197.5,691.2c0.8,0,1.5,0.7,1.5,1.5c0,0.8-0.7,1.5-1.5,1.5s-1.5-0.7-1.5-1.5
			C196,691.8,196.6,691.2,197.5,691.2z M188.9,606.1c0.8,0,1.5,0.7,1.5,1.5s-0.7,1.5-1.5,1.5s-1.5-0.7-1.5-1.5
			C187.5,606.8,188.1,606.1,188.9,606.1z M188.9,614.6c0.8,0,1.5,0.7,1.5,1.5s-0.7,1.5-1.5,1.5s-1.5-0.7-1.5-1.5
			S188.1,614.6,188.9,614.6z M188.9,623.1c0.8,0,1.5,0.7,1.5,1.5s-0.7,1.5-1.5,1.5s-1.5-0.7-1.5-1.5
			C187.5,623.8,188.1,623.1,188.9,623.1z M188.9,631.6c0.8,0,1.5,0.7,1.5,1.5s-0.7,1.5-1.5,1.5s-1.5-0.7-1.5-1.5
			S188.1,631.6,188.9,631.6z M188.9,640.2c0.8,0,1.5,0.7,1.5,1.5c0,0.8-0.7,1.5-1.5,1.5s-1.5-0.7-1.5-1.5
			C187.5,640.8,188.1,640.2,188.9,640.2z M188.9,648.7c0.8,0,1.5,0.7,1.5,1.5c0,0.8-0.7,1.5-1.5,1.5s-1.5-0.7-1.5-1.5
			C187.4,649.4,188.1,648.7,188.9,648.7z M188.9,657.2c0.8,0,1.5,0.7,1.5,1.5c0,0.8-0.7,1.5-1.5,1.5s-1.5-0.7-1.5-1.5
			C187.5,657.8,188.1,657.2,188.9,657.2z M188.9,665.7c0.8,0,1.5,0.7,1.5,1.5c0,0.8-0.7,1.5-1.5,1.5s-1.5-0.7-1.5-1.5
			C187.4,666.4,188.1,665.7,188.9,665.7z M188.9,674.2c0.8,0,1.5,0.7,1.5,1.5c0,0.8-0.7,1.5-1.5,1.5s-1.5-0.7-1.5-1.5
			C187.5,674.8,188.1,674.2,188.9,674.2z M188.9,682.7c0.8,0,1.5,0.7,1.5,1.5c0,0.8-0.7,1.5-1.5,1.5s-1.5-0.7-1.5-1.5
			C187.4,683.4,188.1,682.7,188.9,682.7z M188.9,691.2c0.8,0,1.5,0.7,1.5,1.5c0,0.8-0.7,1.5-1.5,1.5s-1.5-0.7-1.5-1.5
			C187.5,691.8,188.1,691.2,188.9,691.2z M180.4,606.1c0.8,0,1.5,0.7,1.5,1.5s-0.7,1.5-1.5,1.5s-1.5-0.7-1.5-1.5
			C179,606.8,179.6,606.1,180.4,606.1z M180.4,614.6c0.8,0,1.5,0.7,1.5,1.5s-0.7,1.5-1.5,1.5s-1.5-0.7-1.5-1.5
			S179.6,614.6,180.4,614.6z M180.4,623.1c0.8,0,1.5,0.7,1.5,1.5s-0.7,1.5-1.5,1.5s-1.5-0.7-1.5-1.5
			C179,623.8,179.6,623.1,180.4,623.1z M180.4,631.6c0.8,0,1.5,0.7,1.5,1.5s-0.7,1.5-1.5,1.5s-1.5-0.7-1.5-1.5
			S179.6,631.6,180.4,631.6z M180.4,640.2c0.8,0,1.5,0.7,1.5,1.5c0,0.8-0.7,1.5-1.5,1.5s-1.5-0.7-1.5-1.5
			C179,640.8,179.6,640.2,180.4,640.2z M180.4,648.7c0.8,0,1.5,0.7,1.5,1.5c0,0.8-0.7,1.5-1.5,1.5s-1.5-0.7-1.5-1.5
			C178.9,649.4,179.6,648.7,180.4,648.7z M180.4,657.2c0.8,0,1.5,0.7,1.5,1.5c0,0.8-0.7,1.5-1.5,1.5s-1.5-0.7-1.5-1.5
			C179,657.8,179.6,657.2,180.4,657.2z M180.4,665.7c0.8,0,1.5,0.7,1.5,1.5c0,0.8-0.7,1.5-1.5,1.5s-1.5-0.7-1.5-1.5
			C178.9,666.4,179.6,665.7,180.4,665.7z M180.4,674.2c0.8,0,1.5,0.7,1.5,1.5c0,0.8-0.7,1.5-1.5,1.5s-1.5-0.7-1.5-1.5
			C179,674.8,179.6,674.2,180.4,674.2z M180.4,682.7c0.8,0,1.5,0.7,1.5,1.5c0,0.8-0.7,1.5-1.5,1.5s-1.5-0.7-1.5-1.5
			C178.9,683.4,179.6,682.7,180.4,682.7z M180.4,691.2c0.8,0,1.5,0.7,1.5,1.5c0,0.8-0.7,1.5-1.5,1.5s-1.5-0.7-1.5-1.5
			C179,691.8,179.6,691.2,180.4,691.2z M171.9,606.1c0.8,0,1.5,0.7,1.5,1.5s-0.7,1.5-1.5,1.5s-1.5-0.7-1.5-1.5
			C170.5,606.8,171.1,606.1,171.9,606.1z M171.9,614.6c0.8,0,1.5,0.7,1.5,1.5s-0.7,1.5-1.5,1.5s-1.5-0.7-1.5-1.5
			S171.1,614.6,171.9,614.6z M171.9,623.1c0.8,0,1.5,0.7,1.5,1.5s-0.7,1.5-1.5,1.5s-1.5-0.7-1.5-1.5
			C170.5,623.8,171.1,623.1,171.9,623.1z M171.9,631.6c0.8,0,1.5,0.7,1.5,1.5s-0.7,1.5-1.5,1.5s-1.5-0.7-1.5-1.5
			S171.1,631.6,171.9,631.6z M171.9,640.2c0.8,0,1.5,0.7,1.5,1.5c0,0.8-0.7,1.5-1.5,1.5s-1.5-0.7-1.5-1.5
			C170.5,640.8,171.1,640.2,171.9,640.2z M171.9,648.7c0.8,0,1.5,0.7,1.5,1.5c0,0.8-0.7,1.5-1.5,1.5s-1.5-0.7-1.5-1.5
			C170.4,649.4,171.1,648.7,171.9,648.7z M171.9,657.2c0.8,0,1.5,0.7,1.5,1.5c0,0.8-0.7,1.5-1.5,1.5s-1.5-0.7-1.5-1.5
			C170.5,657.8,171.1,657.2,171.9,657.2z M171.9,665.7c0.8,0,1.5,0.7,1.5,1.5c0,0.8-0.7,1.5-1.5,1.5s-1.5-0.7-1.5-1.5
			C170.4,666.4,171.1,665.7,171.9,665.7z M171.9,674.2c0.8,0,1.5,0.7,1.5,1.5c0,0.8-0.7,1.5-1.5,1.5s-1.5-0.7-1.5-1.5
			C170.5,674.8,171.1,674.2,171.9,674.2z M171.9,682.7c0.8,0,1.5,0.7,1.5,1.5c0,0.8-0.7,1.5-1.5,1.5s-1.5-0.7-1.5-1.5
			C170.4,683.4,171.1,682.7,171.9,682.7z M171.9,691.2c0.8,0,1.5,0.7,1.5,1.5c0,0.8-0.7,1.5-1.5,1.5s-1.5-0.7-1.5-1.5
			C170.5,691.8,171.1,691.2,171.9,691.2z M163.4,614.6c0.8,0,1.5,0.7,1.5,1.5s-0.7,1.5-1.5,1.5s-1.5-0.7-1.5-1.5
			S162.6,614.6,163.4,614.6z M163.4,623.1c0.8,0,1.5,0.7,1.5,1.5s-0.7,1.5-1.5,1.5s-1.5-0.7-1.5-1.5
			C162,623.8,162.6,623.1,163.4,623.1z M163.4,631.6c0.8,0,1.5,0.7,1.5,1.5s-0.7,1.5-1.5,1.5s-1.5-0.7-1.5-1.5
			S162.6,631.6,163.4,631.6z M163.4,640.2c0.8,0,1.5,0.7,1.5,1.5c0,0.8-0.7,1.5-1.5,1.5s-1.5-0.7-1.5-1.5
			C162,640.8,162.6,640.2,163.4,640.2z M163.4,648.7c0.8,0,1.5,0.7,1.5,1.5c0,0.8-0.7,1.5-1.5,1.5s-1.5-0.7-1.5-1.5
			C161.9,649.4,162.6,648.7,163.4,648.7z M163.4,657.2c0.8,0,1.5,0.7,1.5,1.5c0,0.8-0.7,1.5-1.5,1.5s-1.5-0.7-1.5-1.5
			C162,657.8,162.6,657.2,163.4,657.2z M163.4,665.7c0.8,0,1.5,0.7,1.5,1.5c0,0.8-0.7,1.5-1.5,1.5s-1.5-0.7-1.5-1.5
			C161.9,666.4,162.6,665.7,163.4,665.7z M163.4,674.2c0.8,0,1.5,0.7,1.5,1.5c0,0.8-0.7,1.5-1.5,1.5s-1.5-0.7-1.5-1.5
			C162,674.8,162.6,674.2,163.4,674.2z M163.4,682.7c0.8,0,1.5,0.7,1.5,1.5c0,0.8-0.7,1.5-1.5,1.5s-1.5-0.7-1.5-1.5
			C161.9,683.4,162.6,682.7,163.4,682.7z M163.4,691.2c0.8,0,1.5,0.7,1.5,1.5c0,0.8-0.7,1.5-1.5,1.5s-1.5-0.7-1.5-1.5
			C162,691.8,162.6,691.2,163.4,691.2z M154.9,606.1c0.8,0,1.5,0.7,1.5,1.5s-0.7,1.5-1.5,1.5s-1.5-0.7-1.5-1.5
			C153.5,606.8,154.1,606.1,154.9,606.1z M154.9,614.6c0.8,0,1.5,0.7,1.5,1.5s-0.7,1.5-1.5,1.5s-1.5-0.7-1.5-1.5
			S154.1,614.6,154.9,614.6z M154.9,623.1c0.8,0,1.5,0.7,1.5,1.5s-0.7,1.5-1.5,1.5s-1.5-0.7-1.5-1.5
			C153.5,623.8,154.1,623.1,154.9,623.1z M154.9,631.6c0.8,0,1.5,0.7,1.5,1.5s-0.7,1.5-1.5,1.5s-1.5-0.7-1.5-1.5
			S154.1,631.6,154.9,631.6z M154.9,640.2c0.8,0,1.5,0.7,1.5,1.5c0,0.8-0.7,1.5-1.5,1.5s-1.5-0.7-1.5-1.5
			C153.5,640.8,154.1,640.2,154.9,640.2z M154.9,648.7c0.8,0,1.5,0.7,1.5,1.5c0,0.8-0.7,1.5-1.5,1.5s-1.5-0.7-1.5-1.5
			C153.4,649.4,154.1,648.7,154.9,648.7z M154.9,657.2c0.8,0,1.5,0.7,1.5,1.5c0,0.8-0.7,1.5-1.5,1.5s-1.5-0.7-1.5-1.5
			C153.5,657.8,154.1,657.2,154.9,657.2z M154.9,665.7c0.8,0,1.5,0.7,1.5,1.5c0,0.8-0.7,1.5-1.5,1.5s-1.5-0.7-1.5-1.5
			C153.4,666.4,154.1,665.7,154.9,665.7z M154.9,674.2c0.8,0,1.5,0.7,1.5,1.5c0,0.8-0.7,1.5-1.5,1.5s-1.5-0.7-1.5-1.5
			C153.5,674.8,154.1,674.2,154.9,674.2z M154.9,682.7c0.8,0,1.5,0.7,1.5,1.5c0,0.8-0.7,1.5-1.5,1.5s-1.5-0.7-1.5-1.5
			C153.4,683.4,154.1,682.7,154.9,682.7z M154.9,691.2c0.8,0,1.5,0.7,1.5,1.5c0,0.8-0.7,1.5-1.5,1.5s-1.5-0.7-1.5-1.5
			C153.5,691.8,154.1,691.2,154.9,691.2z M146.4,597.6c0.8,0,1.5,0.7,1.5,1.5s-0.7,1.5-1.5,1.5s-1.5-0.7-1.5-1.5
			S145.6,597.6,146.4,597.6z M146.4,606.1c0.8,0,1.5,0.7,1.5,1.5s-0.7,1.5-1.5,1.5s-1.5-0.7-1.5-1.5
			C145,606.8,145.6,606.1,146.4,606.1z M146.4,614.6c0.8,0,1.5,0.7,1.5,1.5s-0.7,1.5-1.5,1.5s-1.5-0.7-1.5-1.5
			S145.6,614.6,146.4,614.6z M146.4,623.1c0.8,0,1.5,0.7,1.5,1.5s-0.7,1.5-1.5,1.5s-1.5-0.7-1.5-1.5
			C145,623.8,145.6,623.1,146.4,623.1z M146.4,631.6c0.8,0,1.5,0.7,1.5,1.5s-0.7,1.5-1.5,1.5s-1.5-0.7-1.5-1.5
			S145.6,631.6,146.4,631.6z M146.4,640.2c0.8,0,1.5,0.7,1.5,1.5c0,0.8-0.7,1.5-1.5,1.5s-1.5-0.7-1.5-1.5
			C145,640.8,145.6,640.2,146.4,640.2z M146.4,648.7c0.8,0,1.5,0.7,1.5,1.5c0,0.8-0.7,1.5-1.5,1.5s-1.5-0.7-1.5-1.5
			C144.9,649.4,145.6,648.7,146.4,648.7z M146.4,657.2c0.8,0,1.5,0.7,1.5,1.5c0,0.8-0.7,1.5-1.5,1.5s-1.5-0.7-1.5-1.5
			C145,657.8,145.6,657.2,146.4,657.2z M146.4,665.7c0.8,0,1.5,0.7,1.5,1.5c0,0.8-0.7,1.5-1.5,1.5s-1.5-0.7-1.5-1.5
			C144.9,666.4,145.6,665.7,146.4,665.7z M146.4,674.2c0.8,0,1.5,0.7,1.5,1.5c0,0.8-0.7,1.5-1.5,1.5s-1.5-0.7-1.5-1.5
			C145,674.8,145.6,674.2,146.4,674.2z M146.4,682.7c0.8,0,1.5,0.7,1.5,1.5c0,0.8-0.7,1.5-1.5,1.5s-1.5-0.7-1.5-1.5
			C144.9,683.4,145.6,682.7,146.4,682.7z M146.4,691.2c0.8,0,1.5,0.7,1.5,1.5c0,0.8-0.7,1.5-1.5,1.5s-1.5-0.7-1.5-1.5
			C145,691.8,145.6,691.2,146.4,691.2z M137.9,589.1c0.8,0,1.5,0.7,1.5,1.5c0,0.8-0.7,1.5-1.5,1.5s-1.5-0.7-1.5-1.5
			C136.4,589.8,137.1,589.1,137.9,589.1z M137.9,597.6c0.8,0,1.5,0.7,1.5,1.5s-0.7,1.5-1.5,1.5s-1.5-0.7-1.5-1.5
			S137.1,597.6,137.9,597.6z M137.9,606.1c0.8,0,1.5,0.7,1.5,1.5s-0.7,1.5-1.5,1.5s-1.5-0.7-1.5-1.5S137.1,606.1,137.9,606.1z
			 M137.9,614.6c0.8,0,1.5,0.7,1.5,1.5s-0.7,1.5-1.5,1.5s-1.5-0.7-1.5-1.5S137.1,614.6,137.9,614.6z M137.9,623.1
			c0.8,0,1.5,0.7,1.5,1.5s-0.7,1.5-1.5,1.5s-1.5-0.7-1.5-1.5S137.1,623.1,137.9,623.1z M137.9,631.6c0.8,0,1.5,0.7,1.5,1.5
			s-0.7,1.5-1.5,1.5s-1.5-0.7-1.5-1.5S137.1,631.6,137.9,631.6z M137.9,640.2c0.8,0,1.5,0.7,1.5,1.5c0,0.8-0.7,1.5-1.5,1.5
			s-1.5-0.7-1.5-1.5C136.4,640.8,137.1,640.2,137.9,640.2z M137.9,648.7c0.8,0,1.5,0.7,1.5,1.5c0,0.8-0.7,1.5-1.5,1.5
			s-1.5-0.7-1.5-1.5C136.4,649.4,137.1,648.7,137.9,648.7z M137.9,657.2c0.8,0,1.5,0.7,1.5,1.5c0,0.8-0.7,1.5-1.5,1.5
			s-1.5-0.7-1.5-1.5C136.4,657.8,137.1,657.2,137.9,657.2z M137.9,665.7c0.8,0,1.5,0.7,1.5,1.5c0,0.8-0.7,1.5-1.5,1.5
			s-1.5-0.7-1.5-1.5C136.4,666.4,137.1,665.7,137.9,665.7z M137.9,674.2c0.8,0,1.5,0.7,1.5,1.5c0,0.8-0.7,1.5-1.5,1.5
			s-1.5-0.7-1.5-1.5C136.4,674.8,137.1,674.2,137.9,674.2z M137.9,682.7c0.8,0,1.5,0.7,1.5,1.5c0,0.8-0.7,1.5-1.5,1.5
			s-1.5-0.7-1.5-1.5C136.4,683.4,137.1,682.7,137.9,682.7z M137.9,691.2c0.8,0,1.5,0.7,1.5,1.5c0,0.8-0.7,1.5-1.5,1.5
			s-1.5-0.7-1.5-1.5C136.4,691.8,137.1,691.2,137.9,691.2z M129.4,580.6c0.8,0,1.5,0.7,1.5,1.5c0,0.8-0.7,1.5-1.5,1.5
			s-1.5-0.7-1.5-1.5C127.9,581.3,128.6,580.6,129.4,580.6z M129.4,589.1c0.8,0,1.5,0.7,1.5,1.5c0,0.8-0.7,1.5-1.5,1.5
			s-1.5-0.7-1.5-1.5C127.9,589.8,128.6,589.1,129.4,589.1z M129.4,597.6c0.8,0,1.5,0.7,1.5,1.5s-0.7,1.5-1.5,1.5s-1.5-0.7-1.5-1.5
			S128.6,597.6,129.4,597.6z M129.4,606.1c0.8,0,1.5,0.7,1.5,1.5s-0.7,1.5-1.5,1.5s-1.5-0.7-1.5-1.5
			C127.9,606.8,128.6,606.1,129.4,606.1z M129.4,614.6c0.8,0,1.5,0.7,1.5,1.5s-0.7,1.5-1.5,1.5s-1.5-0.7-1.5-1.5
			S128.6,614.6,129.4,614.6z M129.4,623.1c0.8,0,1.5,0.7,1.5,1.5s-0.7,1.5-1.5,1.5s-1.5-0.7-1.5-1.5
			C127.9,623.8,128.6,623.1,129.4,623.1z M129.4,631.6c0.8,0,1.5,0.7,1.5,1.5s-0.7,1.5-1.5,1.5s-1.5-0.7-1.5-1.5
			S128.6,631.6,129.4,631.6z M129.4,640.2c0.8,0,1.5,0.7,1.5,1.5c0,0.8-0.7,1.5-1.5,1.5s-1.5-0.7-1.5-1.5
			C127.9,640.8,128.6,640.2,129.4,640.2z M129.4,648.7c0.8,0,1.5,0.7,1.5,1.5c0,0.8-0.7,1.5-1.5,1.5s-1.5-0.7-1.5-1.5
			C127.9,649.4,128.6,648.7,129.4,648.7z M129.4,657.2c0.8,0,1.5,0.7,1.5,1.5c0,0.8-0.7,1.5-1.5,1.5s-1.5-0.7-1.5-1.5
			C127.9,657.8,128.6,657.2,129.4,657.2z M129.4,665.7c0.8,0,1.5,0.7,1.5,1.5c0,0.8-0.7,1.5-1.5,1.5s-1.5-0.7-1.5-1.5
			C127.9,666.4,128.6,665.7,129.4,665.7z M129.4,674.2c0.8,0,1.5,0.7,1.5,1.5c0,0.8-0.7,1.5-1.5,1.5s-1.5-0.7-1.5-1.5
			C127.9,674.8,128.6,674.2,129.4,674.2z M129.4,682.7c0.8,0,1.5,0.7,1.5,1.5c0,0.8-0.7,1.5-1.5,1.5s-1.5-0.7-1.5-1.5
			C127.9,683.4,128.6,682.7,129.4,682.7z M129.4,691.2c0.8,0,1.5,0.7,1.5,1.5c0,0.8-0.7,1.5-1.5,1.5s-1.5-0.7-1.5-1.5
			C127.9,691.8,128.6,691.2,129.4,691.2z M120.9,580.6c0.8,0,1.5,0.7,1.5,1.5c0,0.8-0.7,1.5-1.5,1.5s-1.5-0.7-1.5-1.5
			C119.4,581.3,120.1,580.6,120.9,580.6z M120.9,589.1c0.8,0,1.5,0.7,1.5,1.5c0,0.8-0.7,1.5-1.5,1.5s-1.5-0.7-1.5-1.5
			C119.4,589.8,120.1,589.1,120.9,589.1z M120.9,597.6c0.8,0,1.5,0.7,1.5,1.5s-0.7,1.5-1.5,1.5s-1.5-0.7-1.5-1.5
			S120.1,597.6,120.9,597.6z M120.9,606.1c0.8,0,1.5,0.7,1.5,1.5s-0.7,1.5-1.5,1.5s-1.5-0.7-1.5-1.5S120.1,606.1,120.9,606.1z
			 M120.9,614.6c0.8,0,1.5,0.7,1.5,1.5s-0.7,1.5-1.5,1.5s-1.5-0.7-1.5-1.5S120.1,614.6,120.9,614.6z M120.9,623.1
			c0.8,0,1.5,0.7,1.5,1.5s-0.7,1.5-1.5,1.5s-1.5-0.7-1.5-1.5S120.1,623.1,120.9,623.1z M120.9,631.6c0.8,0,1.5,0.7,1.5,1.5
			s-0.7,1.5-1.5,1.5s-1.5-0.7-1.5-1.5S120.1,631.6,120.9,631.6z M120.9,640.2c0.8,0,1.5,0.7,1.5,1.5c0,0.8-0.7,1.5-1.5,1.5
			s-1.5-0.7-1.5-1.5C119.4,640.8,120.1,640.2,120.9,640.2z M120.9,648.7c0.8,0,1.5,0.7,1.5,1.5c0,0.8-0.7,1.5-1.5,1.5
			s-1.5-0.7-1.5-1.5C119.4,649.4,120.1,648.7,120.9,648.7z M120.9,657.2c0.8,0,1.5,0.7,1.5,1.5c0,0.8-0.7,1.5-1.5,1.5
			s-1.5-0.7-1.5-1.5C119.4,657.8,120.1,657.2,120.9,657.2z M120.9,665.7c0.8,0,1.5,0.7,1.5,1.5c0,0.8-0.7,1.5-1.5,1.5
			s-1.5-0.7-1.5-1.5C119.4,666.4,120.1,665.7,120.9,665.7z M120.9,674.2c0.8,0,1.5,0.7,1.5,1.5c0,0.8-0.7,1.5-1.5,1.5
			s-1.5-0.7-1.5-1.5C119.4,674.8,120.1,674.2,120.9,674.2z M120.9,682.7c0.8,0,1.5,0.7,1.5,1.5c0,0.8-0.7,1.5-1.5,1.5
			s-1.5-0.7-1.5-1.5C119.4,683.4,120.1,682.7,120.9,682.7z M120.9,691.2c0.8,0,1.5,0.7,1.5,1.5c0,0.8-0.7,1.5-1.5,1.5
			s-1.5-0.7-1.5-1.5C119.4,691.8,120.1,691.2,120.9,691.2z M112.4,572.1c0.8,0,1.5,0.7,1.5,1.5c0,0.8-0.7,1.5-1.5,1.5
			s-1.5-0.7-1.5-1.5C110.9,572.8,111.6,572.1,112.4,572.1z M112.4,580.6c0.8,0,1.5,0.7,1.5,1.5c0,0.8-0.7,1.5-1.5,1.5
			s-1.5-0.7-1.5-1.5C110.9,581.3,111.6,580.6,112.4,580.6z M112.4,589.1c0.8,0,1.5,0.7,1.5,1.5c0,0.8-0.7,1.5-1.5,1.5
			s-1.5-0.7-1.5-1.5C110.9,589.8,111.6,589.1,112.4,589.1z M112.4,597.6c0.8,0,1.5,0.7,1.5,1.5s-0.7,1.5-1.5,1.5s-1.5-0.7-1.5-1.5
			S111.6,597.6,112.4,597.6z M112.4,606.1c0.8,0,1.5,0.7,1.5,1.5s-0.7,1.5-1.5,1.5s-1.5-0.7-1.5-1.5S111.6,606.1,112.4,606.1z
			 M112.4,614.6c0.8,0,1.5,0.7,1.5,1.5s-0.7,1.5-1.5,1.5s-1.5-0.7-1.5-1.5S111.6,614.6,112.4,614.6z M112.4,623.1
			c0.8,0,1.5,0.7,1.5,1.5s-0.7,1.5-1.5,1.5s-1.5-0.7-1.5-1.5S111.6,623.1,112.4,623.1z M112.4,631.6c0.8,0,1.5,0.7,1.5,1.5
			s-0.7,1.5-1.5,1.5s-1.5-0.7-1.5-1.5S111.6,631.6,112.4,631.6z M112.4,640.2c0.8,0,1.5,0.7,1.5,1.5c0,0.8-0.7,1.5-1.5,1.5
			s-1.5-0.7-1.5-1.5C110.9,640.8,111.6,640.2,112.4,640.2z M112.4,648.7c0.8,0,1.5,0.7,1.5,1.5c0,0.8-0.7,1.5-1.5,1.5
			s-1.5-0.7-1.5-1.5C110.9,649.4,111.6,648.7,112.4,648.7z M112.4,657.2c0.8,0,1.5,0.7,1.5,1.5c0,0.8-0.7,1.5-1.5,1.5
			s-1.5-0.7-1.5-1.5C110.9,657.8,111.6,657.2,112.4,657.2z M112.4,665.7c0.8,0,1.5,0.7,1.5,1.5c0,0.8-0.7,1.5-1.5,1.5
			s-1.5-0.7-1.5-1.5C110.9,666.4,111.6,665.7,112.4,665.7z M112.4,674.2c0.8,0,1.5,0.7,1.5,1.5c0,0.8-0.7,1.5-1.5,1.5
			s-1.5-0.7-1.5-1.5C110.9,674.8,111.6,674.2,112.4,674.2z M112.4,682.7c0.8,0,1.5,0.7,1.5,1.5c0,0.8-0.7,1.5-1.5,1.5
			s-1.5-0.7-1.5-1.5C110.9,683.4,111.6,682.7,112.4,682.7z M112.4,691.2c0.8,0,1.5,0.7,1.5,1.5c0,0.8-0.7,1.5-1.5,1.5
			s-1.5-0.7-1.5-1.5C110.9,691.8,111.6,691.2,112.4,691.2z M103.9,563.6c0.8,0,1.5,0.7,1.5,1.5c0,0.8-0.7,1.5-1.5,1.5
			s-1.5-0.7-1.5-1.5C102.4,564.3,103.1,563.6,103.9,563.6z M103.9,572.1c0.8,0,1.5,0.7,1.5,1.5c0,0.8-0.7,1.5-1.5,1.5
			s-1.5-0.7-1.5-1.5C102.4,572.8,103.1,572.1,103.9,572.1z M103.9,580.6c0.8,0,1.5,0.7,1.5,1.5c0,0.8-0.7,1.5-1.5,1.5
			s-1.5-0.7-1.5-1.5C102.4,581.3,103.1,580.6,103.9,580.6z M103.9,589.1c0.8,0,1.5,0.7,1.5,1.5c0,0.8-0.7,1.5-1.5,1.5
			s-1.5-0.7-1.5-1.5C102.4,589.8,103.1,589.1,103.9,589.1z M103.9,597.6c0.8,0,1.5,0.7,1.5,1.5s-0.7,1.5-1.5,1.5s-1.5-0.7-1.5-1.5
			S103.1,597.6,103.9,597.6z M103.9,606.1c0.8,0,1.5,0.7,1.5,1.5s-0.7,1.5-1.5,1.5s-1.5-0.7-1.5-1.5S103.1,606.1,103.9,606.1z
			 M103.9,614.6c0.8,0,1.5,0.7,1.5,1.5s-0.7,1.5-1.5,1.5s-1.5-0.7-1.5-1.5S103.1,614.6,103.9,614.6z M103.9,623.1
			c0.8,0,1.5,0.7,1.5,1.5s-0.7,1.5-1.5,1.5s-1.5-0.7-1.5-1.5S103.1,623.1,103.9,623.1z M103.9,631.6c0.8,0,1.5,0.7,1.5,1.5
			s-0.7,1.5-1.5,1.5s-1.5-0.7-1.5-1.5S103.1,631.6,103.9,631.6z M103.9,640.2c0.8,0,1.5,0.7,1.5,1.5c0,0.8-0.7,1.5-1.5,1.5
			s-1.5-0.7-1.5-1.5C102.4,640.8,103.1,640.2,103.9,640.2z M103.9,648.7c0.8,0,1.5,0.7,1.5,1.5c0,0.8-0.7,1.5-1.5,1.5
			s-1.5-0.7-1.5-1.5C102.4,649.4,103.1,648.7,103.9,648.7z M103.9,657.2c0.8,0,1.5,0.7,1.5,1.5c0,0.8-0.7,1.5-1.5,1.5
			s-1.5-0.7-1.5-1.5C102.4,657.8,103.1,657.2,103.9,657.2z M103.9,665.7c0.8,0,1.5,0.7,1.5,1.5c0,0.8-0.7,1.5-1.5,1.5
			s-1.5-0.7-1.5-1.5C102.4,666.4,103.1,665.7,103.9,665.7z M103.9,674.2c0.8,0,1.5,0.7,1.5,1.5c0,0.8-0.7,1.5-1.5,1.5
			s-1.5-0.7-1.5-1.5C102.4,674.8,103.1,674.2,103.9,674.2z M103.9,682.7c0.8,0,1.5,0.7,1.5,1.5c0,0.8-0.7,1.5-1.5,1.5
			s-1.5-0.7-1.5-1.5C102.4,683.4,103.1,682.7,103.9,682.7z M103.9,691.2c0.8,0,1.5,0.7,1.5,1.5c0,0.8-0.7,1.5-1.5,1.5
			s-1.5-0.7-1.5-1.5C102.4,691.8,103.1,691.2,103.9,691.2z M95.4,563.6c0.8,0,1.5,0.7,1.5,1.5c0,0.8-0.7,1.5-1.5,1.5
			s-1.5-0.7-1.5-1.5C93.9,564.3,94.6,563.6,95.4,563.6z M95.4,572.1c0.8,0,1.5,0.7,1.5,1.5c0,0.8-0.7,1.5-1.5,1.5s-1.5-0.7-1.5-1.5
			C93.9,572.8,94.6,572.1,95.4,572.1z M95.4,580.6c0.8,0,1.5,0.7,1.5,1.5c0,0.8-0.7,1.5-1.5,1.5s-1.5-0.7-1.5-1.5
			C93.9,581.3,94.6,580.6,95.4,580.6z M95.4,589.1c0.8,0,1.5,0.7,1.5,1.5c0,0.8-0.7,1.5-1.5,1.5s-1.5-0.7-1.5-1.5
			C93.9,589.8,94.6,589.1,95.4,589.1z M95.4,597.6c0.8,0,1.5,0.7,1.5,1.5s-0.7,1.5-1.5,1.5s-1.5-0.7-1.5-1.5S94.6,597.6,95.4,597.6z
			 M95.4,606.1c0.8,0,1.5,0.7,1.5,1.5s-0.7,1.5-1.5,1.5s-1.5-0.7-1.5-1.5S94.6,606.1,95.4,606.1z M95.4,614.6c0.8,0,1.5,0.7,1.5,1.5
			s-0.7,1.5-1.5,1.5s-1.5-0.7-1.5-1.5S94.6,614.6,95.4,614.6z M95.4,623.1c0.8,0,1.5,0.7,1.5,1.5s-0.7,1.5-1.5,1.5s-1.5-0.7-1.5-1.5
			S94.6,623.1,95.4,623.1z M95.4,631.6c0.8,0,1.5,0.7,1.5,1.5s-0.7,1.5-1.5,1.5s-1.5-0.7-1.5-1.5S94.6,631.6,95.4,631.6z
			 M95.4,640.2c0.8,0,1.5,0.7,1.5,1.5c0,0.8-0.7,1.5-1.5,1.5s-1.5-0.7-1.5-1.5C93.9,640.8,94.6,640.2,95.4,640.2z M95.4,648.7
			c0.8,0,1.5,0.7,1.5,1.5c0,0.8-0.7,1.5-1.5,1.5s-1.5-0.7-1.5-1.5C93.9,649.4,94.6,648.7,95.4,648.7z M95.4,657.2
			c0.8,0,1.5,0.7,1.5,1.5c0,0.8-0.7,1.5-1.5,1.5s-1.5-0.7-1.5-1.5C93.9,657.8,94.6,657.2,95.4,657.2z M95.4,665.7
			c0.8,0,1.5,0.7,1.5,1.5c0,0.8-0.7,1.5-1.5,1.5s-1.5-0.7-1.5-1.5C93.9,666.4,94.6,665.7,95.4,665.7z M95.4,674.2
			c0.8,0,1.5,0.7,1.5,1.5c0,0.8-0.7,1.5-1.5,1.5s-1.5-0.7-1.5-1.5C93.9,674.8,94.6,674.2,95.4,674.2z M95.4,682.7
			c0.8,0,1.5,0.7,1.5,1.5c0,0.8-0.7,1.5-1.5,1.5s-1.5-0.7-1.5-1.5C93.9,683.4,94.6,682.7,95.4,682.7z M95.4,691.2
			c0.8,0,1.5,0.7,1.5,1.5c0,0.8-0.7,1.5-1.5,1.5s-1.5-0.7-1.5-1.5C93.9,691.8,94.6,691.2,95.4,691.2z M86.9,555.1
			c0.8,0,1.5,0.7,1.5,1.5c0,0.8-0.7,1.5-1.5,1.5s-1.5-0.7-1.5-1.5C85.4,555.8,86.1,555.1,86.9,555.1z M86.9,563.6
			c0.8,0,1.5,0.7,1.5,1.5c0,0.8-0.7,1.5-1.5,1.5s-1.5-0.7-1.5-1.5C85.4,564.3,86.1,563.6,86.9,563.6z M86.9,572.1
			c0.8,0,1.5,0.7,1.5,1.5c0,0.8-0.7,1.5-1.5,1.5s-1.5-0.7-1.5-1.5C85.4,572.8,86.1,572.1,86.9,572.1z M86.9,580.6
			c0.8,0,1.5,0.7,1.5,1.5c0,0.8-0.7,1.5-1.5,1.5s-1.5-0.7-1.5-1.5C85.4,581.3,86.1,580.6,86.9,580.6z M86.9,589.1
			c0.8,0,1.5,0.7,1.5,1.5c0,0.8-0.7,1.5-1.5,1.5s-1.5-0.7-1.5-1.5C85.4,589.8,86.1,589.1,86.9,589.1z M86.9,597.6
			c0.8,0,1.5,0.7,1.5,1.5s-0.7,1.5-1.5,1.5s-1.5-0.7-1.5-1.5S86.1,597.6,86.9,597.6z M86.9,606.1c0.8,0,1.5,0.7,1.5,1.5
			s-0.7,1.5-1.5,1.5s-1.5-0.7-1.5-1.5S86.1,606.1,86.9,606.1z M86.9,614.6c0.8,0,1.5,0.7,1.5,1.5s-0.7,1.5-1.5,1.5s-1.5-0.7-1.5-1.5
			S86.1,614.6,86.9,614.6z M86.9,623.1c0.8,0,1.5,0.7,1.5,1.5s-0.7,1.5-1.5,1.5s-1.5-0.7-1.5-1.5S86.1,623.1,86.9,623.1z
			 M86.9,631.6c0.8,0,1.5,0.7,1.5,1.5s-0.7,1.5-1.5,1.5s-1.5-0.7-1.5-1.5S86.1,631.6,86.9,631.6z M86.9,640.2c0.8,0,1.5,0.7,1.5,1.5
			c0,0.8-0.7,1.5-1.5,1.5s-1.5-0.7-1.5-1.5C85.4,640.8,86.1,640.2,86.9,640.2z M86.9,648.7c0.8,0,1.5,0.7,1.5,1.5
			c0,0.8-0.7,1.5-1.5,1.5s-1.5-0.7-1.5-1.5C85.4,649.4,86.1,648.7,86.9,648.7z M86.9,657.2c0.8,0,1.5,0.7,1.5,1.5
			c0,0.8-0.7,1.5-1.5,1.5s-1.5-0.7-1.5-1.5C85.4,657.8,86.1,657.2,86.9,657.2z M86.9,665.7c0.8,0,1.5,0.7,1.5,1.5
			c0,0.8-0.7,1.5-1.5,1.5s-1.5-0.7-1.5-1.5C85.4,666.4,86.1,665.7,86.9,665.7z M86.9,674.2c0.8,0,1.5,0.7,1.5,1.5
			c0,0.8-0.7,1.5-1.5,1.5s-1.5-0.7-1.5-1.5C85.4,674.8,86.1,674.2,86.9,674.2z M86.9,682.7c0.8,0,1.5,0.7,1.5,1.5
			c0,0.8-0.7,1.5-1.5,1.5s-1.5-0.7-1.5-1.5C85.4,683.4,86.1,682.7,86.9,682.7z M86.9,691.2c0.8,0,1.5,0.7,1.5,1.5
			c0,0.8-0.7,1.5-1.5,1.5s-1.5-0.7-1.5-1.5C85.4,691.8,86.1,691.2,86.9,691.2z M78.4,555.1c0.8,0,1.5,0.7,1.5,1.5
			c0,0.8-0.7,1.5-1.5,1.5s-1.5-0.7-1.5-1.5C76.9,555.8,77.6,555.1,78.4,555.1z M78.4,563.6c0.8,0,1.5,0.7,1.5,1.5
			c0,0.8-0.7,1.5-1.5,1.5s-1.5-0.7-1.5-1.5C76.9,564.3,77.6,563.6,78.4,563.6z M78.4,572.1c0.8,0,1.5,0.7,1.5,1.5
			c0,0.8-0.7,1.5-1.5,1.5s-1.5-0.7-1.5-1.5C76.9,572.8,77.6,572.1,78.4,572.1z M78.4,580.6c0.8,0,1.5,0.7,1.5,1.5
			c0,0.8-0.7,1.5-1.5,1.5s-1.5-0.7-1.5-1.5C76.9,581.3,77.6,580.6,78.4,580.6z M78.4,589.1c0.8,0,1.5,0.7,1.5,1.5
			c0,0.8-0.7,1.5-1.5,1.5s-1.5-0.7-1.5-1.5C76.9,589.8,77.6,589.1,78.4,589.1z M78.4,597.6c0.8,0,1.5,0.7,1.5,1.5s-0.7,1.5-1.5,1.5
			s-1.5-0.7-1.5-1.5S77.6,597.6,78.4,597.6z M78.4,606.1c0.8,0,1.5,0.7,1.5,1.5s-0.7,1.5-1.5,1.5s-1.5-0.7-1.5-1.5
			S77.6,606.1,78.4,606.1z M78.4,614.6c0.8,0,1.5,0.7,1.5,1.5s-0.7,1.5-1.5,1.5s-1.5-0.7-1.5-1.5S77.6,614.6,78.4,614.6z
			 M78.4,623.1c0.8,0,1.5,0.7,1.5,1.5s-0.7,1.5-1.5,1.5s-1.5-0.7-1.5-1.5S77.6,623.1,78.4,623.1z M78.4,631.6c0.8,0,1.5,0.7,1.5,1.5
			s-0.7,1.5-1.5,1.5s-1.5-0.7-1.5-1.5S77.6,631.6,78.4,631.6z M78.4,640.2c0.8,0,1.5,0.7,1.5,1.5c0,0.8-0.7,1.5-1.5,1.5
			s-1.5-0.7-1.5-1.5C76.9,640.8,77.6,640.2,78.4,640.2z M78.4,648.7c0.8,0,1.5,0.7,1.5,1.5c0,0.8-0.7,1.5-1.5,1.5s-1.5-0.7-1.5-1.5
			C76.9,649.4,77.6,648.7,78.4,648.7z M78.4,657.2c0.8,0,1.5,0.7,1.5,1.5c0,0.8-0.7,1.5-1.5,1.5s-1.5-0.7-1.5-1.5
			C76.9,657.8,77.6,657.2,78.4,657.2z M78.4,665.7c0.8,0,1.5,0.7,1.5,1.5c0,0.8-0.7,1.5-1.5,1.5s-1.5-0.7-1.5-1.5
			C76.9,666.4,77.6,665.7,78.4,665.7z M78.4,674.2c0.8,0,1.5,0.7,1.5,1.5c0,0.8-0.7,1.5-1.5,1.5s-1.5-0.7-1.5-1.5
			C76.9,674.8,77.6,674.2,78.4,674.2z M78.4,682.7c0.8,0,1.5,0.7,1.5,1.5c0,0.8-0.7,1.5-1.5,1.5s-1.5-0.7-1.5-1.5
			C76.9,683.4,77.6,682.7,78.4,682.7z M78.4,691.2c0.8,0,1.5,0.7,1.5,1.5c0,0.8-0.7,1.5-1.5,1.5s-1.5-0.7-1.5-1.5
			C76.9,691.8,77.6,691.2,78.4,691.2z M69.9,546.6c0.8,0,1.5,0.7,1.5,1.5c0,0.8-0.7,1.5-1.5,1.5s-1.5-0.7-1.5-1.5
			C68.4,547.3,69.1,546.6,69.9,546.6z M69.9,555.1c0.8,0,1.5,0.7,1.5,1.5c0,0.8-0.7,1.5-1.5,1.5s-1.5-0.7-1.5-1.5
			C68.4,555.8,69.1,555.1,69.9,555.1z M69.9,563.6c0.8,0,1.5,0.7,1.5,1.5c0,0.8-0.7,1.5-1.5,1.5s-1.5-0.7-1.5-1.5
			C68.4,564.3,69.1,563.6,69.9,563.6z M69.9,572.1c0.8,0,1.5,0.7,1.5,1.5c0,0.8-0.7,1.5-1.5,1.5s-1.5-0.7-1.5-1.5
			C68.4,572.8,69.1,572.1,69.9,572.1z M69.9,580.6c0.8,0,1.5,0.7,1.5,1.5c0,0.8-0.7,1.5-1.5,1.5s-1.5-0.7-1.5-1.5
			C68.4,581.3,69.1,580.6,69.9,580.6z M69.9,589.1c0.8,0,1.5,0.7,1.5,1.5c0,0.8-0.7,1.5-1.5,1.5s-1.5-0.7-1.5-1.5
			C68.4,589.8,69.1,589.1,69.9,589.1z M69.9,597.6c0.8,0,1.5,0.7,1.5,1.5s-0.7,1.5-1.5,1.5s-1.5-0.7-1.5-1.5S69.1,597.6,69.9,597.6z
			 M69.9,606.1c0.8,0,1.5,0.7,1.5,1.5s-0.7,1.5-1.5,1.5s-1.5-0.7-1.5-1.5S69.1,606.1,69.9,606.1z M69.9,614.6c0.8,0,1.5,0.7,1.5,1.5
			s-0.7,1.5-1.5,1.5s-1.5-0.7-1.5-1.5S69.1,614.6,69.9,614.6z M69.9,623.1c0.8,0,1.5,0.7,1.5,1.5s-0.7,1.5-1.5,1.5s-1.5-0.7-1.5-1.5
			S69.1,623.1,69.9,623.1z M69.9,631.6c0.8,0,1.5,0.7,1.5,1.5s-0.7,1.5-1.5,1.5s-1.5-0.7-1.5-1.5S69.1,631.6,69.9,631.6z
			 M69.9,640.2c0.8,0,1.5,0.7,1.5,1.5c0,0.8-0.7,1.5-1.5,1.5s-1.5-0.7-1.5-1.5C68.4,640.8,69.1,640.2,69.9,640.2z M69.9,648.7
			c0.8,0,1.5,0.7,1.5,1.5c0,0.8-0.7,1.5-1.5,1.5s-1.5-0.7-1.5-1.5C68.4,649.4,69.1,648.7,69.9,648.7z M69.9,657.2
			c0.8,0,1.5,0.7,1.5,1.5c0,0.8-0.7,1.5-1.5,1.5s-1.5-0.7-1.5-1.5C68.4,657.8,69.1,657.2,69.9,657.2z M69.9,665.7
			c0.8,0,1.5,0.7,1.5,1.5c0,0.8-0.7,1.5-1.5,1.5s-1.5-0.7-1.5-1.5C68.4,666.4,69.1,665.7,69.9,665.7z M69.9,674.2
			c0.8,0,1.5,0.7,1.5,1.5c0,0.8-0.7,1.5-1.5,1.5s-1.5-0.7-1.5-1.5C68.4,674.8,69.1,674.2,69.9,674.2z M69.9,682.7
			c0.8,0,1.5,0.7,1.5,1.5c0,0.8-0.7,1.5-1.5,1.5s-1.5-0.7-1.5-1.5C68.4,683.4,69.1,682.7,69.9,682.7z M69.9,691.2
			c0.8,0,1.5,0.7,1.5,1.5c0,0.8-0.7,1.5-1.5,1.5s-1.5-0.7-1.5-1.5C68.4,691.8,69.1,691.2,69.9,691.2z M61.4,546.6
			c0.8,0,1.5,0.7,1.5,1.5c0,0.8-0.7,1.5-1.5,1.5s-1.5-0.7-1.5-1.5C59.9,547.3,60.6,546.6,61.4,546.6z M61.4,555.1
			c0.8,0,1.5,0.7,1.5,1.5c0,0.8-0.7,1.5-1.5,1.5s-1.5-0.7-1.5-1.5C59.9,555.8,60.6,555.1,61.4,555.1z M61.4,563.6
			c0.8,0,1.5,0.7,1.5,1.5c0,0.8-0.7,1.5-1.5,1.5s-1.5-0.7-1.5-1.5C59.9,564.3,60.6,563.6,61.4,563.6z M61.4,572.1
			c0.8,0,1.5,0.7,1.5,1.5c0,0.8-0.7,1.5-1.5,1.5s-1.5-0.7-1.5-1.5C59.9,572.8,60.6,572.1,61.4,572.1z M61.4,580.6
			c0.8,0,1.5,0.7,1.5,1.5c0,0.8-0.7,1.5-1.5,1.5s-1.5-0.7-1.5-1.5C59.9,581.3,60.6,580.6,61.4,580.6z M61.4,589.1
			c0.8,0,1.5,0.7,1.5,1.5c0,0.8-0.7,1.5-1.5,1.5s-1.5-0.7-1.5-1.5C59.9,589.8,60.6,589.1,61.4,589.1z M61.4,597.6
			c0.8,0,1.5,0.7,1.5,1.5s-0.7,1.5-1.5,1.5s-1.5-0.7-1.5-1.5S60.6,597.6,61.4,597.6z M61.4,606.1c0.8,0,1.5,0.7,1.5,1.5
			s-0.7,1.5-1.5,1.5s-1.5-0.7-1.5-1.5S60.6,606.1,61.4,606.1z M61.4,614.6c0.8,0,1.5,0.7,1.5,1.5s-0.7,1.5-1.5,1.5s-1.5-0.7-1.5-1.5
			S60.6,614.6,61.4,614.6z M61.4,623.1c0.8,0,1.5,0.7,1.5,1.5s-0.7,1.5-1.5,1.5s-1.5-0.7-1.5-1.5S60.6,623.1,61.4,623.1z
			 M61.4,631.6c0.8,0,1.5,0.7,1.5,1.5s-0.7,1.5-1.5,1.5s-1.5-0.7-1.5-1.5S60.6,631.6,61.4,631.6z M61.4,640.2c0.8,0,1.5,0.7,1.5,1.5
			c0,0.8-0.7,1.5-1.5,1.5s-1.5-0.7-1.5-1.5C59.9,640.8,60.6,640.2,61.4,640.2z M61.4,648.7c0.8,0,1.5,0.7,1.5,1.5
			c0,0.8-0.7,1.5-1.5,1.5s-1.5-0.7-1.5-1.5C59.9,649.4,60.6,648.7,61.4,648.7z M61.4,657.2c0.8,0,1.5,0.7,1.5,1.5
			c0,0.8-0.7,1.5-1.5,1.5s-1.5-0.7-1.5-1.5C59.9,657.8,60.6,657.2,61.4,657.2z M61.4,665.7c0.8,0,1.5,0.7,1.5,1.5
			c0,0.8-0.7,1.5-1.5,1.5s-1.5-0.7-1.5-1.5C59.9,666.4,60.6,665.7,61.4,665.7z M61.4,674.2c0.8,0,1.5,0.7,1.5,1.5
			c0,0.8-0.7,1.5-1.5,1.5s-1.5-0.7-1.5-1.5C59.9,674.8,60.6,674.2,61.4,674.2z M61.4,682.7c0.8,0,1.5,0.7,1.5,1.5
			c0,0.8-0.7,1.5-1.5,1.5s-1.5-0.7-1.5-1.5C59.9,683.4,60.6,682.7,61.4,682.7z M61.4,691.2c0.8,0,1.5,0.7,1.5,1.5
			c0,0.8-0.7,1.5-1.5,1.5s-1.5-0.7-1.5-1.5C59.9,691.8,60.6,691.2,61.4,691.2z M52.9,546.6c0.8,0,1.5,0.7,1.5,1.5
			c0,0.8-0.7,1.5-1.5,1.5s-1.5-0.7-1.5-1.5C51.4,547.3,52.1,546.6,52.9,546.6z M52.9,555.1c0.8,0,1.5,0.7,1.5,1.5
			c0,0.8-0.7,1.5-1.5,1.5s-1.5-0.7-1.5-1.5C51.4,555.8,52.1,555.1,52.9,555.1z M52.9,563.6c0.8,0,1.5,0.7,1.5,1.5
			c0,0.8-0.7,1.5-1.5,1.5s-1.5-0.7-1.5-1.5C51.4,564.3,52.1,563.6,52.9,563.6z M52.9,572.1c0.8,0,1.5,0.7,1.5,1.5
			c0,0.8-0.7,1.5-1.5,1.5s-1.5-0.7-1.5-1.5C51.4,572.8,52.1,572.1,52.9,572.1z M52.9,580.6c0.8,0,1.5,0.7,1.5,1.5
			c0,0.8-0.7,1.5-1.5,1.5s-1.5-0.7-1.5-1.5C51.4,581.3,52.1,580.6,52.9,580.6z M52.9,589.1c0.8,0,1.5,0.7,1.5,1.5
			c0,0.8-0.7,1.5-1.5,1.5s-1.5-0.7-1.5-1.5C51.4,589.8,52.1,589.1,52.9,589.1z M52.9,597.6c0.8,0,1.5,0.7,1.5,1.5s-0.7,1.5-1.5,1.5
			s-1.5-0.7-1.5-1.5S52.1,597.6,52.9,597.6z M52.9,606.1c0.8,0,1.5,0.7,1.5,1.5s-0.7,1.5-1.5,1.5s-1.5-0.7-1.5-1.5
			S52.1,606.1,52.9,606.1z M52.9,614.6c0.8,0,1.5,0.7,1.5,1.5s-0.7,1.5-1.5,1.5s-1.5-0.7-1.5-1.5S52.1,614.6,52.9,614.6z
			 M52.9,623.1c0.8,0,1.5,0.7,1.5,1.5s-0.7,1.5-1.5,1.5s-1.5-0.7-1.5-1.5S52.1,623.1,52.9,623.1z M52.9,631.6c0.8,0,1.5,0.7,1.5,1.5
			s-0.7,1.5-1.5,1.5s-1.5-0.7-1.5-1.5S52.1,631.6,52.9,631.6z M52.9,640.2c0.8,0,1.5,0.7,1.5,1.5c0,0.8-0.7,1.5-1.5,1.5
			s-1.5-0.7-1.5-1.5C51.4,640.8,52.1,640.2,52.9,640.2z M52.9,648.7c0.8,0,1.5,0.7,1.5,1.5c0,0.8-0.7,1.5-1.5,1.5s-1.5-0.7-1.5-1.5
			C51.4,649.4,52.1,648.7,52.9,648.7z M52.9,657.2c0.8,0,1.5,0.7,1.5,1.5c0,0.8-0.7,1.5-1.5,1.5s-1.5-0.7-1.5-1.5
			C51.4,657.8,52.1,657.2,52.9,657.2z M52.9,665.7c0.8,0,1.5,0.7,1.5,1.5c0,0.8-0.7,1.5-1.5,1.5s-1.5-0.7-1.5-1.5
			C51.4,666.4,52.1,665.7,52.9,665.7z M52.9,674.2c0.8,0,1.5,0.7,1.5,1.5c0,0.8-0.7,1.5-1.5,1.5s-1.5-0.7-1.5-1.5
			C51.4,674.8,52.1,674.2,52.9,674.2z M52.9,682.7c0.8,0,1.5,0.7,1.5,1.5c0,0.8-0.7,1.5-1.5,1.5s-1.5-0.7-1.5-1.5
			C51.4,683.4,52.1,682.7,52.9,682.7z M52.9,691.2c0.8,0,1.5,0.7,1.5,1.5c0,0.8-0.7,1.5-1.5,1.5s-1.5-0.7-1.5-1.5
			C51.4,691.8,52.1,691.2,52.9,691.2z M1.9,694.1c-0.8,0-1.5-0.7-1.5-1.5s0.7-1.5,1.5-1.5s1.5,0.7,1.5,1.5
			C3.3,693.5,2.7,694.1,1.9,694.1z M44.4,546.6c0.8,0,1.5,0.7,1.5,1.5c0,0.8-0.7,1.5-1.5,1.5s-1.5-0.7-1.5-1.5
			C42.9,547.3,43.6,546.6,44.4,546.6z M44.4,555.1c0.8,0,1.5,0.7,1.5,1.5c0,0.8-0.7,1.5-1.5,1.5s-1.5-0.7-1.5-1.5
			C42.9,555.8,43.6,555.1,44.4,555.1z M44.4,563.6c0.8,0,1.5,0.7,1.5,1.5c0,0.8-0.7,1.5-1.5,1.5s-1.5-0.7-1.5-1.5
			C42.9,564.3,43.6,563.6,44.4,563.6z M44.4,572.1c0.8,0,1.5,0.7,1.5,1.5c0,0.8-0.7,1.5-1.5,1.5s-1.5-0.7-1.5-1.5
			C42.9,572.8,43.6,572.1,44.4,572.1z M44.4,580.6c0.8,0,1.5,0.7,1.5,1.5c0,0.8-0.7,1.5-1.5,1.5s-1.5-0.7-1.5-1.5
			C42.9,581.3,43.6,580.6,44.4,580.6z M44.4,589.1c0.8,0,1.5,0.7,1.5,1.5c0,0.8-0.7,1.5-1.5,1.5s-1.5-0.7-1.5-1.5
			C42.9,589.8,43.6,589.1,44.4,589.1z M44.4,597.6c0.8,0,1.5,0.7,1.5,1.5s-0.7,1.5-1.5,1.5s-1.5-0.7-1.5-1.5S43.6,597.6,44.4,597.6z
			 M44.4,606.1c0.8,0,1.5,0.7,1.5,1.5s-0.7,1.5-1.5,1.5s-1.5-0.7-1.5-1.5S43.6,606.1,44.4,606.1z M44.4,614.6c0.8,0,1.5,0.7,1.5,1.5
			s-0.7,1.5-1.5,1.5s-1.5-0.7-1.5-1.5S43.6,614.6,44.4,614.6z M44.4,623.1c0.8,0,1.5,0.7,1.5,1.5s-0.7,1.5-1.5,1.5s-1.5-0.7-1.5-1.5
			S43.6,623.1,44.4,623.1z M44.4,631.6c0.8,0,1.5,0.7,1.5,1.5s-0.7,1.5-1.5,1.5s-1.5-0.7-1.5-1.5S43.6,631.6,44.4,631.6z
			 M44.4,640.2c0.8,0,1.5,0.7,1.5,1.5c0,0.8-0.7,1.5-1.5,1.5s-1.5-0.7-1.5-1.5C42.9,640.8,43.6,640.2,44.4,640.2z M44.4,648.7
			c0.8,0,1.5,0.7,1.5,1.5c0,0.8-0.7,1.5-1.5,1.5s-1.5-0.7-1.5-1.5C42.9,649.4,43.6,648.7,44.4,648.7z M44.4,657.2
			c0.8,0,1.5,0.7,1.5,1.5c0,0.8-0.7,1.5-1.5,1.5s-1.5-0.7-1.5-1.5C42.9,657.8,43.6,657.2,44.4,657.2z M44.4,665.7
			c0.8,0,1.5,0.7,1.5,1.5c0,0.8-0.7,1.5-1.5,1.5s-1.5-0.7-1.5-1.5C42.9,666.4,43.6,665.7,44.4,665.7z M44.4,674.2
			c0.8,0,1.5,0.7,1.5,1.5c0,0.8-0.7,1.5-1.5,1.5s-1.5-0.7-1.5-1.5C42.9,674.8,43.6,674.2,44.4,674.2z M44.4,682.7
			c0.8,0,1.5,0.7,1.5,1.5c0,0.8-0.7,1.5-1.5,1.5s-1.5-0.7-1.5-1.5C42.9,683.4,43.6,682.7,44.4,682.7z M44.4,691.2
			c0.8,0,1.5,0.7,1.5,1.5c0,0.8-0.7,1.5-1.5,1.5s-1.5-0.7-1.5-1.5C42.9,691.8,43.6,691.2,44.4,691.2z M35.9,538.1
			c0.8,0,1.5,0.7,1.5,1.5c0,0.8-0.7,1.5-1.5,1.5s-1.5-0.7-1.5-1.5C34.4,538.8,35.1,538.1,35.9,538.1z M35.9,546.6
			c0.8,0,1.5,0.7,1.5,1.5c0,0.8-0.7,1.5-1.5,1.5s-1.5-0.7-1.5-1.5C34.4,547.3,35.1,546.6,35.9,546.6z M35.9,555.1
			c0.8,0,1.5,0.7,1.5,1.5c0,0.8-0.7,1.5-1.5,1.5s-1.5-0.7-1.5-1.5C34.4,555.8,35.1,555.1,35.9,555.1z M35.9,563.6
			c0.8,0,1.5,0.7,1.5,1.5c0,0.8-0.7,1.5-1.5,1.5s-1.5-0.7-1.5-1.5C34.4,564.3,35.1,563.6,35.9,563.6z M35.9,572.1
			c0.8,0,1.5,0.7,1.5,1.5c0,0.8-0.7,1.5-1.5,1.5s-1.5-0.7-1.5-1.5C34.4,572.8,35.1,572.1,35.9,572.1z M35.9,580.6
			c0.8,0,1.5,0.7,1.5,1.5c0,0.8-0.7,1.5-1.5,1.5s-1.5-0.7-1.5-1.5C34.4,581.3,35.1,580.6,35.9,580.6z M35.9,589.1
			c0.8,0,1.5,0.7,1.5,1.5c0,0.8-0.7,1.5-1.5,1.5s-1.5-0.7-1.5-1.5C34.4,589.8,35.1,589.1,35.9,589.1z M35.9,597.6
			c0.8,0,1.5,0.7,1.5,1.5s-0.7,1.5-1.5,1.5s-1.5-0.7-1.5-1.5S35.1,597.6,35.9,597.6z M35.9,606.1c0.8,0,1.5,0.7,1.5,1.5
			s-0.7,1.5-1.5,1.5s-1.5-0.7-1.5-1.5S35.1,606.1,35.9,606.1z M35.9,614.6c0.8,0,1.5,0.7,1.5,1.5s-0.7,1.5-1.5,1.5s-1.5-0.7-1.5-1.5
			S35.1,614.6,35.9,614.6z M35.9,623.1c0.8,0,1.5,0.7,1.5,1.5s-0.7,1.5-1.5,1.5s-1.5-0.7-1.5-1.5S35.1,623.1,35.9,623.1z
			 M35.9,631.6c0.8,0,1.5,0.7,1.5,1.5s-0.7,1.5-1.5,1.5s-1.5-0.7-1.5-1.5S35.1,631.6,35.9,631.6z M35.9,640.2c0.8,0,1.5,0.7,1.5,1.5
			c0,0.8-0.7,1.5-1.5,1.5s-1.5-0.7-1.5-1.5C34.4,640.8,35.1,640.2,35.9,640.2z M35.9,648.7c0.8,0,1.5,0.7,1.5,1.5
			c0,0.8-0.7,1.5-1.5,1.5s-1.5-0.7-1.5-1.5C34.4,649.4,35.1,648.7,35.9,648.7z M35.9,657.2c0.8,0,1.5,0.7,1.5,1.5
			c0,0.8-0.7,1.5-1.5,1.5s-1.5-0.7-1.5-1.5C34.4,657.8,35.1,657.2,35.9,657.2z M35.9,665.7c0.8,0,1.5,0.7,1.5,1.5
			c0,0.8-0.7,1.5-1.5,1.5s-1.5-0.7-1.5-1.5C34.4,666.4,35.1,665.7,35.9,665.7z M35.9,674.2c0.8,0,1.5,0.7,1.5,1.5
			c0,0.8-0.7,1.5-1.5,1.5s-1.5-0.7-1.5-1.5C34.4,674.8,35.1,674.2,35.9,674.2z M35.9,682.7c0.8,0,1.5,0.7,1.5,1.5
			c0,0.8-0.7,1.5-1.5,1.5s-1.5-0.7-1.5-1.5C34.4,683.4,35.1,682.7,35.9,682.7z M35.9,691.2c0.8,0,1.5,0.7,1.5,1.5
			c0,0.8-0.7,1.5-1.5,1.5s-1.5-0.7-1.5-1.5C34.4,691.8,35.1,691.2,35.9,691.2z M27.4,538.1c0.8,0,1.5,0.7,1.5,1.5
			c0,0.8-0.7,1.5-1.5,1.5s-1.5-0.7-1.5-1.5C25.9,538.8,26.6,538.1,27.4,538.1z M27.4,546.6c0.8,0,1.5,0.7,1.5,1.5
			c0,0.8-0.7,1.5-1.5,1.5s-1.5-0.7-1.5-1.5C25.9,547.3,26.6,546.6,27.4,546.6z M27.4,555.1c0.8,0,1.5,0.7,1.5,1.5
			c0,0.8-0.7,1.5-1.5,1.5s-1.5-0.7-1.5-1.5C25.9,555.8,26.6,555.1,27.4,555.1z M27.4,563.6c0.8,0,1.5,0.7,1.5,1.5
			c0,0.8-0.7,1.5-1.5,1.5s-1.5-0.7-1.5-1.5C25.9,564.3,26.6,563.6,27.4,563.6z M27.4,572.1c0.8,0,1.5,0.7,1.5,1.5
			c0,0.8-0.7,1.5-1.5,1.5s-1.5-0.7-1.5-1.5C25.9,572.8,26.6,572.1,27.4,572.1z M27.4,580.6c0.8,0,1.5,0.7,1.5,1.5
			c0,0.8-0.7,1.5-1.5,1.5s-1.5-0.7-1.5-1.5C25.9,581.3,26.6,580.6,27.4,580.6z M27.4,589.1c0.8,0,1.5,0.7,1.5,1.5
			c0,0.8-0.7,1.5-1.5,1.5s-1.5-0.7-1.5-1.5C25.9,589.8,26.6,589.1,27.4,589.1z M27.4,597.6c0.8,0,1.5,0.7,1.5,1.5s-0.7,1.5-1.5,1.5
			s-1.5-0.7-1.5-1.5S26.6,597.6,27.4,597.6z M27.4,606.1c0.8,0,1.5,0.7,1.5,1.5s-0.7,1.5-1.5,1.5s-1.5-0.7-1.5-1.5
			S26.6,606.1,27.4,606.1z M27.4,614.6c0.8,0,1.5,0.7,1.5,1.5s-0.7,1.5-1.5,1.5s-1.5-0.7-1.5-1.5S26.6,614.6,27.4,614.6z
			 M27.4,623.1c0.8,0,1.5,0.7,1.5,1.5s-0.7,1.5-1.5,1.5s-1.5-0.7-1.5-1.5S26.6,623.1,27.4,623.1z M27.4,631.6c0.8,0,1.5,0.7,1.5,1.5
			s-0.7,1.5-1.5,1.5s-1.5-0.7-1.5-1.5S26.6,631.6,27.4,631.6z M27.4,640.2c0.8,0,1.5,0.7,1.5,1.5c0,0.8-0.7,1.5-1.5,1.5
			s-1.5-0.7-1.5-1.5C25.9,640.8,26.6,640.2,27.4,640.2z M27.4,648.7c0.8,0,1.5,0.7,1.5,1.5c0,0.8-0.7,1.5-1.5,1.5s-1.5-0.7-1.5-1.5
			C25.9,649.4,26.6,648.7,27.4,648.7z M27.4,657.2c0.8,0,1.5,0.7,1.5,1.5c0,0.8-0.7,1.5-1.5,1.5s-1.5-0.7-1.5-1.5
			C25.9,657.8,26.6,657.2,27.4,657.2z M27.4,665.7c0.8,0,1.5,0.7,1.5,1.5c0,0.8-0.7,1.5-1.5,1.5s-1.5-0.7-1.5-1.5
			C25.9,666.4,26.6,665.7,27.4,665.7z M27.4,674.2c0.8,0,1.5,0.7,1.5,1.5c0,0.8-0.7,1.5-1.5,1.5s-1.5-0.7-1.5-1.5
			C25.9,674.8,26.6,674.2,27.4,674.2z M27.4,682.7c0.8,0,1.5,0.7,1.5,1.5c0,0.8-0.7,1.5-1.5,1.5s-1.5-0.7-1.5-1.5
			C25.9,683.4,26.6,682.7,27.4,682.7z M27.4,691.2c0.8,0,1.5,0.7,1.5,1.5c0,0.8-0.7,1.5-1.5,1.5s-1.5-0.7-1.5-1.5
			C25.9,691.8,26.6,691.2,27.4,691.2z M18.9,538.1c0.8,0,1.5,0.7,1.5,1.5c0,0.8-0.7,1.5-1.5,1.5s-1.5-0.7-1.5-1.5
			C17.4,538.8,18.1,538.1,18.9,538.1z M18.9,546.6c0.8,0,1.5,0.7,1.5,1.5c0,0.8-0.7,1.5-1.5,1.5s-1.5-0.7-1.5-1.5
			C17.4,547.3,18.1,546.6,18.9,546.6z M18.9,555.1c0.8,0,1.5,0.7,1.5,1.5c0,0.8-0.7,1.5-1.5,1.5s-1.5-0.7-1.5-1.5
			C17.4,555.8,18.1,555.1,18.9,555.1z M18.9,563.6c0.8,0,1.5,0.7,1.5,1.5c0,0.8-0.7,1.5-1.5,1.5s-1.5-0.7-1.5-1.5
			C17.4,564.3,18.1,563.6,18.9,563.6z M18.9,572.1c0.8,0,1.5,0.7,1.5,1.5c0,0.8-0.7,1.5-1.5,1.5s-1.5-0.7-1.5-1.5
			C17.4,572.8,18.1,572.1,18.9,572.1z M18.9,580.6c0.8,0,1.5,0.7,1.5,1.5c0,0.8-0.7,1.5-1.5,1.5s-1.5-0.7-1.5-1.5
			C17.4,581.3,18.1,580.6,18.9,580.6z M18.9,589.1c0.8,0,1.5,0.7,1.5,1.5c0,0.8-0.7,1.5-1.5,1.5s-1.5-0.7-1.5-1.5
			C17.4,589.8,18.1,589.1,18.9,589.1z M18.9,597.6c0.8,0,1.5,0.7,1.5,1.5s-0.7,1.5-1.5,1.5s-1.5-0.7-1.5-1.5S18.1,597.6,18.9,597.6z
			 M18.9,606.1c0.8,0,1.5,0.7,1.5,1.5s-0.7,1.5-1.5,1.5s-1.5-0.7-1.5-1.5S18.1,606.1,18.9,606.1z M18.9,614.6c0.8,0,1.5,0.7,1.5,1.5
			s-0.7,1.5-1.5,1.5s-1.5-0.7-1.5-1.5S18.1,614.6,18.9,614.6z M18.9,623.1c0.8,0,1.5,0.7,1.5,1.5s-0.7,1.5-1.5,1.5s-1.5-0.7-1.5-1.5
			S18.1,623.1,18.9,623.1z M18.9,631.6c0.8,0,1.5,0.7,1.5,1.5s-0.7,1.5-1.5,1.5s-1.5-0.7-1.5-1.5S18.1,631.6,18.9,631.6z
			 M18.9,640.2c0.8,0,1.5,0.7,1.5,1.5c0,0.8-0.7,1.5-1.5,1.5s-1.5-0.7-1.5-1.5C17.4,640.8,18.1,640.2,18.9,640.2z M18.9,648.7
			c0.8,0,1.5,0.7,1.5,1.5c0,0.8-0.7,1.5-1.5,1.5s-1.5-0.7-1.5-1.5C17.4,649.4,18.1,648.7,18.9,648.7z M18.9,657.2
			c0.8,0,1.5,0.7,1.5,1.5c0,0.8-0.7,1.5-1.5,1.5s-1.5-0.7-1.5-1.5C17.4,657.8,18.1,657.2,18.9,657.2z M18.9,665.7
			c0.8,0,1.5,0.7,1.5,1.5c0,0.8-0.7,1.5-1.5,1.5s-1.5-0.7-1.5-1.5C17.4,666.4,18.1,665.7,18.9,665.7z M18.9,674.2
			c0.8,0,1.5,0.7,1.5,1.5c0,0.8-0.7,1.5-1.5,1.5s-1.5-0.7-1.5-1.5C17.4,674.8,18.1,674.2,18.9,674.2z M18.9,682.7
			c0.8,0,1.5,0.7,1.5,1.5c0,0.8-0.7,1.5-1.5,1.5s-1.5-0.7-1.5-1.5C17.4,683.4,18.1,682.7,18.9,682.7z M18.9,691.2
			c0.8,0,1.5,0.7,1.5,1.5c0,0.8-0.7,1.5-1.5,1.5s-1.5-0.7-1.5-1.5C17.4,691.8,18.1,691.2,18.9,691.2z M10.4,538.1
			c0.8,0,1.5,0.7,1.5,1.5c0,0.8-0.7,1.5-1.5,1.5s-1.5-0.7-1.5-1.5C8.9,538.8,9.6,538.1,10.4,538.1z M10.4,546.6
			c0.8,0,1.5,0.7,1.5,1.5c0,0.8-0.7,1.5-1.5,1.5s-1.5-0.7-1.5-1.5C8.9,547.3,9.6,546.6,10.4,546.6z M10.4,555.1
			c0.8,0,1.5,0.7,1.5,1.5c0,0.8-0.7,1.5-1.5,1.5s-1.5-0.7-1.5-1.5C8.9,555.8,9.6,555.1,10.4,555.1z M10.4,563.6
			c0.8,0,1.5,0.7,1.5,1.5c0,0.8-0.7,1.5-1.5,1.5s-1.5-0.7-1.5-1.5C8.9,564.3,9.6,563.6,10.4,563.6z M10.4,572.1
			c0.8,0,1.5,0.7,1.5,1.5c0,0.8-0.7,1.5-1.5,1.5s-1.5-0.7-1.5-1.5C8.9,572.8,9.6,572.1,10.4,572.1z M10.4,580.6
			c0.8,0,1.5,0.7,1.5,1.5c0,0.8-0.7,1.5-1.5,1.5s-1.5-0.7-1.5-1.5C8.9,581.3,9.6,580.6,10.4,580.6z M10.4,589.1
			c0.8,0,1.5,0.7,1.5,1.5c0,0.8-0.7,1.5-1.5,1.5s-1.5-0.7-1.5-1.5C8.9,589.8,9.6,589.1,10.4,589.1z M10.4,597.6
			c0.8,0,1.5,0.7,1.5,1.5s-0.7,1.5-1.5,1.5s-1.5-0.7-1.5-1.5S9.6,597.6,10.4,597.6z M10.4,606.1c0.8,0,1.5,0.7,1.5,1.5
			s-0.7,1.5-1.5,1.5s-1.5-0.7-1.5-1.5S9.6,606.1,10.4,606.1z M10.4,614.6c0.8,0,1.5,0.7,1.5,1.5s-0.7,1.5-1.5,1.5s-1.5-0.7-1.5-1.5
			S9.6,614.6,10.4,614.6z M10.4,623.1c0.8,0,1.5,0.7,1.5,1.5s-0.7,1.5-1.5,1.5s-1.5-0.7-1.5-1.5S9.6,623.1,10.4,623.1z M10.4,631.6
			c0.8,0,1.5,0.7,1.5,1.5s-0.7,1.5-1.5,1.5s-1.5-0.7-1.5-1.5S9.6,631.6,10.4,631.6z M10.4,640.2c0.8,0,1.5,0.7,1.5,1.5
			c0,0.8-0.7,1.5-1.5,1.5s-1.5-0.7-1.5-1.5C8.9,640.8,9.6,640.2,10.4,640.2z M10.4,648.7c0.8,0,1.5,0.7,1.5,1.5
			c0,0.8-0.7,1.5-1.5,1.5s-1.5-0.7-1.5-1.5C8.9,649.4,9.6,648.7,10.4,648.7z M10.4,657.2c0.8,0,1.5,0.7,1.5,1.5
			c0,0.8-0.7,1.5-1.5,1.5s-1.5-0.7-1.5-1.5C8.9,657.8,9.6,657.2,10.4,657.2z M10.4,665.7c0.8,0,1.5,0.7,1.5,1.5
			c0,0.8-0.7,1.5-1.5,1.5s-1.5-0.7-1.5-1.5C8.9,666.4,9.6,665.7,10.4,665.7z M10.4,674.2c0.8,0,1.5,0.7,1.5,1.5
			c0,0.8-0.7,1.5-1.5,1.5s-1.5-0.7-1.5-1.5C8.9,674.8,9.6,674.2,10.4,674.2z M10.4,682.7c0.8,0,1.5,0.7,1.5,1.5
			c0,0.8-0.7,1.5-1.5,1.5s-1.5-0.7-1.5-1.5C8.9,683.4,9.6,682.7,10.4,682.7z M10.4,691.2c0.8,0,1.5,0.7,1.5,1.5
			c0,0.8-0.7,1.5-1.5,1.5s-1.5-0.7-1.5-1.5C8.9,691.8,9.6,691.2,10.4,691.2z M1.9,538.1c0.8,0,1.5,0.7,1.5,1.5
			c0,0.8-0.7,1.5-1.5,1.5s-1.5-0.7-1.5-1.5C0.4,538.8,1,538.1,1.9,538.1z M1.9,546.6c0.8,0,1.5,0.7,1.5,1.5c0,0.8-0.7,1.5-1.5,1.5
			s-1.5-0.7-1.5-1.5C0.4,547.3,1,546.6,1.9,546.6z M1.9,555.1c0.8,0,1.5,0.7,1.5,1.5c0,0.8-0.7,1.5-1.5,1.5s-1.5-0.7-1.5-1.5
			C0.4,555.8,1,555.1,1.9,555.1z M1.9,563.6c0.8,0,1.5,0.7,1.5,1.5c0,0.8-0.7,1.5-1.5,1.5s-1.5-0.7-1.5-1.5
			C0.4,564.3,1,563.6,1.9,563.6z M1.9,572.1c0.8,0,1.5,0.7,1.5,1.5c0,0.8-0.7,1.5-1.5,1.5s-1.5-0.7-1.5-1.5
			C0.4,572.8,1,572.1,1.9,572.1z M1.9,580.6c0.8,0,1.5,0.7,1.5,1.5c0,0.8-0.7,1.5-1.5,1.5s-1.5-0.7-1.5-1.5
			C0.4,581.3,1,580.6,1.9,580.6z M1.9,589.1c0.8,0,1.5,0.7,1.5,1.5c0,0.8-0.7,1.5-1.5,1.5s-1.5-0.7-1.5-1.5
			C0.4,589.8,1,589.1,1.9,589.1z M1.9,597.6c0.8,0,1.5,0.7,1.5,1.5s-0.7,1.5-1.5,1.5s-1.5-0.7-1.5-1.5S1,597.6,1.9,597.6z
			 M1.9,606.1c0.8,0,1.5,0.7,1.5,1.5s-0.7,1.5-1.5,1.5s-1.5-0.7-1.5-1.5C0.4,606.8,1,606.1,1.9,606.1z M1.9,614.6
			c0.8,0,1.5,0.7,1.5,1.5s-0.7,1.5-1.5,1.5s-1.5-0.7-1.5-1.5S1,614.6,1.9,614.6z M1.9,623.1c0.8,0,1.5,0.7,1.5,1.5s-0.7,1.5-1.5,1.5
			s-1.5-0.7-1.5-1.5C0.4,623.8,1,623.1,1.9,623.1z M1.9,631.6c0.8,0,1.5,0.7,1.5,1.5s-0.7,1.5-1.5,1.5s-1.5-0.7-1.5-1.5
			S1,631.6,1.9,631.6z M1.9,640.2c0.8,0,1.5,0.7,1.5,1.5c0,0.8-0.7,1.5-1.5,1.5s-1.5-0.7-1.5-1.5C0.4,640.8,1,640.2,1.9,640.2z
			 M1.9,648.7c0.8,0,1.5,0.7,1.5,1.5c0,0.8-0.7,1.5-1.5,1.5s-1.5-0.7-1.5-1.5C0.4,649.4,1,648.7,1.9,648.7z M1.9,657.2
			c0.8,0,1.5,0.7,1.5,1.5c0,0.8-0.7,1.5-1.5,1.5s-1.5-0.7-1.5-1.5C0.4,657.8,1,657.2,1.9,657.2z M1.9,665.7c0.8,0,1.5,0.7,1.5,1.5
			c0,0.8-0.7,1.5-1.5,1.5s-1.5-0.7-1.5-1.5C0.4,666.4,1,665.7,1.9,665.7z M1.9,674.2c0.8,0,1.5,0.7,1.5,1.5c0,0.8-0.7,1.5-1.5,1.5
			s-1.5-0.7-1.5-1.5C0.4,674.8,1,674.2,1.9,674.2z M1.9,682.7c0.8,0,1.5,0.7,1.5,1.5c0,0.8-0.7,1.5-1.5,1.5s-1.5-0.7-1.5-1.5
			C0.4,683.4,1,682.7,1.9,682.7z"/>
	</g>
</g>
<title>ToastAR logo3</title>
<path class="st0" d="M561.3,420.3c-37.2-46-94.1-75.3-157.9-75.3c-112.2,0-203.1,90.9-203.1,203.1s90.9,203.1,203.1,203.1
	c63.8,0,120.6-29.4,157.9-75.3V420.3z"/>
<g>
	<g>
		<path class="st3" d="M401.4,429.1c-68.7,0-124.4,55.7-124.4,124.4c0,68.7,55.7,124.4,124.4,124.4c68.7,0,124.4-55.7,124.4-124.4
			C525.8,484.7,470.1,429.1,401.4,429.1z M399.3,461.4c47.4,0,59.9,43.2,59.9,43.2l-7.2,0.8c0,0-11.7-32.6-51.3-32.6
			S347,511,347,511h-4.9C342.1,511,351.9,461.4,399.3,461.4z M426.2,645.5h-52.8H330c0-11.5,4.1-22.3,11.1-31.3
			c10.8-13.9,28.6-23.8,49.2-26.3h0c1.1-0.1,2.2-0.3,3.3-0.3v0.3h12.5v-0.5c25.2,1.6,46.7,14.1,57.6,31.8c4.9,7.9,7.6,16.8,7.6,26.3
			H426.2z M472.8,539.8c-0.4,12.1-15.5,9.9-15.5,9.9c0.3-0.7,0.2-4.2-0.1-8.9c0,0.3,0,0.6,0,1c-0.4,6-1,11-1.6,15.1
			c1.3-1.1,2.6-2.3,3.7-3.6c0,0,3.4-2.4,5.8,2.4c0.9,1.8-3.6,5.2-10.7,8.9c-1.9,11.2-3.1,14.5,1.1,22.9c0,0-20.4,0.9-27.7-8.5
			c-1.9,0.6-3.5,0.9-4.7,1c-6.8,3.9-14.7,6.2-23.1,6.2c-9.8,0-18.8-3-26.3-8.2c-6.7,10.5-28.5,9.5-28.5,9.5
			c6.3-12.4,0.7-13.7-1.7-45.7v0c-0.7-4.2-0.8-8.7-0.3-13.2c2.4-17.6,9.6-29.2,17.9-36.8c0.1-0.1,0.1-0.1,0.1-0.1
			c15.1-13.7,33.6-14.2,33.6-14.2c19.6-2.8,34.5,3.9,44.6,14.3l0-0.1c0,0,11,9.9,15.8,28.1c-0.7-6.5-1.3-11.5-1.3-11.5h1.5h8
			c8.9,3.3,9.5,10.6,9.5,10.6V539.8z"/>
	</g>
	<path class="st3" d="M401.5,581.2c-9.6,0.2-11.8-3.1-11.8-3.1s-4.6-5.3,0.9-9c5.5-3.7,10.1-2.3,10.1-2.3s9.4,0.5,11.4,4.9
		c0,0,10.3-0.8,21.8-4.3c6-10.7,6.5-24.2,5.3-31.7c-30.8-11.7-44.4-33.3-44.4-33.3c-12.2,33.3-40.8,27.1-32.3,55.2
		c2.1,7.8,5.6,12.9,9.2,16.3c2.7,2.2,5.7,4.1,8.9,5.6c0.9,0.3,1.5,0.5,1.8,0.5c-0.4-0.1-0.8-0.2-1.2-0.3c5.7,2.6,12,4.2,18.7,4.2
		c10.2,0,19.5-3.5,27.1-9.2c-5.4,1.4-10.6,2.4-14.9,2.6C412,577.5,411.1,581,401.5,581.2z"/>
</g>
<linearGradient id="SVGID_1_" gradientUnits="userSpaceOnUse" x1="0" y1="813.0517" x2="583.5219" y2="813.0517">
	<stop  offset="0.2376" style="stop-color:#FFFFFF"/>
	<stop  offset="0.8391" style="stop-color:#696969"/>
</linearGradient>
<polygon class="st4" points="0,795.6 20.6,830.5 583.5,830.5 583.5,795.6 "/>
<linearGradient id="SVGID_2_" gradientUnits="userSpaceOnUse" x1="573.1414" y1="834.3898" x2="573.1414" y2="-9.094947e-13">
	<stop  offset="0.2376" style="stop-color:#FFFFFF"/>
	<stop  offset="0.8391" style="stop-color:#696969"/>
</linearGradient>
<polygon class="st5" points="583.5,834.4 583.5,37.1 562.9,0 562.8,0 562.8,795.9 "/>
<text transform="matrix(1 0 0 1 130.9002 128.6515)"><tspan x="0" y="0" class="st6 st7 st8">Streamline</tspan><tspan x="0" y="54.5" class="st6 st7 st8">incoming calls </tspan><tspan x="0" y="108.9" class="st6 st7 st8">and improve </tspan><tspan x="0" y="163.4" class="st6 st7 st8">your customer </tspan><tspan x="0" y="217.8" class="st6 st7 st8">conversations</tspan><tspan x="350.4" y="217.8" class="st6 st9 st10"> </tspan></text>
<polygon class="st11" points="376,49.9 118,49.9 118,49.9 376,49.9 "/>
<g>
	<g>
		<path class="st12" d="M178.8,735.5h-4.3c-1.3,0-2.4-0.7-2.4-1.9c0-1.2,1-1.9,2.4-1.9h13.1c1.3,0,2.4,0.7,2.4,1.9
			c0,1.2-1,1.9-2.4,1.9h-4.3v14.3c0,1.2-1,2.3-2.3,2.3c-1.2,0-2.3-1-2.3-2.3l0,0L178.8,735.5L178.8,735.5z"/>
		<path class="st12" d="M195,736.7c4.9,0,7.6,3.3,7.6,7.7c0,4.1-2,7.7-7.6,7.7s-7.6-3.6-7.6-7.7C187.6,740.1,190.1,736.7,195,736.7z
			 M195,749c2.4,0,3.5-2.2,3.5-4.6c0-2.6-1.1-4.6-3.5-4.6s-3.5,2-3.5,4.6C191.5,746.8,192.6,749,195,749L195,749z"/>
		<path class="st12" d="M218.7,747.7c0,1.7,0.5,2.1,0.5,2.7c0,0.9-0.9,1.6-1.9,1.6c-1.8,0-2.3-1.1-2.4-2.4c-1.6,1.8-3.4,2.4-5.6,2.4
			c-2.3,0-4.6-1.6-4.6-4.2c0-3.4,2.6-4.3,5.7-4.6l2.5-0.3c0.9-0.1,1.8-0.4,1.8-1.5s-1.1-1.6-2.6-1.6c-3,0-3.1,2.3-4.7,2.3
			c-0.9,0.1-1.6-0.7-1.7-1.5c0-0.1,0-0.1,0-0.1c0-1.6,2.3-3.7,6.4-3.7c3.9,0,6.6,1.2,6.6,4.2V747.7L218.7,747.7z M214.6,744.8
			c-0.5,0.5-1.2,0.6-1.8,0.7l-1.5,0.2c-1.7,0.2-2.6,0.8-2.6,2c0,0.9,0.9,1.6,2.3,1.6c2.3,0,3.6-1.4,3.6-2.9L214.6,744.8L214.6,744.8
			z"/>
		<path class="st12" d="M227.6,736.7c3.1,0,6.2,1.2,6.2,3.1c0.1,0.9-0.7,1.7-1.6,1.8c-0.1,0-0.1,0-0.1,0c-1.6,0-1.6-1.9-4.3-1.9
			c-1.4,0-2.3,0.4-2.3,1.2c0,0.9,0.9,1.1,2.2,1.4l1.7,0.4c2.3,0.5,5.1,1.5,5.1,4.3c0,3.3-3.2,4.8-6.2,4.8c-3.7,0-6.7-1.6-6.7-3.7
			c0-0.9,0.5-1.7,1.6-1.7c1.8,0,1.9,2.6,4.9,2.6c1.4,0,2.4-0.7,2.4-1.5c0-1-0.9-1.1-2.3-1.6l-2.4-0.6c-2.4-0.6-4.3-1.6-4.3-4.3
			C221.5,737.9,224.8,736.7,227.6,736.7z"/>
		<path class="st12" d="M238.1,739.8h-0.8c-1.1,0-1.6-0.5-1.6-1.3c0-0.9,0.5-1.3,1.6-1.3h0.8v-2.5c0-1.3,0.8-2.1,2.1-2.1
			s2.1,0.8,2.1,2.1v2.5h1.2c1.1,0,1.9,0.4,1.9,1.3s-0.7,1.3-1.9,1.3h-1.2v8.1c0,0.7,0.4,0.9,1,0.9h0.6c0.9,0,1.4,0.5,1.4,1.4
			c0,1.1-0.9,1.8-2.9,1.8c-2.9,0-4.2-1.2-4.2-3.6L238.1,739.8L238.1,739.8z"/>
		<path class="st12" d="M252.3,732.7c0.4-1,1.1-1.4,2.3-1.4h1.1c1,0,2,0.2,2.5,1.6l5.5,15.3c0.2,0.6,0.4,1.1,0.5,1.8
			c-0.1,1.1-0.9,2.1-2.2,2c-0.9,0-1.7-0.4-2.1-1.2l-1.1-3.3h-7.3l-1.1,3.3c-0.3,0.9-0.9,1.2-2.1,1.2c-1.2,0-2.2-0.8-2.2-2
			c0.1-0.7,0.2-1.2,0.5-1.8L252.3,732.7z M255.1,736.1L255.1,736.1l-2.7,8h5.3L255.1,736.1z"/>
		<path class="st12" d="M266.4,734.4c0-2.1,1-2.6,2.6-2.6h7.6c5.4,0,6.9,3,6.9,5.6c0,2.2-1.2,4.3-3.5,4.8v0.1
			c2.3,0.4,2.7,2.1,2.7,4.1c0,2.3,0.7,3.2,0.7,4.2c0,1-1.1,1.8-2.2,1.8c-2.6,0-2.7-2.4-2.7-3.2c0-3.5-0.7-4.9-3.1-4.9h-4.5v5.9
			c0,1.2-1,2.3-2.3,2.3s-2.3-1-2.3-2.3l0,0L266.4,734.4L266.4,734.4z M271,740.5h4.5c1.7,0,3.5-0.5,3.5-2.7c0-2.2-1.3-2.7-3.3-2.7
			H271V740.5L271,740.5z"/>
	</g>
	<g>
		<path class="st12" d="M164.1,756.1h-17c-1.1,0-2.1-0.9-2.1-2.1v-12.4c-0.8-1-2.6-3.6-2.6-5.9s0.9-4.4,2.6-6.1
			c1.6-1.6,3.8-2.5,6.1-2.5l0,0c1.6,0,3.5,0.9,4.5,1.5c1.1-0.7,2.9-1.5,4.5-1.5c4.7,0,8.5,3.8,8.5,8.5c0,1.2-0.5,2.6-1.4,4.3
			c-0.4,0.7-0.8,1.1-1,1.5v12.4C166.3,755.2,165.4,756.1,164.1,756.1z M148.9,752.2h13.5v-11.1c0-0.6,0.1-1,0.4-1.5l0.8-1h0.1
			c0.6-0.9,1.2-2.2,1.2-2.9c0-2.6-2.1-4.6-4.7-4.6c-0.9,0-2.5,0.9-3.4,1.4l-0.1,0.1c-0.7,0.4-1.5,0.4-2.2,0l-0.1-0.1
			c-0.9-0.6-2.6-1.4-3.4-1.4l0,0c-1.2,0-2.5,0.5-3.3,1.3c-0.9,0.9-1.4,2.1-1.4,3.3c0,0.9,1.1,2.8,2,3.8v0.1c0.3,0.4,0.5,0.8,0.6,1.1
			v0.2L148.9,752.2L148.9,752.2z"/>
		<path class="st12" d="M155.6,748.6H152c-0.8,0-1.2-0.5-1.2-1.3c0-0.9,0.5-1.3,1.2-1.3h7.4c0.8,0,1.2,0.5,1.2,1.3
			c0,0.8-0.5,1.3-1.2,1.3H155.6L155.6,748.6z"/>
		<path class="st12" d="M155.6,743.7H152c-0.8,0-1.2-0.5-1.2-1.3s0.5-1.3,1.2-1.3h7.4c0.8,0,1.2,0.5,1.2,1.3c0,0.8-0.5,1.3-1.2,1.3
			H155.6L155.6,743.7z"/>
		<path class="st12" d="M155.6,738.6H152c-0.8,0-1.2-0.5-1.2-1.3c0-0.9,0.5-1.3,1.2-1.3h7.4c0.8,0,1.2,0.5,1.2,1.3
			c0,0.8-0.5,1.3-1.2,1.3H155.6L155.6,738.6z"/>
	</g>
</g>
<text transform="matrix(1 0 0 1 130.9003 73.8898)" class="st13 st14 st15">10 Free Insider Tips How To</text>
</svg>
