<?xml version="1.0" encoding="utf-8"?>
<!-- Generator: Adobe Illustrator 22.1.0, SVG Export Plug-In . SVG Version: 6.00 Build 0)  -->
<svg version="1.1" id="Laag_1" xmlns="http://www.w3.org/2000/svg" xmlns:xlink="http://www.w3.org/1999/xlink" x="0px" y="0px"
	 viewBox="0 0 160.2 85.8" style="enable-background:new 0 0 160.2 85.8;" xml:space="preserve">
<style type="text/css">
	.st0{fill:#FF3465;}
	.st1{fill:#30ACE2;}
	.st2{fill:#FFFFFF;}
	.st3{fill:#00CCCC;}
	.st4{fill:#EAF7F9;}
	.st5{fill:#321E41;}
	.st6{fill:none;}
	.st7{fill:#92E1B7;}
</style>
<title>Asset 63</title>
<rect x="21.9" y="18.6" class="st0" width="40.9" height="66.8"/>
<path class="st1" d="M137.7,26.3l0,59.1l0,0H56.4l0,0V18.6l0,0H130C134.3,18.6,137.7,22.1,137.7,26.3z"/>
<rect x="86.1" y="42.7" class="st2" width="45.7" height="30.8"/>
<polygon class="st2" points="131.8,50 131.8,71.9 100.3,71.9 "/>
<path class="st2" d="M86.2,71.7v-3.1l37.9-25.9h5.3c0,0-42,29-42.2,29H86.2z"/>
<rect x="85.3" y="70.7" class="st3" width="48.2" height="3.9"/>
<rect x="62.8" y="47.4" class="st4" width="17.3" height="38"/>
<polygon class="st3" points="62.8,47.4 80.1,47.4 80.1,85.4 74.1,85.4 "/>
<path class="st0" d="M56.2,43.1V18.6c12.3,0,22.3,11,22.3,24.5H56.2z"/>
<path class="st5" d="M151.7,43.1c0-13.5-10-24.5-22.3-24.5H56.2c12.3,0,22.3,11,22.3,24.5H151.7z"/>
<path class="st0" d="M114.5,18.6c12.3,0,22.3,11.2,22.8,24.5h2c0-11.9-7-21.9-16.9-24.5"/>
<path class="st0" d="M69.2,18.6c12.2,0,22.2,11.2,22.8,24.5h2c0-11.9-7-21.9-16.9-24.5"/>
<path class="st0" d="M84.3,18.6c12.3,0,22.3,11.2,22.8,24.5h2c0-11.9-6.9-21.9-16.9-24.5"/>
<path class="st0" d="M99.4,18.6c12.3,0,22.3,11.2,22.8,24.5h2c0-11.9-6.9-21.9-16.9-24.5"/>
<rect y="0" class="st6" width="160.2" height="85.8"/>
<path class="st7" d="M35.4,52"/>
<g>
	<path d="M91.6,62c0,3.9,3.1,7,7,7c3.9,0,7-3.1,7-7c0-2.6-1.5-4.9-3.6-6.1l0.3-0.6l0.1,0l0.1-0.3l0,0l0-0.1l7.2,7
		c-0.3,0.3-0.5,0.7-0.5,1.2l-1,0l-0.5-0.6c-0.1-0.1-0.3-0.1-0.5,0c-0.1,0.1-0.1,0.1-0.1,0.2c0,0.1,0,0.2,0.1,0.2l1.2,1.4
		c0.1,0.1,0.1,0.1,0.2,0.1c0.1,0,0.2,0,0.2-0.1c0.1-0.1,0.2-0.3,0-0.5l-0.1-0.2c0.1,0,0.2,0,0.5,0c0.2,1.1,1.1,1.9,2.3,1.9
		c0.3,0,0.5,0,0.7-0.1c0.3,0,0.4-0.1,0.4-0.1c0,0,0.6-0.1,1.4-0.3c1.1,2.3,3.5,3.8,6.2,3.8c3.8,0,6.9-3.1,6.9-6.9
		c0-3.8-3.1-6.9-6.9-6.9c-1.1,0-2,0.2-2.9,0.7l-1.8-3.3l0.3-0.8l0,0l0.7-2.1c0.6,0.1,1,0.2,1.1,0.1c0.2-0.1,1.3-0.9,1.3-0.9
		c0.1-0.2,0-0.3-0.5-0.4c-0.5,0-1,0.2-1.5,0.4c-0.5,0.2-3.5-0.2-3.9-0.2c-0.4,0-0.5,0.1-0.5,0.3c0,0.2,0.5,0.5,0.8,0.5
		c0.2,0,1.5,0,2.5,0.1l-0.7,2.1l0,0l-0.1,0.4l-11.5,0l0-0.1l-0.7-0.1l-1.1,3l-0.1,0l-0.1,0.2l0.1,0l-0.3,0.7
		c-0.9-0.4-1.8-0.6-2.8-0.6C94.7,55,91.6,58.1,91.6,62z M107.9,63.1C107.9,63.1,107.9,63.1,107.9,63.1c-0.2,0-0.3,0.1-0.3,0.3
		c0,0,0,0.1,0,0.1l-0.5-0.6c0,0-0.1-0.1,0-0.2c0-0.1,0-0.1,0.1-0.2c0,0,0.1-0.1,0.2-0.1c0.1,0,0.1,0,0.1,0.1L107.9,63.1z
		 M108.2,63.4l0.5,0.6c0.1,0.1,0.1,0.2,0,0.3c-0.1,0.1-0.2,0.1-0.3,0l-0.5-0.6c0,0,0.1,0,0.1,0C108.1,63.7,108.2,63.6,108.2,63.4z
		 M117.3,56.7l2.4,4.4l0,0c-0.2,0-0.5,0-0.9,0l-3.2-3C116,57.5,116.6,57,117.3,56.7z M120.5,63.8L120.5,63.8l-0.1-0.2l0,0
		L120.5,63.8z M120.4,63.5L120.4,63.5c0.1,0,0.1-0.1,0.1-0.1l0,0.3L120.4,63.5z M119.3,63.7l0.3-0.6l0.1-0.1
		c0.2,0.1,0.4,0.2,0.6,0.2c0.5,0,0.9-0.4,0.9-0.9c0-0.5-0.4-0.9-0.9-0.9c0,0,0,0,0,0l-0.1-0.1c0,0,0,0,0,0l0,0l0,0
		c0.1,0,0.2,0,0.2,0c0.5,0.1,0.8,0.4,0.9,0.9c0,0.1,0,0.1,0,0.2l0,0.1c0,0.1,0,0.1-0.1,0.2l0,0c-0.1,0.2-0.2,0.4-0.5,0.5
		C120.4,63.4,119.9,63.5,119.3,63.7z M121.6,62.7l-0.3-0.2c0-0.1,0-0.2,0-0.3c0,0,0,0,0-0.1l0.7,0.5L121.6,62.7z M122.1,62.7
		L122.1,62.7l-0.3,0L122.1,62.7z M121.4,62.7l-0.2,0c0,0,0-0.1,0-0.1L121.4,62.7z M121.3,61.9c0-0.1,0-0.1-0.1-0.2l0.2-0.4l0.3-0.1
		L121.3,61.9z M121.4,61.2l0.1-0.3l0.4-0.2l-0.2,0.4L121.4,61.2z M120.9,61.4c0,0-0.1-0.1-0.2-0.1l0.7-0.3l-0.1,0.3L120.9,61.4z
		 M121.2,61.4l-0.1,0.2c0-0.1-0.1-0.1-0.1-0.2L121.2,61.4z M119.8,60.7l0.1-0.7l0.3,0.5l-0.2,0.6c0,0,0,0,0,0L119.8,60.7z M120.2,62
		c0.2,0,0.3,0.1,0.3,0.3c0,0.2-0.1,0.3-0.3,0.3c-0.2,0-0.3-0.1-0.3-0.3C119.9,62.1,120,62,120.2,62z M120.3,60.6l0.3,0.6
		c-0.1,0-0.2,0-0.2-0.1c0,0-0.1,0-0.2,0L120.3,60.6z M119.2,61.6l-0.4-0.4c0.3,0,0.6,0,0.9,0l0.1,0.2c-0.1,0-0.1,0.1-0.2,0.1
		L119.2,61.6z M119.5,61.7C119.5,61.7,119.4,61.7,119.5,61.7l-0.1,0L119.5,61.7z M119.1,63.7c-0.1,0-0.2,0.1-0.3,0.1l0.4-0.7
		l0.2-0.1L119.1,63.7z M119.2,63l0.1-0.2l0.1,0c0,0,0,0.1,0.1,0.1l0,0.1L119.2,63z M119.4,61.8c0,0.1,0,0.1-0.1,0.2l-0.4-0.3l0.3,0
		L119.4,61.8z M118.7,61.6l-0.5-0.4c0.2,0,0.3,0,0.5,0l0.4,0.4L118.7,61.6z M118.6,61.6l-4.5,0.3c0-0.2,0-0.4,0-0.6
		c1.2,0,2.6,0,3.7,0c0,0,0.1,0,0.1,0L118.6,61.6z M114.2,61.1c0.1-0.8,0.4-1.5,0.8-2.2l2.9,2.2C116.7,61.1,115.3,61.1,114.2,61.1z
		 M115,58.8c0.1-0.2,0.3-0.4,0.4-0.6l3.1,2.9c-0.2,0-0.3,0-0.5,0L115,58.8z M118,56.3l1.8,3.5l-0.1,0.7l-2.1-4
		C117.8,56.4,117.9,56.4,118,56.3z M120.6,56l-0.7,3.6l-1.8-3.3c0.6-0.2,1.3-0.3,2-0.3C120.3,55.9,120.4,55.9,120.6,56z M121.4,56.1
		l-1.1,4.2l-0.3-0.5l0.7-3.8C120.9,56,121.2,56,121.4,56.1z M123.4,56.9l-1.9,3.9l-0.8,0.3l-0.4-0.7l1.1-4.4
		C122.2,56.3,122.9,56.5,123.4,56.9z M124.2,57.5l-2,3.1l-0.5,0.2l1.9-3.8C123.8,57.1,124,57.3,124.2,57.5z M125.6,59.3l-3.3,1.3
		l1.9-3C124.8,58,125.2,58.6,125.6,59.3z M125.9,60.1l-3.9,1l0.2-0.4l3.4-1.3C125.7,59.6,125.8,59.8,125.9,60.1z M126.2,62.3l-4,0.4
		l-0.8-0.6l0.5-0.8l4.1-1.1c0.2,0.6,0.3,1.2,0.3,1.8C126.2,62.1,126.2,62.2,126.2,62.3z M126.1,63.2L126.1,63.2l-3.7-0.4l-0.1-0.1
		l3.9-0.3C126.2,62.7,126.2,62.9,126.1,63.2z M125.4,65.1l-2.8-2.1l3.5,0.3C126,63.9,125.7,64.5,125.4,65.1z M125,65.7l-3.2-2.8
		l0.6,0.1l2.9,2.3C125.2,65.4,125.1,65.5,125,65.7z M123.1,67.3l-2.5-3.5l0-0.4c0,0,0,0,0,0c0.3-0.2,0.5-0.3,0.6-0.5l0.1,0l0,0
		l0.4,0l3.3,2.9C124.4,66.4,123.8,66.9,123.1,67.3z M122.5,67.6L122.5,67.6l-1.9-3.5l0-0.1l2.4,3.4
		C122.8,67.4,122.7,67.5,122.5,67.6z M120.2,68.1l0.4-3.7l1.8,3.3C121.7,67.9,121,68.1,120.2,68.1z M119.6,68l0.7-4.1l0.1,0.3
		l-0.4,3.9C119.9,68.1,119.7,68.1,119.6,68z M117.6,67.5l1.6-3.7c0.3-0.1,0.7-0.2,0.9-0.3l0.1,0.1l-0.8,4.3
		C118.8,68,118.2,67.8,117.6,67.5z M116.9,67.1L116.9,67.1l1.8-3.2c0.1,0,0.2-0.1,0.3-0.1l-1.6,3.6
		C117.3,67.4,117.1,67.3,116.9,67.1z M114.8,64.9c0.7-0.2,1.5-0.4,2.3-0.6l0.4-0.1c0.4-0.1,0.7-0.2,1.1-0.3l-1.7,3.1
		C116,66.6,115.3,65.8,114.8,64.9z M114.6,64.4l4.4-1.2l-0.4,0.7c-0.4,0.1-0.8,0.2-1.2,0.3l-0.4,0.1c-0.8,0.2-1.6,0.4-2.3,0.6
		C114.7,64.7,114.6,64.6,114.6,64.4z M114.3,63.4l5-0.6l-0.1,0.3l-4.5,1.3C114.4,64,114.3,63.7,114.3,63.4z M114.2,63l5.1-0.6
		l0.1,0.2l0,0.1l-5.1,0.6C114.2,63.2,114.2,63.1,114.2,63z M114.1,62C114.1,62,114.1,62,114.1,62l4.6-0.3l0.6,0.4c0,0,0,0.1,0,0.1
		c0,0,0,0,0,0l-5.1,0.6C114.1,62.6,114.1,62.3,114.1,62z M113.3,61.1c-0.3,0-0.5,0-0.8,0l2.9-8.7l-0.2,0.5l1.6,2.9
		C114.9,57,113.6,58.9,113.3,61.1z M111.7,63h0.2l0.5-1.5c0.4,0.2,0.7,0.5,0.9,0.9c0,0,0,0,0,0l-1.3,0.6L111.7,63
		C111.7,63.1,111.7,63,111.7,63L111.7,63L111.7,63L111.7,63z M111.4,62l-0.1-0.7c0,0,0,0,0.1,0c0.1,0,0.2,0,0.3,0L111.4,62z
		 M111.9,63.6c0.1-0.1,0.1-0.2,0-0.2l0.4-0.2l1-0.1c0,0.1,0,0.2,0.1,0.3L111.9,63.6z M113.4,63.5c0,0.1,0,0.1,0,0.2
		c-0.1,0.4-0.2,0.7-0.4,1l-1.1-1L113.4,63.5z M112.6,63l0.6-0.3c0,0.1,0,0.2,0,0.2L112.6,63z M112.5,61.4l0-0.1c0.2,0,0.5,0,0.8,0
		c0,0.3,0,0.5,0,0.8C113,61.7,112.8,61.5,112.5,61.4z M112.6,65.3c0.5-0.3,0.8-0.7,1-1.2c0.1,0.3,0.2,0.6,0.3,0.9
		C113.2,65.2,112.7,65.3,112.6,65.3z M110.5,65.3l0.9-1.5c0.1,0,0.2,0,0.3,0l1.2,1.1c-0.4,0.4-0.9,0.6-1.5,0.6
		C111.1,65.4,110.8,65.4,110.5,65.3z M109.3,63.8c0.6,0,1.3,0,1.8,0l-0.8,1.4C109.8,64.9,109.4,64.4,109.3,63.8z M109.8,62.1l1,1
		h0.5h0.1l0,0l-2,0.1C109.3,62.7,109.5,62.3,109.8,62.1z M110.4,61.6c0.2-0.1,0.4-0.2,0.7-0.2l0.1,1L110.4,61.6z M102.6,54.1
		l0.6-1.5l11.5,0l-3,8.5c-0.1,0-0.2,0-0.3,0c-0.4,0-0.8,0.1-1.2,0.3L102.6,54.1z M93.3,58.8l3.1,2.5l-3.9-0.2l0,0.1l4.1,0.2l0.3,0.2
		l-4.4,0.2C92.5,60.8,92.8,59.7,93.3,58.8z M97.6,61.8l0.1,0C97.7,61.8,97.7,61.8,97.6,61.8L97.6,61.8z M97.7,62.7
		C97.7,62.7,97.7,62.8,97.7,62.7L97.7,62.7L97.7,62.7z M97.5,61.7l-0.2-0.2l0.6,0c0,0-0.1,0.1-0.1,0.1L97.5,61.7z M98,63.1l-0.6,0.2
		l0.2-0.4l0.2,0C97.8,62.9,97.9,63,98,63.1z M97.3,63.4l-0.4,0.2l0.3-0.5l0.3-0.1L97.3,63.4z M97.3,62.9l0.3-0.5c0,0.1,0,0.1,0,0.2
		l-0.1,0.2L97.3,62.9z M97.2,61.8l0.3,0l0.2,0.2c0,0.1,0,0.1,0,0.2L97.2,61.8z M97,61.7l-0.3-0.2l0.4,0l0.2,0.2L97,61.7z M93.8,58.2
		l3.3,3.2l-0.4,0l-3.3-2.6C93.5,58.5,93.6,58.3,93.8,58.2z M95.6,56.6l2.5,4L98,61.4l-0.8,0l-3.4-3.3C94.3,57.5,95,57,95.6,56.6z
		 M99,64l0,0.4L98.8,64l0.1-0.2L99,64z M98.9,63.6l0.1-0.4c0.1,0,0.1-0.1,0.1-0.1L99,63.8L98.9,63.6z M98.6,63.3c0.1,0,0.2,0,0.2,0
		l-0.1,0.3L98.6,63.3z M98.8,63.6l-0.1,0.2l-0.3-0.6c0,0,0.1,0,0.1,0L98.8,63.6z M98.3,62.3c0-0.2,0.1-0.3,0.3-0.3
		c0.2,0,0.3,0.1,0.3,0.3s-0.1,0.3-0.3,0.3C98.4,62.6,98.3,62.5,98.3,62.3z M98.6,61.3C98.6,61.3,98.6,61.3,98.6,61.3
		c-0.1,0-0.1,0-0.2,0l0.1-0.3L98.6,61.3z M98.4,60.8l-0.1-0.2l0-0.3l0.1,0.3L98.4,60.8z M98.5,60.9l0.1-0.2l0.3,0.6c0,0-0.1,0-0.1,0
		L98.5,60.9z M98.2,61.3c0,0-0.1,0-0.1,0.1l0.1-0.7l0.1,0.2L98.2,61.3z M96.2,56.3l2,3.8l0,0.3l-2.4-3.9
		C95.9,56.5,96,56.4,96.2,56.3z M98.9,55.9l-0.7,4.1l-2-3.6c0.7-0.3,1.5-0.4,2.3-0.4C98.7,55.8,98.8,55.8,98.9,55.9z M99.6,55.9
		l-1.1,4.4l-0.2-0.3l0.7-4.2C99.2,55.9,99.4,55.9,99.6,55.9z M101,56.3l-2.1,4.8l-0.4-0.7l1.2-4.6C100.2,56,100.6,56.2,101,56.3z
		 M100.3,62.9l-0.8-0.1c0-0.1,0.1-0.1,0.1-0.2l0.5,0L100.3,62.9z M100.2,62.6L100.2,62.6l0.4,0.3l-0.1,0L100.2,62.6z M99.9,61.3
		L99.5,62l0,0l0,0c0,0,0,0,0-0.1l0.3-0.5L99.9,61.3z M99.8,61.2L100,61l0.2-0.1l-0.2,0.3L99.8,61.2z M99.7,61.3l-0.5,0.1l0.1-0.2
		l0.5-0.2L99.7,61.3z M99.6,62.3c0,0,0-0.1,0-0.1l0.3,0.3l-0.3,0C99.6,62.4,99.6,62.3,99.6,62.3z M99.2,61.5L99.2,61.5L99.2,61.5
		l0.4-0.1l-0.2,0.3C99.4,61.7,99.3,61.6,99.2,61.5z M101.9,56.8l-2,4.1l-0.5,0.2l2.2-4.5C101.7,56.7,101.8,56.8,101.9,56.8z
		 M102.5,57.3l-2.2,3.4l-0.3,0.1l2-3.9C102.2,57,102.3,57.1,102.5,57.3z M104,59.2l-3.5,1.4l2.1-3.3C103.2,57.9,103.7,58.5,104,59.2
		z M104.4,60l-4.2,1.1l0.2-0.3l3.7-1.5C104.2,59.5,104.3,59.8,104.4,60z M104.7,62.6l-4.5-0.1L99.6,62l0.5-0.7l4.3-1.2
		c0.2,0.6,0.3,1.2,0.3,1.9C104.7,62.2,104.7,62.4,104.7,62.6z M104.6,63.3l-3.8-0.3l-0.4-0.3l4.3,0.1
		C104.6,62.9,104.6,63.1,104.6,63.3z M103.7,65.2l-2.8-2.2l3.6,0.3C104.4,64,104.1,64.7,103.7,65.2z M103.3,65.8l-2.8-2.8l0.1,0
		l3,2.3C103.6,65.5,103.5,65.7,103.3,65.8z M101.6,67.3L99.1,64l0.1-1c0,0,0-0.1,0.1-0.1l1,0.1l2.9,2.9l0.1-0.1
		C102.8,66.4,102.2,66.9,101.6,67.3z M100.7,67.7l-1.7-3.2l0.1-0.4l2.3,3.2C101.2,67.5,101,67.6,100.7,67.7z M98.6,68.1l0.4-3.3
		l1.6,3C100,68,99.3,68.1,98.6,68.1z M95.5,67.3l1.9-3.8l0.7-0.3c0.1,0,0.1,0.1,0.2,0.1l0,0l0.4,0.8l-1,4l0.1,0l1-3.9l0.2,0.4
		l-0.5,3.5C97.4,68.1,96.4,67.8,95.5,67.3z M94.8,66.8l2-3.1l0.4-0.2l-1.8,3.7C95.2,67.1,95,66.9,94.8,66.8z M93.3,65.1l3.3-1.4
		l-1.9,3C94.2,66.3,93.7,65.8,93.3,65.1z M92.9,64.3l4.1-1.2l-0.3,0.5L93.3,65C93.1,64.8,93,64.6,92.9,64.3z M92.9,64.2
		c-0.3-0.7-0.4-1.5-0.4-2.3c0,0,0,0,0-0.1l0,0.1l4.6-0.2l0.6,0.4l-0.4,0.7L92.9,64.2z"/>
	<path d="M102.8,51.6l0.4-1l-1.6,0l0-0.2l-3.1,0c0,0-0.7,0.4-0.4,1.1c0.2,0.7,0.5,0.9,1,1.3c0.5,0.5,1,0.9,1,0.9l-0.4,0.4
		c0,0-1.1-0.9-1.8-1.7c-0.4-0.5-0.7-1.1-0.5-1.7c0.1-0.5,0.4-1,1.4-1c1,0,5.6,0,5.6,0l-0.8,1.9L102.8,51.6z"/>
</g>
</svg>
