<?xml version="1.0" encoding="utf-8"?>
<!-- Generator: Adobe Illustrator 22.1.0, SVG Export Plug-In . SVG Version: 6.00 Build 0)  -->
<svg version="1.1" id="Laag_1" xmlns="http://www.w3.org/2000/svg" xmlns:xlink="http://www.w3.org/1999/xlink" x="0px" y="0px"
	 viewBox="0 0 229.8 265.8" style="enable-background:new 0 0 229.8 265.8;" xml:space="preserve">
<style type="text/css">
	.st0{fill:#438DCC;}
</style>
<circle class="st0" cx="4.7" cy="4.6" r="1.5"/>
<circle class="st0" cx="13.2" cy="4.6" r="1.5"/>
<circle class="st0" cx="21.8" cy="4.6" r="1.5"/>
<circle class="st0" cx="30.3" cy="4.6" r="1.5"/>
<circle class="st0" cx="38.8" cy="4.6" r="1.5"/>
<circle class="st0" cx="47.3" cy="4.6" r="1.5"/>
<circle class="st0" cx="55.8" cy="4.6" r="1.5"/>
<circle class="st0" cx="64.3" cy="4.6" r="1.5"/>
<circle class="st0" cx="72.8" cy="4.6" r="1.5"/>
<circle class="st0" cx="81.3" cy="4.6" r="1.5"/>
<circle class="st0" cx="89.8" cy="4.6" r="1.5"/>
<circle class="st0" cx="98.3" cy="4.6" r="1.5"/>
<circle class="st0" cx="106.8" cy="4.6" r="1.5"/>
<circle class="st0" cx="115.3" cy="4.6" r="1.5"/>
<circle class="st0" cx="123.8" cy="4.6" r="1.5"/>
<circle class="st0" cx="132.3" cy="4.6" r="1.5"/>
<circle class="st0" cx="140.8" cy="4.6" r="1.5"/>
<circle class="st0" cx="149.3" cy="4.6" r="1.5"/>
<circle class="st0" cx="157.8" cy="4.6" r="1.5"/>
<circle class="st0" cx="166.3" cy="4.6" r="1.5"/>
<circle class="st0" cx="174.8" cy="4.6" r="1.5"/>
<circle class="st0" cx="183.3" cy="4.6" r="1.5"/>
<circle class="st0" cx="191.8" cy="4.6" r="1.5"/>
<circle class="st0" cx="200.3" cy="4.6" r="1.5"/>
<circle class="st0" cx="208.8" cy="4.6" r="1.5"/>
<circle class="st0" cx="217.3" cy="4.6" r="1.5"/>
<circle class="st0" cx="225.8" cy="4.6" r="1.5"/>
<circle class="st0" cx="4.7" cy="13.1" r="1.5"/>
<circle class="st0" cx="13.2" cy="13.1" r="1.5"/>
<circle class="st0" cx="21.8" cy="13.1" r="1.5"/>
<circle class="st0" cx="30.3" cy="13.1" r="1.5"/>
<circle class="st0" cx="38.8" cy="13.1" r="1.5"/>
<circle class="st0" cx="47.3" cy="13.1" r="1.5"/>
<circle class="st0" cx="55.8" cy="13.1" r="1.5"/>
<circle class="st0" cx="64.3" cy="13.1" r="1.5"/>
<circle class="st0" cx="72.8" cy="13.1" r="1.5"/>
<circle class="st0" cx="81.3" cy="13.1" r="1.5"/>
<circle class="st0" cx="89.8" cy="13.1" r="1.5"/>
<circle class="st0" cx="98.3" cy="13.1" r="1.5"/>
<circle class="st0" cx="106.8" cy="13.1" r="1.5"/>
<circle class="st0" cx="115.3" cy="13.1" r="1.5"/>
<circle class="st0" cx="123.8" cy="13.1" r="1.5"/>
<circle class="st0" cx="132.3" cy="13.1" r="1.5"/>
<circle class="st0" cx="140.8" cy="13.1" r="1.5"/>
<circle class="st0" cx="149.3" cy="13.1" r="1.5"/>
<circle class="st0" cx="157.8" cy="13.1" r="1.5"/>
<circle class="st0" cx="166.3" cy="13.1" r="1.5"/>
<circle class="st0" cx="174.8" cy="13.1" r="1.5"/>
<circle class="st0" cx="183.3" cy="13.1" r="1.5"/>
<circle class="st0" cx="191.8" cy="13.1" r="1.5"/>
<circle class="st0" cx="200.3" cy="13.1" r="1.5"/>
<circle class="st0" cx="208.8" cy="13.1" r="1.5"/>
<circle class="st0" cx="217.3" cy="13.1" r="1.5"/>
<circle class="st0" cx="225.8" cy="13.1" r="1.5"/>
<circle class="st0" cx="4.7" cy="21.6" r="1.5"/>
<circle class="st0" cx="13.2" cy="21.6" r="1.5"/>
<circle class="st0" cx="21.8" cy="21.6" r="1.5"/>
<circle class="st0" cx="30.3" cy="21.6" r="1.5"/>
<circle class="st0" cx="38.8" cy="21.6" r="1.5"/>
<circle class="st0" cx="47.3" cy="21.6" r="1.5"/>
<circle class="st0" cx="55.8" cy="21.6" r="1.5"/>
<circle class="st0" cx="64.3" cy="21.6" r="1.5"/>
<circle class="st0" cx="72.8" cy="21.6" r="1.5"/>
<circle class="st0" cx="81.3" cy="21.6" r="1.5"/>
<circle class="st0" cx="89.8" cy="21.6" r="1.5"/>
<circle class="st0" cx="98.3" cy="21.6" r="1.5"/>
<circle class="st0" cx="106.8" cy="21.6" r="1.5"/>
<circle class="st0" cx="115.3" cy="21.6" r="1.5"/>
<circle class="st0" cx="123.8" cy="21.6" r="1.5"/>
<circle class="st0" cx="132.3" cy="21.6" r="1.5"/>
<circle class="st0" cx="140.8" cy="21.6" r="1.5"/>
<circle class="st0" cx="149.3" cy="21.6" r="1.5"/>
<circle class="st0" cx="157.8" cy="21.6" r="1.5"/>
<circle class="st0" cx="166.3" cy="21.6" r="1.5"/>
<circle class="st0" cx="174.8" cy="21.6" r="1.5"/>
<circle class="st0" cx="183.3" cy="21.6" r="1.5"/>
<circle class="st0" cx="191.8" cy="21.6" r="1.5"/>
<circle class="st0" cx="200.3" cy="21.6" r="1.5"/>
<circle class="st0" cx="208.8" cy="21.6" r="1.5"/>
<circle class="st0" cx="217.3" cy="21.6" r="1.5"/>
<circle class="st0" cx="225.8" cy="21.6" r="1.5"/>
<circle class="st0" cx="4.7" cy="30.2" r="1.5"/>
<circle class="st0" cx="13.2" cy="30.2" r="1.5"/>
<circle class="st0" cx="21.8" cy="30.2" r="1.5"/>
<circle class="st0" cx="30.3" cy="30.2" r="1.5"/>
<circle class="st0" cx="38.8" cy="30.2" r="1.5"/>
<circle class="st0" cx="47.3" cy="30.2" r="1.5"/>
<circle class="st0" cx="55.8" cy="30.2" r="1.5"/>
<circle class="st0" cx="64.3" cy="30.2" r="1.5"/>
<circle class="st0" cx="72.8" cy="30.2" r="1.5"/>
<circle class="st0" cx="81.3" cy="30.2" r="1.5"/>
<circle class="st0" cx="89.8" cy="30.2" r="1.5"/>
<circle class="st0" cx="98.3" cy="30.2" r="1.5"/>
<circle class="st0" cx="106.8" cy="30.2" r="1.5"/>
<circle class="st0" cx="115.3" cy="30.2" r="1.5"/>
<circle class="st0" cx="123.8" cy="30.2" r="1.5"/>
<circle class="st0" cx="132.3" cy="30.2" r="1.5"/>
<circle class="st0" cx="140.8" cy="30.2" r="1.5"/>
<circle class="st0" cx="149.3" cy="30.2" r="1.5"/>
<circle class="st0" cx="157.8" cy="30.2" r="1.5"/>
<circle class="st0" cx="166.3" cy="30.2" r="1.5"/>
<circle class="st0" cx="174.8" cy="30.2" r="1.5"/>
<circle class="st0" cx="183.3" cy="30.2" r="1.5"/>
<circle class="st0" cx="191.8" cy="30.2" r="1.5"/>
<circle class="st0" cx="200.3" cy="30.2" r="1.5"/>
<circle class="st0" cx="208.8" cy="30.2" r="1.5"/>
<circle class="st0" cx="217.3" cy="30.2" r="1.5"/>
<circle class="st0" cx="225.8" cy="30.2" r="1.5"/>
<circle class="st0" cx="4.7" cy="38.7" r="1.5"/>
<circle class="st0" cx="13.2" cy="38.7" r="1.5"/>
<circle class="st0" cx="21.8" cy="38.7" r="1.5"/>
<circle class="st0" cx="30.3" cy="38.7" r="1.5"/>
<circle class="st0" cx="38.8" cy="38.7" r="1.5"/>
<circle class="st0" cx="47.3" cy="38.7" r="1.5"/>
<circle class="st0" cx="55.8" cy="38.7" r="1.5"/>
<circle class="st0" cx="64.3" cy="38.7" r="1.5"/>
<circle class="st0" cx="72.8" cy="38.7" r="1.5"/>
<circle class="st0" cx="81.3" cy="38.7" r="1.5"/>
<circle class="st0" cx="89.8" cy="38.7" r="1.5"/>
<circle class="st0" cx="98.3" cy="38.7" r="1.5"/>
<circle class="st0" cx="106.8" cy="38.7" r="1.5"/>
<circle class="st0" cx="115.3" cy="38.7" r="1.5"/>
<circle class="st0" cx="123.8" cy="38.7" r="1.5"/>
<circle class="st0" cx="132.3" cy="38.7" r="1.5"/>
<circle class="st0" cx="140.8" cy="38.7" r="1.5"/>
<circle class="st0" cx="149.3" cy="38.7" r="1.5"/>
<circle class="st0" cx="157.8" cy="38.7" r="1.5"/>
<circle class="st0" cx="166.3" cy="38.7" r="1.5"/>
<circle class="st0" cx="174.8" cy="38.7" r="1.5"/>
<circle class="st0" cx="183.3" cy="38.7" r="1.5"/>
<circle class="st0" cx="191.8" cy="38.7" r="1.5"/>
<circle class="st0" cx="200.3" cy="38.7" r="1.5"/>
<circle class="st0" cx="208.8" cy="38.7" r="1.5"/>
<circle class="st0" cx="217.3" cy="38.7" r="1.5"/>
<circle class="st0" cx="225.8" cy="38.7" r="1.5"/>
<circle class="st0" cx="4.7" cy="47.2" r="1.5"/>
<circle class="st0" cx="13.2" cy="47.2" r="1.5"/>
<circle class="st0" cx="21.8" cy="47.2" r="1.5"/>
<circle class="st0" cx="30.3" cy="47.2" r="1.5"/>
<circle class="st0" cx="38.8" cy="47.2" r="1.5"/>
<circle class="st0" cx="47.3" cy="47.2" r="1.5"/>
<circle class="st0" cx="55.8" cy="47.2" r="1.5"/>
<circle class="st0" cx="64.3" cy="47.2" r="1.5"/>
<circle class="st0" cx="72.8" cy="47.2" r="1.5"/>
<circle class="st0" cx="81.3" cy="47.2" r="1.5"/>
<circle class="st0" cx="89.8" cy="47.2" r="1.5"/>
<circle class="st0" cx="98.3" cy="47.2" r="1.5"/>
<circle class="st0" cx="106.8" cy="47.2" r="1.5"/>
<circle class="st0" cx="115.3" cy="47.2" r="1.5"/>
<circle class="st0" cx="123.8" cy="47.2" r="1.5"/>
<circle class="st0" cx="132.3" cy="47.2" r="1.5"/>
<circle class="st0" cx="140.8" cy="47.2" r="1.5"/>
<circle class="st0" cx="149.3" cy="47.2" r="1.5"/>
<circle class="st0" cx="157.8" cy="47.2" r="1.5"/>
<circle class="st0" cx="166.3" cy="47.2" r="1.5"/>
<circle class="st0" cx="174.8" cy="47.2" r="1.5"/>
<circle class="st0" cx="183.3" cy="47.2" r="1.5"/>
<circle class="st0" cx="191.8" cy="47.2" r="1.5"/>
<circle class="st0" cx="200.3" cy="47.2" r="1.5"/>
<circle class="st0" cx="208.8" cy="47.2" r="1.5"/>
<circle class="st0" cx="217.3" cy="47.2" r="1.5"/>
<circle class="st0" cx="225.8" cy="47.2" r="1.5"/>
<circle class="st0" cx="4.7" cy="55.7" r="1.5"/>
<circle class="st0" cx="13.2" cy="55.7" r="1.5"/>
<circle class="st0" cx="21.8" cy="55.7" r="1.5"/>
<circle class="st0" cx="30.3" cy="55.7" r="1.5"/>
<circle class="st0" cx="38.8" cy="55.7" r="1.5"/>
<circle class="st0" cx="47.3" cy="55.7" r="1.5"/>
<circle class="st0" cx="55.8" cy="55.7" r="1.5"/>
<circle class="st0" cx="64.3" cy="55.7" r="1.5"/>
<circle class="st0" cx="72.8" cy="55.7" r="1.5"/>
<circle class="st0" cx="81.3" cy="55.7" r="1.5"/>
<circle class="st0" cx="89.8" cy="55.7" r="1.5"/>
<circle class="st0" cx="98.3" cy="55.7" r="1.5"/>
<circle class="st0" cx="106.8" cy="55.7" r="1.5"/>
<circle class="st0" cx="115.3" cy="55.7" r="1.5"/>
<circle class="st0" cx="123.8" cy="55.7" r="1.5"/>
<circle class="st0" cx="132.3" cy="55.7" r="1.5"/>
<circle class="st0" cx="140.8" cy="55.7" r="1.5"/>
<circle class="st0" cx="149.3" cy="55.7" r="1.5"/>
<circle class="st0" cx="157.8" cy="55.7" r="1.5"/>
<circle class="st0" cx="166.3" cy="55.7" r="1.5"/>
<circle class="st0" cx="174.8" cy="55.7" r="1.5"/>
<circle class="st0" cx="183.3" cy="55.7" r="1.5"/>
<circle class="st0" cx="191.8" cy="55.7" r="1.5"/>
<circle class="st0" cx="200.3" cy="55.7" r="1.5"/>
<circle class="st0" cx="208.8" cy="55.7" r="1.5"/>
<circle class="st0" cx="217.3" cy="55.7" r="1.5"/>
<circle class="st0" cx="225.8" cy="55.7" r="1.5"/>
<circle class="st0" cx="4.7" cy="64.2" r="1.5"/>
<circle class="st0" cx="13.2" cy="64.2" r="1.5"/>
<circle class="st0" cx="21.8" cy="64.2" r="1.5"/>
<circle class="st0" cx="30.3" cy="64.2" r="1.5"/>
<circle class="st0" cx="38.8" cy="64.2" r="1.5"/>
<circle class="st0" cx="47.3" cy="64.2" r="1.5"/>
<circle class="st0" cx="55.8" cy="64.2" r="1.5"/>
<circle class="st0" cx="64.3" cy="64.2" r="1.5"/>
<circle class="st0" cx="72.8" cy="64.2" r="1.5"/>
<circle class="st0" cx="81.3" cy="64.2" r="1.5"/>
<circle class="st0" cx="89.8" cy="64.2" r="1.5"/>
<circle class="st0" cx="98.3" cy="64.2" r="1.5"/>
<circle class="st0" cx="106.8" cy="64.2" r="1.5"/>
<circle class="st0" cx="115.3" cy="64.2" r="1.5"/>
<circle class="st0" cx="123.8" cy="64.2" r="1.5"/>
<circle class="st0" cx="132.3" cy="64.2" r="1.5"/>
<circle class="st0" cx="140.8" cy="64.2" r="1.5"/>
<circle class="st0" cx="149.3" cy="64.2" r="1.5"/>
<circle class="st0" cx="157.8" cy="64.2" r="1.5"/>
<circle class="st0" cx="166.3" cy="64.2" r="1.5"/>
<circle class="st0" cx="174.8" cy="64.2" r="1.5"/>
<circle class="st0" cx="183.3" cy="64.2" r="1.5"/>
<circle class="st0" cx="191.8" cy="64.2" r="1.5"/>
<circle class="st0" cx="200.3" cy="64.2" r="1.5"/>
<circle class="st0" cx="208.8" cy="64.2" r="1.5"/>
<circle class="st0" cx="217.3" cy="64.2" r="1.5"/>
<circle class="st0" cx="225.8" cy="64.2" r="1.5"/>
<circle class="st0" cx="4.7" cy="72.7" r="1.5"/>
<circle class="st0" cx="13.2" cy="72.7" r="1.5"/>
<circle class="st0" cx="21.8" cy="72.7" r="1.5"/>
<circle class="st0" cx="30.3" cy="72.7" r="1.5"/>
<circle class="st0" cx="38.8" cy="72.7" r="1.5"/>
<circle class="st0" cx="47.3" cy="72.7" r="1.5"/>
<circle class="st0" cx="55.8" cy="72.7" r="1.5"/>
<circle class="st0" cx="64.3" cy="72.7" r="1.5"/>
<circle class="st0" cx="72.8" cy="72.7" r="1.5"/>
<circle class="st0" cx="81.3" cy="72.7" r="1.5"/>
<circle class="st0" cx="89.8" cy="72.7" r="1.5"/>
<circle class="st0" cx="98.3" cy="72.7" r="1.5"/>
<circle class="st0" cx="106.8" cy="72.7" r="1.5"/>
<circle class="st0" cx="115.3" cy="72.7" r="1.5"/>
<circle class="st0" cx="123.8" cy="72.7" r="1.5"/>
<circle class="st0" cx="132.3" cy="72.7" r="1.5"/>
<circle class="st0" cx="140.8" cy="72.7" r="1.5"/>
<circle class="st0" cx="149.3" cy="72.7" r="1.5"/>
<circle class="st0" cx="157.8" cy="72.7" r="1.5"/>
<circle class="st0" cx="166.3" cy="72.7" r="1.5"/>
<circle class="st0" cx="174.8" cy="72.7" r="1.5"/>
<circle class="st0" cx="183.3" cy="72.7" r="1.5"/>
<circle class="st0" cx="191.8" cy="72.7" r="1.5"/>
<circle class="st0" cx="200.3" cy="72.7" r="1.5"/>
<circle class="st0" cx="208.8" cy="72.7" r="1.5"/>
<circle class="st0" cx="217.3" cy="72.7" r="1.5"/>
<circle class="st0" cx="225.8" cy="72.7" r="1.5"/>
<circle class="st0" cx="4.7" cy="81.2" r="1.5"/>
<circle class="st0" cx="13.2" cy="81.2" r="1.5"/>
<circle class="st0" cx="21.8" cy="81.2" r="1.5"/>
<circle class="st0" cx="30.3" cy="81.2" r="1.5"/>
<circle class="st0" cx="38.8" cy="81.2" r="1.5"/>
<circle class="st0" cx="47.3" cy="81.2" r="1.5"/>
<circle class="st0" cx="55.8" cy="81.2" r="1.5"/>
<circle class="st0" cx="64.3" cy="81.2" r="1.5"/>
<circle class="st0" cx="72.8" cy="81.2" r="1.5"/>
<circle class="st0" cx="81.3" cy="81.2" r="1.5"/>
<circle class="st0" cx="89.8" cy="81.2" r="1.5"/>
<circle class="st0" cx="98.3" cy="81.2" r="1.5"/>
<circle class="st0" cx="106.8" cy="81.2" r="1.5"/>
<circle class="st0" cx="115.3" cy="81.2" r="1.5"/>
<circle class="st0" cx="123.8" cy="81.2" r="1.5"/>
<circle class="st0" cx="132.3" cy="81.2" r="1.5"/>
<circle class="st0" cx="140.8" cy="81.2" r="1.5"/>
<circle class="st0" cx="149.3" cy="81.2" r="1.5"/>
<circle class="st0" cx="157.8" cy="81.2" r="1.5"/>
<circle class="st0" cx="166.3" cy="81.2" r="1.5"/>
<circle class="st0" cx="174.8" cy="81.2" r="1.5"/>
<circle class="st0" cx="183.3" cy="81.2" r="1.5"/>
<circle class="st0" cx="191.8" cy="81.2" r="1.5"/>
<circle class="st0" cx="200.3" cy="81.2" r="1.5"/>
<circle class="st0" cx="208.8" cy="81.2" r="1.5"/>
<circle class="st0" cx="217.3" cy="81.2" r="1.5"/>
<circle class="st0" cx="225.8" cy="81.2" r="1.5"/>
<circle class="st0" cx="4.7" cy="89.7" r="1.5"/>
<circle class="st0" cx="13.2" cy="89.7" r="1.5"/>
<circle class="st0" cx="21.8" cy="89.7" r="1.5"/>
<circle class="st0" cx="30.3" cy="89.7" r="1.5"/>
<circle class="st0" cx="38.8" cy="89.7" r="1.5"/>
<circle class="st0" cx="47.3" cy="89.7" r="1.5"/>
<circle class="st0" cx="55.8" cy="89.7" r="1.5"/>
<circle class="st0" cx="64.3" cy="89.7" r="1.5"/>
<circle class="st0" cx="72.8" cy="89.7" r="1.5"/>
<circle class="st0" cx="81.3" cy="89.7" r="1.5"/>
<circle class="st0" cx="89.8" cy="89.7" r="1.5"/>
<circle class="st0" cx="98.3" cy="89.7" r="1.5"/>
<circle class="st0" cx="106.8" cy="89.7" r="1.5"/>
<circle class="st0" cx="115.3" cy="89.7" r="1.5"/>
<circle class="st0" cx="123.8" cy="89.7" r="1.5"/>
<circle class="st0" cx="132.3" cy="89.7" r="1.5"/>
<circle class="st0" cx="140.8" cy="89.7" r="1.5"/>
<circle class="st0" cx="149.3" cy="89.7" r="1.5"/>
<circle class="st0" cx="157.8" cy="89.7" r="1.5"/>
<circle class="st0" cx="166.3" cy="89.7" r="1.5"/>
<circle class="st0" cx="174.8" cy="89.7" r="1.5"/>
<circle class="st0" cx="183.3" cy="89.7" r="1.5"/>
<circle class="st0" cx="191.8" cy="89.7" r="1.5"/>
<circle class="st0" cx="200.3" cy="89.7" r="1.5"/>
<circle class="st0" cx="208.8" cy="89.7" r="1.5"/>
<circle class="st0" cx="217.3" cy="89.7" r="1.5"/>
<circle class="st0" cx="225.8" cy="89.7" r="1.5"/>
<circle class="st0" cx="4.7" cy="98.2" r="1.5"/>
<circle class="st0" cx="13.2" cy="98.2" r="1.5"/>
<circle class="st0" cx="21.8" cy="98.2" r="1.5"/>
<circle class="st0" cx="30.3" cy="98.2" r="1.5"/>
<circle class="st0" cx="38.8" cy="98.2" r="1.5"/>
<circle class="st0" cx="47.3" cy="98.2" r="1.5"/>
<circle class="st0" cx="55.8" cy="98.2" r="1.5"/>
<circle class="st0" cx="64.3" cy="98.2" r="1.5"/>
<circle class="st0" cx="72.8" cy="98.2" r="1.5"/>
<circle class="st0" cx="81.3" cy="98.2" r="1.5"/>
<circle class="st0" cx="89.8" cy="98.2" r="1.5"/>
<circle class="st0" cx="98.3" cy="98.2" r="1.5"/>
<circle class="st0" cx="106.8" cy="98.2" r="1.5"/>
<circle class="st0" cx="115.3" cy="98.2" r="1.5"/>
<circle class="st0" cx="123.8" cy="98.2" r="1.5"/>
<circle class="st0" cx="132.3" cy="98.2" r="1.5"/>
<circle class="st0" cx="140.8" cy="98.2" r="1.5"/>
<circle class="st0" cx="149.3" cy="98.2" r="1.5"/>
<circle class="st0" cx="157.8" cy="98.2" r="1.5"/>
<circle class="st0" cx="166.3" cy="98.2" r="1.5"/>
<circle class="st0" cx="174.8" cy="98.2" r="1.5"/>
<circle class="st0" cx="183.3" cy="98.2" r="1.5"/>
<circle class="st0" cx="191.8" cy="98.2" r="1.5"/>
<circle class="st0" cx="200.3" cy="98.2" r="1.5"/>
<circle class="st0" cx="208.8" cy="98.2" r="1.5"/>
<circle class="st0" cx="217.3" cy="98.2" r="1.5"/>
<circle class="st0" cx="225.8" cy="98.2" r="1.5"/>
<circle class="st0" cx="4.7" cy="106.7" r="1.5"/>
<circle class="st0" cx="13.2" cy="106.7" r="1.5"/>
<circle class="st0" cx="21.8" cy="106.7" r="1.5"/>
<circle class="st0" cx="30.3" cy="106.7" r="1.5"/>
<circle class="st0" cx="38.8" cy="106.7" r="1.5"/>
<circle class="st0" cx="47.3" cy="106.7" r="1.5"/>
<circle class="st0" cx="55.8" cy="106.7" r="1.5"/>
<circle class="st0" cx="64.3" cy="106.7" r="1.5"/>
<circle class="st0" cx="72.8" cy="106.7" r="1.5"/>
<circle class="st0" cx="81.3" cy="106.7" r="1.5"/>
<circle class="st0" cx="89.8" cy="106.7" r="1.5"/>
<circle class="st0" cx="98.3" cy="106.7" r="1.5"/>
<circle class="st0" cx="106.8" cy="106.7" r="1.5"/>
<circle class="st0" cx="115.3" cy="106.7" r="1.5"/>
<circle class="st0" cx="123.8" cy="106.7" r="1.5"/>
<circle class="st0" cx="132.3" cy="106.7" r="1.5"/>
<circle class="st0" cx="140.8" cy="106.7" r="1.5"/>
<circle class="st0" cx="149.3" cy="106.7" r="1.5"/>
<circle class="st0" cx="157.8" cy="106.7" r="1.5"/>
<circle class="st0" cx="166.3" cy="106.7" r="1.5"/>
<circle class="st0" cx="174.8" cy="106.7" r="1.5"/>
<circle class="st0" cx="183.3" cy="106.7" r="1.5"/>
<circle class="st0" cx="191.8" cy="106.7" r="1.5"/>
<circle class="st0" cx="200.3" cy="106.7" r="1.5"/>
<circle class="st0" cx="208.8" cy="106.7" r="1.5"/>
<circle class="st0" cx="217.3" cy="106.7" r="1.5"/>
<circle class="st0" cx="225.8" cy="106.7" r="1.5"/>
<circle class="st0" cx="4.7" cy="115.2" r="1.5"/>
<circle class="st0" cx="13.2" cy="115.2" r="1.5"/>
<circle class="st0" cx="21.8" cy="115.2" r="1.5"/>
<circle class="st0" cx="30.3" cy="115.2" r="1.5"/>
<circle class="st0" cx="38.8" cy="115.2" r="1.5"/>
<circle class="st0" cx="47.3" cy="115.2" r="1.5"/>
<circle class="st0" cx="55.8" cy="115.2" r="1.5"/>
<circle class="st0" cx="64.3" cy="115.2" r="1.5"/>
<circle class="st0" cx="72.8" cy="115.2" r="1.5"/>
<circle class="st0" cx="81.3" cy="115.2" r="1.5"/>
<circle class="st0" cx="89.8" cy="115.2" r="1.5"/>
<circle class="st0" cx="98.3" cy="115.2" r="1.5"/>
<circle class="st0" cx="106.8" cy="115.2" r="1.5"/>
<circle class="st0" cx="115.3" cy="115.2" r="1.5"/>
<circle class="st0" cx="123.8" cy="115.2" r="1.5"/>
<circle class="st0" cx="132.3" cy="115.2" r="1.5"/>
<circle class="st0" cx="140.8" cy="115.2" r="1.5"/>
<circle class="st0" cx="149.3" cy="115.2" r="1.5"/>
<circle class="st0" cx="157.8" cy="115.2" r="1.5"/>
<circle class="st0" cx="166.3" cy="115.2" r="1.5"/>
<circle class="st0" cx="174.8" cy="115.2" r="1.5"/>
<circle class="st0" cx="183.3" cy="115.2" r="1.5"/>
<circle class="st0" cx="191.8" cy="115.2" r="1.5"/>
<circle class="st0" cx="200.3" cy="115.2" r="1.5"/>
<circle class="st0" cx="208.8" cy="115.2" r="1.5"/>
<circle class="st0" cx="217.3" cy="115.2" r="1.5"/>
<circle class="st0" cx="225.8" cy="115.2" r="1.5"/>
<circle class="st0" cx="4.7" cy="123.7" r="1.5"/>
<circle class="st0" cx="13.2" cy="123.7" r="1.5"/>
<circle class="st0" cx="21.8" cy="123.7" r="1.5"/>
<circle class="st0" cx="30.3" cy="123.7" r="1.5"/>
<circle class="st0" cx="38.8" cy="123.7" r="1.5"/>
<circle class="st0" cx="47.3" cy="123.7" r="1.5"/>
<circle class="st0" cx="55.8" cy="123.7" r="1.5"/>
<circle class="st0" cx="64.3" cy="123.7" r="1.5"/>
<circle class="st0" cx="72.8" cy="123.7" r="1.5"/>
<circle class="st0" cx="81.3" cy="123.7" r="1.5"/>
<circle class="st0" cx="89.8" cy="123.7" r="1.5"/>
<circle class="st0" cx="98.3" cy="123.7" r="1.5"/>
<circle class="st0" cx="106.8" cy="123.7" r="1.5"/>
<circle class="st0" cx="115.3" cy="123.7" r="1.5"/>
<circle class="st0" cx="123.8" cy="123.7" r="1.5"/>
<circle class="st0" cx="132.3" cy="123.7" r="1.5"/>
<circle class="st0" cx="140.8" cy="123.7" r="1.5"/>
<circle class="st0" cx="149.3" cy="123.7" r="1.5"/>
<circle class="st0" cx="157.8" cy="123.7" r="1.5"/>
<circle class="st0" cx="166.3" cy="123.7" r="1.5"/>
<circle class="st0" cx="174.8" cy="123.7" r="1.5"/>
<circle class="st0" cx="183.3" cy="123.7" r="1.5"/>
<circle class="st0" cx="191.8" cy="123.7" r="1.5"/>
<circle class="st0" cx="200.3" cy="123.7" r="1.5"/>
<circle class="st0" cx="208.8" cy="123.7" r="1.5"/>
<circle class="st0" cx="217.3" cy="123.7" r="1.5"/>
<circle class="st0" cx="225.8" cy="123.7" r="1.5"/>
<circle class="st0" cx="4.7" cy="132.2" r="1.5"/>
<circle class="st0" cx="13.2" cy="132.2" r="1.5"/>
<circle class="st0" cx="21.8" cy="132.2" r="1.5"/>
<circle class="st0" cx="30.3" cy="132.2" r="1.5"/>
<circle class="st0" cx="38.8" cy="132.2" r="1.5"/>
<circle class="st0" cx="47.3" cy="132.2" r="1.5"/>
<circle class="st0" cx="55.8" cy="132.2" r="1.5"/>
<circle class="st0" cx="64.3" cy="132.2" r="1.5"/>
<circle class="st0" cx="72.8" cy="132.2" r="1.5"/>
<circle class="st0" cx="81.3" cy="132.2" r="1.5"/>
<circle class="st0" cx="89.8" cy="132.2" r="1.5"/>
<circle class="st0" cx="98.3" cy="132.2" r="1.5"/>
<circle class="st0" cx="106.8" cy="132.2" r="1.5"/>
<circle class="st0" cx="115.3" cy="132.2" r="1.5"/>
<circle class="st0" cx="123.8" cy="132.2" r="1.5"/>
<circle class="st0" cx="132.3" cy="132.2" r="1.5"/>
<circle class="st0" cx="140.8" cy="132.2" r="1.5"/>
<circle class="st0" cx="149.3" cy="132.2" r="1.5"/>
<circle class="st0" cx="157.8" cy="132.2" r="1.5"/>
<circle class="st0" cx="166.3" cy="132.2" r="1.5"/>
<circle class="st0" cx="174.8" cy="132.2" r="1.5"/>
<circle class="st0" cx="183.3" cy="132.2" r="1.5"/>
<circle class="st0" cx="191.8" cy="132.2" r="1.5"/>
<circle class="st0" cx="200.3" cy="132.2" r="1.5"/>
<circle class="st0" cx="208.8" cy="132.2" r="1.5"/>
<circle class="st0" cx="217.3" cy="132.2" r="1.5"/>
<circle class="st0" cx="225.8" cy="132.2" r="1.5"/>
<circle class="st0" cx="4.7" cy="140.7" r="1.5"/>
<circle class="st0" cx="13.2" cy="140.7" r="1.5"/>
<circle class="st0" cx="21.8" cy="140.7" r="1.5"/>
<circle class="st0" cx="30.3" cy="140.7" r="1.5"/>
<circle class="st0" cx="38.8" cy="140.7" r="1.5"/>
<circle class="st0" cx="47.3" cy="140.7" r="1.5"/>
<circle class="st0" cx="55.8" cy="140.7" r="1.5"/>
<circle class="st0" cx="64.3" cy="140.7" r="1.5"/>
<circle class="st0" cx="72.8" cy="140.7" r="1.5"/>
<circle class="st0" cx="81.3" cy="140.7" r="1.5"/>
<circle class="st0" cx="89.8" cy="140.7" r="1.5"/>
<circle class="st0" cx="98.3" cy="140.7" r="1.5"/>
<circle class="st0" cx="106.8" cy="140.7" r="1.5"/>
<circle class="st0" cx="115.3" cy="140.7" r="1.5"/>
<circle class="st0" cx="123.8" cy="140.7" r="1.5"/>
<circle class="st0" cx="132.3" cy="140.7" r="1.5"/>
<circle class="st0" cx="140.8" cy="140.7" r="1.5"/>
<circle class="st0" cx="149.3" cy="140.7" r="1.5"/>
<circle class="st0" cx="157.8" cy="140.7" r="1.5"/>
<circle class="st0" cx="166.3" cy="140.7" r="1.5"/>
<circle class="st0" cx="174.8" cy="140.7" r="1.5"/>
<circle class="st0" cx="183.3" cy="140.7" r="1.5"/>
<circle class="st0" cx="191.8" cy="140.7" r="1.5"/>
<circle class="st0" cx="200.3" cy="140.7" r="1.5"/>
<circle class="st0" cx="208.8" cy="140.7" r="1.5"/>
<circle class="st0" cx="217.3" cy="140.7" r="1.5"/>
<circle class="st0" cx="225.8" cy="140.7" r="1.5"/>
<circle class="st0" cx="4.7" cy="149.2" r="1.5"/>
<circle class="st0" cx="13.2" cy="149.2" r="1.5"/>
<circle class="st0" cx="21.8" cy="149.2" r="1.5"/>
<circle class="st0" cx="30.3" cy="149.2" r="1.5"/>
<circle class="st0" cx="38.8" cy="149.2" r="1.5"/>
<circle class="st0" cx="47.3" cy="149.2" r="1.5"/>
<circle class="st0" cx="55.8" cy="149.2" r="1.5"/>
<circle class="st0" cx="64.3" cy="149.2" r="1.5"/>
<circle class="st0" cx="72.8" cy="149.2" r="1.5"/>
<circle class="st0" cx="81.3" cy="149.2" r="1.5"/>
<circle class="st0" cx="89.8" cy="149.2" r="1.5"/>
<circle class="st0" cx="98.3" cy="149.2" r="1.5"/>
<circle class="st0" cx="106.8" cy="149.2" r="1.5"/>
<circle class="st0" cx="115.3" cy="149.2" r="1.5"/>
<circle class="st0" cx="123.8" cy="149.2" r="1.5"/>
<circle class="st0" cx="132.3" cy="149.2" r="1.5"/>
<circle class="st0" cx="140.8" cy="149.2" r="1.5"/>
<circle class="st0" cx="149.3" cy="149.2" r="1.5"/>
<circle class="st0" cx="157.8" cy="149.2" r="1.5"/>
<circle class="st0" cx="166.3" cy="149.2" r="1.5"/>
<circle class="st0" cx="174.8" cy="149.2" r="1.5"/>
<circle class="st0" cx="183.3" cy="149.2" r="1.5"/>
<circle class="st0" cx="191.8" cy="149.2" r="1.5"/>
<circle class="st0" cx="200.3" cy="149.2" r="1.5"/>
<circle class="st0" cx="208.8" cy="149.2" r="1.5"/>
<circle class="st0" cx="217.3" cy="149.2" r="1.5"/>
<circle class="st0" cx="225.8" cy="149.2" r="1.5"/>
<circle class="st0" cx="4.7" cy="157.7" r="1.5"/>
<circle class="st0" cx="13.2" cy="157.7" r="1.5"/>
<circle class="st0" cx="21.8" cy="157.7" r="1.5"/>
<circle class="st0" cx="30.3" cy="157.7" r="1.5"/>
<circle class="st0" cx="38.8" cy="157.7" r="1.5"/>
<circle class="st0" cx="47.3" cy="157.7" r="1.5"/>
<circle class="st0" cx="55.8" cy="157.7" r="1.5"/>
<circle class="st0" cx="64.3" cy="157.7" r="1.5"/>
<circle class="st0" cx="72.8" cy="157.7" r="1.5"/>
<circle class="st0" cx="81.3" cy="157.7" r="1.5"/>
<circle class="st0" cx="89.8" cy="157.7" r="1.5"/>
<circle class="st0" cx="98.3" cy="157.7" r="1.5"/>
<circle class="st0" cx="106.8" cy="157.7" r="1.5"/>
<circle class="st0" cx="115.3" cy="157.7" r="1.5"/>
<circle class="st0" cx="123.8" cy="157.7" r="1.5"/>
<circle class="st0" cx="132.3" cy="157.7" r="1.5"/>
<circle class="st0" cx="140.8" cy="157.7" r="1.5"/>
<circle class="st0" cx="149.3" cy="157.7" r="1.5"/>
<circle class="st0" cx="157.8" cy="157.7" r="1.5"/>
<circle class="st0" cx="166.3" cy="157.7" r="1.5"/>
<circle class="st0" cx="174.8" cy="157.7" r="1.5"/>
<circle class="st0" cx="183.3" cy="157.7" r="1.5"/>
<circle class="st0" cx="191.8" cy="157.7" r="1.5"/>
<circle class="st0" cx="200.3" cy="157.7" r="1.5"/>
<circle class="st0" cx="208.8" cy="157.7" r="1.5"/>
<circle class="st0" cx="217.3" cy="157.7" r="1.5"/>
<circle class="st0" cx="225.8" cy="157.7" r="1.5"/>
<circle class="st0" cx="4.7" cy="166.2" r="1.5"/>
<circle class="st0" cx="13.2" cy="166.2" r="1.5"/>
<circle class="st0" cx="21.8" cy="166.2" r="1.5"/>
<circle class="st0" cx="30.3" cy="166.2" r="1.5"/>
<circle class="st0" cx="38.8" cy="166.2" r="1.5"/>
<circle class="st0" cx="47.3" cy="166.2" r="1.5"/>
<circle class="st0" cx="55.8" cy="166.2" r="1.5"/>
<circle class="st0" cx="64.3" cy="166.2" r="1.5"/>
<circle class="st0" cx="72.8" cy="166.2" r="1.5"/>
<circle class="st0" cx="81.3" cy="166.2" r="1.5"/>
<circle class="st0" cx="89.8" cy="166.2" r="1.5"/>
<circle class="st0" cx="98.3" cy="166.2" r="1.5"/>
<circle class="st0" cx="106.8" cy="166.2" r="1.5"/>
<circle class="st0" cx="115.3" cy="166.2" r="1.5"/>
<circle class="st0" cx="123.8" cy="166.2" r="1.5"/>
<circle class="st0" cx="132.3" cy="166.2" r="1.5"/>
<circle class="st0" cx="140.8" cy="166.2" r="1.5"/>
<circle class="st0" cx="149.3" cy="166.2" r="1.5"/>
<circle class="st0" cx="157.8" cy="166.2" r="1.5"/>
<circle class="st0" cx="166.3" cy="166.2" r="1.5"/>
<circle class="st0" cx="174.8" cy="166.2" r="1.5"/>
<circle class="st0" cx="183.3" cy="166.2" r="1.5"/>
<circle class="st0" cx="191.8" cy="166.2" r="1.5"/>
<circle class="st0" cx="200.3" cy="166.2" r="1.5"/>
<circle class="st0" cx="208.8" cy="166.2" r="1.5"/>
<circle class="st0" cx="217.3" cy="166.2" r="1.5"/>
<circle class="st0" cx="225.8" cy="166.2" r="1.5"/>
<circle class="st0" cx="4.7" cy="174.7" r="1.5"/>
<circle class="st0" cx="13.2" cy="174.7" r="1.5"/>
<circle class="st0" cx="21.8" cy="174.7" r="1.5"/>
<circle class="st0" cx="30.3" cy="174.7" r="1.5"/>
<circle class="st0" cx="38.8" cy="174.7" r="1.5"/>
<circle class="st0" cx="47.3" cy="174.7" r="1.5"/>
<circle class="st0" cx="55.8" cy="174.7" r="1.5"/>
<circle class="st0" cx="64.3" cy="174.7" r="1.5"/>
<circle class="st0" cx="72.8" cy="174.7" r="1.5"/>
<circle class="st0" cx="81.3" cy="174.7" r="1.5"/>
<circle class="st0" cx="89.8" cy="174.7" r="1.5"/>
<circle class="st0" cx="98.3" cy="174.7" r="1.5"/>
<circle class="st0" cx="106.8" cy="174.7" r="1.5"/>
<circle class="st0" cx="115.3" cy="174.7" r="1.5"/>
<circle class="st0" cx="123.8" cy="174.7" r="1.5"/>
<circle class="st0" cx="132.3" cy="174.7" r="1.5"/>
<circle class="st0" cx="140.8" cy="174.7" r="1.5"/>
<circle class="st0" cx="149.3" cy="174.7" r="1.5"/>
<circle class="st0" cx="157.8" cy="174.7" r="1.5"/>
<circle class="st0" cx="166.3" cy="174.7" r="1.5"/>
<circle class="st0" cx="174.8" cy="174.7" r="1.5"/>
<circle class="st0" cx="183.3" cy="174.7" r="1.5"/>
<circle class="st0" cx="191.8" cy="174.7" r="1.5"/>
<circle class="st0" cx="200.3" cy="174.7" r="1.5"/>
<circle class="st0" cx="208.8" cy="174.7" r="1.5"/>
<circle class="st0" cx="217.3" cy="174.7" r="1.5"/>
<circle class="st0" cx="225.8" cy="174.7" r="1.5"/>
<circle class="st0" cx="4.7" cy="183.2" r="1.5"/>
<circle class="st0" cx="13.2" cy="183.2" r="1.5"/>
<circle class="st0" cx="21.8" cy="183.2" r="1.5"/>
<circle class="st0" cx="30.3" cy="183.2" r="1.5"/>
<circle class="st0" cx="38.8" cy="183.2" r="1.5"/>
<circle class="st0" cx="47.3" cy="183.2" r="1.5"/>
<circle class="st0" cx="55.8" cy="183.2" r="1.5"/>
<circle class="st0" cx="64.3" cy="183.2" r="1.5"/>
<circle class="st0" cx="72.8" cy="183.2" r="1.5"/>
<circle class="st0" cx="81.3" cy="183.2" r="1.5"/>
<circle class="st0" cx="89.8" cy="183.2" r="1.5"/>
<circle class="st0" cx="98.3" cy="183.2" r="1.5"/>
<circle class="st0" cx="106.8" cy="183.2" r="1.5"/>
<circle class="st0" cx="115.3" cy="183.2" r="1.5"/>
<circle class="st0" cx="123.8" cy="183.2" r="1.5"/>
<circle class="st0" cx="132.3" cy="183.2" r="1.5"/>
<circle class="st0" cx="140.8" cy="183.2" r="1.5"/>
<circle class="st0" cx="149.3" cy="183.2" r="1.5"/>
<circle class="st0" cx="157.8" cy="183.2" r="1.5"/>
<circle class="st0" cx="166.3" cy="183.2" r="1.5"/>
<circle class="st0" cx="174.8" cy="183.2" r="1.5"/>
<circle class="st0" cx="183.3" cy="183.2" r="1.5"/>
<circle class="st0" cx="191.8" cy="183.2" r="1.5"/>
<circle class="st0" cx="200.3" cy="183.2" r="1.5"/>
<circle class="st0" cx="208.8" cy="183.2" r="1.5"/>
<circle class="st0" cx="217.3" cy="183.2" r="1.5"/>
<circle class="st0" cx="225.8" cy="183.2" r="1.5"/>
<circle class="st0" cx="4.7" cy="191.7" r="1.5"/>
<circle class="st0" cx="13.2" cy="191.7" r="1.5"/>
<circle class="st0" cx="21.8" cy="191.7" r="1.5"/>
<circle class="st0" cx="30.3" cy="191.7" r="1.5"/>
<circle class="st0" cx="38.8" cy="191.7" r="1.5"/>
<circle class="st0" cx="47.3" cy="191.7" r="1.5"/>
<circle class="st0" cx="55.8" cy="191.7" r="1.5"/>
<circle class="st0" cx="64.3" cy="191.7" r="1.5"/>
<circle class="st0" cx="72.8" cy="191.7" r="1.5"/>
<circle class="st0" cx="81.3" cy="191.7" r="1.5"/>
<circle class="st0" cx="89.8" cy="191.7" r="1.5"/>
<circle class="st0" cx="98.3" cy="191.7" r="1.5"/>
<circle class="st0" cx="106.8" cy="191.7" r="1.5"/>
<circle class="st0" cx="115.3" cy="191.7" r="1.5"/>
<circle class="st0" cx="123.8" cy="191.7" r="1.5"/>
<circle class="st0" cx="132.3" cy="191.7" r="1.5"/>
<circle class="st0" cx="140.8" cy="191.7" r="1.5"/>
<circle class="st0" cx="149.3" cy="191.7" r="1.5"/>
<circle class="st0" cx="157.8" cy="191.7" r="1.5"/>
<circle class="st0" cx="166.3" cy="191.7" r="1.5"/>
<circle class="st0" cx="174.8" cy="191.7" r="1.5"/>
<circle class="st0" cx="183.3" cy="191.7" r="1.5"/>
<circle class="st0" cx="191.8" cy="191.7" r="1.5"/>
<circle class="st0" cx="200.3" cy="191.7" r="1.5"/>
<circle class="st0" cx="208.8" cy="191.7" r="1.5"/>
<circle class="st0" cx="217.3" cy="191.7" r="1.5"/>
<circle class="st0" cx="225.8" cy="191.7" r="1.5"/>
<circle class="st0" cx="4.7" cy="200.2" r="1.5"/>
<circle class="st0" cx="13.2" cy="200.2" r="1.5"/>
<circle class="st0" cx="21.8" cy="200.2" r="1.5"/>
<circle class="st0" cx="30.3" cy="200.2" r="1.5"/>
<circle class="st0" cx="38.8" cy="200.2" r="1.5"/>
<circle class="st0" cx="47.3" cy="200.2" r="1.5"/>
<circle class="st0" cx="55.8" cy="200.2" r="1.5"/>
<circle class="st0" cx="64.3" cy="200.2" r="1.5"/>
<circle class="st0" cx="72.8" cy="200.2" r="1.5"/>
<circle class="st0" cx="81.3" cy="200.2" r="1.5"/>
<circle class="st0" cx="89.8" cy="200.2" r="1.5"/>
<circle class="st0" cx="98.3" cy="200.2" r="1.5"/>
<circle class="st0" cx="106.8" cy="200.2" r="1.5"/>
<circle class="st0" cx="115.3" cy="200.2" r="1.5"/>
<circle class="st0" cx="123.8" cy="200.2" r="1.5"/>
<circle class="st0" cx="132.3" cy="200.2" r="1.5"/>
<circle class="st0" cx="140.8" cy="200.2" r="1.5"/>
<circle class="st0" cx="149.3" cy="200.2" r="1.5"/>
<circle class="st0" cx="157.8" cy="200.2" r="1.5"/>
<circle class="st0" cx="166.3" cy="200.2" r="1.5"/>
<circle class="st0" cx="174.8" cy="200.2" r="1.5"/>
<circle class="st0" cx="183.3" cy="200.2" r="1.5"/>
<circle class="st0" cx="191.8" cy="200.2" r="1.5"/>
<circle class="st0" cx="200.3" cy="200.2" r="1.5"/>
<circle class="st0" cx="208.8" cy="200.2" r="1.5"/>
<circle class="st0" cx="217.3" cy="200.2" r="1.5"/>
<circle class="st0" cx="225.8" cy="200.2" r="1.5"/>
<circle class="st0" cx="4.7" cy="208.7" r="1.5"/>
<circle class="st0" cx="13.2" cy="208.7" r="1.5"/>
<circle class="st0" cx="21.8" cy="208.7" r="1.5"/>
<circle class="st0" cx="30.3" cy="208.7" r="1.5"/>
<circle class="st0" cx="38.8" cy="208.7" r="1.5"/>
<circle class="st0" cx="47.3" cy="208.7" r="1.5"/>
<circle class="st0" cx="55.8" cy="208.7" r="1.5"/>
<circle class="st0" cx="64.3" cy="208.7" r="1.5"/>
<circle class="st0" cx="72.8" cy="208.7" r="1.5"/>
<circle class="st0" cx="81.3" cy="208.7" r="1.5"/>
<circle class="st0" cx="89.8" cy="208.7" r="1.5"/>
<circle class="st0" cx="98.3" cy="208.7" r="1.5"/>
<circle class="st0" cx="106.8" cy="208.7" r="1.5"/>
<circle class="st0" cx="115.3" cy="208.7" r="1.5"/>
<circle class="st0" cx="123.8" cy="208.7" r="1.5"/>
<circle class="st0" cx="132.3" cy="208.7" r="1.5"/>
<circle class="st0" cx="140.8" cy="208.7" r="1.5"/>
<circle class="st0" cx="149.3" cy="208.7" r="1.5"/>
<circle class="st0" cx="157.8" cy="208.7" r="1.5"/>
<circle class="st0" cx="166.3" cy="208.7" r="1.5"/>
<circle class="st0" cx="174.8" cy="208.7" r="1.5"/>
<circle class="st0" cx="183.3" cy="208.7" r="1.5"/>
<circle class="st0" cx="191.8" cy="208.7" r="1.5"/>
<circle class="st0" cx="200.3" cy="208.7" r="1.5"/>
<circle class="st0" cx="208.8" cy="208.7" r="1.5"/>
<circle class="st0" cx="217.3" cy="208.7" r="1.5"/>
<circle class="st0" cx="225.8" cy="208.7" r="1.5"/>
<circle class="st0" cx="4.7" cy="217.2" r="1.5"/>
<circle class="st0" cx="13.2" cy="217.2" r="1.5"/>
<circle class="st0" cx="21.8" cy="217.2" r="1.5"/>
<circle class="st0" cx="30.3" cy="217.2" r="1.5"/>
<circle class="st0" cx="38.8" cy="217.2" r="1.5"/>
<circle class="st0" cx="47.3" cy="217.2" r="1.5"/>
<circle class="st0" cx="55.8" cy="217.2" r="1.5"/>
<circle class="st0" cx="64.3" cy="217.2" r="1.5"/>
<circle class="st0" cx="72.8" cy="217.2" r="1.5"/>
<circle class="st0" cx="81.3" cy="217.2" r="1.5"/>
<circle class="st0" cx="89.8" cy="217.2" r="1.5"/>
<circle class="st0" cx="98.3" cy="217.2" r="1.5"/>
<circle class="st0" cx="106.8" cy="217.2" r="1.5"/>
<circle class="st0" cx="115.3" cy="217.2" r="1.5"/>
<circle class="st0" cx="123.8" cy="217.2" r="1.5"/>
<circle class="st0" cx="132.3" cy="217.2" r="1.5"/>
<circle class="st0" cx="140.8" cy="217.2" r="1.5"/>
<circle class="st0" cx="149.3" cy="217.2" r="1.5"/>
<circle class="st0" cx="157.8" cy="217.2" r="1.5"/>
<circle class="st0" cx="166.3" cy="217.2" r="1.5"/>
<circle class="st0" cx="174.8" cy="217.2" r="1.5"/>
<circle class="st0" cx="183.3" cy="217.2" r="1.5"/>
<circle class="st0" cx="191.8" cy="217.2" r="1.5"/>
<circle class="st0" cx="200.3" cy="217.2" r="1.5"/>
<circle class="st0" cx="208.8" cy="217.2" r="1.5"/>
<circle class="st0" cx="217.3" cy="217.2" r="1.5"/>
<circle class="st0" cx="225.8" cy="217.2" r="1.5"/>
<circle class="st0" cx="4.7" cy="225.7" r="1.5"/>
<circle class="st0" cx="13.2" cy="225.7" r="1.5"/>
<circle class="st0" cx="21.8" cy="225.7" r="1.5"/>
<circle class="st0" cx="30.3" cy="225.7" r="1.5"/>
<circle class="st0" cx="38.8" cy="225.7" r="1.5"/>
<circle class="st0" cx="47.3" cy="225.7" r="1.5"/>
<circle class="st0" cx="55.8" cy="225.7" r="1.5"/>
<circle class="st0" cx="64.3" cy="225.7" r="1.5"/>
<circle class="st0" cx="72.8" cy="225.7" r="1.5"/>
<circle class="st0" cx="81.3" cy="225.7" r="1.5"/>
<circle class="st0" cx="89.8" cy="225.7" r="1.5"/>
<circle class="st0" cx="98.3" cy="225.7" r="1.5"/>
<circle class="st0" cx="106.8" cy="225.7" r="1.5"/>
<circle class="st0" cx="115.3" cy="225.7" r="1.5"/>
<circle class="st0" cx="123.8" cy="225.7" r="1.5"/>
<circle class="st0" cx="132.3" cy="225.7" r="1.5"/>
<circle class="st0" cx="140.8" cy="225.7" r="1.5"/>
<circle class="st0" cx="149.3" cy="225.7" r="1.5"/>
<circle class="st0" cx="157.8" cy="225.7" r="1.5"/>
<circle class="st0" cx="166.3" cy="225.7" r="1.5"/>
<circle class="st0" cx="174.8" cy="225.7" r="1.5"/>
<circle class="st0" cx="183.3" cy="225.7" r="1.5"/>
<circle class="st0" cx="191.8" cy="225.7" r="1.5"/>
<circle class="st0" cx="200.3" cy="225.7" r="1.5"/>
<circle class="st0" cx="208.8" cy="225.7" r="1.5"/>
<circle class="st0" cx="217.3" cy="225.7" r="1.5"/>
<circle class="st0" cx="225.8" cy="225.7" r="1.5"/>
<circle class="st0" cx="4.7" cy="234.2" r="1.5"/>
<circle class="st0" cx="13.2" cy="234.2" r="1.5"/>
<circle class="st0" cx="21.8" cy="234.2" r="1.5"/>
<circle class="st0" cx="30.3" cy="234.2" r="1.5"/>
<circle class="st0" cx="38.8" cy="234.2" r="1.5"/>
<circle class="st0" cx="47.3" cy="234.2" r="1.5"/>
<circle class="st0" cx="55.8" cy="234.2" r="1.5"/>
<circle class="st0" cx="64.3" cy="234.2" r="1.5"/>
<circle class="st0" cx="72.8" cy="234.2" r="1.5"/>
<circle class="st0" cx="81.3" cy="234.2" r="1.5"/>
<circle class="st0" cx="89.8" cy="234.2" r="1.5"/>
<circle class="st0" cx="98.3" cy="234.2" r="1.5"/>
<circle class="st0" cx="106.8" cy="234.2" r="1.5"/>
<circle class="st0" cx="115.3" cy="234.2" r="1.5"/>
<circle class="st0" cx="123.8" cy="234.2" r="1.5"/>
<circle class="st0" cx="132.3" cy="234.2" r="1.5"/>
<circle class="st0" cx="140.8" cy="234.2" r="1.5"/>
<circle class="st0" cx="149.3" cy="234.2" r="1.5"/>
<circle class="st0" cx="157.8" cy="234.2" r="1.5"/>
<circle class="st0" cx="166.3" cy="234.2" r="1.5"/>
<circle class="st0" cx="174.8" cy="234.2" r="1.5"/>
<circle class="st0" cx="183.3" cy="234.2" r="1.5"/>
<circle class="st0" cx="191.8" cy="234.2" r="1.5"/>
<circle class="st0" cx="200.3" cy="234.2" r="1.5"/>
<circle class="st0" cx="208.8" cy="234.2" r="1.5"/>
<circle class="st0" cx="217.3" cy="234.2" r="1.5"/>
<circle class="st0" cx="225.8" cy="234.2" r="1.5"/>
<circle class="st0" cx="4.7" cy="242.8" r="1.5"/>
<circle class="st0" cx="13.2" cy="242.8" r="1.5"/>
<circle class="st0" cx="21.8" cy="242.8" r="1.5"/>
<circle class="st0" cx="30.3" cy="242.8" r="1.5"/>
<circle class="st0" cx="38.8" cy="242.8" r="1.5"/>
<circle class="st0" cx="47.3" cy="242.8" r="1.5"/>
<circle class="st0" cx="55.8" cy="242.8" r="1.5"/>
<circle class="st0" cx="64.3" cy="242.8" r="1.5"/>
<circle class="st0" cx="72.8" cy="242.8" r="1.5"/>
<circle class="st0" cx="81.3" cy="242.8" r="1.5"/>
<circle class="st0" cx="89.8" cy="242.8" r="1.5"/>
<circle class="st0" cx="98.3" cy="242.8" r="1.5"/>
<circle class="st0" cx="106.8" cy="242.8" r="1.5"/>
<circle class="st0" cx="115.3" cy="242.8" r="1.5"/>
<circle class="st0" cx="123.8" cy="242.8" r="1.5"/>
<circle class="st0" cx="132.3" cy="242.8" r="1.5"/>
<circle class="st0" cx="140.8" cy="242.8" r="1.5"/>
<circle class="st0" cx="149.3" cy="242.8" r="1.5"/>
<circle class="st0" cx="157.8" cy="242.8" r="1.5"/>
<circle class="st0" cx="166.3" cy="242.8" r="1.5"/>
<circle class="st0" cx="174.8" cy="242.8" r="1.5"/>
<circle class="st0" cx="183.3" cy="242.8" r="1.5"/>
<circle class="st0" cx="191.8" cy="242.8" r="1.5"/>
<circle class="st0" cx="200.3" cy="242.8" r="1.5"/>
<circle class="st0" cx="208.8" cy="242.8" r="1.5"/>
<circle class="st0" cx="217.3" cy="242.8" r="1.5"/>
<circle class="st0" cx="225.8" cy="242.8" r="1.5"/>
<circle class="st0" cx="4.7" cy="251.3" r="1.5"/>
<circle class="st0" cx="13.2" cy="251.3" r="1.5"/>
<circle class="st0" cx="21.8" cy="251.3" r="1.5"/>
<circle class="st0" cx="30.3" cy="251.3" r="1.5"/>
<circle class="st0" cx="38.8" cy="251.3" r="1.5"/>
<circle class="st0" cx="47.3" cy="251.3" r="1.5"/>
<circle class="st0" cx="55.8" cy="251.3" r="1.5"/>
<circle class="st0" cx="64.3" cy="251.3" r="1.5"/>
<circle class="st0" cx="72.8" cy="251.3" r="1.5"/>
<circle class="st0" cx="81.3" cy="251.3" r="1.5"/>
<circle class="st0" cx="89.8" cy="251.3" r="1.5"/>
<circle class="st0" cx="98.3" cy="251.3" r="1.5"/>
<circle class="st0" cx="106.8" cy="251.3" r="1.5"/>
<circle class="st0" cx="115.3" cy="251.3" r="1.5"/>
<circle class="st0" cx="123.8" cy="251.3" r="1.5"/>
<circle class="st0" cx="132.3" cy="251.3" r="1.5"/>
<circle class="st0" cx="140.8" cy="251.3" r="1.5"/>
<circle class="st0" cx="149.3" cy="251.3" r="1.5"/>
<circle class="st0" cx="157.8" cy="251.3" r="1.5"/>
<circle class="st0" cx="166.3" cy="251.3" r="1.5"/>
<circle class="st0" cx="174.8" cy="251.3" r="1.5"/>
<circle class="st0" cx="183.3" cy="251.3" r="1.5"/>
<circle class="st0" cx="191.8" cy="251.3" r="1.5"/>
<circle class="st0" cx="200.3" cy="251.3" r="1.5"/>
<circle class="st0" cx="208.8" cy="251.3" r="1.5"/>
<circle class="st0" cx="217.3" cy="251.3" r="1.5"/>
<circle class="st0" cx="225.8" cy="251.3" r="1.5"/>
<circle class="st0" cx="4.7" cy="259.8" r="1.5"/>
<circle class="st0" cx="13.2" cy="259.8" r="1.5"/>
<circle class="st0" cx="21.8" cy="259.8" r="1.5"/>
<circle class="st0" cx="30.3" cy="259.8" r="1.5"/>
<circle class="st0" cx="38.8" cy="259.8" r="1.5"/>
<circle class="st0" cx="47.3" cy="259.8" r="1.5"/>
<circle class="st0" cx="55.8" cy="259.8" r="1.5"/>
<circle class="st0" cx="64.3" cy="259.8" r="1.5"/>
<circle class="st0" cx="72.8" cy="259.8" r="1.5"/>
<circle class="st0" cx="81.3" cy="259.8" r="1.5"/>
<circle class="st0" cx="89.8" cy="259.8" r="1.5"/>
<circle class="st0" cx="98.3" cy="259.8" r="1.5"/>
<circle class="st0" cx="106.8" cy="259.8" r="1.5"/>
<circle class="st0" cx="115.3" cy="259.8" r="1.5"/>
<circle class="st0" cx="123.8" cy="259.8" r="1.5"/>
<circle class="st0" cx="132.3" cy="259.8" r="1.5"/>
<circle class="st0" cx="140.8" cy="259.8" r="1.5"/>
<circle class="st0" cx="149.3" cy="259.8" r="1.5"/>
<circle class="st0" cx="157.8" cy="259.8" r="1.5"/>
<circle class="st0" cx="166.3" cy="259.8" r="1.5"/>
<circle class="st0" cx="174.8" cy="259.8" r="1.5"/>
<circle class="st0" cx="183.3" cy="259.8" r="1.5"/>
<circle class="st0" cx="191.8" cy="259.8" r="1.5"/>
<circle class="st0" cx="200.3" cy="259.8" r="1.5"/>
<circle class="st0" cx="208.8" cy="259.8" r="1.5"/>
<circle class="st0" cx="217.3" cy="259.8" r="1.5"/>
<circle class="st0" cx="225.8" cy="259.8" r="1.5"/>
<path class="st0" d="M4.7,266.8"/>
<path class="st0" d="M13.2,266.8"/>
<path class="st0" d="M21.8,266.8"/>
<path class="st0" d="M30.3,266.8"/>
<path class="st0" d="M38.8,266.8"/>
<path class="st0" d="M47.3,266.8"/>
<path class="st0" d="M55.8,266.8"/>
<path class="st0" d="M64.3,266.8"/>
<path class="st0" d="M72.8,266.8"/>
<path class="st0" d="M81.3,266.8"/>
<path class="st0" d="M89.8,266.8"/>
<path class="st0" d="M98.3,266.8"/>
<path class="st0" d="M106.8,266.8"/>
<path class="st0" d="M115.3,266.8"/>
<path class="st0" d="M123.8,266.8"/>
<path class="st0" d="M132.3,266.8"/>
<path class="st0" d="M140.8,266.8"/>
<path class="st0" d="M149.3,266.8"/>
<path class="st0" d="M157.8,266.8"/>
<path class="st0" d="M166.3,266.8"/>
<path class="st0" d="M174.8,266.8"/>
<path class="st0" d="M183.3,266.8"/>
<path class="st0" d="M191.8,266.8"/>
<path class="st0" d="M200.3,266.8"/>
<path class="st0" d="M208.8,266.8"/>
<path class="st0" d="M217.3,266.8"/>
<path class="st0" d="M225.8,266.8"/>
</svg>
