<?xml version="1.0" encoding="utf-8"?>
<!-- Generator: Adobe Illustrator 22.1.0, SVG Export Plug-In . SVG Version: 6.00 Build 0)  -->
<svg version="1.1" id="Laag_1" xmlns="http://www.w3.org/2000/svg" xmlns:xlink="http://www.w3.org/1999/xlink" x="0px" y="0px"
	 viewBox="0 0 595.3 841.9" style="enable-background:new 0 0 595.3 841.9;" xml:space="preserve">
<style type="text/css">
	.st0{fill:#FFFFFF;stroke:#FBFDFD;stroke-width:2;stroke-miterlimit:10;}
	.st1{fill:#E83C69;}
	.st2{fill:#FFFFFF;}
	.st3{fill:#54B6E8;}
</style>
<image style="overflow:visible;" width="1183" height="1395" xlink:href="../Artwork grafische elementen/rechthoek puntjes blauw.png"  transform="matrix(0.24 0 0 0.24 219.6003 258.0651)">
</image>
<line class="st0" x1="387.2" y1="390.6" x2="241.9" y2="444.5"/>
<line class="st0" x1="244.2" y1="443.7" x2="120.2" y2="537.6"/>
<line class="st0" x1="108.6" y1="316.5" x2="82.5" y2="421"/>
<line class="st0" x1="250.7" y1="307.6" x2="120.2" y2="317.2"/>
<line class="st0" x1="378.1" y1="392.8" x2="115.9" y2="324.8"/>
<line class="st0" x1="323.6" y1="538.2" x2="127.7" y2="537.6"/>
<line class="st0" x1="418.6" y1="441.7" x2="376.6" y2="388.1"/>
<line class="st0" x1="115.9" y1="324.8" x2="247.2" y2="451.4"/>
<line class="st0" x1="247.2" y1="451.4" x2="340.2" y2="540.8"/>
<line class="st0" x1="318.4" y1="331.1" x2="384.5" y2="391.5"/>
<circle class="st1" cx="348" cy="536.5" r="28.6"/>
<circle class="st2" cx="378.1" cy="392.8" r="29.9"/>
<path class="st1" d="M250.7,307.6c0,20.9,17,37.9,37.9,37.9s37.9-17,37.9-37.9c0-20.9-17-37.9-37.9-37.9S250.7,286.7,250.7,307.6z
	 M258.5,307.6c0-16.5,13.4-29.9,29.9-29.9c16.5,0,29.9,13.4,29.9,29.9c0,16.5-13.4,29.9-29.9,29.9
	C271.9,337.5,258.5,324.1,258.5,307.6z"/>
<circle class="st1" cx="141.7" cy="536.5" r="35"/>
<circle class="st1" cx="115.9" cy="324.8" r="37.9"/>
<circle class="st3" cx="241.9" cy="444.5" r="51.7"/>
<circle class="st1" cx="241.9" cy="444.5" r="36.8"/>
<circle class="st2" cx="89.8" cy="421" r="37.9"/>
<circle class="st3" cx="89.8" cy="421" r="30.4"/>
<path class="st2" d="M397.6,469.6c0,20.9,17,37.9,37.9,37.9s37.9-17,37.9-37.9c0-20.9-17-37.9-37.9-37.9S397.6,448.7,397.6,469.6z
	 M405.4,469.6c0-16.5,13.4-29.9,29.9-29.9c16.5,0,29.9,13.4,29.9,29.9c0,16.5-13.4,29.9-29.9,29.9
	C418.8,499.5,405.4,486.2,405.4,469.6z"/>
</svg>
