<?xml version="1.0" encoding="utf-8"?>
<!-- Generator: Adobe Illustrator 22.1.0, SVG Export Plug-In . SVG Version: 6.00 Build 0)  -->
<svg version="1.1" id="Laag_1" xmlns="http://www.w3.org/2000/svg" xmlns:xlink="http://www.w3.org/1999/xlink" x="0px" y="0px"
	 viewBox="0 0 538.3 229" style="enable-background:new 0 0 538.3 229;" xml:space="preserve">
<style type="text/css">
	.st0{fill:#52B7E9;}
	.st1{fill:#FF3366;}
	.st2{fill:#321E41;}
</style>
<path class="st0" d="M90.9,229h437.9c-15.6-43-63.2-84.3-126.9-104.7c-37.3-12-74.3-14.9-106.1-10.1c-22.1-15.1-50-24.1-80.5-24.1
	c-24.7,0-47.8,5.9-67.5,16.3c-9.5-23.5-26.5-46.2-50-64C67.1,19,31.5,8.6,0,11v200h87.1C87.8,217.2,89.1,223.2,90.9,229z"/>
<path class="st1" d="M533.5,229c-19.3-38.7-63.9-74.7-122-93.3c-45.1-14.5-89.7-15.7-125.3-6c-21.7-14.1-48.8-22.5-78.2-22.5
	c-19.9,0-38.7,3.8-55.5,10.7c-10.8-18.2-25.8-35.2-44.7-49.5C74.1,42.7,35,31.1,0.3,33.6L0.2,229H533.5z"/>
<title>left-hill</title>
<g id="Layer_1-2">
	<g>
		<path class="st2" d="M-0.9,230h534.5c-6.6-10.3-14.1-20-22.4-28.9c-0.7-0.1-1.2-0.6-1.2-1.3c-2.3-2.4-4.7-4.8-7.1-7.2
			c-0.8,0-1.4-0.6-1.4-1.4c-9.7-9.2-20.2-17.4-31.5-24.6c-0.3,0.3-0.6,0.4-1,0.4c-0.8,0-1.5-0.7-1.5-1.5c0-0.2,0-0.3,0.1-0.5
			c-4.6-2.8-9.3-5.5-14.1-8c0,0.8-0.7,1.4-1.5,1.4s-1.5-0.7-1.5-1.5c0-0.5,0.2-0.9,0.6-1.1c-4.8-2.4-9.8-4.6-14.8-6.7
			c-0.3,0.5-0.7,0.8-1.3,0.8c-0.8,0-1.5-0.7-1.5-1.5c0-0.1,0-0.2,0.1-0.4c-7.4-2.9-15-5.3-22.8-7.4c-0.3,0.4-0.7,0.7-1.2,0.7
			c-0.8,0-1.4-0.6-1.5-1.4c-2.1-0.5-4.3-1-6.5-1.5c0.5,0.2,0.9,0.7,0.9,1.3c0,0.8-0.7,1.5-1.5,1.5s-1.5-0.7-1.5-1.5s0.7-1.5,1.5-1.5
			l0,0c-13.7-2.9-28-4.4-42.6-4.4s-28.8,1.5-42.5,4.4c0.8,0,1.5,0.7,1.5,1.5s-0.7,1.5-1.5,1.5s-1.5-0.7-1.5-1.5
			c0-0.6,0.4-1.1,0.9-1.3c-2.2,0.5-4.3,0.9-6.4,1.5c-0.1,0.8-0.7,1.4-1.5,1.4c-0.5,0-1-0.3-1.2-0.7c-6.7,1.7-13.3,3.8-19.8,6.2
			c-4.2-2.1-8.6-4-13-5.7c-0.2,0-0.5-0.1-0.6-0.2c-2.3-0.9-4.6-1.7-6.9-2.5c0.4,0.3,0.7,0.7,0.7,1.2c0,0.8-0.7,1.5-1.5,1.5
			s-1.5-0.7-1.5-1.5s0.7-1.5,1.5-1.5h0.1c-8-2.6-16.2-4.6-24.7-5.9c-0.2,0.2-0.6,0.3-0.9,0.3c-0.5,0-0.9-0.3-1.2-0.6
			c-1.9-0.3-3.9-0.5-5.8-0.7c-0.1,0.8-0.7,1.3-1.5,1.3s-1.5-0.7-1.5-1.5c0-0.1,0-0.1,0-0.2c-1.9-0.2-3.8-0.3-5.7-0.4
			c0.1,0.2,0.1,0.4,0.1,0.6c0,0.8-0.7,1.5-1.5,1.5s-1.5-0.7-1.5-1.5c0-0.2,0.1-0.5,0.2-0.7c-1.9-0.1-3.8-0.1-5.7-0.1
			c-0.1,0-0.2,0-0.2,0c0.1,0.2,0.2,0.5,0.2,0.8c0,0.8-0.7,1.5-1.5,1.5s-1.5-0.7-1.5-1.5c0-0.3,0.1-0.5,0.2-0.7c-2,0-3.9,0.1-5.9,0.2
			c0.1,0.2,0.1,0.4,0.1,0.5c0,0.8-0.7,1.5-1.5,1.5s-1.5-0.7-1.5-1.5c0-0.1,0-0.3,0.1-0.4c-1.9,0.1-3.8,0.3-5.6,0.5
			c-0.1,0.8-0.7,1.4-1.5,1.4c-0.7,0-1.2-0.4-1.4-1c-2.3,0.3-4.5,0.6-6.8,1c-0.1,0-0.1,0-0.2,0c-8.4,1.4-16.6,3.5-24.5,6.1
			c0.2,0.2,0.3,0.6,0.3,0.9c0,0.8-0.7,1.5-1.5,1.5s-1.5-0.7-1.5-1.5c-0.7,0.3-1.4,0.5-2.2,0.8c-11-13.1-23.6-24.8-37.4-34.8
			c0,0.8-0.7,1.5-1.5,1.5s-1.5-0.7-1.5-1.5c0-0.6,0.4-1.2,1-1.4c-2.8-2-5.7-3.9-8.7-5.8c-0.1,0-0.2-0.1-0.3-0.2
			c-4.9-3.1-9.9-6-15-8.7c-0.3,0.3-0.6,0.5-1.1,0.5c-0.8,0-1.5-0.7-1.5-1.5c0-0.1,0-0.2,0-0.3c-4.9-2.5-9.9-4.8-15-6.8
			c-0.2,0.1-0.3,0.1-0.5,0.1c-0.6,0-1.1-0.3-1.3-0.8c-7.7-3-15.6-5.6-23.7-7.8c-0.2,0.1-0.3,0.1-0.5,0.1c-0.5,0-0.9-0.2-1.1-0.5
			c-2-0.5-4-1-6-1.4c0.1,0.2,0.1,0.3,0.1,0.5c0,0.8-0.7,1.5-1.5,1.5s-1.5-0.7-1.5-1.5c0-0.4,0.2-0.7,0.4-1C29,68,14.6,66.4-0.1,66.4
			c-0.3,0-0.5,0-0.8,0C-0.9,66.4-0.9,230-0.9,230z M528.4,223.7c0.8,0,1.5,0.7,1.5,1.5s-0.7,1.5-1.5,1.5s-1.5-0.7-1.5-1.5
			C527,224.3,527.6,223.7,528.4,223.7z M519.9,215.2c0.8,0,1.5,0.7,1.5,1.5s-0.7,1.5-1.5,1.5s-1.5-0.7-1.5-1.5
			S519.1,215.2,519.9,215.2z M519.9,223.7c0.8,0,1.5,0.7,1.5,1.5s-0.7,1.5-1.5,1.5s-1.5-0.7-1.5-1.5
			C518.5,224.3,519.1,223.7,519.9,223.7z M511.4,206.7c0.8,0,1.5,0.7,1.5,1.5s-0.7,1.5-1.5,1.5s-1.5-0.7-1.5-1.5
			C510,207.3,510.6,206.7,511.4,206.7z M511.4,215.2c0.8,0,1.5,0.7,1.5,1.5s-0.7,1.5-1.5,1.5s-1.5-0.7-1.5-1.5
			S510.6,215.2,511.4,215.2z M511.4,223.7c0.8,0,1.5,0.7,1.5,1.5s-0.7,1.5-1.5,1.5s-1.5-0.7-1.5-1.5
			C510,224.3,510.6,223.7,511.4,223.7z M502.9,198.2c0.8,0,1.5,0.7,1.5,1.5s-0.7,1.5-1.5,1.5s-1.5-0.7-1.5-1.5
			S502.1,198.2,502.9,198.2z M502.9,206.7c0.8,0,1.5,0.7,1.5,1.5s-0.7,1.5-1.5,1.5s-1.5-0.7-1.5-1.5
			C501.5,207.3,502.1,206.7,502.9,206.7z M502.9,215.2c0.8,0,1.5,0.7,1.5,1.5s-0.7,1.5-1.5,1.5s-1.5-0.7-1.5-1.5
			S502.1,215.2,502.9,215.2z M502.9,223.7c0.8,0,1.5,0.7,1.5,1.5s-0.7,1.5-1.5,1.5s-1.5-0.7-1.5-1.5
			C501.5,224.3,502.1,223.7,502.9,223.7z M494.4,189.6c0.8,0,1.5,0.7,1.5,1.5s-0.7,1.5-1.5,1.5s-1.5-0.7-1.5-1.5
			S493.6,189.6,494.4,189.6z M494.4,198.2c0.8,0,1.5,0.7,1.5,1.5s-0.7,1.5-1.5,1.5s-1.5-0.7-1.5-1.5S493.6,198.2,494.4,198.2z
			 M494.4,206.7c0.8,0,1.5,0.7,1.5,1.5s-0.7,1.5-1.5,1.5s-1.5-0.7-1.5-1.5C492.9,207.3,493.6,206.7,494.4,206.7z M494.4,215.2
			c0.8,0,1.5,0.7,1.5,1.5s-0.7,1.5-1.5,1.5s-1.5-0.7-1.5-1.5S493.6,215.2,494.4,215.2z M494.4,223.7c0.8,0,1.5,0.7,1.5,1.5
			s-0.7,1.5-1.5,1.5s-1.5-0.7-1.5-1.5C492.9,224.3,493.6,223.7,494.4,223.7z M485.9,181.1c0.8,0,1.5,0.7,1.5,1.5s-0.7,1.5-1.5,1.5
			s-1.5-0.7-1.5-1.5S485.1,181.1,485.9,181.1z M485.9,189.6c0.8,0,1.5,0.7,1.5,1.5s-0.7,1.5-1.5,1.5s-1.5-0.7-1.5-1.5
			S485.1,189.6,485.9,189.6z M485.9,198.2c0.8,0,1.5,0.7,1.5,1.5s-0.7,1.5-1.5,1.5s-1.5-0.7-1.5-1.5S485.1,198.2,485.9,198.2z
			 M485.9,206.7c0.8,0,1.5,0.7,1.5,1.5s-0.7,1.5-1.5,1.5s-1.5-0.7-1.5-1.5C484.4,207.3,485.1,206.7,485.9,206.7z M485.9,215.2
			c0.8,0,1.5,0.7,1.5,1.5s-0.7,1.5-1.5,1.5s-1.5-0.7-1.5-1.5S485.1,215.2,485.9,215.2z M485.9,223.7c0.8,0,1.5,0.7,1.5,1.5
			s-0.7,1.5-1.5,1.5s-1.5-0.7-1.5-1.5C484.4,224.3,485.1,223.7,485.9,223.7z M477.4,172.6c0.8,0,1.5,0.7,1.5,1.5s-0.7,1.5-1.5,1.5
			s-1.5-0.7-1.5-1.5S476.6,172.6,477.4,172.6z M477.4,181.1c0.8,0,1.5,0.7,1.5,1.5s-0.7,1.5-1.5,1.5s-1.5-0.7-1.5-1.5
			S476.6,181.1,477.4,181.1z M477.4,189.6c0.8,0,1.5,0.7,1.5,1.5s-0.7,1.5-1.5,1.5s-1.5-0.7-1.5-1.5S476.6,189.6,477.4,189.6z
			 M477.4,198.2c0.8,0,1.5,0.7,1.5,1.5s-0.7,1.5-1.5,1.5s-1.5-0.7-1.5-1.5S476.6,198.2,477.4,198.2z M477.4,206.7
			c0.8,0,1.5,0.7,1.5,1.5s-0.7,1.5-1.5,1.5s-1.5-0.7-1.5-1.5C475.9,207.3,476.6,206.7,477.4,206.7z M477.4,215.2
			c0.8,0,1.5,0.7,1.5,1.5s-0.7,1.5-1.5,1.5s-1.5-0.7-1.5-1.5S476.6,215.2,477.4,215.2z M477.4,223.7c0.8,0,1.5,0.7,1.5,1.5
			s-0.7,1.5-1.5,1.5s-1.5-0.7-1.5-1.5C475.9,224.3,476.6,223.7,477.4,223.7z M468.9,172.6c0.8,0,1.5,0.7,1.5,1.5s-0.7,1.5-1.5,1.5
			s-1.5-0.7-1.5-1.5S468.1,172.6,468.9,172.6z M468.9,181.1c0.8,0,1.5,0.7,1.5,1.5s-0.7,1.5-1.5,1.5s-1.5-0.7-1.5-1.5
			S468.1,181.1,468.9,181.1z M468.9,189.6c0.8,0,1.5,0.7,1.5,1.5s-0.7,1.5-1.5,1.5s-1.5-0.7-1.5-1.5S468.1,189.6,468.9,189.6z
			 M468.9,198.2c0.8,0,1.5,0.7,1.5,1.5s-0.7,1.5-1.5,1.5s-1.5-0.7-1.5-1.5S468.1,198.2,468.9,198.2z M468.9,206.7
			c0.8,0,1.5,0.7,1.5,1.5s-0.7,1.5-1.5,1.5s-1.5-0.7-1.5-1.5C467.4,207.3,468.1,206.7,468.9,206.7z M468.9,215.2
			c0.8,0,1.5,0.7,1.5,1.5s-0.7,1.5-1.5,1.5s-1.5-0.7-1.5-1.5S468.1,215.2,468.9,215.2z M468.9,223.7c0.8,0,1.5,0.7,1.5,1.5
			s-0.7,1.5-1.5,1.5s-1.5-0.7-1.5-1.5C467.4,224.3,468.1,223.7,468.9,223.7z M460.4,164.1c0.8,0,1.5,0.7,1.5,1.5s-0.7,1.5-1.5,1.5
			s-1.5-0.7-1.5-1.5S459.6,164.1,460.4,164.1z M460.4,172.6c0.8,0,1.5,0.7,1.5,1.5s-0.7,1.5-1.5,1.5s-1.5-0.7-1.5-1.5
			S459.6,172.6,460.4,172.6z M460.4,181.1c0.8,0,1.5,0.7,1.5,1.5s-0.7,1.5-1.5,1.5s-1.5-0.7-1.5-1.5S459.6,181.1,460.4,181.1z
			 M460.4,189.6c0.8,0,1.5,0.7,1.5,1.5s-0.7,1.5-1.5,1.5s-1.5-0.7-1.5-1.5S459.6,189.6,460.4,189.6z M460.4,198.2
			c0.8,0,1.5,0.7,1.5,1.5s-0.7,1.5-1.5,1.5s-1.5-0.7-1.5-1.5S459.6,198.2,460.4,198.2z M460.4,206.7c0.8,0,1.5,0.7,1.5,1.5
			s-0.7,1.5-1.5,1.5s-1.5-0.7-1.5-1.5C458.9,207.3,459.6,206.7,460.4,206.7z M460.4,215.2c0.8,0,1.5,0.7,1.5,1.5s-0.7,1.5-1.5,1.5
			s-1.5-0.7-1.5-1.5S459.6,215.2,460.4,215.2z M460.4,223.7c0.8,0,1.5,0.7,1.5,1.5s-0.7,1.5-1.5,1.5s-1.5-0.7-1.5-1.5
			C458.9,224.3,459.6,223.7,460.4,223.7z M451.9,164.1c0.8,0,1.5,0.7,1.5,1.5s-0.7,1.5-1.5,1.5s-1.5-0.7-1.5-1.5
			S451.1,164.1,451.9,164.1z M451.9,172.6c0.8,0,1.5,0.7,1.5,1.5s-0.7,1.5-1.5,1.5s-1.5-0.7-1.5-1.5S451.1,172.6,451.9,172.6z
			 M451.9,181.1c0.8,0,1.5,0.7,1.5,1.5s-0.7,1.5-1.5,1.5s-1.5-0.7-1.5-1.5S451.1,181.1,451.9,181.1z M451.9,189.6
			c0.8,0,1.5,0.7,1.5,1.5s-0.7,1.5-1.5,1.5s-1.5-0.7-1.5-1.5S451.1,189.6,451.9,189.6z M451.9,198.2c0.8,0,1.5,0.7,1.5,1.5
			s-0.7,1.5-1.5,1.5s-1.5-0.7-1.5-1.5S451.1,198.2,451.9,198.2z M451.9,206.7c0.8,0,1.5,0.7,1.5,1.5s-0.7,1.5-1.5,1.5
			s-1.5-0.7-1.5-1.5C450.4,207.3,451.1,206.7,451.9,206.7z M451.9,215.2c0.8,0,1.5,0.7,1.5,1.5s-0.7,1.5-1.5,1.5s-1.5-0.7-1.5-1.5
			S451.1,215.2,451.9,215.2z M451.9,223.7c0.8,0,1.5,0.7,1.5,1.5s-0.7,1.5-1.5,1.5s-1.5-0.7-1.5-1.5
			C450.4,224.3,451.1,223.7,451.9,223.7z M443.4,155.6c0.8,0,1.5,0.7,1.5,1.5s-0.7,1.5-1.5,1.5s-1.5-0.7-1.5-1.5
			S442.6,155.6,443.4,155.6z M443.4,164.1c0.8,0,1.5,0.7,1.5,1.5s-0.7,1.5-1.5,1.5s-1.5-0.7-1.5-1.5S442.6,164.1,443.4,164.1z
			 M443.4,172.6c0.8,0,1.5,0.7,1.5,1.5s-0.7,1.5-1.5,1.5s-1.5-0.7-1.5-1.5S442.6,172.6,443.4,172.6z M443.4,181.1
			c0.8,0,1.5,0.7,1.5,1.5s-0.7,1.5-1.5,1.5s-1.5-0.7-1.5-1.5S442.6,181.1,443.4,181.1z M443.4,189.6c0.8,0,1.5,0.7,1.5,1.5
			s-0.7,1.5-1.5,1.5s-1.5-0.7-1.5-1.5S442.6,189.6,443.4,189.6z M443.4,198.2c0.8,0,1.5,0.7,1.5,1.5s-0.7,1.5-1.5,1.5
			s-1.5-0.7-1.5-1.5S442.6,198.2,443.4,198.2z M443.4,206.7c0.8,0,1.5,0.7,1.5,1.5s-0.7,1.5-1.5,1.5s-1.5-0.7-1.5-1.5
			C441.9,207.3,442.6,206.7,443.4,206.7z M443.4,215.2c0.8,0,1.5,0.7,1.5,1.5s-0.7,1.5-1.5,1.5s-1.5-0.7-1.5-1.5
			S442.6,215.2,443.4,215.2z M443.4,223.7c0.8,0,1.5,0.7,1.5,1.5s-0.7,1.5-1.5,1.5s-1.5-0.7-1.5-1.5
			C441.9,224.3,442.6,223.7,443.4,223.7z M434.9,155.6c0.8,0,1.5,0.7,1.5,1.5s-0.7,1.5-1.5,1.5s-1.5-0.7-1.5-1.5
			S434.1,155.6,434.9,155.6z M434.9,164.1c0.8,0,1.5,0.7,1.5,1.5s-0.7,1.5-1.5,1.5s-1.5-0.7-1.5-1.5S434.1,164.1,434.9,164.1z
			 M434.9,172.6c0.8,0,1.5,0.7,1.5,1.5s-0.7,1.5-1.5,1.5s-1.5-0.7-1.5-1.5S434.1,172.6,434.9,172.6z M434.9,181.1
			c0.8,0,1.5,0.7,1.5,1.5s-0.7,1.5-1.5,1.5s-1.5-0.7-1.5-1.5S434.1,181.1,434.9,181.1z M434.9,189.6c0.8,0,1.5,0.7,1.5,1.5
			s-0.7,1.5-1.5,1.5s-1.5-0.7-1.5-1.5S434.1,189.6,434.9,189.6z M434.9,198.2c0.8,0,1.5,0.7,1.5,1.5s-0.7,1.5-1.5,1.5
			s-1.5-0.7-1.5-1.5S434.1,198.2,434.9,198.2z M434.9,206.7c0.8,0,1.5,0.7,1.5,1.5s-0.7,1.5-1.5,1.5s-1.5-0.7-1.5-1.5
			C433.4,207.3,434.1,206.7,434.9,206.7z M434.9,215.2c0.8,0,1.5,0.7,1.5,1.5s-0.7,1.5-1.5,1.5s-1.5-0.7-1.5-1.5
			S434.1,215.2,434.9,215.2z M434.9,223.7c0.8,0,1.5,0.7,1.5,1.5s-0.7,1.5-1.5,1.5s-1.5-0.7-1.5-1.5
			C433.4,224.3,434.1,223.7,434.9,223.7z M426.4,147.1c0.8,0,1.5,0.7,1.5,1.5s-0.7,1.5-1.5,1.5s-1.5-0.7-1.5-1.5
			S425.6,147.1,426.4,147.1z M426.4,155.6c0.8,0,1.5,0.7,1.5,1.5s-0.7,1.5-1.5,1.5s-1.5-0.7-1.5-1.5S425.6,155.6,426.4,155.6z
			 M426.4,164.1c0.8,0,1.5,0.7,1.5,1.5s-0.7,1.5-1.5,1.5s-1.5-0.7-1.5-1.5S425.6,164.1,426.4,164.1z M426.4,172.6
			c0.8,0,1.5,0.7,1.5,1.5s-0.7,1.5-1.5,1.5s-1.5-0.7-1.5-1.5S425.6,172.6,426.4,172.6z M426.4,181.1c0.8,0,1.5,0.7,1.5,1.5
			s-0.7,1.5-1.5,1.5s-1.5-0.7-1.5-1.5S425.6,181.1,426.4,181.1z M426.4,189.6c0.8,0,1.5,0.7,1.5,1.5s-0.7,1.5-1.5,1.5
			s-1.5-0.7-1.5-1.5S425.6,189.6,426.4,189.6z M426.4,198.2c0.8,0,1.5,0.7,1.5,1.5s-0.7,1.5-1.5,1.5s-1.5-0.7-1.5-1.5
			S425.6,198.2,426.4,198.2z M426.4,206.7c0.8,0,1.5,0.7,1.5,1.5s-0.7,1.5-1.5,1.5s-1.5-0.7-1.5-1.5
			C424.9,207.3,425.6,206.7,426.4,206.7z M426.4,215.2c0.8,0,1.5,0.7,1.5,1.5s-0.7,1.5-1.5,1.5s-1.5-0.7-1.5-1.5
			S425.6,215.2,426.4,215.2z M426.4,223.7c0.8,0,1.5,0.7,1.5,1.5s-0.7,1.5-1.5,1.5s-1.5-0.7-1.5-1.5
			C424.9,224.3,425.6,223.7,426.4,223.7z M417.9,147.1c0.8,0,1.5,0.7,1.5,1.5s-0.7,1.5-1.5,1.5s-1.5-0.7-1.5-1.5
			S417.1,147.1,417.9,147.1z M417.9,155.6c0.8,0,1.5,0.7,1.5,1.5s-0.7,1.5-1.5,1.5s-1.5-0.7-1.5-1.5S417.1,155.6,417.9,155.6z
			 M417.9,164.1c0.8,0,1.5,0.7,1.5,1.5s-0.7,1.5-1.5,1.5s-1.5-0.7-1.5-1.5S417.1,164.1,417.9,164.1z M417.9,172.6
			c0.8,0,1.5,0.7,1.5,1.5s-0.7,1.5-1.5,1.5s-1.5-0.7-1.5-1.5S417.1,172.6,417.9,172.6z M417.9,181.1c0.8,0,1.5,0.7,1.5,1.5
			s-0.7,1.5-1.5,1.5s-1.5-0.7-1.5-1.5S417.1,181.1,417.9,181.1z M417.9,189.6c0.8,0,1.5,0.7,1.5,1.5s-0.7,1.5-1.5,1.5
			s-1.5-0.7-1.5-1.5S417.1,189.6,417.9,189.6z M417.9,198.2c0.8,0,1.5,0.7,1.5,1.5s-0.7,1.5-1.5,1.5s-1.5-0.7-1.5-1.5
			S417.1,198.2,417.9,198.2z M417.9,206.7c0.8,0,1.5,0.7,1.5,1.5s-0.7,1.5-1.5,1.5s-1.5-0.7-1.5-1.5
			C416.4,207.3,417.1,206.7,417.9,206.7z M417.9,215.2c0.8,0,1.5,0.7,1.5,1.5s-0.7,1.5-1.5,1.5s-1.5-0.7-1.5-1.5
			S417.1,215.2,417.9,215.2z M417.9,223.7c0.8,0,1.5,0.7,1.5,1.5s-0.7,1.5-1.5,1.5s-1.5-0.7-1.5-1.5
			C416.4,224.3,417.1,223.7,417.9,223.7z M409.4,147.1c0.8,0,1.5,0.7,1.5,1.5s-0.7,1.5-1.5,1.5s-1.5-0.7-1.5-1.5
			S408.6,147.1,409.4,147.1z M409.4,155.6c0.8,0,1.5,0.7,1.5,1.5s-0.7,1.5-1.5,1.5s-1.5-0.7-1.5-1.5S408.6,155.6,409.4,155.6z
			 M409.4,164.1c0.8,0,1.5,0.7,1.5,1.5s-0.7,1.5-1.5,1.5s-1.5-0.7-1.5-1.5S408.6,164.1,409.4,164.1z M409.4,172.6
			c0.8,0,1.5,0.7,1.5,1.5s-0.7,1.5-1.5,1.5s-1.5-0.7-1.5-1.5S408.6,172.6,409.4,172.6z M409.4,181.1c0.8,0,1.5,0.7,1.5,1.5
			s-0.7,1.5-1.5,1.5s-1.5-0.7-1.5-1.5S408.6,181.1,409.4,181.1z M409.4,189.6c0.8,0,1.5,0.7,1.5,1.5s-0.7,1.5-1.5,1.5
			s-1.5-0.7-1.5-1.5S408.6,189.6,409.4,189.6z M409.4,198.2c0.8,0,1.5,0.7,1.5,1.5s-0.7,1.5-1.5,1.5s-1.5-0.7-1.5-1.5
			S408.6,198.2,409.4,198.2z M409.4,206.7c0.8,0,1.5,0.7,1.5,1.5s-0.7,1.5-1.5,1.5s-1.5-0.7-1.5-1.5
			C407.9,207.3,408.6,206.7,409.4,206.7z M409.4,215.2c0.8,0,1.5,0.7,1.5,1.5s-0.7,1.5-1.5,1.5s-1.5-0.7-1.5-1.5
			S408.6,215.2,409.4,215.2z M409.4,223.7c0.8,0,1.5,0.7,1.5,1.5s-0.7,1.5-1.5,1.5s-1.5-0.7-1.5-1.5
			C407.9,224.3,408.6,223.7,409.4,223.7z M400.9,147.1c0.8,0,1.5,0.7,1.5,1.5s-0.7,1.5-1.5,1.5s-1.5-0.7-1.5-1.5
			S400.1,147.1,400.9,147.1z M400.9,155.6c0.8,0,1.5,0.7,1.5,1.5s-0.7,1.5-1.5,1.5s-1.5-0.7-1.5-1.5S400.1,155.6,400.9,155.6z
			 M400.9,164.1c0.8,0,1.5,0.7,1.5,1.5s-0.7,1.5-1.5,1.5s-1.5-0.7-1.5-1.5S400.1,164.1,400.9,164.1z M400.9,172.6
			c0.8,0,1.5,0.7,1.5,1.5s-0.7,1.5-1.5,1.5s-1.5-0.7-1.5-1.5S400.1,172.6,400.9,172.6z M400.9,181.1c0.8,0,1.5,0.7,1.5,1.5
			s-0.7,1.5-1.5,1.5s-1.5-0.7-1.5-1.5S400.1,181.1,400.9,181.1z M400.9,189.6c0.8,0,1.5,0.7,1.5,1.5s-0.7,1.5-1.5,1.5
			s-1.5-0.7-1.5-1.5S400.1,189.6,400.9,189.6z M400.9,198.2c0.8,0,1.5,0.7,1.5,1.5s-0.7,1.5-1.5,1.5s-1.5-0.7-1.5-1.5
			S400.1,198.2,400.9,198.2z M400.9,206.7c0.8,0,1.5,0.7,1.5,1.5s-0.7,1.5-1.5,1.5s-1.5-0.7-1.5-1.5
			C399.4,207.3,400.1,206.7,400.9,206.7z M400.9,215.2c0.8,0,1.5,0.7,1.5,1.5s-0.7,1.5-1.5,1.5s-1.5-0.7-1.5-1.5
			S400.1,215.2,400.9,215.2z M400.9,223.7c0.8,0,1.5,0.7,1.5,1.5s-0.7,1.5-1.5,1.5s-1.5-0.7-1.5-1.5
			C399.4,224.3,400.1,223.7,400.9,223.7z M392.4,138.6c0.8,0,1.5,0.7,1.5,1.5s-0.7,1.5-1.5,1.5s-1.5-0.7-1.5-1.5
			S391.6,138.6,392.4,138.6z M392.4,147.1c0.8,0,1.5,0.7,1.5,1.5s-0.7,1.5-1.5,1.5s-1.5-0.7-1.5-1.5S391.6,147.1,392.4,147.1z
			 M392.4,155.6c0.8,0,1.5,0.7,1.5,1.5s-0.7,1.5-1.5,1.5s-1.5-0.7-1.5-1.5S391.6,155.6,392.4,155.6z M392.4,164.1
			c0.8,0,1.5,0.7,1.5,1.5s-0.7,1.5-1.5,1.5s-1.5-0.7-1.5-1.5S391.6,164.1,392.4,164.1z M392.4,172.6c0.8,0,1.5,0.7,1.5,1.5
			s-0.7,1.5-1.5,1.5s-1.5-0.7-1.5-1.5S391.6,172.6,392.4,172.6z M392.4,181.1c0.8,0,1.5,0.7,1.5,1.5s-0.7,1.5-1.5,1.5
			s-1.5-0.7-1.5-1.5S391.6,181.1,392.4,181.1z M392.4,189.6c0.8,0,1.5,0.7,1.5,1.5s-0.7,1.5-1.5,1.5s-1.5-0.7-1.5-1.5
			S391.6,189.6,392.4,189.6z M392.4,198.2c0.8,0,1.5,0.7,1.5,1.5s-0.7,1.5-1.5,1.5s-1.5-0.7-1.5-1.5S391.6,198.2,392.4,198.2z
			 M392.4,206.7c0.8,0,1.5,0.7,1.5,1.5s-0.7,1.5-1.5,1.5s-1.5-0.7-1.5-1.5C390.9,207.3,391.6,206.7,392.4,206.7z M392.4,215.2
			c0.8,0,1.5,0.7,1.5,1.5s-0.7,1.5-1.5,1.5s-1.5-0.7-1.5-1.5S391.6,215.2,392.4,215.2z M392.4,223.7c0.8,0,1.5,0.7,1.5,1.5
			s-0.7,1.5-1.5,1.5s-1.5-0.7-1.5-1.5C390.9,224.3,391.6,223.7,392.4,223.7z M383.9,138.6c0.8,0,1.5,0.7,1.5,1.5s-0.7,1.5-1.5,1.5
			s-1.5-0.7-1.5-1.5S383.1,138.6,383.9,138.6z M383.9,147.1c0.8,0,1.5,0.7,1.5,1.5s-0.7,1.5-1.5,1.5s-1.5-0.7-1.5-1.5
			S383.1,147.1,383.9,147.1z M383.9,155.6c0.8,0,1.5,0.7,1.5,1.5s-0.7,1.5-1.5,1.5s-1.5-0.7-1.5-1.5S383.1,155.6,383.9,155.6z
			 M383.9,164.1c0.8,0,1.5,0.7,1.5,1.5s-0.7,1.5-1.5,1.5s-1.5-0.7-1.5-1.5S383.1,164.1,383.9,164.1z M383.9,172.6
			c0.8,0,1.5,0.7,1.5,1.5s-0.7,1.5-1.5,1.5s-1.5-0.7-1.5-1.5S383.1,172.6,383.9,172.6z M383.9,181.1c0.8,0,1.5,0.7,1.5,1.5
			s-0.7,1.5-1.5,1.5s-1.5-0.7-1.5-1.5S383.1,181.1,383.9,181.1z M383.9,189.6c0.8,0,1.5,0.7,1.5,1.5s-0.7,1.5-1.5,1.5
			s-1.5-0.7-1.5-1.5S383.1,189.6,383.9,189.6z M383.9,198.2c0.8,0,1.5,0.7,1.5,1.5s-0.7,1.5-1.5,1.5s-1.5-0.7-1.5-1.5
			S383.1,198.2,383.9,198.2z M383.9,206.7c0.8,0,1.5,0.7,1.5,1.5s-0.7,1.5-1.5,1.5s-1.5-0.7-1.5-1.5
			C382.4,207.3,383.1,206.7,383.9,206.7z M383.9,215.2c0.8,0,1.5,0.7,1.5,1.5s-0.7,1.5-1.5,1.5s-1.5-0.7-1.5-1.5
			S383.1,215.2,383.9,215.2z M383.9,223.7c0.8,0,1.5,0.7,1.5,1.5s-0.7,1.5-1.5,1.5s-1.5-0.7-1.5-1.5
			C382.4,224.3,383.1,223.7,383.9,223.7z M375.4,138.6c0.8,0,1.5,0.7,1.5,1.5s-0.7,1.5-1.5,1.5s-1.5-0.7-1.5-1.5
			S374.6,138.6,375.4,138.6z M375.4,147.1c0.8,0,1.5,0.7,1.5,1.5s-0.7,1.5-1.5,1.5s-1.5-0.7-1.5-1.5S374.6,147.1,375.4,147.1z
			 M375.4,155.6c0.8,0,1.5,0.7,1.5,1.5s-0.7,1.5-1.5,1.5s-1.5-0.7-1.5-1.5S374.6,155.6,375.4,155.6z M375.4,164.1
			c0.8,0,1.5,0.7,1.5,1.5s-0.7,1.5-1.5,1.5s-1.5-0.7-1.5-1.5S374.6,164.1,375.4,164.1z M375.4,172.6c0.8,0,1.5,0.7,1.5,1.5
			s-0.7,1.5-1.5,1.5s-1.5-0.7-1.5-1.5S374.6,172.6,375.4,172.6z M375.4,181.1c0.8,0,1.5,0.7,1.5,1.5s-0.7,1.5-1.5,1.5
			s-1.5-0.7-1.5-1.5S374.6,181.1,375.4,181.1z M375.4,189.6c0.8,0,1.5,0.7,1.5,1.5s-0.7,1.5-1.5,1.5s-1.5-0.7-1.5-1.5
			S374.6,189.6,375.4,189.6z M375.4,198.2c0.8,0,1.5,0.7,1.5,1.5s-0.7,1.5-1.5,1.5s-1.5-0.7-1.5-1.5S374.6,198.2,375.4,198.2z
			 M375.4,206.7c0.8,0,1.5,0.7,1.5,1.5s-0.7,1.5-1.5,1.5s-1.5-0.7-1.5-1.5C373.9,207.3,374.6,206.7,375.4,206.7z M375.4,215.2
			c0.8,0,1.5,0.7,1.5,1.5s-0.7,1.5-1.5,1.5s-1.5-0.7-1.5-1.5S374.6,215.2,375.4,215.2z M375.4,223.7c0.8,0,1.5,0.7,1.5,1.5
			s-0.7,1.5-1.5,1.5s-1.5-0.7-1.5-1.5C373.9,224.3,374.6,223.7,375.4,223.7z M366.9,138.6c0.8,0,1.5,0.7,1.5,1.5s-0.7,1.5-1.5,1.5
			s-1.5-0.7-1.5-1.5S366,138.6,366.9,138.6z M366.9,147.1c0.8,0,1.5,0.7,1.5,1.5s-0.7,1.5-1.5,1.5s-1.5-0.7-1.5-1.5
			S366,147.1,366.9,147.1z M366.9,155.6c0.8,0,1.5,0.7,1.5,1.5s-0.7,1.5-1.5,1.5s-1.5-0.7-1.5-1.5S366,155.6,366.9,155.6z
			 M366.9,164.1c0.8,0,1.5,0.7,1.5,1.5s-0.7,1.5-1.5,1.5s-1.5-0.7-1.5-1.5S366,164.1,366.9,164.1z M366.9,172.6
			c0.8,0,1.5,0.7,1.5,1.5s-0.7,1.5-1.5,1.5s-1.5-0.7-1.5-1.5S366,172.6,366.9,172.6z M366.9,181.1c0.8,0,1.5,0.7,1.5,1.5
			s-0.7,1.5-1.5,1.5s-1.5-0.7-1.5-1.5S366,181.1,366.9,181.1z M366.9,189.6c0.8,0,1.5,0.7,1.5,1.5s-0.7,1.5-1.5,1.5
			s-1.5-0.7-1.5-1.5S366,189.6,366.9,189.6z M366.9,198.2c0.8,0,1.5,0.7,1.5,1.5s-0.7,1.5-1.5,1.5s-1.5-0.7-1.5-1.5
			S366,198.2,366.9,198.2z M366.9,206.7c0.8,0,1.5,0.7,1.5,1.5s-0.7,1.5-1.5,1.5s-1.5-0.7-1.5-1.5
			C365.4,207.3,366,206.7,366.9,206.7z M366.9,215.2c0.8,0,1.5,0.7,1.5,1.5s-0.7,1.5-1.5,1.5s-1.5-0.7-1.5-1.5
			S366,215.2,366.9,215.2z M366.9,223.7c0.8,0,1.5,0.7,1.5,1.5s-0.7,1.5-1.5,1.5s-1.5-0.7-1.5-1.5
			C365.4,224.3,366,223.7,366.9,223.7z M358.4,138.6c0.8,0,1.5,0.7,1.5,1.5s-0.7,1.5-1.5,1.5s-1.5-0.7-1.5-1.5
			S357.5,138.6,358.4,138.6z M358.4,147.1c0.8,0,1.5,0.7,1.5,1.5s-0.7,1.5-1.5,1.5s-1.5-0.7-1.5-1.5S357.5,147.1,358.4,147.1z
			 M358.4,155.6c0.8,0,1.5,0.7,1.5,1.5s-0.7,1.5-1.5,1.5s-1.5-0.7-1.5-1.5S357.5,155.6,358.4,155.6z M358.4,164.1
			c0.8,0,1.5,0.7,1.5,1.5s-0.7,1.5-1.5,1.5s-1.5-0.7-1.5-1.5S357.5,164.1,358.4,164.1z M358.4,172.6c0.8,0,1.5,0.7,1.5,1.5
			s-0.7,1.5-1.5,1.5s-1.5-0.7-1.5-1.5S357.5,172.6,358.4,172.6z M358.4,181.1c0.8,0,1.5,0.7,1.5,1.5s-0.7,1.5-1.5,1.5
			s-1.5-0.7-1.5-1.5S357.5,181.1,358.4,181.1z M358.4,189.6c0.8,0,1.5,0.7,1.5,1.5s-0.7,1.5-1.5,1.5s-1.5-0.7-1.5-1.5
			S357.5,189.6,358.4,189.6z M358.4,198.2c0.8,0,1.5,0.7,1.5,1.5s-0.7,1.5-1.5,1.5s-1.5-0.7-1.5-1.5S357.5,198.2,358.4,198.2z
			 M358.4,206.7c0.8,0,1.5,0.7,1.5,1.5s-0.7,1.5-1.5,1.5s-1.5-0.7-1.5-1.5C356.9,207.3,357.5,206.7,358.4,206.7z M358.4,215.2
			c0.8,0,1.5,0.7,1.5,1.5s-0.7,1.5-1.5,1.5s-1.5-0.7-1.5-1.5S357.5,215.2,358.4,215.2z M358.4,223.7c0.8,0,1.5,0.7,1.5,1.5
			s-0.7,1.5-1.5,1.5s-1.5-0.7-1.5-1.5C356.9,224.3,357.5,223.7,358.4,223.7z M349.9,138.6c0.8,0,1.5,0.7,1.5,1.5s-0.7,1.5-1.5,1.5
			s-1.5-0.7-1.5-1.5S349,138.6,349.9,138.6z M349.9,147.1c0.8,0,1.5,0.7,1.5,1.5s-0.7,1.5-1.5,1.5s-1.5-0.7-1.5-1.5
			S349,147.1,349.9,147.1z M349.9,155.6c0.8,0,1.5,0.7,1.5,1.5s-0.7,1.5-1.5,1.5s-1.5-0.7-1.5-1.5S349,155.6,349.9,155.6z
			 M349.9,164.1c0.8,0,1.5,0.7,1.5,1.5s-0.7,1.5-1.5,1.5s-1.5-0.7-1.5-1.5S349,164.1,349.9,164.1z M349.9,172.6
			c0.8,0,1.5,0.7,1.5,1.5s-0.7,1.5-1.5,1.5s-1.5-0.7-1.5-1.5S349,172.6,349.9,172.6z M349.9,181.1c0.8,0,1.5,0.7,1.5,1.5
			s-0.7,1.5-1.5,1.5s-1.5-0.7-1.5-1.5S349,181.1,349.9,181.1z M349.9,189.6c0.8,0,1.5,0.7,1.5,1.5s-0.7,1.5-1.5,1.5
			s-1.5-0.7-1.5-1.5S349,189.6,349.9,189.6z M349.9,198.2c0.8,0,1.5,0.7,1.5,1.5s-0.7,1.5-1.5,1.5s-1.5-0.7-1.5-1.5
			S349,198.2,349.9,198.2z M349.9,206.7c0.8,0,1.5,0.7,1.5,1.5s-0.7,1.5-1.5,1.5s-1.5-0.7-1.5-1.5
			C348.4,207.3,349,206.7,349.9,206.7z M349.9,215.2c0.8,0,1.5,0.7,1.5,1.5s-0.7,1.5-1.5,1.5s-1.5-0.7-1.5-1.5
			S349,215.2,349.9,215.2z M349.9,223.7c0.8,0,1.5,0.7,1.5,1.5s-0.7,1.5-1.5,1.5s-1.5-0.7-1.5-1.5
			C348.4,224.3,349,223.7,349.9,223.7z M341.4,138.6c0.8,0,1.5,0.7,1.5,1.5s-0.7,1.5-1.5,1.5s-1.5-0.7-1.5-1.5
			S340.5,138.6,341.4,138.6z M341.4,147.1c0.8,0,1.5,0.7,1.5,1.5s-0.7,1.5-1.5,1.5s-1.5-0.7-1.5-1.5S340.5,147.1,341.4,147.1z
			 M341.4,155.6c0.8,0,1.5,0.7,1.5,1.5s-0.7,1.5-1.5,1.5s-1.5-0.7-1.5-1.5S340.5,155.6,341.4,155.6z M341.4,164.1
			c0.8,0,1.5,0.7,1.5,1.5s-0.7,1.5-1.5,1.5s-1.5-0.7-1.5-1.5S340.5,164.1,341.4,164.1z M341.4,172.6c0.8,0,1.5,0.7,1.5,1.5
			s-0.7,1.5-1.5,1.5s-1.5-0.7-1.5-1.5S340.5,172.6,341.4,172.6z M341.4,181.1c0.8,0,1.5,0.7,1.5,1.5s-0.7,1.5-1.5,1.5
			s-1.5-0.7-1.5-1.5S340.5,181.1,341.4,181.1z M341.4,189.6c0.8,0,1.5,0.7,1.5,1.5s-0.7,1.5-1.5,1.5s-1.5-0.7-1.5-1.5
			S340.5,189.6,341.4,189.6z M341.4,198.2c0.8,0,1.5,0.7,1.5,1.5s-0.7,1.5-1.5,1.5s-1.5-0.7-1.5-1.5S340.5,198.2,341.4,198.2z
			 M341.4,206.7c0.8,0,1.5,0.7,1.5,1.5s-0.7,1.5-1.5,1.5s-1.5-0.7-1.5-1.5C339.9,207.3,340.5,206.7,341.4,206.7z M341.4,215.2
			c0.8,0,1.5,0.7,1.5,1.5s-0.7,1.5-1.5,1.5s-1.5-0.7-1.5-1.5S340.5,215.2,341.4,215.2z M341.4,223.7c0.8,0,1.5,0.7,1.5,1.5
			s-0.7,1.5-1.5,1.5s-1.5-0.7-1.5-1.5C339.9,224.3,340.5,223.7,341.4,223.7z M332.8,138.6c0.8,0,1.5,0.7,1.5,1.5s-0.7,1.5-1.5,1.5
			s-1.5-0.7-1.5-1.5C331.4,139.3,332,138.6,332.8,138.6z M332.8,147.1c0.8,0,1.5,0.7,1.5,1.5s-0.7,1.5-1.5,1.5s-1.5-0.7-1.5-1.5
			S332,147.1,332.8,147.1z M332.8,155.6c0.8,0,1.5,0.7,1.5,1.5s-0.7,1.5-1.5,1.5s-1.5-0.7-1.5-1.5
			C331.4,156.3,332,155.6,332.8,155.6z M332.8,164.1c0.8,0,1.5,0.7,1.5,1.5s-0.7,1.5-1.5,1.5s-1.5-0.7-1.5-1.5
			S332,164.1,332.8,164.1z M332.8,172.6c0.8,0,1.5,0.7,1.5,1.5s-0.7,1.5-1.5,1.5s-1.5-0.7-1.5-1.5
			C331.4,173.3,332,172.6,332.8,172.6z M332.8,181.1c0.8,0,1.5,0.7,1.5,1.5s-0.7,1.5-1.5,1.5s-1.5-0.7-1.5-1.5
			S332,181.1,332.8,181.1z M332.8,189.6c0.8,0,1.5,0.7,1.5,1.5s-0.7,1.5-1.5,1.5s-1.5-0.7-1.5-1.5
			C331.4,190.3,332,189.6,332.8,189.6z M332.8,198.2c0.8,0,1.5,0.7,1.5,1.5s-0.7,1.5-1.5,1.5s-1.5-0.7-1.5-1.5
			S332,198.2,332.8,198.2z M332.8,206.7c0.8,0,1.5,0.7,1.5,1.5s-0.7,1.5-1.5,1.5s-1.5-0.7-1.5-1.5
			C331.4,207.3,332,206.7,332.8,206.7z M332.8,215.2c0.8,0,1.5,0.7,1.5,1.5s-0.7,1.5-1.5,1.5s-1.5-0.7-1.5-1.5
			S332,215.2,332.8,215.2z M332.8,223.7c0.8,0,1.5,0.7,1.5,1.5s-0.7,1.5-1.5,1.5s-1.5-0.7-1.5-1.5
			C331.4,224.3,332,223.7,332.8,223.7z M324.3,138.6c0.8,0,1.5,0.7,1.5,1.5s-0.7,1.5-1.5,1.5s-1.5-0.7-1.5-1.5
			C322.9,139.3,323.5,138.6,324.3,138.6z M324.3,147.1c0.8,0,1.5,0.7,1.5,1.5s-0.7,1.5-1.5,1.5s-1.5-0.7-1.5-1.5
			S323.5,147.1,324.3,147.1z M324.3,155.6c0.8,0,1.5,0.7,1.5,1.5s-0.7,1.5-1.5,1.5s-1.5-0.7-1.5-1.5
			C322.9,156.3,323.5,155.6,324.3,155.6z M324.3,164.1c0.8,0,1.5,0.7,1.5,1.5s-0.7,1.5-1.5,1.5s-1.5-0.7-1.5-1.5
			S323.5,164.1,324.3,164.1z M324.3,172.6c0.8,0,1.5,0.7,1.5,1.5s-0.7,1.5-1.5,1.5s-1.5-0.7-1.5-1.5
			C322.9,173.3,323.5,172.6,324.3,172.6z M324.3,181.1c0.8,0,1.5,0.7,1.5,1.5s-0.7,1.5-1.5,1.5s-1.5-0.7-1.5-1.5
			S323.5,181.1,324.3,181.1z M324.3,189.6c0.8,0,1.5,0.7,1.5,1.5s-0.7,1.5-1.5,1.5s-1.5-0.7-1.5-1.5
			C322.9,190.3,323.5,189.6,324.3,189.6z M324.3,198.2c0.8,0,1.5,0.7,1.5,1.5s-0.7,1.5-1.5,1.5s-1.5-0.7-1.5-1.5
			S323.5,198.2,324.3,198.2z M324.3,206.7c0.8,0,1.5,0.7,1.5,1.5s-0.7,1.5-1.5,1.5s-1.5-0.7-1.5-1.5
			C322.9,207.3,323.5,206.7,324.3,206.7z M324.3,215.2c0.8,0,1.5,0.7,1.5,1.5s-0.7,1.5-1.5,1.5s-1.5-0.7-1.5-1.5
			S323.5,215.2,324.3,215.2z M324.3,223.7c0.8,0,1.5,0.7,1.5,1.5s-0.7,1.5-1.5,1.5s-1.5-0.7-1.5-1.5
			C322.9,224.3,323.5,223.7,324.3,223.7z M315.8,147.1c0.8,0,1.5,0.7,1.5,1.5s-0.7,1.5-1.5,1.5s-1.5-0.7-1.5-1.5
			S315,147.1,315.8,147.1z M315.8,155.6c0.8,0,1.5,0.7,1.5,1.5s-0.7,1.5-1.5,1.5s-1.5-0.7-1.5-1.5
			C314.4,156.3,315,155.6,315.8,155.6z M315.8,164.1c0.8,0,1.5,0.7,1.5,1.5s-0.7,1.5-1.5,1.5s-1.5-0.7-1.5-1.5
			S315,164.1,315.8,164.1z M315.8,172.6c0.8,0,1.5,0.7,1.5,1.5s-0.7,1.5-1.5,1.5s-1.5-0.7-1.5-1.5
			C314.4,173.3,315,172.6,315.8,172.6z M315.8,181.1c0.8,0,1.5,0.7,1.5,1.5s-0.7,1.5-1.5,1.5s-1.5-0.7-1.5-1.5
			S315,181.1,315.8,181.1z M315.8,189.6c0.8,0,1.5,0.7,1.5,1.5s-0.7,1.5-1.5,1.5s-1.5-0.7-1.5-1.5
			C314.4,190.3,315,189.6,315.8,189.6z M315.8,198.2c0.8,0,1.5,0.7,1.5,1.5s-0.7,1.5-1.5,1.5s-1.5-0.7-1.5-1.5
			S315,198.2,315.8,198.2z M315.8,206.7c0.8,0,1.5,0.7,1.5,1.5s-0.7,1.5-1.5,1.5s-1.5-0.7-1.5-1.5
			C314.4,207.3,315,206.7,315.8,206.7z M315.8,215.2c0.8,0,1.5,0.7,1.5,1.5s-0.7,1.5-1.5,1.5s-1.5-0.7-1.5-1.5
			S315,215.2,315.8,215.2z M315.8,223.7c0.8,0,1.5,0.7,1.5,1.5s-0.7,1.5-1.5,1.5s-1.5-0.7-1.5-1.5
			C314.4,224.3,315,223.7,315.8,223.7z M307.3,147.1c0.8,0,1.5,0.7,1.5,1.5s-0.7,1.5-1.5,1.5s-1.5-0.7-1.5-1.5
			S306.5,147.1,307.3,147.1z M307.3,155.6c0.8,0,1.5,0.7,1.5,1.5s-0.7,1.5-1.5,1.5s-1.5-0.7-1.5-1.5
			C305.9,156.3,306.5,155.6,307.3,155.6z M307.3,164.1c0.8,0,1.5,0.7,1.5,1.5s-0.7,1.5-1.5,1.5s-1.5-0.7-1.5-1.5
			S306.5,164.1,307.3,164.1z M307.3,172.6c0.8,0,1.5,0.7,1.5,1.5s-0.7,1.5-1.5,1.5s-1.5-0.7-1.5-1.5
			C305.9,173.3,306.5,172.6,307.3,172.6z M307.3,181.1c0.8,0,1.5,0.7,1.5,1.5s-0.7,1.5-1.5,1.5s-1.5-0.7-1.5-1.5
			S306.5,181.1,307.3,181.1z M307.3,189.6c0.8,0,1.5,0.7,1.5,1.5s-0.7,1.5-1.5,1.5s-1.5-0.7-1.5-1.5
			C305.9,190.3,306.5,189.6,307.3,189.6z M307.3,198.2c0.8,0,1.5,0.7,1.5,1.5s-0.7,1.5-1.5,1.5s-1.5-0.7-1.5-1.5
			S306.5,198.2,307.3,198.2z M307.3,206.7c0.8,0,1.5,0.7,1.5,1.5s-0.7,1.5-1.5,1.5s-1.5-0.7-1.5-1.5
			C305.9,207.3,306.5,206.7,307.3,206.7z M307.3,215.2c0.8,0,1.5,0.7,1.5,1.5s-0.7,1.5-1.5,1.5s-1.5-0.7-1.5-1.5
			S306.5,215.2,307.3,215.2z M307.3,223.7c0.8,0,1.5,0.7,1.5,1.5s-0.7,1.5-1.5,1.5s-1.5-0.7-1.5-1.5
			C305.9,224.3,306.5,223.7,307.3,223.7z M298.8,147.1c0.8,0,1.5,0.7,1.5,1.5s-0.7,1.5-1.5,1.5s-1.5-0.7-1.5-1.5
			S298,147.1,298.8,147.1z M298.8,155.6c0.8,0,1.5,0.7,1.5,1.5s-0.7,1.5-1.5,1.5s-1.5-0.7-1.5-1.5
			C297.4,156.3,298,155.6,298.8,155.6z M298.8,164.1c0.8,0,1.5,0.7,1.5,1.5s-0.7,1.5-1.5,1.5s-1.5-0.7-1.5-1.5
			S298,164.1,298.8,164.1z M298.8,172.6c0.8,0,1.5,0.7,1.5,1.5s-0.7,1.5-1.5,1.5s-1.5-0.7-1.5-1.5
			C297.4,173.3,298,172.6,298.8,172.6z M298.8,181.1c0.8,0,1.5,0.7,1.5,1.5s-0.7,1.5-1.5,1.5s-1.5-0.7-1.5-1.5
			S298,181.1,298.8,181.1z M298.8,189.6c0.8,0,1.5,0.7,1.5,1.5s-0.7,1.5-1.5,1.5s-1.5-0.7-1.5-1.5
			C297.4,190.3,298,189.6,298.8,189.6z M298.8,198.2c0.8,0,1.5,0.7,1.5,1.5s-0.7,1.5-1.5,1.5s-1.5-0.7-1.5-1.5
			S298,198.2,298.8,198.2z M298.8,206.7c0.8,0,1.5,0.7,1.5,1.5s-0.7,1.5-1.5,1.5s-1.5-0.7-1.5-1.5
			C297.4,207.3,298,206.7,298.8,206.7z M298.8,215.2c0.8,0,1.5,0.7,1.5,1.5s-0.7,1.5-1.5,1.5s-1.5-0.7-1.5-1.5
			S298,215.2,298.8,215.2z M298.8,223.7c0.8,0,1.5,0.7,1.5,1.5s-0.7,1.5-1.5,1.5s-1.5-0.7-1.5-1.5
			C297.4,224.3,298,223.7,298.8,223.7z M290.3,147.1c0.8,0,1.5,0.7,1.5,1.5s-0.7,1.5-1.5,1.5s-1.5-0.7-1.5-1.5
			S289.5,147.1,290.3,147.1z M290.3,155.6c0.8,0,1.5,0.7,1.5,1.5s-0.7,1.5-1.5,1.5s-1.5-0.7-1.5-1.5
			C288.9,156.3,289.5,155.6,290.3,155.6z M290.3,164.1c0.8,0,1.5,0.7,1.5,1.5s-0.7,1.5-1.5,1.5s-1.5-0.7-1.5-1.5
			S289.5,164.1,290.3,164.1z M290.3,172.6c0.8,0,1.5,0.7,1.5,1.5s-0.7,1.5-1.5,1.5s-1.5-0.7-1.5-1.5
			C288.9,173.3,289.5,172.6,290.3,172.6z M290.3,181.1c0.8,0,1.5,0.7,1.5,1.5s-0.7,1.5-1.5,1.5s-1.5-0.7-1.5-1.5
			S289.5,181.1,290.3,181.1z M290.3,189.6c0.8,0,1.5,0.7,1.5,1.5s-0.7,1.5-1.5,1.5s-1.5-0.7-1.5-1.5
			C288.9,190.3,289.5,189.6,290.3,189.6z M290.3,198.2c0.8,0,1.5,0.7,1.5,1.5s-0.7,1.5-1.5,1.5s-1.5-0.7-1.5-1.5
			S289.5,198.2,290.3,198.2z M290.3,206.7c0.8,0,1.5,0.7,1.5,1.5s-0.7,1.5-1.5,1.5s-1.5-0.7-1.5-1.5
			C288.9,207.3,289.5,206.7,290.3,206.7z M290.3,215.2c0.8,0,1.5,0.7,1.5,1.5s-0.7,1.5-1.5,1.5s-1.5-0.7-1.5-1.5
			S289.5,215.2,290.3,215.2z M290.3,223.7c0.8,0,1.5,0.7,1.5,1.5s-0.7,1.5-1.5,1.5s-1.5-0.7-1.5-1.5
			C288.9,224.3,289.5,223.7,290.3,223.7z M282,146.9c0.8,0,1.5,0.7,1.5,1.5s-0.7,1.5-1.5,1.5s-1.5-0.7-1.5-1.5
			S281.2,146.9,282,146.9z M282,155.4c0.8,0,1.5,0.7,1.5,1.5s-0.7,1.5-1.5,1.5s-1.5-0.7-1.5-1.5C280.5,156.1,281.2,155.4,282,155.4z
			 M282,163.9c0.8,0,1.5,0.7,1.5,1.5s-0.7,1.5-1.5,1.5s-1.5-0.7-1.5-1.5S281.2,163.9,282,163.9z M282,172.5c0.8,0,1.5,0.7,1.5,1.5
			s-0.7,1.5-1.5,1.5s-1.5-0.7-1.5-1.5C280.5,173.1,281.2,172.5,282,172.5z M282,181c0.8,0,1.5,0.7,1.5,1.5s-0.7,1.5-1.5,1.5
			s-1.5-0.7-1.5-1.5S281.2,181,282,181z M282,189.5c0.8,0,1.5,0.7,1.5,1.5s-0.7,1.5-1.5,1.5s-1.5-0.7-1.5-1.5
			C280.5,190.1,281.2,189.5,282,189.5z M282,198c0.8,0,1.5,0.7,1.5,1.5s-0.7,1.5-1.5,1.5s-1.5-0.7-1.5-1.5S281.2,198,282,198z
			 M282,206.5c0.8,0,1.5,0.7,1.5,1.5s-0.7,1.5-1.5,1.5s-1.5-0.7-1.5-1.5C280.5,207.1,281.2,206.5,282,206.5z M282,215
			c0.8,0,1.5,0.7,1.5,1.5s-0.7,1.5-1.5,1.5s-1.5-0.7-1.5-1.5S281.2,215,282,215z M282,223.5c0.8,0,1.5,0.7,1.5,1.5s-0.7,1.5-1.5,1.5
			s-1.5-0.7-1.5-1.5C280.5,224.1,281.2,223.5,282,223.5z M273.5,146.9c0.8,0,1.5,0.7,1.5,1.5s-0.7,1.5-1.5,1.5s-1.5-0.7-1.5-1.5
			S272.7,146.9,273.5,146.9z M273.5,155.4c0.8,0,1.5,0.7,1.5,1.5s-0.7,1.5-1.5,1.5s-1.5-0.7-1.5-1.5
			C272,156.1,272.7,155.4,273.5,155.4z M273.5,163.9c0.8,0,1.5,0.7,1.5,1.5s-0.7,1.5-1.5,1.5s-1.5-0.7-1.5-1.5
			S272.7,163.9,273.5,163.9z M273.5,172.5c0.8,0,1.5,0.7,1.5,1.5s-0.7,1.5-1.5,1.5s-1.5-0.7-1.5-1.5
			C272,173.1,272.7,172.5,273.5,172.5z M273.5,181c0.8,0,1.5,0.7,1.5,1.5s-0.7,1.5-1.5,1.5s-1.5-0.7-1.5-1.5S272.7,181,273.5,181z
			 M273.5,189.5c0.8,0,1.5,0.7,1.5,1.5s-0.7,1.5-1.5,1.5s-1.5-0.7-1.5-1.5C272,190.1,272.7,189.5,273.5,189.5z M273.5,198
			c0.8,0,1.5,0.7,1.5,1.5s-0.7,1.5-1.5,1.5s-1.5-0.7-1.5-1.5S272.7,198,273.5,198z M273.5,206.5c0.8,0,1.5,0.7,1.5,1.5
			s-0.7,1.5-1.5,1.5s-1.5-0.7-1.5-1.5C272,207.1,272.7,206.5,273.5,206.5z M273.5,215c0.8,0,1.5,0.7,1.5,1.5s-0.7,1.5-1.5,1.5
			s-1.5-0.7-1.5-1.5S272.7,215,273.5,215z M273.5,223.5c0.8,0,1.5,0.7,1.5,1.5s-0.7,1.5-1.5,1.5s-1.5-0.7-1.5-1.5
			C272,224.1,272.7,223.5,273.5,223.5z M265,146.9c0.8,0,1.5,0.7,1.5,1.5s-0.7,1.5-1.5,1.5s-1.5-0.7-1.5-1.5S264.2,146.9,265,146.9z
			 M265,155.4c0.8,0,1.5,0.7,1.5,1.5s-0.7,1.5-1.5,1.5s-1.5-0.7-1.5-1.5C263.5,156.1,264.2,155.4,265,155.4z M265,163.9
			c0.8,0,1.5,0.7,1.5,1.5s-0.7,1.5-1.5,1.5s-1.5-0.7-1.5-1.5S264.2,163.9,265,163.9z M265,172.5c0.8,0,1.5,0.7,1.5,1.5
			s-0.7,1.5-1.5,1.5s-1.5-0.7-1.5-1.5C263.5,173.1,264.2,172.5,265,172.5z M265,181c0.8,0,1.5,0.7,1.5,1.5s-0.7,1.5-1.5,1.5
			s-1.5-0.7-1.5-1.5S264.2,181,265,181z M265,189.5c0.8,0,1.5,0.7,1.5,1.5s-0.7,1.5-1.5,1.5s-1.5-0.7-1.5-1.5
			C263.5,190.1,264.2,189.5,265,189.5z M265,198c0.8,0,1.5,0.7,1.5,1.5s-0.7,1.5-1.5,1.5s-1.5-0.7-1.5-1.5S264.2,198,265,198z
			 M265,206.5c0.8,0,1.5,0.7,1.5,1.5s-0.7,1.5-1.5,1.5s-1.5-0.7-1.5-1.5C263.5,207.1,264.2,206.5,265,206.5z M265,215
			c0.8,0,1.5,0.7,1.5,1.5s-0.7,1.5-1.5,1.5s-1.5-0.7-1.5-1.5S264.2,215,265,215z M265,223.5c0.8,0,1.5,0.7,1.5,1.5s-0.7,1.5-1.5,1.5
			s-1.5-0.7-1.5-1.5C263.5,224.1,264.2,223.5,265,223.5z M256.5,138.4c0.8,0,1.5,0.7,1.5,1.5s-0.7,1.5-1.5,1.5
			c-0.8,0-1.5-0.7-1.5-1.5C255,139.1,255.7,138.4,256.5,138.4z M256.5,146.9c0.8,0,1.5,0.7,1.5,1.5s-0.7,1.5-1.5,1.5
			c-0.8,0-1.5-0.7-1.5-1.5S255.7,146.9,256.5,146.9z M256.5,155.4c0.8,0,1.5,0.7,1.5,1.5s-0.7,1.5-1.5,1.5c-0.8,0-1.5-0.7-1.5-1.5
			C255,156.1,255.7,155.4,256.5,155.4z M256.5,163.9c0.8,0,1.5,0.7,1.5,1.5s-0.7,1.5-1.5,1.5c-0.8,0-1.5-0.7-1.5-1.5
			S255.7,163.9,256.5,163.9z M256.5,172.5c0.8,0,1.5,0.7,1.5,1.5s-0.7,1.5-1.5,1.5c-0.8,0-1.5-0.7-1.5-1.5
			C255,173.1,255.7,172.5,256.5,172.5z M256.5,181c0.8,0,1.5,0.7,1.5,1.5s-0.7,1.5-1.5,1.5c-0.8,0-1.5-0.7-1.5-1.5
			S255.7,181,256.5,181z M256.5,189.5c0.8,0,1.5,0.7,1.5,1.5s-0.7,1.5-1.5,1.5c-0.8,0-1.5-0.7-1.5-1.5
			C255,190.1,255.7,189.5,256.5,189.5z M256.5,198c0.8,0,1.5,0.7,1.5,1.5s-0.7,1.5-1.5,1.5c-0.8,0-1.5-0.7-1.5-1.5
			S255.7,198,256.5,198z M256.5,206.5c0.8,0,1.5,0.7,1.5,1.5s-0.7,1.5-1.5,1.5c-0.8,0-1.5-0.7-1.5-1.5
			C255,207.1,255.7,206.5,256.5,206.5z M256.5,215c0.8,0,1.5,0.7,1.5,1.5s-0.7,1.5-1.5,1.5c-0.8,0-1.5-0.7-1.5-1.5
			S255.7,215,256.5,215z M256.5,223.5c0.8,0,1.5,0.7,1.5,1.5s-0.7,1.5-1.5,1.5c-0.8,0-1.5-0.7-1.5-1.5
			C255,224.1,255.7,223.5,256.5,223.5z M248,138.4c0.8,0,1.5,0.7,1.5,1.5s-0.7,1.5-1.5,1.5s-1.5-0.7-1.5-1.5
			C246.5,139.1,247.2,138.4,248,138.4z M248,146.9c0.8,0,1.5,0.7,1.5,1.5s-0.7,1.5-1.5,1.5s-1.5-0.7-1.5-1.5S247.2,146.9,248,146.9z
			 M248,155.4c0.8,0,1.5,0.7,1.5,1.5s-0.7,1.5-1.5,1.5s-1.5-0.7-1.5-1.5C246.5,156.1,247.2,155.4,248,155.4z M248,163.9
			c0.8,0,1.5,0.7,1.5,1.5s-0.7,1.5-1.5,1.5s-1.5-0.7-1.5-1.5S247.2,163.9,248,163.9z M248,172.5c0.8,0,1.5,0.7,1.5,1.5
			s-0.7,1.5-1.5,1.5s-1.5-0.7-1.5-1.5C246.5,173.1,247.2,172.5,248,172.5z M248,181c0.8,0,1.5,0.7,1.5,1.5s-0.7,1.5-1.5,1.5
			s-1.5-0.7-1.5-1.5S247.2,181,248,181z M248,189.5c0.8,0,1.5,0.7,1.5,1.5s-0.7,1.5-1.5,1.5s-1.5-0.7-1.5-1.5
			C246.5,190.1,247.2,189.5,248,189.5z M248,198c0.8,0,1.5,0.7,1.5,1.5s-0.7,1.5-1.5,1.5s-1.5-0.7-1.5-1.5S247.2,198,248,198z
			 M248,206.5c0.8,0,1.5,0.7,1.5,1.5s-0.7,1.5-1.5,1.5s-1.5-0.7-1.5-1.5C246.5,207.1,247.2,206.5,248,206.5z M248,215
			c0.8,0,1.5,0.7,1.5,1.5s-0.7,1.5-1.5,1.5s-1.5-0.7-1.5-1.5S247.2,215,248,215z M248,223.5c0.8,0,1.5,0.7,1.5,1.5s-0.7,1.5-1.5,1.5
			s-1.5-0.7-1.5-1.5C246.5,224.1,247.2,223.5,248,223.5z M239.5,138.4c0.8,0,1.5,0.7,1.5,1.5s-0.7,1.5-1.5,1.5s-1.5-0.7-1.5-1.5
			C238,139.1,238.7,138.4,239.5,138.4z M239.5,146.9c0.8,0,1.5,0.7,1.5,1.5s-0.7,1.5-1.5,1.5s-1.5-0.7-1.5-1.5
			S238.7,146.9,239.5,146.9z M239.5,155.4c0.8,0,1.5,0.7,1.5,1.5s-0.7,1.5-1.5,1.5s-1.5-0.7-1.5-1.5
			C238,156.1,238.7,155.4,239.5,155.4z M239.5,163.9c0.8,0,1.5,0.7,1.5,1.5s-0.7,1.5-1.5,1.5s-1.5-0.7-1.5-1.5
			S238.7,163.9,239.5,163.9z M239.5,172.5c0.8,0,1.5,0.7,1.5,1.5s-0.7,1.5-1.5,1.5s-1.5-0.7-1.5-1.5
			C238,173.1,238.7,172.5,239.5,172.5z M239.5,181c0.8,0,1.5,0.7,1.5,1.5s-0.7,1.5-1.5,1.5s-1.5-0.7-1.5-1.5S238.7,181,239.5,181z
			 M239.5,189.5c0.8,0,1.5,0.7,1.5,1.5s-0.7,1.5-1.5,1.5s-1.5-0.7-1.5-1.5C238,190.1,238.7,189.5,239.5,189.5z M239.5,198
			c0.8,0,1.5,0.7,1.5,1.5s-0.7,1.5-1.5,1.5s-1.5-0.7-1.5-1.5S238.7,198,239.5,198z M239.5,206.5c0.8,0,1.5,0.7,1.5,1.5
			s-0.7,1.5-1.5,1.5s-1.5-0.7-1.5-1.5C238,207.1,238.7,206.5,239.5,206.5z M239.5,215c0.8,0,1.5,0.7,1.5,1.5s-0.7,1.5-1.5,1.5
			s-1.5-0.7-1.5-1.5S238.7,215,239.5,215z M239.5,223.5c0.8,0,1.5,0.7,1.5,1.5s-0.7,1.5-1.5,1.5s-1.5-0.7-1.5-1.5
			C238,224.1,238.7,223.5,239.5,223.5z M231,138.4c0.8,0,1.5,0.7,1.5,1.5s-0.7,1.5-1.5,1.5s-1.5-0.7-1.5-1.5
			C229.5,139.1,230.2,138.4,231,138.4z M231,146.9c0.8,0,1.5,0.7,1.5,1.5s-0.7,1.5-1.5,1.5s-1.5-0.7-1.5-1.5S230.2,146.9,231,146.9z
			 M231,155.4c0.8,0,1.5,0.7,1.5,1.5s-0.7,1.5-1.5,1.5s-1.5-0.7-1.5-1.5C229.5,156.1,230.2,155.4,231,155.4z M231,163.9
			c0.8,0,1.5,0.7,1.5,1.5s-0.7,1.5-1.5,1.5s-1.5-0.7-1.5-1.5S230.2,163.9,231,163.9z M231,172.5c0.8,0,1.5,0.7,1.5,1.5
			s-0.7,1.5-1.5,1.5s-1.5-0.7-1.5-1.5C229.5,173.1,230.2,172.5,231,172.5z M231,181c0.8,0,1.5,0.7,1.5,1.5s-0.7,1.5-1.5,1.5
			s-1.5-0.7-1.5-1.5S230.2,181,231,181z M231,189.5c0.8,0,1.5,0.7,1.5,1.5s-0.7,1.5-1.5,1.5s-1.5-0.7-1.5-1.5
			C229.5,190.1,230.2,189.5,231,189.5z M231,198c0.8,0,1.5,0.7,1.5,1.5s-0.7,1.5-1.5,1.5s-1.5-0.7-1.5-1.5S230.2,198,231,198z
			 M231,206.5c0.8,0,1.5,0.7,1.5,1.5s-0.7,1.5-1.5,1.5s-1.5-0.7-1.5-1.5C229.5,207.1,230.2,206.5,231,206.5z M231,215
			c0.8,0,1.5,0.7,1.5,1.5s-0.7,1.5-1.5,1.5s-1.5-0.7-1.5-1.5S230.2,215,231,215z M231,223.5c0.8,0,1.5,0.7,1.5,1.5s-0.7,1.5-1.5,1.5
			s-1.5-0.7-1.5-1.5C229.5,224.1,230.2,223.5,231,223.5z M222.5,138.4c0.8,0,1.5,0.7,1.5,1.5s-0.7,1.5-1.5,1.5s-1.5-0.7-1.5-1.5
			C221,139.1,221.6,138.4,222.5,138.4z M222.5,146.9c0.8,0,1.5,0.7,1.5,1.5s-0.7,1.5-1.5,1.5s-1.5-0.7-1.5-1.5
			S221.6,146.9,222.5,146.9z M222.5,155.4c0.8,0,1.5,0.7,1.5,1.5s-0.7,1.5-1.5,1.5s-1.5-0.7-1.5-1.5
			C221,156.1,221.6,155.4,222.5,155.4z M222.5,163.9c0.8,0,1.5,0.7,1.5,1.5s-0.7,1.5-1.5,1.5s-1.5-0.7-1.5-1.5
			S221.6,163.9,222.5,163.9z M222.5,172.5c0.8,0,1.5,0.7,1.5,1.5s-0.7,1.5-1.5,1.5s-1.5-0.7-1.5-1.5
			C221,173.1,221.6,172.5,222.5,172.5z M222.5,181c0.8,0,1.5,0.7,1.5,1.5s-0.7,1.5-1.5,1.5s-1.5-0.7-1.5-1.5S221.6,181,222.5,181z
			 M222.5,189.5c0.8,0,1.5,0.7,1.5,1.5s-0.7,1.5-1.5,1.5s-1.5-0.7-1.5-1.5C221,190.1,221.6,189.5,222.5,189.5z M222.5,198
			c0.8,0,1.5,0.7,1.5,1.5s-0.7,1.5-1.5,1.5s-1.5-0.7-1.5-1.5S221.6,198,222.5,198z M222.5,206.5c0.8,0,1.5,0.7,1.5,1.5
			s-0.7,1.5-1.5,1.5s-1.5-0.7-1.5-1.5C221,207.1,221.6,206.5,222.5,206.5z M222.5,215c0.8,0,1.5,0.7,1.5,1.5s-0.7,1.5-1.5,1.5
			s-1.5-0.7-1.5-1.5S221.6,215,222.5,215z M222.5,223.5c0.8,0,1.5,0.7,1.5,1.5s-0.7,1.5-1.5,1.5s-1.5-0.7-1.5-1.5
			C221,224.1,221.6,223.5,222.5,223.5z M214,138.4c0.8,0,1.5,0.7,1.5,1.5s-0.7,1.5-1.5,1.5s-1.5-0.7-1.5-1.5
			C212.5,139.1,213.1,138.4,214,138.4z M214,146.9c0.8,0,1.5,0.7,1.5,1.5s-0.7,1.5-1.5,1.5s-1.5-0.7-1.5-1.5S213.1,146.9,214,146.9z
			 M214,155.4c0.8,0,1.5,0.7,1.5,1.5s-0.7,1.5-1.5,1.5s-1.5-0.7-1.5-1.5C212.5,156.1,213.1,155.4,214,155.4z M214,163.9
			c0.8,0,1.5,0.7,1.5,1.5s-0.7,1.5-1.5,1.5s-1.5-0.7-1.5-1.5S213.1,163.9,214,163.9z M214,172.5c0.8,0,1.5,0.7,1.5,1.5
			s-0.7,1.5-1.5,1.5s-1.5-0.7-1.5-1.5C212.5,173.1,213.1,172.5,214,172.5z M214,181c0.8,0,1.5,0.7,1.5,1.5s-0.7,1.5-1.5,1.5
			s-1.5-0.7-1.5-1.5S213.1,181,214,181z M214,189.5c0.8,0,1.5,0.7,1.5,1.5s-0.7,1.5-1.5,1.5s-1.5-0.7-1.5-1.5
			C212.5,190.1,213.1,189.5,214,189.5z M214,198c0.8,0,1.5,0.7,1.5,1.5s-0.7,1.5-1.5,1.5s-1.5-0.7-1.5-1.5S213.1,198,214,198z
			 M214,206.5c0.8,0,1.5,0.7,1.5,1.5s-0.7,1.5-1.5,1.5s-1.5-0.7-1.5-1.5C212.5,207.1,213.1,206.5,214,206.5z M214,215
			c0.8,0,1.5,0.7,1.5,1.5s-0.7,1.5-1.5,1.5s-1.5-0.7-1.5-1.5S213.1,215,214,215z M214,223.5c0.8,0,1.5,0.7,1.5,1.5s-0.7,1.5-1.5,1.5
			s-1.5-0.7-1.5-1.5C212.5,224.1,213.1,223.5,214,223.5z M205.5,138.4c0.8,0,1.5,0.7,1.5,1.5s-0.7,1.5-1.5,1.5s-1.5-0.7-1.5-1.5
			C204,139.1,204.6,138.4,205.5,138.4z M205.5,146.9c0.8,0,1.5,0.7,1.5,1.5s-0.7,1.5-1.5,1.5s-1.5-0.7-1.5-1.5
			S204.6,146.9,205.5,146.9z M205.5,155.4c0.8,0,1.5,0.7,1.5,1.5s-0.7,1.5-1.5,1.5s-1.5-0.7-1.5-1.5
			C204,156.1,204.6,155.4,205.5,155.4z M205.5,163.9c0.8,0,1.5,0.7,1.5,1.5s-0.7,1.5-1.5,1.5s-1.5-0.7-1.5-1.5
			S204.6,163.9,205.5,163.9z M205.5,172.5c0.8,0,1.5,0.7,1.5,1.5s-0.7,1.5-1.5,1.5s-1.5-0.7-1.5-1.5
			C204,173.1,204.6,172.5,205.5,172.5z M205.5,181c0.8,0,1.5,0.7,1.5,1.5s-0.7,1.5-1.5,1.5s-1.5-0.7-1.5-1.5S204.6,181,205.5,181z
			 M205.5,189.5c0.8,0,1.5,0.7,1.5,1.5s-0.7,1.5-1.5,1.5s-1.5-0.7-1.5-1.5C204,190.1,204.6,189.5,205.5,189.5z M205.5,198
			c0.8,0,1.5,0.7,1.5,1.5s-0.7,1.5-1.5,1.5s-1.5-0.7-1.5-1.5S204.6,198,205.5,198z M205.5,206.5c0.8,0,1.5,0.7,1.5,1.5
			s-0.7,1.5-1.5,1.5s-1.5-0.7-1.5-1.5C204,207.1,204.6,206.5,205.5,206.5z M205.5,215c0.8,0,1.5,0.7,1.5,1.5s-0.7,1.5-1.5,1.5
			s-1.5-0.7-1.5-1.5S204.6,215,205.5,215z M205.5,223.5c0.8,0,1.5,0.7,1.5,1.5s-0.7,1.5-1.5,1.5s-1.5-0.7-1.5-1.5
			C204,224.1,204.6,223.5,205.5,223.5z M197,138.4c0.8,0,1.5,0.7,1.5,1.5s-0.7,1.5-1.5,1.5s-1.5-0.7-1.5-1.5
			C195.5,139.1,196.1,138.4,197,138.4z M197,146.9c0.8,0,1.5,0.7,1.5,1.5s-0.7,1.5-1.5,1.5s-1.5-0.7-1.5-1.5S196.1,146.9,197,146.9z
			 M197,155.4c0.8,0,1.5,0.7,1.5,1.5s-0.7,1.5-1.5,1.5s-1.5-0.7-1.5-1.5C195.5,156.1,196.1,155.4,197,155.4z M197,163.9
			c0.8,0,1.5,0.7,1.5,1.5s-0.7,1.5-1.5,1.5s-1.5-0.7-1.5-1.5S196.1,163.9,197,163.9z M197,172.5c0.8,0,1.5,0.7,1.5,1.5
			s-0.7,1.5-1.5,1.5s-1.5-0.7-1.5-1.5C195.5,173.1,196.1,172.5,197,172.5z M197,181c0.8,0,1.5,0.7,1.5,1.5s-0.7,1.5-1.5,1.5
			s-1.5-0.7-1.5-1.5S196.1,181,197,181z M197,189.5c0.8,0,1.5,0.7,1.5,1.5s-0.7,1.5-1.5,1.5s-1.5-0.7-1.5-1.5
			C195.5,190.1,196.1,189.5,197,189.5z M197,198c0.8,0,1.5,0.7,1.5,1.5s-0.7,1.5-1.5,1.5s-1.5-0.7-1.5-1.5S196.1,198,197,198z
			 M197,206.5c0.8,0,1.5,0.7,1.5,1.5s-0.7,1.5-1.5,1.5s-1.5-0.7-1.5-1.5C195.5,207.1,196.1,206.5,197,206.5z M197,215
			c0.8,0,1.5,0.7,1.5,1.5s-0.7,1.5-1.5,1.5s-1.5-0.7-1.5-1.5S196.1,215,197,215z M197,223.5c0.8,0,1.5,0.7,1.5,1.5s-0.7,1.5-1.5,1.5
			s-1.5-0.7-1.5-1.5C195.5,224.1,196.1,223.5,197,223.5z M188.4,138.4c0.8,0,1.5,0.7,1.5,1.5s-0.7,1.5-1.5,1.5s-1.5-0.7-1.5-1.5
			C187,139.1,187.6,138.4,188.4,138.4z M188.4,146.9c0.8,0,1.5,0.7,1.5,1.5s-0.7,1.5-1.5,1.5s-1.5-0.7-1.5-1.5
			S187.6,146.9,188.4,146.9z M188.4,155.4c0.8,0,1.5,0.7,1.5,1.5s-0.7,1.5-1.5,1.5s-1.5-0.7-1.5-1.5
			C187,156.1,187.6,155.4,188.4,155.4z M188.4,163.9c0.8,0,1.5,0.7,1.5,1.5s-0.7,1.5-1.5,1.5s-1.5-0.7-1.5-1.5
			S187.6,163.9,188.4,163.9z M188.4,172.5c0.8,0,1.5,0.7,1.5,1.5s-0.7,1.5-1.5,1.5s-1.5-0.7-1.5-1.5
			C187,173.1,187.6,172.5,188.4,172.5z M188.4,181c0.8,0,1.5,0.7,1.5,1.5s-0.7,1.5-1.5,1.5s-1.5-0.7-1.5-1.5S187.6,181,188.4,181z
			 M188.4,189.5c0.8,0,1.5,0.7,1.5,1.5s-0.7,1.5-1.5,1.5s-1.5-0.7-1.5-1.5C187,190.1,187.6,189.5,188.4,189.5z M188.4,198
			c0.8,0,1.5,0.7,1.5,1.5s-0.7,1.5-1.5,1.5s-1.5-0.7-1.5-1.5S187.6,198,188.4,198z M188.4,206.5c0.8,0,1.5,0.7,1.5,1.5
			s-0.7,1.5-1.5,1.5s-1.5-0.7-1.5-1.5C187,207.1,187.6,206.5,188.4,206.5z M188.4,215c0.8,0,1.5,0.7,1.5,1.5s-0.7,1.5-1.5,1.5
			s-1.5-0.7-1.5-1.5S187.6,215,188.4,215z M188.4,223.5c0.8,0,1.5,0.7,1.5,1.5s-0.7,1.5-1.5,1.5s-1.5-0.7-1.5-1.5
			C187,224.1,187.6,223.5,188.4,223.5z M179.9,138.4c0.8,0,1.5,0.7,1.5,1.5s-0.7,1.5-1.5,1.5s-1.5-0.7-1.5-1.5
			C178.5,139.1,179.1,138.4,179.9,138.4z M179.9,146.9c0.8,0,1.5,0.7,1.5,1.5s-0.7,1.5-1.5,1.5s-1.5-0.7-1.5-1.5
			S179.1,146.9,179.9,146.9z M179.9,155.4c0.8,0,1.5,0.7,1.5,1.5s-0.7,1.5-1.5,1.5s-1.5-0.7-1.5-1.5
			C178.5,156.1,179.1,155.4,179.9,155.4z M179.9,163.9c0.8,0,1.5,0.7,1.5,1.5s-0.7,1.5-1.5,1.5s-1.5-0.7-1.5-1.5
			S179.1,163.9,179.9,163.9z M179.9,172.5c0.8,0,1.5,0.7,1.5,1.5s-0.7,1.5-1.5,1.5s-1.5-0.7-1.5-1.5
			C178.5,173.1,179.1,172.5,179.9,172.5z M179.9,181c0.8,0,1.5,0.7,1.5,1.5s-0.7,1.5-1.5,1.5s-1.5-0.7-1.5-1.5S179.1,181,179.9,181z
			 M179.9,189.5c0.8,0,1.5,0.7,1.5,1.5s-0.7,1.5-1.5,1.5s-1.5-0.7-1.5-1.5C178.5,190.1,179.1,189.5,179.9,189.5z M179.9,198
			c0.8,0,1.5,0.7,1.5,1.5s-0.7,1.5-1.5,1.5s-1.5-0.7-1.5-1.5S179.1,198,179.9,198z M179.9,206.5c0.8,0,1.5,0.7,1.5,1.5
			s-0.7,1.5-1.5,1.5s-1.5-0.7-1.5-1.5C178.5,207.1,179.1,206.5,179.9,206.5z M179.9,215c0.8,0,1.5,0.7,1.5,1.5s-0.7,1.5-1.5,1.5
			s-1.5-0.7-1.5-1.5S179.1,215,179.9,215z M179.9,223.5c0.8,0,1.5,0.7,1.5,1.5s-0.7,1.5-1.5,1.5s-1.5-0.7-1.5-1.5
			C178.5,224.1,179.1,223.5,179.9,223.5z M171.4,138.4c0.8,0,1.5,0.7,1.5,1.5s-0.7,1.5-1.5,1.5s-1.5-0.7-1.5-1.5
			C170,139.1,170.6,138.4,171.4,138.4z M171.4,146.9c0.8,0,1.5,0.7,1.5,1.5s-0.7,1.5-1.5,1.5s-1.5-0.7-1.5-1.5
			S170.6,146.9,171.4,146.9z M171.4,155.4c0.8,0,1.5,0.7,1.5,1.5s-0.7,1.5-1.5,1.5s-1.5-0.7-1.5-1.5
			C170,156.1,170.6,155.4,171.4,155.4z M171.4,163.9c0.8,0,1.5,0.7,1.5,1.5s-0.7,1.5-1.5,1.5s-1.5-0.7-1.5-1.5
			S170.6,163.9,171.4,163.9z M171.4,172.5c0.8,0,1.5,0.7,1.5,1.5s-0.7,1.5-1.5,1.5s-1.5-0.7-1.5-1.5
			C170,173.1,170.6,172.5,171.4,172.5z M171.4,181c0.8,0,1.5,0.7,1.5,1.5s-0.7,1.5-1.5,1.5s-1.5-0.7-1.5-1.5S170.6,181,171.4,181z
			 M171.4,189.5c0.8,0,1.5,0.7,1.5,1.5s-0.7,1.5-1.5,1.5s-1.5-0.7-1.5-1.5C170,190.1,170.6,189.5,171.4,189.5z M171.4,198
			c0.8,0,1.5,0.7,1.5,1.5s-0.7,1.5-1.5,1.5s-1.5-0.7-1.5-1.5S170.6,198,171.4,198z M171.4,206.5c0.8,0,1.5,0.7,1.5,1.5
			s-0.7,1.5-1.5,1.5s-1.5-0.7-1.5-1.5C170,207.1,170.6,206.5,171.4,206.5z M171.4,215c0.8,0,1.5,0.7,1.5,1.5s-0.7,1.5-1.5,1.5
			s-1.5-0.7-1.5-1.5S170.6,215,171.4,215z M171.4,223.5c0.8,0,1.5,0.7,1.5,1.5s-0.7,1.5-1.5,1.5s-1.5-0.7-1.5-1.5
			C170,224.1,170.6,223.5,171.4,223.5z M162.9,146.9c0.8,0,1.5,0.7,1.5,1.5s-0.7,1.5-1.5,1.5s-1.5-0.7-1.5-1.5
			S162.1,146.9,162.9,146.9z M162.9,155.4c0.8,0,1.5,0.7,1.5,1.5s-0.7,1.5-1.5,1.5s-1.5-0.7-1.5-1.5
			C161.5,156.1,162.1,155.4,162.9,155.4z M162.9,163.9c0.8,0,1.5,0.7,1.5,1.5s-0.7,1.5-1.5,1.5s-1.5-0.7-1.5-1.5
			S162.1,163.9,162.9,163.9z M162.9,172.5c0.8,0,1.5,0.7,1.5,1.5s-0.7,1.5-1.5,1.5s-1.5-0.7-1.5-1.5
			C161.5,173.1,162.1,172.5,162.9,172.5z M162.9,181c0.8,0,1.5,0.7,1.5,1.5s-0.7,1.5-1.5,1.5s-1.5-0.7-1.5-1.5S162.1,181,162.9,181z
			 M162.9,189.5c0.8,0,1.5,0.7,1.5,1.5s-0.7,1.5-1.5,1.5s-1.5-0.7-1.5-1.5C161.5,190.1,162.1,189.5,162.9,189.5z M162.9,198
			c0.8,0,1.5,0.7,1.5,1.5s-0.7,1.5-1.5,1.5s-1.5-0.7-1.5-1.5S162.1,198,162.9,198z M162.9,206.5c0.8,0,1.5,0.7,1.5,1.5
			s-0.7,1.5-1.5,1.5s-1.5-0.7-1.5-1.5C161.5,207.1,162.1,206.5,162.9,206.5z M162.9,215c0.8,0,1.5,0.7,1.5,1.5s-0.7,1.5-1.5,1.5
			s-1.5-0.7-1.5-1.5S162.1,215,162.9,215z M162.9,223.5c0.8,0,1.5,0.7,1.5,1.5s-0.7,1.5-1.5,1.5s-1.5-0.7-1.5-1.5
			C161.5,224.1,162.1,223.5,162.9,223.5z M154.4,138.4c0.8,0,1.5,0.7,1.5,1.5s-0.7,1.5-1.5,1.5s-1.5-0.7-1.5-1.5
			C153,139.1,153.6,138.4,154.4,138.4z M154.4,146.9c0.8,0,1.5,0.7,1.5,1.5s-0.7,1.5-1.5,1.5s-1.5-0.7-1.5-1.5
			S153.6,146.9,154.4,146.9z M154.4,155.4c0.8,0,1.5,0.7,1.5,1.5s-0.7,1.5-1.5,1.5s-1.5-0.7-1.5-1.5
			C153,156.1,153.6,155.4,154.4,155.4z M154.4,163.9c0.8,0,1.5,0.7,1.5,1.5s-0.7,1.5-1.5,1.5s-1.5-0.7-1.5-1.5
			S153.6,163.9,154.4,163.9z M154.4,172.5c0.8,0,1.5,0.7,1.5,1.5s-0.7,1.5-1.5,1.5s-1.5-0.7-1.5-1.5
			C153,173.1,153.6,172.5,154.4,172.5z M154.4,181c0.8,0,1.5,0.7,1.5,1.5s-0.7,1.5-1.5,1.5s-1.5-0.7-1.5-1.5S153.6,181,154.4,181z
			 M154.4,189.5c0.8,0,1.5,0.7,1.5,1.5s-0.7,1.5-1.5,1.5s-1.5-0.7-1.5-1.5C153,190.1,153.6,189.5,154.4,189.5z M154.4,198
			c0.8,0,1.5,0.7,1.5,1.5s-0.7,1.5-1.5,1.5s-1.5-0.7-1.5-1.5S153.6,198,154.4,198z M154.4,206.5c0.8,0,1.5,0.7,1.5,1.5
			s-0.7,1.5-1.5,1.5s-1.5-0.7-1.5-1.5C153,207.1,153.6,206.5,154.4,206.5z M154.4,215c0.8,0,1.5,0.7,1.5,1.5s-0.7,1.5-1.5,1.5
			s-1.5-0.7-1.5-1.5S153.6,215,154.4,215z M154.4,223.5c0.8,0,1.5,0.7,1.5,1.5s-0.7,1.5-1.5,1.5s-1.5-0.7-1.5-1.5
			C153,224.1,153.6,223.5,154.4,223.5z M145.9,129.9c0.8,0,1.5,0.7,1.5,1.5s-0.7,1.5-1.5,1.5s-1.5-0.7-1.5-1.5
			S145.1,129.9,145.9,129.9z M145.9,138.4c0.8,0,1.5,0.7,1.5,1.5s-0.7,1.5-1.5,1.5s-1.5-0.7-1.5-1.5
			C144.5,139.1,145.1,138.4,145.9,138.4z M145.9,146.9c0.8,0,1.5,0.7,1.5,1.5s-0.7,1.5-1.5,1.5s-1.5-0.7-1.5-1.5
			S145.1,146.9,145.9,146.9z M145.9,155.4c0.8,0,1.5,0.7,1.5,1.5s-0.7,1.5-1.5,1.5s-1.5-0.7-1.5-1.5
			C144.5,156.1,145.1,155.4,145.9,155.4z M145.9,163.9c0.8,0,1.5,0.7,1.5,1.5s-0.7,1.5-1.5,1.5s-1.5-0.7-1.5-1.5
			S145.1,163.9,145.9,163.9z M145.9,172.5c0.8,0,1.5,0.7,1.5,1.5s-0.7,1.5-1.5,1.5s-1.5-0.7-1.5-1.5
			C144.5,173.1,145.1,172.5,145.9,172.5z M145.9,181c0.8,0,1.5,0.7,1.5,1.5s-0.7,1.5-1.5,1.5s-1.5-0.7-1.5-1.5S145.1,181,145.9,181z
			 M145.9,189.5c0.8,0,1.5,0.7,1.5,1.5s-0.7,1.5-1.5,1.5s-1.5-0.7-1.5-1.5C144.5,190.1,145.1,189.5,145.9,189.5z M145.9,198
			c0.8,0,1.5,0.7,1.5,1.5s-0.7,1.5-1.5,1.5s-1.5-0.7-1.5-1.5S145.1,198,145.9,198z M145.9,206.5c0.8,0,1.5,0.7,1.5,1.5
			s-0.7,1.5-1.5,1.5s-1.5-0.7-1.5-1.5C144.5,207.1,145.1,206.5,145.9,206.5z M145.9,215c0.8,0,1.5,0.7,1.5,1.5s-0.7,1.5-1.5,1.5
			s-1.5-0.7-1.5-1.5S145.1,215,145.9,215z M145.9,223.5c0.8,0,1.5,0.7,1.5,1.5s-0.7,1.5-1.5,1.5s-1.5-0.7-1.5-1.5
			C144.5,224.1,145.1,223.5,145.9,223.5z M137.4,121.4c0.8,0,1.5,0.7,1.5,1.5s-0.7,1.5-1.5,1.5s-1.5-0.7-1.5-1.5
			S136.6,121.4,137.4,121.4z M137.4,129.9c0.8,0,1.5,0.7,1.5,1.5s-0.7,1.5-1.5,1.5s-1.5-0.7-1.5-1.5S136.6,129.9,137.4,129.9z
			 M137.4,138.4c0.8,0,1.5,0.7,1.5,1.5s-0.7,1.5-1.5,1.5s-1.5-0.7-1.5-1.5C135.9,139.1,136.6,138.4,137.4,138.4z M137.4,146.9
			c0.8,0,1.5,0.7,1.5,1.5s-0.7,1.5-1.5,1.5s-1.5-0.7-1.5-1.5S136.6,146.9,137.4,146.9z M137.4,155.4c0.8,0,1.5,0.7,1.5,1.5
			s-0.7,1.5-1.5,1.5s-1.5-0.7-1.5-1.5C135.9,156.1,136.6,155.4,137.4,155.4z M137.4,163.9c0.8,0,1.5,0.7,1.5,1.5s-0.7,1.5-1.5,1.5
			s-1.5-0.7-1.5-1.5S136.6,163.9,137.4,163.9z M137.4,172.5c0.8,0,1.5,0.7,1.5,1.5s-0.7,1.5-1.5,1.5s-1.5-0.7-1.5-1.5
			C135.9,173.1,136.6,172.5,137.4,172.5z M137.4,181c0.8,0,1.5,0.7,1.5,1.5s-0.7,1.5-1.5,1.5s-1.5-0.7-1.5-1.5S136.6,181,137.4,181z
			 M137.4,189.5c0.8,0,1.5,0.7,1.5,1.5s-0.7,1.5-1.5,1.5s-1.5-0.7-1.5-1.5C135.9,190.1,136.6,189.5,137.4,189.5z M137.4,198
			c0.8,0,1.5,0.7,1.5,1.5s-0.7,1.5-1.5,1.5s-1.5-0.7-1.5-1.5S136.6,198,137.4,198z M137.4,206.5c0.8,0,1.5,0.7,1.5,1.5
			s-0.7,1.5-1.5,1.5s-1.5-0.7-1.5-1.5C135.9,207.1,136.6,206.5,137.4,206.5z M137.4,215c0.8,0,1.5,0.7,1.5,1.5s-0.7,1.5-1.5,1.5
			s-1.5-0.7-1.5-1.5S136.6,215,137.4,215z M137.4,223.5c0.8,0,1.5,0.7,1.5,1.5s-0.7,1.5-1.5,1.5s-1.5-0.7-1.5-1.5
			C135.9,224.1,136.6,223.5,137.4,223.5z M128.9,112.9c0.8,0,1.5,0.7,1.5,1.5s-0.7,1.5-1.5,1.5s-1.5-0.7-1.5-1.5
			S128.1,112.9,128.9,112.9z M128.9,121.4c0.8,0,1.5,0.7,1.5,1.5s-0.7,1.5-1.5,1.5s-1.5-0.7-1.5-1.5
			C127.4,122.1,128.1,121.4,128.9,121.4z M128.9,129.9c0.8,0,1.5,0.7,1.5,1.5s-0.7,1.5-1.5,1.5s-1.5-0.7-1.5-1.5
			S128.1,129.9,128.9,129.9z M128.9,138.4c0.8,0,1.5,0.7,1.5,1.5s-0.7,1.5-1.5,1.5s-1.5-0.7-1.5-1.5
			C127.4,139.1,128.1,138.4,128.9,138.4z M128.9,146.9c0.8,0,1.5,0.7,1.5,1.5s-0.7,1.5-1.5,1.5s-1.5-0.7-1.5-1.5
			S128.1,146.9,128.9,146.9z M128.9,155.4c0.8,0,1.5,0.7,1.5,1.5s-0.7,1.5-1.5,1.5s-1.5-0.7-1.5-1.5
			C127.4,156.1,128.1,155.4,128.9,155.4z M128.9,163.9c0.8,0,1.5,0.7,1.5,1.5s-0.7,1.5-1.5,1.5s-1.5-0.7-1.5-1.5
			S128.1,163.9,128.9,163.9z M128.9,172.5c0.8,0,1.5,0.7,1.5,1.5s-0.7,1.5-1.5,1.5s-1.5-0.7-1.5-1.5
			C127.4,173.1,128.1,172.5,128.9,172.5z M128.9,181c0.8,0,1.5,0.7,1.5,1.5s-0.7,1.5-1.5,1.5s-1.5-0.7-1.5-1.5S128.1,181,128.9,181z
			 M128.9,189.5c0.8,0,1.5,0.7,1.5,1.5s-0.7,1.5-1.5,1.5s-1.5-0.7-1.5-1.5C127.4,190.1,128.1,189.5,128.9,189.5z M128.9,198
			c0.8,0,1.5,0.7,1.5,1.5s-0.7,1.5-1.5,1.5s-1.5-0.7-1.5-1.5S128.1,198,128.9,198z M128.9,206.5c0.8,0,1.5,0.7,1.5,1.5
			s-0.7,1.5-1.5,1.5s-1.5-0.7-1.5-1.5C127.4,207.1,128.1,206.5,128.9,206.5z M128.9,215c0.8,0,1.5,0.7,1.5,1.5s-0.7,1.5-1.5,1.5
			s-1.5-0.7-1.5-1.5S128.1,215,128.9,215z M128.9,223.5c0.8,0,1.5,0.7,1.5,1.5s-0.7,1.5-1.5,1.5s-1.5-0.7-1.5-1.5
			C127.4,224.1,128.1,223.5,128.9,223.5z M120.4,112.9c0.8,0,1.5,0.7,1.5,1.5s-0.7,1.5-1.5,1.5s-1.5-0.7-1.5-1.5
			S119.6,112.9,120.4,112.9z M120.4,121.4c0.8,0,1.5,0.7,1.5,1.5s-0.7,1.5-1.5,1.5s-1.5-0.7-1.5-1.5S119.6,121.4,120.4,121.4z
			 M120.4,129.9c0.8,0,1.5,0.7,1.5,1.5s-0.7,1.5-1.5,1.5s-1.5-0.7-1.5-1.5S119.6,129.9,120.4,129.9z M120.4,138.4
			c0.8,0,1.5,0.7,1.5,1.5s-0.7,1.5-1.5,1.5s-1.5-0.7-1.5-1.5C118.9,139.1,119.6,138.4,120.4,138.4z M120.4,146.9
			c0.8,0,1.5,0.7,1.5,1.5s-0.7,1.5-1.5,1.5s-1.5-0.7-1.5-1.5S119.6,146.9,120.4,146.9z M120.4,155.4c0.8,0,1.5,0.7,1.5,1.5
			s-0.7,1.5-1.5,1.5s-1.5-0.7-1.5-1.5C118.9,156.1,119.6,155.4,120.4,155.4z M120.4,163.9c0.8,0,1.5,0.7,1.5,1.5s-0.7,1.5-1.5,1.5
			s-1.5-0.7-1.5-1.5S119.6,163.9,120.4,163.9z M120.4,172.5c0.8,0,1.5,0.7,1.5,1.5s-0.7,1.5-1.5,1.5s-1.5-0.7-1.5-1.5
			C118.9,173.1,119.6,172.5,120.4,172.5z M120.4,181c0.8,0,1.5,0.7,1.5,1.5s-0.7,1.5-1.5,1.5s-1.5-0.7-1.5-1.5S119.6,181,120.4,181z
			 M120.4,189.5c0.8,0,1.5,0.7,1.5,1.5s-0.7,1.5-1.5,1.5s-1.5-0.7-1.5-1.5C118.9,190.1,119.6,189.5,120.4,189.5z M120.4,198
			c0.8,0,1.5,0.7,1.5,1.5s-0.7,1.5-1.5,1.5s-1.5-0.7-1.5-1.5S119.6,198,120.4,198z M120.4,206.5c0.8,0,1.5,0.7,1.5,1.5
			s-0.7,1.5-1.5,1.5s-1.5-0.7-1.5-1.5C118.9,207.1,119.6,206.5,120.4,206.5z M120.4,215c0.8,0,1.5,0.7,1.5,1.5s-0.7,1.5-1.5,1.5
			s-1.5-0.7-1.5-1.5S119.6,215,120.4,215z M120.4,223.5c0.8,0,1.5,0.7,1.5,1.5s-0.7,1.5-1.5,1.5s-1.5-0.7-1.5-1.5
			C118.9,224.1,119.6,223.5,120.4,223.5z M111.9,104.4c0.8,0,1.5,0.7,1.5,1.5s-0.7,1.5-1.5,1.5s-1.5-0.7-1.5-1.5
			S111.1,104.4,111.9,104.4z M111.9,112.9c0.8,0,1.5,0.7,1.5,1.5s-0.7,1.5-1.5,1.5s-1.5-0.7-1.5-1.5S111.1,112.9,111.9,112.9z
			 M111.9,121.4c0.8,0,1.5,0.7,1.5,1.5s-0.7,1.5-1.5,1.5s-1.5-0.7-1.5-1.5S111.1,121.4,111.9,121.4z M111.9,129.9
			c0.8,0,1.5,0.7,1.5,1.5s-0.7,1.5-1.5,1.5s-1.5-0.7-1.5-1.5S111.1,129.9,111.9,129.9z M111.9,138.4c0.8,0,1.5,0.7,1.5,1.5
			s-0.7,1.5-1.5,1.5s-1.5-0.7-1.5-1.5C110.4,139.1,111.1,138.4,111.9,138.4z M111.9,146.9c0.8,0,1.5,0.7,1.5,1.5s-0.7,1.5-1.5,1.5
			s-1.5-0.7-1.5-1.5S111.1,146.9,111.9,146.9z M111.9,155.4c0.8,0,1.5,0.7,1.5,1.5s-0.7,1.5-1.5,1.5s-1.5-0.7-1.5-1.5
			C110.4,156.1,111.1,155.4,111.9,155.4z M111.9,163.9c0.8,0,1.5,0.7,1.5,1.5s-0.7,1.5-1.5,1.5s-1.5-0.7-1.5-1.5
			S111.1,163.9,111.9,163.9z M111.9,172.5c0.8,0,1.5,0.7,1.5,1.5s-0.7,1.5-1.5,1.5s-1.5-0.7-1.5-1.5
			C110.4,173.1,111.1,172.5,111.9,172.5z M111.9,181c0.8,0,1.5,0.7,1.5,1.5s-0.7,1.5-1.5,1.5s-1.5-0.7-1.5-1.5S111.1,181,111.9,181z
			 M111.9,189.5c0.8,0,1.5,0.7,1.5,1.5s-0.7,1.5-1.5,1.5s-1.5-0.7-1.5-1.5C110.4,190.1,111.1,189.5,111.9,189.5z M111.9,198
			c0.8,0,1.5,0.7,1.5,1.5s-0.7,1.5-1.5,1.5s-1.5-0.7-1.5-1.5S111.1,198,111.9,198z M111.9,206.5c0.8,0,1.5,0.7,1.5,1.5
			s-0.7,1.5-1.5,1.5s-1.5-0.7-1.5-1.5C110.4,207.1,111.1,206.5,111.9,206.5z M111.9,215c0.8,0,1.5,0.7,1.5,1.5s-0.7,1.5-1.5,1.5
			s-1.5-0.7-1.5-1.5S111.1,215,111.9,215z M111.9,223.5c0.8,0,1.5,0.7,1.5,1.5s-0.7,1.5-1.5,1.5s-1.5-0.7-1.5-1.5
			C110.4,224.1,111.1,223.5,111.9,223.5z M103.4,95.9c0.8,0,1.5,0.7,1.5,1.5s-0.7,1.5-1.5,1.5s-1.5-0.7-1.5-1.5
			S102.6,95.9,103.4,95.9z M103.4,104.4c0.8,0,1.5,0.7,1.5,1.5s-0.7,1.5-1.5,1.5s-1.5-0.7-1.5-1.5S102.6,104.4,103.4,104.4z
			 M103.4,112.9c0.8,0,1.5,0.7,1.5,1.5s-0.7,1.5-1.5,1.5s-1.5-0.7-1.5-1.5S102.6,112.9,103.4,112.9z M103.4,121.4
			c0.8,0,1.5,0.7,1.5,1.5s-0.7,1.5-1.5,1.5s-1.5-0.7-1.5-1.5S102.6,121.4,103.4,121.4z M103.4,129.9c0.8,0,1.5,0.7,1.5,1.5
			s-0.7,1.5-1.5,1.5s-1.5-0.7-1.5-1.5S102.6,129.9,103.4,129.9z M103.4,138.4c0.8,0,1.5,0.7,1.5,1.5s-0.7,1.5-1.5,1.5
			s-1.5-0.7-1.5-1.5C101.9,139.1,102.6,138.4,103.4,138.4z M103.4,146.9c0.8,0,1.5,0.7,1.5,1.5s-0.7,1.5-1.5,1.5s-1.5-0.7-1.5-1.5
			S102.6,146.9,103.4,146.9z M103.4,155.4c0.8,0,1.5,0.7,1.5,1.5s-0.7,1.5-1.5,1.5s-1.5-0.7-1.5-1.5
			C101.9,156.1,102.6,155.4,103.4,155.4z M103.4,163.9c0.8,0,1.5,0.7,1.5,1.5s-0.7,1.5-1.5,1.5s-1.5-0.7-1.5-1.5
			S102.6,163.9,103.4,163.9z M103.4,172.5c0.8,0,1.5,0.7,1.5,1.5s-0.7,1.5-1.5,1.5s-1.5-0.7-1.5-1.5
			C101.9,173.1,102.6,172.5,103.4,172.5z M103.4,181c0.8,0,1.5,0.7,1.5,1.5s-0.7,1.5-1.5,1.5s-1.5-0.7-1.5-1.5S102.6,181,103.4,181z
			 M103.4,189.5c0.8,0,1.5,0.7,1.5,1.5s-0.7,1.5-1.5,1.5s-1.5-0.7-1.5-1.5C101.9,190.1,102.6,189.5,103.4,189.5z M103.4,198
			c0.8,0,1.5,0.7,1.5,1.5s-0.7,1.5-1.5,1.5s-1.5-0.7-1.5-1.5S102.6,198,103.4,198z M103.4,206.5c0.8,0,1.5,0.7,1.5,1.5
			s-0.7,1.5-1.5,1.5s-1.5-0.7-1.5-1.5C101.9,207.1,102.6,206.5,103.4,206.5z M103.4,215c0.8,0,1.5,0.7,1.5,1.5s-0.7,1.5-1.5,1.5
			s-1.5-0.7-1.5-1.5S102.6,215,103.4,215z M103.4,223.5c0.8,0,1.5,0.7,1.5,1.5s-0.7,1.5-1.5,1.5s-1.5-0.7-1.5-1.5
			C101.9,224.1,102.6,223.5,103.4,223.5z M94.9,95.9c0.8,0,1.5,0.7,1.5,1.5s-0.7,1.5-1.5,1.5s-1.5-0.7-1.5-1.5S94.1,95.9,94.9,95.9z
			 M94.9,104.4c0.8,0,1.5,0.7,1.5,1.5s-0.7,1.5-1.5,1.5s-1.5-0.7-1.5-1.5S94.1,104.4,94.9,104.4z M94.9,112.9c0.8,0,1.5,0.7,1.5,1.5
			s-0.7,1.5-1.5,1.5s-1.5-0.7-1.5-1.5S94.1,112.9,94.9,112.9z M94.9,121.4c0.8,0,1.5,0.7,1.5,1.5s-0.7,1.5-1.5,1.5s-1.5-0.7-1.5-1.5
			S94.1,121.4,94.9,121.4z M94.9,129.9c0.8,0,1.5,0.7,1.5,1.5s-0.7,1.5-1.5,1.5s-1.5-0.7-1.5-1.5S94.1,129.9,94.9,129.9z
			 M94.9,138.4c0.8,0,1.5,0.7,1.5,1.5s-0.7,1.5-1.5,1.5s-1.5-0.7-1.5-1.5C93.4,139.1,94.1,138.4,94.9,138.4z M94.9,146.9
			c0.8,0,1.5,0.7,1.5,1.5s-0.7,1.5-1.5,1.5s-1.5-0.7-1.5-1.5S94.1,146.9,94.9,146.9z M94.9,155.4c0.8,0,1.5,0.7,1.5,1.5
			s-0.7,1.5-1.5,1.5s-1.5-0.7-1.5-1.5C93.4,156.1,94.1,155.4,94.9,155.4z M94.9,163.9c0.8,0,1.5,0.7,1.5,1.5s-0.7,1.5-1.5,1.5
			s-1.5-0.7-1.5-1.5S94.1,163.9,94.9,163.9z M94.9,172.5c0.8,0,1.5,0.7,1.5,1.5s-0.7,1.5-1.5,1.5s-1.5-0.7-1.5-1.5
			C93.4,173.1,94.1,172.5,94.9,172.5z M94.9,181c0.8,0,1.5,0.7,1.5,1.5s-0.7,1.5-1.5,1.5s-1.5-0.7-1.5-1.5S94.1,181,94.9,181z
			 M94.9,189.5c0.8,0,1.5,0.7,1.5,1.5s-0.7,1.5-1.5,1.5s-1.5-0.7-1.5-1.5C93.4,190.1,94.1,189.5,94.9,189.5z M94.9,198
			c0.8,0,1.5,0.7,1.5,1.5s-0.7,1.5-1.5,1.5s-1.5-0.7-1.5-1.5S94.1,198,94.9,198z M94.9,206.5c0.8,0,1.5,0.7,1.5,1.5
			s-0.7,1.5-1.5,1.5s-1.5-0.7-1.5-1.5C93.4,207.1,94.1,206.5,94.9,206.5z M94.9,215c0.8,0,1.5,0.7,1.5,1.5s-0.7,1.5-1.5,1.5
			s-1.5-0.7-1.5-1.5S94.1,215,94.9,215z M94.9,223.5c0.8,0,1.5,0.7,1.5,1.5s-0.7,1.5-1.5,1.5s-1.5-0.7-1.5-1.5
			C93.4,224.1,94.1,223.5,94.9,223.5z M86.4,87.4c0.8,0,1.5,0.7,1.5,1.5s-0.7,1.5-1.5,1.5s-1.5-0.7-1.5-1.5S85.6,87.4,86.4,87.4z
			 M86.4,95.9c0.8,0,1.5,0.7,1.5,1.5s-0.7,1.5-1.5,1.5s-1.5-0.7-1.5-1.5S85.6,95.9,86.4,95.9z M86.4,104.4c0.8,0,1.5,0.7,1.5,1.5
			s-0.7,1.5-1.5,1.5s-1.5-0.7-1.5-1.5S85.6,104.4,86.4,104.4z M86.4,112.9c0.8,0,1.5,0.7,1.5,1.5s-0.7,1.5-1.5,1.5s-1.5-0.7-1.5-1.5
			S85.6,112.9,86.4,112.9z M86.4,121.4c0.8,0,1.5,0.7,1.5,1.5s-0.7,1.5-1.5,1.5s-1.5-0.7-1.5-1.5S85.6,121.4,86.4,121.4z
			 M86.4,129.9c0.8,0,1.5,0.7,1.5,1.5s-0.7,1.5-1.5,1.5s-1.5-0.7-1.5-1.5S85.6,129.9,86.4,129.9z M86.4,138.4c0.8,0,1.5,0.7,1.5,1.5
			s-0.7,1.5-1.5,1.5s-1.5-0.7-1.5-1.5C84.9,139.1,85.6,138.4,86.4,138.4z M86.4,146.9c0.8,0,1.5,0.7,1.5,1.5s-0.7,1.5-1.5,1.5
			s-1.5-0.7-1.5-1.5S85.6,146.9,86.4,146.9z M86.4,155.4c0.8,0,1.5,0.7,1.5,1.5s-0.7,1.5-1.5,1.5s-1.5-0.7-1.5-1.5
			C84.9,156.1,85.6,155.4,86.4,155.4z M86.4,163.9c0.8,0,1.5,0.7,1.5,1.5s-0.7,1.5-1.5,1.5s-1.5-0.7-1.5-1.5S85.6,163.9,86.4,163.9z
			 M86.4,172.5c0.8,0,1.5,0.7,1.5,1.5s-0.7,1.5-1.5,1.5s-1.5-0.7-1.5-1.5C84.9,173.1,85.6,172.5,86.4,172.5z M86.4,181
			c0.8,0,1.5,0.7,1.5,1.5s-0.7,1.5-1.5,1.5s-1.5-0.7-1.5-1.5S85.6,181,86.4,181z M86.4,189.5c0.8,0,1.5,0.7,1.5,1.5
			s-0.7,1.5-1.5,1.5s-1.5-0.7-1.5-1.5C84.9,190.1,85.6,189.5,86.4,189.5z M86.4,198c0.8,0,1.5,0.7,1.5,1.5s-0.7,1.5-1.5,1.5
			s-1.5-0.7-1.5-1.5S85.6,198,86.4,198z M86.4,206.5c0.8,0,1.5,0.7,1.5,1.5s-0.7,1.5-1.5,1.5s-1.5-0.7-1.5-1.5
			C84.9,207.1,85.6,206.5,86.4,206.5z M86.4,215c0.8,0,1.5,0.7,1.5,1.5s-0.7,1.5-1.5,1.5s-1.5-0.7-1.5-1.5S85.6,215,86.4,215z
			 M86.4,223.5c0.8,0,1.5,0.7,1.5,1.5s-0.7,1.5-1.5,1.5s-1.5-0.7-1.5-1.5C84.9,224.1,85.6,223.5,86.4,223.5z M77.9,87.4
			c0.8,0,1.5,0.7,1.5,1.5s-0.7,1.5-1.5,1.5s-1.5-0.7-1.5-1.5S77.1,87.4,77.9,87.4z M77.9,95.9c0.8,0,1.5,0.7,1.5,1.5
			s-0.7,1.5-1.5,1.5s-1.5-0.7-1.5-1.5S77.1,95.9,77.9,95.9z M77.9,104.4c0.8,0,1.5,0.7,1.5,1.5s-0.7,1.5-1.5,1.5s-1.5-0.7-1.5-1.5
			S77.1,104.4,77.9,104.4z M77.9,112.9c0.8,0,1.5,0.7,1.5,1.5s-0.7,1.5-1.5,1.5s-1.5-0.7-1.5-1.5S77.1,112.9,77.9,112.9z
			 M77.9,121.4c0.8,0,1.5,0.7,1.5,1.5s-0.7,1.5-1.5,1.5s-1.5-0.7-1.5-1.5S77.1,121.4,77.9,121.4z M77.9,129.9c0.8,0,1.5,0.7,1.5,1.5
			s-0.7,1.5-1.5,1.5s-1.5-0.7-1.5-1.5S77.1,129.9,77.9,129.9z M77.9,138.4c0.8,0,1.5,0.7,1.5,1.5s-0.7,1.5-1.5,1.5s-1.5-0.7-1.5-1.5
			C76.4,139.1,77.1,138.4,77.9,138.4z M77.9,146.9c0.8,0,1.5,0.7,1.5,1.5s-0.7,1.5-1.5,1.5s-1.5-0.7-1.5-1.5S77.1,146.9,77.9,146.9z
			 M77.9,155.4c0.8,0,1.5,0.7,1.5,1.5s-0.7,1.5-1.5,1.5s-1.5-0.7-1.5-1.5C76.4,156.1,77.1,155.4,77.9,155.4z M77.9,163.9
			c0.8,0,1.5,0.7,1.5,1.5s-0.7,1.5-1.5,1.5s-1.5-0.7-1.5-1.5S77.1,163.9,77.9,163.9z M77.9,172.5c0.8,0,1.5,0.7,1.5,1.5
			s-0.7,1.5-1.5,1.5s-1.5-0.7-1.5-1.5C76.4,173.1,77.1,172.5,77.9,172.5z M77.9,181c0.8,0,1.5,0.7,1.5,1.5s-0.7,1.5-1.5,1.5
			s-1.5-0.7-1.5-1.5S77.1,181,77.9,181z M77.9,189.5c0.8,0,1.5,0.7,1.5,1.5s-0.7,1.5-1.5,1.5s-1.5-0.7-1.5-1.5
			C76.4,190.1,77.1,189.5,77.9,189.5z M77.9,198c0.8,0,1.5,0.7,1.5,1.5s-0.7,1.5-1.5,1.5s-1.5-0.7-1.5-1.5S77.1,198,77.9,198z
			 M77.9,206.5c0.8,0,1.5,0.7,1.5,1.5s-0.7,1.5-1.5,1.5s-1.5-0.7-1.5-1.5C76.4,207.1,77.1,206.5,77.9,206.5z M77.9,215
			c0.8,0,1.5,0.7,1.5,1.5s-0.7,1.5-1.5,1.5s-1.5-0.7-1.5-1.5S77.1,215,77.9,215z M77.9,223.5c0.8,0,1.5,0.7,1.5,1.5
			s-0.7,1.5-1.5,1.5s-1.5-0.7-1.5-1.5C76.4,224.1,77.1,223.5,77.9,223.5z M69.4,78.9c0.8,0,1.5,0.7,1.5,1.5s-0.7,1.5-1.5,1.5
			s-1.5-0.7-1.5-1.5S68.6,78.9,69.4,78.9z M69.4,87.4c0.8,0,1.5,0.7,1.5,1.5s-0.7,1.5-1.5,1.5s-1.5-0.7-1.5-1.5S68.6,87.4,69.4,87.4
			z M69.4,95.9c0.8,0,1.5,0.7,1.5,1.5s-0.7,1.5-1.5,1.5s-1.5-0.7-1.5-1.5S68.6,95.9,69.4,95.9z M69.4,104.4c0.8,0,1.5,0.7,1.5,1.5
			s-0.7,1.5-1.5,1.5s-1.5-0.7-1.5-1.5S68.6,104.4,69.4,104.4z M69.4,112.9c0.8,0,1.5,0.7,1.5,1.5s-0.7,1.5-1.5,1.5s-1.5-0.7-1.5-1.5
			S68.6,112.9,69.4,112.9z M69.4,121.4c0.8,0,1.5,0.7,1.5,1.5s-0.7,1.5-1.5,1.5s-1.5-0.7-1.5-1.5S68.6,121.4,69.4,121.4z
			 M69.4,129.9c0.8,0,1.5,0.7,1.5,1.5s-0.7,1.5-1.5,1.5s-1.5-0.7-1.5-1.5S68.6,129.9,69.4,129.9z M69.4,138.4c0.8,0,1.5,0.7,1.5,1.5
			s-0.7,1.5-1.5,1.5s-1.5-0.7-1.5-1.5C67.9,139.1,68.6,138.4,69.4,138.4z M69.4,146.9c0.8,0,1.5,0.7,1.5,1.5s-0.7,1.5-1.5,1.5
			s-1.5-0.7-1.5-1.5S68.6,146.9,69.4,146.9z M69.4,155.4c0.8,0,1.5,0.7,1.5,1.5s-0.7,1.5-1.5,1.5s-1.5-0.7-1.5-1.5
			C67.9,156.1,68.6,155.4,69.4,155.4z M69.4,163.9c0.8,0,1.5,0.7,1.5,1.5s-0.7,1.5-1.5,1.5s-1.5-0.7-1.5-1.5S68.6,163.9,69.4,163.9z
			 M69.4,172.5c0.8,0,1.5,0.7,1.5,1.5s-0.7,1.5-1.5,1.5s-1.5-0.7-1.5-1.5C67.9,173.1,68.6,172.5,69.4,172.5z M69.4,181
			c0.8,0,1.5,0.7,1.5,1.5s-0.7,1.5-1.5,1.5s-1.5-0.7-1.5-1.5S68.6,181,69.4,181z M69.4,189.5c0.8,0,1.5,0.7,1.5,1.5
			s-0.7,1.5-1.5,1.5s-1.5-0.7-1.5-1.5C67.9,190.1,68.6,189.5,69.4,189.5z M69.4,198c0.8,0,1.5,0.7,1.5,1.5s-0.7,1.5-1.5,1.5
			s-1.5-0.7-1.5-1.5S68.6,198,69.4,198z M69.4,206.5c0.8,0,1.5,0.7,1.5,1.5s-0.7,1.5-1.5,1.5s-1.5-0.7-1.5-1.5
			C67.9,207.1,68.6,206.5,69.4,206.5z M69.4,215c0.8,0,1.5,0.7,1.5,1.5s-0.7,1.5-1.5,1.5s-1.5-0.7-1.5-1.5S68.6,215,69.4,215z
			 M69.4,223.5c0.8,0,1.5,0.7,1.5,1.5s-0.7,1.5-1.5,1.5s-1.5-0.7-1.5-1.5C67.9,224.1,68.6,223.5,69.4,223.5z M60.9,78.9
			c0.8,0,1.5,0.7,1.5,1.5s-0.7,1.5-1.5,1.5s-1.5-0.7-1.5-1.5S60.1,78.9,60.9,78.9z M60.9,87.4c0.8,0,1.5,0.7,1.5,1.5
			s-0.7,1.5-1.5,1.5s-1.5-0.7-1.5-1.5S60.1,87.4,60.9,87.4z M60.9,95.9c0.8,0,1.5,0.7,1.5,1.5s-0.7,1.5-1.5,1.5s-1.5-0.7-1.5-1.5
			S60.1,95.9,60.9,95.9z M60.9,104.4c0.8,0,1.5,0.7,1.5,1.5s-0.7,1.5-1.5,1.5s-1.5-0.7-1.5-1.5S60.1,104.4,60.9,104.4z M60.9,112.9
			c0.8,0,1.5,0.7,1.5,1.5s-0.7,1.5-1.5,1.5s-1.5-0.7-1.5-1.5S60.1,112.9,60.9,112.9z M60.9,121.4c0.8,0,1.5,0.7,1.5,1.5
			s-0.7,1.5-1.5,1.5s-1.5-0.7-1.5-1.5S60.1,121.4,60.9,121.4z M60.9,129.9c0.8,0,1.5,0.7,1.5,1.5s-0.7,1.5-1.5,1.5s-1.5-0.7-1.5-1.5
			S60.1,129.9,60.9,129.9z M60.9,138.4c0.8,0,1.5,0.7,1.5,1.5s-0.7,1.5-1.5,1.5s-1.5-0.7-1.5-1.5C59.4,139.1,60.1,138.4,60.9,138.4z
			 M60.9,146.9c0.8,0,1.5,0.7,1.5,1.5s-0.7,1.5-1.5,1.5s-1.5-0.7-1.5-1.5S60.1,146.9,60.9,146.9z M60.9,155.4c0.8,0,1.5,0.7,1.5,1.5
			s-0.7,1.5-1.5,1.5s-1.5-0.7-1.5-1.5C59.4,156.1,60.1,155.4,60.9,155.4z M60.9,163.9c0.8,0,1.5,0.7,1.5,1.5s-0.7,1.5-1.5,1.5
			s-1.5-0.7-1.5-1.5S60.1,163.9,60.9,163.9z M60.9,172.5c0.8,0,1.5,0.7,1.5,1.5s-0.7,1.5-1.5,1.5s-1.5-0.7-1.5-1.5
			C59.4,173.1,60.1,172.5,60.9,172.5z M60.9,181c0.8,0,1.5,0.7,1.5,1.5s-0.7,1.5-1.5,1.5s-1.5-0.7-1.5-1.5S60.1,181,60.9,181z
			 M60.9,189.5c0.8,0,1.5,0.7,1.5,1.5s-0.7,1.5-1.5,1.5s-1.5-0.7-1.5-1.5C59.4,190.1,60.1,189.5,60.9,189.5z M60.9,198
			c0.8,0,1.5,0.7,1.5,1.5s-0.7,1.5-1.5,1.5s-1.5-0.7-1.5-1.5S60.1,198,60.9,198z M60.9,206.5c0.8,0,1.5,0.7,1.5,1.5
			s-0.7,1.5-1.5,1.5s-1.5-0.7-1.5-1.5C59.4,207.1,60.1,206.5,60.9,206.5z M60.9,215c0.8,0,1.5,0.7,1.5,1.5s-0.7,1.5-1.5,1.5
			s-1.5-0.7-1.5-1.5S60.1,215,60.9,215z M60.9,223.5c0.8,0,1.5,0.7,1.5,1.5s-0.7,1.5-1.5,1.5s-1.5-0.7-1.5-1.5
			C59.4,224.1,60.1,223.5,60.9,223.5z M52.4,78.9c0.8,0,1.5,0.7,1.5,1.5s-0.7,1.5-1.5,1.5s-1.5-0.7-1.5-1.5S51.6,78.9,52.4,78.9z
			 M52.4,87.4c0.8,0,1.5,0.7,1.5,1.5s-0.7,1.5-1.5,1.5s-1.5-0.7-1.5-1.5S51.6,87.4,52.4,87.4z M52.4,95.9c0.8,0,1.5,0.7,1.5,1.5
			s-0.7,1.5-1.5,1.5s-1.5-0.7-1.5-1.5S51.6,95.9,52.4,95.9z M52.4,104.4c0.8,0,1.5,0.7,1.5,1.5s-0.7,1.5-1.5,1.5s-1.5-0.7-1.5-1.5
			S51.6,104.4,52.4,104.4z M52.4,112.9c0.8,0,1.5,0.7,1.5,1.5s-0.7,1.5-1.5,1.5s-1.5-0.7-1.5-1.5S51.6,112.9,52.4,112.9z
			 M52.4,121.4c0.8,0,1.5,0.7,1.5,1.5s-0.7,1.5-1.5,1.5s-1.5-0.7-1.5-1.5S51.6,121.4,52.4,121.4z M52.4,129.9c0.8,0,1.5,0.7,1.5,1.5
			s-0.7,1.5-1.5,1.5s-1.5-0.7-1.5-1.5S51.6,129.9,52.4,129.9z M52.4,138.4c0.8,0,1.5,0.7,1.5,1.5s-0.7,1.5-1.5,1.5s-1.5-0.7-1.5-1.5
			C50.9,139.1,51.6,138.4,52.4,138.4z M52.4,146.9c0.8,0,1.5,0.7,1.5,1.5s-0.7,1.5-1.5,1.5s-1.5-0.7-1.5-1.5S51.6,146.9,52.4,146.9z
			 M52.4,155.4c0.8,0,1.5,0.7,1.5,1.5s-0.7,1.5-1.5,1.5s-1.5-0.7-1.5-1.5C50.9,156.1,51.6,155.4,52.4,155.4z M52.4,163.9
			c0.8,0,1.5,0.7,1.5,1.5s-0.7,1.5-1.5,1.5s-1.5-0.7-1.5-1.5S51.6,163.9,52.4,163.9z M52.4,172.5c0.8,0,1.5,0.7,1.5,1.5
			s-0.7,1.5-1.5,1.5s-1.5-0.7-1.5-1.5C50.9,173.1,51.6,172.5,52.4,172.5z M52.4,181c0.8,0,1.5,0.7,1.5,1.5s-0.7,1.5-1.5,1.5
			s-1.5-0.7-1.5-1.5S51.6,181,52.4,181z M52.4,189.5c0.8,0,1.5,0.7,1.5,1.5s-0.7,1.5-1.5,1.5s-1.5-0.7-1.5-1.5
			C50.9,190.1,51.6,189.5,52.4,189.5z M52.4,198c0.8,0,1.5,0.7,1.5,1.5s-0.7,1.5-1.5,1.5s-1.5-0.7-1.5-1.5S51.6,198,52.4,198z
			 M52.4,206.5c0.8,0,1.5,0.7,1.5,1.5s-0.7,1.5-1.5,1.5s-1.5-0.7-1.5-1.5C50.9,207.1,51.6,206.5,52.4,206.5z M52.4,215
			c0.8,0,1.5,0.7,1.5,1.5s-0.7,1.5-1.5,1.5s-1.5-0.7-1.5-1.5S51.6,215,52.4,215z M52.4,223.5c0.8,0,1.5,0.7,1.5,1.5
			s-0.7,1.5-1.5,1.5s-1.5-0.7-1.5-1.5C50.9,224.1,51.6,223.5,52.4,223.5z M1.4,226.4c-0.8,0-1.5-0.7-1.5-1.5s0.7-1.5,1.5-1.5
			s1.5,0.7,1.5,1.5C2.8,225.8,2.2,226.4,1.4,226.4z M43.9,78.9c0.8,0,1.5,0.7,1.5,1.5s-0.7,1.5-1.5,1.5s-1.5-0.7-1.5-1.5
			S43.1,78.9,43.9,78.9z M43.9,87.4c0.8,0,1.5,0.7,1.5,1.5s-0.7,1.5-1.5,1.5s-1.5-0.7-1.5-1.5S43.1,87.4,43.9,87.4z M43.9,95.9
			c0.8,0,1.5,0.7,1.5,1.5s-0.7,1.5-1.5,1.5s-1.5-0.7-1.5-1.5S43.1,95.9,43.9,95.9z M43.9,104.4c0.8,0,1.5,0.7,1.5,1.5
			s-0.7,1.5-1.5,1.5s-1.5-0.7-1.5-1.5S43.1,104.4,43.9,104.4z M43.9,112.9c0.8,0,1.5,0.7,1.5,1.5s-0.7,1.5-1.5,1.5s-1.5-0.7-1.5-1.5
			S43.1,112.9,43.9,112.9z M43.9,121.4c0.8,0,1.5,0.7,1.5,1.5s-0.7,1.5-1.5,1.5s-1.5-0.7-1.5-1.5S43.1,121.4,43.9,121.4z
			 M43.9,129.9c0.8,0,1.5,0.7,1.5,1.5s-0.7,1.5-1.5,1.5s-1.5-0.7-1.5-1.5S43.1,129.9,43.9,129.9z M43.9,138.4c0.8,0,1.5,0.7,1.5,1.5
			s-0.7,1.5-1.5,1.5s-1.5-0.7-1.5-1.5C42.4,139.1,43.1,138.4,43.9,138.4z M43.9,146.9c0.8,0,1.5,0.7,1.5,1.5s-0.7,1.5-1.5,1.5
			s-1.5-0.7-1.5-1.5S43.1,146.9,43.9,146.9z M43.9,155.4c0.8,0,1.5,0.7,1.5,1.5s-0.7,1.5-1.5,1.5s-1.5-0.7-1.5-1.5
			C42.4,156.1,43.1,155.4,43.9,155.4z M43.9,163.9c0.8,0,1.5,0.7,1.5,1.5s-0.7,1.5-1.5,1.5s-1.5-0.7-1.5-1.5S43.1,163.9,43.9,163.9z
			 M43.9,172.5c0.8,0,1.5,0.7,1.5,1.5s-0.7,1.5-1.5,1.5s-1.5-0.7-1.5-1.5C42.4,173.1,43.1,172.5,43.9,172.5z M43.9,181
			c0.8,0,1.5,0.7,1.5,1.5s-0.7,1.5-1.5,1.5s-1.5-0.7-1.5-1.5S43.1,181,43.9,181z M43.9,189.5c0.8,0,1.5,0.7,1.5,1.5
			s-0.7,1.5-1.5,1.5s-1.5-0.7-1.5-1.5C42.4,190.1,43.1,189.5,43.9,189.5z M43.9,198c0.8,0,1.5,0.7,1.5,1.5s-0.7,1.5-1.5,1.5
			s-1.5-0.7-1.5-1.5S43.1,198,43.9,198z M43.9,206.5c0.8,0,1.5,0.7,1.5,1.5s-0.7,1.5-1.5,1.5s-1.5-0.7-1.5-1.5
			C42.4,207.1,43.1,206.5,43.9,206.5z M43.9,215c0.8,0,1.5,0.7,1.5,1.5s-0.7,1.5-1.5,1.5s-1.5-0.7-1.5-1.5S43.1,215,43.9,215z
			 M43.9,223.5c0.8,0,1.5,0.7,1.5,1.5s-0.7,1.5-1.5,1.5s-1.5-0.7-1.5-1.5C42.4,224.1,43.1,223.5,43.9,223.5z M35.4,70.4
			c0.8,0,1.5,0.7,1.5,1.5s-0.7,1.5-1.5,1.5s-1.5-0.7-1.5-1.5S34.6,70.4,35.4,70.4z M35.4,78.9c0.8,0,1.5,0.7,1.5,1.5
			s-0.7,1.5-1.5,1.5s-1.5-0.7-1.5-1.5S34.6,78.9,35.4,78.9z M35.4,87.4c0.8,0,1.5,0.7,1.5,1.5s-0.7,1.5-1.5,1.5s-1.5-0.7-1.5-1.5
			S34.6,87.4,35.4,87.4z M35.4,95.9c0.8,0,1.5,0.7,1.5,1.5s-0.7,1.5-1.5,1.5s-1.5-0.7-1.5-1.5S34.6,95.9,35.4,95.9z M35.4,104.4
			c0.8,0,1.5,0.7,1.5,1.5s-0.7,1.5-1.5,1.5s-1.5-0.7-1.5-1.5S34.6,104.4,35.4,104.4z M35.4,112.9c0.8,0,1.5,0.7,1.5,1.5
			s-0.7,1.5-1.5,1.5s-1.5-0.7-1.5-1.5S34.6,112.9,35.4,112.9z M35.4,121.4c0.8,0,1.5,0.7,1.5,1.5s-0.7,1.5-1.5,1.5s-1.5-0.7-1.5-1.5
			S34.6,121.4,35.4,121.4z M35.4,129.9c0.8,0,1.5,0.7,1.5,1.5s-0.7,1.5-1.5,1.5s-1.5-0.7-1.5-1.5S34.6,129.9,35.4,129.9z
			 M35.4,138.4c0.8,0,1.5,0.7,1.5,1.5s-0.7,1.5-1.5,1.5s-1.5-0.7-1.5-1.5C33.9,139.1,34.6,138.4,35.4,138.4z M35.4,146.9
			c0.8,0,1.5,0.7,1.5,1.5s-0.7,1.5-1.5,1.5s-1.5-0.7-1.5-1.5S34.6,146.9,35.4,146.9z M35.4,155.4c0.8,0,1.5,0.7,1.5,1.5
			s-0.7,1.5-1.5,1.5s-1.5-0.7-1.5-1.5C33.9,156.1,34.6,155.4,35.4,155.4z M35.4,163.9c0.8,0,1.5,0.7,1.5,1.5s-0.7,1.5-1.5,1.5
			s-1.5-0.7-1.5-1.5S34.6,163.9,35.4,163.9z M35.4,172.5c0.8,0,1.5,0.7,1.5,1.5s-0.7,1.5-1.5,1.5s-1.5-0.7-1.5-1.5
			C33.9,173.1,34.6,172.5,35.4,172.5z M35.4,181c0.8,0,1.5,0.7,1.5,1.5s-0.7,1.5-1.5,1.5s-1.5-0.7-1.5-1.5S34.6,181,35.4,181z
			 M35.4,189.5c0.8,0,1.5,0.7,1.5,1.5s-0.7,1.5-1.5,1.5s-1.5-0.7-1.5-1.5C33.9,190.1,34.6,189.5,35.4,189.5z M35.4,198
			c0.8,0,1.5,0.7,1.5,1.5s-0.7,1.5-1.5,1.5s-1.5-0.7-1.5-1.5S34.6,198,35.4,198z M35.4,206.5c0.8,0,1.5,0.7,1.5,1.5
			s-0.7,1.5-1.5,1.5s-1.5-0.7-1.5-1.5C33.9,207.1,34.6,206.5,35.4,206.5z M35.4,215c0.8,0,1.5,0.7,1.5,1.5s-0.7,1.5-1.5,1.5
			s-1.5-0.7-1.5-1.5S34.6,215,35.4,215z M35.4,223.5c0.8,0,1.5,0.7,1.5,1.5s-0.7,1.5-1.5,1.5s-1.5-0.7-1.5-1.5
			C33.9,224.1,34.6,223.5,35.4,223.5z M26.9,70.4c0.8,0,1.5,0.7,1.5,1.5s-0.7,1.5-1.5,1.5s-1.5-0.7-1.5-1.5S26.1,70.4,26.9,70.4z
			 M26.9,78.9c0.8,0,1.5,0.7,1.5,1.5s-0.7,1.5-1.5,1.5s-1.5-0.7-1.5-1.5S26.1,78.9,26.9,78.9z M26.9,87.4c0.8,0,1.5,0.7,1.5,1.5
			s-0.7,1.5-1.5,1.5s-1.5-0.7-1.5-1.5S26.1,87.4,26.9,87.4z M26.9,95.9c0.8,0,1.5,0.7,1.5,1.5s-0.7,1.5-1.5,1.5s-1.5-0.7-1.5-1.5
			S26.1,95.9,26.9,95.9z M26.9,104.4c0.8,0,1.5,0.7,1.5,1.5s-0.7,1.5-1.5,1.5s-1.5-0.7-1.5-1.5S26.1,104.4,26.9,104.4z M26.9,112.9
			c0.8,0,1.5,0.7,1.5,1.5s-0.7,1.5-1.5,1.5s-1.5-0.7-1.5-1.5S26.1,112.9,26.9,112.9z M26.9,121.4c0.8,0,1.5,0.7,1.5,1.5
			s-0.7,1.5-1.5,1.5s-1.5-0.7-1.5-1.5S26.1,121.4,26.9,121.4z M26.9,129.9c0.8,0,1.5,0.7,1.5,1.5s-0.7,1.5-1.5,1.5s-1.5-0.7-1.5-1.5
			S26.1,129.9,26.9,129.9z M26.9,138.4c0.8,0,1.5,0.7,1.5,1.5s-0.7,1.5-1.5,1.5s-1.5-0.7-1.5-1.5C25.4,139.1,26.1,138.4,26.9,138.4z
			 M26.9,146.9c0.8,0,1.5,0.7,1.5,1.5s-0.7,1.5-1.5,1.5s-1.5-0.7-1.5-1.5S26.1,146.9,26.9,146.9z M26.9,155.4c0.8,0,1.5,0.7,1.5,1.5
			s-0.7,1.5-1.5,1.5s-1.5-0.7-1.5-1.5C25.4,156.1,26.1,155.4,26.9,155.4z M26.9,163.9c0.8,0,1.5,0.7,1.5,1.5s-0.7,1.5-1.5,1.5
			s-1.5-0.7-1.5-1.5S26.1,163.9,26.9,163.9z M26.9,172.5c0.8,0,1.5,0.7,1.5,1.5s-0.7,1.5-1.5,1.5s-1.5-0.7-1.5-1.5
			C25.4,173.1,26.1,172.5,26.9,172.5z M26.9,181c0.8,0,1.5,0.7,1.5,1.5s-0.7,1.5-1.5,1.5s-1.5-0.7-1.5-1.5S26.1,181,26.9,181z
			 M26.9,189.5c0.8,0,1.5,0.7,1.5,1.5s-0.7,1.5-1.5,1.5s-1.5-0.7-1.5-1.5C25.4,190.1,26.1,189.5,26.9,189.5z M26.9,198
			c0.8,0,1.5,0.7,1.5,1.5s-0.7,1.5-1.5,1.5s-1.5-0.7-1.5-1.5S26.1,198,26.9,198z M26.9,206.5c0.8,0,1.5,0.7,1.5,1.5
			s-0.7,1.5-1.5,1.5s-1.5-0.7-1.5-1.5C25.4,207.1,26.1,206.5,26.9,206.5z M26.9,215c0.8,0,1.5,0.7,1.5,1.5s-0.7,1.5-1.5,1.5
			s-1.5-0.7-1.5-1.5S26.1,215,26.9,215z M26.9,223.5c0.8,0,1.5,0.7,1.5,1.5s-0.7,1.5-1.5,1.5s-1.5-0.7-1.5-1.5
			C25.4,224.1,26.1,223.5,26.9,223.5z M18.4,70.4c0.8,0,1.5,0.7,1.5,1.5s-0.7,1.5-1.5,1.5s-1.5-0.7-1.5-1.5S17.6,70.4,18.4,70.4z
			 M18.4,78.9c0.8,0,1.5,0.7,1.5,1.5s-0.7,1.5-1.5,1.5s-1.5-0.7-1.5-1.5S17.6,78.9,18.4,78.9z M18.4,87.4c0.8,0,1.5,0.7,1.5,1.5
			s-0.7,1.5-1.5,1.5s-1.5-0.7-1.5-1.5S17.6,87.4,18.4,87.4z M18.4,95.9c0.8,0,1.5,0.7,1.5,1.5s-0.7,1.5-1.5,1.5s-1.5-0.7-1.5-1.5
			S17.6,95.9,18.4,95.9z M18.4,104.4c0.8,0,1.5,0.7,1.5,1.5s-0.7,1.5-1.5,1.5s-1.5-0.7-1.5-1.5S17.6,104.4,18.4,104.4z M18.4,112.9
			c0.8,0,1.5,0.7,1.5,1.5s-0.7,1.5-1.5,1.5s-1.5-0.7-1.5-1.5S17.6,112.9,18.4,112.9z M18.4,121.4c0.8,0,1.5,0.7,1.5,1.5
			s-0.7,1.5-1.5,1.5s-1.5-0.7-1.5-1.5S17.6,121.4,18.4,121.4z M18.4,129.9c0.8,0,1.5,0.7,1.5,1.5s-0.7,1.5-1.5,1.5s-1.5-0.7-1.5-1.5
			S17.6,129.9,18.4,129.9z M18.4,138.4c0.8,0,1.5,0.7,1.5,1.5s-0.7,1.5-1.5,1.5s-1.5-0.7-1.5-1.5C16.9,139.1,17.6,138.4,18.4,138.4z
			 M18.4,146.9c0.8,0,1.5,0.7,1.5,1.5s-0.7,1.5-1.5,1.5s-1.5-0.7-1.5-1.5S17.6,146.9,18.4,146.9z M18.4,155.4c0.8,0,1.5,0.7,1.5,1.5
			s-0.7,1.5-1.5,1.5s-1.5-0.7-1.5-1.5C16.9,156.1,17.6,155.4,18.4,155.4z M18.4,163.9c0.8,0,1.5,0.7,1.5,1.5s-0.7,1.5-1.5,1.5
			s-1.5-0.7-1.5-1.5S17.6,163.9,18.4,163.9z M18.4,172.5c0.8,0,1.5,0.7,1.5,1.5s-0.7,1.5-1.5,1.5s-1.5-0.7-1.5-1.5
			C16.9,173.1,17.6,172.5,18.4,172.5z M18.4,181c0.8,0,1.5,0.7,1.5,1.5s-0.7,1.5-1.5,1.5s-1.5-0.7-1.5-1.5S17.6,181,18.4,181z
			 M18.4,189.5c0.8,0,1.5,0.7,1.5,1.5s-0.7,1.5-1.5,1.5s-1.5-0.7-1.5-1.5C16.9,190.1,17.6,189.5,18.4,189.5z M18.4,198
			c0.8,0,1.5,0.7,1.5,1.5s-0.7,1.5-1.5,1.5s-1.5-0.7-1.5-1.5S17.6,198,18.4,198z M18.4,206.5c0.8,0,1.5,0.7,1.5,1.5
			s-0.7,1.5-1.5,1.5s-1.5-0.7-1.5-1.5C16.9,207.1,17.6,206.5,18.4,206.5z M18.4,215c0.8,0,1.5,0.7,1.5,1.5s-0.7,1.5-1.5,1.5
			s-1.5-0.7-1.5-1.5S17.6,215,18.4,215z M18.4,223.5c0.8,0,1.5,0.7,1.5,1.5s-0.7,1.5-1.5,1.5s-1.5-0.7-1.5-1.5
			C16.9,224.1,17.6,223.5,18.4,223.5z M9.9,70.4c0.8,0,1.5,0.7,1.5,1.5s-0.7,1.5-1.5,1.5s-1.5-0.7-1.5-1.5S9.1,70.4,9.9,70.4z
			 M9.9,78.9c0.8,0,1.5,0.7,1.5,1.5s-0.7,1.5-1.5,1.5s-1.5-0.7-1.5-1.5S9.1,78.9,9.9,78.9z M9.9,87.4c0.8,0,1.5,0.7,1.5,1.5
			s-0.7,1.5-1.5,1.5s-1.5-0.7-1.5-1.5S9.1,87.4,9.9,87.4z M9.9,95.9c0.8,0,1.5,0.7,1.5,1.5s-0.7,1.5-1.5,1.5s-1.5-0.7-1.5-1.5
			S9.1,95.9,9.9,95.9z M9.9,104.4c0.8,0,1.5,0.7,1.5,1.5s-0.7,1.5-1.5,1.5s-1.5-0.7-1.5-1.5S9.1,104.4,9.9,104.4z M9.9,112.9
			c0.8,0,1.5,0.7,1.5,1.5s-0.7,1.5-1.5,1.5s-1.5-0.7-1.5-1.5S9.1,112.9,9.9,112.9z M9.9,121.4c0.8,0,1.5,0.7,1.5,1.5
			s-0.7,1.5-1.5,1.5s-1.5-0.7-1.5-1.5S9.1,121.4,9.9,121.4z M9.9,129.9c0.8,0,1.5,0.7,1.5,1.5s-0.7,1.5-1.5,1.5s-1.5-0.7-1.5-1.5
			S9.1,129.9,9.9,129.9z M9.9,138.4c0.8,0,1.5,0.7,1.5,1.5s-0.7,1.5-1.5,1.5s-1.5-0.7-1.5-1.5C8.4,139.1,9.1,138.4,9.9,138.4z
			 M9.9,146.9c0.8,0,1.5,0.7,1.5,1.5s-0.7,1.5-1.5,1.5s-1.5-0.7-1.5-1.5S9.1,146.9,9.9,146.9z M9.9,155.4c0.8,0,1.5,0.7,1.5,1.5
			s-0.7,1.5-1.5,1.5s-1.5-0.7-1.5-1.5C8.4,156.1,9.1,155.4,9.9,155.4z M9.9,163.9c0.8,0,1.5,0.7,1.5,1.5s-0.7,1.5-1.5,1.5
			s-1.5-0.7-1.5-1.5S9.1,163.9,9.9,163.9z M9.9,172.5c0.8,0,1.5,0.7,1.5,1.5s-0.7,1.5-1.5,1.5s-1.5-0.7-1.5-1.5
			C8.4,173.1,9.1,172.5,9.9,172.5z M9.9,181c0.8,0,1.5,0.7,1.5,1.5s-0.7,1.5-1.5,1.5s-1.5-0.7-1.5-1.5S9.1,181,9.9,181z M9.9,189.5
			c0.8,0,1.5,0.7,1.5,1.5s-0.7,1.5-1.5,1.5s-1.5-0.7-1.5-1.5C8.4,190.1,9.1,189.5,9.9,189.5z M9.9,198c0.8,0,1.5,0.7,1.5,1.5
			s-0.7,1.5-1.5,1.5s-1.5-0.7-1.5-1.5S9.1,198,9.9,198z M9.9,206.5c0.8,0,1.5,0.7,1.5,1.5s-0.7,1.5-1.5,1.5s-1.5-0.7-1.5-1.5
			C8.4,207.1,9.1,206.5,9.9,206.5z M9.9,215c0.8,0,1.5,0.7,1.5,1.5s-0.7,1.5-1.5,1.5s-1.5-0.7-1.5-1.5S9.1,215,9.9,215z M9.9,223.5
			c0.8,0,1.5,0.7,1.5,1.5s-0.7,1.5-1.5,1.5s-1.5-0.7-1.5-1.5C8.4,224.1,9.1,223.5,9.9,223.5z M1.4,70.4c0.8,0,1.5,0.7,1.5,1.5
			s-0.7,1.5-1.5,1.5s-1.5-0.7-1.5-1.5C-0.1,71.1,0.5,70.4,1.4,70.4z M1.4,78.9c0.8,0,1.5,0.7,1.5,1.5s-0.7,1.5-1.5,1.5
			s-1.5-0.7-1.5-1.5S0.5,78.9,1.4,78.9z M1.4,87.4c0.8,0,1.5,0.7,1.5,1.5s-0.7,1.5-1.5,1.5s-1.5-0.7-1.5-1.5
			C-0.1,88.1,0.5,87.4,1.4,87.4z M1.4,95.9c0.8,0,1.5,0.7,1.5,1.5s-0.7,1.5-1.5,1.5s-1.5-0.7-1.5-1.5S0.5,95.9,1.4,95.9z M1.4,104.4
			c0.8,0,1.5,0.7,1.5,1.5s-0.7,1.5-1.5,1.5s-1.5-0.7-1.5-1.5C-0.1,105.1,0.5,104.4,1.4,104.4z M1.4,112.9c0.8,0,1.5,0.7,1.5,1.5
			s-0.7,1.5-1.5,1.5s-1.5-0.7-1.5-1.5S0.5,112.9,1.4,112.9z M1.4,121.4c0.8,0,1.5,0.7,1.5,1.5s-0.7,1.5-1.5,1.5s-1.5-0.7-1.5-1.5
			C-0.1,122.1,0.5,121.4,1.4,121.4z M1.4,129.9c0.8,0,1.5,0.7,1.5,1.5s-0.7,1.5-1.5,1.5s-1.5-0.7-1.5-1.5S0.5,129.9,1.4,129.9z
			 M1.4,138.4c0.8,0,1.5,0.7,1.5,1.5s-0.7,1.5-1.5,1.5s-1.5-0.7-1.5-1.5C-0.1,139.1,0.5,138.4,1.4,138.4z M1.4,146.9
			c0.8,0,1.5,0.7,1.5,1.5s-0.7,1.5-1.5,1.5s-1.5-0.7-1.5-1.5S0.5,146.9,1.4,146.9z M1.4,155.4c0.8,0,1.5,0.7,1.5,1.5
			s-0.7,1.5-1.5,1.5s-1.5-0.7-1.5-1.5C-0.1,156.1,0.5,155.4,1.4,155.4z M1.4,163.9c0.8,0,1.5,0.7,1.5,1.5s-0.7,1.5-1.5,1.5
			s-1.5-0.7-1.5-1.5S0.5,163.9,1.4,163.9z M1.4,172.5c0.8,0,1.5,0.7,1.5,1.5s-0.7,1.5-1.5,1.5s-1.5-0.7-1.5-1.5
			C-0.1,173.1,0.5,172.5,1.4,172.5z M1.4,181c0.8,0,1.5,0.7,1.5,1.5S2.2,184,1.4,184s-1.5-0.7-1.5-1.5S0.5,181,1.4,181z M1.4,189.5
			c0.8,0,1.5,0.7,1.5,1.5s-0.7,1.5-1.5,1.5s-1.5-0.7-1.5-1.5C-0.1,190.1,0.5,189.5,1.4,189.5z M1.4,198c0.8,0,1.5,0.7,1.5,1.5
			S2.2,201,1.4,201s-1.5-0.7-1.5-1.5S0.5,198,1.4,198z M1.4,206.5c0.8,0,1.5,0.7,1.5,1.5s-0.7,1.5-1.5,1.5s-1.5-0.7-1.5-1.5
			C-0.1,207.1,0.5,206.5,1.4,206.5z M1.4,215c0.8,0,1.5,0.7,1.5,1.5S2.2,218,1.4,218s-1.5-0.7-1.5-1.5S0.5,215,1.4,215z"/>
	</g>
</g>
</svg>
