<?xml version="1.0" encoding="utf-8"?>
<!-- Generator: Adobe Illustrator 22.1.0, SVG Export Plug-In . SVG Version: 6.00 Build 0)  -->
<svg version="1.1" id="Layer_1" xmlns="http://www.w3.org/2000/svg" xmlns:xlink="http://www.w3.org/1999/xlink" x="0px" y="0px"
	 viewBox="0 0 48 19.92" style="enable-background:new 0 0 48 19.92;" xml:space="preserve">
<style type="text/css">
	.st0{fill:#3399CC;}
	.st1{fill:#FF3366;}
	.st2{fill:#FCFFF4;}
	.st3{fill:#30ACE2;}
</style>
<g>
	<path class="st0" d="M28.913,10.018c-0.388-0.002-0.502,0.145-0.772-0.149c-0.155-0.173-0.405-0.334-0.553-0.526
		c-0.145-0.188-0.297-0.619-0.386-0.842c-0.134-0.341-0.212-0.693-0.456-0.995c-0.132-0.314-0.208-0.194-0.497-0.229
		c-0.417-0.05-0.739-0.184-1.131-0.274c0,0.378,0.008,0.309-0.248,0.312c0.052-0.004-0.225-0.081-0.198-0.07
		c-0.068,0-0.134,0-0.202,0c-0.021-0.035-0.035-0.072-0.041-0.111c-0.122-0.041-0.491-0.101-0.567-0.204
		c-0.142-0.19,0.159-0.225-0.097-0.39c0.068-0.056,0.06-0.064,0.153-0.083c-0.13-0.221-0.487-0.015-0.677-0.012
		c-0.202,0.004-0.417-0.085-0.675,0.027c-0.175,0.074-0.293,0.177-0.524,0.171c-0.279-0.004-0.429-0.198-0.429,0.165
		c-0.07,0-0.134,0-0.208,0c0.093,0.336-0.151,0.118-0.206,0.229c-0.087,0.176-0.058,0.386-0.138,0.498
		c-0.048,0.066-0.231,0.155-0.305,0.248c-0.079,0.095-0.175,0.256-0.262,0.384c-0.085,0.128-0.435,0.454-0.386,0.648
		c0.013,0.054,0.209-0.023,0.24,0.043c0.027,0.052-0.039,0.077-0.027,0.108c0.054,0.144-0.037,0.38-0.048,0.526
		c-0.014,0.177-0.029,0.328,0.167,0.53c0.208,0.219,0.402,0.4,0.635,0.601c0.079,0.07,0.118,0.229,0.289,0.264
		c0.192,0.035,0.217-0.047,0.4-0.07c0.159-0.019,0.279,0.05,0.388,0.046c0.229-0.008,0.213-0.095,0.399-0.159
		c0.151-0.05,0.477-0.037,0.565,0c0.138,0.062,0.103,0.163,0.307,0.21c0.353,0.078,0.334-0.097,0.342,0.276
		c0.004,0.175-0.066,0.398-0.165,0.497c0.442,0.14,0.733,1.044,0.662,1.474c-0.07,0.435-0.332,0.452-0.109,0.912
		c0.138,0.287,0.182,0.458,0.262,0.772c0.08,0.326,0.334,0.547,0.427,0.842c0.079,0.252-0.043,0.332,0.083,0.469
		c0.334,0.365,1.216-0.066,1.476-0.345c0.101-0.109,0.272-0.297,0.33-0.427c0.058-0.128-0.019-0.31,0.013-0.388
		c0.029-0.062,0.248-0.101,0.318-0.194c0.188-0.244-0.095-0.349-0.041-0.605c0.043-0.208,0.427-0.314,0.538-0.415
		c0.273-0.245,0.289-0.518,0.221-0.887c-0.039-0.208-0.231-0.516-0.151-0.768c0.105-0.34,0.539-0.667,0.799-0.896
		c0.192-0.169,0.382-0.363,0.51-0.594c0.087-0.153,0.144-0.167,0.165-0.372C29.14,9.943,29.192,10.02,28.913,10.018z"/>
	<path class="st0" d="M35.135,11.138c0,0.056,0.035,0.082,0.083,0.089c0.017-0.035,0.004-0.058-0.041-0.072
		C35.177,11.134,35.135,11.076,35.135,11.138z"/>
	<path class="st0" d="M33.233,10.682c0.116-0.103-0.143-0.417-0.182-0.458C32.973,10.323,33.028,10.87,33.233,10.682z"/>
	<path class="st0" d="M28.734,13.512c-0.116,0.107-0.297,0.062-0.415,0.176c-0.091,0.089,0.012,0.367,0,0.44
		c-0.021,0.14-0.081,0.157-0.111,0.332c-0.037,0.227,0.016,0.563,0.318,0.497c0.291-0.064,0.198-0.153,0.248-0.413
		c0.004-0.031,0.078-0.326,0.083-0.332c0.023-0.033,0.178-0.079,0.178-0.124c0-0.266,0.19-0.813-0.124-0.937
		C28.913,13.245,28.791,13.462,28.734,13.512z"/>
	<path class="st0" d="M20.648,1.396c0.023-0.076-0.109-0.078-0.138-0.083c0.06-0.343-0.407-0.038-0.638-0.068
		c-0.035-0.003-0.241-0.032-0.204-0.028c-0.099-0.009,0.008-0.155-0.097-0.028c-0.252-0.084-0.314,0.151-0.247,0.138
		c0.126-0.02,0.171-0.017,0.206,0.111c-0.095-0.017-0.181-0.017-0.276,0c0.004,0.027,0.01,0.056,0.013,0.083
		c0.281-0.047,0.064,0.113,0.208,0.165c0.031,0.01,0.355,0.043,0.372,0.041c0.248-0.012,0.27-0.064,0.483-0.178
		C20.512,1.449,20.592,1.587,20.648,1.396z"/>
	<path class="st0" d="M17.579,12.135c-0.2-0.155-0.281-0.19-0.53-0.237c-0.134-0.027-0.607,0.006-0.409-0.097
		c-0.074-0.05-0.192-0.124-0.289-0.143c-0.243-0.047-0.188,0.008-0.359,0.081c0.016-0.023,0.087-0.184,0.089-0.198
		c-0.064-0.008-0.153-0.039-0.215-0.058c-0.062-0.019-0.027,0.14-0.157,0.124c0.025-0.058,0.277-0.374,0.041-0.374
		c0.041-0.419-0.347-0.44-0.605-0.506c-0.21-0.05-0.673-0.264-0.673-0.499c-0.118,0.041-0.33-0.013-0.145-0.097
		c-0.122-0.157-0.376,0.064-0.448,0.062c-0.264-0.01-0.39-0.231-0.642-0.278c0,0.136-0.093,0.105-0.173,0.186
		c-0.012,0.012,0.023,0.198,0.014,0.229c-0.142-0.116-0.105-0.365,0.041-0.454c-0.233-0.066-0.885,0.367-0.923,0.66
		c-0.021,0.163,0.149,0.334,0.039,0.559c-0.06,0.124-0.314,0.38-0.448,0.427c0.023,0.21-0.064,0.248,0.151,0.264
		c-0.089,0.155-0.299,0.248-0.179,0.502c0.029,0.064,0.165,0.078,0.221,0.157c0.054,0.08,0.112,0.198,0.147,0.283
		c0.076,0.186,0.145,0.497,0.266,0.636c0.165,0.19,0.363,0.245,0.568,0.405c0.347,0.274,0.219,0.856,0.163,1.282
		c-0.031,0.233-0.118,0.456-0.146,0.671c-0.031,0.256,0,0.524-0.103,0.764c-0.114,0.268-0.107,0.425-0.178,0.726
		c0.004-0.018-0.002,0.198,0,0.144c-0.002,0.047-0.093,0.093-0.074,0.151c0.097,0.289,0.18-0.144,0.279-0.151
		c-0.072,0.202-0.101,0.372-0.126,0.601c-0.054-0.091-0.068-0.041-0.087-0.167c-0.064,0.035,0.033,0.223,0.027,0.275
		c-0.054-0.012-0.05-0.097-0.089-0.097c0.018,0-0.124,0.163-0.124,0.161c0,0.025,0.256,0.223,0.276,0.233
		c-0.012,0.018-0.017,0.037-0.014,0.056c-0.442,0-0.089,0.39-0.159,0.551c0.041-0.006,0.07-0.006,0.111,0
		c0.002,0.039-0.019,0.06-0.062,0.064c0.072,0.076,0.035,0.031,0.105,0.048c-0.023-0.008,0.291,0.394,0.343,0.427
		c0.264,0.163,0.514,0.083,0.766,0.064c-0.012-0.081-0.328-0.173-0.394-0.33c-0.062-0.151-0.204-0.543,0.049-0.518
		c0-0.159,0.32-0.338,0.297-0.452c-0.025-0.136-0.345-0.054-0.235-0.324c0.035-0.085,0.21-0.039,0.248-0.085
		c0.033-0.043-0.012-0.113,0.035-0.163c-0.031,0.035,0.163-0.303,0.138-0.178c0.045-0.221-0.165,0.006-0.118-0.322
		c0.324,0.13,0.388,0.012,0.34-0.289c0.268,0.008,0.59,0.017,0.712-0.243c0.132-0.276-0.12-0.213-0.169-0.454
		c0.299,0.039,0.411,0.144,0.642-0.062c0.109-0.097,0.194-0.487,0.316-0.469c-0.017,0.054-0.027,0.06-0.014,0.111
		c0.355-0.177,0.256-0.679,0.45-0.91c0.126-0.151,0.301-0.225,0.479-0.276c0.283-0.081,0.361-0.062,0.52-0.34
		c0.188-0.328,0.111-0.824,0.262-1.089c0.111-0.192,0.353-0.307,0.417-0.528c0.045-0.147,0.035-0.138-0.002-0.274
		C17.759,12.086,17.763,12.28,17.579,12.135z"/>
	<path class="st0" d="M35.29,11.346c-0.003-0.004-0.007-0.006-0.009-0.01C35.291,11.339,35.29,11.347,35.29,11.346z"/>
	<path class="st0" d="M12.412,9.12c-0.056-0.087-0.171-0.116-0.289-0.097C12.195,9.12,12.329,9.203,12.412,9.12z"/>
	<path class="st0" d="M19.463,0.305c-0.241,0.188-0.807-0.251-0.204-0.226c-0.025-0.001,0.27,0.309,0.338,0.041
		c0.009-0.037-0.024-0.093-0.066-0.151h-4.065c0.11,0.024,0.219,0.073,0.278,0.213c-0.171,0.005-0.332-0.115-0.489-0.049
		c0.039,0.117-0.103,0.308,0.138,0.314c0.21,0.005,0.277-0.145,0.033-0.182c0.347-0.042,0.264,0.093,0.361,0.338
		c-0.155-0.008-0.277,0.019-0.274,0.172c-0.345-0.045,0.017,0.406,0.039,0.479c-0.008-0.019,0.103-0.048,0.124-0.004
		c0.016,0.037-0.112,0.08-0.078,0.112c-0.054-0.05,0.062,0.194,0.048,0.159c-0.002-0.008,0.134-0.08,0.159-0.078
		c-0.107,0.217,0,0.584,0.235,0.76c0.105,0.08,0.621,0.279,0.704,0.233c0.115-0.062,0.083-0.299,0.13-0.405
		c0.029-0.064-0.07-0.083-0.031-0.159c0.019-0.041,0.122-0.014,0.155-0.076c0.14-0.256,0.054-0.501,0.404-0.531
		c-0.01-0.167,0.008-0.048,0.097-0.104c-0.021,0.435,0.72-0.481,0.724-0.482c0.039-0.015,0.081,0.042,0.113,0.05
		c0.244,0.079,0.244-0.015,0.444-0.093C18.958,0.568,19.4,0.472,19.463,0.305z"/>
	<path class="st0" d="M38.33,8.557c0.027,0,0.054,0,0.082,0c0-0.171,0.151-0.254,0.151-0.411C38.563,8.08,38.289,8.303,38.33,8.557z
		"/>
	<path class="st0" d="M39.257,11.514c0.014,0.274,0.082-0.058,0.245-0.033c0.01-0.091-0.037-0.171-0.118-0.165
		c0.019-0.054,0.035-0.097,0.035-0.151C39.319,11.301,39.25,11.32,39.257,11.514z"/>
	<path class="st0" d="M35.301,11.308c-0.012,0.031-0.012,0.037-0.012,0.038c0.036,0.056,0.094,0.079,0.123,0.143
		C35.412,11.405,35.389,11.345,35.301,11.308z"/>
	<path class="st0" d="M11.943,8.472c-0.118-0.043-0.388-0.153-0.535-0.068c-0.163,0.095-0.122,0.109,0.052,0.192
		c0.076,0.039,0.12-0.079,0.194-0.066c0.101,0.016,0.165,0.103,0.219,0.122c0.285,0.103,0.464,0.159,0.788,0.159
		C12.556,8.643,12.125,8.542,11.943,8.472z"/>
	<path class="st0" d="M40.394,6.625c-0.276-0.12-0.79,0.108-0.838,0.411c0.052,0.004,0.126,0,0.159,0
		c0,0.134-0.147,0.194,0.056,0.252c0-0.141,0.227-0.345,0-0.365c0.049-0.144,0.392-0.144,0.537-0.169
		c-0.157,0.099-0.409,0.004-0.351,0.27c0.128-0.054,0.25-0.112,0.338-0.194c0.064,0.147,0.241,0.033,0.213-0.095
		c0.545-0.062,0.442-0.089,0.572-0.545C41.153,5.938,41.238,5.74,41,5.542c0.161-0.031,0.431,0.12,0.421-0.056
		c0.118,0.025,0.662-0.276,0.662-0.427c-0.138,0.025-0.227,0.138-0.407,0.151c-0.198,0.016-0.289-0.023-0.497-0.14
		c-0.008,0.062-0.089,0.534-0.173,0.361c-0.037,0.064-0.161,0.363,0.041,0.268c0,0.025,0,0.047,0,0.07
		c-0.122,0.021-0.18,0.413-0.316,0.567c0-0.043,0.004-0.066,0-0.111c-0.08,0.078-0.103,0.105-0.138,0.206
		c-0.031-0.043-0.081,0.031-0.062-0.089C40.441,6.406,40.408,6.493,40.394,6.625z"/>
	<path class="st0" d="M39.248,11.914c-0.037-0.008-0.074-0.018-0.113-0.025C39.201,12.049,39.277,11.931,39.248,11.914z"/>
	<path class="st0" d="M36.598,11.914c-0.025-0.179-0.19-0.245-0.332-0.144c-0.015-0.204-0.768-0.9-1.04-0.931
		c-0.078,0-0.12-0.078-0.194-0.068c0.033,0.161,0.287,0.32,0.372,0.429c0.134,0.165,0.244,0.409,0.386,0.594
		c0.097,0.122,0.326,0.458,0.456,0.46C36.534,12.261,36.37,11.984,36.598,11.914z"/>
	<path class="st0" d="M35.75,11.976c-0.019-0.124-0.248-0.326-0.248-0.336C35.509,11.731,35.66,11.957,35.75,11.976z"/>
	<path class="st0" d="M37.412,12.527c0.01-0.097,0.08-0.05,0.151-0.093c-0.394-0.066-0.757-0.074-1.166-0.062
		c0.157,0.124,0.38,0.161,0.65,0.188c0.214,0.023,0.479,0.134,0.708,0.101C37.692,12.533,37.558,12.498,37.412,12.527z"/>
	<path class="st0" d="M38.509,9.617c-0.01-0.132,0.285-0.599-0.079-0.599C38.225,9.128,38.276,9.543,38.509,9.617z"/>
	<path class="st0" d="M12.563,0.765c-0.085-0.139-0.394-0.034-0.275,0.162C12.387,0.956,12.661,0.921,12.563,0.765z"/>
	<path class="st0" d="M21.482,2.906c0.058-0.016,0.25-0.178,0.145-0.159C21.564,2.77,21.496,2.844,21.482,2.906z"/>
	<path class="st0" d="M6.927,0.079c0.153,0.082,0.65-0.043,0.731,0.096c0.029,0.051-0.545,0.078-0.634,0.13
		C7.056,0.352,7.088,0.397,7.12,0.443c0.299-0.024,0.307,0.132,0.539,0.194C7.89,0.7,8.066,0.537,8.272,0.498
		C8.396,0.476,9.215,0.61,8.928,0.382c0.114,0.002,0.151-0.059,0.221-0.09C8.936,0.146,8.828,0.114,8.724-0.031H7.21
		C7.106-0.017,7.005,0.018,6.927,0.079z"/>
	<path class="st0" d="M15.074,4.085C15.02,4.12,14.7,4.636,14.723,4.675c0.049,0.081,0.219,0.004,0.312,0.031
		c0.142,0.043,0.173,0.101,0.314,0.167c0.215-0.326,0.014-0.438-0.303-0.539C15.045,4.34,15.239,3.992,15.074,4.085z"/>
	<path class="st0" d="M6.346-0.031H6.15C6.178,0,6.214,0.023,6.231,0.065C6.269,0.033,6.308,0,6.346-0.031z"/>
	<path class="st0" d="M8.272,0.713C8.396,0.68,8.474,0.653,8.501,0.548c-0.128,0.023-0.256,0.07-0.367,0.138
		C8.181,0.694,8.227,0.704,8.272,0.713z"/>
	<path class="st0" d="M42.55,12.053c-0.025,0.004-0.475,0.252-0.475,0.186C42.09,12.416,42.596,12.329,42.55,12.053z"/>
	<path class="st0" d="M29.57,0.14c0.11,0.049,0.324,0.031,0.446,0.031c-0.008-0.089-0.063-0.146-0.116-0.202h-0.42
		C29.557,0.038,29.497,0.108,29.57,0.14z"/>
	<path class="st0" d="M28.858,0.609c0.078,0,0.219-0.04,0.233-0.124C28.971,0.464,28.771,0.323,28.858,0.609z"/>
	<path class="st0" d="M21.635,3.942c0.01-0.109,0.021-0.225,0.019-0.359c0.307-0.045-0.487-0.438-0.303-0.07
		c-0.146,0.027-0.342,0.231-0.103,0.219C20.939,4.182,21.372,3.884,21.635,3.942z"/>
	<path class="st0" d="M2.126,3.065C2.217,3.026,2.3,2.962,2.355,2.879c0-0.043,0-0.081,0-0.124C2.215,2.855,2.011,2.883,2.126,3.065
		z"/>
	<path class="st0" d="M9.474-0.031H9.441c0.003,0.001,0.008,0.004,0.01,0.006C9.461-0.026,9.465-0.031,9.474-0.031z"/>
	<path class="st0" d="M11.487,2.031c0.12,0,0.186-0.072,0.167-0.165C11.613,1.885,11.285,2.031,11.487,2.031z"/>
	<path class="st0" d="M14.329,4.39c-0.138-0.045-0.198-0.103-0.332-0.083C14.123,4.382,14.205,4.568,14.329,4.39z"/>
	<path class="st0" d="M46.083,0.085c0.149,0.034,0.334-0.033,0.489-0.033c-0.017-0.027-0.055-0.057-0.094-0.083h-0.313
		C46.086,0.014,46.016,0.068,46.083,0.085z"/>
	<path class="st0" d="M11.846,2.002C11.931,2.496,12.288,1.707,11.846,2.002L11.846,2.002z"/>
	<path class="st0" d="M29.419-0.031h-0.035c0.008,0.008,0.018,0.003,0.025,0.019C29.418-0.016,29.414-0.025,29.419-0.031z"/>
	<path class="st0" d="M0.601,2.465C0.457,2.277,0.31,2.491,0.601,2.465L0.601,2.465z"/>
	<path class="st0" d="M12.839,8.984c-0.014,0.128,0.103,0.202,0.221,0.178c0.241-0.054,0.588-0.013,0.828-0.097
		c-0.107-0.132-0.435-0.089-0.636-0.116C13.124,8.934,12.86,8.782,12.839,8.984z"/>
	<path class="st0" d="M12.236,10.381c0.031-0.229-0.479-0.085-0.621-0.179c-0.341-0.229,0.023-0.485-0.151-0.739
		c-0.149-0.215-0.53-0.045-0.714-0.126c0.163-0.178,0.405-0.745,0.054-0.724c-0.318,0.021-0.163,0.243-0.359,0.398
		c-0.18,0.144-0.471,0.05-0.613-0.072c-0.31-0.274-0.299-1.026-0.113-1.302c0.256-0.376,0.664-0.012,0.947-0.101
		c-0.068-0.237,0.2-0.202,0.367-0.19c-0.016-0.002,0.38,0.074,0.33,0.039c0.124,0.087,0.326,0.737,0.456,0.726
		c0.157-0.014-0.12-0.877,0.091-1.12c0.136-0.157,0.421-0.196,0.503-0.382c0.07-0.159-0.031-0.237-0.076-0.435
		c0.116,0.031,0.056-0.064,0.179,0.062c0.045-0.097,0.142-0.355,0.211-0.423c0.087-0.078,0.312-0.093,0.458-0.134
		c-0.211-0.4,0.592-0.687,0.891-0.617c-0.041-0.008-0.289,0.089-0.324,0.159c-0.105,0.213,0.186,0.031,0.196,0.029
		c0.248-0.029,0.528-0.219,0.603-0.44c-0.198,0.093-0.254,0.252-0.497,0.124c-0.322-0.175-0.012-0.33-0.085-0.446
		c-0.204-0.314-0.716,0.256-0.929,0.392c0.056-0.105,0.13-0.196,0.221-0.272c-0.052-0.012-0.107-0.027-0.159-0.041
		c0.27,0.06,0.425-0.277,0.656-0.343c0.153-0.045,0.367,0.012,0.522,0c0.242-0.023,0.217-0.05,0.423-0.14
		c0.188-0.078,0.487-0.107,0.398-0.347c-0.091-0.246-0.411-0.072-0.603-0.052c0.091-0.155,0.277-0.122,0.419-0.241
		c-0.242-0.039-0.462-0.132-0.599-0.345c0.149-0.091-0.276-0.549-0.351-0.718c-0.122,0.136-0.122,0.355-0.318,0.4
		c-0.19,0.041-0.165-0.157-0.378-0.101c0.134-0.462-0.239-0.621-0.598-0.712c-0.407-0.107-0.679,0.101-0.39,0.524
		c-0.031,0-0.064,0-0.097,0c-0.031,0.072-0.01,0.116-0.054,0.194c0.382,0.159,0.295,0.739-0.146,0.724
		c0.126,0.136,0.239,0.642-0.041,0.667c-0.272,0.019-0.336-0.508-0.31-0.708c-0.314-0.052-0.504-0.099-0.776-0.239
		c-0.12-0.06-0.262-0.105-0.369-0.147c-0.095-0.041-0.118,0.047-0.2-0.004c-0.062-0.037-0.072-0.175-0.112-0.225
		c-0.14-0.173-0.211-0.074-0.184-0.355c0.01-0.116,0.126-0.301,0.21-0.386c0.089-0.089,0.299-0.114,0.277-0.244
		c-0.016-0.085-0.357-0.134-0.425-0.159c0.179,0.017,0.51,0.184,0.559-0.041c0.21,0.126,0.308-0.017,0.365-0.194
		c-0.19,0.013-0.334-0.081-0.497-0.158c0.124,0.005,0.838,0.179,0.545-0.132c0.318-0.024,0.101,0.484-0.041,0.538
		c0.116,0.124,0.161,0.155,0.338,0.153c-0.01,0,0.163-0.081,0.213-0.091c0.062-0.01,0.13,0.064,0.18,0.056
		c0.396-0.068-0.382-0.341-0.448-0.484c0.178-0.007,0.07-0.004,0.144-0.096c0.272-0.02,0.396-0.25,0.213-0.476
		c0.371-0.063-0.087-0.305-0.219-0.366c0.227-0.035,0.469,0.073,0.71-0.015c-0.037-0.034-0.074-0.068-0.111-0.104
		c0.252,0.074,0.427,0.227,0.648,0.393c0.093,0.069,0.266,0.175,0.272,0.314c0.008,0.188-0.347,0.18-0.188,0.418
		c-0.132,0.03-0.601-0.074-0.58,0.159c0.021,0.227,0.365-0.021,0.452-0.012c0.277,0.035,0.299,0.227,0.475,0.372
		c0.175,0.14,0.452,0.12,0.66,0.233c0.008-0.175-0.26-0.262-0.359-0.415c0.182,0.089,0.365,0.18,0.537,0.283
		c0.023-0.043,0.06-0.182,0.076-0.235c-0.169-0.161-0.365-0.307-0.53-0.524c0.126-0.184,0.175-0.056,0.322,0.021
		c0.237,0.125,0.134,0.196,0.322,0.145c-0.014,0.003,0.233-0.195,0.231-0.193c0.08-0.148,0.093-0.038-0.014-0.173
		c-0.107-0.137-1.16-0.429-0.634-0.538c-0.052-0.015-0.105-0.028-0.159-0.042c0.045-0.033,0.035-0.037,0.097-0.062
		c-0.081-0.033-0.113-0.096-0.213-0.116c0.016-0.026,0.031-0.05,0.049-0.077c-0.194-0.041-0.285-0.084-0.462-0.131
		c0.027-0.018,0.055-0.036,0.083-0.054h-2.309c0.057,0.019,0.116,0.043,0.162,0.11c-0.101-0.025-0.161,0.016-0.254,0.013
		c0.085,0.122,0.469,0.163,0.634,0.213c-0.101,0.041-0.153,0.719-0.421,0.58c-0.12-0.062,0.004-0.251,0-0.255
		c-0.107-0.119-0.204-0.073-0.241-0.093c-0.045-0.025-0.248-0.091-0.328-0.211c-0.059-0.087-0.097-0.255-0.169-0.358H9.838
		c-0.259,0.224,0.348,0.598-0.014,0.523C9.88,0.647,9.997,0.639,10.129,0.52c-0.004,0.237-0.314,0.156-0.221,0.428
		C9.752,0.842,9.789,0.885,9.797,0.726C9.651,0.686,9.77,0.719,9.694,0.609c0.029,0,0.058,0,0.089,0
		C9.791,0.455,9.688,0.36,9.535,0.333C9.496,0.372,9.405,0.471,9.37,0.512c0.072,0.028,0.128,0.103,0.2,0.132
		c-0.165,0.298-0.485,0.163-0.759,0.1c-0.178-0.041-0.2-0.111-0.372-0.039c-0.254,0.108-0.136,0.124-0.173,0.38
		C8.154,0.683,7.622,0.818,7.3,0.788c0.027-0.016,0.058-0.084,0.151-0.116C7.292,0.543,6.757,0.391,6.569,0.354
		C6.334,0.309,6.105,0.551,6.018,0.265C5.95,0.495,5.901,0.35,5.793,0.344C5.758,0.342,5.719,0.188,5.637,0.178
		C5.529,0.165,5.597,0.247,5.536,0.259c-0.12,0.027-0.452,0.207-0.596,0.289c0.126-0.166,0.332-0.143,0.454-0.29
		C5.162,0.259,4.886,0.386,4.654,0.434C4.262,0.516,4.105,0.354,3.705,0.309c-0.301-0.033-0.576-0.095-0.889-0.12
		c-0.33-0.027-0.501-0.145-0.842-0.104c0.012-0.025,0.023-0.05,0.035-0.076C1.8-0.03,1.517,0.104,1.33,0.161
		C1.074,0.237,1.057,0.392,0.878,0.502c-0.254,0.154-0.435-0.01-0.231,0.259c0.128,0.17,0.405,0.193,0.499,0.413
		C1,1.223,0.843,1.215,0.836,1.051C0.671,1.168,0.484,1.127,0.347,1.292c0.178,0.073,0.177,0.219,0.33,0.258
		c0.177,0.045,0.409-0.076,0.574-0.091c0.023,0.504-0.563,0.147-0.648,0.594c-0.021,0.12,0.256,0.625,0.435,0.33
		c0.097,0.093,0.124,0.202,0.081,0.33C1.293,2.677,1.489,2.737,1.575,2.63c0.054,0,0.126,0.016,0.2,0.014
		C1.645,3.222,0.987,3.127,0.678,3.48C1.125,3.589,1.866,2.908,2.25,2.692c-0.035-0.05-0.068-0.101-0.103-0.151
		C2.382,2.463,2.469,2.074,2.741,2.25C2.549,2.273,2.442,2.386,2.498,2.568c0.14-0.083,0.297-0.155,0.462-0.167
		C2.946,2.374,2.933,2.343,2.919,2.314c0.033-0.219,0.326,0.05,0.477,0.095c0.196,0.058,0.382,0.016,0.572,0.078
		C4.305,2.595,4.535,2.902,4.873,2.96C4.904,3.03,4.929,3.1,4.982,3.154c0.017,0.019,0.163,0.085,0.18,0.116
		c0.116,0.175,0.184,0.345,0.285,0.481c0.178,0.241,0.246,0.262,0.501,0.413c0.182,0.109,0.4,0.293,0.372,0.549
		c-0.206-0.252-0.421-0.6-0.772-0.559c0.165,0.198,0.409,0.268,0.514,0.516c0.107,0.256-0.031,0.504-0.031,0.718
		C6.027,5.787,6.229,6.342,6.501,6.639c0.157,0.173,0.4,0.18,0.543,0.404C7.16,7.219,7.259,7.444,7.368,7.626
		c0.037,0.058-0.045,0.087,0.039,0.209c0.05,0.074,0.19,0.14,0.258,0.21C7.711,8.092,7.938,8.359,7.956,8.46
		c0.213-0.217-0.619-0.978-0.642-1.29c0.233-0.029,0.499,0.502,0.669,0.687C8.202,8.092,8.4,8.41,8.625,8.666
		c-0.326,0.221,0.968,0.702,1.18,0.733c0.064,0.01,0.136-0.07,0.254-0.035c0.136,0.039,0.196,0.182,0.305,0.246
		c0.109,0.068,0.464,0.126,0.475,0.111c0.188,0.132,0.283,0.39,0.382,0.485c0.144,0.132,0.469,0.233,0.673,0.322
		C11.838,10.179,12.22,10.497,12.236,10.381z"/>
	<path class="st0" d="M21.773,4.293c0.14,0,0.244-0.097,0.324-0.111c0.122-0.019,0.295,0.039,0.394-0.006
		c0.175-0.08,0.231-0.25,0.184-0.407c-0.029-0.101-0.105,0.06-0.109,0.056c-0.047-0.048-0.039-0.128-0.076-0.159
		c-0.062-0.054-0.147-0.182-0.229-0.277c-0.124-0.146-0.14-0.111-0.159-0.227c-0.012-0.078,0.307-0.38-0.165-0.241
		c0.039-0.068,0.044-0.124,0.118-0.167c-0.155-0.155-0.223,0.085-0.281,0.132c-0.01,0.008-0.324,0.115-0.077,0.157
		c-0.021,0.072-0.101,0.177-0.097,0.221c0.081,0.01,0.184,0.076,0.206-0.014c-0.019,0.27,0.122,0.12,0.223,0.338
		c0.114,0.252-0.12,0.08-0.243,0.229c0.047,0.012,0.083,0.008,0.138,0.014c0,0.076-0.186,0.107-0.124,0.178
		c0.039,0.045,0.233-0.021,0.297,0.041C22.072,4.074,21.688,4.293,21.773,4.293z"/>
	<path class="st0" d="M41.55,17.234c0.05,0.163,0.181,0.357,0.334,0.4c0.012-0.033,0.012-0.066,0-0.095c0.039,0,0.076,0,0.114,0
		c0.006-0.138,0.045-0.167,0.045-0.297C41.939,17.27,41.539,17.16,41.55,17.234z"/>
	<path class="st0" d="M41.977,17.036c0,0.07,0.062,0.118,0.118,0.128C42.094,17.059,42.051,17.036,41.977,17.036z"/>
	<path class="st0" d="M42.433,14.669c-0.045-0.048-0.045-0.136-0.076-0.173c-0.01-0.01-0.151-0.05-0.186-0.083
		c-0.044-0.043-0.041-0.146-0.089-0.194c-0.066-0.062-0.229-0.109-0.279-0.171c-0.124-0.153-0.159-0.454-0.252-0.601
		c-0.029-0.047-0.114-0.082-0.159-0.151C41.339,13.21,41.366,13,41.24,12.969c-0.008,0.029-0.012,0.056-0.013,0.085
		c-0.206,0.254,0.072,0.877-0.386,0.753c0.002,0-0.419-0.27-0.427-0.291c-0.08-0.173,0.083-0.264,0.136-0.4
		c-0.233-0.031-0.46-0.149-0.683-0.149c0.045,0.039,0.039,0.068,0.118,0.115c-0.041-0.025-0.276,0.132-0.338,0.171
		c-0.186,0.118,0.103,0.142-0.208,0.202c-0.103,0.019-0.149-0.124-0.316-0.062c-0.138,0.05-0.155,0.235-0.313,0.235
		c0.023,0.05,0.029,0.132,0.056,0.18c-0.041,0-0.08,0-0.12,0c0-0.029,0-0.062,0-0.093c-0.182-0.01-0.244,0.378-0.452,0.477
		c-0.157,0.076-0.4,0.099-0.572,0.167c-0.076,0.027-0.126,0.276-0.215,0.068c-0.076,0.231-0.093,0.367,0.035,0.594
		c-0.276-0.124,0.023,0.301,0.079,0.452c0.116,0.307,0.229,0.506-0.004,0.706c0.159,0,0.252,0.176,0.456,0.143
		c0.116-0.015,0.175-0.155,0.305-0.182c0.103-0.027,0.211,0.074,0.299,0.05c0.093-0.027,0.095-0.101,0.173-0.132
		c0.074-0.029,0.155-0.112,0.239-0.147c0.058-0.025,0.109,0.06,0.178,0.035c0.247-0.093,0.526-0.237,0.815-0.085
		c0.173,0.093,0.34,0.753,0.524,0.159c0.132,0.044-0.006,0.136,0.014,0.248c0.163-0.097,0.101,0.039,0.089,0.186
		c0.268-0.05,0.147,0.184,0.345,0.345c0.023,0.019,0.268,0.095,0.316,0.097c0.136,0.004,0.093-0.134,0.179-0.138
		c0.085-0.002,0.087,0.161,0.143,0.149c0.276-0.058,0.565-0.163,0.666-0.419c0.066-0.167,0.081-0.34,0.186-0.518
		c0.21-0.357,0.248-0.732,0.054-1.116C42.556,14.766,42.499,14.738,42.433,14.669z"/>
	<path class="st0" d="M43.013,4.19c-0.016,0.056-0.05,0.109-0.083,0.159C43.042,4.303,43.011,4.213,43.013,4.19z"/>
	<path class="st0" d="M42.854,12.232c0.012,0.041,0.016,0.05,0.016,0.089c0,0.058,0.134,0.132,0.171,0.124
		c-0.033-0.085-0.132-0.138-0.132-0.219C42.891,12.224,42.872,12.226,42.854,12.232z"/>
	<path class="st0" d="M38.584,9.702c0.173,0.12,0.287,0.351,0.473,0.388c0-0.211-0.196-0.26-0.196-0.448
		C38.749,9.642,38.693,9.702,38.584,9.702z"/>
	<path class="st0" d="M43.545,12.785c0.039,0.06,0.082,0.041,0.132,0.021C43.652,12.738,43.504,12.698,43.545,12.785z"/>
	<path class="st0" d="M38.322,9.826c-0.103,0.198-0.367,0.396-0.421,0.559C38.13,10.385,38.322,10.053,38.322,9.826z"/>
	<path class="st0" d="M37.649,10.86c-0.19,0.169-0.522,0.5-0.693,0.372c-0.182,0.128-0.068,0.359,0.035,0.495
		c0.149,0.204,0.212,0.182,0.497,0.229c0.287,0.05,0.196,0.124,0.359-0.116c0.008-0.012,0.037-0.202,0.068-0.256
		c0.042-0.07,0.2-0.101,0.248-0.206c-0.182-0.118-0.132-0.149-0.173-0.411c0.14,0.008,0.097-0.085,0.235-0.134
		c0.012,0.033-0.332-0.239-0.303-0.242C37.814,10.598,37.734,10.785,37.649,10.86z"/>
	<path class="st0" d="M41.502,17.117c0.004-0.011,0.018-0.134-0.027-0.116C41.399,17.038,41.448,17.098,41.502,17.117z"/>
	<path class="st0" d="M44.587,3.424c-0.008,0.025-0.01,0.052-0.008,0.08c0.023,0.006,0.11,0.016,0.083-0.039
		C44.649,3.465,44.624,3.395,44.587,3.424z"/>
	<path class="st0" d="M45.718,16.756c-0.002-0.113-0.049-0.287-0.126-0.116c-0.085-0.054-0.097-0.231-0.196-0.33
		c-0.184-0.186,0.087,0.279,0.087,0.349c0,0.068,0.006,0.245,0.006,0.26c0-0.016-0.109-0.008-0.111,0.074
		c0,0.105,0.079-0.008,0.097,0.058c-0.004-0.008,0.113,0.248,0.179,0.229c0.025-0.008,0.091-0.132,0.132-0.171
		C45.992,16.915,46.133,16.683,45.718,16.756z"/>
	<path class="st0" d="M39.075,10.21c-0.124,0-0.145,0.245-0.283,0.151c-0.149,0.016-0.28,0.116-0.2,0.283
		c0.12-0.291,0.297,0.043,0.489,0.126c-0.068-0.146,0.054-0.177,0.056-0.18C39.141,10.563,39.197,10.21,39.075,10.21z"/>
	<path class="st0" d="M47.483,1.112c-0.054-0.095-0.438-0.161-0.532-0.123c0.085,0.058,0.107,0.196-0.035,0.096
		c-0.05-0.036,0.021-0.174-0.044-0.228c-0.035-0.028-0.101-0.005-0.13-0.03c-0.052-0.045-0.2-0.13-0.252-0.159
		c-0.144-0.077-0.235-0.129-0.386-0.203c-0.31-0.151-0.98-0.268-1.18-0.063c0.347,0.141-0.545,0.267-0.07-0.042
		c-0.143-0.108-0.264,0.04-0.407,0.06c-0.175,0.023-0.481,0.045-0.635-0.032c-0.004,0.049-0.006,0.108,0,0.159
		c-0.219-0.244-0.208-0.525-0.662-0.498c-0.169,0.011-0.332,0.064-0.504,0.029c-0.123-0.026-0.192-0.071-0.262-0.11H40.67
		c0.023,0.029,0.041,0.06,0.025,0.096c-0.084-0.016-0.13-0.058-0.18-0.096h-0.544c-0.077,0.07-0.085,0.171-0.192,0.171
		c0.003,0-0.102-0.092-0.184-0.171h-6.865c0.057,0.038,0.106,0.081,0.099,0.13c-0.069-0.107-0.23-0.073-0.342-0.13h-0.326
		c0.013,0.121,0.038,0.357,0.045,0.368c0.147,0.241,0.107,0.023,0.287,0.093c0.223,0.088,0.212,0.205,0.212,0.351
		c0,0.052,0.175,0.08,0.202,0.083c-0.287,0.189-0.229-0.526-0.619-0.209c0,0,0.014,0.189-0.016,0.236
		c-0.054,0.088-0.112,0.121-0.188,0.162c-0.21,0.118-0.206,0.07-0.473,0.051c0.058-0.085,0.276-0.071,0.386-0.165
		c0.101-0.089,0.171-0.19,0.171-0.336c-0.127,0.011-0.188-0.385-0.199-0.636h-0.616c-0.043,0.07-0.079,0.13-0.081,0.136
		c0.045-0.125,0.047,0.3,0.008,0.223c0.035,0.074,0.103,0.055,0.151,0.156c0.031,0.066,0.178,0.063,0.151,0.166
		c-0.047,0.18-0.227-0.066-0.235-0.069c-0.202-0.054-0.357-0.128-0.551-0.193c-0.101-0.034-0.466-0.223-0.524-0.213
		c-0.254,0.039,0.479,0.331-0.012,0.524c0-0.384-0.799,0.278-0.652-0.158c-0.211,0.124-0.452,0.129-0.666,0.272
		c-0.037,0.025-0.497,0.446-0.466,0.021c0.349,0.012-0.058-0.223-0.256-0.223c0.087,0.086,0.149,0.525,0.062,0.578
		c0.021-0.012-0.206-0.064-0.27-0.051c-0.05,0.01-0.19,0.168-0.289,0.176c0.027,0.04,0.103,0.157,0.097,0.215
		c-0.142-0.074-0.309-0.004-0.427-0.153c-0.285,0.153,0.144,0.173,0.144,0.262c0,0.07-0.215,0.037-0.233,0.027
		c-0.213-0.101-0.107-0.076-0.202-0.233c-0.08-0.137-0.25-0.309-0.378-0.477c0.114,0.021,1.323,0.501,1.18-0.062
		c-0.035-0.135-0.363-0.26-0.489-0.307c-0.198-0.074-0.493-0.02-0.58-0.074c0.101-0.211-0.307-0.144-0.4-0.23
		c0.155,0,0.076-0.072-0.004-0.114c-0.2-0.106-0.118,0.027-0.26,0.027c0.016-0.03,0.035-0.103,0.043-0.135
		c-0.045-0.011-0.147-0.011-0.19,0c0.004,0.07-0.01,0.108,0,0.17c-0.034-0.083-0.065-0.073-0.128-0.128c0-0.025,0-0.049,0-0.073
		c-0.058,0.009-0.432,0.209-0.297,0.062c-0.289-0.029-0.264,0.128-0.11,0.213c-0.083-0.033-0.194-0.005-0.281-0.034
		c0,0.08,0.014,0.101-0.043,0.146c0-0.099-0.144-0.189-0.241-0.179c0.039,0.138-0.091,0.351-0.116,0.151
		c-0.169,0.169-0.012,0.049-0.07,0.228c-0.142-0.057-0.109-0.017-0.151-0.159c-0.058,0.02-0.091,0.082-0.181,0.124
		c0.025,0.046,0.021,0.024,0.021,0.069c-0.13,0-0.208,0.061-0.276,0.151c0.144-0.046,0.355-0.179,0.508-0.103
		c-0.204,0.047-0.504,0.393-0.543,0.642c-0.068,0.006-0.171,0.073-0.229,0.129c0.035,0,0.076,0,0.111,0
		c-0.016,0.136-0.33,0.272-0.427,0.25c0,0.056-0.01,0.033,0.014,0.103c-0.375,0.078-0.421,0.295-0.497,0.567
		c0.31-0.01-0.111,0.186,0.173,0.21c-0.006,0.078-0.045,0.089-0.035,0.163c0.305,0,0.417,0.035,0.621-0.221
		c0.134,0.023,0.235,0.5,0.353,0.634c0.033,0.039-0.076,0.107,0.01,0.138c0.198,0.078,0.112-0.066,0.196-0.097
		c0.149-0.052,0.231-0.105,0.359-0.136c0.01-0.025,0.01-0.047,0-0.07c-0.074,0.008-0.095,0.006-0.138-0.027
		c0.042-0.068,0.221-0.291,0.235-0.326c0.045-0.115,0.214-0.213-0.041-0.213c0-0.182-0.157-0.353,0.033-0.572
		c0.095-0.113,0.272-0.118,0.359-0.235c0.058-0.076,0.06-0.294,0.196-0.379c0.105-0.065,0.345,0.046,0.363,0.17
		c0.041,0.268-0.825,0.417-0.427,0.879c0.279,0.324,0.768-0.07,1.096,0.118c-0.182,0.186-0.444,0.105-0.662,0.132
		c-0.083,0.014-0.384,0.112-0.388,0.116c0.031,0.012,0.054,0.027,0.083,0.039c-0.066,0-0.11,0.023-0.173,0.043
		c0.076,0.198,0.219-0.031,0.27-0.008c0.095,0.047,0.103,0.097,0.186,0.153c-0.237,0.301-0.221-0.05-0.359,0
		c-0.167,0.06-0.155,0.421-0.159,0.51c-0.142,0-0.324-0.078-0.206,0.116c-0.213-0.217-0.332,0.016-0.566,0.037
		c-0.08,0.006-0.421-0.194-0.444,0.025c-0.089-0.006-0.177-0.039-0.225-0.076c0.025-0.239,0.367,0.101,0.332-0.324
		c-0.05,0.023-0.217,0.081-0.248,0.07c0.002-0.039,0.027-0.109,0.041-0.147c-0.027,0.012-0.056,0.012-0.081,0
		c0.031-0.225-0.027-0.266-0.202-0.087c-0.122,0.124-0.033,0.258-0.039,0.378c-0.014,0.31,0.077,0.14-0.163,0.279
		c-0.122,0.072-0.336,0.144-0.473,0.144c0.176,0.227-0.167,0.204-0.297,0.303c-0.013,0.01-0.12,0.256-0.159,0.268
		c-0.13,0.041-0.21-0.078-0.295-0.07c0.202,0.347-0.198,0.105-0.318,0.198c-0.146,0.113,0.039,0.074,0.085,0.142
		c0.068,0.095,0.148,0.134,0.217,0.277c0.392,0.782-0.559,0.299-0.945,0.462c0.074,0.25-0.035,0.543,0.027,0.786
		c0.056,0.217-0.018,0.083,0.173,0.206c0.12,0.078,0.182,0.004,0.297,0.146c0.025-0.029,0.021-0.043-0.013-0.041
		c0.198-0.07,0.444-0.151,0.601-0.297c0.064-0.06,0.095,0.016,0.144-0.052c0.029-0.041-0.058-0.109-0.054-0.113
		c0.023-0.033,0.041-0.171,0.089-0.229c0.064-0.078,0.343-0.159,0.392-0.2c0.058-0.049-0.041-0.149,0.064-0.213
		c0.087-0.054,0.246,0.068,0.343,0.05c0.037-0.004,0.219-0.225,0.318-0.21c0.134,0.023,0.268,0.277,0.378,0.367
		c0.334,0.26,0.923,0.615,0.091,0.615c0.223,0.39,0.574-0.016,0.669-0.246c-0.041,0-0.079,0-0.118,0
		c-0.002-0.025,0.002-0.049,0.006-0.074c0.058,0.019,0.206,0.049,0.25,0.049c-0.085-0.165-0.324-0.355-0.531-0.386
		c0.021-0.13-0.194-0.293-0.291-0.285c0.029-0.435,0.308-0.049,0.522,0.107c0.145,0.107,0.336,0.18,0.417,0.33
		c0.05,0.093,0.12,0.341,0.173,0.442c-0.056-0.018-0.072-0.029-0.124-0.019c0.044,0.118,0.107,0.175,0.186,0.081
		c0.083,0.427,0.367-0.031,0.524-0.056c-0.025-0.045-0.058-0.082-0.111-0.082c0.012,0.027,0.012,0.056,0,0.082
		c-0.081,0-0.252-0.254-0.227-0.309c0.083,0.047,0.13,0.074,0.221,0.033c-0.008-0.023-0.025-0.033-0.048-0.033
		c0.312-0.46,0.485,0.733,0.533,0.733c0.054,0,0.043-0.155,0.043-0.176c0.12,0.107,0.217,0.085,0.312,0.099
		c-0.099-0.014,0.159-0.066,0.153-0.066c0.099-0.004,0.143,0.12,0.305,0.081c-0.002-0.041-0.004-0.078,0-0.12
		c0.303,0.062,0.326,0.167,0.215,0.489c-0.037,0.113-0.178,0.295-0.276,0.338c-0.118,0.05-0.229-0.07-0.34-0.012
		c0.173,0.081,0.293,0.599,0.489,0.4c0.293,0.307,0.365,0.726,0.557,1.048c0.122,0.202,0.372,0.361,0.477,0.594
		c0.142,0.314-0.047,0.504,0.351,0.512c0.178,0,0.39-0.171,0.566-0.244c0.202-0.081,0.301-0.167,0.462-0.241
		c0.208-0.095,0.332-0.054,0.475-0.221c0.068-0.074,0.208-0.264,0.297-0.227c0-0.194,0.004-0.202,0.146-0.262
		c-0.016-0.093-0.173-0.198-0.243-0.256c-0.124-0.107,0-0.217-0.178-0.041c-0.019-0.083-0.045-0.266-0.111-0.316
		c-0.076,0.093-0.099,0.101-0.111,0.248c-0.275-0.023-0.706-0.013-0.2-0.105c-0.008-0.031-0.396-0.14-0.415-0.151
		c-0.06-0.043-0.245-0.246-0.26-0.338C28.82,7.3,28.973,7.405,29.161,7.537c0.233,0.159,0.312,0.233,0.586,0.322
		c0.047,0.016,0.157-0.016,0.221,0c0.048,0.014,0.06,0.122,0.126,0.151c0.122,0.058,0.427,0.085,0.571,0.091
		c0.332,0.012,0.425-0.017,0.691,0.134c0.144,0.081,0.157,0.184,0.372,0.225c-0.38,0,0.056,0.198,0.144,0.227
		c0.143,0.047,0.068-0.194,0.221,0.021c0.076,0.101,0.016,0.233,0.035,0.345c0.039,0.221,0.118,0.398,0.2,0.605
		c0.054,0.14,0.153,0.598,0.289,0.677c0.143,0.08,0.287-0.064,0.367-0.229c0.054-0.111,0.054-0.239,0.068-0.363
		c0.008-0.066-0.018-0.186,0.004-0.241c0.072-0.184,0.056-0.004,0.19-0.136c0.258-0.248,0.563-0.625,0.801-0.757
		c0.091-0.052,0.497-0.136,0.502-0.132c0.078,0.05,0.256,0.452,0.256,0.543c0.237,0-0.035,0.198,0.138,0.334
		c0.116,0.091,0.248-0.103,0.27-0.097c0.184,0.05,0.312,0.536,0.309,0.735c-0.002,0.107-0.165,0.219-0.093,0.402
		c0.043,0.109,0.21,0.21,0.27,0.347c0.072,0.167,0.221,0.766,0.541,0.613c-0.109-0.188-0.109-0.522-0.219-0.66
		c-0.161-0.192-0.349-0.182-0.394-0.462c-0.01-0.064-0.072-0.343,0.033-0.431c0.169-0.138,0.029-0.033,0.194,0.056
		c0.143,0.077,0.13,0.074,0.258,0.233c0.029,0.037,0.134,0.066,0.149,0.089c0.047,0.077-0.014,0.145,0.054,0.264
		c0.138-0.194,0.347-0.245,0.456-0.394c0.202-0.275,0.076-0.506-0.089-0.72c-0.25-0.326-0.316-0.722,0.262-0.722
		c0.037,0.167-0.213,0.349-0.116,0.435c0.237,0.21,0.287-0.404,0.281-0.4c0.103-0.093,0.326-0.099,0.442-0.136
		c0.171-0.054,0.227-0.091,0.37-0.2c0.2-0.149,0.568-0.477,0.615-0.747c0.035-0.198-0.07-0.076-0.089-0.21
		c-0.012-0.074,0.06-0.058,0.035-0.19c-0.031-0.159-0.252-0.357-0.248-0.471c0.008-0.219,0.231-0.145,0.31-0.262
		c0.07-0.103,0.07-0.097-0.136-0.173c-0.091-0.031-0.068,0.107-0.186,0.107c0.033-0.258-0.305-0.078-0.155-0.318
		c-0.01,0.017,0.268-0.105,0.283-0.113c0.303-0.114,0.213-0.151,0.089,0.167c0.089-0.05,0.328-0.177,0.429-0.132
		c0.211,0.095,0.044,0.128,0.062,0.303c0.326-0.136,0.227,0.38,0.192,0.537c0.233,0.025,0.497-0.13,0.491-0.355
		c-0.004-0.202-0.26-0.225-0.208-0.506c0.012-0.056,0.114-0.014,0.124-0.041c0.004-0.008,0.037-0.225,0.056-0.25
		c0.047-0.064,0.124-0.194,0.211-0.233c0.05-0.021,0.233,0.019,0.326-0.008c0.124-0.035,0.157-0.066,0.254-0.151
		c0.157-0.134,0.357-0.384,0.464-0.545c0.124-0.184,0.089-0.332,0.173-0.522c0.268-0.629,0.148,0.611,0.148,0.784
		c0.05-0.05,0.089-0.023,0.134-0.124c0.062,0.058,0.008,0.105,0.14,0.111c-0.037-0.252-0.306-0.475,0.068-0.475
		c0.01,0-0.178-0.858-0.186-0.958c-0.019,0-0.037,0-0.054,0c0.01,0.206-0.056,0.19-0.056,0.38c-0.157-0.093-0.126-0.295-0.413-0.38
		c-0.033,0.21-0.134,0.14-0.221,0c0.008,0.041,0.008,0.07,0,0.111c-0.122-0.017,0.002-0.095-0.089-0.173
		c-0.194,0.194-0.004-0.099,0.068-0.178c0.109-0.12,0.223-0.202,0.341-0.349c0.248-0.307,0.471-0.326,0.846-0.326
		c0.345,0,0.403-0.147,0.642-0.097c0.132,0.025-0.025,0.116,0.111,0.151c0.196,0.047,0.132-0.147,0.303-0.016
		c0.014-0.091,0.074-0.019,0.151-0.027c-0.043-0.173-0.109-0.019-0.041-0.2c0.029-0.08,0.21-0.258,0.272-0.293
		c0.223-0.124,0.411-0.076,0.411,0.177c0.301-0.056,0.376-0.466,0.662-0.409c-0.19,0.155-0.256,0.4-0.468,0.574
		c-0.268,0.221-0.607,0.343-0.702,0.633c-0.068,0.211-0.062,0.508-0.021,0.702c0.056,0.266,0.027,0.308,0.225,0.204
		c0.212-0.111,0.229-0.59,0.561-0.504c-0.089-0.169-0.021-0.398,0.171-0.275c-0.062-0.138-0.01-0.266-0.027-0.351
		c-0.012-0.043-0.091-0.012-0.124,0c0.006-0.068,0.116-0.334,0.159-0.372c0.114-0.105,0.128-0.045,0.272-0.078
		c0.078-0.016,0.048,0.054,0.101,0.05c0.072-0.006,0.091-0.122,0.151-0.126c0.074-0.002,0.143,0.023,0.219,0.014
		c0.173-0.019,0.031,0.105,0.167,0.132c0-0.328,0.78-0.53,1.001-0.594c0.2-0.056,0.221,0.177,0.151-0.124
		c-0.062-0.268-0.2-0.161-0.372-0.275c-0.099-0.074,0.409-0.056,0.407-0.054c0.147-0.059,0.194-0.14,0.124-0.29
		c0.103-0.007,0.118,0.1,0.151,0.104c0.019,0.002,0.235,0.041,0.262,0.054c0.14,0.066,0.105,0.109,0.283,0.151
		c0.244,0.062,0.056,0.043,0.186-0.008c0.107-0.039,0.021-0.144,0.083-0.198C47.262,1.223,47.635,1.38,47.483,1.112z M25.799,0.12
		c0.021-0.009,0.062-0.003,0.088-0.001C25.859,0.253,25.799,0.303,25.799,0.12z"/>
	<path class="st0" d="M47.303,1.777c0.116,0.019,0.277,0.07,0.394,0.054C47.598,1.637,47.385,1.786,47.303,1.777z"/>
	<path class="st0" d="M45.332,17.255c-0.256-0.153-0.153,0.109-0.305,0.276c-0.134,0.149-0.386,0.186-0.483,0.359
		c-0.074,0.134-0.05,0.279,0.235,0.243c0.223,0,0.276-0.417,0.545-0.472C45.206,17.412,45.654,17.451,45.332,17.255z"/>
	<path class="st0" d="M44.117,14.213c0.105,0.161,0.196,0.293,0.419,0.316C44.519,14.432,44.207,14.209,44.117,14.213z"/>
	<path class="st0" d="M44.207,2.638c-0.12-0.047-0.132,0.027-0.179,0.099c0.029,0.006,0.058,0.006,0.087,0
		C44.168,2.737,44.203,2.675,44.207,2.638z"/>
	<path class="st0" d="M44.476,3.486c-0.027-0.078-0.019-0.126-0.091-0.18c0,0.074,0.016,0.138,0.021,0.21
		C44.455,3.529,44.49,3.531,44.476,3.486z"/>
	<path class="st0" d="M44.606,18.2c-0.023,0.017-0.031,0.029-0.048,0.052c0.037,0,0.074,0,0.111,0
		C44.674,18.215,44.664,18.157,44.606,18.2z"/>
	<path class="st0" d="M39.867,12.453c-0.081,0.012-0.116,0.056-0.103,0.132C39.764,12.612,39.962,12.643,39.867,12.453z"/>
	<path class="st0" d="M39.744,11.565C39.933,11.374,39.42,11.502,39.744,11.565L39.744,11.565z"/>
	<path class="st0" d="M40.177,11.757c-0.159-0.293-0.254-0.089-0.4-0.146c-0.033-0.004-0.062,0.004-0.089,0.029
		C39.832,11.724,39.987,11.844,40.177,11.757z"/>
	<path class="st0" d="M39.605,11.735c0.05,0.023,0.072,0.151,0.093-0.012C39.628,11.735,39.62,11.741,39.605,11.735z"/>
	<path class="st0" d="M39.358,11.894c0,0.05,0.289,0.097,0.372,0.097C39.713,11.836,39.383,11.879,39.358,11.894z"/>
	<path class="st0" d="M40.451,11.603c-0.031,0-0.062,0-0.093,0c0.008,0.062,0.017,0.076,0.014,0.147c0.046,0,0.093,0,0.138,0
		C40.487,11.685,40.451,11.716,40.451,11.603z"/>
	<path class="st0" d="M42.199,5.005c0.085,0.05,0.109-0.004,0.14-0.078C42.28,4.937,42.251,4.978,42.199,5.005z"/>
	<path class="st0" d="M40.641,12.616c0.027,0.052,0.186-0.066,0.241-0.052c0.173,0.048,0.241,0.204,0.456,0.138
		c0.132-0.039,0.126-0.229,0.343-0.151c0.085,0.031,0.105,0.136,0.18,0.178c0.145,0.085,0.074,0.058,0.272,0.105
		c0.299,0.068,0.2,0.089,0.052-0.116c-0.021-0.031-0.167-0.014-0.192-0.035c0.014,0.011-0.081-0.241-0.062-0.177
		c-0.006-0.021-0.186-0.153,0.047-0.132c-0.045-0.083-0.258-0.239-0.365-0.299c-0.202-0.116-0.359-0.155-0.584-0.223
		c-0.318-0.103-0.301-0.041-0.553,0c-0.157,0.027-0.328-0.048-0.547,0.008c0.023,0.085,0.056,0.167,0.097,0.146
		c0.126-0.056,0.285,0.054,0.407,0.11c0.103,0.048,0.204,0.019,0.276,0.146c0.097,0.169-0.013,0.124,0.008,0.221
		C40.722,12.507,40.581,12.503,40.641,12.616z"/>
	<path class="st0" d="M40.22,12.226c-0.045,0.029-0.083,0.095-0.083,0.153C40.136,12.492,40.396,12.108,40.22,12.226z"/>
	<path class="st0" d="M39.82,13.047c0-0.019,0-0.037,0-0.054c-0.041-0.004-0.204-0.004-0.151-0.008
		C39.494,13.016,39.758,13.053,39.82,13.047z"/>
	<path class="st0" d="M38.751,10.108c-0.023-0.107-0.25-0.367-0.367-0.386c-0.004,0.05,0.155,0.442,0.27,0.421
		C38.596,10.27,38.802,10.358,38.751,10.108z"/>
	<path class="st0" d="M38.122,11.902c0,0,0.141,0.179,0.124,0.159c-0.006-0.008,0.021,0.159,0.027,0.178
		c0.099-0.066,0.076-0.264,0.076-0.372c0.029,0,0.056,0,0.083,0c0.01,0.045,0.159,0.378,0.217,0.351
		c0.105-0.047-0.089-0.413-0.149-0.491C39.139,11.727,38.122,11.355,38.122,11.902z"/>
	<path class="st0" d="M38.93,11.708c-0.12,0.027,0.109,0.056,0.151,0.048C39.081,11.677,38.995,11.696,38.93,11.708z"/>
	<path class="st0" d="M39.205,12.531c-0.052-0.046-0.08-0.013-0.151-0.029C39.067,12.573,39.143,12.558,39.205,12.531z"/>
	<path class="st0" d="M38.212,12.634c-0.021,0.006-0.025-0.006-0.014-0.037c-0.114,0-0.196-0.012-0.305,0.008
		C37.794,12.612,38.142,12.634,38.212,12.634z"/>
	<path class="st0" d="M38.287,12.634c0.12,0.12,0.497,0.021,0.634-0.037C38.811,12.577,38.34,12.577,38.287,12.634z"/>
	<path class="st0" d="M38.233,11.53c0.2-0.093,0.254-0.074,0.468-0.116c0.066-0.016,0.087,0.06,0.167,0.027
		c0.043-0.019,0.204-0.186,0.054-0.124C38.815,11.355,38.204,11.273,38.233,11.53z"/>
	<path class="st0" d="M38.778,12.798c0,0.12,0.466-0.109,0.516-0.159C39.112,12.548,38.809,12.744,38.778,12.798z"/>
	<path class="st0" d="M38.681,12.985c0.027,0,0.054,0,0.081,0c0.008-0.035,0.006-0.085-0.041-0.07
		C38.666,12.923,38.652,12.944,38.681,12.985z"/>
	<path class="st0" d="M38.239,12.723c-0.173,0.052,0.143,0.138,0.2,0.134C38.415,12.829,38.299,12.711,38.239,12.723z"/>
</g>
<g>
	<path class="st1" d="M24.42,0.903c0.004-0.445-0.381-0.837-0.851-0.851c-0.47,0.014-0.854,0.406-0.851,0.851
		c0.002,0.134,0.037,0.268,0.09,0.406c-0.002,0-0.004-0.002-0.005-0.002c0.235,0.561,0.491,1.177,0.766,1.7
		c0.279-0.523,0.533-1.139,0.766-1.7l-0.003,0.002C24.384,1.171,24.42,1.037,24.42,0.903z"/>
	<path class="st2" d="M24.226,0.871c0,0.362-0.293,0.655-0.657,0.655c-0.362,0-0.653-0.293-0.653-0.655
		c0-0.362,0.291-0.655,0.653-0.655C23.932,0.216,24.226,0.509,24.226,0.871z"/>
	<g>
		<path class="st3" d="M23.858,1.36h-0.575c-0.04,0-0.07-0.03-0.07-0.07V0.872c-0.027-0.035-0.088-0.122-0.088-0.2
			c0-0.077,0.03-0.151,0.085-0.205c0.055-0.055,0.127-0.084,0.205-0.084h0.001c0.055,0,0.118,0.03,0.155,0.051
			c0.037-0.021,0.1-0.051,0.155-0.051c0.16,0,0.29,0.13,0.29,0.289c0,0.042-0.017,0.091-0.049,0.145
			c-0.014,0.023-0.024,0.04-0.034,0.052V1.29C23.933,1.33,23.9,1.36,23.858,1.36z M23.343,1.23h0.46V0.855
			c-0.001-0.018,0.004-0.036,0.014-0.05l0.024-0.037l0.002-0.003c0.019-0.03,0.044-0.069,0.044-0.095
			c0-0.088-0.071-0.158-0.159-0.158c-0.028,0-0.084,0.029-0.114,0.048l-0.004,0.003c-0.024,0.013-0.051,0.013-0.075,0L23.529,0.56
			c-0.03-0.019-0.086-0.048-0.114-0.048c0,0,0,0-0.001,0c-0.043,0-0.082,0.017-0.112,0.046s-0.047,0.07-0.047,0.112
			c0,0.033,0.04,0.097,0.067,0.13l0.001,0.002c0.01,0.012,0.016,0.025,0.018,0.04l0.001,0.006L23.343,1.23L23.343,1.23z"/>
		<path class="st3" d="M23.571,1.108h-0.124c-0.027,0-0.043-0.017-0.043-0.044c0-0.028,0.016-0.044,0.041-0.044h0.25
			c0.027,0,0.041,0.017,0.041,0.044c0,0.027-0.016,0.044-0.042,0.044H23.571L23.571,1.108z"/>
		<path class="st3" d="M23.571,0.939h-0.124c-0.027,0-0.043-0.017-0.043-0.044c0-0.028,0.016-0.044,0.041-0.044h0.25
			c0.027,0,0.041,0.017,0.041,0.044c0,0.027-0.016,0.044-0.042,0.044H23.571L23.571,0.939z"/>
		<path class="st3" d="M23.571,0.768h-0.124c-0.027,0-0.043-0.017-0.043-0.044c0-0.028,0.016-0.044,0.041-0.044h0.25
			c0.027,0,0.041,0.017,0.041,0.044c0,0.027-0.016,0.044-0.042,0.044H23.571L23.571,0.768z"/>
	</g>
</g>
<g>
	<path class="st1" d="M23.019,1.59c0.004-0.445-0.381-0.837-0.851-0.851c-0.47,0.014-0.854,0.406-0.851,0.851
		c0.002,0.134,0.037,0.268,0.09,0.406c-0.002,0-0.004-0.002-0.005-0.002c0.235,0.561,0.491,1.177,0.766,1.7
		c0.279-0.523,0.533-1.139,0.766-1.7L22.93,1.996C22.983,1.859,23.019,1.724,23.019,1.59z"/>
	<path class="st2" d="M22.824,1.558c0,0.362-0.293,0.655-0.657,0.655c-0.362,0-0.653-0.293-0.653-0.655
		c0-0.362,0.291-0.655,0.653-0.655C22.531,0.903,22.824,1.197,22.824,1.558z"/>
	<g>
		<path class="st3" d="M22.457,2.047h-0.575c-0.04,0-0.07-0.03-0.07-0.07V1.559c-0.027-0.035-0.088-0.122-0.088-0.2
			c0-0.077,0.03-0.151,0.085-0.205c0.055-0.055,0.127-0.084,0.205-0.084h0.001c0.055,0,0.118,0.03,0.155,0.051
			c0.037-0.021,0.1-0.051,0.155-0.051c0.16,0,0.29,0.13,0.29,0.289c0,0.042-0.017,0.091-0.049,0.145
			c-0.014,0.023-0.024,0.04-0.034,0.052v0.421C22.532,2.017,22.499,2.047,22.457,2.047z M21.942,1.917h0.46V1.542
			c-0.001-0.018,0.004-0.036,0.014-0.05l0.024-0.037l0.002-0.003c0.019-0.03,0.044-0.069,0.044-0.095
			c0-0.088-0.071-0.158-0.159-0.158c-0.028,0-0.084,0.029-0.114,0.048L22.207,1.25c-0.024,0.013-0.051,0.013-0.075,0l-0.004-0.003
			c-0.03-0.019-0.086-0.048-0.114-0.048c0,0,0,0-0.001,0c-0.043,0-0.082,0.017-0.112,0.046c-0.03,0.03-0.047,0.07-0.047,0.112
			c0,0.033,0.04,0.097,0.067,0.13l0.001,0.002c0.01,0.012,0.016,0.025,0.018,0.04l0.001,0.006L21.942,1.917L21.942,1.917z"/>
		<path class="st3" d="M22.17,1.795h-0.124c-0.027,0-0.043-0.017-0.043-0.044c0-0.028,0.016-0.044,0.041-0.044h0.25
			c0.027,0,0.041,0.017,0.041,0.044c0,0.027-0.016,0.044-0.042,0.044H22.17L22.17,1.795z"/>
		<path class="st3" d="M22.17,1.626h-0.124c-0.027,0-0.043-0.017-0.043-0.044c0-0.028,0.016-0.044,0.041-0.044h0.25
			c0.027,0,0.041,0.017,0.041,0.044c0,0.027-0.016,0.044-0.042,0.044H22.17L22.17,1.626z"/>
		<path class="st3" d="M22.17,1.455h-0.124c-0.027,0-0.043-0.017-0.043-0.044c0-0.028,0.016-0.044,0.041-0.044h0.25
			c0.027,0,0.041,0.017,0.041,0.044c0,0.027-0.016,0.044-0.042,0.044H22.17L22.17,1.455z"/>
	</g>
</g>
<g>
	<path class="st1" d="M25.127,0.851C25.131,0.406,24.746,0.014,24.276,0c-0.47,0.014-0.854,0.406-0.851,0.851
		c0.002,0.134,0.037,0.268,0.09,0.406c-0.002,0-0.004-0.002-0.005-0.002c0.235,0.561,0.491,1.177,0.766,1.7
		c0.279-0.523,0.533-1.139,0.766-1.7l-0.003,0.002C25.092,1.119,25.127,0.985,25.127,0.851z"/>
	<path class="st2" d="M24.933,0.819c0,0.362-0.293,0.655-0.657,0.655c-0.362,0-0.653-0.293-0.653-0.655
		c0-0.362,0.291-0.655,0.653-0.655C24.64,0.164,24.933,0.457,24.933,0.819z"/>
	<g>
		<path class="st3" d="M24.566,1.308h-0.575c-0.04,0-0.07-0.03-0.07-0.07V0.82c-0.027-0.035-0.088-0.122-0.088-0.2
			c0-0.077,0.03-0.151,0.085-0.205c0.055-0.055,0.127-0.084,0.205-0.084h0.001c0.055,0,0.118,0.03,0.155,0.051
			c0.037-0.021,0.1-0.051,0.155-0.051c0.16,0,0.29,0.13,0.29,0.289c0,0.042-0.017,0.091-0.049,0.145
			c-0.014,0.023-0.024,0.04-0.034,0.052v0.421C24.641,1.277,24.608,1.308,24.566,1.308z M24.051,1.177h0.46V0.803
			c-0.001-0.018,0.004-0.036,0.014-0.05l0.024-0.037l0.002-0.003c0.019-0.03,0.044-0.069,0.044-0.095
			c0-0.088-0.071-0.158-0.159-0.158c-0.028,0-0.084,0.029-0.114,0.048l-0.004,0.003c-0.024,0.013-0.051,0.013-0.075,0l-0.004-0.003
			c-0.03-0.019-0.086-0.048-0.114-0.048c0,0,0,0-0.001,0c-0.043,0-0.082,0.017-0.112,0.046c-0.03,0.03-0.047,0.07-0.047,0.112
			c0,0.033,0.04,0.097,0.067,0.13l0.001,0.002c0.01,0.012,0.016,0.025,0.018,0.04l0.001,0.006L24.051,1.177L24.051,1.177z"/>
		<path class="st3" d="M24.279,1.055h-0.124c-0.027,0-0.043-0.017-0.043-0.044c0-0.028,0.016-0.044,0.041-0.044h0.25
			c0.027,0,0.041,0.017,0.041,0.044c0,0.027-0.016,0.044-0.042,0.044H24.279L24.279,1.055z"/>
		<path class="st3" d="M24.279,0.887h-0.124c-0.027,0-0.043-0.017-0.043-0.044c0-0.028,0.016-0.044,0.041-0.044h0.25
			c0.027,0,0.041,0.017,0.041,0.044c0,0.027-0.016,0.044-0.042,0.044H24.279L24.279,0.887z"/>
		<path class="st3" d="M24.279,0.716h-0.124c-0.027,0-0.043-0.017-0.043-0.044c0-0.028,0.016-0.044,0.041-0.044h0.25
			c0.027,0,0.041,0.017,0.041,0.044c0,0.027-0.016,0.044-0.042,0.044H24.279L24.279,0.716z"/>
	</g>
</g>
<g>
	<path class="st1" d="M12.015,2.359c0.004-0.445-0.381-0.837-0.851-0.851c-0.47,0.014-0.854,0.406-0.851,0.851
		c0.002,0.134,0.037,0.268,0.09,0.406c-0.002,0-0.004-0.002-0.005-0.002c0.235,0.561,0.491,1.177,0.766,1.7
		c0.279-0.523,0.533-1.139,0.766-1.7l-0.003,0.002C11.979,2.627,12.015,2.493,12.015,2.359z"/>
	<path class="st2" d="M11.821,2.327c0,0.362-0.293,0.655-0.657,0.655c-0.362,0-0.653-0.293-0.653-0.655
		c0-0.362,0.291-0.655,0.653-0.655C11.527,1.672,11.821,1.965,11.821,2.327z"/>
	<g>
		<path class="st3" d="M11.453,2.816h-0.575c-0.04,0-0.07-0.03-0.07-0.07V2.327c-0.027-0.035-0.088-0.122-0.088-0.2
			c0-0.077,0.03-0.151,0.085-0.205c0.055-0.055,0.127-0.084,0.205-0.084h0.001c0.055,0,0.118,0.03,0.155,0.051
			c0.037-0.021,0.1-0.051,0.155-0.051c0.16,0,0.29,0.13,0.29,0.289c0,0.042-0.017,0.091-0.049,0.145
			c-0.014,0.023-0.024,0.04-0.034,0.052v0.421C11.528,2.785,11.495,2.816,11.453,2.816z M10.938,2.685h0.46V2.311
			c-0.001-0.018,0.004-0.036,0.014-0.05l0.024-0.037l0.002-0.003c0.019-0.03,0.044-0.069,0.044-0.095
			c0-0.088-0.071-0.158-0.159-0.158c-0.028,0-0.084,0.029-0.114,0.048l-0.004,0.003c-0.024,0.013-0.051,0.013-0.075,0l-0.004-0.003
			c-0.03-0.019-0.086-0.048-0.114-0.048c0,0,0,0-0.001,0c-0.043,0-0.082,0.017-0.112,0.046c-0.03,0.03-0.047,0.07-0.047,0.112
			c0,0.033,0.04,0.097,0.067,0.13l0.001,0.002c0.01,0.012,0.016,0.025,0.018,0.04l0.001,0.006L10.938,2.685L10.938,2.685z"/>
		<path class="st3" d="M11.166,2.563h-0.124C11.015,2.563,11,2.547,11,2.52c0-0.028,0.016-0.044,0.041-0.044h0.25
			c0.027,0,0.041,0.017,0.041,0.044c0,0.027-0.016,0.044-0.042,0.044H11.166L11.166,2.563z"/>
		<path class="st3" d="M11.166,2.394h-0.124C11.015,2.394,11,2.378,11,2.351c0-0.028,0.016-0.044,0.041-0.044h0.25
			c0.027,0,0.041,0.017,0.041,0.044c0,0.027-0.016,0.044-0.042,0.044H11.166L11.166,2.394z"/>
		<path class="st3" d="M11.166,2.224h-0.124C11.015,2.224,11,2.207,11,2.18c0-0.028,0.016-0.044,0.041-0.044h0.25
			c0.027,0,0.041,0.017,0.041,0.044c0,0.027-0.016,0.044-0.042,0.044H11.166L11.166,2.224z"/>
	</g>
</g>
<g>
	<path class="st1" d="M12.633,5.4c0.004-0.445-0.381-0.837-0.851-0.851c-0.47,0.014-0.854,0.406-0.851,0.851
		c0.002,0.134,0.037,0.268,0.09,0.406c-0.002,0-0.004-0.002-0.005-0.002c0.235,0.561,0.491,1.177,0.766,1.7
		c0.279-0.523,0.533-1.139,0.766-1.7l-0.003,0.002C12.597,5.669,12.633,5.534,12.633,5.4z"/>
	<path class="st2" d="M12.438,5.369c0,0.362-0.293,0.655-0.657,0.655c-0.362,0-0.653-0.293-0.653-0.655
		c0-0.362,0.291-0.655,0.653-0.655C12.145,4.714,12.438,5.007,12.438,5.369z"/>
	<g>
		<path class="st3" d="M12.071,5.857h-0.575c-0.04,0-0.07-0.03-0.07-0.07V5.369c-0.027-0.035-0.088-0.122-0.088-0.2
			c0-0.077,0.03-0.151,0.085-0.205c0.055-0.055,0.127-0.084,0.205-0.084h0.001c0.055,0,0.118,0.03,0.155,0.051
			c0.037-0.021,0.1-0.051,0.155-0.051c0.16,0,0.29,0.13,0.29,0.289c0,0.042-0.017,0.091-0.049,0.145
			c-0.014,0.023-0.024,0.04-0.034,0.052v0.421C12.146,5.827,12.113,5.857,12.071,5.857z M11.556,5.727h0.46V5.352
			c-0.001-0.018,0.004-0.036,0.014-0.05l0.024-0.037l0.002-0.003c0.019-0.03,0.044-0.069,0.044-0.095
			c0-0.088-0.071-0.158-0.159-0.158c-0.028,0-0.084,0.029-0.114,0.048L11.821,5.06c-0.024,0.013-0.051,0.013-0.075,0l-0.004-0.003
			c-0.03-0.019-0.086-0.048-0.114-0.048c0,0,0,0-0.001,0c-0.043,0-0.082,0.017-0.112,0.046c-0.03,0.03-0.047,0.07-0.047,0.112
			c0,0.033,0.04,0.097,0.067,0.13l0.001,0.002c0.01,0.012,0.016,0.025,0.018,0.04l0.001,0.006L11.556,5.727L11.556,5.727z"/>
		<path class="st3" d="M11.784,5.605H11.66c-0.027,0-0.043-0.017-0.043-0.044c0-0.028,0.016-0.044,0.041-0.044h0.25
			c0.027,0,0.041,0.017,0.041,0.044c0,0.027-0.016,0.044-0.042,0.044H11.784L11.784,5.605z"/>
		<path class="st3" d="M11.784,5.436H11.66c-0.027,0-0.043-0.017-0.043-0.044c0-0.028,0.016-0.044,0.041-0.044h0.25
			c0.027,0,0.041,0.017,0.041,0.044c0,0.027-0.016,0.044-0.042,0.044H11.784L11.784,5.436z"/>
		<path class="st3" d="M11.784,5.265H11.66c-0.027,0-0.043-0.017-0.043-0.044c0-0.028,0.016-0.044,0.041-0.044h0.25
			c0.027,0,0.041,0.017,0.041,0.044c0,0.027-0.016,0.044-0.042,0.044H11.784L11.784,5.265z"/>
	</g>
</g>
<g>
	<path class="st1" d="M14.194,13.793c0.004-0.445-0.381-0.837-0.851-0.851c-0.47,0.014-0.854,0.406-0.851,0.851
		c0.002,0.134,0.037,0.268,0.09,0.406c-0.002,0-0.004-0.002-0.005-0.002c0.235,0.561,0.491,1.177,0.766,1.7
		c0.279-0.523,0.533-1.139,0.766-1.7l-0.003,0.002C14.159,14.061,14.194,13.927,14.194,13.793z"/>
	<path class="st2" d="M14,13.761c0,0.362-0.293,0.655-0.657,0.655c-0.362,0-0.653-0.293-0.653-0.655
		c0-0.362,0.291-0.655,0.653-0.655C13.707,13.106,14,13.399,14,13.761z"/>
	<g>
		<path class="st3" d="M13.633,14.25h-0.575c-0.04,0-0.07-0.03-0.07-0.07v-0.419c-0.027-0.035-0.088-0.122-0.088-0.2
			c0-0.077,0.03-0.151,0.085-0.205c0.055-0.055,0.127-0.084,0.205-0.084h0.001c0.055,0,0.118,0.03,0.155,0.051
			c0.037-0.021,0.1-0.051,0.155-0.051c0.16,0,0.29,0.13,0.29,0.289c0,0.042-0.017,0.091-0.049,0.145
			c-0.014,0.023-0.024,0.04-0.034,0.052v0.421C13.708,14.219,13.675,14.25,13.633,14.25z M13.118,14.119h0.46v-0.374
			c-0.001-0.018,0.004-0.036,0.014-0.05l0.024-0.037l0.002-0.003c0.019-0.03,0.044-0.069,0.044-0.095
			c0-0.088-0.071-0.158-0.159-0.158c-0.028,0-0.084,0.029-0.114,0.048l-0.004,0.003c-0.024,0.013-0.051,0.013-0.075,0l-0.004-0.003
			c-0.03-0.019-0.086-0.048-0.114-0.048c0,0,0,0-0.001,0c-0.043,0-0.082,0.017-0.112,0.046s-0.047,0.07-0.047,0.112
			c0,0.033,0.04,0.097,0.067,0.13l0.001,0.002c0.01,0.012,0.016,0.025,0.018,0.04l0.001,0.006L13.118,14.119L13.118,14.119z"/>
		<path class="st3" d="M13.346,13.997h-0.124c-0.027,0-0.043-0.017-0.043-0.044c0-0.028,0.016-0.044,0.041-0.044h0.25
			c0.027,0,0.041,0.017,0.041,0.044c0,0.027-0.016,0.044-0.042,0.044H13.346L13.346,13.997z"/>
		<path class="st3" d="M13.346,13.828h-0.124c-0.027,0-0.043-0.017-0.043-0.044c0-0.028,0.016-0.044,0.041-0.044h0.25
			c0.027,0,0.041,0.017,0.041,0.044c0,0.027-0.016,0.044-0.042,0.044H13.346L13.346,13.828z"/>
		<path class="st3" d="M13.346,13.658h-0.124c-0.027,0-0.043-0.017-0.043-0.044c0-0.028,0.016-0.044,0.041-0.044h0.25
			c0.027,0,0.041,0.017,0.041,0.044c0,0.027-0.016,0.044-0.042,0.044H13.346L13.346,13.658z"/>
	</g>
</g>
<g>
	<path class="st1" d="M15.312,8.91c0.004-0.445-0.381-0.837-0.851-0.851c-0.47,0.014-0.854,0.406-0.851,0.851
		c0.002,0.134,0.037,0.268,0.09,0.406c-0.002,0-0.004-0.002-0.005-0.002c0.235,0.561,0.491,1.177,0.766,1.7
		c0.279-0.523,0.533-1.139,0.766-1.7l-0.003,0.002C15.277,9.179,15.312,9.044,15.312,8.91z"/>
	<path class="st2" d="M15.118,8.879c0,0.362-0.293,0.655-0.657,0.655c-0.362,0-0.653-0.293-0.653-0.655
		c0-0.362,0.291-0.655,0.653-0.655C14.825,8.224,15.118,8.517,15.118,8.879z"/>
	<g>
		<path class="st3" d="M14.751,9.367h-0.575c-0.04,0-0.07-0.03-0.07-0.07V8.879c-0.027-0.035-0.088-0.122-0.088-0.2
			c0-0.077,0.03-0.151,0.085-0.205c0.055-0.055,0.127-0.084,0.205-0.084h0.001c0.055,0,0.118,0.03,0.155,0.051
			c0.037-0.021,0.1-0.051,0.155-0.051c0.16,0,0.29,0.13,0.29,0.289c0,0.042-0.017,0.091-0.049,0.145
			c-0.014,0.023-0.024,0.04-0.034,0.052v0.421C14.826,9.337,14.793,9.367,14.751,9.367z M14.236,9.237h0.46V8.862
			c-0.001-0.018,0.004-0.036,0.014-0.05l0.024-0.037l0.002-0.003c0.019-0.03,0.044-0.069,0.044-0.095
			c0-0.088-0.071-0.158-0.159-0.158c-0.028,0-0.084,0.029-0.114,0.048L14.501,8.57c-0.024,0.013-0.051,0.013-0.075,0l-0.004-0.003
			c-0.03-0.019-0.086-0.048-0.114-0.048c0,0,0,0-0.001,0c-0.043,0-0.082,0.017-0.112,0.046c-0.03,0.03-0.047,0.07-0.047,0.112
			c0,0.033,0.04,0.097,0.067,0.13l0.001,0.002c0.01,0.012,0.016,0.025,0.018,0.04l0.001,0.006L14.236,9.237L14.236,9.237z"/>
		<path class="st3" d="M14.464,9.115H14.34c-0.027,0-0.043-0.017-0.043-0.044c0-0.028,0.016-0.044,0.041-0.044h0.25
			c0.027,0,0.041,0.017,0.041,0.044c0,0.027-0.016,0.044-0.042,0.044H14.464L14.464,9.115z"/>
		<path class="st3" d="M14.464,8.946H14.34c-0.027,0-0.043-0.017-0.043-0.044c0-0.028,0.016-0.044,0.041-0.044h0.25
			c0.027,0,0.041,0.017,0.041,0.044c0,0.027-0.016,0.044-0.042,0.044H14.464L14.464,8.946z"/>
		<path class="st3" d="M14.464,8.775H14.34c-0.027,0-0.043-0.017-0.043-0.044c0-0.028,0.016-0.044,0.041-0.044h0.25
			c0.027,0,0.041,0.017,0.041,0.044c0,0.027-0.016,0.044-0.042,0.044H14.464L14.464,8.775z"/>
	</g>
</g>
<g>
	<path class="st1" d="M15.969,8.488c0.004-0.445-0.381-0.837-0.851-0.851c-0.47,0.014-0.854,0.406-0.851,0.851
		c0.002,0.134,0.037,0.268,0.09,0.406c-0.002,0-0.004-0.002-0.005-0.002c0.235,0.561,0.491,1.177,0.766,1.7
		c0.279-0.523,0.533-1.139,0.766-1.7l-0.003,0.002C15.934,8.757,15.969,8.622,15.969,8.488z"/>
	<path class="st2" d="M15.775,8.456c0,0.362-0.293,0.655-0.657,0.655c-0.362,0-0.653-0.293-0.653-0.655
		c0-0.362,0.291-0.655,0.653-0.655C15.482,7.801,15.775,8.095,15.775,8.456z"/>
	<g>
		<path class="st3" d="M15.408,8.945h-0.575c-0.04,0-0.07-0.03-0.07-0.07V8.457c-0.027-0.035-0.088-0.122-0.088-0.2
			c0-0.077,0.03-0.151,0.085-0.205c0.055-0.055,0.127-0.084,0.205-0.084h0.001c0.055,0,0.118,0.03,0.155,0.051
			c0.037-0.021,0.1-0.051,0.155-0.051c0.16,0,0.29,0.13,0.29,0.289c0,0.042-0.017,0.091-0.049,0.145
			c-0.014,0.023-0.024,0.04-0.034,0.052v0.421C15.483,8.915,15.45,8.945,15.408,8.945z M14.892,8.815h0.46V8.44
			c-0.001-0.018,0.004-0.036,0.014-0.05l0.024-0.037l0.002-0.003c0.019-0.03,0.044-0.069,0.044-0.095
			c0-0.088-0.071-0.158-0.159-0.158c-0.028,0-0.084,0.029-0.114,0.048l-0.004,0.003c-0.024,0.013-0.051,0.013-0.075,0l-0.004-0.003
			c-0.03-0.019-0.086-0.048-0.114-0.048c0,0,0,0-0.001,0c-0.043,0-0.082,0.017-0.112,0.046c-0.03,0.03-0.047,0.07-0.047,0.112
			c0,0.033,0.04,0.097,0.067,0.13l0.001,0.002c0.01,0.012,0.016,0.025,0.018,0.04l0.001,0.006L14.892,8.815L14.892,8.815z"/>
		<path class="st3" d="M15.12,8.693h-0.124c-0.027,0-0.043-0.017-0.043-0.044c0-0.028,0.016-0.044,0.041-0.044h0.25
			c0.027,0,0.041,0.017,0.041,0.044c0,0.027-0.016,0.044-0.042,0.044H15.12L15.12,8.693z"/>
		<path class="st3" d="M15.12,8.524h-0.124c-0.027,0-0.043-0.017-0.043-0.044c0-0.028,0.016-0.044,0.041-0.044h0.25
			c0.027,0,0.041,0.017,0.041,0.044c0,0.027-0.016,0.044-0.042,0.044H15.12L15.12,8.524z"/>
		<path class="st3" d="M15.12,8.353h-0.124c-0.027,0-0.043-0.017-0.043-0.044c0-0.028,0.016-0.044,0.041-0.044h0.25
			c0.027,0,0.041,0.017,0.041,0.044c0,0.027-0.016,0.044-0.042,0.044H15.12L15.12,8.353z"/>
	</g>
</g>
<g>
	<path class="st1" d="M17.764,11.017c0.004-0.445-0.381-0.837-0.851-0.851c-0.47,0.014-0.854,0.406-0.851,0.851
		c0.002,0.134,0.037,0.268,0.09,0.406c-0.002,0-0.004-0.002-0.005-0.002c0.235,0.561,0.491,1.177,0.766,1.7
		c0.279-0.523,0.533-1.139,0.766-1.7l-0.003,0.002C17.728,11.286,17.764,11.152,17.764,11.017z"/>
	<path class="st2" d="M17.57,10.986c0,0.362-0.293,0.655-0.657,0.655c-0.362,0-0.653-0.293-0.653-0.655
		c0-0.362,0.291-0.655,0.653-0.655C17.277,10.331,17.57,10.624,17.57,10.986z"/>
	<g>
		<path class="st3" d="M17.203,11.474h-0.575c-0.04,0-0.07-0.03-0.07-0.07v-0.419c-0.027-0.035-0.088-0.122-0.088-0.2
			c0-0.077,0.03-0.151,0.085-0.205c0.055-0.055,0.127-0.084,0.205-0.084h0.001c0.055,0,0.118,0.03,0.155,0.051
			c0.037-0.021,0.1-0.051,0.155-0.051c0.16,0,0.29,0.13,0.29,0.289c0,0.042-0.017,0.091-0.049,0.145
			c-0.014,0.023-0.024,0.04-0.034,0.052v0.421C17.277,11.444,17.244,11.474,17.203,11.474z M16.687,11.344h0.46v-0.374
			c-0.001-0.018,0.004-0.036,0.014-0.05l0.024-0.037l0.002-0.003c0.019-0.03,0.044-0.069,0.044-0.095
			c0-0.088-0.071-0.158-0.159-0.158c-0.028,0-0.084,0.029-0.114,0.048l-0.004,0.003c-0.024,0.013-0.051,0.013-0.075,0l-0.004-0.003
			c-0.03-0.019-0.086-0.048-0.114-0.048c0,0,0,0-0.001,0c-0.043,0-0.082,0.017-0.112,0.046c-0.03,0.03-0.047,0.07-0.047,0.112
			c0,0.033,0.04,0.097,0.067,0.13l0.001,0.002c0.01,0.012,0.016,0.025,0.018,0.04l0.001,0.006L16.687,11.344L16.687,11.344z"/>
		<path class="st3" d="M16.915,11.222h-0.124c-0.027,0-0.043-0.017-0.043-0.044c0-0.028,0.016-0.044,0.041-0.044h0.25
			c0.027,0,0.041,0.017,0.041,0.044c0,0.027-0.016,0.044-0.042,0.044H16.915L16.915,11.222z"/>
		<path class="st3" d="M16.915,11.053h-0.124c-0.027,0-0.043-0.017-0.043-0.044c0-0.028,0.016-0.044,0.041-0.044h0.25
			c0.027,0,0.041,0.017,0.041,0.044c0,0.027-0.016,0.044-0.042,0.044H16.915L16.915,11.053z"/>
		<path class="st3" d="M16.915,10.882h-0.124c-0.027,0-0.043-0.017-0.043-0.044c0-0.028,0.016-0.044,0.041-0.044h0.25
			c0.027,0,0.041,0.017,0.041,0.044c0,0.027-0.016,0.044-0.042,0.044H16.915L16.915,10.882z"/>
	</g>
</g>
<g>
	<path class="st1" d="M13.587,6.829c0.004-0.445-0.381-0.837-0.851-0.851c-0.47,0.014-0.854,0.406-0.851,0.851
		c0.002,0.134,0.037,0.268,0.09,0.406c-0.002,0-0.004-0.002-0.005-0.002c0.235,0.561,0.491,1.177,0.766,1.7
		c0.279-0.523,0.533-1.139,0.766-1.7l-0.003,0.002C13.551,7.098,13.587,6.964,13.587,6.829z"/>
	<path class="st2" d="M13.392,6.798c0,0.362-0.293,0.655-0.657,0.655c-0.362,0-0.653-0.293-0.653-0.655
		c0-0.362,0.291-0.655,0.653-0.655C13.099,6.143,13.392,6.436,13.392,6.798z"/>
	<g>
		<path class="st3" d="M13.025,7.286H12.45c-0.04,0-0.07-0.03-0.07-0.07V6.798c-0.027-0.035-0.088-0.122-0.088-0.2
			c0-0.077,0.03-0.151,0.085-0.205c0.055-0.055,0.127-0.084,0.205-0.084h0.001c0.055,0,0.118,0.03,0.155,0.051
			c0.037-0.021,0.1-0.051,0.155-0.051c0.16,0,0.29,0.13,0.29,0.289c0,0.042-0.017,0.091-0.049,0.145
			C13.12,6.766,13.11,6.783,13.1,6.795v0.421C13.1,7.256,13.067,7.286,13.025,7.286z M12.51,7.156h0.46V6.781
			c-0.001-0.018,0.004-0.036,0.014-0.05l0.024-0.037l0.002-0.003c0.019-0.03,0.044-0.069,0.044-0.095
			c0-0.088-0.071-0.158-0.159-0.158c-0.028,0-0.084,0.029-0.114,0.048l-0.004,0.003c-0.024,0.013-0.051,0.013-0.075,0l-0.004-0.003
			c-0.03-0.019-0.086-0.048-0.114-0.048c0,0,0,0-0.001,0c-0.043,0-0.082,0.017-0.112,0.046c-0.03,0.03-0.047,0.07-0.047,0.112
			c0,0.033,0.04,0.097,0.067,0.13l0.001,0.002c0.01,0.012,0.016,0.025,0.018,0.04l0.001,0.006L12.51,7.156L12.51,7.156z"/>
		<path class="st3" d="M12.738,7.034h-0.124c-0.027,0-0.043-0.017-0.043-0.044c0-0.028,0.016-0.044,0.041-0.044h0.25
			c0.027,0,0.041,0.017,0.041,0.044c0,0.027-0.016,0.044-0.042,0.044H12.738L12.738,7.034z"/>
		<path class="st3" d="M12.738,6.865h-0.124c-0.027,0-0.043-0.017-0.043-0.044c0-0.028,0.016-0.044,0.041-0.044h0.25
			c0.027,0,0.041,0.017,0.041,0.044c0,0.027-0.016,0.044-0.042,0.044H12.738L12.738,6.865z"/>
		<path class="st3" d="M12.738,6.694h-0.124c-0.027,0-0.043-0.017-0.043-0.044c0-0.028,0.016-0.044,0.041-0.044h0.25
			c0.027,0,0.041,0.017,0.041,0.044c0,0.027-0.016,0.044-0.042,0.044H12.738L12.738,6.694z"/>
	</g>
</g>
<g>
	<path class="st1" d="M9.598,6.162c0.004-0.445-0.381-0.837-0.851-0.851c-0.47,0.014-0.854,0.406-0.851,0.851
		c0.002,0.134,0.037,0.268,0.09,0.406c-0.002,0-0.004-0.002-0.005-0.002c0.235,0.561,0.491,1.177,0.766,1.7
		c0.279-0.523,0.533-1.139,0.766-1.7L9.51,6.568C9.563,6.43,9.598,6.296,9.598,6.162z"/>
	<path class="st2" d="M9.404,6.13c0,0.362-0.293,0.655-0.657,0.655c-0.362,0-0.653-0.293-0.653-0.655
		c0-0.362,0.291-0.655,0.653-0.655C9.111,5.475,9.404,5.768,9.404,6.13z"/>
	<g>
		<path class="st3" d="M9.037,6.619H8.461c-0.04,0-0.07-0.03-0.07-0.07V6.131c-0.027-0.035-0.088-0.122-0.088-0.2
			c0-0.077,0.03-0.151,0.085-0.205c0.055-0.055,0.127-0.084,0.205-0.084h0.001c0.055,0,0.118,0.03,0.155,0.051
			c0.037-0.021,0.1-0.051,0.155-0.051c0.16,0,0.29,0.13,0.29,0.289c0,0.042-0.017,0.091-0.049,0.145
			c-0.014,0.023-0.024,0.04-0.034,0.052v0.421C9.112,6.589,9.078,6.619,9.037,6.619z M8.521,6.488h0.46V6.114
			C8.98,6.096,8.985,6.078,8.995,6.064l0.024-0.037l0.002-0.003C9.04,5.995,9.065,5.956,9.065,5.93c0-0.088-0.071-0.158-0.159-0.158
			c-0.028,0-0.084,0.029-0.114,0.048L8.787,5.822c-0.024,0.013-0.051,0.013-0.075,0L8.708,5.819C8.678,5.8,8.621,5.771,8.594,5.771
			c0,0,0,0-0.001,0c-0.043,0-0.082,0.017-0.112,0.046c-0.03,0.03-0.047,0.07-0.047,0.112c0,0.033,0.04,0.097,0.067,0.13l0.001,0.002
			c0.01,0.012,0.016,0.025,0.018,0.04L8.52,6.107L8.521,6.488L8.521,6.488z"/>
		<path class="st3" d="M8.749,6.367H8.626c-0.027,0-0.043-0.017-0.043-0.044c0-0.028,0.016-0.044,0.041-0.044h0.25
			c0.027,0,0.041,0.017,0.041,0.044c0,0.027-0.016,0.044-0.042,0.044H8.749L8.749,6.367z"/>
		<path class="st3" d="M8.749,6.198H8.626c-0.027,0-0.043-0.017-0.043-0.044c0-0.028,0.016-0.044,0.041-0.044h0.25
			c0.027,0,0.041,0.017,0.041,0.044c0,0.027-0.016,0.044-0.042,0.044H8.749L8.749,6.198z"/>
		<path class="st3" d="M8.749,6.027H8.626c-0.027,0-0.043-0.017-0.043-0.044c0-0.028,0.016-0.044,0.041-0.044h0.25
			c0.027,0,0.041,0.017,0.041,0.044c0,0.027-0.016,0.044-0.042,0.044H8.749L8.749,6.027z"/>
	</g>
</g>
<g>
	<path class="st1" d="M24.555,1.95c0.004-0.445-0.381-0.837-0.851-0.851c-0.47,0.014-0.854,0.406-0.851,0.851
		c0.002,0.134,0.037,0.268,0.09,0.406c-0.002,0-0.004-0.002-0.005-0.002c0.235,0.561,0.491,1.177,0.766,1.7
		c0.279-0.523,0.533-1.139,0.766-1.7l-0.003,0.002C24.52,2.218,24.555,2.084,24.555,1.95z"/>
	<path class="st2" d="M24.361,1.918c0,0.362-0.293,0.655-0.657,0.655c-0.362,0-0.653-0.293-0.653-0.655
		c0-0.362,0.291-0.655,0.653-0.655C24.068,1.263,24.361,1.556,24.361,1.918z"/>
	<g>
		<path class="st3" d="M23.994,2.407h-0.575c-0.04,0-0.07-0.03-0.07-0.07V1.918c-0.027-0.035-0.088-0.122-0.088-0.2
			c0-0.077,0.03-0.151,0.085-0.205c0.055-0.055,0.127-0.084,0.205-0.084h0.001c0.055,0,0.118,0.03,0.155,0.051
			c0.037-0.021,0.1-0.051,0.155-0.051c0.16,0,0.29,0.13,0.29,0.289c0,0.042-0.017,0.091-0.049,0.145
			c-0.014,0.023-0.024,0.04-0.034,0.052v0.421C24.069,2.376,24.036,2.407,23.994,2.407z M23.479,2.276h0.46V1.902
			c-0.001-0.018,0.004-0.036,0.014-0.05l0.024-0.037l0.002-0.003c0.019-0.03,0.044-0.069,0.044-0.095
			c0-0.088-0.071-0.158-0.159-0.158c-0.028,0-0.084,0.029-0.114,0.048l-0.004,0.003c-0.024,0.013-0.051,0.013-0.075,0l-0.004-0.003
			c-0.03-0.019-0.086-0.048-0.114-0.048c0,0,0,0-0.001,0c-0.043,0-0.082,0.017-0.112,0.046c-0.03,0.03-0.047,0.07-0.047,0.112
			c0,0.033,0.04,0.097,0.067,0.13l0.001,0.002c0.01,0.012,0.016,0.025,0.018,0.04l0.001,0.006L23.479,2.276L23.479,2.276z"/>
		<path class="st3" d="M23.707,2.154h-0.124c-0.027,0-0.043-0.017-0.043-0.044c0-0.028,0.016-0.044,0.041-0.044h0.25
			c0.027,0,0.041,0.017,0.041,0.044c0,0.027-0.016,0.044-0.042,0.044H23.707L23.707,2.154z"/>
		<path class="st3" d="M23.707,1.985h-0.124c-0.027,0-0.043-0.017-0.043-0.044c0-0.028,0.016-0.044,0.041-0.044h0.25
			c0.027,0,0.041,0.017,0.041,0.044c0,0.027-0.016,0.044-0.042,0.044H23.707L23.707,1.985z"/>
		<path class="st3" d="M23.707,1.815h-0.124c-0.027,0-0.043-0.017-0.043-0.044c0-0.028,0.016-0.044,0.041-0.044h0.25
			c0.027,0,0.041,0.017,0.041,0.044c0,0.027-0.016,0.044-0.042,0.044H23.707L23.707,1.815z"/>
	</g>
</g>
<g>
	<path class="st1" d="M24.112,1.997c0.004-0.445-0.381-0.837-0.851-0.851c-0.47,0.014-0.854,0.406-0.851,0.851
		c0.002,0.134,0.037,0.268,0.09,0.406c-0.002,0-0.004-0.002-0.005-0.002c0.235,0.561,0.491,1.177,0.766,1.7
		c0.279-0.523,0.533-1.139,0.766-1.7l-0.003,0.002C24.076,2.265,24.112,2.131,24.112,1.997z"/>
	<path class="st2" d="M23.918,1.965c0,0.362-0.293,0.655-0.657,0.655c-0.362,0-0.653-0.293-0.653-0.655
		c0-0.362,0.291-0.655,0.653-0.655C23.624,1.31,23.918,1.603,23.918,1.965z"/>
	<g>
		<path class="st3" d="M23.55,2.454h-0.575c-0.04,0-0.07-0.03-0.07-0.07V1.965c-0.027-0.035-0.088-0.122-0.088-0.2
			c0-0.077,0.03-0.151,0.085-0.205c0.055-0.055,0.127-0.084,0.205-0.084h0.001c0.055,0,0.118,0.03,0.155,0.051
			c0.037-0.021,0.1-0.051,0.155-0.051c0.16,0,0.29,0.13,0.29,0.289c0,0.042-0.017,0.091-0.049,0.145
			c-0.014,0.023-0.024,0.04-0.034,0.052v0.421C23.625,2.423,23.592,2.454,23.55,2.454z M23.035,2.323h0.46V1.949
			c-0.001-0.018,0.004-0.036,0.014-0.05l0.024-0.037l0.002-0.003c0.019-0.03,0.044-0.069,0.044-0.095
			c0-0.088-0.071-0.158-0.159-0.158c-0.028,0-0.084,0.029-0.114,0.048l-0.004,0.003c-0.024,0.013-0.051,0.013-0.075,0l-0.004-0.003
			c-0.03-0.019-0.086-0.048-0.114-0.048c0,0,0,0-0.001,0c-0.043,0-0.082,0.017-0.112,0.046c-0.03,0.03-0.047,0.07-0.047,0.112
			c0,0.033,0.04,0.097,0.067,0.13l0.001,0.002c0.01,0.012,0.016,0.025,0.018,0.04l0.001,0.006L23.035,2.323L23.035,2.323z"/>
		<path class="st3" d="M23.263,2.201h-0.124c-0.027,0-0.043-0.017-0.043-0.044c0-0.028,0.016-0.044,0.041-0.044h0.25
			c0.027,0,0.041,0.017,0.041,0.044c0,0.027-0.016,0.044-0.042,0.044H23.263L23.263,2.201z"/>
		<path class="st3" d="M23.263,2.032h-0.124c-0.027,0-0.043-0.017-0.043-0.044c0-0.028,0.016-0.044,0.041-0.044h0.25
			c0.027,0,0.041,0.017,0.041,0.044c0,0.027-0.016,0.044-0.042,0.044H23.263L23.263,2.032z"/>
		<path class="st3" d="M23.263,1.862h-0.124c-0.027,0-0.043-0.017-0.043-0.044c0-0.028,0.016-0.044,0.041-0.044h0.25
			c0.027,0,0.041,0.017,0.041,0.044c0,0.027-0.016,0.044-0.042,0.044H23.263L23.263,1.862z"/>
	</g>
</g>
<g>
	<path class="st1" d="M23.707,2.119c0.004-0.445-0.381-0.837-0.851-0.851c-0.47,0.014-0.854,0.406-0.851,0.851
		c0.002,0.134,0.037,0.268,0.09,0.406c-0.002,0-0.004-0.002-0.005-0.002c0.235,0.561,0.491,1.177,0.766,1.7
		c0.279-0.523,0.533-1.139,0.766-1.7l-0.003,0.002C23.671,2.388,23.707,2.253,23.707,2.119z"/>
	<path class="st2" d="M23.513,2.087c0,0.362-0.293,0.655-0.657,0.655c-0.362,0-0.653-0.293-0.653-0.655
		c0-0.362,0.291-0.655,0.653-0.655C23.219,1.432,23.513,1.726,23.513,2.087z"/>
	<g>
		<path class="st3" d="M23.145,2.576H22.57c-0.04,0-0.07-0.03-0.07-0.07V2.088c-0.027-0.035-0.088-0.122-0.088-0.2
			c0-0.077,0.03-0.151,0.085-0.205c0.055-0.055,0.127-0.084,0.205-0.084h0.001c0.055,0,0.118,0.03,0.155,0.051
			c0.037-0.021,0.1-0.051,0.155-0.051c0.16,0,0.29,0.13,0.29,0.289c0,0.042-0.017,0.091-0.049,0.145
			c-0.014,0.023-0.024,0.04-0.034,0.052v0.421C23.22,2.546,23.187,2.576,23.145,2.576z M22.63,2.446h0.46V2.071
			c-0.001-0.018,0.004-0.036,0.014-0.05l0.024-0.037l0.002-0.003c0.019-0.03,0.044-0.069,0.044-0.095
			c0-0.088-0.071-0.158-0.159-0.158c-0.028,0-0.084,0.029-0.114,0.048l-0.004,0.003c-0.024,0.013-0.051,0.013-0.075,0l-0.004-0.003
			c-0.03-0.019-0.086-0.048-0.114-0.048c0,0,0,0-0.001,0c-0.043,0-0.082,0.017-0.112,0.046c-0.03,0.03-0.047,0.07-0.047,0.112
			c0,0.033,0.04,0.097,0.067,0.13l0.001,0.002c0.01,0.012,0.016,0.025,0.018,0.04l0.001,0.006L22.63,2.446L22.63,2.446z"/>
		<path class="st3" d="M22.858,2.324h-0.124c-0.027,0-0.043-0.017-0.043-0.044c0-0.028,0.016-0.044,0.041-0.044h0.25
			c0.027,0,0.041,0.017,0.041,0.044c0,0.027-0.016,0.044-0.042,0.044H22.858L22.858,2.324z"/>
		<path class="st3" d="M22.858,2.155h-0.124c-0.027,0-0.043-0.017-0.043-0.044c0-0.028,0.016-0.044,0.041-0.044h0.25
			c0.027,0,0.041,0.017,0.041,0.044c0,0.027-0.016,0.044-0.042,0.044H22.858L22.858,2.155z"/>
		<path class="st3" d="M22.858,1.984h-0.124c-0.027,0-0.043-0.017-0.043-0.044c0-0.028,0.016-0.044,0.041-0.044h0.25
			c0.027,0,0.041,0.017,0.041,0.044c0,0.027-0.016,0.044-0.042,0.044H22.858L22.858,1.984z"/>
	</g>
</g>
<g>
	<path class="st1" d="M25.852,2.66c0.004-0.445-0.381-0.837-0.851-0.851c-0.47,0.014-0.854,0.406-0.851,0.851
		c0.002,0.134,0.037,0.268,0.09,0.406c-0.002,0-0.004-0.002-0.005-0.002c0.235,0.561,0.491,1.177,0.766,1.7
		c0.279-0.523,0.533-1.139,0.766-1.7l-0.003,0.002C25.816,2.928,25.852,2.794,25.852,2.66z"/>
	<path class="st2" d="M25.658,2.628c0,0.362-0.293,0.655-0.657,0.655c-0.362,0-0.653-0.293-0.653-0.655
		c0-0.362,0.291-0.655,0.653-0.655C25.364,1.973,25.658,2.266,25.658,2.628z"/>
	<g>
		<path class="st3" d="M25.29,3.117h-0.575c-0.04,0-0.07-0.03-0.07-0.07V2.629c-0.027-0.035-0.088-0.122-0.088-0.2
			c0-0.077,0.03-0.151,0.085-0.205c0.055-0.055,0.127-0.084,0.205-0.084h0.001c0.055,0,0.118,0.03,0.155,0.051
			c0.037-0.021,0.1-0.051,0.155-0.051c0.16,0,0.29,0.13,0.29,0.289c0,0.042-0.017,0.091-0.049,0.145
			c-0.014,0.023-0.024,0.04-0.034,0.052v0.421C25.365,3.087,25.332,3.117,25.29,3.117z M24.775,2.986h0.46V2.612
			c-0.001-0.018,0.004-0.036,0.014-0.05l0.024-0.037l0.002-0.003c0.019-0.03,0.044-0.069,0.044-0.095
			c0-0.088-0.071-0.158-0.159-0.158c-0.028,0-0.084,0.029-0.114,0.048L25.041,2.32c-0.024,0.013-0.051,0.013-0.075,0l-0.004-0.003
			c-0.03-0.019-0.086-0.048-0.114-0.048c0,0,0,0-0.001,0c-0.043,0-0.082,0.017-0.112,0.046c-0.03,0.03-0.047,0.07-0.047,0.112
			c0,0.033,0.04,0.097,0.067,0.13l0.001,0.002c0.01,0.012,0.016,0.025,0.018,0.04l0.001,0.006L24.775,2.986L24.775,2.986z"/>
		<path class="st3" d="M25.003,2.865H24.88c-0.027,0-0.043-0.017-0.043-0.044c0-0.028,0.016-0.044,0.041-0.044h0.25
			c0.027,0,0.041,0.017,0.041,0.044c0,0.027-0.016,0.044-0.042,0.044H25.003L25.003,2.865z"/>
		<path class="st3" d="M25.003,2.696H24.88c-0.027,0-0.043-0.017-0.043-0.044c0-0.028,0.016-0.044,0.041-0.044h0.25
			c0.027,0,0.041,0.017,0.041,0.044c0,0.027-0.016,0.044-0.042,0.044H25.003L25.003,2.696z"/>
		<path class="st3" d="M25.003,2.525H24.88c-0.027,0-0.043-0.017-0.043-0.044c0-0.028,0.016-0.044,0.041-0.044h0.25
			c0.027,0,0.041,0.017,0.041,0.044c0,0.027-0.016,0.044-0.042,0.044H25.003L25.003,2.525z"/>
	</g>
</g>
</svg>
