<?xml version="1.0" encoding="utf-8"?>
<!-- Generator: Adobe Illustrator 22.1.0, SVG Export Plug-In . SVG Version: 6.00 Build 0)  -->
<svg version="1.1" id="Laag_1" xmlns="http://www.w3.org/2000/svg" xmlns:xlink="http://www.w3.org/1999/xlink" x="0px" y="0px"
	 viewBox="0 0 160.2 113.6" style="enable-background:new 0 0 160.2 113.6;" xml:space="preserve">
<style type="text/css">
	.st0{fill:#52B7E9;}
	.st1{fill:#FF3366;}
	.st2{fill:#EAF7F9;}
	.st3{fill:#321E41;}
	.st4{fill:#92E1B7;}
</style>
<title>Asset 65</title>
<g id="Top_layer">
	<rect x="43.2" y="3.6" class="st0" width="61" height="109.9"/>
	<rect x="104.1" y="94" class="st0" width="29.5" height="19.5"/>
	<rect x="54" y="30" class="st1" width="50.1" height="83.5"/>
	<path class="st2" d="M94.7,54.7V60c0,1.1-0.9,1.9-1.9,1.9h-0.3c-1.1,0-1.9-0.9-1.9-1.9v-5.3c0-1.1,0.9-1.9,1.9-1.9h0.3
		C93.8,52.8,94.7,53.7,94.7,54.7z"/>
	<path class="st2" d="M94.7,40.3v5.3c0,1.1-0.9,1.9-1.9,1.9h-0.3c-1.1,0-1.9-0.9-1.9-1.9v-5.3c0-1.1,0.9-1.9,1.9-1.9h0.3
		C93.8,38.3,94.7,39.2,94.7,40.3z"/>
	<path class="st2" d="M81.1,54.7V60c0,1.1-0.9,1.9-1.9,1.9h-0.3C77.8,62,77,61.1,77,60v-5.3c0-1.1,0.9-1.9,1.9-1.9h0.3
		C80.2,52.8,81.1,53.7,81.1,54.7z"/>
	<path class="st2" d="M81.1,40.3v5.3c0,1.1-0.9,1.9-1.9,1.9h-0.3c-1.1,0-1.9-0.9-1.9-1.9v-5.3c0-1.1,0.9-1.9,1.9-1.9h0.3
		C80.2,38.3,81.1,39.2,81.1,40.3z"/>
	<path class="st2" d="M67.5,54.7V60c0,1.1-0.9,1.9-1.9,1.9h-0.3c-1.1,0-1.9-0.9-1.9-1.9v-5.3c0-1.1,0.9-1.9,1.9-1.9h0.3
		C66.6,52.8,67.5,53.7,67.5,54.7z"/>
	<path class="st2" d="M67.5,40.3v5.3c0,1.1-0.9,1.9-1.9,1.9h-0.3c-1.1,0-1.9-0.9-1.9-1.9v-5.3c0-1.1,0.9-1.9,1.9-1.9h0.3
		C66.6,38.3,67.5,39.2,67.5,40.3z"/>
	<path class="st2" d="M94.7,69.9v5.3c0,1.1-0.9,1.9-1.9,1.9h-0.3c-1.1,0-1.9-0.9-1.9-1.9v-5.3c0-1.1,0.9-1.9,1.9-1.9h0.3
		C93.8,68,94.7,68.9,94.7,69.9z"/>
	<path class="st2" d="M81.1,69.9v5.3c0,1.1-0.9,1.9-1.9,1.9h-0.3c-1.1,0-1.9-0.9-1.9-1.9v-5.3c0-1.1,0.9-1.9,1.9-1.9h0.3
		C80.2,68,81.1,68.9,81.1,69.9z"/>
	<path class="st2" d="M67.5,69.9v5.3c0,1.1-0.9,1.9-1.9,1.9h-0.3c-1.1,0-1.9-0.9-1.9-1.9v-5.3c0-1.1,0.9-1.9,1.9-1.9h0.3
		C66.6,68,67.5,68.9,67.5,69.9z"/>
	<path class="st2" d="M94.7,85.8v5.3c0,1.1-0.9,1.9-1.9,1.9h-0.3c-1.1,0-1.9-0.9-1.9-1.9v-5.3c0-1.1,0.9-1.9,1.9-1.9h0.3
		C93.8,83.9,94.7,84.8,94.7,85.8z"/>
	<path class="st2" d="M81.1,85.8v5.3c0,1.1-0.9,1.9-1.9,1.9h-0.3c-1.1,0-1.9-0.9-1.9-1.9v-5.3c0-1.1,0.9-1.9,1.9-1.9h0.3
		C80.2,83.9,81.1,84.8,81.1,85.8z"/>
	<path class="st2" d="M67.5,85.8v5.3c0,1.1-0.9,1.9-1.9,1.9h-0.3c-1.1,0-1.9-0.9-1.9-1.9v-5.3c0-1.1,0.9-1.9,1.9-1.9h0.3
		C66.6,83.9,67.5,84.8,67.5,85.8z"/>
	<rect x="74.5" y="104.4" class="st3" width="10.2" height="9.1"/>
	<path class="st2" d="M94.7,42.9c0,1.1-0.9,1.9-1.9,1.9c-0.5,0-1-0.1-1.5-0.4l3.4-3.7V42.9z"/>
	<path class="st2" d="M120.8,106.2v-3.6c0-0.7,0.6-1.3,1.3-1.3h0.2c0.7,0,1.3,0.6,1.3,1.3v3.6c0,0.7-0.6,1.3-1.3,1.3h-0.2
		C121.4,107.5,120.8,106.9,120.8,106.2z"/>
	<path class="st2" d="M113.1,106.2v-3.6c0-0.7,0.6-1.3,1.3-1.3h0.2c0.7,0,1.3,0.6,1.3,1.3v3.6c0,0.7-0.6,1.3-1.3,1.3h-0.2
		C113.6,107.5,113.1,106.9,113.1,106.2z"/>
	<path class="st4" d="M82.6,13.4"/>
	<path class="st4" d="M72.1,17.3"/>
	<g>
		<path d="M58.7,22.2c0,4.3,3.5,7.8,7.8,7.8s7.8-3.5,7.8-7.8c0-2.9-1.7-5.5-4-6.8l0.3-0.7h0.1l0.1-0.3l0,0v-0.1l8,7.8
			c-0.3,0.3-0.6,0.8-0.6,1.3h-1.1l-0.6-0.7c-0.1-0.1-0.3-0.1-0.6,0C76,22.9,76,22.9,76,23s0,0.2,0.1,0.2l1.3,1.6
			c0.1,0.1,0.1,0.1,0.2,0.1s0.2,0,0.2-0.1c0.1-0.1,0.2-0.3,0-0.6l0-0.2c0.1,0,0.2,0,0.6,0c0.2,1.2,1.2,2.1,2.6,2.1
			c0.3,0,0.6,0,0.8-0.1c0.3,0,0.4-0.1,0.4-0.1s0.7-0.1,1.6-0.3c1.2,2.6,3.9,4.2,6.9,4.2c4.2,0,7.7-3.5,7.7-7.7s-3.5-7.7-7.7-7.7
			c-1.2,0-2.2,0.2-3.2,0.8l-2-3.7l0.3-0.9l0,0l0.8-2.3c0.7,0.1,1.1,0.2,1.2,0.1c0.2-0.1,1.4-1,1.4-1c0.1-0.2,0-0.3-0.6-0.4
			c-0.6,0-1.1,0.2-1.7,0.4c-0.6,0.2-3.9-0.2-4.3-0.2S82,7.3,82,7.5s0.6,0.6,0.9,0.6c0.2,0,1.7,0,2.8,0.1l-0.8,2.3l0,0l-0.1,0.4H72
			v-0.1l-0.8-0.1L70,14.1h-0.1l-0.1,0.2h0.1l-0.3,0.8c-1-0.4-2-0.7-3.1-0.7C62.2,14.4,58.7,17.9,58.7,22.2z M76.9,23.5L76.9,23.5
			c-0.2,0-0.3,0.1-0.3,0.3v0.1L76,23.2c0,0-0.1-0.1,0-0.2c0-0.1,0-0.1,0.1-0.2c0,0,0.1-0.1,0.2-0.1s0.1,0,0.1,0.1L76.9,23.5z
			 M77.2,23.8l0.6,0.7c0.1,0.1,0.1,0.2,0,0.3c-0.1,0.1-0.2,0.1-0.3,0l-0.6-0.7H77C77.1,24.1,77.2,24,77.2,23.8z M87.4,16.3l2.7,4.9
			l0,0c-0.2,0-0.6,0-1,0l-3.6-3.3C85.9,17.2,86.6,16.7,87.4,16.3z M90.9,24.2L90.9,24.2L90.8,24l0,0L90.9,24.2z M90.8,23.9
			L90.8,23.9c0.1,0,0.1-0.1,0.1-0.1v0.3L90.8,23.9z M89.6,24.1l0.3-0.7l0.1-0.1c0.2,0.1,0.4,0.2,0.7,0.2c0.6,0,1-0.4,1-1s-0.4-1-1-1
			l0,0l-0.1-0.1l0,0l0,0l0,0c0.1,0,0.2,0,0.2,0c0.6,0.1,0.9,0.4,1,1c0,0.1,0,0.1,0,0.2v0.1c0,0.1,0,0.1-0.1,0.2l0,0
			c-0.1,0.2-0.2,0.4-0.6,0.6C90.8,23.8,90.3,23.9,89.6,24.1z M92.2,23l-0.3-0.2c0-0.1,0-0.2,0-0.3c0,0,0,0,0-0.1l0.8,0.6H92.2z
			 M92.7,23L92.7,23h-0.3H92.7z M91.9,23h-0.2v-0.1L91.9,23z M91.8,22.1c0-0.1,0-0.1-0.1-0.2l0.2-0.4l0.3-0.1L91.8,22.1z M91.9,21.3
			L92,21l0.4-0.2l-0.2,0.4L91.9,21.3z M91.4,21.6c0,0-0.1-0.1-0.2-0.1l0.8-0.3l-0.1,0.3L91.4,21.6z M91.7,21.6l-0.1,0.2
			c0-0.1-0.1-0.1-0.1-0.2H91.7z M90.2,20.8l0.1-0.8l0.3,0.6l-0.2,0.7l0,0L90.2,20.8z M90.6,22.2c0.2,0,0.3,0.1,0.3,0.3
			s-0.1,0.3-0.3,0.3c-0.2,0-0.3-0.1-0.3-0.3C90.3,22.4,90.4,22.2,90.6,22.2z M90.7,20.7l0.3,0.7c-0.1,0-0.2,0-0.2-0.1
			c0,0-0.1,0-0.2,0L90.7,20.7z M89.5,21.8l-0.4-0.4c0.3,0,0.7,0,1,0l0.1,0.2c-0.1,0-0.1,0.1-0.2,0.1L89.5,21.8z M89.8,21.9
			C89.8,21.9,89.7,21.9,89.8,21.9L89.8,21.9L89.8,21.9z M89.4,24.1c-0.1,0-0.2,0.1-0.3,0.1l0.4-0.8l0.2-0.1L89.4,24.1z M89.5,23.4
			l0.1-0.2h0.1c0,0,0,0.1,0.1,0.1v0.1H89.5z M89.7,22c0,0.1,0,0.1-0.1,0.2l-0.4-0.3h0.3L89.7,22z M88.9,21.8l-0.6-0.4
			c0.2,0,0.3,0,0.6,0l0.4,0.4H88.9z M88.8,21.8l-5,0.3c0-0.2,0-0.4,0-0.7c1.3,0,2.9,0,4.1,0H88L88.8,21.8z M83.9,21.2
			c0.1-0.9,0.4-1.7,0.9-2.5l3.2,2.5C86.7,21.2,85.2,21.2,83.9,21.2z M84.8,18.7c0.1-0.2,0.3-0.4,0.4-0.7l3.5,3.2c-0.2,0-0.3,0-0.6,0
			L84.8,18.7z M88.2,15.9l2,3.9l-0.1,0.8l-2.3-4.5C87.9,16,88,16,88.2,15.9z M91.1,15.6l-0.8,4l-2-3.7c0.7-0.2,1.4-0.3,2.2-0.3
			C90.7,15.4,90.8,15.4,91.1,15.6z M91.9,15.7l-1.2,4.7l-0.3-0.6l0.8-4.2C91.4,15.6,91.7,15.6,91.9,15.7z M94.2,16.6l-2.1,4.3
			l-0.9,0.3l-0.4-0.8l1.2-4.9C92.8,15.9,93.6,16.1,94.2,16.6z M95.1,17.2l-2.2,3.5l-0.6,0.2l2.1-4.2C94.6,16.8,94.8,17,95.1,17.2z
			 M96.6,19.2l-3.7,1.4l2.1-3.3C95.7,17.8,96.2,18.4,96.6,19.2z M97,20.1l-4.3,1.1l0.2-0.4l3.8-1.4C96.7,19.6,96.9,19.8,97,20.1z
			 M97.3,22.6L92.8,23l-0.9-0.7l0.6-0.9l4.6-1.2c0.2,0.7,0.3,1.3,0.3,2C97.3,22.4,97.3,22.5,97.3,22.6z M97.2,23.6L97.2,23.6
			l-4.1-0.4L93,23l4.3-0.3C97.3,23,97.3,23.2,97.2,23.6z M96.4,25.7l-3.1-2.3l3.9,0.3C97.1,24.4,96.7,25,96.4,25.7z M96,26.4
			l-3.6-3.1l0.7,0.1l3.2,2.6C96.2,26,96.1,26.1,96,26.4z M93.8,28.1L91,24.2v-0.4l0,0c0.3-0.2,0.6-0.3,0.7-0.6h0.1l0,0h0.4l3.7,3.2
			C95.3,27.1,94.6,27.7,93.8,28.1z M93.2,28.5L93.2,28.5l-2.1-3.9v-0.1l2.7,3.8C93.5,28.3,93.4,28.4,93.2,28.5z M90.6,29l0.4-4.1
			l2,3.7C92.3,28.8,91.5,29,90.6,29z M89.9,28.9l0.8-4.6l0.1,0.3l-0.4,4.3C90.3,29,90.1,29,89.9,28.9z M87.7,28.4l1.8-4.1
			c0.3-0.1,0.8-0.2,1-0.3l0.1,0.1l-0.9,4.8C89.1,28.9,88.4,28.7,87.7,28.4z M86.9,27.9L86.9,27.9l2-3.6c0.1,0,0.2-0.1,0.3-0.1
			l-1.8,4C87.4,28.3,87.2,28.1,86.9,27.9z M84.6,25.5c0.8-0.2,1.7-0.4,2.6-0.7l0.4-0.1c0.4-0.1,0.8-0.2,1.2-0.3l-1.9,3.5
			C85.9,27.4,85.2,26.5,84.6,25.5z M84.4,24.9l4.9-1.3l-0.4,0.8c-0.4,0.1-0.9,0.2-1.3,0.3l-0.4,0.1c-0.9,0.2-1.8,0.4-2.6,0.7
			C84.5,25.2,84.4,25.1,84.4,24.9z M84,23.8l5.6-0.7l-0.1,0.3l-5,1.4C84.1,24.5,84,24.1,84,23.8z M83.9,23.4l5.7-0.7l0.1,0.2V23
			L84,23.7C83.9,23.6,83.9,23.5,83.9,23.4z M83.8,22.2L83.8,22.2l5.1-0.3l0.7,0.4v0.1l0,0l-5.7,0.7C83.8,22.9,83.8,22.6,83.8,22.2z
			 M82.9,21.2c-0.3,0-0.6,0-0.9,0l3.2-9.7L85,12.1l1.8,3.2C84.7,16.7,83.3,18.8,82.9,21.2z M81.1,23.4h0.2l0.6-1.7
			c0.4,0.2,0.8,0.6,1,1l0,0l-1.4,0.7H81.1C81.1,23.5,81.1,23.4,81.1,23.4L81.1,23.4L81.1,23.4L81.1,23.4z M80.8,22.2l-0.1-0.8
			c0,0,0,0,0.1,0s0.2,0,0.3,0L80.8,22.2z M81.4,24c0.1-0.1,0.1-0.2,0-0.2l0.4-0.2l1.1-0.1c0,0.1,0,0.2,0.1,0.3L81.4,24z M83,23.9
			c0,0.1,0,0.1,0,0.2c-0.1,0.4-0.2,0.8-0.4,1.1l-1.2-1.1L83,23.9z M82.1,23.4l0.7-0.3c0,0.1,0,0.2,0,0.2L82.1,23.4z M82,21.6v-0.1
			c0.2,0,0.6,0,0.9,0c0,0.3,0,0.6,0,0.9C82.6,21.9,82.4,21.7,82,21.6z M82.1,25.9c0.6-0.3,0.9-0.8,1.1-1.3c0.1,0.3,0.2,0.7,0.3,1
			C82.8,25.8,82.3,25.9,82.1,25.9z M79.8,25.9l1-1.7c0.1,0,0.2,0,0.3,0l1.3,1.2c-0.4,0.4-1,0.7-1.7,0.7C80.5,26,80.1,26,79.8,25.9z
			 M78.5,24.2c0.7,0,1.4,0,2,0l-0.9,1.6C79,25.5,78.6,24.9,78.5,24.2z M79,22.4l1.1,1.1h0.6h0.1l0,0l-2.2,0.1
			C78.5,23,78.7,22.6,79,22.4z M79.7,21.8c0.2-0.1,0.4-0.2,0.8-0.2l0.1,1.1L79.7,21.8z M71,13.4l0.7-1.7h12.8l-3.3,9.5
			c-0.1,0-0.2,0-0.3,0c-0.4,0-0.9,0.1-1.3,0.3L71,13.4z M60.6,18.7l3.5,2.8l-4.3-0.2v0.1l4.6,0.2l0.3,0.2l-5,0.2
			C59.7,20.9,60.1,19.7,60.6,18.7z M65.4,22L65.4,22C65.5,22,65.5,22,65.4,22L65.4,22z M65.5,23C65.5,23,65.5,23.1,65.5,23L65.5,23
			L65.5,23z M65.3,21.9l-0.2-0.2h0.7l-0.1,0.1L65.3,21.9z M65.9,23.5l-0.7,0.2l0.2-0.4h0.2C65.6,23.2,65.8,23.4,65.9,23.5z
			 M65.1,23.8L64.6,24l0.3-0.6l0.3-0.1L65.1,23.8z M65.1,23.2l0.3-0.6c0,0.1,0,0.1,0,0.2L65.3,23L65.1,23.2z M65,22h0.3l0.2,0.2
			c0,0.1,0,0.1,0,0.2L65,22z M64.8,21.9l-0.3-0.2h0.4l0.2,0.2H64.8z M61.2,18l3.7,3.6h-0.4l-3.7-2.9C60.9,18.3,61,18.1,61.2,18z
			 M63.2,16.2l2.8,4.5l-0.1,0.9H65l-3.8-3.7C61.7,17.2,62.5,16.7,63.2,16.2z M67,24.5v0.4l-0.2-0.4l0.1-0.2L67,24.5z M66.9,24
			l0.1-0.4c0.1,0,0.1-0.1,0.1-0.1L67,24.2L66.9,24z M66.5,23.7c0.1,0,0.2,0,0.2,0V24L66.5,23.7z M66.8,24l-0.1,0.2l-0.3-0.7h0.1
			L66.8,24z M66.2,22.6c0-0.2,0.1-0.3,0.3-0.3s0.3,0.1,0.3,0.3s-0.1,0.3-0.3,0.3C66.3,22.9,66.2,22.8,66.2,22.6z M66.5,21.5
			L66.5,21.5c-0.1,0-0.1,0-0.2,0l0.1-0.3L66.5,21.5z M66.3,20.9l-0.1-0.2v-0.3l0.1,0.3V20.9z M66.4,21l0.1-0.2l0.3,0.7h-0.1L66.4,21
			z M66.1,21.5c0,0-0.1,0-0.1,0.1l0.1-0.8l0.1,0.2L66.1,21.5z M63.9,15.9l2.2,4.2v0.3l-2.7-4.3C63.5,16.1,63.6,16,63.9,15.9z
			 M66.9,15.4L66.1,20l-2.2-4c0.8-0.3,1.7-0.4,2.6-0.4C66.7,15.3,66.8,15.3,66.9,15.4z M67.7,15.4l-1.2,4.9L66.2,20l0.8-4.7
			C67.2,15.4,67.4,15.4,67.7,15.4z M69.2,15.9l-2.3,5.3l-0.4-0.8l1.3-5.1C68.3,15.6,68.8,15.8,69.2,15.9z M68.4,23.2l-0.9-0.1
			c0-0.1,0.1-0.1,0.1-0.2h0.6L68.4,23.2z M68.3,22.9L68.3,22.9l0.4,0.3h-0.1L68.3,22.9z M68,21.5l-0.4,0.8l0,0l0,0c0,0,0,0,0-0.1
			L68,21.5L68,21.5z M67.9,21.3l0.2-0.2l0.2-0.1l-0.2,0.3C68.1,21.3,67.9,21.3,67.9,21.3z M67.8,21.5l-0.6,0.1l0.1-0.2l0.6-0.2
			L67.8,21.5z M67.7,22.6v-0.1l0.3,0.3h-0.3C67.7,22.7,67.7,22.6,67.7,22.6z M67.2,21.7L67.2,21.7L67.2,21.7l0.4-0.1l-0.2,0.3
			C67.4,21.9,67.3,21.8,67.2,21.7z M70.2,16.4L68,21l-0.6,0.2l2.5-5C70,16.3,70.1,16.4,70.2,16.4z M70.9,17l-2.5,3.8l-0.3,0.1
			l2.2-4.3C70.6,16.7,70.7,16.8,70.9,17z M72.6,19.1l-3.9,1.6L71,17C71.7,17.7,72.2,18.3,72.6,19.1z M73,20l-4.7,1.2l0.2-0.3
			l4.1-1.7C72.8,19.5,72.9,19.8,73,20z M73.3,22.9l-5-0.1l-0.7-0.6l0.6-0.8l4.8-1.3c0.2,0.7,0.3,1.3,0.3,2.1
			C73.3,22.5,73.3,22.7,73.3,22.9z M73.2,23.7L69,23.4L68.5,23l4.8,0.1C73.2,23.2,73.2,23.5,73.2,23.7z M72.2,25.8l-3.1-2.5l4,0.3
			C73,24.5,72.7,25.2,72.2,25.8z M71.8,26.5l-3.1-3.1h0.1l3.3,2.6C72.1,26.1,72,26.4,71.8,26.5z M69.9,28.1l-2.8-3.7l0.1-1.1
			c0,0,0-0.1,0.1-0.1l1.1,0.1l3.2,3.2l0.1-0.1C71.2,27.1,70.6,27.7,69.9,28.1z M68.9,28.6L67,25l0.1-0.4l2.6,3.6
			C69.4,28.4,69.2,28.5,68.9,28.6z M66.5,29l0.4-3.7l1.8,3.3C68.1,28.9,67.3,29,66.5,29z M63.1,28.1l2.1-4.2l0.8-0.3
			c0.1,0,0.1,0.1,0.2,0.1l0,0l0.4,0.9L65.5,29h0.1l1.1-4.3l0.2,0.4L66.4,29C65.2,29,64.1,28.7,63.1,28.1z M62.3,27.6l2.2-3.5
			l0.4-0.2L63,28C62.7,27.9,62.5,27.7,62.3,27.6z M60.6,25.7l3.7-1.6l-2.1,3.3C61.6,27,61.1,26.5,60.6,25.7z M60.2,24.8l4.6-1.3
			L64.4,24l-3.8,1.6C60.4,25.4,60.3,25.1,60.2,24.8z M60.2,24.7c-0.3-0.8-0.4-1.7-0.4-2.6c0,0,0,0,0-0.1v0.1l5.1-0.2l0.7,0.4
			l-0.4,0.8L60.2,24.7z"/>
		<path d="M71.2,10.6l0.4-1.1h-1.8V9.3h-3.5c0,0-0.8,0.4-0.4,1.2c0.2,0.8,0.6,1,1.1,1.4c0.6,0.6,1.1,1,1.1,1l-0.4,0.4
			c0,0-1.2-1-2-1.9c-0.4-0.6-0.8-1.2-0.6-1.9c0.1-0.6,0.4-1.1,1.6-1.1c1.1,0,6.2,0,6.2,0L72,10.5h-0.8V10.6z"/>
	</g>
</g>
</svg>
