<?xml version="1.0" encoding="utf-8"?>
<!-- Generator: Adobe Illustrator 22.1.0, SVG Export Plug-In . SVG Version: 6.00 Build 0)  -->
<svg version="1.1" id="Laag_1" xmlns="http://www.w3.org/2000/svg" xmlns:xlink="http://www.w3.org/1999/xlink" x="0px" y="0px"
	 viewBox="0 0 513 267.9" style="enable-background:new 0 0 513 267.9;" xml:space="preserve">
<style type="text/css">
	.st0{fill:#30ACE2;}
	.st1{fill:#FF3366;}
	.st2{fill:#321E41;}
</style>
<ellipse class="st0" cx="302.8" cy="136.4" rx="128.9" ry="110"/>
<path class="st1" d="M513,5.2c-102.5-4.4-191,55.4-204.2,141c-23.5-12-49.9-20.4-78.4-24.2c-113-15.1-214.7,48.5-227.1,141.9
	c-0.2,1.3-0.3,2.7-0.5,4H513V5.2z"/>
<title>right-hill</title>
<path class="st2" d="M513,105.4c-7.5,0.7-14.9,1.9-22.1,3.4c0.2,0.3,0.4,0.6,0.4,1c0,0.8-0.7,1.5-1.5,1.5c-0.8,0-1.5-0.7-1.5-1.5
	c0-0.2,0-0.3,0.1-0.5c-2,0.4-4,0.9-6,1.4c-0.3,0.3-0.7,0.5-1.1,0.5c-0.2,0-0.4,0-0.5-0.1c-8.1,2.1-16,4.7-23.7,7.8
	c-0.2,0.5-0.7,0.8-1.3,0.8c-0.2,0-0.4,0-0.5-0.1c-5.1,2.1-10.1,4.4-15,6.8c0,0.1,0,0.2,0,0.3c0,0.8-0.7,1.5-1.5,1.5
	c-0.4,0-0.8-0.2-1.1-0.5c-5.1,2.7-10.2,5.6-15,8.7c-0.1,0.1-0.2,0.1-0.3,0.2c-2.9,1.9-5.8,3.8-8.7,5.8c0.6,0.2,1,0.7,1,1.4
	c0,0.8-0.7,1.5-1.5,1.5c-0.8,0-1.5-0.7-1.5-1.5c-13.9,10-26.4,21.7-37.4,34.8c-0.7-0.3-1.4-0.5-2.2-0.8c0,0.8-0.7,1.5-1.5,1.5
	c-0.8,0-1.5-0.7-1.5-1.5c0-0.3,0.1-0.7,0.3-0.9c-7.9-2.7-16.1-4.7-24.5-6.1c-0.1,0-0.1,0-0.2,0c-2.2-0.4-4.5-0.7-6.8-1
	c-0.2,0.6-0.7,1-1.4,1c-0.8,0-1.4-0.6-1.5-1.4c-1.9-0.2-3.7-0.4-5.6-0.5c0,0.1,0.1,0.2,0.1,0.4c0,0.8-0.7,1.5-1.5,1.5
	c-0.8,0-1.5-0.7-1.5-1.5c0-0.2,0-0.4,0.1-0.5c-1.9-0.1-3.9-0.2-5.9-0.2c0.1,0.2,0.2,0.5,0.2,0.7c0,0.8-0.7,1.5-1.5,1.5
	c-0.8,0-1.5-0.7-1.5-1.5c0-0.3,0.1-0.6,0.2-0.8c-0.1,0-0.2,0-0.2,0c-1.9,0-3.8,0-5.7,0.1c0.1,0.2,0.2,0.4,0.2,0.7
	c0,0.8-0.7,1.5-1.5,1.5c-0.8,0-1.5-0.7-1.5-1.5c0-0.2,0-0.4,0.1-0.6c-1.9,0.1-3.8,0.2-5.7,0.4c0,0.1,0,0.1,0,0.2
	c0,0.8-0.7,1.5-1.5,1.5c-0.8,0-1.4-0.6-1.5-1.3c-2,0.2-3.9,0.4-5.8,0.7c-0.3,0.4-0.7,0.6-1.2,0.6c-0.3,0-0.7-0.1-0.9-0.3
	c-8.5,1.3-16.7,3.3-24.7,5.9c0,0,0.1,0,0.1,0c0.8,0,1.5,0.7,1.5,1.5c0,0.8-0.7,1.5-1.5,1.5c-0.8,0-1.5-0.7-1.5-1.5
	c0-0.5,0.3-1,0.7-1.2c-2.3,0.8-4.6,1.6-6.9,2.5c-0.2,0.1-0.4,0.2-0.6,0.2c-4.4,1.7-8.8,3.6-13,5.7c-6.4-2.4-13-4.4-19.8-6.2
	c-0.3,0.4-0.7,0.7-1.2,0.7c-0.8,0-1.4-0.6-1.5-1.4c-2.1-0.5-4.3-1-6.4-1.5c0.5,0.2,0.9,0.7,0.9,1.3c0,0.8-0.7,1.5-1.5,1.5
	c-0.8,0-1.5-0.7-1.5-1.5c0-0.8,0.7-1.5,1.5-1.5c-13.7-2.8-27.9-4.4-42.5-4.4c-14.6,0-28.8,1.5-42.6,4.4c0,0,0,0,0,0
	c0.8,0,1.5,0.7,1.5,1.5c0,0.8-0.7,1.5-1.5,1.5c-0.8,0-1.5-0.7-1.5-1.5c0-0.6,0.4-1.1,0.9-1.3c-2.2,0.5-4.3,0.9-6.5,1.5
	c-0.1,0.8-0.7,1.4-1.5,1.4c-0.5,0-1-0.3-1.2-0.7c-7.8,2-15.4,4.5-22.8,7.4c0,0.1,0.1,0.2,0.1,0.4c0,0.8-0.7,1.5-1.5,1.5
	c-0.6,0-1-0.3-1.3-0.8c-5,2-10,4.3-14.8,6.7c0.3,0.3,0.6,0.7,0.6,1.1c0,0.8-0.7,1.5-1.5,1.5c-0.8,0-1.4-0.6-1.5-1.4
	c-4.8,2.5-9.5,5.2-14.1,8c0,0.1,0.1,0.3,0.1,0.5c0,0.8-0.7,1.5-1.5,1.5c-0.4,0-0.8-0.2-1-0.4c-11.3,7.2-21.8,15.4-31.5,24.6
	c-0.1,0.7-0.7,1.3-1.4,1.4c-2.4,2.3-4.8,4.7-7.1,7.2c-0.1,0.7-0.6,1.2-1.2,1.3c-8.3,8.9-15.8,18.6-22.4,28.9H513V105.4z M5.3,264.5
	c-0.8,0-1.5-0.7-1.5-1.5c0-0.8,0.7-1.5,1.5-1.5s1.5,0.7,1.5,1.5C6.8,263.8,6.1,264.5,5.3,264.5z M13.8,264.5c-0.8,0-1.5-0.7-1.5-1.5
	c0-0.8,0.7-1.5,1.5-1.5c0.8,0,1.5,0.7,1.5,1.5C15.3,263.8,14.6,264.5,13.8,264.5z M13.8,256c-0.8,0-1.5-0.7-1.5-1.5s0.7-1.5,1.5-1.5
	c0.8,0,1.5,0.7,1.5,1.5S14.6,256,13.8,256z M22.3,264.5c-0.8,0-1.5-0.7-1.5-1.5c0-0.8,0.7-1.5,1.5-1.5s1.5,0.7,1.5,1.5
	C23.8,263.8,23.1,264.5,22.3,264.5z M22.3,256c-0.8,0-1.5-0.7-1.5-1.5s0.7-1.5,1.5-1.5s1.5,0.7,1.5,1.5S23.1,256,22.3,256z
	 M22.3,247.5c-0.8,0-1.5-0.7-1.5-1.5c0-0.8,0.7-1.5,1.5-1.5s1.5,0.7,1.5,1.5C23.8,246.8,23.1,247.5,22.3,247.5z M30.8,264.5
	c-0.8,0-1.5-0.7-1.5-1.5c0-0.8,0.7-1.5,1.5-1.5c0.8,0,1.5,0.7,1.5,1.5C32.3,263.8,31.6,264.5,30.8,264.5z M30.8,256
	c-0.8,0-1.5-0.7-1.5-1.5s0.7-1.5,1.5-1.5c0.8,0,1.5,0.7,1.5,1.5S31.6,256,30.8,256z M30.8,247.5c-0.8,0-1.5-0.7-1.5-1.5
	c0-0.8,0.7-1.5,1.5-1.5c0.8,0,1.5,0.7,1.5,1.5C32.3,246.8,31.6,247.5,30.8,247.5z M30.8,239c-0.8,0-1.5-0.7-1.5-1.5s0.7-1.5,1.5-1.5
	c0.8,0,1.5,0.7,1.5,1.5S31.6,239,30.8,239z M39.3,264.5c-0.8,0-1.5-0.7-1.5-1.5c0-0.8,0.7-1.5,1.5-1.5s1.5,0.7,1.5,1.5
	C40.8,263.8,40.1,264.5,39.3,264.5z M39.3,256c-0.8,0-1.5-0.7-1.5-1.5s0.7-1.5,1.5-1.5s1.5,0.7,1.5,1.5S40.1,256,39.3,256z
	 M39.3,247.5c-0.8,0-1.5-0.7-1.5-1.5c0-0.8,0.7-1.5,1.5-1.5s1.5,0.7,1.5,1.5C40.8,246.8,40.1,247.5,39.3,247.5z M39.3,239
	c-0.8,0-1.5-0.7-1.5-1.5s0.7-1.5,1.5-1.5s1.5,0.7,1.5,1.5S40.1,239,39.3,239z M39.3,230.5c-0.8,0-1.5-0.7-1.5-1.5
	c0-0.8,0.7-1.5,1.5-1.5s1.5,0.7,1.5,1.5C40.8,229.8,40.1,230.5,39.3,230.5z M47.8,264.5c-0.8,0-1.5-0.7-1.5-1.5
	c0-0.8,0.7-1.5,1.5-1.5c0.8,0,1.5,0.7,1.5,1.5C49.3,263.8,48.6,264.5,47.8,264.5z M47.8,256c-0.8,0-1.5-0.7-1.5-1.5s0.7-1.5,1.5-1.5
	c0.8,0,1.5,0.7,1.5,1.5S48.6,256,47.8,256z M47.8,247.5c-0.8,0-1.5-0.7-1.5-1.5c0-0.8,0.7-1.5,1.5-1.5c0.8,0,1.5,0.7,1.5,1.5
	C49.3,246.8,48.6,247.5,47.8,247.5z M47.8,239c-0.8,0-1.5-0.7-1.5-1.5s0.7-1.5,1.5-1.5c0.8,0,1.5,0.7,1.5,1.5S48.6,239,47.8,239z
	 M47.8,230.5c-0.8,0-1.5-0.7-1.5-1.5c0-0.8,0.7-1.5,1.5-1.5c0.8,0,1.5,0.7,1.5,1.5C49.3,229.8,48.6,230.5,47.8,230.5z M47.8,222
	c-0.8,0-1.5-0.7-1.5-1.5s0.7-1.5,1.5-1.5c0.8,0,1.5,0.7,1.5,1.5S48.6,222,47.8,222z M56.3,264.5c-0.8,0-1.5-0.7-1.5-1.5
	c0-0.8,0.7-1.5,1.5-1.5s1.5,0.7,1.5,1.5C57.8,263.8,57.1,264.5,56.3,264.5z M56.3,256c-0.8,0-1.5-0.7-1.5-1.5s0.7-1.5,1.5-1.5
	s1.5,0.7,1.5,1.5S57.1,256,56.3,256z M56.3,247.5c-0.8,0-1.5-0.7-1.5-1.5c0-0.8,0.7-1.5,1.5-1.5s1.5,0.7,1.5,1.5
	C57.8,246.8,57.1,247.5,56.3,247.5z M56.3,239c-0.8,0-1.5-0.7-1.5-1.5s0.7-1.5,1.5-1.5s1.5,0.7,1.5,1.5S57.1,239,56.3,239z
	 M56.3,230.5c-0.8,0-1.5-0.7-1.5-1.5c0-0.8,0.7-1.5,1.5-1.5s1.5,0.7,1.5,1.5C57.8,229.8,57.1,230.5,56.3,230.5z M56.3,222
	c-0.8,0-1.5-0.7-1.5-1.5s0.7-1.5,1.5-1.5s1.5,0.7,1.5,1.5S57.1,222,56.3,222z M56.3,213.5c-0.8,0-1.5-0.7-1.5-1.5
	c0-0.8,0.7-1.5,1.5-1.5s1.5,0.7,1.5,1.5C57.8,212.8,57.1,213.5,56.3,213.5z M64.8,264.5c-0.8,0-1.5-0.7-1.5-1.5
	c0-0.8,0.7-1.5,1.5-1.5c0.8,0,1.5,0.7,1.5,1.5C66.3,263.8,65.6,264.5,64.8,264.5z M64.8,256c-0.8,0-1.5-0.7-1.5-1.5s0.7-1.5,1.5-1.5
	c0.8,0,1.5,0.7,1.5,1.5S65.6,256,64.8,256z M64.8,247.5c-0.8,0-1.5-0.7-1.5-1.5c0-0.8,0.7-1.5,1.5-1.5c0.8,0,1.5,0.7,1.5,1.5
	C66.3,246.8,65.6,247.5,64.8,247.5z M64.8,239c-0.8,0-1.5-0.7-1.5-1.5s0.7-1.5,1.5-1.5c0.8,0,1.5,0.7,1.5,1.5S65.6,239,64.8,239z
	 M64.8,230.5c-0.8,0-1.5-0.7-1.5-1.5c0-0.8,0.7-1.5,1.5-1.5c0.8,0,1.5,0.7,1.5,1.5C66.3,229.8,65.6,230.5,64.8,230.5z M64.8,222
	c-0.8,0-1.5-0.7-1.5-1.5s0.7-1.5,1.5-1.5c0.8,0,1.5,0.7,1.5,1.5S65.6,222,64.8,222z M64.8,213.5c-0.8,0-1.5-0.7-1.5-1.5
	c0-0.8,0.7-1.5,1.5-1.5c0.8,0,1.5,0.7,1.5,1.5C66.3,212.8,65.6,213.5,64.8,213.5z M73.3,264.5c-0.8,0-1.5-0.7-1.5-1.5
	c0-0.8,0.7-1.5,1.5-1.5s1.5,0.7,1.5,1.5C74.8,263.8,74.1,264.5,73.3,264.5z M73.3,256c-0.8,0-1.5-0.7-1.5-1.5s0.7-1.5,1.5-1.5
	s1.5,0.7,1.5,1.5S74.1,256,73.3,256z M73.3,247.5c-0.8,0-1.5-0.7-1.5-1.5c0-0.8,0.7-1.5,1.5-1.5s1.5,0.7,1.5,1.5
	C74.8,246.8,74.1,247.5,73.3,247.5z M73.3,239c-0.8,0-1.5-0.7-1.5-1.5s0.7-1.5,1.5-1.5s1.5,0.7,1.5,1.5S74.1,239,73.3,239z
	 M73.3,230.5c-0.8,0-1.5-0.7-1.5-1.5c0-0.8,0.7-1.5,1.5-1.5s1.5,0.7,1.5,1.5C74.8,229.8,74.1,230.5,73.3,230.5z M73.3,222
	c-0.8,0-1.5-0.7-1.5-1.5s0.7-1.5,1.5-1.5s1.5,0.7,1.5,1.5S74.1,222,73.3,222z M73.3,213.5c-0.8,0-1.5-0.7-1.5-1.5
	c0-0.8,0.7-1.5,1.5-1.5s1.5,0.7,1.5,1.5C74.8,212.8,74.1,213.5,73.3,213.5z M73.3,205c-0.8,0-1.5-0.7-1.5-1.5s0.7-1.5,1.5-1.5
	s1.5,0.7,1.5,1.5S74.1,205,73.3,205z M81.8,264.5c-0.8,0-1.5-0.7-1.5-1.5c0-0.8,0.7-1.5,1.5-1.5c0.8,0,1.5,0.7,1.5,1.5
	C83.3,263.8,82.6,264.5,81.8,264.5z M81.8,256c-0.8,0-1.5-0.7-1.5-1.5s0.7-1.5,1.5-1.5c0.8,0,1.5,0.7,1.5,1.5S82.6,256,81.8,256z
	 M81.8,247.5c-0.8,0-1.5-0.7-1.5-1.5c0-0.8,0.7-1.5,1.5-1.5c0.8,0,1.5,0.7,1.5,1.5C83.3,246.8,82.6,247.5,81.8,247.5z M81.8,239
	c-0.8,0-1.5-0.7-1.5-1.5s0.7-1.5,1.5-1.5c0.8,0,1.5,0.7,1.5,1.5S82.6,239,81.8,239z M81.8,230.5c-0.8,0-1.5-0.7-1.5-1.5
	c0-0.8,0.7-1.5,1.5-1.5c0.8,0,1.5,0.7,1.5,1.5C83.3,229.8,82.6,230.5,81.8,230.5z M81.8,222c-0.8,0-1.5-0.7-1.5-1.5s0.7-1.5,1.5-1.5
	c0.8,0,1.5,0.7,1.5,1.5S82.6,222,81.8,222z M81.8,213.5c-0.8,0-1.5-0.7-1.5-1.5c0-0.8,0.7-1.5,1.5-1.5c0.8,0,1.5,0.7,1.5,1.5
	C83.3,212.8,82.6,213.5,81.8,213.5z M81.8,205c-0.8,0-1.5-0.7-1.5-1.5s0.7-1.5,1.5-1.5c0.8,0,1.5,0.7,1.5,1.5S82.6,205,81.8,205z
	 M90.3,264.5c-0.8,0-1.5-0.7-1.5-1.5c0-0.8,0.7-1.5,1.5-1.5s1.5,0.7,1.5,1.5C91.8,263.8,91.1,264.5,90.3,264.5z M90.3,256
	c-0.8,0-1.5-0.7-1.5-1.5s0.7-1.5,1.5-1.5s1.5,0.7,1.5,1.5S91.1,256,90.3,256z M90.3,247.5c-0.8,0-1.5-0.7-1.5-1.5
	c0-0.8,0.7-1.5,1.5-1.5s1.5,0.7,1.5,1.5C91.8,246.8,91.1,247.5,90.3,247.5z M90.3,239c-0.8,0-1.5-0.7-1.5-1.5s0.7-1.5,1.5-1.5
	s1.5,0.7,1.5,1.5S91.1,239,90.3,239z M90.3,230.5c-0.8,0-1.5-0.7-1.5-1.5c0-0.8,0.7-1.5,1.5-1.5s1.5,0.7,1.5,1.5
	C91.8,229.8,91.1,230.5,90.3,230.5z M90.3,222c-0.8,0-1.5-0.7-1.5-1.5s0.7-1.5,1.5-1.5s1.5,0.7,1.5,1.5S91.1,222,90.3,222z
	 M90.3,213.5c-0.8,0-1.5-0.7-1.5-1.5c0-0.8,0.7-1.5,1.5-1.5s1.5,0.7,1.5,1.5C91.8,212.8,91.1,213.5,90.3,213.5z M90.3,205
	c-0.8,0-1.5-0.7-1.5-1.5s0.7-1.5,1.5-1.5s1.5,0.7,1.5,1.5S91.1,205,90.3,205z M90.3,196.5c-0.8,0-1.5-0.7-1.5-1.5
	c0-0.8,0.7-1.5,1.5-1.5s1.5,0.7,1.5,1.5C91.8,195.8,91.1,196.5,90.3,196.5z M98.8,264.5c-0.8,0-1.5-0.7-1.5-1.5
	c0-0.8,0.7-1.5,1.5-1.5c0.8,0,1.5,0.7,1.5,1.5C100.3,263.8,99.6,264.5,98.8,264.5z M98.8,256c-0.8,0-1.5-0.7-1.5-1.5
	s0.7-1.5,1.5-1.5c0.8,0,1.5,0.7,1.5,1.5S99.6,256,98.8,256z M98.8,247.5c-0.8,0-1.5-0.7-1.5-1.5c0-0.8,0.7-1.5,1.5-1.5
	c0.8,0,1.5,0.7,1.5,1.5C100.3,246.8,99.6,247.5,98.8,247.5z M98.8,239c-0.8,0-1.5-0.7-1.5-1.5s0.7-1.5,1.5-1.5
	c0.8,0,1.5,0.7,1.5,1.5S99.6,239,98.8,239z M98.8,230.5c-0.8,0-1.5-0.7-1.5-1.5c0-0.8,0.7-1.5,1.5-1.5c0.8,0,1.5,0.7,1.5,1.5
	C100.3,229.8,99.6,230.5,98.8,230.5z M98.8,222c-0.8,0-1.5-0.7-1.5-1.5s0.7-1.5,1.5-1.5c0.8,0,1.5,0.7,1.5,1.5S99.6,222,98.8,222z
	 M98.8,213.5c-0.8,0-1.5-0.7-1.5-1.5c0-0.8,0.7-1.5,1.5-1.5c0.8,0,1.5,0.7,1.5,1.5C100.3,212.8,99.6,213.5,98.8,213.5z M98.8,205
	c-0.8,0-1.5-0.7-1.5-1.5s0.7-1.5,1.5-1.5c0.8,0,1.5,0.7,1.5,1.5S99.6,205,98.8,205z M98.8,196.5c-0.8,0-1.5-0.7-1.5-1.5
	c0-0.8,0.7-1.5,1.5-1.5c0.8,0,1.5,0.7,1.5,1.5C100.3,195.8,99.6,196.5,98.8,196.5z M107.3,264.5c-0.8,0-1.5-0.7-1.5-1.5
	c0-0.8,0.7-1.5,1.5-1.5s1.5,0.7,1.5,1.5C108.8,263.8,108.1,264.5,107.3,264.5z M107.3,256c-0.8,0-1.5-0.7-1.5-1.5s0.7-1.5,1.5-1.5
	s1.5,0.7,1.5,1.5S108.1,256,107.3,256z M107.3,247.5c-0.8,0-1.5-0.7-1.5-1.5c0-0.8,0.7-1.5,1.5-1.5s1.5,0.7,1.5,1.5
	C108.8,246.8,108.1,247.5,107.3,247.5z M107.3,239c-0.8,0-1.5-0.7-1.5-1.5s0.7-1.5,1.5-1.5s1.5,0.7,1.5,1.5S108.1,239,107.3,239z
	 M107.3,230.5c-0.8,0-1.5-0.7-1.5-1.5c0-0.8,0.7-1.5,1.5-1.5s1.5,0.7,1.5,1.5C108.8,229.8,108.1,230.5,107.3,230.5z M107.3,222
	c-0.8,0-1.5-0.7-1.5-1.5s0.7-1.5,1.5-1.5s1.5,0.7,1.5,1.5S108.1,222,107.3,222z M107.3,213.5c-0.8,0-1.5-0.7-1.5-1.5
	c0-0.8,0.7-1.5,1.5-1.5s1.5,0.7,1.5,1.5C108.8,212.8,108.1,213.5,107.3,213.5z M107.3,205c-0.8,0-1.5-0.7-1.5-1.5s0.7-1.5,1.5-1.5
	s1.5,0.7,1.5,1.5S108.1,205,107.3,205z M107.3,196.5c-0.8,0-1.5-0.7-1.5-1.5c0-0.8,0.7-1.5,1.5-1.5s1.5,0.7,1.5,1.5
	C108.8,195.8,108.1,196.5,107.3,196.5z M107.3,188c-0.8,0-1.5-0.7-1.5-1.5c0-0.8,0.7-1.5,1.5-1.5s1.5,0.7,1.5,1.5
	C108.8,187.3,108.1,188,107.3,188z M115.8,264.5c-0.8,0-1.5-0.7-1.5-1.5c0-0.8,0.7-1.5,1.5-1.5c0.8,0,1.5,0.7,1.5,1.5
	C117.3,263.8,116.7,264.5,115.8,264.5z M115.8,256c-0.8,0-1.5-0.7-1.5-1.5s0.7-1.5,1.5-1.5c0.8,0,1.5,0.7,1.5,1.5
	S116.7,256,115.8,256z M115.8,247.5c-0.8,0-1.5-0.7-1.5-1.5c0-0.8,0.7-1.5,1.5-1.5c0.8,0,1.5,0.7,1.5,1.5
	C117.3,246.8,116.7,247.5,115.8,247.5z M115.8,239c-0.8,0-1.5-0.7-1.5-1.5s0.7-1.5,1.5-1.5c0.8,0,1.5,0.7,1.5,1.5
	S116.7,239,115.8,239z M115.8,230.5c-0.8,0-1.5-0.7-1.5-1.5c0-0.8,0.7-1.5,1.5-1.5c0.8,0,1.5,0.7,1.5,1.5
	C117.3,229.8,116.7,230.5,115.8,230.5z M115.8,222c-0.8,0-1.5-0.7-1.5-1.5s0.7-1.5,1.5-1.5c0.8,0,1.5,0.7,1.5,1.5
	S116.7,222,115.8,222z M115.8,213.5c-0.8,0-1.5-0.7-1.5-1.5c0-0.8,0.7-1.5,1.5-1.5c0.8,0,1.5,0.7,1.5,1.5
	C117.3,212.8,116.7,213.5,115.8,213.5z M115.8,205c-0.8,0-1.5-0.7-1.5-1.5s0.7-1.5,1.5-1.5c0.8,0,1.5,0.7,1.5,1.5
	S116.7,205,115.8,205z M115.8,196.5c-0.8,0-1.5-0.7-1.5-1.5c0-0.8,0.7-1.5,1.5-1.5c0.8,0,1.5,0.7,1.5,1.5
	C117.3,195.8,116.7,196.5,115.8,196.5z M115.8,188c-0.8,0-1.5-0.7-1.5-1.5c0-0.8,0.7-1.5,1.5-1.5c0.8,0,1.5,0.7,1.5,1.5
	C117.3,187.3,116.7,188,115.8,188z M124.3,264.5c-0.8,0-1.5-0.7-1.5-1.5c0-0.8,0.7-1.5,1.5-1.5s1.5,0.7,1.5,1.5
	C125.8,263.8,125.2,264.5,124.3,264.5z M124.3,256c-0.8,0-1.5-0.7-1.5-1.5s0.7-1.5,1.5-1.5s1.5,0.7,1.5,1.5S125.2,256,124.3,256z
	 M124.3,247.5c-0.8,0-1.5-0.7-1.5-1.5c0-0.8,0.7-1.5,1.5-1.5s1.5,0.7,1.5,1.5C125.8,246.8,125.2,247.5,124.3,247.5z M124.3,239
	c-0.8,0-1.5-0.7-1.5-1.5s0.7-1.5,1.5-1.5s1.5,0.7,1.5,1.5S125.2,239,124.3,239z M124.3,230.5c-0.8,0-1.5-0.7-1.5-1.5
	c0-0.8,0.7-1.5,1.5-1.5s1.5,0.7,1.5,1.5C125.8,229.8,125.2,230.5,124.3,230.5z M124.3,222c-0.8,0-1.5-0.7-1.5-1.5s0.7-1.5,1.5-1.5
	s1.5,0.7,1.5,1.5S125.2,222,124.3,222z M124.3,213.5c-0.8,0-1.5-0.7-1.5-1.5c0-0.8,0.7-1.5,1.5-1.5s1.5,0.7,1.5,1.5
	C125.8,212.8,125.2,213.5,124.3,213.5z M124.3,205c-0.8,0-1.5-0.7-1.5-1.5s0.7-1.5,1.5-1.5s1.5,0.7,1.5,1.5S125.2,205,124.3,205z
	 M124.3,196.5c-0.8,0-1.5-0.7-1.5-1.5c0-0.8,0.7-1.5,1.5-1.5s1.5,0.7,1.5,1.5C125.8,195.8,125.2,196.5,124.3,196.5z M124.3,188
	c-0.8,0-1.5-0.7-1.5-1.5c0-0.8,0.7-1.5,1.5-1.5s1.5,0.7,1.5,1.5C125.8,187.3,125.2,188,124.3,188z M132.8,264.5
	c-0.8,0-1.5-0.7-1.5-1.5c0-0.8,0.7-1.5,1.5-1.5c0.8,0,1.5,0.7,1.5,1.5C134.3,263.8,133.7,264.5,132.8,264.5z M132.8,256
	c-0.8,0-1.5-0.7-1.5-1.5s0.7-1.5,1.5-1.5c0.8,0,1.5,0.7,1.5,1.5S133.7,256,132.8,256z M132.8,247.5c-0.8,0-1.5-0.7-1.5-1.5
	c0-0.8,0.7-1.5,1.5-1.5c0.8,0,1.5,0.7,1.5,1.5C134.3,246.8,133.7,247.5,132.8,247.5z M132.8,239c-0.8,0-1.5-0.7-1.5-1.5
	s0.7-1.5,1.5-1.5c0.8,0,1.5,0.7,1.5,1.5S133.7,239,132.8,239z M132.8,230.5c-0.8,0-1.5-0.7-1.5-1.5c0-0.8,0.7-1.5,1.5-1.5
	c0.8,0,1.5,0.7,1.5,1.5C134.3,229.8,133.7,230.5,132.8,230.5z M132.8,222c-0.8,0-1.5-0.7-1.5-1.5s0.7-1.5,1.5-1.5
	c0.8,0,1.5,0.7,1.5,1.5S133.7,222,132.8,222z M132.8,213.5c-0.8,0-1.5-0.7-1.5-1.5c0-0.8,0.7-1.5,1.5-1.5c0.8,0,1.5,0.7,1.5,1.5
	C134.3,212.8,133.7,213.5,132.8,213.5z M132.8,205c-0.8,0-1.5-0.7-1.5-1.5s0.7-1.5,1.5-1.5c0.8,0,1.5,0.7,1.5,1.5
	S133.7,205,132.8,205z M132.8,196.5c-0.8,0-1.5-0.7-1.5-1.5c0-0.8,0.7-1.5,1.5-1.5c0.8,0,1.5,0.7,1.5,1.5
	C134.3,195.8,133.7,196.5,132.8,196.5z M132.8,188c-0.8,0-1.5-0.7-1.5-1.5c0-0.8,0.7-1.5,1.5-1.5c0.8,0,1.5,0.7,1.5,1.5
	C134.3,187.3,133.7,188,132.8,188z M141.4,264.5c-0.8,0-1.5-0.7-1.5-1.5c0-0.8,0.7-1.5,1.5-1.5s1.5,0.7,1.5,1.5
	C142.8,263.8,142.2,264.5,141.4,264.5z M141.4,256c-0.8,0-1.5-0.7-1.5-1.5s0.7-1.5,1.5-1.5s1.5,0.7,1.5,1.5S142.2,256,141.4,256z
	 M141.4,247.5c-0.8,0-1.5-0.7-1.5-1.5c0-0.8,0.7-1.5,1.5-1.5s1.5,0.7,1.5,1.5C142.8,246.8,142.2,247.5,141.4,247.5z M141.4,239
	c-0.8,0-1.5-0.7-1.5-1.5s0.7-1.5,1.5-1.5s1.5,0.7,1.5,1.5S142.2,239,141.4,239z M141.4,230.5c-0.8,0-1.5-0.7-1.5-1.5
	c0-0.8,0.7-1.5,1.5-1.5s1.5,0.7,1.5,1.5C142.8,229.8,142.2,230.5,141.4,230.5z M141.4,222c-0.8,0-1.5-0.7-1.5-1.5s0.7-1.5,1.5-1.5
	s1.5,0.7,1.5,1.5S142.2,222,141.4,222z M141.4,213.5c-0.8,0-1.5-0.7-1.5-1.5c0-0.8,0.7-1.5,1.5-1.5s1.5,0.7,1.5,1.5
	C142.8,212.8,142.2,213.5,141.4,213.5z M141.4,205c-0.8,0-1.5-0.7-1.5-1.5s0.7-1.5,1.5-1.5s1.5,0.7,1.5,1.5S142.2,205,141.4,205z
	 M141.4,196.5c-0.8,0-1.5-0.7-1.5-1.5c0-0.8,0.7-1.5,1.5-1.5s1.5,0.7,1.5,1.5C142.8,195.8,142.2,196.5,141.4,196.5z M141.4,188
	c-0.8,0-1.5-0.7-1.5-1.5c0-0.8,0.7-1.5,1.5-1.5s1.5,0.7,1.5,1.5C142.8,187.3,142.2,188,141.4,188z M141.4,179.5
	c-0.8,0-1.5-0.7-1.5-1.5c0-0.8,0.7-1.5,1.5-1.5s1.5,0.7,1.5,1.5C142.8,178.8,142.2,179.5,141.4,179.5z M149.9,264.5
	c-0.8,0-1.5-0.7-1.5-1.5c0-0.8,0.7-1.5,1.5-1.5c0.8,0,1.5,0.7,1.5,1.5C151.3,263.8,150.7,264.5,149.9,264.5z M149.9,256
	c-0.8,0-1.5-0.7-1.5-1.5s0.7-1.5,1.5-1.5c0.8,0,1.5,0.7,1.5,1.5S150.7,256,149.9,256z M149.9,247.5c-0.8,0-1.5-0.7-1.5-1.5
	c0-0.8,0.7-1.5,1.5-1.5c0.8,0,1.5,0.7,1.5,1.5C151.3,246.8,150.7,247.5,149.9,247.5z M149.9,239c-0.8,0-1.5-0.7-1.5-1.5
	s0.7-1.5,1.5-1.5c0.8,0,1.5,0.7,1.5,1.5S150.7,239,149.9,239z M149.9,230.5c-0.8,0-1.5-0.7-1.5-1.5c0-0.8,0.7-1.5,1.5-1.5
	c0.8,0,1.5,0.7,1.5,1.5C151.3,229.8,150.7,230.5,149.9,230.5z M149.9,222c-0.8,0-1.5-0.7-1.5-1.5s0.7-1.5,1.5-1.5
	c0.8,0,1.5,0.7,1.5,1.5S150.7,222,149.9,222z M149.9,213.5c-0.8,0-1.5-0.7-1.5-1.5c0-0.8,0.7-1.5,1.5-1.5c0.8,0,1.5,0.7,1.5,1.5
	C151.3,212.8,150.7,213.5,149.9,213.5z M149.9,205c-0.8,0-1.5-0.7-1.5-1.5s0.7-1.5,1.5-1.5c0.8,0,1.5,0.7,1.5,1.5
	S150.7,205,149.9,205z M149.9,196.5c-0.8,0-1.5-0.7-1.5-1.5c0-0.8,0.7-1.5,1.5-1.5c0.8,0,1.5,0.7,1.5,1.5
	C151.3,195.8,150.7,196.5,149.9,196.5z M149.9,188c-0.8,0-1.5-0.7-1.5-1.5c0-0.8,0.7-1.5,1.5-1.5c0.8,0,1.5,0.7,1.5,1.5
	C151.3,187.3,150.7,188,149.9,188z M149.9,179.5c-0.8,0-1.5-0.7-1.5-1.5c0-0.8,0.7-1.5,1.5-1.5c0.8,0,1.5,0.7,1.5,1.5
	C151.3,178.8,150.7,179.5,149.9,179.5z M158.4,264.5c-0.8,0-1.5-0.7-1.5-1.5c0-0.8,0.7-1.5,1.5-1.5s1.5,0.7,1.5,1.5
	C159.8,263.8,159.2,264.5,158.4,264.5z M158.4,256c-0.8,0-1.5-0.7-1.5-1.5s0.7-1.5,1.5-1.5s1.5,0.7,1.5,1.5S159.2,256,158.4,256z
	 M158.4,247.5c-0.8,0-1.5-0.7-1.5-1.5c0-0.8,0.7-1.5,1.5-1.5s1.5,0.7,1.5,1.5C159.8,246.8,159.2,247.5,158.4,247.5z M158.4,239
	c-0.8,0-1.5-0.7-1.5-1.5s0.7-1.5,1.5-1.5s1.5,0.7,1.5,1.5S159.2,239,158.4,239z M158.4,230.5c-0.8,0-1.5-0.7-1.5-1.5
	c0-0.8,0.7-1.5,1.5-1.5s1.5,0.7,1.5,1.5C159.8,229.8,159.2,230.5,158.4,230.5z M158.4,222c-0.8,0-1.5-0.7-1.5-1.5s0.7-1.5,1.5-1.5
	s1.5,0.7,1.5,1.5S159.2,222,158.4,222z M158.4,213.5c-0.8,0-1.5-0.7-1.5-1.5c0-0.8,0.7-1.5,1.5-1.5s1.5,0.7,1.5,1.5
	C159.8,212.8,159.2,213.5,158.4,213.5z M158.4,205c-0.8,0-1.5-0.7-1.5-1.5s0.7-1.5,1.5-1.5s1.5,0.7,1.5,1.5S159.2,205,158.4,205z
	 M158.4,196.5c-0.8,0-1.5-0.7-1.5-1.5c0-0.8,0.7-1.5,1.5-1.5s1.5,0.7,1.5,1.5C159.8,195.8,159.2,196.5,158.4,196.5z M158.4,188
	c-0.8,0-1.5-0.7-1.5-1.5c0-0.8,0.7-1.5,1.5-1.5s1.5,0.7,1.5,1.5C159.8,187.3,159.2,188,158.4,188z M158.4,179.5
	c-0.8,0-1.5-0.7-1.5-1.5c0-0.8,0.7-1.5,1.5-1.5s1.5,0.7,1.5,1.5C159.8,178.8,159.2,179.5,158.4,179.5z M166.9,264.5
	c-0.8,0-1.5-0.7-1.5-1.5c0-0.8,0.7-1.5,1.5-1.5c0.8,0,1.5,0.7,1.5,1.5C168.3,263.8,167.7,264.5,166.9,264.5z M166.9,256
	c-0.8,0-1.5-0.7-1.5-1.5s0.7-1.5,1.5-1.5c0.8,0,1.5,0.7,1.5,1.5S167.7,256,166.9,256z M166.9,247.5c-0.8,0-1.5-0.7-1.5-1.5
	c0-0.8,0.7-1.5,1.5-1.5c0.8,0,1.5,0.7,1.5,1.5C168.3,246.8,167.7,247.5,166.9,247.5z M166.9,239c-0.8,0-1.5-0.7-1.5-1.5
	s0.7-1.5,1.5-1.5c0.8,0,1.5,0.7,1.5,1.5S167.7,239,166.9,239z M166.9,230.5c-0.8,0-1.5-0.7-1.5-1.5c0-0.8,0.7-1.5,1.5-1.5
	c0.8,0,1.5,0.7,1.5,1.5C168.3,229.8,167.7,230.5,166.9,230.5z M166.9,222c-0.8,0-1.5-0.7-1.5-1.5s0.7-1.5,1.5-1.5
	c0.8,0,1.5,0.7,1.5,1.5S167.7,222,166.9,222z M166.9,213.5c-0.8,0-1.5-0.7-1.5-1.5c0-0.8,0.7-1.5,1.5-1.5c0.8,0,1.5,0.7,1.5,1.5
	C168.3,212.8,167.7,213.5,166.9,213.5z M166.9,205c-0.8,0-1.5-0.7-1.5-1.5s0.7-1.5,1.5-1.5c0.8,0,1.5,0.7,1.5,1.5
	S167.7,205,166.9,205z M166.9,196.5c-0.8,0-1.5-0.7-1.5-1.5c0-0.8,0.7-1.5,1.5-1.5c0.8,0,1.5,0.7,1.5,1.5
	C168.3,195.8,167.7,196.5,166.9,196.5z M166.9,188c-0.8,0-1.5-0.7-1.5-1.5c0-0.8,0.7-1.5,1.5-1.5c0.8,0,1.5,0.7,1.5,1.5
	C168.3,187.3,167.7,188,166.9,188z M166.9,179.5c-0.8,0-1.5-0.7-1.5-1.5c0-0.8,0.7-1.5,1.5-1.5c0.8,0,1.5,0.7,1.5,1.5
	C168.3,178.8,167.7,179.5,166.9,179.5z M175.4,264.5c-0.8,0-1.5-0.7-1.5-1.5c0-0.8,0.7-1.5,1.5-1.5s1.5,0.7,1.5,1.5
	C176.8,263.8,176.2,264.5,175.4,264.5z M175.4,256c-0.8,0-1.5-0.7-1.5-1.5s0.7-1.5,1.5-1.5s1.5,0.7,1.5,1.5S176.2,256,175.4,256z
	 M175.4,247.5c-0.8,0-1.5-0.7-1.5-1.5c0-0.8,0.7-1.5,1.5-1.5s1.5,0.7,1.5,1.5C176.8,246.8,176.2,247.5,175.4,247.5z M175.4,239
	c-0.8,0-1.5-0.7-1.5-1.5s0.7-1.5,1.5-1.5s1.5,0.7,1.5,1.5S176.2,239,175.4,239z M175.4,230.5c-0.8,0-1.5-0.7-1.5-1.5
	c0-0.8,0.7-1.5,1.5-1.5s1.5,0.7,1.5,1.5C176.8,229.8,176.2,230.5,175.4,230.5z M175.4,222c-0.8,0-1.5-0.7-1.5-1.5s0.7-1.5,1.5-1.5
	s1.5,0.7,1.5,1.5S176.2,222,175.4,222z M175.4,213.5c-0.8,0-1.5-0.7-1.5-1.5c0-0.8,0.7-1.5,1.5-1.5s1.5,0.7,1.5,1.5
	C176.8,212.8,176.2,213.5,175.4,213.5z M175.4,205c-0.8,0-1.5-0.7-1.5-1.5s0.7-1.5,1.5-1.5s1.5,0.7,1.5,1.5S176.2,205,175.4,205z
	 M175.4,196.5c-0.8,0-1.5-0.7-1.5-1.5c0-0.8,0.7-1.5,1.5-1.5s1.5,0.7,1.5,1.5C176.8,195.8,176.2,196.5,175.4,196.5z M175.4,188
	c-0.8,0-1.5-0.7-1.5-1.5c0-0.8,0.7-1.5,1.5-1.5s1.5,0.7,1.5,1.5C176.8,187.3,176.2,188,175.4,188z M175.4,179.5
	c-0.8,0-1.5-0.7-1.5-1.5c0-0.8,0.7-1.5,1.5-1.5s1.5,0.7,1.5,1.5C176.8,178.8,176.2,179.5,175.4,179.5z M183.9,264.5
	c-0.8,0-1.5-0.7-1.5-1.5c0-0.8,0.7-1.5,1.5-1.5c0.8,0,1.5,0.7,1.5,1.5C185.3,263.8,184.7,264.5,183.9,264.5z M183.9,256
	c-0.8,0-1.5-0.7-1.5-1.5s0.7-1.5,1.5-1.5c0.8,0,1.5,0.7,1.5,1.5S184.7,256,183.9,256z M183.9,247.5c-0.8,0-1.5-0.7-1.5-1.5
	c0-0.8,0.7-1.5,1.5-1.5c0.8,0,1.5,0.7,1.5,1.5C185.3,246.8,184.7,247.5,183.9,247.5z M183.9,239c-0.8,0-1.5-0.7-1.5-1.5
	s0.7-1.5,1.5-1.5c0.8,0,1.5,0.7,1.5,1.5S184.7,239,183.9,239z M183.9,230.5c-0.8,0-1.5-0.7-1.5-1.5c0-0.8,0.7-1.5,1.5-1.5
	c0.8,0,1.5,0.7,1.5,1.5C185.3,229.8,184.7,230.5,183.9,230.5z M183.9,222c-0.8,0-1.5-0.7-1.5-1.5s0.7-1.5,1.5-1.5
	c0.8,0,1.5,0.7,1.5,1.5S184.7,222,183.9,222z M183.9,213.5c-0.8,0-1.5-0.7-1.5-1.5c0-0.8,0.7-1.5,1.5-1.5c0.8,0,1.5,0.7,1.5,1.5
	C185.3,212.8,184.7,213.5,183.9,213.5z M183.9,205c-0.8,0-1.5-0.7-1.5-1.5s0.7-1.5,1.5-1.5c0.8,0,1.5,0.7,1.5,1.5
	S184.7,205,183.9,205z M183.9,196.5c-0.8,0-1.5-0.7-1.5-1.5c0-0.8,0.7-1.5,1.5-1.5c0.8,0,1.5,0.7,1.5,1.5
	C185.3,195.8,184.7,196.5,183.9,196.5z M183.9,188c-0.8,0-1.5-0.7-1.5-1.5c0-0.8,0.7-1.5,1.5-1.5c0.8,0,1.5,0.7,1.5,1.5
	C185.3,187.3,184.7,188,183.9,188z M183.9,179.5c-0.8,0-1.5-0.7-1.5-1.5c0-0.8,0.7-1.5,1.5-1.5c0.8,0,1.5,0.7,1.5,1.5
	C185.3,178.8,184.7,179.5,183.9,179.5z M192.4,264.5c-0.8,0-1.5-0.7-1.5-1.5c0-0.8,0.7-1.5,1.5-1.5s1.5,0.7,1.5,1.5
	C193.8,263.8,193.2,264.5,192.4,264.5z M192.4,256c-0.8,0-1.5-0.7-1.5-1.5s0.7-1.5,1.5-1.5s1.5,0.7,1.5,1.5S193.2,256,192.4,256z
	 M192.4,247.5c-0.8,0-1.5-0.7-1.5-1.5c0-0.8,0.7-1.5,1.5-1.5s1.5,0.7,1.5,1.5C193.8,246.8,193.2,247.5,192.4,247.5z M192.4,239
	c-0.8,0-1.5-0.7-1.5-1.5s0.7-1.5,1.5-1.5s1.5,0.7,1.5,1.5S193.2,239,192.4,239z M192.4,230.5c-0.8,0-1.5-0.7-1.5-1.5
	c0-0.8,0.7-1.5,1.5-1.5s1.5,0.7,1.5,1.5C193.8,229.8,193.2,230.5,192.4,230.5z M192.4,222c-0.8,0-1.5-0.7-1.5-1.5s0.7-1.5,1.5-1.5
	s1.5,0.7,1.5,1.5S193.2,222,192.4,222z M192.4,213.5c-0.8,0-1.5-0.7-1.5-1.5c0-0.8,0.7-1.5,1.5-1.5s1.5,0.7,1.5,1.5
	C193.8,212.8,193.2,213.5,192.4,213.5z M192.4,205c-0.8,0-1.5-0.7-1.5-1.5s0.7-1.5,1.5-1.5s1.5,0.7,1.5,1.5S193.2,205,192.4,205z
	 M192.4,196.5c-0.8,0-1.5-0.7-1.5-1.5c0-0.8,0.7-1.5,1.5-1.5s1.5,0.7,1.5,1.5C193.8,195.8,193.2,196.5,192.4,196.5z M192.4,188
	c-0.8,0-1.5-0.7-1.5-1.5c0-0.8,0.7-1.5,1.5-1.5s1.5,0.7,1.5,1.5C193.8,187.3,193.2,188,192.4,188z M192.4,179.5
	c-0.8,0-1.5-0.7-1.5-1.5c0-0.8,0.7-1.5,1.5-1.5s1.5,0.7,1.5,1.5C193.8,178.8,193.2,179.5,192.4,179.5z M200.9,264.5
	c-0.8,0-1.5-0.7-1.5-1.5c0-0.8,0.7-1.5,1.5-1.5c0.8,0,1.5,0.7,1.5,1.5C202.4,263.8,201.7,264.5,200.9,264.5z M200.9,256
	c-0.8,0-1.5-0.7-1.5-1.5s0.7-1.5,1.5-1.5c0.8,0,1.5,0.7,1.5,1.5S201.7,256,200.9,256z M200.9,247.5c-0.8,0-1.5-0.7-1.5-1.5
	c0-0.8,0.7-1.5,1.5-1.5c0.8,0,1.5,0.7,1.5,1.5C202.4,246.8,201.7,247.5,200.9,247.5z M200.9,239c-0.8,0-1.5-0.7-1.5-1.5
	s0.7-1.5,1.5-1.5c0.8,0,1.5,0.7,1.5,1.5S201.7,239,200.9,239z M200.9,230.5c-0.8,0-1.5-0.7-1.5-1.5c0-0.8,0.7-1.5,1.5-1.5
	c0.8,0,1.5,0.7,1.5,1.5C202.4,229.8,201.7,230.5,200.9,230.5z M200.9,222c-0.8,0-1.5-0.7-1.5-1.5s0.7-1.5,1.5-1.5
	c0.8,0,1.5,0.7,1.5,1.5S201.7,222,200.9,222z M200.9,213.5c-0.8,0-1.5-0.7-1.5-1.5c0-0.8,0.7-1.5,1.5-1.5c0.8,0,1.5,0.7,1.5,1.5
	C202.4,212.8,201.7,213.5,200.9,213.5z M200.9,205c-0.8,0-1.5-0.7-1.5-1.5s0.7-1.5,1.5-1.5c0.8,0,1.5,0.7,1.5,1.5
	S201.7,205,200.9,205z M200.9,196.5c-0.8,0-1.5-0.7-1.5-1.5c0-0.8,0.7-1.5,1.5-1.5c0.8,0,1.5,0.7,1.5,1.5
	C202.4,195.8,201.7,196.5,200.9,196.5z M200.9,188c-0.8,0-1.5-0.7-1.5-1.5c0-0.8,0.7-1.5,1.5-1.5c0.8,0,1.5,0.7,1.5,1.5
	C202.4,187.3,201.7,188,200.9,188z M200.9,179.5c-0.8,0-1.5-0.7-1.5-1.5c0-0.8,0.7-1.5,1.5-1.5c0.8,0,1.5,0.7,1.5,1.5
	C202.4,178.8,201.7,179.5,200.9,179.5z M209.4,264.5c-0.8,0-1.5-0.7-1.5-1.5c0-0.8,0.7-1.5,1.5-1.5s1.5,0.7,1.5,1.5
	C210.9,263.8,210.2,264.5,209.4,264.5z M209.4,256c-0.8,0-1.5-0.7-1.5-1.5s0.7-1.5,1.5-1.5s1.5,0.7,1.5,1.5S210.2,256,209.4,256z
	 M209.4,247.5c-0.8,0-1.5-0.7-1.5-1.5c0-0.8,0.7-1.5,1.5-1.5s1.5,0.7,1.5,1.5C210.9,246.8,210.2,247.5,209.4,247.5z M209.4,239
	c-0.8,0-1.5-0.7-1.5-1.5s0.7-1.5,1.5-1.5s1.5,0.7,1.5,1.5S210.2,239,209.4,239z M209.4,230.5c-0.8,0-1.5-0.7-1.5-1.5
	c0-0.8,0.7-1.5,1.5-1.5s1.5,0.7,1.5,1.5C210.9,229.8,210.2,230.5,209.4,230.5z M209.4,222c-0.8,0-1.5-0.7-1.5-1.5s0.7-1.5,1.5-1.5
	s1.5,0.7,1.5,1.5S210.2,222,209.4,222z M209.4,213.5c-0.8,0-1.5-0.7-1.5-1.5c0-0.8,0.7-1.5,1.5-1.5s1.5,0.7,1.5,1.5
	C210.9,212.8,210.2,213.5,209.4,213.5z M209.4,205c-0.8,0-1.5-0.7-1.5-1.5s0.7-1.5,1.5-1.5s1.5,0.7,1.5,1.5S210.2,205,209.4,205z
	 M209.4,196.5c-0.8,0-1.5-0.7-1.5-1.5c0-0.8,0.7-1.5,1.5-1.5s1.5,0.7,1.5,1.5C210.9,195.8,210.2,196.5,209.4,196.5z M209.4,188
	c-0.8,0-1.5-0.7-1.5-1.5c0-0.8,0.7-1.5,1.5-1.5s1.5,0.7,1.5,1.5C210.9,187.3,210.2,188,209.4,188z M209.4,179.5
	c-0.8,0-1.5-0.7-1.5-1.5c0-0.8,0.7-1.5,1.5-1.5s1.5,0.7,1.5,1.5C210.9,178.8,210.2,179.5,209.4,179.5z M217.9,264.5
	c-0.8,0-1.5-0.7-1.5-1.5c0-0.8,0.7-1.5,1.5-1.5c0.8,0,1.5,0.7,1.5,1.5C219.4,263.8,218.7,264.5,217.9,264.5z M217.9,256
	c-0.8,0-1.5-0.7-1.5-1.5s0.7-1.5,1.5-1.5c0.8,0,1.5,0.7,1.5,1.5S218.7,256,217.9,256z M217.9,247.5c-0.8,0-1.5-0.7-1.5-1.5
	c0-0.8,0.7-1.5,1.5-1.5c0.8,0,1.5,0.7,1.5,1.5C219.4,246.8,218.7,247.5,217.9,247.5z M217.9,239c-0.8,0-1.5-0.7-1.5-1.5
	s0.7-1.5,1.5-1.5c0.8,0,1.5,0.7,1.5,1.5S218.7,239,217.9,239z M217.9,230.5c-0.8,0-1.5-0.7-1.5-1.5c0-0.8,0.7-1.5,1.5-1.5
	c0.8,0,1.5,0.7,1.5,1.5C219.4,229.8,218.7,230.5,217.9,230.5z M217.9,222c-0.8,0-1.5-0.7-1.5-1.5s0.7-1.5,1.5-1.5
	c0.8,0,1.5,0.7,1.5,1.5S218.7,222,217.9,222z M217.9,213.5c-0.8,0-1.5-0.7-1.5-1.5c0-0.8,0.7-1.5,1.5-1.5c0.8,0,1.5,0.7,1.5,1.5
	C219.4,212.8,218.7,213.5,217.9,213.5z M217.9,205c-0.8,0-1.5-0.7-1.5-1.5s0.7-1.5,1.5-1.5c0.8,0,1.5,0.7,1.5,1.5
	S218.7,205,217.9,205z M217.9,196.5c-0.8,0-1.5-0.7-1.5-1.5c0-0.8,0.7-1.5,1.5-1.5c0.8,0,1.5,0.7,1.5,1.5
	C219.4,195.8,218.7,196.5,217.9,196.5z M217.9,188c-0.8,0-1.5-0.7-1.5-1.5c0-0.8,0.7-1.5,1.5-1.5c0.8,0,1.5,0.7,1.5,1.5
	C219.4,187.3,218.7,188,217.9,188z M226.4,264.5c-0.8,0-1.5-0.7-1.5-1.5c0-0.8,0.7-1.5,1.5-1.5s1.5,0.7,1.5,1.5
	C227.9,263.8,227.2,264.5,226.4,264.5z M226.4,256c-0.8,0-1.5-0.7-1.5-1.5s0.7-1.5,1.5-1.5s1.5,0.7,1.5,1.5S227.2,256,226.4,256z
	 M226.4,247.5c-0.8,0-1.5-0.7-1.5-1.5c0-0.8,0.7-1.5,1.5-1.5s1.5,0.7,1.5,1.5C227.9,246.8,227.2,247.5,226.4,247.5z M226.4,239
	c-0.8,0-1.5-0.7-1.5-1.5s0.7-1.5,1.5-1.5s1.5,0.7,1.5,1.5S227.2,239,226.4,239z M226.4,230.5c-0.8,0-1.5-0.7-1.5-1.5
	c0-0.8,0.7-1.5,1.5-1.5s1.5,0.7,1.5,1.5C227.9,229.8,227.2,230.5,226.4,230.5z M226.4,222c-0.8,0-1.5-0.7-1.5-1.5s0.7-1.5,1.5-1.5
	s1.5,0.7,1.5,1.5S227.2,222,226.4,222z M226.4,213.5c-0.8,0-1.5-0.7-1.5-1.5c0-0.8,0.7-1.5,1.5-1.5s1.5,0.7,1.5,1.5
	C227.9,212.8,227.2,213.5,226.4,213.5z M226.4,205c-0.8,0-1.5-0.7-1.5-1.5s0.7-1.5,1.5-1.5s1.5,0.7,1.5,1.5S227.2,205,226.4,205z
	 M226.4,196.5c-0.8,0-1.5-0.7-1.5-1.5c0-0.8,0.7-1.5,1.5-1.5s1.5,0.7,1.5,1.5C227.9,195.8,227.2,196.5,226.4,196.5z M226.4,188
	c-0.8,0-1.5-0.7-1.5-1.5c0-0.8,0.7-1.5,1.5-1.5s1.5,0.7,1.5,1.5C227.9,187.3,227.2,188,226.4,188z M234.9,264.5
	c-0.8,0-1.5-0.7-1.5-1.5c0-0.8,0.7-1.5,1.5-1.5c0.8,0,1.5,0.7,1.5,1.5C236.4,263.8,235.7,264.5,234.9,264.5z M234.9,256
	c-0.8,0-1.5-0.7-1.5-1.5s0.7-1.5,1.5-1.5c0.8,0,1.5,0.7,1.5,1.5S235.7,256,234.9,256z M234.9,247.5c-0.8,0-1.5-0.7-1.5-1.5
	c0-0.8,0.7-1.5,1.5-1.5c0.8,0,1.5,0.7,1.5,1.5C236.4,246.8,235.7,247.5,234.9,247.5z M234.9,239c-0.8,0-1.5-0.7-1.5-1.5
	s0.7-1.5,1.5-1.5c0.8,0,1.5,0.7,1.5,1.5S235.7,239,234.9,239z M234.9,230.5c-0.8,0-1.5-0.7-1.5-1.5c0-0.8,0.7-1.5,1.5-1.5
	c0.8,0,1.5,0.7,1.5,1.5C236.4,229.8,235.7,230.5,234.9,230.5z M234.9,222c-0.8,0-1.5-0.7-1.5-1.5s0.7-1.5,1.5-1.5
	c0.8,0,1.5,0.7,1.5,1.5S235.7,222,234.9,222z M234.9,213.5c-0.8,0-1.5-0.7-1.5-1.5c0-0.8,0.7-1.5,1.5-1.5c0.8,0,1.5,0.7,1.5,1.5
	C236.4,212.8,235.7,213.5,234.9,213.5z M234.9,205c-0.8,0-1.5-0.7-1.5-1.5s0.7-1.5,1.5-1.5c0.8,0,1.5,0.7,1.5,1.5
	S235.7,205,234.9,205z M234.9,196.5c-0.8,0-1.5-0.7-1.5-1.5c0-0.8,0.7-1.5,1.5-1.5c0.8,0,1.5,0.7,1.5,1.5
	C236.4,195.8,235.7,196.5,234.9,196.5z M234.9,188c-0.8,0-1.5-0.7-1.5-1.5c0-0.8,0.7-1.5,1.5-1.5c0.8,0,1.5,0.7,1.5,1.5
	C236.4,187.3,235.7,188,234.9,188z M243.4,264.5c-0.8,0-1.5-0.7-1.5-1.5c0-0.8,0.7-1.5,1.5-1.5s1.5,0.7,1.5,1.5
	C244.9,263.8,244.2,264.5,243.4,264.5z M243.4,256c-0.8,0-1.5-0.7-1.5-1.5s0.7-1.5,1.5-1.5s1.5,0.7,1.5,1.5S244.2,256,243.4,256z
	 M243.4,247.5c-0.8,0-1.5-0.7-1.5-1.5c0-0.8,0.7-1.5,1.5-1.5s1.5,0.7,1.5,1.5C244.9,246.8,244.2,247.5,243.4,247.5z M243.4,239
	c-0.8,0-1.5-0.7-1.5-1.5s0.7-1.5,1.5-1.5s1.5,0.7,1.5,1.5S244.2,239,243.4,239z M243.4,230.5c-0.8,0-1.5-0.7-1.5-1.5
	c0-0.8,0.7-1.5,1.5-1.5s1.5,0.7,1.5,1.5C244.9,229.8,244.2,230.5,243.4,230.5z M243.4,222c-0.8,0-1.5-0.7-1.5-1.5s0.7-1.5,1.5-1.5
	s1.5,0.7,1.5,1.5S244.2,222,243.4,222z M243.4,213.5c-0.8,0-1.5-0.7-1.5-1.5c0-0.8,0.7-1.5,1.5-1.5s1.5,0.7,1.5,1.5
	C244.9,212.8,244.2,213.5,243.4,213.5z M243.4,205c-0.8,0-1.5-0.7-1.5-1.5s0.7-1.5,1.5-1.5s1.5,0.7,1.5,1.5S244.2,205,243.4,205z
	 M243.4,196.5c-0.8,0-1.5-0.7-1.5-1.5c0-0.8,0.7-1.5,1.5-1.5s1.5,0.7,1.5,1.5C244.9,195.8,244.2,196.5,243.4,196.5z M243.4,188
	c-0.8,0-1.5-0.7-1.5-1.5c0-0.8,0.7-1.5,1.5-1.5s1.5,0.7,1.5,1.5C244.9,187.3,244.2,188,243.4,188z M251.7,264.3
	c-0.8,0-1.5-0.7-1.5-1.5c0-0.8,0.7-1.5,1.5-1.5c0.8,0,1.5,0.7,1.5,1.5C253.2,263.7,252.5,264.3,251.7,264.3z M251.7,255.8
	c-0.8,0-1.5-0.7-1.5-1.5s0.7-1.5,1.5-1.5c0.8,0,1.5,0.7,1.5,1.5S252.5,255.8,251.7,255.8z M251.7,247.3c-0.8,0-1.5-0.7-1.5-1.5
	c0-0.8,0.7-1.5,1.5-1.5c0.8,0,1.5,0.7,1.5,1.5C253.2,246.6,252.5,247.3,251.7,247.3z M251.7,238.8c-0.8,0-1.5-0.7-1.5-1.5
	s0.7-1.5,1.5-1.5c0.8,0,1.5,0.7,1.5,1.5S252.5,238.8,251.7,238.8z M251.7,230.3c-0.8,0-1.5-0.7-1.5-1.5c0-0.8,0.7-1.5,1.5-1.5
	c0.8,0,1.5,0.7,1.5,1.5C253.2,229.6,252.5,230.3,251.7,230.3z M251.7,221.8c-0.8,0-1.5-0.7-1.5-1.5s0.7-1.5,1.5-1.5
	c0.8,0,1.5,0.7,1.5,1.5S252.5,221.8,251.7,221.8z M251.7,213.3c-0.8,0-1.5-0.7-1.5-1.5c0-0.8,0.7-1.5,1.5-1.5c0.8,0,1.5,0.7,1.5,1.5
	C253.2,212.6,252.5,213.3,251.7,213.3z M251.7,204.8c-0.8,0-1.5-0.7-1.5-1.5s0.7-1.5,1.5-1.5c0.8,0,1.5,0.7,1.5,1.5
	S252.5,204.8,251.7,204.8z M251.7,196.3c-0.8,0-1.5-0.7-1.5-1.5c0-0.8,0.7-1.5,1.5-1.5c0.8,0,1.5,0.7,1.5,1.5
	C253.2,195.6,252.5,196.3,251.7,196.3z M251.7,187.8c-0.8,0-1.5-0.7-1.5-1.5c0-0.8,0.7-1.5,1.5-1.5c0.8,0,1.5,0.7,1.5,1.5
	C253.2,187.1,252.5,187.8,251.7,187.8z M260.2,264.3c-0.8,0-1.5-0.7-1.5-1.5c0-0.8,0.7-1.5,1.5-1.5c0.8,0,1.5,0.7,1.5,1.5
	C261.7,263.7,261.1,264.3,260.2,264.3z M260.2,255.8c-0.8,0-1.5-0.7-1.5-1.5s0.7-1.5,1.5-1.5c0.8,0,1.5,0.7,1.5,1.5
	S261.1,255.8,260.2,255.8z M260.2,247.3c-0.8,0-1.5-0.7-1.5-1.5c0-0.8,0.7-1.5,1.5-1.5c0.8,0,1.5,0.7,1.5,1.5
	C261.7,246.6,261.1,247.3,260.2,247.3z M260.2,238.8c-0.8,0-1.5-0.7-1.5-1.5s0.7-1.5,1.5-1.5c0.8,0,1.5,0.7,1.5,1.5
	S261.1,238.8,260.2,238.8z M260.2,230.3c-0.8,0-1.5-0.7-1.5-1.5c0-0.8,0.7-1.5,1.5-1.5c0.8,0,1.5,0.7,1.5,1.5
	C261.7,229.6,261.1,230.3,260.2,230.3z M260.2,221.8c-0.8,0-1.5-0.7-1.5-1.5s0.7-1.5,1.5-1.5c0.8,0,1.5,0.7,1.5,1.5
	S261.1,221.8,260.2,221.8z M260.2,213.3c-0.8,0-1.5-0.7-1.5-1.5c0-0.8,0.7-1.5,1.5-1.5c0.8,0,1.5,0.7,1.5,1.5
	C261.7,212.6,261.1,213.3,260.2,213.3z M260.2,204.8c-0.8,0-1.5-0.7-1.5-1.5s0.7-1.5,1.5-1.5c0.8,0,1.5,0.7,1.5,1.5
	S261.1,204.8,260.2,204.8z M260.2,196.3c-0.8,0-1.5-0.7-1.5-1.5c0-0.8,0.7-1.5,1.5-1.5c0.8,0,1.5,0.7,1.5,1.5
	C261.7,195.6,261.1,196.3,260.2,196.3z M260.2,187.8c-0.8,0-1.5-0.7-1.5-1.5c0-0.8,0.7-1.5,1.5-1.5c0.8,0,1.5,0.7,1.5,1.5
	C261.7,187.1,261.1,187.8,260.2,187.8z M268.7,264.3c-0.8,0-1.5-0.7-1.5-1.5c0-0.8,0.7-1.5,1.5-1.5c0.8,0,1.5,0.7,1.5,1.5
	C270.2,263.7,269.6,264.3,268.7,264.3z M268.7,255.8c-0.8,0-1.5-0.7-1.5-1.5s0.7-1.5,1.5-1.5c0.8,0,1.5,0.7,1.5,1.5
	S269.6,255.8,268.7,255.8z M268.7,247.3c-0.8,0-1.5-0.7-1.5-1.5c0-0.8,0.7-1.5,1.5-1.5c0.8,0,1.5,0.7,1.5,1.5
	C270.2,246.6,269.6,247.3,268.7,247.3z M268.7,238.8c-0.8,0-1.5-0.7-1.5-1.5s0.7-1.5,1.5-1.5c0.8,0,1.5,0.7,1.5,1.5
	S269.6,238.8,268.7,238.8z M268.7,230.3c-0.8,0-1.5-0.7-1.5-1.5c0-0.8,0.7-1.5,1.5-1.5c0.8,0,1.5,0.7,1.5,1.5
	C270.2,229.6,269.6,230.3,268.7,230.3z M268.7,221.8c-0.8,0-1.5-0.7-1.5-1.5s0.7-1.5,1.5-1.5c0.8,0,1.5,0.7,1.5,1.5
	S269.6,221.8,268.7,221.8z M268.7,213.3c-0.8,0-1.5-0.7-1.5-1.5c0-0.8,0.7-1.5,1.5-1.5c0.8,0,1.5,0.7,1.5,1.5
	C270.2,212.6,269.6,213.3,268.7,213.3z M268.7,204.8c-0.8,0-1.5-0.7-1.5-1.5s0.7-1.5,1.5-1.5c0.8,0,1.5,0.7,1.5,1.5
	S269.6,204.8,268.7,204.8z M268.7,196.3c-0.8,0-1.5-0.7-1.5-1.5c0-0.8,0.7-1.5,1.5-1.5c0.8,0,1.5,0.7,1.5,1.5
	C270.2,195.6,269.6,196.3,268.7,196.3z M268.7,187.8c-0.8,0-1.5-0.7-1.5-1.5c0-0.8,0.7-1.5,1.5-1.5c0.8,0,1.5,0.7,1.5,1.5
	C270.2,187.1,269.6,187.8,268.7,187.8z M277.2,264.3c-0.8,0-1.5-0.7-1.5-1.5c0-0.8,0.7-1.5,1.5-1.5c0.8,0,1.5,0.7,1.5,1.5
	C278.7,263.7,278.1,264.3,277.2,264.3z M277.2,255.8c-0.8,0-1.5-0.7-1.5-1.5s0.7-1.5,1.5-1.5c0.8,0,1.5,0.7,1.5,1.5
	S278.1,255.8,277.2,255.8z M277.2,247.3c-0.8,0-1.5-0.7-1.5-1.5c0-0.8,0.7-1.5,1.5-1.5c0.8,0,1.5,0.7,1.5,1.5
	C278.7,246.6,278.1,247.3,277.2,247.3z M277.2,238.8c-0.8,0-1.5-0.7-1.5-1.5s0.7-1.5,1.5-1.5c0.8,0,1.5,0.7,1.5,1.5
	S278.1,238.8,277.2,238.8z M277.2,230.3c-0.8,0-1.5-0.7-1.5-1.5c0-0.8,0.7-1.5,1.5-1.5c0.8,0,1.5,0.7,1.5,1.5
	C278.7,229.6,278.1,230.3,277.2,230.3z M277.2,221.8c-0.8,0-1.5-0.7-1.5-1.5s0.7-1.5,1.5-1.5c0.8,0,1.5,0.7,1.5,1.5
	S278.1,221.8,277.2,221.8z M277.2,213.3c-0.8,0-1.5-0.7-1.5-1.5c0-0.8,0.7-1.5,1.5-1.5c0.8,0,1.5,0.7,1.5,1.5
	C278.7,212.6,278.1,213.3,277.2,213.3z M277.2,204.8c-0.8,0-1.5-0.7-1.5-1.5s0.7-1.5,1.5-1.5c0.8,0,1.5,0.7,1.5,1.5
	S278.1,204.8,277.2,204.8z M277.2,196.3c-0.8,0-1.5-0.7-1.5-1.5c0-0.8,0.7-1.5,1.5-1.5c0.8,0,1.5,0.7,1.5,1.5
	C278.7,195.6,278.1,196.3,277.2,196.3z M277.2,187.8c-0.8,0-1.5-0.7-1.5-1.5c0-0.8,0.7-1.5,1.5-1.5c0.8,0,1.5,0.7,1.5,1.5
	C278.7,187.1,278.1,187.8,277.2,187.8z M277.2,179.3c-0.8,0-1.5-0.7-1.5-1.5c0-0.8,0.7-1.5,1.5-1.5c0.8,0,1.5,0.7,1.5,1.5
	C278.7,178.6,278.1,179.3,277.2,179.3z M285.7,264.3c-0.8,0-1.5-0.7-1.5-1.5c0-0.8,0.7-1.5,1.5-1.5c0.8,0,1.5,0.7,1.5,1.5
	C287.2,263.7,286.6,264.3,285.7,264.3z M285.7,255.8c-0.8,0-1.5-0.7-1.5-1.5s0.7-1.5,1.5-1.5c0.8,0,1.5,0.7,1.5,1.5
	S286.6,255.8,285.7,255.8z M285.7,247.3c-0.8,0-1.5-0.7-1.5-1.5c0-0.8,0.7-1.5,1.5-1.5c0.8,0,1.5,0.7,1.5,1.5
	C287.2,246.6,286.6,247.3,285.7,247.3z M285.7,238.8c-0.8,0-1.5-0.7-1.5-1.5s0.7-1.5,1.5-1.5c0.8,0,1.5,0.7,1.5,1.5
	S286.6,238.8,285.7,238.8z M285.7,230.3c-0.8,0-1.5-0.7-1.5-1.5c0-0.8,0.7-1.5,1.5-1.5c0.8,0,1.5,0.7,1.5,1.5
	C287.2,229.6,286.6,230.3,285.7,230.3z M285.7,221.8c-0.8,0-1.5-0.7-1.5-1.5s0.7-1.5,1.5-1.5c0.8,0,1.5,0.7,1.5,1.5
	S286.6,221.8,285.7,221.8z M285.7,213.3c-0.8,0-1.5-0.7-1.5-1.5c0-0.8,0.7-1.5,1.5-1.5c0.8,0,1.5,0.7,1.5,1.5
	C287.2,212.6,286.6,213.3,285.7,213.3z M285.7,204.8c-0.8,0-1.5-0.7-1.5-1.5s0.7-1.5,1.5-1.5c0.8,0,1.5,0.7,1.5,1.5
	S286.6,204.8,285.7,204.8z M285.7,196.3c-0.8,0-1.5-0.7-1.5-1.5c0-0.8,0.7-1.5,1.5-1.5c0.8,0,1.5,0.7,1.5,1.5
	C287.2,195.6,286.6,196.3,285.7,196.3z M285.7,187.8c-0.8,0-1.5-0.7-1.5-1.5c0-0.8,0.7-1.5,1.5-1.5c0.8,0,1.5,0.7,1.5,1.5
	C287.2,187.1,286.6,187.8,285.7,187.8z M285.7,179.3c-0.8,0-1.5-0.7-1.5-1.5c0-0.8,0.7-1.5,1.5-1.5c0.8,0,1.5,0.7,1.5,1.5
	C287.2,178.6,286.6,179.3,285.7,179.3z M294.3,264.3c-0.8,0-1.5-0.7-1.5-1.5c0-0.8,0.7-1.5,1.5-1.5c0.8,0,1.5,0.7,1.5,1.5
	C295.7,263.7,295.1,264.3,294.3,264.3z M294.3,255.8c-0.8,0-1.5-0.7-1.5-1.5s0.7-1.5,1.5-1.5c0.8,0,1.5,0.7,1.5,1.5
	S295.1,255.8,294.3,255.8z M294.3,247.3c-0.8,0-1.5-0.7-1.5-1.5c0-0.8,0.7-1.5,1.5-1.5c0.8,0,1.5,0.7,1.5,1.5
	C295.7,246.6,295.1,247.3,294.3,247.3z M294.3,238.8c-0.8,0-1.5-0.7-1.5-1.5s0.7-1.5,1.5-1.5c0.8,0,1.5,0.7,1.5,1.5
	S295.1,238.8,294.3,238.8z M294.3,230.3c-0.8,0-1.5-0.7-1.5-1.5c0-0.8,0.7-1.5,1.5-1.5c0.8,0,1.5,0.7,1.5,1.5
	C295.7,229.6,295.1,230.3,294.3,230.3z M294.3,221.8c-0.8,0-1.5-0.7-1.5-1.5s0.7-1.5,1.5-1.5c0.8,0,1.5,0.7,1.5,1.5
	S295.1,221.8,294.3,221.8z M294.3,213.3c-0.8,0-1.5-0.7-1.5-1.5c0-0.8,0.7-1.5,1.5-1.5c0.8,0,1.5,0.7,1.5,1.5
	C295.7,212.6,295.1,213.3,294.3,213.3z M294.3,204.8c-0.8,0-1.5-0.7-1.5-1.5s0.7-1.5,1.5-1.5c0.8,0,1.5,0.7,1.5,1.5
	S295.1,204.8,294.3,204.8z M294.3,196.3c-0.8,0-1.5-0.7-1.5-1.5c0-0.8,0.7-1.5,1.5-1.5c0.8,0,1.5,0.7,1.5,1.5
	C295.7,195.6,295.1,196.3,294.3,196.3z M294.3,187.8c-0.8,0-1.5-0.7-1.5-1.5c0-0.8,0.7-1.5,1.5-1.5c0.8,0,1.5,0.7,1.5,1.5
	C295.7,187.1,295.1,187.8,294.3,187.8z M294.3,179.3c-0.8,0-1.5-0.7-1.5-1.5c0-0.8,0.7-1.5,1.5-1.5c0.8,0,1.5,0.7,1.5,1.5
	C295.7,178.6,295.1,179.3,294.3,179.3z M302.8,264.3c-0.8,0-1.5-0.7-1.5-1.5c0-0.8,0.7-1.5,1.5-1.5c0.8,0,1.5,0.7,1.5,1.5
	C304.2,263.7,303.6,264.3,302.8,264.3z M302.8,255.8c-0.8,0-1.5-0.7-1.5-1.5s0.7-1.5,1.5-1.5c0.8,0,1.5,0.7,1.5,1.5
	S303.6,255.8,302.8,255.8z M302.8,247.3c-0.8,0-1.5-0.7-1.5-1.5c0-0.8,0.7-1.5,1.5-1.5c0.8,0,1.5,0.7,1.5,1.5
	C304.2,246.6,303.6,247.3,302.8,247.3z M302.8,238.8c-0.8,0-1.5-0.7-1.5-1.5s0.7-1.5,1.5-1.5c0.8,0,1.5,0.7,1.5,1.5
	S303.6,238.8,302.8,238.8z M302.8,230.3c-0.8,0-1.5-0.7-1.5-1.5c0-0.8,0.7-1.5,1.5-1.5c0.8,0,1.5,0.7,1.5,1.5
	C304.2,229.6,303.6,230.3,302.8,230.3z M302.8,221.8c-0.8,0-1.5-0.7-1.5-1.5s0.7-1.5,1.5-1.5c0.8,0,1.5,0.7,1.5,1.5
	S303.6,221.8,302.8,221.8z M302.8,213.3c-0.8,0-1.5-0.7-1.5-1.5c0-0.8,0.7-1.5,1.5-1.5c0.8,0,1.5,0.7,1.5,1.5
	C304.2,212.6,303.6,213.3,302.8,213.3z M302.8,204.8c-0.8,0-1.5-0.7-1.5-1.5s0.7-1.5,1.5-1.5c0.8,0,1.5,0.7,1.5,1.5
	S303.6,204.8,302.8,204.8z M302.8,196.3c-0.8,0-1.5-0.7-1.5-1.5c0-0.8,0.7-1.5,1.5-1.5c0.8,0,1.5,0.7,1.5,1.5
	C304.2,195.6,303.6,196.3,302.8,196.3z M302.8,187.8c-0.8,0-1.5-0.7-1.5-1.5c0-0.8,0.7-1.5,1.5-1.5c0.8,0,1.5,0.7,1.5,1.5
	C304.2,187.1,303.6,187.8,302.8,187.8z M302.8,179.3c-0.8,0-1.5-0.7-1.5-1.5c0-0.8,0.7-1.5,1.5-1.5c0.8,0,1.5,0.7,1.5,1.5
	C304.2,178.6,303.6,179.3,302.8,179.3z M311.3,264.3c-0.8,0-1.5-0.7-1.5-1.5c0-0.8,0.7-1.5,1.5-1.5c0.8,0,1.5,0.7,1.5,1.5
	C312.7,263.7,312.1,264.3,311.3,264.3z M311.3,255.8c-0.8,0-1.5-0.7-1.5-1.5s0.7-1.5,1.5-1.5c0.8,0,1.5,0.7,1.5,1.5
	S312.1,255.8,311.3,255.8z M311.3,247.3c-0.8,0-1.5-0.7-1.5-1.5c0-0.8,0.7-1.5,1.5-1.5c0.8,0,1.5,0.7,1.5,1.5
	C312.7,246.6,312.1,247.3,311.3,247.3z M311.3,238.8c-0.8,0-1.5-0.7-1.5-1.5s0.7-1.5,1.5-1.5c0.8,0,1.5,0.7,1.5,1.5
	S312.1,238.8,311.3,238.8z M311.3,230.3c-0.8,0-1.5-0.7-1.5-1.5c0-0.8,0.7-1.5,1.5-1.5c0.8,0,1.5,0.7,1.5,1.5
	C312.7,229.6,312.1,230.3,311.3,230.3z M311.3,221.8c-0.8,0-1.5-0.7-1.5-1.5s0.7-1.5,1.5-1.5c0.8,0,1.5,0.7,1.5,1.5
	S312.1,221.8,311.3,221.8z M311.3,213.3c-0.8,0-1.5-0.7-1.5-1.5c0-0.8,0.7-1.5,1.5-1.5c0.8,0,1.5,0.7,1.5,1.5
	C312.7,212.6,312.1,213.3,311.3,213.3z M311.3,204.8c-0.8,0-1.5-0.7-1.5-1.5s0.7-1.5,1.5-1.5c0.8,0,1.5,0.7,1.5,1.5
	S312.1,204.8,311.3,204.8z M311.3,196.3c-0.8,0-1.5-0.7-1.5-1.5c0-0.8,0.7-1.5,1.5-1.5c0.8,0,1.5,0.7,1.5,1.5
	C312.7,195.6,312.1,196.3,311.3,196.3z M311.3,187.8c-0.8,0-1.5-0.7-1.5-1.5c0-0.8,0.7-1.5,1.5-1.5c0.8,0,1.5,0.7,1.5,1.5
	C312.7,187.1,312.1,187.8,311.3,187.8z M311.3,179.3c-0.8,0-1.5-0.7-1.5-1.5c0-0.8,0.7-1.5,1.5-1.5c0.8,0,1.5,0.7,1.5,1.5
	C312.7,178.6,312.1,179.3,311.3,179.3z M319.8,264.3c-0.8,0-1.5-0.7-1.5-1.5c0-0.8,0.7-1.5,1.5-1.5c0.8,0,1.5,0.7,1.5,1.5
	C321.2,263.7,320.6,264.3,319.8,264.3z M319.8,255.8c-0.8,0-1.5-0.7-1.5-1.5s0.7-1.5,1.5-1.5c0.8,0,1.5,0.7,1.5,1.5
	S320.6,255.8,319.8,255.8z M319.8,247.3c-0.8,0-1.5-0.7-1.5-1.5c0-0.8,0.7-1.5,1.5-1.5c0.8,0,1.5,0.7,1.5,1.5
	C321.2,246.6,320.6,247.3,319.8,247.3z M319.8,238.8c-0.8,0-1.5-0.7-1.5-1.5s0.7-1.5,1.5-1.5c0.8,0,1.5,0.7,1.5,1.5
	S320.6,238.8,319.8,238.8z M319.8,230.3c-0.8,0-1.5-0.7-1.5-1.5c0-0.8,0.7-1.5,1.5-1.5c0.8,0,1.5,0.7,1.5,1.5
	C321.2,229.6,320.6,230.3,319.8,230.3z M319.8,221.8c-0.8,0-1.5-0.7-1.5-1.5s0.7-1.5,1.5-1.5c0.8,0,1.5,0.7,1.5,1.5
	S320.6,221.8,319.8,221.8z M319.8,213.3c-0.8,0-1.5-0.7-1.5-1.5c0-0.8,0.7-1.5,1.5-1.5c0.8,0,1.5,0.7,1.5,1.5
	C321.2,212.6,320.6,213.3,319.8,213.3z M319.8,204.8c-0.8,0-1.5-0.7-1.5-1.5s0.7-1.5,1.5-1.5c0.8,0,1.5,0.7,1.5,1.5
	S320.6,204.8,319.8,204.8z M319.8,196.3c-0.8,0-1.5-0.7-1.5-1.5c0-0.8,0.7-1.5,1.5-1.5c0.8,0,1.5,0.7,1.5,1.5
	C321.2,195.6,320.6,196.3,319.8,196.3z M319.8,187.8c-0.8,0-1.5-0.7-1.5-1.5c0-0.8,0.7-1.5,1.5-1.5c0.8,0,1.5,0.7,1.5,1.5
	C321.2,187.1,320.6,187.8,319.8,187.8z M319.8,179.3c-0.8,0-1.5-0.7-1.5-1.5c0-0.8,0.7-1.5,1.5-1.5c0.8,0,1.5,0.7,1.5,1.5
	C321.2,178.6,320.6,179.3,319.8,179.3z M328.3,264.3c-0.8,0-1.5-0.7-1.5-1.5c0-0.8,0.7-1.5,1.5-1.5c0.8,0,1.5,0.7,1.5,1.5
	C329.7,263.7,329.1,264.3,328.3,264.3z M328.3,255.8c-0.8,0-1.5-0.7-1.5-1.5s0.7-1.5,1.5-1.5c0.8,0,1.5,0.7,1.5,1.5
	S329.1,255.8,328.3,255.8z M328.3,247.3c-0.8,0-1.5-0.7-1.5-1.5c0-0.8,0.7-1.5,1.5-1.5c0.8,0,1.5,0.7,1.5,1.5
	C329.7,246.6,329.1,247.3,328.3,247.3z M328.3,238.8c-0.8,0-1.5-0.7-1.5-1.5s0.7-1.5,1.5-1.5c0.8,0,1.5,0.7,1.5,1.5
	S329.1,238.8,328.3,238.8z M328.3,230.3c-0.8,0-1.5-0.7-1.5-1.5c0-0.8,0.7-1.5,1.5-1.5c0.8,0,1.5,0.7,1.5,1.5
	C329.7,229.6,329.1,230.3,328.3,230.3z M328.3,221.8c-0.8,0-1.5-0.7-1.5-1.5s0.7-1.5,1.5-1.5c0.8,0,1.5,0.7,1.5,1.5
	S329.1,221.8,328.3,221.8z M328.3,213.3c-0.8,0-1.5-0.7-1.5-1.5c0-0.8,0.7-1.5,1.5-1.5c0.8,0,1.5,0.7,1.5,1.5
	C329.7,212.6,329.1,213.3,328.3,213.3z M328.3,204.8c-0.8,0-1.5-0.7-1.5-1.5s0.7-1.5,1.5-1.5c0.8,0,1.5,0.7,1.5,1.5
	S329.1,204.8,328.3,204.8z M328.3,196.3c-0.8,0-1.5-0.7-1.5-1.5c0-0.8,0.7-1.5,1.5-1.5c0.8,0,1.5,0.7,1.5,1.5
	C329.7,195.6,329.1,196.3,328.3,196.3z M328.3,187.8c-0.8,0-1.5-0.7-1.5-1.5c0-0.8,0.7-1.5,1.5-1.5c0.8,0,1.5,0.7,1.5,1.5
	C329.7,187.1,329.1,187.8,328.3,187.8z M328.3,179.3c-0.8,0-1.5-0.7-1.5-1.5c0-0.8,0.7-1.5,1.5-1.5c0.8,0,1.5,0.7,1.5,1.5
	C329.7,178.6,329.1,179.3,328.3,179.3z M336.8,264.3c-0.8,0-1.5-0.7-1.5-1.5c0-0.8,0.7-1.5,1.5-1.5c0.8,0,1.5,0.7,1.5,1.5
	C338.2,263.7,337.6,264.3,336.8,264.3z M336.8,255.8c-0.8,0-1.5-0.7-1.5-1.5s0.7-1.5,1.5-1.5c0.8,0,1.5,0.7,1.5,1.5
	S337.6,255.8,336.8,255.8z M336.8,247.3c-0.8,0-1.5-0.7-1.5-1.5c0-0.8,0.7-1.5,1.5-1.5c0.8,0,1.5,0.7,1.5,1.5
	C338.2,246.6,337.6,247.3,336.8,247.3z M336.8,238.8c-0.8,0-1.5-0.7-1.5-1.5s0.7-1.5,1.5-1.5c0.8,0,1.5,0.7,1.5,1.5
	S337.6,238.8,336.8,238.8z M336.8,230.3c-0.8,0-1.5-0.7-1.5-1.5c0-0.8,0.7-1.5,1.5-1.5c0.8,0,1.5,0.7,1.5,1.5
	C338.2,229.6,337.6,230.3,336.8,230.3z M336.8,221.8c-0.8,0-1.5-0.7-1.5-1.5s0.7-1.5,1.5-1.5c0.8,0,1.5,0.7,1.5,1.5
	S337.6,221.8,336.8,221.8z M336.8,213.3c-0.8,0-1.5-0.7-1.5-1.5c0-0.8,0.7-1.5,1.5-1.5c0.8,0,1.5,0.7,1.5,1.5
	C338.2,212.6,337.6,213.3,336.8,213.3z M336.8,204.8c-0.8,0-1.5-0.7-1.5-1.5s0.7-1.5,1.5-1.5c0.8,0,1.5,0.7,1.5,1.5
	S337.6,204.8,336.8,204.8z M336.8,196.3c-0.8,0-1.5-0.7-1.5-1.5c0-0.8,0.7-1.5,1.5-1.5c0.8,0,1.5,0.7,1.5,1.5
	C338.2,195.6,337.6,196.3,336.8,196.3z M336.8,187.8c-0.8,0-1.5-0.7-1.5-1.5c0-0.8,0.7-1.5,1.5-1.5c0.8,0,1.5,0.7,1.5,1.5
	C338.2,187.1,337.6,187.8,336.8,187.8z M336.8,179.3c-0.8,0-1.5-0.7-1.5-1.5c0-0.8,0.7-1.5,1.5-1.5c0.8,0,1.5,0.7,1.5,1.5
	C338.2,178.6,337.6,179.3,336.8,179.3z M345.3,264.3c-0.8,0-1.5-0.7-1.5-1.5c0-0.8,0.7-1.5,1.5-1.5c0.8,0,1.5,0.7,1.5,1.5
	C346.8,263.7,346.1,264.3,345.3,264.3z M345.3,255.8c-0.8,0-1.5-0.7-1.5-1.5s0.7-1.5,1.5-1.5c0.8,0,1.5,0.7,1.5,1.5
	S346.1,255.8,345.3,255.8z M345.3,247.3c-0.8,0-1.5-0.7-1.5-1.5c0-0.8,0.7-1.5,1.5-1.5c0.8,0,1.5,0.7,1.5,1.5
	C346.8,246.6,346.1,247.3,345.3,247.3z M345.3,238.8c-0.8,0-1.5-0.7-1.5-1.5s0.7-1.5,1.5-1.5c0.8,0,1.5,0.7,1.5,1.5
	S346.1,238.8,345.3,238.8z M345.3,230.3c-0.8,0-1.5-0.7-1.5-1.5c0-0.8,0.7-1.5,1.5-1.5c0.8,0,1.5,0.7,1.5,1.5
	C346.8,229.6,346.1,230.3,345.3,230.3z M345.3,221.8c-0.8,0-1.5-0.7-1.5-1.5s0.7-1.5,1.5-1.5c0.8,0,1.5,0.7,1.5,1.5
	S346.1,221.8,345.3,221.8z M345.3,213.3c-0.8,0-1.5-0.7-1.5-1.5c0-0.8,0.7-1.5,1.5-1.5c0.8,0,1.5,0.7,1.5,1.5
	C346.8,212.6,346.1,213.3,345.3,213.3z M345.3,204.8c-0.8,0-1.5-0.7-1.5-1.5s0.7-1.5,1.5-1.5c0.8,0,1.5,0.7,1.5,1.5
	S346.1,204.8,345.3,204.8z M345.3,196.3c-0.8,0-1.5-0.7-1.5-1.5c0-0.8,0.7-1.5,1.5-1.5c0.8,0,1.5,0.7,1.5,1.5
	C346.8,195.6,346.1,196.3,345.3,196.3z M345.3,187.8c-0.8,0-1.5-0.7-1.5-1.5c0-0.8,0.7-1.5,1.5-1.5c0.8,0,1.5,0.7,1.5,1.5
	C346.8,187.1,346.1,187.8,345.3,187.8z M345.3,179.3c-0.8,0-1.5-0.7-1.5-1.5c0-0.8,0.7-1.5,1.5-1.5c0.8,0,1.5,0.7,1.5,1.5
	C346.8,178.6,346.1,179.3,345.3,179.3z M353.8,264.3c-0.8,0-1.5-0.7-1.5-1.5c0-0.8,0.7-1.5,1.5-1.5c0.8,0,1.5,0.7,1.5,1.5
	C355.3,263.7,354.6,264.3,353.8,264.3z M353.8,255.8c-0.8,0-1.5-0.7-1.5-1.5s0.7-1.5,1.5-1.5c0.8,0,1.5,0.7,1.5,1.5
	S354.6,255.8,353.8,255.8z M353.8,247.3c-0.8,0-1.5-0.7-1.5-1.5c0-0.8,0.7-1.5,1.5-1.5c0.8,0,1.5,0.7,1.5,1.5
	C355.3,246.6,354.6,247.3,353.8,247.3z M353.8,238.8c-0.8,0-1.5-0.7-1.5-1.5s0.7-1.5,1.5-1.5c0.8,0,1.5,0.7,1.5,1.5
	S354.6,238.8,353.8,238.8z M353.8,230.3c-0.8,0-1.5-0.7-1.5-1.5c0-0.8,0.7-1.5,1.5-1.5c0.8,0,1.5,0.7,1.5,1.5
	C355.3,229.6,354.6,230.3,353.8,230.3z M353.8,221.8c-0.8,0-1.5-0.7-1.5-1.5s0.7-1.5,1.5-1.5c0.8,0,1.5,0.7,1.5,1.5
	S354.6,221.8,353.8,221.8z M353.8,213.3c-0.8,0-1.5-0.7-1.5-1.5c0-0.8,0.7-1.5,1.5-1.5c0.8,0,1.5,0.7,1.5,1.5
	C355.3,212.6,354.6,213.3,353.8,213.3z M353.8,204.8c-0.8,0-1.5-0.7-1.5-1.5s0.7-1.5,1.5-1.5c0.8,0,1.5,0.7,1.5,1.5
	S354.6,204.8,353.8,204.8z M353.8,196.3c-0.8,0-1.5-0.7-1.5-1.5c0-0.8,0.7-1.5,1.5-1.5c0.8,0,1.5,0.7,1.5,1.5
	C355.3,195.6,354.6,196.3,353.8,196.3z M353.8,187.8c-0.8,0-1.5-0.7-1.5-1.5c0-0.8,0.7-1.5,1.5-1.5c0.8,0,1.5,0.7,1.5,1.5
	C355.3,187.1,354.6,187.8,353.8,187.8z M353.8,179.3c-0.8,0-1.5-0.7-1.5-1.5c0-0.8,0.7-1.5,1.5-1.5c0.8,0,1.5,0.7,1.5,1.5
	C355.3,178.6,354.6,179.3,353.8,179.3z M362.3,264.3c-0.8,0-1.5-0.7-1.5-1.5c0-0.8,0.7-1.5,1.5-1.5c0.8,0,1.5,0.7,1.5,1.5
	C363.8,263.7,363.1,264.3,362.3,264.3z M362.3,255.8c-0.8,0-1.5-0.7-1.5-1.5s0.7-1.5,1.5-1.5c0.8,0,1.5,0.7,1.5,1.5
	S363.1,255.8,362.3,255.8z M362.3,247.3c-0.8,0-1.5-0.7-1.5-1.5c0-0.8,0.7-1.5,1.5-1.5c0.8,0,1.5,0.7,1.5,1.5
	C363.8,246.6,363.1,247.3,362.3,247.3z M362.3,238.8c-0.8,0-1.5-0.7-1.5-1.5s0.7-1.5,1.5-1.5c0.8,0,1.5,0.7,1.5,1.5
	S363.1,238.8,362.3,238.8z M362.3,230.3c-0.8,0-1.5-0.7-1.5-1.5c0-0.8,0.7-1.5,1.5-1.5c0.8,0,1.5,0.7,1.5,1.5
	C363.8,229.6,363.1,230.3,362.3,230.3z M362.3,221.8c-0.8,0-1.5-0.7-1.5-1.5s0.7-1.5,1.5-1.5c0.8,0,1.5,0.7,1.5,1.5
	S363.1,221.8,362.3,221.8z M362.3,213.3c-0.8,0-1.5-0.7-1.5-1.5c0-0.8,0.7-1.5,1.5-1.5c0.8,0,1.5,0.7,1.5,1.5
	C363.8,212.6,363.1,213.3,362.3,213.3z M362.3,204.8c-0.8,0-1.5-0.7-1.5-1.5s0.7-1.5,1.5-1.5c0.8,0,1.5,0.7,1.5,1.5
	S363.1,204.8,362.3,204.8z M362.3,196.3c-0.8,0-1.5-0.7-1.5-1.5c0-0.8,0.7-1.5,1.5-1.5c0.8,0,1.5,0.7,1.5,1.5
	C363.8,195.6,363.1,196.3,362.3,196.3z M362.3,187.8c-0.8,0-1.5-0.7-1.5-1.5c0-0.8,0.7-1.5,1.5-1.5c0.8,0,1.5,0.7,1.5,1.5
	C363.8,187.1,363.1,187.8,362.3,187.8z M362.3,179.3c-0.8,0-1.5-0.7-1.5-1.5c0-0.8,0.7-1.5,1.5-1.5c0.8,0,1.5,0.7,1.5,1.5
	C363.8,178.6,363.1,179.3,362.3,179.3z M370.8,264.3c-0.8,0-1.5-0.7-1.5-1.5c0-0.8,0.7-1.5,1.5-1.5c0.8,0,1.5,0.7,1.5,1.5
	C372.3,263.7,371.6,264.3,370.8,264.3z M370.8,255.8c-0.8,0-1.5-0.7-1.5-1.5s0.7-1.5,1.5-1.5c0.8,0,1.5,0.7,1.5,1.5
	S371.6,255.8,370.8,255.8z M370.8,247.3c-0.8,0-1.5-0.7-1.5-1.5c0-0.8,0.7-1.5,1.5-1.5c0.8,0,1.5,0.7,1.5,1.5
	C372.3,246.6,371.6,247.3,370.8,247.3z M370.8,238.8c-0.8,0-1.5-0.7-1.5-1.5s0.7-1.5,1.5-1.5c0.8,0,1.5,0.7,1.5,1.5
	S371.6,238.8,370.8,238.8z M370.8,230.3c-0.8,0-1.5-0.7-1.5-1.5c0-0.8,0.7-1.5,1.5-1.5c0.8,0,1.5,0.7,1.5,1.5
	C372.3,229.6,371.6,230.3,370.8,230.3z M370.8,221.8c-0.8,0-1.5-0.7-1.5-1.5s0.7-1.5,1.5-1.5c0.8,0,1.5,0.7,1.5,1.5
	S371.6,221.8,370.8,221.8z M370.8,213.3c-0.8,0-1.5-0.7-1.5-1.5c0-0.8,0.7-1.5,1.5-1.5c0.8,0,1.5,0.7,1.5,1.5
	C372.3,212.6,371.6,213.3,370.8,213.3z M370.8,204.8c-0.8,0-1.5-0.7-1.5-1.5s0.7-1.5,1.5-1.5c0.8,0,1.5,0.7,1.5,1.5
	S371.6,204.8,370.8,204.8z M370.8,196.3c-0.8,0-1.5-0.7-1.5-1.5c0-0.8,0.7-1.5,1.5-1.5c0.8,0,1.5,0.7,1.5,1.5
	C372.3,195.6,371.6,196.3,370.8,196.3z M370.8,187.8c-0.8,0-1.5-0.7-1.5-1.5c0-0.8,0.7-1.5,1.5-1.5c0.8,0,1.5,0.7,1.5,1.5
	C372.3,187.1,371.6,187.8,370.8,187.8z M379.3,264.3c-0.8,0-1.5-0.7-1.5-1.5c0-0.8,0.7-1.5,1.5-1.5c0.8,0,1.5,0.7,1.5,1.5
	C380.8,263.7,380.1,264.3,379.3,264.3z M379.3,255.8c-0.8,0-1.5-0.7-1.5-1.5s0.7-1.5,1.5-1.5c0.8,0,1.5,0.7,1.5,1.5
	S380.1,255.8,379.3,255.8z M379.3,247.3c-0.8,0-1.5-0.7-1.5-1.5c0-0.8,0.7-1.5,1.5-1.5c0.8,0,1.5,0.7,1.5,1.5
	C380.8,246.6,380.1,247.3,379.3,247.3z M379.3,238.8c-0.8,0-1.5-0.7-1.5-1.5s0.7-1.5,1.5-1.5c0.8,0,1.5,0.7,1.5,1.5
	S380.1,238.8,379.3,238.8z M379.3,230.3c-0.8,0-1.5-0.7-1.5-1.5c0-0.8,0.7-1.5,1.5-1.5c0.8,0,1.5,0.7,1.5,1.5
	C380.8,229.6,380.1,230.3,379.3,230.3z M379.3,221.8c-0.8,0-1.5-0.7-1.5-1.5s0.7-1.5,1.5-1.5c0.8,0,1.5,0.7,1.5,1.5
	S380.1,221.8,379.3,221.8z M379.3,213.3c-0.8,0-1.5-0.7-1.5-1.5c0-0.8,0.7-1.5,1.5-1.5c0.8,0,1.5,0.7,1.5,1.5
	C380.8,212.6,380.1,213.3,379.3,213.3z M379.3,204.8c-0.8,0-1.5-0.7-1.5-1.5s0.7-1.5,1.5-1.5c0.8,0,1.5,0.7,1.5,1.5
	S380.1,204.8,379.3,204.8z M379.3,196.3c-0.8,0-1.5-0.7-1.5-1.5c0-0.8,0.7-1.5,1.5-1.5c0.8,0,1.5,0.7,1.5,1.5
	C380.8,195.6,380.1,196.3,379.3,196.3z M379.3,187.8c-0.8,0-1.5-0.7-1.5-1.5c0-0.8,0.7-1.5,1.5-1.5c0.8,0,1.5,0.7,1.5,1.5
	C380.8,187.1,380.1,187.8,379.3,187.8z M379.3,179.3c-0.8,0-1.5-0.7-1.5-1.5c0-0.8,0.7-1.5,1.5-1.5c0.8,0,1.5,0.7,1.5,1.5
	C380.8,178.6,380.1,179.3,379.3,179.3z M387.8,264.3c-0.8,0-1.5-0.7-1.5-1.5c0-0.8,0.7-1.5,1.5-1.5c0.8,0,1.5,0.7,1.5,1.5
	C389.3,263.7,388.6,264.3,387.8,264.3z M387.8,255.8c-0.8,0-1.5-0.7-1.5-1.5s0.7-1.5,1.5-1.5c0.8,0,1.5,0.7,1.5,1.5
	S388.6,255.8,387.8,255.8z M387.8,247.3c-0.8,0-1.5-0.7-1.5-1.5c0-0.8,0.7-1.5,1.5-1.5c0.8,0,1.5,0.7,1.5,1.5
	C389.3,246.6,388.6,247.3,387.8,247.3z M387.8,238.8c-0.8,0-1.5-0.7-1.5-1.5s0.7-1.5,1.5-1.5c0.8,0,1.5,0.7,1.5,1.5
	S388.6,238.8,387.8,238.8z M387.8,230.3c-0.8,0-1.5-0.7-1.5-1.5c0-0.8,0.7-1.5,1.5-1.5c0.8,0,1.5,0.7,1.5,1.5
	C389.3,229.6,388.6,230.3,387.8,230.3z M387.8,221.8c-0.8,0-1.5-0.7-1.5-1.5s0.7-1.5,1.5-1.5c0.8,0,1.5,0.7,1.5,1.5
	S388.6,221.8,387.8,221.8z M387.8,213.3c-0.8,0-1.5-0.7-1.5-1.5c0-0.8,0.7-1.5,1.5-1.5c0.8,0,1.5,0.7,1.5,1.5
	C389.3,212.6,388.6,213.3,387.8,213.3z M387.8,204.8c-0.8,0-1.5-0.7-1.5-1.5s0.7-1.5,1.5-1.5c0.8,0,1.5,0.7,1.5,1.5
	S388.6,204.8,387.8,204.8z M387.8,196.3c-0.8,0-1.5-0.7-1.5-1.5c0-0.8,0.7-1.5,1.5-1.5c0.8,0,1.5,0.7,1.5,1.5
	C389.3,195.6,388.6,196.3,387.8,196.3z M387.8,187.8c-0.8,0-1.5-0.7-1.5-1.5c0-0.8,0.7-1.5,1.5-1.5c0.8,0,1.5,0.7,1.5,1.5
	C389.3,187.1,388.6,187.8,387.8,187.8z M387.8,179.3c-0.8,0-1.5-0.7-1.5-1.5c0-0.8,0.7-1.5,1.5-1.5c0.8,0,1.5,0.7,1.5,1.5
	C389.3,178.6,388.6,179.3,387.8,179.3z M387.8,170.8c-0.8,0-1.5-0.7-1.5-1.5s0.7-1.5,1.5-1.5c0.8,0,1.5,0.7,1.5,1.5
	S388.6,170.8,387.8,170.8z M396.3,264.3c-0.8,0-1.5-0.7-1.5-1.5c0-0.8,0.7-1.5,1.5-1.5s1.5,0.7,1.5,1.5
	C397.8,263.7,397.1,264.3,396.3,264.3z M396.3,255.8c-0.8,0-1.5-0.7-1.5-1.5s0.7-1.5,1.5-1.5s1.5,0.7,1.5,1.5
	S397.1,255.8,396.3,255.8z M396.3,247.3c-0.8,0-1.5-0.7-1.5-1.5c0-0.8,0.7-1.5,1.5-1.5s1.5,0.7,1.5,1.5
	C397.8,246.6,397.1,247.3,396.3,247.3z M396.3,238.8c-0.8,0-1.5-0.7-1.5-1.5s0.7-1.5,1.5-1.5s1.5,0.7,1.5,1.5
	S397.1,238.8,396.3,238.8z M396.3,230.3c-0.8,0-1.5-0.7-1.5-1.5c0-0.8,0.7-1.5,1.5-1.5s1.5,0.7,1.5,1.5
	C397.8,229.6,397.1,230.3,396.3,230.3z M396.3,221.8c-0.8,0-1.5-0.7-1.5-1.5s0.7-1.5,1.5-1.5s1.5,0.7,1.5,1.5
	S397.1,221.8,396.3,221.8z M396.3,213.3c-0.8,0-1.5-0.7-1.5-1.5c0-0.8,0.7-1.5,1.5-1.5s1.5,0.7,1.5,1.5
	C397.8,212.6,397.1,213.3,396.3,213.3z M396.3,204.8c-0.8,0-1.5-0.7-1.5-1.5s0.7-1.5,1.5-1.5s1.5,0.7,1.5,1.5
	S397.1,204.8,396.3,204.8z M396.3,196.3c-0.8,0-1.5-0.7-1.5-1.5c0-0.8,0.7-1.5,1.5-1.5s1.5,0.7,1.5,1.5
	C397.8,195.6,397.1,196.3,396.3,196.3z M396.3,187.8c-0.8,0-1.5-0.7-1.5-1.5c0-0.8,0.7-1.5,1.5-1.5s1.5,0.7,1.5,1.5
	C397.8,187.1,397.1,187.8,396.3,187.8z M396.3,179.3c-0.8,0-1.5-0.7-1.5-1.5c0-0.8,0.7-1.5,1.5-1.5s1.5,0.7,1.5,1.5
	C397.8,178.6,397.1,179.3,396.3,179.3z M396.3,170.8c-0.8,0-1.5-0.7-1.5-1.5s0.7-1.5,1.5-1.5s1.5,0.7,1.5,1.5
	S397.1,170.8,396.3,170.8z M396.3,162.3c-0.8,0-1.5-0.7-1.5-1.5c0-0.8,0.7-1.5,1.5-1.5s1.5,0.7,1.5,1.5
	C397.8,161.6,397.1,162.3,396.3,162.3z M404.8,264.3c-0.8,0-1.5-0.7-1.5-1.5c0-0.8,0.7-1.5,1.5-1.5c0.8,0,1.5,0.7,1.5,1.5
	C406.3,263.7,405.6,264.3,404.8,264.3z M404.8,255.8c-0.8,0-1.5-0.7-1.5-1.5s0.7-1.5,1.5-1.5c0.8,0,1.5,0.7,1.5,1.5
	S405.6,255.8,404.8,255.8z M404.8,247.3c-0.8,0-1.5-0.7-1.5-1.5c0-0.8,0.7-1.5,1.5-1.5c0.8,0,1.5,0.7,1.5,1.5
	C406.3,246.6,405.6,247.3,404.8,247.3z M404.8,238.8c-0.8,0-1.5-0.7-1.5-1.5s0.7-1.5,1.5-1.5c0.8,0,1.5,0.7,1.5,1.5
	S405.6,238.8,404.8,238.8z M404.8,230.3c-0.8,0-1.5-0.7-1.5-1.5c0-0.8,0.7-1.5,1.5-1.5c0.8,0,1.5,0.7,1.5,1.5
	C406.3,229.6,405.6,230.3,404.8,230.3z M404.8,221.8c-0.8,0-1.5-0.7-1.5-1.5s0.7-1.5,1.5-1.5c0.8,0,1.5,0.7,1.5,1.5
	S405.6,221.8,404.8,221.8z M404.8,213.3c-0.8,0-1.5-0.7-1.5-1.5c0-0.8,0.7-1.5,1.5-1.5c0.8,0,1.5,0.7,1.5,1.5
	C406.3,212.6,405.6,213.3,404.8,213.3z M404.8,204.8c-0.8,0-1.5-0.7-1.5-1.5s0.7-1.5,1.5-1.5c0.8,0,1.5,0.7,1.5,1.5
	S405.6,204.8,404.8,204.8z M404.8,196.3c-0.8,0-1.5-0.7-1.5-1.5c0-0.8,0.7-1.5,1.5-1.5c0.8,0,1.5,0.7,1.5,1.5
	C406.3,195.6,405.6,196.3,404.8,196.3z M404.8,187.8c-0.8,0-1.5-0.7-1.5-1.5c0-0.8,0.7-1.5,1.5-1.5c0.8,0,1.5,0.7,1.5,1.5
	C406.3,187.1,405.6,187.8,404.8,187.8z M404.8,179.3c-0.8,0-1.5-0.7-1.5-1.5c0-0.8,0.7-1.5,1.5-1.5c0.8,0,1.5,0.7,1.5,1.5
	C406.3,178.6,405.6,179.3,404.8,179.3z M404.8,170.8c-0.8,0-1.5-0.7-1.5-1.5s0.7-1.5,1.5-1.5c0.8,0,1.5,0.7,1.5,1.5
	S405.6,170.8,404.8,170.8z M404.8,162.3c-0.8,0-1.5-0.7-1.5-1.5c0-0.8,0.7-1.5,1.5-1.5c0.8,0,1.5,0.7,1.5,1.5
	C406.3,161.6,405.6,162.3,404.8,162.3z M404.8,153.8c-0.8,0-1.5-0.7-1.5-1.5s0.7-1.5,1.5-1.5c0.8,0,1.5,0.7,1.5,1.5
	S405.6,153.8,404.8,153.8z M413.3,264.3c-0.8,0-1.5-0.7-1.5-1.5c0-0.8,0.7-1.5,1.5-1.5s1.5,0.7,1.5,1.5
	C414.8,263.7,414.1,264.3,413.3,264.3z M413.3,255.8c-0.8,0-1.5-0.7-1.5-1.5s0.7-1.5,1.5-1.5s1.5,0.7,1.5,1.5
	S414.1,255.8,413.3,255.8z M413.3,247.3c-0.8,0-1.5-0.7-1.5-1.5c0-0.8,0.7-1.5,1.5-1.5s1.5,0.7,1.5,1.5
	C414.8,246.6,414.1,247.3,413.3,247.3z M413.3,238.8c-0.8,0-1.5-0.7-1.5-1.5s0.7-1.5,1.5-1.5s1.5,0.7,1.5,1.5
	S414.1,238.8,413.3,238.8z M413.3,230.3c-0.8,0-1.5-0.7-1.5-1.5c0-0.8,0.7-1.5,1.5-1.5s1.5,0.7,1.5,1.5
	C414.8,229.6,414.1,230.3,413.3,230.3z M413.3,221.8c-0.8,0-1.5-0.7-1.5-1.5s0.7-1.5,1.5-1.5s1.5,0.7,1.5,1.5
	S414.1,221.8,413.3,221.8z M413.3,213.3c-0.8,0-1.5-0.7-1.5-1.5c0-0.8,0.7-1.5,1.5-1.5s1.5,0.7,1.5,1.5
	C414.8,212.6,414.1,213.3,413.3,213.3z M413.3,204.8c-0.8,0-1.5-0.7-1.5-1.5s0.7-1.5,1.5-1.5s1.5,0.7,1.5,1.5
	S414.1,204.8,413.3,204.8z M413.3,196.3c-0.8,0-1.5-0.7-1.5-1.5c0-0.8,0.7-1.5,1.5-1.5s1.5,0.7,1.5,1.5
	C414.8,195.6,414.1,196.3,413.3,196.3z M413.3,187.8c-0.8,0-1.5-0.7-1.5-1.5c0-0.8,0.7-1.5,1.5-1.5s1.5,0.7,1.5,1.5
	C414.8,187.1,414.1,187.8,413.3,187.8z M413.3,179.3c-0.8,0-1.5-0.7-1.5-1.5c0-0.8,0.7-1.5,1.5-1.5s1.5,0.7,1.5,1.5
	C414.8,178.6,414.1,179.3,413.3,179.3z M413.3,170.8c-0.8,0-1.5-0.7-1.5-1.5s0.7-1.5,1.5-1.5s1.5,0.7,1.5,1.5
	S414.1,170.8,413.3,170.8z M413.3,162.3c-0.8,0-1.5-0.7-1.5-1.5c0-0.8,0.7-1.5,1.5-1.5s1.5,0.7,1.5,1.5
	C414.8,161.6,414.1,162.3,413.3,162.3z M413.3,153.8c-0.8,0-1.5-0.7-1.5-1.5s0.7-1.5,1.5-1.5s1.5,0.7,1.5,1.5
	S414.1,153.8,413.3,153.8z M421.8,264.3c-0.8,0-1.5-0.7-1.5-1.5c0-0.8,0.7-1.5,1.5-1.5c0.8,0,1.5,0.7,1.5,1.5
	C423.3,263.7,422.6,264.3,421.8,264.3z M421.8,255.8c-0.8,0-1.5-0.7-1.5-1.5s0.7-1.5,1.5-1.5c0.8,0,1.5,0.7,1.5,1.5
	S422.6,255.8,421.8,255.8z M421.8,247.3c-0.8,0-1.5-0.7-1.5-1.5c0-0.8,0.7-1.5,1.5-1.5c0.8,0,1.5,0.7,1.5,1.5
	C423.3,246.6,422.6,247.3,421.8,247.3z M421.8,238.8c-0.8,0-1.5-0.7-1.5-1.5s0.7-1.5,1.5-1.5c0.8,0,1.5,0.7,1.5,1.5
	S422.6,238.8,421.8,238.8z M421.8,230.3c-0.8,0-1.5-0.7-1.5-1.5c0-0.8,0.7-1.5,1.5-1.5c0.8,0,1.5,0.7,1.5,1.5
	C423.3,229.6,422.6,230.3,421.8,230.3z M421.8,221.8c-0.8,0-1.5-0.7-1.5-1.5s0.7-1.5,1.5-1.5c0.8,0,1.5,0.7,1.5,1.5
	S422.6,221.8,421.8,221.8z M421.8,213.3c-0.8,0-1.5-0.7-1.5-1.5c0-0.8,0.7-1.5,1.5-1.5c0.8,0,1.5,0.7,1.5,1.5
	C423.3,212.6,422.6,213.3,421.8,213.3z M421.8,204.8c-0.8,0-1.5-0.7-1.5-1.5s0.7-1.5,1.5-1.5c0.8,0,1.5,0.7,1.5,1.5
	S422.6,204.8,421.8,204.8z M421.8,196.3c-0.8,0-1.5-0.7-1.5-1.5c0-0.8,0.7-1.5,1.5-1.5c0.8,0,1.5,0.7,1.5,1.5
	C423.3,195.6,422.6,196.3,421.8,196.3z M421.8,187.8c-0.8,0-1.5-0.7-1.5-1.5c0-0.8,0.7-1.5,1.5-1.5c0.8,0,1.5,0.7,1.5,1.5
	C423.3,187.1,422.6,187.8,421.8,187.8z M421.8,179.3c-0.8,0-1.5-0.7-1.5-1.5c0-0.8,0.7-1.5,1.5-1.5c0.8,0,1.5,0.7,1.5,1.5
	C423.3,178.6,422.6,179.3,421.8,179.3z M421.8,170.8c-0.8,0-1.5-0.7-1.5-1.5s0.7-1.5,1.5-1.5c0.8,0,1.5,0.7,1.5,1.5
	S422.6,170.8,421.8,170.8z M421.8,162.3c-0.8,0-1.5-0.7-1.5-1.5c0-0.8,0.7-1.5,1.5-1.5c0.8,0,1.5,0.7,1.5,1.5
	C423.3,161.6,422.6,162.3,421.8,162.3z M421.8,153.8c-0.8,0-1.5-0.7-1.5-1.5s0.7-1.5,1.5-1.5c0.8,0,1.5,0.7,1.5,1.5
	S422.6,153.8,421.8,153.8z M421.8,145.3c-0.8,0-1.5-0.7-1.5-1.5c0-0.8,0.7-1.5,1.5-1.5c0.8,0,1.5,0.7,1.5,1.5
	C423.3,144.6,422.6,145.3,421.8,145.3z M430.3,264.3c-0.8,0-1.5-0.7-1.5-1.5c0-0.8,0.7-1.5,1.5-1.5s1.5,0.7,1.5,1.5
	C431.8,263.7,431.1,264.3,430.3,264.3z M430.3,255.8c-0.8,0-1.5-0.7-1.5-1.5s0.7-1.5,1.5-1.5s1.5,0.7,1.5,1.5
	S431.1,255.8,430.3,255.8z M430.3,247.3c-0.8,0-1.5-0.7-1.5-1.5c0-0.8,0.7-1.5,1.5-1.5s1.5,0.7,1.5,1.5
	C431.8,246.6,431.1,247.3,430.3,247.3z M430.3,238.8c-0.8,0-1.5-0.7-1.5-1.5s0.7-1.5,1.5-1.5s1.5,0.7,1.5,1.5
	S431.1,238.8,430.3,238.8z M430.3,230.3c-0.8,0-1.5-0.7-1.5-1.5c0-0.8,0.7-1.5,1.5-1.5s1.5,0.7,1.5,1.5
	C431.8,229.6,431.1,230.3,430.3,230.3z M430.3,221.8c-0.8,0-1.5-0.7-1.5-1.5s0.7-1.5,1.5-1.5s1.5,0.7,1.5,1.5
	S431.1,221.8,430.3,221.8z M430.3,213.3c-0.8,0-1.5-0.7-1.5-1.5c0-0.8,0.7-1.5,1.5-1.5s1.5,0.7,1.5,1.5
	C431.8,212.6,431.1,213.3,430.3,213.3z M430.3,204.8c-0.8,0-1.5-0.7-1.5-1.5s0.7-1.5,1.5-1.5s1.5,0.7,1.5,1.5
	S431.1,204.8,430.3,204.8z M430.3,196.3c-0.8,0-1.5-0.7-1.5-1.5c0-0.8,0.7-1.5,1.5-1.5s1.5,0.7,1.5,1.5
	C431.8,195.6,431.1,196.3,430.3,196.3z M430.3,187.8c-0.8,0-1.5-0.7-1.5-1.5c0-0.8,0.7-1.5,1.5-1.5s1.5,0.7,1.5,1.5
	C431.8,187.1,431.1,187.8,430.3,187.8z M430.3,179.3c-0.8,0-1.5-0.7-1.5-1.5c0-0.8,0.7-1.5,1.5-1.5s1.5,0.7,1.5,1.5
	C431.8,178.6,431.1,179.3,430.3,179.3z M430.3,170.8c-0.8,0-1.5-0.7-1.5-1.5s0.7-1.5,1.5-1.5s1.5,0.7,1.5,1.5
	S431.1,170.8,430.3,170.8z M430.3,162.3c-0.8,0-1.5-0.7-1.5-1.5c0-0.8,0.7-1.5,1.5-1.5s1.5,0.7,1.5,1.5
	C431.8,161.6,431.1,162.3,430.3,162.3z M430.3,153.8c-0.8,0-1.5-0.7-1.5-1.5s0.7-1.5,1.5-1.5s1.5,0.7,1.5,1.5
	S431.1,153.8,430.3,153.8z M430.3,145.3c-0.8,0-1.5-0.7-1.5-1.5c0-0.8,0.7-1.5,1.5-1.5s1.5,0.7,1.5,1.5
	C431.8,144.6,431.1,145.3,430.3,145.3z M430.3,136.8c-0.8,0-1.5-0.7-1.5-1.5s0.7-1.5,1.5-1.5s1.5,0.7,1.5,1.5
	S431.1,136.8,430.3,136.8z M438.8,264.3c-0.8,0-1.5-0.7-1.5-1.5c0-0.8,0.7-1.5,1.5-1.5c0.8,0,1.5,0.7,1.5,1.5
	C440.3,263.7,439.6,264.3,438.8,264.3z M438.8,255.8c-0.8,0-1.5-0.7-1.5-1.5s0.7-1.5,1.5-1.5c0.8,0,1.5,0.7,1.5,1.5
	S439.6,255.8,438.8,255.8z M438.8,247.3c-0.8,0-1.5-0.7-1.5-1.5c0-0.8,0.7-1.5,1.5-1.5c0.8,0,1.5,0.7,1.5,1.5
	C440.3,246.6,439.6,247.3,438.8,247.3z M438.8,238.8c-0.8,0-1.5-0.7-1.5-1.5s0.7-1.5,1.5-1.5c0.8,0,1.5,0.7,1.5,1.5
	S439.6,238.8,438.8,238.8z M438.8,230.3c-0.8,0-1.5-0.7-1.5-1.5c0-0.8,0.7-1.5,1.5-1.5c0.8,0,1.5,0.7,1.5,1.5
	C440.3,229.6,439.6,230.3,438.8,230.3z M438.8,221.8c-0.8,0-1.5-0.7-1.5-1.5s0.7-1.5,1.5-1.5c0.8,0,1.5,0.7,1.5,1.5
	S439.6,221.8,438.8,221.8z M438.8,213.3c-0.8,0-1.5-0.7-1.5-1.5c0-0.8,0.7-1.5,1.5-1.5c0.8,0,1.5,0.7,1.5,1.5
	C440.3,212.6,439.6,213.3,438.8,213.3z M438.8,204.8c-0.8,0-1.5-0.7-1.5-1.5s0.7-1.5,1.5-1.5c0.8,0,1.5,0.7,1.5,1.5
	S439.6,204.8,438.8,204.8z M438.8,196.3c-0.8,0-1.5-0.7-1.5-1.5c0-0.8,0.7-1.5,1.5-1.5c0.8,0,1.5,0.7,1.5,1.5
	C440.3,195.6,439.6,196.3,438.8,196.3z M438.8,187.8c-0.8,0-1.5-0.7-1.5-1.5c0-0.8,0.7-1.5,1.5-1.5c0.8,0,1.5,0.7,1.5,1.5
	C440.3,187.1,439.6,187.8,438.8,187.8z M438.8,179.3c-0.8,0-1.5-0.7-1.5-1.5c0-0.8,0.7-1.5,1.5-1.5c0.8,0,1.5,0.7,1.5,1.5
	C440.3,178.6,439.6,179.3,438.8,179.3z M438.8,170.8c-0.8,0-1.5-0.7-1.5-1.5s0.7-1.5,1.5-1.5c0.8,0,1.5,0.7,1.5,1.5
	S439.6,170.8,438.8,170.8z M438.8,162.3c-0.8,0-1.5-0.7-1.5-1.5c0-0.8,0.7-1.5,1.5-1.5c0.8,0,1.5,0.7,1.5,1.5
	C440.3,161.6,439.6,162.3,438.8,162.3z M438.8,153.8c-0.8,0-1.5-0.7-1.5-1.5s0.7-1.5,1.5-1.5c0.8,0,1.5,0.7,1.5,1.5
	S439.6,153.8,438.8,153.8z M438.8,145.3c-0.8,0-1.5-0.7-1.5-1.5c0-0.8,0.7-1.5,1.5-1.5c0.8,0,1.5,0.7,1.5,1.5
	C440.3,144.6,439.6,145.3,438.8,145.3z M438.8,136.8c-0.8,0-1.5-0.7-1.5-1.5s0.7-1.5,1.5-1.5c0.8,0,1.5,0.7,1.5,1.5
	S439.6,136.8,438.8,136.8z M447.3,264.3c-0.8,0-1.5-0.7-1.5-1.5c0-0.8,0.7-1.5,1.5-1.5s1.5,0.7,1.5,1.5
	C448.8,263.7,448.1,264.3,447.3,264.3z M447.3,255.8c-0.8,0-1.5-0.7-1.5-1.5s0.7-1.5,1.5-1.5s1.5,0.7,1.5,1.5
	S448.1,255.8,447.3,255.8z M447.3,247.3c-0.8,0-1.5-0.7-1.5-1.5c0-0.8,0.7-1.5,1.5-1.5s1.5,0.7,1.5,1.5
	C448.8,246.6,448.1,247.3,447.3,247.3z M447.3,238.8c-0.8,0-1.5-0.7-1.5-1.5s0.7-1.5,1.5-1.5s1.5,0.7,1.5,1.5
	S448.1,238.8,447.3,238.8z M447.3,230.3c-0.8,0-1.5-0.7-1.5-1.5c0-0.8,0.7-1.5,1.5-1.5s1.5,0.7,1.5,1.5
	C448.8,229.6,448.1,230.3,447.3,230.3z M447.3,221.8c-0.8,0-1.5-0.7-1.5-1.5s0.7-1.5,1.5-1.5s1.5,0.7,1.5,1.5
	S448.1,221.8,447.3,221.8z M447.3,213.3c-0.8,0-1.5-0.7-1.5-1.5c0-0.8,0.7-1.5,1.5-1.5s1.5,0.7,1.5,1.5
	C448.8,212.6,448.1,213.3,447.3,213.3z M447.3,204.8c-0.8,0-1.5-0.7-1.5-1.5s0.7-1.5,1.5-1.5s1.5,0.7,1.5,1.5
	S448.1,204.8,447.3,204.8z M447.3,196.3c-0.8,0-1.5-0.7-1.5-1.5c0-0.8,0.7-1.5,1.5-1.5s1.5,0.7,1.5,1.5
	C448.8,195.6,448.1,196.3,447.3,196.3z M447.3,187.8c-0.8,0-1.5-0.7-1.5-1.5c0-0.8,0.7-1.5,1.5-1.5s1.5,0.7,1.5,1.5
	C448.8,187.1,448.1,187.8,447.3,187.8z M447.3,179.3c-0.8,0-1.5-0.7-1.5-1.5c0-0.8,0.7-1.5,1.5-1.5s1.5,0.7,1.5,1.5
	C448.8,178.6,448.1,179.3,447.3,179.3z M447.3,170.8c-0.8,0-1.5-0.7-1.5-1.5s0.7-1.5,1.5-1.5s1.5,0.7,1.5,1.5
	S448.1,170.8,447.3,170.8z M447.3,162.3c-0.8,0-1.5-0.7-1.5-1.5c0-0.8,0.7-1.5,1.5-1.5s1.5,0.7,1.5,1.5
	C448.8,161.6,448.1,162.3,447.3,162.3z M447.3,153.8c-0.8,0-1.5-0.7-1.5-1.5s0.7-1.5,1.5-1.5s1.5,0.7,1.5,1.5
	S448.1,153.8,447.3,153.8z M447.3,145.3c-0.8,0-1.5-0.7-1.5-1.5c0-0.8,0.7-1.5,1.5-1.5s1.5,0.7,1.5,1.5
	C448.8,144.6,448.1,145.3,447.3,145.3z M447.3,136.8c-0.8,0-1.5-0.7-1.5-1.5s0.7-1.5,1.5-1.5s1.5,0.7,1.5,1.5
	S448.1,136.8,447.3,136.8z M447.3,128.3c-0.8,0-1.5-0.7-1.5-1.5c0-0.8,0.7-1.5,1.5-1.5s1.5,0.7,1.5,1.5
	C448.8,127.6,448.1,128.3,447.3,128.3z M455.8,264.3c-0.8,0-1.5-0.7-1.5-1.5c0-0.8,0.7-1.5,1.5-1.5c0.8,0,1.5,0.7,1.5,1.5
	C457.3,263.7,456.6,264.3,455.8,264.3z M455.8,255.8c-0.8,0-1.5-0.7-1.5-1.5s0.7-1.5,1.5-1.5c0.8,0,1.5,0.7,1.5,1.5
	S456.6,255.8,455.8,255.8z M455.8,247.3c-0.8,0-1.5-0.7-1.5-1.5c0-0.8,0.7-1.5,1.5-1.5c0.8,0,1.5,0.7,1.5,1.5
	C457.3,246.6,456.6,247.3,455.8,247.3z M455.8,238.8c-0.8,0-1.5-0.7-1.5-1.5s0.7-1.5,1.5-1.5c0.8,0,1.5,0.7,1.5,1.5
	S456.6,238.8,455.8,238.8z M455.8,230.3c-0.8,0-1.5-0.7-1.5-1.5c0-0.8,0.7-1.5,1.5-1.5c0.8,0,1.5,0.7,1.5,1.5
	C457.3,229.6,456.6,230.3,455.8,230.3z M455.8,221.8c-0.8,0-1.5-0.7-1.5-1.5s0.7-1.5,1.5-1.5c0.8,0,1.5,0.7,1.5,1.5
	S456.6,221.8,455.8,221.8z M455.8,213.3c-0.8,0-1.5-0.7-1.5-1.5c0-0.8,0.7-1.5,1.5-1.5c0.8,0,1.5,0.7,1.5,1.5
	C457.3,212.6,456.6,213.3,455.8,213.3z M455.8,204.8c-0.8,0-1.5-0.7-1.5-1.5s0.7-1.5,1.5-1.5c0.8,0,1.5,0.7,1.5,1.5
	S456.6,204.8,455.8,204.8z M455.8,196.3c-0.8,0-1.5-0.7-1.5-1.5c0-0.8,0.7-1.5,1.5-1.5c0.8,0,1.5,0.7,1.5,1.5
	C457.3,195.6,456.6,196.3,455.8,196.3z M455.8,187.8c-0.8,0-1.5-0.7-1.5-1.5c0-0.8,0.7-1.5,1.5-1.5c0.8,0,1.5,0.7,1.5,1.5
	C457.3,187.1,456.6,187.8,455.8,187.8z M455.8,179.3c-0.8,0-1.5-0.7-1.5-1.5c0-0.8,0.7-1.5,1.5-1.5c0.8,0,1.5,0.7,1.5,1.5
	C457.3,178.6,456.6,179.3,455.8,179.3z M455.8,170.8c-0.8,0-1.5-0.7-1.5-1.5s0.7-1.5,1.5-1.5c0.8,0,1.5,0.7,1.5,1.5
	S456.6,170.8,455.8,170.8z M455.8,162.3c-0.8,0-1.5-0.7-1.5-1.5c0-0.8,0.7-1.5,1.5-1.5c0.8,0,1.5,0.7,1.5,1.5
	C457.3,161.6,456.6,162.3,455.8,162.3z M455.8,153.8c-0.8,0-1.5-0.7-1.5-1.5s0.7-1.5,1.5-1.5c0.8,0,1.5,0.7,1.5,1.5
	S456.6,153.8,455.8,153.8z M455.8,145.3c-0.8,0-1.5-0.7-1.5-1.5c0-0.8,0.7-1.5,1.5-1.5c0.8,0,1.5,0.7,1.5,1.5
	C457.3,144.6,456.6,145.3,455.8,145.3z M455.8,136.8c-0.8,0-1.5-0.7-1.5-1.5s0.7-1.5,1.5-1.5c0.8,0,1.5,0.7,1.5,1.5
	S456.6,136.8,455.8,136.8z M455.8,128.3c-0.8,0-1.5-0.7-1.5-1.5c0-0.8,0.7-1.5,1.5-1.5c0.8,0,1.5,0.7,1.5,1.5
	C457.3,127.6,456.6,128.3,455.8,128.3z M464.3,264.3c-0.8,0-1.5-0.7-1.5-1.5c0-0.8,0.7-1.5,1.5-1.5s1.5,0.7,1.5,1.5
	C465.8,263.7,465.1,264.3,464.3,264.3z M464.3,255.8c-0.8,0-1.5-0.7-1.5-1.5s0.7-1.5,1.5-1.5s1.5,0.7,1.5,1.5
	S465.1,255.8,464.3,255.8z M464.3,247.3c-0.8,0-1.5-0.7-1.5-1.5c0-0.8,0.7-1.5,1.5-1.5s1.5,0.7,1.5,1.5
	C465.8,246.6,465.1,247.3,464.3,247.3z M464.3,238.8c-0.8,0-1.5-0.7-1.5-1.5s0.7-1.5,1.5-1.5s1.5,0.7,1.5,1.5
	S465.1,238.8,464.3,238.8z M464.3,230.3c-0.8,0-1.5-0.7-1.5-1.5c0-0.8,0.7-1.5,1.5-1.5s1.5,0.7,1.5,1.5
	C465.8,229.6,465.1,230.3,464.3,230.3z M464.3,221.8c-0.8,0-1.5-0.7-1.5-1.5s0.7-1.5,1.5-1.5s1.5,0.7,1.5,1.5
	S465.1,221.8,464.3,221.8z M464.3,213.3c-0.8,0-1.5-0.7-1.5-1.5c0-0.8,0.7-1.5,1.5-1.5s1.5,0.7,1.5,1.5
	C465.8,212.6,465.1,213.3,464.3,213.3z M464.3,204.8c-0.8,0-1.5-0.7-1.5-1.5s0.7-1.5,1.5-1.5s1.5,0.7,1.5,1.5
	S465.1,204.8,464.3,204.8z M464.3,196.3c-0.8,0-1.5-0.7-1.5-1.5c0-0.8,0.7-1.5,1.5-1.5s1.5,0.7,1.5,1.5
	C465.8,195.6,465.1,196.3,464.3,196.3z M464.3,187.8c-0.8,0-1.5-0.7-1.5-1.5c0-0.8,0.7-1.5,1.5-1.5s1.5,0.7,1.5,1.5
	C465.8,187.1,465.1,187.8,464.3,187.8z M464.3,179.3c-0.8,0-1.5-0.7-1.5-1.5c0-0.8,0.7-1.5,1.5-1.5s1.5,0.7,1.5,1.5
	C465.8,178.6,465.1,179.3,464.3,179.3z M464.3,170.8c-0.8,0-1.5-0.7-1.5-1.5s0.7-1.5,1.5-1.5s1.5,0.7,1.5,1.5
	S465.1,170.8,464.3,170.8z M464.3,162.3c-0.8,0-1.5-0.7-1.5-1.5c0-0.8,0.7-1.5,1.5-1.5s1.5,0.7,1.5,1.5
	C465.8,161.6,465.1,162.3,464.3,162.3z M464.3,153.8c-0.8,0-1.5-0.7-1.5-1.5s0.7-1.5,1.5-1.5s1.5,0.7,1.5,1.5
	S465.1,153.8,464.3,153.8z M464.3,145.3c-0.8,0-1.5-0.7-1.5-1.5c0-0.8,0.7-1.5,1.5-1.5s1.5,0.7,1.5,1.5
	C465.8,144.6,465.1,145.3,464.3,145.3z M464.3,136.8c-0.8,0-1.5-0.7-1.5-1.5s0.7-1.5,1.5-1.5s1.5,0.7,1.5,1.5
	S465.1,136.8,464.3,136.8z M464.3,128.3c-0.8,0-1.5-0.7-1.5-1.5c0-0.8,0.7-1.5,1.5-1.5s1.5,0.7,1.5,1.5
	C465.8,127.6,465.1,128.3,464.3,128.3z M464.3,119.7c-0.8,0-1.5-0.7-1.5-1.5s0.7-1.5,1.5-1.5s1.5,0.7,1.5,1.5
	S465.1,119.7,464.3,119.7z M472.8,264.3c-0.8,0-1.5-0.7-1.5-1.5c0-0.8,0.7-1.5,1.5-1.5c0.8,0,1.5,0.7,1.5,1.5
	C474.3,263.7,473.6,264.3,472.8,264.3z M472.8,255.8c-0.8,0-1.5-0.7-1.5-1.5s0.7-1.5,1.5-1.5c0.8,0,1.5,0.7,1.5,1.5
	S473.6,255.8,472.8,255.8z M472.8,247.3c-0.8,0-1.5-0.7-1.5-1.5c0-0.8,0.7-1.5,1.5-1.5c0.8,0,1.5,0.7,1.5,1.5
	C474.3,246.6,473.6,247.3,472.8,247.3z M472.8,238.8c-0.8,0-1.5-0.7-1.5-1.5s0.7-1.5,1.5-1.5c0.8,0,1.5,0.7,1.5,1.5
	S473.6,238.8,472.8,238.8z M472.8,230.3c-0.8,0-1.5-0.7-1.5-1.5c0-0.8,0.7-1.5,1.5-1.5c0.8,0,1.5,0.7,1.5,1.5
	C474.3,229.6,473.6,230.3,472.8,230.3z M472.8,221.8c-0.8,0-1.5-0.7-1.5-1.5s0.7-1.5,1.5-1.5c0.8,0,1.5,0.7,1.5,1.5
	S473.6,221.8,472.8,221.8z M472.8,213.3c-0.8,0-1.5-0.7-1.5-1.5c0-0.8,0.7-1.5,1.5-1.5c0.8,0,1.5,0.7,1.5,1.5
	C474.3,212.6,473.6,213.3,472.8,213.3z M472.8,204.8c-0.8,0-1.5-0.7-1.5-1.5s0.7-1.5,1.5-1.5c0.8,0,1.5,0.7,1.5,1.5
	S473.6,204.8,472.8,204.8z M472.8,196.3c-0.8,0-1.5-0.7-1.5-1.5c0-0.8,0.7-1.5,1.5-1.5c0.8,0,1.5,0.7,1.5,1.5
	C474.3,195.6,473.6,196.3,472.8,196.3z M472.8,187.8c-0.8,0-1.5-0.7-1.5-1.5c0-0.8,0.7-1.5,1.5-1.5c0.8,0,1.5,0.7,1.5,1.5
	C474.3,187.1,473.6,187.8,472.8,187.8z M472.8,179.3c-0.8,0-1.5-0.7-1.5-1.5c0-0.8,0.7-1.5,1.5-1.5c0.8,0,1.5,0.7,1.5,1.5
	C474.3,178.6,473.6,179.3,472.8,179.3z M472.8,170.8c-0.8,0-1.5-0.7-1.5-1.5s0.7-1.5,1.5-1.5c0.8,0,1.5,0.7,1.5,1.5
	S473.6,170.8,472.8,170.8z M472.8,162.3c-0.8,0-1.5-0.7-1.5-1.5c0-0.8,0.7-1.5,1.5-1.5c0.8,0,1.5,0.7,1.5,1.5
	C474.3,161.6,473.6,162.3,472.8,162.3z M472.8,153.8c-0.8,0-1.5-0.7-1.5-1.5s0.7-1.5,1.5-1.5c0.8,0,1.5,0.7,1.5,1.5
	S473.6,153.8,472.8,153.8z M472.8,145.3c-0.8,0-1.5-0.7-1.5-1.5c0-0.8,0.7-1.5,1.5-1.5c0.8,0,1.5,0.7,1.5,1.5
	C474.3,144.6,473.6,145.3,472.8,145.3z M472.8,136.8c-0.8,0-1.5-0.7-1.5-1.5s0.7-1.5,1.5-1.5c0.8,0,1.5,0.7,1.5,1.5
	S473.6,136.8,472.8,136.8z M472.8,128.3c-0.8,0-1.5-0.7-1.5-1.5c0-0.8,0.7-1.5,1.5-1.5c0.8,0,1.5,0.7,1.5,1.5
	C474.3,127.6,473.6,128.3,472.8,128.3z M472.8,119.7c-0.8,0-1.5-0.7-1.5-1.5s0.7-1.5,1.5-1.5c0.8,0,1.5,0.7,1.5,1.5
	S473.6,119.7,472.8,119.7z M481.3,264.3c-0.8,0-1.5-0.7-1.5-1.5c0-0.8,0.7-1.5,1.5-1.5s1.5,0.7,1.5,1.5
	C482.8,263.7,482.2,264.3,481.3,264.3z M481.3,255.8c-0.8,0-1.5-0.7-1.5-1.5s0.7-1.5,1.5-1.5s1.5,0.7,1.5,1.5
	S482.2,255.8,481.3,255.8z M481.3,247.3c-0.8,0-1.5-0.7-1.5-1.5c0-0.8,0.7-1.5,1.5-1.5s1.5,0.7,1.5,1.5
	C482.8,246.6,482.2,247.3,481.3,247.3z M481.3,238.8c-0.8,0-1.5-0.7-1.5-1.5s0.7-1.5,1.5-1.5s1.5,0.7,1.5,1.5
	S482.2,238.8,481.3,238.8z M481.3,230.3c-0.8,0-1.5-0.7-1.5-1.5c0-0.8,0.7-1.5,1.5-1.5s1.5,0.7,1.5,1.5
	C482.8,229.6,482.2,230.3,481.3,230.3z M481.3,221.8c-0.8,0-1.5-0.7-1.5-1.5s0.7-1.5,1.5-1.5s1.5,0.7,1.5,1.5
	S482.2,221.8,481.3,221.8z M481.3,213.3c-0.8,0-1.5-0.7-1.5-1.5c0-0.8,0.7-1.5,1.5-1.5s1.5,0.7,1.5,1.5
	C482.8,212.6,482.2,213.3,481.3,213.3z M481.3,204.8c-0.8,0-1.5-0.7-1.5-1.5s0.7-1.5,1.5-1.5s1.5,0.7,1.5,1.5
	S482.2,204.8,481.3,204.8z M481.3,196.3c-0.8,0-1.5-0.7-1.5-1.5c0-0.8,0.7-1.5,1.5-1.5s1.5,0.7,1.5,1.5
	C482.8,195.6,482.2,196.3,481.3,196.3z M481.3,187.8c-0.8,0-1.5-0.7-1.5-1.5c0-0.8,0.7-1.5,1.5-1.5s1.5,0.7,1.5,1.5
	C482.8,187.1,482.2,187.8,481.3,187.8z M481.3,179.3c-0.8,0-1.5-0.7-1.5-1.5c0-0.8,0.7-1.5,1.5-1.5s1.5,0.7,1.5,1.5
	C482.8,178.6,482.2,179.3,481.3,179.3z M481.3,170.8c-0.8,0-1.5-0.7-1.5-1.5s0.7-1.5,1.5-1.5s1.5,0.7,1.5,1.5
	S482.2,170.8,481.3,170.8z M481.3,162.3c-0.8,0-1.5-0.7-1.5-1.5c0-0.8,0.7-1.5,1.5-1.5s1.5,0.7,1.5,1.5
	C482.8,161.6,482.2,162.3,481.3,162.3z M481.3,153.8c-0.8,0-1.5-0.7-1.5-1.5s0.7-1.5,1.5-1.5s1.5,0.7,1.5,1.5
	S482.2,153.8,481.3,153.8z M481.3,145.3c-0.8,0-1.5-0.7-1.5-1.5c0-0.8,0.7-1.5,1.5-1.5s1.5,0.7,1.5,1.5
	C482.8,144.6,482.2,145.3,481.3,145.3z M481.3,136.8c-0.8,0-1.5-0.7-1.5-1.5s0.7-1.5,1.5-1.5s1.5,0.7,1.5,1.5
	S482.2,136.8,481.3,136.8z M481.3,128.3c-0.8,0-1.5-0.7-1.5-1.5c0-0.8,0.7-1.5,1.5-1.5s1.5,0.7,1.5,1.5
	C482.8,127.6,482.2,128.3,481.3,128.3z M481.3,119.7c-0.8,0-1.5-0.7-1.5-1.5s0.7-1.5,1.5-1.5s1.5,0.7,1.5,1.5
	S482.2,119.7,481.3,119.7z M489.8,264.3c-0.8,0-1.5-0.7-1.5-1.5c0-0.8,0.7-1.5,1.5-1.5c0.8,0,1.5,0.7,1.5,1.5
	C491.3,263.7,490.7,264.3,489.8,264.3z M489.8,255.8c-0.8,0-1.5-0.7-1.5-1.5s0.7-1.5,1.5-1.5c0.8,0,1.5,0.7,1.5,1.5
	S490.7,255.8,489.8,255.8z M489.8,247.3c-0.8,0-1.5-0.7-1.5-1.5c0-0.8,0.7-1.5,1.5-1.5c0.8,0,1.5,0.7,1.5,1.5
	C491.3,246.6,490.7,247.3,489.8,247.3z M489.8,238.8c-0.8,0-1.5-0.7-1.5-1.5s0.7-1.5,1.5-1.5c0.8,0,1.5,0.7,1.5,1.5
	S490.7,238.8,489.8,238.8z M489.8,230.3c-0.8,0-1.5-0.7-1.5-1.5c0-0.8,0.7-1.5,1.5-1.5c0.8,0,1.5,0.7,1.5,1.5
	C491.3,229.6,490.7,230.3,489.8,230.3z M489.8,221.8c-0.8,0-1.5-0.7-1.5-1.5s0.7-1.5,1.5-1.5c0.8,0,1.5,0.7,1.5,1.5
	S490.7,221.8,489.8,221.8z M489.8,213.3c-0.8,0-1.5-0.7-1.5-1.5c0-0.8,0.7-1.5,1.5-1.5c0.8,0,1.5,0.7,1.5,1.5
	C491.3,212.6,490.7,213.3,489.8,213.3z M489.8,204.8c-0.8,0-1.5-0.7-1.5-1.5s0.7-1.5,1.5-1.5c0.8,0,1.5,0.7,1.5,1.5
	S490.7,204.8,489.8,204.8z M489.8,196.3c-0.8,0-1.5-0.7-1.5-1.5c0-0.8,0.7-1.5,1.5-1.5c0.8,0,1.5,0.7,1.5,1.5
	C491.3,195.6,490.7,196.3,489.8,196.3z M489.8,187.8c-0.8,0-1.5-0.7-1.5-1.5c0-0.8,0.7-1.5,1.5-1.5c0.8,0,1.5,0.7,1.5,1.5
	C491.3,187.1,490.7,187.8,489.8,187.8z M489.8,179.3c-0.8,0-1.5-0.7-1.5-1.5c0-0.8,0.7-1.5,1.5-1.5c0.8,0,1.5,0.7,1.5,1.5
	C491.3,178.6,490.7,179.3,489.8,179.3z M489.8,170.8c-0.8,0-1.5-0.7-1.5-1.5s0.7-1.5,1.5-1.5c0.8,0,1.5,0.7,1.5,1.5
	S490.7,170.8,489.8,170.8z M489.8,162.3c-0.8,0-1.5-0.7-1.5-1.5c0-0.8,0.7-1.5,1.5-1.5c0.8,0,1.5,0.7,1.5,1.5
	C491.3,161.6,490.7,162.3,489.8,162.3z M489.8,153.8c-0.8,0-1.5-0.7-1.5-1.5s0.7-1.5,1.5-1.5c0.8,0,1.5,0.7,1.5,1.5
	S490.7,153.8,489.8,153.8z M489.8,145.3c-0.8,0-1.5-0.7-1.5-1.5c0-0.8,0.7-1.5,1.5-1.5c0.8,0,1.5,0.7,1.5,1.5
	C491.3,144.6,490.7,145.3,489.8,145.3z M489.8,136.8c-0.8,0-1.5-0.7-1.5-1.5s0.7-1.5,1.5-1.5c0.8,0,1.5,0.7,1.5,1.5
	S490.7,136.8,489.8,136.8z M489.8,128.3c-0.8,0-1.5-0.7-1.5-1.5c0-0.8,0.7-1.5,1.5-1.5c0.8,0,1.5,0.7,1.5,1.5
	C491.3,127.6,490.7,128.3,489.8,128.3z M489.8,119.7c-0.8,0-1.5-0.7-1.5-1.5s0.7-1.5,1.5-1.5c0.8,0,1.5,0.7,1.5,1.5
	S490.7,119.7,489.8,119.7z M506.9,108.3c0.8,0,1.5,0.7,1.5,1.5c0,0.8-0.7,1.5-1.5,1.5c-0.8,0-1.5-0.7-1.5-1.5
	C505.4,109,506,108.3,506.9,108.3z M498.3,264.3c-0.8,0-1.5-0.7-1.5-1.5c0-0.8,0.7-1.5,1.5-1.5s1.5,0.7,1.5,1.5
	C499.8,263.7,499.2,264.3,498.3,264.3z M498.3,255.8c-0.8,0-1.5-0.7-1.5-1.5s0.7-1.5,1.5-1.5s1.5,0.7,1.5,1.5
	S499.2,255.8,498.3,255.8z M498.3,247.3c-0.8,0-1.5-0.7-1.5-1.5c0-0.8,0.7-1.5,1.5-1.5s1.5,0.7,1.5,1.5
	C499.8,246.6,499.2,247.3,498.3,247.3z M498.3,238.8c-0.8,0-1.5-0.7-1.5-1.5s0.7-1.5,1.5-1.5s1.5,0.7,1.5,1.5
	S499.2,238.8,498.3,238.8z M498.3,230.3c-0.8,0-1.5-0.7-1.5-1.5c0-0.8,0.7-1.5,1.5-1.5s1.5,0.7,1.5,1.5
	C499.8,229.6,499.2,230.3,498.3,230.3z M498.3,221.8c-0.8,0-1.5-0.7-1.5-1.5s0.7-1.5,1.5-1.5s1.5,0.7,1.5,1.5
	S499.2,221.8,498.3,221.8z M498.3,213.3c-0.8,0-1.5-0.7-1.5-1.5c0-0.8,0.7-1.5,1.5-1.5s1.5,0.7,1.5,1.5
	C499.8,212.6,499.2,213.3,498.3,213.3z M498.3,204.8c-0.8,0-1.5-0.7-1.5-1.5s0.7-1.5,1.5-1.5s1.5,0.7,1.5,1.5
	S499.2,204.8,498.3,204.8z M498.3,196.3c-0.8,0-1.5-0.7-1.5-1.5c0-0.8,0.7-1.5,1.5-1.5s1.5,0.7,1.5,1.5
	C499.8,195.6,499.2,196.3,498.3,196.3z M498.3,187.8c-0.8,0-1.5-0.7-1.5-1.5c0-0.8,0.7-1.5,1.5-1.5s1.5,0.7,1.5,1.5
	C499.8,187.1,499.2,187.8,498.3,187.8z M498.3,179.3c-0.8,0-1.5-0.7-1.5-1.5c0-0.8,0.7-1.5,1.5-1.5s1.5,0.7,1.5,1.5
	C499.8,178.6,499.2,179.3,498.3,179.3z M498.3,170.8c-0.8,0-1.5-0.7-1.5-1.5s0.7-1.5,1.5-1.5s1.5,0.7,1.5,1.5
	S499.2,170.8,498.3,170.8z M498.3,162.3c-0.8,0-1.5-0.7-1.5-1.5c0-0.8,0.7-1.5,1.5-1.5s1.5,0.7,1.5,1.5
	C499.8,161.6,499.2,162.3,498.3,162.3z M498.3,153.8c-0.8,0-1.5-0.7-1.5-1.5s0.7-1.5,1.5-1.5s1.5,0.7,1.5,1.5
	S499.2,153.8,498.3,153.8z M498.3,145.3c-0.8,0-1.5-0.7-1.5-1.5c0-0.8,0.7-1.5,1.5-1.5s1.5,0.7,1.5,1.5
	C499.8,144.6,499.2,145.3,498.3,145.3z M498.3,136.8c-0.8,0-1.5-0.7-1.5-1.5s0.7-1.5,1.5-1.5s1.5,0.7,1.5,1.5
	S499.2,136.8,498.3,136.8z M498.3,128.3c-0.8,0-1.5-0.7-1.5-1.5c0-0.8,0.7-1.5,1.5-1.5s1.5,0.7,1.5,1.5
	C499.8,127.6,499.2,128.3,498.3,128.3z M498.3,119.7c-0.8,0-1.5-0.7-1.5-1.5s0.7-1.5,1.5-1.5s1.5,0.7,1.5,1.5
	S499.2,119.7,498.3,119.7z M498.3,111.2c-0.8,0-1.5-0.7-1.5-1.5c0-0.8,0.7-1.5,1.5-1.5s1.5,0.7,1.5,1.5
	C499.8,110.6,499.2,111.2,498.3,111.2z M506.9,264.3c-0.8,0-1.5-0.7-1.5-1.5c0-0.8,0.7-1.5,1.5-1.5c0.8,0,1.5,0.7,1.5,1.5
	C508.3,263.7,507.7,264.3,506.9,264.3z M506.9,255.8c-0.8,0-1.5-0.7-1.5-1.5s0.7-1.5,1.5-1.5c0.8,0,1.5,0.7,1.5,1.5
	S507.7,255.8,506.9,255.8z M506.9,247.3c-0.8,0-1.5-0.7-1.5-1.5c0-0.8,0.7-1.5,1.5-1.5c0.8,0,1.5,0.7,1.5,1.5
	C508.3,246.6,507.7,247.3,506.9,247.3z M506.9,238.8c-0.8,0-1.5-0.7-1.5-1.5s0.7-1.5,1.5-1.5c0.8,0,1.5,0.7,1.5,1.5
	S507.7,238.8,506.9,238.8z M506.9,230.3c-0.8,0-1.5-0.7-1.5-1.5c0-0.8,0.7-1.5,1.5-1.5c0.8,0,1.5,0.7,1.5,1.5
	C508.3,229.6,507.7,230.3,506.9,230.3z M506.9,221.8c-0.8,0-1.5-0.7-1.5-1.5s0.7-1.5,1.5-1.5c0.8,0,1.5,0.7,1.5,1.5
	S507.7,221.8,506.9,221.8z M506.9,213.3c-0.8,0-1.5-0.7-1.5-1.5c0-0.8,0.7-1.5,1.5-1.5c0.8,0,1.5,0.7,1.5,1.5
	C508.3,212.6,507.7,213.3,506.9,213.3z M506.9,204.8c-0.8,0-1.5-0.7-1.5-1.5s0.7-1.5,1.5-1.5c0.8,0,1.5,0.7,1.5,1.5
	S507.7,204.8,506.9,204.8z M506.9,196.3c-0.8,0-1.5-0.7-1.5-1.5c0-0.8,0.7-1.5,1.5-1.5c0.8,0,1.5,0.7,1.5,1.5
	C508.3,195.6,507.7,196.3,506.9,196.3z M506.9,187.8c-0.8,0-1.5-0.7-1.5-1.5c0-0.8,0.7-1.5,1.5-1.5c0.8,0,1.5,0.7,1.5,1.5
	C508.3,187.1,507.7,187.8,506.9,187.8z M506.9,179.3c-0.8,0-1.5-0.7-1.5-1.5c0-0.8,0.7-1.5,1.5-1.5c0.8,0,1.5,0.7,1.5,1.5
	C508.3,178.6,507.7,179.3,506.9,179.3z M506.9,170.8c-0.8,0-1.5-0.7-1.5-1.5s0.7-1.5,1.5-1.5c0.8,0,1.5,0.7,1.5,1.5
	S507.7,170.8,506.9,170.8z M506.9,162.3c-0.8,0-1.5-0.7-1.5-1.5c0-0.8,0.7-1.5,1.5-1.5c0.8,0,1.5,0.7,1.5,1.5
	C508.3,161.6,507.7,162.3,506.9,162.3z M506.9,153.8c-0.8,0-1.5-0.7-1.5-1.5s0.7-1.5,1.5-1.5c0.8,0,1.5,0.7,1.5,1.5
	S507.7,153.8,506.9,153.8z M506.9,145.3c-0.8,0-1.5-0.7-1.5-1.5c0-0.8,0.7-1.5,1.5-1.5c0.8,0,1.5,0.7,1.5,1.5
	C508.3,144.6,507.7,145.3,506.9,145.3z M506.9,136.8c-0.8,0-1.5-0.7-1.5-1.5s0.7-1.5,1.5-1.5c0.8,0,1.5,0.7,1.5,1.5
	S507.7,136.8,506.9,136.8z M506.9,128.3c-0.8,0-1.5-0.7-1.5-1.5c0-0.8,0.7-1.5,1.5-1.5c0.8,0,1.5,0.7,1.5,1.5
	C508.3,127.6,507.7,128.3,506.9,128.3z M506.9,119.7c-0.8,0-1.5-0.7-1.5-1.5s0.7-1.5,1.5-1.5c0.8,0,1.5,0.7,1.5,1.5
	S507.7,119.7,506.9,119.7z"/>
</svg>
