<svg xmlns="http://www.w3.org/2000/svg" viewBox="0 0 86.13 88.68"><defs><style>.cls-1{fill:#ff7b57;}.cls-2{fill:#3cb7f7;}.cls-3{fill:#26d1c4;}.cls-4{fill:#007ae5;}</style></defs><title>roadmunk-icon</title><g id="Layer_2" data-name="Layer 2"><g id="Layer_1-2" data-name="Layer 1"><circle class="cls-1" cx="66.27" cy="68.83" r="19.86"/><path class="cls-2" d="M29.54,11.13V66.26A36.78,36.78,0,0,1,64.91,29.55a1.39,1.39,0,0,0,1.36-1.38V1.4A1.39,1.39,0,0,0,64.86,0,65.81,65.81,0,0,0,29.54,11.13Z"/><path class="cls-3" d="M29.54,11.13V3.41A1.39,1.39,0,0,0,28.15,2H1.39A1.39,1.39,0,0,0,0,3.41V66.26A66.25,66.25,0,0,1,29.54,11.13Z"/><path class="cls-4" d="M0,66.26v21a1.39,1.39,0,0,0,1.39,1.39H28.15a1.39,1.39,0,0,0,1.39-1.39V11.13A66.25,66.25,0,0,0,0,66.26Z"/></g></g></svg>