<?xml version="1.0" encoding="utf-8"?>
<!-- Generator: Adobe Illustrator 22.1.0, SVG Export Plug-In . SVG Version: 6.00 Build 0)  -->
<svg version="1.1" id="Laag_1" xmlns="http://www.w3.org/2000/svg" xmlns:xlink="http://www.w3.org/1999/xlink" x="0px" y="0px"
	 viewBox="0 0 160.2 113.6" style="enable-background:new 0 0 160.2 113.6;" xml:space="preserve">
<style type="text/css">
	.st0{fill:#321E41;}
	.st1{fill:#52B7E9;}
	.st2{fill:#FF3366;}
	.st3{fill:#5DA77D;}
	.st4{fill:#92E1B7;}
	.st5{fill:#F7F7F7;}
	.st6{fill:#FFFFFF;}
</style>
<g>
	<g>
		<path class="st0" d="M123.7,60.1c2.6-1.7,5.2-3.6,7.5-5.9c18.6-18.1,17.1-49.7,17.1-49.7s-31.6-2.3-50.1,15.8
			c-2.3,2.3-4.3,4.7-6.1,7.3c-6.7-2.1-14-1.9-20.5,0.9l-5.5,13.3l7,7.2c0.1-0.1,0.1-0.1,0.2-0.2c3.5-3.4,7.6-5.8,12-7.1
			c-2,6.1-3.1,12-3.7,16.8l10.8,11.1c4.8-0.4,10.8-1.3,16.9-3.2c-1.4,4.3-3.9,8.4-7.4,11.8c-0.1,0.1-0.1,0.1-0.2,0.1l7,7.2l13.5-5.2
			C125.2,74.1,125.7,66.8,123.7,60.1z M132.1,20.4c3.4,3.5,3.4,9.2-0.2,12.7c-3.5,3.4-9.2,3.4-12.7-0.2c-3.4-3.5-3.4-9.2,0.2-12.7
			C123,16.8,128.6,16.8,132.1,20.4z"/>
	</g>
	<g>
	</g>
	<g>
	</g>
	<g>
	</g>
	<g>
	</g>
	<g>
	</g>
	<g>
	</g>
	<g>
	</g>
	<g>
	</g>
	<g>
	</g>
	<g>
	</g>
	<g>
	</g>
	<g>
	</g>
	<g>
	</g>
	<g>
	</g>
	<g>
	</g>
</g>
<g>
	<g>
		<path class="st1" d="M119.4,58.2c2.6-1.7,5.2-3.6,7.5-5.9c18.6-18.1,17.1-49.7,17.1-49.7S112.5,0.3,94,18.4
			c-2.3,2.3-4.3,4.7-6.1,7.3c-6.7-2.1-14-1.9-20.5,0.9L61.9,40l7,7.2c0.1-0.1,0.1-0.1,0.2-0.2c3.5-3.4,7.6-5.8,12-7.1
			c-2,6.1-3.1,12-3.7,16.8l10.8,11.1c4.8-0.4,10.8-1.3,16.9-3.2c-1.4,4.3-3.9,8.4-7.4,11.8c-0.1,0.1-0.1,0.1-0.2,0.1l7,7.2l13.5-5.2
			C120.9,72.2,121.4,64.9,119.4,58.2z M127.8,18.5c3.4,3.5,3.4,9.2-0.2,12.7c-3.5,3.4-9.2,3.4-12.7-0.2c-3.4-3.5-3.4-9.2,0.2-12.7
			C118.7,14.9,124.3,14.9,127.8,18.5z"/>
	</g>
	<g>
	</g>
	<g>
	</g>
	<g>
	</g>
	<g>
	</g>
	<g>
	</g>
	<g>
	</g>
	<g>
	</g>
	<g>
	</g>
	<g>
	</g>
	<g>
	</g>
	<g>
	</g>
	<g>
	</g>
	<g>
	</g>
	<g>
	</g>
	<g>
	</g>
</g>
<title>Asset 65</title>
<circle class="st2" cx="103" cy="93.1" r="2.4"/>
<circle class="st2" cx="103" cy="105" r="2.4"/>
<circle class="st2" cx="90.9" cy="81.1" r="2.4"/>
<circle class="st2" cx="90.9" cy="93.1" r="2.4"/>
<circle class="st2" cx="90.9" cy="105" r="2.4"/>
<circle class="st2" cx="79.1" cy="69.2" r="2.4"/>
<circle class="st2" cx="79.1" cy="81.1" r="2.4"/>
<circle class="st2" cx="79.1" cy="93.1" r="2.4"/>
<circle class="st2" cx="79.1" cy="105" r="2.4"/>
<circle class="st2" cx="67.1" cy="57.2" r="2.4"/>
<circle class="st2" cx="67.1" cy="69.2" r="2.4"/>
<circle class="st2" cx="67.1" cy="81.1" r="2.4"/>
<circle class="st2" cx="67.1" cy="93.1" r="2.4"/>
<circle class="st2" cx="67.1" cy="105" r="2.4"/>
<circle class="st2" cx="54.5" cy="44.1" r="2.4"/>
<circle class="st2" cx="54.5" cy="57.2" r="2.4"/>
<circle class="st2" cx="54.5" cy="69.2" r="2.4"/>
<circle class="st2" cx="54.5" cy="81.1" r="2.4"/>
<circle class="st2" cx="54.5" cy="93.1" r="2.4"/>
<circle class="st2" cx="54.5" cy="105" r="2.4"/>
<circle class="st2" cx="42.5" cy="44.1" r="2.4"/>
<circle class="st2" cx="42.5" cy="57.2" r="2.4"/>
<circle class="st2" cx="42.5" cy="69.2" r="2.4"/>
<circle class="st2" cx="42.5" cy="81.1" r="2.4"/>
<circle class="st2" cx="42.5" cy="93.1" r="2.4"/>
<circle class="st2" cx="42.5" cy="105" r="2.4"/>
<circle class="st2" cx="30.7" cy="44.1" r="2.4"/>
<circle class="st2" cx="30.7" cy="57.2" r="2.4"/>
<circle class="st2" cx="30.7" cy="69.2" r="2.4"/>
<circle class="st2" cx="30.7" cy="81.1" r="2.4"/>
<circle class="st2" cx="30.7" cy="93.1" r="2.4"/>
<circle class="st2" cx="30.7" cy="105" r="2.4"/>
<circle class="st2" cx="18.6" cy="44.1" r="2.4"/>
<circle class="st2" cx="18.6" cy="57.2" r="2.4"/>
<circle class="st2" cx="18.6" cy="69.2" r="2.4"/>
<circle class="st2" cx="18.6" cy="81.1" r="2.4"/>
<circle class="st2" cx="18.6" cy="93.1" r="2.4"/>
<circle class="st2" cx="18.6" cy="105" r="2.4"/>
<circle class="st2" cx="7.5" cy="44.1" r="2.4"/>
<circle class="st2" cx="7.5" cy="57.2" r="2.4"/>
<circle class="st2" cx="7.5" cy="69.2" r="2.4"/>
<circle class="st2" cx="7.5" cy="81.1" r="2.4"/>
<circle class="st2" cx="7.5" cy="93.1" r="2.4"/>
<circle class="st2" cx="7.5" cy="105" r="2.4"/>
<path class="st3" d="M102.8,11.6"/>
<path class="st4" d="M119.6,10.4"/>
<g>
	<path class="st5" d="M113.6,44.4c-0.6-0.6-1.2-1-2-1.3l0.2-0.6l0.1,0.1l0.1-0.2l-0.1-0.1l1.2-2.4l-0.5-0.4l-0.1,0.1l-6.7-6.9
		l0.2-0.2l0,0l0.8-1.6c0.7,0.6,1.4,1.4,1.6,1.5c0.2,0.2,0.6,0.4,0.8,0.2c0.1-0.1,0.1-0.2-0.1-0.5c-0.2-0.2-2.2-1.9-2.4-2.3
		c-0.2-0.4-0.3-0.8-0.6-1.1c-0.4-0.3-0.5-0.2-0.5-0.1c0,0,0.2,1.1,0.3,1.3c0.1,0.1,0.3,0.2,0.7,0.6l-0.9,1.7l0,0l-0.3,0.6l-3,0.9
		c-0.3-0.8-0.7-1.5-1.3-2.2c-2.2-2.3-5.9-2.4-8.2-0.1s-2.4,5.9-0.1,8.2c1.5,1.6,3.9,2.1,5.9,1.4c0.4,0.6,0.6,1,0.6,1
		s0.1,0.2,0.2,0.4c0.1,0.2,0.2,0.4,0.3,0.5c0.7,0.7,1.7,0.8,2.4,0.3c0.1,0.1,0.2,0.2,0.3,0.3l-0.2,0.1c-0.1,0-0.2,0.1-0.3,0.3
		c0,0.1,0.1,0.2,0.1,0.2c0.1,0.1,0.1,0.1,0.2,0.1l1.5-0.1c0.1,0,0.2-0.1,0.2-0.1c0.1-0.1,0.1-0.2,0.1-0.2c0-0.1-0.2-0.3-0.3-0.3
		l-0.6,0l-0.6-0.6c0.2-0.3,0.4-0.7,0.4-1l8.4,0.3l-0.1,0.1l0,0l-0.1,0.2l0.1,0.1l-0.2,0.6c-2-0.6-4.2-0.2-5.8,1.4
		c-2.3,2.2-2.3,5.9-0.1,8.2c2.2,2.3,5.9,2.3,8.2,0.1C115.7,50.5,115.8,46.8,113.6,44.4z M103.8,43.5l0.1,0c0.1,0.1,0.1,0.1,0.1,0.2
		c0,0,0,0.1-0.1,0.2c-0.1,0.1-0.1,0.1-0.1,0.1l-0.6,0l0.1-0.1c0.1-0.1,0.1-0.2,0-0.4l0,0L103.8,43.5z M103,43.9L103,43.9l-0.6,0.1
		c-0.1,0-0.2-0.1-0.2-0.2c0-0.1,0.1-0.2,0.2-0.2l0.6,0C102.8,43.7,102.8,43.8,103,43.9z M101.9,36.1l-3.6-0.2
		c-0.2-0.2-0.4-0.4-0.5-0.5l0,0l4-1.1C101.9,34.8,101.9,35.5,101.9,36.1z M95.8,36.4L95.8,36.4l-0.2,0.1l0.1-0.1L95.8,36.4z
		 M95.7,36.4l0.2-0.2c0,0,0.1,0.1,0,0.1l0,0L95.7,36.4z M95.9,36c-0.1-0.2-0.1-0.4,0-0.6l0,0c0.1-0.1,0.1-0.2,0.1-0.2l0.1-0.1
		c0.1-0.1,0.1-0.1,0.1-0.1c0.4-0.3,0.8-0.3,1.1,0c0,0,0.1,0.1,0.1,0.1l0,0l0,0l0,0l-0.1-0.1l0,0c-0.3-0.3-0.8-0.3-1.1,0
		c-0.3,0.3-0.3,0.8,0,1.1c0.1,0.1,0.3,0.2,0.5,0.2l0,0.1l-0.2,0.6C96.1,36.6,95.9,36.3,95.9,36z M95.5,34.9l0.7,0.1c0,0,0,0-0.1,0.1
		s-0.1,0.1-0.2,0.2l-0.3-0.1L95.5,34.9z M95.5,35l-0.2-0.2l0.1,0L95.5,35z M95.9,35.3L95.9,35.3l-0.2-0.1L95.9,35.3z M96.5,34.2
		l0.1,0.2l-0.1,0.3c-0.1,0.1-0.1,0-0.2,0.1L96.5,34.2z M96.5,34.1l0.1-0.4l0.1,0.4l-0.1,0.2L96.5,34.1z M96.7,34.5l0.1-0.2l0.2,0.6
		c-0.1-0.1-0.1,0-0.2-0.1L96.7,34.5z M96.8,34.8c0,0-0.1,0-0.2,0.1l0.1-0.2L96.8,34.8z M97.5,35.1L97.5,35.1l0.2-0.5l0.5-0.1
		L97.8,35L97.5,35.1z M96.9,35.9c-0.1,0.1-0.2,0.1-0.4,0c-0.1-0.1-0.1-0.2,0-0.4c0.1-0.1,0.2-0.1,0.4,0C97,35.6,97,35.8,96.9,35.9z
		 M97.4,35.1c-0.1-0.1-0.1-0.1-0.1-0.1c-0.1-0.1-0.1-0.1-0.2-0.1l0.5-0.2L97.4,35.1z M97.5,35.6c0-0.1,0-0.1-0.1-0.2l0.2-0.1
		c0.1,0.1,0.3,0.3,0.5,0.5l-0.5,0L97.5,35.6z M97.6,35.8L97.6,35.8C97.5,35.8,97.5,35.8,97.6,35.8L97.6,35.8z M96.7,36.7l0.1,0.2
		l-0.2,0.6c-0.1-0.1-0.1-0.2-0.1-0.2L96.7,36.7z M96.7,36.5L96.7,36.5c0.1-0.1,0.1-0.1,0.2-0.1l0.1,0.1l-0.1,0.2L96.7,36.5z
		 M97.6,36l0.2,0.2l-0.4-0.1c0.1-0.1,0.1-0.1,0.1-0.2L97.6,36z M97.8,35.9l0.5,0c0.1,0.1,0.2,0.2,0.3,0.3L98,36.2L97.8,35.9z
		 M98.6,36.4L98.6,36.4c0.7,0.8,1.5,1.6,2.2,2.3c-0.1,0.1-0.2,0.2-0.4,0.4L98,36.3L98.6,36.4z M98.7,36.4l3,0.5
		c-0.2,0.6-0.4,1.2-0.8,1.7C100.2,38,99.4,37.1,98.7,36.4z M98.7,36.4c-0.1-0.1-0.2-0.2-0.3-0.3l3.5,0.2c0,0.2-0.1,0.4-0.1,0.6
		L98.7,36.4z M101.7,33.9L98,35l0.4-0.5l3.1-0.9C101.6,33.7,101.6,33.8,101.7,33.9z M100.5,32.1c0.4,0.4,0.7,0.9,1,1.4l-3,0.9
		l1.8-2.5C100.3,31.9,100.4,32,100.5,32.1z M100.2,31.8l-1.9,2.6l-0.5,0.2l1.9-3.1C99.9,31.5,100,31.6,100.2,31.8z M99.7,31.4
		l-1.9,3.2l-0.6,0.2l-0.3-0.6l1.2-3.5C98.6,30.8,99.2,31.1,99.7,31.4z M97.9,30.6l-1.2,3.3l-0.2-0.4l0.7-3.1
		C97.5,30.6,97.7,30.6,97.9,30.6z M97.2,30.6l-0.6,2.9l-1.1-2.7C96,30.6,96.5,30.5,97.2,30.6z M95.3,30.8l1.2,2.8L96.5,34L94.8,31
		C94.9,30.9,95.1,30.9,95.3,30.8z M93.4,32c0.4-0.3,0.8-0.7,1.3-0.9l1.7,3.1l-0.2,0.8l-0.8-0.1l-2.1-2.7C93.2,32.1,93.3,32,93.4,32z
		 M93.1,32.2l2,2.5l-0.1,0l-2.3-2l0,0C92.9,32.5,93,32.3,93.1,32.2z M92.6,32.8l2.2,1.9l-2.9-0.4C92.2,33.7,92.4,33.2,92.6,32.8z
		 M92,34.3l3.1,0.5l0.4,0.3L92,34.8C91.9,34.6,91.9,34.5,92,34.3z M91.9,34.9l3.6,0.3l0.2,0.2l0,0l0.1,0.1c-0.1,0.2-0.1,0.4,0,0.6
		l0,0l-0.3,0.3L92,36.8C91.8,36.2,91.8,35.5,91.9,34.9z M92,37l3.5-0.5l-0.1,0.1l-3.2,0.9l0.1,0.1C92.1,37.3,92,37.1,92,37z
		 M92.2,37.5l3-0.8l-2,2.4C92.8,38.6,92.5,38.1,92.2,37.5z M93.3,39.1l2.1-2.5l0.2-0.1l-2,2.9C93.5,39.3,93.4,39.3,93.3,39.1z
		 M93.7,39.5l2.2-3l0.1,0c0.1,0.2,0.2,0.5,0.3,0.7L95,40.3C94.6,40.1,94.1,39.8,93.7,39.5z M95.1,40.3l1.2-3
		c0.1,0.1,0.1,0.2,0.1,0.2l-0.9,2.9l0,0C95.5,40.5,95.3,40.4,95.1,40.3z M95.7,40.5l0.9-2.8c0.2,0.3,0.3,0.5,0.5,0.8l0.2,0.2
		c0.3,0.6,0.7,1.2,1,1.7C97.4,40.7,96.5,40.7,95.7,40.5z M98.4,40.4c-0.3-0.5-0.6-1.1-1-1.7l-0.2-0.3c-0.2-0.3-0.3-0.6-0.5-0.9
		l0.2-0.6l1.8,3.3C98.5,40.4,98.4,40.4,98.4,40.4z M98.8,40.3l-1.9-3.4l0.1-0.2l2.5,3.3C99.2,40.1,99,40.2,98.8,40.3z M99.5,39.9
		L97,36.5l0.1-0.1l0.2-0.1l2.6,3.4C99.7,39.8,99.6,39.8,99.5,39.9z M99.9,39.7l-2.6-3.4l0,0l0.1-0.1l0.6,0.1l2.5,2.9l0,0
		C100.2,39.4,100.1,39.5,99.9,39.7z M102.5,34l2.7-0.8l0.2-0.4l-3.5,6.7c-0.1-0.1-0.3-0.3-0.5-0.5C102.6,37.7,102.9,35.8,102.5,34z
		 M101.3,41.3L101.3,41.3L101.3,41.3c-0.1-0.1-0.1-0.1-0.2-0.1l-0.1-0.1l-0.4-1.1l0,0c0.4-0.1,0.7-0.1,1.1,0l-0.6,1.2l0.1,0.1
		L101.3,41.3L101.3,41.3z M102.2,40.3c0.1,0.1,0.1,0.1,0.2,0.2c0,0,0,0,0.1,0.1l-0.5,0.3L102.2,40.3z M100,40.5
		c0.1-0.1,0.1-0.1,0.3-0.2l0.5,0.7l0.1,0.4c-0.1,0.1-0.1,0.1-0.1,0.1L100,40.5z M100.6,41.5l-1.2-0.1c0.1-0.3,0.1-0.6,0.4-0.8
		c0.1-0.1,0.1-0.1,0.1-0.1L100.6,41.5z M100.3,40.2c0.1-0.1,0.1-0.1,0.1-0.1l0.2,0.5L100.3,40.2z M100.9,39.7
		c0.2-0.2,0.3-0.3,0.5-0.5c0.2,0.2,0.3,0.4,0.5,0.5l-0.1,0.1C101.5,39.7,101.2,39.7,100.9,39.7z M98.7,41c0.2-0.1,0.5-0.2,0.7-0.3
		c-0.2,0.4-0.2,0.8-0.1,1.3C99.2,41.9,99,41.6,98.7,41z M99.9,42.8c-0.3-0.4-0.5-0.8-0.5-1.2l1.3,0.1c0,0,0.1,0.1,0.2,0.2l-0.4,1.4
		C100.3,43.2,100.1,43,99.9,42.8z M100.7,43.3L101,42c0.3,0.3,0.7,0.8,1.1,1.1C101.7,43.4,101.2,43.5,100.7,43.3z M102.5,42.7
		l-1.1-1.3l0,0l0.1,0.1l0.3,0.3l1.2,0C102.9,42.2,102.7,42.4,102.5,42.7z M101.8,41.1l0.7-0.5c0.1,0.1,0.2,0.4,0.3,0.5L101.8,41.1z
		 M103,41.2c-0.1-0.3-0.2-0.6-0.5-0.9c-0.1-0.1-0.1-0.1-0.2-0.2l3.4-6.7l6.7,6.9l-0.6,1.3L103,41.2z M113,52.1l-2.5-2.8l0.3,0.1
		l2.5,2.3l0.1-0.1l-2.4-2.3l3.3,0.5C114.1,50.7,113.7,51.4,113,52.1z M110,48.9L110,48.9L110,48.9L110,48.9z M109.4,49.5L109.4,49.5
		C109.5,49.4,109.5,49.4,109.4,49.5L109.4,49.5z M110.1,48.8l0-0.1l0.3,0.4l-0.2,0L110.1,48.8z M109.3,49.4l0.1,0.2l-0.1,0.3
		l-0.2-0.5C109.2,49.5,109.3,49.5,109.3,49.4z M109.5,49.7l0.1,0.2l-0.1,0.5l-0.1-0.4L109.5,49.7z M109.5,49.6l0.1-0.2
		c0.1-0.1,0.1-0.1,0.1-0.1l-0.1,0.5L109.5,49.6z M109.9,49.2c0.1-0.1,0.1-0.1,0.1-0.1l0.2,0l0.2,0.2L109.9,49.2z M110.3,49.1l0.2,0
		l0.2,0.2l-0.3-0.1L110.3,49.1z M114.4,49.8l-3.4-0.5l-0.2-0.2l3.8,0.1C114.4,49.4,114.4,49.5,114.4,49.8z M114.5,49.1l-3.9-0.1
		l-0.5-0.5l0.4-0.5l3.8-0.8C114.5,47.8,114.6,48.4,114.5,49.1z M108.1,49.4l-0.1,0.2l-0.4,0.1l0.2-0.2L108.1,49.4z M108,49.2
		l0.4-0.5l0,0.1l-0.2,0.3L108,49.2z M108.4,49.3l0.1-0.2c0.1,0.1,0.1,0.1,0.1,0.1L108.4,49.3z M108.6,49.3L108.6,49.3l-0.5,0.2
		l0.1-0.2L108.6,49.3z M109,48.9c-0.1-0.1-0.1-0.2,0-0.4c0.1-0.1,0.2-0.1,0.4,0c0.1,0.1,0.1,0.2,0,0.4C109.3,48.9,109.1,49,109,48.9
		z M110.1,48.1l-0.1,0.2c-0.1-0.1-0.1-0.1-0.1-0.1l0,0L110.1,48.1z M110.3,47.7l0.2-0.1L110.3,47.7l-0.1,0.1L110.3,47.7z
		 M109.7,48.1L109.7,48.1l0.5-0.2l-0.1,0.2L109.7,48.1z M110.1,48l0.2-0.1l-0.4,0.5c0,0-0.1-0.1,0-0.1L110.1,48z M114.3,47.1
		l-3.7,0.8l0.2-0.2l3.5-0.9C114.2,46.8,114.2,46.9,114.3,47.1z M113,45c0.5,0.5,0.8,1.1,1.1,1.6l-3.3,0.9l2-2.8
		C112.9,44.8,113,44.9,113,45z M112.8,44.7l-2.2,2.9l-0.3,0.1l2-3.2C112.5,44.4,112.6,44.5,112.8,44.7z M112.3,44.3l-2,3.3l-0.6,0.2
		l1.7-4.1C111.7,43.9,112,44.1,112.3,44.3z M108.2,48l0.3,0.3c-0.1,0.1,0,0.1-0.1,0.2l-0.5-0.4L108.2,48z M107.7,47.9L107.7,47.9
		l0.4,0l0,0L107.7,47.9z M109,47.5l-0.1,0.5c0,0,0,0-0.1,0.1l0,0l0,0L109,47.5L109,47.5z M109,47.2l0.1-0.3l0.1,0.2l-0.1,0.2
		L109,47.2z M109.3,47.2l0.2,0.4l-0.1,0.2l-0.2-0.4L109.3,47.2z M108.5,48.2l-0.2-0.2l0.4,0l-0.1,0.1
		C108.6,48.1,108.6,48.1,108.5,48.2z M109.1,47.9l0.1-0.3l0.2,0.3l0.1-0.1l-0.1,0.1C109.3,47.8,109.1,47.8,109.1,47.9z M110.9,43.6
		l-1.4,3.9l-0.2-0.4l1.2-3.6C110.7,43.6,110.8,43.6,110.9,43.6z M110.4,43.5l-1.2,3.5l-0.1-0.2l0.8-3.3
		C110.1,43.4,110.3,43.5,110.4,43.5z M109.9,43.4l-0.8,3.1l-1.2-3C108.6,43.4,109.2,43.4,109.9,43.4z M107.9,43.6l1.2,3.1L109,47
		l-1.7-3.2C107.4,43.8,107.6,43.7,107.9,43.6z M105.9,44.8c0.4-0.4,0.8-0.7,1.3-0.9l1.8,3.3l-0.1,0.7l-0.6-0.1l-2.6-2.6
		C105.6,45.1,105.7,44.9,105.9,44.8z M105.4,45.3l2.5,2.5l-0.4-0.1l-2.4-2.1C105.2,45.5,105.3,45.4,105.4,45.3z M105.1,45.8l2.2,2
		l-2.9-0.4C104.5,46.7,104.8,46.2,105.1,45.8z M104.5,47.4l3.1,0.5l0.1,0.1l-3.3-0.1C104.4,47.7,104.4,47.6,104.5,47.4z M104.4,47.8
		L104.4,47.8l3.4,0.1l0.6,0.5c0,0-0.1,0.1,0,0.1l-0.5,0.6l-3.4,0.5C104.3,49.1,104.3,48.5,104.4,47.8z M104.5,49.9l3.3-0.5l-0.2,0.3
		l-2.9,0.8C104.7,50.3,104.5,50.1,104.5,49.9z M104.8,50.7l2.7-0.8l-1.7,2.2C105.3,51.6,105,51.1,104.8,50.7z M105.8,52.1l1.8-2.4
		l0.4-0.1l-1.7,2.8l0.1,0.1l1.8-2.9l0.7-0.2l0,0c0.1,0.1,0.1,0.1,0.2,0.1l0.2,0.6l-1.2,3.3C107.2,53.1,106.4,52.7,105.8,52.1z
		 M108.1,53.4l1.2-3.2l0.1,0.4l-0.7,3C108.5,53.5,108.3,53.5,108.1,53.4z M108.7,53.6l0.7-2.8l1.1,2.8
		C109.9,53.6,109.3,53.6,108.7,53.6z M110.6,53.5l-1.1-2.9l0.1-0.5l1.6,3.2C111,53.3,110.9,53.4,110.6,53.5z M109.7,49.9l0.2-0.6
		l0.6,0.1l2.5,2.8l0.1-0.1c0,0,0,0-0.1,0.1c-0.5,0.5-1.1,0.8-1.6,1.1L109.7,49.9z"/>
	<path class="st6" d="M113.1,39.9l0.4-0.8l0.9,0.9l0.1-0.1l1.8,1.8c0,0,0.2,0.6-0.4,0.9c-0.6,0.2-0.9,0.2-1.3,0.2
		c-0.6,0-1.1-0.1-1.1-0.1l0,0.5c0,0,1.2,0.2,2,0.1c0.5,0,1.1-0.3,1.3-0.7c0.2-0.3,0.4-0.8-0.2-1.4c-0.6-0.6-3.3-3.4-3.3-3.4
		l-0.7,1.6L113.1,39.9z"/>
</g>
</svg>
