<?xml version="1.0" encoding="utf-8"?>
<svg viewBox="26.5 372.7 549.4 112.3" width="549.4" height="112.3" xmlns="http://www.w3.org/2000/svg">
  <defs>
    <style type="text/css">
	.st0{fill:#30ACE2;}
</style>
  </defs>
  <g>
    <path class="st0" d="M167.6,404.6h-16.9c-5.1,0-9.2-2.6-9.2-7.5s4.1-7.5,9.2-7.5h51.3c5.1,0,9.2,2.6,9.2,7.5c0,4.9-4.1,7.5-9.2,7.5 h-16.9v55.6c0,4.9-4,8.9-8.9,8.9c-4.9,0-8.9-4-8.9-8.9l0,0L167.6,404.6L167.6,404.6z"/>
    <path class="st0" d="M231,409.7c19,0,29.3,13,29.3,29.7c0,15.8-7.7,29.7-29.3,29.7s-29.3-13.9-29.3-29.7 C201.8,422.7,212,409.7,231,409.7z M231,457.5c9.3,0,13.5-8.4,13.5-18.1c0-10.3-4.3-17.9-13.5-17.9s-13.5,7.7-13.5,17.9 C217.5,449,221.5,457.5,231,457.5L231,457.5z"/>
    <path class="st0" d="M323,452.4c0,6.6,1.7,8.1,1.7,10.6c0,3.5-3.4,6.1-7.2,6.1c-6.9,0-9-4.3-9.3-9.2c-6.1,6.9-13.3,9.2-21.6,9.2 c-9,0-17.9-6.1-17.9-16.1c0-13.2,10-16.9,22.1-18.2l9.7-1.1c3.8-0.5,6.9-1.4,6.9-5.8s-4.6-6.4-10-6.4c-11.6,0-12.1,8.7-18.4,8.7 c-3.5,0.2-6.4-2.5-6.7-5.8c0-0.2,0-0.2,0-0.3c0-6.3,8.9-14.3,25.1-14.3c15.2,0,25.7,4.9,25.7,16.2L323,452.4L323,452.4z M307.2,441.1c-1.7,1.7-4.9,2.1-6.9,2.5l-5.8,0.9c-6.6,0.9-10.1,3.1-10.1,7.8c0,3.5,3.4,6.4,8.7,6.4c8.7,0,13.9-5.7,13.9-11.5 L307.2,441.1L307.2,441.1z"/>
    <path class="st0" d="M357.9,409.7c12.1,0,24.2,4.8,24.2,12.1c0.2,3.7-2.6,6.7-6.1,6.9c-0.2,0-0.3,0-0.5,0c-6.1,0-6.4-7.2-16.4-7.2 c-5.5,0-9,1.5-9,4.9c0,3.7,3.5,4.6,8.4,5.7l6.6,1.5c9,2,19.8,5.8,19.8,16.9c0,12.9-12.4,18.8-24.4,18.8c-14.3,0-26.2-6.4-26.2-14.3 c0-3.5,2-6.6,6.4-6.6c6.9,0,7.5,9.8,19.2,9.8c5.7,0,9.2-2.5,9.2-5.8c0-4-3.5-4.6-9-6.1l-9.3-2.3c-9.2-2.3-16.4-6.1-16.4-16.7 C334.2,414.4,346.9,409.7,357.9,409.7z"/>
    <path class="st0" d="M399,421.5h-2.8c-4.4,0-6.3-1.7-6.3-5.2c0-3.5,1.8-5.2,6.3-5.2h2.8v-9.7c0-5.2,3.1-8,8-8s8,2.8,8,8v9.7h4.8 c4.6,0,7.2,1.4,7.2,5.2c0,3.8-2.5,5.2-7.2,5.2h-4.8V453c0,2.5,1.4,3.7,4.1,3.7h2.3c3.5,0,5.5,2,5.5,5.4c0,4.6-3.8,7-11.5,7 c-11.5,0-16.2-4.8-16.2-14.1L399,421.5L399,421.5z"/>
    <path class="st0" d="M454.3,393.7c1.5-4,4.3-5.4,8.7-5.4h4.3c4,0,7.7,0.9,9.5,6.4l21.5,59.8c0.9,2.1,1.5,4.4,1.7,6.9 c-0.2,4.4-3.8,8-8.3,7.8c-3.8,0-6.7-1.4-8-4.9l-4.6-13h-28.5l-4.6,13c-1.2,3.5-3.7,4.9-8,4.9c-4.9,0-8.3-3.1-8.3-7.8 c0.2-2.5,0.8-4.8,1.7-6.9L454.3,393.7z M465,407.5h-0.2l-10.6,31.3h20.8L465,407.5z"/>
    <path class="st0" d="M509.1,400.2c0-8,4.1-10.4,10.4-10.4h29.6c21.1,0,26.8,11.6,26.8,21.6c0,8.4-4.9,16.9-13.5,18.7v0.2 c9,1.4,10.7,8,10.7,15.8c0,9,2.5,12.4,2.5,16.1c0,4.1-4.3,6.9-8.3,6.9c-9.8,0-10.6-9.3-10.6-12.6c0-13.6-2.5-19.2-12.3-19.2h-17.6 v22.8c0,4.9-4,8.9-8.9,8.9c-4.9,0-8.9-4-8.9-8.9l0,0L509.1,400.2L509.1,400.2z M526.9,424.4h17.8c6.7,0,13.5-1.7,13.5-10.6 c0-8.3-5.1-10.6-12.9-10.6h-18.4L526.9,424.4L526.9,424.4z"/>
  </g>
  <g>
    <path class="st0" d="M110.7,485H44.6c-4.6,0-8-3.5-8-8v-48.1c-3.1-4-10.1-14-10.1-23c0-8.9,3.5-17.3,9.8-23.5 c6.3-6.3,14.6-9.7,23.5-9.7c0,0,0.1,0,0.1,0c6.3,0,13.5,3.5,17.8,5.9c4.3-2.4,11.5-5.9,17.8-5.9c18.4,0,33.3,14.9,33.3,33.2 c0,4.8-1.9,10.4-5.6,16.7c-1.6,2.6-2.8,4.6-3.9,6V477C119.3,481.5,115.5,485,110.7,485z M51.5,470h52.8v-43 c-0.1-2.1,0.5-4.1,1.6-5.8l2.8-4.2l0.3,0.1c2.2-3.4,4.9-8.3,4.9-11.3c0-10.1-8.2-18.2-18.3-18.2c-3.2,0-9.7,3.3-13.1,5.5l-0.5,0.3 c-2.7,1.5-5.9,1.5-8.6,0l-0.5-0.3c-3.4-2.2-9.9-5.5-13.1-5.5c0,0,0,0-0.1,0c-4.9,0-9.4,1.9-12.9,5.3c-3.5,3.4-5.4,8-5.4,12.9 c0,3.8,4.6,11.1,7.7,14.9l0.1,0.2c1.1,1.4,1.8,2.9,2.1,4.6l0.1,0.7V470z"/>
    <path class="st0" d="M77.7,456H63.5c-3.1,0-4.9-1.9-4.9-5c0-3.2,1.8-5.1,4.7-5.1H92c3.1,0,4.7,1.9,4.7,5.1c0,3.1-1.8,5-4.8,5H77.7 L77.7,456z"/>
    <path class="st0" d="M77.7,436.6H63.5c-3.1,0-4.9-1.9-4.9-5c0-3.2,1.8-5.1,4.7-5.1H92c3.1,0,4.7,1.9,4.7,5.1c0,3.1-1.8,5-4.8,5 H77.7L77.7,436.6z"/>
    <path class="st0" d="M77.7,417H63.5c-3.1,0-4.9-1.9-4.9-5c0-3.2,1.8-5.1,4.7-5.1H92c3.1,0,4.7,1.9,4.7,5.1c0,3.1-1.8,5-4.8,5H77.7 L77.7,417z"/>
  </g>
</svg>