<svg xmlns="http://www.w3.org/2000/svg" viewBox="0 0 43.2 43.2"><defs><style>.cls-1{fill:none;}.cls-2{fill:#0380d3;}.cls-3{fill:#61cae2;}</style></defs><title>agile</title><g id="Layer_2" data-name="Layer 2"><g id="Layer_1-2" data-name="Layer 1"><g id="Frame_-_24px" data-name="Frame - 24px"><rect class="cls-1" width="43.2" height="43.2"/></g><g id="Filled_Icons" data-name="Filled Icons"><path class="cls-2" d="M36,3.6A3.6,3.6,0,0,0,32.4,0H3.6A3.6,3.6,0,0,0,0,3.6V7.2H36ZM5.4,5.4A1.8,1.8,0,1,1,7.2,3.6,1.8,1.8,0,0,1,5.4,5.4Zm5.4,0a1.8,1.8,0,1,1,1.8-1.8A1.8,1.8,0,0,1,10.8,5.4Z"/><path class="cls-2" d="M32.4,18a14.49,14.49,0,0,1,3.6.47V9H0V28.8a3.6,3.6,0,0,0,3.6,3.6H18A14.4,14.4,0,0,1,32.4,18Z"/><path class="cls-3" d="M32.4,21.57a10.8,10.8,0,1,0,10.8,10.8A10.81,10.81,0,0,0,32.4,21.57Zm5.4,12.6H30.6v-9h3.6v5.4h3.6Z"/></g></g></g></svg>