<svg xmlns="http://www.w3.org/2000/svg" viewBox="0 0 51.94 51.94"><defs><style>.cls-1{fill:none;}.cls-2{fill:#fff;}.cls-3{fill:#61cae2;}</style></defs><title>clevel</title><g id="Layer_2" data-name="Layer 2"><g id="Layer_1-2" data-name="Layer 1"><g id="Frame_-_24px" data-name="Frame - 24px"><rect class="cls-1" width="51.94" height="51.94"/></g><g id="Filled_Icons" data-name="Filled Icons"><path class="cls-2" d="M19.46,34.61a6.17,6.17,0,1,1-6.17-6.17,6.17,6.17,0,0,1,6.17,6.17"/><path class="cls-2" d="M25.28,50.64a9.85,9.85,0,0,0-9.52-7.4H10.82a9.85,9.85,0,0,0-9.52,7.4Z"/><path class="cls-2" d="M44.83,34.61a6.17,6.17,0,1,1-6.17-6.17,6.17,6.17,0,0,1,6.17,6.17"/><path class="cls-2" d="M50.65,50.64a9.85,9.85,0,0,0-9.52-7.4H36.19a9.85,9.85,0,0,0-9.52,7.4Z"/><path class="cls-3" d="M32.14,7.47A6.17,6.17,0,1,1,26,1.3a6.17,6.17,0,0,1,6.17,6.17"/><path class="cls-3" d="M38,23.5a9.85,9.85,0,0,0-9.52-7.4H23.51A9.85,9.85,0,0,0,14,23.5Z"/></g></g></g></svg>