<svg xmlns="http://www.w3.org/2000/svg" viewBox="0 0 51.94 51.94"><defs><style>.cls-1{fill:none;}.cls-2{fill:#0380d3;}.cls-3{fill:#61cae2;}</style></defs><title>customization</title><g id="Layer_2" data-name="Layer 2"><g id="Layer_1-2" data-name="Layer 1"><g id="Frame_-_24px" data-name="Frame - 24px"><rect class="cls-1" width="51.94" height="51.94"/></g><g id="Filled_Icons" data-name="Filled Icons"><path class="cls-2" d="M34.63,20.48a15.07,15.07,0,0,1,8.66,2.73V11.83H0v23.8A4.33,4.33,0,0,0,4.33,40H20.11A15.14,15.14,0,0,1,34.63,20.48Z"/><path class="cls-2" d="M43.29,5.33A4.33,4.33,0,0,0,39,1H4.33A4.33,4.33,0,0,0,0,5.33V9.66H43.29ZM6.49,7.49A2.16,2.16,0,1,1,8.66,5.33,2.16,2.16,0,0,1,6.49,7.49Zm6.49,0a2.16,2.16,0,1,1,2.16-2.16A2.16,2.16,0,0,1,13,7.49Z"/><path class="cls-3" d="M43.65,41.59a10.85,10.85,0,1,0-3.06,3.06l7,7,3.06-3.06Zm-9,.53a6.49,6.49,0,1,1,6.49-6.49A6.5,6.5,0,0,1,34.63,42.12Z"/></g></g></g></svg>