<svg xmlns="http://www.w3.org/2000/svg" viewBox="0 0 51.94 51.94"><defs><style>.cls-1{fill:#61cae2;}.cls-2{fill:#0380d3;}.cls-3{fill:none;}</style></defs><title>education</title><g id="Layer_2" data-name="Layer 2"><g id="Layer_1-2" data-name="Layer 1"><g id="Line_Icons" data-name="Line Icons"><path class="cls-1" d="M47.61,3.49H4.33A4.33,4.33,0,0,0,0,7.82V36a4.33,4.33,0,0,0,4.33,4.33H23.81v4.33H15.15v4.33H36.79V44.61H28.14V40.29H47.61A4.33,4.33,0,0,0,51.94,36V7.82A4.33,4.33,0,0,0,47.61,3.49Zm0,32.46H4.33V7.82H47.61Z"/><path class="cls-2" d="M33.08,28.11a1.78,1.78,0,0,1-1.21,1.69l-5.33,1.78a1.78,1.78,0,0,1-1.12,0l-5.33-1.78a1.78,1.78,0,0,1-1.21-1.69V24.37l6.62,1.89a1.7,1.7,0,0,0,.49.07,1.76,1.76,0,0,0,.49-.07l6.62-1.89Z"/><path class="cls-2" d="M38.89,19.16,26,22.71l-10.66-3v6.67a1.78,1.78,0,1,1-3.55,0V17.45a1.6,1.6,0,0,1,.23-.82,1.83,1.83,0,0,1,1.06-.89l12.43-3.55a1.72,1.72,0,0,1,1,0L38.9,15.74a1.77,1.77,0,0,1,0,3.41Z"/></g><g id="Frame_-_24px" data-name="Frame - 24px"><rect class="cls-3" width="51.94" height="51.94"/></g></g></g></svg>