<svg xmlns="http://www.w3.org/2000/svg" viewBox="0 0 43.2 43.2"><defs><style>.cls-1{fill:#61cae2;}.cls-2{fill:#0380d3;}.cls-3{fill:none;}</style></defs><title>fuzzy-time</title><g id="Layer_2" data-name="Layer 2"><g id="Layer_1-2" data-name="Layer 1"><path class="cls-1" d="M30.22,13a11.78,11.78,0,0,1,3.64,8.62,11.93,11.93,0,0,1-3.54,8.62,11.57,11.57,0,0,1-8.62,3.64A11.89,11.89,0,0,1,13,30.22l8.62-8.62V9.35A11.78,11.78,0,0,1,30.22,13Z"/><path class="cls-2" d="M36,7.2a19.64,19.64,0,0,0-14.41-6,19.64,19.64,0,0,0-14.41,6,19.64,19.64,0,0,0-6,14.41A19.64,19.64,0,0,0,7.19,36,19.64,19.64,0,0,0,21.6,42,19.64,19.64,0,0,0,36,36a19.64,19.64,0,0,0,6-14.41A19.64,19.64,0,0,0,36,7.2ZM33.14,33.14A15.75,15.75,0,0,1,21.6,38a15.75,15.75,0,0,1-11.54-4.83A15.75,15.75,0,0,1,5.23,21.61a15.75,15.75,0,0,1,4.83-11.54A15.75,15.75,0,0,1,21.6,5.24a15.75,15.75,0,0,1,11.54,4.83A15.75,15.75,0,0,1,38,21.61,15.75,15.75,0,0,1,33.14,33.14Z"/><g id="Frame_-_24px" data-name="Frame - 24px"><rect class="cls-3" width="43.2" height="43.2"/></g></g></g></svg>