<svg xmlns="http://www.w3.org/2000/svg" viewBox="0 0 51.94 51.94"><defs><style>.cls-1{fill:none;}.cls-2{fill:#0380d3;}.cls-3{fill:#61cae2;}</style></defs><title>iso</title><g id="Layer_2" data-name="Layer 2"><g id="Layer_1-2" data-name="Layer 1"><g id="Frame_-_24px" data-name="Frame - 24px"><rect class="cls-1" width="51.94" height="51.94"/></g><g id="Filled_Icons" data-name="Filled Icons"><path class="cls-2" d="M30.3,17.31H42.85A21.67,21.67,0,0,0,30.3,1.81V8.65H23.81v6.49H30.3Z"/><path class="cls-2" d="M19.48,34.62,8.66,28.13v-13l6.49-4.33V1a21.63,21.63,0,0,0,6.1,42.27,13,13,0,0,1-1.77-6.47Z"/><path class="cls-3" d="M23.81,21.64V36.79C23.81,45,32,48.86,36.37,49.73l.42.09.42-.08c4.34-.87,12.56-4.69,12.56-12.94V21.64ZM43.28,36.79H39v4.33H34.63V36.79H30.3V32.46h4.33V28.13H39v4.33h4.33Z"/></g></g></g></svg>