<svg xmlns="http://www.w3.org/2000/svg" viewBox="0 0 51.94 51.94"><defs><style>.cls-1{fill:none;}.cls-2{fill:#fff;}.cls-3{fill:#61cae2;}</style></defs><title>manager_1</title><g id="Layer_2" data-name="Layer 2"><g id="Layer_1-2" data-name="Layer 1"><g id="Frame_-_24px" data-name="Frame - 24px"><rect class="cls-1" width="51.94" height="51.94"/></g><g id="Filled_Icons" data-name="Filled Icons"><path class="cls-2" d="M31.38,13a9.65,9.65,0,0,1,.26-2.16H4.33v4.33H31.64A9.65,9.65,0,0,1,31.38,13Z"/><path class="cls-2" d="M31.38,39a9.65,9.65,0,0,1,.26-2.16H4.33v4.33H31.64A9.65,9.65,0,0,1,31.38,39Z"/><path class="cls-2" d="M9.74,26A9.65,9.65,0,0,1,10,23.81H4.33v4.33H10A9.65,9.65,0,0,1,9.74,26Z"/><path class="cls-3" d="M29,23.81a9.07,9.07,0,0,1,0,4.33H47.61V23.81Z"/><circle class="cls-3" cx="41.12" cy="12.98" r="4.55"/><circle class="cls-3" cx="19.48" cy="25.97" r="4.55"/><circle class="cls-3" cx="41.12" cy="38.96" r="4.55"/></g></g></g></svg>