<svg xmlns="http://www.w3.org/2000/svg" viewBox="0 0 43.2 43.2"><defs><style>.cls-1{fill:none;}.cls-2{fill:#0380d3;}.cls-3{fill:#61cae2;}</style></defs><title>master</title><g id="Layer_2" data-name="Layer 2"><g id="Layer_1-2" data-name="Layer 1"><g id="Frame_-_24px" data-name="Frame - 24px"><rect class="cls-1" width="43.2" height="43.2"/></g><g id="Line_Icons" data-name="Line Icons"><path class="cls-2" d="M34.2,34.2H9a1.8,1.8,0,0,1-1.75-1.36l-3.6-14.4a1.8,1.8,0,0,1,2.67-2L13.85,21,20.1,11.6a1.87,1.87,0,0,1,3,0L29.35,21l7.53-4.52a1.8,1.8,0,0,1,2.67,2l-3.6,14.4A1.8,1.8,0,0,1,34.2,34.2Z"/><rect class="cls-3" x="7.87" y="36.5" width="27.71" height="3.6"/><path class="cls-3" d="M22.24,2.44a.9.9,0,0,0-1.27,0L18.64,4.76a.9.9,0,0,0,0,1.27L21,8.36a.9.9,0,0,0,1.27,0L24.56,6a.9.9,0,0,0,0-1.27Z"/></g></g></g></svg>