<svg xmlns="http://www.w3.org/2000/svg" viewBox="0 0 43.2 43.2"><defs><style>.cls-1{fill:none;}.cls-2{fill:#0380d3;}.cls-3{fill:#61cae2;}</style></defs><title>milestones</title><g id="Layer_2" data-name="Layer 2"><g id="Layer_1-2" data-name="Layer 1"><g id="Frame_-_24px" data-name="Frame - 24px"><rect class="cls-1" width="43.2" height="43.2"/></g><g id="Filled_Icons" data-name="Filled Icons"><rect class="cls-2" x="5.4" y="3.6" width="3.6" height="36"/><path class="cls-2" d="M36,10.8H27V5.4a1.8,1.8,0,0,0-1.8-1.8H12.6a1.8,1.8,0,0,0-1.8,1.8v18a1.8,1.8,0,0,0,1.8,1.8h9l-3.24,4.32A1.8,1.8,0,0,0,19.8,32.4H36a1.8,1.8,0,0,0,1.8-1.8v-18A1.8,1.8,0,0,0,36,10.8Z"/></g><g id="Filled_Icons-2" data-name="Filled Icons"><rect class="cls-2" x="5.4" y="3.6" width="3.6" height="36"/><path class="cls-3" d="M21.6,25.2h-9a1.8,1.8,0,0,1-1.8-1.8V5.4a1.8,1.8,0,0,1,1.8-1.8H25.2A1.8,1.8,0,0,1,27,5.4V23.11a2.09,2.09,0,0,1-2.09,2.09Z"/></g></g></g></svg>