<svg xmlns="http://www.w3.org/2000/svg" viewBox="0 0 45.18 43.2"><defs><style>.cls-1{fill:none;}.cls-2{fill:#0380d3;}.cls-3{fill:#61cae2;}</style></defs><title>ownership</title><g id="Layer_2" data-name="Layer 2"><g id="Layer_1-2" data-name="Layer 1"><g id="Frame_-_24px" data-name="Frame - 24px"><rect class="cls-1" width="43.2" height="43.2"/></g><path class="cls-2" d="M16.23,6.36h-8a3.82,3.82,0,0,0-3.81,3.81V36.84a3.82,3.82,0,0,0,3.81,3.81H34.94a3.82,3.82,0,0,0,3.81-3.81V6.36M21.6,14a5.72,5.72,0,1,1-5.72,5.72A5.71,5.71,0,0,1,21.6,14ZM33,36.84H10.17V34.18c0-3.81,7.62-5.91,11.43-5.91S33,30.37,33,34.18Z"/><polygon class="cls-3" points="45.18 6.2 39.34 6.2 39.34 0.35 35.05 0.35 35.05 6.2 29.2 6.2 29.2 10.49 35.05 10.49 35.05 16.33 39.34 16.33 39.34 10.49 45.18 10.49 45.18 6.2"/></g></g></svg>