<svg xmlns="http://www.w3.org/2000/svg" viewBox="0 0 43.2 43.2"><defs><style>.cls-1{fill:none;}.cls-2{fill:#0380d3;}.cls-3{fill:#61cae2;}</style></defs><title>pivot-filter</title><g id="Layer_2" data-name="Layer 2"><g id="Layer_1-2" data-name="Layer 1"><g id="Frame_-_24px" data-name="Frame - 24px"><rect class="cls-1" width="43.2" height="43.2"/></g><g id="Filled_Icons" data-name="Filled Icons"><rect class="cls-2" x="7.2" y="18" width="7.2" height="7.2"/><rect class="cls-2" x="18" y="28.8" width="7.2" height="7.2"/><rect class="cls-2" x="7.2" y="28.8" width="7.2" height="7.2"/><path class="cls-2" d="M28.8,21.55V39.6H3.6V14.4H18.48a12.52,12.52,0,0,1-1.09-3.6H0V43.2H32.4V21.34a12.61,12.61,0,0,1-2.55.26C29.5,21.6,29.15,21.57,28.8,21.55Z"/><path class="cls-2" d="M25.2,20.7A12.58,12.58,0,0,1,21,18H18v7.2h7.2Z"/><path class="cls-3" d="M37.36,14a9,9,0,1,0-2.55,2.55l5.84,5.84L43.2,19.8Zm-7.5.44A5.4,5.4,0,1,1,35.25,9,5.41,5.41,0,0,1,29.85,14.4Z"/></g></g></g></svg>