<svg xmlns="http://www.w3.org/2000/svg" viewBox="0 0 51.94 51.95"><defs><style>.cls-1{fill:none;}.cls-2{fill:#0380d3;}.cls-3{fill:#61cae2;}</style></defs><title>private-cloud</title><g id="Layer_2" data-name="Layer 2"><g id="Layer_1-2" data-name="Layer 1"><g id="Frame_-_24px" data-name="Frame - 24px"><rect class="cls-1" width="51.94" height="51.94"/></g><g id="Filled_Icons" data-name="Filled Icons"><path class="cls-2" d="M41.12,19.48c.51,0,1,0,1.5.08A15.15,15.15,0,0,0,15.2,7.27,16.72,16.72,0,0,1,21.62,13l-1.77,1.25c-3.24-4.6-6-5.58-9-5.58a10.82,10.82,0,1,0,0,21.64H26.61A15.15,15.15,0,0,1,41.12,19.48Z"/><path class="cls-3" d="M49.78,32.46a8.66,8.66,0,1,0-17.31,0,2.16,2.16,0,0,0-2.16,2.16V49.78a2.16,2.16,0,0,0,2.16,2.16H49.78a2.16,2.16,0,0,0,2.16-2.16V34.63A2.16,2.16,0,0,0,49.78,32.46Zm-8.66-4.33a4.33,4.33,0,0,1,4.33,4.33H36.79A4.33,4.33,0,0,1,41.12,28.13Zm6.49,19.48h-13V36.79h13Z"/><circle class="cls-3" cx="41.12" cy="42.09" r="2.16"/></g></g></g></svg>