<svg xmlns="http://www.w3.org/2000/svg" viewBox="0 0 43.2 43.2"><defs><style>.cls-1{fill:none;}.cls-2{fill:#0380d3;}.cls-3{fill:#61cae2;}</style></defs><title>resourcing</title><g id="Layer_2" data-name="Layer 2"><g id="Layer_1-2" data-name="Layer 1"><g id="Frame_-_24px" data-name="Frame - 24px"><rect class="cls-1" width="43.2" height="43.2"/></g><g id="Filled_Icons" data-name="Filled Icons"><path class="cls-2" d="M16.18,28.78a5.13,5.13,0,1,1-5.13-5.13,5.13,5.13,0,0,1,5.13,5.13"/><path class="cls-2" d="M21,42.12A8.19,8.19,0,0,0,13.1,36H9a8.19,8.19,0,0,0-7.92,6.16Z"/><path class="cls-3" d="M37.28,28.78a5.13,5.13,0,1,1-5.13-5.13,5.13,5.13,0,0,1,5.13,5.13"/><path class="cls-3" d="M42.12,42.12A8.19,8.19,0,0,0,34.2,36H30.1a8.19,8.19,0,0,0-7.92,6.16Z"/><path class="cls-2" d="M26.73,6.21A5.13,5.13,0,1,1,21.6,1.08a5.13,5.13,0,0,1,5.13,5.13"/><path class="cls-2" d="M31.57,19.55a8.19,8.19,0,0,0-7.92-6.16h-4.1a8.19,8.19,0,0,0-7.92,6.16Z"/></g></g></g></svg>