<svg xmlns="http://www.w3.org/2000/svg" viewBox="0 0 51.94 51.94"><defs><style>.cls-1{fill:none;}.cls-2{fill:#61cae2;}.cls-3{fill:#0380d3;}</style></defs><title>reviewer</title><g id="Layer_2" data-name="Layer 2"><g id="Layer_1-2" data-name="Layer 1"><g id="Frame_-_24px" data-name="Frame - 24px"><rect class="cls-1" width="51.94" height="51.94"/></g><g id="Filled_Icons" data-name="Filled Icons"><path class="cls-2" d="M23.81,17.31C10.06,17.31,0,32.46,0,32.46S10.06,47.61,23.81,47.61,47.61,32.46,47.61,32.46,37.55,17.31,23.81,17.31Zm0,23.81a8.66,8.66,0,1,1,8.66-8.66A8.66,8.66,0,0,1,23.81,41.12Z"/><circle class="cls-3" cx="23.81" cy="32.46" r="4.33"/><polygon class="cls-3" points="41.12 8.66 41.12 2.16 36.79 2.16 36.79 8.66 30.3 8.66 30.3 12.99 36.79 12.99 36.79 19.48 41.12 19.48 41.12 12.99 47.61 12.99 47.61 8.66 41.12 8.66"/></g></g></g></svg>