<svg xmlns="http://www.w3.org/2000/svg" viewBox="0 0 51.94 51.94"><defs><style>.cls-1{fill:none;}.cls-2{fill:#61cae2;}.cls-3{fill:#0380d3;}</style></defs><title>saml</title><g id="Layer_2" data-name="Layer 2"><g id="Layer_1-2" data-name="Layer 1"><g id="Frame_-_24px" data-name="Frame - 24px"><rect class="cls-1" width="51.94" height="51.94"/></g><g id="Filled_Icons" data-name="Filled Icons"><path class="cls-2" d="M7.38,21.33H2.74V7.39A4.65,4.65,0,0,1,7.38,2.74H21.32V7.39H7.38Z"/><path class="cls-2" d="M49.2,21.33H44.56V7.39H30.62V2.74H44.56A4.65,4.65,0,0,1,49.2,7.39Z"/><path class="cls-2" d="M21.32,49.2H7.38a4.65,4.65,0,0,1-4.65-4.65V30.62H7.38V44.56H21.32Z"/><path class="cls-2" d="M44.56,49.2H30.62V44.56H44.56V30.62H49.2V44.56A4.65,4.65,0,0,1,44.56,49.2Z"/><path class="cls-3" d="M34.63,23.81V21.64a8.66,8.66,0,0,0-17.31,0v2.16H15.15V39H36.79V23.81ZM26,34.63a3.25,3.25,0,1,1,3.25-3.25A3.25,3.25,0,0,1,26,34.63ZM30.3,23.81H21.64V21.64a4.33,4.33,0,0,1,8.66,0Z"/></g></g></g></svg>