<svg xmlns="http://www.w3.org/2000/svg" viewBox="0 0 51.94 51.94"><defs><style>.cls-1{fill:none;}.cls-2{fill:#0380d3;}.cls-3{fill:#61cae2;}</style></defs><title>scale</title><g id="Layer_2" data-name="Layer 2"><g id="Layer_1-2" data-name="Layer 1"><g id="Frame_-_24px" data-name="Frame - 24px"><rect class="cls-1" width="51.94" height="51.94"/></g><g id="Filled_Icons" data-name="Filled Icons"><path class="cls-2" d="M15.15,41.12A2.16,2.16,0,0,0,13,39H6.49a2.16,2.16,0,0,0-2.16,2.16v4.33a2.16,2.16,0,0,0,2.16,2.16H13a2.16,2.16,0,0,0,2.16-2.16V41.12Z"/><path class="cls-2" d="M30.3,26a2.16,2.16,0,0,0-2.16-2.16H21.64A2.16,2.16,0,0,0,19.48,26V45.45a2.16,2.16,0,0,0,2.16,2.16h6.49a2.16,2.16,0,0,0,2.16-2.16Z"/><path class="cls-3" d="M45.45,47.61H36.79a2.16,2.16,0,0,1-2.16-2.16V10.82a2.16,2.16,0,0,1,2.16-2.16h8.66a2.16,2.16,0,0,1,2.16,2.16V45.45A2.16,2.16,0,0,1,45.45,47.61ZM39,43.29h4.33V13H39Z"/></g></g></g></svg>