<svg xmlns="http://www.w3.org/2000/svg" viewBox="0 0 51.94 51.94"><defs><style>.cls-1{fill:none;}.cls-2{fill:#fff;}.cls-3{fill:#61cae2;}</style></defs><title>stakeholder_1</title><g id="Layer_2" data-name="Layer 2"><g id="Layer_1-2" data-name="Layer 1"><g id="Frame_-_24px" data-name="Frame - 24px"><rect class="cls-1" width="51.94" height="51.94"/></g><g id="Filled_Icons" data-name="Filled Icons"><path class="cls-2" d="M15.61,9.86H11V35.18a4.61,4.61,0,0,0,4.6,4.6h23v-4.6h-23Z"/><path class="cls-2" d="M6.41,19.07H1.81V44.38A4.61,4.61,0,0,0,6.41,49h23v-4.6h-23Z"/><path class="cls-3" d="M45.53,3H24.82a4.6,4.6,0,0,0-4.6,4.6V26a4.6,4.6,0,0,0,4.6,4.6H45.53a4.6,4.6,0,0,0,4.6-4.6V7.56A4.61,4.61,0,0,0,45.53,3ZM35.18,7.56a4.6,4.6,0,1,1-4.6,4.6A4.6,4.6,0,0,1,35.18,7.56ZM28.27,26a6.9,6.9,0,1,1,13.81,0Z"/></g></g></g></svg>