<svg xmlns="http://www.w3.org/2000/svg" viewBox="0 0 51.94 51.94"><defs><style>.cls-1{fill:none;}.cls-2{fill:#0380d3;}.cls-3{fill:#61cae2;}</style></defs><title>support_1</title><g id="Layer_2" data-name="Layer 2"><g id="Layer_1-2" data-name="Layer 1"><g id="Frame_-_24px" data-name="Frame - 24px"><rect class="cls-1" width="51.94" height="51.94"/></g><g id="Filled_Icons" data-name="Filled Icons"><path class="cls-2" d="M37.62,29.85A15.53,15.53,0,0,1,22.09,14.41c-9.8.88-17.48,8.34-17.48,17.39a16,16,0,0,0,3.05,9.39l-5,8.09H24c10.71,0,19.42-7.84,19.42-17.48a15.67,15.67,0,0,0-.3-3A15.42,15.42,0,0,1,37.62,29.85Z"/><path class="cls-3" d="M37.62,2.67A11.65,11.65,0,1,0,49.27,14.32,11.67,11.67,0,0,0,37.62,2.67Zm1.94,19.42H35.67V14.32h3.88Zm0-11.65A1.94,1.94,0,1,1,37.62,8.5,1.94,1.94,0,0,1,39.56,10.44Z"/></g></g></g></svg>