<?xml version="1.0" encoding="utf-8"?>
<!-- Generator: Adobe Illustrator 21.1.0, SVG Export Plug-In . SVG Version: 6.00 Build 0)  -->
<svg version="1.1" id="Layer_1" xmlns="http://www.w3.org/2000/svg" xmlns:xlink="http://www.w3.org/1999/xlink" x="0px" y="0px"
	 viewBox="0 0 873.2 539" style="enable-background:new 0 0 873.2 539;" xml:space="preserve">
<style type="text/css">
	.st0{fill:#FFFFFF;}
	.st1{fill:#CCCCCC;}
	.st2{fill:#FAFAFA;}
	.st3{fill:#A5A5AF;}
	.st4{fill:#0380D3;}
	.st5{fill:#808080;}
	.st6{fill:#6B449B;}
	.st7{fill:#E2E2E6;}
	.st8{fill:#4A525A;}
	.st9{fill:#3A3E74;}
	.st10{fill:#75D891;}
	.st11{fill:#EFEFEF;}
	.st12{fill:#79A6F3;}
	.st13{fill:#FF7150;}
</style>
<symbol  id="timeline" viewBox="-436.6 -269.5 873.2 539">
	<g id="swimlane_1_">
		<path class="st0" d="M-436.1-233h872.2l0,0v490.1c0,6.6-5.3,11.9-11.9,11.9l0,0h-848.4c-6.6,0-11.9-5.3-11.9-11.9c0,0,0,0,0,0
			V-233L-436.1-233z"/>
		<path class="st1" d="M424.2,269.5h-848.4c-6.8,0-12.4-5.5-12.4-12.3v-490.7h873.2v490.7C436.6,264,431,269.5,424.2,269.5z
			 M-435.6-232.5v489.7c0,6.3,5.1,11.3,11.4,11.3h848.4c6.3,0,11.4-5.1,11.4-11.4v-489.6H-435.6z"/>
		<path class="st2" d="M-430.1-269h860.2c3.3,0,6,2.7,6,6v30l0,0h-872.2l0,0v-30C-436.1-266.3-433.4-269-430.1-269z"/>
		<path class="st1" d="M436.6-232.5h-873.2V-263c0-3.6,2.9-6.5,6.5-6.5h860.2c3.6,0,6.5,2.9,6.5,6.5V-232.5z M-435.6-233.5h871.2
			V-263c0-3-2.5-5.5-5.5-5.5h-860.2c-3,0-5.5,2.5-5.5,5.5V-233.5z"/>
		<rect x="358" y="-269" class="st1" width="0.5" height="36"/>
		<rect x="396.9" y="-269" class="st1" width="0.5" height="36"/>
		<rect x="319" y="-269" class="st1" width="0.5" height="36"/>
		<rect x="280.1" y="-269" class="st1" width="0.5" height="36"/>
		<rect x="241.2" y="-269" class="st1" width="0.5" height="36"/>
		<path class="st3" d="M-405.6-242.8h-12c-1.2,0-2.2-1-2.2-2.2v-11.5c0-1.2,1-2.2,2.1-2.2c0,0,0,0,0,0h12c1.2,0,2.2,0.9,2.2,2.1
			c0,0,0,0,0,0.1v11.5C-403.4-243.8-404.4-242.8-405.6-242.8C-405.6-242.8-405.6-242.8-405.6-242.8z M-417.6-257.9
			c-0.8,0-1.4,0.6-1.4,1.3c0,0,0,0,0,0v11.5c0,0.8,0.6,1.4,1.4,1.4c0,0,0,0,0,0h12c0.8,0,1.4-0.6,1.4-1.4c0,0,0,0,0,0v-11.5
			c0-0.8-0.6-1.4-1.3-1.4c0,0,0,0,0,0H-417.6z"/>
		<path class="st3" d="M-419.4-255.7c0-1.5,1.2-2.6,2.7-2.6c0,0,0,0,0,0h11.2c1.5,0,1.7,1.2,1.7,2.6"/>
		<rect x="-409.5" y="-256.6" class="st3" width="0.8" height="13.3"/>
		<rect x="-414.6" y="-256.6" class="st3" width="0.8" height="13.3"/>
		<rect x="-419.4" y="-247.9" class="st3" width="15.6" height="0.8"/>
		<rect x="-419.4" y="-252.6" class="st3" width="15.6" height="0.8"/>
		<path class="st3" d="M347.8-254.1v-3.4c0-1.1-0.9-1.9-1.9-1.9l0,0h-14.2c-1.1,0-1.9,0.9-1.9,1.9c0,0,0,0,0,0v3.4L347.8-254.1z"/>
		<path class="st3" d="M335.1-252.4h-5.4v8.6c0,1.1,0.9,1.9,1.9,1.9l0,0h3.5L335.1-252.4z"/>
		<path class="st3" d="M336.8-252.4v10.5h9.1c1.1,0,1.9-0.9,1.9-1.9c0,0,0,0,0,0v-8.6H336.8z"/>
		<path class="st4" d="M164.9-261h64.6c0.7,0,1.3,0.6,1.3,1.3v18.7c0,0.7-0.6,1.4-1.3,1.4h-64.6c-0.7,0-1.3-0.6-1.3-1.4v-18.7
			C163.6-260.4,164.2-261,164.9-261z"/>
		<polygon class="st0" points="202.6,-251.9 198.4,-251.9 198.4,-256 196.1,-256 196.1,-251.9 191.9,-251.9 191.9,-249.8 
			196.1,-249.8 196.1,-245.6 198.4,-245.6 198.4,-249.8 202.6,-249.8 		"/>
		<path class="st3" d="M299.8-259.7c-5.5,0-9.1,1-9.1,1.8c0,0.8,7.7,8.2,7.7,8.2v8l2.8-3v-5c0,0,7.7-7.7,7.7-8.2
			C309-258.7,305.4-259.7,299.8-259.7z"/>
		<path class="st3" d="M143.2-246.2c-3.6,0-6.6-2.9-6.6-6.6s2.9-6.6,6.6-6.6s6.6,2.9,6.6,6.6c0,0,0,0,0,0
			C149.7-249.1,146.8-246.2,143.2-246.2z M143.2-257.8c-2.8,0-5.1,2.3-5.1,5.1s2.3,5.1,5.1,5.1s5.1-2.3,5.1-5.1l0,0
			C148.2-255.6,146-257.8,143.2-257.8z"/>
		<polygon class="st3" points="152.3,-241.6 146.2,-247.7 147.3,-248.7 153.4,-242.7 		"/>
		<polygon class="st3" points="268,-247.5 268,-245.2 253.8,-245.2 253.8,-247.5 250,-247.5 250,-245.2 250,-243.7 250,-241.9 
			271.7,-241.9 271.7,-243.7 271.7,-245.2 271.7,-247.5 		"/>
		<polygon class="st3" points="260.9,-248.9 265.9,-253.9 261.9,-253.9 261.9,-259.4 259.9,-259.4 259.9,-253.9 255.8,-253.9 		"/>
		<polygon class="st3" points="384.8,-247.5 384.8,-245.2 370.6,-245.2 370.6,-247.5 366.9,-247.5 366.9,-245.2 366.9,-243.8 
			366.9,-242 388.5,-242 388.5,-243.8 388.5,-245.2 388.5,-247.5 		"/>
		<polygon class="st3" points="377.7,-259.4 372.7,-254.3 376.7,-254.3 376.7,-248.9 378.7,-248.9 378.7,-254.3 382.7,-254.3 		"/>
		<circle class="st3" cx="408.9" cy="-250.7" r="2.3"/>
		<circle class="st3" cx="416.7" cy="-250.7" r="2.3"/>
		<circle class="st3" cx="424.5" cy="-250.7" r="2.3"/>
	</g>
	<path class="st4" d="M-351.6-252.7c1.1,0,2.1-0.7,2.6-1.7h7.3c0.4,1,1.5,1.7,2.6,1.7c1.5,0,2.7-1.2,2.7-2.7c0-1.5-1.2-2.7-2.7-2.7
		c-1.1,0-2.1,0.7-2.6,1.7h-7.3c-0.4-1-1.5-1.7-2.6-1.7c-1.5,0-2.7,1.2-2.7,2.7C-354.3-253.9-353.1-252.7-351.6-252.7z"/>
	<path class="st4" d="M-339.1-248.7c-1.1,0-2.1,0.7-2.6,1.7h-7.3c-0.4-1-1.5-1.7-2.6-1.7c-1.5,0-2.7,1.2-2.7,2.7
		c0,1.5,1.2,2.7,2.7,2.7c1.1,0,2.1-0.7,2.6-1.7h7.3c0.4,1,1.5,1.7,2.6,1.7c1.5,0,2.7-1.2,2.7-2.7
		C-336.5-247.5-337.7-248.7-339.1-248.7L-339.1-248.7z"/>
	<polygon class="st3" points="-371.4,-250.3 -373.9,-254.5 -371.4,-258.6 -381.6,-258.6 -382.1,-258.6 -382.9,-258.6 -382.9,-243.9 
		-384.4,-243.9 -384.4,-242.8 -380.3,-242.8 -380.3,-243.9 -381.6,-243.9 -381.6,-250.3 	"/>
	<path class="st1" d="M-221.5-211h442.9c1.2,0,2.1,1,2.1,2.1v2c0,1.2-1,2.1-2.1,2.1h-442.9c-1.2,0-2.1-1-2.1-2.1v-2
		C-223.6-210-222.6-211-221.5-211z"/>
	<path class="st5" d="M113.6-214.3c-2.4,0-4.6,1.3-5.8,3.3h-302.6c-1.2-2.1-3.4-3.3-5.8-3.3c-3.6-0.1-6.6,2.6-6.7,6.2
		c-0.1,3.6,2.6,6.6,6.2,6.7c0.2,0,0.3,0,0.5,0c2.4,0,4.6-1.3,5.8-3.3h302.6c1.2,2.1,3.4,3.3,5.8,3.3c3.6,0.1,6.6-2.6,6.7-6.2
		s-2.6-6.6-6.2-6.7C113.9-214.3,113.8-214.3,113.6-214.3z"/>
	<polygon class="st0" points="-199.6,-205.4 -203.1,-207.8 -199.6,-210.2 	"/>
	<polygon class="st0" points="112.6,-210.2 116.1,-207.8 112.6,-205.4 	"/>
</symbol>
<title>scrum-tl</title>
<g>
	<g id="Layer_2">
		<g id="App-background">
			
				<use xlink:href="#timeline"  width="873.2" height="539" x="-436.6" y="-269.5" transform="matrix(1 0 0 1 436.605 269.525)" style="overflow:visible;"/>
		</g>
		<g id="Scrum_Roadmap">
			<rect x="55.4" y="380.1" class="st6" width="61.6" height="19"/>
			<rect x="298.6" y="96.4" class="st7" width="0.5" height="418.1"/>
			<rect x="479.2" y="96.4" class="st7" width="0.5" height="418.1"/>
			<rect x="840.4" y="96.4" class="st7" width="0.5" height="418.1"/>
			<rect x="659.8" y="96.4" class="st7" width="0.5" height="418.1"/>
			<rect x="128" y="96.4" class="st7" width="0.5" height="418.1"/>
			<path class="st8" d="M193.2,87.3c-0.3,0.1-0.7,0.2-1.1,0.2c-1.2,0.1-2.2-0.6-2.7-1.7c-1.4-0.2-2.4-1.5-2.4-3.4
				c0-2.1,1.2-3.4,3-3.4s3,1.3,3,3.4c0,1.8-0.9,3.1-2.3,3.4c0.4,0.5,1,0.8,1.6,0.7c0.3,0,0.5,0,0.7-0.1L193.2,87.3z M190,84.9
				c1.1,0,1.8-0.9,1.8-2.4s-0.7-2.4-1.8-2.4s-1.8,0.9-1.8,2.4S188.9,84.9,190,84.9z"/>
			<path class="st8" d="M194.3,84.3c0.4,0.4,1,0.7,1.6,0.7c0.7,0,1.2-0.4,1.2-1s-0.4-1.1-1.9-1.1V82c1.3,0,1.7-0.4,1.7-1
				s-0.4-0.8-1-0.8c-0.5,0-1,0.2-1.3,0.6l-0.6-0.7c0.5-0.5,1.3-0.8,2-0.8c1.3,0,2.1,0.6,2.1,1.7c0,0.7-0.4,1.3-1.1,1.5l0,0
				c0.8,0.1,1.4,0.8,1.4,1.6c0,1.2-1.1,1.8-2.3,1.8c-0.8,0-1.7-0.3-2.2-0.9L194.3,84.3z"/>
			<path class="st8" d="M201.4,85.1c1.8-1.7,3-2.8,3-3.8c0.1-0.5-0.3-1-0.9-1.1c-0.1,0-0.1,0-0.2,0c-0.5,0-1,0.3-1.3,0.7l-0.7-0.6
				c0.5-0.6,1.3-1,2.1-1c1-0.1,2,0.7,2.1,1.7c0,0.1,0,0.2,0,0.3c0,1.1-1.1,2.3-2.4,3.6c0.3,0,0.8-0.1,1.1-0.1h1.6v1h-4.5L201.4,85.1
				z"/>
			<path class="st8" d="M206.7,82.6c0-2.2,0.9-3.3,2.2-3.3s2.2,1.1,2.2,3.3s-0.9,3.3-2.2,3.3S206.7,84.7,206.7,82.6z M210.1,82.6
				c0-1.8-0.5-2.4-1.1-2.4s-1.1,0.6-1.1,2.4s0.5,2.4,1.1,2.4S210.1,84.4,210.1,82.6L210.1,82.6z"/>
			<path class="st8" d="M212.4,84.8h1.5v-4.2h-1.2v-0.7c0.5-0.1,1.1-0.3,1.5-0.5h0.9v5.4h1.3v0.9h-4L212.4,84.8z"/>
			<path class="st8" d="M221.2,80.7c-0.3-0.3-0.6-0.5-1.1-0.5c-0.8,0-1.5,0.6-1.6,2.4c0.4-0.4,0.9-0.7,1.4-0.8
				c1-0.1,1.9,0.6,1.9,1.6c0,0.1,0,0.3,0,0.4c0.1,1.1-0.8,2-1.9,2.1c-0.1,0-0.1,0-0.2,0c-1.3,0-2.4-1-2.4-3.1c0-2.5,1.2-3.5,2.6-3.5
				c0.7,0,1.3,0.2,1.8,0.7L221.2,80.7z M220.8,83.8c0-0.8-0.4-1.1-1-1.1c-0.5,0-0.9,0.3-1.2,0.7c0.1,1.1,0.6,1.6,1.2,1.6
				S220.8,84.6,220.8,83.8z"/>
			<path class="st8" d="M379.9,87.3c-0.3,0.1-0.7,0.2-1.1,0.2c-1.2,0.1-2.2-0.6-2.7-1.7c-1.5-0.2-2.4-1.5-2.4-3.4
				c0-2.1,1.2-3.4,3-3.4s3,1.3,3,3.4c0,1.8-0.9,3.1-2.3,3.4c0.4,0.5,1,0.8,1.6,0.7c0.3,0,0.5,0,0.7-0.1L379.9,87.3z M376.7,84.9
				c1.1,0,1.8-0.9,1.8-2.4s-0.7-2.4-1.8-2.4s-1.8,0.9-1.8,2.4S375.6,84.9,376.7,84.9z"/>
			<path class="st8" d="M385.2,84.1h-0.8v1.7h-1.1v-1.7h-2.9v-0.8l2.6-4h1.4v3.8h0.8L385.2,84.1z M383.2,83.2v-1.4c0-0.4,0-1,0-1.3
				l0,0c-0.2,0.3-0.4,0.7-0.5,1l-1.2,1.8H383.2z"/>
			<path class="st8" d="M388,85.1c1.8-1.7,3-2.8,3-3.8c0.1-0.5-0.3-1-0.9-1.1c-0.1,0-0.1,0-0.2,0c-0.5,0-1,0.3-1.3,0.7l-0.7-0.6
				c0.5-0.6,1.3-1,2.1-1c1-0.1,2,0.7,2.1,1.7c0,0.1,0,0.2,0,0.3c0,1.1-1.1,2.3-2.4,3.6c0.3,0,0.8-0.1,1.1-0.1h1.6v1h-4.5L388,85.1z"
				/>
			<path class="st8" d="M393.4,82.6c0-2.2,0.9-3.3,2.2-3.3s2.2,1.1,2.2,3.3s-0.9,3.3-2.2,3.3S393.4,84.7,393.4,82.6z M396.8,82.6
				c0-1.8-0.5-2.4-1.1-2.4s-1.1,0.6-1.1,2.4s0.4,2.4,1.1,2.4S396.8,84.4,396.8,82.6L396.8,82.6z"/>
			<path class="st8" d="M399.1,84.8h1.5v-4.2h-1.2v-0.7c0.5-0.1,1.1-0.3,1.5-0.5h0.9v5.4h1.3v0.9h-4L399.1,84.8z"/>
			<path class="st8" d="M407.9,80.7c-0.3-0.3-0.6-0.5-1-0.5c-0.8,0-1.5,0.6-1.6,2.4c0.4-0.4,0.9-0.7,1.4-0.8c1-0.1,1.9,0.6,1.9,1.6
				c0,0.1,0,0.3,0,0.4c0.1,1.1-0.8,2-1.9,2.1c-0.1,0-0.1,0-0.2,0c-1.3,0-2.4-1-2.4-3.1c0-2.5,1.2-3.5,2.6-3.5c0.7,0,1.3,0.2,1.8,0.7
				L407.9,80.7z M407.5,83.8c0-0.8-0.4-1.1-1-1.1c-0.5,0-0.9,0.3-1.2,0.7c0.1,1.1,0.6,1.6,1.2,1.6S407.5,84.6,407.5,83.8L407.5,83.8
				z"/>
			<path class="st8" d="M565.2,87.3c-0.3,0.1-0.7,0.2-1.1,0.2c-1.2,0.1-2.2-0.6-2.7-1.7c-1.5-0.2-2.4-1.5-2.4-3.4
				c0-2.1,1.2-3.4,3-3.4s3,1.3,3,3.4c0,1.8-0.9,3.1-2.3,3.4c0.4,0.5,1,0.8,1.6,0.7c0.3,0,0.5,0,0.7-0.1L565.2,87.3z M561.9,84.9
				c1.1,0,1.8-0.9,1.8-2.4s-0.7-2.4-1.8-2.4s-1.8,0.9-1.8,2.4S560.8,84.9,561.9,84.9z"/>
			<path class="st8" d="M566.2,84.8h1.5v-4.2h-1.2v-0.7c0.5-0.1,1.1-0.3,1.5-0.5h0.9v5.4h1.3v0.9h-4V84.8z"/>
			<path class="st8" d="M573.3,85.1c1.8-1.7,3-2.8,3-3.8c0.1-0.5-0.3-1-0.9-1.1c-0.1,0-0.1,0-0.2,0c-0.5,0-1,0.3-1.3,0.7l-0.7-0.6
				c0.5-0.6,1.3-1,2.1-1c1-0.1,2,0.7,2.1,1.7c0,0.1,0,0.2,0,0.3c0,1.1-1.1,2.3-2.4,3.6c0.3,0,0.8-0.1,1.1-0.1h1.6v1h-4.5V85.1z"/>
			<path class="st8" d="M578.7,82.6c0-2.2,0.9-3.3,2.2-3.3s2.2,1.1,2.2,3.3s-0.9,3.3-2.2,3.3S578.7,84.7,578.7,82.6z M582,82.6
				c0-1.8-0.5-2.4-1.1-2.4s-1.1,0.6-1.1,2.4s0.5,2.4,1.1,2.4S582,84.4,582,82.6z"/>
			<path class="st8" d="M584.3,84.8h1.5v-4.2h-1.2v-0.7c0.5-0.1,1.1-0.3,1.5-0.5h0.9v5.4h1.3v0.9h-4L584.3,84.8z"/>
			<path class="st8" d="M592.5,80.4h-3.1v-1h4.4v0.7c-1.5,1.9-1.8,3.2-1.9,5.7h-1.2C590.7,83.8,591.3,81.9,592.5,80.4z"/>
			<path class="st8" d="M744.7,87.3c-0.3,0.1-0.7,0.2-1.1,0.2c-1.2,0.1-2.2-0.6-2.7-1.7c-1.5-0.2-2.4-1.5-2.4-3.4
				c0-2.1,1.2-3.4,3-3.4s3,1.3,3,3.4c0,1.8-0.9,3.1-2.3,3.4c0.4,0.5,1,0.8,1.6,0.7c0.3,0,0.5,0,0.7-0.1L744.7,87.3z M741.4,84.9
				c1.1,0,1.8-0.9,1.8-2.4s-0.7-2.4-1.8-2.4s-1.8,0.9-1.8,2.4S740.3,84.9,741.4,84.9z"/>
			<path class="st8" d="M745.3,85.1c1.8-1.7,3-2.8,3-3.8c0.1-0.5-0.3-1-0.9-1.1c-0.1,0-0.1,0-0.2,0c-0.5,0-1,0.3-1.3,0.7l-0.7-0.6
				c0.5-0.6,1.3-1,2.1-1c1-0.1,2,0.7,2.1,1.7c0,0.1,0,0.2,0,0.3c0,1.1-1.1,2.3-2.4,3.6c0.3,0,0.8-0.1,1.1-0.1h1.6v1h-4.5V85.1z"/>
			<path class="st8" d="M752.8,85.1c1.8-1.7,3-2.8,3-3.8c0.1-0.5-0.3-1-0.9-1.1c-0.1,0-0.1,0-0.2,0c-0.5,0-1,0.3-1.3,0.7l-0.7-0.6
				c0.5-0.6,1.3-1,2.1-1c1-0.1,2,0.7,2.1,1.7c0,0.1,0,0.2,0,0.3c0,1.1-1.1,2.3-2.4,3.6c0.3,0,0.8-0.1,1.1-0.1h1.6v1h-4.5V85.1z"/>
			<path class="st8" d="M758.1,82.6c0-2.2,0.9-3.3,2.2-3.3s2.2,1.1,2.2,3.3s-0.9,3.3-2.2,3.3S758.1,84.7,758.1,82.6z M761.5,82.6
				c0-1.8-0.5-2.4-1.1-2.4s-1.1,0.6-1.1,2.4s0.5,2.4,1.1,2.4S761.5,84.4,761.5,82.6z"/>
			<path class="st8" d="M763.8,84.8h1.5v-4.2h-1.2v-0.7c0.5-0.1,1.1-0.3,1.5-0.5h0.9v5.4h1.3v0.9h-4L763.8,84.8z"/>
			<path class="st8" d="M772,80.4h-3.1v-1h4.4v0.7c-1.5,1.9-1.8,3.2-1.9,5.7h-1.2C770.1,83.8,770.8,81.9,772,80.4z"/>
			<rect x="127.8" y="74.8" class="st7" width="1" height="16.5"/>
			<rect x="298.4" y="74.8" class="st7" width="1" height="16.5"/>
			<rect x="479" y="74.8" class="st7" width="1" height="16.5"/>
			<rect x="659.6" y="74.8" class="st7" width="1" height="16.5"/>
			<rect x="840.2" y="74.8" class="st7" width="1" height="16.5"/>
			<rect x="24.5" y="96.4" class="st9" width="27.5" height="87.2"/>
			<rect x="55.4" y="164.7" class="st10" width="61.6" height="19"/>
			<path class="st0" d="M66.7,175.8H66v1.4h-0.9v-1.4h-2.4v-0.7l2.2-3.4H66v3.3h0.7V175.8z M65.1,175v-1.3c0-0.3,0-0.8,0-1.1l0,0
				c-0.1,0.3-0.3,0.6-0.4,0.9l-1,1.5L65.1,175z"/>
			<g>
				<rect x="128.3" y="96.4" class="st11" width="712.4" height="19"/>
			</g>
			<g>
				<rect x="128.3" y="119.2" class="st11" width="712.4" height="19"/>
			</g>
			<g>
				<rect x="128.3" y="141.9" class="st11" width="712.4" height="19"/>
			</g>
			<g>
				<rect x="128.3" y="164.7" class="st11" width="712.4" height="19"/>
			</g>
			<rect x="55.4" y="96.4" class="st12" width="61.6" height="19"/>
			<rect x="55.4" y="119.2" class="st4" width="61.6" height="19"/>
			<rect x="55.4" y="141.9" class="st13" width="61.6" height="19"/>
			<path class="st0" d="M36.2,151v-1h3.3c1.2,0,1.7-0.5,1.7-1.1s-0.4-1.2-1.7-1.2h-3.3v-1h3.2c1.9,0,2.6,0.8,2.6,2.1
				s-0.7,2.2-2.6,2.2H36.2z"/>
			<path class="st0" d="M38.9,144.4l-2.8,1.5v-1.1l1.3-0.6l0.9-0.4l0,0c-0.3-0.1-0.6-0.3-0.9-0.4l-1.3-0.6v-1.1l2.8,1.5l2.9-1.6v1.1
				l-1.3,0.7l-0.9,0.4l0,0c0.3,0.1,0.6,0.3,0.9,0.4l1.3,0.7v1.1L38.9,144.4z"/>
			<path class="st0" d="M35.7,139.3v-0.7l7.6,2v0.7L35.7,139.3z"/>
			<path class="st0" d="M36.2,137.8v-1h3.3c1.2,0,1.7-0.5,1.7-1.1s-0.4-1.2-1.7-1.2h-3.3v-1h3.2c1.9,0,2.6,0.8,2.6,2.1
				s-0.7,2.1-2.6,2.1L36.2,137.8z"/>
			<path class="st0" d="M36.2,132.1v-1h5.7v1H36.2z"/>
			<path class="st0" d="M63.1,108.4h1.2v-3.7h-1v-0.6c0.4-0.1,0.9-0.2,1.3-0.4h0.7v4.7h1.1v0.8h-3.3V108.4z"/>
			<path class="st0" d="M62.8,131c1.5-1.5,2.5-2.5,2.5-3.3c0.1-0.5-0.2-0.9-0.7-1c-0.1,0-0.1,0-0.2,0c-0.4,0-0.8,0.3-1.1,0.6
				l-0.5-0.6c0.4-0.5,1.1-0.9,1.8-0.9c0.9-0.1,1.7,0.6,1.7,1.5c0,0.1,0,0.2,0,0.2c0,1-0.9,2-2,3.2c0.3,0,0.7-0.1,0.9-0.1h1.3v0.9
				h-3.7V131z"/>
			<path class="st0" d="M63.2,153.1c0.3,0.4,0.8,0.6,1.3,0.6c0.6,0,1-0.3,1-0.8s-0.4-0.9-1.6-0.9v-0.7c1.1,0,1.4-0.4,1.4-0.9
				c0-0.4-0.3-0.7-0.7-0.7c0,0-0.1,0-0.1,0c-0.4,0-0.8,0.2-1.1,0.5l-0.5-0.6c0.4-0.4,1-0.7,1.6-0.7c1.1,0,1.8,0.5,1.8,1.5
				c0,0.6-0.4,1.1-1,1.3l0,0c0.7,0.1,1.1,0.7,1.1,1.4c0,0.9-0.9,1.7-1.8,1.6c0,0-0.1,0-0.1,0c-0.7,0-1.4-0.3-1.9-0.8L63.2,153.1z"/>
			<rect x="127.9" y="96.4" class="st12" width="170.4" height="19"/>
			<path class="st0" d="M190.2,102.7h1.1l0.5,3l0.3,1.9l0,0c0.1-0.6,0.2-1.3,0.4-1.9l0.7-3h0.9l0.7,3c0.1,0.6,0.3,1.2,0.4,1.9l0,0
				c0.1-0.6,0.2-1.3,0.3-1.9l0.5-3h1l-1.1,5.9h-1.3l-0.7-3.1c-0.1-0.5-0.2-0.9-0.3-1.4l0,0c-0.1,0.4-0.2,0.9-0.3,1.4l-0.7,3.1h-1.3
				L190.2,102.7z"/>
			<path class="st0" d="M197.9,102.7h1v5.9h-1V102.7z"/>
			<path class="st0" d="M203.6,108.5l-1.3-2.3h-0.9v2.3h-1v-5.9h2c1.2,0,2.2,0.4,2.2,1.8c0,0.8-0.4,1.5-1.2,1.7l1.4,2.5H203.6z
				 M201.5,105.4h0.8c0.8,0,1.2-0.3,1.2-1s-0.4-0.9-1.2-0.9h-0.8V105.4z"/>
			<path class="st0" d="M205.8,102.7h3.5v0.9h-2.5v1.5h2.2v0.9h-2.1v1.7h2.6v0.9h-3.7V102.7z"/>
			<path class="st0" d="M210.6,102.7h3.6v0.9h-2.5v1.7h2.1v0.9h-2.1v2.5h-1L210.6,102.7z"/>
			<path class="st0" d="M218.4,108.5l-1.3-2.3h-0.9v2.3h-1v-5.9h2c1.2,0,2.2,0.4,2.2,1.8c0,0.8-0.4,1.5-1.2,1.7l1.4,2.5H218.4z
				 M216.2,105.4h0.8c0.8,0,1.2-0.3,1.2-1s-0.4-0.9-1.2-0.9h-0.8L216.2,105.4z"/>
			<path class="st0" d="M223.2,106.9h-2l-0.5,1.6h-1.1l1.9-5.9h1.2l1.9,5.9h-1.1L223.2,106.9z M222.9,106.1l-0.2-0.7
				c-0.2-0.6-0.4-1.3-0.5-1.9l0,0c-0.2,0.7-0.3,1.3-0.5,1.9l-0.2,0.7H222.9z"/>
			<path class="st0" d="M225.4,102.7h1.1l1.1,2.9l0.4,1.1l0,0l0.4-1.1l1-2.9h1.1v5.9h-1v-2.7c0-0.6,0.1-1.3,0.1-1.9l0,0l-0.5,1.3
				l-1,2.7h-0.5l-1-2.7l-0.5-1.3l0,0c0,0.5,0.1,1.3,0.1,1.9v2.7h-1L225.4,102.7z"/>
			<path class="st0" d="M232.1,102.7h3.5v0.9h-2.5v1.5h2.1v0.9h-2.1v1.7h2.6v0.9h-3.6V102.7z"/>
			<rect x="298.3" y="119.2" class="st4" width="181.1" height="19"/>
			<path class="st0" d="M345.1,125.4h1v3.4c0,1.3,0.5,1.7,1.2,1.7s1.2-0.4,1.2-1.7v-3.4h1v3.3c0,1.9-0.9,2.7-2.2,2.7
				s-2.2-0.8-2.2-2.7L345.1,125.4z"/>
			<path class="st0" d="M351.9,128.3l-1.6-2.8h1.2l0.7,1.3c0.1,0.3,0.3,0.6,0.4,0.9l0,0c0.1-0.3,0.3-0.6,0.4-0.9l0.6-1.3h1.1
				l-1.6,2.9l1.7,3h-1.2l-0.7-1.4l-0.5-1l0,0c-0.1,0.4-0.3,0.7-0.4,1l-0.7,1.4h-1.1L351.9,128.3z"/>
			<path class="st0" d="M357.6,125.4h1.6c1.4-0.2,2.7,0.9,2.9,2.3c0,0.2,0,0.4,0,0.6c0,2-1.1,3-2.8,3h-1.6V125.4z M359.1,130.4
				c1.2,0,1.9-0.7,1.9-2.1s-0.7-2.1-1.9-2.1h-0.5v4.2L359.1,130.4z"/>
			<path class="st0" d="M363.2,125.4h3.5v0.9h-2.5v1.5h2.1v0.9h-2.1v1.7h2.6v0.9h-3.6V125.4z"/>
			<path class="st0" d="M368.2,129.8c0.4,0.4,1,0.6,1.5,0.7c0.7,0,1-0.3,1-0.8s-0.4-0.6-0.9-0.9l-0.8-0.4c-0.7-0.2-1.2-0.8-1.2-1.6
				c0.1-1,0.9-1.7,1.9-1.7c0,0,0.1,0,0.1,0c0.7,0,1.3,0.3,1.8,0.8l-0.5,0.7c-0.3-0.3-0.8-0.5-1.3-0.5c-0.6,0-0.9,0.3-0.9,0.7
				s0.5,0.6,0.9,0.8l0.8,0.3c0.7,0.2,1.2,0.9,1.2,1.6c-0.1,1-0.9,1.8-2,1.8c-0.1,0-0.1,0-0.1,0c-0.8,0-1.6-0.3-2.1-0.9L368.2,129.8z
				"/>
			<path class="st0" d="M372.9,125.4h1v5.9h-1V125.4z"/>
			<path class="st0" d="M377.9,125.3c0.7,0,1.3,0.3,1.8,0.8l-0.6,0.7c-0.3-0.3-0.7-0.5-1.2-0.5c-1,0-1.8,0.8-1.8,2.1
				s0.6,2.1,1.8,2.1c0.3,0,0.6-0.1,0.8-0.3V129h-1.1v-0.9h2v2.6c-0.5,0.5-1.2,0.7-1.9,0.7c-1.5,0-2.7-1.2-2.8-2.7c0-0.1,0-0.2,0-0.3
				c-0.2-1.5,0.9-2.9,2.4-3.1C377.6,125.3,377.7,125.3,377.9,125.3z"/>
			<path class="st0" d="M381,125.4h1.1l1.8,3.3l0.6,1.2l0,0c0-0.6-0.1-1.4-0.1-2v-2.6h1v5.9h-1.1l-1.8-3.3l-0.6-1.2l0,0
				c0,0.6,0.1,1.3,0.1,2v2.6h-1L381,125.4z"/>
			<path class="st0" d="M389.9,126.3h-1.7v-0.9h4.4v0.9H391v5h-1L389.9,126.3z"/>
			<path class="st0" d="M393.6,125.4h3.5v0.9h-2.5v1.5h2.1v0.9h-2.1v1.7h2.6v0.9h-3.6V125.4z"/>
			<path class="st0" d="M398.4,125.4h1.1l1.1,2.9l0.4,1.1l0,0l0.4-1.1l1-2.9h1.1v5.9h-1v-2.7c0-0.6,0.1-1.3,0.1-1.9l0,0l-0.5,1.3
				l-1,2.7h-0.5l-1-2.7l-0.5-1.3l0,0c0,0.5,0.1,1.3,0.1,1.9v2.7h-1L398.4,125.4z"/>
			<path class="st0" d="M405.1,125.4h2c1.3,0,2.2,0.4,2.2,1.8s-1,1.9-2.2,1.9h-0.9v2.2h-1L405.1,125.4z M407,128.3
				c0.9,0,1.3-0.3,1.3-1.1s-0.4-1-1.3-1h-0.9v2L407,128.3z"/>
			<path class="st0" d="M410.4,125.4h1v5h2.4v0.9h-3.5L410.4,125.4z"/>
			<path class="st0" d="M417.6,129.7h-2l-0.5,1.6h-1l1.9-5.9h1.2l1.9,5.9h-1.1L417.6,129.7z M417.4,128.9l-0.2-0.7
				c-0.2-0.6-0.4-1.3-0.5-1.9l0,0c-0.2,0.7-0.3,1.3-0.5,1.9l-0.2,0.7H417.4z"/>
			<path class="st0" d="M420.7,126.3H419v-0.9h4.4v0.9h-1.7v5h-1L420.7,126.3z"/>
			<path class="st0" d="M424.4,125.4h3.5v0.9h-2.5v1.5h2.1v0.9h-2.1v1.7h2.5v0.9h-3.6V125.4z"/>
			<path class="st0" d="M429.4,129.8c0.4,0.4,1,0.6,1.5,0.7c0.7,0,1-0.3,1-0.8s-0.4-0.6-0.9-0.9l-0.8-0.4c-0.7-0.2-1.2-0.8-1.2-1.6
				c0.1-1,0.9-1.7,1.9-1.7c0,0,0.1,0,0.1,0c0.7,0,1.3,0.3,1.8,0.8l-0.5,0.7c-0.3-0.3-0.8-0.5-1.3-0.5c-0.6,0-0.9,0.3-0.9,0.7
				s0.5,0.6,0.9,0.8l0.8,0.3c0.7,0.2,1.2,0.9,1.2,1.6c-0.1,1-0.9,1.8-2,1.8c-0.1,0-0.1,0-0.1,0c-0.8,0-1.6-0.3-2.1-0.9L429.4,129.8z
				"/>
			<rect x="479.6" y="141.9" class="st13" width="181.2" height="19"/>
			<path class="st0" d="M524.8,148.2h3.6v0.8h-2.5v1.7h2.1v0.9h-2.1v2.5h-1L524.8,148.2z"/>
			<path class="st0" d="M529.3,148.2h3.5v0.8h-2.5v1.5h2.1v0.9h-2.1v1.7h2.6v0.9h-3.6V148.2z"/>
			<path class="st0" d="M536.8,152.5h-2l-0.5,1.6h-1.1l1.9-5.9h1.2l1.9,5.9h-1.1L536.8,152.5z M536.6,151.6l-0.2-0.7
				c-0.2-0.6-0.4-1.3-0.5-1.9l0,0c-0.2,0.7-0.3,1.3-0.5,1.9l-0.2,0.7H536.6z"/>
			<path class="st0" d="M539.9,149h-1.7v-0.9h4.4v0.9H541v5h-1L539.9,149z"/>
			<path class="st0" d="M543.6,148.2h1v3.4c0,1.3,0.5,1.7,1.2,1.7s1.2-0.4,1.2-1.7v-3.4h1v3.3c0,1.9-0.9,2.7-2.2,2.7
				s-2.2-0.8-2.2-2.7L543.6,148.2z"/>
			<path class="st0" d="M552.7,154.1l-1.3-2.3h-0.9v2.3h-1v-5.9h2c1.2,0,2.2,0.4,2.2,1.8c0,0.8-0.4,1.5-1.2,1.7l1.4,2.5H552.7z
				 M550.6,150.9h0.8c0.8,0,1.2-0.3,1.2-1s-0.4-0.9-1.2-0.9h-0.8V150.9z"/>
			<path class="st0" d="M554.9,148.2h3.5v0.8h-2.5v1.5h2.1v0.9h-2.1v1.7h2.6v0.9h-3.6L554.9,148.2z"/>
			<path class="st0" d="M559.3,151.4h2.1v0.8h-2.1V151.4z"/>
			<path class="st0" d="M562.6,148.2h1v5h2.4v0.9h-3.5L562.6,148.2z"/>
			<path class="st0" d="M567.1,148.2h3.5v0.8h-2.5v1.5h2.1v0.9h-2.1v1.7h2.6v0.9h-3.6V148.2z"/>
			<path class="st0" d="M571.1,148.2h1.1l0.8,3c0.2,0.7,0.3,1.2,0.5,1.9l0,0c0.2-0.7,0.3-1.2,0.5-1.9l0.8-3h1.1l-1.8,5.9h-1.2
				L571.1,148.2z"/>
			<path class="st0" d="M576.7,148.2h3.5v0.8h-2.5v1.5h2.1v0.9h-2.1v1.7h2.6v0.9h-3.6V148.2z"/>
			<path class="st0" d="M581.5,148.2h1v5h2.5v0.9h-3.5L581.5,148.2z"/>
			<path class="st0" d="M587.8,148.2h1.6c1.4-0.2,2.7,0.9,2.9,2.3c0,0.2,0,0.4,0,0.6c0,2-1.1,3-2.8,3h-1.6V148.2z M589.3,153.2
				c1.2,0,1.9-0.7,1.9-2.1s-0.7-2.1-1.9-2.1h-0.5v4.2L589.3,153.2z"/>
			<path class="st0" d="M593.4,148.2h3.6v0.8h-2.5v1.5h2.1v0.9h-2.1v1.7h2.5v0.9h-3.6L593.4,148.2z"/>
			<path class="st0" d="M598.4,152.6c0.4,0.4,1,0.6,1.5,0.7c0.7,0,1-0.3,1-0.8s-0.4-0.6-0.9-0.9l-0.8-0.4c-0.7-0.2-1.2-0.8-1.2-1.6
				c0.1-1,0.9-1.7,1.9-1.7c0,0,0.1,0,0.1,0c0.7,0,1.3,0.3,1.8,0.8l-0.5,0.7c-0.4-0.3-0.8-0.5-1.3-0.5c-0.6,0-0.9,0.3-0.9,0.7
				s0.5,0.6,0.9,0.8l0.8,0.3c0.7,0.2,1.2,0.9,1.2,1.6c-0.1,1-0.9,1.8-2,1.8c-0.1,0-0.1,0-0.2,0c-0.8,0-1.6-0.3-2.1-0.9L598.4,152.6z
				"/>
			<path class="st0" d="M603.1,148.2h1v5.9h-1V148.2z"/>
			<path class="st0" d="M608.1,148.1c0.7,0,1.3,0.3,1.8,0.8l-0.6,0.6c-0.3-0.3-0.7-0.5-1.2-0.5c-1,0-1.8,0.8-1.8,2.1
				s0.6,2.1,1.8,2.1c0.3,0,0.6-0.1,0.8-0.2v-1.3h-1.1v-0.9h2v2.6c-0.5,0.5-1.2,0.7-1.9,0.7c-1.5,0-2.7-1.2-2.8-2.7
				c0-0.1,0-0.2,0-0.3c-0.2-1.5,0.9-2.9,2.4-3.1C607.8,148.1,608,148,608.1,148.1z"/>
			<path class="st0" d="M611.2,148.2h1.1l1.8,3.3l0.6,1.2l0,0c0-0.6-0.1-1.4-0.1-2v-2.6h1v5.9h-1.1l-1.8-3.3l-0.6-1.2l0,0
				c0,0.6,0.1,1.3,0.1,2v2.6h-1V148.2z"/>
			<rect x="661.1" y="164.7" class="st10" width="180" height="19"/>
			<path class="st0" d="M733.7,170.9h1v3.4c0,1.3,0.5,1.7,1.2,1.7s1.2-0.4,1.2-1.7v-3.4h1v3.3c0,1.9-0.9,2.7-2.2,2.7
				s-2.2-0.8-2.2-2.7L733.7,170.9z"/>
			<path class="st0" d="M740.5,173.8l-1.5-2.9h1.2l0.7,1.3c0.1,0.3,0.3,0.6,0.4,0.9l0,0c0.1-0.4,0.3-0.6,0.4-0.9l0.6-1.3h1.1
				l-1.6,2.9l1.7,3h-1.2l-0.7-1.4l-0.5-1l0,0c-0.2,0.4-0.3,0.7-0.4,1l-0.7,1.4h-1.1L740.5,173.8z"/>
			<path class="st0" d="M748.9,175.2h-2l-0.5,1.6h-1.1l1.9-5.9h1.2l1.9,5.9h-1.1L748.9,175.2z M748.7,174.4l-0.2-0.7
				c-0.2-0.6-0.4-1.3-0.5-1.9l0,0c-0.2,0.7-0.3,1.3-0.5,1.9l-0.2,0.7H748.7z"/>
			<path class="st0" d="M751.2,170.9h1.6c1.4-0.2,2.7,0.9,2.9,2.3c0,0.2,0,0.4,0,0.6c0,2-1.1,3-2.8,3h-1.6V170.9z M752.7,175.9
				c1.2,0,1.9-0.7,1.9-2.1s-0.7-2.1-1.9-2.1h-0.5v4.3L752.7,175.9z"/>
			<path class="st0" d="M756.8,170.9h1v3.4c0,1.3,0.5,1.7,1.2,1.7s1.2-0.4,1.2-1.7v-3.4h1v3.3c0,1.9-0.9,2.7-2.2,2.7
				s-2.2-0.8-2.2-2.7L756.8,170.9z"/>
			<path class="st0" d="M762.7,170.9h1v5.9h-1V170.9z"/>
			<path class="st0" d="M766.3,171.8h-1.7v-0.9h4.4v0.9h-1.7v5h-1L766.3,171.8z"/>
			<rect x="24.5" y="192.8" class="st9" width="27.5" height="87.2"/>
			<rect x="55.4" y="261" class="st10" width="61.6" height="19"/>
			<path class="st0" d="M66.7,272.2H66v1.4h-0.9v-1.4h-2.4v-0.7l2.2-3.5H66v3.3h0.7V272.2z M65.1,271.4v-1.3c0-0.3,0-0.8,0-1.1l0,0
				c-0.1,0.3-0.3,0.6-0.4,0.9l-1,1.5L65.1,271.4z"/>
			<g>
				<rect x="128.3" y="192.8" class="st11" width="712.4" height="19"/>
			</g>
			<g>
				<rect x="128.3" y="215.5" class="st11" width="712.4" height="19"/>
			</g>
			<g>
				<rect x="128.3" y="238.3" class="st11" width="712.4" height="19"/>
			</g>
			<g>
				<rect x="128.3" y="261" class="st11" width="712.4" height="19"/>
			</g>
			<rect x="55.4" y="192.8" class="st12" width="61.6" height="19"/>
			<rect x="55.4" y="215.5" class="st4" width="61.6" height="19"/>
			<rect x="55.4" y="238.3" class="st13" width="61.6" height="19"/>
			<path class="st0" d="M43.2,237.1c0.5,1.2-0.1,2.6-1.3,3.2c-0.2,1.2-1.3,2-2.9,2c-1.8,0-2.9-1-2.9-2.5s1.1-2.5,2.9-2.5
				c1.6,0,2.7,0.8,2.9,1.9c0.4-0.3,0.7-0.8,0.6-1.3c0-0.2,0-0.4-0.1-0.6L43.2,237.1z M41.1,239.8c0-0.9-0.8-1.5-2.1-1.5
				s-2,0.6-2,1.5s0.8,1.5,2,1.5S41.1,240.6,41.1,239.8L41.1,239.8z"/>
			<path class="st0" d="M40.3,233.6v1.9l1.5,0.4v1l-5.7-1.9v-1.2l5.7-1.8v1.1L40.3,233.6z M39.5,233.8l-0.7,0.2l-1.9,0.5l0,0
				c0.6,0.2,1.3,0.3,1.9,0.5l0.7,0.2V233.8z"/>
			<path class="st0" d="M63.1,204.8h1.2v-3.6h-1v-0.6c0.4-0.1,0.9-0.2,1.3-0.4h0.7v4.7h1.1v0.8h-3.3V204.8z"/>
			<path class="st0" d="M62.8,227.3c1.5-1.5,2.5-2.5,2.5-3.3c0.1-0.5-0.2-0.9-0.7-1c-0.1,0-0.1,0-0.2,0c-0.4,0-0.8,0.3-1.1,0.6
				l-0.5-0.6c0.4-0.5,1.1-0.8,1.8-0.9c0.9-0.1,1.7,0.6,1.7,1.5c0,0.1,0,0.2,0,0.2c0,1-0.9,2-2,3.2c0.3,0,0.7-0.1,0.9-0.1h1.3v0.9
				h-3.7V227.3z"/>
			<path class="st0" d="M63.2,249.4c0.3,0.4,0.8,0.6,1.3,0.6c0.6,0,1-0.3,1-0.8s-0.4-0.9-1.6-0.9v-0.7c1.1,0,1.4-0.4,1.4-0.9
				c0-0.4-0.3-0.7-0.7-0.7c0,0-0.1,0-0.1,0c-0.4,0-0.8,0.2-1.1,0.5l-0.5-0.6c0.4-0.4,1-0.7,1.6-0.7c1.1,0,1.8,0.5,1.8,1.5
				c0,0.6-0.4,1.1-1,1.3l0,0c0.7,0.1,1.1,0.7,1.1,1.4c0,0.9-0.9,1.7-1.8,1.6c0,0-0.1,0-0.1,0c-0.7,0-1.4-0.3-1.9-0.8L63.2,249.4z"/>
			<rect x="24.5" y="289.1" class="st9" width="27.5" height="110"/>
			<rect x="55.4" y="357.4" class="st10" width="61.6" height="19"/>
			<path class="st0" d="M66.7,368.5H66v1.4h-0.9v-1.4h-2.4v-0.7l2.2-3.4H66v3.3h0.7V368.5z M65.1,367.7v-1.3c0-0.3,0-0.8,0-1.1l0,0
				c-0.1,0.3-0.3,0.6-0.4,0.9l-1,1.5L65.1,367.7z"/>
			<path class="st0" d="M63.2,391.4c0.3,0.4,0.8,0.6,1.3,0.6c0.6,0,1-0.4,1.1-0.9c0,0,0-0.1,0-0.1c0-0.6-0.4-1-1-1
				c-0.3,0-0.6,0.1-0.9,0.3l-0.5-0.3l0.2-2.7h2.9v0.8h-2.1l-0.2,1.3c0.2-0.1,0.5-0.2,0.7-0.2c0.9-0.1,1.7,0.6,1.7,1.5
				c0,0.1,0,0.2,0,0.3c0,1-0.8,1.9-1.8,1.9c0,0-0.1,0-0.1,0c-0.7,0-1.4-0.3-1.9-0.8L63.2,391.4z"/>
			<rect x="55.4" y="289.1" class="st12" width="61.6" height="19"/>
			<rect x="55.4" y="311.9" class="st4" width="61.6" height="19"/>
			<rect x="55.4" y="334.6" class="st13" width="61.6" height="19"/>
			<g>
				<rect x="128.3" y="289.1" class="st11" width="712.4" height="19"/>
			</g>
			<g>
				<rect x="128.3" y="311.9" class="st11" width="712.4" height="19"/>
			</g>
			<g>
				<rect x="128.3" y="334.6" class="st11" width="712.4" height="19"/>
			</g>
			<g>
				<rect x="128.3" y="357.4" class="st11" width="712.4" height="19"/>
			</g>
			<g>
				<rect x="128.3" y="380.1" class="st11" width="712.4" height="19"/>
			</g>
			<path class="st0" d="M36.2,371.2v-1.5c-0.2-1.4,0.8-2.6,2.2-2.8c0.2,0,0.4,0,0.6,0c1.9,0,2.9,1,2.9,2.7v1.5L36.2,371.2z
				 M41.1,369.7c0-1.1-0.7-1.8-2.1-1.8s-2,0.7-2,1.8v0.4h4.1L41.1,369.7z"/>
			<path class="st0" d="M36.2,365.8v-3.4H37v2.4h1.5v-2h0.8v2H41v-2.5h0.9v3.5H36.2z"/>
			<path class="st0" d="M36.2,361.9v-1.1l2.9-0.8c0.7-0.2,1.2-0.3,1.9-0.5l0,0c-0.7-0.2-1.2-0.3-1.9-0.5l-2.9-0.8v-1l5.7,1.7v1.2
				L36.2,361.9z"/>
			<path class="st0" d="M36.2,356.6v-3.4H37v2.4h1.5v-2h0.8v2H41v-2.5h0.9v3.5H36.2z"/>
			<path class="st0" d="M36.2,352v-1H41v-2.3h0.9v3.3H36.2z"/>
			<path class="st0" d="M39,348.2c-1.8,0-2.9-1-2.9-2.5s1.1-2.5,2.9-2.5s3,1,3,2.5S40.8,348.2,39,348.2z M39,344.2
				c-1.3,0-2,0.6-2,1.5s0.8,1.5,2,1.5s2.1-0.6,2.1-1.5S40.3,344.2,39,344.2L39,344.2z"/>
			<path class="st0" d="M36.2,342.1v-1.9c0-1.2,0.4-2.1,1.8-2.1s1.8,0.9,1.8,2.1v0.9h2.1v1H36.2z M39,340.3c0-0.9-0.3-1.2-1-1.2
				s-1,0.4-1,1.2v0.8h2V340.3z"/>
			<path class="st0" d="M36.2,337v-1.1l2.8-1l1.1-0.4l0,0l-1.1-0.4l-2.8-1V332h5.7v1h-2.6c-0.5,0-1.3-0.1-1.8-0.1l0,0l1.3,0.5l2.6,1
				v0.5l-2.6,1l-1.3,0.5l0,0c0.5,0,1.3-0.1,1.8-0.1h2.6v0.9H36.2z"/>
			<path class="st0" d="M36.2,330.6v-3.4H37v2.4h1.5v-2h0.8v2H41v-2.5h0.9v3.5H36.2z"/>
			<path class="st0" d="M36.2,326v-1l3.2-1.8l1.2-0.6l0,0c-0.6,0-1.3,0.1-2,0.1h-2.5v-1h5.7v1l-3.2,1.8l-1.2,0.6l0,0
				c0.6,0,1.3-0.1,1.9-0.1h2.5v1H36.2z"/>
			<path class="st0" d="M37,319.2v1.6h-0.9v-4.2H37v1.6h4.8v1H37z"/>
			<path class="st0" d="M63.1,301.1h1.2v-3.6h-1v-0.6c0.4-0.1,0.9-0.2,1.3-0.5h0.7v4.7h1.1v0.8h-3.3V301.1z"/>
			<path class="st0" d="M62.8,323.7c1.5-1.5,2.5-2.5,2.5-3.3c0.1-0.5-0.2-0.9-0.7-1c-0.1,0-0.1,0-0.2,0c-0.4,0-0.8,0.3-1.1,0.6
				l-0.5-0.6c0.4-0.5,1.1-0.8,1.8-0.9c0.9-0.1,1.7,0.6,1.7,1.5c0,0.1,0,0.2,0,0.2c0,1-0.9,2-2,3.2c0.3,0,0.7-0.1,0.9-0.1h1.3v0.9
				h-3.7V323.7z"/>
			<path class="st0" d="M63.2,345.8c0.3,0.4,0.8,0.6,1.3,0.6c0.6,0,1-0.3,1-0.8s-0.4-0.9-1.6-0.9v-0.7c1.1,0,1.4-0.4,1.4-0.9
				c0-0.4-0.3-0.7-0.7-0.7c0,0-0.1,0-0.1,0c-0.4,0-0.8,0.2-1.1,0.5l-0.5-0.6c0.4-0.4,1-0.7,1.6-0.7c1.1,0,1.8,0.5,1.8,1.5
				c0,0.6-0.4,1.1-1,1.3l0,0c0.7,0.1,1.1,0.7,1.1,1.4c0,0.9-0.9,1.7-1.8,1.6c0,0-0.1,0-0.1,0c-0.7,0-1.4-0.3-1.9-0.8L63.2,345.8z"/>
			<rect x="24.5" y="408.2" class="st9" width="27.5" height="87.2"/>
			<rect x="55.4" y="476.4" class="st10" width="61.6" height="19"/>
			<path class="st0" d="M66.7,487.6H66v1.4h-0.9v-1.4h-2.4v-0.7l2.2-3.4H66v3.3h0.7V487.6z M65.1,486.8v-1.3c0-0.3,0-0.8,0-1.1l0,0
				c-0.1,0.3-0.3,0.6-0.4,0.9l-1,1.5H65.1z"/>
			<g>
				<rect x="128.3" y="408.2" class="st11" width="712.4" height="19"/>
			</g>
			<g>
				<rect x="128.3" y="430.9" class="st11" width="712.4" height="19"/>
			</g>
			<g>
				<rect x="128.3" y="453.7" class="st11" width="712.4" height="19"/>
			</g>
			<g>
				<rect x="128.3" y="476.4" class="st11" width="712.4" height="19"/>
			</g>
			<rect x="55.4" y="408.2" class="st12" width="61.6" height="19"/>
			<rect x="55.4" y="430.9" class="st4" width="61.6" height="19"/>
			<rect x="55.4" y="453.7" class="st13" width="61.6" height="19"/>
			<path class="st0" d="M36.2,469.5v-1.9c0-1.2,0.4-2.1,1.8-2.1s1.8,0.9,1.8,2.1v0.9h2.1v1H36.2z M39,467.7c0-0.9-0.3-1.2-1-1.2
				s-1,0.4-1,1.2v0.8h2V467.7z"/>
			<path class="st0" d="M41.9,461.3l-2.2,1.2v0.9h2.2v1h-5.7v-1.9c0-1.2,0.4-2.1,1.7-2.1c0.7,0,1.4,0.4,1.6,1.1l2.4-1.4L41.9,461.3z
				 M38.9,463.4v-0.8c0-0.8-0.3-1.2-1-1.2s-0.9,0.4-0.9,1.2v0.8H38.9z"/>
			<path class="st0" d="M39,459.5c-1.8,0-2.9-1-2.9-2.5s1.1-2.5,2.9-2.5s3,1,3,2.5S40.8,459.5,39,459.5z M39,455.5
				c-1.3,0-2,0.6-2,1.5s0.8,1.5,2,1.5s2.1-0.6,2.1-1.5S40.3,455.6,39,455.5L39,455.5z"/>
			<path class="st0" d="M36.2,453.5V452c-0.1-1.4,0.9-2.6,2.2-2.8c0.2,0,0.4,0,0.6,0c1.9,0,2.9,1,2.9,2.7v1.5H36.2z M41.1,452
				c0-1.1-0.7-1.8-2.1-1.8s-2,0.7-2,1.8v0.4h4.1L41.1,452z"/>
			<path class="st0" d="M36.2,448.1v-1h3.3c1.2,0,1.7-0.5,1.7-1.1s-0.4-1.2-1.7-1.2h-3.3v-1h3.2c1.9,0,2.6,0.8,2.6,2.1
				s-0.7,2.1-2.6,2.1L36.2,448.1z"/>
			<path class="st0" d="M36.1,440.1c0-0.6,0.3-1.2,0.7-1.6l0.6,0.5c-0.3,0.3-0.5,0.6-0.5,1c0,0.9,0.8,1.6,2.1,1.6s2.1-0.6,2.1-1.5
				c0-0.5-0.2-0.9-0.6-1.2l0.6-0.5c0.5,0.4,0.8,1.1,0.8,1.8c0,1.4-1,2.6-2.9,2.6c-1.5,0.2-2.8-0.9-3-2.3
				C36.1,440.3,36.1,440.2,36.1,440.1z"/>
			<path class="st0" d="M37,436.5v1.6h-0.9v-4.3H37v1.6h4.8v1L37,436.5z"/>
			<path class="st0" d="M63.1,420.2h1.2v-3.6h-1v-0.6c0.4-0.1,0.9-0.2,1.3-0.5h0.7v4.7h1.1v0.8h-3.3V420.2z"/>
			<path class="st0" d="M62.8,442.8c1.5-1.5,2.5-2.5,2.5-3.3c0.1-0.5-0.2-0.9-0.7-1c-0.1,0-0.1,0-0.2,0c-0.4,0-0.8,0.3-1.1,0.6
				l-0.5-0.6c0.4-0.5,1.1-0.8,1.8-0.9c0.9-0.1,1.7,0.6,1.7,1.5c0,0.1,0,0.2,0,0.2c0,1-0.9,2-2,3.2c0.3,0,0.7-0.1,0.9-0.1h1.3v0.9
				h-3.7V442.8z"/>
			<path class="st0" d="M63.2,464.8c0.3,0.4,0.8,0.6,1.3,0.6c0.6,0,1-0.3,1-0.8s-0.4-0.9-1.6-0.9v-0.7c1.1,0,1.4-0.4,1.4-0.9
				c0-0.4-0.3-0.7-0.7-0.7c0,0-0.1,0-0.1,0c-0.4,0-0.8,0.2-1.1,0.5l-0.5-0.6c0.4-0.4,1-0.7,1.6-0.7c1.1,0,1.8,0.5,1.8,1.5
				c0,0.6-0.4,1.1-1,1.3l0,0c0.7,0.1,1.1,0.7,1.1,1.4c0,0.9-0.9,1.7-1.8,1.6c0,0-0.1,0-0.1,0c-0.7,0-1.4-0.3-1.9-0.8L63.2,464.8z"/>
			<rect x="127.9" y="192.9" class="st12" width="170.4" height="19"/>
			<path class="st0" d="M206.2,199.1h1v3.4c0,1.3,0.5,1.7,1.2,1.7s1.2-0.4,1.2-1.7v-3.4h1v3.3c0,1.9-0.9,2.7-2.2,2.7
				s-2.2-0.8-2.2-2.7L206.2,199.1z"/>
			<path class="st0" d="M214.7,203.4h-2l-0.5,1.6h-1.1l1.9-5.9h1.2l1.9,5.9h-1.1L214.7,203.4z M214.4,202.6l-0.2-0.7
				c-0.2-0.6-0.4-1.3-0.5-1.9l0,0c-0.2,0.7-0.3,1.3-0.5,1.9l-0.2,0.7H214.4z"/>
			<path class="st0" d="M217.8,200h-1.7v-0.9h4.4v0.9h-1.7v5h-1L217.8,200z"/>
			<rect x="298.3" y="215.5" class="st4" width="181.1" height="19"/>
			<path class="st0" d="M372.6,221.8h1.1l1.1,2.9l0.4,1.1l0,0l0.4-1.1l1-2.9h1.1v5.9h-1V225c0-0.6,0.1-1.3,0.1-1.9l0,0l-0.5,1.3
				l-1,2.7h-0.5l-1-2.7l-0.5-1.3l0,0c0,0.5,0.1,1.3,0.1,1.9v2.7h-1L372.6,221.8z"/>
			<path class="st0" d="M379.3,221.8h3.5v0.9h-2.5v1.5h2.1v0.8h-2.1v1.7h2.6v0.9h-3.6L379.3,221.8z"/>
			<path class="st0" d="M385.2,222.6h-1.7v-0.9h4.5v0.9h-1.7v5h-1L385.2,222.6z"/>
			<path class="st0" d="M392.1,227.6l-1.3-2.3H390v2.3h-1v-5.9h2c1.2,0,2.2,0.4,2.2,1.8c0,0.8-0.4,1.5-1.2,1.7l1.4,2.5H392.1z
				 M390,224.5h0.8c0.8,0,1.2-0.3,1.2-1s-0.4-0.9-1.2-0.9H390V224.5z"/>
			<path class="st0" d="M394.3,221.8h1v5.9h-1V221.8z"/>
			<path class="st0" d="M399.2,221.7c0.6,0,1.2,0.3,1.7,0.8l-0.6,0.6c-0.3-0.3-0.7-0.5-1.1-0.5c-1,0-1.7,0.8-1.7,2.1
				s0.6,2.1,1.6,2.1c0.5,0,0.9-0.2,1.2-0.6l0.6,0.6c-0.5,0.5-1.1,0.9-1.8,0.9c-1.5,0-2.7-1.1-2.7-3c-0.2-1.5,0.9-2.9,2.4-3.1
				C399,221.7,399.1,221.7,399.2,221.7z"/>
			<path class="st0" d="M401.9,226.2c0.4,0.4,1,0.6,1.5,0.7c0.7,0,1-0.3,1-0.8s-0.4-0.6-0.9-0.9l-0.8-0.4c-0.7-0.2-1.2-0.8-1.2-1.6
				c0.1-1,0.9-1.7,1.9-1.7c0,0,0.1,0,0.1,0c0.7,0,1.3,0.3,1.8,0.8l-0.5,0.7c-0.3-0.3-0.8-0.5-1.3-0.5c-0.6,0-0.9,0.3-0.9,0.7
				s0.5,0.6,0.9,0.8l0.8,0.3c0.7,0.2,1.2,0.9,1.2,1.6c-0.1,1-0.9,1.8-2,1.8c-0.1,0-0.1,0-0.1,0c-0.8,0-1.6-0.3-2.1-0.9L401.9,226.2z
				"/>
			<rect x="479.6" y="238.4" class="st13" width="181.2" height="19"/>
			<path class="st0" d="M570.5,251.9c-1.3,0.5-2.7-0.1-3.3-1.3c-1.3-0.2-2.1-1.3-2.1-3c0-1.9,1.1-3,2.6-3s2.6,1.1,2.6,3
				c0,1.6-0.8,2.7-2,3c0.3,0.5,0.8,0.7,1.4,0.7c0.2,0,0.4,0,0.6-0.1L570.5,251.9z M567.7,249.7c0.9,0,1.5-0.9,1.5-2.2
				s-0.6-2.1-1.5-2.1s-1.5,0.8-1.5,2.1S566.8,249.7,567.7,249.7L567.7,249.7z"/>
			<path class="st0" d="M574.1,248.9h-2l-0.5,1.6h-1.1l1.9-5.9h1.2l1.9,5.9h-1.1L574.1,248.9z M573.9,248.1l-0.2-0.7
				c-0.2-0.6-0.4-1.3-0.5-1.9l0,0c-0.2,0.7-0.3,1.3-0.5,1.9l-0.2,0.7H573.9z"/>
			<rect x="661.1" y="261.1" class="st10" width="180" height="19"/>
			<path class="st0" d="M714.4,267.4h1.1l0.8,3c0.2,0.7,0.3,1.2,0.5,1.9l0,0c0.2-0.7,0.3-1.2,0.5-1.9l0.8-3h1.1l-1.8,5.9h-1.2
				L714.4,267.4z"/>
			<path class="st0" d="M722.5,271.7h-2l-0.5,1.6H719l1.9-5.9h1.2l1.9,5.9H723L722.5,271.7z M722.3,270.9l-0.2-0.7
				c-0.2-0.6-0.4-1.3-0.5-1.9l0,0c-0.2,0.7-0.3,1.3-0.5,1.9l-0.2,0.7H722.3z"/>
			<path class="st0" d="M728,273.3l-1.3-2.3h-0.9v2.3h-1v-5.9h2c1.2,0,2.2,0.4,2.2,1.8c0,0.8-0.4,1.5-1.2,1.7l1.4,2.5L728,273.3z
				 M725.8,270.1h0.8c0.8,0,1.2-0.3,1.2-1s-0.4-0.9-1.2-0.9h-0.8V270.1z"/>
			<path class="st0" d="M730.2,267.4h1v5.9h-1V267.4z"/>
			<path class="st0" d="M735.4,271.7h-2l-0.5,1.6h-1.1l1.9-5.9h1.2l1.9,5.9h-1.1L735.4,271.7z M735.2,270.9l-0.2-0.7
				c-0.2-0.6-0.4-1.3-0.5-1.9l0,0c-0.2,0.7-0.3,1.3-0.5,1.9l-0.2,0.7H735.2z"/>
			<path class="st0" d="M737.7,267.4h1.1l1.8,3.3l0.6,1.2l0,0c0-0.6-0.1-1.4-0.1-2v-2.6h1v5.9h-1l-1.8-3.3l-0.6-1.2l0,0
				c0,0.6,0.1,1.3,0.1,2v2.6h-1L737.7,267.4z"/>
			<path class="st0" d="M745.9,267.3c0.6,0,1.2,0.3,1.7,0.8l-0.6,0.6c-0.3-0.3-0.7-0.5-1.1-0.5c-1,0-1.7,0.8-1.7,2.1
				s0.6,2.1,1.6,2.1c0.5,0,0.9-0.2,1.2-0.6l0.6,0.6c-0.5,0.6-1.1,0.9-1.8,0.9c-1.5,0-2.7-1.1-2.7-3c-0.2-1.5,0.9-2.9,2.4-3.1
				C745.7,267.3,745.8,267.3,745.9,267.3z"/>
			<path class="st0" d="M748.7,267.4h3.5v0.9h-2.5v1.5h2.1v0.9h-2.1v1.7h2.6v0.9h-3.6V267.4z"/>
			<path class="st0" d="M756.5,268.3h-1.7v-0.9h4.4v0.9h-1.7v5h-1L756.5,268.3z"/>
			<path class="st0" d="M760.2,267.4h3.5v0.9h-2.5v1.5h2.1v0.9h-2.1v1.7h2.6v0.9h-3.6V267.4z"/>
			<path class="st0" d="M765.2,271.8c0.4,0.4,1,0.6,1.5,0.7c0.7,0,1-0.3,1-0.8s-0.4-0.6-0.9-0.9l-0.8-0.4c-0.7-0.2-1.2-0.8-1.2-1.6
				c0.1-1,0.9-1.7,1.9-1.7c0,0,0.1,0,0.1,0c0.7,0,1.3,0.3,1.8,0.8l-0.5,0.7c-0.3-0.3-0.8-0.5-1.3-0.5c-0.6,0-0.9,0.3-0.9,0.7
				s0.5,0.6,0.9,0.8l0.8,0.3c0.7,0.2,1.2,0.9,1.2,1.6c-0.1,1-0.9,1.8-2,1.8c-0.1,0-0.1,0-0.2,0c-0.8,0-1.6-0.3-2.1-0.9L765.2,271.8z
				"/>
			<path class="st0" d="M770.9,268.3h-1.7v-0.9h4.4v0.9H772v5h-1L770.9,268.3z"/>
			<path class="st0" d="M774.6,267.4h1v5.9h-1V267.4z"/>
			<path class="st0" d="M777.1,267.4h1.1l1.8,3.3l0.6,1.2l0,0c0-0.6-0.1-1.4-0.1-2v-2.6h1v5.9h-1.1l-1.8-3.3l-0.6-1.3l0,0
				c0,0.6,0.1,1.3,0.1,2v2.6h-1V267.4z"/>
			<path class="st0" d="M785.5,267.3c0.7,0,1.3,0.3,1.8,0.8l-0.6,0.6c-0.3-0.3-0.7-0.5-1.2-0.5c-1,0-1.8,0.8-1.8,2.1
				s0.6,2.1,1.8,2.1c0.3,0,0.6-0.1,0.8-0.3v-1.3h-1.1v-0.9h2v2.6c-0.5,0.5-1.2,0.7-1.9,0.7c-1.5,0-2.7-1.2-2.8-2.7
				c0-0.1,0-0.2,0-0.3c-0.2-1.5,0.9-2.9,2.5-3.1C785.2,267.3,785.4,267.3,785.5,267.3z"/>
			<rect x="127.9" y="407.9" class="st12" width="170.4" height="19"/>
			<path class="st0" d="M173.7,414.1h1.1l1.1,2.9l0.4,1.1l0,0l0.4-1.1l1-2.9h1.1v5.9h-1v-2.7c0-0.5,0.1-1.3,0.1-1.9l0,0l-0.5,1.3
				l-1,2.7H176l-1-2.7l-0.5-1.3l0,0c0,0.5,0.1,1.3,0.1,1.9v2.7h-1L173.7,414.1z"/>
			<path class="st0" d="M179.6,414.1h1.1l0.8,3c0.2,0.7,0.3,1.2,0.5,1.9l0,0c0.2-0.7,0.3-1.2,0.5-1.9l0.8-3h1.1l-1.8,5.9h-1.2
				L179.6,414.1z"/>
			<path class="st0" d="M185.2,414.1h2c1.3,0,2.2,0.5,2.2,1.8s-1,1.9-2.2,1.9h-0.9v2.1h-1L185.2,414.1z M187.1,417
				c0.9,0,1.3-0.4,1.3-1.1s-0.4-1-1.3-1h-0.9v2L187.1,417z"/>
			<path class="st0" d="M195.5,420l-1.3-2.3h-0.9v2.3h-1v-5.9h2c1.2,0,2.2,0.4,2.2,1.8c0,0.8-0.4,1.5-1.2,1.7l1.4,2.5L195.5,420z
				 M193.4,416.9h0.8c0.8,0,1.2-0.3,1.2-1s-0.4-0.9-1.2-0.9h-0.8V416.9z"/>
			<path class="st0" d="M197.7,414.1h3.5v0.9h-2.5v1.5h2.1v0.9h-2.1v1.7h2.6v0.9h-3.6V414.1z"/>
			<path class="st0" d="M207.6,421.4c-1.3,0.5-2.7-0.1-3.3-1.3c-1.3-0.2-2.1-1.3-2.1-3c0-1.9,1.1-3,2.6-3s2.6,1.1,2.6,3
				c0,1.6-0.8,2.7-2,3c0.3,0.5,0.8,0.7,1.4,0.7c0.2,0,0.4,0,0.6-0.1L207.6,421.4z M204.8,419.2c0.9,0,1.5-0.9,1.5-2.2
				s-0.6-2.1-1.5-2.1s-1.5,0.8-1.5,2.1S203.8,419.2,204.8,419.2L204.8,419.2z"/>
			<path class="st0" d="M208.5,414.1h1v3.4c0,1.3,0.5,1.7,1.2,1.7s1.2-0.4,1.2-1.7v-3.4h1v3.3c0,1.9-0.9,2.7-2.2,2.7
				s-2.2-0.8-2.2-2.7L208.5,414.1z"/>
			<path class="st0" d="M214.4,414.1h1v5.9h-1V414.1z"/>
			<path class="st0" d="M220.1,420l-1.3-2.3H218v2.3h-1v-5.9h2c1.2,0,2.2,0.4,2.2,1.8c0,0.8-0.4,1.5-1.2,1.7l1.4,2.5L220.1,420z
				 M218,416.9h0.8c0.8,0,1.2-0.3,1.2-1s-0.4-0.9-1.2-0.9H218V416.9z"/>
			<path class="st0" d="M222.3,414.1h3.5v0.9h-2.5v1.5h2.1v0.9h-2.1v1.7h2.6v0.9h-3.6L222.3,414.1z"/>
			<path class="st0" d="M227.1,414.1h1.1l1.1,2.9l0.4,1.1l0,0l0.4-1.1l1-2.9h1.1v5.9h-1v-2.7c0-0.5,0.1-1.3,0.1-1.9l0,0l-0.5,1.3
				l-1,2.7h-0.5l-1-2.7l-0.5-1.3l0,0c0,0.5,0.1,1.3,0.1,1.9v2.7h-1L227.1,414.1z"/>
			<path class="st0" d="M233.8,414.1h3.5v0.9h-2.5v1.5h2.1v0.9h-2.1v1.7h2.6v0.9h-3.6L233.8,414.1z"/>
			<path class="st0" d="M238.6,414.1h1.1l1.8,3.3l0.6,1.2l0,0c-0.1-0.6-0.1-1.4-0.1-2v-2.6h1v5.9h-1.1l-1.8-3.3l-0.6-1.2l0,0
				c0.1,0.6,0.1,1.3,0.1,2v2.6h-1V414.1z"/>
			<path class="st0" d="M245.6,415h-1.7v-0.9h4.4v0.9h-1.7v5h-1L245.6,415z"/>
			<path class="st0" d="M249.2,418.6c0.4,0.4,1,0.6,1.5,0.7c0.7,0,1-0.3,1-0.8s-0.4-0.6-0.9-0.9l-0.8-0.4c-0.7-0.2-1.2-0.8-1.2-1.6
				c0.1-1,0.9-1.7,1.9-1.7c0,0,0.1,0,0.1,0c0.7,0,1.3,0.3,1.8,0.8l-0.5,0.7c-0.3-0.3-0.8-0.5-1.3-0.5c-0.6,0-0.9,0.3-0.9,0.7
				s0.4,0.6,0.9,0.8l0.8,0.3c0.7,0.2,1.2,0.9,1.2,1.6c-0.1,1-0.9,1.8-2,1.8c-0.1,0-0.1,0-0.1,0c-0.8,0-1.6-0.3-2.1-0.9L249.2,418.6z
				"/>
			<rect x="298.3" y="430.5" class="st4" width="181.1" height="19"/>
			<path class="st0" d="M354.1,442.7l-1.3-2.3H352v2.3h-1v-5.9h2c1.2,0,2.2,0.4,2.2,1.8c0,0.8-0.4,1.5-1.2,1.7l1.4,2.5L354.1,442.7z
				 M352,439.5h0.8c0.8,0,1.2-0.3,1.2-1s-0.4-0.9-1.2-0.9H352V439.5z"/>
			<path class="st0" d="M356,439.7c0-1.9,1.1-3,2.6-3s2.6,1.1,2.6,3s-1.1,3.1-2.6,3.1S356,441.6,356,439.7z M360.1,439.7
				c0-1.3-0.6-2.1-1.5-2.1s-1.5,0.8-1.5,2.1s0.6,2.2,1.5,2.2S360.1,441,360.1,439.7z"/>
			<path class="st0" d="M365,441.1h-2l-0.5,1.6h-1.1l1.9-5.9h1.2l1.9,5.9h-1.1L365,441.1z M364.8,440.3l-0.2-0.7
				c-0.2-0.6-0.4-1.3-0.5-1.9l0,0c-0.2,0.7-0.3,1.3-0.5,1.9l-0.2,0.7H364.8z"/>
			<path class="st0" d="M367.2,436.8h1.6c1.4-0.2,2.7,0.9,2.9,2.3c0,0.2,0,0.4,0,0.6c0,2-1.1,3-2.8,3h-1.6V436.8z M368.7,441.8
				c1.2,0,1.9-0.7,1.9-2.1s-0.7-2.1-1.9-2.1h-0.5v4.2L368.7,441.8z"/>
			<path class="st0" d="M372.9,436.8h1.1l1.1,2.9l0.4,1.1l0,0l0.4-1.1l1-2.9h1.1v5.9h-1V440c0-0.5,0.1-1.3,0.1-1.9l0,0l-0.5,1.3
				l-1,2.7h-0.5l-1-2.7l-0.5-1.3l0,0c0,0.5,0.1,1.3,0.1,1.9v2.7h-1L372.9,436.8z"/>
			<path class="st0" d="M382.3,441.1h-2l-0.5,1.6h-1.1l1.9-5.9h1.2l1.9,5.9h-1.1L382.3,441.1z M382,440.3l-0.2-0.7
				c-0.2-0.6-0.4-1.3-0.5-1.9l0,0c-0.2,0.7-0.3,1.3-0.5,1.9l-0.2,0.7H382z"/>
			<path class="st0" d="M384.5,436.8h2c1.3,0,2.2,0.5,2.2,1.8s-1,1.9-2.2,1.9h-0.9v2.2h-1L384.5,436.8z M386.4,439.7
				c0.9,0,1.3-0.4,1.3-1.1s-0.4-1-1.3-1h-0.9v2L386.4,439.7z"/>
			<path class="st0" d="M391.7,436.8h1.9c1.2,0,2.1,0.4,2.1,1.5c0,0.6-0.4,1.1-1,1.3l0,0c0.8,0,1.3,0.6,1.3,1.4c0,0,0,0,0,0
				c0,1.2-1,1.7-2.3,1.7h-2L391.7,436.8z M393.5,439.2c0.8,0,1.2-0.3,1.2-0.9s-0.4-0.8-1.1-0.8h-0.8v1.6L393.5,439.2z M393.6,441.9
				c0.9,0,1.3-0.3,1.3-1s-0.5-0.9-1.3-0.9h-0.9v1.9L393.6,441.9z"/>
			<path class="st0" d="M400.2,442.7l-1.3-2.3h-0.9v2.3h-1v-5.9h2c1.2,0,2.2,0.4,2.2,1.8c0,0.8-0.4,1.5-1.2,1.7l1.4,2.5L400.2,442.7
				z M398.1,439.5h0.8c0.8,0,1.2-0.3,1.2-1s-0.4-0.9-1.2-0.9h-0.8V439.5z"/>
			<path class="st0" d="M402.4,436.8h1v5.9h-1V436.8z"/>
			<path class="st0" d="M404.9,436.8h3.5v0.9h-2.5v1.5h2.1v0.8h-2.1v1.7h2.6v0.9h-3.6V436.8z"/>
			<path class="st0" d="M409.7,436.8h3.6v0.9h-2.5v1.7h2.1v0.9h-2.1v2.5h-1L409.7,436.8z"/>
			<path class="st0" d="M414.2,436.8h1v5.9h-1V436.8z"/>
			<path class="st0" d="M416.8,436.8h1.1l1.8,3.3l0.6,1.2l0,0c0-0.6-0.1-1.4-0.1-2v-2.6h1v5.9h-1.1l-1.8-3.3l-0.6-1.2l0,0
				c0,0.6,0.1,1.3,0.1,2v2.6h-1V436.8z"/>
			<path class="st0" d="M425.1,436.7c0.7,0,1.3,0.3,1.8,0.8l-0.6,0.6c-0.3-0.3-0.7-0.5-1.2-0.5c-1,0-1.8,0.8-1.8,2.1
				s0.6,2.1,1.8,2.1c0.3,0,0.6-0.1,0.8-0.3v-1.3h-1.1v-0.9h2v2.6c-0.5,0.5-1.2,0.7-1.9,0.7c-1.5,0-2.7-1.2-2.8-2.7
				c0-0.1,0-0.2,0-0.3c-0.2-1.5,0.9-2.9,2.5-3.1C424.9,436.7,425,436.7,425.1,436.7z"/>
			<rect x="479.6" y="453.4" class="st13" width="181.2" height="19"/>
			<path class="st0" d="M559.5,459.6h2c1.3,0,2.2,0.5,2.2,1.8s-1,1.9-2.2,1.9h-0.9v2.2h-1L559.5,459.6z M561.4,462.5
				c0.9,0,1.3-0.4,1.3-1.1s-0.4-1-1.3-1h-0.8v2L561.4,462.5z"/>
			<path class="st0" d="M564.8,459.6h1v5.9h-1V459.6z"/>
			<path class="st0" d="M567.3,459.6h1v5h2.4v0.9h-3.5L567.3,459.6z"/>
			<path class="st0" d="M571.2,462.6c0-1.9,1.1-3,2.6-3s2.6,1.1,2.6,3s-1.1,3.1-2.6,3.1S571.2,464.5,571.2,462.6z M575.4,462.6
				c0-1.3-0.6-2.1-1.5-2.1s-1.5,0.8-1.5,2.1s0.6,2.2,1.5,2.2S575.4,463.9,575.4,462.6z"/>
			<path class="st0" d="M578.6,460.5h-1.7v-0.9h4.4v0.9h-1.7v5h-1L578.6,460.5z"/>
			<rect x="661.1" y="476.2" class="st10" width="180" height="19"/>
			<path class="st0" d="M735.8,482.4h1v5h2.4v0.9h-3.5L735.8,482.4z"/>
			<path class="st0" d="M743,486.7h-2l-0.5,1.6h-1l1.9-5.9h1.2l1.9,5.9h-1.1L743,486.7z M742.8,485.9l-0.2-0.7
				c-0.2-0.6-0.4-1.3-0.5-1.9l0,0c-0.2,0.7-0.3,1.3-0.5,1.9l-0.2,0.7H742.8z"/>
			<path class="st0" d="M745.1,482.4h1v3.4c0,1.3,0.5,1.7,1.2,1.7s1.2-0.4,1.2-1.7v-3.4h1v3.3c0,1.9-0.9,2.7-2.2,2.7
				s-2.2-0.8-2.2-2.7L745.1,482.4z"/>
			<path class="st0" d="M751,482.4h1.1l1.8,3.3l0.6,1.2l0,0c0-0.6-0.1-1.4-0.1-2v-2.6h1v5.9h-1.1l-1.8-3.3l-0.6-1.2l0,0
				c0,0.6,0.1,1.3,0.1,2v2.6h-1L751,482.4z"/>
			<path class="st0" d="M759.3,482.3c0.6,0,1.3,0.2,1.7,0.7l-0.6,0.6c-0.3-0.3-0.7-0.5-1.1-0.5c-1,0-1.7,0.8-1.7,2.1
				s0.6,2.1,1.6,2.1c0.5,0,0.9-0.2,1.2-0.6l0.6,0.6c-0.5,0.6-1.1,0.9-1.8,0.9c-1.5,0-2.7-1.1-2.7-3c-0.2-1.5,0.9-2.9,2.5-3
				C759.1,482.3,759.2,482.3,759.3,482.3z"/>
			<path class="st0" d="M762,482.4h1v2.4h2.4v-2.4h1v5.9h-1v-2.6H763v2.6h-1V482.4z"/>
			<rect x="127.9" y="289" class="st12" width="170.4" height="19"/>
			<path class="st0" d="M165.2,301.1l-1.3-2.3h-0.9v2.3h-1v-5.9h2c1.2,0,2.2,0.4,2.2,1.8c0,0.8-0.4,1.5-1.2,1.7l1.4,2.5L165.2,301.1
				z M163.1,298h0.8c0.8,0,1.2-0.3,1.2-1s-0.4-0.9-1.2-0.9h-0.8V298z"/>
			<path class="st0" d="M167.4,295.2h3.5v0.9h-2.5v1.5h2.1v0.9h-2.1v1.7h2.6v0.9h-3.6L167.4,295.2z"/>
			<path class="st0" d="M172.2,295.2h2c1.3,0,2.2,0.5,2.2,1.8s-1,1.9-2.2,1.9h-0.9v2.2h-1L172.2,295.2z M174.1,298.1
				c0.9,0,1.3-0.4,1.3-1.1s-0.4-1-1.3-1h-0.9v2L174.1,298.1z"/>
			<path class="st0" d="M177.2,298.2c0-1.9,1.1-3,2.6-3s2.6,1.1,2.6,3s-1.1,3.1-2.6,3.1S177.2,300.1,177.2,298.2z M181.3,298.2
				c0-1.3-0.6-2.1-1.5-2.1s-1.5,0.8-1.5,2.1s0.6,2.2,1.5,2.2S181.3,299.5,181.3,298.2z"/>
			<path class="st0" d="M183.7,299.7c0.4,0.4,1,0.6,1.5,0.7c0.7,0,1-0.3,1-0.8s-0.4-0.6-0.9-0.9l-0.8-0.4c-0.7-0.2-1.2-0.8-1.2-1.6
				c0.1-1,0.9-1.7,1.9-1.7c0,0,0.1,0,0.1,0c0.7,0,1.3,0.3,1.8,0.8l-0.5,0.7c-0.3-0.3-0.8-0.5-1.3-0.5c-0.6,0-0.9,0.3-0.9,0.7
				s0.4,0.6,0.9,0.8l0.8,0.3c0.7,0.2,1.2,0.9,1.2,1.6c-0.1,1-0.9,1.8-2,1.8c-0.1,0-0.1,0-0.1,0c-0.8,0-1.6-0.3-2.1-0.9L183.7,299.7z
				"/>
			<path class="st0" d="M188.4,295.2h1v5.9h-1V295.2z"/>
			<path class="st0" d="M192.1,296.1h-1.7v-0.9h4.4v0.9h-1.7v5h-1L192.1,296.1z"/>
			<path class="st0" d="M195.2,298.2c0-1.9,1.1-3,2.6-3s2.6,1.1,2.6,3s-1.1,3.1-2.6,3.1S195.2,300.1,195.2,298.2z M199.4,298.2
				c0-1.3-0.6-2.1-1.5-2.1s-1.5,0.8-1.5,2.1s0.6,2.2,1.5,2.2S199.4,299.5,199.4,298.2z"/>
			<path class="st0" d="M204.8,301.1l-1.3-2.3h-0.9v2.3h-1v-5.9h2c1.2,0,2.2,0.4,2.2,1.8c0,0.8-0.4,1.5-1.2,1.7l1.4,2.5L204.8,301.1
				z M202.6,298h0.8c0.8,0,1.2-0.3,1.2-1s-0.4-0.9-1.2-0.9h-0.8V298z"/>
			<path class="st0" d="M207.8,299l-1.8-3.7h1.1l0.6,1.5c0.2,0.4,0.3,0.9,0.5,1.3l0,0c0.2-0.5,0.4-0.9,0.6-1.3l0.6-1.5h1.1l-1.8,3.7
				v2.2h-1L207.8,299z"/>
			<path class="st0" d="M213.1,295.2h1.6c1.4-0.2,2.7,0.9,2.9,2.3c0,0.2,0,0.4,0,0.6c0,2-1.1,3-2.8,3h-1.6V295.2z M214.6,300.2
				c1.2,0,1.9-0.7,1.9-2.1s-0.7-2.1-1.9-2.1h-0.4v4.2H214.6z"/>
			<path class="st0" d="M218.8,295.2h3.5v0.9h-2.5v1.5h2.1v0.9h-2.1v1.7h2.6v0.9h-3.6L218.8,295.2z"/>
			<path class="st0" d="M223.6,295.2h2c1.3,0,2.2,0.5,2.2,1.8s-1,1.9-2.2,1.9h-0.9v2.2h-1L223.6,295.2z M225.4,298.1
				c0.9,0,1.3-0.4,1.3-1.1s-0.4-1-1.3-1h-0.9v2L225.4,298.1z"/>
			<path class="st0" d="M228.9,295.2h1v5h2.4v0.9h-3.5L228.9,295.2z"/>
			<path class="st0" d="M232.7,298.2c0-1.9,1.1-3,2.6-3s2.6,1.1,2.6,3s-1.1,3.1-2.6,3.1S232.7,300.1,232.7,298.2z M236.9,298.2
				c0-1.3-0.6-2.1-1.5-2.1s-1.5,0.8-1.5,2.1s0.6,2.2,1.5,2.2S236.9,299.5,236.9,298.2L236.9,298.2z"/>
			<path class="st0" d="M239.9,299l-1.8-3.7h1.1l0.6,1.5c0.2,0.4,0.3,0.9,0.5,1.3l0,0c0.2-0.5,0.4-0.9,0.6-1.3l0.6-1.5h1.1l-1.8,3.7
				v2.2h-1L239.9,299z"/>
			<path class="st0" d="M243.4,295.2h1.1l1.1,2.9l0.4,1.1l0,0l0.4-1.1l1-2.9h1.1v5.9h-1v-2.7c0-0.5,0.1-1.3,0.1-1.9l0,0l-0.5,1.3
				l-1,2.7h-0.5l-1-2.7l-0.5-1.3l0,0c0,0.5,0.1,1.3,0.1,1.9v2.7h-1L243.4,295.2z"/>
			<path class="st0" d="M250.1,295.2h3.5v0.9h-2.5v1.5h2.1v0.9h-2.1v1.7h2.6v0.9h-3.6L250.1,295.2z"/>
			<path class="st0" d="M254.9,295.2h1.1l1.8,3.3l0.6,1.2l0,0c0-0.6-0.1-1.4-0.1-2v-2.6h1v5.9h-1.1l-1.8-3.3l-0.6-1.2l0,0
				c0.1,0.6,0.1,1.3,0.1,2v2.6h-1L254.9,295.2z"/>
			<path class="st0" d="M262,296.1h-1.7v-0.9h4.4v0.9H263v5h-1L262,296.1z"/>
			<rect x="298.3" y="311.7" class="st4" width="181.1" height="19"/>
			<path class="st0" d="M347,317.9h3.5v0.9h-2.5v1.5h2.1v0.9h-2.1v1.7h2.6v0.9H347V317.9z"/>
			<path class="st0" d="M351.9,317.9h1.1l1.8,3.3l0.6,1.2l0,0c0-0.6-0.1-1.4-0.1-2v-2.6h1v5.9h-1.1l-1.8-3.3l-0.6-1.2l0,0
				c0,0.6,0.1,1.3,0.1,2v2.6h-1V317.9z"/>
			<path class="st0" d="M357,317.9h1.1l0.8,3c0.2,0.7,0.3,1.2,0.5,1.9l0,0c0.2-0.7,0.3-1.2,0.5-1.9l0.8-3h1.1l-1.8,5.9h-1.2
				L357,317.9z"/>
			<path class="st0" d="M362.5,317.9h1v5.9h-1V317.9z"/>
			<path class="st0" d="M368.2,323.8l-1.3-2.3h-0.9v2.3h-1v-5.9h2c1.2,0,2.2,0.4,2.2,1.8c0,0.8-0.4,1.5-1.2,1.7l1.4,2.5L368.2,323.8
				z M366.1,320.6h0.8c0.8,0,1.2-0.3,1.2-1s-0.4-0.9-1.2-0.9h-0.8V320.6z"/>
			<path class="st0" d="M370.1,320.8c0-1.9,1.1-3,2.6-3s2.6,1.1,2.6,3s-1.1,3.1-2.6,3.1S370.1,322.7,370.1,320.8z M374.2,320.8
				c0-1.3-0.6-2.1-1.5-2.1s-1.5,0.8-1.5,2.1s0.6,2.2,1.5,2.2S374.2,322.1,374.2,320.8L374.2,320.8z"/>
			<path class="st0" d="M376.5,317.9h1.1l1.8,3.3l0.6,1.2l0,0c0-0.6-0.1-1.4-0.1-2v-2.6h1v5.9h-1.1l-1.8-3.3l-0.6-1.2l0,0
				c0,0.6,0.1,1.3,0.1,2v2.6h-1L376.5,317.9z"/>
			<path class="st0" d="M382.3,317.9h1.1l1.1,2.9l0.4,1.1l0,0l0.4-1.1l1-2.9h1.1v5.9h-1v-2.7c0-0.5,0.1-1.3,0.1-1.9l0,0l-0.5,1.3
				l-1,2.7h-0.5l-1-2.7l-0.5-1.3l0,0c0,0.5,0.1,1.3,0.1,1.9v2.7h-1L382.3,317.9z"/>
			<path class="st0" d="M389,317.9h3.5v0.9H390v1.5h2.1v0.9H390v1.7h2.6v0.9H389V317.9z"/>
			<path class="st0" d="M393.8,317.9h1.1l1.8,3.3l0.6,1.2l0,0c0-0.6-0.1-1.4-0.1-2v-2.6h1v5.9h-1.1l-1.8-3.3l-0.6-1.2l0,0
				c0,0.6,0.1,1.3,0.1,2v2.6h-1V317.9z"/>
			<path class="st0" d="M400.9,318.8h-1.7v-0.9h4.4v0.9h-1.7v5h-1L400.9,318.8z"/>
			<path class="st0" d="M406.6,322.3c0.4,0.4,1,0.6,1.5,0.7c0.7,0,1-0.3,1-0.8s-0.4-0.6-0.9-0.9l-0.8-0.4c-0.7-0.2-1.2-0.8-1.2-1.6
				c0.1-1,0.9-1.7,1.9-1.7c0,0,0.1,0,0.1,0c0.7,0,1.3,0.3,1.8,0.8l-0.5,0.7c-0.3-0.3-0.8-0.5-1.3-0.5c-0.6,0-0.9,0.3-0.9,0.7
				s0.5,0.6,0.9,0.8l0.8,0.3c0.7,0.2,1.2,0.9,1.2,1.6c-0.1,1-0.9,1.8-2,1.8c-0.1,0-0.1,0-0.1,0c-0.8,0-1.6-0.3-2.1-0.9L406.6,322.3z
				"/>
			<path class="st0" d="M411.3,317.9h3.5v0.9h-2.5v1.5h2.1v0.9h-2.1v1.7h2.6v0.9h-3.6V317.9z"/>
			<path class="st0" d="M417.3,318.8h-1.7v-0.9h4.4v0.9h-1.7v5h-1L417.3,318.8z"/>
			<path class="st0" d="M421,317.9h1v3.4c0,1.3,0.5,1.7,1.2,1.7s1.2-0.4,1.2-1.7v-3.4h1v3.3c0,1.9-0.9,2.7-2.2,2.7s-2.2-0.8-2.2-2.7
				L421,317.9z"/>
			<path class="st0" d="M426.9,317.9h2c1.3,0,2.2,0.5,2.2,1.8s-1,1.9-2.2,1.9h-0.9v2.2h-1L426.9,317.9z M428.7,320.8
				c0.9,0,1.3-0.4,1.3-1.1s-0.4-1-1.3-1h-0.9v2L428.7,320.8z"/>
			<rect x="479.6" y="334.5" class="st13" width="181.2" height="19"/>
			<path class="st0" d="M541.6,341.2h1.6c1.4-0.2,2.7,0.9,2.9,2.3c0,0.2,0,0.4,0,0.6c0,2-1.1,3-2.8,3h-1.6V341.2z M543.1,346.2
				c1.2,0,1.9-0.7,1.9-2.1s-0.7-2.1-1.9-2.1h-0.5v4.2L543.1,346.2z"/>
			<path class="st0" d="M547.2,341.2h3.5v0.9h-2.5v1.5h2.1v0.9h-2.1v1.7h2.6v0.9h-3.6V341.2z"/>
			<path class="st0" d="M552,341.2h1.1l1.1,2.9l0.4,1.1l0,0l0.4-1.1l1-2.9h1.2v5.9h-1v-2.7c0-0.5,0.1-1.3,0.1-1.9l0,0l-0.5,1.3
				l-1,2.7h-0.5l-1-2.7l-0.5-1.3l0,0c0,0.5,0.1,1.3,0.1,1.9v2.7h-1L552,341.2z"/>
			<path class="st0" d="M558.3,344.1c0-1.9,1.1-3,2.6-3s2.6,1.1,2.6,3s-1.1,3.1-2.6,3.1S558.3,346,558.3,344.1z M562.5,344.1
				c0-1.3-0.6-2.1-1.5-2.1s-1.5,0.8-1.5,2.1s0.6,2.2,1.5,2.2S562.5,345.5,562.5,344.1L562.5,344.1z"/>
			<path class="st0" d="M566.7,345.6c0.4,0.4,1,0.6,1.5,0.7c0.7,0,1-0.3,1-0.8s-0.4-0.6-0.9-0.9l-0.8-0.4c-0.7-0.2-1.2-0.8-1.2-1.6
				c0.1-1,0.9-1.7,1.9-1.7c0,0,0.1,0,0.1,0c0.7,0,1.3,0.3,1.8,0.8l-0.5,0.7c-0.3-0.3-0.8-0.5-1.3-0.5c-0.6,0-0.9,0.3-0.9,0.7
				s0.5,0.6,0.9,0.8l0.8,0.3c0.7,0.2,1.2,0.9,1.2,1.6c-0.1,1-0.9,1.8-2,1.8c-0.1,0-0.1,0-0.2,0c-0.8,0-1.6-0.3-2.1-0.9L566.7,345.6z
				"/>
			<path class="st0" d="M572.4,342.1h-1.7v-0.9h4.4v0.9h-1.7v5h-1L572.4,342.1z"/>
			<path class="st0" d="M578.5,345.5h-2l-0.5,1.6h-1l1.9-5.9h1.2l1.9,5.9H579L578.5,345.5z M578.3,344.7L578,344
				c-0.2-0.6-0.4-1.3-0.5-1.9l0,0c-0.2,0.7-0.3,1.3-0.5,1.9l-0.2,0.7H578.3z"/>
			<path class="st0" d="M583.2,341.1c0.7,0,1.3,0.3,1.8,0.8l-0.6,0.6c-0.3-0.3-0.7-0.5-1.2-0.5c-1,0-1.8,0.8-1.8,2.1
				s0.6,2.1,1.8,2.1c0.3,0,0.6-0.1,0.8-0.3v-1.3H583v-0.9h2v2.6c-0.5,0.5-1.2,0.7-1.9,0.7c-1.5,0-2.7-1.2-2.8-2.7c0-0.1,0-0.2,0-0.3
				c-0.2-1.5,0.9-2.9,2.5-3.1C582.9,341.1,583.1,341.1,583.2,341.1z"/>
			<path class="st0" d="M586.3,341.2h1v5.9h-1V341.2z"/>
			<path class="st0" d="M588.8,341.2h1.1l1.8,3.3l0.6,1.2l0,0c0-0.6-0.1-1.4-0.1-2v-2.6h1v5.9h-1.1l-1.8-3.3l-0.6-1.2l0,0
				c0,0.6,0.1,1.3,0.1,2v2.6h-1V341.2z"/>
			<path class="st0" d="M597.2,341.1c0.7,0,1.3,0.3,1.8,0.8l-0.6,0.6c-0.3-0.3-0.7-0.5-1.2-0.5c-1,0-1.8,0.8-1.8,2.1
				s0.6,2.1,1.8,2.1c0.3,0,0.6-0.1,0.8-0.3v-1.3H597v-0.9h2v2.6c-0.5,0.5-1.2,0.7-1.9,0.7c-1.5,0-2.7-1.2-2.8-2.7c0-0.1,0-0.2,0-0.3
				c-0.2-1.5,0.9-2.9,2.5-3.1C596.9,341.1,597.1,341.1,597.2,341.1z"/>
			<rect x="661.1" y="357.3" class="st10" width="180" height="19"/>
			<path class="st0" d="M706.1,363.5h1v5.9h-1V363.5z"/>
			<path class="st0" d="M708.7,363.5h1.1l1.8,3.3l0.6,1.2l0,0c0-0.6-0.1-1.4-0.1-2v-2.6h1v5.9h-1l-1.8-3.3l-0.6-1.2l0,0
				c0,0.6,0.1,1.3,0.1,2v2.6h-1L708.7,363.5z"/>
			<path class="st0" d="M715.7,364.4H714v-0.9h4.4v0.9h-1.7v5h-1L715.7,364.4z"/>
			<path class="st0" d="M719.4,363.5h3.6v0.9h-2.5v1.5h2.1v0.9h-2.1v1.7h2.5v0.9h-3.6L719.4,363.5z"/>
			<path class="st0" d="M726.7,363.4c0.7,0,1.3,0.3,1.8,0.8l-0.6,0.6c-0.3-0.3-0.7-0.5-1.2-0.5c-1,0-1.8,0.8-1.8,2.1
				s0.6,2.1,1.8,2.1c0.3,0,0.6-0.1,0.8-0.3v-1.3h-1.1v-0.9h2v2.6c-0.5,0.5-1.2,0.7-1.9,0.7c-1.5,0-2.7-1.2-2.8-2.7
				c0-0.1,0-0.2,0-0.3c-0.2-1.5,0.9-2.9,2.5-3.1C726.4,363.4,726.6,363.4,726.7,363.4z"/>
			<path class="st0" d="M733,369.4l-1.3-2.3h-0.9v2.3h-1v-5.9h2c1.2,0,2.2,0.4,2.2,1.8c0,0.8-0.4,1.5-1.2,1.7l1.4,2.5L733,369.4z
				 M730.8,366.3h0.8c0.8,0,1.2-0.3,1.2-1s-0.4-0.9-1.2-0.9h-0.8V366.3z"/>
			<path class="st0" d="M737.8,367.8h-2l-0.5,1.6h-1.1l1.9-5.9h1.2l1.9,5.9h-1.1L737.8,367.8z M737.6,367l-0.2-0.7
				c-0.2-0.6-0.4-1.3-0.5-1.9l0,0c-0.2,0.7-0.3,1.3-0.5,1.9l-0.2,0.7H737.6z"/>
			<path class="st0" d="M740.9,364.4h-1.7v-0.9h4.4v0.9H742v5h-1L740.9,364.4z"/>
			<path class="st0" d="M744.6,363.5h3.5v0.9h-2.5v1.5h2.1v0.9h-2.1v1.7h2.6v0.9h-3.6V363.5z"/>
			<path class="st0" d="M751.3,363.5h2c1.3,0,2.2,0.5,2.2,1.8s-1,1.9-2.2,1.9h-0.9v2.2h-1L751.3,363.5z M753.2,366.4
				c0.9,0,1.3-0.4,1.3-1.1s-0.4-1-1.3-1h-0.8v2L753.2,366.4z"/>
			<path class="st0" d="M759.8,369.4l-1.3-2.3h-0.9v2.3h-1v-5.9h2c1.2,0,2.2,0.4,2.2,1.8c0,0.8-0.4,1.5-1.2,1.7l1.4,2.5L759.8,369.4
				z M757.6,366.3h0.8c0.8,0,1.2-0.3,1.2-1s-0.4-0.9-1.2-0.9h-0.8V366.3z"/>
			<path class="st0" d="M761.6,366.4c0-1.9,1.1-3,2.6-3s2.6,1.1,2.6,3s-1.1,3.1-2.6,3.1S761.6,368.3,761.6,366.4z M765.7,366.4
				c0-1.3-0.6-2.1-1.5-2.1s-1.5,0.8-1.5,2.1s0.6,2.2,1.5,2.2S765.7,367.8,765.7,366.4z"/>
			<path class="st0" d="M769,364.4h-1.7v-0.9h4.4v0.9H770v5h-1V364.4z"/>
			<path class="st0" d="M772.1,366.4c0-1.9,1.1-3,2.6-3s2.6,1.1,2.6,3s-1.1,3.1-2.6,3.1S772.1,368.3,772.1,366.4z M776.2,366.4
				c0-1.3-0.6-2.1-1.5-2.1s-1.5,0.8-1.5,2.1s0.6,2.2,1.5,2.2S776.3,367.8,776.2,366.4L776.2,366.4z"/>
			<path class="st0" d="M779.5,364.4h-1.7v-0.9h4.4v0.9h-1.7v5h-1L779.5,364.4z"/>
			<path class="st0" d="M784,367.2l-1.8-3.7h1.1l0.7,1.5c0.2,0.4,0.3,0.9,0.5,1.3l0,0c0.2-0.5,0.4-0.9,0.5-1.3l0.6-1.5h1.1l-1.8,3.7
				v2.2h-1L784,367.2z"/>
			<path class="st0" d="M787.5,363.5h2c1.3,0,2.2,0.5,2.2,1.8s-1,1.9-2.2,1.9h-0.9v2.2h-1L787.5,363.5z M789.4,366.4
				c0.9,0,1.3-0.4,1.3-1.1s-0.4-1-1.3-1h-0.8v2L789.4,366.4z"/>
			<path class="st0" d="M792.8,363.5h3.5v0.9h-2.5v1.5h2.1v0.9h-2.1v1.7h2.6v0.9h-3.6L792.8,363.5z"/>
			<rect x="661.1" y="380.1" class="st6" width="180" height="19"/>
			<path class="st0" d="M709.4,386.4h3.5v0.9h-2.5v1.5h2.1v0.9h-2.1v1.7h2.5v0.9h-3.6V386.4z"/>
			<path class="st0" d="M714.2,386.4h1.1l1.8,3.3l0.6,1.2l0,0c0-0.6-0.1-1.4-0.1-2v-2.6h1v5.9h-1.1l-1.8-3.3l-0.6-1.2l0,0
				c0,0.6,0.1,1.3,0.1,2v2.6h-1V386.4z"/>
			<path class="st0" d="M722.6,386.3c0.7,0,1.3,0.3,1.8,0.8l-0.6,0.6c-0.3-0.3-0.7-0.5-1.2-0.5c-1,0-1.8,0.8-1.8,2.1
				s0.6,2.1,1.8,2.1c0.3,0,0.6-0.1,0.8-0.3v-1.3h-1.1v-0.9h2v2.6c-0.5,0.5-1.2,0.7-1.9,0.7c-1.5,0-2.7-1.2-2.8-2.7
				c0-0.1,0-0.2,0-0.3c-0.2-1.5,0.9-2.9,2.5-3.1C722.3,386.3,722.4,386.3,722.6,386.3z"/>
			<path class="st0" d="M725.7,386.4h1v5.9h-1V386.4z"/>
			<path class="st0" d="M728.2,386.4h1.1l1.8,3.3l0.6,1.2l0,0c0-0.6-0.1-1.4-0.1-2v-2.6h1v5.9h-1.1l-1.8-3.3l-0.6-1.2l0,0
				c0,0.6,0.1,1.3,0.1,2v2.6h-1V386.4z"/>
			<path class="st0" d="M734.1,386.4h3.5v0.9h-2.5v1.5h2.1v0.9h-2.1v1.7h2.6v0.9h-3.6V386.4z"/>
			<path class="st0" d="M738.9,386.4h3.5v0.9h-2.5v1.5h2.1v0.9h-2.1v1.7h2.6v0.9h-3.6V386.4z"/>
			<path class="st0" d="M746.9,392.3l-1.3-2.3h-0.9v2.3h-1v-5.9h2c1.2,0,2.2,0.4,2.2,1.8c0,0.8-0.4,1.5-1.2,1.7l1.4,2.5L746.9,392.3
				z M744.7,389.1h0.8c0.8,0,1.2-0.3,1.2-1s-0.4-0.9-1.2-0.9h-0.8V389.1z"/>
			<path class="st0" d="M749.1,386.4h1v5.9h-1V386.4z"/>
			<path class="st0" d="M751.6,386.4h1.1l1.8,3.3l0.6,1.2l0,0c0-0.6-0.1-1.4-0.1-2v-2.6h1v5.9h-1l-1.8-3.3l-0.6-1.2l0,0
				c0,0.6,0.1,1.3,0.1,2v2.6h-1L751.6,386.4z"/>
			<path class="st0" d="M759.9,386.3c0.7,0,1.3,0.3,1.8,0.8l-0.6,0.6c-0.3-0.3-0.7-0.5-1.2-0.5c-1,0-1.8,0.8-1.8,2.1
				s0.6,2.1,1.8,2.1c0.3,0,0.6-0.1,0.8-0.3v-1.3h-1.1v-0.9h2v2.6c-0.5,0.5-1.2,0.7-1.9,0.7c-1.5,0-2.7-1.2-2.8-2.7
				c0-0.1,0-0.2,0-0.3c-0.2-1.5,0.9-2.9,2.5-3.1C759.7,386.3,759.8,386.3,759.9,386.3z"/>
			<path class="st0" d="M768.1,392.3l-1.3-2.3H766v2.3h-1v-5.9h2c1.2,0,2.2,0.4,2.2,1.8c0,0.8-0.4,1.5-1.2,1.7l1.4,2.5L768.1,392.3z
				 M766,389.1h0.8c0.8,0,1.2-0.3,1.2-1s-0.4-0.9-1.2-0.9H766V389.1z"/>
			<path class="st0" d="M770.3,386.4h3.5v0.9h-2.5v1.5h2.1v0.9h-2.1v1.7h2.6v0.9h-3.6V386.4z"/>
			<path class="st0" d="M774.3,386.4h1.1l0.8,3c0.2,0.7,0.3,1.2,0.5,1.9l0,0c0.2-0.7,0.3-1.2,0.5-1.9l0.8-3h1.1l-1.8,5.9h-1.2
				L774.3,386.4z"/>
			<path class="st0" d="M779.9,386.4h1v5.9h-1V386.4z"/>
			<path class="st0" d="M782.4,386.4h3.5v0.9h-2.5v1.5h2.1v0.9h-2.1v1.7h2.6v0.9h-3.6L782.4,386.4z"/>
			<path class="st0" d="M786.6,386.4h1.1l0.5,3l0.3,1.9l0,0c0.1-0.6,0.2-1.3,0.4-1.9l0.7-3h0.9l0.7,3c0.1,0.6,0.3,1.2,0.4,1.9l0,0
				c0.1-0.6,0.2-1.3,0.3-1.9l0.5-3h1l-1.1,5.9H791l-0.7-3.1c-0.1-0.5-0.2-0.9-0.3-1.4l0,0c-0.1,0.5-0.2,0.9-0.3,1.4l-0.7,3.1h-1.3
				L786.6,386.4z"/>
		</g>
	</g>
</g>
</svg>
