<svg xmlns="http://www.w3.org/2000/svg" viewBox="0 0 230 144"><defs><style>.cls-1{fill:#6b449b;}.cls-2{fill:#73cf7a;}.cls-3{fill:#06aad1;}.cls-4{fill:#b2b2b2;}.cls-5{fill:none;}</style></defs><title>application</title><g id="Layer_2" data-name="Layer 2"><g id="Feature_Roadmap" data-name="Feature Roadmap"><rect class="cls-1" x="34.63" y="57.49" width="44.67" height="29.02" rx="14.51" ry="14.51"/><rect class="cls-2" x="138.2" y="108.17" width="65.94" height="29.02" rx="14.51" ry="14.51"/><rect class="cls-2" x="57.43" y="108.17" width="65.94" height="29.02" rx="14.51" ry="14.51"/><path class="cls-1" d="M229.5,86.51h-77A14.51,14.51,0,0,1,138,72h0a14.51,14.51,0,0,1,14.51-14.51h77"/><path class="cls-3" d="M229.5,35.83H75.6A14.51,14.51,0,0,1,61.09,21.31h0A14.51,14.51,0,0,1,75.6,6.8H229.5"/><circle class="cls-3" cx="31.65" cy="21.31" r="14.51"/><circle class="cls-1" cx="108.64" cy="72" r="14.51"/><rect class="cls-4" x="229" width="1" height="144"/><rect class="cls-5" width="230" height="144"/></g></g></svg>