<svg xmlns="http://www.w3.org/2000/svg" viewBox="0 0 230 144"><defs><style>.cls-1{fill:#50c687;}.cls-2{fill:#f95f5f;}.cls-3{fill:#006aa3;}.cls-4{fill:#b2b2b2;}.cls-5{fill:none;}</style></defs><title>content-marketing</title><g id="Layer_2" data-name="Layer 2"><g id="Content_Marketing_Roadmap" data-name="Content Marketing Roadmap"><rect class="cls-1" x="26.35" y="6.8" width="63.25" height="29.02" rx="14.51" ry="14.51"/><rect class="cls-2" x="17.14" y="108.17" width="62.15" height="29.02" rx="14.51" ry="14.51"/><rect class="cls-2" x="137.98" y="108.17" width="84.61" height="29.02" rx="14.51" ry="14.51"/><path class="cls-3" d="M229.5,86.51H129.28A14.52,14.52,0,0,1,114.76,72h0a14.52,14.52,0,0,1,14.52-14.51H229.5"/><path class="cls-1" d="M229.5,35.83H162.8a14.52,14.52,0,0,1-14.52-14.52h0A14.52,14.52,0,0,1,162.8,6.8h66.7"/><circle class="cls-1" cx="118.94" cy="21.31" r="14.51"/><circle class="cls-2" cx="108.64" cy="122.69" r="14.51"/><circle class="cls-3" cx="85.42" cy="72" r="14.51"/><rect class="cls-4" x="229" width="1" height="144"/><rect class="cls-5" width="230" height="144"/></g></g></svg>