<svg xmlns="http://www.w3.org/2000/svg" viewBox="0 0 209.81 144"><defs><style>.cls-1{fill:#50c687;}.cls-2{fill:#ff9796;}.cls-3{fill:#3f5cad;}.cls-4{fill:#b2b2b2;}</style></defs><title>digital-marketing</title><g id="Layer_2" data-name="Layer 2"><g id="Digital_Marketing_Roadmap" data-name="Digital Marketing Roadmap"><rect class="cls-1" x="33.03" y="57.49" width="72.15" height="29.02" rx="14.51" ry="14.51"/><rect class="cls-2" y="108.17" width="113.26" height="29.02" rx="14.51" ry="14.51"/><path class="cls-3" d="M209.31,35.83H82A14.51,14.51,0,0,1,67.49,21.31h0A14.51,14.51,0,0,1,82,6.8H209.31"/><path class="cls-2" d="M209.31,137.2H142.6a14.51,14.51,0,0,1-14.51-14.51h0a14.51,14.51,0,0,1,14.51-14.51h66.7"/><circle class="cls-3" cx="38.15" cy="21.31" r="14.51"/><circle class="cls-1" cx="134.52" cy="72" r="14.51"/><circle class="cls-1" cx="178.37" cy="72" r="14.51"/><rect class="cls-4" x="208.81" width="1" height="144"/></g></g></svg>