<svg xmlns="http://www.w3.org/2000/svg" viewBox="0 0 230 144"><defs><style>.cls-1{fill:#27afc4;}.cls-2{fill:#f95f5f;}.cls-3{fill:#44c7af;}.cls-4{fill:#b2b2b2;}.cls-5{fill:none;}</style></defs><title>ecommerce</title><g id="Layer_2" data-name="Layer 2"><g id="eCommerce_Roadmap" data-name="eCommerce Roadmap"><rect class="cls-1" x="37.14" y="57.49" width="96.31" height="29.02" rx="14.51" ry="14.51"/><path class="cls-2" d="M229.5,137.2H128a14.51,14.51,0,0,1-14.51-14.51h0A14.51,14.51,0,0,1,128,108.17H229.5"/><path class="cls-3" d="M229.5,35.83H154.14a14.52,14.52,0,0,1-14.51-14.52h0A14.51,14.51,0,0,1,154.14,6.8H229.5"/><path class="cls-1" d="M229.5,86.21H162.8A14.52,14.52,0,0,1,148.28,71.7h0A14.52,14.52,0,0,1,162.8,57.18h66.7"/><circle class="cls-3" cx="110.29" cy="21.31" r="14.51"/><circle class="cls-2" cx="84.17" cy="122.69" r="14.51"/><rect class="cls-4" x="229" width="1" height="144"/><rect class="cls-5" width="230" height="144"/></g></g></svg>