<svg xmlns="http://www.w3.org/2000/svg" viewBox="0 0 230 144"><defs><style>.cls-1{fill:#fc7c6e;}.cls-2{fill:#9266c6;}.cls-3{fill:#fbc32a;}.cls-4{fill:#b2b2b2;}.cls-5{fill:none;}</style></defs><title>portfolio</title><g id="Layer_2" data-name="Layer 2"><g id="Feature_Roadmap" data-name="Feature Roadmap"><rect class="cls-1" x="127.22" y="108.17" width="50.2" height="29.02" rx="14.51" ry="14.51"/><rect class="cls-1" x="11.81" y="108.17" width="56.73" height="29.02" rx="14.51" ry="14.51"/><rect class="cls-2" x="50.1" y="57.49" width="40.2" height="29.02" rx="14.51" ry="14.51"/><path class="cls-1" d="M229.5,137.2H206.77a14.51,14.51,0,0,1-14.51-14.51h0a14.51,14.51,0,0,1,14.51-14.51H229.5"/><path class="cls-3" d="M229.5,35.83h-197A14.51,14.51,0,0,1,18,21.31h0A14.51,14.51,0,0,1,32.55,6.8h197"/><path class="cls-2" d="M229.5,86.51H119.65A14.51,14.51,0,0,1,105.14,72h0a14.51,14.51,0,0,1,14.51-14.51H229.5"/><circle class="cls-1" cx="97.88" cy="122.69" r="14.51"/><rect class="cls-4" x="229" width="1" height="144"/><rect class="cls-5" width="230" height="144"/></g></g></svg>