<svg xmlns="http://www.w3.org/2000/svg" viewBox="0 0 230 144"><defs><style>.cls-1{fill:#fd9787;}.cls-2{fill:#3f5cad;}.cls-3{fill:#4ec681;}.cls-4{fill:#b2b2b2;}.cls-5{fill:none;}</style></defs><title>product</title><g id="Layer_2" data-name="Layer 2"><g id="Feature_Roadmap" data-name="Feature Roadmap"><rect class="cls-1" x="20.25" y="57.49" width="79.05" height="29.02" rx="14.51" ry="14.51"/><rect class="cls-2" x="44.32" y="108.17" width="79.05" height="29.02" rx="14.51" ry="14.51"/><path class="cls-2" d="M229.5,137.2H196.15a14.51,14.51,0,0,1-14.51-14.51h0a14.51,14.51,0,0,1,14.51-14.51H229.5"/><path class="cls-3" d="M229.5,35.83H162.8a14.51,14.51,0,0,1-14.51-14.51h0A14.51,14.51,0,0,1,162.8,6.8h66.7"/><circle class="cls-3" cx="118.94" cy="21.31" r="14.51"/><circle class="cls-1" cx="128.64" cy="72" r="14.51"/><rect class="cls-4" x="229" width="1" height="144"/><rect class="cls-3" x="39.77" y="6.8" width="49.83" height="29.02" rx="14.51" ry="14.51"/><rect class="cls-1" x="157.98" y="57.49" width="63.03" height="29.02" rx="14.51" ry="14.51"/><path class="cls-2" d="M229.5,137.2H196.15a14.51,14.51,0,0,1-14.51-14.51h0a14.51,14.51,0,0,1,14.51-14.51H229.5"/><circle class="cls-2" cx="152.49" cy="122.69" r="14.51"/><rect class="cls-4" x="229" width="1" height="144"/><rect class="cls-5" width="230" height="144"/></g></g></svg>