<svg xmlns="http://www.w3.org/2000/svg" viewBox="0 0 230 144"><defs><style>.cls-1{fill:#26ccdd;}.cls-2{fill:#f4cf31;}.cls-3{fill:#b5ce21;}.cls-4{fill:#b2b2b2;}.cls-5{fill:none;}</style></defs><title>product-launch</title><g id="Layer_2" data-name="Layer 2"><g id="Product_Launch_Roadmap" data-name="Product Launch Roadmap"><rect class="cls-1" x="17.14" y="6.8" width="62.15" height="29.02" rx="14.51" ry="14.51"/><rect class="cls-1" x="137.98" y="6.8" width="84.61" height="29.02" rx="14.51" ry="14.51"/><rect class="cls-2" x="13.8" y="57.49" width="119.65" height="29.02" rx="14.51" ry="14.51"/><path class="cls-2" d="M229.51,86.51H162.79A14.51,14.51,0,0,1,148.27,72h0a14.51,14.51,0,0,1,14.51-14.51h66.72"/><path class="cls-3" d="M229.5,137.2H162.8a14.51,14.51,0,0,1-14.51-14.51h0a14.51,14.51,0,0,1,14.51-14.51h66.7"/><circle class="cls-3" cx="118.94" cy="122.69" r="14.51"/><circle class="cls-3" cx="75.38" cy="122.69" r="14.51"/><circle class="cls-1" cx="108.64" cy="21.31" r="14.51"/><rect class="cls-4" x="229" width="1" height="144"/><rect class="cls-5" width="230" height="144"/></g></g></svg>