<svg xmlns="http://www.w3.org/2000/svg" viewBox="0 0 230 144"><defs><style>.cls-1{fill:#fc725e;}.cls-2{fill:#917cc2;}.cls-3{fill:#fbc32a;}.cls-4{fill:#b2b2b2;}.cls-5{fill:none;}</style></defs><title>product-development</title><g id="Layer_2" data-name="Layer 2"><g id="Feature_Roadmap" data-name="Feature Roadmap"><rect class="cls-1" x="61.3" y="6.8" width="62.15" height="29.02" rx="14.51" ry="14.51"/><rect class="cls-2" x="11.27" y="57.49" width="68.33" height="29.02" rx="14.51" ry="14.51"/><rect class="cls-3" x="52.24" y="108.17" width="155.95" height="29.02" rx="14.51" ry="14.51"/><path class="cls-1" d="M229.5,35.83H152.8a14.51,14.51,0,0,1-14.51-14.51h0A14.51,14.51,0,0,1,152.8,6.8h76.7"/><path class="cls-2" d="M229.5,86.51H152.8A14.51,14.51,0,0,1,138.28,72h0A14.51,14.51,0,0,1,152.8,57.49h76.7"/><circle class="cls-2" cx="108.94" cy="72" r="14.51"/><rect class="cls-4" x="229" width="1" height="144"/><rect class="cls-5" width="230" height="144"/></g></g></svg>