<svg xmlns="http://www.w3.org/2000/svg" xmlns:xlink="http://www.w3.org/1999/xlink" viewBox="0 0 1061.74 396.01"><defs><style>.cls-1{fill:none;}.cls-2{fill:gray;}.cls-3{fill:#fff;}.cls-4{fill:url(#_10_dpi_30_);}.cls-5{fill:#545454;}.cls-6{fill:#61cae2;}</style><pattern id="_10_dpi_30_" data-name="10 dpi 30%" width="28.8" height="28.8" patternTransform="translate(0 -95.45)" patternUnits="userSpaceOnUse" viewBox="0 0 28.8 28.8"><rect class="cls-1" width="28.8" height="28.8"/><circle class="cls-2" cx="28.8" cy="28.8" r="2.16"/><circle class="cls-2" cx="14.4" cy="28.8" r="2.16"/><circle class="cls-2" cx="28.8" cy="14.4" r="2.16"/><circle class="cls-2" cx="14.4" cy="14.4" r="2.16"/><circle class="cls-2" cx="7.2" cy="21.6" r="2.16"/><circle class="cls-2" cx="21.6" cy="21.6" r="2.16"/><circle class="cls-2" cx="7.2" cy="7.2" r="2.16"/><circle class="cls-2" cx="21.6" cy="7.2" r="2.16"/><circle class="cls-2" cy="28.8" r="2.16"/><circle class="cls-2" cy="14.4" r="2.16"/><circle class="cls-2" cx="28.8" r="2.16"/><circle class="cls-2" cx="14.4" r="2.16"/><circle class="cls-2" r="2.16"/></pattern></defs><title>comparison-bg</title><g id="Layer_2" data-name="Layer 2"><g id="Layer_1-2" data-name="Layer 1"><path class="cls-3" d="M120,395.7C103.83,291.31,2,318.18,2,318.18S142.12,270.19,55.21,90c254.43,142,248.1-43.13,248.1-43.13S394.72,176.58,504.19,1.57C592.56,199.18,727.66,46,727.66,46S825.2,234,965.31,33.47c-48,235.39,92.52,225.65,92.52,225.65s-130.5,22-130.5,126.12Z"/><path class="cls-4" d="M120,395.7C103.83,291.31,2,318.18,2,318.18S142.12,270.19,55.21,90c254.43,142,248.1-43.13,248.1-43.13S394.72,176.58,504.19,1.57C592.56,199.18,727.66,46,727.66,46S825.2,234,965.31,33.47c-48,235.39,92.52,225.65,92.52,225.65s-130.5,22-130.5,126.12Z"/><path class="cls-5" d="M119.74,396c-.37-1.69-.73-3.47-1.06-5.21s-.7-3.29-1.09-4.92c-.8-3.26-1.67-6.51-2.73-9.69a101.5,101.5,0,0,0-8-18.4,79.85,79.85,0,0,0-5.37-8.43,74.62,74.62,0,0,0-21.81-20.13c-11.37-6.87-24.44-10.58-37.65-11.81a123.08,123.08,0,0,0-19.92-.19c-3.32.23-6.62.58-9.91,1.07a98.46,98.46,0,0,0-9.69,1.88,2.06,2.06,0,0,1-1.24-3.92l0,0c2.44-.91,5-2,7.44-3.23s4.88-2.47,7.26-3.83a136.13,136.13,0,0,0,13.76-9A130.3,130.3,0,0,0,53.5,277.66a118.13,118.13,0,0,0,16.91-27.84,124,124,0,0,0,8.78-31.36,146.85,146.85,0,0,0,1.4-16.29c.05-1.36,0-2.73,0-4.09v-2l-.06-2c0-1.37-.06-2.73-.12-4.1l-.25-4.09a201,201,0,0,0-5.15-32.44C69.93,132,61.8,111.36,52.19,91.5a3.36,3.36,0,0,1,4.64-4.41l0,0c23,12.77,46.69,24.52,71.15,34.05a335.91,335.91,0,0,0,37.32,12.21,206.81,206.81,0,0,0,38.42,6.41c12.89.79,25.9,0,38.13-3.58a73.65,73.65,0,0,0,32.35-18.92c8.9-9,15.32-20.33,19.49-32.45a118.36,118.36,0,0,0,4.73-18.7q.82-4.77,1.26-9.59.22-2.41.34-4.81c.08-1.58.12-3.25.1-4.72v0a3.18,3.18,0,0,1,5.76-1.9c1.41,2,3.08,4,4.74,6s3.42,3.87,5.21,5.73a134.84,134.84,0,0,0,11.38,10.54A111.38,111.38,0,0,0,353.4,83.59a82.39,82.39,0,0,0,29.76,6.92,81.5,81.5,0,0,0,30.24-4.79,98.14,98.14,0,0,0,14.15-6.32c2.3-1.19,4.51-2.56,6.74-3.89,1.1-.69,2.18-1.42,3.26-2.13l1.63-1.08,1.59-1.14c4.28-3,8.3-6.32,12.28-9.69s7.73-7.05,11.36-10.83C479,35.57,491.57,18.51,502.87.74h0a1.56,1.56,0,0,1,2.74.2,314.14,314.14,0,0,0,16.23,31.89A202.89,202.89,0,0,0,542.39,62a130.9,130.9,0,0,0,26.35,23.81A91.42,91.42,0,0,0,601.2,99.63a91.65,91.65,0,0,0,35.28,0,128.53,128.53,0,0,0,33.56-11.6A185.7,185.7,0,0,0,700.19,69q7.08-5.45,13.72-11.46c4.4-4,8.71-8.18,12.65-12.54a1.48,1.48,0,0,1,2.39.28h0a170.75,170.75,0,0,0,10,16q5.44,7.78,11.56,15a167.84,167.84,0,0,0,27.3,26.1A110.33,110.33,0,0,0,811,119.86,84.89,84.89,0,0,0,847.84,123,103.06,103.06,0,0,0,883,111a164.55,164.55,0,0,0,30.53-21.89,265.8,265.8,0,0,0,26.22-27.24c8.13-9.67,15.75-19.8,23-30.21a3.13,3.13,0,0,1,5.64,2.38v0c-4.49,22.94-7.88,46.1-9.1,69.36a304.14,304.14,0,0,0,.1,34.83c.33,5.79,1,11.54,1.72,17.27s1.84,11.39,3.14,17A166,166,0,0,0,969,189.06a127.15,127.15,0,0,0,6.81,15.69,98.31,98.31,0,0,0,20.28,27,87.23,87.23,0,0,0,28.58,17.6,91.88,91.88,0,0,0,16.28,4.49c2.77.5,5.57.88,8.36,1.11,1.4.12,2.79.2,4.18.24.69,0,1.39,0,2.07,0s1.41,0,1.94-.05a4,4,0,0,1,.95,7.85h0c-3.79.7-7.8,1.66-11.68,2.67s-7.78,2.16-11.63,3.4a227.1,227.1,0,0,0-22.64,8.6,175,175,0,0,0-41,24.95c-12.26,10.21-22.64,22.6-29.6,36.77a97.89,97.89,0,0,0-7.78,22.27c-.23,1-.43,1.92-.6,2.9l-.53,2.91c-.26,2-.6,3.91-.76,5.88a118.44,118.44,0,0,0-.63,11.87v.06a4.28,4.28,0,0,1-4.21,4.2c-67.51,1-135,1.62-202.53,2.34l-202.32,1.77L320.73,395Zm.52-.61,202.68-4.2,201.85-3.87,201.35-3.47c67.06-1,134.09-2.1,201.13-2.89l-4.21,4.27a126.94,126.94,0,0,1,.68-12.75c.17-2.13.54-4.23.82-6.35l.57-3.15c.18-1.05.4-2.1.65-3.14a106.42,106.42,0,0,1,8.47-24.18c7.55-15.41,18.87-28.69,31.9-39.44a183.18,183.18,0,0,1,43.1-26,235.2,235.2,0,0,1,23.49-8.81q6-1.9,12.06-3.47c4.08-1,8.07-2,12.37-2.76l.93,7.85c-.94.05-1.66.06-2.47.06s-1.56,0-2.33,0q-2.32-.08-4.61-.28c-3.06-.27-6.09-.69-9.09-1.25a99.72,99.72,0,0,1-17.63-5,94.89,94.89,0,0,1-31-19.28,105.82,105.82,0,0,1-21.72-29.16,134.54,134.54,0,0,1-7.14-16.65,173.15,173.15,0,0,1-5-17.33c-1.33-5.85-2.36-11.75-3.17-17.67s-1.35-11.86-1.65-17.81a311.08,311.08,0,0,1,.12-35.63c1.37-23.69,5-47.11,9.81-70.23l5.63,2.42c-14.82,20.92-31.26,40.93-50.73,57.93a169.68,169.68,0,0,1-31.77,22.19,107.76,107.76,0,0,1-37,12.09,89.54,89.54,0,0,1-38.69-3.72,114.19,114.19,0,0,1-34.1-18.34A171.29,171.29,0,0,1,748,78.47Q741.9,71,736.47,63.08a184.31,184.31,0,0,1-10.1-16.44l2.4.29c-4.13,4.51-8.47,8.66-13,12.7s-9.15,7.86-14,11.52a193.18,193.18,0,0,1-30.65,19.2,131,131,0,0,1-34.25,11.75,94.26,94.26,0,0,1-36.22-.12,93.88,93.88,0,0,1-33.37-14.08,133.43,133.43,0,0,1-26.94-24.2,211.9,211.9,0,0,1-21-29.44A317.08,317.08,0,0,1,502.77,2.2l2.75.19c-11.23,18-23.6,35.42-38.29,50.94-3.65,3.89-7.51,7.59-11.45,11.2s-8.11,7-12.49,10.12l-1.62,1.2L440,77c-1.12.75-2.22,1.52-3.35,2.25-2.29,1.41-4.56,2.86-6.94,4.13A102.77,102.77,0,0,1,415,90.15a86.76,86.76,0,0,1-32,5.5,87.76,87.76,0,0,1-31.79-6.92,110,110,0,0,1-14.5-7.41A127.42,127.42,0,0,1,323.45,72a140.87,140.87,0,0,1-12-10.88q-2.85-2.89-5.52-5.95c-1.79-2.06-3.49-4.09-5.19-6.4l5.76-1.93c.05,1.84,0,3.48,0,5.21s-.17,3.4-.31,5.09q-.41,5.08-1.22,10.1A123.19,123.19,0,0,1,300.05,87c-4.33,12.9-11.15,25.24-20.85,35.17a76.54,76.54,0,0,1-16.33,12.77,84.07,84.07,0,0,1-19,8.09c-13.24,3.84-27.05,4.7-40.54,3.9a185.08,185.08,0,0,1-20.1-2.36q-9.94-1.75-19.68-4.31a342.89,342.89,0,0,1-38.07-12.59C100.62,117.89,76.75,106,53.58,93l4.67-4.4c9.63,20.26,17.79,41.35,22.93,63.33a207.17,207.17,0,0,1,5.08,33.48,166.48,166.48,0,0,1,.24,17,152.66,152.66,0,0,1-1.64,16.94A129.54,129.54,0,0,1,75.33,252a123.34,123.34,0,0,1-17.95,28.87,133.3,133.3,0,0,1-24.86,23.06A140.65,140.65,0,0,1,18.19,313q-3.72,2-7.56,3.85C8,318,5.5,319.13,2.71,320.12l-1.19-3.94a101.77,101.77,0,0,1,10.2-1.83c3.4-.45,6.81-.76,10.22-.95a126.19,126.19,0,0,1,20.51.57c13.59,1.51,27.07,5.6,38.72,12.93a76.88,76.88,0,0,1,22.06,21.25,81.84,81.84,0,0,1,5.31,8.74,100.72,100.72,0,0,1,7.61,18.89c1,3.25,1.78,6.54,2.5,9.85.35,1.66.64,3.32,1,5S120.05,393.77,120.26,395.4Z"/><path class="cls-6" d="M985.95,267.52a210,210,0,0,1,19.74-10.21c-94.45-36.92-69.35-136.69-67.29-163.12C905.06,127.27,871.07,144,836.89,144c-55.07,0-94-43.13-112.66-69.62-21.3,18.61-60.52,46.24-105.5,46.24-25.15,0-48.62-8.54-69.76-25.38C531.7,81.45,515.92,62,501.87,37,464.58,87.58,425,113.15,384,113.15c-27,0-52-16.76-67.86-28.6-4.28,15.34-12,32.77-26,47.27-19.12,19.79-45.26,29.82-77.7,29.82-21,0-45-4.35-71.28-12.93a454.56,454.56,0,0,1-51.36-20.65c14.61,46.77,20.69,74,6.53,112.21-11.54,31.1-27.25,50.4-44.68,65.56,4.82,1.68,69.12,4,83,71.19l780.81-9.25C920.54,326.22,944.67,291.8,985.95,267.52Z"/><path class="cls-5" d="M985.82,267.3a210.57,210.57,0,0,1,19.75-10.24v.5a133.26,133.26,0,0,1-21.75-10.79,104.35,104.35,0,0,1-10-7,97.6,97.6,0,0,1-9.12-8,101,101,0,0,1-25-41.26c-5-15.49-6.71-31.84-6.57-48,.07-8.11.63-16.22,1.46-24.28.42-4,.91-8.05,1.41-12.07s1.05-8,1.36-12l1.62.75a234.43,234.43,0,0,1-23.88,21.05,167.39,167.39,0,0,1-27,17,124.45,124.45,0,0,1-30.21,10.54,107.16,107.16,0,0,1-32,1.72,109.59,109.59,0,0,1-31.16-7.83,135.52,135.52,0,0,1-28-15.78c-17.37-12.6-32-28.55-44.36-45.91l3.25.39c-17,14.84-36,27.6-57,36.28a139.27,139.27,0,0,1-32.76,9.21,112.18,112.18,0,0,1-34.1-.12,107.3,107.3,0,0,1-32.38-10.61,130.76,130.76,0,0,1-27.88-19.44,177.74,177.74,0,0,1-22.68-25.15A252.38,252.38,0,0,1,500.55,37.8l2.55.16C492,52.72,479.88,66.76,466,79s-29.57,22.63-47.07,28.89a105.22,105.22,0,0,1-27.11,5.86l-3.47.2c-1.16.06-2.32,0-3.48.08a63.77,63.77,0,0,1-7-.29,78.92,78.92,0,0,1-13.68-2.53,115.71,115.71,0,0,1-25.52-10.77,205.79,205.79,0,0,1-23.05-15.27l1.2-.41a122,122,0,0,1-13.3,30.9,96.8,96.8,0,0,1-22.26,25.22,95.68,95.68,0,0,1-29.7,15.83,122.9,122.9,0,0,1-33.18,5.73,181.87,181.87,0,0,1-33.6-2,260.48,260.48,0,0,1-32.87-7.2c-21.59-6.13-42.47-14.5-62.79-23.9l1.9-1.66c2.46,7.76,4.87,15.54,7.06,23.41s4.17,15.81,5.61,23.89A133.2,133.2,0,0,1,106,199.51a112.78,112.78,0,0,1-2.9,24.56,151.12,151.12,0,0,1-7.63,23.46,171.28,171.28,0,0,1-10.9,22.12A151.38,151.38,0,0,1,53,307.42l-.69-3.6c.07,0,.34.09.6.13l.85.15,1.8.28,3.66.59q3.68.62,7.33,1.44a113.84,113.84,0,0,1,14.38,4.24,91.28,91.28,0,0,1,26.18,14.7,80.9,80.9,0,0,1,19.42,23,97.26,97.26,0,0,1,10.38,28.18l-2.35-1.89,195.2-2.6,97.6-1.17,97.6-1,97.6-.9,97.61-.62,195.22-1.11-.53.48a124.6,124.6,0,0,1,23.41-58.65,141.12,141.12,0,0,1,21.66-23.3A176.4,176.4,0,0,1,985.82,267.3Zm.25.43a175.83,175.83,0,0,0-25.79,18.46,140.49,140.49,0,0,0-21.5,23.26,123,123,0,0,0-15.21,27.72,125.35,125.35,0,0,0-7.66,30.66l-.06.47h-.48l-195.19,3.51-97.59,1.7L525,374.93l-97.6,1.29-97.6,1.15-195.21,2-2,0-.39-1.91a92.58,92.58,0,0,0-9.78-26.86,76.3,76.3,0,0,0-18.26-21.76,87.84,87.84,0,0,0-24.85-14.09,109.51,109.51,0,0,0-13.81-4.15q-3.52-.82-7.09-1.44l-3.6-.6L53,308.3l-1-.17a9.43,9.43,0,0,1-1.19-.3l-3.53-1.15,2.84-2.45a147.24,147.24,0,0,0,31-36.59,167.42,167.42,0,0,0,10.78-21.55,151.16,151.16,0,0,0,7.62-22.84,109.25,109.25,0,0,0,3-23.78,129.92,129.92,0,0,0-2-24c-1.34-7.95-3.23-15.82-5.33-23.65s-4.45-15.6-6.83-23.37l-.92-3,2.82,1.33c20.16,9.52,40.86,18,62.25,24.24a258.41,258.41,0,0,0,32.54,7.39,172.71,172.71,0,0,0,33.23,2.17,121.15,121.15,0,0,0,32.72-5.55,94,94,0,0,0,29.22-15.47,95.21,95.21,0,0,0,22-24.75,117.34,117.34,0,0,0,13.13-30.5l.3-1.08.9.67A204.26,204.26,0,0,0,339.47,99a113,113,0,0,0,25.18,10.55,77.17,77.17,0,0,0,13.4,2.4,62,62,0,0,0,6.8.24c1.14,0,2.28,0,3.41-.1l3.41-.21A103.32,103.32,0,0,0,418.26,106c17.14-6.3,32.52-16.71,46.07-28.9s25.5-26.23,36.32-41L502,34.26l1.17,2a249.44,249.44,0,0,0,18.33,27.84A174.23,174.23,0,0,0,544,88.59a126.93,126.93,0,0,0,27.22,18.61,105.22,105.22,0,0,0,31.23,10,107.84,107.84,0,0,0,32.8-.05,137.05,137.05,0,0,0,31.71-9,182.05,182.05,0,0,0,29.28-15.49,234.14,234.14,0,0,0,26.54-20l1.84-1.61,1.41,2c12.06,17.09,26.39,32.72,43.17,45.15a131.57,131.57,0,0,0,27,15.54,107.73,107.73,0,0,0,30,7.91,103.87,103.87,0,0,0,31.08-1.29A121.56,121.56,0,0,0,887,130.47c18.92-9.09,35.7-22.25,50.74-37l1.85-1.81-.23,2.55c-.37,4.08-1,8.08-1.51,12.09s-1.08,8-1.54,12c-.91,8-1.56,16.06-1.72,24.12-.33,16.09,1.24,32.35,6.09,47.74a100.07,100.07,0,0,0,24.54,41.1,97,97,0,0,0,9,8,103.78,103.78,0,0,0,9.9,6.94,132.71,132.71,0,0,0,21.64,10.78l.59.24-.58.26A210.13,210.13,0,0,0,986.08,267.73Z"/></g></g></svg>