<svg xmlns="http://www.w3.org/2000/svg" viewBox="0 0 1054.21 405.57"><defs><style>.cls-1{fill:#545454;}.cls-2{fill:#fff;}</style></defs><title>logo-cloud</title><g id="Layer_2" data-name="Layer 2"><g id="drawings"><path class="cls-1" d="M940.48,405.57q12.18-19.94,24.26-39.93c12.7-21.11,25.39-42.22,37.89-63.45l18.74-31.85c6.15-10.67,12.39-21.29,18.47-32-6.65,10.37-13.14,20.84-19.72,31.26L1000.67,301c-13,20.95-25.73,42-38.49,63.09q-12.47,20.72-24.87,41.48Z"/><path class="cls-1" d="M801.15,405.57l6.91-16.45c2.73-6.63,5.5-13.25,8.18-19.9q8.14-19.92,15.75-40.06-9.21,19.46-17.89,39.15c-2.93,6.55-5.76,13.14-8.64,19.7l-7.54,17.56Z"/><path class="cls-1" d="M612.13,405.57l3.68-11.73c1.62-5.35,3.29-10.68,4.86-16,3.19-10.71,6.28-21.45,9.08-32.29-4,10.46-7.7,21-11.3,31.58-1.83,5.28-3.56,10.59-5.34,15.89L609,405.57Z"/><path class="cls-1" d="M453.38,405.57h2.7c-.7-1.64-1.4-3.28-2.11-4.92-4.58-10.6-9.26-21.17-14.21-31.62,3.8,10.92,7.88,21.73,12.05,32.5C452.32,402.89,452.85,404.23,453.38,405.57Z"/><path class="cls-1" d="M291.75,388,299,405.57h3.24L302,405l-7.66-18.09c-2.6-6-5.16-12-7.82-18q-7.86-18-16.25-35.79,6.79,18.46,14.1,36.69C286.8,375.87,289.3,381.93,291.75,388Z"/><path class="cls-1" d="M219,405.57h2.56l-.52-1.2c-4.14-9.46-8.37-18.87-12.88-28.18,3.36,9.78,7,19.44,10.72,29.07Z"/><path class="cls-1" d="M98.11,340.83c11.19,21.65,22.57,43.2,34,64.74h3.39c-11.7-22-23.41-44-35.32-65.82L82.08,306.62c-6.11-11-12.14-22-18.33-33,5.6,11.27,11.36,22.45,17,33.67Z"/><path class="cls-2" d="M1006.88,131.85l0,.22a42.18,42.18,0,0,0-16.47-10.33l-.38-.5a62.22,62.22,0,0,0-104.47-52l.07,0-2,.38a96.55,96.55,0,0,0-158.12,20.6l-.18-.06a64.33,64.33,0,0,0-86.69-31.32l.15.05-.21,0,.06-.07-.15.08-8.11.63,8.27-.71C621.65,24.75,585.27,2.3,540.65,1.95a111.87,111.87,0,0,0-105.59,72.5l-2.1-.09a120.65,120.65,0,0,0-194-7.94h0A61.28,61.28,0,0,0,124.56,81.87l1.18-.16-.36.28-.82-.12.77.16L123,83.87l1.55-2a92.85,92.85,0,0,0-103.92,83l-1.58,1.25a83.64,83.64,0,0,0,104.2,126.38s11.57-6.87,18.13-12.36h0a62.25,62.25,0,0,0,39.75-22.38l.22,0A87.81,87.81,0,0,0,330.3,281c11.66,15.05,30.68,24.5,53.16,24.67,27.77.22,51-15.07,61.34-35.25a110.66,110.66,0,0,0,179.85,11.11l.5,0A56.19,56.19,0,0,0,730.24,264.9a86.94,86.94,0,0,0,140.06,7l.4,0h0C884.29,284,903,291.33,924.32,291.49a79,79,0,0,0,50.13-17.36l1.42,0c28.76,2.64,57.77-14.71,70.69-45.65A73.89,73.89,0,0,0,1006.88,131.85Z"/><path class="cls-1" d="M331,280.3a85.31,85.31,0,0,1-16.15,16,86.79,86.79,0,0,1-19.93,11.22,83.9,83.9,0,0,1-22.27,5.61,89.25,89.25,0,0,1-23-.5A86.6,86.6,0,0,1,208,294.16a85,85,0,0,1-26.17-36.85,94,94,0,0,0,11.72,19.26,87.83,87.83,0,0,0,15.9,15.76,89.54,89.54,0,0,0,19.25,11.25l1.28.56,1.31.49,2.61,1c1.74.65,3.54,1.14,5.31,1.72s3.61.89,5.42,1.34L246,309l1.38.23,2.75.45a87.77,87.77,0,0,0,44-4.32A93,93,0,0,0,331,280.3Z"/><path class="cls-1" d="M717.31,114.82A96.13,96.13,0,0,1,782.47,40a97.85,97.85,0,0,1,34.48-4.51,88.41,88.41,0,0,1,17.27,2.53l4.25,1c1.41.38,2.77.89,4.16,1.34l4.14,1.39,4,1.72A96.35,96.35,0,0,1,879.6,62.87a99,99,0,0,1,19.94,28.26,95.44,95.44,0,0,1,8.62,33.29,99,99,0,0,0-9.95-32.65,95.4,95.4,0,0,0-48.56-45.63l-3.91-1.64-4-1.33c-1.35-.42-2.67-.92-4-1.28l-4.13-1a85.92,85.92,0,0,0-16.76-2.39,95.87,95.87,0,0,0-33.47,4.22,97.43,97.43,0,0,0-66,72.08Z"/><path class="cls-1" d="M870.78,271.36a85.29,85.29,0,0,1-40.47,29.05,86.57,86.57,0,0,1-25,4.45c-2.12.14-4.25,0-6.37-.05l-1.59-.05c-.53,0-1.06-.1-1.59-.15l-3.17-.32c-.53-.06-1.06-.09-1.58-.18l-1.57-.28-3.14-.55-1.57-.28a11.91,11.91,0,0,1-1.56-.34l-3.08-.81a88.21,88.21,0,0,1-23.3-10.13l-5.28-3.57-5-4c-1.61-1.38-3.11-2.88-4.67-4.32a27.89,27.89,0,0,1-2.2-2.29l-2.13-2.36A86.37,86.37,0,0,1,724,253.88a84.91,84.91,0,0,1-6.69-24.2,90.9,90.9,0,0,0,22,43.95A86.3,86.3,0,0,0,780.9,299l3,.8a11.17,11.17,0,0,0,1.5.34l1.52.28,3,.55,1.52.28c.51.09,1,.12,1.53.18l3.07.33c.51,0,1,.12,1.53.15l1.54.06c2.05.07,4.11.21,6.16.11a88.09,88.09,0,0,0,24.32-3.83c2-.59,3.9-1.35,5.85-2,1.89-.82,3.82-1.58,5.69-2.46A87.84,87.84,0,0,0,852,287.66,91.81,91.81,0,0,0,870.78,271.36Z"/><path class="cls-1" d="M730.82,263.79A54.16,54.16,0,0,1,716,295.35a55.79,55.79,0,0,1-14.27,10.75,57.15,57.15,0,0,1-17,5.7,56.46,56.46,0,0,1-17.92.06,55.6,55.6,0,0,1-17-5.63,54.34,54.34,0,0,1-24.19-25.15,59.21,59.21,0,0,0,25.24,23.06,56.42,56.42,0,0,0,63.45-10.44A58.91,58.91,0,0,0,730.82,263.79Z"/><path class="cls-1" d="M27.15,207.54a90.76,90.76,0,0,1-6.77-25.14c-.32-2.17-.38-4.35-.55-6.54s-.14-4.38,0-6.57a87,87,0,0,1,1.33-13.08,92.57,92.57,0,0,1,8.16-25A96.48,96.48,0,0,1,36,119.84a103.16,103.16,0,0,1,8.22-10.34,99.75,99.75,0,0,1,9.64-9,90.58,90.58,0,0,1,10.82-7.56l1.41-.85,1.45-.78c1-.52,1.93-1.06,2.91-1.55,2-.93,4-1.94,6-2.73a83.65,83.65,0,0,1,12.48-4.21,88.6,88.6,0,0,1,12.93-2.38,95.48,95.48,0,0,1,13.11-.47,89.84,89.84,0,0,1,13,1.47,86.66,86.66,0,0,1,12.61,3.29,95.61,95.61,0,0,0-51,.34,93.33,93.33,0,0,0-66.11,71.59A95.94,95.94,0,0,0,27.15,207.54Z"/><path class="cls-1" d="M1000.16,238.32A76.55,76.55,0,0,1,990,259.08a78.48,78.48,0,0,1-36.45,28.35,79.89,79.89,0,0,1-22.92,4.91,86.64,86.64,0,0,1-11.74-.1,85.06,85.06,0,0,1-11.61-1.64,79.35,79.35,0,0,1-22-8,71.79,71.79,0,0,1-18.39-14.3,67.35,67.35,0,0,1-12.46-19.47,71.37,71.37,0,0,0,13.48,18.49,74.54,74.54,0,0,0,18.44,13.26,86.06,86.06,0,0,0,44,8.82,79.62,79.62,0,0,0,42.07-15.3A82.78,82.78,0,0,0,1000.16,238.32Z"/><path class="cls-1" d="M451,247.67a49.23,49.23,0,0,1-4.29,21,59.63,59.63,0,0,1-12.3,17.83,68.27,68.27,0,0,1-17.67,12.7,71.27,71.27,0,0,1-20.78,6.58,68.18,68.18,0,0,1-10.9.86,78.7,78.7,0,0,1-10.89-.7,70.32,70.32,0,0,1-20.86-6.21,61.81,61.81,0,0,1-17.63-12.62,57.07,57.07,0,0,1-11.77-18,62.35,62.35,0,0,0,30.4,28.41,71.05,71.05,0,0,0,20.23,5.54,75.85,75.85,0,0,0,21-.25,71.07,71.07,0,0,0,20-6.14,69.53,69.53,0,0,0,17.3-11.83,61.42,61.42,0,0,0,12.61-16.8A51.38,51.38,0,0,0,451,247.67Z"/><path class="cls-1" d="M1007.35,131.37A73.35,73.35,0,0,1,1052.42,216a77.79,77.79,0,0,1-27.36,43.61,69.22,69.22,0,0,1-23.06,12,63.22,63.22,0,0,1-25.67,2.12,70.31,70.31,0,0,0,12.82-.55,64.1,64.1,0,0,0,12.39-3,65.64,65.64,0,0,0,11.58-5.21,72.3,72.3,0,0,0,10.44-7.18,78.4,78.4,0,0,0,25.94-42.41,72.72,72.72,0,0,0,1.73-12.49,76.38,76.38,0,0,0-.5-12.61,74.14,74.14,0,0,0-7.29-24.12,75.73,75.73,0,0,0-15-20.4A77.06,77.06,0,0,0,1007.35,131.37Z"/><path class="cls-1" d="M886,68.74a60,60,0,0,1,15.23-11.3,61.54,61.54,0,0,1,37.39-6.19A62.38,62.38,0,0,1,957,57.08a63.21,63.21,0,0,1,15.71,11.17,61.61,61.61,0,0,1,17.61,33.55,59.8,59.8,0,0,1,.15,19,65.05,65.05,0,0,0-8.34-36,62.56,62.56,0,0,0-62.4-31.09A65.29,65.29,0,0,0,886,68.74Z"/><path class="cls-1" d="M969.4,119.7a37.76,37.76,0,0,1,18.82-.44,41.3,41.3,0,0,1,9.06,3.22,46.8,46.8,0,0,1,8.08,5.27,43.86,43.86,0,0,1,6.61,7,39.07,39.07,0,0,1,4.74,8.36,38,38,0,0,1,2.89,18.6,49.53,49.53,0,0,0-5-17.62,42.86,42.86,0,0,0-4.88-7.61,43.36,43.36,0,0,0-6.27-6.46,45.22,45.22,0,0,0-15.81-8.54A48.88,48.88,0,0,0,969.4,119.7Z"/><path class="cls-1" d="M189.15,245.51a59.12,59.12,0,0,1-8,13.45,60.32,60.32,0,0,1-25.26,18.55,62.31,62.31,0,0,1-15.41,3.83,60.66,60.66,0,0,1-31.11-4.63,58.22,58.22,0,0,1-24.32-19.39,66.43,66.43,0,0,0,25.21,17.23A62.44,62.44,0,0,0,125,278.25a63.9,63.9,0,0,0,7.58.53,62,62,0,0,0,7.58-.43,61.27,61.27,0,0,0,14.75-3.5A64.37,64.37,0,0,0,168.47,268a66.29,66.29,0,0,0,11.6-10A71.42,71.42,0,0,0,189.15,245.51Z"/><path class="cls-1" d="M19.52,165.64c-1.55,2.1-3.06,4.23-4.41,6.46s-2.66,4.47-3.84,6.79a83.75,83.75,0,0,0,17.45,99.26,83.92,83.92,0,0,0,55.9,22.39,81.74,81.74,0,0,0,30.32-5.3c2.42-.91,4.82-1.89,7.14-3,.57-.28,1.2-.53,1.73-.85l1.69-1,3.36-2q3.34-2,6.6-4.19c2.18-1.43,4.33-2.91,6.39-4.52A122.33,122.33,0,0,1,129.28,289L126,291.2l-1.65,1.06c-.57.38-1.16.63-1.74,1-2.32,1.26-4.71,2.36-7.13,3.39a83.47,83.47,0,0,1-62,.56A83.81,83.81,0,0,1,8,254.76a88.32,88.32,0,0,1-5.41-14.94A82.13,82.13,0,0,1,.14,224.13,84.45,84.45,0,0,1,4.2,192.91,82.46,82.46,0,0,1,19.52,165.64Z"/><path class="cls-1" d="M640.39,256.15a108.27,108.27,0,0,1-15.29,26,110.3,110.3,0,0,1-48.9,35,107.94,107.94,0,0,1-29.84,6.09,72.4,72.4,0,0,1-7.63.2h-3.82l-3.81-.27c-1.27-.1-2.54-.16-3.81-.3l-3.78-.52c-1.26-.2-2.53-.29-3.77-.57L516,321a108.65,108.65,0,0,1-71.48-52.23,115.88,115.88,0,0,0,44,39.71,111.79,111.79,0,0,0,57.65,11.77,109.77,109.77,0,0,0,55.61-19.14A115.1,115.1,0,0,0,640.39,256.15Z"/><path class="cls-1" d="M605.24,98.63a64,64,0,0,1,3-9.37,70.86,70.86,0,0,1,4.51-8.82,63.05,63.05,0,0,1,13-15,58.51,58.51,0,0,1,8.14-5.81,63.37,63.37,0,0,1,9-4.49,64.33,64.33,0,0,1,9.56-3,62.16,62.16,0,0,1,20-1.45,66.79,66.79,0,0,1,9.9,1.62l2.42.65c.81.22,1.59.51,2.39.76,1.6.48,3.14,1.14,4.7,1.74A61.25,61.25,0,0,1,700.73,60l1.07.65,1,.71,2.05,1.42c1.31,1,2.67,2,3.89,3.13a61.84,61.84,0,0,1,7,7.08,62.88,62.88,0,0,1,10.1,16.91A67.12,67.12,0,0,0,699.53,62a68.3,68.3,0,0,0-8.68-4.16c-1.51-.54-3-1.14-4.55-1.57-.77-.22-1.53-.49-2.31-.68L681.67,55a63.37,63.37,0,0,0-19.07-1.48,65,65,0,0,0-35.33,13.7A66.52,66.52,0,0,0,605.24,98.63Z"/><path class="cls-1" d="M125,81.68a58.87,58.87,0,0,1,6-18,60.62,60.62,0,0,1,27.2-26.29,61.58,61.58,0,0,1,37.68-5.1A60.62,60.62,0,0,1,229,50.42a58.87,58.87,0,0,1,10.53,15.74,64.07,64.07,0,0,0-26.73-25.35A61.69,61.69,0,0,0,144,50.12,63.93,63.93,0,0,0,125,81.68Z"/><path class="cls-1" d="M434.71,76.16A109.09,109.09,0,0,1,449.28,47a113.68,113.68,0,0,1,22.66-23.69,109.8,109.8,0,0,1,28.67-16.1A112.56,112.56,0,0,1,532.8.23a126.16,126.16,0,0,1,32.83,2.36,111.32,111.32,0,0,1,30.9,11.2,103.36,103.36,0,0,1,26,19.95A95.8,95.8,0,0,1,640.35,61a101.29,101.29,0,0,0-44.87-45.26C576.31,6,554.41,1.91,533,3.21a114.05,114.05,0,0,0-91.39,58.21A121.63,121.63,0,0,0,434.71,76.16Z"/><path class="cls-1" d="M219.75,101.11a118.06,118.06,0,0,1,16.74-32.58,122,122,0,0,1,26-26,119.46,119.46,0,0,1,69.19-23.15,124.87,124.87,0,0,1,36.58,5.16,118.89,118.89,0,0,1,33.24,16,122.28,122.28,0,0,1,26.78,25.22A118.44,118.44,0,0,1,446,97.8a123.58,123.58,0,0,0-18.87-31.14,121.44,121.44,0,0,0-59.68-39.41c-2.86-1-5.84-1.52-8.77-2.21s-5.94-1.06-8.91-1.55-6-.6-9-.87c-1.5-.11-3-.25-4.52-.23s-3-.09-4.52,0a121.29,121.29,0,0,0-94.09,47A123.13,123.13,0,0,0,219.75,101.11Z"/></g></g></svg>