<svg xmlns="http://www.w3.org/2000/svg" viewBox="0 0 48 48"><defs><style>.cls-1{opacity:0.5;}.cls-2{fill:none;}.cls-3{fill:#231f20;}</style></defs><title>Security-bg</title><g id="Layer_2" data-name="Layer 2"><g id="backgrounds"><g class="cls-1"><path class="cls-2" d="M48,48"/><path class="cls-2" d="M0,48"/><path class="cls-2" d="M0,0"/><path class="cls-2" d="M31.2,0A7.2,7.2,0,0,1,24,7.2,7.2,7.2,0,0,1,16.8,0"/><path class="cls-2" d="M48,7.2A7.2,7.2,0,0,1,40.8,0"/><path class="cls-3" d="M24,7.2A7.2,7.2,0,0,0,31.2,0H16.8A7.2,7.2,0,0,0,24,7.2Z"/><path class="cls-3" d="M40.8,0A7.2,7.2,0,0,0,48,7.2V0Z"/><path class="cls-2" d="M48,48"/><path class="cls-2" d="M0,48"/><path class="cls-2" d="M7.2,0A7.2,7.2,0,0,1,0,7.2"/><path class="cls-2" d="M48,0"/><path class="cls-3" d="M7.2,0H0V7.2A7.2,7.2,0,0,0,7.2,0Z"/><path class="cls-3" d="M24,40.8A7.2,7.2,0,0,0,16.8,48H31.2A7.2,7.2,0,0,0,24,40.8Z"/><path class="cls-3" d="M48,40.8A7.2,7.2,0,0,0,40.8,48H48Z"/><circle class="cls-3" cx="24" cy="24" r="7.2"/><path class="cls-3" d="M40.8,24A7.2,7.2,0,0,0,48,31.2V16.8A7.2,7.2,0,0,0,40.8,24Z"/><circle class="cls-3" cx="36" cy="36" r="7.2"/><circle class="cls-3" cx="12" cy="36" r="7.2"/><circle class="cls-3" cx="36" cy="12" r="7.2"/><circle class="cls-3" cx="12" cy="12" r="7.2"/><path class="cls-2" d="M48,48"/><path class="cls-2" d="M0,40.8A7.2,7.2,0,0,1,7.2,48"/><path class="cls-2" d="M0,16.8A7.2,7.2,0,0,1,7.2,24,7.2,7.2,0,0,1,0,31.2"/><path class="cls-2" d="M0,0"/><path class="cls-2" d="M48,0"/><path class="cls-3" d="M0,40.8V48H7.2A7.2,7.2,0,0,0,0,40.8Z"/><path class="cls-3" d="M7.2,24A7.2,7.2,0,0,0,0,16.8V31.2A7.2,7.2,0,0,0,7.2,24Z"/></g></g></g></svg>