<svg xmlns="http://www.w3.org/2000/svg" viewBox="0 0 259.64 95.09"><defs><style>.cls-1{fill:#373737;}.cls-2{fill:#6d6d6d;}.cls-3{fill:#444;}.cls-4{fill:#464646;}.cls-5{fill:#4b4b4b;}.cls-6{fill:#4a4a4a;}.cls-7{fill:#454545;}.cls-8{fill:#3c3c3c;}.cls-9{fill:#434343;}.cls-10{fill:#3a3a3a;}.cls-11{fill:#363636;}.cls-12{fill:#4f4f4f;}.cls-13{fill:none;}</style></defs><title>Asset 36</title><g id="Layer_2" data-name="Layer 2"><g id="Top_layer" data-name="Top layer"><g id="pTaPMJ"><path class="cls-1" d="M13.11,36.84c0,.09-.46.25-.48.34a4.31,4.31,0,0,1-.37-3,2,2,0,0,1,2.05-1.79,4.21,4.21,0,0,1,3.26.64l-.13.2a6,6,0,0,0-2.81-.43,2,2,0,0,0-2,1.94C12.43,34.91,13.11,36.7,13.11,36.84Z"/><path class="cls-1" d="M12.63,37.18s1.49,3.35,1.77,4.27l.58.28-1.87-4.89-.63,0"/><path class="cls-2" d="M135.26,33.88c1.89,4.18,3.77,8.37,5.68,12.54.26.56.32,1.26.94,1.62.24.7.47.65.76,0q3.15-7.1,6.31-14.19c.13-.29.22-.74.54-.76,1.33-.05,2.69-.4,4,.18-.67,2-1.67,3.82-2.54,5.71-2.67,5.86-5.38,11.71-8.09,17.56-.22.48-.35,1.06-1,1.09s-.92-.58-1.15-1.1L130.29,33.88a1.16,1.16,0,0,1,1.39-.88c1.06.07,2.13,0,3.19,0a.53.53,0,0,1,.2.55Z"/><path class="cls-2" d="M50.1,33.23A10.32,10.32,0,0,1,50,36.07a3.85,3.85,0,0,1-1.48.2q-4.32,0-8.64,0c-.36,0-.82-.18-1,.35,0,1.87,0,3.74,0,5.61,0,.38-.12.8.25,1.11.11.39.44.3.71.3h7.39c.28,0,.58.05.76-.25a6.84,6.84,0,0,1,.23,3.82c-.28.39-.7.32-1.09.32-2.42,0-4.84,0-7.25,0-.82,0-1,.24-1,1,0,2.38,0,4.76,0,7.15,0,.39.12.8-.14,1.15l-.26.27a11.52,11.52,0,0,1-3.27.1c0-.54-.23-1-.23-1.59,0-7.11,0-14.22,0-21.33,0-1,.3-1.31,1.3-1.3,4.15,0,8.3,0,12.45,0A5,5,0,0,1,50.1,33.23Z"/><path class="cls-2" d="M206.48,43.62c0,2.19,0,4.38,0,6.56a4.26,4.26,0,0,0,1.07,3.16,2.1,2.1,0,0,0,2.63,1A3.72,3.72,0,0,0,212.57,51V44.06a1,1,0,0,1,1-.55c.85-.08,1.7-.05,2.55-.07,0,.43.13.85.13,1.28q0,5.56,0,11.12c0,.59.15,1.36-.76,1.39s-1.74.38-2-.82c-.18-.73-.43-.73-1-.26a6.31,6.31,0,0,1-6,1.22,5.13,5.13,0,0,1-3.82-4.24,1.43,1.43,0,0,0,.17-1.34c-.38-2.37-.08-4.74-.19-7.11,0-.79.26-1.12,1.06-1.08S205.55,43.62,206.48,43.62Z"/><path class="cls-2" d="M181,48.85a2.66,2.66,0,0,0-2.3-2.35A3.79,3.79,0,0,0,175,48.63c-.17,0-.23.1,0,.21l0,7.58c-.26.16-.2.43-.22.67a8.34,8.34,0,0,1-3.48.07,24,24,0,0,0,.23-4.4c0-2.38,0-4.75,0-7.13s-.1-2,2-2l.4.95c.19.62.54.72,1,.32,2.11-1.73,4.5-1.8,7-1.14.26.07.49.13.66-.14,2,1.23,2.62,3.21,2.75,5.33.15,2.44,0,4.9,0,7.36,0,.49-.13.93-.66.94a10.2,10.2,0,0,1-3.21-.12c0-2.43,0-4.86,0-7.29C181.38,49.48,181.61,49,181,48.85Z"/><path class="cls-2" d="M64,54.89c.39.4.06.66-.2.89-3.13,2.78-9,2.54-11.3-1.54.17-.1.12-.16,0-.2h0a18,18,0,0,1-.66-3.55C52,46.43,55,43.11,59,43.41l2.88.21h0c0,.14.09.21.2,0,2.58,1.09,3.49,4.58,3.19,6.43-.11.65-.58.72-1.13.72-2.6,0-5.2,0-7.79,0-.94,0-1,.26-.7,1.05a4.2,4.2,0,0,0,2,1.93c-.19.14-.18.31,0,.41a3.29,3.29,0,0,0,2.44.38c1-.26,1.81-1,2.9-.95h0c0,.18,0,.35.24.43h0l.23.23h0l.23.23h0l.23.23h0Zm-7.81-6.48c.07.12.13.34.2.34,1.54,0,3.08.11,4.61,0,.51,0,.52-.48.08-.81a4.76,4.76,0,0,0-.38-.77,2.64,2.64,0,0,0-2.44-1.32,2.8,2.8,0,0,0-2.36,1.66C55.77,47.89,55.54,48.31,56.22,48.41Z"/><path class="cls-2" d="M163,43.38a1.19,1.19,0,0,1,.85.42c0,.11.06.25.2.07,2.21,1.41,2.87,3.55,2.79,6,0,.77-.49.91-1.17.9-2.88,0-5.75,0-8.63,0-.12.19-.58.35-.06.61l.37.88c0,.2.06.38.29.43l.36.34.22.31v0a3.13,3.13,0,0,0,3.28,1.2,9.71,9.71,0,0,0,2.8-1.21c.16.15.32.29.46.45,1.35,1.51,1.32,1.74-.41,2.77a7.51,7.51,0,0,1-10.25-2.32,16.5,16.5,0,0,0-.86-3.46q0-.43,0-.86c.28,0,.53-.11.2-.44.1-2.94,3.57-6.3,6.54-6.1A10.61,10.61,0,0,0,163,43.38Zm-.36,4.37A2.84,2.84,0,0,0,160,45.88a2.75,2.75,0,0,0-2.47,1.66c-.17.35-.42.76.26.87a.57.57,0,0,0,.59.62c1.32,0,2.64.05,4,0C163.05,49,163.15,48.48,162.64,47.75Z"/><path class="cls-2" d="M244.67,46a6,6,0,0,1,.81,4.13c0,.67-.55.65-1,.65h-7.57c-1.26,0-1.41.22-.8,1.33a10.42,10.42,0,0,0,.75,1A3.34,3.34,0,0,0,240,54.61c1.12-.16,2-1,3.12-1h0l.24.23v0c0,.32.15.46.45.48.87.84.9,1.11,0,1.78-3.49,2.66-9.24,2.14-11.49-2.59a2.58,2.58,0,0,1-.29-1.35c.49-.72.2-1.54.22-2.3a7.14,7.14,0,0,1,4.91-6.18,9.14,9.14,0,0,1,6,.65h0l.23.24h0l.23.23h0l.23.23h0l.23.23h0l.23.23h0l.23.23h0C244.43,45.75,244.45,45.94,244.67,46Zm-8.06,2.39c-.05.54.25.66.72.65,1.15,0,2.29,0,3.44,0,.39,0,.85.07,1-.44a.84.84,0,0,0-.48-1.07,2.75,2.75,0,0,0-5,0C236,48,235.83,48.42,236.61,48.39Z"/><path class="cls-2" d="M191,47.33c0-1.05-.89-.46-1.35-.67,0-.57,0-1.15,0-1.72,0-.82.24-1.33,1.15-1.3.61,0,.81-.32.8-.88,0-.93,0-1.87,0-2.8,0-.44.11-.75.61-.86,2.12-.45,2.64,0,2.64,2.09,0,.4,0,.79,0,1.19s.07.57.44.61l.43,0c-.06.55.28.63.72.62.84,0,1.68,0,2.53,0,.12,3,.12,3-2.82,3-.72,0-.93.23-.91.93,0,1.54,0,3.09,0,4.64a1.18,1.18,0,0,0,.91,1.37c0,.45.16.69.6.62a3.07,3.07,0,0,0,2-.68c.08.19.17.38.23.58.75,2.32,1.48,2.36-1.85,3.18a6.93,6.93,0,0,1-3.08.23,3.3,3.3,0,0,1-2.94-3.07.52.52,0,0,0,.23-.46q0-3.07,0-6.14C191.36,47.59,191.29,47.37,191,47.33Z"/><path class="cls-2" d="M96.94,43.39a3.21,3.21,0,0,1,.49.21c2.27,1.47,2.22,2.77-.15,4.14-.54.31-.78-.1-1.11-.35-1.61-1.26-3.21-1.23-4.57.08a3.68,3.68,0,0,0-.5,4.82,5.87,5.87,0,0,0,1.3,1.12,2.12,2.12,0,0,0,2.53.95,6.21,6.21,0,0,0,2.89-1.88c2.22,1.57,2.23,2.26,0,3.88a7.34,7.34,0,0,1-10-1.69c0-.32,0-.65-.44-.65h0c0-.19,0-.36-.24-.44h0c0-1-.64-2-.43-3.06a4.91,4.91,0,0,1,.36-2.75c2.06-3.32,4.62-5.17,9.08-4.32C96.46,43.55,96.73,43.73,96.94,43.39Z"/><path class="cls-2" d="M254,53a4.69,4.69,0,0,0-2.08-1.3,7.3,7.3,0,0,1-2.35-1.26l-.32-.27a.69.69,0,0,1-.53-.46c0-.31,0-.63-.45-.62h0c0-.64,0-1.29,0-1.93a3.44,3.44,0,0,1,2.82-3.52,9.87,9.87,0,0,1,6.46.66,4.88,4.88,0,0,1-.92,2.26c-.23.46-.67.28-1.05.14a8.51,8.51,0,0,0-2.49-.65c-.51,0-1.05,0-1.31.52s.21.91.62,1.2c0,.3,0,.6.36.7,1.3.37,2.45,1.16,3.79,1.42h0c.07.23.26.24.45.26a4,4,0,0,1-.88,6.71,7.87,7.87,0,0,1-7.81-.43,6.92,6.92,0,0,1,.72-1.67c.29-.69.68-.89,1.42-.48a5.4,5.4,0,0,0,3,.62,1.18,1.18,0,0,0,1.06-.8A.8.8,0,0,0,254,53Z"/><path class="cls-2" d="M73.49,33c0,7,0,14,0,21.07a7.44,7.44,0,0,1-.15,2.76l-.25.26a9.06,9.06,0,0,1-3.55,0c.45-.36.28-.86.28-1.31,0-7.16,0-14.32,0-21.48,0-1.14.33-1.46,1.4-1.34A20.68,20.68,0,0,0,73.49,33Z"/><path class="cls-2" d="M120.55,51.43a3.88,3.88,0,0,1-1.76,5.38,8,8,0,0,1-7.8-.32c0-.62.39-1.07.54-1.61.26-.94.75-1,1.53-.6a5.22,5.22,0,0,0,2.91.61c.44-.06.91-.17,1-.63s.23-1-.39-1.3A7.27,7.27,0,0,0,114,51.44,6.16,6.16,0,0,1,111.64,50l-.23-.29,0,0-.26-.23-.17-.22c0-.18,0-.36-.24-.44v0a5.12,5.12,0,0,0,0-.64c-.36-3.4,2-4.85,4.82-4.83a23.56,23.56,0,0,1,4.31.66h0c0,.24-.07.49.17.66a3.28,3.28,0,0,1-.16.51c-1,2-.79,1.84-2.58,1.16a4.51,4.51,0,0,0-2.12-.34,1,1,0,0,0-.89.52c-.21.44,0,.75.36,1,0,.34.22.5.49.65,1.72.92,3.62,1.51,5.15,2.78l0,0,0,0Z"/><path class="cls-3" d="M14.48,57.3a4.19,4.19,0,0,1-5.14-1.84c-.26-.53-.51-.59-1-.56-1.63.09-3.15-.16-4.06-1.76C3.9,51,4.85,49.77,6.82,49c2.34-.88,4.7-1.7,7-2.8a.41.41,0,0,0,.47.43l1.49,3.43v0l.06.53c-.59,1.64-.76,3.41-1.57,5-.4.79-.62,1.62-1.74,1.66Z"/><path class="cls-4" d="M27.17,47.31A2.41,2.41,0,0,1,25.31,50c-.63.18-.7.41-.61,1a3.38,3.38,0,0,1-2.49,3.76,3.19,3.19,0,0,1-3.28-1.37,10.34,10.34,0,0,1-1.65-4.83c-.2-1.12-.26-2.29-1.16-3.16a6.65,6.65,0,0,1,1.25.07c.56.13.48-.22.51-.53,1.17-.15,2.27-.61,3.46-.65,0,.22.07.47.28.54C23.55,45.49,25.3,46.53,27.17,47.31Z"/><path class="cls-2" d="M223.17,43.63l.45,1.09c.17.89.6.67,1,.19,1.2-1.5,2.84-1.61,4.56-1.49.7,0,1,.38,1,1.1-.19.38-.41.75-.57,1.15a1.31,1.31,0,0,1-1.84.9,2.38,2.38,0,0,0-3,2.41c0,2.41,0,4.83,0,7.24,0,.81-.29,1.15-1.07,1.05-.94-.11-1.92.26-2.84-.21.37-.31.21-.74.21-1.12q0-6,0-12.1C221.71,43.46,222.46,43.69,223.17,43.63Z"/><path class="cls-5" d="M12.58,34.85a2.1,2.1,0,0,1,2.1-2.11,5.89,5.89,0,0,1,2.77.49l.24,0h0a1.16,1.16,0,0,0,1.13,1.08,2.54,2.54,0,0,1,.6,2,1.41,1.41,0,0,0,1.26.41,8,8,0,0,1,3.92.66h0c0,.19.06.37.32.35h0a.21.21,0,0,0,.21.26l0,0a.28.28,0,0,0,.25.26c.94,1.56.87,2.6-.27,3.72l-.25.18,0,0a.44.44,0,0,0-.39.24h0c-.44.12-1-.1-1.3.44h0l-2-.23h0c0-.54.46-.77.83-1.07.67-.54,1.33-1.08,2-1.65.24-.21.52-.44.37-.82s-.5-.35-.83-.36c-2.37-.07-4.2,1.26-6.11,2.37-.46.27-.57,1.32-1.19,1-.39-.23.31-.94.46-1.46s.61-.77-.27-1c-.37-.1-.33-.78,0-1.13s.5-.42.22-.79-.62-.24-1-.09a1.23,1.23,0,0,0-.79,1.17c0,.64-.33,1.05-1.06.62A8.67,8.67,0,0,1,12.58,34.85Z"/><path class="cls-6" d="M12.56,39.95a.13.13,0,0,1,.08.17c-.68.15-.07.75-.39,1.09-1.23-.59-2-2.08-3.64-2a1.74,1.74,0,0,0,.89,1.18c.31.17.81.58.69.73-.68.87.38.71.57,1s.74.32.54.79-.74.33-1,.19c-1-.59-1.94-.09-2.91-.19a5.54,5.54,0,0,0-3.36.86c-.7.4-1.44,1.16-2.43.66a5,5,0,0,1,2.75-3.87c.42-.23.48-.5.39-1a4.55,4.55,0,0,1,.09-2.85c.94-1.92,2.13-2.7,4.66-2.13l0,0c0,.28.19.3.39.3a10,10,0,0,1,2.54,4.56c-.14,0-.32,0-.31.22S12.39,39.92,12.56,39.95Z"/><path class="cls-2" d="M106.74,43.35c.25.32.14.7.14,1q0,5.68,0,11.37c0,1.44-.07,1.52-1.55,1.5a7.7,7.7,0,0,1-2.35-.11,12.21,12.21,0,0,0,.24-2.68c0-3.17,0-6.35,0-9.52,0-1.07.35-1.38,1.38-1.35C105.28,43.62,106.07,43.92,106.74,43.35Z"/><path class="cls-2" d="M82.91,43.35c.23.28.15.62.15.93q0,5.77,0,11.54c0,1.32-.12,1.46-1.4,1.43a7.62,7.62,0,0,1-2.56-.13c.42-.32.28-.79.28-1.2,0-3.59,0-7.18,0-10.77,0-1.52,0-1.49,1.57-1.53C81.6,43.6,82.32,43.88,82.91,43.35Z"/><path class="cls-4" d="M1.64,44.5c1,.49,1.73-.26,2.43-.66A5.54,5.54,0,0,1,7.43,43c1,.09,1.95-.4,2.91.19.22.14.78.22,1-.19s-.38-.52-.54-.79-1.25-.16-.57-1c.12-.15-.38-.56-.69-.73a1.74,1.74,0,0,1-.89-1.18c1.65-.12,2.4,1.37,3.64,2,.32-.34-.29-.95.39-1.09l.71,3.06c-.19.25-.6.46,0,.8.31.19.68.48.29.94-.67-.52-1.24,0-1.79.24a28.45,28.45,0,0,1-5.58,2.51A9,9,0,0,1,3.78,48a2,2,0,0,1-1.94-1.09C2.1,46.09,1.41,45.33,1.64,44.5Z"/><path class="cls-6" d="M50.1,33.23A5,5,0,0,0,48.72,33c-4.15,0-8.3,0-12.45,0-1,0-1.3.31-1.3,1.3,0,7.11,0,14.22,0,21.33,0,.55.22,1.05.23,1.59-1.06.13-1-.6-1-1.32q0-10.49,0-21c0-3-.26-2.74,2.73-2.74h12C49.61,32.18,50.25,32.25,50.1,33.23Z"/><path class="cls-7" d="M15.68,42.32c.16.59-.51,1.16,0,1.73A6,6,0,0,1,18,43.4c1.68-.28,3.41-.13,5.07-.63l-2-.23-.05.09,0-.09c0-.54.46-.77.83-1.07.67-.54,1.33-1.08,2-1.65.24-.21.52-.44.37-.82s-.5-.35-.83-.36c-2.37-.07-4.2,1.26-6.11,2.37-.46.27-.57,1.32-1.19,1-.39-.23.31-.94.46-1.46s.61-.77-.27-1c-.37-.1-.33-.78,0-1.13s.5-.42.22-.79-.62-.24-1-.09a1.23,1.23,0,0,0-.79,1.17c0,.64-.33,1.05-1.06.62A21.86,21.86,0,0,0,15,42.49C15.26,42.63,15.18,42.65,15.68,42.32Z"/><path class="cls-8" d="M73.49,33a20.68,20.68,0,0,1-2.27,0c-1.07-.11-1.41.21-1.4,1.34.06,7.16,0,14.32,0,21.48,0,.45.16,1-.28,1.31-.43-.24-.38-.66-.38-1.05q0-11.41,0-22.83c0-.66.27-1,.94-1,.87,0,1.73,0,2.6,0A.73.73,0,0,1,73.49,33Z"/><path class="cls-8" d="M153.48,33.29c-1.31-.57-2.66-.23-4-.18-.32,0-.41.46-.54.76q-3.15,7.09-6.31,14.19c-.28.64-.52.68-.76,0l6.7-15.1a1.07,1.07,0,0,1,1.07-.74c1,0,2.09,0,3.13,0C153.51,32.22,153.91,32.5,153.48,33.29Z"/><path class="cls-2" d="M106,33.47a2,2,0,0,1,1.08,2.33,2.08,2.08,0,0,1-1.63,1.93,2.2,2.2,0,0,1-2.67-.82c.17-.11.1-.16,0-.2h0c0-.18,0-.36,0-.54,0-1.81.64-2.46,2.44-2.52C105.49,33.65,105.79,33.74,106,33.47Z"/><path class="cls-2" d="M83.14,34.74A2.25,2.25,0,0,1,82,37.57,2.44,2.44,0,0,1,79,36.92c.17-.11.12-.16,0-.2h0a3.29,3.29,0,0,1,.43-2.06c.93-1.16,1.66-1.29,3.51-.57h0C82.87,34.34,82.81,34.63,83.14,34.74Z"/><path class="cls-8" d="M243.14,44.26a9.14,9.14,0,0,0-6-.65,7.14,7.14,0,0,0-4.91,6.18c0,.77.27,1.58-.22,2.3a5.23,5.23,0,0,1-.16-4,7.17,7.17,0,0,1,10.32-4.61C242.57,43.64,243,43.78,243.14,44.26Z"/><path class="cls-8" d="M61.87,43.62,59,43.41c-4-.3-7,3-7.13,7.09a18,18,0,0,0,.66,3.55c-2.12-2.65-1.44-7.24,1.39-9.74C55.87,42.56,59.71,41.83,61.87,43.62Z"/><path class="cls-8" d="M82.91,43.35c-.59.53-1.3.24-2,.26-1.57,0-1.57,0-1.57,1.53,0,3.59,0,7.18,0,10.77,0,.41.14.88-.28,1.2-.45-.23-.37-.66-.37-1,0-4,0-8,0-12,0-.83.27-1.2,1.12-1.14s1.44,0,2.16,0C82.36,43,82.74,42.9,82.91,43.35Z"/><path class="cls-9" d="M195.26,43c-.37,0-.45-.29-.44-.61s0-.79,0-1.19c0-2.14-.52-2.54-2.64-2.09-.5.11-.61.42-.61.86,0,.93,0,1.87,0,2.8,0,.56-.19.9-.8.88-.91,0-1.19.48-1.15,1.3,0,.57,0,1.15,0,1.72-.59-.52-.83-2.93-.36-3.46a.61.61,0,0,1,.58-.22c1.1.21,1.14-.45,1.09-1.26s0-1.44,0-2.15c-.07-1,.4-1.37,1.35-1.31.5,0,1,0,1.51,0,1.32,0,1.42.11,1.43,1.39C195.21,40.75,195.24,41.87,195.26,43Z"/><path class="cls-8" d="M106.74,43.35c-.66.57-1.46.28-2.18.25-1,0-1.4.28-1.38,1.35.06,3.17,0,6.35,0,9.52a12.21,12.21,0,0,1-.24,2.68c-.51-.24-.42-.71-.42-1.13,0-4,0-7.94,0-11.91,0-.83.26-1.21,1.12-1.15s1.44,0,2.16,0C106.18,43,106.57,42.89,106.74,43.35Z"/><path class="cls-10" d="M1.64,44.5c-.23.83.46,1.59.2,2.43a4.74,4.74,0,0,1,1.78-6.57c.6-.35.85-.56.63-1.35a4.07,4.07,0,0,1,2.13-4.7,2.92,2.92,0,0,1,3.15.38c-2.54-.57-3.73.21-4.66,2.13a4.55,4.55,0,0,0-.09,2.85c.09.47,0,.73-.39,1A5,5,0,0,0,1.64,44.5Z"/><path class="cls-11" d="M96.94,43.39c-.22.33-.48.15-.76.1-4.46-.85-7,1-9.08,4.32a4.91,4.91,0,0,0-.36,2.75l-.51,0a7.25,7.25,0,0,1,3.67-6.88A6.85,6.85,0,0,1,96.94,43.39Z"/><path class="cls-8" d="M119.92,44a23.56,23.56,0,0,0-4.31-.66c-2.79,0-5.18,1.43-4.82,4.83a5.12,5.12,0,0,1,0,.64,3.83,3.83,0,0,1,1.51-5.53,7.9,7.9,0,0,1,7.37.29A.43.43,0,0,1,119.92,44Z"/><path class="cls-8" d="M173.4,43.62c-2.07,0-2-.25-2,2s0,4.75,0,7.13a24,24,0,0,1-.23,4.4c-.5-.24-.42-.7-.42-1.13q0-5.94,0-11.89c0-.51-.05-1.17.64-1.13S173.06,42.43,173.4,43.62Z"/><path class="cls-8" d="M257.59,44.27a9.87,9.87,0,0,0-6.46-.66,3.44,3.44,0,0,0-2.82,3.52c0,.64,0,1.29,0,1.93a4,4,0,0,1,1.13-5.6,8.22,8.22,0,0,1,7.66.15C257.34,43.78,257.57,43.94,257.59,44.27Z"/><path class="cls-11" d="M163,43.38a10.61,10.61,0,0,1-3,0c-3-.2-6.44,3.16-6.54,6.1H153a7.18,7.18,0,0,1,8.58-6.75A3.06,3.06,0,0,1,163,43.38Z"/><path class="cls-1" d="M14.4,41.45c.5,0,.52.47.58.77.16.76.46.11.69.09.16.59-.51,1.16,0,1.73,0,.34.19.44.46.51.45.72,1.17.22,1.74.37,0,.31,0,.66-.51.53a6.65,6.65,0,0,0-1.25-.07h0l-.27-.22c-.59.06-.42.51-.36.82.13.74.33,1.46.5,2.2l-.11,1a8.05,8.05,0,0,1-.6-1.83c-.21-.56-.24-1.24-1-1.6l0,.94a.41.41,0,0,1-.47-.43c-.1-.28.52-.73-.2-.87l0-.44c.39-.46,0-.75-.29-.94-.56-.34-.15-.54,0-.8.28.26.58.46,1,.19a.88.88,0,0,0,.3-1Z"/><path class="cls-5" d="M14.48,57.3h-2c1.12,0,1.34-.87,1.74-1.66.81-1.59,1-3.36,1.57-5a9.47,9.47,0,0,1,.66,3.09c0,1.31,0,2.59-1.39,3.32-.31-.26-.32.08-.44.22l-.07,0Z"/><path class="cls-10" d="M13.57,45.36c.72.14.1.59.2.87-2.25,1.11-4.61,1.93-7,2.8-2,.74-2.92,2-2.57,4.11C3.31,51.53,3.77,50,5.53,49a41.85,41.85,0,0,1,4.59-1.89A13.6,13.6,0,0,0,13.57,45.36Z"/><path class="cls-5" d="M27.17,47.31c-1.87-.78-3.62-1.82-5.54-2.49-.22-.08-.27-.32-.28-.54a7.54,7.54,0,0,1,2.6-.21l.22.2c.59-.13,1.05.32,1.6.36v0c0,.27.16.3.35.32A3.07,3.07,0,0,1,27.17,47.31Z"/><path class="cls-8" d="M182.49,43.61c-.17.27-.4.21-.66.14-2.5-.66-4.88-.59-7,1.14-.49.4-.85.3-1-.32a10.1,10.1,0,0,1,4-1.9A6.22,6.22,0,0,1,182.49,43.61Z"/><path class="cls-8" d="M254,53a.8.8,0,0,1,.48,1.13,1.18,1.18,0,0,1-1.06.8,5.4,5.4,0,0,1-3-.62c-.74-.42-1.13-.21-1.42.48a6.92,6.92,0,0,0-.72,1.67.7.7,0,0,1-.41-1.12l.1-.19c.87-1.88.87-1.86,2.8-1.29a8.84,8.84,0,0,0,1.79.38C253.43,54.27,254.11,54,254,53Z"/><path class="cls-1" d="M15.63,48.48c-.1-.31,0-.45.37-.38a38.42,38.42,0,0,0,4.24,10.1l-.6.37a22.09,22.09,0,0,1-2.73-5.76C16.78,52.46,15.74,48.85,15.63,48.48Z"/><path class="cls-8" d="M116.62,52.95c.62.28.52.84.39,1.3s-.6.58-1,.63a5.22,5.22,0,0,1-2.91-.61c-.78-.37-1.27-.33-1.53.6-.15.54-.59,1-.54,1.61-.62-.26-.82-.67-.45-1.27,0-.06.06-.13.09-.2.87-1.8.87-1.78,2.77-1.2a8,8,0,0,0,1.89.38C116.1,54.25,116.71,53.93,116.62,52.95Z"/><path class="cls-11" d="M206.48,43.62c-.94,0-1.87,0-2.81,0s-1.1.3-1.06,1.08c.12,2.37-.19,4.74.19,7.11a1.43,1.43,0,0,1-.17,1.34c-.68-2.63-.36-5.3-.36-8,0-2.22.09-2.26,2.32-2.2C205.24,43,206.18,42.46,206.48,43.62Z"/><path class="cls-8" d="M230.12,44.51c.1-.73-.25-1.05-1-1.1-1.72-.12-3.36,0-4.56,1.49-.38.48-.82.7-1-.19a5.4,5.4,0,0,1,4.69-2.12,3.8,3.8,0,0,1,1.53.42C230.56,43.42,230.78,43.87,230.12,44.51Z"/><path class="cls-8" d="M221,43.85q0,6,0,12.1c0,.38.15.8-.21,1.12-.29-.19-.26-.49-.26-.78q0-6.22,0-12.43Z"/><path class="cls-10" d="M23.95,44.07a7.54,7.54,0,0,0-2.6.21c-1.19,0-2.29.5-3.46.65-.57-.16-1.29.35-1.74-.37,2.06-.07,4-.92,6-1,1.29,0,2.59,0,3.58,1-.55,0-1-.49-1.6-.36Z"/><path class="cls-6" d="M38.88,36.62c.2-.53.66-.34,1-.35q4.32,0,8.64,0a3.85,3.85,0,0,0,1.48-.2c-.28.67-.88.5-1.39.51C45.38,36.6,42.13,36.61,38.88,36.62Z"/><path class="cls-8" d="M243.13,53.58c-1.14,0-2,.87-3.12,1a3.34,3.34,0,0,1-3.18-1.44,4.4,4.4,0,0,0,4.93-.07C242.48,52.66,242.87,52.86,243.13,53.58Z"/><path class="cls-8" d="M82.86,34.1c-1.85-.72-2.57-.59-3.51.57a3.29,3.29,0,0,0-.43,2.06,2.23,2.23,0,0,1,.48-3.34A2.37,2.37,0,0,1,82.86,34.1Z"/><path class="cls-10" d="M19.64,58.57l.6-.37c1.27,1.36,2.51,2.75,4.51,3,.61.08.33.49.26.82a10.16,10.16,0,0,1-2.75-1.38c-.34-.24-.59-.48-.74.13A8.24,8.24,0,0,1,19.64,58.57Z"/><path class="cls-9" d="M134.86,33c-1.06,0-2.13.06-3.19,0a1.16,1.16,0,0,0-1.39.88c-.78-1.35-.6-1.68,1-1.69.86,0,1.72,0,2.58,0C134.42,32.17,134.79,32.39,134.86,33Z"/><path class="cls-11" d="M212.57,51a3.72,3.72,0,0,1-2.36,3.34,2.1,2.1,0,0,1-2.63-1c2.35.84,3.43.28,4.55-2.36Z"/><path class="cls-8" d="M164.31,53.34a9.71,9.71,0,0,1-2.8,1.21,3.13,3.13,0,0,1-3.28-1.2,4.89,4.89,0,0,0,5-.34C163.68,52.7,164.08,52.77,164.31,53.34Z"/><path class="cls-11" d="M97.81,52.49a6.21,6.21,0,0,1-2.89,1.88,2.12,2.12,0,0,1-2.53-.95,3.7,3.7,0,0,0,4.17-.85C96.94,52.19,97.35,51.88,97.81,52.49Z"/><path class="cls-8" d="M62.93,53.59c-1.09-.06-1.91.68-2.9.95a3.29,3.29,0,0,1-2.44-.38c-.2-.1-.21-.26,0-.41a5.07,5.07,0,0,0,3.92-.68C62.22,52.59,62.61,53,62.93,53.59Z"/><path class="cls-11" d="M106,33.47c-.22.27-.52.18-.8.19-1.8.05-2.43.7-2.44,2.52,0,.18,0,.36,0,.54-1-1-.77-1.93.12-3S104.66,32.7,106,33.47Z"/><path class="cls-11" d="M181,48.85c.58.15.36.63.36,1,0,2.43,0,4.86,0,7.29-.47-.19-.43-.61-.43-1C181,53.69,181,51.27,181,48.85Z"/><path class="cls-6" d="M21.51,60.78c.15-.61.41-.37.74-.13A10.16,10.16,0,0,0,25,62c-.18.93-.66,1.14-1.43.57-.4-.3-.78-.63-1.17-.94l-.24-.24,0,0-.24-.24,0,0L21.73,61l0,0-.24-.24Z"/><path class="cls-9" d="M120.33,51c-1.53-1.27-3.43-1.86-5.15-2.78-.27-.14-.48-.31-.49-.65a27.28,27.28,0,0,1,3.9,1.75A3.82,3.82,0,0,1,120.33,51Z"/><path class="cls-11" d="M191,47.33c.32,0,.39.26.39.54q0,3.07,0,6.14a.52.52,0,0,1-.23.46A46.33,46.33,0,0,1,191,47.33Z"/><path class="cls-8" d="M212.57,51h-.44V44.07h.43Z"/><path class="cls-11" d="M48,43.39c-.18.31-.49.25-.76.25H39.84c-.27,0-.6.09-.71-.3A85.7,85.7,0,0,1,48,43.39Z"/><path class="cls-10" d="M24.59,37.36a8,8,0,0,0-3.92-.66,1.41,1.41,0,0,1-1.26-.41c1.26,0,2.53-.36,3.76.17A3,3,0,0,1,24.59,37.36Z"/><path class="cls-9" d="M256.58,49.87c-1.34-.26-2.49-1-3.79-1.42-.34-.1-.38-.4-.36-.7C253.88,48.32,255.45,48.66,256.58,49.87Z"/><path class="cls-11" d="M212.57,44.06h-.43c-.27-.76-.07-1.15.8-1.11s1.56,0,2.34,0c.37,0,.73,0,.82.47-.85,0-1.71,0-2.55.07A1,1,0,0,0,212.57,44.06Z"/><path class="cls-8" d="M198.94,43.63c-.84,0-1.68,0-2.53,0-.44,0-.78-.07-.72-.62l2.38,0C198.52,43,199,43,198.94,43.63Z"/><path class="cls-11" d="M198.75,53.55a3.07,3.07,0,0,1-2,.68c-.45.07-.65-.17-.6-.62l1.67-.36C198.17,53.17,198.59,53,198.75,53.55Z"/><path class="cls-11" d="M221,43.85h-.45c-.17-.55.14-.91.61-.85.68.09,1.64-.56,2,.62C222.46,43.69,221.71,43.46,221,43.85Z"/><path class="cls-9" d="M153.25,50.78a16.51,16.51,0,0,1,.86,3.46A5.82,5.82,0,0,1,153,50.77Z"/><path class="cls-9" d="M86.23,50.6l.51,0c-.22,1.07.47,2,.43,3.06A5.43,5.43,0,0,1,86.23,50.6Z"/><path class="cls-7" d="M18.81,34.3a1.16,1.16,0,0,1-1.13-1.08A1.69,1.69,0,0,1,18.81,34.3Z"/><path class="cls-7" d="M23.09,42.78c.3-.55.85-.33,1.3-.44A1.92,1.92,0,0,1,23.09,42.78Z"/><path class="cls-9" d="M153,49.48h.47c.33.33.08.39-.2.44H153Z"/><path class="cls-9" d="M87.39,54c.46,0,.44.34.44.65A1.08,1.08,0,0,1,87.39,54Z"/><path class="cls-8" d="M248.29,49.05c.44,0,.45.31.45.62A1.05,1.05,0,0,1,248.29,49.05Z"/><path class="cls-8" d="M157,51.4c-.52-.26-.05-.42.06-.61Z"/><path class="cls-8" d="M120.08,44.7c-.24-.17-.19-.42-.17-.66C120.24,44.19,120.28,44.41,120.08,44.7Z"/><path class="cls-4" d="M12.56,39.95c-.17,0-.4,0-.42-.21s.17-.19.31-.22Z"/><path class="cls-11" d="M153,49.9h.29q0,.43,0,.86H153Z"/><path class="cls-8" d="M243.79,54.26c-.29,0-.47-.16-.45-.48A.65.65,0,0,1,243.79,54.26Z"/><path class="cls-8" d="M83.14,34.74c-.33-.12-.27-.4-.28-.66A1,1,0,0,1,83.14,34.74Z"/><path class="cls-9" d="M174.67,57.08c0-.24,0-.51.22-.67C174.89,56.66,175,56.94,174.67,57.08Z"/><path class="cls-3" d="M14.63,57.27c.11-.13.13-.47.44-.22Z"/><path class="cls-8" d="M63.17,54c-.2-.08-.23-.25-.24-.43A.47.47,0,0,1,63.17,54Z"/><path class="cls-9" d="M87.16,53.6c.2.08.23.25.24.44Z"/><path class="cls-9" d="M257,50.14c-.19,0-.38,0-.45-.26C256.79,49.82,256.89,50,257,50.14Z"/><path class="cls-10" d="M9.9,35c-.21,0-.4,0-.39-.3Z"/><path class="cls-10" d="M24.91,37.71c-.26,0-.3-.15-.32-.35Z"/><path class="cls-10" d="M26.11,44.93c-.2,0-.38-.05-.35-.32Z"/><path class="cls-8" d="M157.65,52.72c-.24-.05-.28-.23-.29-.43Z"/><path class="cls-8" d="M110.76,48.83c.2.08.22.25.24.44Z"/><path class="cls-8" d="M244.67,46c-.22-.07-.25-.25-.26-.44Z"/><path class="cls-7" d="M24.38,42.34a.44.44,0,0,1,.39-.24A.43.43,0,0,1,24.38,42.34Z"/><path class="cls-10" d="M21.95,61.2l.24.24Z"/><path class="cls-8" d="M158.23,53.37l-.22-.31Z"/><path class="cls-10" d="M21.73,61l.24.24Z"/><path class="cls-10" d="M22.17,61.41l.24.24Z"/><path class="cls-10" d="M21.51,60.77l.24.24Z"/><path class="cls-9" d="M135.26,33.88l-.2-.32Z"/><path class="cls-8" d="M243.35,53.8l-.24-.23A.22.22,0,0,1,243.35,53.8Z"/><path class="cls-7" d="M17.45,33.24l.13-.2.11.19Z"/><path class="cls-8" d="M52.5,54c.16,0,.21.1,0,.2A.26.26,0,0,1,52.5,54Z"/><path class="cls-8" d="M73.11,57.11l.25-.26Z"/><path class="cls-8" d="M63.38,54.24,63.15,54A.21.21,0,0,1,63.38,54.24Z"/><path class="cls-6" d="M38.47,57.12l.26-.27Z"/><path class="cls-8" d="M63.6,54.45l-.23-.23A.22.22,0,0,1,63.6,54.45Z"/><path class="cls-8" d="M63.82,54.67l-.23-.23A.23.23,0,0,1,63.82,54.67Z"/><path class="cls-8" d="M64,54.89l-.23-.23Z"/><path class="cls-11" d="M164.05,43.88c-.14.17-.16,0-.2-.07Z"/><path class="cls-8" d="M62.05,43.65c-.11.17-.16.09-.2,0Z"/><path class="cls-8" d="M243.35,44.49l-.23-.24C243.3,44.23,243.36,44.33,243.35,44.49Z"/><path class="cls-8" d="M243.56,44.71l-.23-.23C243.5,44.47,243.58,44.54,243.56,44.71Z"/><path class="cls-8" d="M243.78,44.92l-.23-.23C243.72,44.68,243.8,44.75,243.78,44.92Z"/><path class="cls-8" d="M244,45.14l-.23-.23C243.94,44.89,244,45,244,45.14Z"/><path class="cls-4" d="M15.87,45.18l.27.22Z"/><path class="cls-8" d="M244.22,45.36l-.23-.23C244.14,45.13,244.2,45.21,244.22,45.36Z"/><path class="cls-8" d="M244.43,45.58l-.23-.23Z"/><path class="cls-7" d="M24.81,42.08l.25-.18Z"/><path class="cls-9" d="M174.91,48.84c-.18-.11-.12-.17,0-.21Z"/><path class="cls-8" d="M111.17,49.49l.26.23Z"/><path class="cls-8" d="M111.42,49.7l.23.29Z"/><path class="cls-10" d="M25.32,38.19a.28.28,0,0,1-.25-.26Z"/><path class="cls-8" d="M249.28,50.14l.32.27Z"/><path class="cls-10" d="M25.1,38a.21.21,0,0,1-.21-.26Z"/><path class="cls-9" d="M120.55,51.43l-.22-.34Z"/><path class="cls-11" d="M102.74,36.71c.15,0,.21.09,0,.2A.19.19,0,0,1,102.74,36.71Z"/><path class="cls-8" d="M78.91,36.72c.16,0,.21.09,0,.2A.18.18,0,0,1,78.91,36.72Z"/><path class="cls-11" d="M56.22,48.41l4.72,0a.24.24,0,0,0,.21-.28.2.2,0,0,1,0-.13c.44.33.43.78-.08.81-1.53.08-3.07,0-4.61,0C56.35,48.75,56.29,48.53,56.22,48.41Z"/><path class="cls-8" d="M157.79,48.41l4.18,0c.42,0,.84,0,.68-.61.51.73.41,1.23-.3,1.26-1.32.06-2.64,0-4,0A.57.57,0,0,1,157.79,48.41Z"/><path class="cls-8" d="M236.61,48.39c1.35,0,2.7-.05,4,0,.68,0,.81-.26.62-.83a.84.84,0,0,1,.48,1.07c-.13.51-.59.43-1,.44-1.15,0-2.29,0-3.44,0C236.87,49.05,236.56,48.94,236.61,48.39Z"/><path class="cls-7" d="M13.55,38.65l-.21-.22Z"/><path class="cls-7" d="M12.91,37.35q0-.11,0-.22a1.09,1.09,0,0,1,.08.15S12.93,37.33,12.91,37.35Z"/><path class="cls-7" d="M12.68,36.05l-.2-.22Z"/><path class="cls-5" d="M21.13,42.55l-.05.09,0-.09Z"/><path class="cls-4" d="M23.95,44.07l.22.21Z"/><path class="cls-12" d="M61.15,48.1a.24.24,0,0,1-.21.28Z"/></g><rect class="cls-13" width="259.64" height="95.09"/></g></g></svg>