<svg xmlns="http://www.w3.org/2000/svg" viewBox="0 0 259.64 95.09"><defs><style>.cls-1{fill:#505050;}.cls-2{fill:none;}</style></defs><title>Asset 38</title><g id="Layer_2" data-name="Layer 2"><g id="Top_layer" data-name="Top layer"><path class="cls-1" d="M28.87,42.8h9.52V55.24A26.78,26.78,0,0,1,34,56.3a28.38,28.38,0,0,1-4.18.3q-5.43,0-8.3-3.19T18.7,44.25q0-5.81,3.32-9.06t9.21-3.25a17.82,17.82,0,0,1,7.12,1.48l-1.69,4.07a12.08,12.08,0,0,0-5.46-1.31,6.75,6.75,0,0,0-5.28,2.21,8.59,8.59,0,0,0-2,6,9.57,9.57,0,0,0,1.6,6,5.54,5.54,0,0,0,4.65,2.06A16.45,16.45,0,0,0,33.42,52V47H28.87Z"/><path class="cls-1" d="M55.36,56.28l-1-2.49h-.13A7.39,7.39,0,0,1,51.66,56a8.41,8.41,0,0,1-3.49.61A5.64,5.64,0,0,1,44,55.09a5.8,5.8,0,0,1-1.52-4.3,4.84,4.84,0,0,1,2-4.31A11.84,11.84,0,0,1,50.7,45l3.18-.1v-.8q0-2.79-2.86-2.79a13,13,0,0,0-5.17,1.33L44.2,39.21a14.92,14.92,0,0,1,7-1.66,8.75,8.75,0,0,1,5.66,1.61,6,6,0,0,1,2,4.89V56.28Zm-1.48-8.5-1.94.07a6.21,6.21,0,0,0-3.25.79,2.47,2.47,0,0,0-1.07,2.2q0,2.12,2.43,2.12a3.85,3.85,0,0,0,2.78-1,3.52,3.52,0,0,0,1-2.66Z"/><path class="cls-1" d="M74.25,37.59a8.1,8.1,0,0,1,1.69.15l-.38,4.69a5.75,5.75,0,0,0-1.48-.16,5.31,5.31,0,0,0-3.73,1.23A4.45,4.45,0,0,0,69,46.94v9.34H64V37.93H67.8L68.54,41h.25a6.9,6.9,0,0,1,2.31-2.49A5.68,5.68,0,0,1,74.25,37.59Z"/><path class="cls-1" d="M90.92,56.28l-1-2.49h-.13A7.39,7.39,0,0,1,87.22,56a8.41,8.41,0,0,1-3.49.61,5.64,5.64,0,0,1-4.16-1.51,5.8,5.8,0,0,1-1.52-4.3,4.84,4.84,0,0,1,2-4.31A11.84,11.84,0,0,1,86.26,45l3.18-.1v-.8q0-2.79-2.86-2.79a13,13,0,0,0-5.17,1.33l-1.66-3.38a14.92,14.92,0,0,1,7-1.66,8.75,8.75,0,0,1,5.66,1.61,6,6,0,0,1,2,4.89V56.28Zm-1.48-8.5-1.94.07a6.21,6.21,0,0,0-3.25.79,2.47,2.47,0,0,0-1.07,2.2q0,2.12,2.43,2.12a3.85,3.85,0,0,0,2.78-1,3.52,3.52,0,0,0,1-2.66Z"/><path class="cls-1" d="M115.53,37.93v2.54l-2.87.74a5,5,0,0,1,.79,2.76,5.57,5.57,0,0,1-2.06,4.6,8.92,8.92,0,0,1-5.72,1.65l-.9,0-.74-.08a1.67,1.67,0,0,0-.77,1.31q0,1.08,2.76,1.08h3.12a7.11,7.11,0,0,1,4.6,1.3,4.63,4.63,0,0,1,1.58,3.81,5.65,5.65,0,0,1-2.68,5q-2.68,1.77-7.7,1.77A10.66,10.66,0,0,1,99.07,63a4.25,4.25,0,0,1-2-3.75,3.93,3.93,0,0,1,1-2.77,5.87,5.87,0,0,1,3-1.59,3.35,3.35,0,0,1-1.35-1.08,2.64,2.64,0,0,1,0-3.33,7,7,0,0,1,1.76-1.37,4.92,4.92,0,0,1-2.29-2,6.09,6.09,0,0,1-.85-3.25,5.73,5.73,0,0,1,2-4.64,8.45,8.45,0,0,1,5.58-1.64,14.22,14.22,0,0,1,1.83.14q1.06.14,1.35.2ZM101.37,58.87a1.81,1.81,0,0,0,1,1.62,5.46,5.46,0,0,0,2.78.59,9.86,9.86,0,0,0,4.22-.74,2.25,2.25,0,0,0,1.53-2,1.43,1.43,0,0,0-.9-1.43,7.39,7.39,0,0,0-2.79-.39H104.6a3.93,3.93,0,0,0-2.31.65A2,2,0,0,0,101.37,58.87Zm1.82-14.93a3.73,3.73,0,0,0,.68,2.36,2.47,2.47,0,0,0,2.08.87A2.42,2.42,0,0,0,108,46.3a3.84,3.84,0,0,0,.66-2.36q0-3.32-2.72-3.32T103.19,43.94Z"/><path class="cls-1" d="M126.86,56.6a9.47,9.47,0,0,1-6.92-2.44,9.26,9.26,0,0,1-2.49-6.92q0-4.61,2.31-7.13a8.21,8.21,0,0,1,6.38-2.52,8.08,8.08,0,0,1,6.06,2.21,8.38,8.38,0,0,1,2.17,6.12v2.43H122.51a4.82,4.82,0,0,0,1.26,3.33,4.45,4.45,0,0,0,3.31,1.2,13.76,13.76,0,0,0,3.13-.34,15.68,15.68,0,0,0,3.09-1.1v3.87a11.76,11.76,0,0,1-2.81,1A17.69,17.69,0,0,1,126.86,56.6Zm-.71-15.46a3.17,3.17,0,0,0-2.49,1,4.67,4.67,0,0,0-1,2.86h7a4.17,4.17,0,0,0-1-2.86A3.28,3.28,0,0,0,126.15,41.15Z"/><path class="cls-1" d="M149.35,34.43a7.84,7.84,0,0,0-6.24,2.63,10.63,10.63,0,0,0-2.29,7.21q0,4.71,2.21,7.28a7.84,7.84,0,0,0,6.29,2.57,21.49,21.49,0,0,0,5.73-.9v2.44a17.64,17.64,0,0,1-6.15.93q-5.3,0-8.18-3.22t-2.88-9.14a14.43,14.43,0,0,1,1.39-6.5,10,10,0,0,1,4-4.3,12.12,12.12,0,0,1,6.16-1.51,14.88,14.88,0,0,1,6.6,1.38l-1.18,2.4A12.72,12.72,0,0,0,149.35,34.43Z"/><path class="cls-1" d="M170.93,56.28l-.54-2.56h-.13A7.57,7.57,0,0,1,167.58,56a8.18,8.18,0,0,1-3.34.6A6,6,0,0,1,160,55.23a5,5,0,0,1-1.52-3.92q0-5.45,8.71-5.71l3.05-.1V44.38a4.56,4.56,0,0,0-.91-3.13,3.74,3.74,0,0,0-2.91-1,11.87,11.87,0,0,0-5.09,1.38l-.84-2.08a12.8,12.8,0,0,1,2.91-1.13,12.64,12.64,0,0,1,3.18-.41,6.85,6.85,0,0,1,4.77,1.43Q173,40.85,173,44V56.28Zm-6.15-1.92a5.53,5.53,0,0,0,4-1.39,5.16,5.16,0,0,0,1.45-3.91V47.43l-2.72.12a9.91,9.91,0,0,0-4.69,1,3,3,0,0,0-1.44,2.78,2.81,2.81,0,0,0,.89,2.25A3.71,3.71,0,0,0,164.78,54.36Z"/><path class="cls-1" d="M186.93,56.6a7.78,7.78,0,0,1-3.21-.65,6,6,0,0,1-2.44-2h-.2a24.11,24.11,0,0,1,.2,3v7.4h-2.72V38.29h2.21l.38,2.46h.13a6.32,6.32,0,0,1,2.44-2.13,7.43,7.43,0,0,1,3.2-.66,6.65,6.65,0,0,1,5.52,2.45,10.76,10.76,0,0,1,1.94,6.86,10.7,10.7,0,0,1-2,6.88A6.66,6.66,0,0,1,186.93,56.6Zm-.39-16.33a4.83,4.83,0,0,0-4,1.53,7.85,7.85,0,0,0-1.26,4.86v.61q0,3.79,1.26,5.42a4.8,4.8,0,0,0,4.05,1.63,4.21,4.21,0,0,0,3.65-1.89,9,9,0,0,0,1.32-5.2,8.61,8.61,0,0,0-1.32-5.16A4.35,4.35,0,0,0,186.54,40.28Z"/><path class="cls-1" d="M198.93,33.42a1.81,1.81,0,0,1,.46-1.37,1.7,1.7,0,0,1,2.28,0,1.78,1.78,0,0,1,.48,1.36,1.81,1.81,0,0,1-.48,1.37,1.59,1.59,0,0,1-1.13.45,1.57,1.57,0,0,1-1.15-.45A1.84,1.84,0,0,1,198.93,33.42Zm3,22.86h-2.72v-18h2.72Z"/><path class="cls-1" d="M213.47,54.36a8.87,8.87,0,0,0,1.39-.11,9.06,9.06,0,0,0,1.07-.22v2.08a5,5,0,0,1-1.3.35,9.84,9.84,0,0,1-1.55.14q-5.22,0-5.22-5.5V40.41h-2.58V39.1L207.85,38,209,34.12h1.58v4.17h5.22v2.12h-5.22V51a3.64,3.64,0,0,0,.77,2.49A2.68,2.68,0,0,0,213.47,54.36Z"/><path class="cls-1" d="M230.58,56.28,230,53.72h-.13A7.57,7.57,0,0,1,227.23,56a8.18,8.18,0,0,1-3.34.6,6,6,0,0,1-4.19-1.38,5,5,0,0,1-1.52-3.92q0-5.45,8.71-5.71l3.05-.1V44.38a4.56,4.56,0,0,0-.91-3.13,3.74,3.74,0,0,0-2.91-1A11.87,11.87,0,0,0,221,41.62l-.84-2.08a12.8,12.8,0,0,1,2.91-1.13,12.64,12.64,0,0,1,3.18-.41A6.85,6.85,0,0,1,231,39.42q1.55,1.43,1.55,4.58V56.28Zm-6.15-1.92a5.53,5.53,0,0,0,4-1.39,5.16,5.16,0,0,0,1.45-3.91V47.43l-2.72.12a9.91,9.91,0,0,0-4.69,1A3,3,0,0,0,221,51.34a2.81,2.81,0,0,0,.89,2.25A3.71,3.71,0,0,0,224.43,54.36Z"/><path class="cls-1" d="M240.94,56.28h-2.72V30.74h2.72Z"/><rect class="cls-2" width="259.64" height="95.09"/></g></g></svg>