<svg xmlns="http://www.w3.org/2000/svg" viewBox="0 0 259.64 95.09"><defs><style>.cls-1{fill:#6d6d6d;}.cls-2{fill:#272727;stroke:#272727;stroke-miterlimit:10;stroke-width:0.12px;}.cls-3{fill:none;}</style></defs><title>Asset 37</title><g id="Layer_2" data-name="Layer 2"><g id="Top_layer" data-name="Top layer"><path class="cls-1" d="M83.38,37.61a23.62,23.62,0,0,1,2.68.16V33.21H84.29a5.09,5.09,0,0,0-4.72,2.52c-.12.24-2.31-2.52-6.65-2.52S62.25,35.9,62.25,42.71s3.86,7.45,3.86,7.45-3.86,1.13-3.86,5a4.35,4.35,0,0,0,3.65,4.4,5,5,0,0,0-4.72,5.2c0,5,6.86,6.43,11.15,6.43s13.73-1.07,13.73-7.51S79.25,56,77.43,56s-9.33.19-9.33-2,4.13-1.78,4.13-1.78c5.58,0,11.15-2.9,11.15-7.61S82.5,39.22,82.29,39,81.82,37.61,83.38,37.61ZM73.62,60.83c3.49,0,6.33,1.34,6.33,3s-2.83,3-6.33,3-6.33-1.34-6.33-3S70.13,60.83,73.62,60.83Zm-.68-13.51a4.58,4.58,0,1,1,4.58-4.58A4.58,4.58,0,0,1,72.94,47.32Z"/><path class="cls-1" d="M97.86,33.54c-6.92,0-11.8,5.46-11.8,14.26S91.69,61.9,97.86,61.9s11.8-5.31,11.8-14.11S104.78,33.54,97.86,33.54Zm0,22.8c-3.65,0-5.23-3.86-5.23-8.62s1.1-8.62,5.23-8.62,5.23,3.86,5.23,8.62S101.58,56.34,97.86,56.34Z"/><rect class="cls-1" x="112.94" y="23.28" width="6.79" height="37.83"/><path class="cls-1" d="M141,23.28V37.13c-2.58-3.11-4.4-3.59-7.62-3.59S123,36.81,123,47.72s6.92,14.18,11.1,14.18S141,58.15,141,58.15v3h6.21V23.28Zm0,30s-2.42,3.49-4.83,3.49-6.76-1.72-6.76-9,4.18-9.2,5.58-9.2,4.73.75,6,3.11Z"/><path class="cls-1" d="M162.8,33.48c-7.35,0-12.66,4.67-12.66,13.41s3.66,15,11.34,15c6.57,0,10.16-3.43,11.34-5.42l-4.19-3.13a6.67,6.67,0,0,1-6.06,3.29c-4.45,0-6.05-5.31-6.05-7.88h16.3V46C172.82,41.58,170.14,33.48,162.8,33.48Zm-6.43,10.89c0-4.29,2.84-6.22,5.39-6.22s5.12,2,5.12,6.22Z"/><path class="cls-1" d="M176.2,33.8V61.15h6.54V41.31a6.34,6.34,0,0,1,5.58-2.79c4,0,3.7,3,3.7,3V61.15h6.43V41.42a7.48,7.48,0,0,0-7.4-7.94c-6.65,0-8.85,3.7-8.85,3.7V33.8Z"/><path class="cls-2" d="M92.55,71.59l-2.8-5.34a.14.14,0,0,1,0-.09A.24.24,0,0,1,90,66a.29.29,0,0,1,.27.17l2.63,5.13,2.64-5.14a.29.29,0,0,1,.26-.16.23.23,0,0,1,.25.2.13.13,0,0,1,0,.08l-2.81,5.36a.31.31,0,0,1-.3.19h0A.31.31,0,0,1,92.55,71.59Z"/><path class="cls-2" d="M97.67,71.51V66.2a.24.24,0,0,1,.26-.21h4.44a.2.2,0,1,1,0,.39H98.18v2.25h3.75a.2.2,0,1,1,0,.39H98.18v2.3h4.24a.2.2,0,1,1,0,.39H97.93A.24.24,0,0,1,97.67,71.51Z"/><path class="cls-2" d="M104.36,66.18a.24.24,0,0,1,.26-.21h.08a.34.34,0,0,1,.26.12l4.64,4.9V66.16a.25.25,0,0,1,.49,0v5.4a.19.19,0,0,1-.21.18h0a.36.36,0,0,1-.26-.14l-4.73-5v4.94a.25.25,0,0,1-.49,0Z"/><path class="cls-2" d="M114.13,66.38h-2.2a.2.2,0,1,1,0-.39h4.92a.2.2,0,1,1,0,.39h-2.2v5.16a.26.26,0,0,1-.51,0Z"/><path class="cls-2" d="M118.59,69.34V66.17a.26.26,0,0,1,.51,0V69.3a2,2,0,0,0,2.33,2.13c1.4,0,2.29-.7,2.29-2.09V66.17a.26.26,0,0,1,.51,0v3.12c0,1.65-1.15,2.52-2.82,2.52S118.59,70.94,118.59,69.34Z"/><path class="cls-2" d="M126.27,66.2a.24.24,0,0,1,.26-.21h2.64a3.05,3.05,0,0,1,1.94.56,1.39,1.39,0,0,1,.52,1.06v0c0,1-.86,1.51-2,1.64l2,2.11a.22.22,0,0,1,.08.15.26.26,0,0,1-.27.22.3.3,0,0,1-.23-.11L129,69.34h-2.25v2.19a.26.26,0,0,1-.51,0ZM129.1,69c1.15,0,2-.48,2-1.31v0c0-.77-.73-1.25-2-1.25h-2.35V69Z"/><path class="cls-2" d="M133.48,71.51V66.2a.24.24,0,0,1,.26-.21h4.44a.2.2,0,1,1,0,.39H134v2.25h3.75a.2.2,0,1,1,0,.39H134v2.3h4.24a.2.2,0,1,1,0,.39h-4.49A.24.24,0,0,1,133.48,71.51Z"/><path class="cls-2" d="M143.22,66.2a.24.24,0,0,1,.26-.21h2.24c1.51,0,2.56.65,2.56,1.75v0c0,1.2-1.25,1.83-2.68,1.83h-1.86v2a.26.26,0,0,1-.51,0Zm2.4,3c1.28,0,2.14-.56,2.14-1.41v0c0-.91-.85-1.38-2.08-1.38h-1.95v2.81Z"/><path class="cls-2" d="M148.77,71.44l2.94-5.31a.36.36,0,0,1,.34-.2h0a.36.36,0,0,1,.34.2l2.93,5.29a.24.24,0,0,1,0,.13.23.23,0,0,1-.25.2.29.29,0,0,1-.26-.16l-.81-1.47H150l-.81,1.48a.26.26,0,0,1-.25.16.22.22,0,0,1-.24-.18A.26.26,0,0,1,148.77,71.44Zm5.09-1.71L152,66.41l-1.82,3.32Z"/><path class="cls-2" d="M157.07,66.2a.24.24,0,0,1,.26-.21H160a3.05,3.05,0,0,1,1.94.56,1.39,1.39,0,0,1,.52,1.06v0c0,1-.86,1.51-2,1.64l2,2.11a.22.22,0,0,1,.08.15.26.26,0,0,1-.27.22.3.3,0,0,1-.23-.11l-2.11-2.29h-2.25v2.19a.26.26,0,0,1-.51,0ZM159.9,69c1.15,0,2-.48,2-1.31v0c0-.77-.73-1.25-2-1.25h-2.35V69Z"/><path class="cls-2" d="M166.08,66.38h-2.2a.2.2,0,1,1,0-.39h4.92a.2.2,0,1,1,0,.39h-2.2v5.16a.26.26,0,0,1-.51,0Z"/><path class="cls-2" d="M170.65,66.18a.24.24,0,0,1,.26-.21H171a.34.34,0,0,1,.26.12l4.64,4.9V66.16a.25.25,0,0,1,.49,0v5.4a.19.19,0,0,1-.21.18h0a.36.36,0,0,1-.26-.14l-4.73-5v4.94a.25.25,0,0,1-.49,0Z"/><path class="cls-2" d="M178.52,71.51V66.2a.24.24,0,0,1,.26-.21h4.44a.2.2,0,1,1,0,.39H179v2.25h3.75a.2.2,0,1,1,0,.39H179v2.3h4.24a.2.2,0,1,1,0,.39h-4.49A.24.24,0,0,1,178.52,71.51Z"/><path class="cls-2" d="M185.2,66.2a.24.24,0,0,1,.26-.21h2.64a3.05,3.05,0,0,1,1.94.56,1.39,1.39,0,0,1,.52,1.06v0c0,1-.86,1.51-2,1.64l2,2.11a.22.22,0,0,1,.08.15.26.26,0,0,1-.27.22.3.3,0,0,1-.23-.11L188,69.34h-2.25v2.19a.26.26,0,0,1-.51,0ZM188,69c1.15,0,2-.48,2-1.31v0c0-.77-.73-1.25-2-1.25h-2.35V69Z"/><path class="cls-2" d="M192.13,71a.2.2,0,0,1-.1-.16.24.24,0,0,1,.26-.21.32.32,0,0,1,.17,0,3.58,3.58,0,0,0,2.32.74c1,0,1.74-.48,1.74-1.14v0c0-.61-.38-1-1.95-1.22s-2.32-.75-2.32-1.61v0c0-.85.93-1.51,2.21-1.51a3.84,3.84,0,0,1,2.19.59.22.22,0,0,1,.11.17.24.24,0,0,1-.26.21.3.3,0,0,1-.17,0,3.34,3.34,0,0,0-1.9-.54c-1,0-1.68.48-1.68,1.08v0c0,.61.37,1,2,1.25s2.26.74,2.26,1.58v0c0,.93-1,1.56-2.28,1.56A4.38,4.38,0,0,1,192.13,71Z"/><rect class="cls-3" width="259.64" height="95.09"/></g></g></svg>