<svg xmlns="http://www.w3.org/2000/svg" viewBox="0 0 164 76.75"><defs><style>.cls-1{fill:none;}</style></defs><title>adidas-logo</title><g id="Layer_2" data-name="Layer 2"><g id="Layer_1-2" data-name="Layer 1"><path d="M77.77,16.51,90.51,9l22.16,38.4H95.73a.33.33,0,0,1-.34-.2L77.87,16.7C77.84,16.65,77.82,16.59,77.77,16.51Z"/><path d="M90.15,47.44H76.66v3.64H73v-.23c0-1.06,0-2.12,0-3.19a.8.8,0,0,0-.11-.4Q68,38.68,63.12,30.12A1.45,1.45,0,0,1,63,29.9l12.92-7.31Z"/><path d="M48,43.11l12.73-7.39L67.6,47.44H50.66a.33.33,0,0,1-.34-.2q-1.08-2-2.18-3.93Z"/><path d="M50.61,53.22v.56l-.08,0a7.69,7.69,0,0,0-11.77,4.82A13.42,13.42,0,0,0,38.59,60v.09c0,.3,0,.6.08.89a7.58,7.58,0,0,0,4,5.84,7.43,7.43,0,0,0,4.63.82,7.22,7.22,0,0,0,2.79-.87l.49-.3v.88h3.68V52.66H50.61ZM46.36,64.28A4.32,4.32,0,0,1,42.12,60a4.38,4.38,0,0,1,4.24-4.23,4.26,4.26,0,0,1,4.24,4.26A4.2,4.2,0,0,1,46.36,64.28Z"/><path d="M67.61,53.78l-.09,0a7.59,7.59,0,0,0-5.07-1.22,7.21,7.21,0,0,0-5.16,2.73A7.36,7.36,0,0,0,55.67,61a7.23,7.23,0,0,0,3,5.21A7.79,7.79,0,0,0,67,66.8c.2-.09.4-.22.63-.34v.88h3.68V47.6H67.61Zm-4.26,10.5a4.21,4.21,0,0,1-4.24-4.23,4.27,4.27,0,0,1,4.24-4.24A4.38,4.38,0,0,1,67.6,60,4.33,4.33,0,0,1,63.35,64.28Z"/><path d="M90.14,53.74a10.52,10.52,0,0,0-1.27-.69,7.76,7.76,0,0,0-6.91.48,7.47,7.47,0,0,0-2.2,11.18,7.66,7.66,0,0,0,6.76,3A6.64,6.64,0,0,0,90,66.52a.23.23,0,0,1,.11,0v.86h3.67V47.59H90.14ZM85.9,64.28a4.34,4.34,0,0,1-4.26-4.23,4.39,4.39,0,0,1,4.26-4.24A4.27,4.27,0,0,1,90.14,60,4.21,4.21,0,0,1,85.9,64.28Z"/><path d="M107.1,53.79A7.62,7.62,0,0,0,102,52.52,7.22,7.22,0,0,0,97,55a7.37,7.37,0,0,0-1.84,5.82A7.27,7.27,0,0,0,97.9,66a7.71,7.71,0,0,0,8,1.11c.42-.16.82-.39,1.26-.61v.86h3.5V52.66H107.1Zm-4.3,10.49A4.23,4.23,0,0,1,98.62,60a4.28,4.28,0,0,1,4.28-4.16,4.38,4.38,0,0,1,4.21,4.26A4.32,4.32,0,0,1,102.8,64.28Z"/><path d="M123.77,59.53a6.89,6.89,0,0,0-2.93-1.11c-1-.17-2-.32-3-.54a4,4,0,0,1-1.2-.49.84.84,0,0,1-.32-1.16,1.28,1.28,0,0,1,.92-.77,5.1,5.1,0,0,1,2.63,0,1.6,1.6,0,0,1,1.3,1.46c0,.13,0,.26,0,.38h3.67c0-.11,0-.2,0-.29a4.7,4.7,0,0,0-2.56-3.69,8.64,8.64,0,0,0-7.26-.06,4.34,4.34,0,0,0-2.35,5.2,3.47,3.47,0,0,0,2.24,2.5,21.23,21.23,0,0,0,2.37.64c.91.2,1.84.31,2.75.5a3.09,3.09,0,0,1,1,.4,1,1,0,0,1,.29,1.45,2,2,0,0,1-.69.65,3.57,3.57,0,0,1-3.6-.06,1.91,1.91,0,0,1-1-1.39c0-.16,0-.32-.07-.5h-3.85a1.46,1.46,0,0,0,0,.21c0,.22.05.43.1.65a4.92,4.92,0,0,0,3.29,3.64,9.84,9.84,0,0,0,6.58,0,4.4,4.4,0,0,0,3.29-4A3.75,3.75,0,0,0,123.77,59.53Z"/><path d="M73,67.21h3.69V52.44H73Z"/><path d="M123,51.21a1.8,1.8,0,0,0,1.84-1.83A1.81,1.81,0,0,0,123,47.55a1.83,1.83,0,1,0,0,3.66Zm0-3.4a1.58,1.58,0,1,1-1.47,1.58A1.48,1.48,0,0,1,123,47.81Z"/><path d="M122.66,49.58c.28-.08.43,0,.5.25a1.14,1.14,0,0,0,.13.3c.13.29.13.29.46.22l-.34-.78.14-.11a.6.6,0,0,0-.29-1.05,8.19,8.19,0,0,0-.86,0v2h.26Zm0-.93H123c.33,0,.4.1.38.43,0,.13-.07.21-.2.21h-.53Z"/><rect class="cls-1" width="164" height="76.75"/></g></g></svg>