<svg xmlns="http://www.w3.org/2000/svg" viewBox="0 0 164 76.75"><defs><style>.cls-1{fill:#020202;}.cls-2{fill:#fe9a02;}.cls-3{fill:none;}</style></defs><title>amazon-logo</title><g id="Layer_2" data-name="Layer 2"><g id="Layer_1-2" data-name="Layer 1"><path class="cls-1" d="M45.93,27.11a5.45,5.45,0,0,1,10.15.18l.35-.68a5.73,5.73,0,0,1,7.82-2.11,5.56,5.56,0,0,1,1.66,1.43,5.48,5.48,0,0,1,1,3.34V44.46c0,.68-.25.91-.94.92H62.56c-.77,0-1-.22-1-1V31.72a5.79,5.79,0,0,0-.06-.83c-.17-1.33-.76-2-1.86-2.1a2.58,2.58,0,0,0-2.78,1.71,9,9,0,0,0-.32,2.92V44.29c0,.93-.18,1.11-1.14,1.11h-3c-1,0-1.22-.11-1.22-1.11V32.49a8,8,0,0,0-.2-2,2.08,2.08,0,0,0-2-1.78,2.22,2.22,0,0,0-2.39,1.46A7.57,7.57,0,0,0,46.18,33V44.17c0,1.11-.14,1.24-1.27,1.24H41.76c-.68,0-.92-.25-.92-.94V25.17c0-.72.25-1,.95-1h3.15c.74,0,1,.25,1,1S45.93,26.47,45.93,27.11Z"/><path class="cls-1" d="M31.69,42.8a5.3,5.3,0,0,1-.46.6,7.6,7.6,0,0,1-7.13,2.15,5.21,5.21,0,0,1-4.49-5.26c-.19-4.14,2-6.81,6.26-7.67,1.53-.31,3.09-.46,4.64-.62.36,0,.48-.13.45-.49s0-.72,0-1.09a2.6,2.6,0,0,0-2.36-2.8,2.64,2.64,0,0,0-1.21.19,2.75,2.75,0,0,0-2.1,2.11.86.86,0,0,1-.92.8l-.19,0c-1-.13-2-.23-3.06-.35-.8-.1-1-.38-.82-1.16a6.46,6.46,0,0,1,4-4.73,11.33,11.33,0,0,1,8.28-.26c2.66.93,3.86,2.83,3.88,5.92v7.53a5.59,5.59,0,0,0,1.22,3.75c.69.87.64,1.06-.21,1.79s-1.52,1.32-2.29,2c-.6.52-.91.51-1.5,0A10.07,10.07,0,0,1,31.69,42.8ZM31,36.66C31,35,31,35,29.34,35.2H29c-2.58.36-3.85,1.7-3.74,4a2.35,2.35,0,0,0,1.44,2.36,2.52,2.52,0,0,0,2.82-.69A5.48,5.48,0,0,0,31,36.66Z"/><path class="cls-1" d="M82.37,42.9a8.39,8.39,0,0,1-4,2.55,8.79,8.79,0,0,1-4.08,0c-2.63-.64-4.18-2.93-4.08-6,.1-3.43,2.13-5.81,5.73-6.7A38.6,38.6,0,0,1,81.18,32c.35,0,.48-.13.45-.49s0-.86,0-1.29c-.07-2.12-1.7-2.81-3.51-2.42A2.72,2.72,0,0,0,76,29.9c-.22.79-.36.89-1.18.8l-3.07-.35c-.71-.08-.9-.39-.75-1.1a6.58,6.58,0,0,1,4.39-5,11.65,11.65,0,0,1,7.08-.33,5.65,5.65,0,0,1,4.66,6v7.79a5.46,5.46,0,0,0,1.08,3.66c.73.93.7,1.05-.19,1.82s-1.51,1.33-2.28,2c-.59.51-.91.49-1.51,0A9.86,9.86,0,0,1,82.37,42.9Zm-.79-6.18V35.5c0-.41-.11-.4-.41-.39a9.59,9.59,0,0,0-3,.51,3.43,3.43,0,0,0-2.23,4,2.29,2.29,0,0,0,1.54,2,2.53,2.53,0,0,0,2.65-.69A5.44,5.44,0,0,0,81.58,36.72Z"/><path class="cls-1" d="M133.52,27.77c.31-.59.52-1.05.78-1.48,1.23-2.06,3.15-2.85,5.81-2.4a5,5,0,0,1,4,4,14.51,14.51,0,0,1,.29,2.94V44.39c0,.84-.18,1-1,1h-3.34c-.73,0-.94-.23-.94-1V32.73a8.49,8.49,0,0,0-.27-2.35,2.07,2.07,0,0,0-1.67-1.64,2.27,2.27,0,0,0-2.25.78,4.92,4.92,0,0,0-1,2.73,31.44,31.44,0,0,0-.11,4v8c0,.88-.18,1.07-1,1.07h-3.35c-.69,0-.92-.24-.92-.93V25.11c0-.68.24-.92.93-.93h3.21c.66,0,.88.25.88.9C133.53,25.93,133.52,26.77,133.52,27.77Z"/><path class="cls-1" d="M125.65,35a12.54,12.54,0,0,1-2.55,7.87,8.07,8.07,0,0,1-11.36,1.23,8,8,0,0,1-2.22-2.8,14.52,14.52,0,0,1-.06-12.84,7.58,7.58,0,0,1,7.44-4.64,7.91,7.91,0,0,1,7.47,4.94A14.91,14.91,0,0,1,125.65,35Zm-5.75-.07a16.12,16.12,0,0,0-.66-5.39,2.3,2.3,0,0,0-2.14-1.66,2.42,2.42,0,0,0-2.48,1.36,4.77,4.77,0,0,0-.53,1.51,24.47,24.47,0,0,0,0,7.35,5.56,5.56,0,0,0,.93,2.64,2.3,2.3,0,0,0,3.22.56,1.86,1.86,0,0,0,.31-.26,4,4,0,0,0,1-1.84A15.33,15.33,0,0,0,119.9,34.92Z"/><path class="cls-2" d="M68.45,61.22A47.49,47.49,0,0,1,37.62,48.9l-.15-.13c-.27-.28-.5-.59-.23-1s.64-.28,1-.09c.94.61,1.94,1.11,2.86,1.61a64.54,64.54,0,0,0,17.93,6,65.65,65.65,0,0,0,12.27,1.1,64.94,64.94,0,0,0,24.37-5l.23-.11a1.22,1.22,0,0,1,1.55.37c.25.46.07,1-.53,1.43a38.21,38.21,0,0,1-8.2,4.49A53.43,53.43,0,0,1,68.45,61.22Z"/><path class="cls-1" d="M99,28.42H92.77c-.91,0-1.08-.17-1.08-1.09V25a.75.75,0,0,1,.62-.86H105c.56,0,.84.25.84.81v2.31a2.61,2.61,0,0,1-.71,1.48c-2.23,3.2-4.47,6.39-6.75,9.64.83.06,1.61.1,2.38.17a12.71,12.71,0,0,1,4.59,1.33,1.45,1.45,0,0,1,.88,1.43V44c0,.9-.45,1-1.15.7a14.45,14.45,0,0,0-13,0c-.66.32-1.11.07-1.12-.66V40.9a3.34,3.34,0,0,1,.67-1.9q3.53-5,7-10.06Z"/><path class="cls-2" d="M98.75,46.29a12.56,12.56,0,0,1,3.61.47,1.29,1.29,0,0,1,1,1.37,14.05,14.05,0,0,1-4.13,10l-.21.16c-.26.2-.55.41-.86.17s-.12-.55,0-.82A38.34,38.34,0,0,0,100,52.29a6.74,6.74,0,0,0,.24-1.84,1.18,1.18,0,0,0-1-1.33,10.85,10.85,0,0,0-3.64-.2c-1.27.1-2.55.24-3.83.34-.26,0-.62.13-.74-.21s.13-.59.41-.79a11.68,11.68,0,0,1,5.07-1.84A17,17,0,0,1,98.75,46.29Z"/><rect class="cls-3" width="164" height="76.75"/></g></g></svg>