<svg xmlns="http://www.w3.org/2000/svg" viewBox="0 0 164 76.75"><defs><style>.cls-1{fill:#c23c40;}.cls-2{fill:none;}</style></defs><title>amc-logo</title><g id="Layer_2" data-name="Layer 2"><g id="Layer_1-2" data-name="Layer 1"><path class="cls-1" d="M25,52.26v9.51H22.6V52.26H19.12v-2h9.19v2Zm17.49,9.51v-5.2H37.9v5.2H35.54V50.29H37.9v4.32h4.55V50.29h2.36V61.77Zm10.58,0V50.29h8.32v2h-6v2.61h5.5v2h-5.5v3h6.22v2Zm23.87,0-.78-2.3H71.86l-.8,2.3H68.65l4-11.48h2.73l3.93,11.48ZM74,53.05,72.6,57.5h3L74,53.05Zm17.6-.79v9.51H89.26V52.26H85.78v-2H95v2Zm17.64,9.51A2.5,2.5,0,0,1,109,60.7c0-.57,0-1.48,0-2.32s-.6-1.14-1.42-1.14h-2.77v4.53h-2.37V50.29h6.38a2.61,2.61,0,0,1,2.65,1.83,4,4,0,0,1,.11,2.31A2.79,2.79,0,0,1,110,56.24a2.1,2.1,0,0,1,1.27,1.59c.07.48.11,2,.11,2.57s.19.79.44,1v.42ZM108,52.26h-3.2v3H108a1.53,1.53,0,0,0,1.41-1.72C109.38,52.73,109,52.26,108,52.26Zm11.75,9.51V50.29H128v2h-5.95v2.61h5.5v2h-5.5v3h6.22v2Zm22.58-8c0-.93-.74-1.78-2.37-1.81-1.14,0-2,.37-2.07,1.32-.07.79.2.94.72,1.15a12.52,12.52,0,0,0,2.88.71,5.32,5.32,0,0,1,2.71,1.13c1.33,1.39.71,4.11-.72,5a6.87,6.87,0,0,1-3.59.8,5.39,5.39,0,0,1-2.82-.8,4,4,0,0,1-1.61-3h2.3a1.76,1.76,0,0,0,.49,1.2,2.88,2.88,0,0,0,2.16.66,3,3,0,0,0,1.82-.54,1.35,1.35,0,0,0,0-1.93c-.75-.79-3-.79-4.5-1.3a2.78,2.78,0,0,1-2.08-3.18c.19-1.82,1.51-3.18,4.31-3.18.62,0,2.76,0,3.88,1.47a3.25,3.25,0,0,1,.66,2.22ZM140,42.65a2.24,2.24,0,0,1,2.26-2.25h0a2.24,2.24,0,0,1,2.25,2.24h0a2.25,2.25,0,0,1-2.24,2.26h0A2.26,2.26,0,0,1,140,42.65Zm4.24,0a2,2,0,0,0-4,0h0a2,2,0,0,0,4,0Zm-.86,1.26H143l-.73-1.16h-.56v1.16h-.31V41.39h1.1a1.17,1.17,0,0,1,.61.12.63.63,0,0,1,.29.55c0,.49-.35.68-.8.69Zm-1.18-1.4c.36,0,.9.05.9-.46s-.34-.44-.65-.44h-.72v.9ZM85.61,19.24c5.71-4.84,11.7-4.74,16.8-2.23,4.73,2.5,6.43,6.09,6.51,11.33V41.21a3.63,3.63,0,0,1-3.77,3.63c-3.53,0-3.7-3.61-3.7-3.61l0-12.71s-.21-5.91-6.12-5.91-6.41,5.88-6.41,5.88V41s0,3.79-3.76,3.79S81.36,41,81.36,41V28.52A6,6,0,0,0,75,22.61c-6.25,0-6.08,6-6.08,6V41.44s-.44,3.38-3.73,3.38a3.77,3.77,0,0,1-3.76-3.41l0-12.95c0-4.77.93-9.51,7.72-12.19a17.19,17.19,0,0,1,10-.46,18.21,18.21,0,0,1,5.86,3.42l.34.31.37-.3ZM49.38,41.13c0-3.72-3.7-3.73-3.7-3.73H32.38c-.78,0-.88-.61-.69-1.31,1.63-4,5.23-8.55,9.08-10.52,3.19-1.63,6.85-3.33,10.64-3.08.79.06.79.43.79,1.67V41s.19,3.81,3.88,3.81a3.32,3.32,0,0,0,3.5-3.68l0-21.08a5.27,5.27,0,0,0-.94-3.5,4.46,4.46,0,0,0-2.19-1.18,35.73,35.73,0,0,0-13,1.26,32.54,32.54,0,0,0-18.9,16,21.85,21.85,0,0,0-2.53,9c.05,1.48.66,3.2,2.35,3.2l21.45.11a3.47,3.47,0,0,0,3.63-3.71ZM138.06,32a3.44,3.44,0,0,1,3.29,3.92c-2,6.37-8,10.27-15,10.27a15.78,15.78,0,0,1,0-31.56c7.08,0,13.07,3.45,15.07,9.87a3.42,3.42,0,0,1-3.2,4.34,3.35,3.35,0,0,1-3.55-2.51c-1.19-3.44-4.46-4.71-8.31-4.71a8.79,8.79,0,0,0,0,17.57c3.8,0,7-1.69,8.26-5.06A3.49,3.49,0,0,1,138.06,32Z"/><rect class="cls-2" width="164" height="76.75"/></g></g></svg>