<svg xmlns="http://www.w3.org/2000/svg" viewBox="0 0 164 76.75"><defs><style>.cls-1{fill:none;}</style></defs><title>bbc-logo</title><g id="Layer_2" data-name="Layer 2"><g id="Layer_1-2" data-name="Layer 1"><path d="M86.75,43.11c0,3.51-4.38,3.3-4.38,3.3H78V40.06h4.37c4.51,0,4.38,3,4.38,3M78,30.38h3.33c3.46.18,3.33,2.75,3.33,2.75,0,3.21-3.82,3.26-3.82,3.26H78Zm7.94,7.26a5.18,5.18,0,0,0,3-4.66s.45-5.55-6.9-6.22H73.86V50H83.2S91,50,91,43.44c0,0,.18-4.47-5.08-5.8M64.84,22.2H99.16V54.55H64.84Z"/><path d="M47.16,43.11c0,3.51-4.37,3.3-4.37,3.3H38.41V40.06h4.38c4.5,0,4.37,3,4.37,3M38.41,30.38h3.33c3.47.18,3.34,2.75,3.34,2.75,0,3.21-3.83,3.26-3.83,3.26H38.41Zm7.94,7.26a5.16,5.16,0,0,0,3-4.66s.46-5.55-6.89-6.22H34.27V50h9.35s7.81,0,7.81-6.57c0,0,.18-4.47-5.08-5.8M25.25,22.2H59.58V54.55H25.25Z"/><path d="M131.75,28.42v4.3a19.61,19.61,0,0,0-8.83-2.63s-8.64-.17-9,8.29c0,0-.32,7.77,8.93,8.22,0,0,3.88.46,9.13-2.89v4.45a18.53,18.53,0,0,1-15.23,1,11.63,11.63,0,0,1,1.75-22,16.5,16.5,0,0,1,6.85-.53,24.82,24.82,0,0,1,6.43,1.85M104.42,54.55h34.33V22.2H104.42Z"/><rect class="cls-1" width="164" height="76.75"/></g></g></svg>