<svg xmlns="http://www.w3.org/2000/svg" viewBox="0 0 164 76.75"><defs><style>.cls-1{fill:none;}</style></defs><title>benefit-logo</title><g id="Layer_2" data-name="Layer 2"><g id="Layer_1-2" data-name="Layer 1"><g id="Layer_2-2" data-name="Layer 2"><g id="Layer_1-2-2" data-name="Layer 1-2"><path d="M22.19,46.54v3.61H14.5v-.76h3.43V18.61H14.5v-.83h.34c1.34,0,2.67,0,4,0a6.84,6.84,0,0,0,1.86-.32,8.84,8.84,0,0,0,1.46-.77V33.6c.38-.65.67-1.26,1-1.81a7.13,7.13,0,0,1,5.15-3.26,8.13,8.13,0,0,1,5.78,1.53,11.67,11.67,0,0,1,4.9,8,11.23,11.23,0,0,1-2.58,9.3,9.39,9.39,0,0,1-8.27,3.45,7.17,7.17,0,0,1-5.79-3.89c-.05-.08-.09-.18-.14-.26S22.24,46.58,22.19,46.54Zm12.23-6.33c-.08-1.85-.11-3.31-.22-4.78a10.55,10.55,0,0,0-.85-3.74,3.81,3.81,0,0,0-2.69-2.24,6.21,6.21,0,0,0-3,.05,7.74,7.74,0,0,0-5.4,6.86c-.14,2.45-.09,4.91,0,7.36a6.16,6.16,0,0,0,2,4.36,6.85,6.85,0,0,0,5.9,1.83,4,4,0,0,0,3.57-3,8.12,8.12,0,0,0,.35-1.61C34.22,43.49,34.33,41.66,34.42,40.21Z"/><path d="M79.93,49.38V32.88a5.46,5.46,0,0,0-.14-1.2,2.73,2.73,0,0,0-3.18-2.26,6.82,6.82,0,0,0-4.56,2.41,15.47,15.47,0,0,0-2.22,3.33.89.89,0,0,0-.07.4V49.38h3.76v.8H61.61v-.8h3.9V30.51h-3.9v-.83H62l4.77,0a3.4,3.4,0,0,0,3-1.1v5.07l.08,0c.07-.1.13-.22.2-.32A10.65,10.65,0,0,1,73,30a7.54,7.54,0,0,1,5.26-1.38,8.81,8.81,0,0,1,3,.69,4.67,4.67,0,0,1,2.81,3.88,9.66,9.66,0,0,1,.07,1.2v15h3.92v.8H76v-.8Z"/><path d="M123,29.68v.5c0,.25-.07.33-.32.33h-3.83a.43.43,0,0,0-.49.35c-2,5.87-4,11.74-6,17.6A30.66,30.66,0,0,1,108,56.81a10.92,10.92,0,0,1-2.55,2.57,6,6,0,0,1-4.22.94A2.86,2.86,0,0,1,98.85,58a2.25,2.25,0,0,1,1.26-2.33,2.4,2.4,0,0,1,2.64.5,1.8,1.8,0,0,1-.15,2.49c-.21.18-.49.35-.37.68s.45.32.74.31a3,3,0,0,0,2-1,8.08,8.08,0,0,0,2-3.43q1.32-4.17,2.54-8.36c1.39-4.82,2.75-9.67,4.14-14.5.17-.61.4-1.2.61-1.87h-4.6v-.8h4.42a.58.58,0,0,0,.66-.45,25.09,25.09,0,0,1,5.71-9.22,13.75,13.75,0,0,1,4.15-3,5.79,5.79,0,0,1,4-.51,3,3,0,0,1,2.3,2.26,2.49,2.49,0,0,1-.95,2.51,2.53,2.53,0,0,1-2.7,0,2.31,2.31,0,0,1-.46-3.44l.13-.15c.22-.31.15-.53-.22-.61a2.2,2.2,0,0,0-1.61.37,6.48,6.48,0,0,0-1.76,1.74,25.59,25.59,0,0,0-3.52,7.1c-.36,1.11-.71,2.21-1.08,3.38Z"/><path d="M47,37.74c0,1.92,0,3.77,0,5.62a22.29,22.29,0,0,0,.33,2.83,5.24,5.24,0,0,0,.55,1.49,4.25,4.25,0,0,0,4,2.28,7.87,7.87,0,0,0,8.17-6.57c0-.11,0-.21.08-.33H61c-.05.26-.09.49-.15.73-.89,3.42-2.88,5.84-6.41,6.7a9.44,9.44,0,0,1-11.27-5.8,12.46,12.46,0,0,1,3.21-14,7.62,7.62,0,0,1,10.18-.32,11.47,11.47,0,0,1,3.86,5.94,6,6,0,0,1,.14,1,.4.4,0,0,1-.33.46H47Zm0-.8h7.72c1.06,0,1,.05,1-.94a12,12,0,0,0-.4-3.73,3.8,3.8,0,0,0-2.19-2.6,4.18,4.18,0,0,0-5.46,2.25l0,.08a12.34,12.34,0,0,0-.6,4.93Z"/><path d="M92.77,37.74v1.43c0,1.65,0,3.31,0,5a8.1,8.1,0,0,0,.77,3.42A4.06,4.06,0,0,0,97,49.91a7.88,7.88,0,0,0,8.79-6.29c.15-.64.16-.65.94-.51-.13.49-.24,1-.4,1.47a8.36,8.36,0,0,1-6.17,5.92,9.42,9.42,0,0,1-11.43-6.21c-1.75-5.11-.62-9.62,3.19-13.44a7.57,7.57,0,0,1,9.71-.93,11.26,11.26,0,0,1,4.52,6.58,3.86,3.86,0,0,1,.1.76.4.4,0,0,1-.32.47H92.77Zm0-.85.1,0h8.2c.29,0,.4-.16.4-.42V35.36a10,10,0,0,0-.59-3.56A3.6,3.6,0,0,0,99,29.71a4.19,4.19,0,0,0-5.54,2.11l0,.1a11.82,11.82,0,0,0-.63,5Z"/><path d="M142.41,22.73v7h6.87v.8h-6.87v17a3.33,3.33,0,0,0,0,.63A2,2,0,0,0,144.64,50a3.9,3.9,0,0,0,3.58-2.09,6.26,6.26,0,0,0,.4-.77c.09-.24.2-.32.44-.24a3.13,3.13,0,0,0,.44.1,5.39,5.39,0,0,1-2.06,2.81,6,6,0,0,1-4,1,11.15,11.15,0,0,1-2.21-.34,3.78,3.78,0,0,1-3-4V30.51h-4.31v-.85h1.05a7.7,7.7,0,0,0,3.58-.91,5.33,5.33,0,0,0,2.38-2.8c.31-.91.58-1.84.8-2.77C141.81,22.64,141.8,22.62,142.41,22.73Z"/><path d="M126.81,49.38V30.5h-1.64v-.8h.4c1,0,2,0,2.92-.09a4.12,4.12,0,0,0,2.57-1V49.37h4v.8H122.85v-.79Z"/><path d="M59.81,60h-.37V55.37a2.36,2.36,0,0,1,.48.29l3,3.45.25.27V55.47h.36V60.1a2.51,2.51,0,0,1-.48-.32c-1-1.14-2-2.29-3-3.44l-.23-.26Z"/><path d="M93.74,57.74a2.41,2.41,0,1,1-2.46-2.35h.06a2.36,2.36,0,0,1,2.4,2.31Zm-2.4,2a2,2,0,1,0-2-2,2,2,0,0,0,2,2Z"/><path d="M30.61,56.06V60c-.2,0-.36.1-.36-.19v-4.2a1.05,1.05,0,0,1,.05-.19,2.16,2.16,0,0,1,.4.27q1.46,1.66,2.9,3.35l.34.37V55.47l.37,0v4.64a1.7,1.7,0,0,1-.46-.29c-1-1.13-2-2.27-3-3.41Z"/><path d="M47.13,57.87V60l-.35,0v-4.6c.61,0,1.2,0,1.81.14a1,1,0,0,1,.84.91,1.09,1.09,0,0,1-.6,1.16l-.15.08,1.51,2.23a.38.38,0,0,1-.53-.1l0-.06c-.23-.4-.47-.75-.72-1.12C48.38,57.84,48.21,57.76,47.13,57.87Zm0-.32a9.67,9.67,0,0,0,1.2-.08.82.82,0,0,0,.69-.94.81.81,0,0,0-.66-.69,10.2,10.2,0,0,0-1.23-.1Z"/><path d="M56.65,60c-.25.1-.38,0-.47-.21a11.38,11.38,0,0,0-.52-1.12.42.42,0,0,0-.29-.19H53.58a.44.44,0,0,0-.29.19c-.19.37-.37.76-.53,1.15-.08.2-.2.26-.45.18a3.05,3.05,0,0,1,.13-.32c.6-1.32,1.21-2.64,1.82-4a1,1,0,0,1,.21-.26,1.26,1.26,0,0,1,.22.24c.63,1.36,1.25,2.72,1.87,4.08C56.6,59.82,56.6,59.89,56.65,60ZM54.48,56c-.34.74-.64,1.39-.95,2.08h1.9Z"/><path d="M27.47,60c-.26.1-.38,0-.47-.22s-.33-.75-.52-1.11a.42.42,0,0,0-.28-.19H24.4a.4.4,0,0,0-.29.2c-.19.36-.35.74-.51,1.11-.09.21-.21.31-.46.21a2.15,2.15,0,0,1,.1-.27c.61-1.34,1.22-2.68,1.84-4a.92.92,0,0,1,.22-.26,1.31,1.31,0,0,1,.22.25c.61,1.32,1.2,2.64,1.81,4A2.52,2.52,0,0,1,27.47,60ZM25.3,56l-.94,2.07h1.89Z"/><path d="M86.27,59.37c-.07.12-.11.3-.21.35a2.87,2.87,0,0,1-2.57.11,2.29,2.29,0,0,1-1.22-2.74,2.36,2.36,0,0,1,2.55-1.68,7,7,0,0,1,1.1.26c.3.09.29.11.24.4a10.4,10.4,0,0,0-1.57-.32,1.9,1.9,0,0,0-2,1.71,1.94,1.94,0,0,0,1.54,2.23,2.75,2.75,0,0,0,1.72-.24l.33-.15Z"/><path d="M70.53,56.1a10.09,10.09,0,0,0-1.23-.32,1.87,1.87,0,0,0-2,.9,2,2,0,0,0,2.25,3,9.72,9.72,0,0,0,1.08-.35c.09.23,0,.36-.24.45a2.9,2.9,0,0,1-2.57,0A2.28,2.28,0,0,1,66.67,57a2.39,2.39,0,0,1,2.52-1.6,9.56,9.56,0,0,1,1.06.24C70.51,55.71,70.63,55.85,70.53,56.1Z"/><path d="M79.18,56.06a2.44,2.44,0,0,0-.7-.25,1.68,1.68,0,0,0-.88.15.75.75,0,0,0,0,1.31,6.39,6.39,0,0,0,.88.4,1.19,1.19,0,0,1,.84,1.51,1.29,1.29,0,0,1-1.57.89,2.17,2.17,0,0,1-.59-.2c-.32-.14-.32-.15-.27-.55.19.1.36.21.55.3a1.11,1.11,0,0,0,1,.06.86.86,0,0,0,.55-.77.78.78,0,0,0-.43-.77c-.29-.15-.59-.26-.88-.4-.72-.32-1-.81-.81-1.43a1.32,1.32,0,0,1,1.5-.88,4.39,4.39,0,0,1,.52.13C79.16,55.61,79.28,55.75,79.18,56.06Z"/><path d="M20.39,56a2.68,2.68,0,0,0-.72-.25,1.78,1.78,0,0,0-.88.17.76.76,0,0,0-.25,1,.84.84,0,0,0,.29.27,5.9,5.9,0,0,0,.85.37,1.2,1.2,0,0,1,.87,1.58,1.35,1.35,0,0,1-1.71.81l-.46-.19a.34.34,0,0,1-.26-.43.3.3,0,0,1,0-.1,4.91,4.91,0,0,0,.44.25,1.2,1.2,0,0,0,1.09.09.85.85,0,0,0,.52-.72.77.77,0,0,0-.4-.8c-.29-.15-.59-.27-.88-.4-.73-.31-1-.8-.8-1.45a1.33,1.33,0,0,1,1.51-.86,5.62,5.62,0,0,1,.55.15C20.43,55.63,20.47,55.8,20.39,56Z"/><path d="M42,55.77v1.71h1.52c.18,0,.32,0,.23.29H42V60c-.19,0-.37.11-.37-.16V55.47h2.31c.07.21,0,.3-.22.3C43.16,55.76,42.61,55.77,42,55.77Z"/><path d="M73.49,60v-4.5h.32l0,.24v4C73.84,60,73.78,60.07,73.49,60Z"/></g></g><rect class="cls-1" width="164" height="76.75"/></g></g></svg>