<svg xmlns="http://www.w3.org/2000/svg" viewBox="0 0 164 76.75"><defs><style>.cls-1{fill:none;}</style></defs><title>blackboard-logo</title><g id="Layer_2" data-name="Layer 2"><g id="Layer_1-2" data-name="Layer 1"><g id="Layer_2-2" data-name="Layer 2"><g id="Layer_1-2-2" data-name="Layer 1-2"><path d="M9,48.4V28.84h9.24a7.27,7.27,0,0,1,4,1.17,4.77,4.77,0,0,1,.06,7.68l-.83.54,1,.46a4.43,4.43,0,0,1,2.79,4.26,4.73,4.73,0,0,1-2.67,4.51,9.49,9.49,0,0,1-4.53,1H9Zm3.38-3,.24,0c1.93,0,3.86,0,5.79,0A6.29,6.29,0,0,0,20.28,45a2.35,2.35,0,0,0,1.59-2.27,2.26,2.26,0,0,0-1.56-2.28,5.46,5.46,0,0,0-1.69-.38c-2-.05-4,0-6,0l-.23,0Zm0-13.48v5.19l.24,0c1.43,0,2.87,0,4.3,0A8,8,0,0,0,19,36.77,2.38,2.38,0,0,0,20.75,34a2.33,2.33,0,0,0-2-2,16.94,16.94,0,0,0-2.46-.16c-1.27,0-2.54,0-3.86,0Z"/><path d="M152.92,28V48.39h-3.33v-2.3h-.08c-.24.28-.47.55-.72.82a6,6,0,0,1-6.92,1.26,6.94,6.94,0,0,1-4.07-5.63,9.22,9.22,0,0,1,.68-5.31,6.56,6.56,0,0,1,9.3-2.93,18.52,18.52,0,0,1,1.78,1.52V28ZM149.7,41a14.81,14.81,0,0,0-.4-1.87,4.07,4.07,0,0,0-3.65-2.87,3.78,3.78,0,0,0-3.82,1.94,5.25,5.25,0,0,0,0,5.58,4,4,0,0,0,5.52,1.46l.32-.21A5,5,0,0,0,149.7,41Z"/><path d="M82.67,28V36l.07,0,.24-.28c2.61-3.44,7.26-2.8,9.61-.21a7.65,7.65,0,0,1,1.93,4.7,8.71,8.71,0,0,1-1.13,5.31A6.53,6.53,0,0,1,84.73,48,12.92,12.92,0,0,1,83,46.52l-.3-.33V48.4H79.32V28ZM91.2,41a14.75,14.75,0,0,0-.38-1.87,4.09,4.09,0,0,0-5.12-2.72,4.18,4.18,0,0,0-1.66,1,5.2,5.2,0,0,0,0,7.17,4.1,4.1,0,0,0,5.68.13A5.21,5.21,0,0,0,91.2,41Z"/><path d="M67,28V40.19l1.44-1.52q2.23-2.37,4.46-4.76a.69.69,0,0,1,.57-.25h3.76c-.48.5-.9.94-1.33,1.37-1.43,1.46-2.85,2.92-4.29,4.37a.35.35,0,0,0-.09.49.1.1,0,0,0,0,.06q2.82,4,5.62,8.11l.22.34-.35,0H73.88a.57.57,0,0,1-.54-.29c-1.32-1.9-2.64-3.8-4-5.68l-.26-.36L68,43.19l-.07.09A2.29,2.29,0,0,0,67,45.59c.07.89,0,1.78,0,2.68a.27.27,0,0,1,0,.12H63.67V28Z"/><path d="M122.71,39.88a3,3,0,0,0-3-3.41,9.92,9.92,0,0,0-4.31.68l-.52.2-.91-2.69a11.9,11.9,0,0,1,3.19-1,11.5,11.5,0,0,1,4.85.09,5.08,5.08,0,0,1,4,4.45,9.33,9.33,0,0,1,.11,1.4v8.5a1.89,1.89,0,0,1,0,.32h-3.32V46.63l-.62.58a6.51,6.51,0,0,1-7.5.6A4.51,4.51,0,0,1,115.3,40a9,9,0,0,1,4.62-.56C120.86,39.51,121.77,39.72,122.71,39.88Zm-3.21,1.68a4.51,4.51,0,0,0-2.56.59,2.09,2.09,0,0,0,.18,3.63,3.8,3.8,0,0,0,1.27.38,4.37,4.37,0,0,0,3.41-1,3.15,3.15,0,0,0,.93-2.91c0-.08-.16-.17-.26-.21A9.69,9.69,0,0,0,119.5,41.56Z"/><path d="M46.42,48.4H43.09V46.73L43,46.67,42.7,47a6.47,6.47,0,0,1-8,.67A4.27,4.27,0,0,1,33,43.54a4.19,4.19,0,0,1,2.7-3.6,8.94,8.94,0,0,1,4.52-.54c.85.08,1.69.31,2.54.47l.25,0a2.87,2.87,0,0,0-2.47-3.38,9.13,9.13,0,0,0-4.9.62l-.46.18c-.3-.89-.61-1.77-.93-2.72.57-.21,1.11-.44,1.67-.62a12.09,12.09,0,0,1,6-.38,5.19,5.19,0,0,1,4.38,5c.08,1.19.07,2.38.08,3.56V48.4Zm-6.55-6.95v.11a4.76,4.76,0,0,0-2.35.46A2.08,2.08,0,0,0,36.36,44a1.94,1.94,0,0,0,1.11,1.83,3.9,3.9,0,0,0,2.15.38c2.33-.17,3.55-1.46,3.54-3.7A.39.39,0,0,0,42.8,42Z"/><path d="M104,48.76A7.71,7.71,0,0,1,102,33.5l.42-.07A7.72,7.72,0,0,1,108.79,47a7.84,7.84,0,0,1-3.3,1.58C104.9,48.67,104.29,48.71,104,48.76Zm4.21-7.3a5.52,5.52,0,0,0-.68-3,4.45,4.45,0,0,0-7.34-.49,5,5,0,0,0-.82,4.27,4.47,4.47,0,0,0,5.3,3.46,4.58,4.58,0,0,0,1.19-.43A4.35,4.35,0,0,0,108.2,41.46Z"/><path d="M61.79,35.9l-2.07,2.23c-.27-.25-.51-.48-.76-.7a4.39,4.39,0,0,0-5.44-.38,4.54,4.54,0,0,0-1.86,3.37,4.76,4.76,0,0,0,1.9,4.6,4.49,4.49,0,0,0,5.53-.34L59.9,44,61.82,46a7.59,7.59,0,0,1-8.23,2.36,7.5,7.5,0,0,1-5.35-7.21,7.63,7.63,0,0,1,5.28-7.52A7.79,7.79,0,0,1,61.79,35.9Z"/><path d="M31,48.4H27.64V28H31Z"/><path d="M132.05,48.4H128.7V33.68h3.36v3.09c1.09-2.14,2.65-3.45,5.2-3.42v3.56a11,11,0,0,0-1.14.11,4.58,4.58,0,0,0-3.89,4,12.23,12.23,0,0,0-.18,2.1c0,1.62,0,3.24,0,4.86Z"/><path d="M155.83,28A1.18,1.18,0,0,1,157,29.19a1.21,1.21,0,0,1-1.19,1.18,1.19,1.19,0,0,1-1.18-1.2v0A1.17,1.17,0,0,1,155.82,28Zm-1,1.17a1,1,0,0,0,1,1,1,1,0,0,0,1-1,1,1,0,0,0-1-.95A.94.94,0,0,0,154.86,29.17Z"/><path d="M156.24,29.83c-.07-.07-.19-.14-.2-.22,0-.26-.15-.34-.38-.25s.1.5-.32.41V28.56h.53c.41,0,.49.14.42.56a2.62,2.62,0,0,0,0,.62Z"/></g></g><rect class="cls-1" width="164" height="76.75"/></g></g></svg>