<svg xmlns="http://www.w3.org/2000/svg" viewBox="0 0 164 76.75"><defs><style>.cls-1{fill:#333;}.cls-2{fill:none;}</style></defs><title>bloomberg-logo</title><g id="Layer_2" data-name="Layer 2"><g id="Layer_1-2" data-name="Layer 1"><path class="cls-1" d="M8.76,24H17a8.75,8.75,0,0,1,4,.81,4.81,4.81,0,0,1,2.85,4.73,4.58,4.58,0,0,1-3,4.39l-.45.2-.12.1.53.16a4.93,4.93,0,0,1,3.87,4.27,5.35,5.35,0,0,1-2.27,5.57,10.2,10.2,0,0,1-5.81,1.47H8.78Zm3.88,18.38c1.36,0,2.65.06,3.93,0A11.73,11.73,0,0,0,19.15,42a2.42,2.42,0,0,0,1.65-1.83c.48-2-.44-3.49-2.46-3.71-1.85-.2-3.72-.12-5.56-.16l-.13.1Zm0-9.46c1.65-.08,3.28-.13,4.91-.24a3,3,0,0,0,1.07-.38A2.34,2.34,0,0,0,20,30a2.25,2.25,0,0,0-1.54-2.19c-1.88-.69-3.83-.34-5.81-.44v5.12c0,.17,0,.34.07.51Z"/><path class="cls-1" d="M151.8,33v-1.9h3.44V44.79a12.7,12.7,0,0,1-.58,3.51,6.16,6.16,0,0,1-4.42,4.35,11.67,11.67,0,0,1-9.55-1.25,11.34,11.34,0,0,1-.95-.72l2.22-3a7.11,7.11,0,0,0,4.23,2,10.29,10.29,0,0,0,2.35-.1c1.8-.34,2.84-1.61,3.06-3.65,0-.65,0-1.3,0-1.94h-.18a6.57,6.57,0,0,1-7.18,1.52,6.67,6.67,0,0,1-4.63-5.6c-.5-3,.13-5.77,2.63-7.79a7.12,7.12,0,0,1,8.36-.2C151,32.24,151.38,32.61,151.8,33Zm-4.27,1a4.13,4.13,0,0,0-4.38,3.86c0,.12,0,.25,0,.38a4.25,4.25,0,0,0,4.12,4.37h.19a4.16,4.16,0,0,0,4.36-3.94,2,2,0,0,0,0-.35A4.06,4.06,0,0,0,148,34h-.44Z"/><path class="cls-1" d="M73,45.72H69.33V31.12H72.8v2.12c2-3.51,7.66-3.31,9.15,0a.49.49,0,0,0,.15-.11c1.49-2.28,3.67-2.75,6.15-2.29a4.23,4.23,0,0,1,3.34,3,10,10,0,0,1,.46,2.66c.06,2.93,0,5.87,0,8.8v.41H88.43V36.57a2.48,2.48,0,0,0-2-2.5,2.78,2.78,0,0,0-3.34,1.69,7.2,7.2,0,0,0-.43,2.44c0,2.24,0,4.48,0,6.72v.81H78.88V36.58c-.14-1.47-.73-2.28-1.83-2.5a3,3,0,0,0-3.44,1.43,5.71,5.71,0,0,0-.53,2.26c-.06,2.38,0,4.77,0,7.15Z"/><path class="cls-1" d="M95.09,23.61H98.7v9.16a1.15,1.15,0,0,0,.28-.06,6.42,6.42,0,0,1,7.16-1.63,6.73,6.73,0,0,1,4.64,5.76,7.91,7.91,0,0,1-2.45,7.68,7.23,7.23,0,0,1-7.66.92,16.42,16.42,0,0,1-2.11-1.62v1.9H95.09Zm7.82,19.19a4.4,4.4,0,1,0-4.28-4.51.45.45,0,0,1,0,.11,4.25,4.25,0,0,0,4.1,4.39Z"/><path class="cls-1" d="M41.08,46.12a7.72,7.72,0,0,1-7.7-7.75,7.62,7.62,0,0,1,1.18-4.07c1.84-3,4.7-3.93,8-3.52A7.12,7.12,0,0,1,49,35.84,7.47,7.47,0,0,1,47.11,44,8.13,8.13,0,0,1,41.08,46.12Zm4.63-7.67a4.3,4.3,0,1,0-8.6-.13h0a4.3,4.3,0,0,0,8.6.13Z"/><path class="cls-1" d="M58.38,46.11A7.29,7.29,0,0,1,51.88,42a7.56,7.56,0,0,1,.73-8.24c2.54-3.42,8-4,11.52-1.39A7.87,7.87,0,0,1,65.66,43C64.18,45,61.79,46.12,58.38,46.11Zm.68-3.31a4.4,4.4,0,1,0-4.31-4.48s0,.06,0,.1a4.27,4.27,0,0,0,4.16,4.37Z"/><path class="cls-1" d="M127.4,39.69H116.24a3.66,3.66,0,0,0,2.34,3.16c2.2.81,4,.1,5.57-1.66l2.62,2a7.51,7.51,0,0,1-4,2.66c-4,1.09-8.19-.75-9.62-4.32a7.45,7.45,0,0,1,1.47-8.43,7.68,7.68,0,0,1,8.5-1.92c2.78,1,3.87,3.3,4.21,6A19.09,19.09,0,0,1,127.4,39.69Zm-3.71-2.81a3.21,3.21,0,0,0-3-3.42h-.37c-2.31-.1-4,1.35-4,3.42Z"/><path class="cls-1" d="M27.24,23.6h3.64V45.76H27.61c-.12,0-.28-.24-.35-.4a1.08,1.08,0,0,1,0-.4Z"/><path class="cls-1" d="M133.55,45.73h-3.64V31.1h3.63v2.18c.3-.4.47-.65.66-.87a4.59,4.59,0,0,1,4.54-1.63.64.64,0,0,1,.5.43v3.23l-.82-.16c-2.9-.55-4.9,1.1-4.9,4v7.43Z"/><rect class="cls-2" width="164" height="76.75"/></g></g></svg>