<svg xmlns="http://www.w3.org/2000/svg" xmlns:xlink="http://www.w3.org/1999/xlink" viewBox="0 0 164 76.75"><defs><style>.cls-1{fill:none;}.cls-2{clip-path:url(#clip-path);}.cls-3{fill:#273b7d;}.cls-4{fill:#499fdd;}.cls-5{clip-path:url(#clip-path-4);}</style><clipPath id="clip-path"><rect class="cls-1" x="8.12" y="25.75" width="145.88" height="24.75"/></clipPath><clipPath id="clip-path-4"><rect class="cls-1" x="8.13" y="26.24" width="145.84" height="24.23"/></clipPath></defs><title>booking-logo</title><g id="Layer_2" data-name="Layer 2"><g id="Layer_1-2" data-name="Layer 1"><g class="cls-2"><g id="g3358"><g id="g3360"><g class="cls-2"><g id="g3366"><path id="path3372" class="cls-3" d="M65.33,28.46a2.22,2.22,0,1,1,2.21,2.22,2.21,2.21,0,0,1-2.21-2.22"/><path id="path3374" class="cls-4" d="M100.3,43.24a2.22,2.22,0,1,1,2.22,2.22,2.22,2.22,0,0,1-2.22-2.22"/><path id="path3376" class="cls-3" d="M29,42.28c-1.91,0-3.23-1.51-3.23-3.68S27,34.92,29,34.92s3.26,1.51,3.26,3.68S30.9,42.28,29,42.28Zm0-10.6a6.72,6.72,0,0,0-7,6.92,6.72,6.72,0,0,0,7,6.92,6.73,6.73,0,0,0,7-6.92,6.73,6.73,0,0,0-7-6.92"/><path id="path3378" class="cls-3" d="M61,39a3.43,3.43,0,0,0-.53-.75l-.12-.13.13-.12a6.1,6.1,0,0,0,.55-.7L64.64,32H60.31L57.63,36.1a1,1,0,0,1-.91.33h-.61V28.6c0-1.57-1-1.78-2-1.78H52.27V45.31h3.84V39.76h.36c.43,0,.73.06.87.29l2.11,4a2.12,2.12,0,0,0,2.29,1.27h2.94l-2.19-3.62L61,39"/><path id="path3380" class="cls-3" d="M79.65,31.65a5.23,5.23,0,0,0-3.89,1.6l-.23.24-.09-.32A1.76,1.76,0,0,0,73.51,32H71.79V45.31h3.81V39.15a5,5,0,0,1,.24-1.6,3.12,3.12,0,0,1,3.08-2.34c1.19,0,1.65.63,1.65,2.25v5.82a1.77,1.77,0,0,0,2,2h1.81v-8.5c0-3.37-1.64-5.16-4.76-5.16"/><path id="path3382" class="cls-3" d="M67.59,32h-1.8V42.28h0v3h3.79V34a1.77,1.77,0,0,0-2-2"/><path id="path3384" class="cls-3" d="M43.91,42.28c-1.91,0-3.24-1.51-3.24-3.68s1.33-3.68,3.24-3.68,3.26,1.51,3.26,3.68S45.86,42.28,43.91,42.28Zm0-10.6a6.72,6.72,0,0,0-7,6.92,6.72,6.72,0,0,0,7,6.92,6.92,6.92,0,1,0,0-13.84"/></g></g></g></g><g class="cls-2"><g id="g3386"><g class="cls-5"><g id="g3388"><g id="g3394"><g class="cls-2"><g id="g3400"><path id="path3406" class="cls-4" d="M125.53,42.28c-1.91,0-3.24-1.51-3.24-3.68s1.33-3.68,3.24-3.68,3.26,1.51,3.26,3.68S127.48,42.28,125.53,42.28Zm0-10.6a6.72,6.72,0,0,0-7,6.92,7,7,0,0,0,14,0,6.74,6.74,0,0,0-7-6.92"/><path id="path3408" class="cls-3" d="M92.44,41.69c-2.08,0-2.82-1.81-2.82-3.51,0-.75.19-3.2,2.62-3.2,1.21,0,2.82.35,2.82,3.32C95.06,41.11,93.64,41.69,92.44,41.69ZM97,31.92a1.67,1.67,0,0,0-1.56.81l-.1.21-.18-.16a5.2,5.2,0,0,0-3.51-1.16c-3.56,0-6,2.68-6,6.66s2.48,6.75,6,6.75a4.66,4.66,0,0,0,2.93-.86L95,44v.37c0,1.79-1.15,2.77-3.25,2.77a7.85,7.85,0,0,1-2.56-.47,1.13,1.13,0,0,0-1.61.77l-.3.74-.42,1.1.26.14a10.4,10.4,0,0,0,4.66,1.13c3.24,0,7-1.66,7-6.33V31.92H97"/></g></g></g></g></g></g><g id="layer1"><g class="cls-2"><g id="g3410"><g id="g3412"><g class="cls-2"><g id="g3418"><path id="path3424" class="cls-3" d="M14.77,42.13h-3.1V38.42c0-.79.31-1.2,1-1.3h2.11a2.51,2.51,0,0,1,0,5Zm-3.1-10v-1c0-.86.36-1.26,1.15-1.32h1.59A2,2,0,0,1,16.59,32a2.07,2.07,0,0,1-2.13,2.25H11.67V32.13Zm7.06,3.7-.56-.31.49-.42a4.47,4.47,0,0,0,1.52-3.49c0-2.91-2.25-4.78-5.74-4.78H10a1.94,1.94,0,0,0-1.87,1.92V45.25h6.38c3.88,0,6.39-2.12,6.39-5.39a4.5,4.5,0,0,0-2.17-4"/><path id="path3426" class="cls-4" d="M149.54,31.7a5.25,5.25,0,0,0-4.09,2l-.28.35-.22-.4a3.78,3.78,0,0,0-3.6-1.93,4.82,4.82,0,0,0-3.51,1.57l-.36.39-.14-.51A1.7,1.7,0,0,0,135.48,32h-1.6V45.31h3.63V39.43a6.46,6.46,0,0,1,.2-1.55c.34-1.42,1.3-3,2.9-2.8,1,.1,1.47.86,1.47,2.34v7.89h3.66V39.43a5.24,5.24,0,0,1,.21-1.61,3.16,3.16,0,0,1,2.84-2.74c1.12,0,1.53.63,1.53,2.34v5.94c0,1.35.6,2,1.94,2H154v-8.5c0-3.39-1.5-5.11-4.44-5.11"/><path id="path3428" class="cls-4" d="M116.45,40.69a5.65,5.65,0,0,1-3.64,1.66A3.56,3.56,0,0,1,109,38.63a3.52,3.52,0,0,1,3.57-3.77c.69,0,1.47.24,1.59.65v.07a1.34,1.34,0,0,0,1.3,1h2V34.83c0-2.3-2.92-3.13-4.89-3.13-4.2,0-7.25,2.92-7.25,7a6.84,6.84,0,0,0,7.18,7,7.55,7.55,0,0,0,5.59-2.4l.1-.13-1.57-2.62-.21.23"/></g></g></g></g></g></g></g></g><rect class="cls-1" width="164" height="76.75"/></g></g></svg>