<svg xmlns="http://www.w3.org/2000/svg" viewBox="0 0 164 76.75"><defs><style>.cls-1{fill:#b33a3f;}.cls-2{fill:#c26b5f;}.cls-3{fill:#c1695d;}.cls-4{fill:#c2695d;}.cls-5{fill:#fefefe;}.cls-6{fill:#b33b3f;}.cls-7{fill:#b33b40;}.cls-8{fill:#b43d41;}.cls-9{fill:#f3e4e0;}.cls-10{fill:#234787;}.cls-11{fill:#fbf9f8;}.cls-12{fill:#fcfaf9;}.cls-13{fill:#fdfdfd;}.cls-14{fill:#fefdfd;}.cls-15{fill:#faf7f5;}.cls-16{fill:#fbf7f6;}.cls-17{fill:#f9f3f0;}.cls-18{fill:#faf5f4;}.cls-19{fill:#faf5f3;}.cls-20{fill:#fdfbfb;}.cls-21{fill:#234788;}.cls-22{fill:#f8f1ef;}.cls-23{fill:none;}</style></defs><title>canadagoose-logo</title><g id="Layer_2" data-name="Layer 2"><g id="Layer_1-2" data-name="Layer 1"><g id="Layer_2-2" data-name="Layer 2"><g id="Layer_1-2-2" data-name="Layer 1-2"><path class="cls-1" d="M80.67,2.25h2.66a.83.83,0,0,0,.58,0h.68c.82.1,1.65.1,2.52.16a23.7,23.7,0,0,1,4.24.82,34.84,34.84,0,0,1,10,4.43,39,39,0,0,1,5,3.83,36.43,36.43,0,0,1,7.3,9.35,35,35,0,0,1,3.88,11.29c.11.94.18,1.89.2,2.84,0,.15,0,.32,0,.46V36a1.13,1.13,0,0,0,0,.68v2.67a1.13,1.13,0,0,0,0,.68v.68c-.1.8-.09,1.61-.15,2.41a23.72,23.72,0,0,1-.83,4.24,35.54,35.54,0,0,1-6.51,12.91,34.47,34.47,0,0,1-2.89,3.27,36.88,36.88,0,0,1-8.13,6.08,35.86,35.86,0,0,1-10.89,3.86,28.38,28.38,0,0,1-3.31.26.84.84,0,0,0-.47.05h-.68a.8.8,0,0,0-.57,0H80.67a1,1,0,0,0-.69,0H79.3c-.79-.1-1.6-.09-2.4-.16a27.67,27.67,0,0,1-4.93-1,32.91,32.91,0,0,1-5.74-2.26A36.72,36.72,0,0,1,50.67,55.7a35.15,35.15,0,0,1-4.08-11.23,34.72,34.72,0,0,1-.3-3.54.61.61,0,0,0,0-.27V40a1.13,1.13,0,0,0,0-.68V36.67a1.13,1.13,0,0,0,0-.68v-.68c.11-.8.09-1.61.15-2.41a23,23,0,0,1,.81-4.19,36.38,36.38,0,0,1,27.93-26,26.71,26.71,0,0,1,3.8-.36c.15,0,.32.05.46,0H80A1.05,1.05,0,0,0,80.67,2.25Z"/><path class="cls-2" d="M117.75,40a.62.62,0,0,1,0-.69Z"/><path class="cls-2" d="M46.25,39.34a.6.6,0,0,1,0,.68Z"/><path class="cls-2" d="M80.67,2.25a.59.59,0,0,1-.69,0Z"/><path class="cls-3" d="M46.25,36a.6.6,0,0,1,0,.68Z"/><path class="cls-4" d="M117.75,36.67a.6.6,0,0,1,0-.68Z"/><path class="cls-2" d="M80,73.76a.57.57,0,0,1,.68,0Z"/><path class="cls-3" d="M83.91,2.25a.48.48,0,0,1-.58,0Z"/><path class="cls-3" d="M83.33,73.76a.48.48,0,0,1,.58,0Z"/><path class="cls-5" d="M116.26,38.06A34.44,34.44,0,1,1,81.73,3.72h.9A34.33,34.33,0,0,1,116.26,38.06Z"/><path class="cls-1" d="M106.86,38A24.87,24.87,0,1,1,82,13.15,24.86,24.86,0,0,1,106.86,38Z"/><path class="cls-1" d="M110.73,52.56c-.36.16-.69.32-1,.44s-.46.25-.2.56a2.39,2.39,0,0,1,.16.32l-1.26-.44c-.3-.11-.46-.1-.44.3s-.06.8-.09,1.3c-.3-.34-.14-.64-.14-.91,0-.87,0-.87-.87-.68l-.83.16v-.09c.4-.57.4-.57-.19-1-.21-.13-.42-.28-.63-.43.33-.32.33-.32,0-1.14.29-.24.8.59,1-.27.23.26.41.48.62.69s.16.29.32.23.11-.28.11-.42V49.78c.85.72.68-.37,1.09-.57,0,.13.1.27.14.4.1.39.24.69.75.3a7.19,7.19,0,0,1-.33,1.46c0,.12-.1.27,0,.36s.26,0,.37-.12.46-.37.73-.57c.11.73.6.26.91.36C110.94,51.8,110.14,52,110.73,52.56Z"/><path class="cls-1" d="M53.58,26.58c.36-.76.36-.76-.34-1.06l-.68-.31c.61-.49-.18-.75-.18-1.17.29-.16.83.4.89-.34a4.68,4.68,0,0,1,.73.53c.11.07.2.25.36.14s0-.24,0-.35c-.1-.48-.2-1-.32-1.51,1,.6.69-.46,1-.68a1.51,1.51,0,0,0,.15.28c.21.31.27,1,.85.28v1.54c0,.13,0,.28.12.32s.22-.08.31-.17a3.69,3.69,0,0,1,.63-.68c.19.76.62.05.94.21.07.34-.72.72,0,1.11-.33.23-.61.45-.91.62s-.39.36-.11.63a.22.22,0,0,1,.11.27L55.79,26c-.23,0-.32,0-.32.3a2.77,2.77,0,0,1,0,1.37A8.09,8.09,0,0,1,55.26,26,7,7,0,0,0,53.58,26.58Z"/><path class="cls-1" d="M110.79,42.09l.13.33c.21.6.21.6.81.42-.11.51-.21,1-.32,1.49,0,.1-.09.23,0,.31s.23,0,.33-.09a5,5,0,0,1,.45-.36c.16-.1.35-.42.39.09,0,.17.17.09.27.08a1.37,1.37,0,0,1,.57,0c-.06.23-.24.37-.35.56s-.19.19-.06.32.07.32-.13.41l-.38.18c-.68.29-.68.29-.38,1l-1.18-.46c-.29-.12-.45-.11-.44.3a4.67,4.67,0,0,1-.16,1.23,1.88,1.88,0,0,1-.08-1.17c.07-.47-.06-.55-.48-.45s-.81.14-1.22.21v-.08c.39-.57.39-.57-.2-1l-.39-.27c-.16-.1-.32-.2-.06-.36s.11-.23,0-.36l-.25-.56c.29-.24.77.54,1-.23a3.65,3.65,0,0,1,.68.68c.09.09.18.24.3.19s.12-.24.11-.38c0-.47,0-.94-.06-1.51C110.58,43.38,110.38,42.25,110.79,42.09Z"/><path class="cls-1" d="M49.47,37.74c.28-.18.84.39.89-.39.29.22.53.43.78.62.08.06.18.18.3.1s.06-.2,0-.3c-.1-.48-.2-1-.32-1.52,1,.52.68-.48,1-.74a.62.62,0,0,1,.24.39c.17.41.37.62.81.12v1.53c0,.13-.08.31.1.37s.24-.12.33-.22.38-.43.6-.68c.18.78.62.13,1,.25-.1.2-.2.39-.28.58s-.17.2,0,.29c.49.33,0,.42-.14.57a.57.57,0,0,1-.16.11c-.64.44-.64.44-.24,1.08-.47-.08-.92-.14-1.37-.23-.28-.06-.39,0-.37.32a4.06,4.06,0,0,1-.05,1.3A3.18,3.18,0,0,1,52.38,40c0-.34-.15-.37-.41-.28l-1.16.41s-.06,0-.05-.07c.22-.62.22-.62-.4-.89L49.84,39c-.08,0-.22-.1-.12-.19.35-.3,0-.48-.09-.68S49.47,37.88,49.47,37.74Z"/><path class="cls-1" d="M108.65,32.94c.48-.68.48-.68-.16-1.09l-.62-.43c.12-.18.49-.24.26-.55a3.66,3.66,0,0,1-.28-.56c.33-.2.78.55,1-.29a7.29,7.29,0,0,0,.63.68c.09.1.17.28.33.2s.1-.25.1-.39V29.15c.22-.14.36.51.62.09.14-.23.26-.47.43-.77.06.17.12.28.15.4.11.39.19.81.83.34-.13.59-.23,1.05-.32,1.51,0,.13-.11.3,0,.38s.23-.08.32-.14l.72-.56c.08.74.62.23.92.37,0,.39-.8.59-.19,1.12l-1,.45c-.29.12-.46.28-.22.6a.25.25,0,0,1,.07.28L111,32.75c-.23-.08-.32,0-.35.24a5.06,5.06,0,0,1-.16,1.4,3.45,3.45,0,0,1-.06-1.36c0-.37-.11-.43-.43-.36S109.13,32.85,108.65,32.94Z"/><path class="cls-1" d="M51.84,29.42c.58.19.58.19.94-.73.17,0,.21.22.26.36.17.41.38.68.82.16V30.7c0,.14-.08.33.08.39s.25-.13.36-.24.36-.4.57-.64c.2.72.63.15,1,.19.07.4-.68.75,0,1.17-.3.21-.57.42-.86.59s-.46.36-.13.68a2.33,2.33,0,0,1,.17.26c-.46-.08-.85-.14-1.23-.22s-.58,0-.53.47a2.4,2.4,0,0,1-.05,1.13,2.8,2.8,0,0,1-.13-1.15c0-.43-.15-.56-.56-.38s-.73.27-1.14.41c.29-.68.29-.68-.35-1l-.44-.2c-.21-.08-.35-.17-.09-.37s.08-.2,0-.31l-.42-.57c.29-.2.83.4.93-.39l.62.47c.19.14.28.34.47.21s0-.32,0-.49Z"/><path class="cls-1" d="M110.15,26.3l-1.31-.48c-.27-.1-.38,0-.4.25,0,.42,0,.85-.07,1.36-.27-.21-.17-.43-.16-.63.06-1.16.06-1.16-1-.92l-.72.15c.48-.68.48-.68-.17-1.1l-.42-.31c-.07-.05-.21-.14-.09-.21.44-.25.1-.5,0-.75,0-.09-.08-.17-.13-.28a.69.69,0,0,1,.59.1c.36.17.24-.23.42-.31l.52.59c.19.19.19.31.36.26s.11-.28.11-.42V22.18c.88.75.68-.4,1.09-.55a2.53,2.53,0,0,1,.18.37c.09.43.24.72.77.35a10.28,10.28,0,0,1-.27,1.45c0,.13-.11.3,0,.39s.25-.07.36-.15a8.38,8.38,0,0,0,.68-.56c.06.77.59.24,1,.4-.14.18-.28.36-.4.54s-.2.19,0,.32.07.32-.12.41l-.39.18C109.81,25.59,109.81,25.59,110.15,26.3Z"/><path class="cls-1" d="M113.2,40l-1.36-.48c-.27-.11-.41-.09-.4.26a9,9,0,0,1,0,1c0,.09,0,.22-.13.21s-.1-.13-.1-.22a5.25,5.25,0,0,1,.07-1c.07-.36-.11-.39-.38-.34l-1.37.24v-.05c.41-.62.41-.62-.23-1l-.61-.43c.68-.34.09-.68,0-1,.27-.27.83.5.93-.33.25.29.45.53.68.76.07.08.14.2.26.17s.11-.21.11-.33V35.89c.22,0,.32.21.54.25l.49-.89a.64.64,0,0,1,.2.43c.09.46.26.68.75.3a5.11,5.11,0,0,1-.21,1.23c0,.21-.2.5,0,.62s.37-.18.55-.3a4.89,4.89,0,0,0,.49-.39c0,.68.57.29.88.41,0,.38-.78.62-.14,1.09-.36.16-.68.32-1,.44s-.47.28-.22.6Z"/><path class="cls-1" d="M58,53.44c-.45-.09-.9-.16-1.36-.26-.27-.06-.37,0-.35.31a9.08,9.08,0,0,1,0,1.28,2.09,2.09,0,0,1-.14-1.13c0-.46-.18-.46-.51-.33l-1.15.41v-.09c.31-.61.31-.61-.33-.9l-.77-.35c.63-.49-.13-.68-.15-1.09.23-.24.85.4.85-.44l.84.69c.07.05.16.13.25.07s.08-.17.06-.26l-.31-1.61c1,.58.64-.45,1-.68a.8.8,0,0,1,.23.37c.16.43.36.68.79.18v1.5c0,.13-.06.31.12.37s.22-.11.31-.2L58,50.6c.18.79.64.1,1,.27l-.26.58c0,.1-.15.21,0,.3.39.25.07.35-.1.49l-.16.11a2.85,2.85,0,0,0-.68.47C57.57,53,58.08,53.13,58,53.44Z"/><path class="cls-1" d="M56.4,43.92a5.29,5.29,0,0,1-.32.68c-.2.31.16.35.25.56-.29.19-.57.4-.86.58s-.43.35-.12.63a.25.25,0,0,1,.12.26l-1.36-.24c-.26,0-.38,0-.35.32s0,.73,0,1.09c0,.08,0,.18-.08.19s-.13-.09-.13-.19c0-.36,0-.73,0-1.09s-.11-.32-.36-.25a11.64,11.64,0,0,0-1.28.49c0-.05,0-.09,0-.11.31-.62.31-.62-.32-.9l-.76-.35c.56-.49-.11-.74-.2-1.12.29-.18.83.38.9-.38l.69.53c.1.08.21.26.36.17s.06-.29,0-.43c-.08-.45-.18-.89-.27-1.36.57.15.57.15.93-.78a1.18,1.18,0,0,1,.35.54c.14.29.27.42.54.15,0-.06.12-.11.18-.09v1.57c0,.09,0,.21.08.25s.21,0,.28-.12.26-.32.41-.46.27-.49.39,0c0,.13.16.07.25,0Z"/><path class="cls-1" d="M101.25,60.91c.27.32.53.68.83,1s0,.41-.19.57-.28.31-.51,0c-.65-.76-1.33-1.51-2-2.28-.15-.17-.19-.27,0-.45.74-.68.72-.68,1.57-.14l1.23.82h.09c-.32-.68-.61-1.3-.93-1.93a.41.41,0,0,1,.09-.57l0,0c.72-.6.71-.61,1.32.09s1.06,1.26,1.63,1.86c.3.33,0,.39-.17.54s-.29.35-.52.06-.68-.81-1-1.21l-.12.06c.23.47.44.94.68,1.36s.2.46-.1.69-.43.46-.78.12a9,9,0,0,0-1-.68C101.24,60.74,101.21,60.82,101.25,60.91Z"/><path class="cls-1" d="M70.82,11.14c-.26-.6-.47-1.13-.73-1.62s0-.45.28-.57.45-.2.61.19c.36.91.78,1.8,1.19,2.73.11.23.08.33-.16.46a1,1,0,0,1-1.23-.12,15.89,15.89,0,0,0-1.38-1.07c.28.62.48,1.13.74,1.61s-.09.42-.3.52-.43.28-.59-.13c-.38-.93-.8-1.83-1.22-2.72-.13-.28,0-.36.21-.49a.86.86,0,0,1,1.13.1A18.1,18.1,0,0,0,70.82,11.14Z"/><path class="cls-1" d="M83.92,65.65h.68a1,1,0,0,1,.92,1,1,1,0,0,1-.24.59c-.11.16-.2.23,0,.4s.21.68.3,1,.19.45.12.5-.44.11-.68.14-.34-.08-.36-.31a3,3,0,0,0-.06-.32c-.11-.69-.29-.77-.92-.64-.19,0-.23.11-.2.29a5.19,5.19,0,0,0,0,.68c.08.36-.07.45-.41.49s-.56,0-.58-.5c0-.92-.15-1.84-.25-2.73,0-.32,0-.45.38-.45S83.55,65.68,83.92,65.65Z"/><path class="cls-1" d="M95.55,62.45a1,1,0,0,1,1,1,.82.82,0,0,1,0,.26c-.07.23-.05.32.19.42a1.51,1.51,0,0,1,.56.75c.14.28.42.3.34.45s-.38.25-.58.38a.27.27,0,0,1-.37,0,.47.47,0,0,1-.06-.09c-.06-.13-.15-.25-.21-.37a.68.68,0,0,0-.9-.35.63.63,0,0,0-.26.2.2.2,0,0,0,0,.25,3.06,3.06,0,0,0,.26.51c.32.42.16.63-.29.8-.26.11-.36.11-.5-.16-.43-.89-.89-1.78-1.36-2.67-.07-.12-.23-.28,0-.39a11.91,11.91,0,0,1,2-1Z"/><path class="cls-1" d="M65,62.18a.88.88,0,0,1-.2.86l-.25.36c-.32.49-.31.48-.77.11-.25-.19-.27-.36-.08-.58s.11-.16.17-.23a.68.68,0,0,0,.09-1,.67.67,0,0,0-.42-.24c-.13-.06-.17,0-.23.09L63,62c-.48.59-.47.58-1,.06-.14-.14-.12-.22,0-.35.68-.83,1.37-1.65,2-2.47.13-.17.23-.18.38,0,.43.36.88.68,1.28,1.05s.69.68.52,1.19A1,1,0,0,1,65,62.18Z"/><path class="cls-1" d="M92.78,66.2l-.39.14c-.25.12-.41.14-.53-.2s0-.42.25-.49c.41-.12.86-.51,1.18-.34s.33.68.48,1.09c0,.14.11.27.15.4s.2.28,0,.36-.36.26-.51,0-.19-.09-.28,0a1.6,1.6,0,0,1-2.22.43A2.25,2.25,0,0,1,90.13,65a2,2,0,0,1,2.15-1,1.71,1.71,0,0,1,.39.17c.2.14.55.36.38.53a.74.74,0,0,1-.89.22.78.78,0,0,0-1.08.19.8.8,0,0,0-.14.49,1.5,1.5,0,0,0,.53,1.28.74.74,0,0,0,.84.11A.8.8,0,0,0,92.78,66.2Z"/><path class="cls-1" d="M79,9.06a1.53,1.53,0,0,1-1.19,1.68c-.49.12-1,.18-1.5.29-.23.05-.3-.08-.34-.27-.17-1-.34-2-.53-3.1,0-.19,0-.24.19-.27.49-.08,1-.2,1.45-.24a1.52,1.52,0,0,1,1.8,1.18.5.5,0,0,0,0,.12A2.11,2.11,0,0,1,79,9.06Z"/><path class="cls-1" d="M87.2,9.62l-.39-.07c-.32,0-.36-.2-.32-.48s.19-.35.46-.26a3.07,3.07,0,0,0,.42.07c.86.17.87.17.68,1a5.79,5.79,0,0,1-.13.68c0,.15.07.43-.24.43s-.52-.07-.46-.45a1.66,1.66,0,0,1-2.29-.47,2.22,2.22,0,0,1,.45-2.72,2,2,0,0,1,2.48.11,1.05,1.05,0,0,1,.22.3c.11.23.27.46.13.68s-.8-.12-.92-.29a.8.8,0,0,0-1.09-.32.77.77,0,0,0-.37.44,1.42,1.42,0,0,0-.06,1.33.74.74,0,0,0,.74.42A.62.62,0,0,0,87.2,9.62Z"/><path class="cls-1" d="M88,65.05a1.87,1.87,0,0,1,1.82,2A1.83,1.83,0,0,1,88,69h-.24A1.91,1.91,0,0,1,86,66.85,1.77,1.77,0,0,1,87.73,65Z"/><path class="cls-1" d="M94.31,9.33a2,2,0,0,1,2,1.82,2.15,2.15,0,0,1-1.9,2.15,1.93,1.93,0,0,1-2-1.82A2.12,2.12,0,0,1,94.31,9.33Z"/><path class="cls-1" d="M88.56,9.93a1.84,1.84,0,0,1,1.87-2,1.8,1.8,0,0,1,1.89,1.69v.14a2,2,0,0,1-1.8,2.07h0a1.81,1.81,0,0,1-2-1.66Z"/><path class="cls-1" d="M102.85,14.51a6.82,6.82,0,0,1-.49.58c-.13.11-.23-.06-.32-.13-.32-.23-.64-.47-.94-.73s-.3-.1-.45.07-.09.28.08.4.51.43.79.61.28.31.08.55-.31.32-.55.09-.53-.41-.79-.63-.34-.08-.49.1-.2.33,0,.5.68.54,1,.78.07.36,0,.53-.23.3-.47.1c-.59-.49-1.2-1-1.8-1.41-.21-.15-.19-.27,0-.44.68-.81,1.28-1.63,1.91-2.44.09-.11.15-.25.33-.1l1.92,1.48A.72.72,0,0,0,102.85,14.51Z"/><path class="cls-1" d="M97.66,15.13a2.24,2.24,0,0,1-1.66-1,.79.79,0,0,1-.15-.68c0-.22,0-.56.31-.59s.62.43.6.68.43.8.77.73.39-.23.19-.48-.45-.52-.68-.8a1.11,1.11,0,0,1-.12-1.47,1.21,1.21,0,0,1,1.52-.26,1.44,1.44,0,0,1,1,1.67c-.08.25-.18.34-.42.15s-.5-.25-.47-.68-.3-.5-.6-.5-.32.26-.18.46a9.06,9.06,0,0,0,.75,1,1,1,0,0,1-.16,1.47,1.09,1.09,0,0,1-.72.23Z"/><path class="cls-1" d="M98,65.07c-.28-1.21-.55-2.38-.85-3.54a.34.34,0,0,1,.2-.43l0,0c.25-.09.42-.51.77-.24.91.68,1.81,1.36,2.72,2.08.17.13.17.22,0,.32-.34.19-.68.62-1.07.1-.1-.13-.21-.08-.33,0l-.6.39c-.11.07-.23.15-.15.3.29.53-.13.68-.46.89Z"/><path class="cls-1" d="M82.34,10.38a.45.45,0,0,1-.58-.26.8.8,0,0,1,0-.15c0-.18-.12-.23-.3-.22h-.68a.34.34,0,0,0-.38.26.82.82,0,0,1-1,.43c-.13-.07-.07-.17,0-.24.36-1.08.74-2.15,1.09-3.24.12-.34.38-.18.59-.24.44-.1.63.1.77.52.29.88.64,1.75,1,2.62C82.93,10.38,82.93,10.38,82.34,10.38Z"/><path class="cls-1" d="M69.24,13.49c-.24.15-.44.26-.61.39a.36.36,0,0,1-.49,0l0-.06c-.41-.47-.68.07-1,.17a.39.39,0,0,0-.3.45.34.34,0,0,0,.06.15c.11.21,0,.36-.17.47s-.38.21-.62.36c-.26-1.24-.54-2.43-.76-3.64-.09-.41.4-.4.61-.61s.3-.08.45,0Z"/><path class="cls-1" d="M75.94,11.06a6.13,6.13,0,0,0-.61.18c-.27.12-.48.09-.61-.21a.35.35,0,0,0-.45-.22l0,0c-.41.14-.94.12-.87.8,0,.13-.8.42-.9.33s0-.18,0-.26c.09-1.1.2-2.19.26-3.28A.41.41,0,0,1,73,8h0c.26,0,.54-.34.81.05C74.55,9.06,75.22,10,75.94,11.06Z"/><path class="cls-1" d="M61.17,61.5c-.2-.18-.36-.33-.53-.47a.36.36,0,0,1-.1-.53c.36-.5-.21-.62-.39-.89a.38.38,0,0,0-.5-.2.49.49,0,0,0-.14.11c-.19.15-.35.11-.51-.08a3.87,3.87,0,0,0-.54-.46l3.41-1.68c.22-.11.34,0,.43.16s.59.29.43.68Z"/><path class="cls-1" d="M68.44,64.86a1.49,1.49,0,0,1-1.67.57,1.88,1.88,0,0,1-1.33-1.63,2.39,2.39,0,0,1,1.2-2,1.85,1.85,0,0,1,2.08.37,1.46,1.46,0,0,1,.46,1.46c-.07.22-.16.29-.36.14s-.54-.25-.54-.68-.68-.72-1.07-.48a1.59,1.59,0,0,0-.79,1.25.75.75,0,0,0,.71.79.61.61,0,0,0,.19,0C67.93,64.5,67.93,64.5,68.44,64.86Z"/><path class="cls-1" d="M80.59,68.06c-.68-.06-.68-.06-.68.62s0,.61-.63.6c-.37,0-.41-.17-.38-.48.1-1,.19-1.92.26-2.89,0-.25.07-.38.35-.35.52.07,1,.09,1.56.17a1.07,1.07,0,0,1,1.06,1.09,1.24,1.24,0,0,1,0,.27,1.12,1.12,0,0,1-1.18,1l-.19,0Z"/><path class="cls-1" d="M75.33,68.7a1.68,1.68,0,0,1-1.57-1.19,2.31,2.31,0,0,1,.78-2.39,2,2,0,0,1,2.19.1,1.21,1.21,0,0,1,.47.64c0,.22.2.6-.06.68a.68.68,0,0,1-.82-.37.71.71,0,0,0-.9-.46.74.74,0,0,0-.33.22,1.46,1.46,0,0,0-.36,1.46.72.72,0,0,0,.91.49A.65.65,0,0,0,76,67.7a1,1,0,0,1,.93,0c.1.11,0,.18,0,.25A1.47,1.47,0,0,1,75.33,68.7Z"/><path class="cls-1" d="M61.86,14.83a1.77,1.77,0,0,1,2.32-1.69c.17.07.5.2.39.37s-.39.59-.74.46a.72.72,0,0,0-.88.23.75.75,0,0,0-.05.93,1.85,1.85,0,0,0,.56.68.72.72,0,0,0,.88.08.68.68,0,0,0,.37-.8c-.1-.41.33-.51.56-.62s.24.24.28.4a1.45,1.45,0,0,1-.47,1.5,1.71,1.71,0,0,1-1.84.43A2.24,2.24,0,0,1,61.86,14.83Z"/><path class="cls-6" d="M71.3,64.35c-.11.06-.14.18-.2.29-.3.64-.64,1.27-.88,1.93s-.45.25-.73.15-.35-.26-.19-.55c.28-.54.52-1.11.78-1.67s.28-.6-.3-.85c-.3-.13-.37-.25-.2-.56s.19-.34.47-.2c.73.36,1.46.68,2.2,1,.27.12.26.26.13.47s-.13.46-.45.26A4.51,4.51,0,0,0,71.3,64.35Z"/><path class="cls-7" d="M72.38,67.85c-.6,0-.76-.28-.55-.86.3-.87.62-1.73.9-2.6.16-.51.42-.14.63-.11s.42.09.29.43c-.35,1-.68,2-1,2.92C72.6,67.74,72.58,67.89,72.38,67.85Z"/><path class="cls-8" d="M103.87,18.65A1.62,1.62,0,1,1,105.5,17,1.66,1.66,0,0,1,103.87,18.65Z"/><path class="cls-9" d="M101.25,60.91l-.42-.39a.7.7,0,0,1,.54.26Z"/><path class="cls-5" d="M99,27.81l.32.48a6.51,6.51,0,0,1,1,5.38,7.9,7.9,0,0,1-.63,1.27,1.8,1.8,0,0,0-.12.86,12.75,12.75,0,0,0,.2,1.86l.26.57c.2.2.49.21.73.35a.52.52,0,0,1,.29.63.94.94,0,0,0,.49,1.26h0a.79.79,0,0,1,.37.83,5,5,0,0,0,.33,2.88,3.43,3.43,0,0,1,.08.56c.12.82.12.82-.68,1.06a1.7,1.7,0,0,0-.68.44l-.79.76a1,1,0,0,1-1.3.17c-.3-.08-.48.1-.68.28a.83.83,0,0,1-.27.49,1.82,1.82,0,0,0-.61,1.36,1.36,1.36,0,0,1-1,1.25,2.61,2.61,0,0,1-1.36,0,.8.8,0,0,1-.72-.77.37.37,0,0,0-.36-.41c-.24,0-.44-.09-.68-.11-1-.06-1.42-.49-1.31-1.49a.8.8,0,0,0-.48-.94,9,9,0,0,1-2.26-2c-.22-.25-.4-.3-.62,0a.79.79,0,0,1-1.1.15l0,0c-.38-.25-.91-.2-1.22-.6l-.41-.54h-.09l.11,1.14a.55.55,0,0,1-.42.52,2.82,2.82,0,0,1-.64.14A2.4,2.4,0,0,0,83,46.2a.42.42,0,0,1-.59.13.44.44,0,0,1-.14-.13l-.58-.13c-.43.17-.74.11-.92-.28s-.68-.45-1.09-.46a.75.75,0,0,0-.75.6,2.64,2.64,0,0,1-.71,1.27.74.74,0,0,1-1,0,.52.52,0,0,1-.1-.11l-.53-.32a16.38,16.38,0,0,1-2,.07,2.9,2.9,0,0,0-1.28.46,8.53,8.53,0,0,1-1.68,1,1,1,0,0,0-.49.5c-.16.32-.33.62-.51.91a1.71,1.71,0,0,1-2.24.68c-.44-.22-1-.31-1.27-.78-.1-.17-.31-.12-.49-.14-.42-.07-.59-.25-.54-.69a11.69,11.69,0,0,1,0-1.32A.88.88,0,0,0,65.7,47a4.33,4.33,0,0,0-.86-.49.72.72,0,0,1-.38-.28c-.26-.49-.76-.87-.68-1.5a.87.87,0,0,0-.32-.57A1,1,0,0,1,63.24,43a.62.62,0,0,0,0-.68,2,2,0,0,1-.15-1.75.94.94,0,0,0-.17-1c-.3-.37-.68-.79-.39-1.36-.07-.5-.48-.52-.85-.59a.67.67,0,0,1-.49-.71,5.58,5.58,0,0,1,.34-1.81.59.59,0,0,1,.59-.42.63.63,0,0,0,.63-.46,4.74,4.74,0,0,1,1.2-1.7,4.23,4.23,0,0,0,.89-1.64,13.69,13.69,0,0,1,.75-1.48.87.87,0,0,1,.6-.44l.47-.43c.09-.32.33-.26.53-.18a.72.72,0,0,0,.89-.26c.06-.07.14-.14.19-.21a2.45,2.45,0,0,1,2.33-1.08.69.69,0,0,0,.73-.4c.32-.52.62-1.07,1-1.58a1.11,1.11,0,0,1,1.47-.51,1.31,1.31,0,0,1,.27.19c.24.09.44,0,.68-.1a.77.77,0,0,1,.68-.29,6.06,6.06,0,0,1,2.39.34.8.8,0,0,0,.83-.11c.73-.53,1-.51,1.72.07a.57.57,0,0,0,.68.09c.27-.09.53-.25.81,0h.57c.24-.15.43,0,.6.12a1.36,1.36,0,0,1,.29.49c.3.77.31.77,1.08.52h0c.64.17.9-.3,1.17-.72a.46.46,0,0,1,.3-.22c.69,0,1.28-.43,2-.15a.37.37,0,0,0,.43-.11,1.37,1.37,0,0,1,.48-.31c.47-.15.68,0,.68.54a.67.67,0,0,0,.39.54.54.54,0,0,0,.44-.23c.43-.41.81-.32,1,.25a1.58,1.58,0,0,0,.68,1c.15.09.19.05.34,0a6.14,6.14,0,0,0,1.09-.94,1.4,1.4,0,0,1,1.36-.23.68.68,0,0,1,.57.78.57.57,0,0,1,0,.14c-.1.41,0,.53.39.53a4,4,0,0,1,1.85.54c.34.18.74.17,1.07.38A.57.57,0,0,1,99,27.81Z"/><path class="cls-10" d="M82.3,46.25c.22,0,.45.08.61-.13a2.2,2.2,0,0,1,1.79-.76,1.69,1.69,0,0,0,1.11-.45l5,8.61c1,1.69,1.94,3.41,2.94,5.07.22.36.13.5-.2.68a24,24,0,0,1-10.79,2.91c-.29,0-.47,0-.46-.39V46.45A1.36,1.36,0,0,1,82.3,46.25Z"/><path class="cls-10" d="M77,47.14a1.05,1.05,0,0,0,1.39-.5,1.34,1.34,0,0,0,.07-.18,1,1,0,0,0,.09-.22c.5-1.17.87-1.36,2.12-1,.09,0,.27,0,.23.17-.14.58.32.53.64.62l.13.05V61.57c0,.47-.13.58-.57.57a24.09,24.09,0,0,1-10.44-2.8c-.58-.31-.58-.31-.25-.88l6.44-11.13Z"/><path class="cls-10" d="M89.33,24.57c-.19-.52-.6-.58-1-.08-.24.3-.42.44-.77.16s-.81.16-1.22.08-.74.18-.94.57a2.74,2.74,0,0,1-.3.43c-.12.15-.31.23-.46.1s-.28-.14-.47,0c-.41.37-.92.16-1.11-.45-.13-.44-.26-.85-.77-1V14.32c0-.44.13-.53.53-.51a24.06,24.06,0,0,1,10.59,2.88c.24.13.39.23.22.54-1.42,2.41-2.82,4.84-4.23,7.28Z"/><path class="cls-10" d="M86.2,44.28a3.77,3.77,0,0,1,1.58.57c.21.16.31.1.47-.07.61-.63.62-.63,1.23,0A8,8,0,0,0,92.11,47c.16.06.2.13.13.28a2.76,2.76,0,0,0-.08.27c-.29,1.05.06,1.48,1.08,1.56a3.6,3.6,0,0,1,.79.12c.28.08.68.16.39.64-.11.17.06.25.17.33a1.86,1.86,0,0,0,1.77.13,1.17,1.17,0,0,0,.8-1.17,2,2,0,0,1,1.07-1.68c1.41.82,2.81,1.66,4.23,2.46.38.21.37.36.17.68a24.59,24.59,0,0,1-7.8,7.92c-.23.15-.37.21-.55-.1q-4-7-8-13.93A1.05,1.05,0,0,1,86.2,44.28Z"/><path class="cls-10" d="M81.71,24.44a1.82,1.82,0,0,0-.4.11c-.54.3-1,.38-1.42-.21-.31-.41-.87-.29-1.31.22a.47.47,0,0,1-.65.16l0,0a6,6,0,0,0-3.26-.34c-1.36-2.39-2.76-4.77-4.16-7.16-.17-.3-.06-.42.19-.55A24.2,24.2,0,0,1,78,14.16a24.92,24.92,0,0,1,3.22-.33c.37,0,.49.07.48.45C81.71,17.68,81.71,21.06,81.71,24.44Z"/><path class="cls-10" d="M66.06,47.46a1.48,1.48,0,0,1,.17,1.32c-.13.47.1.54.43.45s.5.08.73.36a2.43,2.43,0,0,0,1.7.77,1.38,1.38,0,0,0,1.36-.83,3,3,0,0,1,1.85-1.82,2.3,2.3,0,0,0,.68-.43,3.22,3.22,0,0,1,2.54-.6,1.14,1.14,0,0,0,.52,0,.46.46,0,0,1,.51.16l-5.29,9.09c-.5.8-1,1.61-1.4,2.44-.17.28-.28.37-.61.16A24.28,24.28,0,0,1,61.4,50.6c-.16-.24-.16-.37.13-.54C63.05,49.24,64.55,48.33,66.06,47.46Z"/><path class="cls-10" d="M74,24.46c-1.13-.18-1.36-.09-1.86.95a7.87,7.87,0,0,0-.82,1.44c-.06.21-.33.17-.5.15a2.4,2.4,0,0,0-2.53,1.13c-.45.64-.53.63-1.26.38a.41.41,0,0,0-.4,0c-1.67-1-3.33-1.91-5-2.85-.32-.18-.2-.34-.07-.53a24.86,24.86,0,0,1,4.14-4.95,25.34,25.34,0,0,1,3.76-2.83c.22-.13.35-.21.52.09C71.3,19.78,72.65,22.12,74,24.46Z"/><path class="cls-10" d="M99,27.81c-.07,0-.15,0-.19,0-.56-.5-1.36-.53-2-.87a3,3,0,0,0-1.7-.33c-.28,0-.4-.06-.29-.35v0c0-.35.36-.73-.14-1a1.27,1.27,0,0,0-1.36.18,1.37,1.37,0,0,0-.37.55,1.14,1.14,0,0,1-.1.19c-.69-.22-.58.51-.86.76h-.09c0-.33,0-.59-.42-.68-.27-.07-.35-.43-.44-.68s-.09-.31-.14-.46-.08-.29-.25-.32-.22.14-.3.24-.33.55-.64.14c1.44-2.5,2.89-5,4.32-7.49.2-.35.35-.39.68-.18a25,25,0,0,1,7.8,7.75c.2.32.16.46-.17.64C101.21,26.49,100.1,27.15,99,27.81Z"/><path class="cls-10" d="M99.77,37.66c-.3-.43-.72-.83-.33-1.43a.25.25,0,0,0,0-.24c-.43-.59,0-1.1.29-1.5a3.81,3.81,0,0,0,.58-1.88,4.77,4.77,0,0,0-.86-3.47,1.07,1.07,0,0,1-.13-.82c1.14-.68,2.28-1.31,3.4-2,.32-.19.43-.07.57.19a24.12,24.12,0,0,1,2.89,10.56c0,.42-.09.57-.54.56C103.68,37.62,101.73,37.66,99.77,37.66Z"/><path class="cls-10" d="M62.46,38.19a2.92,2.92,0,0,0,.91,1.63c.18.15.09.27,0,.41a1.76,1.76,0,0,0,.18,2.23c.15.15,0,.26,0,.37-.34.68-.32.86.24,1.36.24.24.18.49.19.75s-.07.44.27.43c.18,0,.13.14.15.23a.9.9,0,0,0,.77.8c.31.08.56.23.56.6-1.47.84-3,1.69-4.41,2.55-.3.17-.44.15-.61-.17a24.1,24.1,0,0,1-2.84-10.76c0-.34.09-.43.43-.43C59.66,38.2,61.06,38.19,62.46,38.19Z"/><path class="cls-10" d="M66.15,29a10,10,0,0,0-1.41,2.62A3.46,3.46,0,0,1,64,32.74a4.54,4.54,0,0,0-1.22,1.89c-.07.25-.17.29-.4.22a.54.54,0,0,0-.75.49c-.07.42-.17.8-.24,1.21a1.18,1.18,0,0,0,.27,1.06h-3.4c-.32,0-.35-.14-.35-.4a23.63,23.63,0,0,1,1.93-8.73c.33-.76.68-1.5,1.08-2.22.14-.24.24-.27.47-.13Q63.74,27.56,66.15,29Z"/><path class="cls-10" d="M98.92,47.15a1.12,1.12,0,0,0,1.19-.37c.26-.26.51-.53.78-.77a1.22,1.22,0,0,1,1-.47c.33,0,.38-.13.35-.4a4.66,4.66,0,0,0-.31-1.48,3.43,3.43,0,0,1-.2-2c.12-.68.06-.73-.58-1-.17-.07-.2-.23-.26-.38s0-.45-.21-.68.28-.33.33-.56c-.28-.28-.87-.15-.93-.68h5.77c.41,0,.37.21.36.47a23.5,23.5,0,0,1-2.48,10c-.48,1-.49,1-1.43.41Z"/><path class="cls-11" d="M83.33,66.84c0-.57.39-.37.64-.42s.6,0,.56.37c0,.59-.56.37-.9.45S83.42,67,83.33,66.84Z"/><path class="cls-12" d="M94.8,64.41a.58.58,0,0,1-.34-.55c.08-.35.49-.39.78-.49s.4.11.43.36S95.14,64.39,94.8,64.41Z"/><path class="cls-11" d="M64.39,60.26c.18,0,.78.65.75.8s-.18.4-.41.36a1.11,1.11,0,0,1-.78-.6C63.9,60.67,64.19,60.4,64.39,60.26Z"/><path class="cls-13" d="M77.23,7.94a.62.62,0,0,1,.64.43,1.33,1.33,0,0,1,0,1.36c-.19.29-.54.28-.85.32s-.16-.15-.18-.27c-.07-.39-.14-.77-.2-1.16C76.55,8,76.59,7.94,77.23,7.94Z"/><path class="cls-14" d="M88.78,67.21a.85.85,0,0,1-.68.92.82.82,0,0,1-.9-.6,1.87,1.87,0,0,1-.13-.93.76.76,0,0,1,.68-.68.74.74,0,0,1,.84.37A1.72,1.72,0,0,1,88.78,67.21Z"/><path class="cls-13" d="M95.28,11c0,.68-.56,1.44-1.07,1.42a.82.82,0,0,1-.8-.83c0-.68.51-1.4,1-1.42a.83.83,0,0,1,.85.81Z"/><path class="cls-14" d="M89.53,10c0-.73.46-1.36,1-1.36a.84.84,0,0,1,.84.84v.05c0,.74-.43,1.36-1,1.36a.81.81,0,0,1-.85-.8Z"/><path class="cls-15" d="M98.28,62l.79.62c-.18.15-.4.4-.53.33-.3-.18-.19-.59-.37-.87Z"/><path class="cls-16" d="M81.4,8.9c-.81.08-.81.08-.39-1,0,0,.08.06.1.11Z"/><path class="cls-17" d="M66.26,12.25l.44.35c.52.44.52.44-.13.8Z"/><path class="cls-18" d="M74.12,10c-.76.22-.76.22-.68-.9A3.56,3.56,0,0,1,74.12,10Z"/><path class="cls-19" d="M60.62,58.9l.92-.51a.61.61,0,0,1-.14.47C61.11,59.46,61.1,59.46,60.62,58.9Z"/><path class="cls-12" d="M80.47,67.27c-.12-.06-.5.14-.41-.29,0-.2-.18-.61.31-.55.32,0,.74,0,.75.44S80.86,67.33,80.47,67.27Z"/><path class="cls-20" d="M103.89,18.28a1.28,1.28,0,0,1,0-2.56,1.28,1.28,0,0,1,.07,2.56Z"/><path class="cls-1" d="M83.7,38.18a1,1,0,0,0,.55.33c.16.07.22.16.15.33s-.16.18-.33.13-.4-.31-.54-.12.17.29.29.41.07.21,0,.32-.19.17-.31,0a.86.86,0,0,0-.13-.14c-.1-.06-.15-.25-.3-.16s-.06.24,0,.37.14.31-.12.4-.27,0-.33-.2a.51.51,0,0,0-.26-.33v1.55c0,.18,0,.37-.27.38s-.33-.15-.32-.39V39.58c-.25.09-.23.28-.29.41s-.08.33-.35.21-.15-.26-.1-.41a.12.12,0,0,1,0-.09c0-.13.21-.27,0-.38s-.23.11-.33.19-.32.42-.54.07.15-.27.21-.41.28-.18.17-.34-.24,0-.37,0A.58.58,0,0,0,80,39c-.2.1-.24,0-.31-.17s0-.22.13-.28a1,1,0,0,0,.56-.34H78.86c-.22,0-.35,0-.35-.31s.15-.28.36-.28h1.56c-.17-.27-.38-.26-.53-.34s-.26-.09-.17-.3.16-.22.36-.16.39.31.54.1-.21-.32-.31-.49-.26-.19-.08-.39.28-.07.43,0,.29.44.44.34S81.05,36,81,35.8s-.17-.34.12-.45.28.11.34.25a1.44,1.44,0,0,0,.33.52V34.71c0-.21-.08-.45.29-.45s.28.27.28.46v1.49a.93.93,0,0,0,.35-.57c.07-.14.12-.22.29-.14s.23.12.17.31-.34.44-.1.59.32-.23.48-.36.22-.07.32,0,.13.21,0,.31h0c-.1.16-.44.24-.29.46s.34-.05.51-.11a.25.25,0,0,1,.36.15c.08.19,0,.24-.17.31s-.37.07-.52.33H85.3c.18,0,.38-.05.39.26s-.14.34-.38.33C84.74,38.17,84.25,38.18,83.7,38.18Z"/><path class="cls-21" d="M74.69,29.61a1.36,1.36,0,0,1-1.32-1.15.8.8,0,0,1,.61-.81,2.11,2.11,0,0,0,.93-.68c.63-.73,1.09-.72,1.71,0l.09.12c.68.92.38,1.62-.77,1.76a.47.47,0,0,0-.41.25A.92.92,0,0,1,74.69,29.61Z"/><path class="cls-21" d="M94.52,32.09a10.89,10.89,0,0,0-1.81-.18c-.49,0-.79-.42-1-.78s.17-.53.36-.75a.42.42,0,0,1,.59-.11s0,0,0,0c.55.5,1.21.16,1.81.32a.29.29,0,0,0,.24-.2c.27-.54.62-.68,1.07-.48a.84.84,0,0,1,.31,1.16A1.6,1.6,0,0,1,94.52,32.09Z"/><path class="cls-21" d="M87.43,28.56c.13.94-.54,1.54-1.1,2.16a.72.72,0,0,1-1,.05h0c-.3-.32-.17-.64,0-.94a4.53,4.53,0,0,0,.26-.4.4.4,0,0,0-.14-.62c-.34-.18-.36-.44,0-.68a2.4,2.4,0,0,1,1-.4l.13,0c.86-.27.86-.27.9.68Z"/><path class="cls-21" d="M91.19,41.75a1.31,1.31,0,0,0,0-.68c-.08-.31-.16-.68.14-.88a.83.83,0,0,1,1,.09,1.83,1.83,0,0,0,.89.39c.41.06.52.32.32.68a4.21,4.21,0,0,1-1.25,1.37.63.63,0,0,1-.89,0,.61.61,0,0,1-.16-.42A2.87,2.87,0,0,1,91.19,41.75Z"/><path class="cls-8" d="M103.55,17c-.14.13-.24.21-.32.3a.24.24,0,1,1-.34-.34,4.68,4.68,0,0,1,.5-.5c.18-.16.38-.56.58-.48a1.62,1.62,0,0,1,.68.74c.16.27,0,.68-.29.68s-.43.22-.5.48a3,3,0,0,1-.11.32C103.58,18,103.58,18,103.55,17Z"/><path class="cls-14" d="M83.15,37.89a1.12,1.12,0,0,1-2.23.17v-.17a1.13,1.13,0,0,1,1-1.2,1.11,1.11,0,0,1,1.2,1A.54.54,0,0,1,83.15,37.89Z"/><path class="cls-22" d="M104.08,16.48c.11.09.23.18.22.34s-.11.15-.21.13-.26-.1-.24-.26S104,16.55,104.08,16.48Z"/></g></g><rect class="cls-23" width="164" height="76.75"/></g></g></svg>