<svg xmlns="http://www.w3.org/2000/svg" viewBox="0 0 164 76.75"><defs><style>.cls-1{fill:#ee3124;}.cls-2{fill:none;}</style></defs><title>canblood-logo</title><g id="Layer_2" data-name="Layer 2"><g id="Layer_1-2" data-name="Layer 1"><path class="cls-1" d="M85.62,46.91c0-.61-.77-.45-1.13-.45l-3.9.67c-.31,0-.26-.16-.21-.31l.16-.92a1.13,1.13,0,0,0-.62-1.37l-4.67-4.05c-.16-.21,0-.26.1-.31,1.28-.36,1-1.13,1-1.13l-.77-3.24c0-.2.15-.2.3-.15l2.57.51c.67,0,.72-.87,1-1.37.11-.16.26,0,.42.15l2.2,2.41a.46.46,0,0,0,.57-.15c.15-.31.1-.51,0-1l-.88-4.77c0-.25.1-.25.26-.25l1.48.66c.72.16.88-.72,1.08-1.07l1.19-2.26c0-.25.1-.36.25-.41s.21.16.26.41l1.18,2.26c.25.36.41,1.23,1.08,1.07L90,31.15c.2,0,.25,0,.3.25l-.91,4.77c-.11.52-.16.72,0,1a.5.5,0,0,0,.62.15l2.15-2.41c.16-.2.31-.3.41-.15.26.51.31,1.33,1,1.37l.18,0a12.15,12.15,0,0,0-2.18-5.38C90.31,28.87,89,27,87.85,25c-.36-.58-.69-1.17-1-1.78a44,44,0,0,1-3.09-7.32c-.46-1.2-.73-2.49-1.09-3.74-.2-.45,0-1-.42-1.43l-.07.05a30.41,30.41,0,0,1-.87,3,48.6,48.6,0,0,1-3,7.17c-.91,1.83-2.18,3.52-3.27,5.28-1.56,2.14-3.6,4.07-4.67,6.45a9.78,9.78,0,0,0-1.2,5.56,12.41,12.41,0,0,0,.49,3.21,13.41,13.41,0,0,0,2.72,4.73,13,13,0,0,0,7.17,4,18.83,18.83,0,0,0,2.81,0,9.22,9.22,0,0,0,2.08-.34,11,11,0,0,0,1.24-.37Z"/><path class="cls-1" d="M86.44,46.91V49.2A12.67,12.67,0,0,0,90,46.89l-2.43-.42C87.21,46.45,86.44,46.3,86.44,46.91Z"/><path class="cls-1" d="M8.73,64.87a7.71,7.71,0,0,1-3,.67c-2.5,0-4.53-1.54-4.53-6,0-3,1-5.73,4.3-5.73,2.33,0,3.66,1.37,3.66,3.29H7.26a1.73,1.73,0,0,0-1.79-2C3.33,55.13,3,57.74,3,59.28c0,2.86.69,5,3.05,5a4.86,4.86,0,0,0,2.65-.89Z"/><path class="cls-1" d="M14.29,64.39h0a2.13,2.13,0,0,1-2,1.15A2,2,0,0,1,10,63.43c0-2.07,2.29-2.57,4.28-2.57V59.49a1.11,1.11,0,0,0-1.2-1,1.15,1.15,0,0,0-1.25,1,.67.67,0,0,0,0,.2H10.3c0-1.26.74-2.36,2.93-2.36A2.29,2.29,0,0,1,15.8,60v5.39H14.32ZM14,61.86c-1.17,0-2.34.52-2.34,1.53a.91.91,0,0,0,.82,1h0a2.09,2.09,0,0,0,1.78-2.1v-.45Z"/><path class="cls-1" d="M18.15,57.52h1.48v1.66h0a2.63,2.63,0,0,1,2.49-1.86c1.83,0,2.11,1.62,2.11,2.59v5.45H22.78V61.08c0-1.45,0-2.26-1.07-2.26-1.22,0-2.08,1.65-2.08,3.21v3.32H18.15Z"/><path class="cls-1" d="M30.47,64.39h0a2.14,2.14,0,0,1-2,1.15,2,2,0,0,1-2.22-2.11c0-2.07,2.29-2.57,4.28-2.57V59.49a1.11,1.11,0,0,0-1.2-1,1.15,1.15,0,0,0-1.25,1,1.34,1.34,0,0,0,0,.2H26.44c0-1.26.74-2.36,2.93-2.36A2.3,2.3,0,0,1,32,60v5.39H30.46Zm-.3-2.53c-1.17,0-2.33.52-2.33,1.53a.9.9,0,0,0,.81,1h0a2.1,2.1,0,0,0,1.78-2.1v-.45Z"/><path class="cls-1" d="M38.67,64.16h0a2.3,2.3,0,0,1-2.18,1.37c-1.91,0-2.68-1.73-2.68-4,0-2.61,1-4.23,2.74-4.23a2.14,2.14,0,0,1,2.09,1.26h.06V54h1.48V65.36H38.67Zm-1.7.23c1.2,0,1.7-1.67,1.7-3s-.4-2.93-1.71-2.93-1.54,1.3-1.54,2.94c0,1.19.16,3,1.54,3Z"/><path class="cls-1" d="M42.58,54h1.78v1.68H42.58Zm.15,3.53h1.48v7.84H42.73Z"/><path class="cls-1" d="M50.6,64.39h0a2.16,2.16,0,0,1-2,1.15,2,2,0,0,1-2.23-2.11c0-2.07,2.29-2.57,4.29-2.57V59.49a1.12,1.12,0,0,0-1.21-1,1.15,1.15,0,0,0-1.25,1v.2H46.58c0-1.26.75-2.36,2.94-2.36A2.29,2.29,0,0,1,52.09,60v5.39H50.61Zm-.3-2.53c-1.17,0-2.33.52-2.33,1.53a.9.9,0,0,0,.81,1h0a2.1,2.1,0,0,0,1.78-2.1v-.45Z"/><path class="cls-1" d="M54.46,57.52h1.48v1.66h0a2.64,2.64,0,0,1,2.49-1.86c1.83,0,2.11,1.62,2.11,2.59v5.45H59.09V61.08c0-1.45,0-2.26-1.07-2.26-1.22,0-2.08,1.65-2.08,3.21v3.32H54.46Z"/><path class="cls-1" d="M68,54h3.28a2.66,2.66,0,0,1,3,2.7,2.5,2.5,0,0,1-1.76,2.61v0a2.64,2.64,0,0,1,2.29,2.91c0,2.79-2.21,3.12-3.66,3.12H67.94Zm1.65,4.72h1c.76,0,1.91-.2,1.91-1.71s-1.15-1.68-2-1.68h-.94Zm0,5.33H70.9a2,2,0,0,0,2.22-1.94A2.1,2.1,0,0,0,70.73,60h-1.1Z"/><path class="cls-1" d="M76.9,54h1.48V65.36H76.9Z"/><path class="cls-1" d="M80.44,61.44c0-2.5,1.1-4.12,3.48-4.12s3.46,1.6,3.46,4.12-1.11,4.12-3.46,4.12S80.44,63.91,80.44,61.44Zm3.48,3c1.59,0,1.83-1.7,1.83-3s-.22-2.95-1.83-2.95-1.83,1.68-1.83,2.95.19,3,1.82,3Z"/><path class="cls-1" d="M88.68,61.44c0-2.5,1.1-4.12,3.47-4.12s3.46,1.6,3.46,4.12-1.1,4.12-3.46,4.12S88.68,63.91,88.68,61.44Zm3.47,3c1.6,0,1.83-1.7,1.83-3s-.21-2.95-1.83-2.95-1.83,1.68-1.83,2.95.2,3,1.83,3Z"/><path class="cls-1" d="M101.82,64.16h0a2.3,2.3,0,0,1-2.18,1.37c-1.91,0-2.68-1.73-2.68-4,0-2.61,1-4.23,2.74-4.23a2.13,2.13,0,0,1,2.09,1.26h.06V54h1.48V65.36h-1.48Zm-1.7.23c1.2,0,1.7-1.67,1.7-3s-.39-2.93-1.71-2.93c-1.16,0-1.54,1.3-1.54,2.94,0,1.19.16,3,1.54,3Z"/><path class="cls-1" d="M114.8,59.18c1.1.63,2.39,1.34,2.39,3.13,0,2.2-1.76,3.23-4.12,3.23a10,10,0,0,1-2.88-.45V63.38a6.14,6.14,0,0,0,3,.83c1.08,0,2.16-.46,2.16-1.68s-1-1.66-1.83-2.19l-1-.61c-1-.61-2.47-1.25-2.47-3,0-2,1.65-2.94,3.77-2.94a11.85,11.85,0,0,1,2.59.33v1.55a9.09,9.09,0,0,0-2.67-.56c-1.12,0-1.87.53-1.87,1.48s1,1.43,1.83,1.92Z"/><path class="cls-1" d="M124.11,65.28a7.65,7.65,0,0,1-2,.26c-2.37,0-3.89-1.4-3.89-4.48,0-3.35,2.19-3.72,3.2-3.72,1.92,0,2.84,1.3,2.84,3.15v.38h-4.55c0,1.46.74,3.52,2.88,3.52a4.14,4.14,0,0,0,1.48-.28Zm-1.3-5.41a1.34,1.34,0,0,0-1.32-1.37h-.11a1.51,1.51,0,0,0-1.57,1.37Z"/><path class="cls-1" d="M126.14,57.52h1.48V59.1h0a2.49,2.49,0,0,1,2.42-1.76V59c-1.33,0-2.45.68-2.45,3.08v3.33h-1.48Z"/><path class="cls-1" d="M130.47,57.52h1.65l2,5.7h0l1.83-5.7h1.65L135,65.36h-1.51Z"/><path class="cls-1" d="M139,54h1.77v1.68h-1.78Zm.15,3.53h1.48v7.84H139.1Z"/><path class="cls-1" d="M148.64,65.25a7,7,0,0,1-2.18.29c-3,0-3.84-2.43-3.84-4.38,0-2.19,1-3.82,3.35-3.82a2.51,2.51,0,0,1,2.8,2.74h-1.7c0-.59-.11-1.58-1.2-1.58s-1.6.94-1.6,2.39.64,3.51,3.11,3.51a4.45,4.45,0,0,0,1.26-.16Z"/><path class="cls-1" d="M155.51,65.28a7.65,7.65,0,0,1-2,.26c-2.37,0-3.89-1.4-3.89-4.48,0-3.35,2.19-3.72,3.21-3.72,1.9,0,2.83,1.3,2.83,3.15v.38h-4.55c0,1.46.74,3.52,2.88,3.52a4.23,4.23,0,0,0,1.49-.28Zm-1.3-5.41a1.34,1.34,0,0,0-1.31-1.37h-.12a1.51,1.51,0,0,0-1.57,1.37Z"/><path class="cls-1" d="M160.17,60.85c.82.51,1.83,1,1.83,2.32,0,1.65-1.19,2.37-2.95,2.37a6.91,6.91,0,0,1-2.11-.31v-1.3a5.9,5.9,0,0,0,2,.46c.71,0,1.6-.2,1.6-1,0-.59-.73-.91-1.26-1.26l-.76-.46c-.71-.46-1.56-1-1.56-2.12,0-1.42,1.15-2.2,2.78-2.2a8.25,8.25,0,0,1,1.78.28V59a4.32,4.32,0,0,0-1.79-.46c-.64,0-1.29.35-1.29.84s.63.85,1.14,1.16Z"/><rect class="cls-2" width="164" height="76.75"/></g></g></svg>