<svg xmlns="http://www.w3.org/2000/svg" viewBox="0 0 164 76.75"><defs><style>.cls-1{fill:none;}.cls-2{fill:#fff;}.cls-3{fill:#231f20;}</style></defs><title>carfax-logo</title><g id="Layer_2" data-name="Layer 2"><g id="Layer_1-2" data-name="Layer 1"><rect class="cls-1" width="164" height="76.75"/><g id="g3339"><path id="path3341" class="cls-2" d="M154.67,50.23a2.31,2.31,0,0,1-2.29,2.28H6.21a2.31,2.31,0,0,1-2.29-2.28V26.52a2.31,2.31,0,0,1,2.29-2.28H152.38a2.31,2.31,0,0,1,2.29,2.28V50.23Z"/><path id="path3343" class="cls-3" d="M6.21,23.61A2.91,2.91,0,0,0,3.3,26.52V50.23a3,3,0,0,0,2.91,2.91H152.38a2.9,2.9,0,0,0,2.91-2.91V26.52a3,3,0,0,0-2.91-2.91ZM4.55,50.23V26.52a1.64,1.64,0,0,1,1.66-1.66H152.38a1.65,1.65,0,0,1,1.67,1.66V50.23a1.65,1.65,0,0,1-1.67,1.66H6.21A1.64,1.64,0,0,1,4.55,50.23Z"/></g><g id="g3345"><rect id="rect3347" class="cls-2" x="129.51" y="26.32" width="22.98" height="24.02"/><path id="path3349" class="cls-3" d="M129.2,26V50.64h23.6V26Zm23,.63V50H129.82V26.63Z"/></g><g id="g3351"><rect id="rect3353" class="cls-3" x="30.85" y="26.32" width="22.98" height="24.02"/><path id="path3355" class="cls-3" d="M30.54,26V50.64h23.6V26Zm22.87.63V50H31.06V26.63Z"/></g><g id="g3357"><rect id="rect3359" class="cls-3" x="55.39" y="26.32" width="22.98" height="24.02"/><path id="path3361" class="cls-3" d="M55.07,26V50.64h23.6V26Zm23,.63V50H55.7V26.63Z"/></g><g id="g3363"><rect id="rect3365" class="cls-3" x="80.23" y="26.32" width="22.98" height="24.02"/><path id="path3367" class="cls-3" d="M79.92,26V50.64h23.6V26Zm22.87.63V50H80.44V26.63Z"/></g><g id="g3369"><rect id="rect3371" class="cls-3" x="104.98" y="26.32" width="22.98" height="24.02"/><path id="path3373" class="cls-3" d="M104.66,26V50.64h23.6V26Zm22.88.63V50H105.18V26.63Z"/></g><g id="g3375"><rect id="rect3377" class="cls-3" x="6.11" y="26.32" width="22.98" height="24.02"/><path id="path3379" class="cls-3" d="M5.8,26V50.64H29.39V26Zm22.87.63V50H6.31V26.63Z"/></g><path id="path3381" class="cls-2" d="M18.06,47c-4.88,0-7.48-3.63-7.48-8.52,0-5.3,3.12-8.53,7.48-8.53,4.06,0,5.62,1.77,6.76,4.89L20.66,36.5C20,34.94,19.52,34,18,34c-1.87,0-2.7,1.87-2.7,4.57,0,2.5.83,4.58,2.8,4.58,1.46,0,2.08-.73,2.91-2.29L24.82,43A7,7,0,0,1,18.06,47Z"/><path id="path3383" class="cls-2" d="M43.74,40H41l.31-1a35,35,0,0,0,1-4.16c.21,1.14.52,2,1,4.16Zm7,6.55-6-16.53H40.1L34.18,46.48h4.88L40,43.57h5l.93,2.91h4.79Z"/><path id="path3385" class="cls-2" d="M69.21,35.67c0,1.15-.62,1.87-2.08,1.87h-2.7V33.9h2.7C68.69,33.9,69.21,34.63,69.21,35.67ZM74.1,46.59l-3.33-6.24a5,5,0,0,0,3-4.78c0-3.95-2.6-5.41-6.45-5.41H60V46.59h4.47V41.08H66.3L69,46.59Z"/><path id="path3387" class="cls-2" d="M89.69,34V36.3h5.2v3.84h-5.2v6.45H85.12V30.16h13V34Z"/><path id="path3389" class="cls-2" d="M117.66,40.14H115l.31-1a34.53,34.53,0,0,0,1-4.16c.21,1.15.52,2,1,4.16Zm6.86,6.55-5.93-16.42H114l-5.93,16.42H113l.94-2.91h4.88l.94,2.91Z"/><path id="path3435" class="cls-3" d="M143.34,50.54l-.73-1.14c-.62-1-1.25-2.08-1.77-3a25,25,0,0,1-1.76,3l-.84,1.14h-5.61L138,43.05l-5.72-8.11h5.82l1,1.56a33.45,33.45,0,0,1,1.77,3c.41-.83,1.14-2,1.76-3l1-1.56h5.62l-5.72,8,5.3,7.59Z"/><g id="g3437"><g id="g3439"><path id="path3441" class="cls-3" d="M160.6,25.9a2.14,2.14,0,0,1-2.19,2.18,2.21,2.21,0,0,1-1.56-3.74,2.11,2.11,0,0,1,1.56-.62,2.08,2.08,0,0,1,1.56.62A2.12,2.12,0,0,1,160.6,25.9Zm-.32,0a2.13,2.13,0,0,0-.52-1.35,1.37,1.37,0,0,0-1.24-.52,2.18,2.18,0,0,0-1.35.52,1.58,1.58,0,0,0-.52,1.35,2.13,2.13,0,0,0,.52,1.35,1.49,1.49,0,0,0,1.24.52,1.73,1.73,0,0,0,1.25-.52A1.8,1.8,0,0,0,160.28,25.9Zm-.62-.52a1.35,1.35,0,0,1-.21.62,1.39,1.39,0,0,1-.62.21l.83,1h-.52l-.83-1h-.42v1h-.41v-2.7h1.24a.87.87,0,0,1,.63.21.72.72,0,0,1,.31.62Zm-.42,0c0-.31-.2-.42-.62-.42h-.73v.84h.83A.47.47,0,0,0,159.24,25.38Z"/><path id="path3443" class="cls-3" d="M157,24.34a2.18,2.18,0,0,0,1.56,3.74,2.21,2.21,0,0,0,1.56-3.74,2.11,2.11,0,0,0-1.56-.62A2.08,2.08,0,0,0,157,24.34Zm0,3.12a2.25,2.25,0,0,1,0-3.12,2,2,0,0,1,1.45-.62,1.88,1.88,0,0,1,1.46.62,2.27,2.27,0,0,1,0,3.12,2.09,2.09,0,0,1-1.46.62A2,2,0,0,1,157,27.46Z"/><path id="path3445" class="cls-3" d="M157.17,24.55a2,2,0,0,0,0,2.7,1.58,1.58,0,0,0,1.35.52,1.71,1.71,0,0,0,1.24-.52,2,2,0,0,0,0-2.7,1.49,1.49,0,0,0-1.24-.52A2,2,0,0,0,157.17,24.55Zm0,2.7a1.87,1.87,0,0,1-.52-1.25,2.15,2.15,0,0,1,.52-1.35,1.71,1.71,0,0,1,1.24-.52,1.78,1.78,0,0,1,1.77,1.77,2.18,2.18,0,0,1-.52,1.35,1.73,1.73,0,0,1-1.25.52A2.15,2.15,0,0,1,157.17,27.25Z"/><path id="path3447" class="cls-3" d="M157.48,24.55v2.7h.41v-1h.42l.73,1h.62s-.73-.93-.83-1a.77.77,0,0,0,.52-.21.62.62,0,0,0,.31-.62.75.75,0,0,0-.21-.52,1.54,1.54,0,0,0-.73-.21h-1.24Zm1.35.1a.88.88,0,0,1,.62.21.75.75,0,0,1,0,1c-.21.1-.31.21-.52.21h-.1s.73.93.83,1h-.42l-.72-1H158v1h-.31v-2.5Z"/><path id="path3449" class="cls-3" d="M157.89,24.86v.94h.83c.42,0,.63-.21.63-.52,0-.11-.11-.21-.21-.32a.8.8,0,0,0-.52-.1Zm.73.1c.21,0,.31,0,.42.11s.1.1.1.31-.21.42-.52.42h-.73v-.73C158,25,158.62,25,158.62,25Z"/></g></g></g></g></svg>