<svg xmlns="http://www.w3.org/2000/svg" viewBox="0 0 164 76.75"><defs><style>.cls-1{fill:#023b73;}.cls-2{fill:#db240c;}.cls-3{fill:none;}</style></defs><title>citibank-logo</title><g id="Layer_2" data-name="Layer 2"><g id="Layer_1-2" data-name="Layer 1"><g id="ttiLg2"><path class="cls-1" d="M29.39,46.71,32,49.85a11.28,11.28,0,0,1-1.4,1.45,9.52,9.52,0,0,1-4.86,2.3,11.78,11.78,0,0,1-3.14.07,12.42,12.42,0,0,1-3.87-1,10.56,10.56,0,0,1-6.09-7.22,13.82,13.82,0,0,1-.36-4.3A12.13,12.13,0,0,1,13,37.53a10.37,10.37,0,0,1,5-5.62,12.69,12.69,0,0,1,6.73-1.37,9.64,9.64,0,0,1,6.38,3c.26.26.49.53.74.79.07.08.07.13,0,.22l-2.51,3c-.12-.11-.23-.21-.33-.32a8.69,8.69,0,0,0-2.84-1.9,6.81,6.81,0,0,0-8.82,3.86,8.45,8.45,0,0,0-.26.81,7.8,7.8,0,0,0,.64,5.78,6.48,6.48,0,0,0,5,3.43,7,7,0,0,0,5.73-1.68C28.77,47.31,29.06,47,29.39,46.71Z"/><path class="cls-1" d="M57.46,48.32a4.29,4.29,0,0,1-.22.94c-.27,1.05-.54,2.09-.8,3.13a.42.42,0,0,1-.24.32,7,7,0,0,1-3.1.92A6.54,6.54,0,0,1,51,53.48a4.84,4.84,0,0,1-3.29-2.92,7.12,7.12,0,0,1-.5-2.85V35.48c0-.36,0-.36-.38-.36H43.53c-.25,0-.26,0-.26-.24V31.13c0-.24,0-.25.25-.25H47c.21,0,.21,0,.21-.22v-4a.46.46,0,0,1,.29-.47l3.91-2.08.31-.16v6.66c0,.31,0,.3.3.3h4.17c.16,0,.19.06.19.2v3.83c0,.2,0,.21-.24.21H52c-.35,0-.31,0-.31.29V46.9a5.92,5.92,0,0,0,.11,1.19,1.78,1.78,0,0,0,1.73,1.45,5.45,5.45,0,0,0,2.43-.45,8.54,8.54,0,0,0,1.31-.68C57.31,48.38,57.36,48.32,57.46,48.32Z"/><path class="cls-1" d="M74.35,50.34v2.75c0,.21,0,.22-.22.22H71.94c-.21,0-.21,0-.22-.22V24.2a.67.67,0,0,0,0-.2.26.26,0,0,1,.16-.26L74.2,22.4h.12V34.2c.14,0,.18-.13.25-.2a12.9,12.9,0,0,1,2-1.91,7.91,7.91,0,0,1,5.14-1.54,6.62,6.62,0,0,1,5.82,3.77,12.17,12.17,0,0,1,1.24,3.81A21.66,21.66,0,0,1,89,42.82a16.84,16.84,0,0,1-1,5.35,9.64,9.64,0,0,1-2.29,3.67,6.61,6.61,0,0,1-4.08,1.91,7.45,7.45,0,0,1-6.28-2.26c-.27-.28-.53-.57-.78-.86l-.26-.3Zm0-8.26v5.56a.82.82,0,0,0,.09.41,7.78,7.78,0,0,0,4.32,3.21,6.42,6.42,0,0,0,3.31.13,4.69,4.69,0,0,0,3-2.36,9.9,9.9,0,0,0,1.16-3.54,18.43,18.43,0,0,0,.25-2.87,18,18,0,0,0-.3-4.27A9,9,0,0,0,85,35.22a5,5,0,0,0-4-2.42,6.6,6.6,0,0,0-3.8.91A9.8,9.8,0,0,0,74.54,36a.74.74,0,0,0-.2.51C74.35,38.39,74.35,40.24,74.35,42.08Z"/><path class="cls-1" d="M106.2,41.19a.17.17,0,0,0,0-.17V37.89a6.39,6.39,0,0,0-.45-2.52A3.89,3.89,0,0,0,103.2,33a7.74,7.74,0,0,0-2.67-.31,11.92,11.92,0,0,0-5.33,1.55l-.12.06c-.06,0-.08-.08-.1-.13l-.78-1.73c-.1-.24-.13-.22.13-.35A15,15,0,0,1,98,30.86a16.24,16.24,0,0,1,4.56-.28,9.38,9.38,0,0,1,2.52.55,5.43,5.43,0,0,1,3.46,3.9,8.76,8.76,0,0,1,.3,2.28V53c0,.35,0,.31-.33.31h-2c-.37,0-.31,0-.31-.3V50.12a.58.58,0,0,0-.24.2,12.32,12.32,0,0,1-2,1.82,8.34,8.34,0,0,1-4.27,1.61A8.75,8.75,0,0,1,96,53.34a5.57,5.57,0,0,1-3.65-3.75,9,9,0,0,1-.13-4.54,6,6,0,0,1,3.16-4.18,9.69,9.69,0,0,1,3.31-1,12.77,12.77,0,0,1,4.53.22,9.35,9.35,0,0,1,2.67,1A.84.84,0,0,0,106.2,41.19Zm0,4.47V43.39a.3.3,0,0,0-.18-.31,9.82,9.82,0,0,0-2.09-.87,13.68,13.68,0,0,0-3.93-.44,7.18,7.18,0,0,0-2.55.45,4.19,4.19,0,0,0-2.7,3A6.7,6.7,0,0,0,95,48.88a4.08,4.08,0,0,0,3.41,2.75,7.64,7.64,0,0,0,4.61-.72,8.62,8.62,0,0,0,3.13-2.68.5.5,0,0,0,.1-.35Z"/><path class="cls-1" d="M139,22.37V43.63c.07,0,.09,0,.11-.07,2.2-3.46,4.62-6.76,6.92-10.15l1.51-2.19a.42.42,0,0,1,.39-.21h2.57c0,.12-.09.19-.15.27L145,38.54a.42.42,0,0,0,0,.51q3.36,7,6.71,14a.94.94,0,0,1,.1.23c-.06.08-.14,0-.21,0h-2.32a.32.32,0,0,1-.36-.23L144.11,43l-.82-1.74L143.2,41c-.09,0-.12.13-.17.2l-3.92,5.49a.77.77,0,0,0-.14.44V53c0,.33.05.32-.32.32h-2c-.26,0-.26,0-.26-.26V24a.2.2,0,0,1,.11-.2l2.44-1.39Z"/><path class="cls-2" d="M68.56,27.15a.61.61,0,0,1-.27,0H63.55a.58.58,0,0,1-.44-.18A18.53,18.53,0,0,0,57,22.81a17.23,17.23,0,0,0-5-1.3,17.79,17.79,0,0,0-12.5,3.34A18.13,18.13,0,0,0,37,27a.43.43,0,0,1-.34.16H31.57s.08-.14.12-.21A22.56,22.56,0,0,1,44.2,18.18a20.68,20.68,0,0,1,4.74-.78,22.6,22.6,0,0,1,19.41,9.42Z"/><path class="cls-1" d="M116.92,34.37l.41-.6a7.36,7.36,0,0,1,1.28-1.5,6.83,6.83,0,0,1,3.59-1.65,8.6,8.6,0,0,1,4.09.37,6.15,6.15,0,0,1,3.76,3.62,11.2,11.2,0,0,1,.8,3.32c.12,1.27.07,2.53.07,3.8V53.05c0,.26,0,.26-.27.26h-2.07c-.34,0-.28,0-.28-.29V39.85a12.06,12.06,0,0,0-.51-3.58A5.46,5.46,0,0,0,127,34.7a4.07,4.07,0,0,0-2.13-1.58,6.56,6.56,0,0,0-3.8-.12,5.1,5.1,0,0,0-3.35,2.88,9.44,9.44,0,0,0-.79,3,15,15,0,0,0-.06,1.64V53c0,.25,0,.28-.28.28h-2.07c-.3,0-.28,0-.28-.28V31.41c0-.39,0-.39.39-.39h1.87c.43,0,.36-.05.37.35v3Z"/><path class="cls-1" d="M34.62,42.1V31.2c0-.39,0-.33.33-.33h4.11c.13,0,.17.06.16.17V53c0,.31,0,.31-.3.31H34.78c-.11,0-.17,0-.16-.14Z"/><path class="cls-1" d="M65.63,42.08V53c0,.36.06.34-.33.34H61.2c-.21,0-.21,0-.21-.22V31.22c0-.41,0-.35.34-.35h4.14a.11.11,0,0,1,.12.12V42.08Z"/></g><rect class="cls-3" width="164" height="76.75"/></g></g></svg>