<svg xmlns="http://www.w3.org/2000/svg" viewBox="0 0 164 76.75"><defs><style>.cls-1{fill:none;}</style></defs><title>conde-logo</title><g id="Layer_2" data-name="Layer 2"><g id="Layer_1-2" data-name="Layer 1"><g id="ars-icon-logo-cn-us"><polygon points="84.24 26.39 83.93 25.45 84.24 23.8 84.09 23.73 79.78 27.33 79.78 27.41 84.24 26.39"/><path d="M18.42,43.47a4.16,4.16,0,0,1-3,1.26c-3.44,0-4.31-3.06-4.31-6.66s.79-6.67,4.24-6.67a3.64,3.64,0,0,1,2.82,1.26l2,3h.15V31.17h-.15l-1.81.94a4.62,4.62,0,0,0-3-1.1,7.14,7.14,0,1,0,.07,14.26,4.81,4.81,0,0,0,3.14-1.17l1.72,1h.16v-4.7H20.3Z"/><path d="M31.27,30.93a7.38,7.38,0,0,0-7.21,7.14,7.21,7.21,0,0,0,14.42,0A7.32,7.32,0,0,0,31.27,30.93Zm0,13.8c-3.29,0-4.15-2.9-4.15-6.66S28,31.4,31.27,31.4s4.16,2.9,4.16,6.67S34.64,44.73,31.27,44.73Z"/><polygon points="50.94 31.56 52.66 31.56 52.66 40.18 52.59 40.18 46.47 31.17 40.99 31.17 40.99 31.56 42.63 31.56 42.63 44.57 40.99 44.57 40.99 44.96 44.91 44.96 44.91 44.57 43.18 44.57 43.18 31.56 43.18 31.56 53.06 45.2 53.21 45.2 53.21 31.56 54.86 31.56 54.86 31.17 50.94 31.17 50.94 31.56"/><path d="M64,31.17H57.84v.39h1.8v13h-1.8V45H64c3,0,8.15-1.33,8.15-7S67.08,31.17,64,31.17Zm-.16,13.4H62.38v-13h1.49c3.6,0,5.25,2.59,5.25,6.51S67.47,44.57,63.87,44.57Z"/><path d="M84.48,44.57H79.31V37.75h2.58a10,10,0,0,1,1.8,2.67h.16V34.7h-.16a10.15,10.15,0,0,1-1.8,2.66H79.31v-5.8h4.62a10,10,0,0,1,2.51,3.29h.15V31.17H74.76v.39h1.8v13h-1.8V45H87V40.34h-.16A16.39,16.39,0,0,1,84.48,44.57Z"/><polygon points="105.63 31.56 107.36 31.56 107.36 40.18 107.28 40.18 101.17 31.17 95.6 31.17 95.6 31.56 97.33 31.56 97.33 44.57 95.6 44.57 95.6 44.96 99.52 44.96 99.52 44.57 97.88 44.57 97.88 31.56 97.88 31.56 107.75 45.2 107.83 45.2 107.83 31.56 109.55 31.56 109.55 31.17 105.63 31.17 105.63 31.56"/><path d="M118.41,30.7h-.16l-5.88,13.79h-1.64v.39h3.68v-.39h-1.57L115,39.55h4.47l2.27,4.94h-1.8v.39h6.42v-.39h-1.64Zm-3.22,8.54,2-4.78,2.12,4.78Z"/><path d="M136,36.89,133.29,36c-1.33-.47-2.42-1.1-2.42-2.43s1.17-2.19,3-2.19a3,3,0,0,1,2.43.94l2,3h.16V30.86h-.16l-1.8.94a3.8,3.8,0,0,0-2.59-.94,4.15,4.15,0,0,0-4.38,3.91v.16c0,2,1.41,3,2.89,3.53l2.75,1c1.49.54,2.43,1.17,2.43,2.58s-.94,2.59-3.29,2.59a5.52,5.52,0,0,1-3.14-1.18l-2-3.37h-.23v4.78h.23l1.73-.94a5.86,5.86,0,0,0,3.29,1.18A4.63,4.63,0,0,0,139,40.65C139,38.3,137.76,37.44,136,36.89Z"/><path d="M142.23,31.17v4.31h.15a22.28,22.28,0,0,1,2.43-3.92h2.43v13h-2.19V45h7.13v-.39H150v-13h2.42a21.71,21.71,0,0,1,2.43,3.92H155V31.25H142.23Z"/></g><rect class="cls-1" width="164" height="76.75"/></g></g></svg>