<svg xmlns="http://www.w3.org/2000/svg" viewBox="0 0 164 76.75"><defs><style>.cls-1{fill:#b31b1b;}.cls-2{fill:none;}</style></defs><title>cornell-logo</title><g id="Layer_2" data-name="Layer 2"><g id="Layer_1-2" data-name="Layer 1"><path class="cls-1" d="M21.67,55.86a16.69,16.69,0,1,1,16.7-16.7A16.69,16.69,0,0,1,21.67,55.86Zm0-31.56A14.86,14.86,0,1,0,36.53,39.16,14.86,14.86,0,0,0,21.67,24.3Zm0,29.6-.27-.12a22.62,22.62,0,0,1-4.86-3c-3.25-2.63-5-5.67-5-8.81V28.48H31.75V42.2c0,7.22-9.4,11.42-9.79,11.58Zm-8.74-24V42c0,6,7.23,9.72,8.73,10.44,1.5-.72,8.71-4.51,8.71-10.2V29.85Zm4.38,6.57-.22-.13c-.05,0-1.06-.62-1.73-1.07s-.86-.78-.89-1.22V30.15h5.73V34a1.63,1.63,0,0,1-.84,1.22c-.83.54-1.78,1.06-1.82,1.09Zm-1.94-5.35v2.87a2.05,2.05,0,0,0,.48.53c.29.19,1.13.7,1.46.9.36-.2,1.05-.6,1.52-.9.17-.11.44-.32.44-.5v-2.9Zm10.88,5.34L26,36.27S25,35.65,24.3,35.2s-.85-.78-.88-1.22c0-.07,0-1.21,0-3.4v-.45h5.73V34a1.7,1.7,0,0,1-.85,1.22c-.81.54-1.77,1.06-1.82,1.09Zm-1.94-5.36v2.87a1.73,1.73,0,0,0,.48.53c.28.2,1.13.71,1.46.9.36-.19,1-.6,1.52-.9.16-.1.43-.32.43-.5v-2.9ZM11.86,36.69H31.58v1.19H11.86Zm9.79,12a.83.83,0,0,1-.66-.38.32.32,0,0,0-.3-.15,11.27,11.27,0,0,0-1.35.08c-.45,0-.93.09-1.64.1s-1.25,0-1.27,0l-.51,0V39.07H18c.33,0,.73,0,1.18-.09l.82-.09a4.29,4.29,0,0,1,1.24.06,1.57,1.57,0,0,1,.43.15,1.69,1.69,0,0,1,.43-.15,4.31,4.31,0,0,1,1.24-.06l.82.09c.45,0,.84.09,1.17.09h2.09v9.18l-.51,0s-.57,0-1.26,0-1.21-.06-1.64-.1a11.19,11.19,0,0,0-1.36-.08.36.36,0,0,0-.34.17A.89.89,0,0,1,21.65,48.64Zm-1-1.61a1.32,1.32,0,0,1,1,.36,1.34,1.34,0,0,1,.95-.36,14.86,14.86,0,0,1,1.49.07,15.13,15.13,0,0,0,1.56.09h.66V40.12h-1c-.38,0-.79,0-1.27-.1l-.81-.08a3.53,3.53,0,0,0-.92,0,.3.3,0,0,0-.16.08.23.23,0,0,0,0-.14l-.53-.07-.52.07a.23.23,0,0,0,0,.14A.37.37,0,0,0,21,40a3.25,3.25,0,0,0-.88,0l-.83.09c-.48,0-.89.09-1.27.11H17v7.07h.67c.66,0,1.13-.06,1.57-.09s.87-.09,1.44-.09ZM14.93,31.94h4.78v.8H14.93Zm6.27,5h1.1V53.22H21.2Zm7.12-3.19-2.14-1.42-1.94,1.42-.46-.66,2.39-1.73,2.59,1.73-.44.66ZM17.74,41.15h2.41V42H17.74Zm0,1.91h2.41v.8H17.74Zm0,1.89h2.41v.81H17.74ZM23,41.15h2.41V42H23Zm0,1.91h2.41v.8H23ZM23,45h2.41v.81H23Zm24.71-9.49a3.26,3.26,0,0,1,1.25-.78,5.22,5.22,0,0,1,1.71-.26,4.81,4.81,0,0,1,2.06.35,1.26,1.26,0,0,1,.77,1v.85h.44a10.89,10.89,0,0,1,.15-1.4,3.61,3.61,0,0,1,.24-.77l-1-.24A12.3,12.3,0,0,0,52,34a9.66,9.66,0,0,0-1.2-.07,6,6,0,0,0-4.32,1.49,5,5,0,0,0-1.58,3.76,5.4,5.4,0,0,0,.24,1.65,4.73,4.73,0,0,0,.68,1.39A4.91,4.91,0,0,0,47,43.33a5.13,5.13,0,0,0,1.65.79,7.1,7.1,0,0,0,2,.29A6.8,6.8,0,0,0,54,43.6l.27-.66-.12-.15a4.17,4.17,0,0,1-1.13.58,5.5,5.5,0,0,1-1.8.27,4.68,4.68,0,0,1-3.48-1.31,4.74,4.74,0,0,1-1.32-3.47,5.52,5.52,0,0,1,.34-2A4.12,4.12,0,0,1,47.67,35.46Zm10.47,1.85a3.53,3.53,0,0,0-2.6,1,3.49,3.49,0,0,0-1,2.6,4.31,4.31,0,0,0,.33,1.66,3.15,3.15,0,0,0,.54.85,2.72,2.72,0,0,0,.93.69,3.22,3.22,0,0,0,1.4.28,4,4,0,0,0,1.94-.49A3.42,3.42,0,0,0,61,42.56a3.71,3.71,0,0,0,.48-1.9,3.25,3.25,0,0,0-.94-2.42,3.36,3.36,0,0,0-2.44-.93Zm1.44,5.93a1.73,1.73,0,0,1-1.38.64,1.93,1.93,0,0,1-1.2-.42,2.48,2.48,0,0,1-.85-1.31,5.6,5.6,0,0,1-.28-1.77,3,3,0,0,1,.54-2,1.75,1.75,0,0,1,1.41-.63,2,2,0,0,1,1.13.33,2.34,2.34,0,0,1,.84,1.16,4.93,4.93,0,0,1,.33,1.94,3.07,3.07,0,0,1-.54,2Zm6.89-5.9a1.59,1.59,0,0,0-.57.1,1.77,1.77,0,0,0-.49.31,3.47,3.47,0,0,0-.4.46c-.18.24-.37.48-.58.74q0-.9,0-1.35v-.13a.19.19,0,0,0,0-.1.11.11,0,0,0-.08,0l-.19.07a7,7,0,0,1-2.08.52v.4a7.07,7.07,0,0,1,.92,0,.25.25,0,0,1,.16.12,1.4,1.4,0,0,1,.06.5c0,.44,0,.85,0,1.22V41c0,.06,0,.72,0,2a1.52,1.52,0,0,1-.09.51.3.3,0,0,1-.09.13.28.28,0,0,1-.18.06l-.87,0v.41c.57,0,1.16-.05,1.76-.05l2.14.05v-.41a7.49,7.49,0,0,1-1.16-.13.38.38,0,0,1-.15-.09.48.48,0,0,1-.08-.18,5.25,5.25,0,0,1,0-.56c0-.83,0-1.4,0-1.71v-.74A2.12,2.12,0,0,1,64.82,39a1.2,1.2,0,0,1,.93-.45,1,1,0,0,1,.54.15,1.2,1.2,0,0,1,.39.5H67c0-.48,0-1,.12-1.67l0-.11a1.57,1.57,0,0,0-.61-.06Zm8.46,6.32a.64.64,0,0,1-.11-.3c0-.23,0-.65,0-1.27V40.83c0-1,0-1.56,0-1.79a2,2,0,0,0-.35-.9,1.91,1.91,0,0,0-.76-.59,2.63,2.63,0,0,0-1.1-.24,3.16,3.16,0,0,0-1.1.21l-1.33,1.13c0-.56,0-.92,0-1.08v-.13a.1.1,0,0,0,0-.1.08.08,0,0,0-.07,0l-.2.07a7.11,7.11,0,0,1-2.07.52v.4a4.75,4.75,0,0,1,.92,0,.35.35,0,0,1,.15.12,2.07,2.07,0,0,1,.06.5c0,.44,0,.85,0,1.22V41c0,1.3,0,2,0,2.05a1.3,1.3,0,0,1-.11.51.34.34,0,0,1-.12.12.46.46,0,0,1-.23.06h-.67v.4l1.94,0c.47,0,1,0,1.56,0v-.4h-.78a.42.42,0,0,1-.18-.08.22.22,0,0,1-.09-.1,1.6,1.6,0,0,1-.09-.53c0-.1,0-.77,0-2v-.86a2.19,2.19,0,0,1,.2-1.11,1.63,1.63,0,0,1,.63-.59,1.83,1.83,0,0,1,1-.25,1.74,1.74,0,0,1,1,.28,1.28,1.28,0,0,1,.54.77,7.12,7.12,0,0,1,.09,1.46v1.2c0,.31,0,1.06-.07,2.23l1.31-.05,1.14.05v-.41h-.77a.3.3,0,0,1-.25-.09Zm6.09-6a2.9,2.9,0,0,0-1.44-.36,3.2,3.2,0,0,0-1.22.24,4.24,4.24,0,0,0-.86.47,4,4,0,0,0-.65.52,2.91,2.91,0,0,0-.51,1A4.54,4.54,0,0,0,76.15,41a3.72,3.72,0,0,0,.42,1.82A2.69,2.69,0,0,0,77.76,44a3.7,3.7,0,0,0,1.7.4,4,4,0,0,0,.9-.11,4.36,4.36,0,0,0,.77-.26,6.3,6.3,0,0,0,.72-.4l.23-.51L82,43a6.47,6.47,0,0,1-1.06.51,2.93,2.93,0,0,1-.88.13,2.63,2.63,0,0,1-1.23-.3,2.09,2.09,0,0,1-.93-.93,3.41,3.41,0,0,1-.35-1.64h2.29q.76,0,1.53-.06a7,7,0,0,0,.92-.14,3.87,3.87,0,0,0,0-.48,3.11,3.11,0,0,0-.3-1.41,2.2,2.2,0,0,0-1-1ZM81,40.21a12.08,12.08,0,0,1-1.25,0l-1.46,0-.75,0A2.79,2.79,0,0,1,78,38.36a1.69,1.69,0,0,1,1.3-.57,1.55,1.55,0,0,1,1.22.53A2.47,2.47,0,0,1,81,40,2.06,2.06,0,0,1,81,40.21Zm4.27,3.48a.31.31,0,0,1-.09-.11,1.14,1.14,0,0,1-.09-.52c0-.11,0-.77,0-2V36.27c0-.6,0-1.32,0-2.17v-.24a.57.57,0,0,0,0-.13.1.1,0,0,0,0-.09l-.07,0-.14,0a8.37,8.37,0,0,1-2.21.52v.4a5,5,0,0,1,1,0,.19.19,0,0,1,.13.1,4.53,4.53,0,0,1,.07,1c0,.84,0,1.66,0,2.45v3c0,1.3,0,2,0,2a1.13,1.13,0,0,1-.09.51.34.34,0,0,1-.12.12.5.5,0,0,1-.24.06h-.68v.41l1.82,0c.48,0,1,0,1.69,0v-.41h-.78Zm4.09,0a.31.31,0,0,1-.09-.11,1.5,1.5,0,0,1-.09-.52c0-.1,0-.77,0-2V36.27c0-.6,0-1.32.05-2.17v-.24s0-.09,0-.13a.14.14,0,0,0,0-.09l-.07,0-.14,0a8.37,8.37,0,0,1-2.21.52v.4a5,5,0,0,1,1,0,.17.17,0,0,1,.12.1,5,5,0,0,1,.08,1c0,.84,0,1.66,0,2.45v3c0,1.3,0,2,0,2a1.48,1.48,0,0,1-.09.51.34.34,0,0,1-.12.12.53.53,0,0,1-.24.06h-.68v.41l1.82,0c.48,0,1,0,1.68,0v-.41h-.79Zm14.93-9.62-1.76.06-1.72-.06v.47a5,5,0,0,1,1,.08.42.42,0,0,1,.27.18,1.67,1.67,0,0,1,.1.79c0,.46,0,1.25,0,1.88v2.19c0,.51,0,1-.08,1.53a3.07,3.07,0,0,1-.23,1,1.68,1.68,0,0,1-.46.63,2.36,2.36,0,0,1-.93.48,4.56,4.56,0,0,1-1.42.2,5.05,5.05,0,0,1-1.23-.15,2.79,2.79,0,0,1-.88-.39,1.85,1.85,0,0,1-.61-.8,6.48,6.48,0,0,1-.2-2V37.51c0-1.26,0-1.93,0-2a1.69,1.69,0,0,1,.11-.69.46.46,0,0,1,.24-.17,5,5,0,0,1,1-.07v-.47c-.66,0-1.34.06-2,.06s-1.39,0-2.17-.06v.47a5,5,0,0,1,1,.07.51.51,0,0,1,.26.18,2.08,2.08,0,0,1,.1.8c0,.45,0,1.25,0,1.9v3.14a6.93,6.93,0,0,0,.2,2,2.32,2.32,0,0,0,.57.85,3.07,3.07,0,0,0,1.22.68,6.91,6.91,0,0,0,3.61,0,3.28,3.28,0,0,0,1.26-.61,2.81,2.81,0,0,0,.91-1.24,8.45,8.45,0,0,0,.24-2.45V37.51c0-1.26,0-1.93,0-2a1.85,1.85,0,0,1,.11-.69.44.44,0,0,1,.25-.17,5.05,5.05,0,0,1,1-.07v-.47Zm7.11,9.6a.62.62,0,0,1-.12-.3q0-.33,0-1.26V40.85c0-.6,0-1.2,0-1.8a2,2,0,0,0-.35-.9,1.77,1.77,0,0,0-.77-.58,2.59,2.59,0,0,0-1.09-.25,3.17,3.17,0,0,0-1.1.22l-1.33,1.12c0-.55,0-.91,0-1.08v-.12a.23.23,0,0,0,0-.11l-.07,0-.2.08a7.51,7.51,0,0,1-2.07.51v.41a4.52,4.52,0,0,1,.9,0,.29.29,0,0,1,.15.12,2.05,2.05,0,0,1,.06.49c0,.44,0,.85,0,1.22V41q0,1.95,0,2a1.26,1.26,0,0,1-.11.51.28.28,0,0,1-.12.12.43.43,0,0,1-.22.06h-.68v.41l1.94-.05c.47,0,1,0,1.57.05v-.41h-.79a.45.45,0,0,1-.18-.07.33.33,0,0,1-.09-.11,1.54,1.54,0,0,1-.09-.52c0-.11,0-.77,0-2V40.2a2.56,2.56,0,0,1,.18-1.12,1.7,1.7,0,0,1,.64-.58,1.93,1.93,0,0,1,1-.26,1.79,1.79,0,0,1,1,.29,1.29,1.29,0,0,1,.54.77,8.83,8.83,0,0,1,.09,1.45V42c0,.31,0,1-.08,2.22l1.31,0,1.16,0v-.4h-.77a.36.36,0,0,1-.21-.11Zm3.28-7.9a.79.79,0,0,0,.8-.79.75.75,0,0,0-.23-.57.72.72,0,0,0-.55-.24.79.79,0,0,0-.8.79.8.8,0,0,0,.8.8Zm.91,7.93a.47.47,0,0,1-.1-.1,1.5,1.5,0,0,1-.07-.51c0-.11,0-.77-.05-2V39.78c0-.53,0-1.31,0-2.32l-.15-.11a7.2,7.2,0,0,1-2.28.61v.4a4.78,4.78,0,0,1,1,0,.33.33,0,0,1,.15.16,6.61,6.61,0,0,1,.07,1.25v1.25c0,1.29,0,2,0,2a1.44,1.44,0,0,1-.1.5.34.34,0,0,1-.12.12.47.47,0,0,1-.23,0h-.68v.41l1.85-.06,1.72.06v-.41h-.78Zm8.5-6.18-1.37.06-1.36-.06v.41a2.23,2.23,0,0,1,.92.12.17.17,0,0,1,.09.16.76.76,0,0,1,0,.21,9.63,9.63,0,0,1-.45,1.31l-.65,1.61L120.48,43c-.09-.19-.25-.58-.48-1.15l-.21-.48-.87-2.16a3.6,3.6,0,0,1-.29-.92.26.26,0,0,1,.14-.21,3,3,0,0,1,.9-.11v-.43l-1.64.06-1.71-.06v.4l.52.05a.41.41,0,0,1,.23.13,1.76,1.76,0,0,1,.24.42l1.46,3.4.59,1.37.39,1h.73c.71-1.67,1.12-2.64,1.24-2.9l.68-1.46.76-1.55a.9.9,0,0,1,.29-.35,1.47,1.47,0,0,1,.59-.1Zm4.83.17a3,3,0,0,0-1.45-.37,3,3,0,0,0-1.22.25,4.74,4.74,0,0,0-.86.46,3.54,3.54,0,0,0-.63.53,2.86,2.86,0,0,0-.51,1A4.53,4.53,0,0,0,124,41a3.72,3.72,0,0,0,.42,1.82A2.72,2.72,0,0,0,125.59,44a3.7,3.7,0,0,0,1.7.4,4,4,0,0,0,.9-.11A4.36,4.36,0,0,0,129,44a7.28,7.28,0,0,0,.72-.4l.22-.51-.12-.12a5.54,5.54,0,0,1-1.07.51,2.76,2.76,0,0,1-2.09-.17,2.14,2.14,0,0,1-.93-.93,3.41,3.41,0,0,1-.35-1.64h2.29c.51,0,1,0,1.54-.06a7.15,7.15,0,0,0,.91-.14,3.87,3.87,0,0,0,0-.48,3.11,3.11,0,0,0-.3-1.41,2.15,2.15,0,0,0-.95-1Zm-.08,2.54c-.2,0-.62,0-1.25,0l-1.46,0-.75,0a2.71,2.71,0,0,1,.5-1.82,1.59,1.59,0,0,1,1.29-.57,1.54,1.54,0,0,1,1.22.52,2.49,2.49,0,0,1,.45,1.64.94.94,0,0,1,0,.24Zm6.48-2.88a1.6,1.6,0,0,0-.57.11,1.54,1.54,0,0,0-.49.3,3,3,0,0,0-.4.47c-.18.24-.37.48-.58.73q0-.9,0-1.35v-.12a.23.23,0,0,0,0-.11.11.11,0,0,0-.08,0l-.19.08a7.6,7.6,0,0,1-2.08.51v.41a4.72,4.72,0,0,1,.92,0,.28.28,0,0,1,.16.12A1.38,1.38,0,0,1,132,39c0,.45,0,.85,0,1.22v.85q0,.09,0,2a1.44,1.44,0,0,1-.09.51.26.26,0,0,1-.09.14.48.48,0,0,1-.18.06l-.87,0v.4c.57,0,1.16,0,1.76,0l2.14,0v-.4a7.5,7.5,0,0,1-1.16-.14.24.24,0,0,1-.15-.09.37.37,0,0,1-.08-.18,5.07,5.07,0,0,1,0-.55c0-.83,0-1.4,0-1.72v-.74a2,2,0,0,1,.39-1.35,1.18,1.18,0,0,1,.94-.45.87.87,0,0,1,.54.15,1.24,1.24,0,0,1,.37.5h.32c0-.49,0-1,.12-1.67l0-.11a1.48,1.48,0,0,0-.59-.08Zm5.81,3.33a6.76,6.76,0,0,0-1.23-.39L138.67,40a2,2,0,0,1-.52-.22.84.84,0,0,1-.3-.32,1,1,0,0,1-.11-.48,1.15,1.15,0,0,1,.38-.87,1.39,1.39,0,0,1,1-.38,2.24,2.24,0,0,1,.73.12,1.83,1.83,0,0,1,.5.26,1,1,0,0,1,.27.27,1.39,1.39,0,0,1,.12.28,5.25,5.25,0,0,1,.08.68h.4c0-.54,0-1.08.08-1.61a4,4,0,0,0-1-.3,5.08,5.08,0,0,0-1-.12,3.34,3.34,0,0,0-1.39.3,2.12,2.12,0,0,0-.93.77,1.91,1.91,0,0,0-.3,1,1.85,1.85,0,0,0,.13.7,1.6,1.6,0,0,0,.38.54,2,2,0,0,0,.63.37c.18.06.57.16,1.18.3a6,6,0,0,1,1.17.33,1,1,0,0,1,.57.89,1.27,1.27,0,0,1-.47,1.05,1.79,1.79,0,0,1-1.2.39l-.66,0a1.69,1.69,0,0,1-.44-.12,1.58,1.58,0,0,1-.39-.24,1.05,1.05,0,0,1-.27-.39,1.91,1.91,0,0,1-.12-.47c0-.22,0-.44,0-.66h-.4c0,.62,0,1,0,1.22s-.05.4-.09.6a.5.5,0,0,0,0,.12.08.08,0,0,0,0,.07,2.61,2.61,0,0,0,.61.16,11.14,11.14,0,0,0,1.63.18,3.11,3.11,0,0,0,2.13-.71,2.16,2.16,0,0,0,.79-1.67,1.51,1.51,0,0,0-.21-.83,1.21,1.21,0,0,0-.51-.54Zm3.27-4.91a.79.79,0,0,0,.79-.79.75.75,0,0,0-.22-.57.72.72,0,0,0-.56-.24.79.79,0,0,0-.57,1.35.77.77,0,0,0,.57.25Zm.9,7.93a.28.28,0,0,1-.09-.1,1.51,1.51,0,0,1-.08-.51c0-.1,0-.77,0-2V39.78c0-.53,0-1.31,0-2.32l-.15-.11a7.33,7.33,0,0,1-2.29.61v.4a4.78,4.78,0,0,1,1,0,.29.29,0,0,1,.15.16,6.61,6.61,0,0,1,.07,1.25v1.25c0,1.29,0,2,0,2a1.44,1.44,0,0,1-.1.5.34.34,0,0,1-.12.12.45.45,0,0,1-.23,0h-.67v.41l1.85-.06,1.71.06v-.41h-.78Zm3.56-5.14h1.86l.15-.66,0,0-.56,0h-1.4c.06-1.36.12-2.23.19-2.62l-.17-.14a5.38,5.38,0,0,1-1.2.54v2.17a11.84,11.84,0,0,1-1.09.5v.3a5.39,5.39,0,0,1,.8-.06h.27v2.95a1.93,1.93,0,0,1,0,.25c0,.38,0,.74,0,1.06a1.84,1.84,0,0,0,.16.73,1.45,1.45,0,0,0,.3.39,1.33,1.33,0,0,0,.41.25,2,2,0,0,0,.6.09l.54,0a2.85,2.85,0,0,0,.5-.14l.65-.54-.09-.27a3.45,3.45,0,0,1-.46.12l-.46,0a1.44,1.44,0,0,1-.54-.14.67.67,0,0,1-.26-.24.93.93,0,0,1-.14-.36c0-.42,0-.84,0-1.26Zm9-1c-.42,0-.9,0-1.46-.06v.4a2.73,2.73,0,0,1,.86.15.23.23,0,0,1,.1.21.69.69,0,0,1,0,.2c-.06.22-.27.8-.64,1.73s-.63,1.56-.78,1.89l-.38.85c-.18-.41-.41-.95-.68-1.61l-.45-1.12c-.16-.41-.33-.9-.53-1.49a1.66,1.66,0,0,1-.12-.45.26.26,0,0,1,.18-.25,4,4,0,0,1,.85-.09v-.42c-.51,0-1.06.06-1.61.06s-1.16,0-1.75-.06v.4a1.85,1.85,0,0,1,.65.14.89.89,0,0,1,.27.34c.21.44.48,1.07.83,1.91l1.13,2.82q.32.78.54,1.44a16.54,16.54,0,0,1-.68,1.57,3.36,3.36,0,0,1-.44.69,1.16,1.16,0,0,1-.39.3,1,1,0,0,1-.43.09,1.76,1.76,0,0,1-.33,0l-.22-.11-.22-.18h-.17l-.36,1.1a1.9,1.9,0,0,0,.42.18,2,2,0,0,0,.43,0,1.89,1.89,0,0,0,1.57-.8,7.59,7.59,0,0,0,.7-1.32l1.64-3.86c.73-1.59,1.23-2.66,1.49-3.22a2.77,2.77,0,0,1,.6-1,1.08,1.08,0,0,1,.55-.15l.08-.4a11.87,11.87,0,0,1-1.22.06Z"/><rect class="cls-2" width="164" height="76.75"/></g></g></svg>