<svg xmlns="http://www.w3.org/2000/svg" viewBox="0 0 164 76.75"><defs><style>.cls-1{fill:none;}.cls-2{fill:#ec008c;}.cls-3{fill:#2e008b;}.cls-4{fill:#c8c9c7;}.cls-5{fill:#00b6ed;}.cls-6{fill:#bcbec0;}</style></defs><title>cruk-logo</title><g id="Layer_2" data-name="Layer 2"><g id="Layer_1-2" data-name="Layer 1"><path class="cls-1" d="M85,37a3,3,0,0,0-1.33-.2H81.81v4h2.26a1.92,1.92,0,0,0,2-2.09A1.76,1.76,0,0,0,85,37Z"/><path class="cls-1" d="M46.76,58.42a1.69,1.69,0,0,1-.89.26h0a1.6,1.6,0,0,1,.13.62,1.52,1.52,0,0,1-.23.79h.09a1.76,1.76,0,0,1,1.76,1.76,1.64,1.64,0,0,1,0,.22,1.53,1.53,0,0,1,1.12-.49,1.55,1.55,0,0,1,.31,0A2.91,2.91,0,0,1,49,61a3.13,3.13,0,0,1,.16-1A2.72,2.72,0,0,1,46.76,58.42Z"/><path class="cls-1" d="M58.8,62.82s0,0,0-.08,0,.09,0,.14Z"/><path class="cls-1" d="M32.61,42.24h0Z"/><path class="cls-1" d="M52.82,57a1.32,1.32,0,0,1-.39.06,1.46,1.46,0,0,1-.52-.1,2.73,2.73,0,0,1,0,.41,2.59,2.59,0,0,1-.09.68h.09a2.87,2.87,0,0,1,1.1.21A1.34,1.34,0,0,1,52.82,57Z"/><path class="cls-1" d="M63.61,54.94a2.54,2.54,0,0,1-.36.45,1.42,1.42,0,0,1-.61,2.71,1.42,1.42,0,0,1-1.42-1.42,1.56,1.56,0,0,1,.07-.44h-.07a2.78,2.78,0,0,1-.58-.05,2.55,2.55,0,0,1-2.17,2.52,1.7,1.7,0,0,1,.23.84,1.76,1.76,0,0,1-.5,1.22,2,2,0,0,1,.55,1,1.2,1.2,0,0,1,1.09-.7l.16,0a1.83,1.83,0,0,1,1.22-3.19,1.81,1.81,0,0,1,1.64,1,2.38,2.38,0,0,1,1.36-.48,2.91,2.91,0,0,1-.15-.89,2.64,2.64,0,0,1,.54-1.6A1.42,1.42,0,0,1,63.61,54.94Z"/><path class="cls-1" d="M41.32,24.79a1.33,1.33,0,0,1-.8.69,1.8,1.8,0,0,1,.61.4,2.17,2.17,0,0,1,.33-1Z"/><path class="cls-1" d="M36.87,53.41s0-.07,0-.1l-.07,0S36.85,53.39,36.87,53.41Z"/><path class="cls-1" d="M56.22,57.94a2.56,2.56,0,0,1,.24-3.76,1.38,1.38,0,0,1-.28-.19s0,.09,0,.13a1.1,1.1,0,0,1-1.34.74,1,1,0,0,1-.43-.26.82.82,0,0,1-.58.6,1.15,1.15,0,0,1,.06.37,1.42,1.42,0,0,1-.07.42,1.59,1.59,0,0,1,.38-.06,1.43,1.43,0,0,1,0,2.86,1,1,0,0,1-.24,0,3,3,0,0,1,1,2.23c0,.1,0,.2,0,.3a2.12,2.12,0,0,1,.6-.7,1.71,1.71,0,0,1-.35-1A1.77,1.77,0,0,1,56.22,57.94Z"/><path class="cls-1" d="M119.79,36.93h0s-.26,1-.45,1.59l-1.25,3.56h3.4l-1.24-3.56C120,38,119.79,36.93,119.79,36.93Z"/><path class="cls-1" d="M54.25,15.19a1.16,1.16,0,0,1,0,.18l.25.05A1.12,1.12,0,0,1,54.25,15.19Z"/><path class="cls-1" d="M60.35,25.79a2.49,2.49,0,0,1-.83,1.68h.13a1.4,1.4,0,0,1,.41.06,2.28,2.28,0,0,1,.58-1.31A1.37,1.37,0,0,1,60.35,25.79Z"/><path class="cls-1" d="M138.09,23.19A1.77,1.77,0,0,0,137,21.44a3.07,3.07,0,0,0-1.34-.19h-1.87v4h2.26A1.92,1.92,0,0,0,138.09,23.19Z"/><path class="cls-1" d="M95.56,23c-.19-.57-.42-1.59-.42-1.59h0s-.25,1-.44,1.59L93.4,26.58h3.41Z"/><path class="cls-1" d="M61.68,23.77a1.43,1.43,0,0,1,1.39,1.42,1.66,1.66,0,0,1,0,.33,2.46,2.46,0,0,1,.73.35,1.77,1.77,0,0,1,0-.41,1.71,1.71,0,0,1,.21-.81,2.07,2.07,0,0,1-1.32-1.41A2.12,2.12,0,0,1,61.68,23.77Z"/><path class="cls-1" d="M130.72,37a3.06,3.06,0,0,0-1.34-.2H127.5v4h2.26a1.93,1.93,0,0,0,2-2.09A1.77,1.77,0,0,0,130.72,37Z"/><path class="cls-1" d="M61.32,19.65A1.35,1.35,0,0,1,61,18.19a1.72,1.72,0,0,1-.85.85,1.33,1.33,0,0,1,.08.45,1.27,1.27,0,0,1,0,.34,2,2,0,0,1,.89-.2Z"/><path class="cls-1" d="M58.41,22.2a1.7,1.7,0,0,1-.23.84,2.55,2.55,0,0,1,2.08,1.82,1.42,1.42,0,0,1,.9-1H61.1a2.1,2.1,0,0,1-1.81-3.2l-.21,0a1.18,1.18,0,0,1-.88-.4,1.29,1.29,0,0,1-.58.45A1.79,1.79,0,0,1,58.41,22.2Z"/><path class="cls-2" d="M35.94,22.86a1.39,1.39,0,0,1,1-.4,1.32,1.32,0,0,1,.34,0,2,2,0,0,0,.84-1.63,2.09,2.09,0,0,0-.15-.75,1.18,1.18,0,0,1-.46.09,1.11,1.11,0,0,1-1.11-1.11,1.23,1.23,0,0,1,0-.19,1.53,1.53,0,0,0-.3,0,2,2,0,0,0-.17,4Z"/><path class="cls-2" d="M37.75,61.1a1.42,1.42,0,0,1-2.39-1.05,1.47,1.47,0,0,1,.17-.66,1.84,1.84,0,0,0-.33,0,2.28,2.28,0,1,0,2.66,1.83l0-.08A.27.27,0,0,0,37.75,61.1Z"/><path class="cls-2" d="M60.5,63.49a1,1,0,0,1,0-.3,1.16,1.16,0,0,1-.7.24,1.2,1.2,0,0,1-1-.61l-.08.06a2,2,0,0,1-.65,1,1.54,1.54,0,0,0-.06.43,1.7,1.7,0,0,0,.46,1.17h0a.8.8,0,0,1,.74.48,1.64,1.64,0,0,0,.5.09,1.73,1.73,0,0,0,1.68-1.33A1.24,1.24,0,0,1,60.5,63.49Z"/><path class="cls-2" d="M51.91,56.91a1.46,1.46,0,0,0,.52.1,1.32,1.32,0,0,0,.39-.06,1.41,1.41,0,0,1,1-1,1.42,1.42,0,0,0,.07-.42,1.15,1.15,0,0,0-.06-.37,1.2,1.2,0,0,1-.2,0,.81.81,0,0,1-.81-.81.85.85,0,0,1,0-.23,1.41,1.41,0,0,0-.41-.07A1.45,1.45,0,0,0,51,55.27,2.71,2.71,0,0,1,51.91,56.91Z"/><path class="cls-2" d="M56.18,54a1.38,1.38,0,0,0,.28.19,2.54,2.54,0,0,1,1.62-.58l.29,0c0-.07,0-.15,0-.23A2.9,2.9,0,0,1,58.7,52a1.59,1.59,0,0,0-1-.89,1.64,1.64,0,0,0-2,1.13,1.58,1.58,0,0,0,0,.57A1.08,1.08,0,0,1,56.18,54Z"/><path class="cls-2" d="M53.81,55.2a.82.82,0,0,0,.58-.6,1,1,0,0,1-.35-.85.79.79,0,0,0-.44-.13.8.8,0,0,0-.76.57A1.41,1.41,0,0,1,53.81,55.2Z"/><path class="cls-2" d="M53.61,55.23a.64.64,0,0,0,.2,0,1.4,1.4,0,0,0-1-1,.85.85,0,0,0,0,.23A.81.81,0,0,0,53.61,55.23Z"/><path class="cls-2" d="M55.51,56.17a2.55,2.55,0,0,0,.71,1.77,1.72,1.72,0,0,1,.72-.15,1.74,1.74,0,0,1,1.53.92,2.55,2.55,0,0,0,2.17-2.52,2.87,2.87,0,0,1-2.24-2.33,1.64,1.64,0,0,1-1.63.45,1.44,1.44,0,0,1-.31-.13A2.56,2.56,0,0,0,55.51,56.17Z"/><path class="cls-2" d="M58.4,53.86l0-.24-.29,0a2.54,2.54,0,0,0-1.62.58,1.44,1.44,0,0,0,.31.13A1.64,1.64,0,0,0,58.4,53.86Z"/><path class="cls-2" d="M48.7,64.65a1.54,1.54,0,0,1-1.44-1,2.27,2.27,0,0,0-.59,1.52,2.58,2.58,0,0,0,0,.39,1.11,1.11,0,0,1,.94,1.09,1.28,1.28,0,0,1-.06.34,2.21,2.21,0,0,0,1.36.46,2.27,2.27,0,0,0,1.76-3.72,3.1,3.1,0,0,1-.5-.29A1.54,1.54,0,0,1,48.7,64.65Z"/><path class="cls-2" d="M45.75,60.08a1.53,1.53,0,0,0,.23-.8,1.59,1.59,0,0,0-.13-.61,1.72,1.72,0,0,1-1-.36,2,2,0,0,1-1.25.43,2.14,2.14,0,0,1-.45-.05,1.45,1.45,0,0,0-.13.59,1.5,1.5,0,0,0,1.46,1.5A1.69,1.69,0,0,1,45.75,60.08Z"/><path class="cls-2" d="M47.6,61.83a1.76,1.76,0,0,0-1.76-1.76h-.09a1.51,1.51,0,0,1-1.27.71h0a1.73,1.73,0,0,0-.36,1,.69.69,0,0,0,0,.13,1.49,1.49,0,0,1,1.16,1.46v.06a1.62,1.62,0,0,0,.58.11A1.76,1.76,0,0,0,47.17,63a1.56,1.56,0,0,1,.41-.92A1.64,1.64,0,0,0,47.6,61.83Z"/><path class="cls-2" d="M45.75,60.08a1.69,1.69,0,0,0-1.31.7h0A1.53,1.53,0,0,0,45.75,60.08Z"/><path class="cls-2" d="M49,62.88a2.37,2.37,0,0,1,.8.15A3,3,0,0,1,49,61.59a1.55,1.55,0,0,0-.31,0,1.53,1.53,0,0,0-1.12.49,1.8,1.8,0,0,1-.41.92s0,.09,0,.13a1.62,1.62,0,0,0,.1.54A2.27,2.27,0,0,1,49,62.88Z"/><path class="cls-2" d="M48.7,64.65a1.55,1.55,0,0,0,1.51-1.21,3.63,3.63,0,0,1-.46-.41,2.37,2.37,0,0,0-.8-.15,2.26,2.26,0,0,0-1.69.76A1.54,1.54,0,0,0,48.7,64.65Z"/><path class="cls-2" d="M47.17,63a1.8,1.8,0,0,0,.41-.92A1.53,1.53,0,0,0,47.17,63Z"/><path class="cls-2" d="M40.87,54.35a1.79,1.79,0,0,1,1.15.43,1.43,1.43,0,0,0-1.41-1.25,1.4,1.4,0,0,0-.61.14s0,0,0,.06a1.59,1.59,0,0,1-.82,1.38,1.4,1.4,0,0,0,.06.28A1.79,1.79,0,0,1,40.87,54.35Z"/><path class="cls-2" d="M42,55.18l.21-.19a2,2,0,0,0-.2-.21c0,.06,0,.12,0,.18A1.64,1.64,0,0,1,42,55.18Z"/><path class="cls-2" d="M41.53,56a1.41,1.41,0,0,1-2.28-.65,1.79,1.79,0,0,0,.12,1.7h.05a2.35,2.35,0,0,1,1.75.8,1.64,1.64,0,0,0,.56-.2,2.1,2.1,0,0,1-.29-1.06A1.9,1.9,0,0,1,41.53,56Z"/><path class="cls-2" d="M40.61,56.39a1.44,1.44,0,0,0,.92-.35,2.15,2.15,0,0,1,.48-.86A1.64,1.64,0,0,0,42,55c0-.06,0-.12,0-.18a1.77,1.77,0,0,0-2.77.61A1.44,1.44,0,0,0,40.61,56.39Z"/><path class="cls-3" d="M37.13,60a2.48,2.48,0,0,1-.06-.54,2.26,2.26,0,0,1,.13-.74,1.14,1.14,0,0,0-.41-.07,1.43,1.43,0,0,0-1.26.76A2.25,2.25,0,0,1,37.13,60Z"/><path class="cls-3" d="M36.79,61.48a1.43,1.43,0,0,0,1-.38A2.48,2.48,0,0,1,37.13,60a2.25,2.25,0,0,0-1.6-.59,1.47,1.47,0,0,0-.17.66A1.43,1.43,0,0,0,36.79,61.48Z"/><path class="cls-3" d="M39.37,57.09a2.33,2.33,0,0,0-2.17,1.6,1.42,1.42,0,0,1,.6,2.37l0,.11a2.37,2.37,0,0,0,1.55.62A1.42,1.42,0,0,1,40.63,61a1.27,1.27,0,0,1,.44.08,2.34,2.34,0,0,0,.1-3.23l-.3,0A1.79,1.79,0,0,1,39.37,57.09Z"/><path class="cls-3" d="M37.75,61.1a.27.27,0,0,1,.08.07l0-.11Z"/><path class="cls-3" d="M39.42,57.08h-.05a1.79,1.79,0,0,0,1.5.82l.3,0A2.32,2.32,0,0,0,39.42,57.08Z"/><path class="cls-3" d="M37.13,60a2.21,2.21,0,0,1,.67,1.08,1.41,1.41,0,0,0,.42-1,1.44,1.44,0,0,0-1-1.36,2.3,2.3,0,0,0-.13.74A2.51,2.51,0,0,0,37.13,60Z"/><path class="cls-3" d="M37.13,60a2.48,2.48,0,0,0,.62,1.12l0,0A2.21,2.21,0,0,0,37.13,60Z"/><path class="cls-2" d="M30.14,54.3a.8.8,0,1,0-1.44-.49.86.86,0,0,0,.12.43,3.29,3.29,0,0,1,.54-.05A2.88,2.88,0,0,1,30.14,54.3Z"/><path class="cls-3" d="M32.17,57a2.82,2.82,0,0,0-2-2.7.8.8,0,0,1-.63.32.79.79,0,0,1-.68-.38A2.81,2.81,0,0,0,26.55,57a2.77,2.77,0,0,0,.36,1.37,1.42,1.42,0,0,1,2.68.67,1.48,1.48,0,0,1-.23.77h0A2.81,2.81,0,0,0,32.17,57Z"/><path class="cls-3" d="M29.51,54.62a.8.8,0,0,0,.63-.32,2.88,2.88,0,0,0-.78-.11,3.29,3.29,0,0,0-.54.05A.82.82,0,0,0,29.51,54.62Z"/><path class="cls-2" d="M30.48,44.56a2.42,2.42,0,0,1,.36-1.22l-.05,0a2.1,2.1,0,0,0-1.85,1.19,2,2,0,0,1,.12.64,1.87,1.87,0,0,1-.25.88,2.1,2.1,0,0,0,3.54.87A2.37,2.37,0,0,1,30.48,44.56Z"/><path class="cls-3" d="M34.34,45.61a1.62,1.62,0,0,1,.54.11,2.31,2.31,0,0,0,.31-1.13,2.36,2.36,0,0,0-1.28-2.1,1.22,1.22,0,0,1-.43.08,1.37,1.37,0,0,1-.86-.33h0a1.24,1.24,0,0,1,0,.27,1.09,1.09,0,0,1-.81,1.05A2.1,2.1,0,0,1,33,45.42a2.17,2.17,0,0,1-.6,1.46,2.42,2.42,0,0,0,.47,0h0A1.5,1.5,0,0,1,34.34,45.61Z"/><path class="cls-3" d="M31.83,43.56a.7.7,0,0,1-.29,0,1.08,1.08,0,0,1-.7-.26,2.42,2.42,0,0,0-.36,1.22,2.37,2.37,0,0,0,1.87,2.32,2.17,2.17,0,0,0,.6-1.46A2.1,2.1,0,0,0,31.83,43.56Z"/><path class="cls-2" d="M46.81,16.45a1.5,1.5,0,0,1,1.5,1.49s0,0,0,0a2.64,2.64,0,1,0-3.06-2.6,2.61,2.61,0,0,0,.49,1.53A1.49,1.49,0,0,1,46.81,16.45Z"/><path class="cls-3" d="M44.48,23.33a1.48,1.48,0,0,0,1.21.63,1.44,1.44,0,0,0,.62-.14,2.69,2.69,0,0,1,.87-1.44,1.49,1.49,0,0,0-2.77-.68,2.38,2.38,0,0,1,.19.93A2.34,2.34,0,0,1,44.48,23.33Z"/><path class="cls-2" d="M52.59,27.58a.55.55,0,0,0,0,.18.81.81,0,1,0,1-.78A1.43,1.43,0,0,1,52.59,27.58Z"/><path class="cls-2" d="M46.27,24.83a1.19,1.19,0,0,0,.49,2.28,1.24,1.24,0,0,0,.83-.33A2.72,2.72,0,0,1,46.27,24.83Z"/><path class="cls-2" d="M57.23,27.71a1.34,1.34,0,0,1,.49-.1,1.44,1.44,0,0,1,.88.32,1.43,1.43,0,0,1,.92-.46,2.49,2.49,0,0,0,.83-1.68,1.47,1.47,0,0,1-.13-.6,1.24,1.24,0,0,1,0-.33A2.57,2.57,0,0,0,58.18,23a1.76,1.76,0,0,1-1.53.92,1.71,1.71,0,0,1-.71-.16,2.54,2.54,0,0,0-.2,3.31,1.53,1.53,0,0,1,.3,0A1.43,1.43,0,0,1,57.23,27.71Z"/><path class="cls-2" d="M57.79,23a2.38,2.38,0,0,1,.39,0,1.7,1.7,0,0,0,.23-.84,1.76,1.76,0,0,0-.79-1.46,1.33,1.33,0,0,1-.45.08,1.25,1.25,0,0,1-.85-.34,1.75,1.75,0,0,0-.38,3.32A2.53,2.53,0,0,1,57.79,23Z"/><path class="cls-2" d="M58.18,23a2.47,2.47,0,0,0-.39,0,2.53,2.53,0,0,0-1.85.79,1.71,1.71,0,0,0,.71.15A1.73,1.73,0,0,0,58.18,23Z"/><path class="cls-2" d="M59.08,18.3a1.21,1.21,0,0,1,1.1.74,1.72,1.72,0,0,0,.85-.85l0-.1a1.8,1.8,0,0,0,.12-.62,1.74,1.74,0,1,0-3.47,0,1.76,1.76,0,0,0,.49,1.21A1.19,1.19,0,0,1,59.08,18.3Z"/><path class="cls-2" d="M64.9,24.75a2.48,2.48,0,0,1-.27,0,2.08,2.08,0,0,1-.71-.13,1.71,1.71,0,0,0-.21.81,1.77,1.77,0,0,0,0,.41A2.34,2.34,0,0,1,64.58,27a1.75,1.75,0,0,0,2.56-1l-.21,0A2.25,2.25,0,0,1,64.9,24.75Z"/><path class="cls-2" d="M66.31,23.93a1.76,1.76,0,0,1,.92,1.53,1.84,1.84,0,0,1-.09.53,2.27,2.27,0,0,0-.22-4.54,2.25,2.25,0,0,0-.52.07,2.12,2.12,0,0,1,.34,1.14A2.07,2.07,0,0,1,66.31,23.93Z"/><path class="cls-2" d="M66.31,23.93a2,2,0,0,1-1.41.82,2.25,2.25,0,0,0,2,1.26l.21,0a1.84,1.84,0,0,0,.09-.53A1.76,1.76,0,0,0,66.31,23.93Z"/><path class="cls-2" d="M54.21,15.37a1.73,1.73,0,0,1-2.49,1.12,2.54,2.54,0,0,0,.7,3.48,1.27,1.27,0,0,1,2.31.28A2.52,2.52,0,0,0,56,19.19a1.24,1.24,0,0,1,.18-.34,2.49,2.49,0,0,0,.16-.61h-.17A1.28,1.28,0,0,1,54.89,17a1.3,1.3,0,0,1,.56-1.06,2.36,2.36,0,0,0-.42-.28,1,1,0,0,1-.57-.22Z"/><path class="cls-3" d="M99.78,38.23c0-1,.86-1.57,2-1.57a4,4,0,0,1,2.07.65c.27.16.52.19.71-.14l.23-.4a.51.51,0,0,0-.16-.72,4.92,4.92,0,0,0-2.82-.85c-2,0-3.64,1.22-3.64,3.11,0,3.5,5.41,2.95,5.41,5.43,0,1-.78,1.6-2,1.6a4.15,4.15,0,0,1-2.45-.9c-.31-.2-.53-.16-.72.09l-.27.38a.49.49,0,0,0,.06.74,5.59,5.59,0,0,0,3.37,1.16,3.24,3.24,0,0,0,3.57-3.2C105.19,40,99.78,40.65,99.78,38.23Z"/><path class="cls-3" d="M113.47,45.25h-4.71V41.64h3.52a.47.47,0,0,0,.52-.53v-.32a.47.47,0,0,0-.52-.52h-3.52V36.75h4.44a.47.47,0,0,0,.52-.52v-.32a.46.46,0,0,0-.52-.52h-5.47a.46.46,0,0,0-.53.52V46.09a.47.47,0,0,0,.53.53h5.74a.47.47,0,0,0,.53-.53v-.32A.46.46,0,0,0,113.47,45.25Z"/><path class="cls-3" d="M96.75,46.09v-.32a.46.46,0,0,0-.52-.52H91.52V41.64H95a.47.47,0,0,0,.52-.53V40.8a.47.47,0,0,0-.52-.53H91.52V36.75H96a.47.47,0,0,0,.52-.52v-.32a.46.46,0,0,0-.52-.52H90.49a.46.46,0,0,0-.53.52V46.09a.47.47,0,0,0,.53.53h5.74A.46.46,0,0,0,96.75,46.09Z"/><path class="cls-3" d="M89.13,28.82a.46.46,0,0,0-.73-.06,5.09,5.09,0,0,1-3.06,1.09,4.17,4.17,0,0,1-4.17-4.43,4,4,0,0,1,4.15-4.29,5,5,0,0,1,2.82.9.46.46,0,0,0,.73-.13l.21-.32a.49.49,0,0,0-.1-.73,6.2,6.2,0,0,0-3.72-1.16,5.55,5.55,0,0,0-5.71,5.74,5.59,5.59,0,0,0,5.74,5.87,6.19,6.19,0,0,0,4-1.43.48.48,0,0,0,.08-.73Z"/><path class="cls-3" d="M95.4,56v0l3-4.8c.16-.27,0-.48-.27-.48h-.4a.49.49,0,0,0-.46.27l-2.85,4.58H92.58V51.12a.35.35,0,0,0-.38-.4h-.33a.35.35,0,0,0-.39.4V61.51a.36.36,0,0,0,.39.4h.33a.36.36,0,0,0,.38-.4V56.56h1.89l3,5.07a.48.48,0,0,0,.46.28h.45c.3,0,.42-.21.25-.47Z"/><path class="cls-3" d="M87.66,38.63a3.05,3.05,0,0,0-1.76-2.94,4.89,4.89,0,0,0-2.1-.3h-3a.46.46,0,0,0-.53.52V46.09a.47.47,0,0,0,.53.53h.5a.47.47,0,0,0,.53-.53V42.15h2.4l2.2,4.1a.61.61,0,0,0,.62.37h.63c.4,0,.56-.25.35-.63l-2-3.73a3.06,3.06,0,0,0-.33-.51v0A3.14,3.14,0,0,0,87.66,38.63Zm-3.59,2.15H81.81v-4h1.88A3,3,0,0,1,85,37a1.76,1.76,0,0,1,1,1.75A1.92,1.92,0,0,1,84.07,40.78Z"/><path class="cls-3" d="M88.39,50.72h-.31a.36.36,0,0,0-.4.4V58a3.18,3.18,0,0,1-6.35,0V51.12a.36.36,0,0,0-.4-.4h-.32a.36.36,0,0,0-.39.4V58a4.28,4.28,0,0,0,8.55,0V51.12A.34.34,0,0,0,88.39,50.72Z"/><path class="cls-3" d="M124.35,31.11h5.74a.47.47,0,0,0,.53-.53v-.31a.47.47,0,0,0-.53-.53h-4.71V26.13h3.52a.47.47,0,0,0,.52-.52v-.32a.47.47,0,0,0-.52-.53h-3.52V21.25h4.44a.47.47,0,0,0,.52-.53V20.4a.46.46,0,0,0-.52-.52h-5.47a.47.47,0,0,0-.53.52V30.58A.47.47,0,0,0,124.35,31.11Z"/><path class="cls-3" d="M131.69,42.26a2.67,2.67,0,0,0-.34-.51v0a3.14,3.14,0,0,0,2-3.09,3,3,0,0,0-1.77-2.94,4.86,4.86,0,0,0-2.1-.3h-3a.46.46,0,0,0-.52.52V46.09a.46.46,0,0,0,.52.53H127a.46.46,0,0,0,.52-.53V42.15h2.41l2.19,4.1a.62.62,0,0,0,.62.37h.64c.39,0,.55-.25.35-.63Zm-1.93-1.48H127.5v-4h1.88a3.06,3.06,0,0,1,1.34.2,1.78,1.78,0,0,1,1.05,1.75A1.92,1.92,0,0,1,129.76,40.78Z"/><path class="cls-3" d="M117.9,31.3a6.23,6.23,0,0,0,4-1.43.5.5,0,0,0,.08-.73l-.24-.32a.46.46,0,0,0-.73-.06A5.09,5.09,0,0,1,118,29.85a4.17,4.17,0,0,1-4.17-4.43,4,4,0,0,1,4.16-4.28,5,5,0,0,1,2.81.89.46.46,0,0,0,.73-.13l.21-.32a.49.49,0,0,0-.1-.73,6.14,6.14,0,0,0-3.72-1.16,5.55,5.55,0,0,0-5.71,5.74A5.6,5.6,0,0,0,117.9,31.3Z"/><path class="cls-3" d="M101.82,31.11h.51a.46.46,0,0,0,.52-.53V23.82c0-.63-.09-1.63-.09-1.63h0s.52,1,.92,1.63l4.8,6.94a.64.64,0,0,0,.62.35h.61a.46.46,0,0,0,.52-.53V20.4a.46.46,0,0,0-.52-.52h-.51a.47.47,0,0,0-.52.52v6.78c0,.62.09,1.62.09,1.62h0s-.53-1-.92-1.62l-4.79-6.95a.67.67,0,0,0-.64-.35h-.6a.47.47,0,0,0-.53.52V30.58A.47.47,0,0,0,101.82,31.11Z"/><path class="cls-3" d="M90.89,31.11h.54a.54.54,0,0,0,.57-.43l1-2.8h4.23l1,2.8a.57.57,0,0,0,.59.43h.54c.38,0,.56-.24.43-.6l-3.69-10.2a.57.57,0,0,0-.59-.43h-.76a.55.55,0,0,0-.59.43l-3.69,10.2C90.33,30.87,90.49,31.11,90.89,31.11ZM94.66,23c.19-.57.44-1.59.44-1.59h0s.24,1,.43,1.59l1.24,3.57H93.4Z"/><path class="cls-3" d="M155,35.39h-.52a.47.47,0,0,0-.53.52v4.42H148.1V35.91a.46.46,0,0,0-.52-.52h-.51a.46.46,0,0,0-.52.52V46.09a.46.46,0,0,0,.52.53h.51a.46.46,0,0,0,.52-.53V41.68h5.84v4.41a.48.48,0,0,0,.53.53H155a.46.46,0,0,0,.51-.53V35.91A.45.45,0,0,0,155,35.39Z"/><path class="cls-3" d="M138.43,30.75a.6.6,0,0,0,.61.36h.64c.4,0,.56-.25.35-.62l-2-3.74a2.67,2.67,0,0,0-.34-.51v0a3.11,3.11,0,0,0,2-3.09,3,3,0,0,0-1.77-2.94,5,5,0,0,0-2.09-.3h-3a.46.46,0,0,0-.52.52V30.58a.46.46,0,0,0,.52.53h.52a.46.46,0,0,0,.52-.53V26.64h2.4Zm-4.6-5.48v-4h1.87a3.07,3.07,0,0,1,1.34.19,1.77,1.77,0,0,1,1.05,1.75,1.92,1.92,0,0,1-2,2.08Z"/><path class="cls-3" d="M144.45,44.33a.45.45,0,0,0-.72-.07,5.08,5.08,0,0,1-3.06,1.1,4.17,4.17,0,0,1-4.17-4.44,4,4,0,0,1,4.15-4.28,5.13,5.13,0,0,1,2.82.89.46.46,0,0,0,.73-.12l.21-.32a.49.49,0,0,0-.1-.73,6.1,6.1,0,0,0-3.72-1.16,5.55,5.55,0,0,0-5.71,5.74,5.6,5.6,0,0,0,5.74,5.87,6.13,6.13,0,0,0,4-1.44.48.48,0,0,0,.09-.73Z"/><path class="cls-3" d="M120.74,35.81a.55.55,0,0,0-.59-.42h-.76a.55.55,0,0,0-.59.42L115.11,46c-.13.37,0,.61.43.61h.54a.56.56,0,0,0,.57-.43l1-2.8h4.23l1,2.8a.58.58,0,0,0,.59.43H124a.41.41,0,0,0,.43-.61Zm-2.69,6.27,1.26-3.56c.19-.57.45-1.59.45-1.59h0s.23,1,.43,1.59l1.23,3.56Z"/><path class="cls-3" d="M46.31,23.82a3.08,3.08,0,0,0-.07.61,2.6,2.6,0,0,0,0,.4,1.17,1.17,0,0,1,.49-.11,1.19,1.19,0,0,1,.83,2.05,2.62,2.62,0,0,0,1.36.37,2.71,2.71,0,0,0,2-.86.5.5,0,0,1,0-.12,1.43,1.43,0,0,1,.7-1.23A2.69,2.69,0,0,0,49,21.72a2.7,2.7,0,0,0-1.77.66s0,.05,0,.08A1.48,1.48,0,0,1,46.31,23.82Z"/><path class="cls-3" d="M46.31,23.82a1.48,1.48,0,0,0,.88-1.36s0-.05,0-.08A2.69,2.69,0,0,0,46.31,23.82Z"/><path class="cls-3" d="M48,25.92a1.2,1.2,0,0,0-1.2-1.2,1.17,1.17,0,0,0-.49.11,2.68,2.68,0,0,0,1.32,1.94A1.19,1.19,0,0,0,48,25.92Z"/><path class="cls-3" d="M33.85,30.33a2.33,2.33,0,0,1,0-.38,3.69,3.69,0,0,0-5,2.6,1.77,1.77,0,0,1,.31,1,1.86,1.86,0,0,1-.23.88,3.68,3.68,0,0,0,7.2-1.09,3.52,3.52,0,0,0-.12-.92H36A2.11,2.11,0,0,1,33.85,30.33Z"/><path class="cls-3" d="M42.64,17.52a2.29,2.29,0,1,0-2.29-2.28A2.28,2.28,0,0,0,42.64,17.52Z"/><path class="cls-2" d="M23.85,23.05a1.33,1.33,0,1,0,1.33-1.33A1.32,1.32,0,0,0,23.85,23.05Z"/><path class="cls-2" d="M38.18,27.54A1.42,1.42,0,0,1,39.42,29s0,0,0,.05a1.83,1.83,0,0,0,2.25-1.63,2.12,2.12,0,0,1-.54-1.4s0-.06,0-.09a1.8,1.8,0,0,0-.61-.4,1.41,1.41,0,0,1-.41.07,1.36,1.36,0,0,1-.66-.18,2,2,0,0,0-.75.35,1.62,1.62,0,0,1,.11.58A1.54,1.54,0,0,1,38.18,27.54Z"/><path class="cls-4" d="M28.88,32.55A1.79,1.79,0,1,0,29,34.44a3.55,3.55,0,0,1-.17-1.09A3.5,3.5,0,0,1,28.88,32.55Z"/><path class="cls-3" d="M28.88,32.55A3.59,3.59,0,0,0,29,34.44a1.85,1.85,0,0,0,.23-.87A1.78,1.78,0,0,0,28.88,32.55Z"/><path class="cls-4" d="M28.88,32.55A3.59,3.59,0,0,0,29,34.44a1.85,1.85,0,0,0,.23-.87A1.78,1.78,0,0,0,28.88,32.55Z"/><path class="cls-3" d="M40.52,25.48a1.33,1.33,0,0,0,.8-.69,2.33,2.33,0,0,1-1.4-1.93,1.35,1.35,0,0,0-.47,2.52,1.5,1.5,0,0,1,.37,0A1.82,1.82,0,0,1,40.52,25.48Z"/><path class="cls-3" d="M40.52,25.48a1.82,1.82,0,0,0-.7-.14,1.5,1.5,0,0,0-.37,0,1.47,1.47,0,0,0,.66.17A1.41,1.41,0,0,0,40.52,25.48Z"/><path class="cls-3" d="M53.75,25.8h.14a1.43,1.43,0,1,0-1.42-1.43,1.29,1.29,0,0,0,.05.35A1.43,1.43,0,0,1,53.75,25.8Z"/><path class="cls-3" d="M38,27.64a1.63,1.63,0,0,1-.79.21h-.13a1.47,1.47,0,0,0-.41.51,2.11,2.11,0,0,1,1.38,2v0A1.42,1.42,0,0,0,39.41,29,1.82,1.82,0,0,1,38,27.64Z"/><path class="cls-2" d="M38.18,27.54l-.15.1A1.85,1.85,0,0,0,39.41,29s0,0,0-.05A1.42,1.42,0,0,0,38.18,27.54Z"/><path class="cls-3" d="M38.18,27.54l-.15.1A1.85,1.85,0,0,0,39.41,29s0,0,0-.05A1.42,1.42,0,0,0,38.18,27.54Z"/><path class="cls-3" d="M56.38,17.87a2.22,2.22,0,0,1,0,.37,1.28,1.28,0,0,0-.17-2.55,1.31,1.31,0,0,0-.73.22A2.53,2.53,0,0,1,56.38,17.87Z"/><path class="cls-3" d="M54.89,17a1.28,1.28,0,0,0,1.29,1.28h.17a2.22,2.22,0,0,0,0-.37,2.53,2.53,0,0,0-.93-2A1.3,1.3,0,0,0,54.89,17Z"/><path class="cls-3" d="M52.42,20a1.24,1.24,0,0,0-.19.66,1.29,1.29,0,0,0,.16.61.79.79,0,0,1,.69-.42.81.81,0,0,1,.81.81.85.85,0,0,1,0,.23,1.29,1.29,0,0,0,.95-1.23,1.22,1.22,0,0,0-.07-.38,2.59,2.59,0,0,1-.88.16A2.52,2.52,0,0,1,52.42,20Z"/><path class="cls-3" d="M53.51,19.35a1.27,1.27,0,0,0-1.09.62,2.52,2.52,0,0,0,1.43.44,2.59,2.59,0,0,0,.88-.16A1.27,1.27,0,0,0,53.51,19.35Z"/><path class="cls-3" d="M55.94,19.59a1.26,1.26,0,0,0,.38.89,1.86,1.86,0,0,1,.33,0,1.78,1.78,0,0,1,1,.29,1.26,1.26,0,0,0,.57-.45,1.23,1.23,0,0,1-.3-.79,1.16,1.16,0,0,1,.22-.69,1.22,1.22,0,0,0-.94-.45,1.25,1.25,0,0,0-1,.5,3.59,3.59,0,0,1-.17.34A1.29,1.29,0,0,0,55.94,19.59Z"/><path class="cls-3" d="M57.62,20.73a1.78,1.78,0,0,0-1-.29,1.86,1.86,0,0,0-.33,0,1.23,1.23,0,0,0,.85.34A1.13,1.13,0,0,0,57.62,20.73Z"/><path class="cls-3" d="M56.18,18.85a1.54,1.54,0,0,0-.17.34A1.54,1.54,0,0,0,56.18,18.85Z"/><path class="cls-3" d="M52.36,27.61a1.81,1.81,0,0,0,.23,0,.8.8,0,0,1,.78-.62l.18,0a1.47,1.47,0,0,0,.25-.82,1.42,1.42,0,0,0,0-.36,1.41,1.41,0,0,1-1.23-1.06l-.16,0a1.46,1.46,0,0,0-.75.21,2.75,2.75,0,0,1-.68,1.35A1.44,1.44,0,0,0,52.36,27.61Z"/><path class="cls-3" d="M52.59,27.58a1.43,1.43,0,0,0,1-.6.55.55,0,0,0-.18,0A.79.79,0,0,0,52.59,27.58Z"/><path class="cls-3" d="M50.91,26.16a.5.5,0,0,0,0,.12,2.75,2.75,0,0,0,.68-1.35A1.43,1.43,0,0,0,50.91,26.16Z"/><path class="cls-3" d="M53.75,25.8a1.44,1.44,0,0,0-1.23-1.07A1.41,1.41,0,0,0,53.75,25.8Z"/><path class="cls-2" d="M54.25,15.19a1.12,1.12,0,0,0,.21.23,2.78,2.78,0,0,1,.57.21h0a1,1,0,0,0,0-2,1,1,0,0,0-.93.65,1.69,1.69,0,0,1,.12.64A2.28,2.28,0,0,1,54.25,15.19Z"/><path class="cls-2" d="M55,15.63a2.3,2.3,0,0,0-.57-.21A1,1,0,0,0,55,15.63Z"/><path class="cls-3" d="M46.7,19.44a1.1,1.1,0,0,0-.54.95,1.12,1.12,0,1,0,1.3-1.1,1.45,1.45,0,0,1-.65.16Z"/><path class="cls-3" d="M38,20.12A1.12,1.12,0,0,0,37.5,18a1.11,1.11,0,0,0-1.09.92A2,2,0,0,1,38,20.12Z"/><path class="cls-3" d="M37.5,20.21a1.18,1.18,0,0,0,.46-.09,2,2,0,0,0-1.55-1.21,1.23,1.23,0,0,0,0,.19A1.11,1.11,0,0,0,37.5,20.21Z"/><path class="cls-4" d="M14.78,19a.8.8,0,1,0,0-1.6.8.8,0,1,0,0,1.6Z"/><path class="cls-3" d="M52.39,21.24a.74.74,0,0,0-.11.39.8.8,0,0,0,1.57.24,1.25,1.25,0,0,1-1.46-.63Z"/><path class="cls-3" d="M53.09,20.82a.79.79,0,0,0-.7.42,1.2,1.2,0,0,0,1.46.62.85.85,0,0,0,0-.23A.81.81,0,0,0,53.09,20.82Z"/><path class="cls-2" d="M28.88,15.68a.81.81,0,1,0-.8-.81A.81.81,0,0,0,28.88,15.68Z"/><path class="cls-4" d="M41.46,24.2a1.31,1.31,0,0,1-.14.59l.14.05a2.1,2.1,0,0,1,2.65-.79,2.23,2.23,0,0,0,.37-.72,1.44,1.44,0,0,1-.28-.87,1.49,1.49,0,0,1,.21-.76,2.35,2.35,0,0,0-.41-.63,1.38,1.38,0,0,1-.8.25,1.44,1.44,0,0,1-1.36-1,2.35,2.35,0,0,0-2,2.32,1.81,1.81,0,0,0,0,.23l.19,0A1.36,1.36,0,0,1,41.46,24.2Z"/><path class="cls-3" d="M44.48,23.33a2.34,2.34,0,0,0,.12-.7,2.41,2.41,0,0,0-.19-.93,1.53,1.53,0,0,0-.22.76A1.44,1.44,0,0,0,44.48,23.33Z"/><path class="cls-4" d="M44.48,23.33a2.34,2.34,0,0,0,.12-.7,2.41,2.41,0,0,0-.19-.93,1.53,1.53,0,0,0-.22.76A1.44,1.44,0,0,0,44.48,23.33Z"/><path class="cls-3" d="M41.32,24.79a1.31,1.31,0,0,0,.14-.59,1.36,1.36,0,0,0-1.35-1.36l-.19,0A2.33,2.33,0,0,0,41.32,24.79Z"/><path class="cls-4" d="M41.32,24.79a1.31,1.31,0,0,0,.14-.59,1.36,1.36,0,0,0-1.35-1.36l-.19,0A2.33,2.33,0,0,0,41.32,24.79Z"/><path class="cls-2" d="M29.43,24.15a2.36,2.36,0,1,0,2.36-2.35,2.27,2.27,0,0,0-.59.08,2.09,2.09,0,0,1-.9.46A2.36,2.36,0,0,0,29.43,24.15Z"/><path class="cls-4" d="M35.94,22.86a1.41,1.41,0,0,0-.44,1,1.43,1.43,0,0,0,.74,1.25,1.54,1.54,0,0,1,1-.39,1.5,1.5,0,0,1,.67.16,1.43,1.43,0,0,0-.66-2.4,2,2,0,0,1-1.16.37Z"/><path class="cls-2" d="M35.94,22.86h.17a2,2,0,0,0,1.16-.37,1.32,1.32,0,0,0-.34,0A1.39,1.39,0,0,0,35.94,22.86Z"/><path class="cls-4" d="M35.94,22.86h.17a2,2,0,0,0,1.16-.37,1.32,1.32,0,0,0-.34,0A1.39,1.39,0,0,0,35.94,22.86Z"/><path class="cls-4" d="M39.38,61.79a1.37,1.37,0,0,0-.18.67,1.43,1.43,0,1,0,1.87-1.35,2.34,2.34,0,0,1-1.65.68Z"/><path class="cls-3" d="M39.38,61.79h0a2.34,2.34,0,0,0,1.65-.68,1.27,1.27,0,0,0-.44-.08A1.42,1.42,0,0,0,39.38,61.79Z"/><path class="cls-4" d="M39.38,61.79h0a2.34,2.34,0,0,0,1.65-.68,1.27,1.27,0,0,0-.44-.08A1.42,1.42,0,0,0,39.38,61.79Z"/><path class="cls-5" d="M44,21.07a1.44,1.44,0,1,0-2.16-.76,2.71,2.71,0,0,1,.4,0A2.36,2.36,0,0,1,44,21.07Z"/><path class="cls-4" d="M43.2,21.32a1.38,1.38,0,0,0,.8-.25,2.36,2.36,0,0,0-1.76-.8,2.71,2.71,0,0,0-.4,0A1.44,1.44,0,0,0,43.2,21.32Z"/><path class="cls-5" d="M43.2,21.32a1.38,1.38,0,0,0,.8-.25,2.36,2.36,0,0,0-1.76-.8,2.71,2.71,0,0,0-.4,0A1.44,1.44,0,0,0,43.2,21.32Z"/><path class="cls-2" d="M25.8,28.62A1.43,1.43,0,1,0,24.37,30,1.43,1.43,0,0,0,25.8,28.62Z"/><path class="cls-2" d="M62.41,20.1a2.14,2.14,0,0,1,.71,1.08,2.12,2.12,0,0,1,1.51-.63,2.06,2.06,0,0,1,1,.29,1.67,1.67,0,0,0,.11-.59A1.76,1.76,0,0,0,64,18.49a2.3,2.3,0,0,0-.26,0,1,1,0,0,1,0,.17A1.42,1.42,0,0,1,62.41,20.1Z"/><path class="cls-2" d="M16.71,25.7a1.38,1.38,0,1,0-1.38-1.37A1.38,1.38,0,0,0,16.71,25.7Z"/><path class="cls-3" d="M36.56,29a1.51,1.51,0,0,1,.14-.6,2,2,0,0,0-.73-.14h0a1.42,1.42,0,0,1-1.41,1.27,1.34,1.34,0,0,1-.46-.08,2,2,0,0,0-.19.55A3.69,3.69,0,0,1,36,32.43a2.11,2.11,0,0,0,2-2.06H38A1.43,1.43,0,0,1,36.56,29Z"/><path class="cls-3" d="M33.89,30a2.33,2.33,0,0,0,0,.38A2.11,2.11,0,0,0,36,32.44H36A3.68,3.68,0,0,0,33.89,30Z"/><path class="cls-3" d="M36.7,28.35a1.51,1.51,0,0,0-.14.6A1.43,1.43,0,0,0,38,30.38h.09v0A2.11,2.11,0,0,0,36.7,28.35Z"/><path class="cls-4" d="M29.83,22.39a2.42,2.42,0,0,0,.47-.05,2.21,2.21,0,0,1,.9-.46,2.09,2.09,0,0,0,.75-1.6,2.12,2.12,0,0,0-.86-1.7,1.08,1.08,0,0,1-.18-.11,2.11,2.11,0,1,0-1.08,3.92Z"/><path class="cls-2" d="M31.2,21.88a2.21,2.21,0,0,0-.9.46A2.09,2.09,0,0,0,31.2,21.88Z"/><path class="cls-4" d="M31.2,21.88a2.21,2.21,0,0,0-.9.46A2.09,2.09,0,0,0,31.2,21.88Z"/><path class="cls-2" d="M22.74,22.7a1.86,1.86,0,1,0-1.86-1.86A1.86,1.86,0,0,0,22.74,22.7Z"/><path class="cls-4" d="M17.08,30.14a1.59,1.59,0,1,0,1.58-1.58A1.59,1.59,0,0,0,17.08,30.14Z"/><path class="cls-5" d="M42.24,25a2.29,2.29,0,0,1-.78-.14,2.17,2.17,0,0,0-.33,1,1.84,1.84,0,0,1,.55,1.31c0,.06,0,.12,0,.18a2.11,2.11,0,1,0,2.45-3.32A2.35,2.35,0,0,1,42.24,25Z"/><path class="cls-2" d="M41.13,25.88s0,.06,0,.09a2.12,2.12,0,0,0,.54,1.4c0-.06,0-.12,0-.18A1.84,1.84,0,0,0,41.13,25.88Z"/><path class="cls-5" d="M41.13,25.88s0,.06,0,.09a2.12,2.12,0,0,0,.54,1.4c0-.06,0-.12,0-.18A1.84,1.84,0,0,0,41.13,25.88Z"/><path class="cls-4" d="M41.46,24.84a2.29,2.29,0,0,0,.78.14,2.35,2.35,0,0,0,1.87-.93,2.1,2.1,0,0,0-2.65.79Z"/><path class="cls-5" d="M41.46,24.84a2.29,2.29,0,0,0,.78.14,2.35,2.35,0,0,0,1.87-.93,2.1,2.1,0,0,0-2.65.79Z"/><path class="cls-3" d="M45.73,16.91a1.48,1.48,0,0,0-.42,1,1.51,1.51,0,0,0,1.39,1.5,1.12,1.12,0,0,1,.57-.17l.19,0A1.48,1.48,0,0,0,48.3,18a3,3,0,0,1-.42,0A2.64,2.64,0,0,1,45.73,16.91Z"/><path class="cls-3" d="M46.81,16.45a1.49,1.49,0,0,0-1.08.46A2.64,2.64,0,0,0,47.88,18a2.85,2.85,0,0,0,.42,0s0,0,0,0A1.5,1.5,0,0,0,46.81,16.45Z"/><path class="cls-3" d="M46.7,19.44h.11a1.45,1.45,0,0,0,.65-.16l-.19,0A1,1,0,0,0,46.7,19.44Z"/><path class="cls-3" d="M30.49,42.2h0a1.41,1.41,0,0,0-1.41-1.43,1.43,1.43,0,1,0,1.37,1.76v0A1,1,0,0,1,30.49,42.2Z"/><path class="cls-4" d="M28.93,44.49A1.78,1.78,0,1,0,28.81,46a2.1,2.1,0,0,1-.09-.61A2.13,2.13,0,0,1,28.93,44.49Z"/><path class="cls-2" d="M28.93,44.49a2.13,2.13,0,0,0-.21.91,1.81,1.81,0,0,0,.09.61,1.87,1.87,0,0,0,.25-.88A1.74,1.74,0,0,0,28.93,44.49Z"/><path class="cls-4" d="M28.93,44.49a2.13,2.13,0,0,0-.21.91,1.81,1.81,0,0,0,.09.61,1.87,1.87,0,0,0,.25-.88A1.74,1.74,0,0,0,28.93,44.49Z"/><path class="cls-4" d="M36.24,25.13a1.51,1.51,0,0,0-.54,1.16,1.55,1.55,0,0,0,1.41,1.55,1.38,1.38,0,0,1,.88-.32h0a1.69,1.69,0,0,1,0-.33,1.86,1.86,0,0,1,.73-1.47,1.54,1.54,0,0,0-.77-.82,1.44,1.44,0,0,1-1,.41A1.42,1.42,0,0,1,36.24,25.13Z"/><path class="cls-2" d="M38,27.19a1.69,1.69,0,0,0,0,.33l.18,0a1.53,1.53,0,0,0,.63-1.23,1.67,1.67,0,0,0-.11-.59A1.86,1.86,0,0,0,38,27.19Z"/><path class="cls-4" d="M38,27.19a1.69,1.69,0,0,0,0,.33l.18,0a1.53,1.53,0,0,0,.63-1.23,1.67,1.67,0,0,0-.11-.59A1.86,1.86,0,0,0,38,27.19Z"/><path class="cls-3" d="M38,27.64l0-.12h0a1.38,1.38,0,0,0-.88.32h.13A1.6,1.6,0,0,0,38,27.64Z"/><path class="cls-4" d="M38,27.64l0-.12h0a1.38,1.38,0,0,0-.88.32h.13A1.6,1.6,0,0,0,38,27.64Z"/><path class="cls-2" d="M38.18,27.54l-.18,0,0,.12Z"/><path class="cls-3" d="M38.18,27.54l-.18,0,0,.12Z"/><path class="cls-4" d="M38.18,27.54l-.18,0,0,.12Z"/><path class="cls-4" d="M36.24,25.13a1.42,1.42,0,0,0,.69.18,1.44,1.44,0,0,0,1-.41,1.5,1.5,0,0,0-.67-.16A1.54,1.54,0,0,0,36.24,25.13Z"/><path class="cls-4" d="M36.24,25.13a1.42,1.42,0,0,0,.69.18,1.44,1.44,0,0,0,1-.41,1.5,1.5,0,0,0-.67-.16A1.54,1.54,0,0,0,36.24,25.13Z"/><path class="cls-3" d="M13.83,35.64a1.43,1.43,0,1,0,1.42,1.44A1.44,1.44,0,0,0,13.83,35.64Z"/><path class="cls-2" d="M10.64,31.49a1.07,1.07,0,1,0-1.07,1.06A1.06,1.06,0,0,0,10.64,31.49Z"/><path class="cls-5" d="M10.08,50.65A1.07,1.07,0,0,0,9,51.72a1.07,1.07,0,0,0,2.13,0A1.08,1.08,0,0,0,10.08,50.65Z"/><path class="cls-5" d="M23.36,47.12a1.43,1.43,0,1,0-1.42-1.44A1.43,1.43,0,0,0,23.36,47.12Z"/><path class="cls-5" d="M46.71,65.55h-.16a1.1,1.1,0,1,0,1,1.44A2.23,2.23,0,0,1,46.71,65.55Z"/><path class="cls-2" d="M46.71,65.55A2.23,2.23,0,0,0,47.59,67a1.86,1.86,0,0,0,.06-.34A1.11,1.11,0,0,0,46.71,65.55Z"/><path class="cls-5" d="M46.71,65.55A2.23,2.23,0,0,0,47.59,67a1.86,1.86,0,0,0,.06-.34A1.11,1.11,0,0,0,46.71,65.55Z"/><path class="cls-4" d="M32.6,42.23h0l.23,0a2.23,2.23,0,0,1,1.06.28,1.35,1.35,0,0,0,.93-1.27,1.33,1.33,0,0,0-.52-1.08,1.78,1.78,0,0,1-1.5.81,1.9,1.9,0,0,1-.63-.12,1.51,1.51,0,0,0-.06.37,1.16,1.16,0,0,0,.08.42A1.11,1.11,0,0,1,32.6,42.23Z"/><path class="cls-3" d="M32.62,42.24a1.31,1.31,0,0,0,.86.33,1.49,1.49,0,0,0,.43-.07,2.23,2.23,0,0,0-1.06-.28Z"/><path class="cls-4" d="M32.62,42.24a1.31,1.31,0,0,0,.86.33,1.49,1.49,0,0,0,.43-.07,2.23,2.23,0,0,0-1.06-.28Z"/><path class="cls-3" d="M25.18,40.12a1.41,1.41,0,0,0,1.43-1.41,1.43,1.43,0,1,0-1.43,1.41Z"/><path class="cls-4" d="M36,28.22a.78.78,0,0,0,0-.16,1.43,1.43,0,0,0-1.42-1.43,1.42,1.42,0,0,0-.47,2.77A2.08,2.08,0,0,1,36,28.22Z"/><path class="cls-3" d="M36,28.22a2.08,2.08,0,0,0-1.87,1.18,1.33,1.33,0,0,0,.45.08A1.41,1.41,0,0,0,36,28.22Z"/><path class="cls-4" d="M36,28.22a2.08,2.08,0,0,0-1.87,1.18,1.33,1.33,0,0,0,.45.08A1.41,1.41,0,0,0,36,28.22Z"/><path class="cls-3" d="M25.73,27.55a2,2,0,1,0,2-1.95A2,2,0,0,0,25.73,27.55Z"/><path class="cls-4" d="M30.86,43.3a2.37,2.37,0,0,1,1.75-1.06h0a1.36,1.36,0,0,1-.39-.6,1.17,1.17,0,0,0-.66-.23,1.12,1.12,0,0,0-1.06.8,1.66,1.66,0,0,1,0,.33,1.1,1.1,0,0,0,.34.77h.07Z"/><path class="cls-2" d="M30.86,43.3h-.07l.05,0A.08.08,0,0,0,30.86,43.3Z"/><path class="cls-4" d="M30.86,43.3h-.07l.05,0A.08.08,0,0,0,30.86,43.3Z"/><path class="cls-3" d="M30.86,43.3a2.09,2.09,0,0,1,1,.26,1.09,1.09,0,0,0,.81-1.05,1.24,1.24,0,0,0,0-.27A2.37,2.37,0,0,0,30.86,43.3Z"/><path class="cls-4" d="M30.86,43.3a2.09,2.09,0,0,1,1,.26,1.09,1.09,0,0,0,.81-1.05,1.24,1.24,0,0,0,0-.27A2.37,2.37,0,0,0,30.86,43.3Z"/><path class="cls-3" d="M30.84,43.34a1.08,1.08,0,0,0,.7.26.92.92,0,0,0,.29,0,2.09,2.09,0,0,0-1-.26A.08.08,0,0,1,30.84,43.34Z"/><path class="cls-4" d="M30.84,43.34a1.08,1.08,0,0,0,.7.26.92.92,0,0,0,.29,0,2.09,2.09,0,0,0-1-.26A.08.08,0,0,1,30.84,43.34Z"/><path class="cls-3" d="M30.44,42.5v0a1.66,1.66,0,0,0,0-.33A1.45,1.45,0,0,0,30.44,42.5Z"/><path class="cls-4" d="M30.44,42.5v0a1.66,1.66,0,0,0,0-.33A1.45,1.45,0,0,0,30.44,42.5Z"/><path class="cls-4" d="M32.6,42.23a1,1,0,0,0-.39-.59A1.39,1.39,0,0,0,32.6,42.23Z"/><path class="cls-4" d="M32.6,42.23a1,1,0,0,0-.39-.59A1.39,1.39,0,0,0,32.6,42.23Z"/><path class="cls-4" d="M33.49,39.86a1.46,1.46,0,0,1,.83.29,1.69,1.69,0,0,0,.3-1,1.79,1.79,0,0,0-3.43-.72.41.41,0,0,1,0,.11,2,2,0,0,1-.14.74,1.77,1.77,0,0,0,1.13,1.53A1.36,1.36,0,0,1,33.49,39.86Z"/><path class="cls-4" d="M34.32,40.15a1.39,1.39,0,0,0-.83-.29,1.36,1.36,0,0,0-1.3,1,1.9,1.9,0,0,0,.63.12A1.78,1.78,0,0,0,34.32,40.15Z"/><path class="cls-4" d="M34.32,40.15a1.39,1.39,0,0,0-.83-.29,1.36,1.36,0,0,0-1.3,1,1.9,1.9,0,0,0,.63.12A1.78,1.78,0,0,0,34.32,40.15Z"/><path class="cls-3" d="M31.19,38.46a2.11,2.11,0,1,0-.13.85c0-.05,0-.1,0-.15A1.78,1.78,0,0,1,31.19,38.46Z"/><path class="cls-4" d="M31.19,38.46a1.82,1.82,0,0,0-.14.7c0,.05,0,.1,0,.15a2,2,0,0,0,.14-.74A.41.41,0,0,0,31.19,38.46Z"/><path class="cls-3" d="M31.19,38.46a1.82,1.82,0,0,0-.14.7c0,.05,0,.1,0,.15a2,2,0,0,0,.14-.74A.41.41,0,0,0,31.19,38.46Z"/><path class="cls-4" d="M34.32,48.61a1.5,1.5,0,0,0,.56-2.89,2.37,2.37,0,0,1-2,1.21,1,1,0,0,0,0,.17A1.5,1.5,0,0,0,34.32,48.61Z"/><path class="cls-3" d="M34.88,45.72a1.62,1.62,0,0,0-.54-.11,1.5,1.5,0,0,0-1.49,1.32A2.35,2.35,0,0,0,34.88,45.72Z"/><path class="cls-4" d="M34.88,45.72a1.62,1.62,0,0,0-.54-.11,1.5,1.5,0,0,0-1.49,1.32A2.35,2.35,0,0,0,34.88,45.72Z"/><path class="cls-3" d="M51.72,16.49a2.56,2.56,0,0,1,2.13-1.15l.36,0a1.16,1.16,0,0,0,0-.18,1,1,0,0,1-.17-.55,1,1,0,0,1,.07-.35,1.76,1.76,0,0,0-3.4.64A1.78,1.78,0,0,0,51.72,16.49Z"/><path class="cls-3" d="M54.21,15.37l-.36,0a2.56,2.56,0,0,0-2.13,1.15,1.73,1.73,0,0,0,2.49-1.12Z"/><path class="cls-3" d="M54.25,15.19a2.28,2.28,0,0,0,0-.26,1.69,1.69,0,0,0-.12-.64,1,1,0,0,0-.07.35A1,1,0,0,0,54.25,15.19Z"/><path class="cls-3" d="M61.1,23.86h.06a1.28,1.28,0,0,1,.48-.09h0a2.12,2.12,0,0,0,.92-.53,2.26,2.26,0,0,1-.09-.58,2.07,2.07,0,0,1,.33-1.12,1.74,1.74,0,0,1-.58-1.29.77.77,0,0,1,0-.15,1.41,1.41,0,0,1-1-.45l-.22,0a2,2,0,0,0-.89.2,1.2,1.2,0,0,1-.92.83,2.1,2.1,0,0,0,1.81,3.2Z"/><path class="cls-3" d="M62.28,20.1a.77.77,0,0,0,0,.15,1.74,1.74,0,0,0,.58,1.29,1.93,1.93,0,0,1,.28-.36,2.14,2.14,0,0,0-.71-1.08h-.13Z"/><path class="cls-3" d="M64,22a1.71,1.71,0,0,1-.81-.21,2.18,2.18,0,0,1-.61,1.44,2.09,2.09,0,0,0,1.32,1.41,1.66,1.66,0,0,1,.74-.74c0-.06,0-.12,0-.18a2.27,2.27,0,0,1,1.75-2.21,2,2,0,0,0-.73-.68A1.75,1.75,0,0,1,64,22Z"/><path class="cls-3" d="M64.9,24.75a2.33,2.33,0,0,1-.24-.84,1.66,1.66,0,0,0-.74.74,2.08,2.08,0,0,0,.71.13A2.48,2.48,0,0,0,64.9,24.75Z"/><path class="cls-3" d="M64.64,23.73c0,.06,0,.12,0,.18a1.67,1.67,0,0,1,.8-.21,1.74,1.74,0,0,1,.85.23,2.07,2.07,0,0,0,.43-1.27,2,2,0,0,0-.34-1.14A2.26,2.26,0,0,0,64.64,23.73Z"/><path class="cls-3" d="M66.31,23.93a1.74,1.74,0,0,0-.85-.23,1.67,1.67,0,0,0-.8.21,2.33,2.33,0,0,0,.24.84A2,2,0,0,0,66.31,23.93Z"/><path class="cls-3" d="M63.12,21.18a1.79,1.79,0,0,1,.09.57v.05A1.68,1.68,0,0,0,64,22a1.75,1.75,0,0,0,1.65-1.17,2.06,2.06,0,0,0-1-.29A2.12,2.12,0,0,0,63.12,21.18Z"/><path class="cls-3" d="M62.51,22.66a2.26,2.26,0,0,0,.09.58,2.18,2.18,0,0,0,.61-1.44,1.6,1.6,0,0,1-.37-.25A2,2,0,0,0,62.51,22.66Z"/><path class="cls-3" d="M63.21,21.8v-.05a1.79,1.79,0,0,0-.09-.57,1.93,1.93,0,0,0-.28.36A1.37,1.37,0,0,0,63.21,21.8Z"/><path class="cls-6" d="M60.93,18.69a1.39,1.39,0,0,0,.39,1,2.11,2.11,0,0,1,1,.35,1.74,1.74,0,0,1,1.47-1.48,1.42,1.42,0,0,0-2.69-.43l0,.1A1.39,1.39,0,0,0,60.93,18.69Z"/><path class="cls-2" d="M61.07,18.09l0,.1Z"/><path class="cls-6" d="M61.07,18.09l0,.1Z"/><path class="cls-2" d="M62.29,20l.12.1a1.42,1.42,0,0,0,1.37-1.41.88.88,0,0,0,0-.17A1.74,1.74,0,0,0,62.29,20Z"/><path class="cls-6" d="M62.29,20l.12.1a1.42,1.42,0,0,0,1.37-1.41.88.88,0,0,0,0-.17A1.74,1.74,0,0,0,62.29,20Z"/><path class="cls-3" d="M62.28,20.1a.34.34,0,0,1,0-.1,2.23,2.23,0,0,0-1-.35A1.41,1.41,0,0,0,62.28,20.1Z"/><path class="cls-6" d="M62.28,20.1a.34.34,0,0,1,0-.1,2.23,2.23,0,0,0-1-.35A1.41,1.41,0,0,0,62.28,20.1Z"/><path class="cls-3" d="M62.36,20.11h0l-.12-.1a.34.34,0,0,0,0,.1Z"/><path class="cls-6" d="M62.36,20.11h0l-.12-.1a.34.34,0,0,0,0,.1Z"/><path class="cls-3" d="M58.19,20.28a1.2,1.2,0,0,0,.89.4l.21,0a2.17,2.17,0,0,1,.92-.83,1.27,1.27,0,0,0,0-.34,1.33,1.33,0,0,0-.08-.45,1.74,1.74,0,0,1-2-.36l-.09.11a1.24,1.24,0,0,1,.29.79A1.21,1.21,0,0,1,58.19,20.28Z"/><path class="cls-3" d="M59.45,19.2a1.77,1.77,0,0,0,.73-.16,1.21,1.21,0,0,0-1.1-.74,1.19,1.19,0,0,0-.87.38A1.75,1.75,0,0,0,59.45,19.2Z"/><path class="cls-3" d="M58.19,20.28a1.21,1.21,0,0,0,.22-.7,1.19,1.19,0,0,0-.3-.79,1.21,1.21,0,0,0-.22.7A1.23,1.23,0,0,0,58.19,20.28Z"/><path class="cls-3" d="M60.21,19.83a2.11,2.11,0,0,0-.92.83A1.2,1.2,0,0,0,60.21,19.83Z"/><path class="cls-4" d="M50.16,18.3a1.55,1.55,0,1,0,1.55,1.55A1.54,1.54,0,0,0,50.16,18.3Z"/><path class="cls-5" d="M37.09,16.85a1.55,1.55,0,1,0-1.55-1.54A1.54,1.54,0,0,0,37.09,16.85Z"/><path class="cls-3" d="M31.63,18.72a1.16,1.16,0,1,0-1.16-1.15,1.14,1.14,0,0,0,.44.9l.18.11A1.09,1.09,0,0,0,31.63,18.72Z"/><path class="cls-4" d="M30.91,18.47a1.08,1.08,0,0,0,.18.11Z"/><path class="cls-3" d="M30.91,18.47a1.08,1.08,0,0,0,.18.11Z"/><path class="cls-4" d="M68.18,58.38a1.43,1.43,0,0,1,0-2.86l.24,0a2.64,2.64,0,0,0-1.71-.63l-.33,0A1.43,1.43,0,0,1,65,56a1.21,1.21,0,0,1-.38-.06,2.64,2.64,0,0,0-.54,1.6,2.56,2.56,0,0,0,.15.89h.09a2.39,2.39,0,0,1,2.3,1.76h.1a2.62,2.62,0,0,0,2.62-2.4A1.43,1.43,0,0,1,68.18,58.38Z"/><path class="cls-3" d="M47.63,56.91a1.74,1.74,0,0,1-.87,1.51A2.72,2.72,0,0,0,49.11,60a3,3,0,0,1,2.74-2,2.59,2.59,0,0,0,.09-.68,2.73,2.73,0,0,0,0-.41A1.44,1.44,0,0,1,51,55.57a1.45,1.45,0,0,1,0-.3,2.68,2.68,0,0,0-3.91.39A1.75,1.75,0,0,1,47.63,56.91Z"/><path class="cls-3" d="M51.91,56.91a2.71,2.71,0,0,0-.9-1.64,1.53,1.53,0,0,0,0,.3A1.45,1.45,0,0,0,51.91,56.91Z"/><path class="cls-2" d="M21.91,37.85A1.91,1.91,0,1,0,20,36,1.91,1.91,0,0,0,21.91,37.85Z"/><path class="cls-2" d="M42.31,63.77a2.29,2.29,0,1,0,2.34.86,1.5,1.5,0,0,1-2.34-.86Z"/><path class="cls-4" d="M58.8,53.18a1.47,1.47,0,0,1-.23.47,2.57,2.57,0,0,1,2.07,2.52v0a3.66,3.66,0,0,0,.57.05h.08a1.41,1.41,0,0,1,2-.85,2.54,2.54,0,0,0,.36-.45,1.49,1.49,0,0,1,0-.36,1.46,1.46,0,0,1,.5-1.09s0-.06,0-.1a2.86,2.86,0,0,0-2.86-2.85,3,3,0,0,0-.52.05,1.42,1.42,0,0,1-1.38,1.06,1.12,1.12,0,0,1-.32,0,3.23,3.23,0,0,0-.29.43A1.59,1.59,0,0,1,58.8,53.18Z"/><path class="cls-2" d="M58.37,53.62l.2,0a1.47,1.47,0,0,0,.23-.47A1.59,1.59,0,0,0,58.7,52a2.9,2.9,0,0,0-.34,1.35C58.36,53.47,58.37,53.55,58.37,53.62Z"/><path class="cls-4" d="M58.37,53.62l.2,0a1.47,1.47,0,0,0,.23-.47A1.59,1.59,0,0,0,58.7,52a2.9,2.9,0,0,0-.34,1.35C58.36,53.47,58.37,53.55,58.37,53.62Z"/><path class="cls-2" d="M60.64,56.19v0a2.57,2.57,0,0,0-2.07-2.52,1.73,1.73,0,0,1-.17.21A2.87,2.87,0,0,0,60.64,56.19Z"/><path class="cls-4" d="M60.64,56.19v0a2.57,2.57,0,0,0-2.07-2.52,1.73,1.73,0,0,1-.17.21A2.87,2.87,0,0,0,60.64,56.19Z"/><path class="cls-2" d="M58.57,53.65l-.2,0,0,.24A1.2,1.2,0,0,0,58.57,53.65Z"/><path class="cls-4" d="M58.57,53.65l-.2,0,0,.24A1.2,1.2,0,0,0,58.57,53.65Z"/><path class="cls-2" d="M62.64,58.1a1.42,1.42,0,0,0,.61-2.71,2.84,2.84,0,0,1-2,.85,1.62,1.62,0,0,0-.07.44A1.42,1.42,0,0,0,62.64,58.1Z"/><path class="cls-4" d="M63.25,55.39a1.4,1.4,0,0,0-.61-.14,1.42,1.42,0,0,0-1.35,1A2.84,2.84,0,0,0,63.25,55.39Z"/><path class="cls-2" d="M63.25,55.39a1.4,1.4,0,0,0-.61-.14,1.42,1.42,0,0,0-1.35,1A2.84,2.84,0,0,0,63.25,55.39Z"/><path class="cls-2" d="M68.42,55.55a2.63,2.63,0,0,1,.92,2,1.93,1.93,0,0,1,0,.24,1.46,1.46,0,0,0,.28-.84A1.42,1.42,0,0,0,68.42,55.55Z"/><path class="cls-4" d="M68.42,55.55l-.24,0a1.43,1.43,0,0,0,0,2.86,1.41,1.41,0,0,0,1.15-.6,1.69,1.69,0,0,0,0-.23A2.57,2.57,0,0,0,68.42,55.55Z"/><path class="cls-2" d="M68.42,55.55l-.24,0a1.43,1.43,0,0,0,0,2.86,1.41,1.41,0,0,0,1.15-.6,1.69,1.69,0,0,0,0-.23A2.57,2.57,0,0,0,68.42,55.55Z"/><path class="cls-2" d="M23,54.61l-.17,0a1.78,1.78,0,1,0,1.79,1.78,1.6,1.6,0,0,0,0-.23A2,2,0,0,1,23,54.61Z"/><path class="cls-5" d="M26.91,58.37a1.36,1.36,0,0,0-.17.67,1.42,1.42,0,0,0,1.42,1.42,1.44,1.44,0,0,0,1.2-.65A2.81,2.81,0,0,1,26.91,58.37Z"/><path class="cls-3" d="M28.16,57.61a1.42,1.42,0,0,0-1.25.76,2.81,2.81,0,0,0,2.45,1.44,1.48,1.48,0,0,0,.23-.77A1.43,1.43,0,0,0,28.16,57.61Z"/><path class="cls-5" d="M28.16,57.61a1.42,1.42,0,0,0-1.25.76,2.81,2.81,0,0,0,2.45,1.44,1.48,1.48,0,0,0,.23-.77A1.43,1.43,0,0,0,28.16,57.61Z"/><path class="cls-3" d="M40,53.67a1.58,1.58,0,0,0-1.58-1.53,1.45,1.45,0,0,0-.66.15,2.46,2.46,0,0,1-.87,1s0,.06,0,.09a1.51,1.51,0,0,1,.41,1,1.86,1.86,0,0,1,0,.34,1.57,1.57,0,0,0,1.18.54,1.53,1.53,0,0,0,.77-.21s0-.09,0-.14A1.44,1.44,0,0,1,40,53.67Z"/><path class="cls-3" d="M40,53.73s0,0,0-.06A1.44,1.44,0,0,0,39.18,55s0,.1,0,.14A1.56,1.56,0,0,0,40,53.73Z"/><path class="cls-2" d="M33,51.05a1.4,1.4,0,0,0-.83-.28,1.43,1.43,0,1,0,1.32,2,2.5,2.5,0,0,1-.5-1.49C33,51.18,33,51.12,33,51.05Z"/><path class="cls-3" d="M16.86,59a1.43,1.43,0,1,0,1.43,1.42A1.42,1.42,0,0,0,16.86,59Z"/><path class="cls-2" d="M19.11,51.58A1.43,1.43,0,1,0,20.53,53,1.43,1.43,0,0,0,19.11,51.58Z"/><path class="cls-2" d="M60.69,50.59a1.36,1.36,0,0,0,.05-.36,1.43,1.43,0,1,0-2.85,0A1.41,1.41,0,0,0,59,51.61,2.86,2.86,0,0,1,60.69,50.59Z"/><path class="cls-4" d="M60.69,50.59a2.86,2.86,0,0,0-1.7,1,1.12,1.12,0,0,0,.32,0A1.42,1.42,0,0,0,60.69,50.59Z"/><path class="cls-2" d="M60.69,50.59a2.86,2.86,0,0,0-1.7,1,1.12,1.12,0,0,0,.32,0A1.42,1.42,0,0,0,60.69,50.59Z"/><path class="cls-3" d="M55.61,57.36a1.43,1.43,0,0,0-1.43-1.43,1.59,1.59,0,0,0-.38.06,1.45,1.45,0,0,1-1,1A1.34,1.34,0,0,0,53,58.21a2.9,2.9,0,0,1,.9.56l.24,0A1.43,1.43,0,0,0,55.61,57.36Z"/><path class="cls-3" d="M53.8,56a1.41,1.41,0,0,0-1,1A1.45,1.45,0,0,0,53.8,56Z"/><path class="cls-2" d="M32.33,64.31a1.43,1.43,0,1,0,1.42,1.42A1.43,1.43,0,0,0,32.33,64.31Z"/><path class="cls-3" d="M55.52,63.92a1.25,1.25,0,0,0-.34.86,1.29,1.29,0,1,0,2.4-.62,2.07,2.07,0,0,1-2.06-.24Z"/><path class="cls-2" d="M52.27,64a1.28,1.28,0,0,0,2.53-.3,1.24,1.24,0,0,0-.42-.94A3,3,0,0,1,52.27,64Z"/><path class="cls-2" d="M64.61,56a2.63,2.63,0,0,1,1.77-1,1.49,1.49,0,0,0,.05-.36A1.43,1.43,0,0,0,65,53.14a1.46,1.46,0,0,0-.93.35,2.88,2.88,0,0,1-.45,1.45A1.42,1.42,0,0,0,64.61,56Z"/><path class="cls-4" d="M64.61,56A1.21,1.21,0,0,0,65,56a1.44,1.44,0,0,0,1.39-1.07A2.63,2.63,0,0,0,64.61,56Z"/><path class="cls-2" d="M64.61,56A1.21,1.21,0,0,0,65,56a1.44,1.44,0,0,0,1.39-1.07A2.63,2.63,0,0,0,64.61,56Z"/><path class="cls-4" d="M63.56,54.58a1.49,1.49,0,0,0,0,.36,2.85,2.85,0,0,0,.45-1.45A1.46,1.46,0,0,0,63.56,54.58Z"/><path class="cls-2" d="M63.56,54.58a1.49,1.49,0,0,0,0,.36,2.85,2.85,0,0,0,.45-1.45A1.46,1.46,0,0,0,63.56,54.58Z"/><path class="cls-2" d="M31.17,49.16a1,1,0,1,0,1-1A1,1,0,0,0,31.17,49.16Z"/><path class="cls-4" d="M58.47,65.45a.8.8,0,1,0,.84.8.88.88,0,0,0-.07-.32A1.68,1.68,0,0,1,58.47,65.45Z"/><path class="cls-2" d="M58.5,65.45h0a1.68,1.68,0,0,0,.77.48A.8.8,0,0,0,58.5,65.45Z"/><path class="cls-4" d="M58.5,65.45h0a1.68,1.68,0,0,0,.77.48A.8.8,0,0,0,58.5,65.45Z"/><path class="cls-3" d="M54.41,54.42a.9.9,0,0,1,0,.18,1,1,0,0,0,.43.26,1.08,1.08,0,0,0,1.33-.74.61.61,0,0,0,0-.13,1.58,1.58,0,0,1-.59-1.14,1,1,0,0,0-.18-.06,1.08,1.08,0,0,0-1.33.73,2.23,2.23,0,0,0,0,.23A.8.8,0,0,1,54.41,54.42Z"/><path class="cls-3" d="M56.18,54a1.08,1.08,0,0,0-.59-1.14A1.58,1.58,0,0,0,56.18,54Z"/><path class="cls-3" d="M54.39,54.6a.9.9,0,0,0,0-.18.81.81,0,0,0-.37-.67A1,1,0,0,0,54.39,54.6Z"/><path class="cls-3" d="M34.75,55.52a1.7,1.7,0,1,0,2.32,1.58,1.67,1.67,0,0,0-.64-1.32,1.55,1.55,0,0,1-.65.15A1.51,1.51,0,0,1,34.75,55.52Z"/><path class="cls-2" d="M22.72,60.62a1,1,0,1,0,1,1A1,1,0,0,0,22.72,60.62Z"/><path class="cls-2" d="M32.4,28.43a.81.81,0,1,0-.8.8A.8.8,0,0,0,32.4,28.43Z"/><circle class="cls-2" cx="47.82" cy="68.5" r="1.03"/><path class="cls-2" d="M64.22,58.44a2.46,2.46,0,0,0-1.36.48,1.91,1.91,0,0,1,.18.79A1.83,1.83,0,0,1,62,61.38a2.41,2.41,0,1,0,4.66-1.2A2.63,2.63,0,0,1,64.22,58.44Z"/><path class="cls-4" d="M64.31,58.43h-.09a2.66,2.66,0,0,0,2.4,1.75A2.41,2.41,0,0,0,64.31,58.43Z"/><path class="cls-2" d="M64.31,58.43h-.09a2.66,2.66,0,0,0,2.4,1.75A2.41,2.41,0,0,0,64.31,58.43Z"/><path class="cls-3" d="M58.47,58.71l-.39,0a2.57,2.57,0,0,1-1.86-.8,1.77,1.77,0,0,0-1,1.61,1.71,1.71,0,0,0,.35,1,2,2,0,0,1,2.66.18,1.71,1.71,0,0,0,.5-1.22A1.7,1.7,0,0,0,58.47,58.71Z"/><path class="cls-3" d="M56.94,57.79a1.72,1.72,0,0,0-.72.15,2.57,2.57,0,0,0,1.86.8l.39,0A1.74,1.74,0,0,0,56.94,57.79Z"/><path class="cls-3" d="M45.18,58a1.45,1.45,0,0,1,.66.7h0a1.68,1.68,0,0,0,.89-.25,2.7,2.7,0,0,1,.33-2.77,1.71,1.71,0,0,0-1.22-.5,1.77,1.77,0,0,0-.69.14,2.09,2.09,0,0,1,.49,1.33A2.13,2.13,0,0,1,45.18,58Z"/><path class="cls-3" d="M45.18,58a2,2,0,0,1-.37.34,1.72,1.72,0,0,0,1,.36A1.52,1.52,0,0,0,45.18,58Z"/><path class="cls-3" d="M46.76,58.42a1.73,1.73,0,0,0,.33-2.76,2.68,2.68,0,0,0-.33,2.76Z"/><path class="cls-3" d="M44.36,57.8a1.68,1.68,0,0,1-.25-.89,1.76,1.76,0,0,1,1.07-1.62,2.08,2.08,0,0,0-1.62-.78,2.11,2.11,0,0,0-1.34.48,1.75,1.75,0,0,1-.49,2.69,2.08,2.08,0,0,0,1.38,1A1.49,1.49,0,0,1,44.36,57.8Z"/><path class="cls-3" d="M44.81,58.31a1.58,1.58,0,0,1-.45-.51,1.49,1.49,0,0,0-1.25.89,2.14,2.14,0,0,0,.45.05A2,2,0,0,0,44.81,58.31Z"/><path class="cls-3" d="M42.65,56.13A1.77,1.77,0,0,0,42.22,55l-.21.19a1.38,1.38,0,0,1-.48.86,1.9,1.9,0,0,0-.09.58,2.13,2.13,0,0,0,.29,1.06A1.79,1.79,0,0,0,42.65,56.13Z"/><path class="cls-3" d="M42,55.18a2.15,2.15,0,0,0-.48.86A1.38,1.38,0,0,0,42,55.18Z"/><path class="cls-3" d="M44.11,56.91a1.68,1.68,0,0,0,.25.89h.12a1.52,1.52,0,0,1,.7.18,2.13,2.13,0,0,0,.49-1.35,2.16,2.16,0,0,0-.48-1.33A1.75,1.75,0,0,0,44.11,56.91Z"/><path class="cls-3" d="M45.18,58a1.52,1.52,0,0,0-.7-.18h-.12a1.58,1.58,0,0,0,.45.51A2,2,0,0,0,45.18,58Z"/><path class="cls-3" d="M27,52.46a2.5,2.5,0,1,0-2.5-2.5A2.5,2.5,0,0,0,27,52.46Z"/><circle class="cls-3" cx="18.63" cy="47.08" r="1.73"/><path class="cls-3" d="M35.78,52.93a1.49,1.49,0,0,1,1,.43l.07,0a1.56,1.56,0,0,1,.87-1,2.58,2.58,0,0,0,.22-1,2.49,2.49,0,0,0-5-.2,1.39,1.39,0,0,1,.59,1.15,1.41,1.41,0,0,1-.11.54,2.69,2.69,0,0,0,1.08.83A1.5,1.5,0,0,1,35.78,52.93Z"/><path class="cls-3" d="M36.89,53.31a2.46,2.46,0,0,0,.87-1A1.58,1.58,0,0,0,36.89,53.31Z"/><path class="cls-3" d="M33,51.05c0,.06,0,.13,0,.2a2.5,2.5,0,0,0,.5,1.49,1.62,1.62,0,0,0,.1-.54A1.39,1.39,0,0,0,33,51.05Z"/><path class="cls-4" d="M23.59,40.43a2,2,0,1,0-1.92,2A2,2,0,0,0,23.59,40.43Z"/><path class="cls-5" d="M44.1,62a1.86,1.86,0,0,0-.33,0,1.5,1.5,0,0,0-1.5,1.5,2.09,2.09,0,0,0,0,.35,2.22,2.22,0,0,1,.51-.06,2.28,2.28,0,0,1,1.83.92,1.54,1.54,0,0,0,.61-1.15A1.75,1.75,0,0,1,44.1,62Z"/><path class="cls-2" d="M44.1,62a1.75,1.75,0,0,0,1.16,1.52v-.06A1.49,1.49,0,0,0,44.1,62Z"/><path class="cls-5" d="M44.1,62a1.75,1.75,0,0,0,1.16,1.52v-.06A1.49,1.49,0,0,0,44.1,62Z"/><path class="cls-2" d="M42.82,63.71a2.22,2.22,0,0,0-.51.06,1.5,1.5,0,0,0,2.34.86A2.28,2.28,0,0,0,42.82,63.71Z"/><path class="cls-5" d="M42.82,63.71a2.22,2.22,0,0,0-.51.06,1.5,1.5,0,0,0,2.34.86A2.28,2.28,0,0,0,42.82,63.71Z"/><path class="cls-3" d="M36.87,53.41s0,0,0,0a2.5,2.5,0,0,1-1.33.39,2.61,2.61,0,0,1-.93-.18,1.48,1.48,0,0,0,.19,2,1.63,1.63,0,0,1,.62-.12,1.68,1.68,0,0,1,1.06.37,1.49,1.49,0,0,0,.81-1,1.56,1.56,0,0,1-.41-1A1.12,1.12,0,0,1,36.87,53.41Z"/><path class="cls-3" d="M36.87,53.41a1.12,1.12,0,0,0,0,.32,1.56,1.56,0,0,0,.41,1,1.86,1.86,0,0,0,0-.34A1.47,1.47,0,0,0,36.87,53.41Z"/><path class="cls-3" d="M34.75,55.52a1.51,1.51,0,0,0,1,.41,1.55,1.55,0,0,0,.65-.15,1.64,1.64,0,0,0-1.06-.38A1.59,1.59,0,0,0,34.75,55.52Z"/><path class="cls-3" d="M36.82,53.36a1.49,1.49,0,0,0-1-.43,1.51,1.51,0,0,0-1.22.64,2.61,2.61,0,0,0,.93.18A2.41,2.41,0,0,0,36.82,53.36Z"/><path class="cls-3" d="M37.05,64.92a1.5,1.5,0,1,0,1.5,1.5A1.5,1.5,0,0,0,37.05,64.92Z"/><path class="cls-2" d="M52.8,65.06a1.76,1.76,0,1,0,1.76,1.77A1.76,1.76,0,0,0,52.8,65.06Z"/><path class="cls-3" d="M54.94,61a3,3,0,0,0-1-2.22,1.43,1.43,0,0,1-.9-.56A2.86,2.86,0,0,0,52,58h-.1a2.7,2.7,0,0,1-2.62,2h-.12A3.13,3.13,0,0,0,49,61a2.91,2.91,0,0,0,.06.6,1.55,1.55,0,0,1,1.24,1.51.88.88,0,0,1,0,.17,2.56,2.56,0,0,1,.48.45,3,3,0,0,0,1.23.27l.33,0a1.54,1.54,0,0,1,0-.3,1.27,1.27,0,0,1,2.15-.94,2.7,2.7,0,0,0,.3-.52,2.12,2.12,0,0,1,.24-.91C54.93,61.19,54.94,61.1,54.94,61Z"/><path class="cls-3" d="M50.23,63.27a1,1,0,0,1,0,.17,4,4,0,0,0,.5.28A2.56,2.56,0,0,0,50.23,63.27Z"/><path class="cls-3" d="M50.23,63.27a.88.88,0,0,0,0-.17A1.55,1.55,0,0,0,49,61.59,3,3,0,0,0,49.75,63,2.16,2.16,0,0,1,50.23,63.27Z"/><path class="cls-3" d="M50.21,63.44a1,1,0,0,0,0-.17,2.16,2.16,0,0,0-.48-.24A3,3,0,0,0,50.21,63.44Z"/><path class="cls-3" d="M49.11,60h.12a2.7,2.7,0,0,0,2.62-2A3,3,0,0,0,49.11,60Z"/><path class="cls-3" d="M53.94,58.77a2.9,2.9,0,0,0-.9-.56A1.43,1.43,0,0,0,53.94,58.77Z"/><path class="cls-3" d="M52.23,63.67a1.54,1.54,0,0,0,0,.3,3,3,0,0,0,2.11-1.24,1.24,1.24,0,0,0-.87-.35A1.28,1.28,0,0,0,52.23,63.67Z"/><path class="cls-2" d="M25,52.19a2,2,0,0,0-2.07,1.92,2.07,2.07,0,0,0,.05.5,1.77,1.77,0,0,1,1.59,1.53l.29,0a2,2,0,0,0,.14-4Z"/><path class="cls-2" d="M23,54.61a2,2,0,0,0,1.59,1.53A1.77,1.77,0,0,0,23,54.61Z"/><path class="cls-5" d="M62.86,58.92A1.82,1.82,0,1,0,60,61.07a1.14,1.14,0,0,1,.73.4,2,2,0,0,0,.48.07,1.87,1.87,0,0,0,.75-.16,2.35,2.35,0,0,1-.07-.54A2.42,2.42,0,0,1,62.86,58.92Z"/><path class="cls-2" d="M63,59.71a1.91,1.91,0,0,0-.18-.79,2.44,2.44,0,0,0-1,1.93,2.33,2.33,0,0,0,.07.53A1.82,1.82,0,0,0,63,59.71Z"/><path class="cls-5" d="M63,59.71a1.91,1.91,0,0,0-.18-.79,2.44,2.44,0,0,0-1,1.93,2.33,2.33,0,0,0,.07.53A1.82,1.82,0,0,0,63,59.71Z"/><path class="cls-3" d="M61.48,64.28a1.4,1.4,0,0,1-.06.41,1.13,1.13,0,0,0,.32,0A1.25,1.25,0,1,0,61,62.51a1,1,0,0,1-.18.41A1.73,1.73,0,0,1,61.48,64.28Z"/><path class="cls-3" d="M60.81,62.92a1.15,1.15,0,0,1-.27.27,1,1,0,0,0,0,.3,1.24,1.24,0,0,0,.92,1.2,1.4,1.4,0,0,0,.06-.41A1.73,1.73,0,0,0,60.81,62.92Z"/><path class="cls-3" d="M59.84,61.05a1.2,1.2,0,0,0-1.09.7,2.16,2.16,0,0,1,.07.51,1.86,1.86,0,0,1-.06.48s0,0,0,.08a1.68,1.68,0,0,1,.94-.28,1.72,1.72,0,0,1,.95.29,1.3,1.3,0,0,1,.3-.32,1.24,1.24,0,0,0,0-.27,1.16,1.16,0,0,0-.29-.77,2,2,0,0,1-.73-.4Z"/><path class="cls-3" d="M59.84,63.43a1.16,1.16,0,0,0,.7-.24,1.14,1.14,0,0,1,.15-.36,1.72,1.72,0,0,0-.95-.29,1.68,1.68,0,0,0-.94.28A1.2,1.2,0,0,0,59.84,63.43Z"/><path class="cls-3" d="M60,61.07a2,2,0,0,0,.73.4A1.14,1.14,0,0,0,60,61.07Z"/><path class="cls-3" d="M60.69,62.83l.12.09a1.25,1.25,0,0,0,.18-.41A1.14,1.14,0,0,0,60.69,62.83Z"/><path class="cls-3" d="M60.81,62.92a.87.87,0,0,0-.11-.09,1,1,0,0,0-.16.36A1.15,1.15,0,0,0,60.81,62.92Z"/><path class="cls-2" d="M14.06,43a1,1,0,1,0,.35,1.91,1,1,0,0,0,.77-1.13A1,1,0,0,0,14.06,43Z"/><path class="cls-5" d="M18.65,37.49a.79.79,0,1,0-.28-1.56.79.79,0,0,0,.28,1.56Z"/><path class="cls-2" d="M60,27.77a1.9,1.9,0,0,1,0-.25,1.4,1.4,0,0,0-.41-.06h-.13a2.63,2.63,0,0,1-.85.52A1.4,1.4,0,0,1,59.14,29a1.36,1.36,0,0,1,0,.2,1.35,1.35,0,0,1,.57-.12,1.43,1.43,0,0,1,1.13.57.75.75,0,0,0,.07-.12A2.33,2.33,0,0,1,60,27.77Z"/><path class="cls-2" d="M58.6,27.93l.07.06a2.63,2.63,0,0,0,.85-.52A1.43,1.43,0,0,0,58.6,27.93Z"/><path class="cls-2" d="M59.65,30.31a1.44,1.44,0,0,1-.88-.32,1.38,1.38,0,0,1-.48.35,1.23,1.23,0,0,0,0,.2,1.42,1.42,0,1,0,2.55-.85A1.41,1.41,0,0,1,59.65,30.31Z"/><path class="cls-2" d="M59.69,29.12a1.35,1.35,0,0,0-.57.12,1.45,1.45,0,0,1-.35.75,1.44,1.44,0,0,0,.88.32,1.41,1.41,0,0,0,1.17-.62A1.43,1.43,0,0,0,59.69,29.12Z"/><path class="cls-3" d="M63.76,25.88a2.49,2.49,0,0,0-.73-.36,1.43,1.43,0,0,1-2.39.69,2.28,2.28,0,0,0-.58,1.31,1.42,1.42,0,0,1,1,1.36,1.35,1.35,0,0,1-.19.69,2.32,2.32,0,0,0,1.49.55,2.35,2.35,0,0,0,2.35-2.35,2.31,2.31,0,0,0-.15-.79A1.77,1.77,0,0,1,63.76,25.88Z"/><path class="cls-3" d="M63.76,25.88a1.77,1.77,0,0,0,.82,1.1A2.26,2.26,0,0,0,63.76,25.88Z"/><path class="cls-3" d="M60.06,27.52a1.9,1.9,0,0,0,0,.25,2.33,2.33,0,0,0,.86,1.8,1.35,1.35,0,0,0,.19-.69A1.42,1.42,0,0,0,60.06,27.52Z"/><path class="cls-3" d="M58.23,28.88a1.41,1.41,0,0,1,.28-.84,2.56,2.56,0,0,1-1.1.07,1.32,1.32,0,0,1,.06.39,1.42,1.42,0,0,1-.93,1.33,1.43,1.43,0,0,0,1.18.63,1.53,1.53,0,0,0,.57-.12,1.46,1.46,0,0,1,.23-.61A1.38,1.38,0,0,1,58.23,28.88Z"/><path class="cls-3" d="M57.72,27.62a1.33,1.33,0,0,0-.49.09,1.44,1.44,0,0,1,.18.4,2.56,2.56,0,0,0,1.1-.07l.09-.11A1.43,1.43,0,0,0,57.72,27.62Z"/><path class="cls-3" d="M58.23,28.88a1.38,1.38,0,0,0,.29.85,1.51,1.51,0,0,1,.6-.49,1.36,1.36,0,0,0,0-.2A1.4,1.4,0,0,0,58.67,28l-.16.05A1.41,1.41,0,0,0,58.23,28.88Z"/><path class="cls-3" d="M58.51,28l.16-.05-.07-.06Z"/><path class="cls-3" d="M58.77,30a1.54,1.54,0,0,1-.25-.26,1.46,1.46,0,0,0-.23.61A1.48,1.48,0,0,0,58.77,30Z"/><path class="cls-3" d="M58.52,29.73a1.54,1.54,0,0,0,.25.26,1.45,1.45,0,0,0,.35-.75A1.51,1.51,0,0,0,58.52,29.73Z"/><path class="cls-5" d="M56.81,28a2.53,2.53,0,0,1-1.07-.84,1.43,1.43,0,0,0,.3,2.82,1.35,1.35,0,0,0,.5-.1A1.44,1.44,0,0,1,56.3,29,1.42,1.42,0,0,1,56.81,28Z"/><path class="cls-2" d="M56.81,28a1.47,1.47,0,0,1,.42-.24A1.43,1.43,0,0,0,56,27.08a1.53,1.53,0,0,0-.3,0A2.53,2.53,0,0,0,56.81,28Z"/><path class="cls-5" d="M56.81,28a1.47,1.47,0,0,1,.42-.24A1.43,1.43,0,0,0,56,27.08a1.53,1.53,0,0,0-.3,0A2.53,2.53,0,0,0,56.81,28Z"/><path class="cls-3" d="M57.47,28.51a1.34,1.34,0,0,0-.06-.4,2.41,2.41,0,0,1-.6-.16A1.42,1.42,0,0,0,56.3,29a1.44,1.44,0,0,0,.24.79A1.42,1.42,0,0,0,57.47,28.51Z"/><path class="cls-5" d="M57.47,28.51a1.34,1.34,0,0,0-.06-.4,2.41,2.41,0,0,1-.6-.16A1.42,1.42,0,0,0,56.3,29a1.44,1.44,0,0,0,.24.79A1.42,1.42,0,0,0,57.47,28.51Z"/><path class="cls-3" d="M56.81,28a2.41,2.41,0,0,0,.6.16,1.44,1.44,0,0,0-.18-.4A1.47,1.47,0,0,0,56.81,28Z"/><path class="cls-5" d="M56.81,28a2.41,2.41,0,0,0,.6.16,1.44,1.44,0,0,0-.18-.4A1.47,1.47,0,0,0,56.81,28Z"/><path class="cls-4" d="M61.68,23.77a2.27,2.27,0,0,1-.52.09,1.42,1.42,0,0,0-.9,1,2.84,2.84,0,0,1,.1.72,1.48,1.48,0,0,1,0,.21,1.22,1.22,0,0,0,.29.41,2.35,2.35,0,0,1,1.74-.78,2.38,2.38,0,0,1,.65.1,1.66,1.66,0,0,0,0-.33A1.43,1.43,0,0,0,61.68,23.77Z"/><path class="cls-2" d="M60.26,24.86a1.24,1.24,0,0,0,0,.33,1.47,1.47,0,0,0,.13.6,1.48,1.48,0,0,0,0-.21A2.84,2.84,0,0,0,60.26,24.86Z"/><path class="cls-4" d="M60.26,24.86a1.24,1.24,0,0,0,0,.33,1.47,1.47,0,0,0,.13.6,1.48,1.48,0,0,0,0-.21A2.84,2.84,0,0,0,60.26,24.86Z"/><path class="cls-3" d="M61.64,23.77a1.28,1.28,0,0,0-.48.09,2.27,2.27,0,0,0,.52-.09Z"/><path class="cls-4" d="M61.64,23.77a1.28,1.28,0,0,0-.48.09,2.27,2.27,0,0,0,.52-.09Z"/><path class="cls-3" d="M60.64,26.2a1.39,1.39,0,0,0,1,.42A1.43,1.43,0,0,0,63,25.52a2.38,2.38,0,0,0-.65-.1A2.35,2.35,0,0,0,60.64,26.2Z"/><path class="cls-4" d="M60.64,26.2a1.39,1.39,0,0,0,1,.42A1.43,1.43,0,0,0,63,25.52a2.38,2.38,0,0,0-.65-.1A2.35,2.35,0,0,0,60.64,26.2Z"/><path class="cls-4" d="M58.72,62.88c0-.05,0-.09,0-.14a1.18,1.18,0,0,1-.11-.5,1.3,1.3,0,0,1,.1-.49,2.12,2.12,0,0,0-.55-1,1.74,1.74,0,0,1-2.67-.18,2.2,2.2,0,0,0-.61.71,2.85,2.85,0,0,1-.24.91v0a2.06,2.06,0,0,0,.84,1.66,1.25,1.25,0,0,1,.94-.42,1.29,1.29,0,0,1,1.12.66,2.26,2.26,0,0,0,.49-.31A1.72,1.72,0,0,1,58.72,62.88Z"/><path class="cls-2" d="M58.72,62.88a1.76,1.76,0,0,0-.65,1A2.09,2.09,0,0,0,58.72,62.88Z"/><path class="cls-4" d="M58.72,62.88a1.76,1.76,0,0,0-.65,1A2.09,2.09,0,0,0,58.72,62.88Z"/><path class="cls-3" d="M56.46,63.49a1.26,1.26,0,0,0-.94.43,2.07,2.07,0,0,0,2.06.24A1.28,1.28,0,0,0,56.46,63.49Z"/><path class="cls-4" d="M56.46,63.49a1.26,1.26,0,0,0-.94.43,2.07,2.07,0,0,0,2.06.24A1.28,1.28,0,0,0,56.46,63.49Z"/><path class="cls-3" d="M55.53,60.59a1.75,1.75,0,0,0,2.66.18,2,2,0,0,0-2.66-.18Z"/><path class="cls-4" d="M55.53,60.59a1.75,1.75,0,0,0,2.66.18,2,2,0,0,0-2.66-.18Z"/><path class="cls-3" d="M54.68,62.21a2.84,2.84,0,0,0,.24-.92A2.2,2.2,0,0,0,54.68,62.21Z"/><path class="cls-4" d="M54.68,62.21a2.84,2.84,0,0,0,.24-.92A2.2,2.2,0,0,0,54.68,62.21Z"/><path class="cls-3" d="M58.76,62.74a2,2,0,0,0,.06-.48,2.09,2.09,0,0,0-.07-.51,1.3,1.3,0,0,0-.1.49A1.18,1.18,0,0,0,58.76,62.74Z"/><path class="cls-4" d="M58.76,62.74a2,2,0,0,0,.06-.48,2.09,2.09,0,0,0-.07-.51,1.3,1.3,0,0,0-.1.49A1.18,1.18,0,0,0,58.76,62.74Z"/><rect class="cls-1" width="164" height="76.75"/></g></g></svg>