<svg xmlns="http://www.w3.org/2000/svg" viewBox="0 0 164 76.75"><defs><style>.cls-1{fill:#333;}.cls-2{fill:none;}</style></defs><title>disney-logo</title><g id="Layer_2" data-name="Layer 2"><g id="Layer_1-2" data-name="Layer 1"><path class="cls-1" d="M43.21,44.43a37.37,37.37,0,0,0,.28,5.89c.12.89.24,1,1.1,1.17a28.08,28.08,0,0,0,13.94-1.06,17.35,17.35,0,0,0,3.79-1.93A7.52,7.52,0,0,0,65.71,41a12.73,12.73,0,0,0-2.5-6,26.3,26.3,0,0,0-8-7.18,52.67,52.67,0,0,0-19.56-7.6,50.34,50.34,0,0,0-10.9-.62,9.43,9.43,0,0,0-2.92.59c-.22.08-.53.16-.53.41s.34.27.56.33l1,.26c.35.1.55.19.52.53s-.31.45-.61.52a4.65,4.65,0,0,1-1.82,0,2.83,2.83,0,0,1-.4-.08,1.38,1.38,0,0,1-1.25-1.5,1.34,1.34,0,0,1,.33-.78,5.65,5.65,0,0,1,2.33-2,11.83,11.83,0,0,1,4.7-1.19A49.76,49.76,0,0,1,62.36,28.4,24.52,24.52,0,0,1,69.21,37a13.12,13.12,0,0,1,1.3,6,9.51,9.51,0,0,1-2.43,5.84,18.05,18.05,0,0,1-9.64,5.88,30.31,30.31,0,0,1-10.61.66A29.55,29.55,0,0,1,44,54.76c-.26-.06-.4,0-.48.26a5.2,5.2,0,0,1-.43,1A2,2,0,0,1,41,57.12a1.9,1.9,0,0,1-1.68-1.48A15,15,0,0,1,39,53.75a2.39,2.39,0,0,0-1.51-1.88A21.68,21.68,0,0,1,27.78,44c-.18-.27-.34-.55-.49-.83a2.26,2.26,0,0,1,.66-3,21.23,21.23,0,0,1,7.71-3.38c.92-.23,1.85-.45,2.78-.6a.76.76,0,0,0,.75-.79v0c.1-1.29.2-2.57.33-3.85a17.9,17.9,0,0,1,.69-3.63c.24-.72.74-.86,1.31-.37a4.9,4.9,0,0,1,1.53,3.33c.16,1.23.16,2.48.41,3.69.21,1,.21,1,1.25,1.09a40.4,40.4,0,0,1,7.36.85,14.91,14.91,0,0,1,5,2.1A4,4,0,0,1,58.54,43a3.34,3.34,0,0,1-3,2.1,5.85,5.85,0,0,1-1.77-.1.48.48,0,0,1-.51-.35c0-.26.12-.39.28-.51.45-.36.92-.69,1.36-1.06.7-.58.65-1-.15-1.42a13.05,13.05,0,0,0-3.68-1.11c-2.26-.45-4.55-.72-6.84-1-.66-.09-.87.09-.87.76v4.12Zm-4.3-.73V40.54c0-.33,0-.68-.53-.66a35.39,35.39,0,0,0-6.41.67,18.55,18.55,0,0,0-2.82.82c-1.07.43-1.27,1.18-.56,2.05A13.57,13.57,0,0,0,31.36,46a21.6,21.6,0,0,0,6.42,3.21c.74.2.73.19.82-.59A38.58,38.58,0,0,0,38.91,43.7Z"/><path class="cls-1" d="M125,62.91a23.33,23.33,0,0,1,1.25-6.46c.57-1.84,1.34-3.61,2-5.42a.63.63,0,0,0,0-.58,8.77,8.77,0,0,1-.33-6.58,17.11,17.11,0,0,1,5.39-8.21.51.51,0,0,1,.59-.16c.28.12.22.35.2.56a8.39,8.39,0,0,1-1,3.08c-.52,1-1.08,1.92-1.61,2.88a9.31,9.31,0,0,0-1.23,3.42V46a.43.43,0,0,0,.22.47c.22.11.3-.11.4-.22.92-1.07,1.83-2.14,2.74-3.22a26.86,26.86,0,0,1,4.25-4.21,12.78,12.78,0,0,1,2.7-1.51,1.75,1.75,0,0,1,1.56.08A3.15,3.15,0,0,1,143.83,39a9.62,9.62,0,0,1-1.5,10.34,12.47,12.47,0,0,1-7,4.37,8.26,8.26,0,0,1-2.48.17.47.47,0,0,0-.57.36v0a60.25,60.25,0,0,0-3.54,13.26c-.11.72-.43.88-1.09.59a4.33,4.33,0,0,1-2.48-3.59A7.9,7.9,0,0,1,125,62.91Zm17.29-20.63a2,2,0,0,0-.46-1.32c-.25-.41-.49-.34-.77-.08-.5.45-1,.92-1.44,1.42a25.77,25.77,0,0,0-4.17,5.91c-.13.28-.45.69-.28.85s.67.07,1,0a10.53,10.53,0,0,0,2.28-1A6.65,6.65,0,0,0,142.31,42.28Z"/><path class="cls-1" d="M88.64,35.56a34.51,34.51,0,0,1,6.42.64c.46.08,1,.21,1.09.77a1.79,1.79,0,0,1-.94,1.58,4.74,4.74,0,0,1-1,.16c-2.29.28-4.6.33-6.9.52a24.34,24.34,0,0,0-5.35.9c-.16,0-.41,0-.41.28s.19.34.38.42a9.77,9.77,0,0,0,2.45.43c2.5.32,5,.52,7.5,1s3.33,1.3,3.79,3.74a5.49,5.49,0,0,1-.07,2.76,4.11,4.11,0,0,1-2.15,2.65,12.32,12.32,0,0,1-12.09-.5,5.09,5.09,0,0,1-1.81-1.82,2.8,2.8,0,0,1,1-3.83,3,3,0,0,1,.61-.26,12.5,12.5,0,0,1,9.42,1.24.47.47,0,0,1,.23.63.54.54,0,0,1-.23.22c-1.41.76-2.85,1.38-4.49.67-.77-.34-1.56-.63-2.36-.92a3.53,3.53,0,0,0-2.44,0,1.15,1.15,0,0,0-.67.59.58.58,0,0,0,.14.82.62.62,0,0,0,.22.1,11.16,11.16,0,0,0,5.89.57,36.26,36.26,0,0,0,5-1.17h.09c.46-.17.91-.4,1-.92a1.29,1.29,0,0,0-.57-1.23,5.88,5.88,0,0,0-2.43-1.09,35.16,35.16,0,0,0-6.3-.81c-1.06-.08-2.13-.1-3.19-.24-1.94-.26-2.38-1.24-2.16-3.3a2.6,2.6,0,0,1,1.08-1.77,13.63,13.63,0,0,1,7.09-2.63A15.79,15.79,0,0,1,88.64,35.56Z"/><path class="cls-1" d="M121.15,45.37c-.8,0-1.61,0-2.41,0a1.56,1.56,0,0,0-1.27.88,12.32,12.32,0,0,0-.73,2.47c-.06.2.11.22.22.26a1.7,1.7,0,0,0,1,0,34.48,34.48,0,0,1,4.5-.8,6.22,6.22,0,0,1,1.22,0,1.47,1.47,0,0,1,1.45,1.5.17.17,0,0,0,0,.07.7.7,0,0,1-.25.63,16.17,16.17,0,0,1-5.78,3.2,7.56,7.56,0,0,1-4.06,0,3.13,3.13,0,0,1-2.31-2.33,5.12,5.12,0,0,1,.26-3.67c.22-.48.45-.95.65-1.43a2.15,2.15,0,0,0,0-1.82,1,1,0,0,1,.45-1.34,1,1,0,0,1,.36-.1,1.33,1.33,0,0,0,1.14-1,9.18,9.18,0,0,1,.65-1.7c.16-.23-.07-.31-.19-.38-.5-.28-1-.54-1.52-.81a1.74,1.74,0,0,1-1.06-1.33.5.5,0,0,1,.32-.63l.07,0a4.78,4.78,0,0,1,1.4-.24,42.18,42.18,0,0,0,4.63-.61,27.15,27.15,0,0,1,5.33-.13,1.41,1.41,0,0,1,1,.45,7.48,7.48,0,0,1,1.23,1.68c.34.62.21.92-.45,1.15a8.44,8.44,0,0,1-2.54.46c-1.27.06-2.55.07-3.82.13a2,2,0,0,0-1.55,2.17.76.76,0,0,0,.84.52c.66,0,1.32-.07,2-.12a3.92,3.92,0,0,1,1.8.19,1.52,1.52,0,0,1,.72,2,1.35,1.35,0,0,1-.3.42.82.82,0,0,1-.52.18A15.65,15.65,0,0,1,121.15,45.37Z"/><path class="cls-1" d="M100.38,46.67a16.13,16.13,0,0,1-.29,4.1,6.35,6.35,0,0,1-.72,1.67.83.83,0,0,1-1.07.39,1.63,1.63,0,0,1-1.18-1.15,11,11,0,0,1-.35-4.59,45.1,45.1,0,0,1,.71-5.18,11.06,11.06,0,0,1,1.9-4.56.65.65,0,0,1,.86-.29.71.71,0,0,1,.14.1,7.32,7.32,0,0,1,2.29,2.21c1.23,1.81,2.4,3.66,3.54,5.52.33.53.72,1,1.07,1.54.17.27.33.22.51,0a1.18,1.18,0,0,0,.27-1,28,28,0,0,0-.78-4.81c-.38-1.56-.81-3.11-1.22-4.67a7.7,7.7,0,0,1-.25-1.85,1.36,1.36,0,0,1,.11-.6c.16-.33.35-.44.71-.23a5.8,5.8,0,0,1,2,2,18.69,18.69,0,0,1,3,11.14,7.82,7.82,0,0,1-1.2,3.84,3.78,3.78,0,0,1-1,1.07c-1.13.79-1.81.87-2.83-.11a19.41,19.41,0,0,1-3.34-4.46L101.21,43c-.08-.14-.12-.38-.31-.35s-.28.27-.33.46a11.84,11.84,0,0,0-.21,2.38Z"/><path class="cls-1" d="M75,32.92a6.68,6.68,0,0,1-2.34-.34.53.53,0,0,0-.62.17c-.26.27-.51.55-.79.79a.79.79,0,0,1-1.11.09.71.71,0,0,1-.19-.23,1.86,1.86,0,0,1-.35-1.14V31.14a1.32,1.32,0,0,0-.66-1.28c-.47-.27-.51-.81-.59-1.29A4.33,4.33,0,0,1,68.77,26a9.48,9.48,0,0,1,5.44-4.81,8.85,8.85,0,0,1,5.76-.5,5.1,5.1,0,0,1,2,1.1,1.61,1.61,0,0,0,.89.42,3,3,0,0,1,2.8,3.19,2.93,2.93,0,0,1-.59,1.6,13.3,13.3,0,0,1-6.86,5.4A8.56,8.56,0,0,1,75,32.92Zm.32-3a10.35,10.35,0,0,0,7.24-2.73A2.9,2.9,0,0,0,83.34,26a1.37,1.37,0,0,0-1-1.68,1.49,1.49,0,0,0-.36-.05,7.92,7.92,0,0,0-1.6.23c-2.67.86-4.49,2.81-6.25,4.84-.22.27-.08.53.27.59a7.93,7.93,0,0,0,.84.07Zm-4.71-2.68c0,.34,0,.65.18.76s.36-.18.51-.32c1.25-1.11,2.16-2.57,3.64-3.44a.32.32,0,0,0,.14-.36c-.08-.18-.24-.08-.36-.06A6.23,6.23,0,0,0,72.06,25a3.7,3.7,0,0,0-1.49,2.28Z"/><path class="cls-1" d="M76.55,47.39v3.87a1.44,1.44,0,0,1-1.25,1.61h-.22a1.75,1.75,0,0,1-2.18-1.15l-.06-.28a6.79,6.79,0,0,1-.3-1.9,65.28,65.28,0,0,1,.57-11.35,14,14,0,0,1,.41-1.67.82.82,0,0,1,.93-.69.77.77,0,0,1,.45.22,2.63,2.63,0,0,1,1,2.16C76.21,41.27,76.47,44.33,76.55,47.39Z"/><rect class="cls-2" width="164" height="76.75"/></g></g></svg>