<svg xmlns="http://www.w3.org/2000/svg" viewBox="0 0 164 76.75"><defs><style>.cls-1{fill:none;}</style></defs><title>ea-logo</title><g id="Layer_2" data-name="Layer 2"><g id="Layer_1-2" data-name="Layer 1"><path d="M82,3.37a35,35,0,1,0,35,35A35,35,0,0,0,82,3.37Zm0,65.47a30.47,30.47,0,1,1,30.47-30.46A30.5,30.5,0,0,1,82,68.84ZM93.89,28.17h.28V26.83h.49v-.24H93.39v.24h.5v1.34ZM95.11,27h0l.44,1.22h.22L96.21,27h0v1.22h.26V26.59h-.38l-.42,1.23h0l-.43-1.23h-.39v1.58h.27Zm-8-.36H69.94l-2.61,4.2H84.52Zm3.52,0L80.15,43.39H68.47l2.7-4.2h7L80.84,35H64.66L62,39.19h3.83L60.5,47.58H82.69l8.2-12.93,3,4.54h-2.7l-2.55,4.2h8l2.77,4.19h5.09Z"/><rect class="cls-1" width="164" height="76.75"/></g></g></svg>