<svg xmlns="http://www.w3.org/2000/svg" viewBox="0 0 164 76.75"><defs><style>.cls-1{fill:#e53238;}.cls-2{fill:#0064d2;}.cls-3{fill:#f5af02;}.cls-4{fill:#86b817;}.cls-5{fill:none;}</style></defs><title>ebay-logo</title><g id="Layer_2" data-name="Layer 2"><g id="Layer_1-2" data-name="Layer 1"><path id="e" class="cls-1" d="M32.9,22.7c-9.34,0-17.13,4-17.13,15.92,0,9.47,5.24,15.43,17.37,15.43,14.28,0,15.2-9.4,15.2-9.4H41.42s-1.48,5.06-8.7,5.06c-5.88,0-10.1-4-10.1-9.53H49.06V36.69c0-5.51-3.49-14-16.16-14Zm-.24,4.46c5.59,0,9.41,3.43,9.41,8.56H22.77C22.77,30.27,27.75,27.16,32.66,27.16Z"/><path id="b" class="cls-2" d="M49.06,16.86V53.79c0,2.1-.15,5-.15,5h6.6s.24-2.11.24-4c0,0,3.26,5.1,12.12,5.1,9.34,0,15.68-6.48,15.68-15.77,0-8.64-5.82-15.59-15.66-15.59-9.21,0-12.08,5-12.08,5V16.86ZM66.19,33.1c6.34,0,10.37,4.7,10.37,11,0,6.77-4.66,11.2-10.33,11.2-6.77,0-10.42-5.28-10.42-11.14C55.81,38.72,59.09,33.1,66.19,33.1Z"/><path id="a" class="cls-3" d="M100,22.61c-14.06,0-15,7.69-15,8.92h7S92.36,27,99.47,27c4.63,0,8.21,2.12,8.21,6.18v1.45H99.47c-10.88,0-16.64,3.19-16.64,9.65s5.32,9.82,12.51,9.82c9.79,0,13-5.41,13-5.41,0,2.15.16,4.27.16,4.27h6.22s-.24-2.63-.24-4.31V34.15c0-9.53-7.69-11.54-14.47-11.54ZM107.68,39v1.93c0,2.52-1.56,8.78-10.7,8.78-5,0-7.15-2.5-7.15-5.4,0-5.27,7.22-5.31,17.85-5.31Z"/><path id="y" class="cls-4" d="M110.66,18.23h7.87l11.3,22.63L141.1,18.23h7.13L127.7,58.52h-7.48l5.92-11.23Z"/><rect class="cls-5" width="164" height="76.75"/></g></g></svg>