<svg xmlns="http://www.w3.org/2000/svg" viewBox="0 0 164 76.75"><defs><style>.cls-1{opacity:0.85;}.cls-2{fill:#fcc200;}.cls-3{fill:#042e55;}.cls-4{fill:none;}</style></defs><title>expedia-logo</title><g id="Layer_2" data-name="Layer 2"><g id="Layer_1-2" data-name="Layer 1"><g class="cls-1"><circle class="cls-2" cx="27.48" cy="34.81" r="16.08"/><path class="cls-3" d="M11.78,38.11,12,38c6.25-1.53,12.58-2.78,18.79-4.7a9.06,9.06,0,0,1,.42,2.53c-.2,2.15-.38,4.3-.57,6.46,0,.66-.11,1.33-.17,2,.54-.11.92-.23,1.11-.85,1.1-3.68,2.27-7.35,3.4-11A.64.64,0,0,1,35.5,32c1.69-.47,3.38-.93,5-1.44a14.1,14.1,0,0,0,1.73-.78l.34-.19a16,16,0,1,1-30.84,8.53Z"/><path class="cls-3" d="M42,28.11c-2.5.17-4.78,1.16-7.16,1.76a.6.6,0,0,1-.6-.14c-2.89-2.51-5.81-5-8.69-7.54A1.1,1.1,0,0,0,24.16,22l1.06,1.43c1.41,1.88,2.84,3.73,4.19,5.64a10.56,10.56,0,0,1,.88,2.08c-6.41,1.6-12.41,4.05-18.69,6.1A16.05,16.05,0,0,1,42,28.11Z"/><path class="cls-3" d="M62,46.05c-.22.73-.39,1.39-.63,2a2.72,2.72,0,0,1-.71,1.27c-.28.21-.84.07-1.27.07H51.48a2.31,2.31,0,0,1-2.37-2.25v-17a2.25,2.25,0,0,1,2.1-2.39H61.88a7.7,7.7,0,0,1-1.15,3.22.54.54,0,0,1-.42.16H53.43c-.47,0-.47,0-.47.46V35.9h7.3c.3,0,.38.08.37.37v3.06H53v6.74Z"/><path class="cls-3" d="M120.05,50.22V49l-.39.17a8.3,8.3,0,0,1-3.45.9,6.29,6.29,0,0,1-5.66-2.84,7.84,7.84,0,0,1,1-9.86,7.34,7.34,0,0,1,5.93-2c.69.06,1.38.21,2.13.33V29.06a.53.53,0,0,1,.27-.51,8.18,8.18,0,0,1,3.38-1.24V48.5A.53.53,0,0,1,123,49,8.71,8.71,0,0,1,120.05,50.22Zm-.47-7.71v-3c0-.91,0-.91-.88-1.18a4.11,4.11,0,0,0-5.2,2.24,6.21,6.21,0,0,0-.22,4.31,3.15,3.15,0,0,0,3.11,2.35,6.16,6.16,0,0,0,2.91-.7.43.43,0,0,0,.28-.46C119.57,44.86,119.58,43.68,119.58,42.51Z"/><path class="cls-3" d="M82.59,49.93v6.31a.6.6,0,0,1-.3.57,8.45,8.45,0,0,1-3.1,1.2,1.41,1.41,0,0,1-.29,0V36.35c0-.46,0-.46.47-.46h1.27a15.57,15.57,0,0,0,3.47-.38,7.45,7.45,0,0,1,7.29,11.8,7.28,7.28,0,0,1-4.47,2.59,11.54,11.54,0,0,1-4.06,0Zm0-7.11h0v4c0,.25.07.37.31.4a18.62,18.62,0,0,0,2.1.19,4.06,4.06,0,0,0,3.79-2.68,6.13,6.13,0,0,0,.28-3.12A4,4,0,0,0,86,38.19a6.47,6.47,0,0,0-3.06.19.41.41,0,0,0-.36.42.08.08,0,0,1,0,0c0,1.35,0,2.67,0,4Z"/><path class="cls-3" d="M142.59,48.57l-.12.07a4.72,4.72,0,0,1-3.85,1.47,7.16,7.16,0,0,1-4.17-1.31,6.42,6.42,0,0,1-2.57-4.27,7.85,7.85,0,0,1,1.23-6.08,6.77,6.77,0,0,1,6-3.05,7.86,7.86,0,0,1,2.83.66l.46.17v-.06c0-.65,0-.57.63-.57h2.23c.26,0,.38.07.38.36V48.63a.51.51,0,0,1-.17.34,7.92,7.92,0,0,1-2.79,1.22h-.18Zm-.53-6V39.15c0-.13-.06-.34-.15-.38a8.41,8.41,0,0,0-2-.67,3.78,3.78,0,0,0-4,2.61,6.59,6.59,0,0,0-.28,3.6,3.43,3.43,0,0,0,3,2.84,5.09,5.09,0,0,0,3.16-.72.44.44,0,0,0,.27-.47c0-1.09,0-2.22,0-3.35Z"/><path class="cls-3" d="M107.34,45.47V47.9c0,.71,0,.73-.67,1A15.69,15.69,0,0,1,102,50.1a7.08,7.08,0,0,1-7.64-5.8,7.55,7.55,0,0,1,1.12-5.86,6.76,6.76,0,0,1,4.87-3,7.09,7.09,0,0,1,4.71.79,5.57,5.57,0,0,1,2.81,4.55c.08.9,0,1.82,0,2.77H97.88a3.45,3.45,0,0,0,1.8,3.12,5.56,5.56,0,0,0,3.85.31,14,14,0,0,0,3.3-1.29Zm-2.93-4A2.93,2.93,0,0,0,103,38.76a3.2,3.2,0,0,0-3.42.06,3.6,3.6,0,0,0-1.72,2.63Z"/><path class="cls-3" d="M70.5,40c.66-.79,1.28-1.55,1.91-2.32.43-.51.85-1,1.28-1.55a.52.52,0,0,1,.35-.18h3.42l-5.18,6.27,5.94,7.31H74.08a.61.61,0,0,1-.53-.25c-1.1-1.37-2.21-2.72-3.32-4.08l-.2-.22-1.26,1.52c-.77.95-1.54,1.9-2.32,2.84a.5.5,0,0,1-.31.18H62.85l-.1-.06,5.5-6.75-5.49-6.75h4.06a.73.73,0,0,1,.63.3q1.38,1.74,2.78,3.47Z"/><path class="cls-3" d="M126,49.49V36.36c0-.46,0-.46.46-.46h2.86c.28,0,.36.1.36.37V49.15c0,.17,0,.35-.25.35C128.32,49.48,127.2,49.49,126,49.49Z"/><path class="cls-3" d="M127.88,33.11a2.19,2.19,0,1,1,.07,0Z"/><path class="cls-3" d="M147.38,35.56A2.61,2.61,0,1,1,150,38.19h0A2.61,2.61,0,0,1,147.38,35.56Zm.36,0A2.25,2.25,0,1,0,150,33.3h0a2.26,2.26,0,0,0-2.23,2.29h0Z"/><path class="cls-3" d="M150.63,35.69l.61,1.27c-.63.07-.63.07-.88-.44l-.19-.42c-.17-.36-.17-.36-.64-.29V37H149V34.11a5.63,5.63,0,0,1,1.83.09.63.63,0,0,1,.47.56.75.75,0,0,1-.32.77Zm-1.08-.29c.38,0,.78.13,1-.25a.51.51,0,0,0,0-.45c-.25-.35-.64-.23-1-.25Z"/></g><rect class="cls-4" width="164" height="76.75"/></g></g></svg>