<svg xmlns="http://www.w3.org/2000/svg" viewBox="0 0 163.6 76.53"><defs><style>.cls-1{fill:#005297;}.cls-2{fill:none;}</style></defs><title>gannett-logo</title><g id="Layer_2" data-name="Layer 2"><g id="Layer_1-2" data-name="Layer 1"><g id="Layer_2-2" data-name="Layer 2"><g id="Top-nav"><path class="cls-1" d="M90.93,40.81V28.51c0-.23,0-.3.29-.3H94c.24,0,.32.06.32.32v19.7c0,.13.07.29-.13.37s-.31,0-.42-.16C93,47.65,92.2,46.83,91.43,46c-1.39-1.45-2.77-2.91-4.16-4.37-1.22-1.29-2.44-2.59-3.67-3.88l-2.11-2.22h-.11c-.11,0,0,.18,0,.27V47.92c0,.38,0,.38-.39.38H78V28c.46-.19.46-.19.79.15l4.66,4.91,4.2,4.41,3,3.17.21.19Z"/><path class="cls-1" d="M18.72,40.65V37.71H26.3c.28,0,.35.07.35.35v8a.54.54,0,0,1-.31.54,12.5,12.5,0,0,1-5,1.84,12,12,0,0,1-6.73-.79,9.77,9.77,0,0,1-5.7-6.55,10.32,10.32,0,0,1,.85-7.81,9.93,9.93,0,0,1,5.07-4.53,11.83,11.83,0,0,1,6-.76,13.09,13.09,0,0,1,5.31,1.9l.1.09-1.52,2.66c-.53-.27-1-.55-1.54-.78a8.7,8.7,0,0,0-6.32-.5,6.43,6.43,0,0,0-4.49,5,7.92,7.92,0,0,0,.28,4.74,6.78,6.78,0,0,0,3.9,4,7.94,7.94,0,0,0,3.95.47,8.35,8.35,0,0,0,2.5-.72.6.6,0,0,0,.4-.63V41c0-.27-.09-.34-.35-.34H18.72Z"/><path class="cls-1" d="M58.14,35.47V48.05c0,.19,0,.25-.25.25H55c-.18,0-.24,0-.24-.23V28a.56.56,0,0,1,.77.14c1.42,1.52,2.87,3,4.3,4.54l3.63,3.81c1.29,1.36,2.58,2.71,3.86,4.07a3.76,3.76,0,0,1,.25.31l.1-.06V28.26h3.4V48.32a.35.35,0,0,1-.14.28c-.13.1-.26,0-.38-.08C69.38,47.24,68.16,46,67,44.68l-3.34-3.51-4-4.2-1.32-1.4Z"/><path class="cls-1" d="M113.36,45.23V48c0,.21-.06.26-.27.26H101.23v-20h12.13v2.78c0,.25-.06.31-.31.31h-8c-.42,0-.42,0-.42.42v4.5c0,.36,0,.36.36.36h7.27c.28,0,.36.07.36.35v2.31c0,.24-.08.31-.31.3H105c-.46,0-.46,0-.46.47v4.83c0,.27.09.34.35.34h8.46Z"/><path class="cls-1" d="M49.49,48.3H46.26a.4.4,0,0,1-.47-.3c-.56-1.36-1.14-2.7-1.71-4.06a.35.35,0,0,0-.39-.25H36.32a.38.38,0,0,0-.41.27c-.56,1.37-1.15,2.72-1.72,4.09a.36.36,0,0,1-.41.26h-3.2c.18-.38.33-.74.49-1.09L36,36.38c1.24-2.72,2.48-5.43,3.71-8.15.07-.15.12-.28.34-.28s.3.11.38.28q1.71,3.8,3.43,7.58,2.19,4.81,4.37,9.62c.4.89.8,1.78,1.21,2.67A1.88,1.88,0,0,0,49.49,48.3ZM42.86,41l-2.81-6.61h0c0,.09-.1.18-.14.28q-1.28,3-2.54,6c-.14.32-.12.34.24.34h5.3Z"/><path class="cls-1" d="M139,31.35V28.26h16.09v2.82c0,.21-.07.27-.29.27h-5.7c-.37,0-.37,0-.37.39V48.28h-3.07c-.25,0-.33-.06-.33-.32V31.78c0-.45,0-.45-.44-.45H139Z"/><path class="cls-1" d="M134.81,28.26v2.88c0,.23-.14.21-.29.21h-5.87c-.16,0-.22.07-.21.21V48.28h-3.11c-.21,0-.27-.07-.27-.27V31.65c0-.24-.08-.31-.31-.31H119c-.26,0-.33-.07-.32-.32V28.25Z"/><rect class="cls-2" width="163.6" height="76.53"/></g></g></g></g></svg>