<svg xmlns="http://www.w3.org/2000/svg" viewBox="0 0 164 76.75"><defs><style>.cls-1{fill:#e00;}.cls-2{fill:#520517;}.cls-3{fill:none;}</style></defs><title>hotels-logo</title><g id="Layer_2" data-name="Layer 2"><g id="Layer_1-2" data-name="Layer 1"><g id="Layer_2-2" data-name="Layer 2"><g id="Layer_1-2-2" data-name="Layer 1-2"><path class="cls-1" d="M10,29.07a8.94,8.94,0,0,1,.67-.71,1.38,1.38,0,0,1,1.55-.17,1.28,1.28,0,0,1,.8,1.26q.06,3.47.09,6.93c0,.49,0,.54.49.54q1.08.06,2.16.06h8.5v-.45c0-2.16,0-4.33,0-6.49,0-.28,0-.54.05-.83a1.45,1.45,0,0,1,2.31-.9,1.43,1.43,0,0,1,.49,1.33q.06,3.36.06,6.72V47.17a1.55,1.55,0,0,1-1,1.31c-1,.18-1.88-.15-1.89-1.41q0-3.34-.06-6.69c0-.68.09-.61-.6-.61h-10c-.47,0-.47,0-.48.47,0,2.06,0,4.13,0,6.19a9,9,0,0,1-.17,1.27.88.88,0,0,1-.78.74,2.91,2.91,0,0,1-1,0,1,1,0,0,1-.88-.94c-.06-1.24-.11-2.49-.17-3.73a2.19,2.19,0,0,0,0-.51Z"/><path class="cls-1" d="M60.65,42.71A5.67,5.67,0,0,0,62,44.6a5.83,5.83,0,0,0,6.9.18L70,44a1.42,1.42,0,0,1,2,1,1.68,1.68,0,0,1-.46,1.49,7.25,7.25,0,0,1-3,1.79,10.18,10.18,0,0,1-4.87.31,7.69,7.69,0,0,1-4-2l-.26-.23c-.15-.2-.28-.18-.48,0a10.56,10.56,0,0,1-4.64,2.11,6.3,6.3,0,0,1-4.3-.64,4.14,4.14,0,0,1-1.84-2.54A12,12,0,0,1,48,42V35.82c0-.46,0-.45-.45-.46a13.25,13.25,0,0,1-1.66-.07,1.34,1.34,0,0,1-1.19-1.21,1.42,1.42,0,0,1,1-1.46c.6-.1,1.21-.17,1.81-.21s.5,0,.51-.54c0-.76,0-1.53,0-2.28a1.33,1.33,0,0,1,.88-1.37,1.61,1.61,0,0,1,1.72.24,1.53,1.53,0,0,1,.46.92c.08.86.08,1.73.08,2.59,0,.31.07.42.4.42.89,0,1.8,0,2.7.09a.63.63,0,0,1,.39.17,4.21,4.21,0,0,1,.64.88A1.3,1.3,0,0,1,54.86,35a1,1,0,0,1-.89.39c-.84,0-1.67,0-2.5,0-.27,0-.35.08-.35.35,0,2.51.06,5,.09,7.51,0,.3,0,.58.06.87a1.81,1.81,0,0,0,2,1.61l.11,0a7.43,7.43,0,0,0,1.89-.6,18.93,18.93,0,0,0,2.12-1.16c.5-.32.47-.35.28-.92a9,9,0,0,1-.32-3.62,7.94,7.94,0,0,1,7.82-7.24,9.62,9.62,0,0,1,3.53.54,8.25,8.25,0,0,1,5,7.49,1.52,1.52,0,0,1-1.42,1.62h0c-1.5.14-3,.25-4.49.36l-6.62.49A4.35,4.35,0,0,0,60.65,42.71Zm-.33-3h.4c1.09,0,2.17-.1,3.25-.17l6.1-.41c.46,0,.54-.11.39-.54a4.74,4.74,0,0,0-3.25-3.25A5.14,5.14,0,0,0,61.51,37,5.57,5.57,0,0,0,60.32,39.75Z"/><path class="cls-2" d="M118,44.21c-.36.42-.69.87-1.08,1.27a9.78,9.78,0,0,1-5.65,3.11,8.11,8.11,0,0,1-7.14-2.17,7.48,7.48,0,0,1-2.28-5.19,9.59,9.59,0,0,1,.25-3.33,7.57,7.57,0,0,1,5.85-5.52,8.4,8.4,0,0,1,4.71.25,7.37,7.37,0,0,1,3,2.07,1.37,1.37,0,0,1,.08,1.93,1.31,1.31,0,0,1-.43.31,1.61,1.61,0,0,1-1.6-.14,12.66,12.66,0,0,0-1.29-1,4.84,4.84,0,0,0-6.67,1.52,4.64,4.64,0,0,0-.53,1.18,5.88,5.88,0,0,0,.86,5.58,4.65,4.65,0,0,0,3.12,1.73,5.85,5.85,0,0,0,4.45-1.23,10.92,10.92,0,0,0,3.3-3.93,4.7,4.7,0,0,0,.42-1.38,8.09,8.09,0,0,1,4-5.94,7.25,7.25,0,0,1,3.52-1,7.85,7.85,0,0,1,8.11,5.34,8.27,8.27,0,0,1-.32,6.4,7.62,7.62,0,0,1-6.91,4.51A7.9,7.9,0,0,1,120.38,47a8.15,8.15,0,0,1-2.21-2.57c0-.06-.07-.12-.11-.17Zm7.42,1.49a4.72,4.72,0,0,0,2.89-1,5.16,5.16,0,0,0,1.93-5.36,4.76,4.76,0,0,0-4.62-4.11,4.64,4.64,0,0,0-4.4,2.16,5.67,5.67,0,0,0-.88,3.7,5.09,5.09,0,0,0,5.08,4.6Z"/><path class="cls-2" d="M147.71,34.84c.54-.4,1-.83,1.56-1.17a7.85,7.85,0,0,1,5.33-1.12,7,7,0,0,1,4.26,2.17,5.92,5.92,0,0,1,1.53,2.46,2.58,2.58,0,0,1,.14.67c.06,3,.12,6,.16,9a1.55,1.55,0,0,1-1.11,1.59,1.7,1.7,0,0,1-1.77-.55.53.53,0,0,1-.1-.35c0-1,0-2,0-3,0-1.74-.11-3.48-.1-5.22a4,4,0,0,0-2.92-3.69,4.32,4.32,0,0,0-5,2.13,4,4,0,0,0-.28,2c-.06,2-.06,4-.09,6,0,.51-.07,1-.08,1.52,0,1-1,1.42-1.83,1.24s-1-.42-1-1.22-.07-1.54-.09-2.31c0-1.82-.17-3.65-.1-5.47.11-2.76-2.76-4.53-5.13-4A3.89,3.89,0,0,0,138.16,38a3.72,3.72,0,0,0-.24,1.28c0,2,0,4-.08,5.92,0,.67-.07,1.34-.05,2a1.38,1.38,0,0,1-1.73,1.34c-.76-.12-1.13-.44-1.17-1.24-.06-1.68-.1-3.36-.11-5,0-1.24,0-2.49.12-3.73a6.08,6.08,0,0,1,3.79-5.22,7.07,7.07,0,0,1,2.85-.76,7.71,7.71,0,0,1,5.58,1.92c.16.15.32.29.5.43Z"/><path class="cls-1" d="M88.4,48.6c-1-.11-2.05-.14-3.05-.34a5,5,0,0,1-3.58-2.36,3.61,3.61,0,0,1-.45-1.39A1.31,1.31,0,0,1,82.42,43a1,1,0,0,1,.24,0,1.24,1.24,0,0,1,1.34.7,8.38,8.38,0,0,0,.54.91,2.7,2.7,0,0,0,1.83.93,9.56,9.56,0,0,0,4.19-.12,2.69,2.69,0,0,0,1.78-1.26,1.17,1.17,0,0,0-.4-1.59l-.06,0A5.73,5.73,0,0,0,89.54,42c-1.35-.17-2.7-.29-4.05-.51A5.6,5.6,0,0,1,82.35,40a3.26,3.26,0,0,1-.94-2.16,4.43,4.43,0,0,1,2.86-4.66,10.25,10.25,0,0,1,5.49-.75,8.13,8.13,0,0,1,3,.78,4.44,4.44,0,0,1,2.12,2.05,2.65,2.65,0,0,1,.21,1,1.07,1.07,0,0,1-.73,1,3.86,3.86,0,0,1-.76.2,1,1,0,0,1-1.08-.44,4.12,4.12,0,0,1-.32-.41A2.69,2.69,0,0,0,90,35.36a14.78,14.78,0,0,0-2.49-.08,3.69,3.69,0,0,0-2.77,1.28,1.07,1.07,0,0,0,0,1.52,1.11,1.11,0,0,0,.53.29,13.05,13.05,0,0,0,2.16.4,30.35,30.35,0,0,1,4.75.67,4.63,4.63,0,0,1,2.77,1.7A3.73,3.73,0,0,1,95.51,43c.18,2.27-.59,3.63-2.77,4.72a8.3,8.3,0,0,1-4.33.79Z"/><path class="cls-1" d="M37.28,48.48a6.76,6.76,0,0,1-4.19-1,7.86,7.86,0,0,1-3.82-5.95,8.47,8.47,0,0,1,.84-5A7.5,7.5,0,0,1,34,32.92a8.29,8.29,0,0,1,6.34,0A7.36,7.36,0,0,1,44.61,37a8.39,8.39,0,0,1-.93,8.52A7.56,7.56,0,0,1,40.47,48,6.82,6.82,0,0,1,37.28,48.48Zm-.1-13.21a4,4,0,0,0-2.07.38,4.86,4.86,0,0,0-2.75,3.83,5.54,5.54,0,0,0,.73,4,5,5,0,0,0,9.19-3.28A4.9,4.9,0,0,0,37.18,35.27Z"/><path class="cls-1" d="M76,38.36v-8c0-.31,0-.62,0-.93a1.37,1.37,0,0,1,1-1.42,1.44,1.44,0,0,1,1.75,1h0A17.21,17.21,0,0,1,79,31.34c0,5,0,10,0,15,0,.31,0,.63-.06.93a1.08,1.08,0,0,1-.74,1,1.49,1.49,0,0,1-1.62-.13A1.47,1.47,0,0,1,76,46.84c0-2.83,0-5.66,0-8.48Z"/><path class="cls-2" d="M99.28,45.07A1.62,1.62,0,0,1,101,46.63v.06a1.61,1.61,0,0,1-1.56,1.68h-.12a1.67,1.67,0,0,1-1.76-1.56v-.16a1.59,1.59,0,0,1,1.58-1.59Z"/></g></g><rect class="cls-3" width="164" height="76.75"/></g></g></svg>