<svg xmlns="http://www.w3.org/2000/svg" viewBox="0 0 164 76.75"><defs><style>.cls-1{fill:#1a1a18;}.cls-2{fill:#9eabb4;}.cls-3{fill:none;}</style></defs><title>hyperloop-logo</title><g id="Layer_2" data-name="Layer 2"><g id="Layer_1-2" data-name="Layer 1"><g id="Layer_2-2" data-name="Layer 2"><g id="Layer_1-2-2" data-name="Layer 1-2"><path class="cls-1" d="M137.47,35.17a4.2,4.2,0,0,1,4.93-1.56,3.44,3.44,0,0,1,2.27,3.31c0,2.28,0,4.56,0,6.84,0,.25-.08.31-.31.3h-1.3c-.31,0-.4-.07-.4-.39V37.81a3.13,3.13,0,0,0-.13-1,2.08,2.08,0,0,0-1.93-1.59A2.62,2.62,0,0,0,138,36.4a3.88,3.88,0,0,0-.57,2.2v5c0,.37-.11.45-.45.43a7.62,7.62,0,0,0-1.17,0c-.33,0-.38-.1-.38-.4v-9.6c0-.32.06-.45.41-.42s.87,0,1.3,0c.22,0,.29.06.28.28C137.46,34.31,137.47,34.71,137.47,35.17Z"/><path class="cls-1" d="M6.86,35.65a3.83,3.83,0,0,1,2.57-1.93,4.63,4.63,0,0,1,2.53.14,3.35,3.35,0,0,1,2.19,3.08A26,26,0,0,1,14.21,40v3.65c0,.32-.09.39-.4.39-.94,0-.94,0-.94-.92v-5a7,7,0,0,0-.11-1.21,2.37,2.37,0,0,0-3.1-2A3.37,3.37,0,0,0,7,37.9,8.47,8.47,0,0,0,6.85,39v4.69c0,.28-.07.35-.35.34-1,0-1,0-1-1V27.93c0-.4.1-.49.48-.49.88,0,.88,0,.88.89Z"/><path class="cls-1" d="M27,33.87,25.71,37.1l-4,10.1a2.89,2.89,0,0,1-3.75,2c-.25,0-.36-.15-.3-.42s0-.66.14-.82.52.08.79.12a1.48,1.48,0,0,0,1.67-.85c.42-.75.62-1.59,1-2.36a1.8,1.8,0,0,0,0-1.6c-1.24-3-2.42-6-3.64-9-.05-.12-.09-.24-.16-.43h1.28c.26,0,.27.21.34.36l2.46,6.27c.23.6.49,1.2.75,1.89.43-1.12.83-2.15,1.22-3.18.62-1.67,1.28-3.33,1.88-5,.09-.24.2-.36.48-.34S26.57,33.87,27,33.87Z"/><path class="cls-1" d="M68.67,35.75v7.88c0,.34-.08.43-.42.42-.93,0-.93,0-.93-.93V27.89c0-.34.07-.46.43-.45.91,0,.91,0,.91.92Z"/><path class="cls-1" d="M59.57,35.53A4.29,4.29,0,0,1,62,33.72l.09,0c1.44-.3,1.63-.11,1.36,1.31a3.09,3.09,0,0,0-3.76,3.08c-.11,1.82,0,3.66,0,5.49,0,.36-.07.48-.46.48-.86,0-.86,0-.87-.86,0-2.37,0-4.74,0-7.11,0-.63,0-1.26-.08-1.89,0-.28.08-.32.33-.32,1,0,1,0,1,1C59.57,35.09,59.57,35.31,59.57,35.53Z"/><path class="cls-1" d="M157.31,35.08a5.34,5.34,0,0,0-7-.76,5.68,5.68,0,0,0-2,6.06,4.93,4.93,0,0,0,4.54,3.87,5.6,5.6,0,0,0,5-1.82c.18-.2.21-.31,0-.48a7.14,7.14,0,0,1-.93-.71c-.26-.24-.4-.18-.61.06a3.48,3.48,0,0,1-6-1.27c-.07-.34,0-.51.39-.48,1.23,0,2.46,0,3.7,0h3.83c.13,0,.35.1.36-.19A6.07,6.07,0,0,0,157.31,35.08ZM156.07,38h-5.54c-.32,0-.38-.1-.33-.38A3.3,3.3,0,0,1,154.11,35a3.43,3.43,0,0,1,1.15.48,3,3,0,0,1,1.12,2.22c0,.29-.16.23-.31.23Z"/><path class="cls-1" d="M126.49,33.37a5.47,5.47,0,1,0,.08,0Zm0,9.06a3.37,3.37,0,0,1-3.38-3.64,3.36,3.36,0,0,1,3.53-3.57c2.09,0,3.33,1.54,3.3,3.8a3.33,3.33,0,0,1-3.22,3.42Z"/><path class="cls-1" d="M31.92,35.65v-1c0-.8,0-.77-.8-.81-.41,0-.52.1-.52.52V48.18c0,.85,0,.84.87.86.34,0,.45-.06.45-.43,0-1.93,0-3.91,0-5.86,0-.12-.06-.26.06-.37,1.72,2.45,5.72,2.52,7.83.48a5.67,5.67,0,0,0,0-7.82C37.72,33.1,33.64,33.13,31.92,35.65ZM40,39.08a4,4,0,0,1-3.87,4H36a4.14,4.14,0,0,1,.09-8.28A4,4,0,0,1,40,39.09Z"/><path class="cls-1" d="M48.47,33.84c-2.41.65-3.81,3-3.57,5.71a4.87,4.87,0,0,0,4.44,4.7,5.12,5.12,0,0,0,4.51-1.45c.63-.66.61-.66-.09-1.26-.24-.2-.33-.25-.57,0a4,4,0,0,1-4.34,1.33,3.64,3.64,0,0,1-2.62-3.14c-.07-.39,0-.51.45-.48,1.26,0,2.52,0,3.79,0h3.42c.81,0,.81,0,.81-.82C54.75,35.17,52,32.89,48.47,33.84ZM53,38.1H46.51c-.19,0-.31,0-.27-.26a3.86,3.86,0,0,1,2.85-2.93,3.62,3.62,0,0,1,3.82,1.58,3.24,3.24,0,0,1,.45,1.26C53.39,38,53.34,38.1,53,38.1Z"/><path class="cls-2" d="M94.42,32.82a5.68,5.68,0,0,0-6.08,1.35c-.86.82-1.69,1.66-2.51,2.52-.28.29-.41.25-.66,0-.79-.82-1.61-1.61-2.42-2.41a6.05,6.05,0,0,0-4.54-1.77,4.84,4.84,0,0,0-1.45.28A5.95,5.95,0,0,0,74.66,43a5.86,5.86,0,0,0,7.64.13c1.06-.87,2-1.91,2.93-2.87.26-.26.39-.23.62,0,.8.82,1.6,1.63,2.41,2.41A6,6,0,0,0,98.4,37.54,5.63,5.63,0,0,0,94.42,32.82ZM83.88,38.61c-1,1-1.88,2-3,2.9a3.66,3.66,0,0,1-4.06.45,3.59,3.59,0,0,1-2.23-3c0-2.66,1.62-4.4,3.72-4.49a3.56,3.56,0,0,1,2.69.93c1,.91,1.88,1.86,2.82,2.79.13.14.21.24,0,.41Zm12.56.26a4,4,0,0,1-3.29,3.42,2.33,2.33,0,0,1-.53,0,3.84,3.84,0,0,1-2.93-1.16c-.82-.81-1.63-1.64-2.46-2.44-.26-.25-.21-.38,0-.6.85-.83,1.68-1.68,2.52-2.51a3.92,3.92,0,0,1,4.54-.69,4,4,0,0,1,2.14,4Z"/><path class="cls-1" d="M111.36,35.09a5.19,5.19,0,0,0-4-1.45,4.7,4.7,0,0,0-3.82,2v-.92c0-.86,0-.84-.87-.87-.38,0-.49.1-.49.49V48.09c0,1,0,.94,1,.94.3,0,.37-.08.37-.37V42.32c1.86,2.59,5.87,2.52,7.9.53A5.67,5.67,0,0,0,111.36,35.09Zm-3.79,8A4.25,4.25,0,0,1,103.34,39a4.2,4.2,0,0,1,4.23-4.13,4.14,4.14,0,0,1,.24,8.27Z"/></g></g><rect class="cls-3" width="164" height="76.75"/></g></g></svg>