<svg xmlns="http://www.w3.org/2000/svg" viewBox="0 0 164 76.75"><defs><style>.cls-1{fill:#ff0500;}.cls-2{fill:none;}</style></defs><title>johnson-logo</title><g id="Layer_2" data-name="Layer 2"><g id="Layer_1-2" data-name="Layer 1"><g id="Layer_2-2" data-name="Layer 2"><g id="Layer_1-2-2" data-name="Layer 1-2"><path class="cls-1" d="M111.17,35.37a4.91,4.91,0,0,0-.4.53c-.65,1.17-1.3,2.34-1.94,3.52-.3.56-.56,1.15-.89,1.72a1,1,0,0,1-1,.61.8.8,0,0,1-.82-.78V35.7l-2.29.78v1a4.22,4.22,0,0,1-2,3.73,3.56,3.56,0,0,1-5.38-2.08,5.43,5.43,0,0,1-.06-3c0-.07,0-.15.06-.3a4.84,4.84,0,0,0-.46.33c-.72.67-1.45,1.34-2.15,2a.67.67,0,0,0-.14.45c0,1.4.14,2.79.07,4.18a13.66,13.66,0,0,1-2,6.64,6.46,6.46,0,0,1-1.29,1.42,2.24,2.24,0,0,1-1,.41A1.26,1.26,0,0,1,88,50.52,6,6,0,0,1,87.67,49a11,11,0,0,1,1.2-5.42c.33-.71.72-1.38,1.1-2.07a.28.28,0,0,0,0-.4h0c-.49-.5-1-1-1.42-1.55a.61.61,0,0,0-.31-.18,7,7,0,0,0-3.15.27c-.08,0-.15.18-.17.28-.06.37-.1.74-.15,1.11a1.12,1.12,0,0,1-.08.26c-.11.24-.19.57-.55.51s-.28-.39-.31-.64,0-.77-.05-1.1c-.77,0-1.5.06-2.23,0a4.63,4.63,0,0,1-2.27-.62,2,2,0,0,1-.66-.61,1.33,1.33,0,0,1,1.13-2.08,4.43,4.43,0,0,1,3.69,1l.18.11a3.54,3.54,0,0,0-.69-1.72c-.3-.41-.28-.48.16-.71a7.32,7.32,0,0,1,.81-.35.38.38,0,0,1,.5.16l0,.07a15.88,15.88,0,0,1,.49,1.76A15.46,15.46,0,0,1,85,38.72l2.7-.28c-.16-.35-.36-.73-.51-1.14a9,9,0,0,1,4.63-11.51A4.28,4.28,0,0,1,93,25.44c.63-.11.76,0,.66.67s-.18,1-.27,1.44a20.47,20.47,0,0,0-.23,5.69c.11,1.2.25,2.41.38,3.62a1.72,1.72,0,0,0,0,.21l.74-.7a16.53,16.53,0,0,1,3.85-2.84,5,5,0,0,1,1-.33,1.37,1.37,0,0,1,.45.07,2.16,2.16,0,0,1-.14.43,8.12,8.12,0,0,0-.74,1.13,4.41,4.41,0,0,0,0,3.94,2,2,0,0,0,2.73,1,2.07,2.07,0,0,0,1.11-1.37,8,8,0,0,0,.15-1.54c0-.22-.12-.26-.3-.26a3.26,3.26,0,0,1-1.73-.42,1.68,1.68,0,0,1-.87-1.71,1.38,1.38,0,0,1,2-1,2.86,2.86,0,0,1,1.59,1.68c.14.33.28.42.6.29l1.9-.73a.42.42,0,0,0,.26-.46c0-1.09,0-2.18,0-3.27a7.65,7.65,0,0,1,1.21-4,3.87,3.87,0,0,1,.85-.91,1.59,1.59,0,0,1,1.7-.19,1.78,1.78,0,0,1,.9,1.65,8.85,8.85,0,0,1-1.53,5.44c-.29.43-.63.83-.93,1.25a.71.71,0,0,0-.16.39v3.58a.54.54,0,0,0,.11.32c.1-.15.2-.3.28-.45.68-1.18,1.35-2.36,2-3.53a3.9,3.9,0,0,1,.73-.89,1.26,1.26,0,0,1,1.41-.29,1.17,1.17,0,0,1,.69,1.17c0,1.51,0,3,0,4.54a.92.92,0,0,0,.11.46c.1-.13.22-.26.31-.4L117,34.19a1.84,1.84,0,0,1,1.29-1,1.1,1.1,0,0,1,1.32.8s0,.07,0,.1a3.57,3.57,0,0,1,.09.8v3a1.16,1.16,0,0,0,.11.52l.24-.39c.77-1.32,1.53-2.64,2.31-4a1.74,1.74,0,0,1,1.25-.9,1.06,1.06,0,0,1,1.28.79v0a3.63,3.63,0,0,1,.1.87v4.26c0,.14,0,.28.05.53.19-.23.34-.37.45-.53a35.51,35.51,0,0,0,3.15-5.36c.08-.18.13-.39.23-.57s.18-.24.24-.23a.48.48,0,0,1,.29.25l1.38,2.83a.24.24,0,0,0,.08.09c.71-.52,1.39-1.06,2.11-1.55a7.65,7.65,0,0,1,3.39-1.41,3.71,3.71,0,0,1,.47,0c.29,0,.36.15.21.41s-.19.22-.28.34a4.42,4.42,0,0,0-.67,4.61,2,2,0,0,0,1.82,1.37,1.85,1.85,0,0,0,1.92-1.08,5.51,5.51,0,0,0,.37-1.42,4.22,4.22,0,0,0,0-.87c-.48,0-.91-.05-1.33-.11a1.83,1.83,0,0,1-1.58-1.59,1.38,1.38,0,0,1,2-1.46,2.79,2.79,0,0,1,1.44,1.37c.09.15.16.3.29.54.61-.43,1.2-.83,1.77-1.26a3.42,3.42,0,0,1,1.51-.81,1.18,1.18,0,0,1,1.55,1.13c.07.61,0,1.22.05,1.83s0,1.28,0,1.91c0,.12,0,.23,0,.35l.09,0,.18-.3c.74-1.32,1.47-2.66,2.22-4a1.85,1.85,0,0,1,1.19-1A1.17,1.17,0,0,1,151,34l0,.12a3.33,3.33,0,0,1,.11.77v4.36a1.34,1.34,0,0,0,.15.48,2.23,2.23,0,0,0,.49-.24c.33-.33.63-.68.95-1a.39.39,0,0,1,.55-.13l.05,0c.22.17.15.39,0,.57-.45.7-.89,1.42-1.38,2.1a1.61,1.61,0,0,1-1.15.72A1.55,1.55,0,0,1,149,40.1c0-1.4,0-2.79,0-4.19,0-.15,0-.3,0-.45l-.12-.05a2.29,2.29,0,0,0-.32.43c-.76,1.44-1.53,2.89-2.3,4.37a4.07,4.07,0,0,1-.33.66,2.42,2.42,0,0,1-.71.75.87.87,0,0,1-1.39-.8c0-1.7,0-3.4,0-5.1a2.41,2.41,0,0,0,0-.38c0-.37-.26-.49-.59-.33a3.17,3.17,0,0,0-.49.32c-.2.13-.38.28-.57.42s-.62.28-.74.5,0,.6,0,.9a4.59,4.59,0,0,1-1.08,3.35,3.66,3.66,0,0,1-3.7,1.17A3.41,3.41,0,0,1,133.92,39a4.94,4.94,0,0,1,.57-4.1l-.36.11a10,10,0,0,0-2.75,2c-.07.06,0,.28,0,.39a4.21,4.21,0,0,1,.23,2.3,2.45,2.45,0,0,1-1.53,1.9,1.45,1.45,0,0,1-2-1.59,3,3,0,0,1,.78-1.71.94.94,0,0,0,.08-1.38c-.14-.2-.24-.41-.39-.67l-.25.35c-.93,1.42-1.86,2.82-2.81,4.22a2.47,2.47,0,0,1-.66.63,1.18,1.18,0,0,1-2-1c0-.28,0-.59,0-.88V35.94a4.35,4.35,0,0,0-.06-.52l-.1-.05a4.46,4.46,0,0,0-.33.43c-.89,1.63-1.74,3.26-2.59,4.9-.29.57-.62,1.07-1.36,1a.75.75,0,0,1-.8-.71h0a6.81,6.81,0,0,1,0-.78V36a1.52,1.52,0,0,0-.12-.43,1.74,1.74,0,0,0-.37.3c-1.1,1.71-2.19,3.41-3.3,5.11a1.43,1.43,0,0,1-1.29.8,1,1,0,0,1-1-.75,3.28,3.28,0,0,1-.13-.94V35.88a3.42,3.42,0,0,0,0-.46ZM90.74,40.28c.26-.36.51-.67.73-1a.53.53,0,0,0,.06-.35c-.09-.62-.19-1.25-.3-1.87a16.65,16.65,0,0,1,0-5.89,20.29,20.29,0,0,1,1.36-4.3c.07-.17.12-.35.18-.53l-.09-.11a4.86,4.86,0,0,0-.85.34,5.41,5.41,0,0,0-1.91,2.12,11,11,0,0,0-.9,8.37,8.18,8.18,0,0,0,1.75,3.22Zm1.06.29a.86.86,0,0,0-.14.13,13.3,13.3,0,0,0-2.43,4.71A7.82,7.82,0,0,0,89,48.6a1.13,1.13,0,0,0,.77,1,1.15,1.15,0,0,0,1.2-.48,5.06,5.06,0,0,0,.91-1.95,15.4,15.4,0,0,0,0-6.62Zm16.37-7.77.09,0,.18-.28a8.51,8.51,0,0,0,1.14-3.49,17.36,17.36,0,0,0,0-2c0-.14-.17-.38-.29-.39a.61.61,0,0,0-.45.24,1.85,1.85,0,0,0-.29.62,12.32,12.32,0,0,0-.38,3.26c0,.7,0,1.39,0,2.07ZM83.28,39.09a3.7,3.7,0,0,0-1.64-1.37,2,2,0,0,0-.8-.08.5.5,0,0,0-.4.81,1.63,1.63,0,0,0,.69.55A4.54,4.54,0,0,0,83.28,39.09Zm46.37-.34a3.19,3.19,0,0,0-.26.42,7.08,7.08,0,0,0-.33,1.11.39.39,0,0,0,.32.45h.05c.25,0,.34-.19.39-.39A2.58,2.58,0,0,0,129.65,38.75Zm10.29-3.26a1.78,1.78,0,0,0-.83-1c-.2-.1-.43-.16-.58.06a.46.46,0,0,0,.1.64A1.38,1.38,0,0,0,139.94,35.49Zm-37.59.06,0-.13a1.56,1.56,0,0,0-.87-.94.52.52,0,0,0-.47.08.7.7,0,0,0,0,.53.48.48,0,0,0,.29.25c.33.09.67.14,1,.21Z"/><path class="cls-1" d="M32.26,38.45l.57-1c.59-1,1.19-2.06,1.8-3.07a2.28,2.28,0,0,1,1.18-1.09,1.07,1.07,0,0,1,1.51.81,3.48,3.48,0,0,1,.11.85v4.46l.1,0c.1-.12.19-.25.28-.38q1.56-2.45,3.1-4.92a1.8,1.8,0,0,1,1.13-.9,1.14,1.14,0,0,1,1.51,1,7.93,7.93,0,0,1,.06,1V38a.85.85,0,0,0,.09.44c.07-.1.15-.2.21-.3.77-1.33,1.53-2.65,2.31-4a1.85,1.85,0,0,1,1.05-.91,1.14,1.14,0,0,1,1.59,1,4.74,4.74,0,0,1,.06.75V39.2c0,.12,0,.24,0,.47a4.07,4.07,0,0,0,.42-.41,30.94,30.94,0,0,0,3.4-5.91,1.69,1.69,0,0,1,.29-.37,2.35,2.35,0,0,1,.3.33c.47.95.92,1.92,1.42,2.93l.41-.35A12.73,12.73,0,0,1,59,33.54a10.42,10.42,0,0,1,1.66-.35c.12,0,.26.06.4.1a1.26,1.26,0,0,1-.16.42,4.12,4.12,0,0,0-1,1.9,4.17,4.17,0,0,0,.3,3.17,2.06,2.06,0,0,0,3.87-.5,13.33,13.33,0,0,0,.15-1.55c0-.21-.12-.23-.29-.24a7.63,7.63,0,0,1-1.5-.21,1.71,1.71,0,0,1-1.13-2,1.42,1.42,0,0,1,2-.89,2.94,2.94,0,0,1,1.48,1.49l.15.3.12.06c.52-.37,1.08-.77,1.65-1.15a6.18,6.18,0,0,1,1.33-.8,1.21,1.21,0,0,1,1.79,1.14,12.63,12.63,0,0,1,0,1.63v2a1.42,1.42,0,0,0,0,.35l.09,0,.24-.41c.69-1.23,1.36-2.48,2.07-3.71a2.13,2.13,0,0,1,1.13-1.06,1.21,1.21,0,0,1,1.59.65,1.3,1.3,0,0,1,.08.34,3.42,3.42,0,0,1,.07.71v4.29a1.2,1.2,0,0,0,.15.45,1.54,1.54,0,0,0,.44-.19c.35-.36.68-.73,1-1.1a.4.4,0,0,1,.55-.09.36.36,0,0,1,.11.5l0,0c-.47.74-.92,1.51-1.45,2.21a1.67,1.67,0,0,1-1.91.62,1.39,1.39,0,0,1-1-1.13,3.18,3.18,0,0,1-.07-.75V35.89a1.31,1.31,0,0,0,0-.28c0-.07-.06-.17-.09-.17a.25.25,0,0,0-.2.09,5.59,5.59,0,0,0-.41.66q-1.16,2.22-2.3,4.44a4.17,4.17,0,0,1-.35.66,1.18,1.18,0,0,1-1.13.46.67.67,0,0,1-.64-.52,3.36,3.36,0,0,1-.08-.71V35.66c0-.23-.08-.57-.23-.65s-.46.07-.66.19c-.48.28-1,.62-1.42.94a.45.45,0,0,0-.1.31A7.2,7.2,0,0,1,65,39.14a3.8,3.8,0,0,1-5.63,2,4,4,0,0,1-1.64-2.93,4.69,4.69,0,0,1,.59-3.15,2,2,0,0,0,.09-.22,5.67,5.67,0,0,0-.55.22A11,11,0,0,0,55.33,37a.43.43,0,0,0-.06.35,4.84,4.84,0,0,1,.31,1.92,2.7,2.7,0,0,1-1.1,2.09,1.74,1.74,0,0,1-1.89.15A1.67,1.67,0,0,1,52,39.71,4.34,4.34,0,0,1,53,38a.49.49,0,0,0,.07-.64c-.22-.34-.4-.71-.61-1.1-.52.83-1,1.61-1.5,2.37s-1,1.51-1.57,2.23a3.35,3.35,0,0,1-.6.59,1.29,1.29,0,0,1-1.38.19,1.21,1.21,0,0,1-.65-1.16c0-.36,0-.72,0-1.09V35.83a2.7,2.7,0,0,0-.05-.41l-.11,0a3.22,3.22,0,0,0-.34.46c-.85,1.57-1.66,3.14-2.5,4.71a2.55,2.55,0,0,1-.4.7,1.69,1.69,0,0,1-.79.47c-.64.13-1-.17-1-.83,0-.15,0-.31,0-.47V36.06a2.33,2.33,0,0,0-.13-.52,2.06,2.06,0,0,0-.42.35c-.64,1-1.25,2-1.9,3-.48.74-1,1.48-1.5,2.18a1.68,1.68,0,0,1-.85.61,1.07,1.07,0,0,1-1.37-1.07c0-.3,0-.61,0-.92V35.91a3.86,3.86,0,0,0-.06-.49l-.1-.06a6.12,6.12,0,0,0-.39.5c-.65,1.15-1.28,2.29-1.9,3.44-.3.57-.57,1.13-.85,1.7a1.15,1.15,0,0,1-1.13.76.78.78,0,0,1-.79-.78c0-.64,0-1.29,0-1.94V35.72l-2.24.74c-.05.67-.05,1.34-.15,2a3.86,3.86,0,0,1-5.29,3,3.61,3.61,0,0,1-2-2.6,5.69,5.69,0,0,1,.09-3,5.5,5.5,0,0,0-.5.34c-.72.67-1.44,1.34-2.15,2a.58.58,0,0,0-.12.42,27.26,27.26,0,0,1,0,5,13.72,13.72,0,0,1-2,6A5.1,5.1,0,0,1,14.31,51a1.56,1.56,0,0,1-2.58-1.14,8.6,8.6,0,0,1,.21-4A17.64,17.64,0,0,1,14,41.25c-.5-.55-1-1.1-1.49-1.64a8.86,8.86,0,0,1,.38-11.76,8.19,8.19,0,0,1,3.54-2.33,6,6,0,0,1,.74-.11c.29,0,.42.13.38.41-.1.63-.19,1.25-.31,1.88a22.27,22.27,0,0,0-.15,6.21c.1,1,.21,2,.32,2.94a2.23,2.23,0,0,0,0,.23l.5-.46a17.3,17.3,0,0,1,3.82-2.94A6.74,6.74,0,0,1,23,33.22c.15,0,.34.05.51.08a1.34,1.34,0,0,1-.19.44,4.37,4.37,0,0,0-1.11,2.4,4.21,4.21,0,0,0,.32,2.5,2.14,2.14,0,0,0,2.27,1.28,2.18,2.18,0,0,0,1.74-1.82,10.13,10.13,0,0,0,.08-1.22c0-.23-.08-.32-.32-.32a3.24,3.24,0,0,1-1.67-.39A1.71,1.71,0,0,1,23.79,35a1.35,1.35,0,0,1,.36-1.43,1.46,1.46,0,0,1,1.57-.23,3,3,0,0,1,1.62,1.75c.11.26.22.33.47.23l1.94-.71a.42.42,0,0,0,.28-.48c0-.94,0-1.88,0-2.84a8.63,8.63,0,0,1,1-4.1,5.09,5.09,0,0,1,.82-1,1.7,1.7,0,0,1,1.82-.44,1.61,1.61,0,0,1,1,1.56,8.68,8.68,0,0,1-1.44,5.45A9.59,9.59,0,0,1,32.41,34a1.12,1.12,0,0,0-.29.8v3.63ZM14.68,40.28c.26-.34.51-.65.72-1a.57.57,0,0,0,.07-.38c-.11-.79-.23-1.57-.36-2.35A15.85,15.85,0,0,1,15.18,31a21.67,21.67,0,0,1,1.37-4.22,4,4,0,0,0,.13-.46,1.55,1.55,0,0,0-1.11.36,5.69,5.69,0,0,0-1.67,1.91,10.91,10.91,0,0,0-.73,9.15A7.66,7.66,0,0,0,14.68,40.28Zm1.09.28-.15.12a12.5,12.5,0,0,0-2.72,6.24A6.66,6.66,0,0,0,13,48.81a1,1,0,0,0,1.75.46,4.42,4.42,0,0,0,.83-1.38,10.62,10.62,0,0,0,.54-4.71c-.07-.86-.19-1.71-.31-2.61Zm16.38-7.79.07,0a1.59,1.59,0,0,0,.15-.21,8.84,8.84,0,0,0,1.21-4.09A9.24,9.24,0,0,0,33.51,27a.48.48,0,0,0-.28-.37.55.55,0,0,0-.4.18,1.26,1.26,0,0,0-.27.51,8.9,8.9,0,0,0-.41,2.81C32.14,31,32.15,31.9,32.15,32.77Zm21.45,6A2.51,2.51,0,0,0,53,40.28c0,.23.13.46.37.44a.58.58,0,0,0,.39-.34,2.38,2.38,0,0,0-.15-1.62ZM63.89,35.5a1.8,1.8,0,0,0-.79-1c-.21-.12-.46-.2-.64,0a.47.47,0,0,0,.13.64h0a1.44,1.44,0,0,0,1.28.27Zm-37.51,0a1.63,1.63,0,0,0-.85-1c-.15-.06-.37,0-.56.06a2.67,2.67,0,0,0,.1.62.55.55,0,0,0,.34.2C25.7,35.46,26,35.49,26.38,35.55Z"/></g></g><rect class="cls-2" width="164" height="76.75"/></g></g></svg>