<svg xmlns="http://www.w3.org/2000/svg" viewBox="0 0 164 76.75"><defs><style>.cls-1{fill:#5c5553;}.cls-2{fill:#5d5654;}.cls-3{fill:#808081;}.cls-4{fill:#868586;}.cls-5{fill:#8f8d8d;}.cls-6{fill:#838183;}.cls-7{fill:#918e8f;}.cls-8{fill:#858485;}.cls-9{fill:#8a8989;}.cls-10{fill:#8f8e8f;}.cls-11{fill:#b1c973;}.cls-12{fill:#adc66b;}.cls-13{fill:#aac467;}.cls-14{fill:#98b94d;}.cls-15{fill:#b4cb77;}.cls-16{fill:#aec76f;}.cls-17{fill:#9bba4f;}.cls-18{fill:#a1be58;}.cls-19{fill:#97b849;}.cls-20{fill:#9dbc53;}.cls-21{fill:#b6cd7a;}.cls-22{fill:#9dbb52;}.cls-23{fill:#97b84b;}.cls-24{fill:#a4c05e;}.cls-25{fill:#a9c264;}.cls-26{fill:#a5c160;}.cls-27{fill:#a4bf5d;}.cls-28{fill:#9ebc54;}.cls-29{fill:#a8c263;}.cls-30{fill:#a0be57;}.cls-31{fill:#9ebc55;}.cls-32{fill:#a3bf5a;}.cls-33{fill:#9cbb4f;}.cls-34{fill:#a5c05f;}.cls-35{fill:#a2be5a;}.cls-36{fill:#a3bf5c;}.cls-37{fill:#a1be59;}.cls-38{fill:#fbfdfd;}.cls-39{fill:none;}</style></defs><title>learnvest-logo</title><g id="Layer_2" data-name="Layer 2"><g id="Layer_1-2" data-name="Layer 1"><g id="Layer_2-2" data-name="Layer 2"><g id="Layer_1-2-2" data-name="Layer 1-2"><path class="cls-1" d="M94.62,36.66a.82.82,0,0,0-.06.49v6.73c0,.32-.06.44-.41.43s-.41-.1-.41-.43V35.25c0-.17-.11-.42.12-.51s.32.16.43.29q2.83,3.39,5.64,6.78l.63.76V35.31a.46.46,0,0,1,.69-.47c.22.09.13.27.13.4v8.64c0,.18.13.46-.12.54s-.34-.19-.46-.34l-5.93-7.14A1.72,1.72,0,0,1,94.62,36.66Z"/><path class="cls-1" d="M112.28,42.57c.4-.9.77-1.73,1.13-2.56l3.07-7a.86.86,0,0,1,1-.35c.2.13,0,.29,0,.41-.54,1.27-1.12,2.54-1.68,3.81l-3.24,7.25c-.07.16-.09.42-.32.41s-.22-.25-.29-.4l-5.12-11c-.22-.49-.22-.46.28-.5a.7.7,0,0,1,.79.49c1.37,3,2.77,6,4.16,9C112.13,42.25,112.18,42.36,112.28,42.57Z"/><path class="cls-1" d="M55.9,39.54V35.22c0-.3.07-.41.4-.4h5.59c.29,0,.36.1.37.38s-.11.37-.39.37H57.13c-.34,0-.42.1-.41.42v2.75c0,.32.1.39.4.39h4.59c.31,0,.46,0,.46.41s-.24.33-.46.33H57.17c-.37,0-.45.11-.44.45,0,1,0,1.89,0,2.84,0,.4.13.46.48.46H61.9c.25,0,.45,0,.45.35s-.17.39-.46.39h-5.5c-.41,0-.49-.14-.49-.52C55.91,42.38,55.9,41,55.9,39.54Z"/><path class="cls-1" d="M122.93,39.54V35.23c0-.3.07-.42.39-.41h5.6c.3,0,.37.1.37.38s-.11.37-.39.37h-4.69c-.33,0-.47,0-.46.42q0,1.35,0,2.7c0,.37.12.44.46.43h4.55c.27,0,.45,0,.44.37s-.1.37-.38.37h-4.6c-.38,0-.47.1-.46.47v2.84c0,.38.12.44.46.44h4.64c.26,0,.54-.08.54.37s-.25.36-.49.36h-5.5c-.35,0-.46-.1-.45-.45C122.94,42.42,122.93,41,122.93,39.54Z"/><path class="cls-1" d="M44.11,38.48v-5.4c0-.44.2-.43.51-.43s.54,0,.54.43v9.71c0,.74-.08.64.67.64h4.93c.35,0,.44.1.44.45s-.09.44-.45.44H44.6c-.4,0-.46-.14-.46-.49C44.12,42,44.11,40.26,44.11,38.48Z"/><path class="cls-1" d="M133,43.26a1.48,1.48,0,0,1,1.3,0,2.5,2.5,0,0,0,3.34-1.14,2.44,2.44,0,0,0,.1-.24,2.55,2.55,0,0,0-1.4-3.32l-.11,0c-.48-.15-1-.23-1.46-.39a1.86,1.86,0,0,1-1.15-2.63,1.64,1.64,0,0,1,1.13-.94c.32-.08.43-.21.38-.51s0-.48.41-.48.33.27.34.5v.42a1.7,1.7,0,0,1,0,.71c-.13.24-.38,0-.6,0a1.21,1.21,0,0,0-1.08.93,1.13,1.13,0,0,0,.66,1.2,8.7,8.7,0,0,0,1.41.4,3.18,3.18,0,0,1,2.38,2.77,3.22,3.22,0,0,1-1.45,3.19,1.76,1.76,0,0,1-.9.4c-.47,0-.6.27-.54.71,0,.2.1.44-.28.45s-.51-.08-.44-.44a.55.55,0,0,0-.54-.71A2.6,2.6,0,0,1,133,43.26Z"/><path class="cls-2" d="M143.78,39.87V35.94c0-.3-.07-.41-.39-.4h-2.51c-.27,0-.36-.07-.35-.34s0-.41.34-.41h6.64c.29,0,.32.14.32.37s0,.39-.32.38h-2.46c-.37,0-.48.09-.47.47v7.82c0,.38-.11.48-.48.47s-.35-.13-.35-.4C143.78,42.57,143.78,41.24,143.78,39.87Z"/><path class="cls-3" d="M150.12,34.32a1.83,1.83,0,0,1,.87,0c-.72.37-.15,1-.45,1.51C150.26,35.36,150.8,34.7,150.12,34.32Z"/><path class="cls-4" d="M152.77,34.94c-.27.21-.29.58-.54.83-.19-.05-.2-.21-.25-.35s0-.13.09-.12.1.25.22,0,.23-.43.35-.64a.19.19,0,0,1,.14.12A.2.2,0,0,1,152.77,34.94Z"/><path class="cls-5" d="M152.77,34.94v-.12a.27.27,0,0,1,.12-.34A4.55,4.55,0,0,1,153,35.7C152.8,35.49,152.89,35.19,152.77,34.94Z"/><path class="cls-6" d="M151.52,34.69l0-.37a1.42,1.42,0,0,1,.35.69.05.05,0,0,1-.08,0s0,0,0,0,0-.21-.19-.1S151.51,34.79,151.52,34.69Z"/><path class="cls-7" d="M151.53,35.56c0,.1.05.24-.1.25s-.08-.14-.07-.21a1.1,1.1,0,0,1,.06-.26C151.52,35.4,151.47,35.51,151.53,35.56Z"/><path class="cls-8" d="M152.89,34.48l-.11.32-.12-.13c0-.12.06-.25.19-.3Z"/><path class="cls-9" d="M151.81,35h.1c.12,0,.13.18.18.28l-.1.12A.73.73,0,0,1,151.81,35Z"/><path class="cls-10" d="M151.52,34.69c0,.08,0,.17.11.22a.69.69,0,0,1-.07.42c-.12-.08,0-.23-.1-.32A.37.37,0,0,1,151.52,34.69Z"/><path class="cls-6" d="M151.46,35c.11.08.07.2.1.31v.25l-.11-.22A1,1,0,0,1,151.46,35Z"/><path class="cls-1" d="M88.53,43.73c-.7-1-1.42-2-2.16-3-.14-.18-.24-.28.08-.42a2.71,2.71,0,0,0,1.72-3,2.84,2.84,0,0,0-2.39-2.48,34.47,34.47,0,0,0-4.07-.1c-.34,0-.43.11-.43.44v8.68c0,.38.2.36.48.37s.36-.09.36-.37V41c0-.26.06-.35.33-.35H85a.53.53,0,0,1,.46.26l1.33,1.85,1,1.42c.11.15.81.28.91.15S88.63,43.88,88.53,43.73ZM82.39,40c-.28,0-.26-.16-.26-.34V35.92c0-.28.05-.39.36-.38.9,0,1.8,0,2.7,0a2.21,2.21,0,0,1,2.23,2.19,2.69,2.69,0,0,1-.07.57,2,2,0,0,1-1.76,1.5,28.53,28.53,0,0,1-3.2.12Z"/><path class="cls-1" d="M72,34.89c0-.11-.07-.27-.23-.26s-.17.17-.22.28l-3.24,6.63c-.38.79-.77,1.58-1.15,2.38-.05.11-.21.24,0,.37A.78.78,0,0,0,68,44c.28-.54.54-1.1.8-1.66a.49.49,0,0,1,.54-.35h5a.43.43,0,0,1,.46.29c.25.54.54,1.08.77,1.62.11.25.24.44.54.37.54,0,.54,0,.35-.46Q74.18,39.37,72,34.89ZM69.27,41.3c.82-1.73,1.62-3.43,2.49-5.23l2.49,5.23Z"/><path class="cls-11" d="M31.71,28.93a9,9,0,0,1,2.07,2.31.63.63,0,0,1-.54.18c-6-.05-12.08,0-18.12,0-.42,0-.85,0-1.28,0-.19,0-.38,0-.49-.22a9,9,0,0,1,1.75-2A1.43,1.43,0,0,1,16,29H30a6.08,6.08,0,0,0,1-.07A1.35,1.35,0,0,1,31.71,28.93Z"/><path class="cls-12" d="M34.44,32.26a6.71,6.71,0,0,1,.84,1.8,9.21,9.21,0,0,1-1.74,0H19a3.3,3.3,0,0,1-1.39-.21,4.14,4.14,0,0,1-.1-1.68c0-.22.18-.33.4-.32H33.12A1.7,1.7,0,0,1,34.44,32.26Z"/><path class="cls-13" d="M17.67,33.87c5.36.21,10.71,0,16.07.1a4,4,0,0,1,1.54.09,7,7,0,0,1,.47,1.62,1.26,1.26,0,0,1-.75.23H30.8a.31.31,0,0,1-.18,0c-.22-.07.07-.49-.35-.46a.75.75,0,0,0-.75.5c-.06.15-.08.39-.35.34A2.06,2.06,0,0,0,28.12,36H23.77a.85.85,0,0,0-.64.25c-.33.06-.35-.24-.44-.43s-.21-.38-.48-.39-.54,0-.35.39a.21.21,0,0,1-.06.29l-.05,0A14.23,14.23,0,0,0,18.69,36a2.23,2.23,0,0,1-1.08-.19A3.59,3.59,0,0,1,17.67,33.87Z"/><path class="cls-14" d="M32.82,46.75a7.59,7.59,0,0,1-1.52,1.42c-4.85-.06-9.76,0-14.64,0a.93.93,0,0,0-.62.27A8.23,8.23,0,0,1,14.42,47c0-.12-.09-.26.07-.32s.25.07.31.21a.19.19,0,0,0,.08.09l-.05,0a.2.2,0,0,1,0-.22.78.78,0,0,1,.65-.22H31.3c.42,0,.85.06,1.27.06C32.73,46.46,32.83,46.57,32.82,46.75Z"/><path class="cls-15" d="M31.71,28.93a6.74,6.74,0,0,1-1.79.2H15.1a8.57,8.57,0,0,1,2.07-1.52,5.31,5.31,0,0,1,1.32-.05h9.28c.75,0,1.49.06,2.23.13A6.74,6.74,0,0,1,31.71,28.93Z"/><path class="cls-16" d="M17.67,33.87v2a4.43,4.43,0,0,1,.13,1.7v3.88a.45.45,0,0,1-.16.41c-.3-.16-.22-.46-.22-.71V33.48c0-.77,0-.77-.74-.95-.18-.31-.18-.32-.66-.32h-1.9a1.8,1.8,0,0,0-.91.19c-.23.13-.45.14-.59-.14a5.14,5.14,0,0,1,.7-1.14,4.72,4.72,0,0,0,1.3.09h18a4.58,4.58,0,0,0,1.17,0,4.42,4.42,0,0,1,.66,1,7.4,7.4,0,0,0-1.55-.2H18.2c-.54,0-.54,0-.54.57C17.67,33.05,17.66,33.46,17.67,33.87Z"/><path class="cls-17" d="M14.81,46.89c-.17-.13-.35-.28-.38.1a6.46,6.46,0,0,1-1.15-1.4c0-.14.07-.18.16-.18.48,0,.94-.1,1.42-.1h9.37a2.34,2.34,0,0,1,1.62.3.72.72,0,0,1,.27.37c.07.25.16,0,.23,0a6.87,6.87,0,0,1,2.51-.3h3.73c.29,0,.66-.12.89.22l-.67.84c-.09-.11-.17-.38-.31,0a.08.08,0,0,1-.15,0c-.24-.33-.58-.17-.88-.17h-16c-.28,0-.54,0-.69.28Z"/><path class="cls-18" d="M35.77,40.9a6.25,6.25,0,0,1-.57,2,3.18,3.18,0,0,1-1.29.24h-5.4a1.19,1.19,0,0,1-.89-.22.25.25,0,0,1-.06-.22,6.79,6.79,0,0,1,1-2.12c.48,0,.95-.18,1.43-.18h4.69C35.11,40.38,35.56,40.41,35.77,40.9Z"/><path class="cls-19" d="M30.36,48.83a12.37,12.37,0,0,1-13.26.28c0-.23,0-.41.31-.38,2,.15,3.94.05,5.91.07h3.87a12.21,12.21,0,0,0,2.7-.15C30,48.61,30.29,48.51,30.36,48.83Z"/><path class="cls-20" d="M27.64,42.79a1.19,1.19,0,0,0,.71.19h5.71c.39,0,.74-.27,1.14-.11A7.83,7.83,0,0,1,34,45.27a4.39,4.39,0,0,1-.89.06H27.38a3.27,3.27,0,0,0-.7.08c-.23,0-.18-.19-.13-.31.27-.72.57-1.42.88-2.12A.24.24,0,0,1,27.64,42.79Z"/><path class="cls-21" d="M30,27.68a.74.74,0,0,1-.54.12c-3.2-.21-6.39,0-9.58-.09H17.36c-.06,0-.13-.08-.2-.12A11.13,11.13,0,0,1,21.43,26a12.45,12.45,0,0,1,8.22,1.44A2.25,2.25,0,0,1,30,27.68Z"/><path class="cls-22" d="M25.9,45.72a2.87,2.87,0,0,0-1.7-.29H14.49c-.41,0-.82,0-1.22.11a9.08,9.08,0,0,1-.93-1.44c.31-.19.58.06.87.06,3.56,0,7.11,0,10.66,0a5.54,5.54,0,0,0,1.22-.11.34.34,0,0,1,.3.19,9.62,9.62,0,0,1,.54,1.28A.18.18,0,0,1,25.9,45.72Z"/><path class="cls-23" d="M30.36,48.83c-.32-.23-.63,0-.95,0-.15,0-.32.07-.49.08H18.41c-.35,0-.76.19-1.08-.12l-.22.3A4.48,4.48,0,0,1,16,48.42c0-.35.13-.54.54-.41A1.21,1.21,0,0,0,17,48H30.33c.33,0,.68-.09,1,.17Z"/><path class="cls-24" d="M11.13,40.13a9.75,9.75,0,0,1-.1-2.47c.11-.22.33-.23.54-.24h4.31a.88.88,0,0,1,.8.42,4.27,4.27,0,0,1,0,2,1,1,0,0,1-.76.32c-1.53,0-3.06,0-4.6,0A.26.26,0,0,1,11.13,40.13Z"/><path class="cls-25" d="M30.57,35.77h4.56c.22,0,.39-.23.62-.1A8.14,8.14,0,0,1,36,37.75c-1.83-.09-3.63,0-5.44,0-.29,0-.58,0-.67-.38A2.25,2.25,0,0,1,30.57,35.77Z"/><path class="cls-26" d="M30,37.27a.44.44,0,0,0,.45.31h5.21c.21,0,.23.26.42.21A7.2,7.2,0,0,1,36,39.7c-.16-.43-.44-.46-.88-.39a11.66,11.66,0,0,1-2,0H31A4.37,4.37,0,0,1,29.34,39s-.1-.09-.09-.15A2.47,2.47,0,0,1,30,37.27Z"/><path class="cls-13" d="M11.29,35.76a5.62,5.62,0,0,1,.49-1.7.84.84,0,0,1,.92-.36c1,.09,2,0,3,0a1.66,1.66,0,0,1,1,.17,3.64,3.64,0,0,1,0,2,.7.7,0,0,1-.44.12H11.81C11.61,36,11.39,36,11.29,35.76Z"/><path class="cls-27" d="M29.34,38.9a8.56,8.56,0,0,0,2.66.29c1,0,1.89,0,2.84,0a1.49,1.49,0,0,0,.42,0c.67-.19.69-.18.71.54a3.17,3.17,0,0,1-.18,1.22,2,2,0,0,0-1.36-.4c-1.43,0-2.87,0-4.32,0a1.28,1.28,0,0,0-.86.15c-.22.16-.49-.14-.73,0A2.38,2.38,0,0,1,29.34,38.9Z"/><path class="cls-28" d="M25.22,44.11a1.63,1.63,0,0,1-.94.19h-10a3.7,3.7,0,0,1-2-.18c0-.09-.13-.17-.11-.29-.09-.3.11-.4.35-.43H23.91a1.59,1.59,0,0,1,1.21.41C25.21,43.88,25.29,44,25.22,44.11Z"/><path class="cls-29" d="M11.29,35.76a1,1,0,0,0,.6.1H16.6a2.66,2.66,0,0,1,0,2,1.25,1.25,0,0,0-1-.3h-4a.92.92,0,0,0-.54.1A6.45,6.45,0,0,1,11.29,35.76Z"/><path class="cls-30" d="M12,43.17a4.39,4.39,0,0,1-.48-1.4c-.12-.33,0-.51.34-.57a2.41,2.41,0,0,1,.6-.08h3.3a1.22,1.22,0,0,1,.91.3,2.1,2.1,0,0,1,.06,1.31.71.71,0,0,1-.71.38c-1,0-1.94,0-2.91,0A2.6,2.6,0,0,0,12,43.17Z"/><path class="cls-31" d="M12,43.17c.11-.22.54-.4.72-.28a.9.9,0,0,0,.46.09h2.7a1.37,1.37,0,0,0,.76-.19,1.57,1.57,0,0,1,.61-.06h4.71a1.54,1.54,0,0,1,.74,0,1.68,1.68,0,0,0,1.62-.19c.14-.12.25-.07.36,0a3.54,3.54,0,0,1,.49.92c.05.12.13.26,0,.39a2.06,2.06,0,0,0-1.5-.39H13c-.25,0-.63-.23-.7.28A1.78,1.78,0,0,1,12,43.17Z"/><path class="cls-12" d="M16.6,33.87c-.28.13-.54,0-.84,0-1,0-2,.06-3,0a1.46,1.46,0,0,0-1,.22,6.66,6.66,0,0,1,.84-1.84c.19.1.37.22.59,0a.78.78,0,0,1,.57-.17h2.51c.31,0,.38.11.33.38A1.47,1.47,0,0,1,16.6,33.87Z"/><path class="cls-32" d="M16.6,41.46a2.31,2.31,0,0,0-1.19-.19H12.53c-.23,0-.47,0-.69.07s-.37.17-.35.43a5.67,5.67,0,0,1-.36-1.62,2.3,2.3,0,0,1,.69-.1h3.59a2.44,2.44,0,0,0,1.19-.18A1.78,1.78,0,0,1,16.6,41.46Z"/><path class="cls-33" d="M26.58,45.34c.25-.29.58-.19.9-.18h6c.16,0,.35-.06.49.08-.17.21-.21.54-.47.67a2.25,2.25,0,0,0-.81-.09H27.59c-.46,0-.86.34-1.33.28A.65.65,0,0,1,26.58,45.34Z"/><path class="cls-29" d="M29.22,36.25a7.23,7.23,0,0,1-.53,1.33.94.94,0,0,1-.59.14H24.52a1.61,1.61,0,0,1-1-.33,4.56,4.56,0,0,1-.46-1.12c.11-.34.34-.43.7-.42h4.34A4.76,4.76,0,0,1,29,36,.23.23,0,0,1,29.22,36.25Z"/><path class="cls-29" d="M21.82,36.05l.65,1.53c0,.22-.19.21-.35.19-1.32-.11-2.64,0-4-.06a.65.65,0,0,1-.48-.14V35.86a.61.61,0,0,1,.4,0,11.33,11.33,0,0,0,2.85,0C21.32,35.7,21.48,36.1,21.82,36.05Z"/><path class="cls-17" d="M14.81,46.89c.09.06.22.06.25.21C14.9,47.1,14.82,47,14.81,46.89Z"/><path class="cls-34" d="M17.67,37.57h3.64a3.23,3.23,0,0,0,1.16,0l.94,2.3a.66.66,0,0,1-.68.42q-2.16,0-4.32,0a1.07,1.07,0,0,1-.77-.32Z"/><path class="cls-35" d="M17.67,39.94c1.62.39,3.24.1,4.89.19a1.11,1.11,0,0,0,.85-.26,12.68,12.68,0,0,1,.68,1.71.53.53,0,0,1-.63.19,29.75,29.75,0,0,0-4.32-.14H18.2a.7.7,0,0,1-.54-.14Z"/><path class="cls-30" d="M17.67,41.46h4.85c.54,0,1.08.31,1.62.1a3,3,0,0,1,.48,1.14c-.08,0-.1-.19-.21-.07-.54.58-1.2.38-1.83.23-.17,0-.31-.13-.45,0,.16-1,.16-1-.85-1-1.2,0-2.39,0-3.59,0Z"/><path class="cls-26" d="M23.51,37.39a32.94,32.94,0,0,0,5.16.19A9.83,9.83,0,0,1,28,39.19a11.18,11.18,0,0,1-3.11.07q-.3,0-.6-.06A13.11,13.11,0,0,1,23.51,37.39Z"/><path class="cls-36" d="M24.28,39.2c.16-.13.3-.41.54-.08.08.11.23.06.35.06h2.21a.62.62,0,0,0,.44-.11c.12-.1.15,0,.17.12a8,8,0,0,1-.54,1.32,2.31,2.31,0,0,1-1.8.33c-.22,0-.48.13-.69,0A10.25,10.25,0,0,1,24.28,39.2Z"/><path class="cls-37" d="M25,40.81c.17-.06.45,0,.38-.39a.53.53,0,0,0,.67.36h0c.46-.13,1,0,1.4-.25l0,.09a1.13,1.13,0,0,0-.17.39l-.75,1.86c-.1.25-.21.5-.35.82C25.7,42.68,25.29,41.76,25,40.81Z"/><path class="cls-36" d="M27.24,41c0-.17,0-.31.17-.39A.66.66,0,0,1,27.24,41Z"/><polygon class="cls-38" points="22.68 35.29 26.1 43.35 29.51 35.29 30.74 35.29 26.1 46.29 21.45 35.29 22.68 35.29"/><polygon class="cls-38" points="17.66 41.84 17.66 32.35 16.61 32.35 16.61 41.84 16.61 42.88 17.66 42.88 22.21 42.88 22.21 41.84 17.66 41.84"/></g></g><rect class="cls-39" width="164" height="76.75"/></g></g></svg>