<svg xmlns="http://www.w3.org/2000/svg" viewBox="0 0 164 76.75"><defs><style>.cls-1{fill:#fff;}.cls-2{fill:#f6ec36;}.cls-3{fill:none;}</style></defs><title>lego-logo</title><g id="Layer_2" data-name="Layer 2"><g id="Layer_1-2" data-name="Layer 1"><path class="cls-1" d="M92.52,35.25c-3.06.12-4.93.71-5.94,4s2.66,3.34,2.66,3.34c-.74,3.35-2.89,5.39-4.82,5.39-1.16,0-2.3-.52-1.92-3.06.53-3.71,4-12.74,5.62-15a3.91,3.91,0,0,1,3.2-2c1.84,0,1.66,1,1.25,2.23-1.24,3.56,2.5,3.63,3.41,3.56,3.27-.26,5.06-2.36,5.51-6C102.09,22.85,98,21,92.75,21c-8.7,0-12.12,5.29-15.38,12.93-1.53,3.58-3.46,9.69-3.46,13.58,0,5.44,3.33,8.4,8.68,8.4,7.8,0,13.33-6.24,14.91-14C98,39.48,98.62,35,92.52,35.25Z"/><path class="cls-1" d="M66.75,33.91a24.49,24.49,0,0,1,2-4.22,40.71,40.71,0,0,0,4.42-.06c3-.17,6-1.52,6-5.09,0-2.56-3.14-3.73-5.85-3.73-6.2,0-9.78.92-13.3,7.91-2.87,5.69-5.92,14.22-5.92,19.85,0,4.8,3.86,7.3,8.25,7.3,4,0,9.76-1.53,9.76-6.74,0-2.16-1.66-3.23-4.26-3.3a17.58,17.58,0,0,0-5.4.7c.55-2.15,1.23-4.19,1.59-5.15,4.59.81,8.34.53,9.6-3.79C74.63,34.39,72.28,33.15,66.75,33.91Z"/><path class="cls-1" d="M116.47,21c-8.88-.13-11.69,5.76-14.43,13-1.58,4-3.42,10.06-3.42,14.36.06,6,4.45,7.44,8.33,7.49s8.34-.88,12-7.47a52.74,52.74,0,0,0,5.24-14C125,30.33,126.87,21.12,116.47,21Zm-5.25,25.06c-.62,1.06-1.33,1.93-2.59,1.93h-.17A1.57,1.57,0,0,1,107,46.33c-.08-2.53,4.5-15,6.06-17a2.42,2.42,0,0,1,2.36-1.24c1.29,0,1.43,1,1.41,1.76C116.71,32.59,112.66,43.64,111.22,46.08Z"/><path class="cls-2" d="M116.13,15.12A17.72,17.72,0,0,0,104.5,19c-2.75-2.69-6.64-3.92-11.91-3.92A20.08,20.08,0,0,0,82,17.8,13.17,13.17,0,0,0,73.16,15c-3.67,0-8.9.19-12.83,3.53-.91-1.85-2.75-3.3-7.84-3.3a12.44,12.44,0,0,0-11,6.33C38.12,26.88,31,42.36,31.2,50.76c.13,6.35,4.92,10.73,11.79,10.89a17.74,17.74,0,0,0,10.37-2.58,15.25,15.25,0,0,0,9,2.71A18.51,18.51,0,0,0,73,58.72a15.15,15.15,0,0,0,9.53,3.06,19.45,19.45,0,0,0,13-4.84c2.47,3.15,6.71,4.79,11.85,4.79,9.64,0,14.64-5.92,18.39-13.63,1.39-2.88,4-10.08,4.5-14,.59-4.76,1.2-9.26-2.07-13.71C125.9,17.24,122,15.12,116.13,15.12Zm11.87,15a43.27,43.27,0,0,1-2.2,10.43C122,51.9,117.37,59.1,106.9,59.1c-4.76,0-9.15-1.87-10.87-6.56a17.19,17.19,0,0,1-13.44,6.6c-4.18,0-7.45-1.45-9.52-4-2.46,2.71-6.62,4-10.76,4a11.79,11.79,0,0,1-8.86-3.51c-2.26,2.29-5.79,3.5-10.37,3.39-5.81-.13-9.06-3.62-9.17-8.47-.19-7.5,7-23,9.93-27.66a9.5,9.5,0,0,1,8.61-5c2.06,0,4.16.36,5.47,1.74,1.08,1.14,1.25,2.15,1.33,4.06,3.29-5.31,8.85-6,13.94-6,3.91,0,7.13,1.46,8.49,3.67a16.66,16.66,0,0,1,10.89-3.63c4.63,0,8.06,1.13,10.21,3.55A7,7,0,0,1,104,23.11a14.94,14.94,0,0,1,12.07-5.35C125.78,17.76,128.32,24.09,128,30.08Z"/><path d="M115.42,28.06a2.42,2.42,0,0,0-2.36,1.24c-1.56,2-6.14,14.5-6.06,17A1.57,1.57,0,0,0,108.46,48h.17c1.26,0,2-.87,2.59-1.93,1.44-2.44,5.49-13.49,5.61-16.26C116.85,29,116.71,28.08,115.42,28.06Z"/><path d="M116.1,18.52c-4.8,0-8.67,1.68-11.45,5.11l-.77.89-.49-1.05a6.41,6.41,0,0,0-1.13-1.69c-1.94-2.19-5.19-3.3-9.65-3.3A16,16,0,0,0,82.2,21.93l-.66.56-.45-.76c-1.24-2-4.33-3.31-7.86-3.31-5.09,0-10.22.68-13.31,5.68l-1.28,2.06-.1-2.43c-.08-1.87-.17-2.54-1.12-3.58s-2.58-1.53-4.94-1.53a8.76,8.76,0,0,0-8,4.58c-2.94,4.67-10,20-9.81,27.29.06,4.68,3.22,7.62,8.4,7.74,4.28.1,7.67-1,9.83-3.17l.55-.56.53.58a11.09,11.09,0,0,0,8.31,3.26c4.34,0,8.06-1.35,10.2-3.71L73.1,54l.55.67c2,2.46,5.12,3.74,8.94,3.74a16.41,16.41,0,0,0,12.85-6.33l.82-1,.46,1.25c1.94,5.3,7.21,6.06,10.18,6.06,10,0,14.43-6.91,18.19-18.06A43.16,43.16,0,0,0,127.26,30c.13-2.51-.21-6-2.58-8.51C122.79,19.53,119.92,18.52,116.1,18.52ZM46.45,46.38c5.42-1,6.78,1,6.61,2.82-.51,5.43-5.49,6.65-9.82,6.55-3.13-.08-6-1.53-6-5.16-.13-6.37,6.36-21.1,9.42-26a6.36,6.36,0,0,1,5.88-3.46c2.59,0,3.24,1.33,3.2,2.94C55.61,28.34,48.72,41.31,46.45,46.38Zm27.24-8.79c-1.26,4.32-5,4.6-9.6,3.79-.36,1-1,3-1.59,5.15a17.58,17.58,0,0,1,5.4-.7c2.6.07,4.26,1.14,4.26,3.3,0,5.21-5.76,6.74-9.76,6.74-4.39,0-8.25-2.5-8.25-7.3,0-5.63,3.05-14.16,5.92-19.85,3.52-7,7.1-7.91,13.3-7.91,2.71,0,5.85,1.17,5.85,3.73,0,3.57-3,4.92-6,5.09a40.71,40.71,0,0,1-4.42.06,24.49,24.49,0,0,0-2,4.22C72.28,33.15,74.63,34.39,73.69,37.59ZM97.5,41.88c-1.58,7.77-7.11,14-14.91,14-5.35,0-8.68-3-8.68-8.4,0-3.89,1.93-10,3.46-13.58C80.63,26.27,84.05,21,92.75,21c5.22,0,9.34,1.87,8.74,6.76-.45,3.6-2.24,5.7-5.51,6-.91.07-4.65,0-3.41-3.56.41-1.26.59-2.23-1.25-2.23a3.91,3.91,0,0,0-3.2,2c-1.61,2.25-5.09,11.28-5.62,15-.38,2.54.76,3.06,1.92,3.06,1.93,0,4.08-2,4.82-5.39,0,0-3.67-.1-2.66-3.34s2.88-3.84,5.94-4C98.62,35,98,39.48,97.5,41.88Zm26.7-7.54a52.74,52.74,0,0,1-5.24,14c-3.67,6.59-8.12,7.51-12,7.47s-8.27-1.49-8.33-7.49c0-4.3,1.84-10.37,3.42-14.36,2.74-7.22,5.55-13.11,14.43-13C126.87,21.12,125,30.33,124.2,34.34Z"/><path d="M116.1,17.76A14.94,14.94,0,0,0,104,23.11a7,7,0,0,0-1.25-1.87c-2.15-2.42-5.58-3.55-10.21-3.55a16.66,16.66,0,0,0-10.89,3.63c-1.36-2.21-4.58-3.67-8.49-3.67-5.09,0-10.65.72-13.94,6-.08-1.91-.25-2.92-1.33-4.06-1.31-1.38-3.41-1.74-5.47-1.74a9.5,9.5,0,0,0-8.61,5C40.9,27.53,33.72,43,33.91,50.51c.11,4.85,3.36,8.34,9.17,8.47,4.58.11,8.11-1.1,10.37-3.39a11.79,11.79,0,0,0,8.86,3.51c4.14,0,8.3-1.25,10.76-4,2.07,2.55,5.34,4,9.52,4A17.19,17.19,0,0,0,96,52.54c1.72,4.69,6.11,6.56,10.87,6.56,10.47,0,15.06-7.2,18.9-18.59A43.27,43.27,0,0,0,128,30.08C128.32,24.09,125.78,17.76,116.1,17.76ZM127.26,30a43.16,43.16,0,0,1-2.17,10.24C121.33,51.43,117,58.34,106.9,58.34c-3,0-8.24-.76-10.18-6.06L96.26,51l-.82,1A16.41,16.41,0,0,1,82.59,58.4c-3.82,0-6.94-1.28-8.94-3.74L73.1,54l-.58.64c-2.14,2.36-5.86,3.71-10.2,3.71A11.09,11.09,0,0,1,54,55.08l-.53-.58-.55.56c-2.16,2.18-5.55,3.27-9.83,3.17-5.18-.12-8.34-3.06-8.4-7.74-.16-7.29,6.87-22.62,9.81-27.29a8.76,8.76,0,0,1,8-4.58c2.36,0,4,.49,4.94,1.53s1,1.71,1.12,3.58l.1,2.43,1.28-2.06c3.09-5,8.22-5.68,13.31-5.68,3.53,0,6.62,1.3,7.86,3.31l.45.76.66-.56a16,16,0,0,1,10.41-3.45c4.46,0,7.71,1.11,9.65,3.3a6.41,6.41,0,0,1,1.13,1.69l.49,1.05.77-.89c2.78-3.43,6.65-5.11,11.45-5.11,3.82,0,6.69,1,8.58,3C127.05,24,127.39,27.53,127.26,30Z"/><path d="M129.74,17.4v-.76h.5c.37,0,.55.13.55.36s-.12.38-.49.38Zm1.79,1.53-.31-.54c-.27-.47-.34-.55-.57-.63h0a.77.77,0,0,0,.72-.76.75.75,0,0,0-.85-.77h-1.36v2.69h.55V17.83h.11a.52.52,0,0,1,.44.14,2.1,2.1,0,0,1,.36.52l.22.44Zm-1.32-3.46a2.09,2.09,0,1,1-2.08,2.09h0A2.1,2.1,0,0,1,130.21,15.47Zm0-.5a2.6,2.6,0,1,0,2.6,2.59h0a2.58,2.58,0,0,0-2.6-2.56h0Z"/><rect class="cls-3" width="164" height="76.75"/></g></g></svg>