<svg xmlns="http://www.w3.org/2000/svg" viewBox="0 0 164 76.75"><defs><style>.cls-1{fill:#7ac041;}.cls-2{fill:#434e3f;}.cls-3{fill:none;}</style></defs><title>lendingtree-logo</title><g id="Layer_2" data-name="Layer 2"><g id="Layer_1-2" data-name="Layer 1"><g id="Layer_2-2" data-name="Layer 2"><g id="Layer_1-2-2" data-name="Layer 1-2"><path class="cls-1" d="M158,38.38c-.23,0-.3-.08-.29-.31V36.58a2.1,2.1,0,0,0-.33.75,9.12,9.12,0,0,0-.3.88.22.22,0,0,1-.22.17c-.13,0-.16-.09-.19-.2-.18-.52-.35-1-.53-1.58-.11.06-.07.15-.08.23v1.35c0,.12,0,.2-.16.2s-.16-.08-.16-.2V36.26c0-.1-.05-.25.14-.24s.33-.07.41.17c.14.47.3.93.46,1.38a1.25,1.25,0,0,0,.14.37c.15-.42.28-.75.39-1.1a3.12,3.12,0,0,0,.15-.43c.06-.33.23-.46.56-.4Z"/><path class="cls-2" d="M100.63,46.45V54a2.35,2.35,0,0,1-2,2.43,4.57,4.57,0,0,1-1,.09h-9.1a3.27,3.27,0,0,1-2-.6,2,2,0,0,1-.88-1.59V52.42c0-.18.06-.24.24-.24h3.73c.19,0,.21.08.21.24,0,.44,0,.44.47.44H95.3A1,1,0,0,0,96.39,52a1.13,1.13,0,0,0,0-.26V50.22c0-.23-.08-.26-.27-.26h-7.5a3.06,3.06,0,0,1-1.79-.5,2.51,2.51,0,0,1-1.19-2.17V39.15a2.92,2.92,0,0,1,.23-1.43,2.5,2.5,0,0,1,1.9-1.26,7.2,7.2,0,0,1,1.32-.09h8.36a4,4,0,0,1,2.19.5,2,2,0,0,1,1,1.8C100.63,41.27,100.63,43.86,100.63,46.45Zm-8-6.54H90c-.19,0-.26,0-.26.25v5.21a1,1,0,0,0,.82,1.06h5.52c.22,0,.28-.06.28-.28V41.08c0-.79-.35-1.15-1.15-1.15l-2.6,0Z"/><path class="cls-1" d="M117.12,20.22h4.79c.43,0,.38,0,.38.39v8.33a10.86,10.86,0,0,1-.05,1.89,3.54,3.54,0,0,1-2.68,3A5.48,5.48,0,0,1,118,34H108.7c-.28,0-.35-.08-.35-.37V24.59a4.35,4.35,0,0,1,2-3.7,3.74,3.74,0,0,1,2.14-.67Z"/><path class="cls-2" d="M129.28,50.17h-5.47a3.39,3.39,0,0,1-2.9-1.38,3.27,3.27,0,0,1-.6-2V39.35a3.48,3.48,0,0,1,.88-2.48,3.34,3.34,0,0,1,1.79-.93,5.07,5.07,0,0,1,1-.1h8.19a3.38,3.38,0,0,1,3,1.49,3.15,3.15,0,0,1,.52,1.56,23,23,0,0,1,0,3.32,2.33,2.33,0,0,1-1.87,2.19,4.85,4.85,0,0,1-1.26.17h-6.93c-.24,0-.32-.06-.32-.31V41.84c0-.25.09-.3.31-.3h5.75c.24,0,.29-.07.27-.29a5.61,5.61,0,0,1,0-.58.85.85,0,0,0-.8-.89h-5.29a1.63,1.63,0,0,0-.62.08.75.75,0,0,0-.55.75v4.85a.79.79,0,0,0,.66.74,2.32,2.32,0,0,0,.59,0h9.41c.29,0,.36.08.36.36v3.24c0,.26-.09.32-.32.32Z"/><path class="cls-2" d="M145.62,50.17h-5.53a3.28,3.28,0,0,1-3.06-1.7,3.88,3.88,0,0,1-.4-1.83V39.4a3.34,3.34,0,0,1,1.14-2.74,3.51,3.51,0,0,1,2.24-.8h8.56A3.26,3.26,0,0,1,151.8,38a4.31,4.31,0,0,1,.22,1.33v2.56a2.4,2.4,0,0,1-1.9,2.46,5.29,5.29,0,0,1-1.31.17H142c-.24,0-.33,0-.32-.3v-2.4c0-.27.09-.32.34-.32h5.69c.23,0,.32-.06.3-.3s0-.45,0-.67a.82.82,0,0,0-.74-.8,3.08,3.08,0,0,0-.43,0h-5.27a.84.84,0,0,0-.79.78v4.53c0,1,.48,1.2,1.19,1.2h9.47c.36,0,.36,0,.36.36v3.27c0,.23-.07.27-.27.26Z"/><path class="cls-2" d="M61.67,42.17V50c0,.23-.05.3-.29.3h-11A4.3,4.3,0,0,1,48.74,50,2.81,2.81,0,0,1,47,47.87a5.53,5.53,0,0,1-.1-1.15V38.36a2,2,0,0,1,1.89-2.16h.06c.26,0,.52,0,.79,0H57c.25,0,.33-.06.31-.32V34.41c0-.24.06-.33.31-.32h3.67c.26,0,.35.06.34.33Q61.68,38.3,61.67,42.17Zm-10.22.63v2.76a1,1,0,0,0,.93,1h4.69c.22,0,.29,0,.29-.28V40.92a1.06,1.06,0,0,0-.92-1.19H51.72c-.2,0-.26.05-.26.25C51.45,40.92,51.45,41.83,51.45,42.8Z"/><path class="cls-2" d="M22.56,50.28H17.24A4.15,4.15,0,0,1,15.53,50a3,3,0,0,1-1.85-2.43,8,8,0,0,1-.07-1.09V39.8A4.24,4.24,0,0,1,14,38.05a2.94,2.94,0,0,1,1.73-1.49,3.73,3.73,0,0,1,1.4-.22h8.1a3.22,3.22,0,0,1,3,1.59,3.38,3.38,0,0,1,.42,1.73v2.67A2.24,2.24,0,0,1,27,44.57a4.56,4.56,0,0,1-1.32.22h-6.8c-.28,0-.37-.07-.36-.36V42.19c0-.27,0-.35.33-.35h5.53c.23,0,.32-.05.29-.29a3.1,3.1,0,0,1,0-.53.84.84,0,0,0-.78-.9H18.48a.84.84,0,0,0-.88.79v4.68a.85.85,0,0,0,.81.87H28c.27,0,.33.08.33.33V50c0,.24-.07.31-.3.31Z"/><path class="cls-2" d="M29.7,43.32V36.67c0-.24.05-.33.31-.33h12.7a2.8,2.8,0,0,1,2.92,2.59,6.8,6.8,0,0,1,.06.9V49.92c0,.36,0,.36-.37.36H41.49c-.25,0-.32-.06-.32-.31v-9c0-.64-.2-.87-.83-.94a5.23,5.23,0,0,0-.56,0H34.57c-.29,0-.36.06-.36.35V50c0,.29-.08.36-.36.36H30.13c-.39,0-.39,0-.39-.38Z"/><path class="cls-2" d="M68.46,43.32V36.66c0-.22,0-.3.28-.29H81.41a2.87,2.87,0,0,1,2.38,1.05,3.34,3.34,0,0,1,.64,2.09V50c0,.23-.08.29-.29.29h-4c-.2,0-.26-.05-.26-.26V40.91c0-.62-.25-.89-.88-.91H73.28c-.27,0-.35.07-.34.34v9.59c0,.27,0,.36-.35.36H68.73c-.22,0-.28-.06-.28-.28C68.47,47.79,68.46,45.55,68.46,43.32Z"/><path class="cls-2" d="M101.75,40.58V34.26c0-.2,0-.3.27-.29h4.11c.25,0,.32.06.32.32v1.29c0,.21,0,.28.26.27h2c.27,0,.32.09.32.34v3.1c0,.26-.08.31-.32.31H106.8c-.18,0-.25,0-.25.24v5.91c0,.41.23.64.69.66s1.05,0,1.58,0c.2,0,.27.05.26.26v3.27c0,.25-.07.3-.3.3-1.14,0-2.3,0-3.44,0a3.58,3.58,0,0,1-3.59-3.56v0C101.76,44.62,101.75,42.57,101.75,40.58Z"/><path class="cls-2" d="M109.92,44.29V38.93A3.1,3.1,0,0,1,113,35.87h6.17c.17,0,.24,0,.24.24v3.54c0,.2-.07.26-.26.26h-3.65c-.75,0-1,.27-1.06,1a2.16,2.16,0,0,0,0,.36V49.9c0,.29-.07.37-.36.36h-3.86c-.27,0-.35-.06-.35-.33C109.93,48,109.92,46.16,109.92,44.29Z"/><path class="cls-2" d="M10.47,39.88V45.4c0,.75.31,1,1,1h.85c.27,0,.26.07.26.27V50c0,.23-.07.26-.27.26H9a3,3,0,0,1-2.75-1.49A2.38,2.38,0,0,1,6,47.62V34.38c0-.26.06-.33.32-.32h3.83c.3,0,.36.09.35.36Q10.47,37.13,10.47,39.88Z"/><path class="cls-2" d="M62.91,43.26V36.55c0-.24.06-.31.31-.31H67c.22,0,.31,0,.3.29V49.94c0,.23-.06.28-.27.28H63.19c-.23,0-.29-.06-.29-.28C62.92,47.73,62.91,45.49,62.91,43.26Z"/><path class="cls-1" d="M154.46,38.38c-.53,0-.83-.18-.94-.55,0-.09-.09-.2.06-.23a.18.18,0,0,1,.24.09v0a.75.75,0,0,0,1,.34.33.33,0,0,0,.23-.34.32.32,0,0,0-.26-.3c-.2-.07-.41-.12-.61-.18-.38-.1-.6-.34-.59-.63s.23-.52.63-.61a.87.87,0,0,1,1.05.47c0,.08.08.18,0,.21s-.2.07-.26-.07c-.12-.35-.3-.36-.74-.32a.34.34,0,0,0-.32.28.35.35,0,0,0,.25.33,4.94,4.94,0,0,0,.52.13c.54.15.75.38.69.75A.81.81,0,0,1,154.46,38.38Z"/></g></g><rect class="cls-3" width="164" height="76.75"/></g></g></svg>