<svg xmlns="http://www.w3.org/2000/svg" viewBox="0 0 164 76.75"><defs><style>.cls-1{fill:#e31837;}.cls-2{fill:#fff;}.cls-3{fill:none;}</style></defs><title>livenation-logo</title><g id="Layer_2" data-name="Layer 2"><g id="Layer_1-2" data-name="Layer 1"><g id="Page-1"><g id="logo"><g id="Group"><path id="Shape" class="cls-1" d="M156.06,23.88H7.93a3.91,3.91,0,0,0-3.88,3.95V48.92a3.92,3.92,0,0,0,3.88,3.95H156.06A3.92,3.92,0,0,0,160,48.92V27.83a4,4,0,0,0-3.89-3.95Z"/><path id="Shape-2" data-name="Shape" class="cls-2" d="M5.34,48.92V27.83a2.61,2.61,0,0,1,2.59-2.65H156.06a2.62,2.62,0,0,1,2.59,2.65V48.92a2.63,2.63,0,0,1-2.59,2.65H7.93a2.62,2.62,0,0,1-2.59-2.65Z"/><path id="Shape-3" data-name="Shape" class="cls-1" d="M13.5,42.64V34.11H11.69V44.47h9.6V42.64Z"/><path id="Shape-4" data-name="Shape" d="M79.22,35a2.92,2.92,0,0,0-2.17-.85H68.12V44.47h1.81V36h7.12a1.12,1.12,0,0,1,1.21,1.21v7.3h1.81v-7.3A2.89,2.89,0,0,0,79.22,35Z"/><path id="Shape-5" data-name="Shape" d="M117.43,44.47h-1.81V34.11h1.81V44.47Z"/><path id="Shape-6" data-name="Shape" class="cls-1" d="M42.8,34.11l-4.52,9.53a1.34,1.34,0,0,1-1.31.81,1.33,1.33,0,0,1-1.3-.81l-4.53-9.53h2l3.46,7.19a.4.4,0,0,0,.72,0l3.44-7.19Z"/><path id="Shape-7" data-name="Shape" class="cls-1" d="M57.31,44.47h-8.8a3,3,0,0,1-2.18-.87,2.92,2.92,0,0,1-.85-2.17V37.17a2.91,2.91,0,0,1,3-3h8.8V36h-8.8a1.07,1.07,0,0,0-1.22,1.21v1.21h10v1.83h-10v1.22a1.15,1.15,0,0,0,.33.88,1.19,1.19,0,0,0,.89.33h8.8v1.83Z"/><path id="Shape-8" data-name="Shape" d="M96.57,44.47H94.76V41.7H86.55v2.77H84.74v-7.3a2.91,2.91,0,0,1,3-3h5.76A3,3,0,0,1,95.7,35a2.94,2.94,0,0,1,.85,2.19v7.3Zm-1.81-4.62v-2.7a1.07,1.07,0,0,0-1.22-1.21H87.77a1.07,1.07,0,0,0-1.22,1.21v2.7Z"/><path id="Shape-9" data-name="Shape" d="M111.58,35.94h-5v8.51h-1.81V35.94h-5V34.11h11.82v1.83Z"/><path id="Shape-10" data-name="Shape" d="M133.35,41.43a2.87,2.87,0,0,1-3,3h-5.75a3,3,0,0,1-2.18-.85,3,3,0,0,1-.85-2.19V37.17a2.94,2.94,0,0,1,.87-2.15,2.87,2.87,0,0,1,2.16-.89h5.75a3,3,0,0,1,3.05,3v4.26Zm-1.81,0V37.17a1.26,1.26,0,0,0-.33-.89,1.23,1.23,0,0,0-.89-.32h-5.77a1.18,1.18,0,0,0-1.22,1.21v4.26a1.07,1.07,0,0,0,1.22,1.21h5.77a1.08,1.08,0,0,0,1.22-1.21Z"/><path id="Shape-11" data-name="Shape" d="M148.38,35a2.91,2.91,0,0,0-2.17-.85h-8.93V44.47h1.81V36h7.13a1.23,1.23,0,0,1,.89.32,1.19,1.19,0,0,1,.33.89v7.3h1.81v-7.3a2.91,2.91,0,0,0-.87-2.19Z"/><path id="Shape-12" data-name="Shape" d="M30.63,29.44l-.3-.55a.08.08,0,0,0-.13,0s-.25.2-.4.29a.26.26,0,0,0-.13.25s0,.4,0,.4-.06.14-.07.18h0L27.3,31.76l-.29.07-.7.34,0-.47c.06,0,.13.11.18.11a.3.3,0,0,0,.17,0,.49.49,0,0,1,0-.14.88.88,0,0,1,0-.15.43.43,0,0,0,.18.08.23.23,0,0,0,.16-.06l.07-.07a1.12,1.12,0,0,1-.18-.13s-.07-.09,0-.09.16-.09.16-.09a.66.66,0,0,1-.12-.09.25.25,0,0,1-.11-.16l0-.11a.17.17,0,0,0,.13,0,.28.28,0,0,0,.14,0l-.09-.07a.68.68,0,0,1-.09-.17c0-.09,0-.14-.07-.2a.82.82,0,0,1,0-.18.59.59,0,0,0-.11-.29,1.52,1.52,0,0,0-.87-.45c-.3-.07-.61.34-.74.74a4,4,0,0,0-.14,1.34.33.33,0,0,0,.12.2,3.07,3.07,0,0,0,.33.11l0,.54-.65.06-.89-.53-1.79-1.34a.27.27,0,0,1-.09-.18s0-.34,0-.4a.24.24,0,0,0-.12-.25c-.15-.09-.4-.29-.4-.29s-.09-.07-.13,0l-.3.54.12.51.13.2.11.11.67.59h0l1.08,1,.31.31a.27.27,0,0,1,0,.11V33a.15.15,0,0,0,0,.09l.62.51a.19.19,0,0,1,0,.13l.1,3.51a.05.05,0,0,0,.06,0l.18.08.43,3.84.82,2.53-1.3.63a.14.14,0,0,0-.08.08.84.84,0,0,0-.07.18s0,0,0,0h1.95l-.18.51-.05.14s-.07.26,0,.29a2,2,0,0,0,.62,0,2.38,2.38,0,0,0,.6-.09c.05,0,.07-.29-.2-1.85l-.17-6L27.3,34a1.32,1.32,0,0,1,.11-.47l.58-.43A.18.18,0,0,0,28,33v-.42a.29.29,0,0,1,0-.14L28.5,32l.12-.12L30,30.52l.24-.27.1-.11a1,1,0,0,0,.13-.19,3.53,3.53,0,0,1,.13-.33.28.28,0,0,0,0-.18Z"/><g id="Shape-13" data-name="Shape"><path d="M150.9,35.45a1.49,1.49,0,0,1,.85-.81,1.63,1.63,0,0,1,.61-.13,1.33,1.33,0,0,1,.62.13,1.62,1.62,0,0,1,.51.32,2,2,0,0,1,.34.49,1.57,1.57,0,0,1,0,1.25,1.82,1.82,0,0,1-.34.51,1.42,1.42,0,0,1-.51.32,1.64,1.64,0,0,1-.62.13,1.46,1.46,0,0,1-.61-.13,1.34,1.34,0,0,1-.51-.32,1.63,1.63,0,0,1-.34-.51,1.35,1.35,0,0,1-.13-.63,1.28,1.28,0,0,1,.13-.62Zm.25,1.14a1.79,1.79,0,0,0,.27.44,1.31,1.31,0,0,0,.42.29,1.21,1.21,0,0,0,.5.1,1.22,1.22,0,0,0,.51-.1,1.75,1.75,0,0,0,.42-.29,1.48,1.48,0,0,0,.27-.44,1.33,1.33,0,0,0,.09-.54,1.9,1.9,0,0,0-.09-.53,1.22,1.22,0,0,0-.27-.41,1.13,1.13,0,0,0-.42-.29,1.09,1.09,0,0,0-.51-.11,1,1,0,0,0-.5.11,1.22,1.22,0,0,0-.42.29,1.46,1.46,0,0,0-.27.41,1.38,1.38,0,0,0-.09.53,1.28,1.28,0,0,0,.09.54Z"/><path d="M153.16,36.75v-.39a.41.41,0,0,0-.11-.28.45.45,0,0,0,.11-.27.38.38,0,0,0-.38-.38h-1.16v1.34h.24v-.56h.9a.15.15,0,0,1,.11.06.12.12,0,0,1,0,.1v.4Zm-.29-.83a.15.15,0,0,1-.11.06h-.9v-.31h.9a.18.18,0,0,1,.11,0,.14.14,0,0,1,0,.11.12.12,0,0,1,0,.09Z"/></g></g></g></g><rect class="cls-3" width="164" height="76.75"/></g></g></svg>