<svg xmlns="http://www.w3.org/2000/svg" viewBox="0 0 164 76.75"><defs><style>.cls-1{fill:#ed0005;}.cls-2{fill:#f89e00;}.cls-3{fill:#fe5e00;}.cls-4{fill:#252122;}.cls-5{fill:none;}</style></defs><title>mastercard-logo</title><g id="Layer_2" data-name="Layer 2"><g id="Layer_1-2" data-name="Layer 1"><g id="OkfcSj"><path class="cls-1" d="M61.52,4.52h3.34c0,.1.14.06.22.07a26.5,26.5,0,0,1,14.75,5.66,4.68,4.68,0,0,1-.39.38,26,26,0,0,0-4.35,4.48A26.77,26.77,0,0,0,69.58,31c0,.93.06,1.84.13,2.77a26.44,26.44,0,0,0,5.65,14.39,24.7,24.7,0,0,0,2.53,2.79c.63.59,1.3,1.15,1.94,1.73v.06a26.91,26.91,0,0,1-36.16-2.8,26.27,26.27,0,0,1-6.83-23.34A26,26,0,0,1,48.57,8.87,25.84,25.84,0,0,1,60,4.71,11.08,11.08,0,0,0,61.52,4.52Z"/><path class="cls-2" d="M94.83,4.52h3.56c0,.09.12.06.18.07.77.08,1.54.15,2.3.28a26.49,26.49,0,0,1,17.24,10.54,26.17,26.17,0,0,1,5.2,13.85,6.53,6.53,0,0,0,.12,1.39V33c-.09.06-.06.15-.07.23a22.69,22.69,0,0,1-.28,2.45,26.93,26.93,0,0,1-29.4,22.44,25.73,25.73,0,0,1-9.35-2.77A23.66,23.66,0,0,1,80,52.58c.53-.47,1-.95,1.6-1.47a27.72,27.72,0,0,0,3.85-4.46A26.72,26.72,0,0,0,90.13,32.5V30.36a21.82,21.82,0,0,0-.39-3.77,26.81,26.81,0,0,0-2.94-8.18,28,28,0,0,0-4.15-5.64,32.59,32.59,0,0,0-2.75-2.51,25.62,25.62,0,0,1,5.46-3.32,26.3,26.3,0,0,1,7.91-2.23A9.11,9.11,0,0,0,94.83,4.52Z"/><path class="cls-3" d="M79.83,10.25h.07a32.59,32.59,0,0,1,2.75,2.51,28.07,28.07,0,0,1,4.15,5.65,26.9,26.9,0,0,1,2.92,8.22,21.62,21.62,0,0,1,.39,3.77v2.13A26.72,26.72,0,0,1,85.4,46.68a27.51,27.51,0,0,1-3.85,4.43c-.52.49-1.07,1-1.61,1.43h-.11c-.64-.58-1.31-1.13-1.94-1.72a24.9,24.9,0,0,1-2.53-2.71,26.45,26.45,0,0,1-5.65-14.32c-.07-.93-.15-1.85-.13-2.78a26.77,26.77,0,0,1,5.51-15.9,25.73,25.73,0,0,1,4.35-4.5Z"/><path class="cls-4" d="M42.4,65.52a2.81,2.81,0,0,1,3.94-.33,2.25,2.25,0,0,1,.36.4c.12.18.18.16.3,0a2.91,2.91,0,0,1,3.24-.94,2.48,2.48,0,0,1,1.91,2.46v4.54c0,.19-.07.25-.25.23h-1c-.32,0-.3-.06-.3-.3V68.36a7.06,7.06,0,0,0,0-.92A1.44,1.44,0,0,0,49.24,66a1.7,1.7,0,0,0-1.83,1.17,2.84,2.84,0,0,0-.09.72v3.66c0,.25,0,.35-.31.33a5.57,5.57,0,0,0-1,0c-.25,0-.3-.08-.3-.31V68.1a4.15,4.15,0,0,0-.06-.87A1.38,1.38,0,0,0,44.35,66a1.67,1.67,0,0,0-1.76.94,2.21,2.21,0,0,0-.17.92v3.7c0,.23-.05.33-.3.3h-1c-.24,0-.28-.08-.28-.29V65c0-.24.06-.3.29-.28a8.34,8.34,0,0,0,1,0c.24,0,.34,0,.31.3A4,4,0,0,0,42.4,65.52Z"/><path class="cls-4" d="M117.68,71.05a3.28,3.28,0,0,1-3.93.58,3.78,3.78,0,0,1-1.89-3.72,3.54,3.54,0,0,1,3.7-3.38,3.42,3.42,0,0,1,.63.09,2.64,2.64,0,0,1,1.49,1V62.27c0-.33.08-.42.39-.39a3.93,3.93,0,0,0,.84,0c.28,0,.33.08.33.34v9.36c0,.24,0,.35-.31.33a7.37,7.37,0,0,0-.94,0c-.24,0-.33-.06-.3-.3A5.19,5.19,0,0,0,117.68,71.05Zm-2-5a2.14,2.14,0,0,0-2.23,2v.14a2.17,2.17,0,1,0,2.23-2.18Z"/><path class="cls-4" d="M59.32,65.48l.06-.08c0-.22-.1-.53.06-.66s.48,0,.73,0c.77,0,.77,0,.77.77v6.06c0,.28-.06.36-.34.34a6.32,6.32,0,0,0-.87,0c-.29,0-.39-.08-.35-.36a2.54,2.54,0,0,0,0-.39H59.3A3,3,0,0,1,56,71.9,3.39,3.39,0,0,1,53.61,69a3.84,3.84,0,0,1,.87-3.28,3.5,3.5,0,0,1,4-.85A3.46,3.46,0,0,1,59.32,65.48Zm-2,5.09a2.29,2.29,0,1,0-2.21-2.37v.06a2.15,2.15,0,0,0,2,2.3h.2Z"/><path class="cls-4" d="M103.24,65.52c0-.82,0-.82.84-.82s.72,0,.72.71v6.06c0,.3,0,.46-.39.4a1.13,1.13,0,0,0-.26,0,2.26,2.26,0,0,1-.82,0c-.24-.14,0-.51-.12-.77a3.08,3.08,0,0,1-3.65.66,3.44,3.44,0,0,1-2.13-3.19A3.58,3.58,0,0,1,99,65.11,3.23,3.23,0,0,1,103.24,65.52Zm.09,2.81A2.16,2.16,0,1,0,99,68a1.89,1.89,0,0,0,0,.41,2.12,2.12,0,0,0,2,2.17h.13a2.14,2.14,0,0,0,2.12-2.16Z"/><path class="cls-4" d="M81,68.88H78.65c-.27,0-.31.09-.24.31a2,2,0,0,0,2.06,1.44A3.29,3.29,0,0,0,82.34,70c.19-.16.28-.1.38.08s.18.29.27.43c.35.54.35.54-.21.89a4.34,4.34,0,0,1-5-.39c-1.76-1.74-1.28-5.15.88-6.15a3.36,3.36,0,0,1,4.58,1.31,3.29,3.29,0,0,1,.42,1.44,6.84,6.84,0,0,1,.06.91c0,.25-.07.35-.35.35C82.52,68.87,81.75,68.88,81,68.88Zm-.81-1.23h1.59c.22,0,.27-.06.23-.27a1.75,1.75,0,0,0-1.8-1.47,1.83,1.83,0,0,0-1.82,1.48c0,.22,0,.26.24.26Z"/><path class="cls-4" d="M65.46,72a5.08,5.08,0,0,1-2.82-.77c-.16-.12-.19-.18-.08-.34s.33-.53.49-.8.15-.2.32-.09a4,4,0,0,0,2.88.56l.25-.06c.45-.15.68-.41.68-.74s-.26-.54-.73-.65c-.67-.17-1.36-.17-2-.38h-.13a1.92,1.92,0,0,1-1.55-1.85,2.05,2.05,0,0,1,1.47-2.09,5.51,5.51,0,0,1,4.16.3c.18.09.21.18.1.36a5.52,5.52,0,0,0-.42.8c-.09.2-.17.21-.37.12A4,4,0,0,0,65.22,66a1,1,0,0,0-.38.11.69.69,0,0,0-.48.67c0,.33.25.46.53.56a12.4,12.4,0,0,0,1.6.26,3.8,3.8,0,0,1,1.52.57,2,2,0,0,1,.32,2.82,1.45,1.45,0,0,1-.17.18A3.76,3.76,0,0,1,65.46,72Z"/><path class="cls-4" d="M71.3,68.11v-1.7c0-.23-.07-.3-.29-.28s-.63,0-.94,0-.25,0-.23-.22h0c0-.37-.13-.86.06-1.09s.7-.08,1.07-.07.34-.1.33-.35V62.88c0-.22,0-.31.27-.3s.67,0,1,0,.28.08.28.3V64.4c0,.3.09.36.36.35h1.92c.21,0,.28.06.27.27,0,.37.11.84-.07,1.09s-.68,0-1,.07H73.14c-.19,0-.25,0-.25.23v3c0,1,.47,1.29,1.42,1.14a1.51,1.51,0,0,0,.65-.21c.32-.21.39,0,.46.24s.12.33.18.51c.16.47.16.48-.28.66A4.09,4.09,0,0,1,72.9,72a2,2,0,0,1-1.56-2V68.2Z"/><path class="cls-4" d="M94.24,72a3.64,3.64,0,0,1-3.78-2.41,3.84,3.84,0,0,1,1.26-4.39,4.34,4.34,0,0,1,4.65,0c.2.13.26.24.11.45a6.82,6.82,0,0,0-.41.68c-.12.23-.21.31-.48.14a2.72,2.72,0,0,0-1.9-.43,2,2,0,0,0-1.8,1.77,2.27,2.27,0,0,0,1.38,2.65,2.72,2.72,0,0,0,2.33-.37c.22-.14.34-.16.45.11a5.34,5.34,0,0,0,.41.68c.19.23.09.36-.12.51A3.71,3.71,0,0,1,94.24,72Z"/><path class="cls-4" d="M86.78,65.44a2.49,2.49,0,0,1,2.68-.83c.22,0,.35.11.23.38a8,8,0,0,0-.31,1c-.1.36-.12.22-.31.16a2.12,2.12,0,0,0-1-.08,1.49,1.49,0,0,0-1.24,1.69v3.78c0,.27,0,.39-.35.36a8.34,8.34,0,0,0-1,0c-.18,0-.22-.06-.22-.23V64.93c0-.2.07-.24.25-.24s.61,0,.91,0,.43,0,.38.36A2.55,2.55,0,0,0,86.78,65.44Z"/><path class="cls-4" d="M108.43,65.48a2.38,2.38,0,0,1,2.65-.87c.23,0,.33.13.22.38a7,7,0,0,0-.31,1c-.09.36-.14.22-.31.16a2.25,2.25,0,0,0-1-.1,1.49,1.49,0,0,0-1.3,1.66v3.83c0,.27,0,.39-.35.36a6.31,6.31,0,0,0-.87,0c-.27,0-.34-.06-.34-.33v-6.2c0-.63,0-.63.62-.63h.07a2.9,2.9,0,0,1,.78,0C108.49,64.81,108.34,65.2,108.43,65.48Z"/><path class="cls-2" d="M122.38,47.5c-.4.57-.4.57-.76,0v.38c0,.07,0,.16-.09.16s-.12-.08-.12-.16v-.66c0-.08,0-.18.11-.2a.2.2,0,0,1,.23.14l.25.56c.11-.22.19-.4.26-.58s.13-.12.23-.11.11.11.11.19v.65c0,.07,0,.16-.09.17s-.1-.1-.11-.17S122.39,47.68,122.38,47.5Z"/><path class="cls-4" d="M121.83,70.83a.7.7,0,0,1,.72.69v0a.73.73,0,0,1-.74.69.7.7,0,0,1-.7-.71h0a.71.71,0,0,1,.71-.69ZM121.5,72a.46.46,0,0,0,.64,0l0,0a.55.55,0,0,0,0-.77l0,0a.6.6,0,0,0-.76,0,.52.52,0,0,0,0,.74Z"/><path class="cls-2" d="M120.8,47h.29s.1,0,.11.07,0,.11-.06.11c-.32,0-.23.21-.27.39s.14.43-.12.43,0-.27-.07-.43.06-.41-.26-.39a.08.08,0,0,1-.09-.08h0c0-.06.06-.07.1-.07h.37Z"/><path class="cls-4" d="M122.06,71.8c-.2.13-.16-.19-.3-.16s0,.25-.2.21v-.36c0-.12-.07-.24.08-.27s.32-.07.44.07,0,.21-.07.3S122.07,71.73,122.06,71.8Z"/><path class="cls-4" d="M122.11,71.86s-.09,0-.06-.06Z"/></g><rect class="cls-5" width="164" height="76.75"/></g></g></svg>