<svg xmlns="http://www.w3.org/2000/svg" viewBox="0 0 164 76.75"><defs><style>.cls-1{fill:#7eb900;}.cls-2{fill:#00a3ee;}.cls-3{fill:#f15022;}.cls-4{fill:#feb800;}.cls-5{fill:#737373;}.cls-6{fill:none;}</style></defs><title>microsoft-logo</title><g id="Layer_2" data-name="Layer 2"><g id="Layer_1-2" data-name="Layer 1"><g id="Layer_2-2" data-name="Layer 2"><g id="Layer_1-2-2" data-name="Layer 1-2"><path class="cls-1" d="M38.51,22.13v15c0,.54.06.47-.5.47H23.54c-.56,0-.5.07-.5-.47V22.13Z"/><path class="cls-2" d="M6,39.15H21c.34,0,.47.06.47.43V54.17c0,.37-.11.43-.47.43q-7.26,0-14.52,0H6Z"/><path class="cls-3" d="M21.41,22.13v15c0,.33-.07.42-.42.42H6V22.5c0-.32.08-.37.35-.37Z"/><path class="cls-4" d="M23,46.89V39.58c0-.31.07-.42.4-.42H38.11c.29,0,.39.06.39.38V54.25c0,.28,0,.37-.35.37H23.4c-.31,0-.36-.1-.35-.37C23.05,51.8,23,49.35,23,46.89Z"/><path class="cls-5" d="M51.3,32.81c.07,4.95,0,9.88,0,14.83,0,.5,0,.5-.47.5H48.51c-.26,0-.32-.09-.32-.33V29c0-.25.07-.34.32-.33h4.14c.29,0,.36.15.47.36l4,10.17c.57,1.32,1.08,2.67,1.52,4a1,1,0,0,0,.1.21c.1-.28.18-.47.25-.7,1.41-4,3.13-7.81,4.7-11.72.28-.71.59-1.41.87-2.12a.34.34,0,0,1,.39-.27h4c.29,0,.33.1.33.36V47.65c0,.34-.09.42-.43.42-.88,0-1.75,0-2.64,0-.23,0-.3-.08-.3-.31V35.62c0-1.1.09-2.2.14-3.3-.06,0-.08,0-.09,0a28.4,28.4,0,0,1-1.88,5.13c-1.35,3.41-2.74,6.79-4.1,10.19a.57.57,0,0,1-.67.43,10,10,0,0,0-1.34,0,.47.47,0,0,1-.53-.35q-2.35-5.7-4.68-11.4a26.86,26.86,0,0,1-1.41-3.72.3.3,0,0,1-.08-.16A1.93,1.93,0,0,1,51.3,32.81Z"/><path class="cls-5" d="M158,45.27v2.52a.21.21,0,0,1-.17.22,5.74,5.74,0,0,1-4.58-.11,3.49,3.49,0,0,1-1.77-3,33,33,0,0,1-.06-3.72v-4c0-.35-.11-.42-.44-.42-1.35,0-2.7,0-4.06,0-.34,0-.47.08-.47.44V47.54c0,.59.08.51-.53.52h-2.3c-.36,0-.47-.07-.47-.47V37.2c0-.38-.09-.47-.47-.47s-1,0-1.54,0c-.22,0-.32,0-.31-.29v-2.1c0-.22.06-.29.28-.29h1.68c.28,0,.34-.09.34-.34a16.42,16.42,0,0,1,.07-2.53,4.65,4.65,0,0,1,4-4,6.84,6.84,0,0,1,2.55.12.34.34,0,0,1,.33.36.09.09,0,0,1,0,.05v2.18c0,.26,0,.33-.29.21a3.28,3.28,0,0,0-1.07-.25,2,2,0,0,0-2.3,2c0,.64,0,1.28,0,1.91,0,.19.07.25.25.25h4.45c.22,0,.24-.11.23-.28V31.23a.35.35,0,0,1,.28-.41h0c.9-.25,1.79-.51,2.68-.79.28-.09.32,0,.32.25v3.41c0,.31.1.38.39.37h2.56c.26,0,.37.06.36.34,0,.67,0,1.35,0,2,0,.27-.09.34-.35.34H155c-.27,0-.35.06-.35.34v6.71c.05,1.69,1.2,2.08,2.47,1.79A3.33,3.33,0,0,0,158,45.27Z"/><path class="cls-5" d="M115.67,44.44a7.15,7.15,0,0,0,2.93,1.25,4.46,4.46,0,0,0,1.89,0,1.22,1.22,0,0,0,1-.94,1.32,1.32,0,0,0-.47-1.41,6,6,0,0,0-1.24-.69,15.59,15.59,0,0,1-2.72-1.41,4,4,0,0,1-.68-5.57l.11-.14a5.18,5.18,0,0,1,3.25-1.6,8.78,8.78,0,0,1,4,.4.41.41,0,0,1,.34.47c0,.79,0,1.58,0,2.38,0,.24,0,.33-.28.17a5.51,5.51,0,0,0-3.45-.81,1.42,1.42,0,0,0-1.47,1.82,1.31,1.31,0,0,0,.67.84,15.47,15.47,0,0,0,1.7.8,11.88,11.88,0,0,1,2.5,1.41A3,3,0,0,1,125,43.79a4.22,4.22,0,0,1-3.22,4.32,9.22,9.22,0,0,1-5.82-.4c-.13-.05-.24-.1-.24-.29C115.67,46.45,115.67,45.48,115.67,44.44Z"/><path class="cls-5" d="M88.87,37.7a5.89,5.89,0,0,0-2.67-1.1A4.09,4.09,0,0,0,81.49,40a3,3,0,0,0,0,.52,6,6,0,0,0,.32,2.82,3.93,3.93,0,0,0,4.68,2.32,5.86,5.86,0,0,0,2.43-1.11v2.85c0,.19-.12.23-.24.3a7.24,7.24,0,0,1-2.48.73A8.3,8.3,0,0,1,82.08,48a6.18,6.18,0,0,1-3.83-4.34,8.26,8.26,0,0,1,.6-6.11,6.71,6.71,0,0,1,5.46-3.65,8.34,8.34,0,0,1,4.28.53c.15,0,.29.08.29.29C88.87,35.67,88.87,36.65,88.87,37.7Z"/><path class="cls-5" d="M99.39,37.37a3.5,3.5,0,0,0-2.21-.47A2.7,2.7,0,0,0,95,38.67a4.47,4.47,0,0,0-.4,1.94v7c0,.35-.08.47-.44.47q-1.23,0-2.46,0c-.31,0-.4-.07-.4-.39V34.48c0-.27.06-.36.33-.35h2.61c.27,0,.36.08.35.35v2a.63.63,0,0,0,.23-.36A3.52,3.52,0,0,1,98.72,34c.61.07.67.14.67.75Z"/><path class="cls-5" d="M72.4,41.08V34.5c0-.3.07-.4.38-.39.87,0,1.74,0,2.61,0,.23,0,.3.06.3.29V47.77c0,.26-.09.3-.31.29H72.74c-.28,0-.34-.1-.34-.36C72.41,45.5,72.4,43.3,72.4,41.08Z"/><path class="cls-5" d="M74.07,32a1.88,1.88,0,1,1,2-1.89,1.93,1.93,0,0,1-2,1.89Z"/><path class="cls-5" d="M108.86,34a9.28,9.28,0,0,0-4.29.11,6.23,6.23,0,0,0-4.42,4,8.32,8.32,0,0,0-.47,3.05,9.62,9.62,0,0,0,.09,1.52,6.25,6.25,0,0,0,4.41,5.36,8.49,8.49,0,0,0,3.91.26,6.27,6.27,0,0,0,5-3.52,8.79,8.79,0,0,0,.47-6.49A5.81,5.81,0,0,0,108.86,34Zm1.71,7.06a7.87,7.87,0,0,1-.44,2.59,3.05,3.05,0,0,1-2.83,2,3.51,3.51,0,0,1-3.69-1.85,4.93,4.93,0,0,1-.53-2,6.81,6.81,0,0,1,.38-3.13,3.46,3.46,0,0,1,3.79-2.22,3.36,3.36,0,0,1,3.08,2.62,6.6,6.6,0,0,1,.24,1.88Z"/><path class="cls-5" d="M140,37.87A5.73,5.73,0,0,0,135.56,34,9.18,9.18,0,0,0,132,34a6.28,6.28,0,0,0-4.82,3.32,8.51,8.51,0,0,0-.9,4.15,8.62,8.62,0,0,0,.09,1.24,6.26,6.26,0,0,0,4.41,5.41,8.58,8.58,0,0,0,3.87.27,6.24,6.24,0,0,0,5.2-3.83A8.73,8.73,0,0,0,140,37.87Zm-3.32,5.85a3.06,3.06,0,0,1-2.83,2,3.58,3.58,0,0,1-3.33-1.31,4.87,4.87,0,0,1-.88-2.68v-.54A6.06,6.06,0,0,1,130,38.8a3.43,3.43,0,0,1,3.51-2.28A3.3,3.3,0,0,1,136.83,39a7,7,0,0,1-.15,4.76Z"/></g></g><rect class="cls-6" width="164" height="76.75"/></g></g></svg>