<svg xmlns="http://www.w3.org/2000/svg" viewBox="0 0 164 76.75"><defs><style>.cls-1{fill:#ffd520;}.cls-2{fill:none;}</style></defs><title>natgeo-logo</title><g id="Layer_2" data-name="Layer 2"><g id="Layer_1-2" data-name="Layer 1"><path class="cls-1" d="M5.5,60.85V15.9H36.87v45Zm26.83-4.52V20.42H10V56.33Z"/><path d="M57.72,36.06H55.78c-2.55-3.6-5.08-7.17-7.6-11.22h0V36.06H46V20.41h2C50.47,24,53,27.54,55.5,31.57h0V20.41h2.2V36.06Z"/><path d="M62.81,29.88c.62-2.05,1.25-4,1.8-6.37h0c.63,2.41,1.19,4.32,1.77,6.37Zm1-9.46L58.42,36.06h2.32L62.1,31.8h4.72l1.23,4.26h3l-5-15.65H63.84Z"/><path d="M73.58,36.06V22.52H69.47v-2.1H80.35v2.1H76.24V36.06H73.58Z"/><path d="M81.26,36.06V20.41h2.66V36.06Z"/><path d="M92.18,34.07C89.39,34.07,88.4,31,88.4,28s1.09-5.64,3.78-5.64S96,25.11,96,28,95,34.07,92.18,34.07Zm0,2.19c4.09,0,6.64-3.64,6.64-8.31,0-4.39-2.82-7.88-6.64-7.88S85.55,23.56,85.55,28c0,4.73,2.54,8.39,6.63,8.39Z"/><path d="M112.15,36.06h-1.94c-2.55-3.6-5.08-7.17-7.6-11.22h0V36.06h-2.19V20.41h1.94c2.54,3.58,5.07,7.13,7.57,11.16h0V20.41h2.2V36.06Z"/><path d="M117.27,29.88c.63-2.05,1.25-4,1.81-6.37h0c.62,2.41,1.18,4.32,1.76,6.37h-3.57Zm1-9.46-5.41,15.65h2.33l1.36-4.26h4.71l1.23,4.26h3l-5-15.65H118.3Z"/><path d="M126.29,20.41H129V34h5.3v2.1h-8Z"/><path d="M56.06,49.15v6.46a12.18,12.18,0,0,1-4.45,1C47,56.58,44.1,53,44.1,48.4c0-4.27,2.9-8,7.6-8a6.69,6.69,0,0,1,3.79,1.21l-.87,1.85a5.75,5.75,0,0,0-2.86-.82c-2.86,0-4.8,2.26-4.8,5.81s2.19,5.9,4.54,5.9A3.88,3.88,0,0,0,53.37,54V49.15Z"/><path d="M65.66,42.76H61.18v4.29h4.39v2.1H61.18v5.06h5.28v2.1h-8V40.64h7.15v2.11Z"/><path d="M73.92,54.34c-2.79,0-3.77-3.08-3.77-6.07s1.1-5.64,3.77-5.64,3.79,2.75,3.79,5.64S76.72,54.34,73.92,54.34Zm0,2.19c4.09,0,6.64-3.64,6.64-8.31,0-4.38-2.82-7.87-6.64-7.87s-6.63,3.49-6.63,7.87c0,4.72,2.54,8.36,6.63,8.36v0Z"/><path d="M93.44,49.15v6.46a12.18,12.18,0,0,1-4.45,1c-4.61,0-7.51-3.58-7.51-8.18,0-4.27,2.9-8,7.6-8a6.67,6.67,0,0,1,3.79,1.21L92,43.45a5.82,5.82,0,0,0-2.87-.82c-2.86,0-4.8,2.26-4.8,5.81s2.19,5.9,4.54,5.9A3.94,3.94,0,0,0,90.76,54V49.15Z"/><path d="M98.58,42.76h1.19a2.27,2.27,0,0,1,2.48,2,1.93,1.93,0,0,1,0,.48,2.77,2.77,0,0,1-2.37,3.09l-.18,0-1.09.06v-5.7Zm6.8,13.54-3.1-6.48A5.25,5.25,0,0,0,105,45.17c0-3-1.85-4.51-4.85-4.51H96V56.3h2.69V50.4h1.21l2.52,5.9h3Z"/><path d="M109.8,50.12c.63-2,1.25-4,1.81-6.37h0c.63,2.41,1.19,4.31,1.77,6.37H109.8Zm1-9.48-5.4,15.65h2.33L109.12,52h4.72l1.23,4.26h3l-5-15.65h-2.24Z"/><path d="M123.11,40.64h-4.17V56.29h2.68V50.4h1.21A5.1,5.1,0,0,0,128,45.33v-.16C127.93,42.14,126.08,40.64,123.11,40.64Zm-.38,7.74-1.1.06V42.75h1.21a2.27,2.27,0,0,1,2.46,2.06,2.36,2.36,0,0,1,0,.46,2.78,2.78,0,0,1-2.38,3.11l-.22,0Z"/><path d="M140.36,56.3h-2.68V48.77h-5.57V56.3h-2.67V40.64h2.67v6h5.57v-6h2.68v15.6Z"/><path d="M142.93,56.3V40.64h2.66V56.29h-2.66Z"/><path d="M157.66,43.5a5.54,5.54,0,0,0-2.76-.87c-2.73,0-4.71,2.26-4.71,5.81s2.19,5.9,4.78,5.9a5,5,0,0,0,2.69-.78l.73,1.94a6.71,6.71,0,0,1-3.53,1.1c-4.61,0-7.51-3.58-7.51-8.18,0-4.27,2.88-8,7.55-8a6.56,6.56,0,0,1,3.6,1.21Z"/><rect class="cls-2" width="164" height="76.75"/></g></g></svg>