<svg xmlns="http://www.w3.org/2000/svg" viewBox="0 0 164 76.75"><defs><style>.cls-1{fill:#fff;}.cls-2{fill:#f37021;}.cls-3{fill:#cc004c;}.cls-4{fill:#6460aa;}.cls-5{fill:#0089d0;}.cls-6{fill:#0db14b;}.cls-7{fill:#fcb711;}.cls-8{fill:none;}</style></defs><title>nbc-logo</title><g id="Layer_2" data-name="Layer 2"><g id="Layer_1-2" data-name="Layer 1"><g id="g4"><path id="path3113" class="cls-1" d="M82,9.74a8,8,0,0,0-8.58-5.17,8.29,8.29,0,0,0-7.23,10.21,8.44,8.44,0,0,0-10.38.73c-4.76,4.77-2.21,11.21.4,12.76A8.2,8.2,0,0,0,47.77,35c-1.07,6.33,3.75,10,8.44,10h52c5.43,0,8.44-4.69,8.11-9.12a8.1,8.1,0,0,0-8.71-7.52c2.41-1.35,5.63-7.66.73-12.63A8.07,8.07,0,0,0,97.81,15c.93-3.08-.6-9.47-6.91-10.47a10.9,10.9,0,0,0-1.25-.08A8.09,8.09,0,0,0,82,9.74"/><path id="path3115" class="cls-2" d="M56.68,16.52a7.18,7.18,0,0,0,1.2,11.42L77.64,41.49l-9.58-22c-2-5.18-7.5-6.31-11.38-3"/><path id="path3117" class="cls-3" d="M73.69,5.85a7,7,0,0,0-5.89,9.73L77.71,39l3.48-24.58c.8-6.11-3.82-8.93-7.5-8.52"/><path id="path3119" class="cls-4" d="M82.74,13.43h1.87s1,0,1.14.47c-.74.6-2.75.68-2.48,3.89l3.15,21.15,9.84-23.43a7.12,7.12,0,0,0-6-9.73,4.71,4.71,0,0,0-.53,0c-3.37,0-7.22,2.45-7,7.68"/><path id="path3121" class="cls-5" d="M95.86,19.74,86.55,41.43,106.31,27.8a7.09,7.09,0,0,0-3.84-13.08c-2.46,0-5.08,1.31-6.61,5"/><path id="path3123" class="cls-6" d="M104.1,30.89l-18.55,13h22.84c4.68,0,7.7-4.83,6.36-9.26a6.9,6.9,0,0,0-10.65-3.69"/><path id="path3125" class="cls-7" d="M56.14,43.84H78.65l-18.56-13c-4.28-2.76-9.1-1.15-10.84,3.42a7.22,7.22,0,0,0,6.89,9.53"/><path id="path3127" d="M81.07,61.57h4.17a2.89,2.89,0,0,1,2.66,2.89,3,3,0,0,1-2.72,3H81.07V61.57M81,52.33h3.44A2.62,2.62,0,0,1,87,54.88a2.73,2.73,0,0,1-2.4,2.82H81V52.33m-4.69-3.84V71.3H87.38a6.24,6.24,0,0,0,5.75-6.07,6.53,6.53,0,0,0-3.84-6.08,5.72,5.72,0,0,0,2.6-5c-.12-4.59-4.36-5.67-5.81-5.67H76.31"/><polygon id="polygon3129" points="59.32 71.31 59.32 58.16 73.67 72.17 73.67 48.49 68.85 48.49 68.85 61.29 54.5 47.56 54.5 71.31 59.32 71.31"/><path id="path3131" d="M93.9,59.65c.12,7.21,5.31,12.61,12,12.61a13.62,13.62,0,0,0,4.95-1V66.66a8.33,8.33,0,0,1-4.32,1.22c-4,0-7.84-3-7.68-8.42A7.85,7.85,0,0,1,106.58,52a7.65,7.65,0,0,1,4.24,1.3V48.8A12.25,12.25,0,0,0,93.9,59.65"/></g><rect class="cls-8" width="164" height="76.75"/></g></g></svg>