<svg xmlns="http://www.w3.org/2000/svg" viewBox="0 0 164 76.75"><defs><style>.cls-1{fill:none;}.cls-2{fill:#d81f26;}</style></defs><title>netflix-logo</title><g id="Layer_2" data-name="Layer 2"><g id="Layer_1-2" data-name="Layer 1"><rect class="cls-1" width="164" height="76.75"/><path class="cls-2" d="M38.16,55.39c-1.82.32-3.68.42-5.59.67L26.73,39V56.8c-1.82.19-3.48.44-5.21.7V24.81h4.86L33,43.36V24.81h5.14V55.39ZM48.21,36.78c2,0,5-.09,6.83-.09v5.1c-2.26,0-4.91,0-6.83.1v7.6c3-.19,6-.45,9-.55v4.92L43.1,55V24.81H57.24v5.11h-9Zm28-6.86h-5.3V53.41c-1.72,0-3.45,0-5.11.07V29.92h-5.3V24.81H76.24Zm8.3,6.51h7v5.11h-7V53.13h-5V24.81H93.79v5.11H84.54Zm17.55,12.23c2.91.06,5.85.29,8.69.44v5c-4.57-.29-9.13-.58-13.79-.67V24.81h5.1V48.66Zm13,5.84c1.62.1,3.35.19,5,.38V24.81h-5Zm27.39-29.69L136,40.36l6.49,17.14c-1.92-.26-3.84-.61-5.75-.93l-3.67-9.44-3.74,8.68c-1.85-.32-3.64-.42-5.49-.67l6.58-15-5.94-15.36H130l3.35,8.59,3.58-8.59Z"/></g></g></svg>