<svg xmlns="http://www.w3.org/2000/svg" viewBox="0 0 164 76.75"><defs><style>.cls-1{fill:#333;}.cls-2{fill:none;}</style></defs><title>nyt-logo</title><g id="Layer_2" data-name="Layer 2"><g id="Layer_1-2" data-name="Layer 1"><path class="cls-1" d="M73.79,43.42V37.64c0-.23-.09-.35-.3-.32a2,2,0,0,0-.74.18c-.44.23-.39.69.09,1.14A1.28,1.28,0,0,1,71.69,38a1.93,1.93,0,0,1,.53-2.67,1.73,1.73,0,0,1,.33-.17,8.94,8.94,0,0,1,1.22-.36.2.2,0,0,0,0-.11V31.16a1.58,1.58,0,0,0-.17-.71A.83.83,0,0,0,72.53,30a.92.92,0,0,0-.42.36c-.14.18-.22.4-.38.61a1.46,1.46,0,0,1,.1-.65,2.64,2.64,0,0,1,2.85-1.85,2.19,2.19,0,0,1,2,2.36V43.27l1.59.32V28.5h.14v1.93h.09l2.7-2.1,2,1.75c.36-.2.6-.59,1-.75l.08.11c-.25.22-.51.42-.74.66a.7.7,0,0,0-.21.44V41.66a4.41,4.41,0,0,1,0,.81,2,2,0,0,1-2.14,1.85l-.17,0a15.29,15.29,0,0,1-2.5-.47,11.05,11.05,0,0,0-3.38-.43,3.05,3.05,0,0,0-1.07.26,1.15,1.15,0,0,0-.72,1.2,1,1,0,0,0,1.08.92h0a15.63,15.63,0,0,0,2.17-.21c1.31-.19,2.6-.43,3.91-.6a2.77,2.77,0,0,1,2,.44,2.22,2.22,0,0,1,.66,3.07,2.17,2.17,0,0,1-.4.46,3.32,3.32,0,0,1-1.66.78,5.93,5.93,0,0,0,.46-.56,1,1,0,0,0,0-1.06.74.74,0,0,0-.82-.33c-1,.15-2,.35-3,.5a27.27,27.27,0,0,1-3,.35,2.69,2.69,0,0,1-2.59-3.49,2.77,2.77,0,0,1,1.49-1.55Zm4.66.21a1.47,1.47,0,0,0,1.85-1,1.41,1.41,0,0,0,.07-.5V37.94a.82.82,0,0,0-.7-.93h-.1a.92.92,0,0,0-1.1.72,1.49,1.49,0,0,0,0,.21Zm.61-13.35-.23.18a.77.77,0,0,0-.39.79v3.33a1,1,0,0,0,1.92.09V33a3.88,3.88,0,0,0-.07-1.59c-.22-.45-.78-.74-1.19-1.11Zm-.6,6.88a1.44,1.44,0,0,1,1.89-.07V35.42a1.42,1.42,0,0,1-1.89,0Z"/><path class="cls-1" d="M6.35,31.48A5,5,0,0,0,4.1,34.09l4.46-2v6a.42.42,0,0,1-.28.44c-1,.49-2,1-3,1.51L5,40.24a4.31,4.31,0,0,0,3.71,1.55,11.74,11.74,0,0,0,1.67-.45.39.39,0,0,0,.28-.43v-3.5a.55.55,0,0,0-.24-.48c-.4-.3-.78-.63-1.21-1l1.21-1a.55.55,0,0,0,.24-.48V31.89l-4-1c-.78-.19-1.56-.42-2.35-.57a1.18,1.18,0,0,0-1.47.78,1.21,1.21,0,0,0,0,.42,4,4,0,0,0,.27.8,1.76,1.76,0,0,1-.91-.72A2.68,2.68,0,0,1,3,28a3.54,3.54,0,0,1,3-.38l3.6,1.07a7.06,7.06,0,0,0,.91.21,1.89,1.89,0,0,0,.67,0,.85.85,0,0,0,.73-.73.92.92,0,0,0-.61-.84,2.13,2.13,0,0,0-.45-.13,3.9,3.9,0,0,1-.46-.12,2.72,2.72,0,0,1,2.43.6A2,2,0,0,1,13.36,30a2.59,2.59,0,0,1-2.58,1.88v2.75A.54.54,0,0,0,11,35c.39.33.79.64,1.21,1L11,37a.52.52,0,0,0-.18.33v3.76A5.07,5.07,0,0,0,12.2,39.8a17.32,17.32,0,0,0,1-1.52,5.46,5.46,0,0,1-.37,2.26,5.82,5.82,0,0,1-7.52,3.34L5,43.76a6.14,6.14,0,0,1-3.81-5.6,6.7,6.7,0,0,1,4.71-6.65,1.86,1.86,0,0,1,.39-.1Zm-.55,2c-.6.27-1.15.51-1.7.77a.54.54,0,0,0-.2.28A5.94,5.94,0,0,0,4.83,40h.1c.71-.18.92-.61.89-1.36-.07-1.64,0-3.38,0-5.14Z"/><path class="cls-1" d="M119.57,31.41a5.64,5.64,0,0,0-2.21,2.68l4.49-2v6a.45.45,0,0,1-.29.46c-1,.49-2,1-3,1.51l-.3.16a4.51,4.51,0,0,0,1.55,1.18,4.33,4.33,0,0,0,3.83-.08.41.41,0,0,0,.26-.44v-3.5a.62.62,0,0,0-.21-.44c-.38-.34-.79-.66-1.21-1,.42-.33.83-.64,1.21-1a.65.65,0,0,0,.21-.43V32l-4.73-1.22c-.52-.13-1-.27-1.57-.37a1.22,1.22,0,0,0-1.47.71c-.18.42-.13.7.18,1.32a5.91,5.91,0,0,1-.61-.41,2.53,2.53,0,0,1,.07-3.46,3.18,3.18,0,0,1,3.24-.91c1.22.31,2.42.71,3.63,1.07.38.1.76.19,1.15.26a2.42,2.42,0,0,0,.76,0,.75.75,0,0,0,.63-.66.75.75,0,0,0-.44-.8,7,7,0,0,0-1.09-.36,2.76,2.76,0,0,1,2.5.66,2.11,2.11,0,0,1,.5,2.35,2.62,2.62,0,0,1-2.56,1.8v2.79a.67.67,0,0,0,.19.25c.4.34.81.67,1.24,1l-1.26,1a.44.44,0,0,0-.17.32v3.77a6.84,6.84,0,0,0,2.39-2.91,5.57,5.57,0,0,1,0,1,5.68,5.68,0,0,1-6,5,6.31,6.31,0,0,1-6-5.8,6.79,6.79,0,0,1,4.72-6.85A2.54,2.54,0,0,1,119.57,31.41Zm-.49,2.12c-.57.25-1.08.47-1.58.71a.8.8,0,0,0-.33.37,5.58,5.58,0,0,0-.24,2.75,6.36,6.36,0,0,0,1.17,2.72c.29-.15.57-.27.83-.41a.31.31,0,0,0,.14-.23C119.08,37.49,119.08,35.55,119.08,33.53Z"/><path class="cls-1" d="M38.32,44.15a2.59,2.59,0,0,0-1.48-.93,1.2,1.2,0,0,0-1,.22,1.14,1.14,0,0,0,.2,2,5.45,5.45,0,0,0,.76.3,2.52,2.52,0,0,1-3-2l0-.19a2.92,2.92,0,0,1,2.67-3.12h.76V36.84c0-.22-.08-.32-.29-.3a2.13,2.13,0,0,0-.55.1.65.65,0,0,0-.51.76.71.71,0,0,0,.19.35l.13.15c-.68.1-1.4-.66-1.55-1.62-.2-1.28.54-2,2.58-2.32V31.8a1.47,1.47,0,0,0-.66-1.32.79.79,0,0,0-1.13,0,.83.83,0,0,0-.2.32c-.08.17-.13.35-.22.58a.87.87,0,0,0-.07-.24,3,3,0,0,1,.77-2.45,2.26,2.26,0,0,1,3.21,0l.11.12a5.58,5.58,0,0,1,.77,1.2c1.55,2.78,3.07,5.56,4.61,8.35l.1.17V31.49c-.41-.09-.81-.2-1.21-.33a10.37,10.37,0,0,1-1.11-.65l-.71.8h-.08a.28.28,0,0,1,.06-.22c.83-1,1.66-1.91,2.5-2.86,1.42,1.31,2.88.88,3.16-.44a2.32,2.32,0,0,1-.23,2.44,2.9,2.9,0,0,1-2.2,1.25V43.75c0,.14-.05.38-.14.41s-.36-.13-.46-.3L37.67,32.15c-.07-.14-.15-.27-.27-.47v8.73a4.7,4.7,0,0,1,2.7,1.45l.75-.76.11.12Z"/><path class="cls-1" d="M58.9,35.08l2.17-1.92,2,1.75S63,35,63,35.05a1.86,1.86,0,0,0-.66,1.7c.05,1.39,0,2.78,0,4.17a.7.7,0,0,0,.21.45c.52.46,1.06.89,1.59,1.33.27-.06.35-.22.35-.49V36.4a.87.87,0,0,0-.34-.78,5.79,5.79,0,0,1-.48-.51l2.14-2,2,1.66.82-.69.1.11-.21.22c-.46.41-.93.81-1.38,1.23a.69.69,0,0,0-.2.45v4.8a.49.49,0,0,1-.16.39c-1.46.92-2.93,1.82-4.4,2.72h-.11l-2.35-1.77-2.35,1.86L55.36,42.3l-1,.66-.08-.08c.07-.08.12-.18.21-.22a1.37,1.37,0,0,0,.76-1.5c-.07-1.3,0-2.62,0-3.93a2.17,2.17,0,0,0-.88-1.93A2.08,2.08,0,0,1,53.56,33,2.48,2.48,0,0,1,56,31.22a.83.83,0,0,0-.23.15,1.11,1.11,0,0,0-.21,1.54,1,1,0,0,0,.21.21c.25.23.54.4.81.61a7,7,0,0,1,.69.53,1.53,1.53,0,0,1,.55,1.28v5.34a.76.76,0,0,0,.21.44c.42.37.87.71,1.31,1.06a.64.64,0,0,0,.43-.66V36.3a.79.79,0,0,0-.3-.69C59.26,35.45,59.09,35.27,58.9,35.08Z"/><path class="cls-1" d="M138.84,33.3l1.84,2,2.61-2.07,1.82,2c.37-.18.63-.55,1-.67l.07.11c-.25.19-.51.38-.75.59a.58.58,0,0,0-.19.38v5a.73.73,0,0,0,.14.38c.26.31.54.6.82.91l.7-.56.1.12L144.3,44l-2-2.17v-.07a1.16,1.16,0,0,0,.43-1.12V37.07a1,1,0,0,0-.33-.86c-.38-.37-.71-.78-1.07-1.18a.84.84,0,0,0-.56.84v4.84a1,1,0,0,0,.36.91c.13.11.23.24.34.35l-2,2-1.77-2v-.09a1.19,1.19,0,0,0,.48-1.17v-3.8a.6.6,0,0,0-.11-.39c-.4-.49-.81-1-1.23-1.45a.82.82,0,0,0-.52.83v4.84a1,1,0,0,0,.33.82,4.13,4.13,0,0,1,.55.47l-1.91,2-1.94-2.2v-.06a1.28,1.28,0,0,0,.56-1.32V36.71a.66.66,0,0,0-.17-.44c-.32-.4-.68-.77-1-1.18l-.82.68h-.07c0-.07,0-.16.05-.2l2.58-2.25,1.85,2Z"/><path class="cls-1" d="M14.2,30.34l3.23-2.49v7.42L20,33.11l2,2.19c.33-.17.56-.49.9-.61l.08.12c-.22.18-.44.36-.68.52a.46.46,0,0,0-.2.42V41a8.38,8.38,0,0,1-.27,2.73,3.74,3.74,0,0,1-3.25,2.59,9.11,9.11,0,0,1-1.28,0v-.09l.17-.08a2.8,2.8,0,0,0,2-2.38,13.92,13.92,0,0,0,.14-1.7V36.65a1,1,0,0,0-.18-.52c-.32-.44-.68-.86-1-1.31-.26.22-.51.42-.74.64a.33.33,0,0,0-.08.24v5.44a.52.52,0,0,0,.1.26c.17.21.36.41.54.61l.76-.55a14.44,14.44,0,0,1-2.82,2.41l-1.77-1.64-.7.43-.07-.12c.34-.25.66-.53,1-.75a.72.72,0,0,0,.35-.71V31.49C14.86,31,14.81,30.55,14.2,30.34Z"/><path class="cls-1" d="M89.67,33.19l2.76,2.4.79-.69.08.06a.27.27,0,0,1-.13.22,1.43,1.43,0,0,0-.6,1.47v4.54a.47.47,0,0,1-.15.36C91,42.38,89.5,43.19,88,44l-2.59-2.18-.76.57-.09-.11c.17-.15.33-.31.51-.45a.57.57,0,0,0,.23-.51V35.79a.43.43,0,0,1,.29-.45C86.93,34.65,88.27,33.93,89.67,33.19Zm.39,9.49v-6a.48.48,0,0,0-.18-.33c-.45-.44-.91-.86-1.37-1.29l-.63-.56v6a.62.62,0,0,0,.17.33c.38.36.76.7,1.14,1Z"/><path class="cls-1" d="M162.51,32.72a1.69,1.69,0,0,1,.13,1.23,5.37,5.37,0,0,1-1.15,2.14c-.11.15-.23.3-.37.46.51.41,1,.8,1.49,1.22a.53.53,0,0,1,.19.41v3.13a.51.51,0,0,1-.18.37c-1.19.76-2.39,1.5-3.59,2.24H159c-.31-.23-.59-.47-.9-.66a1,1,0,0,0-1.11,0,.63.63,0,0,0-.23.86.76.76,0,0,0,.11.14,5.56,5.56,0,0,0,.54.42c-.54.12-1.37-.51-1.62-1.06a2.06,2.06,0,0,1,.17-2.14A15,15,0,0,1,157,40.11a5.34,5.34,0,0,1,.5-.46c-.47-.44-.9-.85-1.36-1.25a.69.69,0,0,1-.25-.57V35.67a.42.42,0,0,1,.24-.42c1.15-.67,2.29-1.35,3.43-2a.35.35,0,0,1,.51,0h0a2.72,2.72,0,0,0,1,.55C161.89,34,162.35,33.6,162.51,32.72Zm-3.08,5.43a20.83,20.83,0,0,0-3.32,3.57,2.42,2.42,0,0,1,2.35-.91,3,3,0,0,1,2,1.66v-3.3a.29.29,0,0,0-.09-.2Zm2.42-2.95c-1.17,1-2.35.84-3.55-.75V37.1a.31.31,0,0,0,.07.18l.87.76A10.39,10.39,0,0,0,161.85,35.2Z"/><path class="cls-1" d="M104.65,27.63V40.85a.83.83,0,0,0,.21.49,9.28,9.28,0,0,0,.71.69l.63-.54h.08a1,1,0,0,1-.09.21L103.58,44l-1.84-1.73-.75.64-.09-.07a1,1,0,0,1,.15-.24c.31-.27.63-.53.93-.82a.52.52,0,0,0,.16-.37V31.63a3.31,3.31,0,0,0-.09-.77,1,1,0,0,0-.8-.84Z"/><path class="cls-1" d="M51.36,42.3l2.45-1.91.11.14L49.49,44,47,41.73l-.82.64-.08-.06a.28.28,0,0,1,.14-.21,1.36,1.36,0,0,0,.66-1.45V36a.44.44,0,0,1,.14-.33c1.45-.83,2.9-1.64,4.38-2.47l2,3.53-3,2.18-.73.53a.72.72,0,0,0-.08,1.21Zm-2-7.67v4.85l2-1.47Z"/><path class="cls-1" d="M152.56,33.22l2,3.55L152.9,38l-2.14,1.58a.79.79,0,0,0-.12.9c.62.6,1.27,1.19,1.92,1.8L155,40.4l.07.07a.47.47,0,0,1-.06.15c-1.39,1.11-2.78,2.2-4.16,3.31-.15.12-.24.07-.37,0l-2.29-2.18-.82.65-.09-.08c.05-.07.09-.17.16-.21a1.3,1.3,0,0,0,.65-1.39V36.05a.45.45,0,0,1,.15-.35c1.4-.82,2.82-1.62,4.22-2.42Zm0,4.8-2-3.4v4.86Z"/><path class="cls-1" d="M28.7,33.2l2.05,3.57L28.28,38.6l-1.38,1a.7.7,0,0,0-.08.92l1.89,1.77c.83-.63,1.62-1.3,2.46-1.91l.1.14L26.84,44l-2.53-2.28-.86.62-.09-.12c.2-.16.38-.33.59-.47a.57.57,0,0,0,.26-.53V36.07a.44.44,0,0,1,.27-.46c1.3-.72,2.59-1.47,3.88-2.21Zm-1.92,1.49h0v4.77l2-1.47Z"/><path class="cls-1" d="M99.82,41.69,97,44,94.92,42.1l-.75.7h-.09a.66.66,0,0,1,.12-.27,4.5,4.5,0,0,1,.65-.59.92.92,0,0,0,.38-.85V36.65A.9.9,0,0,0,95,36c-.23-.27-.43-.55-.65-.85l-.77.65h-.08a.48.48,0,0,1,.07-.18c.86-.78,1.71-1.55,2.6-2.34L97.62,35l1.72-1.66a1.33,1.33,0,0,0,1.87.08.86.86,0,0,0,.13-.14,2.46,2.46,0,0,1-1.86,2.81A1.94,1.94,0,0,1,98,35.53l-.26-.25V41a.67.67,0,0,0,.26.58c.27.21.52.45.79.68.34-.2.59-.53.93-.69Z"/><path class="cls-1" d="M107.84,33.1a2,2,0,0,0,2.74.2,1.89,1.89,0,0,0,.2-.2c-.22,2.51-2,3.41-4.17,2.11-.14.12-.23.23-.09.44l4.13,6.21.08.09.83-.72h.07v.19L108.72,44l-1-1.58q-1.41-2.28-2.83-4.53a.41.41,0,0,1,0-.53c.93-1.32,1.84-2.65,2.75-4Z"/><path class="cls-1" d="M128.85,33.26l1.87,2.17.89-.75v.23a.52.52,0,0,1-.17.16,1.41,1.41,0,0,0-.67,1.43v4.24a.8.8,0,0,0,.17.44c.27.34.57.67.86,1,.32-.13.47-.52.82-.59l.07.1L130.2,44l-1.78-2-.82.68-.11-.13c.17-.15.33-.32.51-.45a.63.63,0,0,0,.28-.6v-4.8a.94.94,0,0,0-.2-.54c-.27-.36-.59-.7-.9-1.07l-.69.58h-.08c0-.07,0-.15.06-.19Z"/><path class="cls-1" d="M129,29.17l1.59,1.76-2,1.77L127,31Z"/><rect class="cls-2" width="164" height="76.75"/></g></g></svg>