<svg xmlns="http://www.w3.org/2000/svg" viewBox="0 0 164 76.75"><defs><style>.cls-1{fill:none;}</style></defs><title>oculus-logo</title><g id="Layer_2" data-name="Layer 2"><g id="Layer_1-2" data-name="Layer 1"><g id="Layer_2-2" data-name="Layer 2"><g id="Layer_1-2-2" data-name="Layer 1-2"><path class="cls-1" d="M35.35,43.62c-2.26,0-4.51,0-6.77,0Z"/><path d="M46.34,22.84c-3.66-.17-7.34,0-11,0v-.1c-1.47,0-2.94,0-4.4,0-2.64.06-5.29,0-7.91.28A15.37,15.37,0,0,0,10,34.53a15.56,15.56,0,0,0,5.81,16.35,17.31,17.31,0,0,0,10.71,3.17c5.9,0,11.79,0,17.69,0a23.6,23.6,0,0,0,3.94-.3,15.56,15.56,0,0,0-1.81-30.89Zm4.42,15.87a5.1,5.1,0,0,1-4.71,4.8c-2,.14-4,.09-5.94.11H28.58l-2.26,0A10.6,10.6,0,0,1,24,43.4a5.15,5.15,0,0,1-4.09-5.28,5.22,5.22,0,0,1,4.73-4.89,13.25,13.25,0,0,1,1.54-.09H44.52a10,10,0,0,1,2.18.21A5.1,5.1,0,0,1,50.76,38.71Z"/><path d="M81.22,31.64a6.74,6.74,0,0,0-6.9,6.93,6.86,6.86,0,1,0,13.71.1A6.78,6.78,0,0,0,81.22,31.64Zm0,10.84a3.88,3.88,0,1,1,3.74-3.87,3.69,3.69,0,0,1-3.74,3.87Z"/><path d="M114.08,32.92c0,2.12,0,4.26-.06,6.37s-1.24,3.32-3.1,3.38a3,3,0,0,1-3.25-3.1c-.15-2.22-.1-4.44-.14-6.67V32h-3a2.25,2.25,0,0,0-.08.24c0,2.64,0,5.28.1,7.91a5.16,5.16,0,0,0,3.38,5,6.24,6.24,0,0,0,6-.72l.49-.3c.05.43.08.76.12,1.13h2.68V32h-3.09C114.08,32.34,114.09,32.63,114.08,32.92Z"/><path d="M137.32,33c0,2.3,0,4.6-.13,6.89a2.81,2.81,0,0,1-2.09,2.65,3.09,3.09,0,0,1-4.22-3c-.13-2.07-.09-4.16-.12-6.23V32h-3c0,2.89-.16,5.75,0,8.58a5.3,5.3,0,0,0,6.46,4.89,20.66,20.66,0,0,0,3.34-1.16c0,.19.07.54.11.9h2.64V32h-3.05Z"/><path d="M152.32,37.91a17.37,17.37,0,0,0-2.9-1,14.63,14.63,0,0,1-1.87-.62,1.33,1.33,0,0,1-.65-.94,1.34,1.34,0,0,1,.68-1,4.11,4.11,0,0,1,2-.29,20.29,20.29,0,0,1,2.79.78l1.43-2a7.43,7.43,0,0,0-7.9-.77,3.82,3.82,0,0,0-2,3.58,3.41,3.41,0,0,0,2.48,3.14c.84.31,1.74.47,2.6.73a9.28,9.28,0,0,1,2,.73,1.14,1.14,0,0,1-.07,2.08,3.84,3.84,0,0,1-1.53.42,6.83,6.83,0,0,1-4.55-1.52L143,43.66a29.21,29.21,0,0,0,3.35,1.57,7.18,7.18,0,0,0,6.1-.48A3.82,3.82,0,0,0,152.32,37.91Z"/><path d="M94.66,41.45a4.23,4.23,0,0,1-.53-5.14c1.09-1.68,3-2,5.86-.82l1.82-2.31a7.19,7.19,0,0,0-9.88.82A7.48,7.48,0,0,0,93,44.28c2.79,2.09,7.63,1.7,9.34-.81l-2.2-2C98.15,42.81,96.09,42.82,94.66,41.45Z"/><path d="M121,45.19h3V24.75h-3Z"/></g></g><rect class="cls-1" width="164" height="76.75"/></g></g></svg>