<svg xmlns="http://www.w3.org/2000/svg" viewBox="0 0 164 76.75"><defs><style>.cls-1{fill:#fff;}.cls-2{fill:#005aa7;}.cls-3{fill:#e2183d;}.cls-4{fill:none;}</style></defs><title>petsmart-logo</title><g id="Layer_2" data-name="Layer 2"><g id="Layer_1-2" data-name="Layer 1"><path class="cls-1" d="M15.92,39.9a.89.89,0,0,1,.46.82v.16a1.3,1.3,0,0,1-.21.74.8.8,0,0,1-.32.08C15.87,41,15.88,40.7,15.92,39.9Zm115.42-1.16a.85.85,0,0,1,.49.85v.07a1,1,0,0,1-.19.72.91.91,0,0,1-.34.11C131.32,39.78,131.32,39.48,131.34,38.74Z"/><path d="M110.9,44.79c.46-1.73.94-3.56,1.4-5.31l1.58,5.24C110.83,44.83,110.83,44.79,110.9,44.79Z"/><path class="cls-1" d="M68.48,24.38c-5.55,2.1-8.57,7.13-9.7,10.18A24,24,0,0,0,47.26,22.17c-8.07-3.76-20.51,0-25.27,5,10.69-3,19.89-2,27,2.29a29.92,29.92,0,0,1,6.69,5.56,132.59,132.59,0,0,1-14.17-.16l-1.2-.08v0l-.6,0c-5.89-.3-12.53-1.22-13.27-1.33l-1.27-.17-.05,1.28-.07,1.79c-1.8-3.55-5.88-4.34-7.5-4.66L7.41,29.39l-.07,1.39L6.25,53.54l.94.23c2,.5,4.28,1,6.63,1.38l1.29.19s.19-4.65.24-6.29l1.13.17a8.44,8.44,0,0,0,6.64-1.48,7.09,7.09,0,0,0,1.59-1.92l-.39,10.65,1.07.11c4.42.46,9.52,1,13.86,1l1.16,0,0-1.16c0-1.73.1-4.59.12-4.89l0-1.29c-1.26,0-3.73-.09-5-.18,0,0-.69,0-1.36-.08a5.66,5.66,0,0,1,0-.66l1.15.07c1.16.09,2.36.16,3.56.18l1.15,0,.14-6.69c-.34,0-5.82-.39-5.82-.39V41.9l9.3.74c0,2-.33,15.17-.33,15.17l1.09.09a49,49,0,0,0,7.71.06l1-.09s.2-12.95.23-14.86l.62,0,3.27-.1,0-1.11,0-5s1.56,3.65,1.45,4.34a9.77,9.77,0,0,0-.09,1.24v0a6.2,6.2,0,0,0,2.1,4.73l-1.69,4L57.49,55l.95.52a19.24,19.24,0,0,0,8.63,2.06c3.85,0,7.89-1.87,9.62-5.28l-.48,4.33,1.52-.27c1.68-.3,5.84-.95,7.08-1.13l.93-.12L86,51.48,87.4,54.9l4.68-.72.24-.64s.6-1.53,1.06-2.68c.05,1,.18,3.16.18,3.16l1.22-.14c2.43-.26,4.39-.41,6.93-.56l1.2-.08,2.58-.08c1.14-.06,2.32-.09,3.47-.09h.9s.53-2.07.6-2.3c.9,0,3.2-.08,3.2-.08v0l.88,0c.16.48.67,2.14.67,2.14H116l2.59,0c1.15,0,2.31,0,3.46,0l1.66.08,0-.14c2.21.07,4.54.25,6.14.37l1.24.11s0-2,0-2.66l1.82,2.94.58.06c2.53.22,5.3.56,8.24,1l2.35.35v0l1,.14c3.14.43,5.7.87,6.94,1.11l1.36.27v-1.4c0-2.55.13-4.88.2-7.14.07-1.87.12-3.79.18-5.86l3.81.65V41.44l.11-7.32-.95-.2a119,119,0,0,0-15-2l-1.23-.09,0,1.24,0,2.27c-1.55-3.15-4.8-4.58-7.92-4.83-2.89-.23-5.93-.39-9-.48l-1.18,0,0,1.18-.17,16.69c-.85-2.75-1.7-5.45-2.53-8.1l-3.07-9.88h-.86c-2.58,0-4.78.06-7.15.14l-.84,0-.23.83c-.89,3.3-1.87,6.79-2.83,10.16-.74,2.61-1.48,5.28-2.2,7.91-.21-2.37-.43-4.77-.64-7.11-.3-3.37-.6-6.85-.91-10.15l-.11-1.15-1.15.11-7.14.65-.25.67c-.6,1.59-1.22,3.35-1.82,5.08-.25.69-.47,1.4-.72,2.09l-.62-1.68c-.58-1.55-1.16-3.18-1.75-4.64L87,32l-4.48.71c-1.17.19-2.49.41-2.72.42l-1,0-.12,1-1.4,12.59a5.79,5.79,0,0,0-2.86-3.8l2.81-7.41-1-.44a16.41,16.41,0,0,0-7.13-1.59,12.22,12.22,0,0,0-6.45,1.89,14.45,14.45,0,0,1,8.36-5.12c-3-1.81-2.58-5.87-2.58-5.87Zm75.84,22.41c0,2.22-.12,4.53-.16,7.11v.69l-1.22-1.82c-1.15-1.71-2.21-3.23-3.32-4.84l-1-1.43c1.71-1.25,2.67-3.31,2.81-6.14h.12c.69.06,1.45.16,2.19.27l.71.09c0,2.17-.09,4.16-.13,6.07Z"/><path class="cls-2" d="M24.49,26c22.38-6.85,33.69,10.3,33.69,10.3S51.07,12.34,24.49,26Zm43.25.88c0-.09,0-.71,0-.81a16.67,16.67,0,0,0-8.82,12.84s3-7.07,10.2-9.23a4.42,4.42,0,0,1-1.38-2.8Z"/><circle class="cls-1" cx="75.95" cy="25.05" r="6.39"/><path class="cls-3" d="M81.19,25.19A5.25,5.25,0,1,1,76,19.86,5.24,5.24,0,0,1,81.19,25.19Z"/><path class="cls-1" d="M72.28,25.1a6.33,6.33,0,0,1,5.63-3.3.1.1,0,0,1,.07,0,3.46,3.46,0,0,0-5.6,1.88,3.9,3.9,0,0,0-.12,1.47s0-.07,0-.09Z"/><path class="cls-3" d="M39.69,36s-.13,3.37-.16,5.08c-.87,0-4.57-.33-6.19-.42,0,.92-.09,1.85-.11,2.75,2,.09,4,.35,5.93.37,0,1.64-.13,3-.14,4.7-2,0-3.9-.25-5.86-.32,0,1,0,2,0,3,2.1.09,4.2.32,6.32.33,0-.07-.14,5-.14,5-4.17-.07-9.09-.53-13.75-1l.78-20.78c2,.26,8.05,1,13.36,1.32Zm1.78.09-.19,5.43c1.95.14,3.72.18,3.72.18l-.34,15.07a47.14,47.14,0,0,0,7.52,0l.23-14.93,3.85-.1c0-2,0-3.57.05-5.56a136.11,136.11,0,0,1-14.84-.14Z"/><path class="cls-2" d="M141.73,33c0,2.12,0,4.06-.09,6.18,1.27.09,2.72.37,4,.49-.07,5.16-.25,9.06-.32,14.21,3.53.47,6,.93,7,1.13.07-5.16.31-9.21.38-14.37,0,0,3.74.64,3.81.69,0-2.12.06-4.23.09-6.35A124.17,124.17,0,0,0,141.73,33Z"/><path class="cls-3" d="M17.37,32.86l-8.83-2-1,21.81c2.26.55,4.33,1,6.55,1.36l.23-6.3c.77.13,1.6.27,2.4.37,3.84.53,7.8-.74,8.13-7.06.3-5.59-3.35-7.37-7.44-8.17Zm-2.12,10-.65-.1c.07-1.43.15-2.84.23-4.27l.61.1A2.17,2.17,0,0,1,17.51,41,1.75,1.75,0,0,1,15.25,42.83Z"/><path class="cls-2" d="M59,54.5a17.89,17.89,0,0,0,8.08,1.92c4.55,0,9.3-2.75,9.33-7.78,0-3.57-2.31-5.24-5.54-5.93l-1.73-.37c-.58-.14-1.53-.23-1.53-1s1-1.13,1.66-1.13a12.59,12.59,0,0,1,4.66.91c.61-1.67,1.25-3.37,1.87-5a15.27,15.27,0,0,0-6.67-1.5c-4.59,0-9.16,2.8-9.2,7.8,0,3.28,2.47,5.06,5.46,5.59l1.53.27c.71.14,1.7.21,1.7,1.16s-1.2,1.08-1.95,1.08a9.13,9.13,0,0,1-5.25-1.66C60.68,50.56,59.77,52.73,59,54.5Zm32.25-1.41c1-2.6,2-5,3-7.63.16,2.49.25,4.75.41,7.24,2.49-.28,4.48-.43,7-.58-.66-6.64-1.2-13.75-1.86-20.37-2.13.18-4.27.39-6.42.59-1.2,3.12-2.4,6.93-3.6,10-1.16-2.89-2.31-6.3-3.47-9.19-2.17.32-6,1-6.43,1-.74,6.76-1.59,14.26-2.33,21,1.72-.3,5.88-1,7.13-1.13.2-2.52.39-5.22.58-7.72,1,2.4,1.93,4.81,2.9,7.21.53-.07,2.45-.37,3.1-.47ZM137,46.15c1.91-.85,3.28-2.7,3.32-6.35.07-5.52-3.83-7.87-7.76-8.17-3-.23-6-.39-9-.48-.09,7-.12,13.43-.23,20.44,2.24.07,4.68.23,6.64.38,0-2,.05-3.44.08-5.41,1.28,2.06,2.32,3.76,3.6,5.86,2.76.24,5.56.6,8.32,1C140.25,50.84,138.69,48.66,137,46.15Zm-6.19-4.48-.65-.05.05-4.22q.31,0,.63,0A2.1,2.1,0,0,1,133,39.66a1.82,1.82,0,0,1-2.2,2ZM115.75,31c-2.64,0-4.81.06-7.09.15-1.82,6.79-4,14.06-5.8,20.89,2,0,4.09-.18,6.12-.18.19-.72.41-1.55.58-2.26l3.11-.07c-.07,0,2.73-.09,2.73-.09.07.27.34,1,.69,2.17,2,.06,4.06-.05,6.09.06C120,44.44,117.77,37.52,115.75,31Zm-4.87,13.8c.46-1.73.94-3.56,1.4-5.31l1.59,5.24C110.83,44.83,110.83,44.79,110.88,44.79Z"/><path class="cls-1" d="M155.49,54.37a1.11,1.11,0,0,1,1.1,1.12,1.09,1.09,0,0,1-1.1,1.11,1.12,1.12,0,0,1,0-2.23Zm0,.18a.91.91,0,0,0-.88.94.93.93,0,0,0,.9.95.95.95,0,0,0,0-1.89Zm-.19,1.59h-.19V54.9a2.69,2.69,0,0,1,.35,0,.62.62,0,0,1,.39.09.3.3,0,0,1,.1.26.29.29,0,0,1-.24.3v0q.15,0,.21.3c0,.19,0,.26.09.3h-.22a1.17,1.17,0,0,1-.08-.32.23.23,0,0,0-.27-.21h-.14v.53Zm0-.69h.14c.16,0,.3-.05.3-.21s-.09-.21-.3-.21h-.14v.41Z"/><rect class="cls-4" width="164" height="76.75"/></g></g></svg>