<svg xmlns="http://www.w3.org/2000/svg" viewBox="0 0 164 76.75"><defs><style>.cls-1{fill:#ff0085;}.cls-2{fill:none;}</style></defs><title>pp-logo</title><g id="Layer_2" data-name="Layer 2"><g id="Layer_1-2" data-name="Layer 1"><path class="cls-1" d="M33,31.42v14a8.68,8.68,0,0,1-8.67,8.67H15.53l1.68-3.83h7.15a4.79,4.79,0,0,0,4.8-4.8V35.28h-9.8a4.8,4.8,0,0,0-4.8,4.81v17H10.73v-17a8.68,8.68,0,0,1,8.67-8.67h6V23.57H18a9.59,9.59,0,0,0-9.6,9.6V57H4.6V33.17A13.47,13.47,0,0,1,18.07,19.7H29.28V31.42Z"/><g id="bKmZKK"><path class="cls-1" d="M40.64,57.23h-3V41h8.16c2.89,0,4.41,1.37,4.69,4.26a11.61,11.61,0,0,1-.16,3.28A4.16,4.16,0,0,1,45.88,52h-5.2v2.61C40.68,55.47,40.64,56.29,40.64,57.23Zm0-8c1.64,0,3.21,0,4.77,0a1.46,1.46,0,0,0,1.36-1.09,4.64,4.64,0,0,0,0-3.4,1.58,1.58,0,0,0-1.1-.94c-1.64-.11-3.32,0-5,0v5.47Z"/><path class="cls-1" d="M40.64,35.67h-3V19.54H39c2.39,0,4.77,0,7.15,0A3.94,3.94,0,0,1,50.41,23a8.45,8.45,0,0,1,0,4.06A4.27,4.27,0,0,1,46,30.44H40.68l0,5.23Zm0-7.89h4.49a1.64,1.64,0,0,0,1.61-1.13,4.65,4.65,0,0,0-.08-3.55,1.67,1.67,0,0,0-1.14-.9c-1.6-.12-3.24,0-4.88,0v5.62Z"/><path class="cls-1" d="M113.12,24V19.15h2.93V34.5c0,.59-.15.82-.7.94a16.53,16.53,0,0,1-5.9.58c-2.42-.31-3.78-1.52-4.06-3.9a17.44,17.44,0,0,1,0-4.45c.39-3.09,2.34-4.3,5.39-4.14A16.28,16.28,0,0,1,113.12,24Zm0,6V27.86c0-1.29-.35-1.68-1.68-1.79a8.53,8.53,0,0,0-1,0,1.92,1.92,0,0,0-2.15,1.87,19.16,19.16,0,0,0,0,3.71,1.84,1.84,0,0,0,2.11,1.88c.7,0,1.45-.12,2.15-.16.43,0,.54-.24.54-.63,0-.85,0-1.75,0-2.65Z"/><path class="cls-1" d="M149.75,45.59V40.51h2.89V55.9c0,.59-.15.9-.74,1a15.73,15.73,0,0,1-6.32.46,3.81,3.81,0,0,1-3.48-3.31,21.4,21.4,0,0,1-.12-4.93c.35-3.08,2.39-4.37,5.63-4.06C148.31,45.24,149.05,45.4,149.75,45.59Zm0,9.26V49.34c0-1.17-.27-1.6-1.44-1.76-2.27-.31-3.28.16-3.44,2.42a16.11,16.11,0,0,0,.12,3.4,1.71,1.71,0,0,0,1.87,1.68c.94,0,1.92-.12,2.89-.23Z"/><path class="cls-1" d="M107.7,57.23H105V40.48h2.7v5.19c.93-.2,1.75-.39,2.61-.59a5.85,5.85,0,0,1,1.33,0c2.5.24,3.55,1.29,3.67,4.07s0,5.31,0,8h-3v-4.1c0-1.21,0-2.42-.11-3.63a1.84,1.84,0,0,0-2.11-1.8,6.12,6.12,0,0,0-.86,0c-1.37.24-1.6.51-1.6,1.88v6.75l0,.94Z"/><path class="cls-1" d="M64.35,28.45c.15-1.56-.35-2.35-1.76-2.38s-3,.15-4.68.23l-.51-2.19a15.75,15.75,0,0,1,6.95-.39,3.3,3.3,0,0,1,2.85,3.36c.08,2.54.08,5.08,0,7.62a.84.84,0,0,1-.51.62,16.44,16.44,0,0,1-7,.66,2.84,2.84,0,0,1-2.77-2.73,7.61,7.61,0,0,1,.12-2.69,3,3,0,0,1,3-2.31,19.87,19.87,0,0,1,2.19,0C62.9,28.25,63.61,28.37,64.35,28.45Zm-1.72,1.87c-.47,0-1,.08-1.48.08a1.16,1.16,0,0,0-1.21,1.09v0a4.76,4.76,0,0,0,0,1.25,1,1,0,0,0,1,.94,19.28,19.28,0,0,0,2.15,0c1.33-.12,1.33-.12,1.33-1.48,0-1.8,0-1.8-1.8-1.92Z"/><path class="cls-1" d="M58.88,50c.24-1.61-.35-2.47-2-2.47s-2.93.2-4.53.32L52,45.71a14.37,14.37,0,0,1,7.3-.31,3.13,3.13,0,0,1,2.42,3.12c.08,2.54.08,5.12.08,7.65a.74.74,0,0,1-.43.59,14.64,14.64,0,0,1-7.54.51,2.63,2.63,0,0,1-2.26-2.66,12.92,12.92,0,0,1,0-1.76,2.93,2.93,0,0,1,3-3,20.59,20.59,0,0,1,2.22-.08A18.6,18.6,0,0,1,58.88,50Zm.12,2c-1,0-1.88-.12-2.77-.12-1.37,0-1.68.39-1.68,1.72a6.85,6.85,0,0,0,.07.78,1,1,0,0,0,.94.94h0c.82,0,1.64,0,2.46-.08s1.1-.43,1-1.25A16.51,16.51,0,0,1,59,51.92Z"/><path class="cls-1" d="M104.06,30.6H96.33c-.23,1.87.59,2.92,2.38,3,1.29,0,2.62-.15,4-.27a5.51,5.51,0,0,0,.23,1.17c.31.82-.08,1.1-.78,1.25a13.47,13.47,0,0,1-4.53.35,4.54,4.54,0,0,1-4.06-3.39,10.25,10.25,0,0,1,0-5.86,4.2,4.2,0,0,1,3.9-3.13,16.37,16.37,0,0,1,2.62,0,3.39,3.39,0,0,1,3.44,2.82C103.79,27.82,104,29.19,104.06,30.6Zm-2.92-2.27c0-1.68-.47-2.34-1.88-2.42-2.11-.08-2.85.55-2.93,2.42Z"/><path class="cls-1" d="M127.53,54.18a3.73,3.73,0,0,1-3.24,3.13,15.11,15.11,0,0,1-4.14,0A3.83,3.83,0,0,1,116.87,54a11.88,11.88,0,0,1-.11-5,4.12,4.12,0,0,1,4.14-3.87,13.92,13.92,0,0,1,3.16,0c2.38.35,3.63,2,3.83,4.73,0,.43,0,.89,0,1.32A18.18,18.18,0,0,1,127.53,54.18Zm-7.92-2.89v.86c0,2.46.66,3.09,3.12,3a1.8,1.8,0,0,0,2-1.72,23.87,23.87,0,0,0,.16-2.93c0-2.54-.9-3.28-3.4-3A1.66,1.66,0,0,0,119.8,49a14.47,14.47,0,0,0-.19,2.3Z"/><path class="cls-1" d="M140.07,54.34a3.89,3.89,0,0,1-3.12,3,10.06,10.06,0,0,1-4.3,0,3.83,3.83,0,0,1-3.05-2.93,12.32,12.32,0,0,1-.11-5.82,3.92,3.92,0,0,1,3.9-3.36,11.48,11.48,0,0,1,2.62,0c2.85.31,4.22,1.76,4.37,4.65,0,.47,0,1,0,1.48A13.62,13.62,0,0,1,140.07,54.34Zm-7.85-3.09v1c.08,2.3.74,2.93,3.05,2.85,1.28,0,1.95-.55,2.07-1.84a19.27,19.27,0,0,0,.07-3.31c-.19-2.23-.82-2.7-3-2.54h-.16a1.79,1.79,0,0,0-1.83,1.68A12.85,12.85,0,0,0,132.22,51.25Z"/><path class="cls-1" d="M81.06,57c-2.26.58-4.45,1-6.68.23A4.36,4.36,0,0,1,71.46,54a10.48,10.48,0,0,1-.12-5.16c.55-2.54,2.11-3.71,4.92-3.79a10.52,10.52,0,0,1,2.23.16,3.27,3.27,0,0,1,3,2.66c.28,1.32.35,2.69.55,4.17H74.27c-.2,1.92.62,3,2.42,3A14.84,14.84,0,0,0,78.6,55c.63-.08,1.25-.19,2-.31Zm-2-7.15c-.12-2-.62-2.5-2.46-2.46-1.64,0-2.38.78-2.38,2.46Z"/><path class="cls-1" d="M93.75,57.23H90.86c0-.27,0-.55,0-.82,0-2,0-4.1,0-6.13s-.63-2.62-2.66-2.62h-.39c-1.48.08-1.52.12-1.52,1.6v8H83.29c0-.24,0-.43,0-.67V46.72a.85.85,0,0,1,.43-.74,15.16,15.16,0,0,1,6-.86c2.7.24,3.79,1.49,4,4.26,0,.35,0,.7,0,1.09Z"/><path class="cls-1" d="M79.27,35.67H76.49v-.9c0-2.26,0-4.53-.15-6.79-.08-1.21-.71-1.68-2-1.72-2.46-.08-2.46-.08-2.46,2.38v7H69c0-.23,0-.47,0-.66V25.4a.85.85,0,0,1,.62-1,14.54,14.54,0,0,1,5.94-.82c2.34.23,3.63,1.32,3.75,3.67C79.38,30,79.27,32.78,79.27,35.67Z"/><path class="cls-1" d="M88.64,35.67V29.35c0-2.93-.78-3.28-3.75-3a4.48,4.48,0,0,0-.78.16v9.17H81.18V25.36a.79.79,0,0,1,.66-.93,14.31,14.31,0,0,1,6.41-.75,3.4,3.4,0,0,1,2.93,2.42,6.74,6.74,0,0,1,.35,1.72c0,2.62,0,5.2,0,7.85Z"/><path class="cls-1" d="M99.53,42.27v3.09h3.79v2.57H99.61c0,2,0,4,0,5.94a1.05,1.05,0,0,0,1.1,1.05h.07c.78,0,1.6-.07,2.5-.15l.51,2.15a8.21,8.21,0,0,1-5.35.27,2.87,2.87,0,0,1-1.8-3c-.07-1.79,0-3.55,0-5.35V48H94.69V45.36h1.88a1.15,1.15,0,0,0,.07-.35c-.31-1.33.36-2,1.61-2.23C98.64,42.62,99.1,42.47,99.53,42.27Z"/><path class="cls-1" d="M52,19.15h2.89V32.08a4.38,4.38,0,0,0,.94,3.16l-2.62,1.1a4.94,4.94,0,0,1-1.29-3.48c0-4.49,0-9,0-13.47A1.67,1.67,0,0,1,52,19.15Z"/><path class="cls-1" d="M63.61,45.44c.11,0,.23,0,.35-.08h2.42l.12.74a4.9,4.9,0,0,1,4.25-1v2.66c-.86,0-1.68-.08-2.5,0-1.36.12-1.79.62-1.79,2v7.38H63.61Z"/></g><g id="YgHjtE"><path class="cls-1" d="M157.21,40.48A2.19,2.19,0,1,1,155,42.66h0A2.17,2.17,0,0,1,157.21,40.48ZM159,42.66a1.76,1.76,0,1,0-1.76,1.76h0A1.75,1.75,0,0,0,159,42.66Z"/><path class="cls-1" d="M157,43v.71h-.51V41.57l.39,0a1.84,1.84,0,0,1,.67,0,.62.62,0,0,1,.5.51.67.67,0,0,1-.31.74l0,0,.51.86h-.55a0,0,0,0,1,0,0c-.11-.2-.19-.39-.31-.59,0,0,0,0-.08,0A.45.45,0,0,0,157,43Zm0-.7v.24s0,0,0,0a.5.5,0,0,0,.39-.07.28.28,0,0,0,.12-.32.25.25,0,0,0-.2-.23H157s0,0,0,.08v.27Z"/></g><rect class="cls-2" width="164" height="76.75"/></g></g></svg>