<svg xmlns="http://www.w3.org/2000/svg" viewBox="0 0 164 76.75"><defs><style>.cls-1{fill:#222;}.cls-2{fill:none;}</style></defs><title>sonos-logo</title><g id="Layer_2" data-name="Layer 2"><g id="Layer_1-2" data-name="Layer 1"><path class="cls-1" d="M75.68,34.58V50.34H72V25.68L88.33,42.14V26.29H92V51.05Zm37.74-9.26a13,13,0,1,0,12.93,13A13,13,0,0,0,113.42,25.32Zm0,22.37a9.33,9.33,0,1,1,9.17-9.33A9.26,9.26,0,0,1,113.42,47.69ZM50.58,25.32a13,13,0,1,0,12.92,13A13,13,0,0,0,50.58,25.32Zm0,22.37a9.33,9.33,0,1,1,9.16-9.33A9.26,9.26,0,0,1,50.58,47.69Zm-28.79-7.5h0a17,17,0,0,1-5.29-2.5,6.25,6.25,0,0,1-2.65-5.11,6.91,6.91,0,0,1,2.42-5.13,9.24,9.24,0,0,1,6.1-2.13,10.73,10.73,0,0,1,7.87,3.46l-3,2a8.37,8.37,0,0,0-4.87-1.7c-3,0-4.75,1.76-4.75,3.46,0,1.18.65,2.49,5.31,4h0a16.87,16.87,0,0,1,5.29,2.49,6.24,6.24,0,0,1,2.64,5.11,6.86,6.86,0,0,1-2.42,5.13,9.21,9.21,0,0,1-6.09,2.13A10.64,10.64,0,0,1,14.49,48l3-2a8.37,8.37,0,0,0,4.88,1.7c3,0,4.74-1.75,4.74-3.46,0-1.18-.64-2.49-5.31-4Zm119.29,0h0a16.78,16.78,0,0,1-5.28-2.5,6.22,6.22,0,0,1-2.65-5.11,6.88,6.88,0,0,1,2.42-5.13,9.21,9.21,0,0,1,6.09-2.13,10.74,10.74,0,0,1,7.88,3.46l-3,2a8.38,8.38,0,0,0-4.88-1.7c-3,0-4.74,1.76-4.74,3.46,0,1.18.64,2.49,5.31,4h0a16.76,16.76,0,0,1,5.29,2.49,6.25,6.25,0,0,1,2.65,5.11,6.89,6.89,0,0,1-2.42,5.13,9.24,9.24,0,0,1-6.1,2.13A10.69,10.69,0,0,1,133.77,48l3-2a8.3,8.3,0,0,0,4.87,1.7c3,0,4.75-1.75,4.75-3.46,0-1.18-.65-2.49-5.31-4Z"/><rect class="cls-2" width="164" height="76.75"/></g></g></svg>