<svg xmlns="http://www.w3.org/2000/svg" viewBox="0 0 164 76.75"><defs><style>.cls-1{fill:#d62727;}.cls-2{fill:none;}</style></defs><title>staples-logo</title><g id="Layer_2" data-name="Layer 2"><g id="Layer_1-2" data-name="Layer 1"><path id="_Path_" data-name="&lt;Path&gt;" class="cls-1" d="M24.07,52.1h0c-9.4,0-10.39-6.12-10.39-8.72v-.07h5v.07c0,1.23.61,4.13,5,4.13a8.41,8.41,0,0,0,3.44-.61,2.79,2.79,0,0,0,1.61-2.68c0-1.91-1.68-2.44-4.36-3.13l-2.6-.69c-4-1-7.72-1.91-7.72-7.72a8.38,8.38,0,0,1,1.68-5.13c1.61-1.91,4.21-2.9,7.65-2.9,3.28,0,5.88,1,7.57,3.06a8.69,8.69,0,0,1,2,5.43v.07H28v-.07c-.15-1.07-.45-3.9-4.89-3.83a5.55,5.55,0,0,0-2.83.69,2.65,2.65,0,0,0-1.38,2.37c0,2.07,1.61,2.45,2.53,2.68l5.89,1.53c3.28.84,6.42,2.29,6.42,7a7.75,7.75,0,0,1-4,7.27,14.3,14.3,0,0,1-5.66,1.22"/><polygon id="_Path_2" data-name="&lt;Path&gt;" class="cls-1" points="45.79 51.41 40.67 51.41 40.67 51.34 40.67 30.08 33.33 30 33.33 25.34 53.13 25.34 53.13 30.08 45.79 30.08 45.79 51.41"/><polygon id="_Path_3" data-name="&lt;Path&gt;" class="cls-1" points="128.84 51.41 128.76 51.41 110.33 51.41 110.33 51.34 110.25 25.34 110.33 25.34 128.22 25.34 128.22 30.08 115.38 30.08 115.38 35.43 127.16 35.43 127.16 40.1 115.38 40.1 115.38 46.75 128.76 46.75 128.84 51.41"/><path id="_Path_4" data-name="&lt;Path&gt;" class="cls-1" d="M140.69,52.1h0c-3.9,0-6.81-1.07-8.56-3.13a9,9,0,0,1-1.92-5.59v-.07h5v.07c0,1.23.62,4.13,5,4.13a8.45,8.45,0,0,0,3.44-.61,2.79,2.79,0,0,0,1.61-2.68c0-1.91-1.61-2.44-4.36-3.13l-2.6-.69c-4-1-7.72-1.91-7.72-7.72,0-1.91.68-8,9.33-8,3.28,0,5.88,1,7.57,3.06a8.72,8.72,0,0,1,2,5.43v.07h-5v-.07c-.15-1.07-.46-3.83-4.89-3.83-2,0-4.13.84-4.13,3.06s1.61,2.45,2.52,2.68l5.89,1.53c3.29.84,6.42,2.29,6.42,7,0,3.37-1.37,5.81-4,7.19a12,12,0,0,1-5.66,1.3"/><path id="_Path_5" data-name="&lt;Path&gt;" class="cls-1" d="M92.29,48.58V29.47a4.88,4.88,0,0,1,5-4.82,4.93,4.93,0,0,1,5,4.74l1.38,8.11-4.44,1.07-1.76-9.1h-.22V46.75h11.92v4.82H94.89a3,3,0,0,1-2.6-3"/><path id="_Compound_Path_" data-name="&lt;Compound Path&gt;" class="cls-1" d="M65.75,51.41h0l-1.53-5.35H55.35l-1.68,5.35H48.24v-.07l8.64-26h5.89v.07l8.56,26.08Zm-9-9.94h6l-3-10.17Z"/><path id="_Compound_Path_2" data-name="&lt;Compound Path&gt;" class="cls-1" d="M77.68,51.41h-5.2V25.34H83.57c4.66,0,7.57,3.21,7.57,8.41a9.87,9.87,0,0,1-1.45,5,7,7,0,0,1-6.35,3.28H77.6ZM77.6,37.5h4.67c3.74,0,3.74-2.83,3.74-4C86,31,84.71,30,81.58,30h-4Z"/><rect class="cls-2" width="164" height="76.75"/></g></g></svg>