<svg xmlns="http://www.w3.org/2000/svg" viewBox="0 0 164 76.75"><defs><style>.cls-1{fill:#a30334;}.cls-2{fill:#9a8c80;}.cls-3{fill:#fefdfd;}.cls-4{fill:none;}</style></defs><title>stjude-logo</title><g id="Layer_2" data-name="Layer 2"><g id="Layer_1-2" data-name="Layer 1"><g id="Layer_2-2" data-name="Layer 2"><g id="Layer_1-2-2" data-name="Layer 1-2"><path class="cls-1" d="M7.87,61a56.06,56.06,0,0,1,11.78-5c1.82-.54,3.66-1,5.52-1.37.13,0,.24,0,.25-.22.09-1.74.21-3.49.29-5.23a17.1,17.1,0,0,0-.22-3.43,7.61,7.61,0,0,1,.26-2.84c.27-1.25.72-2.44,1-3.7.06-.34.12-.67.15-1a3.19,3.19,0,0,1,2.07-2.79c.07,0,.14-.05.16-.14a5.82,5.82,0,0,0,.34-2.23,1.13,1.13,0,0,0-.76-1,1.93,1.93,0,0,1-1.25-1.39c-.08-.29-.33-.54-.25-.9a3.09,3.09,0,0,0,1.44.25c-.24-.25-.34-.55-.7-.65a1.27,1.27,0,0,1-1-1.51c.11,0,.18.07.27.11.49.24.85,0,.86-.52V26a9.27,9.27,0,0,1,.23-2.78,12.31,12.31,0,0,1,2.21-4.09,10,10,0,0,1,5.73-3.63,3.47,3.47,0,0,0,.78-.15h2c.45.1.91.18,1.36.3a11.82,11.82,0,0,1,5,2.91,14.33,14.33,0,0,1,3.64,4.94,8.43,8.43,0,0,1,.74,4.37,4.25,4.25,0,0,1-.12.6.46.46,0,0,1-.36.38,1.07,1.07,0,0,0-.7.54,7.46,7.46,0,0,1-1.21,1.42,4.84,4.84,0,0,1-1,.65,1.36,1.36,0,0,0-.84,1.67c.09.45.23.89.3,1.34.12.77-.17,1.16-.94,1.23-.39,0-.47.22-.48.54,0,.68-.09.74-.8.74-.27,0-.41.1-.42.41a.52.52,0,0,1-.48.56.55.55,0,0,1-.25,0,.55.55,0,0,0-.72.22,1.59,1.59,0,0,1-2.07.55,1.81,1.81,0,0,0-.82-.27,27.31,27.31,0,0,1,2.41,2.94,8.67,8.67,0,0,1,1.67,4c.15,1.28.47,2.53.66,3.81,0,.21-.07.52.1.61s.42-.1.63-.17a16.42,16.42,0,0,0,2-.84A5,5,0,0,0,47.46,48a10.26,10.26,0,0,1,1.6-1.27c.45-.31,1-.46,1.43-.75l.4-.28c.21-.18.45-.35.73-.18s.25.49.17.76a2,2,0,0,1-1,1.2.91.91,0,0,0,1-.24c.29-.3.51-.67.81-1a.49.49,0,0,1,.86.12,4.08,4.08,0,0,1,.33-.25A.55.55,0,0,1,54,46a2.61,2.61,0,0,1,.72.22c.27.15,0,.54.11.62s.39.18.29.5a8,8,0,0,1-.41,1,4.7,4.7,0,0,1-4,2.91,1.14,1.14,0,0,0-.79.38A29.68,29.68,0,0,0,48,54.18,58,58,0,0,1,67.92,61c-.16.07-.27,0-.4-.08a76.59,76.59,0,0,0-13.38-3.83,83.79,83.79,0,0,0-11.62-1.41,89.86,89.86,0,0,0-11.37.15A83.21,83.21,0,0,0,17.55,58,76,76,0,0,0,8,61.09S7.9,61.09,7.87,61Zm29.33-16a9.24,9.24,0,0,0-4.75,1.72,4.37,4.37,0,0,0-1.4,1.81c-.15.36-.05.61.34.86s.46.22.77-.11a9.23,9.23,0,0,1,6.51-3c.33,0,.44-.2.3-.5a1,1,0,0,0-.47-.48A2.53,2.53,0,0,0,37.2,45.07Z"/><path class="cls-2" d="M7.87,61c0,.06.08,0,.12.06a2.42,2.42,0,0,1-.64.27V61.3C7.54,61.23,7.67,61.07,7.87,61Z"/><path class="cls-3" d="M37.2,45.07a2.53,2.53,0,0,1,1.3.26,1,1,0,0,1,.46.48c.15.3,0,.49-.29.5a9.23,9.23,0,0,0-6.51,3c-.31.33-.41.34-.77.11s-.5-.5-.34-.86a4.37,4.37,0,0,1,1.4-1.81A9.14,9.14,0,0,1,37.2,45.07Z"/><path class="cls-4" d="M56.58,33V35h0Z"/><path class="cls-4" d="M87.66,28c0-.69,0-1.39,0-2.08h0Z"/><path class="cls-4" d="M133.91,40.71v0Z"/><path class="cls-2" d="M110.22,27.34a8,8,0,0,1,0,.84c-.06.72-.08.76-.79.86-.25,0-.22.18-.23.34s.12.19.26.19h3c.13,0,.27,0,.27-.18s0-.3-.21-.36c-.52-.1-.6-.22-.6-.75V24.05a.39.39,0,0,1,.1-.33,1.69,1.69,0,0,1,1.63-.43,1.22,1.22,0,0,1,.88,1.08,3,3,0,0,1,0,.52v3.32c0,.62-.06.71-.66.84-.13,0-.2.06-.21.22s0,.32.3.32h10.32c.14,0,.18-.06.19-.19s0-.31-.28-.35c-.69-.11-.73-.14-.79-.84,0-.45,0-.9,0-1.35V19.63c0-.29-.06-.34-.35-.27-.67.17-1.35.31-2,.44-.2,0-.27.12-.27.32s.16.21.31.23c.6,0,.7.16.7.76v7.1a1.84,1.84,0,0,1,0,.41.41.41,0,0,1-.31.33,2,2,0,0,1-1,.09c-.61-.12-.72-.26-.72-.87V22.31c0-.16,0-.26-.23-.2a18.62,18.62,0,0,1-2.2.55c-.18,0-.18.13-.19.27s.09.18.23.2c.65.08.75.18.76.84V28.3a.6.6,0,0,1-.38.65,1.81,1.81,0,0,1-.8.1c-.54-.06-.66-.18-.73-.72,0-.15,0-.3,0-.45,0-1.24,0-2.48,0-3.71A2.09,2.09,0,0,0,113,22.33a7.9,7.9,0,0,0-1.09.72.63.63,0,0,1,0-.36V19.56c0-.22,0-.31-.3-.24-.7.17-1.41.33-2.12.47-.2,0-.24.13-.24.3s.1.22.25.23c.81,0,.71.27.78.87a.81.81,0,0,1,0,.22Z"/><path class="cls-2" d="M118.8,41.7c-.74-.07-1-.3-1-1v-6.8a4.09,4.09,0,0,1,0-.78.74.74,0,0,1,.63-.62,1.85,1.85,0,0,1,.41-.07c.2,0,.28-.06.28-.27s-.13-.21-.28-.21H115c-.13,0-.31-.06-.31.2s.09.27.28.27c.76.09.92.27,1,1s0,1.8,0,2.7c0,.2-.07.27-.27.26H111.6c-.2,0-.27-.06-.27-.27,0-.86,0-1.72,0-2.57s.22-1.05,1-1.16c.21,0,.21-.13.21-.27s-.08-.2-.22-.2h-4c-.17,0-.23.06-.23.23s0,.24.21.24a4.18,4.18,0,0,1,.51.07.75.75,0,0,1,.65.68c0,.2,0,.41.06.61V40.2c0,.23,0,.45-.06.68a.73.73,0,0,1-.69.76,1.65,1.65,0,0,1-.38,0c-.23,0-.24.12-.24.29s.08.21.24.21h4c.15,0,.24,0,.24-.21s0-.27-.24-.29c-.85-.09-1.06-.31-1.09-1.15,0-1.06,0-2.11,0-3.16,0-.21.07-.25.27-.25h4.16c.24,0,.28.09.28.29v1.9c0,.47,0,1,0,1.43s-.24.81-.84.93l-.23,0c-.19,0-.33,0-.32.27s.19.23.35.23h3.87c.27,0,.29-.13.27-.33S118.92,41.7,118.8,41.7Z"/><path class="cls-2" d="M62.84,41.88a2.77,2.77,0,0,1-1.29-1.1,25.59,25.59,0,0,1-2.07-3.19c-.2-.37-.21-.37.18-.57a2.5,2.5,0,0,0,.39-.23,2.77,2.77,0,0,0,1.21-3A2.46,2.46,0,0,0,59,32a23.54,23.54,0,0,0-2.6-.07H53.89c-.13,0-.32-.08-.32.19s.07.27.27.29c.77.09,1,.3,1,1.08,0,2.36,0,4.73,0,7.09,0,.84-.22,1-1,1.12-.21,0-.27.09-.27.3s.11.21.27.21h3.84c.21,0,.27-.06.27-.27s-.17-.22-.33-.24c-.66,0-.86-.24-.93-.89-.11-1,0-1.93,0-2.89,0-.15,0-.19.2-.21a1.1,1.1,0,0,1,1.21.67A24.86,24.86,0,0,0,59.5,41c.79,1.17,2,1.29,3.25,1.32.17,0,.14-.13.18-.22S63,41.93,62.84,41.88Zm-5.37-4.75c-.89,0-.89,0-.89-.84V33c0-.39.09-.5.46-.52a2.1,2.1,0,0,1,2.38,2.53A2.62,2.62,0,0,1,59,36.24,1.82,1.82,0,0,1,57.47,37.13Z"/><path class="cls-2" d="M134.19,42.24a1.5,1.5,0,0,0,1,.09,4.46,4.46,0,0,0,3.53-4.42,3.32,3.32,0,0,0-1.06-2.63,2.28,2.28,0,0,0-2.48-.34c-.32.23-.69.4-1,.61-.16.1-.24.08-.23-.12s0-.37,0-.55-.05-.34-.33-.25c-.69.22-1.39.42-2.08.61-.18,0-.31.08-.29.31s.19.19.33.21c.61.06.7.15.74.75V44.3c0,.2,0,.39,0,.59a.48.48,0,0,1-.36.44,1.25,1.25,0,0,1-.42.08c-.22,0-.27.12-.27.32s.13.21.27.21h3.45c.17,0,.32,0,.32-.24s-.09-.27-.29-.27a3,3,0,0,1-.42-.06c-.5-.1-.62-.23-.62-.75V42.48C133.91,42.24,134,42.17,134.19,42.24Zm-.27-5.6a.45.45,0,0,1,.27-.46,1.65,1.65,0,0,1,2.55.84,4.3,4.3,0,0,1-.11,3.56,1.59,1.59,0,0,1-2.59.47.38.38,0,0,1-.12-.35V38.65c0-.69,0-1.33,0-2Z"/><path class="cls-2" d="M84.36,29.3a2,2,0,0,0,2.45.07,9,9,0,0,1,.84-.52v.74c0,.13,0,.2.18.15a16,16,0,0,1,2.34-.57c.13,0,.19-.08.2-.23,0-.3-.12-.33-.36-.32-.67,0-.74-.06-.75-.74V19.35c0-.15-.05-.17-.19-.14-.78.19-1.56.36-2.35.49-.21,0-.17.18-.18.32s.07.18.2.18a2.63,2.63,0,0,1,.39.06c.4.06.5.17.5.57s0,.72,0,1.07-.06.28-.27.23a3.4,3.4,0,0,0-1.52.07,4,4,0,0,0-3.09,3.62A3.55,3.55,0,0,0,84.36,29.3ZM85,23.8a1.52,1.52,0,0,1,1.85-.93A1,1,0,0,1,87.65,24v4a.45.45,0,0,1-.26.46,1.6,1.6,0,0,1-2.13-.5,3,3,0,0,1-.59-1.43A4.82,4.82,0,0,1,85,23.8Z"/><path class="cls-2" d="M104.46,41.64c-.45-.07-.56-.22-.6-.67,0-.15,0-.3,0-.45,0-1.21,0-2.44,0-3.65a2.08,2.08,0,0,0-2.81-2,4.27,4.27,0,0,0-1.47.93V32.2c0-.32-.09-.35-.37-.27-.68.17-1.37.31-2.06.45a.21.21,0,0,0-.2.23c0,.23.07.29.29.3.59,0,.7.15.71.73v7a3.54,3.54,0,0,1,0,.46.51.51,0,0,1-.44.49,2,2,0,0,1-.35.06c-.21,0-.24.12-.24.29s.13.24.3.23h2.9c.12,0,.3.09.31-.16s0-.36-.27-.38a.55.55,0,0,1-.55-.54v-.06c0-.11,0-.21,0-.32v-4a.36.36,0,0,1,.06-.27,1.77,1.77,0,0,1,1.54-.52,1.15,1.15,0,0,1,1,.88,1.81,1.81,0,0,1,.1.61v3.55c0,.51-.1.63-.6.72-.24,0-.29.16-.27.37s.21.17.34.17h2.71c.13,0,.34.12.37-.17S104.71,41.68,104.46,41.64Z"/><path class="cls-2" d="M128.08,29.39a9.45,9.45,0,0,1,.89-.54v.74c0,.16,0,.21.21.15a13.66,13.66,0,0,1,2.27-.55c.24,0,.25-.16.25-.36s-.14-.2-.29-.2h-.35c-.32,0-.46-.14-.46-.45V19.49c0-.16,0-.22-.21-.18l-2.35.5a.19.19,0,0,0-.17.19c0,.33.18.32.39.33.59,0,.71.17.72.76v.85c0,.2-.07.24-.25.2a3.51,3.51,0,0,0-1.48.05,4,4,0,0,0-3.15,4.43,3.36,3.36,0,0,0,2,2.91A1.8,1.8,0,0,0,128.08,29.39Zm-1.61-1.6a3.86,3.86,0,0,1-.54-2.46,3.44,3.44,0,0,1,.54-1.85,1.47,1.47,0,0,1,1.95-.48.92.92,0,0,1,.54.91c0,.5,0,1,0,1.49V28a.38.38,0,0,1-.22.38,1.55,1.55,0,0,1-2.24-.57Z"/><path class="cls-2" d="M143.24,23.13c.51.06.65.2.65.74v4.45c0,.45-.15.6-.58.68a1.35,1.35,0,0,1-.29.05c-.27,0-.22.17-.23.33s.11.19.25.19h3.09c.12,0,.27,0,.25-.16s.07-.31-.19-.37c-.59-.13-.66-.25-.67-.87,0-1.27,0-2.54,0-3.8a.79.79,0,0,1,.41-.77,1.54,1.54,0,0,1,1.59-.22,1.36,1.36,0,0,1,.64,1.39v3.35c0,.73,0,.79-.75.93-.24,0-.17.19-.18.33s.06.2.21.19h3.06c.17,0,.23-.06.23-.23s0-.27-.2-.29c-.73-.09-.69-.27-.75-.9v-.46c0-1.2,0-2.41,0-3.61a1.89,1.89,0,0,0-1-1.75,2,2,0,0,0-2.23.2l-1,.7v-.8c0-.26,0-.39-.35-.28a12.91,12.91,0,0,1-1.95.48c-.15,0-.32,0-.32.28S143.09,23.11,143.24,23.13Z"/><path class="cls-2" d="M108.48,29.15c.25-.71.46-1.44.64-2.17,0-.08.11-.21-.05-.24s-.25-.14-.36,0a.92.92,0,0,0-.16.27,4.34,4.34,0,0,1-1.33,1.7,3.28,3.28,0,0,1-4.52-1.05l0,0a6.26,6.26,0,0,1-.59-5.1,3.42,3.42,0,0,1,3.86-2.62,2.44,2.44,0,0,1,1.79.94,3.42,3.42,0,0,1,.58,1.16c0,.21.16.21.33.18s.19-.12.17-.27c-.09-.67-.15-1.34-.22-2a.27.27,0,0,0-.25-.29,10.22,10.22,0,0,0-2.58-.35,5.6,5.6,0,0,0-1.08.07,5.81,5.81,0,0,0-3.29,1.5,5.12,5.12,0,0,0-1.58,4.45A4.67,4.67,0,0,0,103,29.4a8.36,8.36,0,0,0,5.3,0A.31.31,0,0,0,108.48,29.15Z"/><path class="cls-2" d="M53.93,29a.29.29,0,0,0,.18.27,5,5,0,0,0,3.61.38,3,3,0,0,0,2.17-2.17,2.8,2.8,0,0,0-.82-2.91,5.42,5.42,0,0,0-1.49-.91,5.24,5.24,0,0,1-1.63-1A1.61,1.61,0,0,1,56.5,20a1.8,1.8,0,0,1,2.07.79,3.45,3.45,0,0,1,.43.91c.07.26.23.18.4.15s.18-.15.16-.29c-.09-.55-.17-1.11-.25-1.66a.25.25,0,0,0-.18-.24,5.71,5.71,0,0,0-1.88-.37,4,4,0,0,0-1.52.27,2.77,2.77,0,0,0-1.35,4.16,4.48,4.48,0,0,0,1.44,1.19,11.56,11.56,0,0,1,1.81,1,1.87,1.87,0,0,1,0,3,2,2,0,0,1-2.34-.36,4.58,4.58,0,0,1-1.17-1.74c-.05-.13-.12-.2-.27-.12s-.32,0-.27.27C53.68,27.65,53.8,28.32,53.93,29Z"/><path class="cls-2" d="M74.76,22.65A.26.26,0,0,0,75,23c.68.17.68.18.73.88v3.91a1.89,1.89,0,0,0,1.69,2,2,2,0,0,0,1.33-.3A13.59,13.59,0,0,0,80,28.57v.88c0,.27.1.33.34.26a16.51,16.51,0,0,1,2.21-.52.18.18,0,0,0,.17-.17h0c0-.24,0-.37-.32-.36-.74,0-.77,0-.77-.79V22.3a.12.12,0,0,0-.15-.12c-.78.09-1.56.19-2.35.27-.14,0-.17.08-.18.21,0,.34.27.27.43.31.54.13.62.19.62.76,0,1.19,0,2.39,0,3.58a1,1,0,0,1-.62,1l-.23.11a1.2,1.2,0,0,1-1.78-1.09c-.08-1,0-2,0-3V22.4c0-.12,0-.25-.18-.22L75,22.45C74.87,22.47,74.75,22.47,74.76,22.65Z"/><path class="cls-2" d="M122.44,34.71a3.28,3.28,0,0,0-2.23.84A4,4,0,0,0,119,39.69a3.19,3.19,0,0,0,2.46,2.58A3.26,3.26,0,0,0,125,41.13a4.12,4.12,0,0,0,.83-3.27A3.42,3.42,0,0,0,122.44,34.71Zm1.26,5.93c-.18.55-.46,1-1.1,1.09a1.46,1.46,0,0,1-1.36-.91,5.75,5.75,0,0,1-.54-2.56,4.35,4.35,0,0,1,.5-2.24,1.12,1.12,0,0,1,1.23-.65,1.33,1.33,0,0,1,.87.57,3.31,3.31,0,0,1,.56,1.57A7,7,0,0,1,123.7,40.64Z"/><path class="cls-2" d="M85.76,41.16c-.43.16-.6.06-.7-.38a1,1,0,0,1,0-.29v-2h0c0-.66,0-1.32,0-2a1.8,1.8,0,0,0-2.43-1.74,6.84,6.84,0,0,0-2,1,1.4,1.4,0,0,0-.53.6.74.74,0,0,0,.43.94l.09,0c.39.13.65,0,.76-.49a3.44,3.44,0,0,1,.27-.76,1,1,0,0,1,1-.58,1,1,0,0,1,.9.81,4.92,4.92,0,0,1,.07.78.4.4,0,0,1-.28.42,20.31,20.31,0,0,1-2.13.95,2,2,0,0,0-.61,3.34,1.42,1.42,0,0,0,1.85.24,10.71,10.71,0,0,0,.9-.59c.18-.13.31-.21.39.1a.93.93,0,0,0,.4.55c.21.13.43.29.69.16.47-.25.92-.52,1.39-.78a.18.18,0,0,0,.09-.24C86.11,41.06,86,41.08,85.76,41.16Zm-2.3-.6a.26.26,0,0,1,0,.15,1.06,1.06,0,0,1-1.63.2,1.46,1.46,0,0,1,.26-2l.06,0a8.45,8.45,0,0,1,1.32-.72Z"/><path class="cls-2" d="M152.93,41.21c-.06-.21-.17-.11-.3-.07-.49.19-.72,0-.79-.48a1.82,1.82,0,0,1,0-.33V38.4c0-.63,0-1.4-.05-2.17a1.78,1.78,0,0,0-2.2-1.47,6.29,6.29,0,0,0-2.34,1.17,1.24,1.24,0,0,0-.43.51.73.73,0,0,0,.44,1l.07,0c.4.14.65,0,.77-.48a2.53,2.53,0,0,1,.29-.81.94.94,0,0,1,1-.53,1,1,0,0,1,.85.78,3.71,3.71,0,0,1,.08.81.41.41,0,0,1-.27.43c-.71.36-1.43.67-2.17,1a2,2,0,0,0-.63,3.28,1.41,1.41,0,0,0,2,.25c.23-.18.48-.33.73-.49s.33-.22.5.13a1.09,1.09,0,0,0,.56.56.6.6,0,0,0,.55,0c.43-.26.85-.51,1.3-.74C153.06,41.47,153,41.35,152.93,41.21Zm-2.8-.38c-.34.26-.68.55-1.15.35a1.18,1.18,0,0,1-.64-1.15A1.2,1.2,0,0,1,148.8,39a10.78,10.78,0,0,1,1.47-.85v2.54C150.27,40.74,150.2,40.78,150.13,40.83Z"/><path class="cls-2" d="M70.66,31.87a4.67,4.67,0,0,0,2.46-1.77,4.94,4.94,0,0,0,.7-2.8c0-1.83,0-3.66,0-5.5a4.16,4.16,0,0,1,0-.61c.1-.75.22-.88,1-1,.26,0,.21-.18.22-.34s-.1-.19-.25-.19h-3.9c-.15,0-.27,0-.25.2s0,.32.21.32a2.23,2.23,0,0,1,.36.05.79.79,0,0,1,.78.8,4.43,4.43,0,0,1,.06.51c0,2.28.08,4.56-.07,6.83a3.18,3.18,0,0,1-1.62,3c-.21.11,0,.24,0,.35A.21.21,0,0,0,70.66,31.87Z"/><path class="cls-2" d="M94.05,29.72a3.43,3.43,0,0,0,2.06-1.49.27.27,0,0,0,0-.38h0c-.15-.18-.23,0-.31.07a2.2,2.2,0,0,1-2,.44,2.6,2.6,0,0,1-1.75-2.71c0-.18.13-.17.24-.17l1.33-.07,2.27-.19a.34.34,0,0,0,.37-.34v0a2.64,2.64,0,0,0-.07-1,2.41,2.41,0,0,0-3.61-1.46,4.12,4.12,0,0,0-2.09,3.75,3.92,3.92,0,0,0,.32,1.69A3,3,0,0,0,94.05,29.72Zm-1.91-5.11a2.67,2.67,0,0,1,.7-1.53.88.88,0,0,1,1.41.07,1.74,1.74,0,0,1,.42,1.29c0,.21-.1.32-.32.31h-1v0h-1C92.23,24.77,92.11,24.78,92.14,24.61Z"/><path class="cls-2" d="M137.58,28.11a3,3,0,0,0,3.23,1.59,3.56,3.56,0,0,0,1.92-1.43c.12-.16.17-.3,0-.45s-.25.05-.35.12a2.18,2.18,0,0,1-3.23-.54,3.62,3.62,0,0,1-.46-1.58c0-.27,0-.35.32-.36,1.17,0,2.33-.12,3.5-.23a.4.4,0,0,0,.4-.38v0a2.43,2.43,0,0,0-3.61-2.43,4,4,0,0,0-2.17,3.52A4.53,4.53,0,0,0,137.58,28.11Zm1.22-3.57a2.64,2.64,0,0,1,.71-1.49.91.91,0,0,1,1.28,0,1,1,0,0,1,.13.16,1.73,1.73,0,0,1,.39,1.26.3.3,0,0,1-.28.33h-1v0h-1c-.18,0-.22-.05-.18-.23Z"/><path class="cls-2" d="M64.17,38.1c1.14-.06,2.29-.12,3.43-.25.41,0,.47-.11.48-.54A2.4,2.4,0,0,0,64.56,35a4.36,4.36,0,0,0-1.73,5.88,2.93,2.93,0,0,0,3.39,1.39,3.66,3.66,0,0,0,1.7-1.36c.1-.14.17-.27,0-.42s-.26,0-.35.09a2.2,2.2,0,0,1-1.93.43,2.53,2.53,0,0,1-1.79-2.57C63.85,38.17,63.93,38.11,64.17,38.1ZM64,37.2a3.22,3.22,0,0,1,.57-1.36.94.94,0,0,1,1.59,0,1.77,1.77,0,0,1,.37,1.27c0,.24-.17.27-.36.27h-2C64,37.4,63.92,37.37,64,37.2Z"/><path class="cls-2" d="M77,34.72a2.77,2.77,0,0,0-1.68.59,4.46,4.46,0,0,0-1.21,5.44,3,3,0,0,0,3.18,1.58,3.52,3.52,0,0,0,2-1.48.27.27,0,0,0,0-.38h0c-.15-.16-.23,0-.32.08a2.19,2.19,0,0,1-2,.44,2.52,2.52,0,0,1-1.78-2.55c0-.25.06-.32.31-.33,1.17-.06,2.34-.13,3.5-.25a.39.39,0,0,0,.41-.38,2.47,2.47,0,0,0-2.14-2.74A1.63,1.63,0,0,0,77,34.72Zm.5,2.66h-1v0h-1c-.11,0-.21,0-.19-.15a2.55,2.55,0,0,1,.77-1.6.87.87,0,0,1,1.23,0l.11.13a1.81,1.81,0,0,1,.44,1.3.29.29,0,0,1-.26.33Z"/><path class="cls-2" d="M151.93,25.59a3.25,3.25,0,0,0,1.27.93,4.75,4.75,0,0,1,.93.53,1.26,1.26,0,0,1,.39,1.44,1.09,1.09,0,0,1-1.73.33,2.9,2.9,0,0,1-1-1.47.28.28,0,0,0-.37-.24c-.2,0-.14.23-.13.34,0,.44.08.88.14,1.32a.8.8,0,0,0,.45.6,3.18,3.18,0,0,0,2.76.17,2.28,2.28,0,0,0,1.37-2.9,2.46,2.46,0,0,0-.48-.79,3.79,3.79,0,0,0-1.2-.77,3.83,3.83,0,0,1-1-.59,1,1,0,0,1-.17-1.42,1,1,0,0,1,1.38-.08,2.5,2.5,0,0,1,.76,1c.09.18.17.21.35.16s.23-.16.18-.34-.07-.41-.12-.61c-.19-.93-.37-1.08-1.33-1.13H154a1.84,1.84,0,0,0-.7.07A2.2,2.2,0,0,0,151.93,25.59Z"/><path class="cls-2" d="M130,38.05a9.1,9.1,0,0,0-1-.49,2,2,0,0,1-1-.77.92.92,0,0,1,0-1,.81.81,0,0,1,1-.33,2,2,0,0,1,1.17,1.19c.07.15.11.28.32.2s.27-.13.21-.34-.07-.4-.11-.6c-.2-1-.37-1.09-1.36-1.15H129a2.74,2.74,0,0,0-1.26.25,2.15,2.15,0,0,0-.6,3.54,4.73,4.73,0,0,0,1.17.72,2.81,2.81,0,0,1,.82.51,1.19,1.19,0,0,1,.36,1.27.94.94,0,0,1-.85.7,1.31,1.31,0,0,1-1.06-.38,3.12,3.12,0,0,1-.9-1.44c-.06-.2-.19-.16-.33-.15s-.13.13-.13.23a10,10,0,0,0,.14,1.45.68.68,0,0,0,.38.53,3.15,3.15,0,0,0,2.66.27,2.28,2.28,0,0,0,.52-4.17Z"/><path class="cls-2" d="M71.2,37.59a2.47,2.47,0,0,1-.92-.64.92.92,0,0,1-.16-1,1,1,0,0,1,1.55-.27,2.44,2.44,0,0,1,.69.93c.08.18.17.27.4.2s.17-.24.14-.39-.07-.34-.1-.51c-.19-1-.35-1.11-1.36-1.16h-.22a3,3,0,0,0-.78.08,2.18,2.18,0,0,0-1.25,3.53,3.74,3.74,0,0,0,1.39.93,2.23,2.23,0,0,1,.88.6,1.16,1.16,0,0,1,.22,1.22,1,1,0,0,1-.9.64,1.36,1.36,0,0,1-1-.4,3,3,0,0,1-.9-1.41c0-.2-.16-.19-.31-.18s-.15.15-.15.27c0,.43.07.86.11,1.29a.85.85,0,0,0,.54.74,3.11,3.11,0,0,0,3.35-.25,2.24,2.24,0,0,0,.4-3.09A3.75,3.75,0,0,0,71.2,37.59Z"/><path class="cls-2" d="M156.3,41.65c-.62-.12-.71-.2-.71-.83V32.17c0-.27-.06-.33-.33-.27-.68.17-1.37.32-2.06.45-.19,0-.29.07-.27.29s.11.23.27.25c.63.07.67.12.73.75a3.4,3.4,0,0,1,0,.45v6c0,.32,0,.63,0,1a.51.51,0,0,1-.4.49,1.59,1.59,0,0,1-.38.07c-.22,0-.27.12-.26.31s.16.22.31.22h3.16c.27,0,.3-.1.3-.32S156.43,41.68,156.3,41.65Z"/><path class="cls-2" d="M146.06,41.16c-.87.39-1.44,0-1.52-.92V36c0-.22.08-.26.27-.25h1.09c.37,0,.33-.27.35-.48s-.1-.32-.34-.31-.72,0-1.09,0c-.2,0-.28,0-.27-.27V33.08c0-.11.07-.26-.1-.31s-.25,0-.34.19a1.81,1.81,0,0,1-.87.79.46.46,0,0,0-.31.52c0,.64,0,.64-.65.64-.43,0-.4,0-.43.4s.1.43.4.38h.32c.27,0,.38.05.37.35,0,.78,0,1.56,0,2.34v2a2.77,2.77,0,0,0,.15,1,1.49,1.49,0,0,0,1.93.87l.13,0,1.23-.66c.12-.06.18-.13.12-.27S146.28,41.06,146.06,41.16Z"/><path class="cls-2" d="M60.47,23.07a2.94,2.94,0,0,1,.42,0c.21,0,.26.07.26.28v3.28a12.67,12.67,0,0,0,.05,1.85,1.51,1.51,0,0,0,1.69,1.3,1.55,1.55,0,0,0,.56-.19c.37-.19.74-.41,1.12-.6.16-.08.18-.16.12-.33s-.27-.15-.41-.08c-.81.33-1.29.08-1.46-.79a1.41,1.41,0,0,1,0-.35v-4.1c0-.2.06-.27.27-.26.37,0,.74,0,1.11,0s.32-.23.33-.45-.07-.34-.32-.33H63c-.19,0-.24-.06-.24-.24v-1.6c0-.1.08-.25-.09-.3s-.25.05-.34.18a1.91,1.91,0,0,1-.89.82.43.43,0,0,0-.3.49c0,.64,0,.66-.65.63-.32,0-.42.07-.41.4S60.15,23.13,60.47,23.07Z"/><path class="cls-2" d="M132.07,29.05c-.23.06-.13.22-.15.34s.06.18.2.18h3.45c.16,0,.2-.07.19-.22s.05-.29-.18-.3a1.65,1.65,0,0,1-.32,0c-.57-.1-.7-.25-.7-.82V24.78a1.2,1.2,0,0,1,.69-1c.35-.19.64,0,.9.26a.44.44,0,0,0,.57.07,1.14,1.14,0,0,0,.58-1,.93.93,0,0,0-.59-.89,1,1,0,0,0-1.19.28,11.1,11.1,0,0,0-1,1.18v-1.3c0-.15,0-.27-.22-.2a19.26,19.26,0,0,1-2.24.55c-.16,0-.18.11-.18.24s.17.21.31.23c.48.05.63.15.66.48a44.26,44.26,0,0,1,0,4.46C132.89,28.84,132.84,28.84,132.07,29.05Z"/><path class="cls-2" d="M91.54,35.12a1,1,0,0,0-1.47-.18,3.35,3.35,0,0,0-.76.88l-.3.46-.07,0V34.93c0-.16,0-.24-.22-.19a16.78,16.78,0,0,1-2.17.54c-.18,0-.22.13-.22.3s.16.17.27.19c.61.08.71.17.71.78q0,2.13,0,4.26c0,.64-.09.75-.72.86-.22,0-.27.11-.27.33s.16.21.31.21h3.25A.29.29,0,0,0,90.2,42a.27.27,0,0,0,0-.19c-.07-.17-.24-.1-.37-.12-.74-.14-.84-.24-.84-1V37.48a1.24,1.24,0,0,1,.7-1.09c.37-.22.66,0,.92.27a.45.45,0,0,0,.57.05,1.14,1.14,0,0,0,.42-1.57Z"/><path class="cls-2" d="M97.09,40.36c-.22-.2-.29,0-.38.11A2,2,0,0,1,93.54,40,3.64,3.64,0,0,1,93,38a3.5,3.5,0,0,1,.15-1.11A1.5,1.5,0,0,1,95.61,36c.19.12.35.27.52.4s.22.17.35.11a.87.87,0,0,0,.5-.73.61.61,0,0,0-.27-.65,2.28,2.28,0,0,0-1.13-.36,4.13,4.13,0,0,0-4.19,4.06,4.09,4.09,0,0,0,.52,2,3,3,0,0,0,3.22,1.49,3.42,3.42,0,0,0,1.94-1.5C97.19,40.68,97.29,40.54,97.09,40.36Z"/><path class="cls-2" d="M142.06,41.65c-.62-.12-.72-.23-.72-.86V35c0-.16,0-.29-.23-.23a20.8,20.8,0,0,1-2.2.55c-.09,0-.21,0-.21.16s0,.21.07.27l.27.06c.48.06.58.16.63.62a18.28,18.28,0,0,1,0,2c0,.91.05,1.82,0,2.73a.56.56,0,0,1-.5.54,1.13,1.13,0,0,1-.32.05c-.22,0-.23.13-.23.3s.09.23.27.23h3.22c.21,0,.27-.07.27-.27S142.19,41.68,142.06,41.65Z"/><path class="cls-2" d="M66.36,29.76a1.09,1.09,0,0,0,1.08-1.19,1.11,1.11,0,0,0-1-1.2h0a1.21,1.21,0,0,0,0,2.4Z"/><path class="cls-2" d="M118.78,21.28a1,1,0,0,0,1-1.07h0a1,1,0,1,0-2-.19v.19A1,1,0,0,0,118.78,21.28Z"/><path class="cls-2" d="M139.48,33a1,1,0,0,0,1,1.06h0a1.09,1.09,0,0,0,0-2.17h-.05A1,1,0,0,0,139.48,33Z"/><path class="cls-2" d="M150.78,22.31a.15.15,0,0,0,0,.18c.05.05.14,0,.2,0a2,2,0,0,0,.89-1.44,1,1,0,0,0-.89-1.14h-.08a.6.6,0,0,0-.49.21.73.73,0,0,0,0,1l0,0A.92.92,0,0,1,150.78,22.31Z"/></g></g><rect class="cls-4" width="164" height="76.75"/></g></g></svg>