<svg xmlns="http://www.w3.org/2000/svg" viewBox="0 0 164 76.75"><defs><style>.cls-1{fill:#c00;}.cls-2{fill:none;}</style></defs><title>target-logo</title><g id="Layer_2" data-name="Layer 2"><g id="Layer_1-2" data-name="Layer 1"><path class="cls-1" d="M47.24,32H40.85V28.05H58.32V32H51.93V49.38H47.24V32m9,17.38H61l1.66-4.76h8l1.62,4.76h4.88l-8-21.33H64.38L56.29,49.38M66.7,33.31h0l2.69,7.83H63.92l2.78-7.83ZM79,49.38H83.7V41.05h4.68c2.37,0,3.23,1,3.56,3.23.23,1.71.17,3.77.75,5.12h4.68c-.84-1.21-.8-3.7-.89-5-.15-2.15-.81-4.4-3.11-5v0A5.24,5.24,0,0,0,96.75,34a5.87,5.87,0,0,0-6.25-5.89H79l0,21.31M83.7,31.7h5.13c2.08,0,3.23.9,3.23,3s-1.13,3.05-3.23,3.05H83.7ZM115.38,47a7.24,7.24,0,0,1-5.85,2.92C102.92,49.88,99,44.94,99,38.79c0-6.34,3.88-11.26,10.49-11.26,4.36,0,8.49,2.7,9,7.52H114a4.36,4.36,0,0,0-4.5-3.59c-4.22,0-5.8,3.59-5.8,7.31,0,3.55,1.58,7.14,5.8,7.14,3,0,4.81-1.63,5.08-4.59h-4.73V37.84h9V49.36h-3L115.38,47M122,28.05H138V32H126.72v4.56h10.34v3.65H126.72v5.22h11.49v4H122V28.05M146.7,32h-6.39V28.05h17.47V32h-6.4V49.38H146.7V32M21.48,48.55A10.18,10.18,0,1,1,31.66,38.38,10.18,10.18,0,0,1,21.48,48.55m0-25.43A15.26,15.26,0,1,0,36.74,38.38,15.27,15.27,0,0,0,21.48,23.12Z"/><path class="cls-1" d="M21.48,33.15a5.23,5.23,0,1,0,5.24,5.22,5.22,5.22,0,0,0-5.24-5.22"/><rect class="cls-2" width="164" height="76.75"/></g></g></svg>