<svg xmlns="http://www.w3.org/2000/svg" viewBox="0 0 164 76.75"><defs><style>.cls-1{fill:#28539c;}.cls-2{fill:#cc2131;}.cls-3{fill:none;}</style></defs><title>tesco-logo</title><g id="Layer_2" data-name="Layer 2"><g id="Layer_1-2" data-name="Layer 1"><path class="cls-1" d="M30,51.87H44.93c.18,0,.18.09,0,.18a20.78,20.78,0,0,0-4.09,3.22c-1.66,1.66-3,2.7-5.84,2.7H20.71c-.08,0-.08-.17,0-.17a23.61,23.61,0,0,0,3.92-3.31A7.49,7.49,0,0,1,30,51.87Zm97.91,0h15c.09,0,.09.09,0,.18a18.2,18.2,0,0,0-4.09,3.22C137.1,56.93,135.79,58,133,58H118.72c-.09,0-.09-.17,0-.17a24.06,24.06,0,0,0,3.92-3.31A7.25,7.25,0,0,1,128,51.87Zm-73.44,0h14.9c.17,0,.17.09,0,.18a20.78,20.78,0,0,0-4.09,3.22c-1.66,1.66-3,2.7-5.84,2.7H45.28c-.17,0-.17-.17-.09-.17a23.61,23.61,0,0,0,3.92-3.31A7.48,7.48,0,0,1,54.51,51.87Zm24.48,0h14.9c.17,0,.17.09,0,.18a20.46,20.46,0,0,0-4.09,3.22c-1.66,1.66-3,2.7-5.75,2.7H69.76c-.09,0-.09-.17-.09-.17a20.14,20.14,0,0,0,3.92-3.31A7.46,7.46,0,0,1,79,51.87Zm24.48,0h15c.08,0,.08.09-.09.18a20.63,20.63,0,0,0-4.1,3.22c-1.65,1.66-3,2.7-5.75,2.7H94.24c-.09,0-.09-.17,0-.17a23.61,23.61,0,0,0,3.92-3.31,7.08,7.08,0,0,1,5.31-2.62Z"/><path class="cls-2" d="M107.57,22.78c-9.41,0-15.68,4.88-15.68,12.28,0,6.8,5.75,11.33,14.28,11.33a29.06,29.06,0,0,0,8.1-1.14V39.59a9,9,0,0,1-7,3.14c-5.06,0-8.54-3.31-8.54-8.19s3.57-8.28,8.62-8.28a8.85,8.85,0,0,1,6.63,2.88V23.39a34.94,34.94,0,0,0-6.36-.61Zm-70.22,4c3.49,0,7.67.7,9.41,2.18v-5.4H22V29c1.74-1.48,5.49-2.09,9.5-2.09V41.68c0,2.18-.18,2.79-1.05,3.92H38.4c-.87-1.13-1-1.74-1-3.92ZM62.62,32.1a19,19,0,0,1-5.32.61H55.21V26.87H58c2.52,0,6.79.52,8.45,2V23.56h-18c.87,1.05,1,1.74,1,3.83V41.68c0,2.18-.17,2.79-1,3.92H67.67V40.2c-2.62,2-7.67,2-9.67,2H55.21V36h2a19.38,19.38,0,0,1,5.41.7V32.1Zm26.74-7.84a32.66,32.66,0,0,0-9.5-1.48c-5.22,0-10.28,1.65-10.28,7.23,0,9.58,15.68,4.53,15.68,10.45,0,1.92-2.78,2.7-5.05,2.7a16.84,16.84,0,0,1-10.28-3v4.88a33.16,33.16,0,0,0,10,1.39c5.4,0,10.45-1.56,10.45-7.23,0-10.1-15.59-5.57-15.59-10.45,0-2,2.53-2.7,4.71-2.7,3.65,0,7.66,1.13,9.84,3.31V24.26Zm40.25-1.13c-8.45,0-14.46,4.87-14.46,11.76s5.4,11.23,13.32,11.23c8.54,0,14.46-4.7,14.46-11.67C142.93,27.66,137.53,23.13,129.61,23.13ZM129,42.82c-4.53,0-7.41-3.66-7.41-8.19s2.88-8.19,7.41-8.19,7.4,3.66,7.4,8.19S133.44,42.82,129,42.82Z"/><rect class="cls-3" width="164" height="76.75"/></g></g></svg>