<svg xmlns="http://www.w3.org/2000/svg" viewBox="0 0 164 76.75"><defs><style>.cls-1{fill:none;}</style></defs><title>uts-logo</title><g id="Layer_2" data-name="Layer 2"><g id="Layer_1-2" data-name="Layer 1"><g id="Layer_2-2" data-name="Layer 2"><g id="Layer_1-2-2" data-name="Layer 1-2"><path d="M43.28,28.41h5.2c0,.07,0,.12,0,.18V45.14A7.39,7.39,0,0,1,47,49.76a7.14,7.14,0,0,1-4.43,2.68,9.84,9.84,0,0,1-6-.49,6.76,6.76,0,0,1-4.21-5.44,9.66,9.66,0,0,1-.13-1.7q0-8,0-16.07v-.32h5.2V44.84a4.67,4.67,0,0,0,.16,1.23,2.65,2.65,0,0,0,3,2,2.74,2.74,0,0,0,2.61-2.89V28.41Z"/><path d="M71.66,44.64h4.92c0,.3,0,.59,0,.87a5.14,5.14,0,0,0,.12,1,2.24,2.24,0,0,0,1.49,1.62,4.51,4.51,0,0,0,3,0,2.32,2.32,0,0,0,1.62-2.17,2.41,2.41,0,0,0-1.43-2.54c-.83-.39-1.69-.69-2.55-1A26.35,26.35,0,0,1,75.61,41,6.51,6.51,0,0,1,72.68,38a6.92,6.92,0,0,1,5-9.71,8.85,8.85,0,0,1,5.8.61,6.3,6.3,0,0,1,3.63,4.88c.11.66.12,1.35.18,2H82.33a9,9,0,0,0,0-1,2.57,2.57,0,0,0-2.92-2.39,3.81,3.81,0,0,0-1,.22,2.22,2.22,0,0,0-1.25,2.88,2.11,2.11,0,0,0,.42.67,3.53,3.53,0,0,0,1.35.87c1.44.56,2.89,1.11,4.32,1.69a8.5,8.5,0,0,1,2.33,1.4,5.89,5.89,0,0,1,2.08,3.85,8.7,8.7,0,0,1-.43,4.23,6.3,6.3,0,0,1-3.55,3.74,9.71,9.71,0,0,1-8.34-.24,6.43,6.43,0,0,1-3.65-5.5c0-.25,0-.49,0-.73Z"/><path d="M63.37,52.29h-5.2V33H53.08V28.41H68.45V33H63.37Z"/><path d="M9.42,26.08c.39.39.8.78,1.2,1.21a.53.53,0,0,0,.41.16h7a.55.55,0,0,0,.44-.17c.39-.42.81-.82,1.2-1.21l3,3-3,3a11.71,11.71,0,0,1-.92-.94,1.23,1.23,0,0,0-1.14-.47c-.48,0-1,0-1.48,0v4.28a3.23,3.23,0,0,0-3.21,0V30.65a9.55,9.55,0,0,1-1.31,0,1.49,1.49,0,0,0-1.46.61,8.22,8.22,0,0,1-.77.79l-3-3Z"/><path d="M16.28,40.52l-1.73-1.74-7.3,7.3L5,43.83l.11-.12L12.83,36A2.36,2.36,0,0,1,16,35.72a3.8,3.8,0,0,1,.37.33l2.2,2.2-1.12,1.13Z"/><path d="M21.83,36l2.28,2.27c-.05,0-.1.11-.17.17l-7.59,7.61a2.39,2.39,0,0,1-3.59,0l-2-2-.14-.16,2.24-2.24,1.69,1.68Z"/><path d="M16.25,50.64l2.27,2.26-.13.14-2.11,2.11a2.36,2.36,0,0,1-3.35.11l-.11-.11-2.09-2.09-.16-.17c.38-.39.76-.75,1.13-1.13l1.13-1.13,1.72,1.73Z"/><path d="M23,48.43l-.53.51c-.57.57-1.14,1.15-1.72,1.72a2.37,2.37,0,0,1-3.35.05l0-.05c-.77-.75-1.52-1.51-2.26-2.25l2.25-2.25,1.68,1.7,1.7-1.71Z"/><path d="M8.31,46.1c.59.58,1.15,1.14,1.71,1.71l1.67-1.68L14,48.41l-.11.13-2,2.06a2.39,2.39,0,0,1-3.55,0l-2-2L6,48.37l1.14-1.12Z"/><path d="M14.56,26.75l-3-2.95,3-2.95,3,2.94Z"/><path d="M7.23,36.06l2.21,2.21C8.72,39,8,39.73,7.23,40.47L5,38.25Z"/><path d="M24.06,43.88l-2.18,2.18-2.2-2.21,2.18-2.18Z"/><path d="M115.2,50.67l-.06,0-.12-.22-1.86-3.58c0-.07-.12-.19-.18-.19-.36,0-.72,0-1.09,0V52h.9V48a.51.51,0,0,1,.17.21c.62,1.19,1.23,2.38,1.86,3.58,0,.06.1.17.15.17.37,0,.75,0,1.11,0V46.71h-.88Z"/><path d="M131.58,41.7a.49.49,0,0,1-.18-.2c-.62-1.2-1.25-2.39-1.86-3.59,0-.07-.1-.18-.16-.18h-1.11V43h.89V39a.49.49,0,0,1,.18.2l1.85,3.58c0,.07.1.17.16.18h1.12V37.73h-.89Z"/><path d="M102.58,32V30h.06a2.53,2.53,0,0,1,.12.23l1.86,3.55c0,.08.12.2.19.2.36,0,.72,0,1.08,0V28.76H105v4a.6.6,0,0,1-.16-.22c-.62-1.19-1.24-2.38-1.87-3.57,0-.07-.11-.18-.18-.18-.36,0-.71,0-1.08,0V34h.88Z"/><path d="M153.75,39.94h-2.07v.83h1.43a1.24,1.24,0,0,1-.86,1.37,1.37,1.37,0,0,1-1.72-.55,2.5,2.5,0,0,1,0-2.51,1.33,1.33,0,0,1,2.22,0,.23.23,0,0,0,.16.13c.29,0,.58,0,.89,0a1.27,1.27,0,0,0,0-.18,2,2,0,0,0-1.89-1.37,2.24,2.24,0,0,0-2.44,1.57,3.62,3.62,0,0,0,0,2.3A2.24,2.24,0,0,0,152.25,43a2.49,2.49,0,0,0,.69-.35l.15-.09c0,.11,0,.21.07.32s.08.12.13.12c.21,0,.42,0,.61,0,0,0,0,0,0-.07,0-.93,0-1.87,0-2.81C154,40,153.86,39.94,153.75,39.94Z"/><path d="M108.46,46.7c-.65,0-1.29,0-1.93,0l-.12,0v5.22c.81,0,1.61.06,2.39,0a2,2,0,0,0,1.83-1.68,3.82,3.82,0,0,0,0-1.9A2.11,2.11,0,0,0,108.46,46.7Zm1.11,3.72a1.06,1.06,0,0,1-.95.69c-.43,0-.86,0-1.3,0V47.55c.45,0,.9,0,1.34,0a1.09,1.09,0,0,1,.85.63,2.57,2.57,0,0,1,.06,2.23Z"/><path d="M101.27,40.45c0-.3,0-.51-.07-.72a2.21,2.21,0,0,0-2.11-2.08,2.17,2.17,0,0,0-2.45,1.68,4.52,4.52,0,0,0-.12,1.37,2.25,2.25,0,0,0,2.15,2.36,2.18,2.18,0,0,0,2.43-1.68C101.17,41.07,101.23,40.76,101.27,40.45Zm-1.18,1a1.22,1.22,0,0,1-1.23.78,1.2,1.2,0,0,1-1.21-.78,10.38,10.38,0,0,1-.27-1.1,9.45,9.45,0,0,1,.26-1.08,1.21,1.21,0,0,1,1.21-.81,1.25,1.25,0,0,1,1.25.79,2.76,2.76,0,0,1,0,2.2Z"/><path d="M136.18,37.65a2.16,2.16,0,0,0-2.43,1.67,5.26,5.26,0,0,0-.12,1.37,2.25,2.25,0,0,0,2.15,2.37,2.18,2.18,0,0,0,2.44-1.69c.07-.31.12-.62.16-.94s0-.49-.07-.69A2.21,2.21,0,0,0,136.18,37.65Zm1,3.8a1.23,1.23,0,0,1-1.25.78,1.21,1.21,0,0,1-1.21-.8,9.45,9.45,0,0,1-.26-1.08,9.64,9.64,0,0,1,.26-1.06,1.2,1.2,0,0,1,1.22-.82,1.23,1.23,0,0,1,1.24.79,2.78,2.78,0,0,1,0,2.19Z"/><path d="M148.32,39.86a2.24,2.24,0,0,0-2.16-2.21,2.15,2.15,0,0,0-2.43,1.73,5.11,5.11,0,0,0-.09,1.46,2.33,2.33,0,0,0,4.59.49c.07-.32.09-.65.14-1h0C148.33,40.19,148.33,40,148.32,39.86Zm-1.14,1.62a1.21,1.21,0,0,1-1.22.75,1.19,1.19,0,0,1-1.2-.76,9,9,0,0,1-.28-1.11,6.91,6.91,0,0,1,.27-1.11,1.19,1.19,0,0,1,1.2-.77,1.21,1.21,0,0,1,1.22.75,2.76,2.76,0,0,1,0,2.25Z"/><path d="M120.55,32h1a.27.27,0,0,1,.3.2c.23.55.48,1.1.72,1.65,0,.07.1.17.16.17.27,0,.55,0,.86,0a1.48,1.48,0,0,0-.11-.27c-.26-.59-.51-1.17-.78-1.76a.2.2,0,0,1,0-.28l.05,0a1.61,1.61,0,0,0,.58-1.83,1.57,1.57,0,0,0-1.55-1.1h-2.15V34h.88Zm0-2.39a13.83,13.83,0,0,1,1.44,0,.76.76,0,0,1,.56.82.78.78,0,0,1-.73.72c-.39,0-.78,0-1.17,0h-.1Z"/><path d="M113.65,40.72h2.43V39.9h-2.43V38.53h2.8v-.8h-3.71V43h3.72v-.81h-2.81Z"/><path d="M99.49,49a3.06,3.06,0,0,0-.41-.1c-.38-.07-.76-.11-1.13-.2s-.5-.17-.53-.49a.67.67,0,0,1,.42-.64,1.06,1.06,0,0,1,1.51.58h.88a1.23,1.23,0,0,0-.34-.95,2.28,2.28,0,0,0-3,0,1.39,1.39,0,0,0,.51,2.24,6.93,6.93,0,0,0,.75.2,7.85,7.85,0,0,1,1.05.22A.61.61,0,0,1,99.24,51a1.53,1.53,0,0,1-1.62-.06c-.06,0-.15-.12-.16-.2-.06-.3-.27-.28-.49-.27h-.51a1.34,1.34,0,0,0,.85,1.32,2.83,2.83,0,0,0,2.3,0,1.45,1.45,0,0,0,.89-1.53A1.38,1.38,0,0,0,99.49,49Z"/><path d="M128.42,32.32a1.3,1.3,0,0,0-.92-1.23,3.79,3.79,0,0,0-.66-.18c-.34-.07-.69-.11-1-.19a.54.54,0,0,1-.47-.44.66.66,0,0,1,.34-.63,1.06,1.06,0,0,1,1.46.29,1.26,1.26,0,0,1,.13.26h.89a1.26,1.26,0,0,0-.35-.94,2.26,2.26,0,0,0-3,0,1.39,1.39,0,0,0,.49,2.26,5.93,5.93,0,0,0,.83.21,5.82,5.82,0,0,1,1,.24.59.59,0,0,1,.1,1c-.51.42-1.76.35-2-.47h-.89a1.39,1.39,0,0,0,.63,1.19,2.86,2.86,0,0,0,2.78,0A1.45,1.45,0,0,0,128.42,32.32Z"/><path d="M126,39.88h-2.18V37.73H123V43h.89V40.74H126V43h.88V37.73H126Z"/><path d="M118.48,33.18h-2.79V31.75h2.41v-.83h-2.42V29.56h2.79v-.8h-3.69V34h3.7Z"/><path d="M118.31,49.7h2.42v-.82h-2.42V47.52h2.79v-.81h-3.69V52h3.7v-.81h-2.8Z"/><path d="M119.33,38.52a1.29,1.29,0,0,1,1.57.78c0,.07.11.17.18.17.26,0,.52,0,.85,0a4.06,4.06,0,0,0-.19-.59,2.33,2.33,0,0,0-4.13,0,3.8,3.8,0,0,0-.25,2.11,2.34,2.34,0,0,0,2.6,2.06,2.27,2.27,0,0,0,1.12-.43,2,2,0,0,0,.83-1.42c-.25,0-.46,0-.68,0a.29.29,0,0,0-.34.22,1.33,1.33,0,0,1-1.76.66,1.37,1.37,0,0,1-.66-.64,2.66,2.66,0,0,1,.07-2.29A1.19,1.19,0,0,1,119.33,38.52Z"/><path d="M96.72,32.9a1.9,1.9,0,0,0,3.67-.72c0-1.09,0-2.17,0-3.26a1,1,0,0,0,0-.17h-.88v3.34a1.06,1.06,0,0,1-.32.83,1,1,0,0,1-1.07.19.91.91,0,0,1-.62-.88c0-1.06,0-2.12,0-3.17v-.3H96.6s0,.09,0,.13v3.32A1.8,1.8,0,0,0,96.72,32.9Z"/><path d="M110.74,33.87a.26.26,0,0,0,.2.13c.32,0,.64,0,1,0a.29.29,0,0,0,.33-.24c.51-1.6,1-3.2,1.54-4.8a2.46,2.46,0,0,0,.07-.24c-.26,0-.48,0-.71,0s-.25.06-.3.23c-.41,1.3-.83,2.59-1.25,3.88l-.12.32-.11-.3c-.42-1.31-.85-2.61-1.28-3.92,0-.07-.09-.18-.15-.19-.27,0-.55,0-.83,0v.11Z"/><path d="M102.4,43h.9V40.73h2.44V39.9h-2.45V38.77c0-.18,0-.23.22-.23h2.61v-.81H102.4Z"/><path d="M125.77,46.69a.36.36,0,0,0-.4.22c-.34.66-.7,1.31-1.08,2a1.75,1.75,0,0,1-.14-.24c-.33-.6-.65-1.2-1-1.79,0-.07-.09-.17-.14-.17-.33,0-.66,0-1,0l.14.25c.35.58.67,1.22,1.07,1.78a3.24,3.24,0,0,1,.63,2.31,6.76,6.76,0,0,0,0,.9h.89V50a.79.79,0,0,1,.11-.39c.52-.89,1-1.77,1.58-2.66l.14-.26C126.27,46.7,126,46.71,125.77,46.69Z"/><path d="M104.6,46.69a.28.28,0,0,0-.29.18l-1,1.78a1.83,1.83,0,0,1-.15.25l-.14-.25c-.33-.59-.65-1.19-1-1.79a.36.36,0,0,0-.2-.16c-.3,0-.6,0-1,0l.15.27c.52.88,1,1.76,1.56,2.64a.89.89,0,0,1,.12.42c0,.56,0,1.12,0,1.69a1.93,1.93,0,0,0,0,.24h.91V50a.87.87,0,0,1,.11-.41c.52-.89,1-1.77,1.58-2.66a2.73,2.73,0,0,0,.13-.25Z"/><path d="M158.7,37.72c-.25,0-.56-.07-.75,0s-.26.41-.38.63l-.85,1.54-.14-.25c-.33-.59-.65-1.19-1-1.79,0-.07-.11-.16-.17-.16-.31,0-.63,0-1,0l.14.26,1.57,2.64a.88.88,0,0,1,.11.39c0,.57,0,1.14,0,1.71a2,2,0,0,0,0,.25h.89V41.15a1,1,0,0,1,.16-.59c.53-.85,1-1.72,1.54-2.57l.14-.25A1.73,1.73,0,0,0,158.7,37.72Z"/><path d="M140.39,28.74h-.86a.3.3,0,0,0-.31.18c-.32.62-.66,1.22-1,1.83,0,.06-.07.11-.12.19,0-.1-.09-.16-.13-.23-.32-.59-.65-1.2-1-1.79a.36.36,0,0,0-.21-.17c-.29,0-.59,0-.94,0L136,29c.53.89,1.06,1.77,1.58,2.66a.88.88,0,0,1,.1.35v1.74a1.93,1.93,0,0,0,0,.24h.89V32.1a.9.9,0,0,1,.12-.46c.52-.89,1-1.76,1.57-2.64C140.3,28.92,140.34,28.84,140.39,28.74Z"/><path d="M108,38.55h1.44V43h.9V38.54h1.44v-.81H108Z"/><path d="M135.05,28.76h-3.79v.8h1c.42,0,.42,0,.42.4v3.76a2.44,2.44,0,0,0,0,.27h.9V29.55h1.43Z"/><path d="M140.38,37.74h-.88V43H143v-.81h-2.61Z"/><path d="M130.34,28.75h-.88V34h.88Z"/><path d="M108.09,28.75h-.87V34h.87Z"/></g></g><rect class="cls-1" width="164" height="76.75"/></g></g></svg>