<svg xmlns="http://www.w3.org/2000/svg" viewBox="0 0 164 76.75"><defs><style>.cls-1{fill:#fff;}.cls-2{fill:none;}</style></defs><title>vanderbilt-logo</title><g id="Layer_2" data-name="Layer 2"><g id="Layer_1-2" data-name="Layer 1"><g id="Layer_2-2" data-name="Layer 2"><g id="Layer_1-2-2" data-name="Layer 1-2"><path d="M69.47,2.88h29v29h-29ZM85.38,8.41c.51.05,1,.06,1.42.13.82.13,1,.67.53,1.35-.27.37-.59.7-.83,1.09A4.8,4.8,0,0,0,86,12a.53.53,0,0,0,.17.62.5.5,0,0,0,.63-.07c.38-.26.74-.54,1.12-.79a3.64,3.64,0,0,1,.77-.37.52.52,0,0,1,.7.31,1.46,1.46,0,0,1,.07.82,3.74,3.74,0,0,1-.58,1.1c-.39.52-.86,1-1.25,1.49a2.19,2.19,0,0,0-.35.76c0,.16,0,.45.13.51a.83.83,0,0,0,.58,0c.23-.09.43-.26.65-.36.47-.2.79,0,.8.52a2.24,2.24,0,0,1-.67,1.53c-.38.44-.79.88-1.16,1.33a2.23,2.23,0,0,0-.41,2.46,9,9,0,0,1,.3,1h-1c-.15-.38-.29-.74-.42-1.09s-.27-.71-.39-1.08a1.18,1.18,0,0,0-.76-.79c-.16-.06-.33-.1-.49-.17a.72.72,0,0,0-.78.13,8.87,8.87,0,0,1-.81.55.49.49,0,0,1-.63,0c-.22-.2-.12-.42,0-.62a5,5,0,0,0,.63-2.06c0-.24,0-.47.32-.53s.43.14.54.35a6.86,6.86,0,0,1,.32.79c.22.59.31.65,1,.67-.22-.58-.44-1.15-.65-1.72a2.79,2.79,0,0,0-1.31-1.52c-.33-.19-.67-.36-1-.52A4.15,4.15,0,0,1,80.5,14.1a2.23,2.23,0,0,1-.4-.8.67.67,0,0,1,.72-.86,7,7,0,0,1,1.27.28c.24.06.46.2.7.26.4.1.65-.14.52-.53a2.3,2.3,0,0,0-.45-.77c-.36-.37-.79-.66-1.17-1a6.27,6.27,0,0,1-.94-1,.68.68,0,0,1,.5-1.14c.4-.07.82-.08,1.3-.13V7.32c-1-.12-10.41-.07-10.8.06v1l.47,0A2.15,2.15,0,0,1,74,9.27a10.19,10.19,0,0,1,1,1.75c.67,1.6,1.28,3.22,1.91,4.83q1.69,4.35,3.4,8.68c.37,1,.76,1.91,1.14,2.87h5.24c.09-.22.18-.43.26-.64l6.27-16a6.61,6.61,0,0,1,.72-1.3,2.13,2.13,0,0,1,1.76-.91l.54,0V7.33c-.86-.12-10.37-.08-10.78,0Z"/><path class="cls-1" d="M85.38,8.41v-1c.41-.11,9.91-.16,10.78,0V8.5l-.54,0a2.13,2.13,0,0,0-1.76.91,6.61,6.61,0,0,0-.72,1.3q-3.15,8-6.27,16c-.08.21-.17.42-.26.64H81.37c-.38-1-.77-1.91-1.14-2.87q-1.71-4.34-3.4-8.68c-.63-1.61-1.24-3.23-1.91-4.83a10.19,10.19,0,0,0-1-1.75,2.15,2.15,0,0,0-1.75-.81l-.47,0v-1c.39-.13,9.75-.18,10.8-.06V8.41c-.48.05-.9.06-1.3.13-.64.13-.86.61-.5,1.14a6.3,6.3,0,0,0,.94,1c.38.35.81.65,1.17,1a2.14,2.14,0,0,1,.45.77c.13.39-.12.63-.52.53-.24-.07-.46-.2-.7-.26a6.28,6.28,0,0,0-1.27-.28.67.67,0,0,0-.72.86,2.41,2.41,0,0,0,.4.8,4.22,4.22,0,0,0,1.66,1.09c.34.17.69.33,1,.52a2.87,2.87,0,0,1,1.32,1.53L85.13,19c-.73,0-.82-.09-1-.68a7.75,7.75,0,0,0-.33-.79c-.11-.2-.27-.4-.54-.34s-.3.28-.32.53a5,5,0,0,1-.63,2.06c-.12.2-.22.41,0,.62a.47.47,0,0,0,.63,0,5.41,5.41,0,0,0,.8-.55.74.74,0,0,1,.79-.13c.16.07.33.11.49.18a1.18,1.18,0,0,1,.76.79c.12.36.25.71.39,1.07s.27.71.42,1.1h1a8.49,8.49,0,0,0-.3-1,2.23,2.23,0,0,1,.4-2.45c.38-.46.78-.89,1.17-1.34a2.29,2.29,0,0,0,.67-1.53c0-.51-.33-.72-.8-.52-.22.1-.42.28-.65.36a.83.83,0,0,1-.58,0c-.11-.05-.16-.34-.13-.5a2,2,0,0,1,.35-.77c.39-.51.86-1,1.25-1.49a3.74,3.74,0,0,0,.58-1.1,1.38,1.38,0,0,0-.07-.82.53.53,0,0,0-.7-.32,3.6,3.6,0,0,0-.76.38c-.39.25-.75.53-1.12.79-.2.14-.42.23-.63.07A.51.51,0,0,1,86,12a4.76,4.76,0,0,1,.46-1c.24-.39.56-.72.83-1.09.5-.69.3-1.22-.53-1.35C86.35,8.47,85.89,8.46,85.38,8.41ZM82.6,17.35c-.42-.08-.8-.18-1.19-.22a1.39,1.39,0,0,0-1.23.84,1.27,1.27,0,0,0,.61,1.46c.34.17.69.28,1,.43a4.86,4.86,0,0,0,.76-2.51Z"/><path d="M97.73,53.56c-.79-1.05-1.6-2.08-2.41-3.12a.33.33,0,0,1,0-.1c.23-.15.46-.29.67-.45A2.81,2.81,0,0,0,97.14,47,2.34,2.34,0,0,0,95,45.12,26.44,26.44,0,0,0,92.33,45c-.6,0-1.21,0-1.81,0H89.16c0,.12,0,.24,0,.37a1.45,1.45,0,0,0,.07.26l.43,0c.52.05.71.24.75.75,0,.14,0,.27,0,.41v6.58c0,.85,0,.91-.9,1.07l-.17,0s-.06,0-.11.1,0,.29,0,.45h4.58c0-.23,0-.43,0-.65h-.57c-.5,0-.74-.2-.75-.67,0-1,0-1.94,0-2.93a1.08,1.08,0,0,1,1.36.55c.65,1,1.36,1.93,2,2.9A1.81,1.81,0,0,0,97,55a16,16,0,0,0,2.31.07c0-.27,0-.47,0-.66C98.33,54.34,98.27,54.29,97.73,53.56Zm-2.9-4.62a1.53,1.53,0,0,1-1.07.86,3.37,3.37,0,0,1-1.27,0V45.93A1.86,1.86,0,0,1,95,47.15a2.69,2.69,0,0,1-.16,1.79Z"/><path d="M73.2,45.56A9.36,9.36,0,0,0,68.88,45c-.59,0-1.17,0-1.76,0H65.61c0,.25,0,.43,0,.61l.28,0c.84.05.94.16.94,1v6c0,.37,0,.73,0,1.09s-.16.61-.61.65l-.5.08v.61h.51c1.37,0,2.75,0,4.12,0a5.4,5.4,0,0,0,3-.64A5,5,0,0,0,76,49.63,4.47,4.47,0,0,0,73.2,45.56Zm.34,6.27a3.2,3.2,0,0,1-3.23,2.33,5.15,5.15,0,0,1-.68,0,.67.67,0,0,1-.69-.69,1.77,1.77,0,0,1,0-.23V46.3c0-.12,0-.23,0-.42a10.14,10.14,0,0,1,2.15.1,3,3,0,0,1,2.37,2.14,6,6,0,0,1,.06,3.71Z"/><path d="M108.52,50.09c-.36-.2-.75-.35-1.2-.56l.64-.33a2.19,2.19,0,0,0,.54-3.35,2.67,2.67,0,0,0-1.58-.75,8.64,8.64,0,0,0-1.24-.1h-4.52v.61l.25,0c.88.06,1,.15,1,1v6.7c0,.14,0,.27,0,.4a.57.57,0,0,1-.62.61c-.2,0-.4,0-.61,0V55h1.34c1.24,0,2.48,0,3.72,0a3.65,3.65,0,0,0,2.8-1.2A2.52,2.52,0,0,0,108.52,50.09Zm-4-4.28c.81,0,1.65-.15,2.14.63a2,2,0,0,1,0,2.12c-.49.83-1.35.68-2.18.66Zm3,6.76a1.91,1.91,0,0,1-1.87,1.67c-1,0-1.2-.12-1.2-1.16v-3a12.47,12.47,0,0,1,1.77.21,1.93,1.93,0,0,1,1.31,2.31Z"/><path d="M59.36,45.63c.19,0,.32,0,.45,0a1,1,0,0,1,1,1c0,.09,0,.19,0,.28l0,3.32c0,.49,0,1,0,1.47l-.12,0-.57-.64L55,45.3A.81.81,0,0,0,54.3,45c-.72,0-1.44,0-2.16,0a3.29,3.29,0,0,0-.38,0c0,.19,0,.37,0,.51a3.36,3.36,0,0,1,.81.26,1.2,1.2,0,0,1,.53,1.13c0,2.1-.05,4.2-.08,6.29,0,.8-.26,1.08-1.06,1.23l-.28,0V55h3.94c0-.24,0-.43,0-.65H55a.8.8,0,0,1-.86-.75,4.23,4.23,0,0,1-.08-.79c0-1.59,0-3.17,0-4.76v-.58a2.33,2.33,0,0,1,.3.22l2.67,3c1.29,1.43,2.59,2.85,3.85,4.3a.8.8,0,0,0,.93.24c0-.76-.07-1.48-.07-2.2,0-1,.06-2.06.07-3.09s0-2.06,0-3.09.31-1.17,1.21-1.24c0,0,.06,0,.12-.06V45H59.31C59.33,45.26,59.34,45.44,59.36,45.63Z"/><path d="M85.68,53.21a1.17,1.17,0,0,1-1,.86,18.28,18.28,0,0,1-2.22,0c-.56,0-.72-.3-.73-.9,0-.77,0-1.53,0-2.29,0-.19,0-.38,0-.63H83.4c.56,0,.78.2.89.76,0,.18,0,.36.09.57l.55-.16V48.24h-.5c0,.16-.09.29-.11.42a.69.69,0,0,1-.66.61c-.64,0-1.28,0-1.91,0a15.88,15.88,0,0,1,0-3.41c.78,0,1.58,0,2.37.12.64.06.82.3.93,1l.07.45.56-.17V45l-3.62.1a31.56,31.56,0,0,0-3.64,0v.58l.53,0c.46.07.59.18.67.63a1.35,1.35,0,0,1,0,.4c0,2.23,0,4.47,0,6.7,0,.93-.21,1.06-1,1.09,0,0-.06,0-.1.06V55h7.52c.13-.79.25-1.56.38-2.35l-.57-.15C85.83,52.78,85.75,53,85.68,53.21Z"/><path d="M42.32,53.8c.21-.72.45-1.44.69-2.18h3.05c.24.76.5,1.52.73,2.28.09.3,0,.4-.32.48l-.44.1s-.06.05-.11.09,0,.3,0,.47H50V54.4c-.37,0-.7,0-.88-.36a3.54,3.54,0,0,1-.23-.53C48,51,47.17,48.56,46.29,46.08l-.44-1.18L44.34,45c-.28.81-.56,1.6-.84,2.39l-2.15,6.15a1.14,1.14,0,0,1-1.08.86l-.23,0V55h3.44V54.5l-.79-.13C42.35,54.3,42.22,54.13,42.32,53.8Zm2.13-6.6h.11c.36,1.08.71,2.17,1.09,3.34H43.37C43.74,49.39,44.1,48.3,44.45,47.2Z"/><path d="M51.34,64.77q0,3.27,0,6.53c0,.16,0,.32,0,.59l-5.66-8.38-1.21.4v9.77h1.07V69.6c0-1.34,0-2.67,0-4,2,2.75,3.84,5.53,5.73,8.28l1.15-.34c0-3.28.07-6.53.1-9.83h-1C51.4,64.07,51.34,64.42,51.34,64.77Z"/><path d="M36.82,45l0,.3a2.89,2.89,0,0,0,0,.29l.42,0c.68.05.78.18.59.82,0,.15-.09.29-.14.43-.54,1.37-1.08,2.73-1.61,4.1l-.54,1.29c-.1-.22-.17-.35-.23-.49-.52-1.31-1-2.63-1.55-3.94-.19-.5-.4-1-.58-1.49s-.12-.67.46-.72l.46-.06c0-.21,0-.37,0-.56H29.65c0,.22,0,.4,0,.64.82-.14,1.12.35,1.37,1,1,2.42,2,4.83,3,7.25.19.47.39.94.59,1.41h.66l.2-.46,3.42-8.3c.2-.5.41-1,1.09-.92,0-.23,0-.4,0-.57Z"/><path d="M129,45q-.1,1.11-.21,2.25h.61c0-.18.09-.36.13-.54.13-.47.31-.65.8-.67.7,0,1.4,0,2.16,0,0,.17,0,.26,0,.35v7.16a2.62,2.62,0,0,1,0,.28.59.59,0,0,1-.64.59c-.24,0-.48,0-.73,0V55H136c0-.15,0-.26,0-.37a2,2,0,0,0,0-.24l-.46,0c-.66,0-.88-.22-1-.88v-7c0-.16,0-.33,0-.53.68,0,1.33,0,2,0a.83.83,0,0,1,.84.78c0,.16.07.32.12.53l.54-.15c0-.76.07-1.45.1-2.19Z"/><path d="M94.92,67.9a2.66,2.66,0,0,0-.25-3.7,3.44,3.44,0,0,0-2.09-.64c-.92,0-1.83,0-2.74.08a1.63,1.63,0,0,0-.37.09c0,3.32-.09,6.63,0,9.94H90.6V69.32a1.57,1.57,0,0,1,2,.67c.67.92,1.33,1.85,2,2.78l.82,1.1,1-.51L93.22,69A4.13,4.13,0,0,0,94.92,67.9Zm-2.69.35c-.51,0-1,0-1.58,0V64.62a2.2,2.2,0,0,1,.41-.07c.55,0,1.1,0,1.65,0a1.6,1.6,0,0,1,1.6,1.28,1.84,1.84,0,0,1-.84,2.06,2.45,2.45,0,0,1-1.24.36Z"/><path d="M127.6,52.84A1.77,1.77,0,0,1,126,54.08a10.85,10.85,0,0,1-1.71,0c-.46,0-.64-.25-.64-.71,0-2.38,0-4.77,0-7.15,0-.42.12-.54.53-.59l.74,0V45h-4.6c0,.23,0,.41,0,.58l.22,0c.89.07,1,.2,1,1.08v6.53a3.53,3.53,0,0,1,0,.46c-.05.45-.24.63-.7.68l-.51,0v.63h7.45l.48-2.5h-.62A3,3,0,0,0,127.6,52.84Z"/><path d="M38.7,63.7H37.62c0,.17,0,.32,0,.47,0,1.85,0,3.7,0,5.55a7.86,7.86,0,0,1-.11,1.19,2.16,2.16,0,0,1-1.5,1.85,3.71,3.71,0,0,1-2.14,0,1.74,1.74,0,0,1-1.28-1.28,5.72,5.72,0,0,1-.19-1.23c0-1.12,0-2.25,0-3.38,0-.64,0-1.29.07-1.94,0-.39,0-.79,0-1.21H31.28c0,.5-.1,1-.1,1.41,0,1.76,0,3.51,0,5.27a4.7,4.7,0,0,0,.21,1.4,2.59,2.59,0,0,0,1.79,1.85,5.54,5.54,0,0,0,2.65.15,2.9,2.9,0,0,0,2.65-2.6,12.93,12.93,0,0,0,.2-2.15c0-1.6,0-3.21,0-4.81Z"/><path d="M83.48,63.7H78.14c0,3.36-.06,6.65-.09,10,1.84,0,3.64,0,5.43,0v-1H79.24c0-1.23,0-2.4,0-3.63h4.18V68H79.3v-3.3h4.22v-.53C83.51,64,83.49,63.87,83.48,63.7Z"/><path d="M112.53,45.61l.48,0c.58.07.73.23.75.8v7c0,.12,0,.23,0,.35a.57.57,0,0,1-.62.6l-.64,0c0,.24,0,.42,0,.62H117v-.62l-.31,0h-.28c-.42,0-.58-.18-.63-.59a3.49,3.49,0,0,1,0-.46V46.69c0-.13,0-.26,0-.4a.58.58,0,0,1,.56-.61c.22,0,.44-.06.67-.08V45h-4.48Z"/><path d="M68.9,72l-.05,0a.09.09,0,0,1-.07,0l-1.61-4.2-1.65-4.28-1.13.37c1.3,3.31,2.57,6.57,3.84,9.82h1.1l4-9.83-1.08-.34C71.15,66.37,70,69.16,68.9,72Z"/><path d="M103.45,64.55a3.59,3.59,0,0,1,2.28.32l.43.17.51-.83a5,5,0,0,0-4.25-.39,2.45,2.45,0,0,0-1.49,2.36,2.61,2.61,0,0,0,1.58,2.39c.5.27,1,.5,1.52.78a4,4,0,0,1,.8.54,1.62,1.62,0,0,1,.44,1.83,1.56,1.56,0,0,1-1.41,1.09,4.32,4.32,0,0,1-2.13-.26l-.66-.28-.53.86a5.57,5.57,0,0,0,4.3.5,2.72,2.72,0,0,0,1.06-4.41,5.91,5.91,0,0,0-1.3-.9c-.58-.34-1.19-.61-1.76-1a1.36,1.36,0,0,1-.65-1.57A1.53,1.53,0,0,1,103.45,64.55Z"/><path d="M133.71,68l-3.09-4.52-1,.53c1.07,1.58,2.09,3.1,3.14,4.6a1.79,1.79,0,0,1,.37,1.16c0,1.14,0,2.29,0,3.43a4.75,4.75,0,0,0,0,.51h1.07c0-.19,0-.32,0-.45,0-1.26,0-2.52,0-3.78a1.32,1.32,0,0,1,.28-.83c.91-1.23,1.79-2.47,2.68-3.71l.69-.94-1-.5Z"/><path d="M118.91,63.76v.94h3v3c0,1,0,2,0,3s-.11,2,0,2.92H123c0-.37,0-.69,0-1,0-2.06,0-4.13,0-6.19,0-.58.07-1.16.11-1.79h3v-.93A70.21,70.21,0,0,0,118.91,63.76Z"/><path d="M58.33,73.67h1.15c0-3.35.07-6.65.1-10H58.43C58.4,67.06,58.36,70.34,58.33,73.67Z"/><path d="M113.51,63.71h-1.07c-.12.93-.13,9.46,0,10h1.06C113.45,70.33,113.58,67,113.51,63.71Z"/><path d="M82.6,17.35a4.86,4.86,0,0,1-.76,2.51c-.36-.15-.71-.26-1-.43A1.27,1.27,0,0,1,80.18,18a1.39,1.39,0,0,1,1.23-.84C81.8,17.17,82.18,17.27,82.6,17.35Z"/></g></g><rect class="cls-2" width="164" height="76.75"/></g></g></svg>