<svg xmlns="http://www.w3.org/2000/svg" viewBox="0 0 163.6 76.53"><defs><style>.cls-1{fill:none;}.cls-2{opacity:0.85;}.cls-3{fill:#020202;}.cls-4{fill:#d3000c;}</style></defs><title>verizon-logo</title><g id="Layer_2" data-name="Layer 2"><g id="Layer_1-2" data-name="Layer 1"><g id="Layer_2-2" data-name="Layer 2"><g id="Top-nav"><rect class="cls-1" width="163.6" height="76.53"/><g class="cls-2"><path class="cls-3" d="M49.58,47.79a19.78,19.78,0,0,1-1,2.2,9.73,9.73,0,0,1-6.11,4.32,12.36,12.36,0,0,1-9.1-1,10.26,10.26,0,0,1-5.3-7.88,12.37,12.37,0,0,1,.59-6.49,10.29,10.29,0,0,1,7.91-6.76,11.67,11.67,0,0,1,5.78.25,9.73,9.73,0,0,1,6.43,6,17,17,0,0,1,1.09,5.9c0,.83,0,.83-.84.83H35.22c-.93,0-1,0-.74.92A4.68,4.68,0,0,0,39,49.92,4,4,0,0,0,43,48a.72.72,0,0,1,.53-.31h5.61A2.16,2.16,0,0,1,49.58,47.79ZM38.75,40.88h2.87c1.75,0,1.77,0,1.11-1.65-1.06-2.62-3.66-3.11-5.82-2.15a4.64,4.64,0,0,0-2.44,3.25c-.13.42.06.57.5.57C36.23,40.86,37.49,40.88,38.75,40.88Z"/><path class="cls-3" d="M116.69,43.39a11.45,11.45,0,0,1-22.89,0,11.45,11.45,0,0,1,22.89,0Zm-16.37,0a31,31,0,0,0,.68,3.32,4.38,4.38,0,0,0,8.06.9,9.33,9.33,0,0,0,0-8.57,4,4,0,0,0-4-2.23,4.07,4.07,0,0,0-3.77,2.35A11,11,0,0,0,100.32,43.39Z"/><path class="cls-3" d="M124.63,35.37c.12-.15.24-.29.35-.44a7.85,7.85,0,0,1,7.91-2.85,7.1,7.1,0,0,1,5.55,5.66,10.46,10.46,0,0,1,.22,2.37V53.59a.58.58,0,0,1-.38.45h-5.79c-.47,0-.42-.36-.41-.66v-12a4.1,4.1,0,0,0-.88-2.84,3.65,3.65,0,0,0-5.16,0,3.46,3.46,0,0,0-.74,1,5.47,5.47,0,0,0-.61,2.57V53.37c0,.57-.15.74-.72.72h-5.18c-.51,0-.7-.11-.7-.67v-20c0-.83,0-.83.85-.83h4.88c.49,0,.65.16.64.63v2.15Z"/><path class="cls-3" d="M83.17,48.8a3.56,3.56,0,0,0,.47.1h9.15c.6,0,.82.16.8.79v3.72c0,.48-.1.68-.64.68H76c-.59,0-.84-.14-.81-.78V49.65a1.54,1.54,0,0,1,.35-.92c3.11-3.5,6.25-7,9.38-10.49a5.32,5.32,0,0,0,.37-.46H75.87c-.6,0-.77-.18-.75-.77V33.23c0-.51.17-.66.68-.66H92.33c.58,0,.79.13.76.75-.06,1.2,0,2.4,0,3.6a1.66,1.66,0,0,1-.46,1.27L83.44,48.41C83.36,48.51,83.29,48.62,83.17,48.8Z"/><path class="cls-3" d="M7.3,32.61a4,4,0,0,0,.47-.07h5.67a.7.7,0,0,1,.8.57C15.1,36,16,38.85,16.83,41.72c.44,1.48.92,3,1.51,4.46.11-.27.23-.53.31-.8Q20,40.85,21.39,36.3c.31-1,.62-2,.92-3.08a.82.82,0,0,1,.92-.68h5.24c.64,0,.68.09.48.67-.85,2.38-1.68,4.78-2.51,7.17l-2.6,7.46c-.62,1.77-1.24,3.55-1.84,5.34-.29.87-.26.87-1.22.87H15.41a.79.79,0,0,1-.9-.64v0c-.7-2.17-1.47-4.33-2.22-6.48L9.86,40q-1.2-3.44-2.42-6.87C7.39,33,7.36,32.83,7.3,32.61Z"/><path class="cls-3" d="M57.83,36a3.12,3.12,0,0,0,.34-.47,6.13,6.13,0,0,1,6.12-3.06c.48.06.62.26.61.71v4.57c0,.49-.17.56-.62.52a5.61,5.61,0,0,0-4.65,1.3,4.7,4.7,0,0,0-1.55,3.34c-.1,2.77-.08,5.53-.11,8.3v2.37c0,.38-.13.51-.49.51H51.86c-.43,0-.53-.18-.53-.59V33.31c0-.57.17-.75.73-.74h5c.47,0,.62.16.61.6V36Z"/><path class="cls-3" d="M73.34,43.32V53.45c0,.51-.2.62-.65.61H67.26c-.47,0-.58-.16-.58-.6V33.25c0-.51.11-.73.67-.72h5.37c.51,0,.61.19.61.65Q73.35,38.25,73.34,43.32Z"/><path class="cls-4" d="M145,39l2.28-4.82,4.47-9.6c.37-.81.74-1.62,1.13-2.42.06-.13.21-.31.32-.31h3l-.27.64q-2.7,5.82-5.42,11.64c-1.21,2.59-2.52,5.13-3.61,7.77a2.12,2.12,0,0,1-2.48,1.48,1.33,1.33,0,0,1-1.34-.91c-1.37-3-2.79-6-4.2-9-.36-.74-.32-.82.49-.83h1.77a.89.89,0,0,1,.92.61c.81,1.86,1.67,3.7,2.52,5.54l.15.32Z"/><path class="cls-3" d="M69.93,30.79H67.25c-.45,0-.55-.16-.55-.57V25.46c0-.42.08-.62.58-.61h5.48c.46,0,.6.15.59.6v4.7c0,.45-.11.66-.62.64h-2.8Z"/></g></g></g></g></g></svg>