<svg xmlns="http://www.w3.org/2000/svg" xmlns:xlink="http://www.w3.org/1999/xlink" viewBox="0 0 164 76.75"><defs><style>.cls-1{fill:none;}.cls-2{clip-path:url(#clip-path);}.cls-3{fill:#04958e;}.cls-4{fill:#1c2c5b;}.cls-5{fill:#fff;}</style><clipPath id="clip-path"><rect class="cls-1" x="3.2" y="29.86" width="157.61" height="17.03"/></clipPath></defs><title>westjet-logo</title><g id="Layer_2" data-name="Layer 2"><g id="Layer_1-2" data-name="Layer 1"><g class="cls-2"><path id="path12" class="cls-3" d="M96.28,31.72,93,39a6,6,0,0,1-5,3.06,19.21,19.21,0,0,1-3.12-.22l-.85,2c1.18.1,2.72.25,4.29.25,7.22,0,10.68-2.4,11.51-4.37l3.55-8Z"/></g><g class="cls-2"><polygon id="polygon14" class="cls-3" points="122.11 35.34 111.07 35.34 111.87 33.53 123.57 33.53 123.57 33.53 128.64 33.53 125.55 40.88 132.66 40.88 135.75 33.53 142.32 33.53 143.09 31.72 124.29 31.72 122.83 31.72 105.48 31.72 101.63 40.88 120.86 40.88 121.58 39.15 109.47 39.15 110.34 37.07 121.39 37.07 122.11 35.34"/></g><g class="cls-2"><polygon id="polygon16" class="cls-4" points="32.26 29.86 25.18 37.73 25.22 31.64 15.99 31.64 10.6 37.42 10.63 31.64 3.2 31.64 5.32 41.02 12.83 41.02 19.46 33.81 19.54 33.81 20.38 41.02 27.81 41.02 36.65 32.47 33.06 41.02 52.74 41.02 53.48 39.16 41.07 39.16 41.97 37.12 53.28 37.12 54.03 35.34 42.72 35.34 43.54 33.49 55.51 33.49 56.25 31.64 37.51 31.64 39.34 29.86 32.26 29.86"/></g><g class="cls-2"><path id="path18" class="cls-4" d="M74,31.64c-1.45-.11-3.14-.17-4.87-.17-5.48,0-12.16.62-13.11,2.88-1.43,3.41,11.94,2.31,11.21,4.06-.32.75-2.58.91-4.89.91a38,38,0,0,1-7.25-.62l-1.5,2.07a75.59,75.59,0,0,0,8,.41c6.07,0,12.29-.66,13.31-3.09,1.43-3.39-11.91-2.37-11.28-3.89.35-.82,3.42-.87,5.26-.87a36.06,36.06,0,0,1,5.89.43l.18-.27h4.54L76.26,41h7.28l3.16-7.53h6.73l.78-1.85H74Z"/></g><g class="cls-2"><polygon id="polygon20" class="cls-5" points="159.63 31.67 155.76 40.9 141.66 40.9 145.54 31.68 159.63 31.67"/></g><g class="cls-2"><polygon id="polygon22" class="cls-3" points="159.52 31.68 145.54 31.68 143.84 35.72 159.52 31.68"/></g><g class="cls-2"><polygon id="polygon24" class="cls-3" points="149.66 40.9 155.76 40.9 159.6 31.76 149.66 40.9"/></g><g class="cls-2"><polygon id="polygon26" class="cls-4" points="143.8 35.8 141.66 40.9 149.52 40.9 155.04 34.16 143.8 35.8"/></g><rect class="cls-1" width="164" height="76.75"/></g></g></svg>