<svg xmlns="http://www.w3.org/2000/svg" viewBox="0 0 164 76.75"><defs><style>.cls-1{fill:#fdfeff;}.cls-2{fill:#00b4ed;}.cls-3{fill:none;}</style></defs><title>xero-logo</title><g id="Layer_2" data-name="Layer 2"><g id="Layer_1-2" data-name="Layer 1"><path class="cls-1" d="M48.27,39.4h-.08v-2h.08Z"/><path class="cls-2" d="M48.27,39.4v-2a3.11,3.11,0,0,0,0-.61.11.11,0,0,0,0-.11c.06-.61.11-1.23.17-1.84a30.31,30.31,0,0,1,.81-4.63A33.82,33.82,0,0,1,67.39,7.89a33,33,0,0,1,8.37-2.78,34.38,34.38,0,0,1,4.06-.51,31,31,0,0,1,4.09,0,33.81,33.81,0,0,1,27.8,17.61,33.57,33.57,0,0,1,4,13.1,34.53,34.53,0,0,1,.14,3.67,35,35,0,0,1-.36,4.33A33.79,33.79,0,0,1,88.78,71.54a37.23,37.23,0,0,1-4.33.59c-1.09.07-2.19.11-3.29.08a36.32,36.32,0,0,1-4.78-.47A33.9,33.9,0,0,1,49.23,46.3a32.48,32.48,0,0,1-.79-4.9C48.34,40.7,48.32,40.05,48.27,39.4Zm24.3-.29a.65.65,0,0,1,.34,0H83.34a2.31,2.31,0,0,0,1.09-.27,1.73,1.73,0,0,0,1-1.48,3.37,3.37,0,0,0-.19-1.14,7.27,7.27,0,0,0-2.67-3.91,7.41,7.41,0,0,0-6.19-1.42,7.16,7.16,0,0,0-4.25,2.55,7.42,7.42,0,0,0-1.74,4.23,7.14,7.14,0,0,0,.22,2.6,7.49,7.49,0,0,0,3.16,4.36,7.21,7.21,0,0,0,4.86,1.22A7.43,7.43,0,0,0,84,42.78a1.45,1.45,0,0,0,.24-.52,1.1,1.1,0,0,0-.48-1.15,1,1,0,0,0-1.24.18,3,3,0,0,0-.31.39,5.24,5.24,0,0,1-5.15,2,5.42,5.42,0,0,1-4.21-3.42A4.17,4.17,0,0,1,72.57,39.11Zm35.6-.83a7.57,7.57,0,1,0-7.6,7.6,7.57,7.57,0,0,0,7.6-7.6h0Zm-51.6-7.53a1,1,0,0,0-1.16.81,1,1,0,0,0,.41,1l1.75,1.76,3.75,3.8c.18.18.2.15,0,.34l-.14.14-5.34,5.34-.21.22a1,1,0,0,0-.1,1.19,1.08,1.08,0,0,0,1.09.49,1.4,1.4,0,0,0,.65-.39L62.73,40c.25-.24.19-.25.43,0l5.41,5.38.23.23a1,1,0,0,0,1.63-1.16,1.32,1.32,0,0,0-.36-.48L64.66,38.5c-.25-.25-.24-.18,0-.43L70,32.68a2.69,2.69,0,0,0,.27-.32,1,1,0,0,0-1.17-1.53,1.13,1.13,0,0,0-.52.34l-5.4,5.41-.14.13c-.07.09-.13.08-.2,0l-.15-.16L58,31.8l-.76-.69A1,1,0,0,0,56.57,30.75Zm33,1a.89.89,0,0,1-.14-.25,1,1,0,0,0-1.34-.45.89.89,0,0,0-.29.22,1.11,1.11,0,0,0-.29.89V44.88a1,1,0,0,0,1.12.86l.15,0a1,1,0,0,0,.79-1.13V36.7a11.06,11.06,0,0,1,.12-1.82A2,2,0,0,1,91,33.17a3,3,0,0,1,.67-.19,6.65,6.65,0,0,1,1-.11,1,1,0,0,0,.93-.8,1,1,0,0,0-.73-1.21.63.63,0,0,0-.27,0,4.48,4.48,0,0,0-3,.87Z"/><path class="cls-1" d="M48.29,36.63a.11.11,0,0,1,0,.11S48.24,36.67,48.29,36.63Z"/><path class="cls-1" d="M72.57,39.11a4,4,0,0,0,.29,1.12,5.42,5.42,0,0,0,4.21,3.42,5.24,5.24,0,0,0,5.15-2,3,3,0,0,1,.31-.39,1,1,0,0,1,1.21-.15,1.11,1.11,0,0,1,.52,1.14,1.45,1.45,0,0,1-.24.52,7.43,7.43,0,0,1-5.35,3.07,7.21,7.21,0,0,1-4.86-1.22,7.49,7.49,0,0,1-3.16-4.36,7.14,7.14,0,0,1-.22-2.6,7.42,7.42,0,0,1,1.74-4.23,7.16,7.16,0,0,1,4.25-2.55,7.4,7.4,0,0,1,6.15,1.43,7.28,7.28,0,0,1,2.6,3.91,3.37,3.37,0,0,1,.19,1.14,1.73,1.73,0,0,1-1,1.48,2.31,2.31,0,0,1-1.09.27H72.88A.55.55,0,0,0,72.57,39.11ZM72.69,37H83.25a5.43,5.43,0,0,0-10.56,0Z"/><path class="cls-1" d="M108.14,38.32a7.57,7.57,0,1,1-7.57-7.61,7.57,7.57,0,0,1,7.57,7.61Zm-2.13,0a5.44,5.44,0,1,0-5.44,5.44h.19A5.47,5.47,0,0,0,106,38.29Z"/><path class="cls-1" d="M56.57,30.75a1,1,0,0,1,.68.31l.75.74,4.76,4.75.15.16c.07.08.13.09.2,0l.14-.13,5.32-5.41a1.13,1.13,0,0,1,.52-.34,1,1,0,0,1,1.17,1.53,2.69,2.69,0,0,1-.27.32l-5.34,5.43c-.24.25-.25.18,0,.43L70.06,44a1.32,1.32,0,0,1,.36.48,1,1,0,0,1-1.63,1.16h0l-.22-.27L63.17,40c-.24-.25-.18-.24-.43,0l-5.46,5.47a1.4,1.4,0,0,1-.65.39,1.06,1.06,0,0,1-1.06-.49,1,1,0,0,1,.1-1.19l.21-.22,5.34-5.34.14-.14c.19-.19.17-.16,0-.34l-3.79-3.8-1.8-1.76a1,1,0,0,1,.75-1.8Z"/><path class="cls-1" d="M89.57,31.7a4.48,4.48,0,0,1,3-.87,1,1,0,0,1,1,1,1.24,1.24,0,0,1,0,.27,1,1,0,0,1-.93.8,6.65,6.65,0,0,0-1,.11,3,3,0,0,0-.67.19,2,2,0,0,0-1.26,1.71,10.08,10.08,0,0,0-.14,1.82v7.88a1,1,0,0,1-.77,1.08A1,1,0,0,1,87.56,45a.32.32,0,0,1,0-.14V32.11a1.11,1.11,0,0,1,.29-.89,1,1,0,0,1,1.41-.06,1.06,1.06,0,0,1,.22.29A1.15,1.15,0,0,0,89.57,31.7Z"/><path class="cls-2" d="M72.66,37a5.43,5.43,0,0,1,10.56,0C83,37,72.94,37.05,72.66,37Z"/><path class="cls-2" d="M106,38.29a5.38,5.38,0,1,1,0-.12Zm-3.56,0a1.88,1.88,0,1,0-1.88,1.88,1.88,1.88,0,0,0,1.88-1.88h0Z"/><path class="cls-1" d="M102.45,38.3a1.88,1.88,0,1,1-1.88-1.89,1.88,1.88,0,0,1,1.88,1.89Z"/><rect class="cls-3" width="164" height="76.75"/></g></g></svg>