<?xml version="1.0" encoding="utf-8"?>
<!-- Generator: Adobe Illustrator 22.1.0, SVG Export Plug-In . SVG Version: 6.00 Build 0)  -->
<svg version="1.1" id="Laag_1" xmlns="http://www.w3.org/2000/svg" xmlns:xlink="http://www.w3.org/1999/xlink" x="0px" y="0px"
	 viewBox="0 0 595.3 841.9" style="enable-background:new 0 0 595.3 841.9;" xml:space="preserve">
<style type="text/css">
	.st0{fill:#321E41;}
	.st1{fill:#52B7E9;}
	.st2{fill:#FF3366;}
	.st3{fill:#FFFFFF;}
	.st4{fill:url(#SVGID_1_);}
	.st5{fill:url(#SVGID_2_);}
	.st6{font-family:'ArialMT';}
	.st7{font-size:11.3445px;}
	.st8{fill:none;}
	.st9{fill:#30ACE2;}
	.st10{enable-background:new    ;}
	.st11{fill:#F9F7F7;}
</style>
<rect y="0" class="st0" width="562.8" height="795.9"/>
<path class="st1" d="M90.5,553.4h437.9c-15.6-43-63.2-84.3-126.9-104.7c-37.3-12-74.3-14.9-106.1-10.1c-22.1-15.1-50-24.1-80.5-24.1
	c-24.7,0-47.8,5.9-67.5,16.3c-9.5-23.5-26.5-46.2-50-64C66.7,343.4,31.1,333-0.4,335.4v200h87.1C87.4,541.6,88.7,547.6,90.5,553.4z"
	/>
<path class="st2" d="M533.5,645.9c-19.3-38.7-63.9-74.7-122-93.3c-45.1-14.5-89.7-15.7-125.3-6c-21.7-14.1-48.8-22.5-78.2-22.5
	c-19.9,0-38.7,3.8-55.5,10.7c-10.8-18.2-25.8-35.2-44.7-49.5C74.1,459.6,35,448,0.3,450.5L0.2,645.9H533.5z"/>
<g id="Layer_1-2">
	<g>
		<path class="st0" d="M-0.4,697.7h534.5c-6.6-10.3-14.1-20-22.4-28.9c-0.7-0.1-1.2-0.6-1.2-1.3c-2.3-2.4-4.7-4.8-7.1-7.2
			c-0.8,0-1.4-0.6-1.4-1.4c-9.7-9.2-20.2-17.4-31.5-24.6c-0.3,0.3-0.6,0.4-1,0.4c-0.8,0-1.5-0.7-1.5-1.5c0-0.2,0-0.3,0.1-0.5
			c-4.6-2.8-9.3-5.5-14.1-8c0,0.8-0.7,1.4-1.5,1.4s-1.5-0.7-1.5-1.5c0-0.5,0.2-0.9,0.6-1.1c-4.8-2.4-9.8-4.6-14.8-6.7
			c-0.3,0.5-0.7,0.8-1.3,0.8c-0.8,0-1.5-0.7-1.5-1.5c0-0.1,0-0.2,0.1-0.4c-7.4-2.9-15-5.3-22.8-7.4c-0.3,0.4-0.7,0.7-1.2,0.7
			c-0.8,0-1.4-0.6-1.5-1.4c-2.1-0.5-4.3-1-6.5-1.5c0.5,0.2,0.9,0.7,0.9,1.3c0,0.8-0.7,1.5-1.5,1.5s-1.5-0.7-1.5-1.5s0.7-1.5,1.5-1.5
			l0,0c-13.7-2.9-28-4.4-42.6-4.4s-28.8,1.5-42.5,4.4c0.8,0,1.5,0.7,1.5,1.5s-0.7,1.5-1.5,1.5s-1.5-0.7-1.5-1.5
			c0-0.6,0.4-1.1,0.9-1.3c-2.2,0.5-4.3,0.9-6.4,1.5c-0.1,0.8-0.7,1.4-1.5,1.4c-0.5,0-1-0.3-1.2-0.7c-6.7,1.7-13.3,3.8-19.8,6.2
			c-4.2-2.1-8.6-4-13-5.7c-0.2,0-0.5-0.1-0.6-0.2c-2.3-0.9-4.6-1.7-6.9-2.5c0.4,0.3,0.7,0.7,0.7,1.2c0,0.8-0.7,1.5-1.5,1.5
			s-1.5-0.7-1.5-1.5s0.7-1.5,1.5-1.5h0.1c-8-2.6-16.2-4.6-24.7-5.9c-0.2,0.2-0.6,0.3-0.9,0.3c-0.5,0-0.9-0.3-1.2-0.6
			c-1.9-0.3-3.9-0.5-5.8-0.7c-0.1,0.8-0.7,1.3-1.5,1.3s-1.5-0.7-1.5-1.5c0-0.1,0-0.1,0-0.2c-1.9-0.2-3.8-0.3-5.7-0.4
			c0.1,0.2,0.1,0.4,0.1,0.6c0,0.8-0.7,1.5-1.5,1.5s-1.5-0.7-1.5-1.5c0-0.2,0.1-0.5,0.2-0.7c-1.9-0.1-3.8-0.1-5.7-0.1
			c-0.1,0-0.2,0-0.2,0c0.1,0.2,0.2,0.5,0.2,0.8c0,0.8-0.7,1.5-1.5,1.5s-1.5-0.7-1.5-1.5c0-0.3,0.1-0.5,0.2-0.7c-2,0-3.9,0.1-5.9,0.2
			c0.1,0.2,0.1,0.4,0.1,0.5c0,0.8-0.7,1.5-1.5,1.5s-1.5-0.7-1.5-1.5c0-0.1,0-0.3,0.1-0.4c-1.9,0.1-3.8,0.3-5.6,0.5
			c-0.1,0.8-0.7,1.4-1.5,1.4c-0.7,0-1.2-0.4-1.4-1c-2.3,0.3-4.5,0.6-6.8,1c-0.1,0-0.1,0-0.2,0c-8.4,1.4-16.6,3.5-24.5,6.1
			c0.2,0.2,0.3,0.6,0.3,0.9c0,0.8-0.7,1.5-1.5,1.5s-1.5-0.7-1.5-1.5c-0.7,0.3-1.4,0.5-2.2,0.8c-11-13.1-23.6-24.8-37.4-34.8
			c0,0.8-0.7,1.5-1.5,1.5s-1.5-0.7-1.5-1.5c0-0.6,0.4-1.2,1-1.4c-2.8-2-5.7-3.9-8.7-5.8c-0.1,0-0.2-0.1-0.3-0.2
			c-4.9-3.1-9.9-6-15-8.7c-0.3,0.3-0.6,0.5-1.1,0.5c-0.8,0-1.5-0.7-1.5-1.5c0-0.1,0-0.2,0-0.3c-4.9-2.5-9.9-4.8-15-6.8
			c-0.2,0.1-0.3,0.1-0.5,0.1c-0.6,0-1.1-0.3-1.3-0.8c-7.7-3-15.6-5.6-23.7-7.8c-0.2,0.1-0.3,0.1-0.5,0.1c-0.5,0-0.9-0.2-1.1-0.5
			c-2-0.5-4-1-6-1.4c0.1,0.2,0.1,0.3,0.1,0.5c0,0.8-0.7,1.5-1.5,1.5s-1.5-0.7-1.5-1.5c0-0.4,0.2-0.7,0.4-1
			c-13.5-2.5-27.9-4.1-42.6-4.1c-0.3,0-0.5,0-0.8,0C-0.4,534.1-0.4,697.7-0.4,697.7z M528.9,691.4c0.8,0,1.5,0.7,1.5,1.5
			s-0.7,1.5-1.5,1.5s-1.5-0.7-1.5-1.5C527.5,692,528.1,691.4,528.9,691.4z M520.4,682.9c0.8,0,1.5,0.7,1.5,1.5s-0.7,1.5-1.5,1.5
			s-1.5-0.7-1.5-1.5C518.9,683.6,519.6,682.9,520.4,682.9z M520.4,691.4c0.8,0,1.5,0.7,1.5,1.5s-0.7,1.5-1.5,1.5s-1.5-0.7-1.5-1.5
			C519,692,519.6,691.4,520.4,691.4z M511.9,674.4c0.8,0,1.5,0.7,1.5,1.5s-0.7,1.5-1.5,1.5s-1.5-0.7-1.5-1.5
			C510.5,675,511.1,674.4,511.9,674.4z M511.9,682.9c0.8,0,1.5,0.7,1.5,1.5s-0.7,1.5-1.5,1.5s-1.5-0.7-1.5-1.5
			C510.4,683.6,511.1,682.9,511.9,682.9z M511.9,691.4c0.8,0,1.5,0.7,1.5,1.5s-0.7,1.5-1.5,1.5s-1.5-0.7-1.5-1.5
			C510.5,692,511.1,691.4,511.9,691.4z M503.4,665.9c0.8,0,1.5,0.7,1.5,1.5s-0.7,1.5-1.5,1.5s-1.5-0.7-1.5-1.5
			C501.9,666.6,502.6,665.9,503.4,665.9z M503.4,674.4c0.8,0,1.5,0.7,1.5,1.5s-0.7,1.5-1.5,1.5s-1.5-0.7-1.5-1.5
			C502,675,502.6,674.4,503.4,674.4z M503.4,682.9c0.8,0,1.5,0.7,1.5,1.5s-0.7,1.5-1.5,1.5s-1.5-0.7-1.5-1.5
			C501.9,683.6,502.6,682.9,503.4,682.9z M503.4,691.4c0.8,0,1.5,0.7,1.5,1.5s-0.7,1.5-1.5,1.5s-1.5-0.7-1.5-1.5
			C502,692,502.6,691.4,503.4,691.4z M494.9,657.3c0.8,0,1.5,0.7,1.5,1.5s-0.7,1.5-1.5,1.5s-1.5-0.7-1.5-1.5
			S494.1,657.3,494.9,657.3z M494.9,665.9c0.8,0,1.5,0.7,1.5,1.5s-0.7,1.5-1.5,1.5s-1.5-0.7-1.5-1.5
			C493.4,666.6,494.1,665.9,494.9,665.9z M494.9,674.4c0.8,0,1.5,0.7,1.5,1.5s-0.7,1.5-1.5,1.5s-1.5-0.7-1.5-1.5
			C493.4,675,494.1,674.4,494.9,674.4z M494.9,682.9c0.8,0,1.5,0.7,1.5,1.5s-0.7,1.5-1.5,1.5s-1.5-0.7-1.5-1.5
			C493.4,683.6,494.1,682.9,494.9,682.9z M494.9,691.4c0.8,0,1.5,0.7,1.5,1.5s-0.7,1.5-1.5,1.5s-1.5-0.7-1.5-1.5
			C493.4,692,494.1,691.4,494.9,691.4z M486.4,648.8c0.8,0,1.5,0.7,1.5,1.5s-0.7,1.5-1.5,1.5s-1.5-0.7-1.5-1.5
			S485.6,648.8,486.4,648.8z M486.4,657.3c0.8,0,1.5,0.7,1.5,1.5s-0.7,1.5-1.5,1.5s-1.5-0.7-1.5-1.5S485.6,657.3,486.4,657.3z
			 M486.4,665.9c0.8,0,1.5,0.7,1.5,1.5s-0.7,1.5-1.5,1.5s-1.5-0.7-1.5-1.5C484.9,666.6,485.6,665.9,486.4,665.9z M486.4,674.4
			c0.8,0,1.5,0.7,1.5,1.5s-0.7,1.5-1.5,1.5s-1.5-0.7-1.5-1.5C484.9,675,485.6,674.4,486.4,674.4z M486.4,682.9
			c0.8,0,1.5,0.7,1.5,1.5s-0.7,1.5-1.5,1.5s-1.5-0.7-1.5-1.5C484.9,683.6,485.6,682.9,486.4,682.9z M486.4,691.4
			c0.8,0,1.5,0.7,1.5,1.5s-0.7,1.5-1.5,1.5s-1.5-0.7-1.5-1.5C484.9,692,485.6,691.4,486.4,691.4z M477.9,640.3
			c0.8,0,1.5,0.7,1.5,1.5s-0.7,1.5-1.5,1.5s-1.5-0.7-1.5-1.5S477.1,640.3,477.9,640.3z M477.9,648.8c0.8,0,1.5,0.7,1.5,1.5
			s-0.7,1.5-1.5,1.5s-1.5-0.7-1.5-1.5S477.1,648.8,477.9,648.8z M477.9,657.3c0.8,0,1.5,0.7,1.5,1.5s-0.7,1.5-1.5,1.5
			s-1.5-0.7-1.5-1.5S477.1,657.3,477.9,657.3z M477.9,665.9c0.8,0,1.5,0.7,1.5,1.5s-0.7,1.5-1.5,1.5s-1.5-0.7-1.5-1.5
			C476.4,666.6,477.1,665.9,477.9,665.9z M477.9,674.4c0.8,0,1.5,0.7,1.5,1.5s-0.7,1.5-1.5,1.5s-1.5-0.7-1.5-1.5
			C476.4,675,477.1,674.4,477.9,674.4z M477.9,682.9c0.8,0,1.5,0.7,1.5,1.5s-0.7,1.5-1.5,1.5s-1.5-0.7-1.5-1.5
			C476.4,683.6,477.1,682.9,477.9,682.9z M477.9,691.4c0.8,0,1.5,0.7,1.5,1.5s-0.7,1.5-1.5,1.5s-1.5-0.7-1.5-1.5
			C476.4,692,477.1,691.4,477.9,691.4z M469.4,640.3c0.8,0,1.5,0.7,1.5,1.5s-0.7,1.5-1.5,1.5s-1.5-0.7-1.5-1.5
			S468.6,640.3,469.4,640.3z M469.4,648.8c0.8,0,1.5,0.7,1.5,1.5s-0.7,1.5-1.5,1.5s-1.5-0.7-1.5-1.5S468.6,648.8,469.4,648.8z
			 M469.4,657.3c0.8,0,1.5,0.7,1.5,1.5s-0.7,1.5-1.5,1.5s-1.5-0.7-1.5-1.5S468.6,657.3,469.4,657.3z M469.4,665.9
			c0.8,0,1.5,0.7,1.5,1.5s-0.7,1.5-1.5,1.5s-1.5-0.7-1.5-1.5C467.9,666.6,468.6,665.9,469.4,665.9z M469.4,674.4
			c0.8,0,1.5,0.7,1.5,1.5s-0.7,1.5-1.5,1.5s-1.5-0.7-1.5-1.5C467.9,675,468.6,674.4,469.4,674.4z M469.4,682.9
			c0.8,0,1.5,0.7,1.5,1.5s-0.7,1.5-1.5,1.5s-1.5-0.7-1.5-1.5C467.9,683.6,468.6,682.9,469.4,682.9z M469.4,691.4
			c0.8,0,1.5,0.7,1.5,1.5s-0.7,1.5-1.5,1.5s-1.5-0.7-1.5-1.5C467.9,692,468.6,691.4,469.4,691.4z M460.9,631.8
			c0.8,0,1.5,0.7,1.5,1.5s-0.7,1.5-1.5,1.5s-1.5-0.7-1.5-1.5S460.1,631.8,460.9,631.8z M460.9,640.3c0.8,0,1.5,0.7,1.5,1.5
			s-0.7,1.5-1.5,1.5s-1.5-0.7-1.5-1.5S460.1,640.3,460.9,640.3z M460.9,648.8c0.8,0,1.5,0.7,1.5,1.5s-0.7,1.5-1.5,1.5
			s-1.5-0.7-1.5-1.5S460.1,648.8,460.9,648.8z M460.9,657.3c0.8,0,1.5,0.7,1.5,1.5s-0.7,1.5-1.5,1.5s-1.5-0.7-1.5-1.5
			S460.1,657.3,460.9,657.3z M460.9,665.9c0.8,0,1.5,0.7,1.5,1.5s-0.7,1.5-1.5,1.5s-1.5-0.7-1.5-1.5
			C459.4,666.6,460.1,665.9,460.9,665.9z M460.9,674.4c0.8,0,1.5,0.7,1.5,1.5s-0.7,1.5-1.5,1.5s-1.5-0.7-1.5-1.5
			C459.4,675,460.1,674.4,460.9,674.4z M460.9,682.9c0.8,0,1.5,0.7,1.5,1.5s-0.7,1.5-1.5,1.5s-1.5-0.7-1.5-1.5
			C459.4,683.6,460.1,682.9,460.9,682.9z M460.9,691.4c0.8,0,1.5,0.7,1.5,1.5s-0.7,1.5-1.5,1.5s-1.5-0.7-1.5-1.5
			C459.4,692,460.1,691.4,460.9,691.4z M452.4,631.8c0.8,0,1.5,0.7,1.5,1.5s-0.7,1.5-1.5,1.5s-1.5-0.7-1.5-1.5
			S451.6,631.8,452.4,631.8z M452.4,640.3c0.8,0,1.5,0.7,1.5,1.5s-0.7,1.5-1.5,1.5s-1.5-0.7-1.5-1.5S451.6,640.3,452.4,640.3z
			 M452.4,648.8c0.8,0,1.5,0.7,1.5,1.5s-0.7,1.5-1.5,1.5s-1.5-0.7-1.5-1.5S451.6,648.8,452.4,648.8z M452.4,657.3
			c0.8,0,1.5,0.7,1.5,1.5s-0.7,1.5-1.5,1.5s-1.5-0.7-1.5-1.5S451.6,657.3,452.4,657.3z M452.4,665.9c0.8,0,1.5,0.7,1.5,1.5
			s-0.7,1.5-1.5,1.5s-1.5-0.7-1.5-1.5C450.9,666.6,451.6,665.9,452.4,665.9z M452.4,674.4c0.8,0,1.5,0.7,1.5,1.5s-0.7,1.5-1.5,1.5
			s-1.5-0.7-1.5-1.5C450.9,675,451.6,674.4,452.4,674.4z M452.4,682.9c0.8,0,1.5,0.7,1.5,1.5s-0.7,1.5-1.5,1.5s-1.5-0.7-1.5-1.5
			C450.9,683.6,451.6,682.9,452.4,682.9z M452.4,691.4c0.8,0,1.5,0.7,1.5,1.5s-0.7,1.5-1.5,1.5s-1.5-0.7-1.5-1.5
			C450.9,692,451.6,691.4,452.4,691.4z M443.9,623.3c0.8,0,1.5,0.7,1.5,1.5s-0.7,1.5-1.5,1.5s-1.5-0.7-1.5-1.5
			S443.1,623.3,443.9,623.3z M443.9,631.8c0.8,0,1.5,0.7,1.5,1.5s-0.7,1.5-1.5,1.5s-1.5-0.7-1.5-1.5S443.1,631.8,443.9,631.8z
			 M443.9,640.3c0.8,0,1.5,0.7,1.5,1.5s-0.7,1.5-1.5,1.5s-1.5-0.7-1.5-1.5S443.1,640.3,443.9,640.3z M443.9,648.8
			c0.8,0,1.5,0.7,1.5,1.5s-0.7,1.5-1.5,1.5s-1.5-0.7-1.5-1.5S443.1,648.8,443.9,648.8z M443.9,657.3c0.8,0,1.5,0.7,1.5,1.5
			s-0.7,1.5-1.5,1.5s-1.5-0.7-1.5-1.5S443.1,657.3,443.9,657.3z M443.9,665.9c0.8,0,1.5,0.7,1.5,1.5s-0.7,1.5-1.5,1.5
			s-1.5-0.7-1.5-1.5C442.4,666.6,443.1,665.9,443.9,665.9z M443.9,674.4c0.8,0,1.5,0.7,1.5,1.5s-0.7,1.5-1.5,1.5s-1.5-0.7-1.5-1.5
			C442.4,675,443.1,674.4,443.9,674.4z M443.9,682.9c0.8,0,1.5,0.7,1.5,1.5s-0.7,1.5-1.5,1.5s-1.5-0.7-1.5-1.5
			C442.4,683.6,443.1,682.9,443.9,682.9z M443.9,691.4c0.8,0,1.5,0.7,1.5,1.5s-0.7,1.5-1.5,1.5s-1.5-0.7-1.5-1.5
			C442.4,692,443.1,691.4,443.9,691.4z M435.4,623.3c0.8,0,1.5,0.7,1.5,1.5s-0.7,1.5-1.5,1.5s-1.5-0.7-1.5-1.5
			S434.6,623.3,435.4,623.3z M435.4,631.8c0.8,0,1.5,0.7,1.5,1.5s-0.7,1.5-1.5,1.5s-1.5-0.7-1.5-1.5S434.6,631.8,435.4,631.8z
			 M435.4,640.3c0.8,0,1.5,0.7,1.5,1.5s-0.7,1.5-1.5,1.5s-1.5-0.7-1.5-1.5S434.6,640.3,435.4,640.3z M435.4,648.8
			c0.8,0,1.5,0.7,1.5,1.5s-0.7,1.5-1.5,1.5s-1.5-0.7-1.5-1.5S434.6,648.8,435.4,648.8z M435.4,657.3c0.8,0,1.5,0.7,1.5,1.5
			s-0.7,1.5-1.5,1.5s-1.5-0.7-1.5-1.5S434.6,657.3,435.4,657.3z M435.4,665.9c0.8,0,1.5,0.7,1.5,1.5s-0.7,1.5-1.5,1.5
			s-1.5-0.7-1.5-1.5C433.9,666.6,434.6,665.9,435.4,665.9z M435.4,674.4c0.8,0,1.5,0.7,1.5,1.5s-0.7,1.5-1.5,1.5s-1.5-0.7-1.5-1.5
			C433.9,675,434.6,674.4,435.4,674.4z M435.4,682.9c0.8,0,1.5,0.7,1.5,1.5s-0.7,1.5-1.5,1.5s-1.5-0.7-1.5-1.5
			C433.9,683.6,434.6,682.9,435.4,682.9z M435.4,691.4c0.8,0,1.5,0.7,1.5,1.5s-0.7,1.5-1.5,1.5s-1.5-0.7-1.5-1.5
			C433.9,692,434.6,691.4,435.4,691.4z M426.9,614.8c0.8,0,1.5,0.7,1.5,1.5s-0.7,1.5-1.5,1.5s-1.5-0.7-1.5-1.5
			S426.1,614.8,426.9,614.8z M426.9,623.3c0.8,0,1.5,0.7,1.5,1.5s-0.7,1.5-1.5,1.5s-1.5-0.7-1.5-1.5S426.1,623.3,426.9,623.3z
			 M426.9,631.8c0.8,0,1.5,0.7,1.5,1.5s-0.7,1.5-1.5,1.5s-1.5-0.7-1.5-1.5S426.1,631.8,426.9,631.8z M426.9,640.3
			c0.8,0,1.5,0.7,1.5,1.5s-0.7,1.5-1.5,1.5s-1.5-0.7-1.5-1.5S426.1,640.3,426.9,640.3z M426.9,648.8c0.8,0,1.5,0.7,1.5,1.5
			s-0.7,1.5-1.5,1.5s-1.5-0.7-1.5-1.5S426.1,648.8,426.9,648.8z M426.9,657.3c0.8,0,1.5,0.7,1.5,1.5s-0.7,1.5-1.5,1.5
			s-1.5-0.7-1.5-1.5S426.1,657.3,426.9,657.3z M426.9,665.9c0.8,0,1.5,0.7,1.5,1.5s-0.7,1.5-1.5,1.5s-1.5-0.7-1.5-1.5
			C425.4,666.6,426.1,665.9,426.9,665.9z M426.9,674.4c0.8,0,1.5,0.7,1.5,1.5s-0.7,1.5-1.5,1.5s-1.5-0.7-1.5-1.5
			C425.4,675,426.1,674.4,426.9,674.4z M426.9,682.9c0.8,0,1.5,0.7,1.5,1.5s-0.7,1.5-1.5,1.5s-1.5-0.7-1.5-1.5
			C425.4,683.6,426.1,682.9,426.9,682.9z M426.9,691.4c0.8,0,1.5,0.7,1.5,1.5s-0.7,1.5-1.5,1.5s-1.5-0.7-1.5-1.5
			C425.4,692,426.1,691.4,426.9,691.4z M418.4,614.8c0.8,0,1.5,0.7,1.5,1.5s-0.7,1.5-1.5,1.5s-1.5-0.7-1.5-1.5
			S417.6,614.8,418.4,614.8z M418.4,623.3c0.8,0,1.5,0.7,1.5,1.5s-0.7,1.5-1.5,1.5s-1.5-0.7-1.5-1.5S417.6,623.3,418.4,623.3z
			 M418.4,631.8c0.8,0,1.5,0.7,1.5,1.5s-0.7,1.5-1.5,1.5s-1.5-0.7-1.5-1.5S417.6,631.8,418.4,631.8z M418.4,640.3
			c0.8,0,1.5,0.7,1.5,1.5s-0.7,1.5-1.5,1.5s-1.5-0.7-1.5-1.5S417.6,640.3,418.4,640.3z M418.4,648.8c0.8,0,1.5,0.7,1.5,1.5
			s-0.7,1.5-1.5,1.5s-1.5-0.7-1.5-1.5S417.6,648.8,418.4,648.8z M418.4,657.3c0.8,0,1.5,0.7,1.5,1.5s-0.7,1.5-1.5,1.5
			s-1.5-0.7-1.5-1.5S417.6,657.3,418.4,657.3z M418.4,665.9c0.8,0,1.5,0.7,1.5,1.5s-0.7,1.5-1.5,1.5s-1.5-0.7-1.5-1.5
			C416.9,666.6,417.6,665.9,418.4,665.9z M418.4,674.4c0.8,0,1.5,0.7,1.5,1.5s-0.7,1.5-1.5,1.5s-1.5-0.7-1.5-1.5
			C416.9,675,417.6,674.4,418.4,674.4z M418.4,682.9c0.8,0,1.5,0.7,1.5,1.5s-0.7,1.5-1.5,1.5s-1.5-0.7-1.5-1.5
			C416.9,683.6,417.6,682.9,418.4,682.9z M418.4,691.4c0.8,0,1.5,0.7,1.5,1.5s-0.7,1.5-1.5,1.5s-1.5-0.7-1.5-1.5
			C416.9,692,417.6,691.4,418.4,691.4z M409.9,614.8c0.8,0,1.5,0.7,1.5,1.5s-0.7,1.5-1.5,1.5s-1.5-0.7-1.5-1.5
			S409.1,614.8,409.9,614.8z M409.9,623.3c0.8,0,1.5,0.7,1.5,1.5s-0.7,1.5-1.5,1.5s-1.5-0.7-1.5-1.5S409.1,623.3,409.9,623.3z
			 M409.9,631.8c0.8,0,1.5,0.7,1.5,1.5s-0.7,1.5-1.5,1.5s-1.5-0.7-1.5-1.5S409.1,631.8,409.9,631.8z M409.9,640.3
			c0.8,0,1.5,0.7,1.5,1.5s-0.7,1.5-1.5,1.5s-1.5-0.7-1.5-1.5S409.1,640.3,409.9,640.3z M409.9,648.8c0.8,0,1.5,0.7,1.5,1.5
			s-0.7,1.5-1.5,1.5s-1.5-0.7-1.5-1.5S409.1,648.8,409.9,648.8z M409.9,657.3c0.8,0,1.5,0.7,1.5,1.5s-0.7,1.5-1.5,1.5
			s-1.5-0.7-1.5-1.5S409.1,657.3,409.9,657.3z M409.9,665.9c0.8,0,1.5,0.7,1.5,1.5s-0.7,1.5-1.5,1.5s-1.5-0.7-1.5-1.5
			C408.4,666.6,409.1,665.9,409.9,665.9z M409.9,674.4c0.8,0,1.5,0.7,1.5,1.5s-0.7,1.5-1.5,1.5s-1.5-0.7-1.5-1.5
			C408.4,675,409.1,674.4,409.9,674.4z M409.9,682.9c0.8,0,1.5,0.7,1.5,1.5s-0.7,1.5-1.5,1.5s-1.5-0.7-1.5-1.5
			C408.4,683.6,409.1,682.9,409.9,682.9z M409.9,691.4c0.8,0,1.5,0.7,1.5,1.5s-0.7,1.5-1.5,1.5s-1.5-0.7-1.5-1.5
			C408.4,692,409.1,691.4,409.9,691.4z M401.4,614.8c0.8,0,1.5,0.7,1.5,1.5s-0.7,1.5-1.5,1.5s-1.5-0.7-1.5-1.5
			S400.6,614.8,401.4,614.8z M401.4,623.3c0.8,0,1.5,0.7,1.5,1.5s-0.7,1.5-1.5,1.5s-1.5-0.7-1.5-1.5S400.6,623.3,401.4,623.3z
			 M401.4,631.8c0.8,0,1.5,0.7,1.5,1.5s-0.7,1.5-1.5,1.5s-1.5-0.7-1.5-1.5S400.6,631.8,401.4,631.8z M401.4,640.3
			c0.8,0,1.5,0.7,1.5,1.5s-0.7,1.5-1.5,1.5s-1.5-0.7-1.5-1.5S400.6,640.3,401.4,640.3z M401.4,648.8c0.8,0,1.5,0.7,1.5,1.5
			s-0.7,1.5-1.5,1.5s-1.5-0.7-1.5-1.5S400.6,648.8,401.4,648.8z M401.4,657.3c0.8,0,1.5,0.7,1.5,1.5s-0.7,1.5-1.5,1.5
			s-1.5-0.7-1.5-1.5S400.6,657.3,401.4,657.3z M401.4,665.9c0.8,0,1.5,0.7,1.5,1.5s-0.7,1.5-1.5,1.5s-1.5-0.7-1.5-1.5
			C399.9,666.6,400.6,665.9,401.4,665.9z M401.4,674.4c0.8,0,1.5,0.7,1.5,1.5s-0.7,1.5-1.5,1.5s-1.5-0.7-1.5-1.5
			C399.9,675,400.6,674.4,401.4,674.4z M401.4,682.9c0.8,0,1.5,0.7,1.5,1.5s-0.7,1.5-1.5,1.5s-1.5-0.7-1.5-1.5
			C399.9,683.6,400.6,682.9,401.4,682.9z M401.4,691.4c0.8,0,1.5,0.7,1.5,1.5s-0.7,1.5-1.5,1.5s-1.5-0.7-1.5-1.5
			C399.9,692,400.6,691.4,401.4,691.4z M392.9,606.3c0.8,0,1.5,0.7,1.5,1.5s-0.7,1.5-1.5,1.5s-1.5-0.7-1.5-1.5
			S392.1,606.3,392.9,606.3z M392.9,614.8c0.8,0,1.5,0.7,1.5,1.5s-0.7,1.5-1.5,1.5s-1.5-0.7-1.5-1.5S392.1,614.8,392.9,614.8z
			 M392.9,623.3c0.8,0,1.5,0.7,1.5,1.5s-0.7,1.5-1.5,1.5s-1.5-0.7-1.5-1.5S392.1,623.3,392.9,623.3z M392.9,631.8
			c0.8,0,1.5,0.7,1.5,1.5s-0.7,1.5-1.5,1.5s-1.5-0.7-1.5-1.5S392.1,631.8,392.9,631.8z M392.9,640.3c0.8,0,1.5,0.7,1.5,1.5
			s-0.7,1.5-1.5,1.5s-1.5-0.7-1.5-1.5S392.1,640.3,392.9,640.3z M392.9,648.8c0.8,0,1.5,0.7,1.5,1.5s-0.7,1.5-1.5,1.5
			s-1.5-0.7-1.5-1.5S392.1,648.8,392.9,648.8z M392.9,657.3c0.8,0,1.5,0.7,1.5,1.5s-0.7,1.5-1.5,1.5s-1.5-0.7-1.5-1.5
			S392.1,657.3,392.9,657.3z M392.9,665.9c0.8,0,1.5,0.7,1.5,1.5s-0.7,1.5-1.5,1.5s-1.5-0.7-1.5-1.5
			C391.4,666.6,392.1,665.9,392.9,665.9z M392.9,674.4c0.8,0,1.5,0.7,1.5,1.5s-0.7,1.5-1.5,1.5s-1.5-0.7-1.5-1.5
			C391.4,675,392.1,674.4,392.9,674.4z M392.9,682.9c0.8,0,1.5,0.7,1.5,1.5s-0.7,1.5-1.5,1.5s-1.5-0.7-1.5-1.5
			C391.4,683.6,392.1,682.9,392.9,682.9z M392.9,691.4c0.8,0,1.5,0.7,1.5,1.5s-0.7,1.5-1.5,1.5s-1.5-0.7-1.5-1.5
			C391.4,692,392.1,691.4,392.9,691.4z M384.4,606.3c0.8,0,1.5,0.7,1.5,1.5s-0.7,1.5-1.5,1.5s-1.5-0.7-1.5-1.5
			S383.6,606.3,384.4,606.3z M384.4,614.8c0.8,0,1.5,0.7,1.5,1.5s-0.7,1.5-1.5,1.5s-1.5-0.7-1.5-1.5S383.6,614.8,384.4,614.8z
			 M384.4,623.3c0.8,0,1.5,0.7,1.5,1.5s-0.7,1.5-1.5,1.5s-1.5-0.7-1.5-1.5S383.6,623.3,384.4,623.3z M384.4,631.8
			c0.8,0,1.5,0.7,1.5,1.5s-0.7,1.5-1.5,1.5s-1.5-0.7-1.5-1.5S383.6,631.8,384.4,631.8z M384.4,640.3c0.8,0,1.5,0.7,1.5,1.5
			s-0.7,1.5-1.5,1.5s-1.5-0.7-1.5-1.5S383.6,640.3,384.4,640.3z M384.4,648.8c0.8,0,1.5,0.7,1.5,1.5s-0.7,1.5-1.5,1.5
			s-1.5-0.7-1.5-1.5S383.6,648.8,384.4,648.8z M384.4,657.3c0.8,0,1.5,0.7,1.5,1.5s-0.7,1.5-1.5,1.5s-1.5-0.7-1.5-1.5
			S383.6,657.3,384.4,657.3z M384.4,665.9c0.8,0,1.5,0.7,1.5,1.5s-0.7,1.5-1.5,1.5s-1.5-0.7-1.5-1.5
			C382.9,666.6,383.6,665.9,384.4,665.9z M384.4,674.4c0.8,0,1.5,0.7,1.5,1.5s-0.7,1.5-1.5,1.5s-1.5-0.7-1.5-1.5
			C382.9,675,383.6,674.4,384.4,674.4z M384.4,682.9c0.8,0,1.5,0.7,1.5,1.5s-0.7,1.5-1.5,1.5s-1.5-0.7-1.5-1.5
			C382.9,683.6,383.6,682.9,384.4,682.9z M384.4,691.4c0.8,0,1.5,0.7,1.5,1.5s-0.7,1.5-1.5,1.5s-1.5-0.7-1.5-1.5
			C382.9,692,383.6,691.4,384.4,691.4z M375.9,606.3c0.8,0,1.5,0.7,1.5,1.5s-0.7,1.5-1.5,1.5s-1.5-0.7-1.5-1.5
			S375.1,606.3,375.9,606.3z M375.9,614.8c0.8,0,1.5,0.7,1.5,1.5s-0.7,1.5-1.5,1.5s-1.5-0.7-1.5-1.5S375.1,614.8,375.9,614.8z
			 M375.9,623.3c0.8,0,1.5,0.7,1.5,1.5s-0.7,1.5-1.5,1.5s-1.5-0.7-1.5-1.5S375.1,623.3,375.9,623.3z M375.9,631.8
			c0.8,0,1.5,0.7,1.5,1.5s-0.7,1.5-1.5,1.5s-1.5-0.7-1.5-1.5S375.1,631.8,375.9,631.8z M375.9,640.3c0.8,0,1.5,0.7,1.5,1.5
			s-0.7,1.5-1.5,1.5s-1.5-0.7-1.5-1.5S375.1,640.3,375.9,640.3z M375.9,648.8c0.8,0,1.5,0.7,1.5,1.5s-0.7,1.5-1.5,1.5
			s-1.5-0.7-1.5-1.5S375.1,648.8,375.9,648.8z M375.9,657.3c0.8,0,1.5,0.7,1.5,1.5s-0.7,1.5-1.5,1.5s-1.5-0.7-1.5-1.5
			S375.1,657.3,375.9,657.3z M375.9,665.9c0.8,0,1.5,0.7,1.5,1.5s-0.7,1.5-1.5,1.5s-1.5-0.7-1.5-1.5
			C374.4,666.6,375.1,665.9,375.9,665.9z M375.9,674.4c0.8,0,1.5,0.7,1.5,1.5s-0.7,1.5-1.5,1.5s-1.5-0.7-1.5-1.5
			C374.4,675,375.1,674.4,375.9,674.4z M375.9,682.9c0.8,0,1.5,0.7,1.5,1.5s-0.7,1.5-1.5,1.5s-1.5-0.7-1.5-1.5
			C374.4,683.6,375.1,682.9,375.9,682.9z M375.9,691.4c0.8,0,1.5,0.7,1.5,1.5s-0.7,1.5-1.5,1.5s-1.5-0.7-1.5-1.5
			C374.4,692,375.1,691.4,375.9,691.4z M367.4,606.3c0.8,0,1.5,0.7,1.5,1.5s-0.7,1.5-1.5,1.5s-1.5-0.7-1.5-1.5
			S366.5,606.3,367.4,606.3z M367.4,614.8c0.8,0,1.5,0.7,1.5,1.5s-0.7,1.5-1.5,1.5s-1.5-0.7-1.5-1.5S366.5,614.8,367.4,614.8z
			 M367.4,623.3c0.8,0,1.5,0.7,1.5,1.5s-0.7,1.5-1.5,1.5s-1.5-0.7-1.5-1.5S366.5,623.3,367.4,623.3z M367.4,631.8
			c0.8,0,1.5,0.7,1.5,1.5s-0.7,1.5-1.5,1.5s-1.5-0.7-1.5-1.5S366.5,631.8,367.4,631.8z M367.4,640.3c0.8,0,1.5,0.7,1.5,1.5
			s-0.7,1.5-1.5,1.5s-1.5-0.7-1.5-1.5S366.5,640.3,367.4,640.3z M367.4,648.8c0.8,0,1.5,0.7,1.5,1.5s-0.7,1.5-1.5,1.5
			s-1.5-0.7-1.5-1.5S366.5,648.8,367.4,648.8z M367.4,657.3c0.8,0,1.5,0.7,1.5,1.5s-0.7,1.5-1.5,1.5s-1.5-0.7-1.5-1.5
			S366.5,657.3,367.4,657.3z M367.4,665.9c0.8,0,1.5,0.7,1.5,1.5s-0.7,1.5-1.5,1.5s-1.5-0.7-1.5-1.5
			C365.9,666.6,366.5,665.9,367.4,665.9z M367.4,674.4c0.8,0,1.5,0.7,1.5,1.5s-0.7,1.5-1.5,1.5s-1.5-0.7-1.5-1.5
			C365.9,675,366.5,674.4,367.4,674.4z M367.4,682.9c0.8,0,1.5,0.7,1.5,1.5s-0.7,1.5-1.5,1.5s-1.5-0.7-1.5-1.5
			C365.9,683.6,366.5,682.9,367.4,682.9z M367.4,691.4c0.8,0,1.5,0.7,1.5,1.5s-0.7,1.5-1.5,1.5s-1.5-0.7-1.5-1.5
			C365.9,692,366.5,691.4,367.4,691.4z M358.9,606.3c0.8,0,1.5,0.7,1.5,1.5s-0.7,1.5-1.5,1.5s-1.5-0.7-1.5-1.5
			S358,606.3,358.9,606.3z M358.9,614.8c0.8,0,1.5,0.7,1.5,1.5s-0.7,1.5-1.5,1.5s-1.5-0.7-1.5-1.5S358,614.8,358.9,614.8z
			 M358.9,623.3c0.8,0,1.5,0.7,1.5,1.5s-0.7,1.5-1.5,1.5s-1.5-0.7-1.5-1.5S358,623.3,358.9,623.3z M358.9,631.8
			c0.8,0,1.5,0.7,1.5,1.5s-0.7,1.5-1.5,1.5s-1.5-0.7-1.5-1.5S358,631.8,358.9,631.8z M358.9,640.3c0.8,0,1.5,0.7,1.5,1.5
			s-0.7,1.5-1.5,1.5s-1.5-0.7-1.5-1.5S358,640.3,358.9,640.3z M358.9,648.8c0.8,0,1.5,0.7,1.5,1.5s-0.7,1.5-1.5,1.5
			s-1.5-0.7-1.5-1.5S358,648.8,358.9,648.8z M358.9,657.3c0.8,0,1.5,0.7,1.5,1.5s-0.7,1.5-1.5,1.5s-1.5-0.7-1.5-1.5
			S358,657.3,358.9,657.3z M358.9,665.9c0.8,0,1.5,0.7,1.5,1.5s-0.7,1.5-1.5,1.5s-1.5-0.7-1.5-1.5
			C357.4,666.6,358,665.9,358.9,665.9z M358.9,674.4c0.8,0,1.5,0.7,1.5,1.5s-0.7,1.5-1.5,1.5s-1.5-0.7-1.5-1.5
			C357.4,675,358,674.4,358.9,674.4z M358.9,682.9c0.8,0,1.5,0.7,1.5,1.5s-0.7,1.5-1.5,1.5s-1.5-0.7-1.5-1.5
			C357.4,683.6,358,682.9,358.9,682.9z M358.9,691.4c0.8,0,1.5,0.7,1.5,1.5s-0.7,1.5-1.5,1.5s-1.5-0.7-1.5-1.5
			C357.4,692,358,691.4,358.9,691.4z M350.4,606.3c0.8,0,1.5,0.7,1.5,1.5s-0.7,1.5-1.5,1.5s-1.5-0.7-1.5-1.5
			S349.5,606.3,350.4,606.3z M350.4,614.8c0.8,0,1.5,0.7,1.5,1.5s-0.7,1.5-1.5,1.5s-1.5-0.7-1.5-1.5S349.5,614.8,350.4,614.8z
			 M350.4,623.3c0.8,0,1.5,0.7,1.5,1.5s-0.7,1.5-1.5,1.5s-1.5-0.7-1.5-1.5S349.5,623.3,350.4,623.3z M350.4,631.8
			c0.8,0,1.5,0.7,1.5,1.5s-0.7,1.5-1.5,1.5s-1.5-0.7-1.5-1.5S349.5,631.8,350.4,631.8z M350.4,640.3c0.8,0,1.5,0.7,1.5,1.5
			s-0.7,1.5-1.5,1.5s-1.5-0.7-1.5-1.5S349.5,640.3,350.4,640.3z M350.4,648.8c0.8,0,1.5,0.7,1.5,1.5s-0.7,1.5-1.5,1.5
			s-1.5-0.7-1.5-1.5S349.5,648.8,350.4,648.8z M350.4,657.3c0.8,0,1.5,0.7,1.5,1.5s-0.7,1.5-1.5,1.5s-1.5-0.7-1.5-1.5
			S349.5,657.3,350.4,657.3z M350.4,665.9c0.8,0,1.5,0.7,1.5,1.5s-0.7,1.5-1.5,1.5s-1.5-0.7-1.5-1.5
			C348.9,666.6,349.5,665.9,350.4,665.9z M350.4,674.4c0.8,0,1.5,0.7,1.5,1.5s-0.7,1.5-1.5,1.5s-1.5-0.7-1.5-1.5
			C348.9,675,349.5,674.4,350.4,674.4z M350.4,682.9c0.8,0,1.5,0.7,1.5,1.5s-0.7,1.5-1.5,1.5s-1.5-0.7-1.5-1.5
			C348.9,683.6,349.5,682.9,350.4,682.9z M350.4,691.4c0.8,0,1.5,0.7,1.5,1.5s-0.7,1.5-1.5,1.5s-1.5-0.7-1.5-1.5
			C348.9,692,349.5,691.4,350.4,691.4z M341.9,606.3c0.8,0,1.5,0.7,1.5,1.5s-0.7,1.5-1.5,1.5s-1.5-0.7-1.5-1.5
			S341,606.3,341.9,606.3z M341.9,614.8c0.8,0,1.5,0.7,1.5,1.5s-0.7,1.5-1.5,1.5s-1.5-0.7-1.5-1.5S341,614.8,341.9,614.8z
			 M341.9,623.3c0.8,0,1.5,0.7,1.5,1.5s-0.7,1.5-1.5,1.5s-1.5-0.7-1.5-1.5S341,623.3,341.9,623.3z M341.9,631.8
			c0.8,0,1.5,0.7,1.5,1.5s-0.7,1.5-1.5,1.5s-1.5-0.7-1.5-1.5S341,631.8,341.9,631.8z M341.9,640.3c0.8,0,1.5,0.7,1.5,1.5
			s-0.7,1.5-1.5,1.5s-1.5-0.7-1.5-1.5S341,640.3,341.9,640.3z M341.9,648.8c0.8,0,1.5,0.7,1.5,1.5s-0.7,1.5-1.5,1.5
			s-1.5-0.7-1.5-1.5S341,648.8,341.9,648.8z M341.9,657.3c0.8,0,1.5,0.7,1.5,1.5s-0.7,1.5-1.5,1.5s-1.5-0.7-1.5-1.5
			S341,657.3,341.9,657.3z M341.9,665.9c0.8,0,1.5,0.7,1.5,1.5s-0.7,1.5-1.5,1.5s-1.5-0.7-1.5-1.5
			C340.4,666.6,341,665.9,341.9,665.9z M341.9,674.4c0.8,0,1.5,0.7,1.5,1.5s-0.7,1.5-1.5,1.5s-1.5-0.7-1.5-1.5
			C340.4,675,341,674.4,341.9,674.4z M341.9,682.9c0.8,0,1.5,0.7,1.5,1.5s-0.7,1.5-1.5,1.5s-1.5-0.7-1.5-1.5
			C340.4,683.6,341,682.9,341.9,682.9z M341.9,691.4c0.8,0,1.5,0.7,1.5,1.5s-0.7,1.5-1.5,1.5s-1.5-0.7-1.5-1.5
			C340.4,692,341,691.4,341.9,691.4z M333.3,606.3c0.8,0,1.5,0.7,1.5,1.5s-0.7,1.5-1.5,1.5s-1.5-0.7-1.5-1.5
			C331.9,607,332.5,606.3,333.3,606.3z M333.3,614.8c0.8,0,1.5,0.7,1.5,1.5s-0.7,1.5-1.5,1.5s-1.5-0.7-1.5-1.5
			S332.5,614.8,333.3,614.8z M333.3,623.3c0.8,0,1.5,0.7,1.5,1.5s-0.7,1.5-1.5,1.5s-1.5-0.7-1.5-1.5
			C331.9,624,332.5,623.3,333.3,623.3z M333.3,631.8c0.8,0,1.5,0.7,1.5,1.5s-0.7,1.5-1.5,1.5s-1.5-0.7-1.5-1.5
			S332.5,631.8,333.3,631.8z M333.3,640.3c0.8,0,1.5,0.7,1.5,1.5s-0.7,1.5-1.5,1.5s-1.5-0.7-1.5-1.5
			C331.9,641,332.5,640.3,333.3,640.3z M333.3,648.8c0.8,0,1.5,0.7,1.5,1.5s-0.7,1.5-1.5,1.5s-1.5-0.7-1.5-1.5
			S332.5,648.8,333.3,648.8z M333.3,657.3c0.8,0,1.5,0.7,1.5,1.5s-0.7,1.5-1.5,1.5s-1.5-0.7-1.5-1.5
			C331.9,658,332.5,657.3,333.3,657.3z M333.3,665.9c0.8,0,1.5,0.7,1.5,1.5s-0.7,1.5-1.5,1.5s-1.5-0.7-1.5-1.5
			C331.8,666.6,332.5,665.9,333.3,665.9z M333.3,674.4c0.8,0,1.5,0.7,1.5,1.5s-0.7,1.5-1.5,1.5s-1.5-0.7-1.5-1.5
			C331.9,675,332.5,674.4,333.3,674.4z M333.3,682.9c0.8,0,1.5,0.7,1.5,1.5s-0.7,1.5-1.5,1.5s-1.5-0.7-1.5-1.5
			C331.8,683.6,332.5,682.9,333.3,682.9z M333.3,691.4c0.8,0,1.5,0.7,1.5,1.5s-0.7,1.5-1.5,1.5s-1.5-0.7-1.5-1.5
			C331.9,692,332.5,691.4,333.3,691.4z M324.8,606.3c0.8,0,1.5,0.7,1.5,1.5s-0.7,1.5-1.5,1.5s-1.5-0.7-1.5-1.5
			C323.4,607,324,606.3,324.8,606.3z M324.8,614.8c0.8,0,1.5,0.7,1.5,1.5s-0.7,1.5-1.5,1.5s-1.5-0.7-1.5-1.5S324,614.8,324.8,614.8z
			 M324.8,623.3c0.8,0,1.5,0.7,1.5,1.5s-0.7,1.5-1.5,1.5s-1.5-0.7-1.5-1.5C323.4,624,324,623.3,324.8,623.3z M324.8,631.8
			c0.8,0,1.5,0.7,1.5,1.5s-0.7,1.5-1.5,1.5s-1.5-0.7-1.5-1.5S324,631.8,324.8,631.8z M324.8,640.3c0.8,0,1.5,0.7,1.5,1.5
			s-0.7,1.5-1.5,1.5s-1.5-0.7-1.5-1.5C323.4,641,324,640.3,324.8,640.3z M324.8,648.8c0.8,0,1.5,0.7,1.5,1.5s-0.7,1.5-1.5,1.5
			s-1.5-0.7-1.5-1.5S324,648.8,324.8,648.8z M324.8,657.3c0.8,0,1.5,0.7,1.5,1.5s-0.7,1.5-1.5,1.5s-1.5-0.7-1.5-1.5
			C323.4,658,324,657.3,324.8,657.3z M324.8,665.9c0.8,0,1.5,0.7,1.5,1.5s-0.7,1.5-1.5,1.5s-1.5-0.7-1.5-1.5
			C323.3,666.6,324,665.9,324.8,665.9z M324.8,674.4c0.8,0,1.5,0.7,1.5,1.5s-0.7,1.5-1.5,1.5s-1.5-0.7-1.5-1.5
			C323.4,675,324,674.4,324.8,674.4z M324.8,682.9c0.8,0,1.5,0.7,1.5,1.5s-0.7,1.5-1.5,1.5s-1.5-0.7-1.5-1.5
			C323.3,683.6,324,682.9,324.8,682.9z M324.8,691.4c0.8,0,1.5,0.7,1.5,1.5s-0.7,1.5-1.5,1.5s-1.5-0.7-1.5-1.5
			C323.4,692,324,691.4,324.8,691.4z M316.3,614.8c0.8,0,1.5,0.7,1.5,1.5s-0.7,1.5-1.5,1.5s-1.5-0.7-1.5-1.5
			S315.5,614.8,316.3,614.8z M316.3,623.3c0.8,0,1.5,0.7,1.5,1.5s-0.7,1.5-1.5,1.5s-1.5-0.7-1.5-1.5
			C314.9,624,315.5,623.3,316.3,623.3z M316.3,631.8c0.8,0,1.5,0.7,1.5,1.5s-0.7,1.5-1.5,1.5s-1.5-0.7-1.5-1.5
			S315.5,631.8,316.3,631.8z M316.3,640.3c0.8,0,1.5,0.7,1.5,1.5s-0.7,1.5-1.5,1.5s-1.5-0.7-1.5-1.5
			C314.9,641,315.5,640.3,316.3,640.3z M316.3,648.8c0.8,0,1.5,0.7,1.5,1.5s-0.7,1.5-1.5,1.5s-1.5-0.7-1.5-1.5
			S315.5,648.8,316.3,648.8z M316.3,657.3c0.8,0,1.5,0.7,1.5,1.5s-0.7,1.5-1.5,1.5s-1.5-0.7-1.5-1.5
			C314.9,658,315.5,657.3,316.3,657.3z M316.3,665.9c0.8,0,1.5,0.7,1.5,1.5s-0.7,1.5-1.5,1.5s-1.5-0.7-1.5-1.5
			C314.8,666.6,315.5,665.9,316.3,665.9z M316.3,674.4c0.8,0,1.5,0.7,1.5,1.5s-0.7,1.5-1.5,1.5s-1.5-0.7-1.5-1.5
			C314.9,675,315.5,674.4,316.3,674.4z M316.3,682.9c0.8,0,1.5,0.7,1.5,1.5s-0.7,1.5-1.5,1.5s-1.5-0.7-1.5-1.5
			C314.8,683.6,315.5,682.9,316.3,682.9z M316.3,691.4c0.8,0,1.5,0.7,1.5,1.5s-0.7,1.5-1.5,1.5s-1.5-0.7-1.5-1.5
			C314.9,692,315.5,691.4,316.3,691.4z M307.8,614.8c0.8,0,1.5,0.7,1.5,1.5s-0.7,1.5-1.5,1.5s-1.5-0.7-1.5-1.5
			S307,614.8,307.8,614.8z M307.8,623.3c0.8,0,1.5,0.7,1.5,1.5s-0.7,1.5-1.5,1.5s-1.5-0.7-1.5-1.5C306.4,624,307,623.3,307.8,623.3z
			 M307.8,631.8c0.8,0,1.5,0.7,1.5,1.5s-0.7,1.5-1.5,1.5s-1.5-0.7-1.5-1.5S307,631.8,307.8,631.8z M307.8,640.3
			c0.8,0,1.5,0.7,1.5,1.5s-0.7,1.5-1.5,1.5s-1.5-0.7-1.5-1.5C306.4,641,307,640.3,307.8,640.3z M307.8,648.8c0.8,0,1.5,0.7,1.5,1.5
			s-0.7,1.5-1.5,1.5s-1.5-0.7-1.5-1.5S307,648.8,307.8,648.8z M307.8,657.3c0.8,0,1.5,0.7,1.5,1.5s-0.7,1.5-1.5,1.5
			s-1.5-0.7-1.5-1.5C306.4,658,307,657.3,307.8,657.3z M307.8,665.9c0.8,0,1.5,0.7,1.5,1.5s-0.7,1.5-1.5,1.5s-1.5-0.7-1.5-1.5
			C306.3,666.6,307,665.9,307.8,665.9z M307.8,674.4c0.8,0,1.5,0.7,1.5,1.5s-0.7,1.5-1.5,1.5s-1.5-0.7-1.5-1.5
			C306.4,675,307,674.4,307.8,674.4z M307.8,682.9c0.8,0,1.5,0.7,1.5,1.5s-0.7,1.5-1.5,1.5s-1.5-0.7-1.5-1.5
			C306.3,683.6,307,682.9,307.8,682.9z M307.8,691.4c0.8,0,1.5,0.7,1.5,1.5s-0.7,1.5-1.5,1.5s-1.5-0.7-1.5-1.5
			C306.4,692,307,691.4,307.8,691.4z M299.3,614.8c0.8,0,1.5,0.7,1.5,1.5s-0.7,1.5-1.5,1.5s-1.5-0.7-1.5-1.5
			S298.5,614.8,299.3,614.8z M299.3,623.3c0.8,0,1.5,0.7,1.5,1.5s-0.7,1.5-1.5,1.5s-1.5-0.7-1.5-1.5
			C297.9,624,298.5,623.3,299.3,623.3z M299.3,631.8c0.8,0,1.5,0.7,1.5,1.5s-0.7,1.5-1.5,1.5s-1.5-0.7-1.5-1.5
			S298.5,631.8,299.3,631.8z M299.3,640.3c0.8,0,1.5,0.7,1.5,1.5s-0.7,1.5-1.5,1.5s-1.5-0.7-1.5-1.5
			C297.9,641,298.5,640.3,299.3,640.3z M299.3,648.8c0.8,0,1.5,0.7,1.5,1.5s-0.7,1.5-1.5,1.5s-1.5-0.7-1.5-1.5
			S298.5,648.8,299.3,648.8z M299.3,657.3c0.8,0,1.5,0.7,1.5,1.5s-0.7,1.5-1.5,1.5s-1.5-0.7-1.5-1.5
			C297.9,658,298.5,657.3,299.3,657.3z M299.3,665.9c0.8,0,1.5,0.7,1.5,1.5s-0.7,1.5-1.5,1.5s-1.5-0.7-1.5-1.5
			C297.8,666.6,298.5,665.9,299.3,665.9z M299.3,674.4c0.8,0,1.5,0.7,1.5,1.5s-0.7,1.5-1.5,1.5s-1.5-0.7-1.5-1.5
			C297.9,675,298.5,674.4,299.3,674.4z M299.3,682.9c0.8,0,1.5,0.7,1.5,1.5s-0.7,1.5-1.5,1.5s-1.5-0.7-1.5-1.5
			C297.8,683.6,298.5,682.9,299.3,682.9z M299.3,691.4c0.8,0,1.5,0.7,1.5,1.5s-0.7,1.5-1.5,1.5s-1.5-0.7-1.5-1.5
			C297.9,692,298.5,691.4,299.3,691.4z M290.8,614.8c0.8,0,1.5,0.7,1.5,1.5s-0.7,1.5-1.5,1.5s-1.5-0.7-1.5-1.5
			S290,614.8,290.8,614.8z M290.8,623.3c0.8,0,1.5,0.7,1.5,1.5s-0.7,1.5-1.5,1.5s-1.5-0.7-1.5-1.5C289.4,624,290,623.3,290.8,623.3z
			 M290.8,631.8c0.8,0,1.5,0.7,1.5,1.5s-0.7,1.5-1.5,1.5s-1.5-0.7-1.5-1.5S290,631.8,290.8,631.8z M290.8,640.3
			c0.8,0,1.5,0.7,1.5,1.5s-0.7,1.5-1.5,1.5s-1.5-0.7-1.5-1.5C289.4,641,290,640.3,290.8,640.3z M290.8,648.8c0.8,0,1.5,0.7,1.5,1.5
			s-0.7,1.5-1.5,1.5s-1.5-0.7-1.5-1.5S290,648.8,290.8,648.8z M290.8,657.3c0.8,0,1.5,0.7,1.5,1.5s-0.7,1.5-1.5,1.5
			s-1.5-0.7-1.5-1.5C289.4,658,290,657.3,290.8,657.3z M290.8,665.9c0.8,0,1.5,0.7,1.5,1.5s-0.7,1.5-1.5,1.5s-1.5-0.7-1.5-1.5
			C289.3,666.6,290,665.9,290.8,665.9z M290.8,674.4c0.8,0,1.5,0.7,1.5,1.5s-0.7,1.5-1.5,1.5s-1.5-0.7-1.5-1.5
			C289.4,675,290,674.4,290.8,674.4z M290.8,682.9c0.8,0,1.5,0.7,1.5,1.5s-0.7,1.5-1.5,1.5s-1.5-0.7-1.5-1.5
			C289.3,683.6,290,682.9,290.8,682.9z M290.8,691.4c0.8,0,1.5,0.7,1.5,1.5s-0.7,1.5-1.5,1.5s-1.5-0.7-1.5-1.5
			C289.4,692,290,691.4,290.8,691.4z M282.5,614.6c0.8,0,1.5,0.7,1.5,1.5s-0.7,1.5-1.5,1.5s-1.5-0.7-1.5-1.5
			S281.7,614.6,282.5,614.6z M282.5,623.1c0.8,0,1.5,0.7,1.5,1.5s-0.7,1.5-1.5,1.5s-1.5-0.7-1.5-1.5S281.7,623.1,282.5,623.1z
			 M282.5,631.6c0.8,0,1.5,0.7,1.5,1.5s-0.7,1.5-1.5,1.5s-1.5-0.7-1.5-1.5S281.7,631.6,282.5,631.6z M282.5,640.2
			c0.8,0,1.5,0.7,1.5,1.5s-0.7,1.5-1.5,1.5s-1.5-0.7-1.5-1.5C281,640.8,281.7,640.2,282.5,640.2z M282.5,648.7
			c0.8,0,1.5,0.7,1.5,1.5s-0.7,1.5-1.5,1.5s-1.5-0.7-1.5-1.5S281.7,648.7,282.5,648.7z M282.5,657.2c0.8,0,1.5,0.7,1.5,1.5
			s-0.7,1.5-1.5,1.5s-1.5-0.7-1.5-1.5C281,657.8,281.7,657.2,282.5,657.2z M282.5,665.7c0.8,0,1.5,0.7,1.5,1.5s-0.7,1.5-1.5,1.5
			s-1.5-0.7-1.5-1.5S281.7,665.7,282.5,665.7z M282.5,674.2c0.8,0,1.5,0.7,1.5,1.5s-0.7,1.5-1.5,1.5s-1.5-0.7-1.5-1.5
			C281,674.8,281.7,674.2,282.5,674.2z M282.5,682.7c0.8,0,1.5,0.7,1.5,1.5s-0.7,1.5-1.5,1.5s-1.5-0.7-1.5-1.5
			S281.7,682.7,282.5,682.7z M282.5,691.2c0.8,0,1.5,0.7,1.5,1.5s-0.7,1.5-1.5,1.5s-1.5-0.7-1.5-1.5
			C281,691.8,281.7,691.2,282.5,691.2z M274,614.6c0.8,0,1.5,0.7,1.5,1.5s-0.7,1.5-1.5,1.5s-1.5-0.7-1.5-1.5S273.2,614.6,274,614.6z
			 M274,623.1c0.8,0,1.5,0.7,1.5,1.5s-0.7,1.5-1.5,1.5s-1.5-0.7-1.5-1.5S273.2,623.1,274,623.1z M274,631.6c0.8,0,1.5,0.7,1.5,1.5
			s-0.7,1.5-1.5,1.5s-1.5-0.7-1.5-1.5S273.2,631.6,274,631.6z M274,640.2c0.8,0,1.5,0.7,1.5,1.5s-0.7,1.5-1.5,1.5s-1.5-0.7-1.5-1.5
			C272.5,640.8,273.2,640.2,274,640.2z M274,648.7c0.8,0,1.5,0.7,1.5,1.5s-0.7,1.5-1.5,1.5s-1.5-0.7-1.5-1.5S273.2,648.7,274,648.7z
			 M274,657.2c0.8,0,1.5,0.7,1.5,1.5s-0.7,1.5-1.5,1.5s-1.5-0.7-1.5-1.5C272.5,657.8,273.2,657.2,274,657.2z M274,665.7
			c0.8,0,1.5,0.7,1.5,1.5s-0.7,1.5-1.5,1.5s-1.5-0.7-1.5-1.5S273.2,665.7,274,665.7z M274,674.2c0.8,0,1.5,0.7,1.5,1.5
			s-0.7,1.5-1.5,1.5s-1.5-0.7-1.5-1.5C272.5,674.8,273.2,674.2,274,674.2z M274,682.7c0.8,0,1.5,0.7,1.5,1.5s-0.7,1.5-1.5,1.5
			s-1.5-0.7-1.5-1.5S273.2,682.7,274,682.7z M274,691.2c0.8,0,1.5,0.7,1.5,1.5s-0.7,1.5-1.5,1.5s-1.5-0.7-1.5-1.5
			C272.5,691.8,273.2,691.2,274,691.2z M265.5,614.6c0.8,0,1.5,0.7,1.5,1.5s-0.7,1.5-1.5,1.5s-1.5-0.7-1.5-1.5
			S264.7,614.6,265.5,614.6z M265.5,623.1c0.8,0,1.5,0.7,1.5,1.5s-0.7,1.5-1.5,1.5s-1.5-0.7-1.5-1.5S264.7,623.1,265.5,623.1z
			 M265.5,631.6c0.8,0,1.5,0.7,1.5,1.5s-0.7,1.5-1.5,1.5s-1.5-0.7-1.5-1.5S264.7,631.6,265.5,631.6z M265.5,640.2
			c0.8,0,1.5,0.7,1.5,1.5s-0.7,1.5-1.5,1.5s-1.5-0.7-1.5-1.5C264,640.8,264.7,640.2,265.5,640.2z M265.5,648.7
			c0.8,0,1.5,0.7,1.5,1.5s-0.7,1.5-1.5,1.5s-1.5-0.7-1.5-1.5S264.7,648.7,265.5,648.7z M265.5,657.2c0.8,0,1.5,0.7,1.5,1.5
			s-0.7,1.5-1.5,1.5s-1.5-0.7-1.5-1.5C264,657.8,264.7,657.2,265.5,657.2z M265.5,665.7c0.8,0,1.5,0.7,1.5,1.5s-0.7,1.5-1.5,1.5
			s-1.5-0.7-1.5-1.5S264.7,665.7,265.5,665.7z M265.5,674.2c0.8,0,1.5,0.7,1.5,1.5s-0.7,1.5-1.5,1.5s-1.5-0.7-1.5-1.5
			C264,674.8,264.7,674.2,265.5,674.2z M265.5,682.7c0.8,0,1.5,0.7,1.5,1.5s-0.7,1.5-1.5,1.5s-1.5-0.7-1.5-1.5
			S264.7,682.7,265.5,682.7z M265.5,691.2c0.8,0,1.5,0.7,1.5,1.5s-0.7,1.5-1.5,1.5s-1.5-0.7-1.5-1.5
			C264,691.8,264.7,691.2,265.5,691.2z M257,606.1c0.8,0,1.5,0.7,1.5,1.5s-0.7,1.5-1.5,1.5s-1.5-0.7-1.5-1.5S256.2,606.1,257,606.1z
			 M257,614.6c0.8,0,1.5,0.7,1.5,1.5s-0.7,1.5-1.5,1.5s-1.5-0.7-1.5-1.5S256.2,614.6,257,614.6z M257,623.1c0.8,0,1.5,0.7,1.5,1.5
			s-0.7,1.5-1.5,1.5s-1.5-0.7-1.5-1.5S256.2,623.1,257,623.1z M257,631.6c0.8,0,1.5,0.7,1.5,1.5s-0.7,1.5-1.5,1.5s-1.5-0.7-1.5-1.5
			S256.2,631.6,257,631.6z M257,640.2c0.8,0,1.5,0.7,1.5,1.5s-0.7,1.5-1.5,1.5s-1.5-0.7-1.5-1.5C255.5,640.8,256.2,640.2,257,640.2z
			 M257,648.7c0.8,0,1.5,0.7,1.5,1.5s-0.7,1.5-1.5,1.5s-1.5-0.7-1.5-1.5S256.2,648.7,257,648.7z M257,657.2c0.8,0,1.5,0.7,1.5,1.5
			s-0.7,1.5-1.5,1.5s-1.5-0.7-1.5-1.5C255.5,657.8,256.2,657.2,257,657.2z M257,665.7c0.8,0,1.5,0.7,1.5,1.5s-0.7,1.5-1.5,1.5
			s-1.5-0.7-1.5-1.5S256.2,665.7,257,665.7z M257,674.2c0.8,0,1.5,0.7,1.5,1.5s-0.7,1.5-1.5,1.5s-1.5-0.7-1.5-1.5
			C255.5,674.8,256.2,674.2,257,674.2z M257,682.7c0.8,0,1.5,0.7,1.5,1.5s-0.7,1.5-1.5,1.5s-1.5-0.7-1.5-1.5S256.2,682.7,257,682.7z
			 M257,691.2c0.8,0,1.5,0.7,1.5,1.5s-0.7,1.5-1.5,1.5s-1.5-0.7-1.5-1.5C255.5,691.8,256.2,691.2,257,691.2z M248.5,606.1
			c0.8,0,1.5,0.7,1.5,1.5s-0.7,1.5-1.5,1.5s-1.5-0.7-1.5-1.5S247.7,606.1,248.5,606.1z M248.5,614.6c0.8,0,1.5,0.7,1.5,1.5
			s-0.7,1.5-1.5,1.5s-1.5-0.7-1.5-1.5S247.7,614.6,248.5,614.6z M248.5,623.1c0.8,0,1.5,0.7,1.5,1.5s-0.7,1.5-1.5,1.5
			s-1.5-0.7-1.5-1.5S247.7,623.1,248.5,623.1z M248.5,631.6c0.8,0,1.5,0.7,1.5,1.5s-0.7,1.5-1.5,1.5s-1.5-0.7-1.5-1.5
			S247.7,631.6,248.5,631.6z M248.5,640.2c0.8,0,1.5,0.7,1.5,1.5s-0.7,1.5-1.5,1.5s-1.5-0.7-1.5-1.5
			C247,640.8,247.7,640.2,248.5,640.2z M248.5,648.7c0.8,0,1.5,0.7,1.5,1.5s-0.7,1.5-1.5,1.5s-1.5-0.7-1.5-1.5
			S247.7,648.7,248.5,648.7z M248.5,657.2c0.8,0,1.5,0.7,1.5,1.5s-0.7,1.5-1.5,1.5s-1.5-0.7-1.5-1.5
			C247,657.8,247.7,657.2,248.5,657.2z M248.5,665.7c0.8,0,1.5,0.7,1.5,1.5s-0.7,1.5-1.5,1.5s-1.5-0.7-1.5-1.5
			S247.7,665.7,248.5,665.7z M248.5,674.2c0.8,0,1.5,0.7,1.5,1.5s-0.7,1.5-1.5,1.5s-1.5-0.7-1.5-1.5
			C247,674.8,247.7,674.2,248.5,674.2z M248.5,682.7c0.8,0,1.5,0.7,1.5,1.5s-0.7,1.5-1.5,1.5s-1.5-0.7-1.5-1.5
			S247.7,682.7,248.5,682.7z M248.5,691.2c0.8,0,1.5,0.7,1.5,1.5s-0.7,1.5-1.5,1.5s-1.5-0.7-1.5-1.5
			C247,691.8,247.7,691.2,248.5,691.2z M240,606.1c0.8,0,1.5,0.7,1.5,1.5s-0.7,1.5-1.5,1.5s-1.5-0.7-1.5-1.5S239.2,606.1,240,606.1z
			 M240,614.6c0.8,0,1.5,0.7,1.5,1.5s-0.7,1.5-1.5,1.5s-1.5-0.7-1.5-1.5S239.2,614.6,240,614.6z M240,623.1c0.8,0,1.5,0.7,1.5,1.5
			s-0.7,1.5-1.5,1.5s-1.5-0.7-1.5-1.5S239.2,623.1,240,623.1z M240,631.6c0.8,0,1.5,0.7,1.5,1.5s-0.7,1.5-1.5,1.5s-1.5-0.7-1.5-1.5
			S239.2,631.6,240,631.6z M240,640.2c0.8,0,1.5,0.7,1.5,1.5s-0.7,1.5-1.5,1.5s-1.5-0.7-1.5-1.5C238.5,640.8,239.2,640.2,240,640.2z
			 M240,648.7c0.8,0,1.5,0.7,1.5,1.5s-0.7,1.5-1.5,1.5s-1.5-0.7-1.5-1.5S239.2,648.7,240,648.7z M240,657.2c0.8,0,1.5,0.7,1.5,1.5
			s-0.7,1.5-1.5,1.5s-1.5-0.7-1.5-1.5C238.5,657.8,239.2,657.2,240,657.2z M240,665.7c0.8,0,1.5,0.7,1.5,1.5s-0.7,1.5-1.5,1.5
			s-1.5-0.7-1.5-1.5S239.2,665.7,240,665.7z M240,674.2c0.8,0,1.5,0.7,1.5,1.5s-0.7,1.5-1.5,1.5s-1.5-0.7-1.5-1.5
			C238.5,674.8,239.2,674.2,240,674.2z M240,682.7c0.8,0,1.5,0.7,1.5,1.5s-0.7,1.5-1.5,1.5s-1.5-0.7-1.5-1.5S239.2,682.7,240,682.7z
			 M240,691.2c0.8,0,1.5,0.7,1.5,1.5s-0.7,1.5-1.5,1.5s-1.5-0.7-1.5-1.5C238.5,691.8,239.2,691.2,240,691.2z M231.5,606.1
			c0.8,0,1.5,0.7,1.5,1.5s-0.7,1.5-1.5,1.5s-1.5-0.7-1.5-1.5S230.7,606.1,231.5,606.1z M231.5,614.6c0.8,0,1.5,0.7,1.5,1.5
			s-0.7,1.5-1.5,1.5s-1.5-0.7-1.5-1.5S230.7,614.6,231.5,614.6z M231.5,623.1c0.8,0,1.5,0.7,1.5,1.5s-0.7,1.5-1.5,1.5
			s-1.5-0.7-1.5-1.5S230.7,623.1,231.5,623.1z M231.5,631.6c0.8,0,1.5,0.7,1.5,1.5s-0.7,1.5-1.5,1.5s-1.5-0.7-1.5-1.5
			S230.7,631.6,231.5,631.6z M231.5,640.2c0.8,0,1.5,0.7,1.5,1.5s-0.7,1.5-1.5,1.5s-1.5-0.7-1.5-1.5
			C230,640.8,230.7,640.2,231.5,640.2z M231.5,648.7c0.8,0,1.5,0.7,1.5,1.5s-0.7,1.5-1.5,1.5s-1.5-0.7-1.5-1.5
			S230.7,648.7,231.5,648.7z M231.5,657.2c0.8,0,1.5,0.7,1.5,1.5s-0.7,1.5-1.5,1.5s-1.5-0.7-1.5-1.5
			C230,657.8,230.7,657.2,231.5,657.2z M231.5,665.7c0.8,0,1.5,0.7,1.5,1.5s-0.7,1.5-1.5,1.5s-1.5-0.7-1.5-1.5
			S230.7,665.7,231.5,665.7z M231.5,674.2c0.8,0,1.5,0.7,1.5,1.5s-0.7,1.5-1.5,1.5s-1.5-0.7-1.5-1.5
			C230,674.8,230.7,674.2,231.5,674.2z M231.5,682.7c0.8,0,1.5,0.7,1.5,1.5s-0.7,1.5-1.5,1.5s-1.5-0.7-1.5-1.5
			S230.7,682.7,231.5,682.7z M231.5,691.2c0.8,0,1.5,0.7,1.5,1.5s-0.7,1.5-1.5,1.5s-1.5-0.7-1.5-1.5
			C230,691.8,230.7,691.2,231.5,691.2z M223,606.1c0.8,0,1.5,0.7,1.5,1.5s-0.7,1.5-1.5,1.5s-1.5-0.7-1.5-1.5S222.1,606.1,223,606.1z
			 M223,614.6c0.8,0,1.5,0.7,1.5,1.5s-0.7,1.5-1.5,1.5s-1.5-0.7-1.5-1.5S222.1,614.6,223,614.6z M223,623.1c0.8,0,1.5,0.7,1.5,1.5
			s-0.7,1.5-1.5,1.5s-1.5-0.7-1.5-1.5S222.1,623.1,223,623.1z M223,631.6c0.8,0,1.5,0.7,1.5,1.5s-0.7,1.5-1.5,1.5s-1.5-0.7-1.5-1.5
			S222.1,631.6,223,631.6z M223,640.2c0.8,0,1.5,0.7,1.5,1.5s-0.7,1.5-1.5,1.5s-1.5-0.7-1.5-1.5C221.5,640.8,222.1,640.2,223,640.2z
			 M223,648.7c0.8,0,1.5,0.7,1.5,1.5s-0.7,1.5-1.5,1.5s-1.5-0.7-1.5-1.5S222.1,648.7,223,648.7z M223,657.2c0.8,0,1.5,0.7,1.5,1.5
			s-0.7,1.5-1.5,1.5s-1.5-0.7-1.5-1.5C221.5,657.8,222.1,657.2,223,657.2z M223,665.7c0.8,0,1.5,0.7,1.5,1.5s-0.7,1.5-1.5,1.5
			s-1.5-0.7-1.5-1.5S222.1,665.7,223,665.7z M223,674.2c0.8,0,1.5,0.7,1.5,1.5s-0.7,1.5-1.5,1.5s-1.5-0.7-1.5-1.5
			C221.5,674.8,222.1,674.2,223,674.2z M223,682.7c0.8,0,1.5,0.7,1.5,1.5s-0.7,1.5-1.5,1.5s-1.5-0.7-1.5-1.5S222.1,682.7,223,682.7z
			 M223,691.2c0.8,0,1.5,0.7,1.5,1.5s-0.7,1.5-1.5,1.5s-1.5-0.7-1.5-1.5C221.5,691.8,222.1,691.2,223,691.2z M214.5,606.1
			c0.8,0,1.5,0.7,1.5,1.5s-0.7,1.5-1.5,1.5s-1.5-0.7-1.5-1.5S213.6,606.1,214.5,606.1z M214.5,614.6c0.8,0,1.5,0.7,1.5,1.5
			s-0.7,1.5-1.5,1.5s-1.5-0.7-1.5-1.5S213.6,614.6,214.5,614.6z M214.5,623.1c0.8,0,1.5,0.7,1.5,1.5s-0.7,1.5-1.5,1.5
			s-1.5-0.7-1.5-1.5S213.6,623.1,214.5,623.1z M214.5,631.6c0.8,0,1.5,0.7,1.5,1.5s-0.7,1.5-1.5,1.5s-1.5-0.7-1.5-1.5
			S213.6,631.6,214.5,631.6z M214.5,640.2c0.8,0,1.5,0.7,1.5,1.5s-0.7,1.5-1.5,1.5s-1.5-0.7-1.5-1.5
			C213,640.8,213.6,640.2,214.5,640.2z M214.5,648.7c0.8,0,1.5,0.7,1.5,1.5s-0.7,1.5-1.5,1.5s-1.5-0.7-1.5-1.5
			S213.6,648.7,214.5,648.7z M214.5,657.2c0.8,0,1.5,0.7,1.5,1.5s-0.7,1.5-1.5,1.5s-1.5-0.7-1.5-1.5
			C213,657.8,213.6,657.2,214.5,657.2z M214.5,665.7c0.8,0,1.5,0.7,1.5,1.5s-0.7,1.5-1.5,1.5s-1.5-0.7-1.5-1.5
			S213.6,665.7,214.5,665.7z M214.5,674.2c0.8,0,1.5,0.7,1.5,1.5s-0.7,1.5-1.5,1.5s-1.5-0.7-1.5-1.5
			C213,674.8,213.6,674.2,214.5,674.2z M214.5,682.7c0.8,0,1.5,0.7,1.5,1.5s-0.7,1.5-1.5,1.5s-1.5-0.7-1.5-1.5
			S213.6,682.7,214.5,682.7z M214.5,691.2c0.8,0,1.5,0.7,1.5,1.5s-0.7,1.5-1.5,1.5s-1.5-0.7-1.5-1.5
			C213,691.8,213.6,691.2,214.5,691.2z M206,606.1c0.8,0,1.5,0.7,1.5,1.5s-0.7,1.5-1.5,1.5s-1.5-0.7-1.5-1.5S205.1,606.1,206,606.1z
			 M206,614.6c0.8,0,1.5,0.7,1.5,1.5s-0.7,1.5-1.5,1.5s-1.5-0.7-1.5-1.5S205.1,614.6,206,614.6z M206,623.1c0.8,0,1.5,0.7,1.5,1.5
			s-0.7,1.5-1.5,1.5s-1.5-0.7-1.5-1.5S205.1,623.1,206,623.1z M206,631.6c0.8,0,1.5,0.7,1.5,1.5s-0.7,1.5-1.5,1.5s-1.5-0.7-1.5-1.5
			S205.1,631.6,206,631.6z M206,640.2c0.8,0,1.5,0.7,1.5,1.5s-0.7,1.5-1.5,1.5s-1.5-0.7-1.5-1.5C204.5,640.8,205.1,640.2,206,640.2z
			 M206,648.7c0.8,0,1.5,0.7,1.5,1.5s-0.7,1.5-1.5,1.5s-1.5-0.7-1.5-1.5S205.1,648.7,206,648.7z M206,657.2c0.8,0,1.5,0.7,1.5,1.5
			s-0.7,1.5-1.5,1.5s-1.5-0.7-1.5-1.5C204.5,657.8,205.1,657.2,206,657.2z M206,665.7c0.8,0,1.5,0.7,1.5,1.5s-0.7,1.5-1.5,1.5
			s-1.5-0.7-1.5-1.5S205.1,665.7,206,665.7z M206,674.2c0.8,0,1.5,0.7,1.5,1.5s-0.7,1.5-1.5,1.5s-1.5-0.7-1.5-1.5
			C204.5,674.8,205.1,674.2,206,674.2z M206,682.7c0.8,0,1.5,0.7,1.5,1.5s-0.7,1.5-1.5,1.5s-1.5-0.7-1.5-1.5S205.1,682.7,206,682.7z
			 M206,691.2c0.8,0,1.5,0.7,1.5,1.5s-0.7,1.5-1.5,1.5s-1.5-0.7-1.5-1.5C204.5,691.8,205.1,691.2,206,691.2z M197.5,606.1
			c0.8,0,1.5,0.7,1.5,1.5s-0.7,1.5-1.5,1.5s-1.5-0.7-1.5-1.5S196.6,606.1,197.5,606.1z M197.5,614.6c0.8,0,1.5,0.7,1.5,1.5
			s-0.7,1.5-1.5,1.5s-1.5-0.7-1.5-1.5S196.6,614.6,197.5,614.6z M197.5,623.1c0.8,0,1.5,0.7,1.5,1.5s-0.7,1.5-1.5,1.5
			s-1.5-0.7-1.5-1.5S196.6,623.1,197.5,623.1z M197.5,631.6c0.8,0,1.5,0.7,1.5,1.5s-0.7,1.5-1.5,1.5s-1.5-0.7-1.5-1.5
			S196.6,631.6,197.5,631.6z M197.5,640.2c0.8,0,1.5,0.7,1.5,1.5s-0.7,1.5-1.5,1.5s-1.5-0.7-1.5-1.5
			C196,640.8,196.6,640.2,197.5,640.2z M197.5,648.7c0.8,0,1.5,0.7,1.5,1.5s-0.7,1.5-1.5,1.5s-1.5-0.7-1.5-1.5
			S196.6,648.7,197.5,648.7z M197.5,657.2c0.8,0,1.5,0.7,1.5,1.5s-0.7,1.5-1.5,1.5s-1.5-0.7-1.5-1.5
			C196,657.8,196.6,657.2,197.5,657.2z M197.5,665.7c0.8,0,1.5,0.7,1.5,1.5s-0.7,1.5-1.5,1.5s-1.5-0.7-1.5-1.5
			S196.6,665.7,197.5,665.7z M197.5,674.2c0.8,0,1.5,0.7,1.5,1.5s-0.7,1.5-1.5,1.5s-1.5-0.7-1.5-1.5
			C196,674.8,196.6,674.2,197.5,674.2z M197.5,682.7c0.8,0,1.5,0.7,1.5,1.5s-0.7,1.5-1.5,1.5s-1.5-0.7-1.5-1.5
			S196.6,682.7,197.5,682.7z M197.5,691.2c0.8,0,1.5,0.7,1.5,1.5s-0.7,1.5-1.5,1.5s-1.5-0.7-1.5-1.5
			C196,691.8,196.6,691.2,197.5,691.2z M188.9,606.1c0.8,0,1.5,0.7,1.5,1.5s-0.7,1.5-1.5,1.5s-1.5-0.7-1.5-1.5
			C187.5,606.8,188.1,606.1,188.9,606.1z M188.9,614.6c0.8,0,1.5,0.7,1.5,1.5s-0.7,1.5-1.5,1.5s-1.5-0.7-1.5-1.5
			S188.1,614.6,188.9,614.6z M188.9,623.1c0.8,0,1.5,0.7,1.5,1.5s-0.7,1.5-1.5,1.5s-1.5-0.7-1.5-1.5
			C187.5,623.8,188.1,623.1,188.9,623.1z M188.9,631.6c0.8,0,1.5,0.7,1.5,1.5s-0.7,1.5-1.5,1.5s-1.5-0.7-1.5-1.5
			S188.1,631.6,188.9,631.6z M188.9,640.2c0.8,0,1.5,0.7,1.5,1.5s-0.7,1.5-1.5,1.5s-1.5-0.7-1.5-1.5
			C187.5,640.8,188.1,640.2,188.9,640.2z M188.9,648.7c0.8,0,1.5,0.7,1.5,1.5s-0.7,1.5-1.5,1.5s-1.5-0.7-1.5-1.5
			S188.1,648.7,188.9,648.7z M188.9,657.2c0.8,0,1.5,0.7,1.5,1.5s-0.7,1.5-1.5,1.5s-1.5-0.7-1.5-1.5
			C187.5,657.8,188.1,657.2,188.9,657.2z M188.9,665.7c0.8,0,1.5,0.7,1.5,1.5s-0.7,1.5-1.5,1.5s-1.5-0.7-1.5-1.5
			S188.1,665.7,188.9,665.7z M188.9,674.2c0.8,0,1.5,0.7,1.5,1.5s-0.7,1.5-1.5,1.5s-1.5-0.7-1.5-1.5
			C187.5,674.8,188.1,674.2,188.9,674.2z M188.9,682.7c0.8,0,1.5,0.7,1.5,1.5s-0.7,1.5-1.5,1.5s-1.5-0.7-1.5-1.5
			S188.1,682.7,188.9,682.7z M188.9,691.2c0.8,0,1.5,0.7,1.5,1.5s-0.7,1.5-1.5,1.5s-1.5-0.7-1.5-1.5
			C187.5,691.8,188.1,691.2,188.9,691.2z M180.4,606.1c0.8,0,1.5,0.7,1.5,1.5s-0.7,1.5-1.5,1.5s-1.5-0.7-1.5-1.5
			C179,606.8,179.6,606.1,180.4,606.1z M180.4,614.6c0.8,0,1.5,0.7,1.5,1.5s-0.7,1.5-1.5,1.5s-1.5-0.7-1.5-1.5
			S179.6,614.6,180.4,614.6z M180.4,623.1c0.8,0,1.5,0.7,1.5,1.5s-0.7,1.5-1.5,1.5s-1.5-0.7-1.5-1.5
			C179,623.8,179.6,623.1,180.4,623.1z M180.4,631.6c0.8,0,1.5,0.7,1.5,1.5s-0.7,1.5-1.5,1.5s-1.5-0.7-1.5-1.5
			S179.6,631.6,180.4,631.6z M180.4,640.2c0.8,0,1.5,0.7,1.5,1.5s-0.7,1.5-1.5,1.5s-1.5-0.7-1.5-1.5
			C179,640.8,179.6,640.2,180.4,640.2z M180.4,648.7c0.8,0,1.5,0.7,1.5,1.5s-0.7,1.5-1.5,1.5s-1.5-0.7-1.5-1.5
			S179.6,648.7,180.4,648.7z M180.4,657.2c0.8,0,1.5,0.7,1.5,1.5s-0.7,1.5-1.5,1.5s-1.5-0.7-1.5-1.5
			C179,657.8,179.6,657.2,180.4,657.2z M180.4,665.7c0.8,0,1.5,0.7,1.5,1.5s-0.7,1.5-1.5,1.5s-1.5-0.7-1.5-1.5
			S179.6,665.7,180.4,665.7z M180.4,674.2c0.8,0,1.5,0.7,1.5,1.5s-0.7,1.5-1.5,1.5s-1.5-0.7-1.5-1.5
			C179,674.8,179.6,674.2,180.4,674.2z M180.4,682.7c0.8,0,1.5,0.7,1.5,1.5s-0.7,1.5-1.5,1.5s-1.5-0.7-1.5-1.5
			S179.6,682.7,180.4,682.7z M180.4,691.2c0.8,0,1.5,0.7,1.5,1.5s-0.7,1.5-1.5,1.5s-1.5-0.7-1.5-1.5
			C179,691.8,179.6,691.2,180.4,691.2z M171.9,606.1c0.8,0,1.5,0.7,1.5,1.5s-0.7,1.5-1.5,1.5s-1.5-0.7-1.5-1.5
			C170.5,606.8,171.1,606.1,171.9,606.1z M171.9,614.6c0.8,0,1.5,0.7,1.5,1.5s-0.7,1.5-1.5,1.5s-1.5-0.7-1.5-1.5
			S171.1,614.6,171.9,614.6z M171.9,623.1c0.8,0,1.5,0.7,1.5,1.5s-0.7,1.5-1.5,1.5s-1.5-0.7-1.5-1.5
			C170.5,623.8,171.1,623.1,171.9,623.1z M171.9,631.6c0.8,0,1.5,0.7,1.5,1.5s-0.7,1.5-1.5,1.5s-1.5-0.7-1.5-1.5
			S171.1,631.6,171.9,631.6z M171.9,640.2c0.8,0,1.5,0.7,1.5,1.5s-0.7,1.5-1.5,1.5s-1.5-0.7-1.5-1.5
			C170.5,640.8,171.1,640.2,171.9,640.2z M171.9,648.7c0.8,0,1.5,0.7,1.5,1.5s-0.7,1.5-1.5,1.5s-1.5-0.7-1.5-1.5
			S171.1,648.7,171.9,648.7z M171.9,657.2c0.8,0,1.5,0.7,1.5,1.5s-0.7,1.5-1.5,1.5s-1.5-0.7-1.5-1.5
			C170.5,657.8,171.1,657.2,171.9,657.2z M171.9,665.7c0.8,0,1.5,0.7,1.5,1.5s-0.7,1.5-1.5,1.5s-1.5-0.7-1.5-1.5
			S171.1,665.7,171.9,665.7z M171.9,674.2c0.8,0,1.5,0.7,1.5,1.5s-0.7,1.5-1.5,1.5s-1.5-0.7-1.5-1.5
			C170.5,674.8,171.1,674.2,171.9,674.2z M171.9,682.7c0.8,0,1.5,0.7,1.5,1.5s-0.7,1.5-1.5,1.5s-1.5-0.7-1.5-1.5
			S171.1,682.7,171.9,682.7z M171.9,691.2c0.8,0,1.5,0.7,1.5,1.5s-0.7,1.5-1.5,1.5s-1.5-0.7-1.5-1.5
			C170.5,691.8,171.1,691.2,171.9,691.2z M163.4,614.6c0.8,0,1.5,0.7,1.5,1.5s-0.7,1.5-1.5,1.5s-1.5-0.7-1.5-1.5
			S162.6,614.6,163.4,614.6z M163.4,623.1c0.8,0,1.5,0.7,1.5,1.5s-0.7,1.5-1.5,1.5s-1.5-0.7-1.5-1.5
			C162,623.8,162.6,623.1,163.4,623.1z M163.4,631.6c0.8,0,1.5,0.7,1.5,1.5s-0.7,1.5-1.5,1.5s-1.5-0.7-1.5-1.5
			S162.6,631.6,163.4,631.6z M163.4,640.2c0.8,0,1.5,0.7,1.5,1.5s-0.7,1.5-1.5,1.5s-1.5-0.7-1.5-1.5
			C162,640.8,162.6,640.2,163.4,640.2z M163.4,648.7c0.8,0,1.5,0.7,1.5,1.5s-0.7,1.5-1.5,1.5s-1.5-0.7-1.5-1.5
			S162.6,648.7,163.4,648.7z M163.4,657.2c0.8,0,1.5,0.7,1.5,1.5s-0.7,1.5-1.5,1.5s-1.5-0.7-1.5-1.5
			C162,657.8,162.6,657.2,163.4,657.2z M163.4,665.7c0.8,0,1.5,0.7,1.5,1.5s-0.7,1.5-1.5,1.5s-1.5-0.7-1.5-1.5
			S162.6,665.7,163.4,665.7z M163.4,674.2c0.8,0,1.5,0.7,1.5,1.5s-0.7,1.5-1.5,1.5s-1.5-0.7-1.5-1.5
			C162,674.8,162.6,674.2,163.4,674.2z M163.4,682.7c0.8,0,1.5,0.7,1.5,1.5s-0.7,1.5-1.5,1.5s-1.5-0.7-1.5-1.5
			S162.6,682.7,163.4,682.7z M163.4,691.2c0.8,0,1.5,0.7,1.5,1.5s-0.7,1.5-1.5,1.5s-1.5-0.7-1.5-1.5
			C162,691.8,162.6,691.2,163.4,691.2z M154.9,606.1c0.8,0,1.5,0.7,1.5,1.5s-0.7,1.5-1.5,1.5s-1.5-0.7-1.5-1.5
			C153.5,606.8,154.1,606.1,154.9,606.1z M154.9,614.6c0.8,0,1.5,0.7,1.5,1.5s-0.7,1.5-1.5,1.5s-1.5-0.7-1.5-1.5
			S154.1,614.6,154.9,614.6z M154.9,623.1c0.8,0,1.5,0.7,1.5,1.5s-0.7,1.5-1.5,1.5s-1.5-0.7-1.5-1.5
			C153.5,623.8,154.1,623.1,154.9,623.1z M154.9,631.6c0.8,0,1.5,0.7,1.5,1.5s-0.7,1.5-1.5,1.5s-1.5-0.7-1.5-1.5
			S154.1,631.6,154.9,631.6z M154.9,640.2c0.8,0,1.5,0.7,1.5,1.5s-0.7,1.5-1.5,1.5s-1.5-0.7-1.5-1.5
			C153.5,640.8,154.1,640.2,154.9,640.2z M154.9,648.7c0.8,0,1.5,0.7,1.5,1.5s-0.7,1.5-1.5,1.5s-1.5-0.7-1.5-1.5
			S154.1,648.7,154.9,648.7z M154.9,657.2c0.8,0,1.5,0.7,1.5,1.5s-0.7,1.5-1.5,1.5s-1.5-0.7-1.5-1.5
			C153.5,657.8,154.1,657.2,154.9,657.2z M154.9,665.7c0.8,0,1.5,0.7,1.5,1.5s-0.7,1.5-1.5,1.5s-1.5-0.7-1.5-1.5
			S154.1,665.7,154.9,665.7z M154.9,674.2c0.8,0,1.5,0.7,1.5,1.5s-0.7,1.5-1.5,1.5s-1.5-0.7-1.5-1.5
			C153.5,674.8,154.1,674.2,154.9,674.2z M154.9,682.7c0.8,0,1.5,0.7,1.5,1.5s-0.7,1.5-1.5,1.5s-1.5-0.7-1.5-1.5
			S154.1,682.7,154.9,682.7z M154.9,691.2c0.8,0,1.5,0.7,1.5,1.5s-0.7,1.5-1.5,1.5s-1.5-0.7-1.5-1.5
			C153.5,691.8,154.1,691.2,154.9,691.2z M146.4,597.6c0.8,0,1.5,0.7,1.5,1.5s-0.7,1.5-1.5,1.5s-1.5-0.7-1.5-1.5
			S145.6,597.6,146.4,597.6z M146.4,606.1c0.8,0,1.5,0.7,1.5,1.5s-0.7,1.5-1.5,1.5s-1.5-0.7-1.5-1.5
			C145,606.8,145.6,606.1,146.4,606.1z M146.4,614.6c0.8,0,1.5,0.7,1.5,1.5s-0.7,1.5-1.5,1.5s-1.5-0.7-1.5-1.5
			S145.6,614.6,146.4,614.6z M146.4,623.1c0.8,0,1.5,0.7,1.5,1.5s-0.7,1.5-1.5,1.5s-1.5-0.7-1.5-1.5
			C145,623.8,145.6,623.1,146.4,623.1z M146.4,631.6c0.8,0,1.5,0.7,1.5,1.5s-0.7,1.5-1.5,1.5s-1.5-0.7-1.5-1.5
			S145.6,631.6,146.4,631.6z M146.4,640.2c0.8,0,1.5,0.7,1.5,1.5s-0.7,1.5-1.5,1.5s-1.5-0.7-1.5-1.5
			C145,640.8,145.6,640.2,146.4,640.2z M146.4,648.7c0.8,0,1.5,0.7,1.5,1.5s-0.7,1.5-1.5,1.5s-1.5-0.7-1.5-1.5
			S145.6,648.7,146.4,648.7z M146.4,657.2c0.8,0,1.5,0.7,1.5,1.5s-0.7,1.5-1.5,1.5s-1.5-0.7-1.5-1.5
			C145,657.8,145.6,657.2,146.4,657.2z M146.4,665.7c0.8,0,1.5,0.7,1.5,1.5s-0.7,1.5-1.5,1.5s-1.5-0.7-1.5-1.5
			S145.6,665.7,146.4,665.7z M146.4,674.2c0.8,0,1.5,0.7,1.5,1.5s-0.7,1.5-1.5,1.5s-1.5-0.7-1.5-1.5
			C145,674.8,145.6,674.2,146.4,674.2z M146.4,682.7c0.8,0,1.5,0.7,1.5,1.5s-0.7,1.5-1.5,1.5s-1.5-0.7-1.5-1.5
			S145.6,682.7,146.4,682.7z M146.4,691.2c0.8,0,1.5,0.7,1.5,1.5s-0.7,1.5-1.5,1.5s-1.5-0.7-1.5-1.5
			C145,691.8,145.6,691.2,146.4,691.2z M137.9,589.1c0.8,0,1.5,0.7,1.5,1.5s-0.7,1.5-1.5,1.5s-1.5-0.7-1.5-1.5
			S137.1,589.1,137.9,589.1z M137.9,597.6c0.8,0,1.5,0.7,1.5,1.5s-0.7,1.5-1.5,1.5s-1.5-0.7-1.5-1.5S137.1,597.6,137.9,597.6z
			 M137.9,606.1c0.8,0,1.5,0.7,1.5,1.5s-0.7,1.5-1.5,1.5s-1.5-0.7-1.5-1.5S137.1,606.1,137.9,606.1z M137.9,614.6
			c0.8,0,1.5,0.7,1.5,1.5s-0.7,1.5-1.5,1.5s-1.5-0.7-1.5-1.5S137.1,614.6,137.9,614.6z M137.9,623.1c0.8,0,1.5,0.7,1.5,1.5
			s-0.7,1.5-1.5,1.5s-1.5-0.7-1.5-1.5S137.1,623.1,137.9,623.1z M137.9,631.6c0.8,0,1.5,0.7,1.5,1.5s-0.7,1.5-1.5,1.5
			s-1.5-0.7-1.5-1.5S137.1,631.6,137.9,631.6z M137.9,640.2c0.8,0,1.5,0.7,1.5,1.5s-0.7,1.5-1.5,1.5s-1.5-0.7-1.5-1.5
			C136.4,640.8,137.1,640.2,137.9,640.2z M137.9,648.7c0.8,0,1.5,0.7,1.5,1.5s-0.7,1.5-1.5,1.5s-1.5-0.7-1.5-1.5
			S137.1,648.7,137.9,648.7z M137.9,657.2c0.8,0,1.5,0.7,1.5,1.5s-0.7,1.5-1.5,1.5s-1.5-0.7-1.5-1.5
			C136.4,657.8,137.1,657.2,137.9,657.2z M137.9,665.7c0.8,0,1.5,0.7,1.5,1.5s-0.7,1.5-1.5,1.5s-1.5-0.7-1.5-1.5
			S137.1,665.7,137.9,665.7z M137.9,674.2c0.8,0,1.5,0.7,1.5,1.5s-0.7,1.5-1.5,1.5s-1.5-0.7-1.5-1.5
			C136.4,674.8,137.1,674.2,137.9,674.2z M137.9,682.7c0.8,0,1.5,0.7,1.5,1.5s-0.7,1.5-1.5,1.5s-1.5-0.7-1.5-1.5
			S137.1,682.7,137.9,682.7z M137.9,691.2c0.8,0,1.5,0.7,1.5,1.5s-0.7,1.5-1.5,1.5s-1.5-0.7-1.5-1.5
			C136.4,691.8,137.1,691.2,137.9,691.2z M129.4,580.6c0.8,0,1.5,0.7,1.5,1.5s-0.7,1.5-1.5,1.5s-1.5-0.7-1.5-1.5
			C127.9,581.3,128.6,580.6,129.4,580.6z M129.4,589.1c0.8,0,1.5,0.7,1.5,1.5s-0.7,1.5-1.5,1.5s-1.5-0.7-1.5-1.5
			C127.9,589.8,128.6,589.1,129.4,589.1z M129.4,597.6c0.8,0,1.5,0.7,1.5,1.5s-0.7,1.5-1.5,1.5s-1.5-0.7-1.5-1.5
			S128.6,597.6,129.4,597.6z M129.4,606.1c0.8,0,1.5,0.7,1.5,1.5s-0.7,1.5-1.5,1.5s-1.5-0.7-1.5-1.5
			C127.9,606.8,128.6,606.1,129.4,606.1z M129.4,614.6c0.8,0,1.5,0.7,1.5,1.5s-0.7,1.5-1.5,1.5s-1.5-0.7-1.5-1.5
			S128.6,614.6,129.4,614.6z M129.4,623.1c0.8,0,1.5,0.7,1.5,1.5s-0.7,1.5-1.5,1.5s-1.5-0.7-1.5-1.5
			C127.9,623.8,128.6,623.1,129.4,623.1z M129.4,631.6c0.8,0,1.5,0.7,1.5,1.5s-0.7,1.5-1.5,1.5s-1.5-0.7-1.5-1.5
			S128.6,631.6,129.4,631.6z M129.4,640.2c0.8,0,1.5,0.7,1.5,1.5s-0.7,1.5-1.5,1.5s-1.5-0.7-1.5-1.5
			C127.9,640.8,128.6,640.2,129.4,640.2z M129.4,648.7c0.8,0,1.5,0.7,1.5,1.5s-0.7,1.5-1.5,1.5s-1.5-0.7-1.5-1.5
			C127.9,649.4,128.6,648.7,129.4,648.7z M129.4,657.2c0.8,0,1.5,0.7,1.5,1.5s-0.7,1.5-1.5,1.5s-1.5-0.7-1.5-1.5
			C127.9,657.8,128.6,657.2,129.4,657.2z M129.4,665.7c0.8,0,1.5,0.7,1.5,1.5s-0.7,1.5-1.5,1.5s-1.5-0.7-1.5-1.5
			C127.9,666.4,128.6,665.7,129.4,665.7z M129.4,674.2c0.8,0,1.5,0.7,1.5,1.5s-0.7,1.5-1.5,1.5s-1.5-0.7-1.5-1.5
			C127.9,674.8,128.6,674.2,129.4,674.2z M129.4,682.7c0.8,0,1.5,0.7,1.5,1.5s-0.7,1.5-1.5,1.5s-1.5-0.7-1.5-1.5
			C127.9,683.4,128.6,682.7,129.4,682.7z M129.4,691.2c0.8,0,1.5,0.7,1.5,1.5s-0.7,1.5-1.5,1.5s-1.5-0.7-1.5-1.5
			C127.9,691.8,128.6,691.2,129.4,691.2z M120.9,580.6c0.8,0,1.5,0.7,1.5,1.5s-0.7,1.5-1.5,1.5s-1.5-0.7-1.5-1.5
			S120.1,580.6,120.9,580.6z M120.9,589.1c0.8,0,1.5,0.7,1.5,1.5s-0.7,1.5-1.5,1.5s-1.5-0.7-1.5-1.5S120.1,589.1,120.9,589.1z
			 M120.9,597.6c0.8,0,1.5,0.7,1.5,1.5s-0.7,1.5-1.5,1.5s-1.5-0.7-1.5-1.5S120.1,597.6,120.9,597.6z M120.9,606.1
			c0.8,0,1.5,0.7,1.5,1.5s-0.7,1.5-1.5,1.5s-1.5-0.7-1.5-1.5S120.1,606.1,120.9,606.1z M120.9,614.6c0.8,0,1.5,0.7,1.5,1.5
			s-0.7,1.5-1.5,1.5s-1.5-0.7-1.5-1.5S120.1,614.6,120.9,614.6z M120.9,623.1c0.8,0,1.5,0.7,1.5,1.5s-0.7,1.5-1.5,1.5
			s-1.5-0.7-1.5-1.5S120.1,623.1,120.9,623.1z M120.9,631.6c0.8,0,1.5,0.7,1.5,1.5s-0.7,1.5-1.5,1.5s-1.5-0.7-1.5-1.5
			S120.1,631.6,120.9,631.6z M120.9,640.2c0.8,0,1.5,0.7,1.5,1.5s-0.7,1.5-1.5,1.5s-1.5-0.7-1.5-1.5
			C119.4,640.8,120.1,640.2,120.9,640.2z M120.9,648.7c0.8,0,1.5,0.7,1.5,1.5s-0.7,1.5-1.5,1.5s-1.5-0.7-1.5-1.5
			S120.1,648.7,120.9,648.7z M120.9,657.2c0.8,0,1.5,0.7,1.5,1.5s-0.7,1.5-1.5,1.5s-1.5-0.7-1.5-1.5
			C119.4,657.8,120.1,657.2,120.9,657.2z M120.9,665.7c0.8,0,1.5,0.7,1.5,1.5s-0.7,1.5-1.5,1.5s-1.5-0.7-1.5-1.5
			S120.1,665.7,120.9,665.7z M120.9,674.2c0.8,0,1.5,0.7,1.5,1.5s-0.7,1.5-1.5,1.5s-1.5-0.7-1.5-1.5
			C119.4,674.8,120.1,674.2,120.9,674.2z M120.9,682.7c0.8,0,1.5,0.7,1.5,1.5s-0.7,1.5-1.5,1.5s-1.5-0.7-1.5-1.5
			S120.1,682.7,120.9,682.7z M120.9,691.2c0.8,0,1.5,0.7,1.5,1.5s-0.7,1.5-1.5,1.5s-1.5-0.7-1.5-1.5
			C119.4,691.8,120.1,691.2,120.9,691.2z M112.4,572.1c0.8,0,1.5,0.7,1.5,1.5s-0.7,1.5-1.5,1.5s-1.5-0.7-1.5-1.5
			S111.6,572.1,112.4,572.1z M112.4,580.6c0.8,0,1.5,0.7,1.5,1.5s-0.7,1.5-1.5,1.5s-1.5-0.7-1.5-1.5S111.6,580.6,112.4,580.6z
			 M112.4,589.1c0.8,0,1.5,0.7,1.5,1.5s-0.7,1.5-1.5,1.5s-1.5-0.7-1.5-1.5S111.6,589.1,112.4,589.1z M112.4,597.6
			c0.8,0,1.5,0.7,1.5,1.5s-0.7,1.5-1.5,1.5s-1.5-0.7-1.5-1.5S111.6,597.6,112.4,597.6z M112.4,606.1c0.8,0,1.5,0.7,1.5,1.5
			s-0.7,1.5-1.5,1.5s-1.5-0.7-1.5-1.5S111.6,606.1,112.4,606.1z M112.4,614.6c0.8,0,1.5,0.7,1.5,1.5s-0.7,1.5-1.5,1.5
			s-1.5-0.7-1.5-1.5S111.6,614.6,112.4,614.6z M112.4,623.1c0.8,0,1.5,0.7,1.5,1.5s-0.7,1.5-1.5,1.5s-1.5-0.7-1.5-1.5
			S111.6,623.1,112.4,623.1z M112.4,631.6c0.8,0,1.5,0.7,1.5,1.5s-0.7,1.5-1.5,1.5s-1.5-0.7-1.5-1.5S111.6,631.6,112.4,631.6z
			 M112.4,640.2c0.8,0,1.5,0.7,1.5,1.5s-0.7,1.5-1.5,1.5s-1.5-0.7-1.5-1.5C110.9,640.8,111.6,640.2,112.4,640.2z M112.4,648.7
			c0.8,0,1.5,0.7,1.5,1.5s-0.7,1.5-1.5,1.5s-1.5-0.7-1.5-1.5S111.6,648.7,112.4,648.7z M112.4,657.2c0.8,0,1.5,0.7,1.5,1.5
			s-0.7,1.5-1.5,1.5s-1.5-0.7-1.5-1.5C110.9,657.8,111.6,657.2,112.4,657.2z M112.4,665.7c0.8,0,1.5,0.7,1.5,1.5s-0.7,1.5-1.5,1.5
			s-1.5-0.7-1.5-1.5S111.6,665.7,112.4,665.7z M112.4,674.2c0.8,0,1.5,0.7,1.5,1.5s-0.7,1.5-1.5,1.5s-1.5-0.7-1.5-1.5
			C110.9,674.8,111.6,674.2,112.4,674.2z M112.4,682.7c0.8,0,1.5,0.7,1.5,1.5s-0.7,1.5-1.5,1.5s-1.5-0.7-1.5-1.5
			S111.6,682.7,112.4,682.7z M112.4,691.2c0.8,0,1.5,0.7,1.5,1.5s-0.7,1.5-1.5,1.5s-1.5-0.7-1.5-1.5
			C110.9,691.8,111.6,691.2,112.4,691.2z M103.9,563.6c0.8,0,1.5,0.7,1.5,1.5s-0.7,1.5-1.5,1.5s-1.5-0.7-1.5-1.5
			S103.1,563.6,103.9,563.6z M103.9,572.1c0.8,0,1.5,0.7,1.5,1.5s-0.7,1.5-1.5,1.5s-1.5-0.7-1.5-1.5S103.1,572.1,103.9,572.1z
			 M103.9,580.6c0.8,0,1.5,0.7,1.5,1.5s-0.7,1.5-1.5,1.5s-1.5-0.7-1.5-1.5S103.1,580.6,103.9,580.6z M103.9,589.1
			c0.8,0,1.5,0.7,1.5,1.5s-0.7,1.5-1.5,1.5s-1.5-0.7-1.5-1.5S103.1,589.1,103.9,589.1z M103.9,597.6c0.8,0,1.5,0.7,1.5,1.5
			s-0.7,1.5-1.5,1.5s-1.5-0.7-1.5-1.5S103.1,597.6,103.9,597.6z M103.9,606.1c0.8,0,1.5,0.7,1.5,1.5s-0.7,1.5-1.5,1.5
			s-1.5-0.7-1.5-1.5S103.1,606.1,103.9,606.1z M103.9,614.6c0.8,0,1.5,0.7,1.5,1.5s-0.7,1.5-1.5,1.5s-1.5-0.7-1.5-1.5
			S103.1,614.6,103.9,614.6z M103.9,623.1c0.8,0,1.5,0.7,1.5,1.5s-0.7,1.5-1.5,1.5s-1.5-0.7-1.5-1.5S103.1,623.1,103.9,623.1z
			 M103.9,631.6c0.8,0,1.5,0.7,1.5,1.5s-0.7,1.5-1.5,1.5s-1.5-0.7-1.5-1.5S103.1,631.6,103.9,631.6z M103.9,640.2
			c0.8,0,1.5,0.7,1.5,1.5s-0.7,1.5-1.5,1.5s-1.5-0.7-1.5-1.5C102.4,640.8,103.1,640.2,103.9,640.2z M103.9,648.7
			c0.8,0,1.5,0.7,1.5,1.5s-0.7,1.5-1.5,1.5s-1.5-0.7-1.5-1.5S103.1,648.7,103.9,648.7z M103.9,657.2c0.8,0,1.5,0.7,1.5,1.5
			s-0.7,1.5-1.5,1.5s-1.5-0.7-1.5-1.5C102.4,657.8,103.1,657.2,103.9,657.2z M103.9,665.7c0.8,0,1.5,0.7,1.5,1.5s-0.7,1.5-1.5,1.5
			s-1.5-0.7-1.5-1.5S103.1,665.7,103.9,665.7z M103.9,674.2c0.8,0,1.5,0.7,1.5,1.5s-0.7,1.5-1.5,1.5s-1.5-0.7-1.5-1.5
			C102.4,674.8,103.1,674.2,103.9,674.2z M103.9,682.7c0.8,0,1.5,0.7,1.5,1.5s-0.7,1.5-1.5,1.5s-1.5-0.7-1.5-1.5
			S103.1,682.7,103.9,682.7z M103.9,691.2c0.8,0,1.5,0.7,1.5,1.5s-0.7,1.5-1.5,1.5s-1.5-0.7-1.5-1.5
			C102.4,691.8,103.1,691.2,103.9,691.2z M95.4,563.6c0.8,0,1.5,0.7,1.5,1.5s-0.7,1.5-1.5,1.5s-1.5-0.7-1.5-1.5
			S94.6,563.6,95.4,563.6z M95.4,572.1c0.8,0,1.5,0.7,1.5,1.5s-0.7,1.5-1.5,1.5s-1.5-0.7-1.5-1.5S94.6,572.1,95.4,572.1z
			 M95.4,580.6c0.8,0,1.5,0.7,1.5,1.5s-0.7,1.5-1.5,1.5s-1.5-0.7-1.5-1.5S94.6,580.6,95.4,580.6z M95.4,589.1c0.8,0,1.5,0.7,1.5,1.5
			s-0.7,1.5-1.5,1.5s-1.5-0.7-1.5-1.5S94.6,589.1,95.4,589.1z M95.4,597.6c0.8,0,1.5,0.7,1.5,1.5s-0.7,1.5-1.5,1.5s-1.5-0.7-1.5-1.5
			S94.6,597.6,95.4,597.6z M95.4,606.1c0.8,0,1.5,0.7,1.5,1.5s-0.7,1.5-1.5,1.5s-1.5-0.7-1.5-1.5S94.6,606.1,95.4,606.1z
			 M95.4,614.6c0.8,0,1.5,0.7,1.5,1.5s-0.7,1.5-1.5,1.5s-1.5-0.7-1.5-1.5S94.6,614.6,95.4,614.6z M95.4,623.1c0.8,0,1.5,0.7,1.5,1.5
			s-0.7,1.5-1.5,1.5s-1.5-0.7-1.5-1.5S94.6,623.1,95.4,623.1z M95.4,631.6c0.8,0,1.5,0.7,1.5,1.5s-0.7,1.5-1.5,1.5s-1.5-0.7-1.5-1.5
			S94.6,631.6,95.4,631.6z M95.4,640.2c0.8,0,1.5,0.7,1.5,1.5s-0.7,1.5-1.5,1.5s-1.5-0.7-1.5-1.5C93.9,640.8,94.6,640.2,95.4,640.2z
			 M95.4,648.7c0.8,0,1.5,0.7,1.5,1.5s-0.7,1.5-1.5,1.5s-1.5-0.7-1.5-1.5S94.6,648.7,95.4,648.7z M95.4,657.2c0.8,0,1.5,0.7,1.5,1.5
			s-0.7,1.5-1.5,1.5s-1.5-0.7-1.5-1.5C93.9,657.8,94.6,657.2,95.4,657.2z M95.4,665.7c0.8,0,1.5,0.7,1.5,1.5s-0.7,1.5-1.5,1.5
			s-1.5-0.7-1.5-1.5S94.6,665.7,95.4,665.7z M95.4,674.2c0.8,0,1.5,0.7,1.5,1.5s-0.7,1.5-1.5,1.5s-1.5-0.7-1.5-1.5
			C93.9,674.8,94.6,674.2,95.4,674.2z M95.4,682.7c0.8,0,1.5,0.7,1.5,1.5s-0.7,1.5-1.5,1.5s-1.5-0.7-1.5-1.5S94.6,682.7,95.4,682.7z
			 M95.4,691.2c0.8,0,1.5,0.7,1.5,1.5s-0.7,1.5-1.5,1.5s-1.5-0.7-1.5-1.5C93.9,691.8,94.6,691.2,95.4,691.2z M86.9,555.1
			c0.8,0,1.5,0.7,1.5,1.5s-0.7,1.5-1.5,1.5s-1.5-0.7-1.5-1.5S86.1,555.1,86.9,555.1z M86.9,563.6c0.8,0,1.5,0.7,1.5,1.5
			s-0.7,1.5-1.5,1.5s-1.5-0.7-1.5-1.5S86.1,563.6,86.9,563.6z M86.9,572.1c0.8,0,1.5,0.7,1.5,1.5s-0.7,1.5-1.5,1.5s-1.5-0.7-1.5-1.5
			S86.1,572.1,86.9,572.1z M86.9,580.6c0.8,0,1.5,0.7,1.5,1.5s-0.7,1.5-1.5,1.5s-1.5-0.7-1.5-1.5S86.1,580.6,86.9,580.6z
			 M86.9,589.1c0.8,0,1.5,0.7,1.5,1.5s-0.7,1.5-1.5,1.5s-1.5-0.7-1.5-1.5S86.1,589.1,86.9,589.1z M86.9,597.6c0.8,0,1.5,0.7,1.5,1.5
			s-0.7,1.5-1.5,1.5s-1.5-0.7-1.5-1.5S86.1,597.6,86.9,597.6z M86.9,606.1c0.8,0,1.5,0.7,1.5,1.5s-0.7,1.5-1.5,1.5s-1.5-0.7-1.5-1.5
			S86.1,606.1,86.9,606.1z M86.9,614.6c0.8,0,1.5,0.7,1.5,1.5s-0.7,1.5-1.5,1.5s-1.5-0.7-1.5-1.5S86.1,614.6,86.9,614.6z
			 M86.9,623.1c0.8,0,1.5,0.7,1.5,1.5s-0.7,1.5-1.5,1.5s-1.5-0.7-1.5-1.5S86.1,623.1,86.9,623.1z M86.9,631.6c0.8,0,1.5,0.7,1.5,1.5
			s-0.7,1.5-1.5,1.5s-1.5-0.7-1.5-1.5S86.1,631.6,86.9,631.6z M86.9,640.2c0.8,0,1.5,0.7,1.5,1.5s-0.7,1.5-1.5,1.5s-1.5-0.7-1.5-1.5
			C85.4,640.8,86.1,640.2,86.9,640.2z M86.9,648.7c0.8,0,1.5,0.7,1.5,1.5s-0.7,1.5-1.5,1.5s-1.5-0.7-1.5-1.5S86.1,648.7,86.9,648.7z
			 M86.9,657.2c0.8,0,1.5,0.7,1.5,1.5s-0.7,1.5-1.5,1.5s-1.5-0.7-1.5-1.5C85.4,657.8,86.1,657.2,86.9,657.2z M86.9,665.7
			c0.8,0,1.5,0.7,1.5,1.5s-0.7,1.5-1.5,1.5s-1.5-0.7-1.5-1.5S86.1,665.7,86.9,665.7z M86.9,674.2c0.8,0,1.5,0.7,1.5,1.5
			s-0.7,1.5-1.5,1.5s-1.5-0.7-1.5-1.5C85.4,674.8,86.1,674.2,86.9,674.2z M86.9,682.7c0.8,0,1.5,0.7,1.5,1.5s-0.7,1.5-1.5,1.5
			s-1.5-0.7-1.5-1.5S86.1,682.7,86.9,682.7z M86.9,691.2c0.8,0,1.5,0.7,1.5,1.5s-0.7,1.5-1.5,1.5s-1.5-0.7-1.5-1.5
			C85.4,691.8,86.1,691.2,86.9,691.2z M78.4,555.1c0.8,0,1.5,0.7,1.5,1.5s-0.7,1.5-1.5,1.5s-1.5-0.7-1.5-1.5S77.6,555.1,78.4,555.1z
			 M78.4,563.6c0.8,0,1.5,0.7,1.5,1.5s-0.7,1.5-1.5,1.5s-1.5-0.7-1.5-1.5S77.6,563.6,78.4,563.6z M78.4,572.1c0.8,0,1.5,0.7,1.5,1.5
			s-0.7,1.5-1.5,1.5s-1.5-0.7-1.5-1.5S77.6,572.1,78.4,572.1z M78.4,580.6c0.8,0,1.5,0.7,1.5,1.5s-0.7,1.5-1.5,1.5s-1.5-0.7-1.5-1.5
			S77.6,580.6,78.4,580.6z M78.4,589.1c0.8,0,1.5,0.7,1.5,1.5s-0.7,1.5-1.5,1.5s-1.5-0.7-1.5-1.5S77.6,589.1,78.4,589.1z
			 M78.4,597.6c0.8,0,1.5,0.7,1.5,1.5s-0.7,1.5-1.5,1.5s-1.5-0.7-1.5-1.5S77.6,597.6,78.4,597.6z M78.4,606.1c0.8,0,1.5,0.7,1.5,1.5
			s-0.7,1.5-1.5,1.5s-1.5-0.7-1.5-1.5S77.6,606.1,78.4,606.1z M78.4,614.6c0.8,0,1.5,0.7,1.5,1.5s-0.7,1.5-1.5,1.5s-1.5-0.7-1.5-1.5
			S77.6,614.6,78.4,614.6z M78.4,623.1c0.8,0,1.5,0.7,1.5,1.5s-0.7,1.5-1.5,1.5s-1.5-0.7-1.5-1.5S77.6,623.1,78.4,623.1z
			 M78.4,631.6c0.8,0,1.5,0.7,1.5,1.5s-0.7,1.5-1.5,1.5s-1.5-0.7-1.5-1.5S77.6,631.6,78.4,631.6z M78.4,640.2c0.8,0,1.5,0.7,1.5,1.5
			s-0.7,1.5-1.5,1.5s-1.5-0.7-1.5-1.5C76.9,640.8,77.6,640.2,78.4,640.2z M78.4,648.7c0.8,0,1.5,0.7,1.5,1.5s-0.7,1.5-1.5,1.5
			s-1.5-0.7-1.5-1.5S77.6,648.7,78.4,648.7z M78.4,657.2c0.8,0,1.5,0.7,1.5,1.5s-0.7,1.5-1.5,1.5s-1.5-0.7-1.5-1.5
			C76.9,657.8,77.6,657.2,78.4,657.2z M78.4,665.7c0.8,0,1.5,0.7,1.5,1.5s-0.7,1.5-1.5,1.5s-1.5-0.7-1.5-1.5S77.6,665.7,78.4,665.7z
			 M78.4,674.2c0.8,0,1.5,0.7,1.5,1.5s-0.7,1.5-1.5,1.5s-1.5-0.7-1.5-1.5C76.9,674.8,77.6,674.2,78.4,674.2z M78.4,682.7
			c0.8,0,1.5,0.7,1.5,1.5s-0.7,1.5-1.5,1.5s-1.5-0.7-1.5-1.5S77.6,682.7,78.4,682.7z M78.4,691.2c0.8,0,1.5,0.7,1.5,1.5
			s-0.7,1.5-1.5,1.5s-1.5-0.7-1.5-1.5C76.9,691.8,77.6,691.2,78.4,691.2z M69.9,546.6c0.8,0,1.5,0.7,1.5,1.5s-0.7,1.5-1.5,1.5
			s-1.5-0.7-1.5-1.5S69.1,546.6,69.9,546.6z M69.9,555.1c0.8,0,1.5,0.7,1.5,1.5s-0.7,1.5-1.5,1.5s-1.5-0.7-1.5-1.5
			S69.1,555.1,69.9,555.1z M69.9,563.6c0.8,0,1.5,0.7,1.5,1.5s-0.7,1.5-1.5,1.5s-1.5-0.7-1.5-1.5S69.1,563.6,69.9,563.6z
			 M69.9,572.1c0.8,0,1.5,0.7,1.5,1.5s-0.7,1.5-1.5,1.5s-1.5-0.7-1.5-1.5S69.1,572.1,69.9,572.1z M69.9,580.6c0.8,0,1.5,0.7,1.5,1.5
			s-0.7,1.5-1.5,1.5s-1.5-0.7-1.5-1.5S69.1,580.6,69.9,580.6z M69.9,589.1c0.8,0,1.5,0.7,1.5,1.5s-0.7,1.5-1.5,1.5s-1.5-0.7-1.5-1.5
			S69.1,589.1,69.9,589.1z M69.9,597.6c0.8,0,1.5,0.7,1.5,1.5s-0.7,1.5-1.5,1.5s-1.5-0.7-1.5-1.5S69.1,597.6,69.9,597.6z
			 M69.9,606.1c0.8,0,1.5,0.7,1.5,1.5s-0.7,1.5-1.5,1.5s-1.5-0.7-1.5-1.5S69.1,606.1,69.9,606.1z M69.9,614.6c0.8,0,1.5,0.7,1.5,1.5
			s-0.7,1.5-1.5,1.5s-1.5-0.7-1.5-1.5S69.1,614.6,69.9,614.6z M69.9,623.1c0.8,0,1.5,0.7,1.5,1.5s-0.7,1.5-1.5,1.5s-1.5-0.7-1.5-1.5
			S69.1,623.1,69.9,623.1z M69.9,631.6c0.8,0,1.5,0.7,1.5,1.5s-0.7,1.5-1.5,1.5s-1.5-0.7-1.5-1.5S69.1,631.6,69.9,631.6z
			 M69.9,640.2c0.8,0,1.5,0.7,1.5,1.5s-0.7,1.5-1.5,1.5s-1.5-0.7-1.5-1.5C68.4,640.8,69.1,640.2,69.9,640.2z M69.9,648.7
			c0.8,0,1.5,0.7,1.5,1.5s-0.7,1.5-1.5,1.5s-1.5-0.7-1.5-1.5S69.1,648.7,69.9,648.7z M69.9,657.2c0.8,0,1.5,0.7,1.5,1.5
			s-0.7,1.5-1.5,1.5s-1.5-0.7-1.5-1.5C68.4,657.8,69.1,657.2,69.9,657.2z M69.9,665.7c0.8,0,1.5,0.7,1.5,1.5s-0.7,1.5-1.5,1.5
			s-1.5-0.7-1.5-1.5S69.1,665.7,69.9,665.7z M69.9,674.2c0.8,0,1.5,0.7,1.5,1.5s-0.7,1.5-1.5,1.5s-1.5-0.7-1.5-1.5
			C68.4,674.8,69.1,674.2,69.9,674.2z M69.9,682.7c0.8,0,1.5,0.7,1.5,1.5s-0.7,1.5-1.5,1.5s-1.5-0.7-1.5-1.5S69.1,682.7,69.9,682.7z
			 M69.9,691.2c0.8,0,1.5,0.7,1.5,1.5s-0.7,1.5-1.5,1.5s-1.5-0.7-1.5-1.5C68.4,691.8,69.1,691.2,69.9,691.2z M61.4,546.6
			c0.8,0,1.5,0.7,1.5,1.5s-0.7,1.5-1.5,1.5s-1.5-0.7-1.5-1.5S60.6,546.6,61.4,546.6z M61.4,555.1c0.8,0,1.5,0.7,1.5,1.5
			s-0.7,1.5-1.5,1.5s-1.5-0.7-1.5-1.5S60.6,555.1,61.4,555.1z M61.4,563.6c0.8,0,1.5,0.7,1.5,1.5s-0.7,1.5-1.5,1.5s-1.5-0.7-1.5-1.5
			S60.6,563.6,61.4,563.6z M61.4,572.1c0.8,0,1.5,0.7,1.5,1.5s-0.7,1.5-1.5,1.5s-1.5-0.7-1.5-1.5S60.6,572.1,61.4,572.1z
			 M61.4,580.6c0.8,0,1.5,0.7,1.5,1.5s-0.7,1.5-1.5,1.5s-1.5-0.7-1.5-1.5S60.6,580.6,61.4,580.6z M61.4,589.1c0.8,0,1.5,0.7,1.5,1.5
			s-0.7,1.5-1.5,1.5s-1.5-0.7-1.5-1.5S60.6,589.1,61.4,589.1z M61.4,597.6c0.8,0,1.5,0.7,1.5,1.5s-0.7,1.5-1.5,1.5s-1.5-0.7-1.5-1.5
			S60.6,597.6,61.4,597.6z M61.4,606.1c0.8,0,1.5,0.7,1.5,1.5s-0.7,1.5-1.5,1.5s-1.5-0.7-1.5-1.5S60.6,606.1,61.4,606.1z
			 M61.4,614.6c0.8,0,1.5,0.7,1.5,1.5s-0.7,1.5-1.5,1.5s-1.5-0.7-1.5-1.5S60.6,614.6,61.4,614.6z M61.4,623.1c0.8,0,1.5,0.7,1.5,1.5
			s-0.7,1.5-1.5,1.5s-1.5-0.7-1.5-1.5S60.6,623.1,61.4,623.1z M61.4,631.6c0.8,0,1.5,0.7,1.5,1.5s-0.7,1.5-1.5,1.5s-1.5-0.7-1.5-1.5
			S60.6,631.6,61.4,631.6z M61.4,640.2c0.8,0,1.5,0.7,1.5,1.5s-0.7,1.5-1.5,1.5s-1.5-0.7-1.5-1.5C59.9,640.8,60.6,640.2,61.4,640.2z
			 M61.4,648.7c0.8,0,1.5,0.7,1.5,1.5s-0.7,1.5-1.5,1.5s-1.5-0.7-1.5-1.5S60.6,648.7,61.4,648.7z M61.4,657.2c0.8,0,1.5,0.7,1.5,1.5
			s-0.7,1.5-1.5,1.5s-1.5-0.7-1.5-1.5C59.9,657.8,60.6,657.2,61.4,657.2z M61.4,665.7c0.8,0,1.5,0.7,1.5,1.5s-0.7,1.5-1.5,1.5
			s-1.5-0.7-1.5-1.5S60.6,665.7,61.4,665.7z M61.4,674.2c0.8,0,1.5,0.7,1.5,1.5s-0.7,1.5-1.5,1.5s-1.5-0.7-1.5-1.5
			C59.9,674.8,60.6,674.2,61.4,674.2z M61.4,682.7c0.8,0,1.5,0.7,1.5,1.5s-0.7,1.5-1.5,1.5s-1.5-0.7-1.5-1.5S60.6,682.7,61.4,682.7z
			 M61.4,691.2c0.8,0,1.5,0.7,1.5,1.5s-0.7,1.5-1.5,1.5s-1.5-0.7-1.5-1.5C59.9,691.8,60.6,691.2,61.4,691.2z M52.9,546.6
			c0.8,0,1.5,0.7,1.5,1.5s-0.7,1.5-1.5,1.5s-1.5-0.7-1.5-1.5S52.1,546.6,52.9,546.6z M52.9,555.1c0.8,0,1.5,0.7,1.5,1.5
			s-0.7,1.5-1.5,1.5s-1.5-0.7-1.5-1.5S52.1,555.1,52.9,555.1z M52.9,563.6c0.8,0,1.5,0.7,1.5,1.5s-0.7,1.5-1.5,1.5s-1.5-0.7-1.5-1.5
			S52.1,563.6,52.9,563.6z M52.9,572.1c0.8,0,1.5,0.7,1.5,1.5s-0.7,1.5-1.5,1.5s-1.5-0.7-1.5-1.5S52.1,572.1,52.9,572.1z
			 M52.9,580.6c0.8,0,1.5,0.7,1.5,1.5s-0.7,1.5-1.5,1.5s-1.5-0.7-1.5-1.5S52.1,580.6,52.9,580.6z M52.9,589.1c0.8,0,1.5,0.7,1.5,1.5
			s-0.7,1.5-1.5,1.5s-1.5-0.7-1.5-1.5S52.1,589.1,52.9,589.1z M52.9,597.6c0.8,0,1.5,0.7,1.5,1.5s-0.7,1.5-1.5,1.5s-1.5-0.7-1.5-1.5
			S52.1,597.6,52.9,597.6z M52.9,606.1c0.8,0,1.5,0.7,1.5,1.5s-0.7,1.5-1.5,1.5s-1.5-0.7-1.5-1.5S52.1,606.1,52.9,606.1z
			 M52.9,614.6c0.8,0,1.5,0.7,1.5,1.5s-0.7,1.5-1.5,1.5s-1.5-0.7-1.5-1.5S52.1,614.6,52.9,614.6z M52.9,623.1c0.8,0,1.5,0.7,1.5,1.5
			s-0.7,1.5-1.5,1.5s-1.5-0.7-1.5-1.5S52.1,623.1,52.9,623.1z M52.9,631.6c0.8,0,1.5,0.7,1.5,1.5s-0.7,1.5-1.5,1.5s-1.5-0.7-1.5-1.5
			S52.1,631.6,52.9,631.6z M52.9,640.2c0.8,0,1.5,0.7,1.5,1.5s-0.7,1.5-1.5,1.5s-1.5-0.7-1.5-1.5C51.4,640.8,52.1,640.2,52.9,640.2z
			 M52.9,648.7c0.8,0,1.5,0.7,1.5,1.5s-0.7,1.5-1.5,1.5s-1.5-0.7-1.5-1.5S52.1,648.7,52.9,648.7z M52.9,657.2c0.8,0,1.5,0.7,1.5,1.5
			s-0.7,1.5-1.5,1.5s-1.5-0.7-1.5-1.5C51.4,657.8,52.1,657.2,52.9,657.2z M52.9,665.7c0.8,0,1.5,0.7,1.5,1.5s-0.7,1.5-1.5,1.5
			s-1.5-0.7-1.5-1.5S52.1,665.7,52.9,665.7z M52.9,674.2c0.8,0,1.5,0.7,1.5,1.5s-0.7,1.5-1.5,1.5s-1.5-0.7-1.5-1.5
			C51.4,674.8,52.1,674.2,52.9,674.2z M52.9,682.7c0.8,0,1.5,0.7,1.5,1.5s-0.7,1.5-1.5,1.5s-1.5-0.7-1.5-1.5S52.1,682.7,52.9,682.7z
			 M52.9,691.2c0.8,0,1.5,0.7,1.5,1.5s-0.7,1.5-1.5,1.5s-1.5-0.7-1.5-1.5C51.4,691.8,52.1,691.2,52.9,691.2z M1.9,694.1
			c-0.8,0-1.5-0.7-1.5-1.5s0.7-1.5,1.5-1.5s1.5,0.7,1.5,1.5C3.3,693.5,2.7,694.1,1.9,694.1z M44.4,546.6c0.8,0,1.5,0.7,1.5,1.5
			s-0.7,1.5-1.5,1.5s-1.5-0.7-1.5-1.5S43.6,546.6,44.4,546.6z M44.4,555.1c0.8,0,1.5,0.7,1.5,1.5s-0.7,1.5-1.5,1.5s-1.5-0.7-1.5-1.5
			S43.6,555.1,44.4,555.1z M44.4,563.6c0.8,0,1.5,0.7,1.5,1.5s-0.7,1.5-1.5,1.5s-1.5-0.7-1.5-1.5S43.6,563.6,44.4,563.6z
			 M44.4,572.1c0.8,0,1.5,0.7,1.5,1.5s-0.7,1.5-1.5,1.5s-1.5-0.7-1.5-1.5S43.6,572.1,44.4,572.1z M44.4,580.6c0.8,0,1.5,0.7,1.5,1.5
			s-0.7,1.5-1.5,1.5s-1.5-0.7-1.5-1.5S43.6,580.6,44.4,580.6z M44.4,589.1c0.8,0,1.5,0.7,1.5,1.5s-0.7,1.5-1.5,1.5s-1.5-0.7-1.5-1.5
			S43.6,589.1,44.4,589.1z M44.4,597.6c0.8,0,1.5,0.7,1.5,1.5s-0.7,1.5-1.5,1.5s-1.5-0.7-1.5-1.5S43.6,597.6,44.4,597.6z
			 M44.4,606.1c0.8,0,1.5,0.7,1.5,1.5s-0.7,1.5-1.5,1.5s-1.5-0.7-1.5-1.5S43.6,606.1,44.4,606.1z M44.4,614.6c0.8,0,1.5,0.7,1.5,1.5
			s-0.7,1.5-1.5,1.5s-1.5-0.7-1.5-1.5S43.6,614.6,44.4,614.6z M44.4,623.1c0.8,0,1.5,0.7,1.5,1.5s-0.7,1.5-1.5,1.5s-1.5-0.7-1.5-1.5
			S43.6,623.1,44.4,623.1z M44.4,631.6c0.8,0,1.5,0.7,1.5,1.5s-0.7,1.5-1.5,1.5s-1.5-0.7-1.5-1.5S43.6,631.6,44.4,631.6z
			 M44.4,640.2c0.8,0,1.5,0.7,1.5,1.5s-0.7,1.5-1.5,1.5s-1.5-0.7-1.5-1.5C42.9,640.8,43.6,640.2,44.4,640.2z M44.4,648.7
			c0.8,0,1.5,0.7,1.5,1.5s-0.7,1.5-1.5,1.5s-1.5-0.7-1.5-1.5S43.6,648.7,44.4,648.7z M44.4,657.2c0.8,0,1.5,0.7,1.5,1.5
			s-0.7,1.5-1.5,1.5s-1.5-0.7-1.5-1.5C42.9,657.8,43.6,657.2,44.4,657.2z M44.4,665.7c0.8,0,1.5,0.7,1.5,1.5s-0.7,1.5-1.5,1.5
			s-1.5-0.7-1.5-1.5S43.6,665.7,44.4,665.7z M44.4,674.2c0.8,0,1.5,0.7,1.5,1.5s-0.7,1.5-1.5,1.5s-1.5-0.7-1.5-1.5
			C42.9,674.8,43.6,674.2,44.4,674.2z M44.4,682.7c0.8,0,1.5,0.7,1.5,1.5s-0.7,1.5-1.5,1.5s-1.5-0.7-1.5-1.5S43.6,682.7,44.4,682.7z
			 M44.4,691.2c0.8,0,1.5,0.7,1.5,1.5s-0.7,1.5-1.5,1.5s-1.5-0.7-1.5-1.5C42.9,691.8,43.6,691.2,44.4,691.2z M35.9,538.1
			c0.8,0,1.5,0.7,1.5,1.5s-0.7,1.5-1.5,1.5s-1.5-0.7-1.5-1.5S35.1,538.1,35.9,538.1z M35.9,546.6c0.8,0,1.5,0.7,1.5,1.5
			s-0.7,1.5-1.5,1.5s-1.5-0.7-1.5-1.5S35.1,546.6,35.9,546.6z M35.9,555.1c0.8,0,1.5,0.7,1.5,1.5s-0.7,1.5-1.5,1.5s-1.5-0.7-1.5-1.5
			S35.1,555.1,35.9,555.1z M35.9,563.6c0.8,0,1.5,0.7,1.5,1.5s-0.7,1.5-1.5,1.5s-1.5-0.7-1.5-1.5S35.1,563.6,35.9,563.6z
			 M35.9,572.1c0.8,0,1.5,0.7,1.5,1.5s-0.7,1.5-1.5,1.5s-1.5-0.7-1.5-1.5S35.1,572.1,35.9,572.1z M35.9,580.6c0.8,0,1.5,0.7,1.5,1.5
			s-0.7,1.5-1.5,1.5s-1.5-0.7-1.5-1.5S35.1,580.6,35.9,580.6z M35.9,589.1c0.8,0,1.5,0.7,1.5,1.5s-0.7,1.5-1.5,1.5s-1.5-0.7-1.5-1.5
			S35.1,589.1,35.9,589.1z M35.9,597.6c0.8,0,1.5,0.7,1.5,1.5s-0.7,1.5-1.5,1.5s-1.5-0.7-1.5-1.5S35.1,597.6,35.9,597.6z
			 M35.9,606.1c0.8,0,1.5,0.7,1.5,1.5s-0.7,1.5-1.5,1.5s-1.5-0.7-1.5-1.5S35.1,606.1,35.9,606.1z M35.9,614.6c0.8,0,1.5,0.7,1.5,1.5
			s-0.7,1.5-1.5,1.5s-1.5-0.7-1.5-1.5S35.1,614.6,35.9,614.6z M35.9,623.1c0.8,0,1.5,0.7,1.5,1.5s-0.7,1.5-1.5,1.5s-1.5-0.7-1.5-1.5
			S35.1,623.1,35.9,623.1z M35.9,631.6c0.8,0,1.5,0.7,1.5,1.5s-0.7,1.5-1.5,1.5s-1.5-0.7-1.5-1.5S35.1,631.6,35.9,631.6z
			 M35.9,640.2c0.8,0,1.5,0.7,1.5,1.5s-0.7,1.5-1.5,1.5s-1.5-0.7-1.5-1.5C34.4,640.8,35.1,640.2,35.9,640.2z M35.9,648.7
			c0.8,0,1.5,0.7,1.5,1.5s-0.7,1.5-1.5,1.5s-1.5-0.7-1.5-1.5S35.1,648.7,35.9,648.7z M35.9,657.2c0.8,0,1.5,0.7,1.5,1.5
			s-0.7,1.5-1.5,1.5s-1.5-0.7-1.5-1.5C34.4,657.8,35.1,657.2,35.9,657.2z M35.9,665.7c0.8,0,1.5,0.7,1.5,1.5s-0.7,1.5-1.5,1.5
			s-1.5-0.7-1.5-1.5S35.1,665.7,35.9,665.7z M35.9,674.2c0.8,0,1.5,0.7,1.5,1.5s-0.7,1.5-1.5,1.5s-1.5-0.7-1.5-1.5
			C34.4,674.8,35.1,674.2,35.9,674.2z M35.9,682.7c0.8,0,1.5,0.7,1.5,1.5s-0.7,1.5-1.5,1.5s-1.5-0.7-1.5-1.5S35.1,682.7,35.9,682.7z
			 M35.9,691.2c0.8,0,1.5,0.7,1.5,1.5s-0.7,1.5-1.5,1.5s-1.5-0.7-1.5-1.5C34.4,691.8,35.1,691.2,35.9,691.2z M27.4,538.1
			c0.8,0,1.5,0.7,1.5,1.5s-0.7,1.5-1.5,1.5s-1.5-0.7-1.5-1.5S26.6,538.1,27.4,538.1z M27.4,546.6c0.8,0,1.5,0.7,1.5,1.5
			s-0.7,1.5-1.5,1.5s-1.5-0.7-1.5-1.5S26.6,546.6,27.4,546.6z M27.4,555.1c0.8,0,1.5,0.7,1.5,1.5s-0.7,1.5-1.5,1.5s-1.5-0.7-1.5-1.5
			S26.6,555.1,27.4,555.1z M27.4,563.6c0.8,0,1.5,0.7,1.5,1.5s-0.7,1.5-1.5,1.5s-1.5-0.7-1.5-1.5S26.6,563.6,27.4,563.6z
			 M27.4,572.1c0.8,0,1.5,0.7,1.5,1.5s-0.7,1.5-1.5,1.5s-1.5-0.7-1.5-1.5S26.6,572.1,27.4,572.1z M27.4,580.6c0.8,0,1.5,0.7,1.5,1.5
			s-0.7,1.5-1.5,1.5s-1.5-0.7-1.5-1.5S26.6,580.6,27.4,580.6z M27.4,589.1c0.8,0,1.5,0.7,1.5,1.5s-0.7,1.5-1.5,1.5s-1.5-0.7-1.5-1.5
			S26.6,589.1,27.4,589.1z M27.4,597.6c0.8,0,1.5,0.7,1.5,1.5s-0.7,1.5-1.5,1.5s-1.5-0.7-1.5-1.5S26.6,597.6,27.4,597.6z
			 M27.4,606.1c0.8,0,1.5,0.7,1.5,1.5s-0.7,1.5-1.5,1.5s-1.5-0.7-1.5-1.5S26.6,606.1,27.4,606.1z M27.4,614.6c0.8,0,1.5,0.7,1.5,1.5
			s-0.7,1.5-1.5,1.5s-1.5-0.7-1.5-1.5S26.6,614.6,27.4,614.6z M27.4,623.1c0.8,0,1.5,0.7,1.5,1.5s-0.7,1.5-1.5,1.5s-1.5-0.7-1.5-1.5
			S26.6,623.1,27.4,623.1z M27.4,631.6c0.8,0,1.5,0.7,1.5,1.5s-0.7,1.5-1.5,1.5s-1.5-0.7-1.5-1.5S26.6,631.6,27.4,631.6z
			 M27.4,640.2c0.8,0,1.5,0.7,1.5,1.5s-0.7,1.5-1.5,1.5s-1.5-0.7-1.5-1.5C25.9,640.8,26.6,640.2,27.4,640.2z M27.4,648.7
			c0.8,0,1.5,0.7,1.5,1.5s-0.7,1.5-1.5,1.5s-1.5-0.7-1.5-1.5S26.6,648.7,27.4,648.7z M27.4,657.2c0.8,0,1.5,0.7,1.5,1.5
			s-0.7,1.5-1.5,1.5s-1.5-0.7-1.5-1.5C25.9,657.8,26.6,657.2,27.4,657.2z M27.4,665.7c0.8,0,1.5,0.7,1.5,1.5s-0.7,1.5-1.5,1.5
			s-1.5-0.7-1.5-1.5S26.6,665.7,27.4,665.7z M27.4,674.2c0.8,0,1.5,0.7,1.5,1.5s-0.7,1.5-1.5,1.5s-1.5-0.7-1.5-1.5
			C25.9,674.8,26.6,674.2,27.4,674.2z M27.4,682.7c0.8,0,1.5,0.7,1.5,1.5s-0.7,1.5-1.5,1.5s-1.5-0.7-1.5-1.5S26.6,682.7,27.4,682.7z
			 M27.4,691.2c0.8,0,1.5,0.7,1.5,1.5s-0.7,1.5-1.5,1.5s-1.5-0.7-1.5-1.5C25.9,691.8,26.6,691.2,27.4,691.2z M18.9,538.1
			c0.8,0,1.5,0.7,1.5,1.5s-0.7,1.5-1.5,1.5s-1.5-0.7-1.5-1.5S18.1,538.1,18.9,538.1z M18.9,546.6c0.8,0,1.5,0.7,1.5,1.5
			s-0.7,1.5-1.5,1.5s-1.5-0.7-1.5-1.5S18.1,546.6,18.9,546.6z M18.9,555.1c0.8,0,1.5,0.7,1.5,1.5s-0.7,1.5-1.5,1.5s-1.5-0.7-1.5-1.5
			S18.1,555.1,18.9,555.1z M18.9,563.6c0.8,0,1.5,0.7,1.5,1.5s-0.7,1.5-1.5,1.5s-1.5-0.7-1.5-1.5S18.1,563.6,18.9,563.6z
			 M18.9,572.1c0.8,0,1.5,0.7,1.5,1.5s-0.7,1.5-1.5,1.5s-1.5-0.7-1.5-1.5S18.1,572.1,18.9,572.1z M18.9,580.6c0.8,0,1.5,0.7,1.5,1.5
			s-0.7,1.5-1.5,1.5s-1.5-0.7-1.5-1.5S18.1,580.6,18.9,580.6z M18.9,589.1c0.8,0,1.5,0.7,1.5,1.5s-0.7,1.5-1.5,1.5s-1.5-0.7-1.5-1.5
			S18.1,589.1,18.9,589.1z M18.9,597.6c0.8,0,1.5,0.7,1.5,1.5s-0.7,1.5-1.5,1.5s-1.5-0.7-1.5-1.5S18.1,597.6,18.9,597.6z
			 M18.9,606.1c0.8,0,1.5,0.7,1.5,1.5s-0.7,1.5-1.5,1.5s-1.5-0.7-1.5-1.5S18.1,606.1,18.9,606.1z M18.9,614.6c0.8,0,1.5,0.7,1.5,1.5
			s-0.7,1.5-1.5,1.5s-1.5-0.7-1.5-1.5S18.1,614.6,18.9,614.6z M18.9,623.1c0.8,0,1.5,0.7,1.5,1.5s-0.7,1.5-1.5,1.5s-1.5-0.7-1.5-1.5
			S18.1,623.1,18.9,623.1z M18.9,631.6c0.8,0,1.5,0.7,1.5,1.5s-0.7,1.5-1.5,1.5s-1.5-0.7-1.5-1.5S18.1,631.6,18.9,631.6z
			 M18.9,640.2c0.8,0,1.5,0.7,1.5,1.5s-0.7,1.5-1.5,1.5s-1.5-0.7-1.5-1.5C17.4,640.8,18.1,640.2,18.9,640.2z M18.9,648.7
			c0.8,0,1.5,0.7,1.5,1.5s-0.7,1.5-1.5,1.5s-1.5-0.7-1.5-1.5S18.1,648.7,18.9,648.7z M18.9,657.2c0.8,0,1.5,0.7,1.5,1.5
			s-0.7,1.5-1.5,1.5s-1.5-0.7-1.5-1.5C17.4,657.8,18.1,657.2,18.9,657.2z M18.9,665.7c0.8,0,1.5,0.7,1.5,1.5s-0.7,1.5-1.5,1.5
			s-1.5-0.7-1.5-1.5S18.1,665.7,18.9,665.7z M18.9,674.2c0.8,0,1.5,0.7,1.5,1.5s-0.7,1.5-1.5,1.5s-1.5-0.7-1.5-1.5
			C17.4,674.8,18.1,674.2,18.9,674.2z M18.9,682.7c0.8,0,1.5,0.7,1.5,1.5s-0.7,1.5-1.5,1.5s-1.5-0.7-1.5-1.5S18.1,682.7,18.9,682.7z
			 M18.9,691.2c0.8,0,1.5,0.7,1.5,1.5s-0.7,1.5-1.5,1.5s-1.5-0.7-1.5-1.5C17.4,691.8,18.1,691.2,18.9,691.2z M10.4,538.1
			c0.8,0,1.5,0.7,1.5,1.5s-0.7,1.5-1.5,1.5s-1.5-0.7-1.5-1.5S9.6,538.1,10.4,538.1z M10.4,546.6c0.8,0,1.5,0.7,1.5,1.5
			s-0.7,1.5-1.5,1.5s-1.5-0.7-1.5-1.5S9.6,546.6,10.4,546.6z M10.4,555.1c0.8,0,1.5,0.7,1.5,1.5s-0.7,1.5-1.5,1.5s-1.5-0.7-1.5-1.5
			S9.6,555.1,10.4,555.1z M10.4,563.6c0.8,0,1.5,0.7,1.5,1.5s-0.7,1.5-1.5,1.5s-1.5-0.7-1.5-1.5S9.6,563.6,10.4,563.6z M10.4,572.1
			c0.8,0,1.5,0.7,1.5,1.5s-0.7,1.5-1.5,1.5s-1.5-0.7-1.5-1.5S9.6,572.1,10.4,572.1z M10.4,580.6c0.8,0,1.5,0.7,1.5,1.5
			s-0.7,1.5-1.5,1.5s-1.5-0.7-1.5-1.5S9.6,580.6,10.4,580.6z M10.4,589.1c0.8,0,1.5,0.7,1.5,1.5s-0.7,1.5-1.5,1.5s-1.5-0.7-1.5-1.5
			S9.6,589.1,10.4,589.1z M10.4,597.6c0.8,0,1.5,0.7,1.5,1.5s-0.7,1.5-1.5,1.5s-1.5-0.7-1.5-1.5S9.6,597.6,10.4,597.6z M10.4,606.1
			c0.8,0,1.5,0.7,1.5,1.5s-0.7,1.5-1.5,1.5s-1.5-0.7-1.5-1.5S9.6,606.1,10.4,606.1z M10.4,614.6c0.8,0,1.5,0.7,1.5,1.5
			s-0.7,1.5-1.5,1.5s-1.5-0.7-1.5-1.5S9.6,614.6,10.4,614.6z M10.4,623.1c0.8,0,1.5,0.7,1.5,1.5s-0.7,1.5-1.5,1.5s-1.5-0.7-1.5-1.5
			S9.6,623.1,10.4,623.1z M10.4,631.6c0.8,0,1.5,0.7,1.5,1.5s-0.7,1.5-1.5,1.5s-1.5-0.7-1.5-1.5S9.6,631.6,10.4,631.6z M10.4,640.2
			c0.8,0,1.5,0.7,1.5,1.5s-0.7,1.5-1.5,1.5s-1.5-0.7-1.5-1.5C8.9,640.8,9.6,640.2,10.4,640.2z M10.4,648.7c0.8,0,1.5,0.7,1.5,1.5
			s-0.7,1.5-1.5,1.5s-1.5-0.7-1.5-1.5S9.6,648.7,10.4,648.7z M10.4,657.2c0.8,0,1.5,0.7,1.5,1.5s-0.7,1.5-1.5,1.5s-1.5-0.7-1.5-1.5
			C8.9,657.8,9.6,657.2,10.4,657.2z M10.4,665.7c0.8,0,1.5,0.7,1.5,1.5s-0.7,1.5-1.5,1.5s-1.5-0.7-1.5-1.5S9.6,665.7,10.4,665.7z
			 M10.4,674.2c0.8,0,1.5,0.7,1.5,1.5s-0.7,1.5-1.5,1.5s-1.5-0.7-1.5-1.5C8.9,674.8,9.6,674.2,10.4,674.2z M10.4,682.7
			c0.8,0,1.5,0.7,1.5,1.5s-0.7,1.5-1.5,1.5s-1.5-0.7-1.5-1.5S9.6,682.7,10.4,682.7z M10.4,691.2c0.8,0,1.5,0.7,1.5,1.5
			s-0.7,1.5-1.5,1.5s-1.5-0.7-1.5-1.5C8.9,691.8,9.6,691.2,10.4,691.2z M1.9,538.1c0.8,0,1.5,0.7,1.5,1.5s-0.7,1.5-1.5,1.5
			s-1.5-0.7-1.5-1.5C0.4,538.8,1,538.1,1.9,538.1z M1.9,546.6c0.8,0,1.5,0.7,1.5,1.5s-0.7,1.5-1.5,1.5s-1.5-0.7-1.5-1.5
			C0.4,547.3,1,546.6,1.9,546.6z M1.9,555.1c0.8,0,1.5,0.7,1.5,1.5s-0.7,1.5-1.5,1.5s-1.5-0.7-1.5-1.5C0.4,555.8,1,555.1,1.9,555.1z
			 M1.9,563.6c0.8,0,1.5,0.7,1.5,1.5s-0.7,1.5-1.5,1.5s-1.5-0.7-1.5-1.5C0.4,564.3,1,563.6,1.9,563.6z M1.9,572.1
			c0.8,0,1.5,0.7,1.5,1.5s-0.7,1.5-1.5,1.5s-1.5-0.7-1.5-1.5C0.4,572.8,1,572.1,1.9,572.1z M1.9,580.6c0.8,0,1.5,0.7,1.5,1.5
			s-0.7,1.5-1.5,1.5s-1.5-0.7-1.5-1.5C0.4,581.3,1,580.6,1.9,580.6z M1.9,589.1c0.8,0,1.5,0.7,1.5,1.5s-0.7,1.5-1.5,1.5
			s-1.5-0.7-1.5-1.5C0.4,589.8,1,589.1,1.9,589.1z M1.9,597.6c0.8,0,1.5,0.7,1.5,1.5s-0.7,1.5-1.5,1.5s-1.5-0.7-1.5-1.5
			S1,597.6,1.9,597.6z M1.9,606.1c0.8,0,1.5,0.7,1.5,1.5s-0.7,1.5-1.5,1.5s-1.5-0.7-1.5-1.5C0.4,606.8,1,606.1,1.9,606.1z
			 M1.9,614.6c0.8,0,1.5,0.7,1.5,1.5s-0.7,1.5-1.5,1.5s-1.5-0.7-1.5-1.5S1,614.6,1.9,614.6z M1.9,623.1c0.8,0,1.5,0.7,1.5,1.5
			s-0.7,1.5-1.5,1.5s-1.5-0.7-1.5-1.5C0.4,623.8,1,623.1,1.9,623.1z M1.9,631.6c0.8,0,1.5,0.7,1.5,1.5s-0.7,1.5-1.5,1.5
			s-1.5-0.7-1.5-1.5S1,631.6,1.9,631.6z M1.9,640.2c0.8,0,1.5,0.7,1.5,1.5s-0.7,1.5-1.5,1.5s-1.5-0.7-1.5-1.5
			C0.4,640.8,1,640.2,1.9,640.2z M1.9,648.7c0.8,0,1.5,0.7,1.5,1.5s-0.7,1.5-1.5,1.5s-1.5-0.7-1.5-1.5C0.4,649.4,1,648.7,1.9,648.7z
			 M1.9,657.2c0.8,0,1.5,0.7,1.5,1.5s-0.7,1.5-1.5,1.5s-1.5-0.7-1.5-1.5C0.4,657.8,1,657.2,1.9,657.2z M1.9,665.7
			c0.8,0,1.5,0.7,1.5,1.5s-0.7,1.5-1.5,1.5s-1.5-0.7-1.5-1.5C0.4,666.4,1,665.7,1.9,665.7z M1.9,674.2c0.8,0,1.5,0.7,1.5,1.5
			s-0.7,1.5-1.5,1.5s-1.5-0.7-1.5-1.5C0.4,674.8,1,674.2,1.9,674.2z M1.9,682.7c0.8,0,1.5,0.7,1.5,1.5s-0.7,1.5-1.5,1.5
			s-1.5-0.7-1.5-1.5C0.4,683.4,1,682.7,1.9,682.7z"/>
	</g>
</g>
<title>ToastAR logo3</title>
<path class="st0" d="M561.3,420.3c-37.2-46-94.1-75.3-157.9-75.3c-112.2,0-203.1,90.9-203.1,203.1s90.9,203.1,203.1,203.1
	c63.8,0,120.6-29.4,157.9-75.3V420.3z"/>
<g>
	<g>
		<path class="st3" d="M401.4,429.1c-68.7,0-124.4,55.7-124.4,124.4s55.7,124.4,124.4,124.4s124.4-55.7,124.4-124.4
			C525.8,484.7,470.1,429.1,401.4,429.1z M399.3,461.4c47.4,0,59.9,43.2,59.9,43.2l-7.2,0.8c0,0-11.7-32.6-51.3-32.6
			S347,511,347,511h-4.9C342.1,511,351.9,461.4,399.3,461.4z M426.2,645.5h-52.8H330c0-11.5,4.1-22.3,11.1-31.3
			c10.8-13.9,28.6-23.8,49.2-26.3l0,0c1.1-0.1,2.2-0.3,3.3-0.3v0.3h12.5v-0.5c25.2,1.6,46.7,14.1,57.6,31.8
			c4.9,7.9,7.6,16.8,7.6,26.3H426.2z M472.8,539.8c-0.4,12.1-15.5,9.9-15.5,9.9c0.3-0.7,0.2-4.2-0.1-8.9c0,0.3,0,0.6,0,1
			c-0.4,6-1,11-1.6,15.1c1.3-1.1,2.6-2.3,3.7-3.6c0,0,3.4-2.4,5.8,2.4c0.9,1.8-3.6,5.2-10.7,8.9c-1.9,11.2-3.1,14.5,1.1,22.9
			c0,0-20.4,0.9-27.7-8.5c-1.9,0.6-3.5,0.9-4.7,1c-6.8,3.9-14.7,6.2-23.1,6.2c-9.8,0-18.8-3-26.3-8.2c-6.7,10.5-28.5,9.5-28.5,9.5
			c6.3-12.4,0.7-13.7-1.7-45.7l0,0c-0.7-4.2-0.8-8.7-0.3-13.2c2.4-17.6,9.6-29.2,17.9-36.8c0.1-0.1,0.1-0.1,0.1-0.1
			c15.1-13.7,33.6-14.2,33.6-14.2c19.6-2.8,34.5,3.9,44.6,14.3v-0.1c0,0,11,9.9,15.8,28.1c-0.7-6.5-1.3-11.5-1.3-11.5h1.5h8
			c8.9,3.3,9.5,10.6,9.5,10.6L472.8,539.8L472.8,539.8z"/>
	</g>
	<path class="st3" d="M401.5,581.2c-9.6,0.2-11.8-3.1-11.8-3.1s-4.6-5.3,0.9-9s10.1-2.3,10.1-2.3s9.4,0.5,11.4,4.9
		c0,0,10.3-0.8,21.8-4.3c6-10.7,6.5-24.2,5.3-31.7c-30.8-11.7-44.4-33.3-44.4-33.3c-12.2,33.3-40.8,27.1-32.3,55.2
		c2.1,7.8,5.6,12.9,9.2,16.3c2.7,2.2,5.7,4.1,8.9,5.6c0.9,0.3,1.5,0.5,1.8,0.5c-0.4-0.1-0.8-0.2-1.2-0.3c5.7,2.6,12,4.2,18.7,4.2
		c10.2,0,19.5-3.5,27.1-9.2c-5.4,1.4-10.6,2.4-14.9,2.6C412,577.5,411.1,581,401.5,581.2z"/>
</g>
<linearGradient id="SVGID_1_" gradientUnits="userSpaceOnUse" x1="0" y1="28.8398" x2="583.5" y2="28.8398" gradientTransform="matrix(1 0 0 -1 0 841.8898)">
	<stop  offset="0.2376" style="stop-color:#FFFFFF"/>
	<stop  offset="0.8391" style="stop-color:#696969"/>
</linearGradient>
<polygon class="st4" points="0,795.6 20.6,830.5 583.5,830.5 583.5,795.6 "/>
<linearGradient id="SVGID_2_" gradientUnits="userSpaceOnUse" x1="573.15" y1="7.4897" x2="573.15" y2="841.8898" gradientTransform="matrix(1 0 0 -1 0 841.8898)">
	<stop  offset="0.2376" style="stop-color:#FFFFFF"/>
	<stop  offset="0.8391" style="stop-color:#696969"/>
</linearGradient>
<polygon class="st5" points="583.5,834.4 583.5,37.1 562.9,0 562.8,0 562.8,795.9 "/>
<text transform="matrix(1 0 0 1 481.3002 346.4515)" class="st3 st6 st7"> </text>
<polygon class="st8" points="376,49.9 118,49.9 118,49.9 "/>
<g>
	<g>
		<path class="st9" d="M177,744.8h-26.9c-1.9,0-3.3-1.4-3.3-3.3V722c-1.3-1.6-4.1-5.7-4.1-9.4c0-3.6,1.4-7,4-9.6s5.9-3.9,9.6-3.9
			l0,0c2.6,0,5.5,1.4,7.2,2.4c1.7-1,4.7-2.4,7.2-2.4c7.5,0,13.6,6.1,13.6,13.5c0,2-0.8,4.2-2.3,6.8c-0.7,1.1-1.1,1.9-1.6,2.4v19.7
			C180.5,743.4,179,744.8,177,744.8z M152.9,738.7h21.5v-17.5c0-0.9,0.2-1.7,0.7-2.4l1.1-1.7l0.1-0.1c0.9-1.4,2-3.2,2-4.4
			c0-4.1-3.3-7.4-7.4-7.4c-1.3,0-3.9,1.3-5.3,2.2l-0.2,0.1c-1.1,0.6-2.4,0.6-3.5,0l-0.2-0.1c-1.4-0.9-4-2.2-5.3-2.2l0,0
			c-2,0-3.8,0.8-5.2,2.2s-2.2,3.3-2.2,5.2c0,1.5,1.9,4.5,3.1,6.1v0.1c0.4,0.6,0.7,1.2,0.9,1.9v0.3L152.9,738.7L152.9,738.7z"/>
		<path class="st9" d="M163.6,733h-5.8c-1.3,0-2-0.8-2-2c0-1.3,0.7-2.1,1.9-2.1h11.7c1.3,0,1.9,0.8,1.9,2.1s-0.7,2-2,2H163.6
			L163.6,733z"/>
		<path class="st9" d="M163.6,725.1h-5.8c-1.3,0-2-0.8-2-2c0-1.3,0.7-2.1,1.9-2.1h11.7c1.3,0,1.9,0.8,1.9,2.1s-0.7,2-2,2H163.6
			L163.6,725.1z"/>
		<path class="st9" d="M163.6,717.1h-5.8c-1.3,0-2-0.8-2-2c0-1.3,0.7-2.1,1.9-2.1h11.7c1.3,0,1.9,0.8,1.9,2.1s-0.7,2-2,2H163.6
			L163.6,717.1z"/>
	</g>
	<g>
		<path class="st3" d="M200.4,712.1h-6.8c-2.1,0-3.7-1.1-3.7-3.1s1.7-3.1,3.7-3.1h20.9c2.1,0,3.7,1.1,3.7,3.1s-1.7,3.1-3.7,3.1h-6.8
			v22.6c0,2.2-1.4,3.6-3.6,3.6s-3.6-1.5-3.6-3.6L200.4,712.1L200.4,712.1z"/>
		<path class="st3" d="M226.2,714.1c7.8,0,11.9,5.3,11.9,12.1c0,6.4-3.1,12.1-11.9,12.1c-8.8,0-11.9-5.7-11.9-12.1
			C214.3,719.4,218.4,714.1,226.2,714.1z M226.2,733.6c3.8,0,5.5-3.5,5.5-7.4c0-4.2-1.7-7.3-5.5-7.3c-3.7,0-5.5,3.1-5.5,7.3
			C220.7,730.1,222.3,733.6,226.2,733.6z"/>
		<path class="st3" d="M263.6,731.5c0,2.7,0.7,3.3,0.7,4.3c0,1.5-1.4,2.5-2.9,2.5c-2.8,0-3.7-1.7-3.8-3.7c-2.5,2.8-5.4,3.7-8.8,3.7
			c-3.7,0-7.3-2.5-7.3-6.6c0-5.3,4.1-6.8,9-7.4l3.9-0.4c1.5-0.2,2.8-0.5,2.8-2.4s-1.9-2.6-4.1-2.6c-4.8,0-4.9,3.5-7.4,3.5
			c-1.6,0-2.7-1.1-2.7-2.5c0-2.6,3.6-5.8,10.2-5.8c6.2,0,10.5,2,10.5,6.6L263.6,731.5L263.6,731.5z M257.2,726.9
			c-0.7,0.7-2,0.9-2.8,1l-2.3,0.4c-2.7,0.4-4.2,1.2-4.2,3.2c0,1.5,1.4,2.6,3.6,2.6c3.5,0,5.7-2.3,5.7-4.7V726.9L257.2,726.9z"/>
		<path class="st3" d="M277.8,714.1c4.9,0,9.8,2,9.8,4.9c0,1.5-1,2.8-2.7,2.8c-2.5,0-2.6-3-6.7-3c-2.2,0-3.7,0.6-3.7,2
			c0,1.5,1.5,1.9,3.5,2.3l2.7,0.6c3.7,0.9,8,2.4,8,6.9c0,5.2-5.1,7.7-9.9,7.7c-5.8,0-10.7-2.6-10.7-5.8c0-1.4,0.8-2.7,2.6-2.7
			c2.8,0,3.1,4,7.8,4c2.3,0,3.7-1,3.7-2.3c0-1.6-1.4-1.9-3.7-2.5l-3.8-0.9c-3.7-0.9-6.7-2.5-6.7-6.8
			C268.2,716,273.4,714.1,277.8,714.1z"/>
		<path class="st3" d="M294.5,718.9h-1.1c-1.8,0-2.6-0.7-2.6-2.1c0-1.4,0.7-2.1,2.6-2.1h1.1v-3.9c0-2.1,1.3-3.2,3.2-3.2
			s3.2,1.1,3.2,3.2v3.9h2c1.9,0,2.9,0.6,2.9,2.1s-1,2.1-2.9,2.1h-2v12.9c0,1,0.5,1.5,1.7,1.5h0.9c1.4,0,2.2,0.8,2.2,2.2
			c0,1.9-1.6,2.8-4.7,2.8c-4.7,0-6.6-2-6.6-5.7L294.5,718.9L294.5,718.9z"/>
		<path class="st3" d="M330.5,731.5c0,2.7,0.7,3.3,0.7,4.3c0,1.5-1.4,2.5-2.9,2.5c-2.8,0-3.7-1.7-3.8-3.7c-2.5,2.8-5.4,3.7-8.8,3.7
			c-3.7,0-7.3-2.5-7.3-6.6c0-5.3,4.1-6.8,9-7.4l3.9-0.4c1.5-0.2,2.8-0.5,2.8-2.4s-1.9-2.6-4.1-2.6c-4.8,0-4.9,3.5-7.4,3.5
			c-1.6,0-2.7-1.1-2.7-2.5c0-2.6,3.6-5.8,10.2-5.8c6.2,0,10.5,2,10.5,6.6L330.5,731.5L330.5,731.5z M324.1,726.9
			c-0.7,0.7-2,0.9-2.8,1l-2.3,0.4c-2.7,0.4-4.2,1.2-4.2,3.2c0,1.5,1.4,2.6,3.6,2.6c3.5,0,5.7-2.3,5.7-4.7L324.1,726.9L324.1,726.9z"
			/>
		<path class="st3" d="M336.4,717.1c0-2,1.3-3,2.9-3s2.9,1.1,2.9,3v2.5h0.1c0.7-2.7,2.2-5.5,5.3-5.5c2,0,3.5,1.3,3.5,3.1
			c0,2.4-1.6,3.2-3.2,3.2h-1.1c-2.6,0-4,1.8-4,7.2v7.5c0,1.7-0.7,3.2-3.2,3.2s-3.2-1.5-3.2-3.2L336.4,717.1L336.4,717.1z"/>
	</g>
</g>
<g class="st10">
	<path class="st1" d="M144.5,67.8l-7.2-12c-0.3-0.5-0.5-1-0.5-1.5c0-2,1.8-2.7,3-2.7c1.4,0,2.1,0.6,2.7,1.7l5.1,9.5l5.1-9.5
		c0.7-1.3,1.3-1.7,2.6-1.7c1.1,0,2.9,0.7,2.9,2.7c0,0.5-0.2,1.1-0.5,1.5l-7.2,12v7.6c0,1.8-1.2,3-3,3s-3-1.2-3-3V67.8z"/>
	<path class="st1" d="M166.8,58.6c6.3,0,9.7,4.3,9.7,9.9c0,5.3-2.6,9.9-9.7,9.9s-9.7-4.6-9.7-9.9C157.1,62.9,160.4,58.6,166.8,58.6z
		 M166.8,74.5c3.1,0,4.5-2.8,4.5-6c0-3.4-1.4-6-4.5-6s-4.5,2.6-4.5,6C162.3,71.7,163.7,74.5,166.8,74.5z"/>
	<path class="st1" d="M197.7,75.7c0,1.6-0.7,2.6-2.4,2.6s-2.4-1-2.4-2.6V75h-0.1c-1.5,1.9-3.4,3.3-6.4,3.3c-3.2,0-6.6-1.6-6.6-6.9
		V61.2c0-1.4,0.6-2.6,2.6-2.6s2.6,1.2,2.6,2.6v9.2c0,2.1,1,3.6,3.3,3.6c1.8,0,4-1.5,4-4.1v-8.7c0-1.4,0.6-2.6,2.6-2.6
		s2.6,1.2,2.6,2.6V75.7z"/>
	<path class="st1" d="M202.2,61c0-1.6,1-2.4,2.4-2.4c1.3,0,2.4,0.9,2.4,2.4v2h0.1c0.6-2.2,1.8-4.5,4.4-4.5c1.7,0,2.9,1.1,2.9,2.6
		c0,1.9-1.3,2.6-2.6,2.6h-0.9c-2.1,0-3.3,1.5-3.3,5.8v6.1c0,1.4-0.6,2.6-2.6,2.6s-2.6-1.2-2.6-2.6V61z"/>
	<path class="st1" d="M228.3,55.4c0-2.6,1.4-3.5,3.5-3.5h13c1.7,0,3,0.5,3,2.4s-1.3,2.4-3,2.4h-10.5v6h8.9c1.5,0,2.8,0.4,2.8,2.3
		s-1.2,2.3-2.8,2.3h-8.9v8.1c0,1.8-1.2,3-3,3c-1.8,0-3-1.2-3-3V55.4z"/>
	<path class="st1" d="M249.9,61c0-1.6,1-2.4,2.4-2.4c1.3,0,2.4,0.9,2.4,2.4v2h0.1c0.6-2.2,1.8-4.5,4.4-4.5c1.7,0,2.9,1.1,2.9,2.6
		c0,1.9-1.3,2.6-2.6,2.6h-0.9c-2.1,0-3.3,1.5-3.3,5.8v6.1c0,1.4-0.6,2.6-2.6,2.6s-2.6-1.2-2.6-2.6V61z"/>
	<path class="st1" d="M268.3,69.5c0,2.8,1.8,4.8,4.9,4.8c4,0,4-2.6,6.1-2.6c1.3,0,2.2,1.1,2.2,2.1c0,3.2-5.1,4.6-8.2,4.6
		c-7.3,0-10.1-5-10.1-9.5c0-6.1,3.7-10.2,9.9-10.2c6,0,9.5,4.3,9.5,8.6c0,1.8-0.5,2.3-2.3,2.3H268.3z M277.5,66.4
		c-0.3-2.4-2.1-4.2-4.4-4.2c-2.6,0-4.2,1.6-4.8,4.2H277.5z"/>
	<path class="st1" d="M290.3,69.5c0,2.8,1.8,4.8,4.9,4.8c4,0,4-2.6,6.1-2.6c1.3,0,2.2,1.1,2.2,2.1c0,3.2-5.1,4.6-8.2,4.6
		c-7.3,0-10.1-5-10.1-9.5c0-6.1,3.7-10.2,9.9-10.2c6,0,9.5,4.3,9.5,8.6c0,1.8-0.5,2.3-2.3,2.3H290.3z M299.5,66.4
		c-0.3-2.4-2.1-4.2-4.4-4.2c-2.6,0-4.2,1.6-4.8,4.2H299.5z"/>
	<path class="st1" d="M331.5,51.4c8.5,0,13.1,5.7,13.1,13.2c0,7.3-4.2,13.9-13.1,13.9c-9.3,0-13.1-6-13.1-13.9
		C318.4,57,323,51.4,331.5,51.4z M331.5,73.8c5.4,0,7.2-4.2,7.2-9.1c0-5-2.4-8.5-7.2-8.5c-4.8,0-7.2,3.5-7.2,8.5
		C324.3,69.6,325.9,73.8,331.5,73.8z"/>
	<path class="st1" d="M348.3,61.2c0-1.6,0.7-2.6,2.4-2.6c1.7,0,2.4,1,2.4,2.6v0.7h0.1c1.5-1.9,3.4-3.3,6.4-3.3
		c3.2,0,6.6,1.6,6.6,6.9v10.2c0,1.4-0.6,2.6-2.6,2.6s-2.6-1.2-2.6-2.6v-9.2c0-2.1-1-3.6-3.3-3.6c-1.8,0-4,1.5-4,4.1v8.7
		c0,1.4-0.6,2.6-2.6,2.6s-2.6-1.2-2.6-2.6V61.2z"/>
	<path class="st1" d="M374.7,69.5c0,2.8,1.8,4.8,4.9,4.8c4,0,4-2.6,6.1-2.6c1.3,0,2.2,1.1,2.2,2.1c0,3.2-5.1,4.6-8.2,4.6
		c-7.3,0-10.1-5-10.1-9.5c0-6.1,3.7-10.2,9.9-10.2c6,0,9.5,4.3,9.5,8.6c0,1.8-0.5,2.3-2.3,2.3H374.7z M383.9,66.4
		c-0.3-2.4-2.1-4.2-4.4-4.2c-2.6,0-4.2,1.6-4.8,4.2H383.9z"/>
	<path class="st1" d="M404,55.4c0-2.6,1.4-3.5,3.5-3.5h9c5,0,9,2.4,9,8.2c0,4.7-3.3,8.2-9,8.2h-6.6v7c0,1.8-1.2,3-3,3s-3-1.2-3-3
		V55.4z M409.9,63.9h5.5c2.4,0,4.1-1.4,4.1-3.7c0-2.6-1.8-3.7-4.8-3.7h-4.9V63.9z"/>
	<path class="st1" d="M444.8,72.8c0,2.2,0.5,2.7,0.5,3.5c0,1.2-1.1,2-2.4,2c-2.3,0-3-1.4-3.1-3.1c-2.1,2.3-4.4,3.1-7.2,3.1
		c-3,0-5.9-2.1-5.9-5.4c0-4.4,3.3-5.6,7.3-6l3.2-0.4c1.3-0.1,2.3-0.4,2.3-1.9s-1.5-2.2-3.3-2.2c-3.9,0-4,2.9-6.1,2.9
		c-1.3,0-2.2-0.9-2.2-2c0-2.1,3-4.8,8.4-4.8c5,0,8.5,1.6,8.5,5.4V72.8z M439.5,69c-0.6,0.5-1.7,0.7-2.3,0.8l-1.9,0.3
		c-2.2,0.3-3.4,1-3.4,2.6c0,1.2,1.1,2.2,2.9,2.2c2.9,0,4.6-1.9,4.6-3.8V69z"/>
	<path class="st1" d="M467.1,76.3c0,6.3-3.9,9.3-9.4,9.3c-4,0-7.9-1.8-7.9-4.4c0-1.3,1-2.2,2.2-2.2c2.2,0,2.6,2.7,5.6,2.7
		c3.2,0,4.5-1.6,4.5-5.8v-1.1H462c-0.9,1.4-3,2.5-5.1,2.5c-5.5,0-8.4-3.6-8.4-8.8c0-6.8,3.8-10,8.2-10c2.6,0,4.6,1.2,5.5,3.1h0.1
		v-0.6c0-1.6,0.8-2.5,2.4-2.5c1.6,0,2.4,0.9,2.4,2.5V76.3z M457.9,73.5c2.3,0,4.1-1.5,4.1-5.3c0-3.8-1.4-5.5-3.9-5.5
		c-3.4,0-4.4,2.5-4.4,5.7C453.8,70.8,455,73.5,457.9,73.5z"/>
	<path class="st1" d="M475.8,69.5c0,2.8,1.8,4.8,4.9,4.8c4,0,4-2.6,6.1-2.6c1.3,0,2.2,1.1,2.2,2.1c0,3.2-5.1,4.6-8.2,4.6
		c-7.3,0-10.1-5-10.1-9.5c0-6.1,3.7-10.2,9.9-10.2c6,0,9.5,4.3,9.5,8.6c0,1.8-0.5,2.3-2.3,2.3H475.8z M485,66.4
		c-0.3-2.4-2.1-4.2-4.4-4.2c-2.6,0-4.2,1.6-4.8,4.2H485z"/>
	<path class="st1" d="M493.6,61c0-1.6,1-2.4,2.4-2.4c1.3,0,2.4,0.9,2.4,2.4v2h0.1c0.6-2.2,1.8-4.5,4.4-4.5c1.7,0,2.9,1.1,2.9,2.6
		c0,1.9-1.3,2.6-2.6,2.6h-0.9c-2.1,0-3.3,1.5-3.3,5.8v6.1c0,1.4-0.6,2.6-2.6,2.6s-2.6-1.2-2.6-2.6V61z"/>
</g>
<g>
	<path class="st11" d="M162,123.1c2.1,0,3.7,0.8,3.7,3.8c0,4.2-8.8,5.8-14.2,29.7c-0.7,3.1-1.4,4.2-3.9,4.2c-3.1,0-3.9-1.8-3.9-4
		c0-5.3,7.1-20.8,13.8-27h-17.2c-1.9,0-3.4-1-3.4-3.3c0-2.4,1.5-3.3,3.5-3.3H162z"/>
	<path class="st11" d="M196.5,129.3h-8.2c-2.5,0-4.5-1.3-4.5-3.7s2-3.7,4.5-3.7h25.2c2.5,0,4.5,1.3,4.5,3.7s-2,3.7-4.5,3.7h-8.2
		v27.2c0,2.6-1.7,4.4-4.4,4.4c-2.7,0-4.4-1.8-4.4-4.4V129.3z"/>
	<path class="st11" d="M224,121c2.2,0,4,1.8,4,4c0,2.2-1.8,4-4,4c-2.2,0-4-1.8-4-4C220,122.8,221.8,121,224,121z M220.1,135.6
		c0-2.1,0.8-3.9,3.9-3.9s3.9,1.8,3.9,3.9V157c0,2.1-0.8,3.9-3.9,3.9s-3.9-1.8-3.9-3.9V135.6z"/>
	<path class="st11" d="M234.5,135.4c0-2.4,1.1-3.7,3.5-3.7c2.3,0,3.5,1.3,3.5,3.7v1.2h0.1c1.3-3.3,4.4-4.9,8.2-4.9
		c6.5,0,12.2,4.7,12.2,14.8c0,7.4-3.8,14.4-11.9,14.4c-3.6,0-6.2-1.4-7.6-3.9h-0.1v10.4c0,2.5-1.5,3.9-3.9,3.9s-3.9-1.3-3.9-3.9
		V135.4z M248,137.8c-4.5,0-6.2,4-6.2,8.4c0,4,1.5,8.7,6.2,8.6c4.9,0,6.2-5,6.2-8.6C254.2,141.6,252.2,137.9,248,137.8z"/>
	<path class="st11" d="M277.3,131.7c5.9,0,11.8,2.3,11.8,5.9c0,1.8-1.2,3.4-3.2,3.4c-3,0-3.1-3.6-8-3.6c-2.7,0-4.5,0.7-4.5,2.4
		c0,1.8,1.8,2.2,4.1,2.8l3.2,0.7c4.4,1,9.7,2.9,9.7,8.3c0,6.3-6.1,9.2-11.9,9.2c-7,0-12.9-3.1-12.9-7c0-1.7,1-3.2,3.1-3.2
		c3.3,0,3.7,4.8,9.4,4.8c2.8,0,4.5-1.2,4.5-2.8c0-2-1.7-2.3-4.5-3l-4.6-1.1c-4.5-1.1-8-3-8-8.2C265.7,134,272,131.7,277.3,131.7z"/>
	<path class="st11" d="M314.1,137.5h-1.8c-2.2,0-3.1-0.8-3.1-2.5s0.9-2.5,3.1-2.5h1.8v-3.9c0-4.9,4-7.5,8.5-7.5
		c2.8,0,5.1,1.1,5.1,3.7c0,1.4-1.1,2.7-2.5,2.7c-0.6,0-1.1-0.2-1.7-0.2c-1.1,0-1.7,0.7-1.7,1.8v3.3h2.4c2.3,0,3.5,0.7,3.5,2.5
		s-1.2,2.5-3.5,2.5h-2.4V157c0,2.5-1.5,3.9-3.9,3.9c-2.3,0-3.9-1.3-3.9-3.9V137.5z"/>
	<path class="st11" d="M344.5,131.7c9.3,0,14.3,6.4,14.3,14.5c0,7.8-3.8,14.6-14.3,14.6c-10.6,0-14.3-6.9-14.3-14.6
		C330.2,138.1,335.2,131.7,344.5,131.7z M344.5,155.1c4.6,0,6.6-4.1,6.6-8.9c0-5-2.1-8.8-6.6-8.8s-6.6,3.8-6.6,8.8
		C337.9,151,339.9,155.1,344.5,155.1z"/>
	<path class="st11" d="M364.3,135.3c0-2.3,1.5-3.6,3.5-3.6c2,0,3.5,1.3,3.5,3.6v3h0.1c0.9-3.2,2.7-6.6,6.4-6.6
		c2.4,0,4.2,1.6,4.2,3.8c0,2.9-1.9,3.9-3.8,3.9h-1.4c-3.1,0-4.8,2.2-4.8,8.6v9c0,2.1-0.8,3.9-3.9,3.9s-3.9-1.8-3.9-3.9V135.3z"/>
	<path class="st11" d="M143.8,184.8c2.2,0,4,1.8,4,4c0,2.2-1.8,4-4,4c-2.2,0-4-1.8-4-4C139.7,186.6,141.6,184.8,143.8,184.8z
		 M139.9,199.3c0-2.1,0.8-3.9,3.9-3.9s3.9,1.8,3.9,3.9v21.4c0,2.1-0.8,3.9-3.9,3.9s-3.9-1.8-3.9-3.9V199.3z"/>
	<path class="st11" d="M154.2,199.3c0-2.3,1.4-3.9,3.7-3.9s3.7,1.5,3.7,3.9v1h0.1c2-3.1,5.4-4.9,9.3-4.9c2.7,0,6,1.2,7.4,4.9
		c2.2-3,4.9-4.9,9.1-4.9c5.4,0,9.7,2.4,9.7,9.4v15.9c0,2.1-0.8,3.9-3.9,3.9s-3.9-1.8-3.9-3.9v-13.9c0-2.8-1.2-5-4.2-5
		c-3,0-5.6,2.4-5.6,6v12.9c0,2.1-0.8,3.9-3.9,3.9c-3,0-3.9-1.8-3.9-3.9v-13.9c0-2.8-1.2-5-4.2-5c-3,0-5.6,2.4-5.6,6v12.9
		c0,2.1-0.8,3.9-3.9,3.9s-3.9-1.8-3.9-3.9V199.3z"/>
	<path class="st11" d="M203.4,199.1c0-2.4,1.1-3.7,3.5-3.7c2.3,0,3.5,1.3,3.5,3.7v1.2h0.1c1.3-3.3,4.4-4.9,8.2-4.9
		c6.5,0,12.2,4.7,12.2,14.8c0,7.4-3.8,14.4-11.9,14.4c-3.6,0-6.2-1.4-7.6-3.9h-0.1V231c0,2.5-1.5,3.9-3.9,3.9s-3.9-1.3-3.9-3.9
		V199.1z M217,201.5c-4.5,0-6.2,4-6.2,8.4c0,4,1.5,8.7,6.2,8.6c4.9,0,6.2-5,6.2-8.6C223.1,205.4,221.1,201.6,217,201.5z"/>
	<path class="st11" d="M236.3,188.9c0-2.5,1.5-3.9,3.9-3.9s3.9,1.3,3.9,3.9v31.9c0,2.5-1.5,3.9-3.9,3.9s-3.9-1.3-3.9-3.9V188.9z"/>
	<path class="st11" d="M257.2,211.5c0,4.1,2.7,7.1,7.2,7.1c5.8,0,5.8-3.8,9-3.8c1.9,0,3.2,1.6,3.2,3c0,4.7-7.5,6.9-12.2,6.9
		c-10.8,0-14.9-7.3-14.9-14.1c0-9,5.5-15.1,14.7-15.1c8.9,0,14,6.3,14,12.7c0,2.7-0.8,3.3-3.4,3.3H257.2z M270.8,207
		c-0.4-3.6-3.1-6.2-6.5-6.2c-3.9,0-6.2,2.4-7.1,6.2H270.8z"/>
	<path class="st11" d="M283.1,199.3c0-2.3,1.4-3.9,3.7-3.9c2.3,0,3.7,1.5,3.7,3.9v1h0.1c2-3.1,5.4-4.9,9.3-4.9c2.7,0,6,1.2,7.4,4.9
		c2.2-3,4.9-4.9,9.1-4.9c5.4,0,9.7,2.4,9.7,9.4v15.9c0,2.1-0.8,3.9-3.9,3.9s-3.9-1.8-3.9-3.9v-13.9c0-2.8-1.2-5-4.2-5
		c-3,0-5.6,2.4-5.6,6v12.9c0,2.1-0.8,3.9-3.9,3.9c-3,0-3.9-1.8-3.9-3.9v-13.9c0-2.8-1.2-5-4.2-5c-3,0-5.6,2.4-5.6,6v12.9
		c0,2.1-0.8,3.9-3.9,3.9c-3,0-3.9-1.8-3.9-3.9V199.3z"/>
	<path class="st11" d="M338.9,211.5c0,4.1,2.7,7.1,7.2,7.1c5.8,0,5.8-3.8,9-3.8c1.9,0,3.2,1.6,3.2,3c0,4.7-7.5,6.9-12.2,6.9
		c-10.8,0-14.9-7.3-14.9-14.1c0-9,5.5-15.1,14.7-15.1c8.9,0,14,6.3,14,12.7c0,2.7-0.8,3.3-3.4,3.3H338.9z M352.5,207
		c-0.4-3.6-3.1-6.2-6.5-6.2c-3.9,0-6.2,2.4-7.1,6.2H352.5z"/>
	<path class="st11" d="M364.8,199.3c0-2.3,1.1-3.9,3.5-3.9c2.4,0,3.5,1.5,3.5,3.9v1h0.1c2.2-2.9,5-4.9,9.4-4.9
		c4.7,0,9.8,2.3,9.8,10.2v15.1c0,2.1-0.8,3.9-3.9,3.9s-3.9-1.8-3.9-3.9v-13.5c0-3.1-1.5-5.4-4.9-5.4c-2.7,0-5.9,2.2-5.9,6.1v12.8
		c0,2.1-0.8,3.9-3.9,3.9s-3.9-1.8-3.9-3.9V199.3z"/>
	<path class="st11" d="M399.3,201.2H398c-2.2,0-3.1-0.8-3.1-2.5s0.9-2.5,3.1-2.5h1.3v-4.7c0-2.5,1.5-3.9,3.9-3.9
		c2.3,0,3.9,1.3,3.9,3.9v4.7h2.3c2.3,0,3.5,0.7,3.5,2.5c0,1.9-1.2,2.5-3.5,2.5H407v15.5c0,1.2,0.6,1.8,2,1.8h1.1
		c1.7,0,2.7,1,2.7,2.6c0,2.2-1.9,3.5-5.6,3.5c-5.6,0-8-2.3-8-6.9V201.2z"/>
	<path class="st11" d="M421.2,184.8c2.2,0,4,1.8,4,4c0,2.2-1.8,4-4,4s-4-1.8-4-4C417.2,186.6,419,184.8,421.2,184.8z M417.3,199.3
		c0-2.1,0.8-3.9,3.9-3.9c3,0,3.9,1.8,3.9,3.9v21.4c0,2.1-0.8,3.9-3.9,3.9c-3,0-3.9-1.8-3.9-3.9V199.3z"/>
	<path class="st11" d="M431.7,199.3c0-2.3,1.1-3.9,3.5-3.9c2.4,0,3.5,1.5,3.5,3.9v1h0.1c2.2-2.9,5-4.9,9.4-4.9
		c4.7,0,9.8,2.3,9.8,10.2v15.1c0,2.1-0.8,3.9-3.9,3.9s-3.9-1.8-3.9-3.9v-13.5c0-3.1-1.5-5.4-4.9-5.4c-2.7,0-5.9,2.2-5.9,6.1v12.8
		c0,2.1-0.8,3.9-3.9,3.9s-3.9-1.8-3.9-3.9V199.3z"/>
	<path class="st11" d="M490.4,221.6c0,9.3-5.7,13.6-13.8,13.6c-5.9,0-11.7-2.7-11.7-6.4c0-1.9,1.5-3.3,3.2-3.3c3.2,0,3.9,4,8.2,4
		c4.7,0,6.6-2.4,6.6-8.5v-1.6h-0.1c-1.4,2-4.4,3.7-7.5,3.7c-8.2,0-12.4-5.3-12.4-13c0-10,5.6-14.8,12.2-14.8c3.8,0,6.7,1.8,8.2,4.6
		h0.1v-1c0-2.4,1.2-3.7,3.5-3.7c2.4,0,3.5,1.3,3.5,3.7V221.6z M476.9,217.4c3.5,0,6.1-2.3,6.1-7.8c0-5.6-2.1-8.1-5.7-8.1
		c-5,0-6.5,3.7-6.5,8.4C470.7,213.5,472.5,217.4,476.9,217.4z"/>
	<path class="st11" d="M157.9,248.5c10,0,15.5,6.3,15.5,10c0,2.4-1.3,3.9-3.9,3.9c-5,0-3.6-6.9-11.5-6.9c-5.5,0-10,4.7-10,13
		c0,7,2.8,13,10.3,13c6.9,0,6.7-7.3,10.9-7.3c2.1,0,4.2,1.2,4.2,3.3c0,5.5-6.7,11-15.1,11c-11.9,0-19-6.9-19-20
		C139.2,257.7,145.6,248.5,157.9,248.5z"/>
	<path class="st11" d="M188.1,256.7h-8.2c-2.5,0-4.5-1.3-4.5-3.7c0-2.4,2-3.7,4.5-3.7h25.2c2.5,0,4.5,1.3,4.5,3.7
		c0,2.4-2,3.7-4.5,3.7h-8.2V284c0,2.6-1.7,4.4-4.4,4.4c-2.7,0-4.4-1.8-4.4-4.4V256.7z"/>
	<path class="st11" d="M214.3,253.1c0-2.6,1.7-4.4,4.4-4.4c2.7,0,4.4,1.8,4.4,4.4V284c0,2.6-1.7,4.4-4.4,4.4c-2.7,0-4.4-1.8-4.4-4.4
		V253.1z"/>
	<path class="st11" d="M242.2,269.3c2.4,0,4.3,1,4.3,3.7s-1.9,3.7-4.3,3.7h-8.8c-2.4,0-4.3-1-4.3-3.7s1.9-3.7,4.3-3.7H242.2z"/>
	<path class="st11" d="M253.7,265h-1.3c-2.2,0-3.1-0.8-3.1-2.5s0.9-2.5,3.1-2.5h1.3v-4.7c0-2.5,1.5-3.9,3.9-3.9s3.9,1.3,3.9,3.9v4.7
		h2.3c2.3,0,3.5,0.7,3.5,2.5c0,1.9-1.2,2.5-3.5,2.5h-2.3v15.5c0,1.2,0.6,1.8,2,1.8h1.1c1.7,0,2.7,1,2.7,2.6c0,2.2-1.9,3.5-5.6,3.5
		c-5.6,0-8-2.3-8-6.9V265z"/>
	<path class="st11" d="M277.9,275.2c0,4.1,2.7,7.1,7.2,7.1c5.8,0,5.8-3.8,9-3.8c1.9,0,3.2,1.6,3.2,3c0,4.7-7.5,6.9-12.2,6.9
		c-10.8,0-14.9-7.3-14.9-14.1c0-9,5.5-15.1,14.7-15.1c8.9,0,14,6.3,14,12.7c0,2.7-0.8,3.3-3.4,3.3H277.9z M291.5,270.7
		c-0.4-3.6-3.1-6.2-6.5-6.2c-3.9,0-6.2,2.4-7.1,6.2H291.5z"/>
	<path class="st11" d="M316.9,259.2c6.5,0,11.3,3.7,11.3,7.3c0,2.2-1.6,3.3-3.6,3.3c-3.7,0-2.3-4.6-7.9-4.6c-3,0-6.6,2.1-6.6,9.1
		c0,4.8,2.3,8,6.5,8c5.4,0,4.2-5,8.3-5c2,0,3.2,1.4,3.2,3c0,3.4-3.8,8.1-11.8,8.1c-9.6,0-14.1-5.9-14.1-14
		C302.4,265.4,307.4,259.2,316.9,259.2z"/>
	<path class="st11" d="M332.4,252.6c0-2.5,1.5-3.9,3.9-3.9c2.3,0,3.9,1.3,3.9,3.9v10.7h0.1c1.5-2,4.2-4.1,8.7-4.1
		c4.7,0,9.8,2.3,9.8,10.2v15.1c0,2.1-0.8,3.9-3.9,3.9s-3.9-1.8-3.9-3.9v-13.5c0-3.1-1.5-5.4-4.9-5.4c-2.7,0-5.9,2.2-5.9,6.1v12.8
		c0,2.1-0.8,3.9-3.9,3.9c-3,0-3.9-1.8-3.9-3.9V252.6z"/>
	<path class="st11" d="M364.8,263c0-2.3,1.1-3.9,3.5-3.9c2.4,0,3.5,1.5,3.5,3.9v1h0.1c2.2-2.9,5-4.9,9.4-4.9c4.7,0,9.8,2.3,9.8,10.2
		v15.1c0,2.1-0.8,3.9-3.9,3.9s-3.9-1.8-3.9-3.9v-13.5c0-3.1-1.5-5.4-4.9-5.4c-2.7,0-5.9,2.2-5.9,6.1v12.8c0,2.1-0.8,3.9-3.9,3.9
		s-3.9-1.8-3.9-3.9V263z"/>
	<path class="st11" d="M410.4,259.2c9.3,0,14.3,6.4,14.3,14.5c0,7.8-3.8,14.6-14.3,14.6c-10.6,0-14.3-6.9-14.3-14.6
		C396.1,265.5,401.1,259.2,410.4,259.2z M410.4,282.6c4.6,0,6.6-4.1,6.6-8.9c0-5-2.1-8.8-6.6-8.8s-6.6,3.8-6.6,8.8
		C403.8,278.4,405.8,282.6,410.4,282.6z"/>
	<path class="st11" d="M430.2,252.6c0-2.5,1.5-3.9,3.9-3.9c2.3,0,3.9,1.3,3.9,3.9v31.9c0,2.5-1.5,3.9-3.9,3.9
		c-2.3,0-3.9-1.3-3.9-3.9V252.6z"/>
	<path class="st11" d="M457.7,259.2c9.3,0,14.3,6.4,14.3,14.5c0,7.8-3.8,14.6-14.3,14.6c-10.6,0-14.3-6.9-14.3-14.6
		C443.4,265.5,448.3,259.2,457.7,259.2z M457.7,282.6c4.6,0,6.6-4.1,6.6-8.9c0-5-2.1-8.8-6.6-8.8s-6.6,3.8-6.6,8.8
		C451.1,278.4,453.1,282.6,457.7,282.6z"/>
	<path class="st11" d="M503.3,285.3c0,9.3-5.7,13.6-13.8,13.6c-5.9,0-11.7-2.7-11.7-6.4c0-1.9,1.5-3.3,3.2-3.3c3.2,0,3.9,4,8.2,4
		c4.7,0,6.6-2.4,6.6-8.5v-1.6h-0.1c-1.4,2-4.4,3.7-7.5,3.7c-8.2,0-12.4-5.3-12.4-13c0-10,5.6-14.8,12.2-14.8c3.8,0,6.7,1.8,8.2,4.6
		h0.1v-1c0-2.4,1.2-3.7,3.5-3.7c2.4,0,3.5,1.3,3.5,3.7V285.3z M489.8,281.2c3.5,0,6.1-2.3,6.1-7.8c0-5.6-2.1-8.1-5.7-8.1
		c-5,0-6.5,3.7-6.5,8.4C483.6,277.2,485.4,281.2,489.8,281.2z"/>
	<path class="st11" d="M519.8,280.2h0.1l4.7-17.6c0.5-2,1.6-3.5,3.7-3.5c3.1,0,4,2.5,4,3.5c0,0.6-0.2,1.4-0.6,2.4l-9,25.4
		c-1.9,5.3-4,8.1-8.9,8.1c-3.5,0-4.9-1.7-4.9-3.6c0-2.1,1.5-3.1,3.6-3.1h0.8c1,0,2.1-0.1,2.7-2.4l-8.1-23c-0.6-1.9-1-2.7-1-3.6
		c0-2.1,1.7-3.7,3.8-3.7s3.5,1.2,4,2.9L519.8,280.2z"/>
	<path class="st11" d="M149.9,322.9c5.9,0,11.8,2.3,11.8,5.9c0,1.8-1.2,3.4-3.2,3.4c-3,0-3.1-3.6-8-3.6c-2.7,0-4.5,0.7-4.5,2.4
		c0,1.8,1.8,2.2,4.1,2.8l3.2,0.7c4.4,1,9.7,2.9,9.7,8.3c0,6.3-6.1,9.2-11.9,9.2c-7,0-12.9-3.1-12.9-7c0-1.7,1-3.2,3.1-3.2
		c3.3,0,3.7,4.8,9.4,4.8c2.8,0,4.5-1.2,4.5-2.8c0-2-1.7-2.3-4.5-3l-4.6-1.1c-4.5-1.1-8-3-8-8.2C138.3,325.2,144.5,322.9,149.9,322.9
		z"/>
	<path class="st11" d="M194.3,348.2c0,2.3-1.1,3.9-3.5,3.9c-2.4,0-3.5-1.5-3.5-3.9v-1h-0.1c-2.2,2.9-5,4.9-9.4,4.9
		c-4.7,0-9.8-2.3-9.8-10.2v-15.1c0-2.1,0.8-3.9,3.9-3.9c3,0,3.9,1.8,3.9,3.9v13.5c0,3.1,1.5,5.4,4.9,5.4c2.7,0,5.9-2.2,5.9-6.1
		v-12.8c0-2.1,0.8-3.9,3.9-3.9s3.9,1.8,3.9,3.9V348.2z"/>
	<path class="st11" d="M213.5,322.9c6.5,0,11.3,3.7,11.3,7.3c0,2.2-1.6,3.3-3.6,3.3c-3.7,0-2.3-4.6-7.9-4.6c-3,0-6.6,2.1-6.6,9.1
		c0,4.8,2.3,8,6.5,8c5.4,0,4.2-5,8.3-5c2,0,3.2,1.4,3.2,3c0,3.4-3.8,8.1-11.8,8.1c-9.6,0-14.1-5.9-14.1-14
		C199,329.1,204,322.9,213.5,322.9z"/>
	<path class="st11" d="M242,322.9c6.5,0,11.3,3.7,11.3,7.3c0,2.2-1.6,3.3-3.6,3.3c-3.7,0-2.3-4.6-7.9-4.6c-3,0-6.6,2.1-6.6,9.1
		c0,4.8,2.3,8,6.5,8c5.4,0,4.2-5,8.3-5c2,0,3.2,1.4,3.2,3c0,3.4-3.8,8.1-11.8,8.1c-9.6,0-14.1-5.9-14.1-14
		C227.5,329.1,232.5,322.9,242,322.9z"/>
	<path class="st11" d="M264.1,338.9c0,4.1,2.7,7.1,7.2,7.1c5.8,0,5.8-3.8,9-3.8c1.9,0,3.2,1.6,3.2,3c0,4.7-7.5,6.9-12.2,6.9
		c-10.8,0-14.9-7.3-14.9-14.1c0-9,5.5-15.1,14.7-15.1c8.9,0,14,6.3,14,12.7c0,2.7-0.8,3.3-3.4,3.3H264.1z M277.7,334.5
		c-0.4-3.6-3.1-6.2-6.5-6.2c-3.9,0-6.2,2.4-7.1,6.2H277.7z"/>
	<path class="st11" d="M300.4,322.9c5.9,0,11.8,2.3,11.8,5.9c0,1.8-1.2,3.4-3.2,3.4c-3,0-3.1-3.6-8-3.6c-2.7,0-4.5,0.7-4.5,2.4
		c0,1.8,1.8,2.2,4.1,2.8l3.2,0.7c4.4,1,9.7,2.9,9.7,8.3c0,6.3-6.1,9.2-11.9,9.2c-7,0-12.9-3.1-12.9-7c0-1.7,1-3.2,3.1-3.2
		c3.3,0,3.7,4.8,9.4,4.8c2.8,0,4.5-1.2,4.5-2.8c0-2-1.7-2.3-4.5-3l-4.6-1.1c-4.5-1.1-8-3-8-8.2C288.8,325.2,295,322.9,300.4,322.9z"
		/>
	<path class="st11" d="M328.9,322.9c5.9,0,11.8,2.3,11.8,5.9c0,1.8-1.2,3.4-3.2,3.4c-3,0-3.1-3.6-8-3.6c-2.7,0-4.5,0.7-4.5,2.4
		c0,1.8,1.8,2.2,4.1,2.8l3.2,0.7c4.4,1,9.7,2.9,9.7,8.3c0,6.3-6.1,9.2-11.9,9.2c-7,0-12.9-3.1-12.9-7c0-1.7,1-3.2,3.1-3.2
		c3.3,0,3.7,4.8,9.4,4.8c2.8,0,4.5-1.2,4.5-2.8c0-2-1.7-2.3-4.5-3l-4.6-1.1c-4.5-1.1-8-3-8-8.2C317.3,325.2,323.5,322.9,328.9,322.9
		z"/>
	<path class="st11" d="M349.5,328.7h-1.8c-2.2,0-3.1-0.8-3.1-2.5s0.9-2.5,3.1-2.5h1.8v-3.9c0-4.9,4-7.5,8.5-7.5
		c2.8,0,5.1,1.1,5.1,3.7c0,1.4-1.1,2.7-2.5,2.7c-0.6,0-1.1-0.2-1.7-0.2c-1.1,0-1.7,0.7-1.7,1.8v3.3h2.4c2.3,0,3.5,0.7,3.5,2.5
		s-1.2,2.5-3.5,2.5h-2.4v19.5c0,2.5-1.5,3.9-3.9,3.9c-2.3,0-3.9-1.3-3.9-3.9V328.7z"/>
	<path class="st11" d="M393,348.2c0,2.3-1.1,3.9-3.5,3.9c-2.4,0-3.5-1.5-3.5-3.9v-1h-0.1c-2.2,2.9-5,4.9-9.4,4.9
		c-4.7,0-9.8-2.3-9.8-10.2v-15.1c0-2.1,0.8-3.9,3.9-3.9s3.9,1.8,3.9,3.9v13.5c0,3.1,1.5,5.4,4.9,5.4c2.7,0,5.9-2.2,5.9-6.1v-12.8
		c0-2.1,0.8-3.9,3.9-3.9s3.9,1.8,3.9,3.9V348.2z"/>
	<path class="st11" d="M399.5,316.3c0-2.5,1.5-3.9,3.9-3.9c2.3,0,3.9,1.3,3.9,3.9v31.9c0,2.5-1.5,3.9-3.9,3.9
		c-2.3,0-3.9-1.3-3.9-3.9V316.3z"/>
	<path class="st11" d="M414.3,316.3c0-2.5,1.5-3.9,3.9-3.9c2.3,0,3.9,1.3,3.9,3.9v31.9c0,2.5-1.5,3.9-3.9,3.9
		c-2.3,0-3.9-1.3-3.9-3.9V316.3z"/>
	<path class="st11" d="M438.9,343.9h0.1l4.7-17.6c0.5-2,1.6-3.5,3.7-3.5c3.1,0,4,2.5,4,3.5c0,0.6-0.2,1.4-0.6,2.4l-9,25.4
		c-1.9,5.3-4,8.1-8.9,8.1c-3.5,0-4.9-1.7-4.9-3.6c0-2.1,1.5-3.1,3.6-3.1h0.8c1,0,2.1-0.1,2.7-2.4l-8.1-23c-0.6-1.9-1-2.7-1-3.6
		c0-2.1,1.7-3.7,3.8-3.7s3.5,1.2,4,2.9L438.9,343.9z"/>
</g>
</svg>
