<svg xmlns="http://www.w3.org/2000/svg" viewBox="0 0 542.97 381.61"><defs><style>.cls-1{fill:#fff;}.cls-14,.cls-2,.cls-4,.cls-5{fill:none;}.cls-2{stroke:#cbcbca;}.cls-2,.cls-3,.cls-4,.cls-5{stroke-miterlimit:10;}.cls-3{fill:#fafafa;}.cls-3,.cls-4{stroke:#ccc;}.cls-4,.cls-5{stroke-width:0.5px;}.cls-5{stroke:#a5a5af;}.cls-6{fill:#a5a5af;}.cls-7{fill:#0380d3;}.cls-8{fill:#fbc32a;}.cls-9{fill:#e2e2e6;}.cls-10{fill:#00c2b1;}.cls-11{fill:#00abf5;}.cls-12{fill:#0061bc;}.cls-13{fill:#ff6e56;}</style></defs><title>1-start_1</title><g id="Layer_2" data-name="Layer 2"><g id="Top_layer" data-name="Top layer"><rect class="cls-1" x="26.93" y="38.02" width="491.12" height="306.75" rx="4.6" ry="4.6"/><rect class="cls-2" x="26.93" y="38.02" width="491.12" height="306.75" rx="4.6" ry="4.6"/><path class="cls-3" d="M32.86,37.87H512.11A5.93,5.93,0,0,1,518,43.8V60.91a0,0,0,0,1,0,0H26.93a0,0,0,0,1,0,0V43.8A5.93,5.93,0,0,1,32.86,37.87Z"/><line class="cls-4" x1="443.38" y1="37.87" x2="443.38" y2="60.91"/><line class="cls-4" x1="469.11" y1="37.87" x2="469.11" y2="60.91"/><line class="cls-4" x1="493.16" y1="37.87" x2="493.16" y2="60.91"/><line class="cls-4" x1="418.49" y1="37.87" x2="418.49" y2="60.91"/><line class="cls-4" x1="393.6" y1="37.87" x2="393.6" y2="60.91"/><rect class="cls-5" x="341.74" y="42.43" width="43.02" height="13.66" rx="1.34" ry="1.34"/><polygon class="cls-6" points="366.69 48.29 363.96 48.29 363.96 45.64 362.53 45.64 362.53 48.29 359.8 48.29 359.8 49.64 362.53 49.64 362.53 52.29 363.96 52.29 363.96 49.64 366.69 49.64 366.69 48.29"/><path class="cls-6" d="M510.41,50.77c0-.19.07-.38.07-.64a1.77,1.77,0,0,0-.07-.63l1.35-1c.12-.06.12-.25.06-.38l-1.28-2.24a.3.3,0,0,0-.38-.13l-1.6.64a6.79,6.79,0,0,0-1.09-.64L507.22,44c.06-.13-.13-.26-.26-.26h-2.55c-.13,0-.32.13-.32.26l-.26,1.72a5.42,5.42,0,0,0-1.09.64l-1.59-.64c-.13-.06-.26,0-.39.13l-1.28,2.24c-.06.06,0,.25.13.38l1.34,1c0,.19-.06.38-.06.63a2.08,2.08,0,0,0,.06.64l-1.34,1c-.13.06-.13.25-.06.38l1.28,2.24a.28.28,0,0,0,.38.13l1.6-.64a7.15,7.15,0,0,0,1.08.64l.26,1.66a.3.3,0,0,0,.32.25H507c.12,0,.32-.13.32-.25l.25-1.66a3.86,3.86,0,0,0,1.09-.64l1.6.64a.31.31,0,0,0,.38-.13L512,52.18c.06-.13.06-.32-.07-.38Zm-4.73,1.6a2.24,2.24,0,1,1,2.24-2.24A2.26,2.26,0,0,1,505.68,52.37Z"/><rect class="cls-6" x="425.18" y="43.45" width="3.04" height="11.03"/><rect class="cls-6" x="429.26" y="43.45" width="7.43" height="4.87"/><rect class="cls-6" x="429.26" y="49.6" width="7.43" height="4.87"/><path class="cls-6" d="M482.88,50.31a2.17,2.17,0,0,1-4.33,0h-3.62v4.18H486.5V50.31Z"/><rect class="cls-6" x="480.1" y="43.4" width="1.22" height="7.65" rx="0.55" ry="0.55"/><rect class="cls-6" x="481.12" y="42.97" width="1.22" height="4.14" rx="0.55" ry="0.55" transform="translate(109.25 353.82) rotate(-45)"/><rect class="cls-6" x="479.09" y="42.97" width="1.22" height="4.14" rx="0.55" ry="0.55" transform="translate(787.05 416.08) rotate(-135)"/><polygon class="cls-6" points="401.5 45.21 401.5 46.43 404.87 49.78 404.87 54.77 405.83 54.77 407.19 53.42 407.19 49.74 410.58 46.31 410.58 45.21 401.5 45.21"/><path class="cls-6" d="M401.5,44.47h9.09a1.2,1.2,0,0,0-1.28-1.32h-6.73A1.23,1.23,0,0,0,401.5,44.47Z"/><path class="cls-6" d="M462.15,45.21v-.09a1.43,1.43,0,0,0-1.42-1.43h-9.39a1.43,1.43,0,0,0-1.43,1.43v.09Z"/><path class="cls-6" d="M449.91,45.89v6.49a1.43,1.43,0,0,0,1.43,1.43h5.37a4.1,4.1,0,0,1-.26-1.41,4.05,4.05,0,0,1,5.7-3.71v-2.8Z"/><circle class="cls-6" cx="460.51" cy="52.4" r="2.39"/><rect class="cls-6" x="37.52" y="44.81" width="2.32" height="2.32"/><rect class="cls-6" x="40.57" y="44.81" width="7.4" height="2.32"/><rect class="cls-6" x="37.52" y="48.23" width="2.32" height="2.32"/><rect class="cls-6" x="40.57" y="48.23" width="7.4" height="2.32"/><rect class="cls-6" x="37.52" y="51.65" width="2.32" height="2.32"/><rect class="cls-6" x="40.57" y="51.65" width="7.4" height="2.32"/><rect class="cls-6" x="60.63" y="44.01" width="1.07" height="10.74"/><polygon class="cls-6" points="71.03 50.25 62.5 50.25 62.5 44.55 71.03 44.55 67.48 47.4 71.03 50.25"/><rect class="cls-7" x="79.74" y="45.52" width="7.84" height="3.09" rx="1.39" ry="1.39"/><rect class="cls-7" x="84.43" y="50.16" width="7.84" height="3.09" rx="1.39" ry="1.39"/><circle class="cls-7" cx="81.28" cy="51.71" r="1.55"/><circle class="cls-7" cx="90.73" cy="47.07" r="1.55"/><polygon class="cls-8" points="61.79 193.45 45.15 193.45 45.15 262.53 61.79 262.53 101.21 262.53 101.21 193.45 61.79 193.45"/><rect class="cls-9" x="205.62" y="80.37" width="0.4" height="246.59"/><rect class="cls-9" x="303.53" y="80.37" width="0.4" height="246.59"/><rect class="cls-9" x="499.36" y="80.37" width="0.4" height="246.59"/><rect class="cls-9" x="401.45" y="80.37" width="0.4" height="246.59"/><rect class="cls-9" x="107.71" y="80.37" width="0.4" height="246.59"/><polygon class="cls-10" points="45.15 122.26 45.15 185.84 61.79 185.84 101.21 185.84 101.21 122.37 101.21 122.26 45.15 122.26"/><polygon class="cls-11" points="61.79 80.25 45.15 80.25 45.15 114.99 61.79 114.99 101.21 114.99 101.21 80.25 61.79 80.25"/><rect class="cls-9" x="107.91" y="139.3" width="391.65" height="1.62"/><rect class="cls-9" x="107.91" y="202.57" width="391.65" height="1.62"/><rect class="cls-9" x="107.91" y="96.81" width="391.65" height="1.62"/><rect class="cls-9" x="107.91" y="224.69" width="391.65" height="1.62"/><rect class="cls-10" x="212.47" y="134.87" width="97.04" height="10.37" rx="5.19" ry="5.19"/><path class="cls-10" d="M499.36,145.24H454.88a5.19,5.19,0,0,1-5.19-5.18h0a5.19,5.19,0,0,1,5.19-5.19h44.48"/><rect class="cls-8" x="129.15" y="220.31" width="147.87" height="10.37" rx="5.19" ry="5.19"/><rect class="cls-9" x="107.91" y="249.2" width="391.65" height="1.62"/><rect class="cls-9" x="107.91" y="169.12" width="391.65" height="1.62"/><rect class="cls-12" x="45.15" y="269.76" width="56.06" height="57.51"/><rect class="cls-9" x="107.91" y="286.7" width="391.65" height="1.62"/><rect class="cls-9" x="107.91" y="316.53" width="391.65" height="1.62"/><rect class="cls-10" x="119.96" y="135.06" width="38.48" height="10.37" rx="5.19" ry="5.19"/><rect class="cls-10" x="119.96" y="164.74" width="162.27" height="10.37" rx="5.19" ry="5.19"/><rect class="cls-10" x="336.72" y="164.74" width="108.31" height="10.37" rx="5.19" ry="5.19"/><rect class="cls-8" x="321.75" y="244.82" width="45.22" height="10.37" rx="5.19" ry="5.19"/><rect class="cls-12" x="130.59" y="312.15" width="112.85" height="10.37" rx="5.19" ry="5.19"/><rect class="cls-12" x="287.15" y="282.33" width="97.04" height="10.37" rx="5.19" ry="5.19"/><rect class="cls-12" x="363" y="312.15" width="110.31" height="10.37" rx="5.19" ry="5.19"/><rect class="cls-12" x="266.52" y="312.03" width="58.48" height="10.37" rx="5.19" ry="5.19"/><line class="cls-8" x1="498.21" y1="199.7" x2="498.21" y2="206.97"/><path class="cls-12" d="M499.36,292.7H443.17a5.19,5.19,0,0,1-5.19-5.19h0a5.18,5.18,0,0,1,5.19-5.18h56.19"/><path class="cls-8" d="M499.36,255.2H425.2A5.2,5.2,0,0,1,420,250h0a5.19,5.19,0,0,1,5.19-5.19h74.16"/><path class="cls-8" d="M108.11,198.11h60.8a5.18,5.18,0,0,1,5.18,5.19h0a5.18,5.18,0,0,1-5.18,5.18h-60.8"/><rect class="cls-11" x="118.7" y="92.24" width="90.31" height="10.37" rx="5.19" ry="5.19"/><path class="cls-11" d="M499.36,102.81H425.2A5.2,5.2,0,0,1,420,97.62h0a5.19,5.19,0,0,1,5.19-5.19h74.16"/><rect class="cls-8" x="296.85" y="197.57" width="108.51" height="11.6" rx="5.8" ry="5.8"/><rect class="cls-8" x="327.13" y="219.7" width="108.51" height="11.6" rx="5.8" ry="5.8"/><rect class="cls-11" x="244.73" y="92.43" width="91.98" height="10.37" rx="5.19" ry="5.19"/><rect class="cls-12" x="141.86" y="281.87" width="90.31" height="10.37" rx="5.19" ry="5.19"/><rect class="cls-8" x="158.44" y="244.21" width="123.34" height="11.6" rx="5.8" ry="5.8"/><polygon class="cls-13" points="378.31 107.51 386.55 97.62 378.31 87.72 370.09 97.62 378.31 107.51"/><rect class="cls-14" width="542.97" height="381.61"/></g></g></svg>