<svg xmlns="http://www.w3.org/2000/svg" xmlns:xlink="http://www.w3.org/1999/xlink" viewBox="0 0 115.5 119.42"><defs><style>.cls-1{fill:#2684ff;}.cls-2{fill:url(#linear-gradient);}.cls-3{fill:url(#linear-gradient-2);}</style><linearGradient id="linear-gradient" x1="54.59" y1="-6116.89" x2="29.94" y2="-6141.54" gradientTransform="matrix(1, 0, 0, -1, 0, -6092.7)" gradientUnits="userSpaceOnUse"><stop offset="0.18" stop-color="#0052cc"/><stop offset="1" stop-color="#2684ff"/></linearGradient><linearGradient id="linear-gradient-2" x1="61.12" y1="-6187.72" x2="85.73" y2="-6163.11" xlink:href="#linear-gradient"/></defs><title>jira-logo</title><g id="Layer_2" data-name="Layer 2"><g id="Top_layer" data-name="Top layer"><path class="cls-1" d="M114.12,56.37,62.73,5l-5-5h0L19.07,38.68h0L1.38,56.37a4.73,4.73,0,0,0,0,6.68L36.72,98.39l21,21L96.43,80.74l.6-.6,17.09-17.09A4.73,4.73,0,0,0,114.12,56.37Zm-56.37,21L40.1,59.71,57.75,42.06,75.41,59.71Z"/><path class="cls-2" d="M57.75,42.06A29.73,29.73,0,0,1,57.63.14L19,38.76l21,21Z"/><path class="cls-3" d="M75.45,59.66l-17.7,17.7a29.74,29.74,0,0,1,0,42.05h0L96.48,80.69Z"/></g></g></svg>