<svg xmlns="http://www.w3.org/2000/svg" viewBox="0 0 160.16 113.55"><defs><style>.cls-1{fill:#df3834;}.cls-2{fill:#ff6e56;}.cls-3{fill:#61c9e1;}.cls-4{fill:#eaf7f9;}.cls-5{fill:#015abc;}.cls-6{fill:none;}.cls-7{fill:#92e1b7;}.cls-8{fill:#5da77d;}.cls-9{fill:#fff;}.cls-10{fill:#e3e4e6;}</style></defs><title>Asset 64</title><g id="Layer_2" data-name="Layer 2"><g id="Top_layer" data-name="Top layer"><rect class="cls-1" x="79.12" y="15.7" width="28.62" height="24.93"/><rect class="cls-2" x="44.48" y="15.7" width="34.64" height="24.93"/><rect class="cls-3" x="39.39" y="20.06" width="40.83" height="14.14"/><rect class="cls-3" x="31.79" y="34.2" width="53.72" height="79.34"/><rect class="cls-4" x="56.55" y="73.13" width="4.19" height="9.25" rx="1.94" ry="1.94"/><rect class="cls-4" x="56.55" y="58.37" width="4.19" height="9.25" rx="1.94" ry="1.94"/><rect class="cls-4" x="56.55" y="43.61" width="4.19" height="9.25" rx="1.94" ry="1.94"/><rect class="cls-4" x="70.3" y="73.13" width="4.19" height="9.25" rx="1.94" ry="1.94"/><rect class="cls-4" x="70.3" y="58.37" width="4.19" height="9.25" rx="1.94" ry="1.94"/><rect class="cls-4" x="70.3" y="43.61" width="4.19" height="9.25" rx="1.94" ry="1.94"/><polygon class="cls-5" points="114.55 34.2 114.55 20.06 80.22 20.06 72.46 34.2 80.22 34.2 85.5 34.2 85.5 113.55 120.31 113.55 120.31 34.2 114.55 34.2"/><rect class="cls-3" x="94.36" y="73.13" width="4.19" height="9.25" rx="1.94" ry="1.94"/><rect class="cls-3" x="94.36" y="58.37" width="4.19" height="9.25" rx="1.94" ry="1.94"/><rect class="cls-3" x="94.36" y="43.61" width="4.19" height="9.25" rx="1.94" ry="1.94"/><rect class="cls-3" x="108.01" y="73.13" width="4.19" height="9.25" rx="1.94" ry="1.94"/><rect class="cls-3" x="108.01" y="58.37" width="4.19" height="9.25" rx="1.94" ry="1.94"/><rect class="cls-3" x="108.01" y="43.61" width="4.19" height="9.25" rx="1.94" ry="1.94"/><rect class="cls-4" x="56.55" y="87.89" width="4.19" height="9.25" rx="1.94" ry="1.94"/><rect class="cls-4" x="43.21" y="73.13" width="4.19" height="9.25" rx="1.94" ry="1.94"/><rect class="cls-4" x="43.21" y="58.37" width="4.19" height="9.25" rx="1.94" ry="1.94"/><rect class="cls-4" x="43.21" y="43.61" width="4.19" height="9.25" rx="1.94" ry="1.94"/><rect class="cls-4" x="43.21" y="87.89" width="4.19" height="9.25" rx="1.94" ry="1.94"/><rect class="cls-4" x="70.3" y="87.89" width="4.19" height="9.25" rx="1.94" ry="1.94"/><rect class="cls-3" x="94.36" y="87.89" width="4.19" height="9.25" rx="1.94" ry="1.94"/><rect class="cls-3" x="108.01" y="87.89" width="4.19" height="9.25" rx="1.94" ry="1.94"/><circle class="cls-3" cx="104.52" cy="27.17" r="1.99"/><circle class="cls-3" cx="96.19" cy="27.17" r="1.99"/><rect class="cls-4" x="47.41" y="103.4" width="22.47" height="10.14"/><rect class="cls-5" x="47.41" y="103.4" width="11.64" height="10.14"/><rect class="cls-6" width="160.16" height="113.3"/><circle class="cls-7" cx="64.27" cy="11.64" r="8.76" transform="translate(31 67.84) rotate(-69.64)"/><path class="cls-8" d="M67.32,3.43a8.79,8.79,0,0,1,5.16,11.26c-1.68,4.54-3.49,7.39-8,5.71C64.46,20.4,70.76,9.54,67.32,3.43Z"/><path class="cls-9" d="M53.77,12.71,71.53,19.3,56.45,35.87a1.18,1.18,0,0,1-2-.76Z"/><polyline class="cls-10" points="62.65 16 71.53 19.3 56.45 35.87"/><path class="cls-7" d="M55.7,13.42A7.58,7.58,0,0,0,60,17.26c2.51.93,5.63-.56,6.29.08"/></g></g></svg>