<svg xmlns="http://www.w3.org/2000/svg" viewBox="0 0 160.16 113.6"><defs><style>.cls-1{fill:#df3834;}.cls-2{fill:#ff6e56;}.cls-3{fill:#61c9e1;}.cls-4{fill:#015abc;}.cls-5{fill:#eaf7f9;}.cls-6{fill:none;}.cls-7{fill:#92e1b7;}.cls-8{fill:#5da77d;}.cls-9{fill:#fff;}.cls-10{fill:#e3e4e6;}</style></defs><title>Asset 65</title><g id="Layer_2" data-name="Layer 2"><g id="Top_layer" data-name="Top layer"><rect class="cls-1" x="125.63" width="23.85" height="29.44"/><rect class="cls-2" x="101.32" width="24.31" height="29.44"/><rect class="cls-1" x="14.33" y="47.04" width="21.7" height="66.47"/><rect class="cls-2" x="14.33" y="47.04" width="9.18" height="48.24"/><rect class="cls-3" x="6.55" y="93.99" width="29.48" height="19.52"/><rect class="cls-4" x="125.4" y="4.45" width="28.22" height="109.05"/><rect class="cls-3" x="97" y="4.45" width="35.04" height="109.05"/><rect class="cls-5" x="106.99" y="31.24" width="15.91" height="4.99" rx="2.26" ry="2.26"/><rect class="cls-5" x="106.99" y="18.14" width="15.91" height="4.99" rx="2.26" ry="2.26"/><rect class="cls-5" x="106.99" y="43.19" width="15.91" height="4.99" rx="2.26" ry="2.26"/><rect class="cls-5" x="106.99" y="55.13" width="15.91" height="4.99" rx="2.26" ry="2.26"/><rect class="cls-5" x="106.99" y="67.08" width="15.91" height="4.99" rx="2.26" ry="2.26"/><rect class="cls-5" x="106.99" y="79.03" width="15.91" height="4.99" rx="2.26" ry="2.26"/><rect class="cls-5" x="106.99" y="90.98" width="15.91" height="4.99" rx="2.26" ry="2.26"/><rect class="cls-3" x="44.02" y="15.18" width="39.59" height="15.32"/><rect class="cls-3" x="44.02" y="15.18" width="39.59" height="14.8"/><rect class="cls-3" x="36.03" y="29.98" width="50.13" height="83.53"/><rect class="cls-5" x="45.45" y="52.79" width="4.16" height="9.17" rx="1.93" ry="1.93"/><rect class="cls-5" x="45.45" y="38.33" width="4.16" height="9.17" rx="1.93" ry="1.93"/><rect class="cls-5" x="59.05" y="52.79" width="4.16" height="9.17" rx="1.93" ry="1.93"/><rect class="cls-5" x="59.05" y="38.33" width="4.16" height="9.17" rx="1.93" ry="1.93"/><rect class="cls-5" x="72.65" y="52.79" width="4.16" height="9.17" rx="1.93" ry="1.93"/><rect class="cls-5" x="72.65" y="38.33" width="4.16" height="9.17" rx="1.93" ry="1.93"/><rect class="cls-5" x="45.45" y="68.02" width="4.16" height="9.17" rx="1.93" ry="1.93"/><rect class="cls-5" x="59.05" y="68.02" width="4.16" height="9.17" rx="1.93" ry="1.93"/><rect class="cls-5" x="72.65" y="68.02" width="4.16" height="9.17" rx="1.93" ry="1.93"/><rect class="cls-5" x="45.45" y="83.92" width="4.16" height="9.17" rx="1.93" ry="1.93"/><rect class="cls-5" x="59.05" y="83.92" width="4.16" height="9.17" rx="1.93" ry="1.93"/><rect class="cls-5" x="72.65" y="83.92" width="4.16" height="9.17" rx="1.93" ry="1.93"/><rect class="cls-5" x="55.5" y="104.44" width="10.18" height="9.06"/><rect class="cls-4" x="55.5" y="104.44" width="5.09" height="9.06"/><path class="cls-5" d="M45.45,40.72l3.39,3.68a3,3,0,0,1-1.46.4,2,2,0,0,1-1.93-1.93Z"/><polygon class="cls-4" points="103.3 29.99 103.3 15.18 83.61 15.18 74.88 29.98 83.61 29.98 83.61 29.99 86.17 29.99 86.16 113.5 111.47 113.5 111.72 29.99 103.3 29.99"/><rect class="cls-5" x="16.53" y="101.35" width="2.8" height="6.18" rx="1.3" ry="1.3" transform="translate(35.86 208.88) rotate(180)"/><rect class="cls-5" x="24.31" y="101.35" width="2.8" height="6.18" rx="1.3" ry="1.3" transform="translate(51.42 208.88) rotate(180)"/><polygon class="cls-4" points="36.03 113.6 27.11 113.6 36.03 93.99 36.03 93.99 36.03 113.6"/><circle class="cls-3" cx="143.47" cy="20.64" r="2.4"/><circle class="cls-3" cx="143.47" cy="33.73" r="2.4"/><circle class="cls-3" cx="143.47" cy="45.68" r="2.4"/><circle class="cls-3" cx="143.47" cy="57.63" r="2.4"/><circle class="cls-3" cx="143.47" cy="69.58" r="2.4"/><circle class="cls-3" cx="143.47" cy="81.52" r="2.4"/><circle class="cls-3" cx="143.47" cy="93.47" r="2.4"/><rect class="cls-6" width="160.16" height="113.3"/><circle class="cls-7" cx="66.11" cy="11.6" r="8.76" transform="translate(32.24 69.54) rotate(-69.64)"/><path class="cls-8" d="M69.16,3.38a8.79,8.79,0,0,1,5.16,11.26c-1.68,4.54-3.49,7.39-8,5.71C66.3,20.36,72.6,9.5,69.16,3.38Z"/><path class="cls-9" d="M55.61,12.66l17.76,6.59L58.29,35.82a1.18,1.18,0,0,1-2-.76Z"/><polyline class="cls-10" points="64.49 15.96 73.38 19.26 58.29 35.82"/><path class="cls-7" d="M57.54,13.38a7.58,7.58,0,0,0,4.27,3.84c2.51.93,5.63-.56,6.29.08"/></g></g></svg>