<svg xmlns="http://www.w3.org/2000/svg" viewBox="0 0 160.16 85.81"><defs><style>.cls-1{fill:#015abc;}.cls-2{fill:#61c9e1;}.cls-3{fill:#eaf7f9;}.cls-4{fill:#fff;}.cls-5{fill:#df3834;}.cls-6{fill:#ff6e56;}.cls-7{fill:none;}.cls-8{fill:#92e1b7;}.cls-9{fill:#5da77d;}.cls-10{fill:#e3e4e6;}</style></defs><title>Asset 63</title><g id="Layer_2" data-name="Layer 2"><g id="Top_layer" data-name="Top layer"><rect class="cls-1" x="97.37" y="18.61" width="40.92" height="66.83"/><path class="cls-2" d="M30.16,18.61h73.62a0,0,0,0,1,0,0V85.44a0,0,0,0,1,0,0H22.43a0,0,0,0,1,0,0V26.34A7.73,7.73,0,0,1,30.16,18.61Z"/><rect class="cls-3" x="28.39" y="42.68" width="45.68" height="30.85"/><polygon class="cls-4" points="59.89 71.91 28.39 71.91 28.39 49.96 59.89 71.91"/><path class="cls-4" d="M72.89,71.71c-.26,0-42.22-29-42.22-29H36L73.95,68.57v3.14Z"/><rect class="cls-1" x="26.71" y="70.74" width="48.15" height="3.91"/><rect class="cls-3" x="80.08" y="47.44" width="17.29" height="38.01"/><polygon class="cls-1" points="86.07 85.44 80.08 85.44 80.08 47.44 97.37 47.44 86.07 85.44"/><path class="cls-5" d="M81.68,43.14c0-13.55,10-24.53,22.26-24.53V43.14Z"/><path class="cls-6" d="M81.68,43.14c0-13.55,10-24.53,22.26-24.53H30.77c-12.29,0-22.26,11-22.26,24.53Z"/><path class="cls-5" d="M37.77,18.61c-9.94,2.59-16.9,12.58-16.9,24.5l2,0c.55-13.35,10.55-24.53,22.8-24.53"/><path class="cls-5" d="M83.08,18.61c-9.94,2.59-16.9,12.58-16.9,24.5l2,0c.55-13.35,10.55-24.53,22.8-24.53"/><path class="cls-5" d="M68,18.61C58,21.2,51.07,31.19,51.07,43.11l2,0c.55-13.35,10.55-24.53,22.8-24.53"/><path class="cls-5" d="M52.87,18.61C42.93,21.2,36,31.19,36,43.11l2,0c.55-13.35,10.55-24.53,22.8-24.53"/><rect class="cls-7" width="160.16" height="85.81"/><circle class="cls-8" cx="122.81" cy="46.29" r="8.76" transform="translate(36.68 145.31) rotate(-69.64)"/><path class="cls-9" d="M125.85,38.07A8.79,8.79,0,0,1,131,49.34c-1.68,4.54-3.49,7.39-8,5.71C123,55,129.3,44.19,125.85,38.07Z"/><path class="cls-4" d="M112.31,47.35l17.76,6.59L115,70.51a1.18,1.18,0,0,1-2-.76Z"/><polyline class="cls-10" points="121.19 50.65 130.07 53.95 114.98 70.51"/><path class="cls-8" d="M114.23,48.07a7.58,7.58,0,0,0,4.27,3.84c2.51.93,5.63-.56,6.29.08"/></g></g></svg>