<svg xmlns="http://www.w3.org/2000/svg" viewBox="0 0 160.16 113.3"><defs><style>.cls-1{fill:#015abc;}.cls-2{fill:#61c9e1;}.cls-3{fill:#eaf7f9;}.cls-4{fill:#fff;}.cls-5{fill:#ff6e56;}.cls-6{fill:#df3834;}.cls-7{fill:none;}.cls-8{fill:#92e1b7;}.cls-9{fill:#5da77d;}.cls-10{fill:#e3e4e6;}</style></defs><title>Asset 62</title><g id="Layer_2" data-name="Layer 2"><g id="Top_layer" data-name="Top layer"><path class="cls-1" d="M130.87,100.75V51h-23V93.35H24.75v10h0a2.53,2.53,0,0,0,2.53,2.53H133.52v-5.1Z"/><circle class="cls-1" cx="112.13" cy="105.85" r="7.42"/><circle class="cls-1" cx="68.99" cy="105.85" r="7.42"/><path class="cls-2" d="M107.88,93.35V51H48.8c-2.17,0-3.4,1.64-4.3,3.76L34.77,79.43l-10,9.81v4.11"/><rect class="cls-3" x="61.33" y="58.54" width="39.05" height="20.89"/><polygon class="cls-4" points="81.49 79.43 61.34 79.43 61.34 58.54 81.49 79.43"/><path class="cls-1" d="M89.22,98.43a7.42,7.42,0,0,1,0,14.83H87.07V98.43Z"/><circle class="cls-2" cx="87.07" cy="105.85" r="7.42"/><path class="cls-1" d="M46.59,98.43a7.42,7.42,0,1,1,0,14.83H44.44V98.43Z"/><circle class="cls-2" cx="44.44" cy="105.85" r="7.42"/><circle class="cls-3" cx="44.44" cy="105.85" r="4.34"/><circle class="cls-3" cx="87.07" cy="105.85" r="4.34"/><polyline class="cls-4" points="107.88 89.24 24.75 89.24 29 85 107.88 85"/><path class="cls-5" d="M100.39,56.35l-37.61-.2s-6.59.64-6.6,10.06H93C93.05,56.58,100.39,56.35,100.39,56.35Z"/><path class="cls-6" d="M100.39,56.35v9.82l-8.4.06C92,56.31,100.39,56.35,100.39,56.35Z"/><rect class="cls-1" x="59.19" y="76.71" width="41.2" height="2.79"/><rect class="cls-1" x="107.88" y="89.11" width="25.64" height="4.25"/><rect class="cls-2" x="107.88" y="85" width="25.64" height="4.11"/><path class="cls-3" d="M50.67,79.43H42.23a2.17,2.17,0,0,1-1.91-2.57l7.14-17.54c.82-1.75,1.77-1.89,3.2-1.89h0a2.12,2.12,0,0,1,1.93,2.26V77.17A2.12,2.12,0,0,1,50.67,79.43Z"/><polygon class="cls-4" points="46.02 62.84 44.44 66.73 52.6 77.17 52.6 71.2 46.02 62.84"/><rect class="cls-1" x="40.1" y="76.71" width="12.97" height="2.79"/><rect class="cls-7" width="160.16" height="113.3"/><circle class="cls-8" cx="120.63" cy="63.36" r="6.2" transform="translate(19.25 154.41) rotate(-69.64)"/><path class="cls-9" d="M122.79,57.55a6.22,6.22,0,0,1,3.65,8c-1.19,3.21-2.47,5.23-5.68,4C120.76,69.56,125.22,61.88,122.79,57.55Z"/><path class="cls-4" d="M113.2,64.12l12.57,4.66L115.09,80.5a.83.83,0,0,1-1.45-.54Z"/><polyline class="cls-10" points="119.48 66.45 125.77 68.78 115.09 80.5"/><path class="cls-8" d="M114.56,64.62a5.37,5.37,0,0,0,3,2.72c1.77.66,4-.39,4.45.06"/></g></g></svg>