<svg xmlns="http://www.w3.org/2000/svg" viewBox="0 0 585.81 264.53"><defs><style>.cls-1{isolation:isolate;}.cls-2{fill:#eaf7f9;}.cls-3{fill:#7b93df;}.cls-4{fill:#6b449c;}.cls-5{fill:#fafafa;}.cls-6{fill:#b2b2b2;}.cls-12,.cls-13,.cls-15,.cls-6{opacity:0.5;mix-blend-mode:multiply;}.cls-7{fill:#015abc;}.cls-12,.cls-8{fill:#61c9e1;}.cls-9{fill:#61cae2;}.cls-10{fill:#009169;}.cls-11,.cls-13{fill:#93e2b8;}.cls-13{fill-rule:evenodd;}.cls-14{fill:#f2f2f2;}.cls-15{fill:#e5e5e5;}.cls-16{fill:none;stroke:#009169;stroke-miterlimit:10;stroke-width:3px;}</style></defs><title>Asset 70</title><g class="cls-1"><g id="Layer_2" data-name="Layer 2"><g id="Top_layer" data-name="Top layer"><path class="cls-2" d="M585.81,264.53c-101.4-157.84-226,3.44-310-22.09C116.22,193.95,0,264.53,0,264.53"/><rect class="cls-3" x="58.66" y="194.32" width="59.83" height="70.21"/><rect class="cls-3" x="345" y="75.95" width="63.18" height="188.58"/><rect class="cls-4" x="408.12" y="75.95" width="32.3" height="188.58"/><rect class="cls-5" x="357.79" y="89.78" width="4.94" height="8.89"/><rect class="cls-5" x="374.72" y="89.78" width="4.94" height="8.89"/><rect class="cls-5" x="392.37" y="89.78" width="4.94" height="8.89"/><rect class="cls-5" x="357.79" y="108.86" width="4.94" height="8.89"/><rect class="cls-5" x="374.72" y="108.86" width="4.94" height="8.89"/><rect class="cls-5" x="392.37" y="108.86" width="4.94" height="8.89"/><rect class="cls-3" x="421.8" y="89.78" width="4.94" height="8.89"/><rect class="cls-3" x="421.8" y="108.86" width="4.94" height="8.89"/><rect class="cls-5" x="357.79" y="127.94" width="4.94" height="8.89"/><rect class="cls-5" x="374.72" y="127.94" width="4.94" height="8.89"/><rect class="cls-5" x="392.37" y="127.94" width="4.94" height="8.89"/><rect class="cls-5" x="357.79" y="147.03" width="4.94" height="8.89"/><rect class="cls-5" x="374.72" y="147.03" width="4.94" height="8.89"/><rect class="cls-5" x="392.37" y="147.03" width="4.94" height="8.89"/><rect class="cls-5" x="357.79" y="166.75" width="4.94" height="8.89"/><rect class="cls-5" x="374.72" y="166.75" width="4.94" height="8.89"/><rect class="cls-5" x="392.37" y="166.75" width="4.94" height="8.89"/><rect class="cls-5" x="357.79" y="186.56" width="4.94" height="8.89"/><rect class="cls-5" x="374.72" y="186.56" width="4.94" height="8.89"/><rect class="cls-5" x="392.37" y="186.56" width="4.94" height="8.89"/><rect class="cls-5" x="357.79" y="206.37" width="4.94" height="8.89"/><rect class="cls-5" x="374.72" y="206.37" width="4.94" height="8.89"/><rect class="cls-5" x="392.37" y="206.37" width="4.94" height="8.89"/><rect class="cls-5" x="357.79" y="226.17" width="4.94" height="8.89"/><rect class="cls-5" x="374.72" y="226.17" width="4.94" height="8.89"/><rect class="cls-5" x="392.37" y="226.17" width="4.94" height="8.89"/><rect class="cls-6" x="345" y="75.95" width="15.26" height="188.58"/><rect class="cls-7" x="265.71" y="48.78" width="50.32" height="12.59"/><rect class="cls-7" x="316.03" y="48.78" width="34.24" height="12.59"/><polygon class="cls-7" points="350.28 48.78 307.37 0 307.37 0 316.03 48.78 350.28 48.78"/><polygon class="cls-8" points="307.37 0 316.03 48.78 265.71 48.78 307.37 0 307.37 0"/><rect class="cls-8" x="261.33" y="56.12" width="54.19" height="208.41"/><rect class="cls-7" x="315.52" y="56.12" width="37.29" height="208.41"/><rect class="cls-2" x="273.15" y="73.28" width="31.56" height="5.33"/><rect class="cls-2" x="273.15" y="95.91" width="31.56" height="5.33"/><rect class="cls-2" x="273.15" y="118.53" width="31.56" height="5.33"/><rect class="cls-2" x="273.15" y="141.16" width="31.56" height="5.33"/><rect class="cls-2" x="273.15" y="163.78" width="31.56" height="5.33"/><rect class="cls-2" x="273.15" y="186.41" width="31.56" height="5.33"/><rect class="cls-2" x="273.15" y="209.03" width="31.56" height="5.33"/><rect class="cls-2" x="273.15" y="231.66" width="31.56" height="5.33"/><rect class="cls-9" x="324.74" y="73.28" width="20.78" height="5.33"/><rect class="cls-9" x="324.74" y="95.91" width="20.78" height="5.33"/><rect class="cls-9" x="324.74" y="118.53" width="20.78" height="5.33"/><rect class="cls-9" x="324.74" y="141.16" width="20.78" height="5.33"/><rect class="cls-9" x="324.74" y="163.78" width="20.78" height="5.33"/><rect class="cls-9" x="324.74" y="186.41" width="20.78" height="5.33"/><rect class="cls-9" x="324.74" y="209.03" width="20.78" height="5.33"/><rect class="cls-9" x="324.74" y="231.66" width="20.78" height="5.33"/><rect class="cls-10" x="446.78" y="123.87" width="31.9" height="140.67"/><rect class="cls-11" x="386.16" y="123.87" width="66.05" height="140.67"/><rect class="cls-2" x="399.56" y="138.45" width="40.86" height="4.84" rx="2.29" ry="2.29"/><rect class="cls-2" x="399.56" y="156.83" width="40.86" height="4.84" rx="2.29" ry="2.29"/><rect class="cls-2" x="399.56" y="175.2" width="40.86" height="4.84" rx="2.29" ry="2.29"/><rect class="cls-2" x="399.56" y="193.58" width="40.86" height="4.84" rx="2.29" ry="2.29"/><rect class="cls-2" x="399.56" y="211.95" width="40.86" height="4.84" rx="2.29" ry="2.29"/><rect class="cls-2" x="399.56" y="230.33" width="40.86" height="4.84" rx="2.29" ry="2.29"/><rect class="cls-2" x="399.56" y="248.7" width="40.86" height="4.84" rx="2.29" ry="2.29"/><rect class="cls-12" x="273.15" y="102.87" width="20.79" height="161.67"/><rect class="cls-11" x="177.25" y="94.23" width="68.22" height="168.48"/><rect class="cls-10" x="245.47" y="94.23" width="30.61" height="168.48"/><rect class="cls-2" x="228.9" y="108.45" width="4.97" height="124.63"/><rect class="cls-2" x="215.55" y="108.45" width="4.97" height="124.63"/><rect class="cls-2" x="202.2" y="108.45" width="4.97" height="124.63"/><rect class="cls-2" x="188.85" y="108.45" width="4.97" height="124.63"/><polygon class="cls-13" points="202.2 262.71 137.52 262.71 137.52 133.95 202.2 133.95 202.2 146.58 202.2 262.71"/><rect class="cls-8" x="411.99" y="179.97" width="81.99" height="84.56"/><rect class="cls-7" x="493.98" y="179.97" width="25.79" height="84.56"/><rect class="cls-14" x="426.18" y="190.62" width="4.73" height="8.51"/><rect class="cls-14" x="442.47" y="190.62" width="4.73" height="8.51"/><rect class="cls-14" x="458.77" y="190.62" width="4.73" height="8.51"/><rect class="cls-14" x="475.06" y="190.62" width="4.73" height="8.51"/><rect class="cls-14" x="426.18" y="208.87" width="4.73" height="8.51"/><rect class="cls-14" x="442.47" y="208.87" width="4.73" height="8.51"/><rect class="cls-14" x="458.77" y="208.87" width="4.73" height="8.51"/><rect class="cls-14" x="475.06" y="208.87" width="4.73" height="8.51"/><rect class="cls-14" x="426.18" y="227.12" width="4.73" height="8.51"/><rect class="cls-14" x="442.47" y="227.12" width="4.73" height="8.51"/><rect class="cls-14" x="458.77" y="227.12" width="4.73" height="8.51"/><rect class="cls-14" x="475.06" y="227.12" width="4.73" height="8.51"/><rect class="cls-14" x="426.18" y="245.38" width="4.73" height="8.51"/><rect class="cls-14" x="442.47" y="245.38" width="4.73" height="8.51"/><rect class="cls-14" x="458.77" y="245.38" width="4.73" height="8.51"/><rect class="cls-14" x="475.06" y="245.38" width="4.73" height="8.51"/><rect class="cls-7" x="483.64" y="172.69" width="27.54" height="7.28"/><rect class="cls-8" x="420.63" y="172.69" width="63.36" height="7.28"/><rect class="cls-5" x="85.89" y="208.34" width="7.39" height="7.39"/><rect class="cls-5" x="85.89" y="226.27" width="7.39" height="7.39"/><rect class="cls-5" x="100.47" y="208.34" width="7.39" height="7.39"/><rect class="cls-5" x="100.47" y="226.27" width="7.39" height="7.39"/><rect class="cls-5" x="71.01" y="208.34" width="7.39" height="7.39"/><rect class="cls-5" x="71.01" y="226.27" width="7.39" height="7.39"/><rect class="cls-5" x="85.89" y="244.36" width="7.39" height="7.39"/><rect class="cls-5" x="100.47" y="244.36" width="7.39" height="7.39"/><rect class="cls-5" x="71.01" y="244.36" width="7.39" height="7.39"/><rect class="cls-8" x="117.4" y="128.86" width="57.96" height="135.67"/><rect class="cls-7" x="175.36" y="128.86" width="18.16" height="135.67"/><rect class="cls-14" x="128.68" y="141.68" width="36.26" height="4.48"/><rect class="cls-14" x="128.68" y="158.66" width="36.26" height="4.48"/><rect class="cls-14" x="128.68" y="175.65" width="36.26" height="4.48"/><rect class="cls-14" x="128.68" y="192.63" width="36.26" height="4.48"/><rect class="cls-14" x="128.68" y="209.62" width="36.26" height="4.48"/><rect class="cls-14" x="128.68" y="226.6" width="36.26" height="4.48"/><rect class="cls-14" x="128.68" y="243.58" width="36.26" height="4.48"/><rect class="cls-7" x="167.41" y="122.94" width="19.22" height="5.92"/><rect class="cls-8" x="124.2" y="122.94" width="43.21" height="5.92"/><rect class="cls-15" x="102.18" y="194.32" width="15.23" height="70.21"/><rect class="cls-8" x="182.81" y="220.62" width="87.22" height="43.92"/><path class="cls-2" d="M196.59,230h0a3.07,3.07,0,0,1,3.07,3.07V256.5a0,0,0,0,1,0,0h-6.15a0,0,0,0,1,0,0V233.07A3.07,3.07,0,0,1,196.59,230Z"/><path class="cls-2" d="M211.5,230h0a3.07,3.07,0,0,1,3.07,3.07V256.5a0,0,0,0,1,0,0h-6.15a0,0,0,0,1,0,0V233.07A3.07,3.07,0,0,1,211.5,230Z"/><path class="cls-2" d="M226.41,230h0a3.07,3.07,0,0,1,3.07,3.07V256.5a0,0,0,0,1,0,0h-6.15a0,0,0,0,1,0,0V233.07a3.07,3.07,0,0,1,3.07-3.07Z"/><path class="cls-2" d="M241.32,230h0a3.07,3.07,0,0,1,3.07,3.07V256.5a0,0,0,0,1,0,0h-6.15a0,0,0,0,1,0,0V233.07A3.07,3.07,0,0,1,241.32,230Z"/><path class="cls-2" d="M256.23,230h0a3.07,3.07,0,0,1,3.07,3.07V256.5a0,0,0,0,1,0,0h-6.15a0,0,0,0,1,0,0V233.07A3.07,3.07,0,0,1,256.23,230Z"/><rect class="cls-7" x="270.03" y="220.62" width="19" height="43.92"/><line class="cls-16" x1="44.78" y1="238.62" x2="44.78" y2="264.53"/><circle class="cls-11" cx="44.78" cy="245.47" r="10.33"/><line class="cls-16" x1="315.52" y1="241.33" x2="315.52" y2="264.53"/><circle class="cls-11" cx="315.52" cy="245.49" r="10.32"/><line class="cls-16" x1="493.26" y1="247.07" x2="493.26" y2="264.53"/><line class="cls-16" x1="518.61" y1="247.07" x2="518.61" y2="264.53"/><rect class="cls-10" x="111.4" y="241.33" width="50.61" height="16.58" rx="8.29" ry="8.29"/><line class="cls-16" x1="121.63" y1="247.07" x2="121.63" y2="264.53"/><line class="cls-16" x1="146.98" y1="247.07" x2="146.98" y2="264.53"/><rect class="cls-11" x="107.53" y="241.33" width="50.61" height="16.58" rx="8.29" ry="8.29"/><rect class="cls-10" x="483.5" y="241.33" width="50.61" height="16.58" rx="8.29" ry="8.29"/><rect class="cls-11" x="479.63" y="241.33" width="50.61" height="16.58" rx="8.29" ry="8.29"/></g></g></g></svg>