<svg xmlns="http://www.w3.org/2000/svg" xmlns:xlink="http://www.w3.org/1999/xlink" viewBox="0 0 525.23 288.46"><defs><style>.cls-1{fill:none;}.cls-2{isolation:isolate;}.cls-3{clip-path:url(#clip-path);}.cls-4{fill:#7db2de;mix-blend-mode:multiply;}.cls-10,.cls-4{opacity:0.5;}.cls-5{fill:#e6f5fc;}.cls-6{fill:#fff;}.cls-7{fill:#2b5e8a;}.cls-8{fill:#f15b4a;}.cls-9{fill:#a3dad7;}.cls-11{fill:#4db9bd;}.cls-12{fill:#e5c279;}</style><clipPath id="clip-path" transform="translate(-23.49 -12.16)"><rect class="cls-1" width="544.54" height="300.15"/></clipPath></defs><title>ebook</title><g class="cls-2"><g id="Layer_2" data-name="Layer 2"><g id="Layer_1-2" data-name="Layer 1"><g class="cls-3"><path class="cls-4" d="M14.22,5.73h474a14.22,14.22,0,0,1,14.22,14.22V288.46a0,0,0,0,1,0,0H0a0,0,0,0,1,0,0V19.95A14.22,14.22,0,0,1,14.22,5.73Z"/><rect class="cls-5" x="16.4" y="24.51" width="467.16" height="263.48"/></g><path class="cls-6" d="M518.09,35.8C513.76,29.67,509,12.16,509,12.16s-4.8,17.5-9.14,23.64-16.7,12.93-16.7,12.93,12.37,6.8,16.7,12.93S509,85.31,509,85.31s4.8-17.5,9.14-23.64,16.7-12.93,16.7-12.93S522.43,41.94,518.09,35.8Z" transform="translate(-23.49 -12.16)"/><path class="cls-6" d="M538.59,108.32C536,104.6,533,94,533,94s-2.91,10.62-5.55,14.34-10.13,7.85-10.13,7.85,7.5,4.12,10.13,7.85S533,138.36,533,138.36,536,127.74,538.59,124s10.13-7.85,10.13-7.85S541.22,112,538.59,108.32Z" transform="translate(-23.49 -12.16)"/><polygon class="cls-6" points="213.59 88.43 203.28 67.05 193.22 61.27 184.92 58.75 173.6 61.27 165.56 66.8 161.28 75.1 159.19 80.64 159.52 93.46 159.52 125.82 163.22 134.41 179.64 147.03 213.59 145.02 213.59 88.43"/><polygon class="cls-6" points="151.47 143.51 126.32 63.53 122.3 61.27 102.93 61.27 83.31 143.51 99.66 151.56 121.04 141.9 151.47 143.51"/><polygon class="cls-6" points="253.08 61.27 236.73 61.27 236.73 143.26 256.6 147.03 253.08 61.27"/><polygon class="cls-6" points="400.46 62.02 350.41 62.02 350.41 143.76 398.95 144.77 398.45 124.4 392.42 104.91 387.39 94.72 391.91 85.16 401.97 81.14 400.46 62.02"/><polygon class="cls-6" points="278.23 61.27 277.23 141.9 278.23 144.02 327.27 144.02 327.27 127.54 298.09 126.08 295.84 61.27 278.23 61.27"/><path class="cls-7" d="M180.42,172l-15.65.23a3.11,3.11,0,0,1-1.37-.69c-.34-.34-6.28-5.14-8.34-7.19-2.17-1.83-7.77-6.74-8-7s-.34-.57-.46-.23c-.11.57-.69,4-1.26,6.85s-1.48,6.4-1.6,7.19-.23.91-1.14,1-19.64,0-20.9-.11a2.48,2.48,0,0,1-2.06-.91c-.8-.57-14.62-14.16-15.07-14.62a1.72,1.72,0,0,1-.23-1.83c.23-.91,19.07-80.4,19.19-81s.46-.69,1.37-.8,20.21-.11,21.7,0,1.83.57,3.2,1.6,15.07,14.16,15.87,15a3.56,3.56,0,0,1,1.26,2.17c.34,1.14,3.31,13.59,5.71,24.9,2.63,11.19,8.11,35.4,8.22,36.32a13.69,13.69,0,0,1,.34,2.28c0,1.14.11,15.07.23,15.87S181,172,180.42,172ZM164,154.37c0-.23-3.43-17.24-7.54-34.94-4.8-20.67-10.16-43.05-10.16-43.28-.11-.46-.11-1.14-.57-1.14l-19.41.11c-.23,0-.34,0-.46.69s-18.73,78-19,78.8c-.11.34,0,.46.23.46s4.45,0,7-.11,7.08.11,7.42,0,.34-.11.34-.34,1.71-6.74,2.28-9c.69-2.51,1.71-6.85,1.94-7.19s.34-.57.8-.69,4.11,0,8.34-.11,9.25.11,9.94.11.91.34,1,.91,3.2,15.3,3.31,15.76,0,.57.46.57l13.59.11C164.2,155.05,164.09,154.82,164,154.37Zm-20.56-29.69c.23.8-.69.91-1.37,1s-11.08,0-11.76-.11c-.23,0-1,0-.91-.91s2.06-9.36,3.2-14,2.85-13,3.2-14.5,1-1.14,1.14-.34,2.17,8.91,3.77,16.22C142.16,119,143.3,124,143.42,124.67Z" transform="translate(-23.49 -12.16)"/><path class="cls-7" d="M251.79,142.95a12.3,12.3,0,0,0-2.51-7.31c-1.71-2.74-8.79-9.82-9.25-10.39s-.69-.46,0-.46l10.51.11c.91,0,1-.34,1-.91s.46-11.65-.34-16.56c-1-4.91-3.31-8.22-6.05-12.11-3-3.65-10.74-11.76-16.1-15.53-5.14-3.88-12.45-9.94-24-9-11.53,1.14-17.93,6.74-20.44,11.65a27.28,27.28,0,0,0-3.31,14.27c0,5-.11,32.78.46,38.26.46,5.14,1.48,8.68,3.43,11.42s7.88,10,11.31,12.9c3.54,3.08,10.62,9.36,15.07,10.85s5.94,1.71,8.79,1.71c2.63.11,10.39.34,12.79,0,2.17-.46,3-1,3.77-2.17s1.37-1.94,1.71-2.4c.11-.46.23-.69.8.23a42.83,42.83,0,0,0,4,3.77,2.09,2.09,0,0,0,1.71.68c.8,0,4,0,4.8-.11s1.26-.23,1.26-1.26S251.91,145.69,251.79,142.95Zm-20.44,11.19c0,.46,0,.69-.34.69s-4-.11-4.45-.11-.57,0-.69-.23-2.17-3.08-2.63-3.77c-.57-.46-.69-.57-1.14-.46s-.91.46-4.68,2.28c-3.65,1.6-8.91,2.17-14,1.71a24.23,24.23,0,0,1-13.25-5.71,23.57,23.57,0,0,1-6.05-10.39c-.91-3.2-.69-12.9-.69-19.64,0-6.51,0-15.07.11-23.3.11-7.88,3.65-11.65,5.94-14.62,2.74-3.31,7.54-5.6,12-6.85,4.23-1.26,8.68-.46,11.42.11,2.51.46,6.05,1.6,10.62,6.62a24.28,24.28,0,0,1,6.74,12.68c1,4.57,1,12,1.14,12.45a.81.81,0,0,1-.8.91H217.08c-.69,0-.57-.34-.69-1s-.23-5-.34-7.08a11.54,11.54,0,0,0-2.28-6.51A8.18,8.18,0,0,0,207,88.82a9.77,9.77,0,0,0-5.37,1.83A8,8,0,0,0,199,95.55c-.11,1.94-.23,8.22-.23,15s.23,18.16.34,20.67.57,4,1.83,5.37a9.6,9.6,0,0,0,5.94,2.74c2.51.11,3.77-.57,6.4-2.28a6.62,6.62,0,0,0,2.56-3.57l-7.3-.28a.92.92,0,0,1-.88-1l.38-10a.92.92,0,0,1,1-.88l15,.58c3.65.11,6.74.11,7.08.11s.34.11.46.57.11,9.25.11,15.42S231.35,154.14,231.35,154.14Z" transform="translate(-23.49 -12.16)"/><path class="cls-7" d="M293.7,169.67c0,2.17-.57,1.94-1.48,1.94H275.43a2.61,2.61,0,0,1-2.28-.8c-.8-.8-13.59-11.88-14.27-12.22a2.56,2.56,0,0,1-.91-1.71c0-.91-.34-23.75-.34-40.43s.11-41.8.11-42.94c0-.57-.11-.91.69-1s17.36.11,18.39.11,1.26.23,1.94,1c.57.57,13.7,12.11,14.5,12.79a2.16,2.16,0,0,1,.8,1.48v38.94C294,138.49,293.7,167.73,293.7,169.67Zm-19-16.1c0-.8-.11-27.52-.23-39.06s-.69-37.11-.69-38-.11-1.48-.57-1.48L261,74.88c-.69,0-.8,0-.8.8,0,1-.11,24.1-.11,37.23s.11,38.83.11,39.86.11,1.14.69,1.26a26.28,26.28,0,0,0,7,.8c3.54,0,5.82.11,6.17,0S274.86,154.48,274.74,153.57Z" transform="translate(-23.49 -12.16)"/><path class="cls-7" d="M367.93,154.59c0,.91-.34,14.16-.34,15.76,0,1.83-.57,1.71-1.6,1.94-1.26.11-47.16,0-48,0a2.07,2.07,0,0,1-1.6-.46c-.46-.46-3.77-3.77-6.17-6.51s-9.59-9-9.93-9.48a1.86,1.86,0,0,1-.57-1.6c0-.57.23-26.72.34-40.31s.57-39.06.57-39.63c0-.91.46-1,1.26-1.14s17.47-.46,18-.46,1-.23,1.71.57S337.44,89.16,338,89.84a2.59,2.59,0,0,1,.8,2.06c.11,1-.11,42.94,0,44.54s.57,1.26,1.48,1.26,7.42-.23,8.45-.23a2.08,2.08,0,0,1,1.83.57c.46.57,16.1,14.39,16.79,15S367.93,153.68,367.93,154.59Zm-19.07-14.73-29.58.11c-.91,0-1.14-.23-1.14-.8s-.23-19.07-.34-22V75.45c0-.34-.11-.46-.69-.46s-13.36,0-13.93.11-.46.23-.46.46c0,.46-.23,23.52-.34,27.64s-.34,50.7-.34,51.16-.11.69.57.69l45.79-.11c.34,0,.46-.11.46-.57s.23-13.82.23-14.16S349.09,139.86,348.86,139.86Z" transform="translate(-23.49 -12.16)"/><path class="cls-7" d="M440.33,106.17c-.11.8-.11.91-.8,1-.91,0-24.78-.23-25.35-.34-.8,0-.8,0-.46.46s9.71,13.25,9.93,13.59a1.26,1.26,0,0,1,.34,1c0,.57.34,12.9.34,13.48s0,.69-.23.91-.46.23-.11.69,15.07,14.85,15.53,15.42a1.9,1.9,0,0,1,.46,1.26c.11.46.11,15.87.11,16.9s-.23,1.14-1,1.14l-49.11.46a1.47,1.47,0,0,1-1.14-.46c-.46-.34-15.53-14.39-15.87-14.73s-.91-.57-.91-1.6.91-79.71.8-81c-.11-.8.23-1,1.26-1.14s48.65,0,49.45,0a2.3,2.3,0,0,1,1.48.46c.57.34,14,12.22,14.73,12.9s.46.8.46,1.6S440.33,105.26,440.33,106.17Zm-19.76-30c0-.34.11-.69-.57-.69s-43.74-.34-44.31-.34-.91.11-.91.91-1.26,77.88-1,78.45c0,.57,0,.57.57.57s45.22-.46,46.14-.46c.69,0,.57-.34.46-.8s0-13.25,0-13.82-.11-.69-.69-.69-29.35.11-30,.11-.69-.34-.69-.91,0-15,0-15.53.23-.8.8-.91c.8-.11,15.07-.11,15.76-.11s.57-.11.57-.57.23-13.36.23-13.82.11-.46-.23-.46l-16.56-.23c-.46,0-.57-.23-.57-.69S389.4,91.78,389.4,91c0-.23.11-.34.69-.46s28.55-.23,29.46-.34,1-.46,1-1S420.69,76.48,420.57,76.14Z" transform="translate(-23.49 -12.16)"/><path class="cls-8" d="M119.34,209.12,115.18,202a7.59,7.59,0,0,1-.86,0h-5.44v7.09h-4.61V185h10q4.68,0,7.23,2.17a7.6,7.6,0,0,1,2.55,6.12,9.05,9.05,0,0,1-1.22,4.82,7.47,7.47,0,0,1-3.56,3l5.3,8ZM108.88,198h5.44a6.13,6.13,0,0,0,4-1.14,4.12,4.12,0,0,0,1.38-3.37,4,4,0,0,0-1.38-3.3,6.27,6.27,0,0,0-4-1.1h-5.44Z" transform="translate(-23.49 -12.16)"/><path class="cls-8" d="M153.5,186.34a12.32,12.32,0,0,1,4.63,17,12.26,12.26,0,0,1-4.63,4.49,13.7,13.7,0,0,1-13,0,12.25,12.25,0,0,1-4.63-4.49,12.19,12.19,0,0,1,4.63-17,14,14,0,0,1,13,0Zm-10.55,3.6a8.24,8.24,0,0,0-3,11.27,8.31,8.31,0,0,0,3,3,7.91,7.91,0,0,0,4.08,1.1,7.76,7.76,0,0,0,4-1.1,8.09,8.09,0,0,0,2.94-3A8.23,8.23,0,0,0,155.1,197a8.14,8.14,0,0,0-1.08-4.15,8,8,0,0,0-2.94-3,7.85,7.85,0,0,0-4-1.08A8.1,8.1,0,0,0,142.95,189.93Z" transform="translate(-23.49 -12.16)"/><path class="cls-8" d="M188,209.12,185.82,204H174.06l-2.13,5.09h-4.78L177.7,185h4.78l10.43,24.09Zm-12.25-9h8.46L180,190Z" transform="translate(-23.49 -12.16)"/><path class="cls-8" d="M219.2,186.56a11.25,11.25,0,0,1,4.47,4.28,12.07,12.07,0,0,1,1.62,6.23,11.87,11.87,0,0,1-1.64,6.21,11.47,11.47,0,0,1-4.52,4.28,13.7,13.7,0,0,1-6.57,1.55h-9.84V185h10A13.48,13.48,0,0,1,219.2,186.56ZM216.81,204a7.2,7.2,0,0,0,2.77-2.82,8.91,8.91,0,0,0,0-8.26,7.31,7.31,0,0,0-2.84-2.86,8.11,8.11,0,0,0-4-1h-5.33v16h5.51A7.85,7.85,0,0,0,216.81,204Z" transform="translate(-23.49 -12.16)"/><path class="cls-8" d="M236.2,185h5.26l8,15.52L257.36,185h5.26v24.09h-4.23V191.84l-7.5,14.8h-3l-7.54-14.8v17.27h-4.2Z" transform="translate(-23.49 -12.16)"/><path class="cls-8" d="M293.25,209.12,291.11,204H279.35l-2.13,5.09h-4.78L283,185h4.78l10.43,24.09Zm-12.25-9h8.46L285.26,190Z" transform="translate(-23.49 -12.16)"/><path class="cls-8" d="M324.92,187.2a7.68,7.68,0,0,1,2.49,6.12,8.27,8.27,0,0,1-2.49,6.42q-2.5,2.29-7,2.29h-5.26v7.09H308V185h9.88Q322.42,185,324.92,187.2Zm-3.27,9.63a4.1,4.1,0,0,0,1.39-3.37,4,4,0,0,0-1.39-3.3,6.35,6.35,0,0,0-4-1.1h-5V198h5A6.21,6.21,0,0,0,321.65,196.83Z" transform="translate(-23.49 -12.16)"/><path class="cls-8" d="M355,187.2a7.68,7.68,0,0,1,2.49,6.12,8.27,8.27,0,0,1-2.49,6.42q-2.5,2.29-7,2.29h-5.26v7.09h-4.61V185H348Q352.53,185,355,187.2Zm-3.27,9.63a4.1,4.1,0,0,0,1.39-3.37,4,4,0,0,0-1.39-3.3,6.35,6.35,0,0,0-4-1.1h-5V198h5A6.21,6.21,0,0,0,351.76,196.83Z" transform="translate(-23.49 -12.16)"/><path class="cls-8" d="M368.22,185h4.61v24.09h-4.61Z" transform="translate(-23.49 -12.16)"/><path class="cls-8" d="M402.42,185h4.47v24.09h-4.37l-12.39-16.58v16.58h-4.51V185H390l12.42,16.62Z" transform="translate(-23.49 -12.16)"/><path class="cls-8" d="M436,197.14h4v9.15a16.09,16.09,0,0,1-4.47,2.29,15.65,15.65,0,0,1-5.06.88,12.83,12.83,0,0,1-6.45-1.65,12.32,12.32,0,0,1-4.59-4.49A12.06,12.06,0,0,1,417.8,197a11.71,11.71,0,0,1,1.72-6.25,12.41,12.41,0,0,1,4.7-4.44,13.46,13.46,0,0,1,6.59-1.63,14.58,14.58,0,0,1,5.09.93,13.53,13.53,0,0,1,4.33,2.55l-2.62,3.41a9.92,9.92,0,0,0-3.18-2,9.71,9.71,0,0,0-3.63-.72,8.32,8.32,0,0,0-4.18,1.08,8,8,0,0,0-3,3,8.3,8.3,0,0,0,0,8.29,8.25,8.25,0,0,0,7.21,4.09,9.28,9.28,0,0,0,2.6-.4,11.53,11.53,0,0,0,2.6-1.12Z" transform="translate(-23.49 -12.16)"/><path class="cls-9" d="M39.89,252.67c16.26-24.5,71.87-64.57,119.72,47.48H39.89Z" transform="translate(-23.49 -12.16)"/><g class="cls-10"><path class="cls-1" d="M156.33,298a2.16,2.16,0,1,1,.47-4.27q-4.36-9.62-8.78-17.65a2.15,2.15,0,0,1-1-1.84v0c-1.13-2-2.25-4-3.38-5.81a2.15,2.15,0,1,1-2.16-3.46c-11.21-17.53-22.51-28.19-33.35-34,0,0,0,.07,0,.11a2.16,2.16,0,1,1-3.38-1.78,44.92,44.92,0,0,0-18.65-4.14,2.14,2.14,0,0,1-3.34.14,48.32,48.32,0,0,0-17.92,5.17,2.13,2.13,0,0,1,.1.61,2.15,2.15,0,0,1-3.78,1.42,63.55,63.55,0,0,0-5.43,3.64,2.19,2.19,0,1,1-2.27,1.78,70.5,70.5,0,0,0-6.22,5.74,2.2,2.2,0,1,1-.72.75,66.74,66.74,0,0,0-5.09,6.13,2.15,2.15,0,1,1-1.48,3.9v10.87a2.16,2.16,0,1,1,0,3.53v10.87a2.16,2.16,0,1,1,0,3.53v10.87a2.16,2.16,0,1,1,0,3.53v2.49H159.61c-.47-1.09-.93-2.14-1.4-3.21A2.15,2.15,0,0,1,156.33,298Zm-108-7.2a2.16,2.16,0,1,1,2.16-2.16A2.16,2.16,0,0,1,48.33,290.85Zm0-14.4a2.16,2.16,0,1,1,2.16-2.16A2.16,2.16,0,0,1,48.33,276.45Zm0-14.4a2.16,2.16,0,1,1,2.16-2.16A2.16,2.16,0,0,1,48.33,262Zm7.2,36a2.16,2.16,0,1,1,2.16-2.16A2.16,2.16,0,0,1,55.53,298Zm0-14.4a2.16,2.16,0,1,1,2.16-2.16A2.16,2.16,0,0,1,55.53,283.65Zm0-14.4a2.16,2.16,0,1,1,2.16-2.16A2.16,2.16,0,0,1,55.53,269.25Zm0-14.4a2.16,2.16,0,1,1,2.16-2.16A2.16,2.16,0,0,1,55.53,254.85Zm7.2,36a2.16,2.16,0,1,1,2.16-2.16A2.16,2.16,0,0,1,62.73,290.85Zm0-14.4a2.16,2.16,0,1,1,2.16-2.16A2.16,2.16,0,0,1,62.73,276.45Zm0-14.4a2.16,2.16,0,1,1,2.16-2.16A2.16,2.16,0,0,1,62.73,262Zm0-14.4a2.16,2.16,0,1,1,2.16-2.16A2.16,2.16,0,0,1,62.73,247.65Zm7.2,50.4a2.16,2.16,0,1,1,2.16-2.16A2.16,2.16,0,0,1,69.93,298Zm0-14.4a2.16,2.16,0,1,1,2.16-2.16A2.16,2.16,0,0,1,69.93,283.65Zm0-14.4a2.16,2.16,0,1,1,2.16-2.16A2.16,2.16,0,0,1,69.93,269.25Zm0-14.4a2.16,2.16,0,1,1,2.16-2.16A2.16,2.16,0,0,1,69.93,254.85Zm0-14.4a2.16,2.16,0,1,1,2.16-2.16A2.16,2.16,0,0,1,69.93,240.45Zm7.2,50.4a2.16,2.16,0,1,1,2.16-2.16A2.16,2.16,0,0,1,77.13,290.85Zm0-14.4a2.16,2.16,0,1,1,2.16-2.16A2.16,2.16,0,0,1,77.13,276.45Zm0-14.4a2.16,2.16,0,1,1,2.16-2.16A2.16,2.16,0,0,1,77.13,262Zm0-14.4a2.16,2.16,0,1,1,2.16-2.16A2.16,2.16,0,0,1,77.13,247.65Zm0-14.4a2.16,2.16,0,1,1,2.16-2.16A2.16,2.16,0,0,1,77.13,233.25Zm7.2,64.8a2.16,2.16,0,1,1,2.16-2.16A2.16,2.16,0,0,1,84.33,298Zm0-14.4a2.16,2.16,0,1,1,2.16-2.16A2.16,2.16,0,0,1,84.33,283.65Zm0-14.4a2.16,2.16,0,1,1,2.16-2.16A2.16,2.16,0,0,1,84.33,269.25Zm0-14.4a2.16,2.16,0,1,1,2.16-2.16A2.16,2.16,0,0,1,84.33,254.85Zm0-14.4a2.16,2.16,0,1,1,2.16-2.16A2.16,2.16,0,0,1,84.33,240.45Zm7.2,50.4a2.16,2.16,0,1,1,2.16-2.16A2.16,2.16,0,0,1,91.53,290.85Zm0-14.4a2.16,2.16,0,1,1,2.16-2.16A2.16,2.16,0,0,1,91.53,276.45Zm0-14.4a2.16,2.16,0,1,1,2.16-2.16A2.16,2.16,0,0,1,91.53,262Zm0-14.4a2.16,2.16,0,1,1,2.16-2.16A2.16,2.16,0,0,1,91.53,247.65Zm0-14.4a2.16,2.16,0,1,1,2.16-2.16A2.16,2.16,0,0,1,91.53,233.25Zm7.2,64.8a2.16,2.16,0,1,1,2.16-2.16A2.16,2.16,0,0,1,98.73,298Zm0-14.4a2.16,2.16,0,1,1,2.16-2.16A2.16,2.16,0,0,1,98.73,283.65Zm0-14.4a2.16,2.16,0,1,1,2.16-2.16A2.16,2.16,0,0,1,98.73,269.25Zm0-14.4a2.16,2.16,0,1,1,2.16-2.16A2.16,2.16,0,0,1,98.73,254.85Zm0-14.4a2.16,2.16,0,1,1,2.16-2.16A2.16,2.16,0,0,1,98.73,240.45Zm7.2,50.4a2.16,2.16,0,1,1,2.16-2.16A2.16,2.16,0,0,1,105.93,290.85Zm0-14.4a2.16,2.16,0,1,1,2.16-2.16A2.16,2.16,0,0,1,105.93,276.45Zm0-14.4a2.16,2.16,0,1,1,2.16-2.16A2.16,2.16,0,0,1,105.93,262Zm0-14.4a2.16,2.16,0,1,1,2.16-2.16A2.16,2.16,0,0,1,105.93,247.65Zm7.2,50.4a2.16,2.16,0,1,1,2.16-2.16A2.16,2.16,0,0,1,113.13,298Zm0-14.4a2.16,2.16,0,1,1,2.16-2.16A2.16,2.16,0,0,1,113.13,283.65Zm0-14.4a2.16,2.16,0,1,1,2.16-2.16A2.16,2.16,0,0,1,113.13,269.25Zm0-14.4a2.16,2.16,0,1,1,2.16-2.16A2.16,2.16,0,0,1,113.13,254.85Zm0-14.4a2.16,2.16,0,1,1,2.16-2.16A2.16,2.16,0,0,1,113.13,240.45Zm7.2,50.4a2.16,2.16,0,1,1,2.16-2.16A2.16,2.16,0,0,1,120.33,290.85Zm0-14.4a2.16,2.16,0,1,1,2.16-2.16A2.16,2.16,0,0,1,120.33,276.45Zm0-14.4a2.16,2.16,0,1,1,2.16-2.16A2.16,2.16,0,0,1,120.33,262Zm0-14.4a2.16,2.16,0,1,1,2.16-2.16A2.16,2.16,0,0,1,120.33,247.65Zm7.2,50.4a2.16,2.16,0,1,1,2.16-2.16A2.16,2.16,0,0,1,127.53,298Zm0-14.4a2.16,2.16,0,1,1,2.16-2.16A2.16,2.16,0,0,1,127.53,283.65Zm0-14.4a2.16,2.16,0,1,1,2.16-2.16A2.16,2.16,0,0,1,127.53,269.25Zm0-14.4a2.16,2.16,0,1,1,2.16-2.16A2.16,2.16,0,0,1,127.53,254.85Zm7.2,36a2.16,2.16,0,1,1,2.16-2.16A2.16,2.16,0,0,1,134.73,290.85Zm0-14.4a2.16,2.16,0,1,1,2.16-2.16A2.16,2.16,0,0,1,134.73,276.45Zm0-14.4a2.16,2.16,0,1,1,2.16-2.16A2.16,2.16,0,0,1,134.73,262Zm7.2,36a2.16,2.16,0,1,1,2.16-2.16A2.16,2.16,0,0,1,141.93,298Zm0-14.4a2.16,2.16,0,1,1,2.16-2.16A2.16,2.16,0,0,1,141.93,283.65Zm7.2,7.2a2.16,2.16,0,1,1,2.16-2.16A2.16,2.16,0,0,1,149.13,290.85Z" transform="translate(-23.49 -12.16)"/><path class="cls-11" d="M148,276.13c-.35-.63-.7-1.24-1-1.86v0A2.15,2.15,0,0,0,148,276.13Z" transform="translate(-23.49 -12.16)"/><path class="cls-11" d="M154.17,295.89a2.15,2.15,0,0,0,4,1.05c-.47-1.07-.94-2.12-1.41-3.16a2.15,2.15,0,0,0-2.63,2.11Z" transform="translate(-23.49 -12.16)"/><circle class="cls-11" cx="125.64" cy="276.52" r="2.16"/><circle class="cls-11" cx="96.84" cy="233.32" r="2.16"/><path class="cls-11" d="M139.77,267.09a2.15,2.15,0,0,0,3.82,1.37q-1.08-1.77-2.16-3.46A2.16,2.16,0,0,0,139.77,267.09Z" transform="translate(-23.49 -12.16)"/><circle class="cls-11" cx="104.04" cy="254.92" r="2.16"/><circle class="cls-11" cx="96.84" cy="262.12" r="2.16"/><circle class="cls-11" cx="111.24" cy="262.12" r="2.16"/><circle class="cls-11" cx="96.84" cy="247.72" r="2.16"/><circle class="cls-11" cx="111.24" cy="247.72" r="2.16"/><circle class="cls-11" cx="104.04" cy="240.52" r="2.16"/><circle class="cls-11" cx="118.44" cy="283.72" r="2.16"/><circle class="cls-11" cx="104.04" cy="283.72" r="2.16"/><circle class="cls-11" cx="96.84" cy="276.52" r="2.16"/><circle class="cls-11" cx="111.24" cy="276.52" r="2.16"/><circle class="cls-11" cx="118.44" cy="269.32" r="2.16"/><circle class="cls-11" cx="104.04" cy="269.32" r="2.16"/><circle class="cls-11" cx="89.64" cy="226.12" r="2.16"/><circle class="cls-11" cx="75.24" cy="226.12" r="2.16"/><circle class="cls-11" cx="68.04" cy="233.32" r="2.16"/><circle class="cls-11" cx="82.44" cy="233.32" r="2.16"/><circle class="cls-11" cx="68.04" cy="218.92" r="2.16"/><path class="cls-11" d="M103.77,231.09a2.16,2.16,0,0,0,4.32,0s0-.07,0-.11c-1.13-.61-2.25-1.17-3.37-1.67A2.16,2.16,0,0,0,103.77,231.09Z" transform="translate(-23.49 -12.16)"/><circle class="cls-11" cx="89.64" cy="254.92" r="2.16"/><circle class="cls-11" cx="75.24" cy="254.92" r="2.16"/><circle class="cls-11" cx="68.04" cy="262.12" r="2.16"/><circle class="cls-11" cx="82.44" cy="262.12" r="2.16"/><circle class="cls-11" cx="68.04" cy="247.72" r="2.16"/><circle class="cls-11" cx="82.44" cy="247.72" r="2.16"/><circle class="cls-11" cx="89.64" cy="240.52" r="2.16"/><circle class="cls-11" cx="75.24" cy="240.52" r="2.16"/><circle class="cls-11" cx="89.64" cy="283.72" r="2.16"/><circle class="cls-11" cx="75.24" cy="283.72" r="2.16"/><circle class="cls-11" cx="68.04" cy="276.52" r="2.16"/><circle class="cls-11" cx="82.44" cy="276.52" r="2.16"/><circle class="cls-11" cx="89.64" cy="269.32" r="2.16"/><circle class="cls-11" cx="75.24" cy="269.32" r="2.16"/><circle class="cls-11" cx="60.84" cy="226.12" r="2.16"/><circle class="cls-11" cx="46.44" cy="226.12" r="2.16"/><circle class="cls-11" cx="39.24" cy="233.32" r="2.16"/><circle class="cls-11" cx="53.64" cy="233.32" r="2.16"/><path class="cls-11" d="M62.73,233.25a2.16,2.16,0,0,0,2.16-2.16,2.13,2.13,0,0,0-.1-.61q-1.89.95-3.68,2A2.15,2.15,0,0,0,62.73,233.25Z" transform="translate(-23.49 -12.16)"/><circle class="cls-11" cx="53.64" cy="218.92" r="2.16"/><path class="cls-11" d="M84.33,226a2.15,2.15,0,0,0,1.73-.88c-1.13,0-2.24.05-3.34.14A2.15,2.15,0,0,0,84.33,226Z" transform="translate(-23.49 -12.16)"/><circle class="cls-11" cx="60.84" cy="254.92" r="2.16"/><circle class="cls-11" cx="46.44" cy="254.92" r="2.16"/><circle class="cls-11" cx="39.24" cy="262.12" r="2.16"/><circle class="cls-11" cx="53.64" cy="262.12" r="2.16"/><circle class="cls-11" cx="39.24" cy="247.72" r="2.16"/><circle class="cls-11" cx="53.64" cy="247.72" r="2.16"/><circle class="cls-11" cx="60.84" cy="240.52" r="2.16"/><circle class="cls-11" cx="46.44" cy="240.52" r="2.16"/><circle class="cls-11" cx="60.84" cy="283.72" r="2.16"/><circle class="cls-11" cx="46.44" cy="283.72" r="2.16"/><circle class="cls-11" cx="39.24" cy="276.52" r="2.16"/><circle class="cls-11" cx="53.64" cy="276.52" r="2.16"/><circle class="cls-11" cx="60.84" cy="269.32" r="2.16"/><circle class="cls-11" cx="46.44" cy="269.32" r="2.16"/><path class="cls-11" d="M55.53,240.45a2.16,2.16,0,0,0,.15-4.31c-.78.58-1.53,1.18-2.27,1.78a2.13,2.13,0,0,0,2.12,2.52Z" transform="translate(-23.49 -12.16)"/><path class="cls-11" d="M48.33,247.65a2.16,2.16,0,1,0-1.15-4l-.72.75a2.14,2.14,0,0,0-.29,1.07A2.16,2.16,0,0,0,48.33,247.65Z" transform="translate(-23.49 -12.16)"/><circle class="cls-11" cx="32.04" cy="254.92" r="2.16"/><path class="cls-11" d="M43.29,267.09a2.16,2.16,0,0,0-3.4-1.77v3.53a2.16,2.16,0,0,0,3.4-1.77Z" transform="translate(-23.49 -12.16)"/><circle class="cls-11" cx="24.84" cy="262.12" r="2.16"/><circle class="cls-11" cx="24.84" cy="247.72" r="2.16"/><circle class="cls-11" cx="32.04" cy="240.52" r="2.16"/><path class="cls-11" d="M43.29,252.69a2.15,2.15,0,0,0-1.92-2.14c-.52.72-1,1.42-1.48,2.12v1.78a2.16,2.16,0,0,0,3.4-1.77Z" transform="translate(-23.49 -12.16)"/><circle class="cls-11" cx="32.04" cy="283.72" r="2.16"/><path class="cls-11" d="M43.29,295.89a2.16,2.16,0,0,0-3.4-1.77v3.53a2.16,2.16,0,0,0,3.4-1.77Z" transform="translate(-23.49 -12.16)"/><circle class="cls-11" cx="24.84" cy="276.52" r="2.16"/><circle class="cls-11" cx="32.04" cy="269.32" r="2.16"/><path class="cls-11" d="M43.29,281.49a2.16,2.16,0,0,0-3.4-1.77v3.53a2.16,2.16,0,0,0,3.4-1.77Z" transform="translate(-23.49 -12.16)"/></g><path class="cls-9" d="M507.05,256.67s-55.39-74.23-110.79,44l110.79-.48Z" transform="translate(-23.49 -12.16)"/><path class="cls-1" d="M227.64,267.21v32.93h26.14V283A130.2,130.2,0,0,0,227.64,267.21Z" transform="translate(-23.49 -12.16)"/><path class="cls-1" d="M178.28,257.66c-2.83.12-5.64.36-8.42.69v41.8h25.89V258.31A109.12,109.12,0,0,0,178.28,257.66Z" transform="translate(-23.49 -12.16)"/><path class="cls-1" d="M90.34,300.15h21.38V281.1A119.59,119.59,0,0,0,90.34,300.15Z" transform="translate(-23.49 -12.16)"/><path class="cls-1" d="M113.73,279.72v20.43h26.18V265.93A134.25,134.25,0,0,0,113.73,279.72Z" transform="translate(-23.49 -12.16)"/><path class="cls-1" d="M141.91,265.17v35h26V258.6A121.49,121.49,0,0,0,141.91,265.17Z" transform="translate(-23.49 -12.16)"/><path class="cls-1" d="M255.78,284.61v15.53h16.9A171.68,171.68,0,0,0,255.78,284.61Z" transform="translate(-23.49 -12.16)"/><path class="cls-1" d="M197.75,258.56v41.59h27.89V266.34A108.45,108.45,0,0,0,197.75,258.56Z" transform="translate(-23.49 -12.16)"/><path class="cls-6" d="M178.16,252.36c-40.53,1.71-76.12,25.17-93.58,47.79h3.14a121,121,0,0,1,24-21.48V277h2v.35a136.34,136.34,0,0,1,26.18-13.52v-1.59h2V263a123.2,123.2,0,0,1,26-6.46v-1.43h2v1.17c2.75-.32,5.53-.55,8.33-.67a111.45,111.45,0,0,1,17.55.64v-1.14h2v1.39a110.19,110.19,0,0,1,27.89,7.62v-.7h2V265a130.9,130.9,0,0,1,26.14,15.52v-.24h2v1.77a174,174,0,0,1,19.66,18.09h2.65l.46-.41C248.65,266.75,214.88,250.83,178.16,252.36Z" transform="translate(-23.49 -12.16)"/><path class="cls-12" d="M227.64,267.21A130.2,130.2,0,0,1,253.78,283v-2.51A130.9,130.9,0,0,0,227.64,265Z" transform="translate(-23.49 -12.16)"/><path class="cls-12" d="M169.87,258.34c2.78-.33,5.58-.57,8.42-.69a109.12,109.12,0,0,1,17.47.66v-2a111.45,111.45,0,0,0-17.55-.64c-2.8.12-5.58.35-8.33.67Z" transform="translate(-23.49 -12.16)"/><path class="cls-12" d="M141.91,265.17a121.49,121.49,0,0,1,26-6.58v-2a123.2,123.2,0,0,0-26,6.46Z" transform="translate(-23.49 -12.16)"/><path class="cls-12" d="M197.75,258.56a108.45,108.45,0,0,1,27.89,7.78v-2.18a110.19,110.19,0,0,0-27.89-7.62Z" transform="translate(-23.49 -12.16)"/><path class="cls-12" d="M113.73,279.72a134.25,134.25,0,0,1,26.18-13.79V263.8a136.34,136.34,0,0,0-26.18,13.52Z" transform="translate(-23.49 -12.16)"/><path class="cls-12" d="M111.73,281.1v-2.43a121,121,0,0,0-24,21.48h2.62A119.59,119.59,0,0,1,111.73,281.1Z" transform="translate(-23.49 -12.16)"/><path class="cls-12" d="M255.78,282.06v2.55a171.68,171.68,0,0,1,16.9,15.53h2.76A174,174,0,0,0,255.78,282.06Z" transform="translate(-23.49 -12.16)"/><polygon class="cls-6" points="90.23 265.15 90.23 264.81 88.23 264.81 88.23 266.5 88.23 268.93 88.23 287.98 90.23 287.98 90.23 267.55 90.23 265.15"/><polygon class="cls-6" points="118.42 250.88 118.42 250.05 116.42 250.05 116.42 251.64 116.42 253.77 116.42 287.98 118.42 287.98 118.42 253.01 118.42 250.88"/><polygon class="cls-6" points="146.37 244.16 146.37 242.99 144.37 242.99 144.37 244.42 144.37 246.43 144.37 287.98 146.37 287.98 146.37 246.18 146.37 244.16"/><polygon class="cls-6" points="174.26 244.38 174.26 242.99 172.26 242.99 172.26 244.13 172.26 246.15 172.26 287.98 174.26 287.98 174.26 246.4 174.26 244.38"/><polygon class="cls-6" points="204.15 252.85 204.15 251.3 202.15 251.3 202.15 252 202.15 254.18 202.15 287.98 204.15 287.98 204.15 255.05 204.15 252.85"/><polygon class="cls-6" points="232.28 269.9 232.28 268.13 230.28 268.13 230.28 268.36 230.28 270.87 230.28 287.98 232.28 287.98 232.28 272.45 232.28 269.9"/><g class="cls-10"><path class="cls-1" d="M507.05,289.24a1.94,1.94,0,0,1,0-1.1v-13.3a1.94,1.94,0,0,1,0-1.1v-13.3a1.94,1.94,0,0,1,0-1.1v-2.67s-1.05-1.41-3-3.53a2.16,2.16,0,1,1-2.5-2.58c-1.37-1.34-3-2.81-4.8-4.3a2.16,2.16,0,1,1-3.27-2.52c-1.63-1.18-3.38-2.33-5.25-3.42a2.13,2.13,0,0,1-.69.12,2.16,2.16,0,0,1-2.09-1.64c-10.41-5.29-23.9-8-39-.73,0,.07,0,.14,0,.21a2.15,2.15,0,0,1-3.54,1.65,60.9,60.9,0,0,0-5.31,3.46,2.16,2.16,0,1,1-2.67,2.09s0,0,0-.06q-3,2.38-6,5.34a2.14,2.14,0,0,1,1-.24,2.16,2.16,0,1,1-2.16,2.16,2.14,2.14,0,0,1,.25-1q-2.75,2.77-5.53,6l.25,0a2.16,2.16,0,1,1-2.14,2.32q-2,2.45-4,5.18a2.15,2.15,0,1,1-2.48,3.5q-1.82,2.65-3.65,5.55h0a2.15,2.15,0,0,1-1.21,1.93,246.55,246.55,0,0,0-13,24.41l110.79-.48ZM401.13,298a2.16,2.16,0,1,1,2.16-2.16A2.16,2.16,0,0,1,401.13,298Zm7.2-7.2a2.16,2.16,0,1,1,2.16-2.16A2.16,2.16,0,0,1,408.33,290.85Zm7.2,7.2a2.16,2.16,0,1,1,2.16-2.16A2.16,2.16,0,0,1,415.53,298Zm0-14.4a2.16,2.16,0,1,1,2.16-2.16A2.16,2.16,0,0,1,415.53,283.65Zm7.2,7.2a2.16,2.16,0,1,1,2.16-2.16A2.16,2.16,0,0,1,422.73,290.85Zm0-14.4a2.16,2.16,0,1,1,2.16-2.16A2.16,2.16,0,0,1,422.73,276.45Zm7.2,21.6a2.16,2.16,0,1,1,2.16-2.16A2.16,2.16,0,0,1,429.93,298Zm0-14.4a2.16,2.16,0,1,1,2.16-2.16A2.16,2.16,0,0,1,429.93,283.65Zm0-14.4a2.16,2.16,0,1,1,2.16-2.16A2.16,2.16,0,0,1,429.93,269.25Zm7.2,21.6a2.16,2.16,0,1,1,2.16-2.16A2.16,2.16,0,0,1,437.13,290.85Zm0-14.4a2.16,2.16,0,1,1,2.16-2.16A2.16,2.16,0,0,1,437.13,276.45Zm0-14.4a2.16,2.16,0,1,1,2.16-2.16A2.16,2.16,0,0,1,437.13,262Zm7.2,36a2.16,2.16,0,1,1,2.16-2.16A2.16,2.16,0,0,1,444.33,298Zm0-14.4a2.16,2.16,0,1,1,2.16-2.16A2.16,2.16,0,0,1,444.33,283.65Zm0-14.4a2.16,2.16,0,1,1,2.16-2.16A2.16,2.16,0,0,1,444.33,269.25Zm0-14.4a2.16,2.16,0,1,1,2.16-2.16A2.16,2.16,0,0,1,444.33,254.85Zm7.2,36a2.16,2.16,0,1,1,2.16-2.16A2.16,2.16,0,0,1,451.53,290.85Zm0-14.4a2.16,2.16,0,1,1,2.16-2.16A2.16,2.16,0,0,1,451.53,276.45Zm0-14.4a2.16,2.16,0,1,1,2.16-2.16A2.16,2.16,0,0,1,451.53,262Zm0-14.4a2.16,2.16,0,1,1,2.16-2.16A2.16,2.16,0,0,1,451.53,247.65Zm7.2,50.4a2.16,2.16,0,1,1,2.16-2.16A2.16,2.16,0,0,1,458.73,298Zm0-14.4a2.16,2.16,0,1,1,2.16-2.16A2.16,2.16,0,0,1,458.73,283.65Zm0-14.4a2.16,2.16,0,1,1,2.16-2.16A2.16,2.16,0,0,1,458.73,269.25Zm0-14.4a2.16,2.16,0,1,1,2.16-2.16A2.16,2.16,0,0,1,458.73,254.85Zm0-14.4a2.16,2.16,0,1,1,2.16-2.16A2.16,2.16,0,0,1,458.73,240.45Zm7.2,50.4a2.16,2.16,0,1,1,2.16-2.16A2.16,2.16,0,0,1,465.93,290.85Zm0-14.4a2.16,2.16,0,1,1,2.16-2.16A2.16,2.16,0,0,1,465.93,276.45Zm0-14.4a2.16,2.16,0,1,1,2.16-2.16A2.16,2.16,0,0,1,465.93,262Zm0-14.4a2.16,2.16,0,1,1,2.16-2.16A2.16,2.16,0,0,1,465.93,247.65Zm7.2,50.4a2.16,2.16,0,1,1,2.16-2.16A2.16,2.16,0,0,1,473.13,298Zm0-14.4a2.16,2.16,0,1,1,2.16-2.16A2.16,2.16,0,0,1,473.13,283.65Zm0-14.4a2.16,2.16,0,1,1,2.16-2.16A2.16,2.16,0,0,1,473.13,269.25Zm0-14.4a2.16,2.16,0,1,1,2.16-2.16A2.16,2.16,0,0,1,473.13,254.85Zm0-14.4a2.16,2.16,0,1,1,2.16-2.16A2.16,2.16,0,0,1,473.13,240.45Zm7.2,50.4a2.16,2.16,0,1,1,2.16-2.16A2.16,2.16,0,0,1,480.33,290.85Zm0-14.4a2.16,2.16,0,1,1,2.16-2.16A2.16,2.16,0,0,1,480.33,276.45Zm0-14.4a2.16,2.16,0,1,1,2.16-2.16A2.16,2.16,0,0,1,480.33,262Zm0-14.4a2.16,2.16,0,1,1,2.16-2.16A2.16,2.16,0,0,1,480.33,247.65Zm7.2,50.4a2.16,2.16,0,1,1,2.16-2.16A2.16,2.16,0,0,1,487.53,298Zm0-14.4a2.16,2.16,0,1,1,2.16-2.16A2.16,2.16,0,0,1,487.53,283.65Zm0-14.4a2.16,2.16,0,1,1,2.16-2.16A2.16,2.16,0,0,1,487.53,269.25Zm0-14.4a2.16,2.16,0,1,1,2.16-2.16A2.16,2.16,0,0,1,487.53,254.85Zm7.2,36a2.16,2.16,0,1,1,2.16-2.16A2.16,2.16,0,0,1,494.73,290.85Zm0-14.4a2.16,2.16,0,1,1,2.16-2.16A2.16,2.16,0,0,1,494.73,276.45Zm0-14.4a2.16,2.16,0,1,1,2.16-2.16A2.16,2.16,0,0,1,494.73,262Zm7.2,36a2.16,2.16,0,1,1,2.16-2.16A2.16,2.16,0,0,1,501.93,298Zm0-14.4a2.16,2.16,0,1,1,2.16-2.16A2.16,2.16,0,0,1,501.93,283.65Zm0-14.4a2.16,2.16,0,1,1,2.16-2.16A2.16,2.16,0,0,1,501.93,269.25Z" transform="translate(-23.49 -12.16)"/><path class="cls-11" d="M492.57,245.49a2.16,2.16,0,0,0,4.17.78c-1-.84-2.12-1.69-3.27-2.52A2.15,2.15,0,0,0,492.57,245.49Z" transform="translate(-23.49 -12.16)"/><circle class="cls-11" cx="478.44" cy="254.92" r="2.16"/><circle class="cls-11" cx="471.24" cy="262.12" r="2.16"/><path class="cls-11" d="M507.05,274.84v-1.1a1.94,1.94,0,0,0,0,1.1Z" transform="translate(-23.49 -12.16)"/><circle class="cls-11" cx="471.24" cy="247.72" r="2.16"/><path class="cls-11" d="M507.05,260.44v-1.1a1.94,1.94,0,0,0,0,1.1Z" transform="translate(-23.49 -12.16)"/><path class="cls-11" d="M499.77,252.69a2.16,2.16,0,0,0,4.27.45c-.72-.78-1.55-1.64-2.5-2.58A2.16,2.16,0,0,0,499.77,252.69Z" transform="translate(-23.49 -12.16)"/><circle class="cls-11" cx="478.44" cy="283.72" r="2.16"/><circle class="cls-11" cx="471.24" cy="276.52" r="2.16"/><path class="cls-11" d="M507.05,289.24v-1.1a1.94,1.94,0,0,0,0,1.1Z" transform="translate(-23.49 -12.16)"/><circle class="cls-11" cx="478.44" cy="269.32" r="2.16"/><path class="cls-11" d="M487.53,240.45a2.13,2.13,0,0,0,.69-.12q-1.35-.78-2.78-1.51A2.16,2.16,0,0,0,487.53,240.45Z" transform="translate(-23.49 -12.16)"/><circle class="cls-11" cx="449.64" cy="226.12" r="2.16"/><circle class="cls-11" cx="442.44" cy="233.32" r="2.16"/><circle class="cls-11" cx="456.84" cy="233.32" r="2.16"/><circle class="cls-11" cx="464.04" cy="254.92" r="2.16"/><circle class="cls-11" cx="449.64" cy="254.92" r="2.16"/><circle class="cls-11" cx="442.44" cy="262.12" r="2.16"/><circle class="cls-11" cx="456.84" cy="262.12" r="2.16"/><circle class="cls-11" cx="442.44" cy="247.72" r="2.16"/><circle class="cls-11" cx="456.84" cy="247.72" r="2.16"/><circle class="cls-11" cx="464.04" cy="240.52" r="2.16"/><circle class="cls-11" cx="449.64" cy="240.52" r="2.16"/><circle class="cls-11" cx="464.04" cy="283.72" r="2.16"/><circle class="cls-11" cx="449.64" cy="283.72" r="2.16"/><circle class="cls-11" cx="442.44" cy="276.52" r="2.16"/><circle class="cls-11" cx="456.84" cy="276.52" r="2.16"/><circle class="cls-11" cx="464.04" cy="269.32" r="2.16"/><circle class="cls-11" cx="449.64" cy="269.32" r="2.16"/><circle class="cls-11" cx="435.24" cy="226.12" r="2.16"/><path class="cls-11" d="M446.49,238.29c0-.07,0-.14,0-.21q-1.75.84-3.52,1.86a2.15,2.15,0,0,0,3.54-1.65Z" transform="translate(-23.49 -12.16)"/><path class="cls-11" d="M437.13,247.65a2.16,2.16,0,0,0,.51-4.25q-1.32,1-2.66,2s0,0,0,.06A2.16,2.16,0,0,0,437.13,247.65Z" transform="translate(-23.49 -12.16)"/><circle class="cls-11" cx="428.04" cy="233.32" r="2.16"/><circle class="cls-11" cx="435.24" cy="254.92" r="2.16"/><circle class="cls-11" cx="420.84" cy="254.92" r="2.16"/><circle class="cls-11" cx="413.64" cy="262.12" r="2.16"/><circle class="cls-11" cx="428.04" cy="262.12" r="2.16"/><circle class="cls-11" cx="413.64" cy="247.72" r="2.16"/><circle class="cls-11" cx="428.04" cy="247.72" r="2.16"/><circle class="cls-11" cx="435.24" cy="240.52" r="2.16"/><circle class="cls-11" cx="420.84" cy="240.52" r="2.16"/><circle class="cls-11" cx="435.24" cy="283.72" r="2.16"/><circle class="cls-11" cx="420.84" cy="283.72" r="2.16"/><circle class="cls-11" cx="413.64" cy="276.52" r="2.16"/><circle class="cls-11" cx="428.04" cy="276.52" r="2.16"/><circle class="cls-11" cx="435.24" cy="269.32" r="2.16"/><circle class="cls-11" cx="420.84" cy="269.32" r="2.16"/><circle class="cls-11" cx="406.44" cy="254.92" r="2.16"/><path class="cls-11" d="M417.69,267.09a2.15,2.15,0,0,0-1.07-1.86q-1.24,1.7-2.48,3.5a2.15,2.15,0,0,0,3.55-1.64Z" transform="translate(-23.49 -12.16)"/><path class="cls-11" d="M410.49,274.29h0l-1.21,1.94A2.15,2.15,0,0,0,410.49,274.29Z" transform="translate(-23.49 -12.16)"/><circle class="cls-11" cx="399.24" cy="262.12" r="2.16"/><path class="cls-11" d="M422.73,262a2.16,2.16,0,1,0,0-4.32l-.25,0c-.63.75-1.26,1.51-1.9,2.29A2.15,2.15,0,0,0,422.73,262Z" transform="translate(-23.49 -12.16)"/><path class="cls-11" d="M429.93,254.85a2.16,2.16,0,0,0,0-4.32,2.14,2.14,0,0,0-1,.24l-.95.94a2.14,2.14,0,0,0-.25,1A2.16,2.16,0,0,0,429.93,254.85Z" transform="translate(-23.49 -12.16)"/><circle class="cls-11" cx="406.44" cy="283.72" r="2.16"/><circle class="cls-11" cx="392.04" cy="283.72" r="2.16"/><circle class="cls-11" cx="384.84" cy="276.52" r="2.16"/><circle class="cls-11" cx="399.24" cy="276.52" r="2.16"/><circle class="cls-11" cx="406.44" cy="269.32" r="2.16"/><circle class="cls-11" cx="392.04" cy="269.32" r="2.16"/><circle class="cls-11" cx="377.64" cy="283.72" r="2.16"/></g></g></g></g></svg>