<svg xmlns="http://www.w3.org/2000/svg" viewBox="0 0 513 267.87"><defs><style>.cls-1{fill:#a3dad7;}.cls-2{fill:none;}.cls-3{fill:#4db9bd;}</style></defs><title>right-hill</title><g id="Layer_2" data-name="Layer 2"><g id="Layer_1-2" data-name="Layer 1"><path class="cls-1" d="M357,264.71A117,117,0,1,0,242.42,124.08a99.09,99.09,0,0,0-10.42-.55,98,98,0,0,0-86.37,144.34H318.36c1.46-2.72,2.81-5.51,4-8.37A116.92,116.92,0,0,0,357,264.71Z"/><path class="cls-2" d="M457.8,205.18A2.16,2.16,0,1,1,460,203a2.13,2.13,0,0,1,0,.27q1.7-3.14,3.2-6.4a2.14,2.14,0,0,1,1.42-3.19,116.07,116.07,0,0,0,6-18.06,2.15,2.15,0,0,1,.78-3.42q1.1-5.15,1.73-10.45a2.16,2.16,0,1,1,.38-3.69c.3-3.41.46-6.86.46-10.35,0-.35,0-.69,0-1a2.16,2.16,0,1,1,0-2.62q-.17-5.6-.86-11.06a2.16,2.16,0,1,1-.82-4.16l.22,0a116.17,116.17,0,0,0-13.81-39.06,2.15,2.15,0,0,1-2.18-3.66q-1.76-2.83-3.67-5.56h0a2.16,2.16,0,1,1-2.16-2.16,2.14,2.14,0,0,1,.71.13A117.61,117.61,0,0,0,424,51.86a2.16,2.16,0,1,1-3-2q-2.63-1.72-5.36-3.31a2.13,2.13,0,0,1-3.15-1.77,116.3,116.3,0,0,0-17.32-7.6,2.13,2.13,0,0,1,0,.27,2.16,2.16,0,1,1-3.73-1.48,116.28,116.28,0,0,0-18.63-4.09,2.14,2.14,0,0,1-3.16-.38q-5.22-.56-10.57-.66a2.15,2.15,0,0,1-4.14,0q-5.34.09-10.57.65a2.14,2.14,0,0,1-3.18.38,116.26,116.26,0,0,0-18.62,4.09,2.19,2.19,0,1,1-3.7,1.2,116.29,116.29,0,0,0-17.32,7.6,2.14,2.14,0,0,1-3.17,1.77q-2.73,1.58-5.37,3.31a2.16,2.16,0,1,1-3,2,117.62,117.62,0,0,0-27.4,26.77,2.15,2.15,0,1,1-1.41,2s0,0,0-.07q-1.93,2.74-3.7,5.6a2.15,2.15,0,0,1-2.18,3.67,116.18,116.18,0,0,0-12.94,34.27q-2.82-.3-5.68-.43c0,.06,0,.11,0,.17a2.16,2.16,0,0,1-4.32,0,2.13,2.13,0,0,1,0-.29H232q-4.89,0-9.66.47a2.15,2.15,0,0,1-4.18.5,97.35,97.35,0,0,0-18.67,4.55,2.17,2.17,0,1,1-2.84,1,97.67,97.67,0,0,0-17.69,9,2.16,2.16,0,0,1-1.91,1.26q-2.77,1.88-5.41,3.94a2.15,2.15,0,0,1-3.29,2.7q-2.24,1.92-4.37,4a2.15,2.15,0,1,1-3,3q-2,2.14-3.93,4.4a2.15,2.15,0,0,1-2.65,3.29q-2.12,2.75-4.05,5.66a2.15,2.15,0,0,1-1,1.46,97.65,97.65,0,0,0-8.92,17.71,2.16,2.16,0,1,1-1.21,3.32,97.38,97.38,0,0,0-4.35,18.5,2.14,2.14,0,0,1-.44,3.91c-.29,3-.44,6.14-.44,9.26,0,.32,0,.64,0,1a2.15,2.15,0,0,1,.13,4.26,98.25,98.25,0,0,0,1.15,10.73,2.13,2.13,0,0,1,.43,2.48,97.25,97.25,0,0,0,5.49,18.53,2.14,2.14,0,0,1,1.48,3.45q1.37,3,2.93,5.94H146s0,0,0,0a2.16,2.16,0,0,1,4.32,0s0,0,0,0h10.09s0,0,0,0a2.16,2.16,0,0,1,4.32,0s0,0,0,0h10.09s0,0,0,0a2.16,2.16,0,0,1,4.32,0s0,0,0,0h10.09s0,0,0,0a2.16,2.16,0,0,1,4.32,0s0,0,0,0h10.09s0,0,0,0a2.16,2.16,0,0,1,4.32,0s0,0,0,0H218s0,0,0,0a2.16,2.16,0,0,1,4.32,0s0,0,0,0h10.09s0,0,0,0a2.16,2.16,0,0,1,4.32,0s0,0,0,0h10.09s0,0,0,0a2.16,2.16,0,0,1,4.32,0s0,0,0,0h10.09s0,0,0,0a2.16,2.16,0,0,1,4.32,0s0,0,0,0h10.09s0,0,0,0a2.16,2.16,0,0,1,4.32,0s0,0,0,0H290s0,0,0,0a2.16,2.16,0,0,1,4.32,0s0,0,0,0h10.09s0,0,0,0a2.16,2.16,0,0,1,4.32,0s0,0,0,0h9.6c1.46-2.72,2.81-5.51,4-8.37,1.21.38,2.44.72,3.67,1.06a2.16,2.16,0,1,1,4.07,1,117.64,117.64,0,0,0,53.76,0,2.14,2.14,0,0,1-.24-1,2.16,2.16,0,0,1,4.31-.07,116.1,116.1,0,0,0,17.45-6.31,2.15,2.15,0,0,1,3.88-1.86,117.47,117.47,0,0,0,49.88-47.69A2.14,2.14,0,0,1,457.8,205.18Zm7.2-97.92a2.16,2.16,0,1,1-2.16,2.16A2.16,2.16,0,0,1,465,107.27Zm0,14.4a2.16,2.16,0,1,1-2.16,2.16A2.16,2.16,0,0,1,465,121.67Zm0,14.4a2.16,2.16,0,1,1-2.16,2.16A2.16,2.16,0,0,1,465,136.07Zm0,14.4a2.16,2.16,0,1,1-2.16,2.16A2.16,2.16,0,0,1,465,150.47Zm0,14.4a2.16,2.16,0,1,1-2.16,2.16A2.16,2.16,0,0,1,465,164.87Zm0,14.4a2.16,2.16,0,1,1-2.16,2.16A2.16,2.16,0,0,1,465,179.27Zm-7.2-79.2a2.16,2.16,0,1,1-2.16,2.16A2.16,2.16,0,0,1,457.8,100.06Zm0,14.4a2.16,2.16,0,1,1-2.16,2.16A2.16,2.16,0,0,1,457.8,114.47Zm0,14.4a2.16,2.16,0,1,1-2.16,2.16A2.16,2.16,0,0,1,457.8,128.86Zm0,14.4a2.16,2.16,0,1,1-2.16,2.16A2.16,2.16,0,0,1,457.8,143.27Zm0,14.4a2.16,2.16,0,1,1-2.16,2.16A2.16,2.16,0,0,1,457.8,157.66Zm0,14.4a2.16,2.16,0,1,1-2.16,2.16A2.16,2.16,0,0,1,457.8,172.06Zm0,14.4a2.16,2.16,0,1,1-2.16,2.16A2.16,2.16,0,0,1,457.8,186.46ZM141,248.38a2.16,2.16,0,1,1,2.16-2.16A2.16,2.16,0,0,1,141,248.38Zm0-14.4a2.16,2.16,0,1,1,2.16-2.16A2.16,2.16,0,0,1,141,234Zm0-14.4a2.16,2.16,0,1,1,2.16-2.16A2.16,2.16,0,0,1,141,219.58Zm0-14.4a2.16,2.16,0,1,1,2.16-2.16A2.16,2.16,0,0,1,141,205.18Zm7.2,50.4a2.16,2.16,0,1,1,2.16-2.16A2.16,2.16,0,0,1,148.19,255.58Zm0-14.4a2.16,2.16,0,1,1,2.16-2.16A2.16,2.16,0,0,1,148.19,241.18Zm0-14.4a2.16,2.16,0,1,1,2.16-2.16A2.16,2.16,0,0,1,148.19,226.78Zm0-14.4a2.16,2.16,0,1,1,2.16-2.16A2.16,2.16,0,0,1,148.19,212.38Zm0-14.4a2.16,2.16,0,1,1,2.16-2.16A2.16,2.16,0,0,1,148.19,198Zm0-14.4a2.16,2.16,0,1,1,2.16-2.16A2.16,2.16,0,0,1,148.19,183.58Zm7.2,79.2a2.16,2.16,0,1,1,2.16-2.16A2.16,2.16,0,0,1,155.39,262.78Zm0-14.4a2.16,2.16,0,1,1,2.16-2.16A2.16,2.16,0,0,1,155.39,248.38Zm0-14.4a2.16,2.16,0,1,1,2.16-2.16A2.16,2.16,0,0,1,155.39,234Zm0-14.4a2.16,2.16,0,1,1,2.16-2.16A2.16,2.16,0,0,1,155.39,219.58Zm0-14.4a2.16,2.16,0,1,1,2.16-2.16A2.16,2.16,0,0,1,155.39,205.18Zm0-14.4a2.16,2.16,0,1,1,2.16-2.16A2.16,2.16,0,0,1,155.39,190.78Zm0-14.4a2.16,2.16,0,1,1,2.16-2.16A2.16,2.16,0,0,1,155.39,176.39Zm7.2,79.2a2.16,2.16,0,1,1,2.16-2.16A2.16,2.16,0,0,1,162.59,255.58Zm0-14.4a2.16,2.16,0,1,1,2.16-2.16A2.16,2.16,0,0,1,162.59,241.18Zm0-14.4a2.16,2.16,0,1,1,2.16-2.16A2.16,2.16,0,0,1,162.59,226.78Zm0-14.4a2.16,2.16,0,1,1,2.16-2.16A2.16,2.16,0,0,1,162.59,212.38Zm0-14.4a2.16,2.16,0,1,1,2.16-2.16A2.16,2.16,0,0,1,162.59,198Zm0-14.4a2.16,2.16,0,1,1,2.16-2.16A2.16,2.16,0,0,1,162.59,183.58Zm0-14.4a2.16,2.16,0,1,1,2.16-2.16A2.16,2.16,0,0,1,162.59,169.18Zm7.2,93.6a2.16,2.16,0,1,1,2.16-2.16A2.16,2.16,0,0,1,169.79,262.78Zm0-14.4a2.16,2.16,0,1,1,2.16-2.16A2.16,2.16,0,0,1,169.79,248.38Zm0-14.4a2.16,2.16,0,1,1,2.16-2.16A2.16,2.16,0,0,1,169.79,234Zm0-14.4a2.16,2.16,0,1,1,2.16-2.16A2.16,2.16,0,0,1,169.79,219.58Zm0-14.4A2.16,2.16,0,1,1,172,203,2.16,2.16,0,0,1,169.79,205.18Zm0-14.4a2.16,2.16,0,1,1,2.16-2.16A2.16,2.16,0,0,1,169.79,190.78Zm0-14.4a2.16,2.16,0,1,1,2.16-2.16A2.16,2.16,0,0,1,169.79,176.39Zm0-14.4a2.16,2.16,0,1,1,2.16-2.16A2.16,2.16,0,0,1,169.79,162Zm7.2,93.6a2.16,2.16,0,1,1,2.16-2.16A2.16,2.16,0,0,1,177,255.58Zm0-14.4a2.16,2.16,0,1,1,2.16-2.16A2.16,2.16,0,0,1,177,241.18Zm0-14.4a2.16,2.16,0,1,1,2.16-2.16A2.16,2.16,0,0,1,177,226.78Zm0-14.4a2.16,2.16,0,1,1,2.16-2.16A2.16,2.16,0,0,1,177,212.38Zm0-14.4a2.16,2.16,0,1,1,2.16-2.16A2.16,2.16,0,0,1,177,198Zm0-14.4a2.16,2.16,0,1,1,2.16-2.16A2.16,2.16,0,0,1,177,183.58Zm0-14.4a2.16,2.16,0,1,1,2.16-2.16A2.16,2.16,0,0,1,177,169.18Zm0-14.4a2.16,2.16,0,1,1,2.16-2.16A2.16,2.16,0,0,1,177,154.78Zm7.2,108a2.16,2.16,0,1,1,2.16-2.16A2.16,2.16,0,0,1,184.2,262.78Zm0-14.4a2.16,2.16,0,1,1,2.16-2.16A2.16,2.16,0,0,1,184.2,248.38Zm0-14.4a2.16,2.16,0,1,1,2.16-2.16A2.16,2.16,0,0,1,184.2,234Zm0-14.4a2.16,2.16,0,1,1,2.16-2.16A2.16,2.16,0,0,1,184.2,219.58Zm0-14.4a2.16,2.16,0,1,1,2.16-2.16A2.16,2.16,0,0,1,184.2,205.18Zm0-14.4a2.16,2.16,0,1,1,2.16-2.16A2.16,2.16,0,0,1,184.2,190.78Zm0-14.4a2.16,2.16,0,1,1,2.16-2.16A2.16,2.16,0,0,1,184.2,176.39Zm0-14.4a2.16,2.16,0,1,1,2.16-2.16A2.16,2.16,0,0,1,184.2,162Zm0-14.4a2.16,2.16,0,1,1,2.16-2.16A2.16,2.16,0,0,1,184.2,147.59Zm7.2,108a2.16,2.16,0,1,1,2.16-2.16A2.16,2.16,0,0,1,191.39,255.58Zm0-14.4a2.16,2.16,0,1,1,2.16-2.16A2.16,2.16,0,0,1,191.39,241.18Zm0-14.4a2.16,2.16,0,1,1,2.16-2.16A2.16,2.16,0,0,1,191.39,226.78Zm0-14.4a2.16,2.16,0,1,1,2.16-2.16A2.16,2.16,0,0,1,191.39,212.38Zm0-14.4a2.16,2.16,0,1,1,2.16-2.16A2.16,2.16,0,0,1,191.39,198Zm0-14.4a2.16,2.16,0,1,1,2.16-2.16A2.16,2.16,0,0,1,191.39,183.58Zm0-14.4a2.16,2.16,0,1,1,2.16-2.16A2.16,2.16,0,0,1,191.39,169.18Zm0-14.4a2.16,2.16,0,1,1,2.16-2.16A2.16,2.16,0,0,1,191.39,154.78Zm0-14.4a2.16,2.16,0,1,1,2.16-2.16A2.16,2.16,0,0,1,191.39,140.38Zm7.2,122.4a2.16,2.16,0,1,1,2.16-2.16A2.16,2.16,0,0,1,198.6,262.78Zm0-14.4a2.16,2.16,0,1,1,2.16-2.16A2.16,2.16,0,0,1,198.6,248.38Zm0-14.4a2.16,2.16,0,1,1,2.16-2.16A2.16,2.16,0,0,1,198.6,234Zm0-14.4a2.16,2.16,0,1,1,2.16-2.16A2.16,2.16,0,0,1,198.6,219.58Zm0-14.4a2.16,2.16,0,1,1,2.16-2.16A2.16,2.16,0,0,1,198.6,205.18Zm0-14.4a2.16,2.16,0,1,1,2.16-2.16A2.16,2.16,0,0,1,198.6,190.78Zm0-14.4a2.16,2.16,0,1,1,2.16-2.16A2.16,2.16,0,0,1,198.6,176.39Zm0-14.4a2.16,2.16,0,1,1,2.16-2.16A2.16,2.16,0,0,1,198.6,162Zm0-14.4a2.16,2.16,0,1,1,2.16-2.16A2.16,2.16,0,0,1,198.6,147.59Zm7.2,108a2.16,2.16,0,1,1,2.16-2.16A2.16,2.16,0,0,1,205.8,255.58Zm0-14.4A2.16,2.16,0,1,1,208,239,2.16,2.16,0,0,1,205.8,241.18Zm0-14.4a2.16,2.16,0,1,1,2.16-2.16A2.16,2.16,0,0,1,205.8,226.78Zm0-14.4a2.16,2.16,0,1,1,2.16-2.16A2.16,2.16,0,0,1,205.8,212.38Zm0-14.4a2.16,2.16,0,1,1,2.16-2.16A2.16,2.16,0,0,1,205.8,198Zm0-14.4a2.16,2.16,0,1,1,2.16-2.16A2.16,2.16,0,0,1,205.8,183.58Zm0-14.4A2.16,2.16,0,1,1,208,167,2.16,2.16,0,0,1,205.8,169.18Zm0-14.4a2.16,2.16,0,1,1,2.16-2.16A2.16,2.16,0,0,1,205.8,154.78Zm0-14.4a2.16,2.16,0,1,1,2.16-2.16A2.16,2.16,0,0,1,205.8,140.38Zm7.2,122.4a2.16,2.16,0,1,1,2.16-2.16A2.16,2.16,0,0,1,213,262.78Zm0-14.4a2.16,2.16,0,1,1,2.16-2.16A2.16,2.16,0,0,1,213,248.38Zm0-14.4a2.16,2.16,0,1,1,2.16-2.16A2.16,2.16,0,0,1,213,234Zm0-14.4a2.16,2.16,0,1,1,2.16-2.16A2.16,2.16,0,0,1,213,219.58Zm0-14.4a2.16,2.16,0,1,1,2.16-2.16A2.16,2.16,0,0,1,213,205.18Zm0-14.4a2.16,2.16,0,1,1,2.16-2.16A2.16,2.16,0,0,1,213,190.78Zm0-14.4a2.16,2.16,0,1,1,2.16-2.16A2.16,2.16,0,0,1,213,176.39Zm0-14.4a2.16,2.16,0,1,1,2.16-2.16A2.16,2.16,0,0,1,213,162Zm0-14.4a2.16,2.16,0,1,1,2.16-2.16A2.16,2.16,0,0,1,213,147.59Zm0-14.4a2.16,2.16,0,1,1,2.16-2.16A2.16,2.16,0,0,1,213,133.18Zm7.2,122.4a2.16,2.16,0,1,1,2.16-2.16A2.16,2.16,0,0,1,220.2,255.58Zm0-14.4a2.16,2.16,0,1,1,2.16-2.16A2.16,2.16,0,0,1,220.2,241.18Zm0-14.4a2.16,2.16,0,1,1,2.16-2.16A2.16,2.16,0,0,1,220.2,226.78Zm0-14.4a2.16,2.16,0,1,1,2.16-2.16A2.16,2.16,0,0,1,220.2,212.38Zm0-14.4a2.16,2.16,0,1,1,2.16-2.16A2.16,2.16,0,0,1,220.2,198Zm0-14.4a2.16,2.16,0,1,1,2.16-2.16A2.16,2.16,0,0,1,220.2,183.58Zm0-14.4a2.16,2.16,0,1,1,2.16-2.16A2.16,2.16,0,0,1,220.2,169.18Zm0-14.4a2.16,2.16,0,1,1,2.16-2.16A2.16,2.16,0,0,1,220.2,154.78Zm0-14.4a2.16,2.16,0,1,1,2.16-2.16A2.16,2.16,0,0,1,220.2,140.38Zm7.2,122.4a2.16,2.16,0,1,1,2.16-2.16A2.16,2.16,0,0,1,227.4,262.78Zm0-14.4a2.16,2.16,0,1,1,2.16-2.16A2.16,2.16,0,0,1,227.4,248.38Zm0-14.4a2.16,2.16,0,1,1,2.16-2.16A2.16,2.16,0,0,1,227.4,234Zm0-14.4a2.16,2.16,0,1,1,2.16-2.16A2.16,2.16,0,0,1,227.4,219.58Zm0-14.4a2.16,2.16,0,1,1,2.16-2.16A2.16,2.16,0,0,1,227.4,205.18Zm0-14.4a2.16,2.16,0,1,1,2.16-2.16A2.16,2.16,0,0,1,227.4,190.78Zm0-14.4a2.16,2.16,0,1,1,2.16-2.16A2.16,2.16,0,0,1,227.4,176.39Zm0-14.4a2.16,2.16,0,1,1,2.16-2.16A2.16,2.16,0,0,1,227.4,162Zm0-14.4a2.16,2.16,0,1,1,2.16-2.16A2.16,2.16,0,0,1,227.4,147.59Zm0-14.4a2.16,2.16,0,1,1,2.16-2.16A2.16,2.16,0,0,1,227.4,133.18Zm7.2,122.4a2.16,2.16,0,1,1,2.16-2.16A2.16,2.16,0,0,1,234.6,255.58Zm0-14.4a2.16,2.16,0,1,1,2.16-2.16A2.16,2.16,0,0,1,234.6,241.18Zm0-14.4a2.16,2.16,0,1,1,2.16-2.16A2.16,2.16,0,0,1,234.6,226.78Zm0-14.4a2.16,2.16,0,1,1,2.16-2.16A2.16,2.16,0,0,1,234.6,212.38Zm0-14.4a2.16,2.16,0,1,1,2.16-2.16A2.16,2.16,0,0,1,234.6,198Zm0-14.4a2.16,2.16,0,1,1,2.16-2.16A2.16,2.16,0,0,1,234.6,183.58Zm0-14.4a2.16,2.16,0,1,1,2.16-2.16A2.16,2.16,0,0,1,234.6,169.18Zm0-14.4a2.16,2.16,0,1,1,2.16-2.16A2.16,2.16,0,0,1,234.6,154.78Zm0-14.4a2.16,2.16,0,1,1,2.16-2.16A2.16,2.16,0,0,1,234.6,140.38Zm7.2,122.4a2.16,2.16,0,1,1,2.16-2.16A2.16,2.16,0,0,1,241.8,262.78Zm0-14.4a2.16,2.16,0,1,1,2.16-2.16A2.16,2.16,0,0,1,241.8,248.38Zm0-14.4a2.16,2.16,0,1,1,2.16-2.16A2.16,2.16,0,0,1,241.8,234Zm0-14.4a2.16,2.16,0,1,1,2.16-2.16A2.16,2.16,0,0,1,241.8,219.58Zm0-14.4A2.16,2.16,0,1,1,244,203,2.16,2.16,0,0,1,241.8,205.18Zm0-14.4a2.16,2.16,0,1,1,2.16-2.16A2.16,2.16,0,0,1,241.8,190.78Zm0-14.4a2.16,2.16,0,1,1,2.16-2.16A2.16,2.16,0,0,1,241.8,176.39Zm0-14.4a2.16,2.16,0,1,1,2.16-2.16A2.16,2.16,0,0,1,241.8,162Zm0-14.4a2.16,2.16,0,1,1,2.16-2.16A2.16,2.16,0,0,1,241.8,147.59Zm0-14.4A2.16,2.16,0,1,1,244,131,2.16,2.16,0,0,1,241.8,133.18Zm7.2,122.4a2.16,2.16,0,1,1,2.16-2.16A2.16,2.16,0,0,1,249,255.58Zm0-14.4a2.16,2.16,0,1,1,2.16-2.16A2.16,2.16,0,0,1,249,241.18Zm0-14.4a2.16,2.16,0,1,1,2.16-2.16A2.16,2.16,0,0,1,249,226.78Zm0-14.4a2.16,2.16,0,1,1,2.16-2.16A2.16,2.16,0,0,1,249,212.38Zm0-14.4a2.16,2.16,0,1,1,2.16-2.16A2.16,2.16,0,0,1,249,198Zm0-14.4a2.16,2.16,0,1,1,2.16-2.16A2.16,2.16,0,0,1,249,183.58Zm0-14.4a2.16,2.16,0,1,1,2.16-2.16A2.16,2.16,0,0,1,249,169.18Zm0-14.4a2.16,2.16,0,1,1,2.16-2.16A2.16,2.16,0,0,1,249,154.78Zm0-14.4a2.16,2.16,0,1,1,2.16-2.16A2.16,2.16,0,0,1,249,140.38Zm0-14.4a2.16,2.16,0,1,1,2.16-2.16A2.16,2.16,0,0,1,249,126Zm0-14.4a2.16,2.16,0,1,1,2.16-2.16A2.16,2.16,0,0,1,249,111.58Zm7.2,151.2a2.16,2.16,0,1,1,2.16-2.16A2.16,2.16,0,0,1,256.2,262.78Zm0-14.4a2.16,2.16,0,1,1,2.16-2.16A2.16,2.16,0,0,1,256.2,248.38Zm0-14.4a2.16,2.16,0,1,1,2.16-2.16A2.16,2.16,0,0,1,256.2,234Zm0-14.4a2.16,2.16,0,1,1,2.16-2.16A2.16,2.16,0,0,1,256.2,219.58Zm0-14.4a2.16,2.16,0,1,1,2.16-2.16A2.16,2.16,0,0,1,256.2,205.18Zm0-14.4a2.16,2.16,0,1,1,2.16-2.16A2.16,2.16,0,0,1,256.2,190.78Zm0-14.4a2.16,2.16,0,1,1,2.16-2.16A2.16,2.16,0,0,1,256.2,176.39Zm0-14.4a2.16,2.16,0,1,1,2.16-2.16A2.16,2.16,0,0,1,256.2,162Zm0-14.4a2.16,2.16,0,1,1,2.16-2.16A2.16,2.16,0,0,1,256.2,147.59Zm0-14.4a2.16,2.16,0,1,1,2.16-2.16A2.16,2.16,0,0,1,256.2,133.18Zm0-14.4a2.16,2.16,0,1,1,2.16-2.16A2.16,2.16,0,0,1,256.2,118.79Zm0-14.4a2.16,2.16,0,1,1,2.16-2.16A2.16,2.16,0,0,1,256.2,104.39Zm7.2,151.2a2.16,2.16,0,1,1,2.16-2.16A2.16,2.16,0,0,1,263.4,255.58Zm0-14.4a2.16,2.16,0,1,1,2.16-2.16A2.16,2.16,0,0,1,263.4,241.18Zm0-14.4a2.16,2.16,0,1,1,2.16-2.16A2.16,2.16,0,0,1,263.4,226.78Zm0-14.4a2.16,2.16,0,1,1,2.16-2.16A2.16,2.16,0,0,1,263.4,212.38Zm0-14.4a2.16,2.16,0,1,1,2.16-2.16A2.16,2.16,0,0,1,263.4,198Zm0-14.4a2.16,2.16,0,1,1,2.16-2.16A2.16,2.16,0,0,1,263.4,183.58Zm0-14.4a2.16,2.16,0,1,1,2.16-2.16A2.16,2.16,0,0,1,263.4,169.18Zm0-14.4a2.16,2.16,0,1,1,2.16-2.16A2.16,2.16,0,0,1,263.4,154.78Zm0-14.4a2.16,2.16,0,1,1,2.16-2.16A2.16,2.16,0,0,1,263.4,140.38Zm0-14.4a2.16,2.16,0,1,1,2.16-2.16A2.16,2.16,0,0,1,263.4,126Zm0-14.4a2.16,2.16,0,1,1,2.16-2.16A2.16,2.16,0,0,1,263.4,111.58Zm0-14.4A2.16,2.16,0,1,1,265.56,95,2.16,2.16,0,0,1,263.4,97.18Zm7.2,165.6a2.16,2.16,0,1,1,2.16-2.16A2.16,2.16,0,0,1,270.6,262.78Zm0-14.4a2.16,2.16,0,1,1,2.16-2.16A2.16,2.16,0,0,1,270.6,248.38Zm0-14.4a2.16,2.16,0,1,1,2.16-2.16A2.16,2.16,0,0,1,270.6,234Zm0-14.4a2.16,2.16,0,1,1,2.16-2.16A2.16,2.16,0,0,1,270.6,219.58Zm0-14.4a2.16,2.16,0,1,1,2.16-2.16A2.16,2.16,0,0,1,270.6,205.18Zm0-14.4a2.16,2.16,0,1,1,2.16-2.16A2.16,2.16,0,0,1,270.6,190.78Zm0-14.4a2.16,2.16,0,1,1,2.16-2.16A2.16,2.16,0,0,1,270.6,176.39Zm0-14.4a2.16,2.16,0,1,1,2.16-2.16A2.16,2.16,0,0,1,270.6,162Zm0-14.4a2.16,2.16,0,1,1,2.16-2.16A2.16,2.16,0,0,1,270.6,147.59Zm0-14.4a2.16,2.16,0,1,1,2.16-2.16A2.16,2.16,0,0,1,270.6,133.18Zm0-14.4a2.16,2.16,0,1,1,2.16-2.16A2.16,2.16,0,0,1,270.6,118.79Zm0-14.4a2.16,2.16,0,1,1,2.16-2.16A2.16,2.16,0,0,1,270.6,104.39Zm0-14.4a2.16,2.16,0,1,1,2.16-2.16A2.16,2.16,0,0,1,270.6,90Zm0-14.4a2.16,2.16,0,1,1,2.16-2.16A2.16,2.16,0,0,1,270.6,75.59Zm7.2,180a2.16,2.16,0,1,1,2.16-2.16A2.16,2.16,0,0,1,277.8,255.58Zm0-14.4A2.16,2.16,0,1,1,280,239,2.16,2.16,0,0,1,277.8,241.18Zm0-14.4a2.16,2.16,0,1,1,2.16-2.16A2.16,2.16,0,0,1,277.8,226.78Zm0-14.4a2.16,2.16,0,1,1,2.16-2.16A2.16,2.16,0,0,1,277.8,212.38Zm0-14.4a2.16,2.16,0,1,1,2.16-2.16A2.16,2.16,0,0,1,277.8,198Zm0-14.4a2.16,2.16,0,1,1,2.16-2.16A2.16,2.16,0,0,1,277.8,183.58Zm0-14.4A2.16,2.16,0,1,1,280,167,2.16,2.16,0,0,1,277.8,169.18Zm0-14.4a2.16,2.16,0,1,1,2.16-2.16A2.16,2.16,0,0,1,277.8,154.78Zm0-14.4a2.16,2.16,0,1,1,2.16-2.16A2.16,2.16,0,0,1,277.8,140.38Zm0-14.4a2.16,2.16,0,1,1,2.16-2.16A2.16,2.16,0,0,1,277.8,126Zm0-14.4a2.16,2.16,0,1,1,2.16-2.16A2.16,2.16,0,0,1,277.8,111.58Zm0-14.4A2.16,2.16,0,1,1,280,95,2.16,2.16,0,0,1,277.8,97.18Zm0-14.4A2.16,2.16,0,1,1,280,80.62,2.16,2.16,0,0,1,277.8,82.78Zm0-14.4A2.16,2.16,0,1,1,280,66.23,2.16,2.16,0,0,1,277.8,68.38Zm7.2,194.4a2.16,2.16,0,1,1,2.16-2.16A2.16,2.16,0,0,1,285,262.78Zm0-14.4a2.16,2.16,0,1,1,2.16-2.16A2.16,2.16,0,0,1,285,248.38Zm0-14.4a2.16,2.16,0,1,1,2.16-2.16A2.16,2.16,0,0,1,285,234Zm0-14.4a2.16,2.16,0,1,1,2.16-2.16A2.16,2.16,0,0,1,285,219.58Zm0-14.4a2.16,2.16,0,1,1,2.16-2.16A2.16,2.16,0,0,1,285,205.18Zm0-14.4a2.16,2.16,0,1,1,2.16-2.16A2.16,2.16,0,0,1,285,190.78Zm0-14.4a2.16,2.16,0,1,1,2.16-2.16A2.16,2.16,0,0,1,285,176.39Zm0-14.4a2.16,2.16,0,1,1,2.16-2.16A2.16,2.16,0,0,1,285,162Zm0-14.4a2.16,2.16,0,1,1,2.16-2.16A2.16,2.16,0,0,1,285,147.59Zm0-14.4a2.16,2.16,0,1,1,2.16-2.16A2.16,2.16,0,0,1,285,133.18Zm0-14.4a2.16,2.16,0,1,1,2.16-2.16A2.16,2.16,0,0,1,285,118.79Zm0-14.4a2.16,2.16,0,1,1,2.16-2.16A2.16,2.16,0,0,1,285,104.39ZM285,90a2.16,2.16,0,1,1,2.16-2.16A2.16,2.16,0,0,1,285,90Zm0-14.4a2.16,2.16,0,1,1,2.16-2.16A2.16,2.16,0,0,1,285,75.59Zm0-14.4A2.16,2.16,0,1,1,287.16,59,2.16,2.16,0,0,1,285,61.19Zm7.2,194.4a2.16,2.16,0,1,1,2.16-2.16A2.16,2.16,0,0,1,292.2,255.58Zm0-14.4a2.16,2.16,0,1,1,2.16-2.16A2.16,2.16,0,0,1,292.2,241.18Zm0-14.4a2.16,2.16,0,1,1,2.16-2.16A2.16,2.16,0,0,1,292.2,226.78Zm0-14.4a2.16,2.16,0,1,1,2.16-2.16A2.16,2.16,0,0,1,292.2,212.38Zm0-14.4a2.16,2.16,0,1,1,2.16-2.16A2.16,2.16,0,0,1,292.2,198Zm0-14.4a2.16,2.16,0,1,1,2.16-2.16A2.16,2.16,0,0,1,292.2,183.58Zm0-14.4a2.16,2.16,0,1,1,2.16-2.16A2.16,2.16,0,0,1,292.2,169.18Zm0-14.4a2.16,2.16,0,1,1,2.16-2.16A2.16,2.16,0,0,1,292.2,154.78Zm0-14.4a2.16,2.16,0,1,1,2.16-2.16A2.16,2.16,0,0,1,292.2,140.38Zm0-14.4a2.16,2.16,0,1,1,2.16-2.16A2.16,2.16,0,0,1,292.2,126Zm0-14.4a2.16,2.16,0,1,1,2.16-2.16A2.16,2.16,0,0,1,292.2,111.58Zm0-14.4A2.16,2.16,0,1,1,294.36,95,2.16,2.16,0,0,1,292.2,97.18Zm0-14.4a2.16,2.16,0,1,1,2.16-2.16A2.16,2.16,0,0,1,292.2,82.78Zm0-14.4a2.16,2.16,0,1,1,2.16-2.16A2.16,2.16,0,0,1,292.2,68.38Zm7.2,194.4a2.16,2.16,0,1,1,2.16-2.16A2.16,2.16,0,0,1,299.4,262.78Zm0-14.4a2.16,2.16,0,1,1,2.16-2.16A2.16,2.16,0,0,1,299.4,248.38Zm0-14.4a2.16,2.16,0,1,1,2.16-2.16A2.16,2.16,0,0,1,299.4,234Zm0-14.4a2.16,2.16,0,1,1,2.16-2.16A2.16,2.16,0,0,1,299.4,219.58Zm0-14.4a2.16,2.16,0,1,1,2.16-2.16A2.16,2.16,0,0,1,299.4,205.18Zm0-14.4a2.16,2.16,0,1,1,2.16-2.16A2.16,2.16,0,0,1,299.4,190.78Zm0-14.4a2.16,2.16,0,1,1,2.16-2.16A2.16,2.16,0,0,1,299.4,176.39Zm0-14.4a2.16,2.16,0,1,1,2.16-2.16A2.16,2.16,0,0,1,299.4,162Zm0-14.4a2.16,2.16,0,1,1,2.16-2.16A2.16,2.16,0,0,1,299.4,147.59Zm0-14.4a2.16,2.16,0,1,1,2.16-2.16A2.16,2.16,0,0,1,299.4,133.18Zm0-14.4a2.16,2.16,0,1,1,2.16-2.16A2.16,2.16,0,0,1,299.4,118.79Zm0-14.4a2.16,2.16,0,1,1,2.16-2.16A2.16,2.16,0,0,1,299.4,104.39Zm0-14.4a2.16,2.16,0,1,1,2.16-2.16A2.16,2.16,0,0,1,299.4,90Zm0-14.4a2.16,2.16,0,1,1,2.16-2.16A2.16,2.16,0,0,1,299.4,75.59Zm0-14.4A2.16,2.16,0,1,1,301.56,59,2.16,2.16,0,0,1,299.4,61.19Zm7.2,194.4a2.16,2.16,0,1,1,2.16-2.16A2.16,2.16,0,0,1,306.6,255.58Zm0-14.4a2.16,2.16,0,1,1,2.16-2.16A2.16,2.16,0,0,1,306.6,241.18Zm0-14.4a2.16,2.16,0,1,1,2.16-2.16A2.16,2.16,0,0,1,306.6,226.78Zm0-14.4a2.16,2.16,0,1,1,2.16-2.16A2.16,2.16,0,0,1,306.6,212.38Zm0-14.4a2.16,2.16,0,1,1,2.16-2.16A2.16,2.16,0,0,1,306.6,198Zm0-14.4a2.16,2.16,0,1,1,2.16-2.16A2.16,2.16,0,0,1,306.6,183.58Zm0-14.4a2.16,2.16,0,1,1,2.16-2.16A2.16,2.16,0,0,1,306.6,169.18Zm0-14.4a2.16,2.16,0,1,1,2.16-2.16A2.16,2.16,0,0,1,306.6,154.78Zm0-14.4a2.16,2.16,0,1,1,2.16-2.16A2.16,2.16,0,0,1,306.6,140.38Zm0-14.4a2.16,2.16,0,1,1,2.16-2.16A2.16,2.16,0,0,1,306.6,126Zm0-14.4a2.16,2.16,0,1,1,2.16-2.16A2.16,2.16,0,0,1,306.6,111.58Zm0-14.4A2.16,2.16,0,1,1,308.76,95,2.16,2.16,0,0,1,306.6,97.18Zm0-14.4a2.16,2.16,0,1,1,2.16-2.16A2.16,2.16,0,0,1,306.6,82.78Zm0-14.4a2.16,2.16,0,1,1,2.16-2.16A2.16,2.16,0,0,1,306.6,68.38Zm0-14.4a2.16,2.16,0,1,1,2.16-2.16A2.16,2.16,0,0,1,306.6,54Zm7.2,208.8a2.16,2.16,0,1,1,2.16-2.16A2.16,2.16,0,0,1,313.8,262.78Zm0-14.4a2.16,2.16,0,1,1,2.16-2.16A2.16,2.16,0,0,1,313.8,248.38Zm0-14.4a2.16,2.16,0,1,1,2.16-2.16A2.16,2.16,0,0,1,313.8,234Zm0-14.4a2.16,2.16,0,1,1,2.16-2.16A2.16,2.16,0,0,1,313.8,219.58Zm0-14.4A2.16,2.16,0,1,1,316,203,2.16,2.16,0,0,1,313.8,205.18Zm0-14.4a2.16,2.16,0,1,1,2.16-2.16A2.16,2.16,0,0,1,313.8,190.78Zm0-14.4a2.16,2.16,0,1,1,2.16-2.16A2.16,2.16,0,0,1,313.8,176.39Zm0-14.4a2.16,2.16,0,1,1,2.16-2.16A2.16,2.16,0,0,1,313.8,162Zm0-14.4a2.16,2.16,0,1,1,2.16-2.16A2.16,2.16,0,0,1,313.8,147.59Zm0-14.4A2.16,2.16,0,1,1,316,131,2.16,2.16,0,0,1,313.8,133.18Zm0-14.4a2.16,2.16,0,1,1,2.16-2.16A2.16,2.16,0,0,1,313.8,118.79Zm0-14.4a2.16,2.16,0,1,1,2.16-2.16A2.16,2.16,0,0,1,313.8,104.39Zm0-14.4A2.16,2.16,0,1,1,316,87.83,2.16,2.16,0,0,1,313.8,90Zm0-14.4A2.16,2.16,0,1,1,316,73.43,2.16,2.16,0,0,1,313.8,75.59Zm0-14.4A2.16,2.16,0,1,1,316,59,2.16,2.16,0,0,1,313.8,61.19Zm0-14.4A2.16,2.16,0,1,1,316,44.63,2.16,2.16,0,0,1,313.8,46.79Zm7.2,208.8a2.16,2.16,0,1,1,2.16-2.16A2.16,2.16,0,0,1,321,255.58Zm0-14.4a2.16,2.16,0,1,1,2.16-2.16A2.16,2.16,0,0,1,321,241.18Zm0-14.4a2.16,2.16,0,1,1,2.16-2.16A2.16,2.16,0,0,1,321,226.78Zm0-14.4a2.16,2.16,0,1,1,2.16-2.16A2.16,2.16,0,0,1,321,212.38Zm0-14.4a2.16,2.16,0,1,1,2.16-2.16A2.16,2.16,0,0,1,321,198Zm0-14.4a2.16,2.16,0,1,1,2.16-2.16A2.16,2.16,0,0,1,321,183.58Zm0-14.4a2.16,2.16,0,1,1,2.16-2.16A2.16,2.16,0,0,1,321,169.18Zm0-14.4a2.16,2.16,0,1,1,2.16-2.16A2.16,2.16,0,0,1,321,154.78Zm0-14.4a2.16,2.16,0,1,1,2.16-2.16A2.16,2.16,0,0,1,321,140.38Zm0-14.4a2.16,2.16,0,1,1,2.16-2.16A2.16,2.16,0,0,1,321,126Zm0-14.4a2.16,2.16,0,1,1,2.16-2.16A2.16,2.16,0,0,1,321,111.58Zm0-14.4A2.16,2.16,0,1,1,323.16,95,2.16,2.16,0,0,1,321,97.18Zm0-14.4a2.16,2.16,0,1,1,2.16-2.16A2.16,2.16,0,0,1,321,82.78Zm0-14.4a2.16,2.16,0,1,1,2.16-2.16A2.16,2.16,0,0,1,321,68.38ZM321,54a2.16,2.16,0,1,1,2.16-2.16A2.16,2.16,0,0,1,321,54Zm7.2,194.4a2.16,2.16,0,1,1,2.16-2.16A2.16,2.16,0,0,1,328.2,248.38Zm0-14.4a2.16,2.16,0,1,1,2.16-2.16A2.16,2.16,0,0,1,328.2,234Zm0-14.4a2.16,2.16,0,1,1,2.16-2.16A2.16,2.16,0,0,1,328.2,219.58Zm0-14.4a2.16,2.16,0,1,1,2.16-2.16A2.16,2.16,0,0,1,328.2,205.18Zm0-14.4a2.16,2.16,0,1,1,2.16-2.16A2.16,2.16,0,0,1,328.2,190.78Zm0-14.4a2.16,2.16,0,1,1,2.16-2.16A2.16,2.16,0,0,1,328.2,176.39Zm0-14.4a2.16,2.16,0,1,1,2.16-2.16A2.16,2.16,0,0,1,328.2,162Zm0-14.4a2.16,2.16,0,1,1,2.16-2.16A2.16,2.16,0,0,1,328.2,147.59Zm0-14.4a2.16,2.16,0,1,1,2.16-2.16A2.16,2.16,0,0,1,328.2,133.18Zm0-14.4a2.16,2.16,0,1,1,2.16-2.16A2.16,2.16,0,0,1,328.2,118.79Zm0-14.4a2.16,2.16,0,1,1,2.16-2.16A2.16,2.16,0,0,1,328.2,104.39Zm0-14.4a2.16,2.16,0,1,1,2.16-2.16A2.16,2.16,0,0,1,328.2,90Zm0-14.4a2.16,2.16,0,1,1,2.16-2.16A2.16,2.16,0,0,1,328.2,75.59Zm0-14.4A2.16,2.16,0,1,1,330.36,59,2.16,2.16,0,0,1,328.2,61.19Zm0-14.4a2.16,2.16,0,1,1,2.16-2.16A2.16,2.16,0,0,1,328.2,46.79Zm7.2,208.8a2.16,2.16,0,1,1,2.16-2.16A2.16,2.16,0,0,1,335.4,255.58Zm0-14.4a2.16,2.16,0,1,1,2.16-2.16A2.16,2.16,0,0,1,335.4,241.18Zm0-14.4a2.16,2.16,0,1,1,2.16-2.16A2.16,2.16,0,0,1,335.4,226.78Zm0-14.4a2.16,2.16,0,1,1,2.16-2.16A2.16,2.16,0,0,1,335.4,212.38Zm0-14.4a2.16,2.16,0,1,1,2.16-2.16A2.16,2.16,0,0,1,335.4,198Zm0-14.4a2.16,2.16,0,1,1,2.16-2.16A2.16,2.16,0,0,1,335.4,183.58Zm0-14.4a2.16,2.16,0,1,1,2.16-2.16A2.16,2.16,0,0,1,335.4,169.18Zm0-14.4a2.16,2.16,0,1,1,2.16-2.16A2.16,2.16,0,0,1,335.4,154.78Zm0-14.4a2.16,2.16,0,1,1,2.16-2.16A2.16,2.16,0,0,1,335.4,140.38Zm0-14.4a2.16,2.16,0,1,1,2.16-2.16A2.16,2.16,0,0,1,335.4,126Zm0-14.4a2.16,2.16,0,1,1,2.16-2.16A2.16,2.16,0,0,1,335.4,111.58Zm0-14.4A2.16,2.16,0,1,1,337.56,95,2.16,2.16,0,0,1,335.4,97.18Zm0-14.4a2.16,2.16,0,1,1,2.16-2.16A2.16,2.16,0,0,1,335.4,82.78Zm0-14.4a2.16,2.16,0,1,1,2.16-2.16A2.16,2.16,0,0,1,335.4,68.38Zm0-14.4a2.16,2.16,0,1,1,2.16-2.16A2.16,2.16,0,0,1,335.4,54Zm0-14.4a2.16,2.16,0,1,1,2.16-2.16A2.16,2.16,0,0,1,335.4,39.58Zm7.2,223.2a2.16,2.16,0,1,1,2.16-2.16A2.16,2.16,0,0,1,342.6,262.78Zm0-14.4a2.16,2.16,0,1,1,2.16-2.16A2.16,2.16,0,0,1,342.6,248.38Zm0-14.4a2.16,2.16,0,1,1,2.16-2.16A2.16,2.16,0,0,1,342.6,234Zm0-14.4a2.16,2.16,0,1,1,2.16-2.16A2.16,2.16,0,0,1,342.6,219.58Zm0-14.4a2.16,2.16,0,1,1,2.16-2.16A2.16,2.16,0,0,1,342.6,205.18Zm0-14.4a2.16,2.16,0,1,1,2.16-2.16A2.16,2.16,0,0,1,342.6,190.78Zm0-14.4a2.16,2.16,0,1,1,2.16-2.16A2.16,2.16,0,0,1,342.6,176.39Zm0-14.4a2.16,2.16,0,1,1,2.16-2.16A2.16,2.16,0,0,1,342.6,162Zm0-14.4a2.16,2.16,0,1,1,2.16-2.16A2.16,2.16,0,0,1,342.6,147.59Zm0-14.4a2.16,2.16,0,1,1,2.16-2.16A2.16,2.16,0,0,1,342.6,133.18Zm0-14.4a2.16,2.16,0,1,1,2.16-2.16A2.16,2.16,0,0,1,342.6,118.79Zm0-14.4a2.16,2.16,0,1,1,2.16-2.16A2.16,2.16,0,0,1,342.6,104.39Zm0-14.4a2.16,2.16,0,1,1,2.16-2.16A2.16,2.16,0,0,1,342.6,90Zm0-14.4a2.16,2.16,0,1,1,2.16-2.16A2.16,2.16,0,0,1,342.6,75.59Zm0-14.4A2.16,2.16,0,1,1,344.76,59,2.16,2.16,0,0,1,342.6,61.19Zm0-14.4a2.16,2.16,0,1,1,2.16-2.16A2.16,2.16,0,0,1,342.6,46.79Zm7.2,208.8a2.16,2.16,0,1,1,2.16-2.16A2.16,2.16,0,0,1,349.8,255.58Zm0-14.4A2.16,2.16,0,1,1,352,239,2.16,2.16,0,0,1,349.8,241.18Zm0-14.4a2.16,2.16,0,1,1,2.16-2.16A2.16,2.16,0,0,1,349.8,226.78Zm0-14.4a2.16,2.16,0,1,1,2.16-2.16A2.16,2.16,0,0,1,349.8,212.38Zm0-14.4a2.16,2.16,0,1,1,2.16-2.16A2.16,2.16,0,0,1,349.8,198Zm0-14.4a2.16,2.16,0,1,1,2.16-2.16A2.16,2.16,0,0,1,349.8,183.58Zm0-14.4A2.16,2.16,0,1,1,352,167,2.16,2.16,0,0,1,349.8,169.18Zm0-14.4a2.16,2.16,0,1,1,2.16-2.16A2.16,2.16,0,0,1,349.8,154.78Zm0-14.4a2.16,2.16,0,1,1,2.16-2.16A2.16,2.16,0,0,1,349.8,140.38Zm0-14.4a2.16,2.16,0,1,1,2.16-2.16A2.16,2.16,0,0,1,349.8,126Zm0-14.4a2.16,2.16,0,1,1,2.16-2.16A2.16,2.16,0,0,1,349.8,111.58Zm0-14.4A2.16,2.16,0,1,1,352,95,2.16,2.16,0,0,1,349.8,97.18Zm0-14.4A2.16,2.16,0,1,1,352,80.62,2.16,2.16,0,0,1,349.8,82.78Zm0-14.4A2.16,2.16,0,1,1,352,66.23,2.16,2.16,0,0,1,349.8,68.38Zm0-14.4A2.16,2.16,0,1,1,352,51.82,2.16,2.16,0,0,1,349.8,54Zm0-14.4A2.16,2.16,0,1,1,352,37.43,2.16,2.16,0,0,1,349.8,39.58Zm7.2,223.2a2.16,2.16,0,1,1,2.16-2.16A2.16,2.16,0,0,1,357,262.78Zm0-14.4a2.16,2.16,0,1,1,2.16-2.16A2.16,2.16,0,0,1,357,248.38Zm0-14.4a2.16,2.16,0,1,1,2.16-2.16A2.16,2.16,0,0,1,357,234Zm0-14.4a2.16,2.16,0,1,1,2.16-2.16A2.16,2.16,0,0,1,357,219.58Zm0-14.4a2.16,2.16,0,1,1,2.16-2.16A2.16,2.16,0,0,1,357,205.18Zm0-14.4a2.16,2.16,0,1,1,2.16-2.16A2.16,2.16,0,0,1,357,190.78Zm0-14.4a2.16,2.16,0,1,1,2.16-2.16A2.16,2.16,0,0,1,357,176.39Zm0-14.4a2.16,2.16,0,1,1,2.16-2.16A2.16,2.16,0,0,1,357,162Zm0-14.4a2.16,2.16,0,1,1,2.16-2.16A2.16,2.16,0,0,1,357,147.59Zm0-14.4a2.16,2.16,0,1,1,2.16-2.16A2.16,2.16,0,0,1,357,133.18Zm0-14.4a2.16,2.16,0,1,1,2.16-2.16A2.16,2.16,0,0,1,357,118.79Zm0-14.4a2.16,2.16,0,1,1,2.16-2.16A2.16,2.16,0,0,1,357,104.39ZM357,90a2.16,2.16,0,1,1,2.16-2.16A2.16,2.16,0,0,1,357,90Zm0-14.4a2.16,2.16,0,1,1,2.16-2.16A2.16,2.16,0,0,1,357,75.59Zm0-14.4A2.16,2.16,0,1,1,359.16,59,2.16,2.16,0,0,1,357,61.19Zm0-14.4a2.16,2.16,0,1,1,2.16-2.16A2.16,2.16,0,0,1,357,46.79Zm7.2,208.8a2.16,2.16,0,1,1,2.16-2.16A2.16,2.16,0,0,1,364.2,255.58Zm0-14.4a2.16,2.16,0,1,1,2.16-2.16A2.16,2.16,0,0,1,364.2,241.18Zm0-14.4a2.16,2.16,0,1,1,2.16-2.16A2.16,2.16,0,0,1,364.2,226.78Zm0-14.4a2.16,2.16,0,1,1,2.16-2.16A2.16,2.16,0,0,1,364.2,212.38Zm0-14.4a2.16,2.16,0,1,1,2.16-2.16A2.16,2.16,0,0,1,364.2,198Zm0-14.4a2.16,2.16,0,1,1,2.16-2.16A2.16,2.16,0,0,1,364.2,183.58Zm0-14.4a2.16,2.16,0,1,1,2.16-2.16A2.16,2.16,0,0,1,364.2,169.18Zm0-14.4a2.16,2.16,0,1,1,2.16-2.16A2.16,2.16,0,0,1,364.2,154.78Zm0-14.4a2.16,2.16,0,1,1,2.16-2.16A2.16,2.16,0,0,1,364.2,140.38Zm0-14.4a2.16,2.16,0,1,1,2.16-2.16A2.16,2.16,0,0,1,364.2,126Zm0-14.4a2.16,2.16,0,1,1,2.16-2.16A2.16,2.16,0,0,1,364.2,111.58Zm0-14.4A2.16,2.16,0,1,1,366.36,95,2.16,2.16,0,0,1,364.2,97.18Zm0-14.4a2.16,2.16,0,1,1,2.16-2.16A2.16,2.16,0,0,1,364.2,82.78Zm0-14.4a2.16,2.16,0,1,1,2.16-2.16A2.16,2.16,0,0,1,364.2,68.38Zm0-14.4a2.16,2.16,0,1,1,2.16-2.16A2.16,2.16,0,0,1,364.2,54Zm0-14.4a2.16,2.16,0,1,1,2.16-2.16A2.16,2.16,0,0,1,364.2,39.58Zm7.2,223.2a2.16,2.16,0,1,1,2.16-2.16A2.16,2.16,0,0,1,371.4,262.78Zm0-14.4a2.16,2.16,0,1,1,2.16-2.16A2.16,2.16,0,0,1,371.4,248.38Zm0-14.4a2.16,2.16,0,1,1,2.16-2.16A2.16,2.16,0,0,1,371.4,234Zm0-14.4a2.16,2.16,0,1,1,2.16-2.16A2.16,2.16,0,0,1,371.4,219.58Zm0-14.4a2.16,2.16,0,1,1,2.16-2.16A2.16,2.16,0,0,1,371.4,205.18Zm0-14.4a2.16,2.16,0,1,1,2.16-2.16A2.16,2.16,0,0,1,371.4,190.78Zm0-14.4a2.16,2.16,0,1,1,2.16-2.16A2.16,2.16,0,0,1,371.4,176.39Zm0-14.4a2.16,2.16,0,1,1,2.16-2.16A2.16,2.16,0,0,1,371.4,162Zm0-14.4a2.16,2.16,0,1,1,2.16-2.16A2.16,2.16,0,0,1,371.4,147.59Zm0-14.4a2.16,2.16,0,1,1,2.16-2.16A2.16,2.16,0,0,1,371.4,133.18Zm0-14.4a2.16,2.16,0,1,1,2.16-2.16A2.16,2.16,0,0,1,371.4,118.79Zm0-14.4a2.16,2.16,0,1,1,2.16-2.16A2.16,2.16,0,0,1,371.4,104.39Zm0-14.4a2.16,2.16,0,1,1,2.16-2.16A2.16,2.16,0,0,1,371.4,90Zm0-14.4a2.16,2.16,0,1,1,2.16-2.16A2.16,2.16,0,0,1,371.4,75.59Zm0-14.4A2.16,2.16,0,1,1,373.56,59,2.16,2.16,0,0,1,371.4,61.19Zm0-14.4a2.16,2.16,0,1,1,2.16-2.16A2.16,2.16,0,0,1,371.4,46.79Zm7.2,208.8a2.16,2.16,0,1,1,2.16-2.16A2.16,2.16,0,0,1,378.6,255.58Zm0-14.4a2.16,2.16,0,1,1,2.16-2.16A2.16,2.16,0,0,1,378.6,241.18Zm0-14.4a2.16,2.16,0,1,1,2.16-2.16A2.16,2.16,0,0,1,378.6,226.78Zm0-14.4a2.16,2.16,0,1,1,2.16-2.16A2.16,2.16,0,0,1,378.6,212.38Zm0-14.4a2.16,2.16,0,1,1,2.16-2.16A2.16,2.16,0,0,1,378.6,198Zm0-14.4a2.16,2.16,0,1,1,2.16-2.16A2.16,2.16,0,0,1,378.6,183.58Zm0-14.4a2.16,2.16,0,1,1,2.16-2.16A2.16,2.16,0,0,1,378.6,169.18Zm0-14.4a2.16,2.16,0,1,1,2.16-2.16A2.16,2.16,0,0,1,378.6,154.78Zm0-14.4a2.16,2.16,0,1,1,2.16-2.16A2.16,2.16,0,0,1,378.6,140.38Zm0-14.4a2.16,2.16,0,1,1,2.16-2.16A2.16,2.16,0,0,1,378.6,126Zm0-14.4a2.16,2.16,0,1,1,2.16-2.16A2.16,2.16,0,0,1,378.6,111.58Zm0-14.4A2.16,2.16,0,1,1,380.76,95,2.16,2.16,0,0,1,378.6,97.18Zm0-14.4a2.16,2.16,0,1,1,2.16-2.16A2.16,2.16,0,0,1,378.6,82.78Zm0-14.4a2.16,2.16,0,1,1,2.16-2.16A2.16,2.16,0,0,1,378.6,68.38Zm0-14.4a2.16,2.16,0,1,1,2.16-2.16A2.16,2.16,0,0,1,378.6,54Zm0-14.4a2.16,2.16,0,1,1,2.16-2.16A2.16,2.16,0,0,1,378.6,39.58Zm7.2,208.8a2.16,2.16,0,1,1,2.16-2.16A2.16,2.16,0,0,1,385.8,248.38Zm0-14.4a2.16,2.16,0,1,1,2.16-2.16A2.16,2.16,0,0,1,385.8,234Zm0-14.4a2.16,2.16,0,1,1,2.16-2.16A2.16,2.16,0,0,1,385.8,219.58Zm0-14.4A2.16,2.16,0,1,1,388,203,2.16,2.16,0,0,1,385.8,205.18Zm0-14.4a2.16,2.16,0,1,1,2.16-2.16A2.16,2.16,0,0,1,385.8,190.78Zm0-14.4a2.16,2.16,0,1,1,2.16-2.16A2.16,2.16,0,0,1,385.8,176.39Zm0-14.4a2.16,2.16,0,1,1,2.16-2.16A2.16,2.16,0,0,1,385.8,162Zm0-14.4a2.16,2.16,0,1,1,2.16-2.16A2.16,2.16,0,0,1,385.8,147.59Zm0-14.4A2.16,2.16,0,1,1,388,131,2.16,2.16,0,0,1,385.8,133.18Zm0-14.4a2.16,2.16,0,1,1,2.16-2.16A2.16,2.16,0,0,1,385.8,118.79Zm0-14.4a2.16,2.16,0,1,1,2.16-2.16A2.16,2.16,0,0,1,385.8,104.39Zm0-14.4A2.16,2.16,0,1,1,388,87.83,2.16,2.16,0,0,1,385.8,90Zm0-14.4A2.16,2.16,0,1,1,388,73.43,2.16,2.16,0,0,1,385.8,75.59Zm0-14.4A2.16,2.16,0,1,1,388,59,2.16,2.16,0,0,1,385.8,61.19Zm0-14.4A2.16,2.16,0,1,1,388,44.63,2.16,2.16,0,0,1,385.8,46.79Zm7.2,208.8a2.16,2.16,0,1,1,2.16-2.16A2.16,2.16,0,0,1,393,255.58Zm0-14.4a2.16,2.16,0,1,1,2.16-2.16A2.16,2.16,0,0,1,393,241.18Zm0-14.4a2.16,2.16,0,1,1,2.16-2.16A2.16,2.16,0,0,1,393,226.78Zm0-14.4a2.16,2.16,0,1,1,2.16-2.16A2.16,2.16,0,0,1,393,212.38Zm0-14.4a2.16,2.16,0,1,1,2.16-2.16A2.16,2.16,0,0,1,393,198Zm0-14.4a2.16,2.16,0,1,1,2.16-2.16A2.16,2.16,0,0,1,393,183.58Zm0-14.4a2.16,2.16,0,1,1,2.16-2.16A2.16,2.16,0,0,1,393,169.18Zm0-14.4a2.16,2.16,0,1,1,2.16-2.16A2.16,2.16,0,0,1,393,154.78Zm0-14.4a2.16,2.16,0,1,1,2.16-2.16A2.16,2.16,0,0,1,393,140.38Zm0-14.4a2.16,2.16,0,1,1,2.16-2.16A2.16,2.16,0,0,1,393,126Zm0-14.4a2.16,2.16,0,1,1,2.16-2.16A2.16,2.16,0,0,1,393,111.58Zm0-14.4A2.16,2.16,0,1,1,395.16,95,2.16,2.16,0,0,1,393,97.18Zm0-14.4a2.16,2.16,0,1,1,2.16-2.16A2.16,2.16,0,0,1,393,82.78Zm0-14.4a2.16,2.16,0,1,1,2.16-2.16A2.16,2.16,0,0,1,393,68.38ZM393,54a2.16,2.16,0,1,1,2.16-2.16A2.16,2.16,0,0,1,393,54Zm7.2,194.4a2.16,2.16,0,1,1,2.16-2.16A2.16,2.16,0,0,1,400.2,248.38Zm0-14.4a2.16,2.16,0,1,1,2.16-2.16A2.16,2.16,0,0,1,400.2,234Zm0-14.4a2.16,2.16,0,1,1,2.16-2.16A2.16,2.16,0,0,1,400.2,219.58Zm0-14.4a2.16,2.16,0,1,1,2.16-2.16A2.16,2.16,0,0,1,400.2,205.18Zm0-14.4a2.16,2.16,0,1,1,2.16-2.16A2.16,2.16,0,0,1,400.2,190.78Zm0-14.4a2.16,2.16,0,1,1,2.16-2.16A2.16,2.16,0,0,1,400.2,176.39Zm0-14.4a2.16,2.16,0,1,1,2.16-2.16A2.16,2.16,0,0,1,400.2,162Zm0-14.4a2.16,2.16,0,1,1,2.16-2.16A2.16,2.16,0,0,1,400.2,147.59Zm0-14.4a2.16,2.16,0,1,1,2.16-2.16A2.16,2.16,0,0,1,400.2,133.18Zm0-14.4a2.16,2.16,0,1,1,2.16-2.16A2.16,2.16,0,0,1,400.2,118.79Zm0-14.4a2.16,2.16,0,1,1,2.16-2.16A2.16,2.16,0,0,1,400.2,104.39Zm0-14.4a2.16,2.16,0,1,1,2.16-2.16A2.16,2.16,0,0,1,400.2,90Zm0-14.4a2.16,2.16,0,1,1,2.16-2.16A2.16,2.16,0,0,1,400.2,75.59Zm0-14.4A2.16,2.16,0,1,1,402.36,59,2.16,2.16,0,0,1,400.2,61.19Zm0-14.4a2.16,2.16,0,1,1,2.16-2.16A2.16,2.16,0,0,1,400.2,46.79Zm7.2,194.4a2.16,2.16,0,1,1,2.16-2.16A2.16,2.16,0,0,1,407.4,241.18Zm0-14.4a2.16,2.16,0,1,1,2.16-2.16A2.16,2.16,0,0,1,407.4,226.78Zm0-14.4a2.16,2.16,0,1,1,2.16-2.16A2.16,2.16,0,0,1,407.4,212.38Zm0-14.4a2.16,2.16,0,1,1,2.16-2.16A2.16,2.16,0,0,1,407.4,198Zm0-14.4a2.16,2.16,0,1,1,2.16-2.16A2.16,2.16,0,0,1,407.4,183.58Zm0-14.4a2.16,2.16,0,1,1,2.16-2.16A2.16,2.16,0,0,1,407.4,169.18Zm0-14.4a2.16,2.16,0,1,1,2.16-2.16A2.16,2.16,0,0,1,407.4,154.78Zm0-14.4a2.16,2.16,0,1,1,2.16-2.16A2.16,2.16,0,0,1,407.4,140.38Zm0-14.4a2.16,2.16,0,1,1,2.16-2.16A2.16,2.16,0,0,1,407.4,126Zm0-14.4a2.16,2.16,0,1,1,2.16-2.16A2.16,2.16,0,0,1,407.4,111.58Zm0-14.4A2.16,2.16,0,1,1,409.56,95,2.16,2.16,0,0,1,407.4,97.18Zm0-14.4a2.16,2.16,0,1,1,2.16-2.16A2.16,2.16,0,0,1,407.4,82.78Zm0-14.4a2.16,2.16,0,1,1,2.16-2.16A2.16,2.16,0,0,1,407.4,68.38Zm0-14.4a2.16,2.16,0,1,1,2.16-2.16A2.16,2.16,0,0,1,407.4,54Zm7.2,194.4a2.16,2.16,0,1,1,2.16-2.16A2.16,2.16,0,0,1,414.6,248.38Zm0-14.4a2.16,2.16,0,1,1,2.16-2.16A2.16,2.16,0,0,1,414.6,234Zm0-14.4a2.16,2.16,0,1,1,2.16-2.16A2.16,2.16,0,0,1,414.6,219.58Zm0-14.4a2.16,2.16,0,1,1,2.16-2.16A2.16,2.16,0,0,1,414.6,205.18Zm0-14.4a2.16,2.16,0,1,1,2.16-2.16A2.16,2.16,0,0,1,414.6,190.78Zm0-14.4a2.16,2.16,0,1,1,2.16-2.16A2.16,2.16,0,0,1,414.6,176.39Zm0-14.4a2.16,2.16,0,1,1,2.16-2.16A2.16,2.16,0,0,1,414.6,162Zm0-14.4a2.16,2.16,0,1,1,2.16-2.16A2.16,2.16,0,0,1,414.6,147.59Zm0-14.4a2.16,2.16,0,1,1,2.16-2.16A2.16,2.16,0,0,1,414.6,133.18Zm0-14.4a2.16,2.16,0,1,1,2.16-2.16A2.16,2.16,0,0,1,414.6,118.79Zm0-14.4a2.16,2.16,0,1,1,2.16-2.16A2.16,2.16,0,0,1,414.6,104.39Zm0-14.4a2.16,2.16,0,1,1,2.16-2.16A2.16,2.16,0,0,1,414.6,90Zm0-14.4a2.16,2.16,0,1,1,2.16-2.16A2.16,2.16,0,0,1,414.6,75.59Zm0-14.4A2.16,2.16,0,1,1,416.76,59,2.16,2.16,0,0,1,414.6,61.19Zm7.2,180A2.16,2.16,0,1,1,424,239,2.16,2.16,0,0,1,421.8,241.18Zm0-14.4a2.16,2.16,0,1,1,2.16-2.16A2.16,2.16,0,0,1,421.8,226.78Zm0-14.4a2.16,2.16,0,1,1,2.16-2.16A2.16,2.16,0,0,1,421.8,212.38Zm0-14.4a2.16,2.16,0,1,1,2.16-2.16A2.16,2.16,0,0,1,421.8,198Zm0-14.4a2.16,2.16,0,1,1,2.16-2.16A2.16,2.16,0,0,1,421.8,183.58Zm0-14.4A2.16,2.16,0,1,1,424,167,2.16,2.16,0,0,1,421.8,169.18Zm0-14.4a2.16,2.16,0,1,1,2.16-2.16A2.16,2.16,0,0,1,421.8,154.78Zm0-14.4a2.16,2.16,0,1,1,2.16-2.16A2.16,2.16,0,0,1,421.8,140.38Zm0-14.4a2.16,2.16,0,1,1,2.16-2.16A2.16,2.16,0,0,1,421.8,126Zm0-14.4a2.16,2.16,0,1,1,2.16-2.16A2.16,2.16,0,0,1,421.8,111.58Zm0-14.4A2.16,2.16,0,1,1,424,95,2.16,2.16,0,0,1,421.8,97.18Zm0-14.4A2.16,2.16,0,1,1,424,80.62,2.16,2.16,0,0,1,421.8,82.78Zm0-14.4A2.16,2.16,0,1,1,424,66.23,2.16,2.16,0,0,1,421.8,68.38ZM429,234a2.16,2.16,0,1,1,2.16-2.16A2.16,2.16,0,0,1,429,234Zm0-14.4a2.16,2.16,0,1,1,2.16-2.16A2.16,2.16,0,0,1,429,219.58Zm0-14.4a2.16,2.16,0,1,1,2.16-2.16A2.16,2.16,0,0,1,429,205.18Zm0-14.4a2.16,2.16,0,1,1,2.16-2.16A2.16,2.16,0,0,1,429,190.78Zm0-14.4a2.16,2.16,0,1,1,2.16-2.16A2.16,2.16,0,0,1,429,176.39Zm0-14.4a2.16,2.16,0,1,1,2.16-2.16A2.16,2.16,0,0,1,429,162Zm0-14.4a2.16,2.16,0,1,1,2.16-2.16A2.16,2.16,0,0,1,429,147.59Zm0-14.4a2.16,2.16,0,1,1,2.16-2.16A2.16,2.16,0,0,1,429,133.18Zm0-14.4a2.16,2.16,0,1,1,2.16-2.16A2.16,2.16,0,0,1,429,118.79Zm0-14.4a2.16,2.16,0,1,1,2.16-2.16A2.16,2.16,0,0,1,429,104.39ZM429,90a2.16,2.16,0,1,1,2.16-2.16A2.16,2.16,0,0,1,429,90Zm0-14.4a2.16,2.16,0,1,1,2.16-2.16A2.16,2.16,0,0,1,429,75.59Zm0-14.4A2.16,2.16,0,1,1,431.16,59,2.16,2.16,0,0,1,429,61.19Zm7.2,165.6a2.16,2.16,0,1,1,2.16-2.16A2.16,2.16,0,0,1,436.2,226.78Zm0-14.4a2.16,2.16,0,1,1,2.16-2.16A2.16,2.16,0,0,1,436.2,212.38Zm0-14.4a2.16,2.16,0,1,1,2.16-2.16A2.16,2.16,0,0,1,436.2,198Zm0-14.4a2.16,2.16,0,1,1,2.16-2.16A2.16,2.16,0,0,1,436.2,183.58Zm0-14.4a2.16,2.16,0,1,1,2.16-2.16A2.16,2.16,0,0,1,436.2,169.18Zm0-14.4a2.16,2.16,0,1,1,2.16-2.16A2.16,2.16,0,0,1,436.2,154.78Zm0-14.4a2.16,2.16,0,1,1,2.16-2.16A2.16,2.16,0,0,1,436.2,140.38Zm0-14.4a2.16,2.16,0,1,1,2.16-2.16A2.16,2.16,0,0,1,436.2,126Zm0-14.4a2.16,2.16,0,1,1,2.16-2.16A2.16,2.16,0,0,1,436.2,111.58Zm0-14.4A2.16,2.16,0,1,1,438.36,95,2.16,2.16,0,0,1,436.2,97.18Zm0-14.4a2.16,2.16,0,1,1,2.16-2.16A2.16,2.16,0,0,1,436.2,82.78Zm0-14.4a2.16,2.16,0,1,1,2.16-2.16A2.16,2.16,0,0,1,436.2,68.38Zm7.2,151.2a2.16,2.16,0,1,1,2.16-2.16A2.16,2.16,0,0,1,443.4,219.58Zm0-14.4a2.16,2.16,0,1,1,2.16-2.16A2.16,2.16,0,0,1,443.4,205.18Zm0-14.4a2.16,2.16,0,1,1,2.16-2.16A2.16,2.16,0,0,1,443.4,190.78Zm0-14.4a2.16,2.16,0,1,1,2.16-2.16A2.16,2.16,0,0,1,443.4,176.39Zm0-14.4a2.16,2.16,0,1,1,2.16-2.16A2.16,2.16,0,0,1,443.4,162Zm0-14.4a2.16,2.16,0,1,1,2.16-2.16A2.16,2.16,0,0,1,443.4,147.59Zm0-14.4a2.16,2.16,0,1,1,2.16-2.16A2.16,2.16,0,0,1,443.4,133.18Zm0-14.4a2.16,2.16,0,1,1,2.16-2.16A2.16,2.16,0,0,1,443.4,118.79Zm0-14.4a2.16,2.16,0,1,1,2.16-2.16A2.16,2.16,0,0,1,443.4,104.39Zm0-14.4a2.16,2.16,0,1,1,2.16-2.16A2.16,2.16,0,0,1,443.4,90Zm0-14.4a2.16,2.16,0,1,1,2.16-2.16A2.16,2.16,0,0,1,443.4,75.59Zm7.2,136.8a2.16,2.16,0,1,1,2.16-2.16A2.16,2.16,0,0,1,450.6,212.38Zm0-14.4a2.16,2.16,0,1,1,2.16-2.16A2.16,2.16,0,0,1,450.6,198Zm0-14.4a2.16,2.16,0,1,1,2.16-2.16A2.16,2.16,0,0,1,450.6,183.58Zm0-14.4a2.16,2.16,0,1,1,2.16-2.16A2.16,2.16,0,0,1,450.6,169.18Zm0-14.4a2.16,2.16,0,1,1,2.16-2.16A2.16,2.16,0,0,1,450.6,154.78Zm0-14.4a2.16,2.16,0,1,1,2.16-2.16A2.16,2.16,0,0,1,450.6,140.38Zm0-14.4a2.16,2.16,0,1,1,2.16-2.16A2.16,2.16,0,0,1,450.6,126Zm0-14.4a2.16,2.16,0,1,1,2.16-2.16A2.16,2.16,0,0,1,450.6,111.58Zm0-14.4A2.16,2.16,0,1,1,452.76,95,2.16,2.16,0,0,1,450.6,97.18Z"/><path class="cls-3" d="M448.44,80.62a2.16,2.16,0,0,0,4.32,0h0q-.71-1-1.45-2a2.14,2.14,0,0,0-2.87,2Z"/><circle class="cls-3" cx="457.8" cy="102.23" r="2.16"/><circle class="cls-3" cx="450.6" cy="109.42" r="2.16"/><circle class="cls-3" cx="465" cy="109.42" r="2.16"/><circle class="cls-3" cx="450.6" cy="95.03" r="2.16"/><path class="cls-3" d="M455.64,87.83a2.16,2.16,0,0,0,3,2q-1.06-1.85-2.18-3.66A2.15,2.15,0,0,0,455.64,87.83Z"/><path class="cls-3" d="M470,131a2.16,2.16,0,0,0,3,2c-.17-1.39-.38-2.76-.6-4.13l-.22,0A2.16,2.16,0,0,0,470,131Z"/><circle class="cls-3" cx="457.8" cy="131.02" r="2.16"/><circle class="cls-3" cx="450.6" cy="138.22" r="2.16"/><circle class="cls-3" cx="465" cy="138.22" r="2.16"/><circle class="cls-3" cx="450.6" cy="123.83" r="2.16"/><circle class="cls-3" cx="465" cy="123.83" r="2.16"/><circle class="cls-3" cx="457.8" cy="116.63" r="2.16"/><path class="cls-3" d="M470,159.82a2.15,2.15,0,0,0,3.06,2q.22-1.83.38-3.69a2.15,2.15,0,0,0-3.44,1.73Z"/><circle class="cls-3" cx="457.8" cy="159.82" r="2.16"/><circle class="cls-3" cx="450.6" cy="167.02" r="2.16"/><circle class="cls-3" cx="465" cy="167.02" r="2.16"/><circle class="cls-3" cx="450.6" cy="152.62" r="2.16"/><circle class="cls-3" cx="465" cy="152.62" r="2.16"/><path class="cls-3" d="M472.2,143.27a2.16,2.16,0,1,0,1.73,3.44q0-1.31,0-2.62A2.15,2.15,0,0,0,472.2,143.27Z"/><circle class="cls-3" cx="457.8" cy="145.43" r="2.16"/><circle class="cls-3" cx="457.8" cy="188.62" r="2.16"/><circle class="cls-3" cx="450.6" cy="195.82" r="2.16"/><path class="cls-3" d="M462.84,195.82a2.14,2.14,0,0,0,.3,1.07q.73-1.58,1.42-3.19A2.16,2.16,0,0,0,462.84,195.82Z"/><circle class="cls-3" cx="450.6" cy="181.42" r="2.16"/><circle class="cls-3" cx="465" cy="181.42" r="2.16"/><path class="cls-3" d="M470,174.23a2.14,2.14,0,0,0,.55,1.42q.42-1.7.78-3.42A2.16,2.16,0,0,0,470,174.23Z"/><circle class="cls-3" cx="457.8" cy="174.23" r="2.16"/><circle class="cls-3" cx="450.6" cy="210.22" r="2.16"/><path class="cls-3" d="M457.8,200.86a2.16,2.16,0,1,0,1.36,3.82c.26-.46.52-.92.77-1.39a2.13,2.13,0,0,0,0-.27A2.16,2.16,0,0,0,457.8,200.86Z"/><path class="cls-3" d="M419.64,51.82a2.16,2.16,0,0,0,4.32,0q-1.48-1-3-2A2.16,2.16,0,0,0,419.64,51.82Z"/><circle class="cls-3" cx="443.4" cy="73.43" r="2.16"/><circle class="cls-3" cx="429" cy="73.43" r="2.16"/><circle class="cls-3" cx="421.8" cy="80.62" r="2.16"/><circle class="cls-3" cx="436.2" cy="80.62" r="2.16"/><circle class="cls-3" cx="421.8" cy="66.23" r="2.16"/><circle class="cls-3" cx="436.2" cy="66.23" r="2.16"/><circle class="cls-3" cx="429" cy="59.03" r="2.16"/><circle class="cls-3" cx="443.4" cy="102.23" r="2.16"/><circle class="cls-3" cx="429" cy="102.23" r="2.16"/><circle class="cls-3" cx="421.8" cy="109.42" r="2.16"/><circle class="cls-3" cx="436.2" cy="109.42" r="2.16"/><circle class="cls-3" cx="421.8" cy="95.03" r="2.16"/><circle class="cls-3" cx="436.2" cy="95.03" r="2.16"/><circle class="cls-3" cx="443.4" cy="87.83" r="2.16"/><circle class="cls-3" cx="429" cy="87.83" r="2.16"/><circle class="cls-3" cx="443.4" cy="131.02" r="2.16"/><circle class="cls-3" cx="429" cy="131.02" r="2.16"/><circle class="cls-3" cx="421.8" cy="138.22" r="2.16"/><circle class="cls-3" cx="436.2" cy="138.22" r="2.16"/><circle class="cls-3" cx="421.8" cy="123.83" r="2.16"/><circle class="cls-3" cx="436.2" cy="123.83" r="2.16"/><circle class="cls-3" cx="443.4" cy="116.63" r="2.16"/><circle class="cls-3" cx="429" cy="116.63" r="2.16"/><circle class="cls-3" cx="443.4" cy="159.82" r="2.16"/><circle class="cls-3" cx="429" cy="159.82" r="2.16"/><circle class="cls-3" cx="421.8" cy="167.02" r="2.16"/><circle class="cls-3" cx="436.2" cy="167.02" r="2.16"/><circle class="cls-3" cx="421.8" cy="152.62" r="2.16"/><circle class="cls-3" cx="436.2" cy="152.62" r="2.16"/><circle class="cls-3" cx="443.4" cy="145.43" r="2.16"/><circle class="cls-3" cx="429" cy="145.43" r="2.16"/><circle class="cls-3" cx="443.4" cy="188.62" r="2.16"/><circle class="cls-3" cx="429" cy="188.62" r="2.16"/><circle class="cls-3" cx="421.8" cy="195.82" r="2.16"/><circle class="cls-3" cx="436.2" cy="195.82" r="2.16"/><circle class="cls-3" cx="421.8" cy="181.42" r="2.16"/><circle class="cls-3" cx="436.2" cy="181.42" r="2.16"/><circle class="cls-3" cx="443.4" cy="174.23" r="2.16"/><circle class="cls-3" cx="429" cy="174.23" r="2.16"/><circle class="cls-3" cx="443.4" cy="217.42" r="2.16"/><circle class="cls-3" cx="429" cy="217.42" r="2.16"/><circle class="cls-3" cx="421.8" cy="224.62" r="2.16"/><circle class="cls-3" cx="436.2" cy="224.62" r="2.16"/><circle class="cls-3" cx="421.8" cy="210.22" r="2.16"/><circle class="cls-3" cx="436.2" cy="210.22" r="2.16"/><circle class="cls-3" cx="443.4" cy="203.02" r="2.16"/><circle class="cls-3" cx="429" cy="203.02" r="2.16"/><circle class="cls-3" cx="421.8" cy="239.02" r="2.16"/><circle class="cls-3" cx="429" cy="231.82" r="2.16"/><path class="cls-3" d="M414.6,46.79a2.13,2.13,0,0,0,1-.26q-1.56-.91-3.15-1.77A2.15,2.15,0,0,0,414.6,46.79Z"/><circle class="cls-3" cx="400.2" cy="44.63" r="2.16"/><circle class="cls-3" cx="393" cy="51.83" r="2.16"/><circle class="cls-3" cx="407.4" cy="51.83" r="2.16"/><path class="cls-3" d="M393,39.58a2.16,2.16,0,0,0,2.16-2.16,2.13,2.13,0,0,0,0-.27q-1.84-.63-3.7-1.21A2.15,2.15,0,0,0,393,39.58Z"/><circle class="cls-3" cx="414.6" cy="73.43" r="2.16"/><circle class="cls-3" cx="400.2" cy="73.43" r="2.16"/><circle class="cls-3" cx="393" cy="80.62" r="2.16"/><circle class="cls-3" cx="407.4" cy="80.62" r="2.16"/><circle class="cls-3" cx="393" cy="66.23" r="2.16"/><circle class="cls-3" cx="407.4" cy="66.23" r="2.16"/><circle class="cls-3" cx="414.6" cy="59.03" r="2.16"/><circle class="cls-3" cx="400.2" cy="59.03" r="2.16"/><circle class="cls-3" cx="414.6" cy="102.23" r="2.16"/><circle class="cls-3" cx="400.2" cy="102.23" r="2.16"/><circle class="cls-3" cx="393" cy="109.42" r="2.16"/><circle class="cls-3" cx="407.4" cy="109.42" r="2.16"/><circle class="cls-3" cx="393" cy="95.03" r="2.16"/><circle class="cls-3" cx="407.4" cy="95.03" r="2.16"/><circle class="cls-3" cx="414.6" cy="87.83" r="2.16"/><circle class="cls-3" cx="400.2" cy="87.83" r="2.16"/><circle class="cls-3" cx="414.6" cy="131.02" r="2.16"/><circle class="cls-3" cx="400.2" cy="131.02" r="2.16"/><circle class="cls-3" cx="393" cy="138.22" r="2.16"/><circle class="cls-3" cx="407.4" cy="138.22" r="2.16"/><circle class="cls-3" cx="393" cy="123.83" r="2.16"/><circle class="cls-3" cx="407.4" cy="123.83" r="2.16"/><circle class="cls-3" cx="414.6" cy="116.63" r="2.16"/><circle class="cls-3" cx="400.2" cy="116.63" r="2.16"/><circle class="cls-3" cx="414.6" cy="159.82" r="2.16"/><circle class="cls-3" cx="400.2" cy="159.82" r="2.16"/><circle class="cls-3" cx="393" cy="167.02" r="2.16"/><circle class="cls-3" cx="407.4" cy="167.02" r="2.16"/><circle class="cls-3" cx="393" cy="152.62" r="2.16"/><circle class="cls-3" cx="407.4" cy="152.62" r="2.16"/><circle class="cls-3" cx="414.6" cy="145.43" r="2.16"/><circle class="cls-3" cx="400.2" cy="145.43" r="2.16"/><circle class="cls-3" cx="414.6" cy="188.62" r="2.16"/><circle class="cls-3" cx="400.2" cy="188.62" r="2.16"/><circle class="cls-3" cx="393" cy="195.82" r="2.16"/><circle class="cls-3" cx="407.4" cy="195.82" r="2.16"/><circle class="cls-3" cx="393" cy="181.42" r="2.16"/><circle class="cls-3" cx="407.4" cy="181.42" r="2.16"/><circle class="cls-3" cx="414.6" cy="174.23" r="2.16"/><circle class="cls-3" cx="400.2" cy="174.23" r="2.16"/><circle class="cls-3" cx="414.6" cy="217.42" r="2.16"/><circle class="cls-3" cx="400.2" cy="217.42" r="2.16"/><circle class="cls-3" cx="393" cy="224.62" r="2.16"/><circle class="cls-3" cx="407.4" cy="224.62" r="2.16"/><circle class="cls-3" cx="393" cy="210.22" r="2.16"/><circle class="cls-3" cx="407.4" cy="210.22" r="2.16"/><circle class="cls-3" cx="414.6" cy="203.02" r="2.16"/><circle class="cls-3" cx="400.2" cy="203.02" r="2.16"/><circle class="cls-3" cx="414.6" cy="246.22" r="2.16"/><circle class="cls-3" cx="400.2" cy="246.22" r="2.16"/><circle class="cls-3" cx="393" cy="253.42" r="2.16"/><path class="cls-3" d="M407.4,251.27a2.16,2.16,0,0,0-2,3q2-.89,3.88-1.86A2.15,2.15,0,0,0,407.4,251.27Z"/><circle class="cls-3" cx="393" cy="239.02" r="2.16"/><circle class="cls-3" cx="407.4" cy="239.02" r="2.16"/><circle class="cls-3" cx="414.6" cy="231.82" r="2.16"/><circle class="cls-3" cx="400.2" cy="231.82" r="2.16"/><circle class="cls-3" cx="385.8" cy="44.63" r="2.16"/><circle class="cls-3" cx="371.4" cy="44.63" r="2.16"/><circle class="cls-3" cx="364.2" cy="51.83" r="2.16"/><circle class="cls-3" cx="378.6" cy="51.83" r="2.16"/><circle class="cls-3" cx="364.2" cy="37.43" r="2.16"/><circle class="cls-3" cx="378.6" cy="37.43" r="2.16"/><path class="cls-3" d="M371.4,32.39a2.14,2.14,0,0,0,1.4-.53q-1.57-.21-3.16-.38A2.15,2.15,0,0,0,371.4,32.39Z"/><circle class="cls-3" cx="385.8" cy="73.43" r="2.16"/><circle class="cls-3" cx="371.4" cy="73.43" r="2.16"/><circle class="cls-3" cx="364.2" cy="80.62" r="2.16"/><circle class="cls-3" cx="378.6" cy="80.62" r="2.16"/><circle class="cls-3" cx="364.2" cy="66.23" r="2.16"/><circle class="cls-3" cx="378.6" cy="66.23" r="2.16"/><circle class="cls-3" cx="385.8" cy="59.03" r="2.16"/><circle class="cls-3" cx="371.4" cy="59.03" r="2.16"/><circle class="cls-3" cx="385.8" cy="102.23" r="2.16"/><circle class="cls-3" cx="371.4" cy="102.23" r="2.16"/><circle class="cls-3" cx="364.2" cy="109.42" r="2.16"/><circle class="cls-3" cx="378.6" cy="109.42" r="2.16"/><circle class="cls-3" cx="364.2" cy="95.03" r="2.16"/><circle class="cls-3" cx="378.6" cy="95.03" r="2.16"/><circle class="cls-3" cx="385.8" cy="87.83" r="2.16"/><circle class="cls-3" cx="371.4" cy="87.83" r="2.16"/><circle class="cls-3" cx="385.8" cy="131.02" r="2.16"/><circle class="cls-3" cx="371.4" cy="131.02" r="2.16"/><circle class="cls-3" cx="364.2" cy="138.22" r="2.16"/><circle class="cls-3" cx="378.6" cy="138.22" r="2.16"/><circle class="cls-3" cx="364.2" cy="123.83" r="2.16"/><circle class="cls-3" cx="378.6" cy="123.83" r="2.16"/><circle class="cls-3" cx="385.8" cy="116.63" r="2.16"/><circle class="cls-3" cx="371.4" cy="116.63" r="2.16"/><circle class="cls-3" cx="385.8" cy="159.82" r="2.16"/><circle class="cls-3" cx="371.4" cy="159.82" r="2.16"/><circle class="cls-3" cx="364.2" cy="167.02" r="2.16"/><circle class="cls-3" cx="378.6" cy="167.02" r="2.16"/><circle class="cls-3" cx="364.2" cy="152.62" r="2.16"/><circle class="cls-3" cx="378.6" cy="152.62" r="2.16"/><circle class="cls-3" cx="385.8" cy="145.43" r="2.16"/><circle class="cls-3" cx="371.4" cy="145.43" r="2.16"/><circle class="cls-3" cx="385.8" cy="188.62" r="2.16"/><circle class="cls-3" cx="371.4" cy="188.62" r="2.16"/><circle class="cls-3" cx="364.2" cy="195.82" r="2.16"/><circle class="cls-3" cx="378.6" cy="195.82" r="2.16"/><circle class="cls-3" cx="364.2" cy="181.42" r="2.16"/><circle class="cls-3" cx="378.6" cy="181.42" r="2.16"/><circle class="cls-3" cx="385.8" cy="174.23" r="2.16"/><circle class="cls-3" cx="371.4" cy="174.23" r="2.16"/><circle class="cls-3" cx="385.8" cy="217.42" r="2.16"/><circle class="cls-3" cx="371.4" cy="217.42" r="2.16"/><circle class="cls-3" cx="364.2" cy="224.62" r="2.16"/><circle class="cls-3" cx="378.6" cy="224.62" r="2.16"/><circle class="cls-3" cx="364.2" cy="210.22" r="2.16"/><circle class="cls-3" cx="378.6" cy="210.22" r="2.16"/><circle class="cls-3" cx="385.8" cy="203.02" r="2.16"/><circle class="cls-3" cx="371.4" cy="203.02" r="2.16"/><circle class="cls-3" cx="385.8" cy="246.22" r="2.16"/><circle class="cls-3" cx="371.4" cy="246.22" r="2.16"/><circle class="cls-3" cx="364.2" cy="253.42" r="2.16"/><circle class="cls-3" cx="378.6" cy="253.42" r="2.16"/><circle class="cls-3" cx="364.2" cy="239.02" r="2.16"/><circle class="cls-3" cx="378.6" cy="239.02" r="2.16"/><circle class="cls-3" cx="385.8" cy="231.82" r="2.16"/><circle class="cls-3" cx="371.4" cy="231.82" r="2.16"/><path class="cls-3" d="M385.8,258.46a2.16,2.16,0,0,0-2.16,2.16,2.14,2.14,0,0,0,.24,1q2.05-.48,4.07-1A2.16,2.16,0,0,0,385.8,258.46Z"/><circle class="cls-3" cx="371.4" cy="260.62" r="2.16"/><circle class="cls-3" cx="357" cy="44.63" r="2.16"/><circle class="cls-3" cx="342.6" cy="44.63" r="2.16"/><circle class="cls-3" cx="335.4" cy="51.83" r="2.16"/><circle class="cls-3" cx="349.8" cy="51.83" r="2.16"/><circle class="cls-3" cx="335.4" cy="37.43" r="2.16"/><circle class="cls-3" cx="349.8" cy="37.43" r="2.16"/><path class="cls-3" d="M357,32.39a2.15,2.15,0,0,0,2.07-1.57l-2.08,0-2.05,0A2.15,2.15,0,0,0,357,32.39Z"/><path class="cls-3" d="M344.36,31.47q-1.59.17-3.18.38a2.14,2.14,0,0,0,3.18-.38Z"/><circle class="cls-3" cx="357" cy="73.43" r="2.16"/><circle class="cls-3" cx="342.6" cy="73.43" r="2.16"/><circle class="cls-3" cx="335.4" cy="80.62" r="2.16"/><circle class="cls-3" cx="349.8" cy="80.62" r="2.16"/><circle class="cls-3" cx="335.4" cy="66.23" r="2.16"/><circle class="cls-3" cx="349.8" cy="66.23" r="2.16"/><circle class="cls-3" cx="357" cy="59.03" r="2.16"/><circle class="cls-3" cx="342.6" cy="59.03" r="2.16"/><circle class="cls-3" cx="357" cy="102.23" r="2.16"/><circle class="cls-3" cx="342.6" cy="102.23" r="2.16"/><circle class="cls-3" cx="335.4" cy="109.42" r="2.16"/><circle class="cls-3" cx="349.8" cy="109.42" r="2.16"/><circle class="cls-3" cx="335.4" cy="95.03" r="2.16"/><circle class="cls-3" cx="349.8" cy="95.03" r="2.16"/><circle class="cls-3" cx="357" cy="87.83" r="2.16"/><circle class="cls-3" cx="342.6" cy="87.83" r="2.16"/><circle class="cls-3" cx="357" cy="131.02" r="2.16"/><circle class="cls-3" cx="342.6" cy="131.02" r="2.16"/><circle class="cls-3" cx="335.4" cy="138.22" r="2.16"/><circle class="cls-3" cx="349.8" cy="138.22" r="2.16"/><circle class="cls-3" cx="335.4" cy="123.83" r="2.16"/><circle class="cls-3" cx="349.8" cy="123.83" r="2.16"/><circle class="cls-3" cx="357" cy="116.63" r="2.16"/><circle class="cls-3" cx="342.6" cy="116.63" r="2.16"/><circle class="cls-3" cx="357" cy="159.82" r="2.16"/><circle class="cls-3" cx="342.6" cy="159.82" r="2.16"/><circle class="cls-3" cx="335.4" cy="167.02" r="2.16"/><circle class="cls-3" cx="349.8" cy="167.02" r="2.16"/><circle class="cls-3" cx="335.4" cy="152.62" r="2.16"/><circle class="cls-3" cx="349.8" cy="152.62" r="2.16"/><circle class="cls-3" cx="357" cy="145.43" r="2.16"/><circle class="cls-3" cx="342.6" cy="145.43" r="2.16"/><circle class="cls-3" cx="357" cy="188.62" r="2.16"/><circle class="cls-3" cx="342.6" cy="188.62" r="2.16"/><circle class="cls-3" cx="335.4" cy="195.82" r="2.16"/><circle class="cls-3" cx="349.8" cy="195.82" r="2.16"/><circle class="cls-3" cx="335.4" cy="181.42" r="2.16"/><circle class="cls-3" cx="349.8" cy="181.42" r="2.16"/><circle class="cls-3" cx="357" cy="174.23" r="2.16"/><circle class="cls-3" cx="342.6" cy="174.23" r="2.16"/><circle class="cls-3" cx="357" cy="217.42" r="2.16"/><circle class="cls-3" cx="342.6" cy="217.42" r="2.16"/><circle class="cls-3" cx="335.4" cy="224.62" r="2.16"/><circle class="cls-3" cx="349.8" cy="224.62" r="2.16"/><circle class="cls-3" cx="335.4" cy="210.22" r="2.16"/><circle class="cls-3" cx="349.8" cy="210.22" r="2.16"/><circle class="cls-3" cx="357" cy="203.02" r="2.16"/><circle class="cls-3" cx="342.6" cy="203.02" r="2.16"/><circle class="cls-3" cx="357" cy="246.22" r="2.16"/><circle class="cls-3" cx="342.6" cy="246.22" r="2.16"/><circle class="cls-3" cx="335.4" cy="253.42" r="2.16"/><circle class="cls-3" cx="349.8" cy="253.42" r="2.16"/><circle class="cls-3" cx="335.4" cy="239.02" r="2.16"/><circle class="cls-3" cx="349.8" cy="239.02" r="2.16"/><circle class="cls-3" cx="357" cy="231.82" r="2.16"/><circle class="cls-3" cx="342.6" cy="231.82" r="2.16"/><circle class="cls-3" cx="357" cy="260.62" r="2.16"/><circle class="cls-3" cx="342.6" cy="260.62" r="2.16"/><circle class="cls-3" cx="328.2" cy="44.63" r="2.16"/><circle class="cls-3" cx="313.8" cy="44.63" r="2.16"/><circle class="cls-3" cx="306.6" cy="51.83" r="2.16"/><circle class="cls-3" cx="321" cy="51.83" r="2.16"/><path class="cls-3" d="M321,39.58a2.15,2.15,0,0,0,1.56-3.64q-1.86.57-3.7,1.2A2.09,2.09,0,0,0,321,39.58Z"/><circle class="cls-3" cx="328.2" cy="73.43" r="2.16"/><circle class="cls-3" cx="313.8" cy="73.43" r="2.16"/><circle class="cls-3" cx="306.6" cy="80.62" r="2.16"/><circle class="cls-3" cx="321" cy="80.62" r="2.16"/><circle class="cls-3" cx="306.6" cy="66.23" r="2.16"/><circle class="cls-3" cx="321" cy="66.23" r="2.16"/><circle class="cls-3" cx="328.2" cy="59.03" r="2.16"/><circle class="cls-3" cx="313.8" cy="59.03" r="2.16"/><circle class="cls-3" cx="328.2" cy="102.23" r="2.16"/><circle class="cls-3" cx="313.8" cy="102.23" r="2.16"/><circle class="cls-3" cx="306.6" cy="109.42" r="2.16"/><circle class="cls-3" cx="321" cy="109.42" r="2.16"/><circle class="cls-3" cx="306.6" cy="95.03" r="2.16"/><circle class="cls-3" cx="321" cy="95.03" r="2.16"/><circle class="cls-3" cx="328.2" cy="87.83" r="2.16"/><circle class="cls-3" cx="313.8" cy="87.83" r="2.16"/><circle class="cls-3" cx="328.2" cy="131.02" r="2.16"/><circle class="cls-3" cx="313.8" cy="131.02" r="2.16"/><circle class="cls-3" cx="306.6" cy="138.22" r="2.16"/><circle class="cls-3" cx="321" cy="138.22" r="2.16"/><circle class="cls-3" cx="306.6" cy="123.83" r="2.16"/><circle class="cls-3" cx="321" cy="123.83" r="2.16"/><circle class="cls-3" cx="328.2" cy="116.63" r="2.16"/><circle class="cls-3" cx="313.8" cy="116.63" r="2.16"/><circle class="cls-3" cx="328.2" cy="159.82" r="2.16"/><circle class="cls-3" cx="313.8" cy="159.82" r="2.16"/><circle class="cls-3" cx="306.6" cy="167.02" r="2.16"/><circle class="cls-3" cx="321" cy="167.02" r="2.16"/><circle class="cls-3" cx="306.6" cy="152.62" r="2.16"/><circle class="cls-3" cx="321" cy="152.62" r="2.16"/><circle class="cls-3" cx="328.2" cy="145.43" r="2.16"/><circle class="cls-3" cx="313.8" cy="145.43" r="2.16"/><circle class="cls-3" cx="328.2" cy="188.62" r="2.16"/><circle class="cls-3" cx="313.8" cy="188.62" r="2.16"/><circle class="cls-3" cx="306.6" cy="195.82" r="2.16"/><circle class="cls-3" cx="321" cy="195.82" r="2.16"/><circle class="cls-3" cx="306.6" cy="181.42" r="2.16"/><circle class="cls-3" cx="321" cy="181.42" r="2.16"/><circle class="cls-3" cx="328.2" cy="174.23" r="2.16"/><circle class="cls-3" cx="313.8" cy="174.23" r="2.16"/><circle class="cls-3" cx="328.2" cy="217.42" r="2.16"/><circle class="cls-3" cx="313.8" cy="217.42" r="2.16"/><circle class="cls-3" cx="306.6" cy="224.62" r="2.16"/><circle class="cls-3" cx="321" cy="224.62" r="2.16"/><circle class="cls-3" cx="306.6" cy="210.22" r="2.16"/><circle class="cls-3" cx="321" cy="210.22" r="2.16"/><circle class="cls-3" cx="328.2" cy="203.02" r="2.16"/><circle class="cls-3" cx="313.8" cy="203.02" r="2.16"/><circle class="cls-3" cx="328.2" cy="246.22" r="2.16"/><circle class="cls-3" cx="313.8" cy="246.22" r="2.16"/><circle class="cls-3" cx="306.6" cy="253.42" r="2.16"/><circle class="cls-3" cx="321" cy="253.42" r="2.16"/><circle class="cls-3" cx="306.6" cy="239.02" r="2.16"/><circle class="cls-3" cx="321" cy="239.02" r="2.16"/><circle class="cls-3" cx="328.2" cy="231.82" r="2.16"/><circle class="cls-3" cx="313.8" cy="231.82" r="2.16"/><path class="cls-3" d="M306.6,265.66a2.16,2.16,0,0,0-2.16,2.16s0,0,0,0h4.31s0,0,0,0A2.16,2.16,0,0,0,306.6,265.66Z"/><path class="cls-3" d="M328.2,258.46a2.16,2.16,0,0,0-2.15,2.1q2,.55,4.07,1a2.14,2.14,0,0,0,.24-1A2.16,2.16,0,0,0,328.2,258.46Z"/><circle class="cls-3" cx="313.8" cy="260.62" r="2.16"/><path class="cls-3" d="M301.54,44.74q-1.6.86-3.17,1.77a2.14,2.14,0,0,0,3.17-1.77Z"/><path class="cls-3" d="M292.2,54a2.16,2.16,0,0,0,.81-4.16q-1.5,1-3,2A2.16,2.16,0,0,0,292.2,54Z"/><circle class="cls-3" cx="299.4" cy="73.43" r="2.16"/><circle class="cls-3" cx="285" cy="73.43" r="2.16"/><circle class="cls-3" cx="277.8" cy="80.62" r="2.16"/><circle class="cls-3" cx="292.2" cy="80.62" r="2.16"/><circle class="cls-3" cx="277.8" cy="66.23" r="2.16"/><circle class="cls-3" cx="292.2" cy="66.23" r="2.16"/><circle class="cls-3" cx="299.4" cy="59.03" r="2.16"/><circle class="cls-3" cx="285" cy="59.03" r="2.16"/><circle class="cls-3" cx="299.4" cy="102.23" r="2.16"/><circle class="cls-3" cx="285" cy="102.23" r="2.16"/><circle class="cls-3" cx="277.8" cy="109.42" r="2.16"/><circle class="cls-3" cx="292.2" cy="109.42" r="2.16"/><circle class="cls-3" cx="277.8" cy="95.03" r="2.16"/><circle class="cls-3" cx="292.2" cy="95.03" r="2.16"/><circle class="cls-3" cx="299.4" cy="87.83" r="2.16"/><circle class="cls-3" cx="285" cy="87.83" r="2.16"/><circle class="cls-3" cx="299.4" cy="131.02" r="2.16"/><circle class="cls-3" cx="285" cy="131.02" r="2.16"/><circle class="cls-3" cx="277.8" cy="138.22" r="2.16"/><circle class="cls-3" cx="292.2" cy="138.22" r="2.16"/><circle class="cls-3" cx="277.8" cy="123.83" r="2.16"/><circle class="cls-3" cx="292.2" cy="123.83" r="2.16"/><circle class="cls-3" cx="299.4" cy="116.63" r="2.16"/><circle class="cls-3" cx="285" cy="116.63" r="2.16"/><circle class="cls-3" cx="299.4" cy="159.82" r="2.16"/><circle class="cls-3" cx="285" cy="159.82" r="2.16"/><circle class="cls-3" cx="277.8" cy="167.02" r="2.16"/><circle class="cls-3" cx="292.2" cy="167.02" r="2.16"/><circle class="cls-3" cx="277.8" cy="152.62" r="2.16"/><circle class="cls-3" cx="292.2" cy="152.62" r="2.16"/><circle class="cls-3" cx="299.4" cy="145.43" r="2.16"/><circle class="cls-3" cx="285" cy="145.43" r="2.16"/><circle class="cls-3" cx="299.4" cy="188.62" r="2.16"/><circle class="cls-3" cx="285" cy="188.62" r="2.16"/><circle class="cls-3" cx="277.8" cy="195.82" r="2.16"/><circle class="cls-3" cx="292.2" cy="195.82" r="2.16"/><circle class="cls-3" cx="277.8" cy="181.42" r="2.16"/><circle class="cls-3" cx="292.2" cy="181.42" r="2.16"/><circle class="cls-3" cx="299.4" cy="174.23" r="2.16"/><circle class="cls-3" cx="285" cy="174.23" r="2.16"/><circle class="cls-3" cx="299.4" cy="217.42" r="2.16"/><circle class="cls-3" cx="285" cy="217.42" r="2.16"/><circle class="cls-3" cx="277.8" cy="224.62" r="2.16"/><circle class="cls-3" cx="292.2" cy="224.62" r="2.16"/><circle class="cls-3" cx="277.8" cy="210.22" r="2.16"/><circle class="cls-3" cx="292.2" cy="210.22" r="2.16"/><circle class="cls-3" cx="299.4" cy="203.02" r="2.16"/><circle class="cls-3" cx="285" cy="203.02" r="2.16"/><circle class="cls-3" cx="299.4" cy="246.22" r="2.16"/><circle class="cls-3" cx="285" cy="246.22" r="2.16"/><circle class="cls-3" cx="277.8" cy="253.42" r="2.16"/><circle class="cls-3" cx="292.2" cy="253.42" r="2.16"/><circle class="cls-3" cx="277.8" cy="239.02" r="2.16"/><circle class="cls-3" cx="292.2" cy="239.02" r="2.16"/><circle class="cls-3" cx="299.4" cy="231.82" r="2.16"/><circle class="cls-3" cx="285" cy="231.82" r="2.16"/><path class="cls-3" d="M277.8,265.66a2.16,2.16,0,0,0-2.16,2.16s0,0,0,0H280s0,0,0,0A2.16,2.16,0,0,0,277.8,265.66Z"/><path class="cls-3" d="M292.2,265.66a2.16,2.16,0,0,0-2.16,2.16s0,0,0,0h4.31s0,0,0,0A2.16,2.16,0,0,0,292.2,265.66Z"/><circle class="cls-3" cx="299.4" cy="260.62" r="2.16"/><circle class="cls-3" cx="285" cy="260.62" r="2.16"/><circle class="cls-3" cx="270.6" cy="73.43" r="2.16"/><path class="cls-3" d="M263.4,82.78a2.16,2.16,0,1,0-.76-4.18q-.71,1-1.4,1.95s0,0,0,.07A2.16,2.16,0,0,0,263.4,82.78Z"/><circle class="cls-3" cx="270.6" cy="102.23" r="2.16"/><circle class="cls-3" cx="256.2" cy="102.23" r="2.16"/><circle class="cls-3" cx="249" cy="109.42" r="2.16"/><circle class="cls-3" cx="263.4" cy="109.42" r="2.16"/><circle class="cls-3" cx="263.4" cy="95.03" r="2.16"/><circle class="cls-3" cx="270.6" cy="87.83" r="2.16"/><path class="cls-3" d="M258.36,87.83a2.15,2.15,0,0,0-.81-1.67q-1.12,1.81-2.18,3.67a2.16,2.16,0,0,0,3-2Z"/><circle class="cls-3" cx="270.6" cy="131.02" r="2.16"/><circle class="cls-3" cx="256.2" cy="131.02" r="2.16"/><circle class="cls-3" cx="249" cy="138.22" r="2.16"/><circle class="cls-3" cx="263.4" cy="138.22" r="2.16"/><circle class="cls-3" cx="249" cy="123.83" r="2.16"/><circle class="cls-3" cx="263.4" cy="123.83" r="2.16"/><circle class="cls-3" cx="270.6" cy="116.63" r="2.16"/><circle class="cls-3" cx="256.2" cy="116.63" r="2.16"/><circle class="cls-3" cx="270.6" cy="159.82" r="2.16"/><circle class="cls-3" cx="256.2" cy="159.82" r="2.16"/><circle class="cls-3" cx="249" cy="167.02" r="2.16"/><circle class="cls-3" cx="263.4" cy="167.02" r="2.16"/><circle class="cls-3" cx="249" cy="152.62" r="2.16"/><circle class="cls-3" cx="263.4" cy="152.62" r="2.16"/><circle class="cls-3" cx="270.6" cy="145.43" r="2.16"/><circle class="cls-3" cx="256.2" cy="145.43" r="2.16"/><circle class="cls-3" cx="270.6" cy="188.62" r="2.16"/><circle class="cls-3" cx="256.2" cy="188.62" r="2.16"/><circle class="cls-3" cx="249" cy="195.82" r="2.16"/><circle class="cls-3" cx="263.4" cy="195.82" r="2.16"/><circle class="cls-3" cx="249" cy="181.42" r="2.16"/><circle class="cls-3" cx="263.4" cy="181.42" r="2.16"/><circle class="cls-3" cx="270.6" cy="174.23" r="2.16"/><circle class="cls-3" cx="256.2" cy="174.23" r="2.16"/><circle class="cls-3" cx="270.6" cy="217.42" r="2.16"/><circle class="cls-3" cx="256.2" cy="217.42" r="2.16"/><circle class="cls-3" cx="249" cy="224.62" r="2.16"/><circle class="cls-3" cx="263.4" cy="224.62" r="2.16"/><circle class="cls-3" cx="249" cy="210.22" r="2.16"/><circle class="cls-3" cx="263.4" cy="210.22" r="2.16"/><circle class="cls-3" cx="270.6" cy="203.02" r="2.16"/><circle class="cls-3" cx="256.2" cy="203.02" r="2.16"/><circle class="cls-3" cx="270.6" cy="246.22" r="2.16"/><circle class="cls-3" cx="256.2" cy="246.22" r="2.16"/><circle class="cls-3" cx="249" cy="253.42" r="2.16"/><circle class="cls-3" cx="263.4" cy="253.42" r="2.16"/><circle class="cls-3" cx="249" cy="239.02" r="2.16"/><circle class="cls-3" cx="263.4" cy="239.02" r="2.16"/><circle class="cls-3" cx="270.6" cy="231.82" r="2.16"/><circle class="cls-3" cx="256.2" cy="231.82" r="2.16"/><path class="cls-3" d="M249,265.66a2.16,2.16,0,0,0-2.16,2.16s0,0,0,0h4.31s0,0,0,0A2.16,2.16,0,0,0,249,265.66Z"/><path class="cls-3" d="M263.4,265.66a2.16,2.16,0,0,0-2.16,2.16s0,0,0,0h4.31s0,0,0,0A2.16,2.16,0,0,0,263.4,265.66Z"/><circle class="cls-3" cx="270.6" cy="260.62" r="2.16"/><circle class="cls-3" cx="256.2" cy="260.62" r="2.16"/><circle class="cls-3" cx="241.8" cy="131.02" r="2.16"/><circle class="cls-3" cx="227.4" cy="131.02" r="2.16"/><circle class="cls-3" cx="220.2" cy="138.22" r="2.16"/><circle class="cls-3" cx="234.6" cy="138.22" r="2.16"/><path class="cls-3" d="M220.2,126a2.15,2.15,0,0,0,2.14-2c-1.4.14-2.8.31-4.18.5A2.15,2.15,0,0,0,220.2,126Z"/><path class="cls-3" d="M234.6,126a2.16,2.16,0,0,0,2.16-2.16c0-.06,0-.11,0-.17q-2.13-.1-4.27-.11a2.13,2.13,0,0,0,0,.29A2.16,2.16,0,0,0,234.6,126Z"/><circle class="cls-3" cx="241.8" cy="159.82" r="2.16"/><circle class="cls-3" cx="227.4" cy="159.82" r="2.16"/><circle class="cls-3" cx="220.2" cy="167.02" r="2.16"/><circle class="cls-3" cx="234.6" cy="167.02" r="2.16"/><circle class="cls-3" cx="220.2" cy="152.62" r="2.16"/><circle class="cls-3" cx="234.6" cy="152.62" r="2.16"/><circle class="cls-3" cx="241.8" cy="145.43" r="2.16"/><circle class="cls-3" cx="227.4" cy="145.43" r="2.16"/><circle class="cls-3" cx="241.8" cy="188.62" r="2.16"/><circle class="cls-3" cx="227.4" cy="188.62" r="2.16"/><circle class="cls-3" cx="220.2" cy="195.82" r="2.16"/><circle class="cls-3" cx="234.6" cy="195.82" r="2.16"/><circle class="cls-3" cx="220.2" cy="181.42" r="2.16"/><circle class="cls-3" cx="234.6" cy="181.42" r="2.16"/><circle class="cls-3" cx="241.8" cy="174.23" r="2.16"/><circle class="cls-3" cx="227.4" cy="174.23" r="2.16"/><circle class="cls-3" cx="241.8" cy="217.42" r="2.16"/><circle class="cls-3" cx="227.4" cy="217.42" r="2.16"/><circle class="cls-3" cx="220.2" cy="224.62" r="2.16"/><circle class="cls-3" cx="234.6" cy="224.62" r="2.16"/><circle class="cls-3" cx="220.2" cy="210.22" r="2.16"/><circle class="cls-3" cx="234.6" cy="210.22" r="2.16"/><circle class="cls-3" cx="241.8" cy="203.02" r="2.16"/><circle class="cls-3" cx="227.4" cy="203.02" r="2.16"/><circle class="cls-3" cx="241.8" cy="246.22" r="2.16"/><circle class="cls-3" cx="227.4" cy="246.22" r="2.16"/><circle class="cls-3" cx="220.2" cy="253.42" r="2.16"/><circle class="cls-3" cx="234.6" cy="253.42" r="2.16"/><circle class="cls-3" cx="220.2" cy="239.02" r="2.16"/><circle class="cls-3" cx="234.6" cy="239.02" r="2.16"/><circle class="cls-3" cx="241.8" cy="231.82" r="2.16"/><circle class="cls-3" cx="227.4" cy="231.82" r="2.16"/><path class="cls-3" d="M220.2,265.66a2.16,2.16,0,0,0-2.16,2.16s0,0,0,0h4.31s0,0,0,0A2.16,2.16,0,0,0,220.2,265.66Z"/><path class="cls-3" d="M234.6,265.66a2.16,2.16,0,0,0-2.16,2.16s0,0,0,0h4.31s0,0,0,0A2.16,2.16,0,0,0,234.6,265.66Z"/><circle class="cls-3" cx="241.8" cy="260.62" r="2.16"/><circle class="cls-3" cx="227.4" cy="260.62" r="2.16"/><circle class="cls-3" cx="213" cy="131.02" r="2.16"/><path class="cls-3" d="M198.6,133.18a2.16,2.16,0,0,0,.89-4.12q-1.43.5-2.84,1a2.15,2.15,0,0,0,2,3.07Z"/><circle class="cls-3" cx="191.39" cy="138.22" r="2.16"/><circle class="cls-3" cx="205.8" cy="138.22" r="2.16"/><circle class="cls-3" cx="213" cy="159.82" r="2.16"/><circle class="cls-3" cx="198.6" cy="159.82" r="2.16"/><circle class="cls-3" cx="191.39" cy="167.02" r="2.16"/><circle class="cls-3" cx="205.8" cy="167.02" r="2.16"/><circle class="cls-3" cx="191.39" cy="152.62" r="2.16"/><circle class="cls-3" cx="205.8" cy="152.62" r="2.16"/><circle class="cls-3" cx="213" cy="145.43" r="2.16"/><circle class="cls-3" cx="198.6" cy="145.43" r="2.16"/><circle class="cls-3" cx="213" cy="188.62" r="2.16"/><circle class="cls-3" cx="198.6" cy="188.62" r="2.16"/><circle class="cls-3" cx="191.39" cy="195.82" r="2.16"/><circle class="cls-3" cx="205.8" cy="195.82" r="2.16"/><circle class="cls-3" cx="191.39" cy="181.42" r="2.16"/><circle class="cls-3" cx="205.8" cy="181.42" r="2.16"/><circle class="cls-3" cx="213" cy="174.23" r="2.16"/><circle class="cls-3" cx="198.6" cy="174.23" r="2.16"/><circle class="cls-3" cx="213" cy="217.42" r="2.16"/><circle class="cls-3" cx="198.6" cy="217.42" r="2.16"/><circle class="cls-3" cx="191.39" cy="224.62" r="2.16"/><circle class="cls-3" cx="205.8" cy="224.62" r="2.16"/><circle class="cls-3" cx="191.39" cy="210.22" r="2.16"/><circle class="cls-3" cx="205.8" cy="210.22" r="2.16"/><circle class="cls-3" cx="213" cy="203.02" r="2.16"/><circle class="cls-3" cx="198.6" cy="203.02" r="2.16"/><circle class="cls-3" cx="213" cy="246.22" r="2.16"/><circle class="cls-3" cx="198.6" cy="246.22" r="2.16"/><circle class="cls-3" cx="191.39" cy="253.42" r="2.16"/><circle class="cls-3" cx="205.8" cy="253.42" r="2.16"/><circle class="cls-3" cx="191.39" cy="239.02" r="2.16"/><circle class="cls-3" cx="205.8" cy="239.02" r="2.16"/><circle class="cls-3" cx="213" cy="231.82" r="2.16"/><circle class="cls-3" cx="198.6" cy="231.82" r="2.16"/><path class="cls-3" d="M191.39,265.66a2.16,2.16,0,0,0-2.16,2.16s0,0,0,0h4.31s0,0,0,0A2.16,2.16,0,0,0,191.39,265.66Z"/><path class="cls-3" d="M205.8,265.66a2.16,2.16,0,0,0-2.16,2.16s0,0,0,0H208s0,0,0,0A2.16,2.16,0,0,0,205.8,265.66Z"/><circle class="cls-3" cx="213" cy="260.62" r="2.16"/><circle class="cls-3" cx="198.6" cy="260.62" r="2.16"/><path class="cls-3" d="M179,139.12q-1,.62-1.91,1.26A2.16,2.16,0,0,0,179,139.12Z"/><circle class="cls-3" cx="184.19" cy="159.82" r="2.16"/><circle class="cls-3" cx="169.79" cy="159.82" r="2.16"/><circle class="cls-3" cx="162.59" cy="167.02" r="2.16"/><circle class="cls-3" cx="177" cy="167.02" r="2.16"/><path class="cls-3" d="M162.59,154.78A2.15,2.15,0,0,0,164,151q-1.54,1.49-3,3A2.15,2.15,0,0,0,162.59,154.78Z"/><circle class="cls-3" cx="177" cy="152.62" r="2.16"/><circle class="cls-3" cx="184.19" cy="145.43" r="2.16"/><path class="cls-3" d="M172,145.43a2.14,2.14,0,0,0-.31-1.1q-1.68,1.31-3.29,2.7a2.15,2.15,0,0,0,3.6-1.6Z"/><circle class="cls-3" cx="184.19" cy="188.62" r="2.16"/><circle class="cls-3" cx="169.79" cy="188.62" r="2.16"/><circle class="cls-3" cx="162.59" cy="195.82" r="2.16"/><circle class="cls-3" cx="177" cy="195.82" r="2.16"/><circle class="cls-3" cx="162.59" cy="181.42" r="2.16"/><circle class="cls-3" cx="177" cy="181.42" r="2.16"/><circle class="cls-3" cx="184.19" cy="174.23" r="2.16"/><circle class="cls-3" cx="169.79" cy="174.23" r="2.16"/><circle class="cls-3" cx="184.19" cy="217.42" r="2.16"/><circle class="cls-3" cx="169.79" cy="217.42" r="2.16"/><circle class="cls-3" cx="162.59" cy="224.62" r="2.16"/><circle class="cls-3" cx="177" cy="224.62" r="2.16"/><circle class="cls-3" cx="162.59" cy="210.22" r="2.16"/><circle class="cls-3" cx="177" cy="210.22" r="2.16"/><circle class="cls-3" cx="184.19" cy="203.02" r="2.16"/><circle class="cls-3" cx="169.79" cy="203.02" r="2.16"/><circle class="cls-3" cx="184.19" cy="246.22" r="2.16"/><circle class="cls-3" cx="169.79" cy="246.22" r="2.16"/><circle class="cls-3" cx="162.59" cy="253.42" r="2.16"/><circle class="cls-3" cx="177" cy="253.42" r="2.16"/><circle class="cls-3" cx="162.59" cy="239.02" r="2.16"/><circle class="cls-3" cx="177" cy="239.02" r="2.16"/><circle class="cls-3" cx="184.19" cy="231.82" r="2.16"/><circle class="cls-3" cx="169.79" cy="231.82" r="2.16"/><path class="cls-3" d="M162.59,265.66a2.16,2.16,0,0,0-2.16,2.16s0,0,0,0h4.31s0,0,0,0A2.16,2.16,0,0,0,162.59,265.66Z"/><path class="cls-3" d="M177,265.66a2.16,2.16,0,0,0-2.16,2.16s0,0,0,0h4.31s0,0,0,0A2.16,2.16,0,0,0,177,265.66Z"/><circle class="cls-3" cx="184.19" cy="260.62" r="2.16"/><circle class="cls-3" cx="169.79" cy="260.62" r="2.16"/><path class="cls-3" d="M157.55,159.82a2.14,2.14,0,0,0-.53-1.4q-1.36,1.62-2.65,3.29a2.14,2.14,0,0,0,1,.27A2.16,2.16,0,0,0,157.55,159.82Z"/><path class="cls-3" d="M150.32,167.37c-.32.49-.64,1-1,1.46A2.15,2.15,0,0,0,150.32,167.37Z"/><circle class="cls-3" cx="155.39" cy="188.62" r="2.16"/><path class="cls-3" d="M141,190.78a2.16,2.16,0,1,0-.56-4.24c-.42,1.1-.82,2.2-1.21,3.32A2.15,2.15,0,0,0,141,190.78Z"/><circle class="cls-3" cx="148.19" cy="195.82" r="2.16"/><circle class="cls-3" cx="148.19" cy="181.42" r="2.16"/><circle class="cls-3" cx="155.39" cy="174.23" r="2.16"/><circle class="cls-3" cx="155.39" cy="217.42" r="2.16"/><circle class="cls-3" cx="140.99" cy="217.42" r="2.16"/><path class="cls-3" d="M136,224.62a2.15,2.15,0,0,0-1.94-2.14q0,2.14.13,4.26A2.16,2.16,0,0,0,136,224.62Z"/><circle class="cls-3" cx="148.19" cy="224.62" r="2.16"/><path class="cls-3" d="M136,210.22a2.15,2.15,0,0,0-1.07-1.86q-.26,1.94-.44,3.91A2.15,2.15,0,0,0,136,210.22Z"/><circle class="cls-3" cx="148.19" cy="210.22" r="2.16"/><circle class="cls-3" cx="155.39" cy="203.02" r="2.16"/><circle class="cls-3" cx="140.99" cy="203.02" r="2.16"/><circle class="cls-3" cx="155.39" cy="246.22" r="2.16"/><circle class="cls-3" cx="140.99" cy="246.22" r="2.16"/><circle class="cls-3" cx="148.19" cy="253.42" r="2.16"/><path class="cls-3" d="M135.3,237.48c.14.83.28,1.66.43,2.48a2.13,2.13,0,0,0-.43-2.48Z"/><circle class="cls-3" cx="148.19" cy="239.02" r="2.16"/><circle class="cls-3" cx="155.39" cy="231.82" r="2.16"/><circle class="cls-3" cx="140.99" cy="231.82" r="2.16"/><path class="cls-3" d="M148.19,265.66a2.16,2.16,0,0,0-2.16,2.16s0,0,0,0h4.31s0,0,0,0A2.16,2.16,0,0,0,148.19,265.66Z"/><circle class="cls-3" cx="155.39" cy="260.62" r="2.16"/><path class="cls-3" d="M141.22,258.49q.71,1.74,1.48,3.45a2.14,2.14,0,0,0-1.48-3.45Z"/><path class="cls-3" d="M513,0A183.6,183.6,0,0,0,344.23,111.27q-3.09-.15-6.22-.15a128.05,128.05,0,0,0-121.62,88H126c-52,0-126,25.51-126,68.76H513Z"/></g></g></svg>