<svg xmlns="http://www.w3.org/2000/svg" viewBox="0 0 44.79 44.79"><defs><style>.cls-1{fill:none;}.cls-2{fill:#61cae2;}.cls-3{fill:#fff;}</style></defs><title>1-alert</title><g id="Layer_2" data-name="Layer 2"><g id="Top_layer" data-name="Top layer"><g id="Frame_-_24px" data-name="Frame - 24px"><rect class="cls-1" width="44.79" height="44.79"/></g><g id="Filled_Icons" data-name="Filled Icons"><path class="cls-2" d="M10.37,41.05a7.4,7.4,0,0,0,12.86,0Z"/><path class="cls-2" d="M28,31.72V25.06a14.93,14.93,0,0,1-9.32-13.69,11.07,11.07,0,0,0-1.87-.17A11.2,11.2,0,0,0,5.6,22.39v9.33A5.6,5.6,0,0,1,0,37.32v1.87H33.59V37.32A5.6,5.6,0,0,1,28,31.72Z"/><path class="cls-3" d="M33.59,0a11.2,11.2,0,1,0,11.2,11.2A11.21,11.21,0,0,0,33.59,0Zm5.6,13.06H31.72V3.73h3.73v5.6h3.73Z"/></g></g></g></svg>