<svg xmlns="http://www.w3.org/2000/svg" viewBox="0 0 43.2 43.2"><defs><style>.cls-1{fill:none;}.cls-2{fill:#4bcae2;}.cls-3{fill:#fff;}.cls-4{fill:#61cae2;}</style></defs><title>1-save</title><g id="Layer_2" data-name="Layer 2"><g id="Top_layer" data-name="Top layer"><g id="Frame_-_24px" data-name="Frame - 24px"><rect class="cls-1" width="43.2" height="43.2"/></g><g id="Filled_Icons" data-name="Filled Icons"><path class="cls-2" d="M0,5.4V7.2A1.79,1.79,0,0,0,.53,8.47L10.8,18.74V32.4a1.8,1.8,0,0,0,1.11,1.66,1.78,1.78,0,0,0,.69.14,1.8,1.8,0,0,0,1.27-.53l3.6-3.6A1.8,1.8,0,0,0,18,28.8V18.74L28.27,8.47A1.79,1.79,0,0,0,28.8,7.2V5.4Z"/><path class="cls-3" d="M25.2,0H3.6A3.6,3.6,0,0,0,0,3.6H28.8A3.6,3.6,0,0,0,25.2,0Z"/><g id="Filled_Icons-2" data-name="Filled Icons"><rect class="cls-3" x="25.54" y="22.91" width="10" height="5"/><path class="cls-4" d="M40,24.32l-2.83-2.83a2,2,0,0,0-1.41-.59H24.54a2,2,0,0,0-2,2v14a2,2,0,0,0,2,2h14a2,2,0,0,0,2-2V25.73A2,2,0,0,0,40,24.32ZM31.54,35.41a2.5,2.5,0,1,1,2.5-2.5A2.5,2.5,0,0,1,31.54,35.41Zm4-7.5h-10v-5h10Z"/></g></g></g></g></svg>