<svg xmlns="http://www.w3.org/2000/svg" viewBox="0 0 49.88 49.88"><defs><style>.cls-1{fill:none;}.cls-2{fill:#4bcae2;}.cls-3{fill:#fff;}</style></defs><title>1-star</title><g id="Layer_2" data-name="Layer 2"><g id="Top_layer" data-name="Top layer"><g id="Frame_-_24px" data-name="Frame - 24px"><rect class="cls-1" width="49.88" height="49.88"/></g><g id="Filled_Icons" data-name="Filled Icons"><path class="cls-2" d="M37.41,19a16.73,16.73,0,0,1,4.16.54V6a4.22,4.22,0,0,0-4.22-4.22H4.26A4.26,4.26,0,0,0,0,6V31.47a4.16,4.16,0,0,0,4.16,4.16H20.78A16.63,16.63,0,0,1,37.41,19Z"/><path class="cls-3" d="M48.3,32.06H41.36a.58.58,0,0,1-.54-.36l-2.88-7.21a.58.58,0,0,0-1.07,0L34,31.7a.58.58,0,0,1-.54.36H26.52a.58.58,0,0,0-.37,1l6.17,5.21a.58.58,0,0,1,.16.67l-3.2,7.35a.58.58,0,0,0,.85.71l7-4.61a.58.58,0,0,1,.64,0l7,4.61a.58.58,0,0,0,.85-.71L42.34,39a.58.58,0,0,1,.16-.67l6.17-5.21A.58.58,0,0,0,48.3,32.06Z"/></g></g></g></svg>