<svg xmlns="http://www.w3.org/2000/svg" viewBox="0 0 43.2 43.2"><defs><style>.cls-1{fill:none;}.cls-2{fill:#4bcae2;}.cls-3{fill:#fff;}</style></defs><title>1-streamline</title><g id="Layer_2" data-name="Layer 2"><g id="Top_layer" data-name="Top layer"><g id="Frame_-_24px" data-name="Frame - 24px"><rect class="cls-1" width="43.2" height="43.2"/></g><g id="Filled_Icons" data-name="Filled Icons"><path class="cls-2" d="M40.87,20.33,24.67,4.13A1.8,1.8,0,0,0,21.6,5.4v5.4H16.16a1.8,1.8,0,0,0-1.8,1.8S14.13,26,14.24,30.73A1.71,1.71,0,0,0,16,32.4H21.6v5.4a1.8,1.8,0,0,0,3.07,1.27l16.2-16.2A1.8,1.8,0,0,0,40.87,20.33Z"/></g><rect class="cls-3" x="5.46" y="10.76" width="6.41" height="21.64" rx="1.16" ry="1.16"/><rect class="cls-3" y="10.76" width="3.21" height="21.64" rx="0.82" ry="0.82"/></g></g></svg>