<svg xmlns="http://www.w3.org/2000/svg" viewBox="0 0 515.19 345.88"><defs><style>.cls-1{isolation:isolate;}.cls-2{fill:#ff6e56;}.cls-3{fill:#015abc;}.cls-4{fill:#61cae2;}.cls-5{fill:#fff;}.cls-6{fill:#fafafa;}.cls-7{fill:#e2e2e2;}.cls-8{fill:#f3f4f4;}.cls-9{fill:#e3e3e3;}.cls-10{fill:#0364c4;}.cls-11{fill:#73c290;}.cls-12{fill:#1d86e0;}.cls-13{fill:#ccc;}.cls-14{fill:#93e2b8;}.cls-15{fill:#ee624e;}.cls-16{fill:#3c9fb0;}.cls-17{fill:#ffa293;}.cls-18{fill:#f47c69;}.cls-19{mix-blend-mode:multiply;}.cls-20{fill:#eaeaea;}.cls-21{fill:#e2e2e6;}.cls-22{fill:none;}</style></defs><title>2-confusion</title><g class="cls-1"><g id="Layer_2" data-name="Layer 2"><g id="Top_layer" data-name="Top layer"><path class="cls-2" d="M55.28,176.86C44.68,175,40.7,165.27,40.52,156.28c-.49-6.54-1.86-7.12-4.7-8-3-1-6.6,2.31-6.43,6.06a21,21,0,0,0,.71,3.49c.95,4.27-.43,7.57-4.32,9.57-2.51,1.29-5,2.84-8,2.94-.23,2,1.78,12.16,1.8,16.4.05,8.76,30.09,4.79,30-2.11C50.16,178,47.3,180.79,55.28,176.86Z"/><path class="cls-2" d="M61.33,130.1c4.74,7.58,7,16.21,10.42,24.35.74,1.76.09,2.9-1.75,3.4-.53.14-1,.37-1.56.56-.86-.08-1.73-.21-2.59-.22-3.37,0-6.6.88-9.84,1.6-4.06.91-7.15-.53-9.59-3.69a14.09,14.09,0,0,1-2.87-8.64c-.11-5.94-.15-11.86-3-17.39-1.45-2.77-.15-6.07,2.39-8a17.7,17.7,0,0,1,4-2C52.93,121.63,57.48,125.37,61.33,130.1Z"/><path class="cls-3" d="M9.17,136.82a27,27,0,0,1,2.63-8.63,23.51,23.51,0,0,1,17.31-12.65c21.43-3.71,28.26,3.66,32.63,1.85a4.66,4.66,0,0,0,2-2.72s10.74,11.66-1.09,16-12-6.78-21.44-1a2.69,2.69,0,0,0-.65.55,27.18,27.18,0,0,1,2.72,10.42h0c.19,2.27.23,4.56.27,6.86a14.1,14.1,0,0,0,2.87,8.64c2.44,3.16,5.53,4.6,9.59,3.69,3.24-.73,6.48-1.62,9.84-1.6.86,0,1.73.14,2.59.22.27,2.52.66,5,.8,7.57.3,5.31-.72,8.54-7,9.58-2.34.39-4.74.44-7,1.3C44.68,175,40.7,165.27,40.52,156.28a8.58,8.58,0,0,0-5.42-7.38c-3-1-5.88,1.66-5.71,5.41a21,21,0,0,0,.71,3.49c.95,4.27-.43,7.57-4.32,9.57-2.51,1.29-5,2.84-8,2.94a25,25,0,0,0-5.72-15.63,31.75,31.75,0,0,1-3.07-13A45.38,45.38,0,0,1,9.17,136.82Z"/><circle class="cls-3" cx="59.33" cy="145.01" r="2.01" transform="translate(-0.89 0.37) rotate(-0.35)"/><path class="cls-4" d="M420.05,298.73c10.65-1.51,14.74-9.81,15.23-18.79.72-6.52,2.1-7.05,5-7.86,3.08-.87,6.52,2.53,6.22,6.28a21,21,0,0,1-.83,3.46c-1.09,4.23.17,7.58,4,9.71,2.46,1.38,4.88,3,7.85,3.21.16,2-2.2,12.09-2.37,16.33-.36,8.75-30.24,3.75-30-3.15C424.91,301.28,427.89,302.93,420.05,298.73Z"/><path class="cls-4" d="M430.16,243.49a17.7,17.7,0,0,1,3.94,2.18c2.47,2,3.65,5.38,2.11,8.1-3.08,5.43-3.32,11.35-3.64,17.28a14.09,14.09,0,0,1-3.17,8.53c-2.55,3.07-5.46,3.14-9.49,2.09-3.22-.84-6.42-1.84-9.78-1.94-.86,0-1.73.08-2.6.13-.51-.21-1-.45-1.54-.61-1.82-.56-2.43-1.73-1.63-3.46,3.69-8,6-15.3,11-22.71C419.41,248.46,424.08,244.88,430.16,243.49Z"/><path class="cls-4" d="M430.73,277.65a13.49,13.49,0,0,1-1.33,1.92c-2.55,3.07-5.46,3.14-9.49,2.09-3.22-.84-6.42-1.84-9.78-1.94-.86,0-1.73.08-2.6.13-.36,2.51-.83,5-1.06,7.53-.48,5.29.42,8.56,6.64,9.82,2.32.47,4.72.6,6.93,1.54,10.65-1.51,14.74-9.81,15.23-18.79"/><path class="cls-3" d="M435.28,279.94a8.58,8.58,0,0,1,5.67-7.19c3.08-.87,5.82,1.86,5.52,5.61a21,21,0,0,1-.83,3.46c-1.09,4.23.17,7.58,4,9.71,2.46,1.38,4.88,3,7.85,3.21a25,25,0,0,1,6.26-15.43,31.75,31.75,0,0,0,3.52-12.9,45.38,45.38,0,0,0,0-4.84,27,27,0,0,0-2.33-8.71c-3.45-7.14-9.29-11.91-16.87-13.24-28.94-5.08-43.09,9.25-30.82,11.41,13,2.29,9-3.8,18.25,2.26a2.69,2.69,0,0,1,.63.57,27.18,27.18,0,0,0-3.08,10.32h0c-.27,2.26-.38,4.55-.51,6.85a14.7,14.7,0,0,1-1.84,6.61"/><circle class="cls-3" cx="416.88" cy="268.03" r="2.01" transform="translate(132.09 673.65) rotate(-87.67)"/><path class="cls-3" d="M407.59,279.5c11.29.65,9.82,4.71,19.57,4.46,0,0-10.75,2.75-20.4,1"/><path class="cls-4" d="M341.89,225.73l-21.83,2.74a6.88,6.88,0,0,0-6,7.68l5.82,46.39a6.88,6.88,0,0,0,7.68,6l21.83-2.74a6.88,6.88,0,0,0,6-7.68l-5.82-46.39A6.88,6.88,0,0,0,341.89,225.73Zm-3.73,58.67a4.13,4.13,0,1,1,3.58-4.61A4.12,4.12,0,0,1,338.17,284.4Zm10.91-12.46L324.52,275l-4.79-38.2,24.56-3.08Z"/><rect class="cls-5" x="322.03" y="235.14" width="24.75" height="38.5" transform="translate(-29.07 43.61) rotate(-7.15)"/><polygon class="cls-6" points="349.07 271.95 324.52 275.03 319.73 236.83 349.07 271.95"/><path class="cls-2" d="M454.81,71.76c3.37-.23,6.77,4.84,10.14,4.55,2.31-.19,6.14-1.09,7.81.39,1.32,1.17,13.69,11.1,11.22,15.21-.76,1.26,1.18,2.09,1.61,3.44,2.27,7.1,6.95,6.81,9.21,13.91.37,1.17,3.68.29,4.55,1.19,0,2.06,1.87,15.83.79,16.88-1.18,2.85-17.51,6.08-25.1.29,3.34-13.82-3.35-17.26-6-17.15-5.35.23-8.84-1.75-11.13-6.36-.48-2.16-1-4.32-1.43-6.48-.22-1-1.63-1.53-2.67-1.75-1.38-.29-2.46-1.32-1.81-2.62,2.45-4.92,2.42-15.45,2.74-20.59C454.75,72.37,454.78,72.07,454.81,71.76Z"/><path class="cls-3" d="M511.18,94.27c-1.31-20-11.18-40.67-34.88-40.2-3.14.06-19-1.67-24.15,16.17,2.77,5.26,8.7,6.23,11.82,6.1,21.08-.9,24,28.81,18.55,45.71C482.52,122,511.86,110.12,511.18,94.27Z"/><circle class="cls-3" cx="461.43" cy="85.72" r="1.99" transform="translate(-1.6 9.1) rotate(-1.13)"/><g id="Filled_Icons" data-name="Filled Icons"><path class="cls-4" d="M342.38,50.87l17.47-18.44a6.33,6.33,0,0,0-1.77.06l-37.14,7.23a6.33,6.33,0,0,0-1.67.61Z"/><path class="cls-4" d="M345.41,56.84a3.14,3.14,0,0,1-3.6.7l-26-11.84a6.29,6.29,0,0,0,.1,1.42l4.82,24.76a6.31,6.31,0,0,0,7.4,5l37.14-7.23a6.31,6.31,0,0,0,5-7.4l-4.82-24.76a6.07,6.07,0,0,0-.44-1.35Z"/></g><g id="Line_Icons" data-name="Line Icons"><path class="cls-4" d="M216.24,130.06l.68-5a2.53,2.53,0,0,0-2.17-2.85l-10-1.37a2.53,2.53,0,0,0-2.85,2.17l-.68,5-17.57-2.39-.68,5L200.5,133l-.68,5A2.53,2.53,0,0,0,202,140.9l10,1.37a2.53,2.53,0,0,0,2.85-2.17l.68-5,17.57,2.39.68-5Zm-6,6.84-5-.68,1.37-10,5,.68Z"/><path class="cls-4" d="M226.05,151.85a2.53,2.53,0,0,0-2.17-2.85l-10-1.37A2.53,2.53,0,0,0,211,149.8l-.68,5-30.12-4.1-.68,5,30.12,4.1-.68,5a2.53,2.53,0,0,0,2.17,2.85l10,1.37a2.53,2.53,0,0,0,2.85-2.17l.68-5,5,.68.68-5-5-.68Zm-6.73,11.86-5-.68,1.37-10,5,.68Z"/><rect class="cls-5" x="203.31" y="129.01" width="10.13" height="5.07" transform="translate(49.9 320.25) rotate(-82.24)"/><rect class="cls-5" x="212.43" y="155.82" width="10.13" height="5.07" transform="translate(31.23 352.48) rotate(-82.24)"/></g><rect class="cls-5" x="13.4" y="14.37" width="273.21" height="78.07" rx="2.62" ry="2.62"/><path class="cls-7" d="M284,93H16a3.23,3.23,0,0,1-3.22-3.22V17A3.23,3.23,0,0,1,16,13.77H284A3.23,3.23,0,0,1,287.22,17V89.83A3.23,3.23,0,0,1,284,93ZM16,15a2,2,0,0,0-2,2V89.83a2,2,0,0,0,2,2H284a2,2,0,0,0,2-2V17a2,2,0,0,0-2-2Z"/><rect class="cls-8" x="66.46" y="65.05" width="208.62" height="13.47"/><rect class="cls-8" x="66.46" y="27.28" width="208.62" height="13.47"/><rect class="cls-8" x="66.46" y="46.16" width="208.62" height="13.47"/><rect class="cls-9" x="66.01" y="25.29" width="0.91" height="57.15"/><polygon class="cls-10" points="23.59 26.44 23.59 36.73 23.59 45.14 23.59 53.27 23.59 72.28 23.59 82.44 59.76 82.44 59.76 72.28 59.76 53.27 59.76 45.14 59.76 36.73 59.76 26.44 23.59 26.44"/><polygon class="cls-11" points="79.53 60.63 85.96 52.9 79.53 45.17 73.1 52.9 79.53 60.63"/><polygon class="cls-11" points="208.7 60.63 215.13 52.9 208.7 45.17 202.27 52.9 208.7 60.63"/><rect class="cls-10" x="66.74" y="64.81" width="104.14" height="14.78"/><rect class="cls-10" x="206.66" y="64.81" width="68.69" height="14.78"/><rect class="cls-11" x="124.84" y="27.92" width="12.03" height="12.18"/><rect class="cls-11" x="222.68" y="27.92" width="12.03" height="12.18"/><rect class="cls-12" x="93.09" y="70.41" width="51.45" height="3.59"/><rect class="cls-13" x="141.77" y="32.22" width="32.71" height="3.59"/><rect class="cls-13" x="93.09" y="51.1" width="32.71" height="3.59"/><rect class="cls-13" x="242.06" y="32.22" width="22.3" height="3.59"/><rect class="cls-13" x="220.76" y="51.1" width="34.74" height="3.59"/><rect class="cls-12" x="39.39" y="41.45" width="4.82" height="26.22"/><rect class="cls-12" x="221.05" y="70.41" width="39.92" height="3.59"/><path class="cls-3" d="M400.83,31.31C417.39,51,417.19,62.21,418,79.41l5.1-.24c0-22.27-6.54-38.26-18.44-51.24Z"/><path class="cls-3" d="M427.64,68.87l-6.38,16.56a0,0,0,0,1-.08,0l-9-15.81Z"/><path class="cls-3" d="M358.3,302.76c-24.65,10.89-35.16,7-51.66,2.12L305,310.32c21,7.38,38.46,5.82,55.08-2.39Z"/><path class="cls-3" d="M313,318.48l-13.24-12.2a.05.05,0,0,1,0-.09L318,302Z"/><path class="cls-3" d="M122.27,168.82c-4.07-26.64,2.47-35.75,11.45-50.42l-4.81-3c-12.61,18.32-15.66,35.6-12.08,53.79Z"/><path class="cls-3" d="M118.93,121l15.23-9.59a.05.05,0,0,1,.08,0l-.72,18.67Z"/><rect class="cls-14" x="297.15" y="164.89" width="44.33" height="44.33" rx="1.57" ry="1.57"/><rect class="cls-2" x="360.06" y="102.69" width="44.33" height="44.33" rx="1.57" ry="1.57"/><rect class="cls-14" x="359.91" y="164.89" width="44.33" height="44.33" rx="1.57" ry="1.57"/><path class="cls-2" d="M297.15,144.68V105a2.33,2.33,0,0,1,2.33-2.33h39.66a2.33,2.33,0,0,1,2.33,2.33v28.53L328,147H299.48A2.33,2.33,0,0,1,297.15,144.68Z"/><polygon class="cls-15" points="328.01 147.02 328.01 133.56 341.47 133.56 328.01 147.02"/><path class="cls-4" d="M428.88,210.62l-6.49-40.28a1.67,1.67,0,0,1,1.38-1.91l40.47-6.52a1.67,1.67,0,0,1,1.91,1.38l4.64,28.83-11.15,15.43L431,212.16A1.86,1.86,0,0,1,428.88,210.62Z"/><polygon class="cls-16" points="459.64 207.55 457.5 194.26 470.8 192.12 459.64 207.55"/><path class="cls-17" d="M391.48,117.76h-19.4a1.61,1.61,0,1,1,0-3.22h19.4a1.61,1.61,0,1,1,0,3.22Z"/><path class="cls-17" d="M385.17,126.46h-13.1a1.61,1.61,0,1,1,0-3.22h13.1a1.61,1.61,0,1,1,0,3.22Z"/><path class="cls-17" d="M326.59,117.76h-19.4a1.61,1.61,0,0,1,0-3.22h19.4a1.61,1.61,0,0,1,0,3.22Z"/><path class="cls-17" d="M320.28,126.46h-13.1a1.61,1.61,0,0,1,0-3.22h13.1a1.61,1.61,0,1,1,0,3.22Z"/><path class="cls-16" d="M385.17,180h-13.1a1.61,1.61,0,1,1,0-3.22h13.1a1.61,1.61,0,0,1,0,3.22Z"/><path class="cls-16" d="M388.84,188.43H371.41a1.39,1.39,0,0,1,0-2.78h17.43a1.39,1.39,0,0,1,0,2.78Z"/><path class="cls-16" d="M322.49,179.59h-15.3a1.61,1.61,0,1,1,0-3.22h15.3a1.61,1.61,0,1,1,0,3.22Z"/><path class="cls-16" d="M330,188.66h-22.8a1.61,1.61,0,0,1,0-3.22H330a1.61,1.61,0,0,1,0,3.22Z"/><rect class="cls-18" x="68.92" y="197.45" width="92.53" height="28.26"/><rect class="cls-17" x="112.77" y="196.7" width="4.84" height="29.76" rx="1.05" ry="1.05" transform="translate(326.77 96.4) rotate(90)"/><g class="cls-19"><path class="cls-20" d="M159.82,237.85H70.76c-.91,0-1.65,1.19-1.65,2.66v13.55c0,1.47.74,2.66,1.65,2.66h89.06c.91,0,1.65-1.19,1.65-2.66V240.51C161.47,239,160.73,237.85,159.82,237.85Z"/></g><path class="cls-5" d="M159.82,237H70.76c-.91,0-1.65,1.19-1.65,2.66v13.55c0,1.47.74,2.66,1.65,2.66h89.06c.91,0,1.65-1.19,1.65-2.66V239.63C161.47,238.16,160.73,237,159.82,237Z"/><path class="cls-7" d="M159.82,256.58H70.76c-1.34,0-2.39-1.49-2.39-3.4V239.63c0-1.9,1-3.4,2.39-3.4h89.06c1.34,0,2.39,1.49,2.39,3.4v13.55C162.21,255.09,161.16,256.58,159.82,256.58ZM70.76,237.71c-.37,0-.91.75-.91,1.92v13.55c0,1.17.54,1.92.91,1.92h89.06c.37,0,.91-.75.91-1.92V239.63c0-1.17-.54-1.92-.91-1.92Z"/><path class="cls-18" d="M74.43,255.84H70.76c-.91,0-1.65-1.19-1.65-2.66V239.63c0-1.47.74-2.66,1.65-2.66h3.67"/><g class="cls-19"><path class="cls-20" d="M159.8,291.78H70.74c-.91,0-1.65,1.15-1.65,2.57v13.12c0,1.42.74,2.57,1.65,2.57H159.8c.91,0,1.65-1.15,1.65-2.57V294.35C161.45,292.93,160.72,291.78,159.8,291.78Z"/></g><path class="cls-5" d="M159.8,290.93H70.74c-.91,0-1.65,1.15-1.65,2.57v13.12c0,1.42.74,2.57,1.65,2.57H159.8c.91,0,1.65-1.15,1.65-2.57V293.5C161.45,292.08,160.72,290.93,159.8,290.93Z"/><path class="cls-7" d="M159.8,309.91H70.74c-1.33,0-2.37-1.45-2.37-3.3V293.5c0-1.85,1-3.3,2.38-3.3H159.8c1.33,0,2.38,1.45,2.38,3.3v13.12C162.18,308.46,161.14,309.91,159.8,309.91ZM70.74,291.65c-.38,0-.92.72-.92,1.84v13.12c0,1.13.55,1.84.92,1.84H159.8c.38,0,.92-.72.92-1.84V293.5c0-1.12-.55-1.84-.92-1.84Z"/><path class="cls-18" d="M74.41,309.18H70.74c-.91,0-1.65-1.15-1.65-2.57V293.5c0-1.42.74-2.57,1.65-2.57h3.67"/><g class="cls-19"><path class="cls-20" d="M159.82,262.17H70.76c-.91,0-1.65,1.19-1.65,2.66v13.55c0,1.47.74,2.66,1.65,2.66h89.06c.91,0,1.65-1.19,1.65-2.66V264.82C161.47,263.36,160.73,262.17,159.82,262.17Z"/></g><path class="cls-5" d="M159.82,261.29H70.76c-.91,0-1.65,1.19-1.65,2.66V277.5c0,1.47.74,2.66,1.65,2.66h89.06c.91,0,1.65-1.19,1.65-2.66V263.94C161.47,262.48,160.73,261.29,159.82,261.29Z"/><path class="cls-7" d="M159.82,280.89H70.76c-1.34,0-2.39-1.49-2.39-3.4V263.94c0-1.9,1-3.39,2.39-3.39h89.06c1.34,0,2.39,1.49,2.39,3.39V277.5C162.21,279.4,161.16,280.89,159.82,280.89ZM70.76,262c-.37,0-.91.75-.91,1.92V277.5c0,1.17.54,1.92.91,1.92h89.06c.37,0,.91-.75.91-1.92V263.94c0-1.17-.54-1.92-.91-1.92Z"/><path class="cls-18" d="M74.43,280.16H70.76c-.91,0-1.65-1.19-1.65-2.66V263.94c0-1.47.74-2.66,1.65-2.66h3.67"/><g class="cls-19"><path class="cls-20" d="M159.8,317.14H70.74c-.91,0-1.65,1-1.65,2.34v12c0,1.29.74,2.34,1.65,2.34H159.8c.91,0,1.65-1,1.65-2.34v-12C161.45,318.19,160.72,317.14,159.8,317.14Z"/></g><path class="cls-5" d="M159.8,316.36H70.74c-.91,0-1.65,1-1.65,2.34v12c0,1.29.74,2.34,1.65,2.34H159.8c.91,0,1.65-1,1.65-2.34v-12C161.45,317.41,160.72,316.36,159.8,316.36Z"/><path class="cls-7" d="M159.8,333.69H70.74c-1.31,0-2.34-1.33-2.34-3v-12c0-1.7,1-3,2.34-3H159.8c1.31,0,2.34,1.33,2.34,3v12C162.15,332.36,161.12,333.69,159.8,333.69ZM70.74,317.05c-.45,0-1,.68-1,1.65v12c0,1,.5,1.65,1,1.65H159.8c.45,0,1-.68,1-1.65v-12c0-1-.5-1.65-1-1.65Z"/><path class="cls-18" d="M74.41,333H70.74c-.91,0-1.65-1-1.65-2.34v-12c0-1.29.74-2.34,1.65-2.34h3.67"/><rect class="cls-21" x="81.3" y="244.4" width="57.37" height="4.01"/><rect class="cls-21" x="81.3" y="268.04" width="40.62" height="4.01"/><rect class="cls-21" x="81.3" y="298.05" width="40.62" height="4.01"/><rect class="cls-21" x="81.3" y="323.26" width="50.88" height="4.4"/><rect class="cls-4" x="206.72" y="165.32" width="28.26" height="92.53" transform="translate(432.44 -9.27) rotate(90)"/><rect class="cls-16" x="218.43" y="196.7" width="4.84" height="29.76" rx="1.05" ry="1.05" transform="translate(432.44 -9.27) rotate(90)"/><g class="cls-19"><path class="cls-20" d="M265.49,237.84H176.43c-.91,0-1.65,1.17-1.65,2.6v13.28c0,1.44.74,2.6,1.65,2.6h89.06c.91,0,1.65-1.17,1.65-2.6V240.44C267.14,239,266.4,237.84,265.49,237.84Z"/></g><path class="cls-5" d="M265.49,237H176.43c-.91,0-1.65,1.17-1.65,2.6v13.28c0,1.44.74,2.6,1.65,2.6h89.06c.91,0,1.65-1.17,1.65-2.6V239.58C267.14,238.14,266.4,237,265.49,237Z"/><path class="cls-7" d="M265.49,256.2H176.43c-1.33,0-2.38-1.47-2.38-3.34V239.58c0-1.87,1-3.33,2.38-3.33h89.06c1.33,0,2.38,1.46,2.38,3.33v13.28C267.87,254.73,266.82,256.2,265.49,256.2ZM176.43,237.7c-.37,0-.92.73-.92,1.87v13.28c0,1.14.54,1.87.92,1.87h89.06c.37,0,.92-.73.92-1.87V239.58c0-1.14-.54-1.87-.92-1.87Z"/><path class="cls-3" d="M180.1,255.46h-3.67c-.91,0-1.65-1.17-1.65-2.6V239.58c0-1.44.74-2.6,1.65-2.6h3.67"/><g class="cls-19"><path class="cls-20" d="M265.47,291.84H176.41c-.91,0-1.65,1.24-1.65,2.77v14.13c0,1.53.74,2.77,1.65,2.77h89.06c.91,0,1.65-1.24,1.65-2.77V294.61C267.12,293.08,266.38,291.84,265.47,291.84Z"/></g><path class="cls-5" d="M265.47,290.93H176.41c-.91,0-1.65,1.24-1.65,2.77v14.13c0,1.53.74,2.77,1.65,2.77h89.06c.91,0,1.65-1.24,1.65-2.77V293.7C267.12,292.17,266.38,290.93,265.47,290.93Z"/><path class="cls-7" d="M265.47,311.35H176.41c-1.35,0-2.4-1.55-2.4-3.52V293.7c0-2,1.05-3.52,2.4-3.52h89.06c1.35,0,2.4,1.55,2.4,3.52v14.13C267.87,309.8,266.82,311.35,265.47,311.35Zm-89.06-19.67c-.36,0-.89.8-.89,2v14.13c0,1.21.54,2,.89,2h89.06c.36,0,.89-.8.89-2V293.7c0-1.21-.54-2-.89-2Z"/><path class="cls-3" d="M180.08,310.6h-3.67c-.91,0-1.65-1.24-1.65-2.77V293.7c0-1.53.74-2.77,1.65-2.77h3.67"/><g class="cls-19"><path class="cls-20" d="M265.49,261.66H176.43c-.91,0-1.65,1.17-1.65,2.6v13.28c0,1.44.74,2.6,1.65,2.6h89.06c.91,0,1.65-1.17,1.65-2.6V264.27C267.14,262.83,266.4,261.66,265.49,261.66Z"/></g><path class="cls-5" d="M265.49,260.8H176.43c-.91,0-1.65,1.17-1.65,2.6v13.28c0,1.44.74,2.6,1.65,2.6h89.06c.91,0,1.65-1.17,1.65-2.6V263.41C267.14,262,266.4,260.8,265.49,260.8Z"/><path class="cls-7" d="M265.49,280H176.43c-1.33,0-2.38-1.46-2.38-3.33V263.41c0-1.87,1-3.33,2.38-3.33h89.06c1.33,0,2.38,1.46,2.38,3.33v13.28C267.87,278.56,266.82,280,265.49,280Zm-89.06-18.49c-.37,0-.92.73-.92,1.87v13.28c0,1.14.54,1.87.92,1.87h89.06c.37,0,.92-.73.92-1.87V263.41c0-1.14-.54-1.87-.92-1.87Z"/><path class="cls-3" d="M180.1,279.29h-3.67c-.91,0-1.65-1.17-1.65-2.6V263.41c0-1.44.74-2.6,1.65-2.6h3.67"/><rect class="cls-21" x="186.97" y="244.4" width="57.37" height="4.01"/><rect class="cls-21" x="186.97" y="268.04" width="40.62" height="4.01"/><rect class="cls-21" x="186.97" y="298.9" width="40.62" height="4.01"/><rect class="cls-22" width="515.19" height="345.88"/></g></g></g></svg>