<svg xmlns="http://www.w3.org/2000/svg" viewBox="0 0 515.19 283.11"><defs><style>.cls-1{fill:#ff6e56;}.cls-2{fill:#015abc;}.cls-3{fill:#fff;}.cls-4{fill:#cacac9;}.cls-5{fill:#f9fbfc;}.cls-6{fill:#f3f4f4;}.cls-7{fill:#e3e3e3;}.cls-8{fill:#61cae2;}.cls-9{fill:#285eac;}.cls-10{fill:#f58a67;}.cls-11{fill:#73c290;}.cls-12{fill:#277ec2;}.cls-13{fill:#b2b2b2;}.cls-14{fill:#3c9fb0;}.cls-15{fill:#ee624e;}.cls-16{fill:#81dcef;}.cls-17{fill:none;}</style></defs><title>2-single</title><g id="Layer_2" data-name="Layer 2"><g id="Top_layer" data-name="Top layer"><path class="cls-1" d="M73.28,182.22c-12.86-3-17.05-15.24-16.64-26.28-.15-8.05-1.78-8.86-5.2-10.18-3.67-1.41-8.26,2.36-8.32,7a25.73,25.73,0,0,0,.62,4.33c.86,5.3-1.06,9.25-6,11.43-3.17,1.41-6.31,3.13-10,3-.43,2.48,1.32,15,1.06,20.24-.55,10.75,36.56,8,37-.47C66.92,183.21,63.22,186.47,73.28,182.22Z"/><path class="cls-1" d="M84,125.31c5.28,9.62,7.45,20.37,11.06,30.6.78,2.2-.09,3.57-2.39,4-.66.14-1.3.38-2,.58-1.05-.15-2.1-.38-3.16-.45-4.13-.26-8.15.61-12.18,1.27-5,.83-8.73-1.16-11.5-5.2A17.31,17.31,0,0,1,61,145.36c.28-7.29.65-14.56-2.51-21.54-1.58-3.49.24-7.45,3.49-9.67A21.74,21.74,0,0,1,67,111.94C74.3,114.33,79.61,119.24,84,125.31Z"/><path class="cls-2" d="M19.57,129.87a33.19,33.19,0,0,1,3.84-10.39,28.88,28.88,0,0,1,22.12-14.29c26.53-3,34.39,6.48,39.88,4.57A5.72,5.72,0,0,0,88,106.57s12.35,15.06-2.47,19.54S71.32,117,59.35,123.32a3.3,3.3,0,0,0-.84.63,33.38,33.38,0,0,1,2.6,13h0c.07,2.8,0,5.61-.15,8.43a17.31,17.31,0,0,0,2.92,10.79c2.77,4,6.45,6,11.5,5.2,4-.66,8.05-1.53,12.18-1.27,1.06.07,2.11.29,3.16.45.16,3.11.45,6.22.45,9.33,0,6.53-1.48,10.42-9.23,11.26-2.89.31-5.84.2-8.66,1.1-12.86-3-17.05-15.24-16.64-26.28a10.53,10.53,0,0,0-6.13-9.43c-3.67-1.41-7.33,1.62-7.39,6.23a25.77,25.77,0,0,0,.62,4.33c.86,5.3-1.06,9.25-6,11.43-3.17,1.41-6.31,3.13-10,3C28.25,164.3,26,157.87,21.9,152c-2.27-5.16-2.87-10.61-2.85-16.18A55.74,55.74,0,0,1,19.57,129.87Z"/><circle class="cls-2" cx="80.49" cy="143.45" r="2.47" transform="matrix(0.05, -1, 1, 0.05, -66.89, 216.5)"/><g id="swimlane"><path class="cls-3" d="M144.86,61.27h317a0,0,0,0,1,0,0V256.13a4.73,4.73,0,0,1-4.73,4.73H149.59a4.73,4.73,0,0,1-4.73-4.73V61.27A0,0,0,0,1,144.86,61.27Z"/><path class="cls-4" d="M457.15,261.48H149.59a5.36,5.36,0,0,1-5.35-5.35V60.65H462.5V256.13A5.36,5.36,0,0,1,457.15,261.48ZM145.48,61.89V256.13a4.11,4.11,0,0,0,4.11,4.11H457.15a4.11,4.11,0,0,0,4.11-4.11V61.89Z"/><path class="cls-5" d="M147.25,46.94H459.49a2.39,2.39,0,0,1,2.39,2.39V61.27a0,0,0,0,1,0,0h-317a0,0,0,0,1,0,0V49.33A2.39,2.39,0,0,1,147.25,46.94Z"/><path class="cls-4" d="M462.5,61.89H144.24V49.33a3,3,0,0,1,3-3H459.49a3,3,0,0,1,3,3Zm-317-1.24H461.25V49.33a1.77,1.77,0,0,0-1.76-1.76H147.25a1.77,1.77,0,0,0-1.76,1.76Z"/></g><rect class="cls-6" x="200.49" y="111.03" width="244.2" height="12.56"/><rect class="cls-6" x="200.49" y="136.46" width="244.2" height="12.56"/><rect class="cls-6" x="200.49" y="154.07" width="244.2" height="12.56"/><rect class="cls-6" x="200.49" y="213.67" width="244.2" height="12.56"/><rect class="cls-6" x="200.49" y="196.02" width="244.2" height="12.56"/><rect class="cls-6" x="200.49" y="231.28" width="244.2" height="12.56"/><rect class="cls-6" x="200.49" y="171.68" width="244.2" height="12.56"/><rect class="cls-6" x="200.49" y="75.81" width="244.2" height="12.56"/><rect class="cls-6" x="200.49" y="93.42" width="244.2" height="12.56"/><rect class="cls-7" x="199.75" y="72.34" width="1.48" height="175.4"/><polygon class="cls-8" points="160.52 134.2 160.52 181.18 160.52 186.4 194.24 186.4 194.24 181.18 194.24 134.2 160.52 134.2"/><polygon class="cls-9" points="160.52 75.03 160.52 84.63 160.52 92.47 160.52 100.05 160.52 117.77 160.52 127.25 194.24 127.25 194.24 117.77 194.24 100.05 194.24 92.47 194.24 84.63 194.24 75.03 160.52 75.03"/><polygon class="cls-10" points="160.56 193.14 160.56 237.68 160.56 248.06 194.24 248.06 194.24 237.68 194.24 193.14 160.56 193.14"/><polygon class="cls-11" points="212.68 106.91 218.67 99.7 212.68 92.5 206.68 99.7 212.68 106.91"/><polygon class="cls-11" points="308.31 106.91 314.3 99.7 308.31 92.5 302.32 99.7 308.31 106.91"/><polygon class="cls-11" points="382.8 106.91 388.79 99.7 382.8 92.5 376.81 99.7 382.8 106.91"/><rect class="cls-9" x="200.75" y="110.81" width="97.1" height="13.78"/><rect class="cls-9" x="354.86" y="110.81" width="90.09" height="13.78"/><rect class="cls-8" x="200.49" y="135.85" width="94.2" height="13.78"/><rect class="cls-8" x="359.69" y="171.06" width="68.7" height="13.78"/><rect class="cls-8" x="294.69" y="153.45" width="60.97" height="13.78"/><rect class="cls-8" x="229.28" y="171.06" width="84.94" height="13.78"/><rect class="cls-10" x="216.84" y="230.88" width="73.17" height="13.78"/><rect class="cls-10" x="224.98" y="195.69" width="97.89" height="13.17"/><rect class="cls-10" x="342.88" y="195.41" width="46.96" height="13.78"/><rect class="cls-11" x="254.92" y="76.41" width="11.22" height="11.36"/><rect class="cls-11" x="345.94" y="76.41" width="11.22" height="11.36"/><rect class="cls-8" x="334.4" y="136.62" width="93.52" height="13.21"/><rect class="cls-12" x="225.32" y="116.03" width="47.97" height="3.34"/><rect class="cls-13" x="270.71" y="80.42" width="30.5" height="3.34"/><rect class="cls-13" x="225.32" y="98.03" width="30.5" height="3.34"/><rect class="cls-13" x="319.16" y="98.03" width="20.79" height="3.34"/><rect class="cls-13" x="364" y="80.42" width="20.79" height="3.34"/><rect class="cls-13" x="394.04" y="98.03" width="32.39" height="3.34"/><rect class="cls-14" x="234.87" y="141.34" width="22.41" height="3.34"/><rect class="cls-12" x="175.25" y="89.03" width="4.49" height="24.44"/><rect class="cls-14" x="175.25" y="147.8" width="4.49" height="24.44"/><rect class="cls-15" x="175.25" y="207.31" width="4.49" height="24.44"/><rect class="cls-14" x="312.98" y="158.79" width="22.41" height="3.34"/><rect class="cls-14" x="255.81" y="176.28" width="31.87" height="3.34"/><rect class="cls-15" x="253.42" y="200.6" width="41" height="3.34"/><rect class="cls-15" x="346.29" y="200.6" width="22.95" height="3.34"/><rect class="cls-10" x="280.16" y="213.71" width="64.16" height="13.78"/><rect class="cls-15" x="300.76" y="218.9" width="22.95" height="3.34"/><rect class="cls-15" x="239.72" y="236.1" width="27.4" height="3.34"/><rect class="cls-10" x="363.5" y="230.88" width="73.17" height="13.78"/><rect class="cls-15" x="386.39" y="236.1" width="27.4" height="3.34"/><rect class="cls-14" x="376.2" y="176.28" width="36.94" height="3.34"/><rect class="cls-14" x="358" y="141.55" width="45.79" height="3.34"/><rect class="cls-12" x="380.9" y="116.03" width="37.22" height="3.34"/><circle class="cls-4" cx="153.6" cy="54.11" r="2.18"/><circle class="cls-4" cx="161.55" cy="54.11" r="2.18"/><circle class="cls-4" cx="169.49" cy="54.11" r="2.18"/><path class="cls-16" d="M476.42,34.63l11-11-2.83-2.83-11,11A15.36,15.36,0,0,1,476.42,34.63Z"/><path class="cls-16" d="M464.29,28.63a15.35,15.35,0,0,1,2,.15V13.2h-4V28.77A15.35,15.35,0,0,1,464.29,28.63Z"/><path class="cls-16" d="M473.59,56.05l11,11,2.83-2.83-11-11A15.36,15.36,0,0,1,473.59,56.05Z"/><path class="cls-16" d="M455,31.8l-11-11-2.83,2.83,11,11A15.36,15.36,0,0,1,455,31.8Z"/><path class="cls-16" d="M479.44,41.92a13.82,13.82,0,0,1,0,4H495v-4Z"/><rect class="cls-17" width="515.19" height="283.11"/></g></g></svg>