<svg xmlns="http://www.w3.org/2000/svg" viewBox="0 0 231.56 231.56"><defs><style>.cls-1{fill:#fff;}.cls-2{fill:#e2e2e6;}.cls-3{fill:#27cab4;}.cls-4{fill:#0380d3;}.cls-5{fill:#fc7d69;}.cls-6{fill:#ccc;}.cls-7{fill:#43474a;}.cls-8{fill:#3b3e41;}.cls-9{fill:#b8b8be;}.cls-10{fill:#f2f2f2;}.cls-11{fill:#e2e2e2;}</style></defs><title>big-picture-1</title><g id="Layer_2" data-name="Layer 2"><g id="Top_layer" data-name="Top layer"><rect class="cls-1" x="1" y="2" width="229.92" height="228.56"/><rect class="cls-2" x="1" y="13.94" width="228.55" height="1.51"/><rect class="cls-2" x="1" y="40.37" width="228.55" height="1.51"/><rect class="cls-2" x="1" y="75.12" width="228.55" height="1.51"/><rect class="cls-2" x="1" y="223.93" width="228.55" height="1.51"/><rect class="cls-2" x="1" y="197.49" width="228.55" height="1.51"/><rect class="cls-2" x="1" y="136.31" width="228.55" height="1.51"/><rect class="cls-2" x="1" y="162.75" width="228.55" height="1.51"/><rect class="cls-2" x="1" y="109.53" width="228.55" height="1.51"/><rect class="cls-3" x="12.41" y="132.45" width="146.48" height="9.22" rx="4.61" ry="4.61"/><path class="cls-3" d="M78.22,168.11H1V163.5H1v-4.61H78.22a4.61,4.61,0,0,1,4.61,4.61h0A4.61,4.61,0,0,1,78.22,168.11Z"/><polygon class="cls-4" points="98.31 80.44 1 80.44 1 75.83 1 75.83 1 71.22 98.31 71.22 98.31 80.44"/><path class="cls-3" d="M44.83,114.9H1v-4.61H1v-4.61H44.83a4.61,4.61,0,0,1,4.61,4.61h0A4.61,4.61,0,0,1,44.83,114.9Z"/><rect class="cls-3" x="75.34" y="105.68" width="146.48" height="9.22" rx="4.61" ry="4.61"/><rect class="cls-5" x="13.91" y="36.05" width="10.19" height="10.19"/><rect class="cls-6" x="31.86" y="38.13" width="42.37" height="5.56"/><rect class="cls-7" x="95.12" y="2" width="135.81" height="228.56"/><path class="cls-1" d="M131.78,17.63a1.7,1.7,0,0,1-.63,1.42,2.85,2.85,0,0,1-1.8.5h-.71v2.39h-.71V15.86h1.57Q131.78,15.86,131.78,17.63Zm-3.14,1.31h.64a2.36,2.36,0,0,0,1.36-.3,1.12,1.12,0,0,0,.42-1,1,1,0,0,0-.39-.9,2.06,2.06,0,0,0-1.23-.29h-.79Z"/><path class="cls-1" d="M128.69,22h-.8V15.81h1.62c1.54,0,2.32.61,2.32,1.82a1.75,1.75,0,0,1-.65,1.46,2.91,2.91,0,0,1-1.83.51h-.66Zm-.71-.1h.61V19.49h.76a2.82,2.82,0,0,0,1.77-.48,1.66,1.66,0,0,0,.61-1.38c0-1.16-.73-1.72-2.22-1.72H128ZM129.27,19h-.68V16.42h.84a2.12,2.12,0,0,1,1.26.3,1.1,1.1,0,0,1,.41.94,1.17,1.17,0,0,1-.44,1A2.42,2.42,0,0,1,129.27,19Zm-.59-.1h.59a2.32,2.32,0,0,0,1.33-.29,1.07,1.07,0,0,0,.4-.93,1,1,0,0,0-.37-.86,2,2,0,0,0-1.2-.28h-.74Z"/><path class="cls-1" d="M135,17.29a2.69,2.69,0,0,1,.54.05l-.1.64a2.36,2.36,0,0,0-.5-.06,1.21,1.21,0,0,0-.94.45,1.63,1.63,0,0,0-.39,1.12v2.44h-.69V17.38h.57l.08.84h0a2,2,0,0,1,.61-.68A1.38,1.38,0,0,1,135,17.29Z"/><path class="cls-1" d="M133.69,22h-.79V17.33h.66l.07.78a2,2,0,0,1,.58-.62,1.43,1.43,0,0,1,.81-.25,2.75,2.75,0,0,1,.55.05h0l-.11.74h-.05A2.33,2.33,0,0,0,135,18a1.17,1.17,0,0,0-.91.43,1.59,1.59,0,0,0-.38,1.08Zm-.69-.1h.59V19.49a1.69,1.69,0,0,1,.4-1.15,1.26,1.26,0,0,1,1-.47,2.32,2.32,0,0,1,.46.05l.08-.54a2.74,2.74,0,0,0-.49,0,1.33,1.33,0,0,0-.76.23,2,2,0,0,0-.6.67v0h-.11l-.08-.84H133Z"/><path class="cls-1" d="M140.34,19.65a2.51,2.51,0,0,1-.56,1.74,2,2,0,0,1-1.55.62,2,2,0,0,1-1.08-.29,1.89,1.89,0,0,1-.73-.82,2.86,2.86,0,0,1-.26-1.25,2.5,2.5,0,0,1,.56-1.73,2,2,0,0,1,1.54-.62,1.92,1.92,0,0,1,1.52.64A2.5,2.5,0,0,1,140.34,19.65Zm-3.46,0a2.16,2.16,0,0,0,.35,1.33,1.38,1.38,0,0,0,2.05,0,2.15,2.15,0,0,0,.35-1.33,2.12,2.12,0,0,0-.35-1.32,1.23,1.23,0,0,0-1-.45,1.21,1.21,0,0,0-1,.44A2.14,2.14,0,0,0,136.88,19.65Z"/><path class="cls-1" d="M138.23,22.06a2.11,2.11,0,0,1-1.11-.29,2,2,0,0,1-.75-.84,2.93,2.93,0,0,1-.26-1.28,2.56,2.56,0,0,1,.57-1.77,2,2,0,0,1,1.58-.64,2,2,0,0,1,1.55.65,2.55,2.55,0,0,1,.57,1.75,2.57,2.57,0,0,1-.57,1.77A2,2,0,0,1,138.23,22.06Zm0-4.71a1.93,1.93,0,0,0-1.51.6,2.47,2.47,0,0,0-.54,1.7,2.82,2.82,0,0,0,.25,1.23,1.85,1.85,0,0,0,.71.8,2,2,0,0,0,1.06.28,1.93,1.93,0,0,0,1.51-.61,2.47,2.47,0,0,0,.55-1.7,2.46,2.46,0,0,0-.55-1.68A1.89,1.89,0,0,0,138.26,17.34Zm0,4.14a1.26,1.26,0,0,1-1.06-.48,2.21,2.21,0,0,1-.36-1.36,2.2,2.2,0,0,1,.35-1.35,1.27,1.27,0,0,1,1.06-.46,1.29,1.29,0,0,1,1.07.47,2.17,2.17,0,0,1,.36,1.35,2.21,2.21,0,0,1-.36,1.36A1.27,1.27,0,0,1,138.25,21.48Zm0-3.55a1.17,1.17,0,0,0-1,.43,2.09,2.09,0,0,0-.33,1.29,2.12,2.12,0,0,0,.34,1.3,1.33,1.33,0,0,0,2,0,2.11,2.11,0,0,0,.34-1.3,2.08,2.08,0,0,0-.34-1.29A1.19,1.19,0,0,0,138.24,17.93Z"/><path class="cls-1" d="M144.64,21.32h0a1.62,1.62,0,0,1-1.43.69,1.69,1.69,0,0,1-1.39-.61,2.68,2.68,0,0,1-.5-1.73,2.73,2.73,0,0,1,.5-1.75,1.68,1.68,0,0,1,1.39-.62,1.65,1.65,0,0,1,1.42.67h.05l0-.33,0-.32V15.47h.69v6.46h-.56Zm-1.38.12a1.25,1.25,0,0,0,1-.38,1.94,1.94,0,0,0,.32-1.24v-.14a2.28,2.28,0,0,0-.32-1.38,1.22,1.22,0,0,0-1-.41,1.05,1.05,0,0,0-.93.47,2.34,2.34,0,0,0-.32,1.33,2.24,2.24,0,0,0,.32,1.32A1.08,1.08,0,0,0,143.27,21.43Z"/><path class="cls-1" d="M143.18,22.06a1.74,1.74,0,0,1-1.43-.63,2.74,2.74,0,0,1-.51-1.77,2.79,2.79,0,0,1,.51-1.78,1.9,1.9,0,0,1,2.84,0l0-.24,0-.32v-1.9h.79V22h-.65l-.09-.57A1.68,1.68,0,0,1,143.18,22.06Zm0-4.71a1.64,1.64,0,0,0-1.35.6,2.7,2.7,0,0,0-.49,1.72,2.64,2.64,0,0,0,.49,1.7,1.65,1.65,0,0,0,1.35.59,1.58,1.58,0,0,0,1.39-.67l0,0h.11l.09.61h.47V15.52h-.59v1.8l0,.32,0,.38h-.13l0,0A1.61,1.61,0,0,0,143.18,17.34Zm.09,4.14a1.14,1.14,0,0,1-1-.46,2.3,2.3,0,0,1-.33-1.34,2.4,2.4,0,0,1,.33-1.36,1.11,1.11,0,0,1,1-.49,1.27,1.27,0,0,1,1.07.43,2.33,2.33,0,0,1,.33,1.41v.14a2,2,0,0,1-.33,1.27A1.31,1.31,0,0,1,143.27,21.48Zm0-3.56a1,1,0,0,0-.89.45,2.3,2.3,0,0,0-.31,1.3,2.2,2.2,0,0,0,.31,1.29,1,1,0,0,0,.9.42,1.21,1.21,0,0,0,1-.37,1.91,1.91,0,0,0,.31-1.21v-.14a2.25,2.25,0,0,0-.31-1.35A1.18,1.18,0,0,0,143.26,17.92Z"/><path class="cls-1" d="M147.4,17.38v3a1.19,1.19,0,0,0,.25.83,1,1,0,0,0,.79.27,1.29,1.29,0,0,0,1-.39,2,2,0,0,0,.33-1.27V17.38h.69v4.55h-.57l-.1-.61h0a1.38,1.38,0,0,1-.59.51,2,2,0,0,1-.86.18,1.74,1.74,0,0,1-1.24-.39,1.68,1.68,0,0,1-.41-1.26v-3Z"/><path class="cls-1" d="M148.36,22.06a1.79,1.79,0,0,1-1.28-.41,1.73,1.73,0,0,1-.43-1.3v-3h.8v3a1.15,1.15,0,0,0,.24.8,1,1,0,0,0,.76.26,1.25,1.25,0,0,0,1-.37,1.93,1.93,0,0,0,.32-1.24V17.33h.79V22h-.66v0l-.09-.53a1.42,1.42,0,0,1-.57.47A2,2,0,0,1,148.36,22.06Zm-1.61-4.63v2.93a1.64,1.64,0,0,0,.4,1.23,1.7,1.7,0,0,0,1.21.38,1.93,1.93,0,0,0,.84-.17,1.33,1.33,0,0,0,.57-.5v0h.11v0l.09.57h.48V17.43h-.59v2.34a2,2,0,0,1-.34,1.31,1.34,1.34,0,0,1-1.08.41,1.08,1.08,0,0,1-.83-.29,1.24,1.24,0,0,1-.27-.86v-2.9Z"/><path class="cls-1" d="M153.79,22a1.94,1.94,0,0,1-1.53-.61,2.5,2.5,0,0,1-.54-1.72,2.58,2.58,0,0,1,.55-1.76,2,2,0,0,1,1.57-.62,3.12,3.12,0,0,1,.66.07,2.13,2.13,0,0,1,.51.17l-.21.58a3.3,3.3,0,0,0-.5-.15,2.25,2.25,0,0,0-.48-.06q-1.39,0-1.39,1.77a2.1,2.1,0,0,0,.34,1.29,1.18,1.18,0,0,0,1,.45,3.06,3.06,0,0,0,1.17-.24v.61A2.48,2.48,0,0,1,153.79,22Z"/><path class="cls-1" d="M153.79,22.06a2,2,0,0,1-1.57-.62,2.56,2.56,0,0,1-.55-1.75,2.64,2.64,0,0,1,.56-1.8,2,2,0,0,1,1.6-.64,3.2,3.2,0,0,1,.67.07,2.17,2.17,0,0,1,.53.17l0,0-.24.67,0,0a3.18,3.18,0,0,0-.49-.15,2.21,2.21,0,0,0-.47-.06c-.9,0-1.34.56-1.34,1.72a2.07,2.07,0,0,0,.33,1.26,1.13,1.13,0,0,0,1,.43,3,3,0,0,0,1.15-.24l.07,0v.71h0A2.54,2.54,0,0,1,153.79,22.06Zm0-4.71a1.94,1.94,0,0,0-1.53.61,2.55,2.55,0,0,0-.54,1.73,2.46,2.46,0,0,0,.53,1.69,1.9,1.9,0,0,0,1.49.59,2.48,2.48,0,0,0,1.1-.22v-.51a3.09,3.09,0,0,1-1.12.22,1.23,1.23,0,0,1-1-.47,2.16,2.16,0,0,1-.35-1.32c0-1.21.48-1.82,1.44-1.82a2.31,2.31,0,0,1,.49.06,3.52,3.52,0,0,1,.46.14l.18-.49a2.26,2.26,0,0,0-.46-.14A3.11,3.11,0,0,0,153.83,17.34Z"/><path class="cls-1" d="M157.49,21.44l.35,0,.27-.06v.53a1.27,1.27,0,0,1-.33.09,2.48,2.48,0,0,1-.39,0q-1.32,0-1.32-1.39V17.91h-.65v-.33l.65-.29.29-1h.4v1.05h1.32v.54h-1.32v2.68a.92.92,0,0,0,.2.63A.68.68,0,0,0,157.49,21.44Z"/><path class="cls-1" d="M157.39,22.06c-.91,0-1.37-.48-1.37-1.44V18h-.65v-.41l.66-.29.29-1h.48v1.05h1.32V18h-1.32v2.63a.87.87,0,0,0,.18.6.63.63,0,0,0,.5.2l.34,0,.26-.05.06,0v.63h0a1.33,1.33,0,0,1-.34.09A2.56,2.56,0,0,1,157.39,22.06Zm-1.92-4.19h.65v2.76c0,.9.42,1.34,1.27,1.34a2.46,2.46,0,0,0,.38,0,1.37,1.37,0,0,0,.29-.07v-.43l-.21,0-.36,0a.73.73,0,0,1-.57-.24,1,1,0,0,1-.21-.66V17.86H158v-.44h-1.32V16.37h-.31l-.29,1h0l-.62.27Z"/><path class="cls-1" d="M165.14,21.93,164.39,20H162l-.75,1.93h-.71l2.4-6.09h.59l2.39,6.09Zm-1-2.56-.71-1.88c-.09-.24-.19-.53-.28-.88a7.85,7.85,0,0,1-.26.88l-.71,1.88Z"/><path class="cls-1" d="M165.95,22h-.84v0l-.74-1.9H162L161.24,22h-.82l2.44-6.19h.66v0Zm-.77-.1h.62l-2.35-6h-.53l-2.36,6h.61l.75-1.93h2.5v0Zm-.94-2.47h-2.11l0-.07.71-1.88a7.81,7.81,0,0,0,.26-.87l0-.19.05.19c.09.33.19.63.28.87Zm-2-.1h1.82l-.68-1.81c-.08-.2-.15-.44-.23-.7-.06.22-.13.45-.22.7Z"/><rect class="cls-8" x="126.37" y="28.63" width="98.4" height="18.8" rx="1.33" ry="1.33"/><path class="cls-9" d="M150.67,40.86H150V36h-1.7v-.56h4V36h-1.7Z"/><path class="cls-9" d="M150.72,40.91H150V36.09h-1.7v-.67h4.15v.67h-1.7Zm-.63-.11h.51V36h1.7v-.44h-3.92V36h1.7Z"/><path class="cls-9" d="M153,35.73a.41.41,0,0,1,.1-.31.38.38,0,0,1,.51,0,.4.4,0,0,1,.11.31.4.4,0,0,1-.11.31.36.36,0,0,1-.25.1.35.35,0,0,1-.26-.1A.42.42,0,0,1,153,35.73Zm.66,5.13h-.61v-4h.61Z"/><path class="cls-9" d="M153.76,40.91H153V36.77h.72Zm-.61-.11h.5V36.88h-.5Zm.25-4.6a.41.41,0,0,1-.3-.12.47.47,0,0,1-.12-.35.46.46,0,0,1,.12-.35.44.44,0,0,1,.59,0,.55.55,0,0,1,0,.7A.42.42,0,0,1,153.4,36.19Zm0-.81a.3.3,0,0,0-.22.08.36.36,0,0,0-.09.27.36.36,0,0,0,.09.27.3.3,0,0,0,.22.09.3.3,0,0,0,.22-.09.35.35,0,0,0,.09-.27.35.35,0,0,0-.09-.26A.3.3,0,0,0,153.4,35.38Z"/><path class="cls-9" d="M160.14,40.86V38.23a1.09,1.09,0,0,0-.21-.72.8.8,0,0,0-.64-.24,1,1,0,0,0-.84.33,1.56,1.56,0,0,0-.27,1v2.25h-.61V38.23a1.09,1.09,0,0,0-.21-.72.8.8,0,0,0-.64-.24,1,1,0,0,0-.84.34,1.87,1.87,0,0,0-.27,1.13v2.12H155v-4h.5l.1.55h0a1.21,1.21,0,0,1,.49-.46,1.5,1.5,0,0,1,.71-.17,1.2,1.2,0,0,1,1.24.68h0a1.29,1.29,0,0,1,.52-.5,1.62,1.62,0,0,1,.78-.18,1.36,1.36,0,0,1,1,.35,1.57,1.57,0,0,1,.34,1.12v2.63Z"/><path class="cls-9" d="M160.8,40.91h-.72V38.23a1,1,0,0,0-.19-.69.75.75,0,0,0-.6-.22,1,1,0,0,0-.8.31,1.51,1.51,0,0,0-.26,1v2.31h-.72V38.23a1,1,0,0,0-.19-.69.75.75,0,0,0-.6-.22,1,1,0,0,0-.8.32,1.83,1.83,0,0,0-.25,1.09v2.17h-.72V36.77h.6l.09.49a1.28,1.28,0,0,1,.45-.39,1.56,1.56,0,0,1,.73-.17,1.27,1.27,0,0,1,1.26.65,1.37,1.37,0,0,1,.51-.46,1.68,1.68,0,0,1,.81-.19,1.42,1.42,0,0,1,1.07.37,1.62,1.62,0,0,1,.36,1.16Zm-.61-.11h.5V38.22a1.52,1.52,0,0,0-.33-1.08,1.31,1.31,0,0,0-1-.33,1.57,1.57,0,0,0-.75.18,1.23,1.23,0,0,0-.5.48l0,0H158v0a1.14,1.14,0,0,0-1.18-.65,1.45,1.45,0,0,0-.68.16,1.16,1.16,0,0,0-.47.44l0,0h-.11l-.1-.55h-.39V40.8h.5V38.74a1.93,1.93,0,0,1,.28-1.16,1.06,1.06,0,0,1,.89-.37.86.86,0,0,1,.69.26,1.13,1.13,0,0,1,.22.76V40.8h.5V38.6a1.62,1.62,0,0,1,.29-1,1.09,1.09,0,0,1,.89-.35.86.86,0,0,1,.68.26,1.15,1.15,0,0,1,.22.76Z"/><path class="cls-9" d="M163.71,40.93a1.85,1.85,0,0,1-1.41-.54,2.1,2.1,0,0,1-.52-1.51,2.34,2.34,0,0,1,.48-1.55,1.59,1.59,0,0,1,1.29-.57,1.52,1.52,0,0,1,1.2.5,1.91,1.91,0,0,1,.44,1.32v.39h-2.78a1.61,1.61,0,0,0,.36,1.08,1.24,1.24,0,0,0,1,.37,3.24,3.24,0,0,0,1.29-.27v.54a3.24,3.24,0,0,1-.61.2A3.51,3.51,0,0,1,163.71,40.93Zm-.16-3.67a1,1,0,0,0-.77.32,1.46,1.46,0,0,0-.34.88h2.11a1.35,1.35,0,0,0-.26-.89A.91.91,0,0,0,163.54,37.26Z"/><path class="cls-9" d="M163.71,41a1.91,1.91,0,0,1-1.45-.56,2.17,2.17,0,0,1-.53-1.55,2.4,2.4,0,0,1,.49-1.59,1.65,1.65,0,0,1,1.33-.59,1.58,1.58,0,0,1,1.24.52,2,2,0,0,1,.46,1.35V39h-2.78a1.52,1.52,0,0,0,.34,1,1.19,1.19,0,0,0,.92.35,3.19,3.19,0,0,0,1.27-.27l.08,0v.67h0a3.27,3.27,0,0,1-.62.2A3.55,3.55,0,0,1,163.71,41Zm-.16-4.18a1.55,1.55,0,0,0-1.25.55,2.29,2.29,0,0,0-.47,1.51,2.06,2.06,0,0,0,.5,1.47,1.81,1.81,0,0,0,1.37.53,3.48,3.48,0,0,0,.69-.06,3.13,3.13,0,0,0,.57-.18v-.42a3.3,3.3,0,0,1-1.23.24,1.3,1.3,0,0,1-1-.39,1.67,1.67,0,0,1-.37-1.12v-.06h2.78v-.33a1.86,1.86,0,0,0-.43-1.28A1.47,1.47,0,0,0,163.55,36.8Zm1,1.7h-2.23v-.06a1.53,1.53,0,0,1,.36-.91,1.05,1.05,0,0,1,.82-.33,1,1,0,0,1,.78.33,1.41,1.41,0,0,1,.27.92Zm-2.1-.11h2a1.26,1.26,0,0,0-.24-.79.86.86,0,0,0-.69-.29.94.94,0,0,0-.73.3A1.37,1.37,0,0,0,162.49,38.4Z"/><path class="cls-9" d="M166.84,40.86h-.61V35.13h.61Z"/><path class="cls-9" d="M166.9,40.91h-.72V35.07h.72Zm-.61-.11h.5V35.19h-.5Z"/><path class="cls-9" d="M168.09,35.73a.41.41,0,0,1,.1-.31.38.38,0,0,1,.51,0,.4.4,0,0,1,.11.31.4.4,0,0,1-.11.31.36.36,0,0,1-.25.1.35.35,0,0,1-.26-.1A.42.42,0,0,1,168.09,35.73Zm.66,5.13h-.61v-4h.61Z"/><path class="cls-9" d="M168.81,40.91h-.72V36.77h.72Zm-.61-.11h.5V36.88h-.5Zm.25-4.6a.41.41,0,0,1-.3-.12.47.47,0,0,1-.12-.35.46.46,0,0,1,.12-.35.44.44,0,0,1,.59,0,.55.55,0,0,1,0,.7A.42.42,0,0,1,168.45,36.19Zm0-.81a.3.3,0,0,0-.22.08.36.36,0,0,0-.09.27.36.36,0,0,0,.09.27.3.3,0,0,0,.22.09.3.3,0,0,0,.22-.09.35.35,0,0,0,.09-.27.35.35,0,0,0-.09-.26A.3.3,0,0,0,168.45,35.38Z"/><path class="cls-9" d="M172.81,40.86V38.25a1.06,1.06,0,0,0-.22-.74.92.92,0,0,0-.7-.24,1.16,1.16,0,0,0-.93.34,1.73,1.73,0,0,0-.29,1.13v2.12H170v-4h.5l.1.55h0a1.25,1.25,0,0,1,.53-.46,1.71,1.71,0,0,1,.75-.16,1.53,1.53,0,0,1,1.1.35,1.49,1.49,0,0,1,.37,1.12v2.63Z"/><path class="cls-9" d="M173.47,40.91h-.72V38.25a1,1,0,0,0-.21-.7.87.87,0,0,0-.66-.22,1.11,1.11,0,0,0-.88.32,1.69,1.69,0,0,0-.28,1.09v2.17H170V36.77h.6l.09.5a1.32,1.32,0,0,1,.49-.4,1.76,1.76,0,0,1,.78-.17,1.58,1.58,0,0,1,1.14.37,1.55,1.55,0,0,1,.39,1.16Zm-.61-.11h.5V38.22a1.45,1.45,0,0,0-.35-1.08A1.48,1.48,0,0,0,172,36.8a1.66,1.66,0,0,0-.73.16,1.2,1.2,0,0,0-.5.44l0,0h-.11l-.1-.55h-.39V40.8h.5V38.74a1.79,1.79,0,0,1,.31-1.17,1.22,1.22,0,0,1,1-.36,1,1,0,0,1,.74.26,1.11,1.11,0,0,1,.24.77Z"/><path class="cls-9" d="M176.38,40.93a1.85,1.85,0,0,1-1.41-.54,2.1,2.1,0,0,1-.52-1.51,2.34,2.34,0,0,1,.48-1.55,1.59,1.59,0,0,1,1.29-.57,1.52,1.52,0,0,1,1.2.5,1.91,1.91,0,0,1,.44,1.32v.39h-2.78a1.61,1.61,0,0,0,.36,1.08,1.24,1.24,0,0,0,1,.37,3.24,3.24,0,0,0,1.29-.27v.54a3.24,3.24,0,0,1-.61.2A3.51,3.51,0,0,1,176.38,40.93Zm-.16-3.67a1,1,0,0,0-.77.32,1.46,1.46,0,0,0-.34.88h2.11a1.35,1.35,0,0,0-.26-.89A.91.91,0,0,0,176.21,37.26Z"/><path class="cls-9" d="M176.38,41a1.91,1.91,0,0,1-1.45-.56,2.17,2.17,0,0,1-.53-1.55,2.4,2.4,0,0,1,.49-1.59,1.65,1.65,0,0,1,1.33-.59,1.58,1.58,0,0,1,1.24.52,2,2,0,0,1,.46,1.35V39h-2.78a1.52,1.52,0,0,0,.34,1,1.19,1.19,0,0,0,.92.35,3.19,3.19,0,0,0,1.27-.27l.08,0v.67h0a3.27,3.27,0,0,1-.62.2A3.55,3.55,0,0,1,176.38,41Zm-.16-4.18a1.55,1.55,0,0,0-1.25.55,2.29,2.29,0,0,0-.47,1.51,2.06,2.06,0,0,0,.5,1.47,1.81,1.81,0,0,0,1.37.53,3.48,3.48,0,0,0,.69-.06,3.13,3.13,0,0,0,.57-.18v-.42a3.3,3.3,0,0,1-1.23.24,1.3,1.3,0,0,1-1-.39A1.67,1.67,0,0,1,175,39v-.06h2.78v-.33a1.86,1.86,0,0,0-.43-1.28A1.47,1.47,0,0,0,176.22,36.8Zm1,1.7H175v-.06a1.53,1.53,0,0,1,.36-.91,1.05,1.05,0,0,1,.82-.33,1,1,0,0,1,.78.33,1.41,1.41,0,0,1,.27.92Zm-2.1-.11h2a1.26,1.26,0,0,0-.24-.79.86.86,0,0,0-.69-.29.94.94,0,0,0-.73.3A1.37,1.37,0,0,0,175.16,38.4Z"/><path class="cls-9" d="M184,35.47h.67l-1.94,5.38h-.62l-1.93-5.38h.66L182.11,39a9.5,9.5,0,0,1,.34,1.17,9.93,9.93,0,0,1,.35-1.19Z"/><path class="cls-9" d="M182.8,40.91h-.7v0l-2-5.46h.78v0l1.24,3.48a9.63,9.63,0,0,1,.29.94c.08-.32.18-.64.29-1l1.24-3.5h.79Zm-.62-.11h.54l1.9-5.27h-.55L182.85,39a10,10,0,0,0-.34,1.18l-.06.25-.05-.25a9.51,9.51,0,0,0-.34-1.16l-1.22-3.44h-.54Z"/><path class="cls-9" d="M185.29,35.73a.4.4,0,0,1,.1-.31.38.38,0,0,1,.51,0,.39.39,0,0,1,.11.31.4.4,0,0,1-.11.31.35.35,0,0,1-.25.1.35.35,0,0,1-.26-.1A.41.41,0,0,1,185.29,35.73Zm.66,5.13h-.61v-4H186Z"/><path class="cls-9" d="M186,40.91h-.72V36.77H186Zm-.61-.11h.5V36.88h-.5Zm.25-4.6a.4.4,0,0,1-.3-.12.46.46,0,0,1-.12-.35.45.45,0,0,1,.12-.35.41.41,0,0,1,.3-.11.42.42,0,0,1,.29.11.54.54,0,0,1,0,.69A.41.41,0,0,1,185.66,36.19Zm0-.81a.3.3,0,0,0-.22.08.36.36,0,0,0-.09.27.36.36,0,0,0,.09.27.3.3,0,0,0,.22.09.3.3,0,0,0,.21-.09.35.35,0,0,0,.09-.27.34.34,0,0,0-.09-.26A.3.3,0,0,0,185.66,35.38Z"/><path class="cls-9" d="M189,40.93a1.85,1.85,0,0,1-1.41-.54,2.1,2.1,0,0,1-.52-1.51,2.34,2.34,0,0,1,.48-1.55,1.59,1.59,0,0,1,1.29-.57,1.52,1.52,0,0,1,1.2.5,1.91,1.91,0,0,1,.44,1.32v.39h-2.78A1.61,1.61,0,0,0,188,40a1.24,1.24,0,0,0,1,.37,3.24,3.24,0,0,0,1.29-.27v.54a3.24,3.24,0,0,1-.61.2A3.51,3.51,0,0,1,189,40.93Zm-.16-3.67a1,1,0,0,0-.77.32,1.46,1.46,0,0,0-.34.88h2.11a1.35,1.35,0,0,0-.26-.89A.91.91,0,0,0,188.79,37.26Z"/><path class="cls-9" d="M189,41a1.91,1.91,0,0,1-1.45-.56,2.17,2.17,0,0,1-.53-1.55,2.4,2.4,0,0,1,.49-1.59,1.65,1.65,0,0,1,1.33-.59,1.58,1.58,0,0,1,1.24.52,2,2,0,0,1,.46,1.35V39h-2.78a1.52,1.52,0,0,0,.34,1,1.19,1.19,0,0,0,.92.35,3.19,3.19,0,0,0,1.27-.27l.08,0v.67h0a3.27,3.27,0,0,1-.62.2A3.55,3.55,0,0,1,189,41Zm-.16-4.18a1.55,1.55,0,0,0-1.25.55,2.29,2.29,0,0,0-.47,1.51,2.06,2.06,0,0,0,.5,1.47,1.81,1.81,0,0,0,1.37.53,3.48,3.48,0,0,0,.69-.06,3.13,3.13,0,0,0,.57-.18v-.42a3.3,3.3,0,0,1-1.23.24,1.3,1.3,0,0,1-1-.39A1.67,1.67,0,0,1,187.6,39v-.06h2.78v-.33a1.86,1.86,0,0,0-.43-1.28A1.47,1.47,0,0,0,188.8,36.8Zm1,1.7h-2.23v-.06a1.53,1.53,0,0,1,.36-.91,1.05,1.05,0,0,1,.82-.33,1,1,0,0,1,.78.33,1.41,1.41,0,0,1,.27.92Zm-2.1-.11h2a1.26,1.26,0,0,0-.24-.79.86.86,0,0,0-.69-.29.94.94,0,0,0-.73.3A1.37,1.37,0,0,0,187.74,38.4Z"/><path class="cls-9" d="M194.77,40.86,194,38.49c0-.15-.13-.47-.26-1h0q-.15.64-.26,1l-.76,2.36H192l-1.1-4h.64l.59,2.31a9.13,9.13,0,0,1,.23,1.07h0c0-.14.07-.32.13-.54s.11-.4.16-.53l.74-2.31h.66l.72,2.31a8,8,0,0,1,.28,1.06h0a3.65,3.65,0,0,1,.08-.41q.07-.28.77-3h.63l-1.12,4Z"/><path class="cls-9" d="M195.54,40.91h-.81L194,38.51c0-.14-.12-.44-.22-.82-.08.36-.16.63-.22.83l-.78,2.4H192v0l-1.12-4.1h.76v0l.38,1.5.21.81c.1.37.16.66.2.86l.08-.33c.06-.23.11-.41.16-.53l.75-2.35h.75v0l.72,2.31c.1.32.18.6.24.85l0-.19q.07-.28.77-3v0h.75Zm-.73-.11h.64l1.08-3.92H196q-.69,2.64-.76,2.93a3.73,3.73,0,0,0-.08.4v.05h-.13v0a8,8,0,0,0-.28-1.06l-.71-2.28h-.58l-.73,2.28c0,.12-.09.3-.16.53s-.1.39-.13.54v0h-.13v-.05a9.27,9.27,0,0,0-.23-1.06l-.21-.81-.37-1.46H191l1.07,3.92h.62l.75-2.32c.07-.23.16-.55.26-1v0h.12v0c.11.47.21.82.26,1Z"/><path class="cls-9" d="M132.49,37.37a1.55,1.55,0,0,0,1.44-.94H138a1.55,1.55,0,0,0,1.44.94,1.5,1.5,0,1,0,0-3,1.55,1.55,0,0,0-1.44.94h-4.1a1.55,1.55,0,0,0-1.44-.94,1.5,1.5,0,1,0,0,3Z"/><path class="cls-9" d="M139.47,39.59a1.55,1.55,0,0,0-1.44.94h-4.1a1.55,1.55,0,0,0-1.44-.94,1.5,1.5,0,1,0,0,3,1.55,1.55,0,0,0,1.44-.94H138a1.55,1.55,0,0,0,1.44.94,1.5,1.5,0,1,0,0-3Z"/><path class="cls-1" d="M211.9,35.66l2.87,2.87,2.87-2.87.88.88-3.76,3.76L211,36.55Z"/><rect class="cls-4" x="106.4" y="13.57" width="10.51" height="10.51" rx="1.9" ry="1.9"/><polygon class="cls-1" points="110.37 22.25 108.02 19.76 108.87 18.96 110.35 20.53 114.43 15.95 115.3 16.73 110.37 22.25"/><path class="cls-1" d="M131.79,189.24a1.7,1.7,0,0,1-.63,1.42,2.85,2.85,0,0,1-1.8.5h-.71v2.39h-.71v-6.07h1.57Q131.79,187.47,131.79,189.24Zm-3.14,1.31h.64a2.36,2.36,0,0,0,1.36-.3,1.12,1.12,0,0,0,.42-1,1,1,0,0,0-.39-.9,2.06,2.06,0,0,0-1.23-.29h-.79Z"/><path class="cls-1" d="M128.7,193.59h-.8v-6.17h1.62c1.54,0,2.32.61,2.32,1.82a1.75,1.75,0,0,1-.65,1.46,2.91,2.91,0,0,1-1.83.51h-.66Zm-.71-.1h.61V191.1h.76a2.82,2.82,0,0,0,1.77-.48,1.66,1.66,0,0,0,.61-1.38c0-1.16-.73-1.72-2.22-1.72H128Zm1.29-2.89h-.68V188h.84a2.12,2.12,0,0,1,1.26.3,1.1,1.1,0,0,1,.41.94,1.17,1.17,0,0,1-.44,1A2.42,2.42,0,0,1,129.29,190.6Zm-.59-.1h.59a2.32,2.32,0,0,0,1.33-.29,1.07,1.07,0,0,0,.4-.93,1,1,0,0,0-.37-.86,2,2,0,0,0-1.2-.28h-.74Z"/><path class="cls-1" d="M135,188.91a2.69,2.69,0,0,1,.54.05l-.1.64a2.36,2.36,0,0,0-.5-.06,1.21,1.21,0,0,0-.94.45,1.63,1.63,0,0,0-.39,1.12v2.44H133V189h.57l.08.84h0a2,2,0,0,1,.61-.68A1.38,1.38,0,0,1,135,188.91Z"/><path class="cls-1" d="M133.7,193.59h-.79v-4.65h.66l.07.78a2,2,0,0,1,.58-.62,1.43,1.43,0,0,1,.81-.25,2.75,2.75,0,0,1,.55.05h0l-.11.74h-.05a2.33,2.33,0,0,0-.49-.06,1.17,1.17,0,0,0-.91.43,1.59,1.59,0,0,0-.38,1.08Zm-.69-.1h.59V191.1A1.69,1.69,0,0,1,134,190a1.26,1.26,0,0,1,1-.47,2.32,2.32,0,0,1,.46.05l.08-.54a2.74,2.74,0,0,0-.49,0,1.33,1.33,0,0,0-.76.23,2,2,0,0,0-.6.67v0h-.11l-.08-.84H133Z"/><path class="cls-1" d="M140.35,191.26a2.51,2.51,0,0,1-.56,1.74,2,2,0,0,1-1.55.62,2,2,0,0,1-1.08-.29,1.89,1.89,0,0,1-.73-.82,2.86,2.86,0,0,1-.26-1.25,2.5,2.5,0,0,1,.56-1.73,2,2,0,0,1,1.54-.62,1.92,1.92,0,0,1,1.52.64A2.5,2.5,0,0,1,140.35,191.26Zm-3.46,0a2.16,2.16,0,0,0,.35,1.33,1.38,1.38,0,0,0,2.05,0,2.15,2.15,0,0,0,.35-1.33,2.12,2.12,0,0,0-.35-1.32,1.23,1.23,0,0,0-1-.45,1.21,1.21,0,0,0-1,.44A2.14,2.14,0,0,0,136.89,191.26Z"/><path class="cls-1" d="M138.25,193.67a2.11,2.11,0,0,1-1.11-.29,2,2,0,0,1-.75-.84,2.93,2.93,0,0,1-.26-1.28,2.56,2.56,0,0,1,.57-1.77,2,2,0,0,1,1.58-.64,2,2,0,0,1,1.55.65,3,3,0,0,1,0,3.52A2,2,0,0,1,138.25,193.67Zm0-4.71a1.93,1.93,0,0,0-1.51.6,2.47,2.47,0,0,0-.54,1.7,2.82,2.82,0,0,0,.25,1.23,1.85,1.85,0,0,0,.71.8,2,2,0,0,0,1.06.28,1.93,1.93,0,0,0,1.51-.61,2.89,2.89,0,0,0,0-3.39A1.89,1.89,0,0,0,138.28,189Zm0,4.14a1.26,1.26,0,0,1-1.06-.48,2.76,2.76,0,0,1,0-2.71,1.27,1.27,0,0,1,1.06-.46,1.29,1.29,0,0,1,1.07.47,2.17,2.17,0,0,1,.36,1.35,2.21,2.21,0,0,1-.36,1.36A1.27,1.27,0,0,1,138.26,193.1Zm0-3.55a1.17,1.17,0,0,0-1,.43,2.09,2.09,0,0,0-.33,1.29,2.12,2.12,0,0,0,.34,1.3,1.33,1.33,0,0,0,2,0,2.11,2.11,0,0,0,.34-1.3,2.08,2.08,0,0,0-.34-1.29A1.19,1.19,0,0,0,138.25,189.54Z"/><path class="cls-1" d="M144.66,192.93h0a1.62,1.62,0,0,1-1.43.69,1.69,1.69,0,0,1-1.39-.61,2.68,2.68,0,0,1-.5-1.73,2.73,2.73,0,0,1,.5-1.75,1.68,1.68,0,0,1,1.39-.62,1.65,1.65,0,0,1,1.42.67h.05l0-.33,0-.32v-1.85h.69v6.46h-.56Zm-1.38.12a1.25,1.25,0,0,0,1-.38,1.94,1.94,0,0,0,.32-1.24v-.14a2.28,2.28,0,0,0-.32-1.38,1.22,1.22,0,0,0-1-.41,1.05,1.05,0,0,0-.93.47,2.34,2.34,0,0,0-.32,1.33,2.24,2.24,0,0,0,.32,1.32A1.08,1.08,0,0,0,143.28,193Z"/><path class="cls-1" d="M143.19,193.67a1.74,1.74,0,0,1-1.43-.63,2.74,2.74,0,0,1-.51-1.77,2.79,2.79,0,0,1,.51-1.78,1.9,1.9,0,0,1,2.84,0l0-.24,0-.32V187h.79v6.55h-.65l-.09-.57A1.68,1.68,0,0,1,143.19,193.67Zm0-4.71a1.64,1.64,0,0,0-1.35.6,2.7,2.7,0,0,0-.49,1.72,2.64,2.64,0,0,0,.49,1.7,1.65,1.65,0,0,0,1.35.59,1.58,1.58,0,0,0,1.39-.67l0,0h.11l.09.61h.47v-6.36h-.59v1.8l0,.32,0,.38h-.13l0,0A1.61,1.61,0,0,0,143.19,189Zm.09,4.14a1.14,1.14,0,0,1-1-.46,2.3,2.3,0,0,1-.33-1.34,2.4,2.4,0,0,1,.33-1.36,1.11,1.11,0,0,1,1-.49,1.27,1.27,0,0,1,1.07.43,2.33,2.33,0,0,1,.33,1.41v.14a2,2,0,0,1-.33,1.27A1.31,1.31,0,0,1,143.28,193.1Zm0-3.56a1,1,0,0,0-.89.45,2.3,2.3,0,0,0-.31,1.3,2.2,2.2,0,0,0,.31,1.29,1,1,0,0,0,.9.42,1.21,1.21,0,0,0,1-.37,1.91,1.91,0,0,0,.31-1.21v-.14a2.25,2.25,0,0,0-.31-1.35A1.18,1.18,0,0,0,143.27,189.54Z"/><path class="cls-1" d="M147.42,189v3a1.19,1.19,0,0,0,.25.83,1,1,0,0,0,.79.27,1.29,1.29,0,0,0,1-.39,2,2,0,0,0,.33-1.27V189h.69v4.55H150l-.1-.61h0a1.38,1.38,0,0,1-.59.51,2,2,0,0,1-.86.18,1.74,1.74,0,0,1-1.24-.39,1.68,1.68,0,0,1-.41-1.26v-3Z"/><path class="cls-1" d="M148.37,193.67a1.79,1.79,0,0,1-1.28-.41,1.73,1.73,0,0,1-.43-1.3v-3h.8v3a1.15,1.15,0,0,0,.24.8,1,1,0,0,0,.76.26,1.25,1.25,0,0,0,1-.37,1.93,1.93,0,0,0,.32-1.24v-2.44h.79v4.65h-.66v0l-.09-.53a1.42,1.42,0,0,1-.57.47A2,2,0,0,1,148.37,193.67ZM146.77,189V192a1.64,1.64,0,0,0,.4,1.23,1.7,1.7,0,0,0,1.21.38,1.93,1.93,0,0,0,.84-.17,1.33,1.33,0,0,0,.57-.5v0h.11v0l.09.57h.48V189h-.59v2.34a2,2,0,0,1-.34,1.31,1.34,1.34,0,0,1-1.08.41,1.08,1.08,0,0,1-.83-.29,1.24,1.24,0,0,1-.27-.86V189Z"/><path class="cls-1" d="M153.8,193.62a1.94,1.94,0,0,1-1.53-.61,2.5,2.5,0,0,1-.54-1.72,2.58,2.58,0,0,1,.55-1.76,2,2,0,0,1,1.57-.62,3.12,3.12,0,0,1,.66.07,2.13,2.13,0,0,1,.51.17l-.21.58a3.3,3.3,0,0,0-.5-.15,2.25,2.25,0,0,0-.48-.06q-1.39,0-1.39,1.77a2.1,2.1,0,0,0,.34,1.29,1.18,1.18,0,0,0,1,.45,3.06,3.06,0,0,0,1.17-.24v.61A2.48,2.48,0,0,1,153.8,193.62Z"/><path class="cls-1" d="M153.8,193.67a2,2,0,0,1-1.57-.62,2.56,2.56,0,0,1-.55-1.75,2.64,2.64,0,0,1,.56-1.8,2,2,0,0,1,1.6-.64,3.2,3.2,0,0,1,.67.07,2.17,2.17,0,0,1,.53.17l0,0-.24.67,0,0a3.18,3.18,0,0,0-.49-.15,2.21,2.21,0,0,0-.47-.06c-.9,0-1.34.56-1.34,1.72a2.07,2.07,0,0,0,.33,1.26,1.13,1.13,0,0,0,1,.43,3,3,0,0,0,1.15-.24l.07,0v.71h0A2.54,2.54,0,0,1,153.8,193.67Zm0-4.71a1.94,1.94,0,0,0-1.53.61,2.55,2.55,0,0,0-.54,1.73,2.46,2.46,0,0,0,.53,1.69,1.9,1.9,0,0,0,1.49.59,2.48,2.48,0,0,0,1.1-.22v-.51a3.09,3.09,0,0,1-1.12.22,1.23,1.23,0,0,1-1-.47,2.16,2.16,0,0,1-.35-1.32c0-1.21.48-1.82,1.44-1.82a2.31,2.31,0,0,1,.49.06,3.52,3.52,0,0,1,.46.14l.18-.49a2.26,2.26,0,0,0-.46-.14A3.11,3.11,0,0,0,153.85,189Z"/><path class="cls-1" d="M157.5,193.05l.35,0,.27-.06v.53a1.27,1.27,0,0,1-.33.09,2.48,2.48,0,0,1-.39,0q-1.32,0-1.32-1.39v-2.71h-.65v-.33l.65-.29.29-1h.4V189h1.32v.54h-1.32v2.68a.92.92,0,0,0,.2.63A.68.68,0,0,0,157.5,193.05Z"/><path class="cls-1" d="M157.4,193.67c-.91,0-1.37-.48-1.37-1.44v-2.66h-.65v-.41l.66-.29.29-1h.48v1.05h1.32v.63h-1.32v2.63a.87.87,0,0,0,.18.6.63.63,0,0,0,.5.2l.34,0,.26-.05.06,0v.63h0a1.33,1.33,0,0,1-.34.09A2.56,2.56,0,0,1,157.4,193.67Zm-1.92-4.19h.65v2.76c0,.9.42,1.34,1.27,1.34a2.46,2.46,0,0,0,.38,0,1.37,1.37,0,0,0,.29-.07V193l-.21,0-.36,0a.73.73,0,0,1-.57-.24,1,1,0,0,1-.21-.66v-2.73H158V189h-1.32V188h-.31l-.29,1h0l-.62.27Z"/><path class="cls-1" d="M163.94,188a2,2,0,0,0-1.58.67,2.69,2.69,0,0,0-.58,1.82,2.74,2.74,0,0,0,.56,1.84,2,2,0,0,0,1.59.65,5.43,5.43,0,0,0,1.45-.23v.62a4.46,4.46,0,0,1-1.56.24,2.63,2.63,0,0,1-2.07-.81,3.35,3.35,0,0,1-.73-2.31,3.64,3.64,0,0,1,.35-1.64,2.52,2.52,0,0,1,1-1.09,3.07,3.07,0,0,1,1.56-.38,3.76,3.76,0,0,1,1.67.35l-.3.61A3.22,3.22,0,0,0,163.94,188Z"/><path class="cls-1" d="M163.82,193.67a2.69,2.69,0,0,1-2.11-.83,3.41,3.41,0,0,1-.74-2.34,3.71,3.71,0,0,1,.36-1.66,2.57,2.57,0,0,1,1-1.11,3.13,3.13,0,0,1,1.58-.39,3.82,3.82,0,0,1,1.69.35l0,0-.34.69,0,0a3.19,3.19,0,0,0-1.36-.32,2,2,0,0,0-1.54.65,2.66,2.66,0,0,0-.57,1.79,2.7,2.7,0,0,0,.55,1.81,1.94,1.94,0,0,0,1.55.63,5.43,5.43,0,0,0,1.43-.23l.06,0v.72h0A4.54,4.54,0,0,1,163.82,193.67Zm.12-6.24a3,3,0,0,0-1.53.37,2.48,2.48,0,0,0-1,1.07,3.61,3.61,0,0,0-.35,1.62,3.32,3.32,0,0,0,.72,2.28,2.59,2.59,0,0,0,2,.8,4.48,4.48,0,0,0,1.51-.22v-.52a5.44,5.44,0,0,1-1.4.21,2,2,0,0,1-1.63-.67,2.8,2.8,0,0,1-.57-1.87,2.75,2.75,0,0,1,.59-1.86,2,2,0,0,1,1.62-.68,3.26,3.26,0,0,1,1.35.31l.26-.52A3.76,3.76,0,0,0,163.95,187.44Z"/><path class="cls-1" d="M131.8,63.76a1.7,1.7,0,0,1-.63,1.42,2.85,2.85,0,0,1-1.8.5h-.71v2.39H128V62h1.57Q131.8,62,131.8,63.76Zm-3.14,1.31h.64a2.36,2.36,0,0,0,1.36-.3,1.12,1.12,0,0,0,.42-1,1,1,0,0,0-.39-.9,2.06,2.06,0,0,0-1.23-.29h-.79Z"/><path class="cls-1" d="M128.71,68.11h-.8V61.94h1.62c1.54,0,2.32.61,2.32,1.82a1.75,1.75,0,0,1-.65,1.46,2.91,2.91,0,0,1-1.83.51h-.66ZM128,68h.61V65.62h.76a2.82,2.82,0,0,0,1.77-.48,1.66,1.66,0,0,0,.61-1.38c0-1.16-.73-1.72-2.22-1.72H128Zm1.29-2.89h-.68V62.55h.84a2.12,2.12,0,0,1,1.26.3,1.1,1.1,0,0,1,.41.94,1.17,1.17,0,0,1-.44,1A2.42,2.42,0,0,1,129.29,65.12Zm-.59-.1h.59a2.32,2.32,0,0,0,1.33-.29,1.07,1.07,0,0,0,.4-.93,1,1,0,0,0-.37-.86,2,2,0,0,0-1.2-.28h-.74Z"/><path class="cls-1" d="M135,63.43a2.69,2.69,0,0,1,.54.05l-.1.64a2.36,2.36,0,0,0-.5-.06,1.21,1.21,0,0,0-.94.45,1.63,1.63,0,0,0-.39,1.12v2.44H133V63.51h.57l.08.84h0a2,2,0,0,1,.61-.68A1.38,1.38,0,0,1,135,63.43Z"/><path class="cls-1" d="M133.7,68.11h-.79V63.46h.66l.07.78a2,2,0,0,1,.58-.62,1.43,1.43,0,0,1,.81-.25,2.75,2.75,0,0,1,.55.05h0l-.11.74h-.05a2.33,2.33,0,0,0-.49-.06,1.17,1.17,0,0,0-.91.43,1.59,1.59,0,0,0-.38,1.08ZM133,68h.59V65.62a1.69,1.69,0,0,1,.4-1.15,1.26,1.26,0,0,1,1-.47,2.32,2.32,0,0,1,.46.05l.08-.54a2.74,2.74,0,0,0-.49,0,1.33,1.33,0,0,0-.76.23,2,2,0,0,0-.6.67v0h-.11l-.08-.84H133Z"/><path class="cls-1" d="M140.36,65.78a2.51,2.51,0,0,1-.56,1.74,2,2,0,0,1-1.55.62,2,2,0,0,1-1.08-.29,1.89,1.89,0,0,1-.73-.82,2.86,2.86,0,0,1-.26-1.25,2.5,2.5,0,0,1,.56-1.73,2,2,0,0,1,1.54-.62,1.92,1.92,0,0,1,1.52.64A2.5,2.5,0,0,1,140.36,65.78Zm-3.46,0a2.16,2.16,0,0,0,.35,1.33,1.38,1.38,0,0,0,2.05,0,2.15,2.15,0,0,0,.35-1.33,2.12,2.12,0,0,0-.35-1.32,1.23,1.23,0,0,0-1-.45,1.21,1.21,0,0,0-1,.44A2.14,2.14,0,0,0,136.89,65.78Z"/><path class="cls-1" d="M138.25,68.19a2.11,2.11,0,0,1-1.11-.29,2,2,0,0,1-.75-.84,2.93,2.93,0,0,1-.26-1.28A2.56,2.56,0,0,1,136.7,64a2,2,0,0,1,1.58-.64,2,2,0,0,1,1.55.65,3,3,0,0,1,0,3.52A2,2,0,0,1,138.25,68.19Zm0-4.71a1.93,1.93,0,0,0-1.51.6,2.47,2.47,0,0,0-.54,1.7,2.82,2.82,0,0,0,.25,1.23,1.85,1.85,0,0,0,.71.8,2,2,0,0,0,1.06.28,1.93,1.93,0,0,0,1.51-.61,2.89,2.89,0,0,0,0-3.39A1.89,1.89,0,0,0,138.28,63.48Zm0,4.14a1.26,1.26,0,0,1-1.06-.48,2.76,2.76,0,0,1,0-2.71,1.27,1.27,0,0,1,1.06-.46,1.29,1.29,0,0,1,1.07.47,2.17,2.17,0,0,1,.36,1.35,2.21,2.21,0,0,1-.36,1.36A1.27,1.27,0,0,1,138.27,67.61Zm0-3.55a1.17,1.17,0,0,0-1,.43,2.09,2.09,0,0,0-.33,1.29,2.12,2.12,0,0,0,.34,1.3,1.33,1.33,0,0,0,2,0,2.11,2.11,0,0,0,.34-1.3,2.08,2.08,0,0,0-.34-1.29A1.19,1.19,0,0,0,138.26,64.06Z"/><path class="cls-1" d="M144.66,67.45h0a1.62,1.62,0,0,1-1.43.69,1.69,1.69,0,0,1-1.39-.61,2.68,2.68,0,0,1-.5-1.73,2.73,2.73,0,0,1,.5-1.75,1.68,1.68,0,0,1,1.39-.62,1.65,1.65,0,0,1,1.42.67h.05l0-.33,0-.32V61.6h.69v6.46h-.56Zm-1.38.12a1.25,1.25,0,0,0,1-.38,1.94,1.94,0,0,0,.32-1.24V65.8a2.28,2.28,0,0,0-.32-1.38,1.22,1.22,0,0,0-1-.41,1.05,1.05,0,0,0-.93.47A2.34,2.34,0,0,0,142,65.8a2.24,2.24,0,0,0,.32,1.32A1.08,1.08,0,0,0,143.28,67.56Z"/><path class="cls-1" d="M143.2,68.19a1.74,1.74,0,0,1-1.43-.63,2.74,2.74,0,0,1-.51-1.77,2.79,2.79,0,0,1,.51-1.78,1.9,1.9,0,0,1,2.84,0l0-.24,0-.32v-1.9h.79v6.55h-.65l-.09-.57A1.68,1.68,0,0,1,143.2,68.19Zm0-4.71a1.64,1.64,0,0,0-1.35.6,2.7,2.7,0,0,0-.49,1.72,2.64,2.64,0,0,0,.49,1.7,1.65,1.65,0,0,0,1.35.59,1.58,1.58,0,0,0,1.39-.67l0,0h.11l.09.61h.47V61.65h-.59v1.8l0,.32,0,.38h-.13l0,0A1.61,1.61,0,0,0,143.2,63.48Zm.09,4.14a1.14,1.14,0,0,1-1-.46A2.3,2.3,0,0,1,142,65.8a2.4,2.4,0,0,1,.33-1.36,1.11,1.11,0,0,1,1-.49,1.27,1.27,0,0,1,1.07.43,2.33,2.33,0,0,1,.33,1.41v.14a2,2,0,0,1-.33,1.27A1.31,1.31,0,0,1,143.28,67.61Zm0-3.56a1,1,0,0,0-.89.45,2.3,2.3,0,0,0-.31,1.3,2.2,2.2,0,0,0,.31,1.29,1,1,0,0,0,.9.42,1.21,1.21,0,0,0,1-.37,1.91,1.91,0,0,0,.31-1.21V65.8a2.25,2.25,0,0,0-.31-1.35A1.18,1.18,0,0,0,143.27,64.05Z"/><path class="cls-1" d="M147.42,63.51v3a1.19,1.19,0,0,0,.25.83,1,1,0,0,0,.79.27,1.29,1.29,0,0,0,1-.39,2,2,0,0,0,.33-1.27V63.51h.69v4.55H150l-.1-.61h0a1.38,1.38,0,0,1-.59.51,2,2,0,0,1-.86.18,1.74,1.74,0,0,1-1.24-.39,1.68,1.68,0,0,1-.41-1.26v-3Z"/><path class="cls-1" d="M148.38,68.19a1.79,1.79,0,0,1-1.28-.41,1.73,1.73,0,0,1-.43-1.3v-3h.8v3a1.15,1.15,0,0,0,.24.8,1,1,0,0,0,.76.26,1.25,1.25,0,0,0,1-.37,1.93,1.93,0,0,0,.32-1.24V63.46h.79v4.65h-.66v0l-.09-.53a1.42,1.42,0,0,1-.57.47A2,2,0,0,1,148.38,68.19Zm-1.61-4.63v2.93a1.64,1.64,0,0,0,.4,1.23,1.7,1.7,0,0,0,1.21.38,1.93,1.93,0,0,0,.84-.17,1.33,1.33,0,0,0,.57-.5v0h.11v0L150,68h.48V63.56h-.59V65.9a2,2,0,0,1-.34,1.31,1.34,1.34,0,0,1-1.08.41,1.08,1.08,0,0,1-.83-.29,1.24,1.24,0,0,1-.27-.86v-2.9Z"/><path class="cls-1" d="M153.81,68.14a1.94,1.94,0,0,1-1.53-.61,2.5,2.5,0,0,1-.54-1.72,2.58,2.58,0,0,1,.55-1.76,2,2,0,0,1,1.57-.62,3.12,3.12,0,0,1,.66.07,2.13,2.13,0,0,1,.51.17l-.21.58a3.3,3.3,0,0,0-.5-.15,2.25,2.25,0,0,0-.48-.06q-1.39,0-1.39,1.77a2.1,2.1,0,0,0,.34,1.29,1.18,1.18,0,0,0,1,.45,3.06,3.06,0,0,0,1.17-.24v.61A2.48,2.48,0,0,1,153.81,68.14Z"/><path class="cls-1" d="M153.81,68.19a2,2,0,0,1-1.57-.62,2.56,2.56,0,0,1-.55-1.75,2.64,2.64,0,0,1,.56-1.8,2,2,0,0,1,1.6-.64,3.2,3.2,0,0,1,.67.07,2.17,2.17,0,0,1,.53.17l0,0-.24.67,0,0a3.18,3.18,0,0,0-.49-.15,2.21,2.21,0,0,0-.47-.06c-.9,0-1.34.56-1.34,1.72a2.07,2.07,0,0,0,.33,1.26,1.13,1.13,0,0,0,1,.43,3,3,0,0,0,1.15-.24l.07,0v.71h0A2.54,2.54,0,0,1,153.81,68.19Zm0-4.71a1.94,1.94,0,0,0-1.53.61,2.55,2.55,0,0,0-.54,1.73,2.46,2.46,0,0,0,.53,1.69,1.9,1.9,0,0,0,1.49.59,2.48,2.48,0,0,0,1.1-.22v-.51a3.09,3.09,0,0,1-1.12.22,1.23,1.23,0,0,1-1-.47,2.16,2.16,0,0,1-.35-1.32c0-1.21.48-1.82,1.44-1.82a2.31,2.31,0,0,1,.49.06,3.52,3.52,0,0,1,.46.14l.18-.49a2.26,2.26,0,0,0-.46-.14A3.11,3.11,0,0,0,153.85,63.48Z"/><path class="cls-1" d="M157.5,67.57l.35,0,.27-.06V68a1.27,1.27,0,0,1-.33.09,2.48,2.48,0,0,1-.39,0q-1.32,0-1.32-1.39V64h-.65v-.33l.65-.29.29-1h.4v1.05h1.32V64h-1.32v2.68a.92.92,0,0,0,.2.63A.68.68,0,0,0,157.5,67.57Z"/><path class="cls-1" d="M157.4,68.19c-.91,0-1.37-.48-1.37-1.44V64.09h-.65v-.41l.66-.29.29-1h.48v1.05h1.32v.63h-1.32v2.63a.87.87,0,0,0,.18.6.63.63,0,0,0,.5.2l.34,0,.26-.05.06,0V68h0a1.33,1.33,0,0,1-.34.09A2.56,2.56,0,0,1,157.4,68.19ZM155.48,64h.65v2.76c0,.9.42,1.34,1.27,1.34a2.46,2.46,0,0,0,.38,0,1.37,1.37,0,0,0,.29-.07v-.43l-.21,0-.36,0a.73.73,0,0,1-.57-.24,1,1,0,0,1-.21-.66V64H158v-.44h-1.32V62.51h-.31l-.29,1h0l-.62.27Z"/><path class="cls-1" d="M161.35,62h1.71a3.23,3.23,0,0,1,1.75.36,1.27,1.27,0,0,1,.54,1.14,1.32,1.32,0,0,1-.3.89,1.45,1.45,0,0,1-.88.45v0q1.38.24,1.38,1.45A1.56,1.56,0,0,1,165,67.6a2.34,2.34,0,0,1-1.54.46h-2.12Zm.71,2.6h1.16a1.89,1.89,0,0,0,1.08-.23.9.9,0,0,0,.33-.79.8.8,0,0,0-.37-.74,2.28,2.28,0,0,0-1.16-.23h-1Zm0,.6v2.27h1.27a1.8,1.8,0,0,0,1.11-.28,1.05,1.05,0,0,0,.37-.89.94.94,0,0,0-.38-.83,2,2,0,0,0-1.16-.27Z"/><path class="cls-1" d="M163.46,68.11H161.3V61.94h1.76a3.29,3.29,0,0,1,1.77.37,1.32,1.32,0,0,1,.56,1.18,1.38,1.38,0,0,1-.31.92,1.43,1.43,0,0,1-.77.44,1.42,1.42,0,0,1,1.28,1.47,1.61,1.61,0,0,1-.57,1.31A2.4,2.4,0,0,1,163.46,68.11Zm-2.07-.1h2.07a2.31,2.31,0,0,0,1.51-.45,1.52,1.52,0,0,0,.53-1.23c0-.79-.44-1.25-1.34-1.4h0V64.8h0a1.4,1.4,0,0,0,.85-.44,1.28,1.28,0,0,0,.29-.86,1.23,1.23,0,0,0-.52-1.1,3.21,3.21,0,0,0-1.72-.35h-1.66Zm1.92-.5H162V65.14h1.26a2.08,2.08,0,0,1,1.18.27,1,1,0,0,1,.4.87,1.1,1.1,0,0,1-.39.93A1.86,1.86,0,0,1,163.32,67.51Zm-1.22-.1h1.22a1.76,1.76,0,0,0,1.08-.27,1,1,0,0,0,.35-.85.9.9,0,0,0-.36-.79,2,2,0,0,0-1.13-.26H162.1Zm1.11-2.77H162V62.55h1.09a2.34,2.34,0,0,1,1.19.23.85.85,0,0,1,.39.78,1,1,0,0,1-.35.83A2,2,0,0,1,163.21,64.64Zm-1.11-.1h1.11a1.85,1.85,0,0,0,1-.23.86.86,0,0,0,.31-.75.75.75,0,0,0-.34-.69,2.25,2.25,0,0,0-1.14-.22h-1Z"/><rect class="cls-8" x="126.37" y="74.76" width="98.4" height="98.93" rx="3.05" ry="3.05"/><path class="cls-1" d="M211.9,81.8l2.87,2.87,2.87-2.87.88.88-3.76,3.76L211,82.68Z"/><rect class="cls-4" x="106.4" y="59.7" width="10.51" height="10.51" rx="1.9" ry="1.9"/><polygon class="cls-1" points="110.37 68.39 108.02 65.89 108.87 65.09 110.35 66.66 114.43 62.08 115.3 62.86 110.37 68.39"/><rect class="cls-7" x="127.76" y="114.52" width="95.62" height="19.42"/><path class="cls-9" d="M152.41,87.74,151.74,86h-2.16l-.66,1.71h-.63l2.13-5.4h.53l2.12,5.4Zm-.86-2.27-.63-1.67q-.12-.32-.25-.78a6.86,6.86,0,0,1-.23.78l-.63,1.67Z"/><path class="cls-9" d="M153.14,87.8h-.77v0l-.66-1.68h-2.08L149,87.8h-.76l0-.08,2.14-5.44h.6v0Zm-.69-.11H153l-2.07-5.29h-.45l-2.08,5.29h.51l.66-1.71h2.23v0Zm-.82-2.16h-1.9l0-.08.63-1.67a6.79,6.79,0,0,0,.23-.77l0-.22.06.21c.09.3.17.56.25.77Zm-1.74-.11h1.58l-.6-1.59c-.06-.16-.13-.36-.19-.58,0,.18-.11.37-.18.58Z"/><path class="cls-9" d="M154.32,87.74h-.61V82h.61Z"/><path class="cls-9" d="M154.38,87.8h-.72V82h.72Zm-.61-.11h.5V82.07h-.5Z"/><path class="cls-9" d="M156.23,87.74h-.61V82h.61Z"/><path class="cls-9" d="M156.28,87.8h-.72V82h.72Zm-.61-.11h.5V82.07h-.5Z"/><path class="cls-9" d="M152.07,104.89a1.32,1.32,0,0,1-.52,1.11,2.23,2.23,0,0,1-1.4.4,3.51,3.51,0,0,1-1.47-.25v-.6a4,4,0,0,0,1.49.3,1.55,1.55,0,0,0,.94-.24.78.78,0,0,0,.32-.66.85.85,0,0,0-.11-.46,1.05,1.05,0,0,0-.38-.33,5.22,5.22,0,0,0-.8-.34,2.56,2.56,0,0,1-1.07-.64,1.41,1.41,0,0,1-.32-1,1.2,1.2,0,0,1,.47-1,1.94,1.94,0,0,1,1.24-.37,3.64,3.64,0,0,1,1.48.29l-.2.54a3.34,3.34,0,0,0-1.3-.28,1.25,1.25,0,0,0-.78.21.7.7,0,0,0-.28.59.91.91,0,0,0,.1.46,1,1,0,0,0,.35.33,4.33,4.33,0,0,0,.75.33,3,3,0,0,1,1.17.65A1.27,1.27,0,0,1,152.07,104.89Z"/><path class="cls-9" d="M150.15,106.45a3.57,3.57,0,0,1-1.5-.25l0,0v-.72l.08,0a3.91,3.91,0,0,0,1.47.3,1.51,1.51,0,0,0,.91-.23.72.72,0,0,0,.29-.62.8.8,0,0,0-.1-.43,1,1,0,0,0-.36-.31,5.16,5.16,0,0,0-.79-.34,2.63,2.63,0,0,1-1.1-.65,1.47,1.47,0,0,1-.34-1,1.25,1.25,0,0,1,.49-1,2,2,0,0,1,1.27-.38,3.71,3.71,0,0,1,1.5.3l0,0-.23.65-.06,0a3.3,3.3,0,0,0-1.27-.28,1.2,1.2,0,0,0-.74.2.64.64,0,0,0-.26.55.85.85,0,0,0,.1.43.93.93,0,0,0,.33.31,4.34,4.34,0,0,0,.74.32,3,3,0,0,1,1.19.66,1.33,1.33,0,0,1,.33.94,1.38,1.38,0,0,1-.54,1.15A2.3,2.3,0,0,1,150.15,106.45Zm-1.42-.34a3.56,3.56,0,0,0,1.42.23,2.19,2.19,0,0,0,1.36-.39,1.27,1.27,0,0,0,.49-1.06,1.22,1.22,0,0,0-.3-.86,2.92,2.92,0,0,0-1.14-.63,4.4,4.4,0,0,1-.76-.33,1,1,0,0,1-.37-.35,1,1,0,0,1-.11-.49.76.76,0,0,1,.3-.64,1.31,1.31,0,0,1,.81-.23,3.39,3.39,0,0,1,1.26.26l.16-.44a3.62,3.62,0,0,0-1.4-.27,1.89,1.89,0,0,0-1.2.36,1.15,1.15,0,0,0-.45.95,1.35,1.35,0,0,0,.31.92,2.51,2.51,0,0,0,1,.62,5.32,5.32,0,0,1,.81.35,1.11,1.11,0,0,1,.4.35.91.91,0,0,1,.12.49.83.83,0,0,1-.34.71,1.62,1.62,0,0,1-1,.25,3.89,3.89,0,0,1-.78-.08,4,4,0,0,1-.65-.19Z"/><path class="cls-9" d="M156.37,106.32l-.74-2.37q-.07-.22-.26-1h0q-.15.64-.26,1l-.76,2.36h-.71l-1.1-4h.64l.59,2.31a9.3,9.3,0,0,1,.23,1.07h0q0-.21.13-.54t.16-.53l.74-2.31h.66l.72,2.31a7.8,7.8,0,0,1,.28,1.06h0a3.88,3.88,0,0,1,.08-.41q.07-.28.77-3h.63l-1.12,4Z"/><path class="cls-9" d="M157.14,106.38h-.81l-.75-2.41c0-.13-.12-.42-.22-.82-.08.35-.16.63-.22.83l-.77,2.4h-.79v0l-1.12-4.1h.76v0l.59,2.31c.09.37.16.65.2.86l.08-.33c.06-.22.11-.4.16-.53l.75-2.35h.75v0l.72,2.31c.1.32.18.6.24.85l0-.19c0-.2.33-1.28.77-3v0h.75l0,.07Zm-.73-.11h.64l1.08-3.92h-.52c-.44,1.67-.71,2.73-.76,2.93a3.8,3.8,0,0,0-.08.4v.05h-.13v0a7.81,7.81,0,0,0-.28-1.06l-.71-2.28h-.58l-.73,2.28c0,.13-.1.31-.16.53s-.1.4-.13.54v0h-.13v-.05a9.5,9.5,0,0,0-.23-1.06l-.58-2.27h-.52l1.07,3.92h.62l.75-2.32c.07-.23.16-.57.26-1v0h.12v0c.12.49.21.83.26,1Z"/><path class="cls-9" d="M158.89,101.19a.41.41,0,0,1,.1-.31.38.38,0,0,1,.51,0,.4.4,0,0,1,.11.31.4.4,0,0,1-.11.31.36.36,0,0,1-.25.1.35.35,0,0,1-.26-.1A.41.41,0,0,1,158.89,101.19Zm.66,5.13h-.61v-4h.61Z"/><path class="cls-9" d="M159.61,106.38h-.72v-4.15h.72Zm-.61-.11h.5v-3.92H159Zm.25-4.6a.41.41,0,0,1-.3-.12.47.47,0,0,1-.12-.35.46.46,0,0,1,.12-.35.44.44,0,0,1,.59,0,.45.45,0,0,1,.13.35.46.46,0,0,1-.12.35A.41.41,0,0,1,159.25,101.66Zm0-.81a.3.3,0,0,0-.22.08.46.46,0,0,0,0,.53.32.32,0,0,0,.43,0,.35.35,0,0,0,.09-.27.34.34,0,0,0-.09-.26A.3.3,0,0,0,159.25,100.85Z"/><path class="cls-9" d="M166,106.32V103.7a1.09,1.09,0,0,0-.21-.72.8.8,0,0,0-.64-.24,1,1,0,0,0-.84.33,1.56,1.56,0,0,0-.27,1v2.25h-.61V103.7a1.09,1.09,0,0,0-.21-.72.8.8,0,0,0-.64-.24,1,1,0,0,0-.84.34,1.87,1.87,0,0,0-.27,1.13v2.12h-.61v-4h.5l.1.55h0a1.2,1.2,0,0,1,.49-.46,1.49,1.49,0,0,1,.71-.17,1.2,1.2,0,0,1,1.24.68h0a1.28,1.28,0,0,1,.52-.5,1.62,1.62,0,0,1,.78-.18,1.36,1.36,0,0,1,1,.35,1.57,1.57,0,0,1,.34,1.12v2.63Z"/><path class="cls-9" d="M166.65,106.38h-.72V103.7a1,1,0,0,0-.19-.69.75.75,0,0,0-.6-.22,1,1,0,0,0-.8.31,1.51,1.51,0,0,0-.26,1v2.31h-.72V103.7a1,1,0,0,0-.19-.69.76.76,0,0,0-.6-.22,1,1,0,0,0-.8.32,1.82,1.82,0,0,0-.25,1.09v2.17h-.72v-4.15h.6l.09.49a1.28,1.28,0,0,1,.45-.39,1.56,1.56,0,0,1,.73-.17,1.27,1.27,0,0,1,1.26.65,1.36,1.36,0,0,1,.51-.46,1.68,1.68,0,0,1,.81-.19,1.42,1.42,0,0,1,1.07.37,1.62,1.62,0,0,1,.36,1.16Zm-.61-.11h.5v-2.57a1.52,1.52,0,0,0-.32-1.08,1.31,1.31,0,0,0-1-.33,1.57,1.57,0,0,0-.75.18,1.23,1.23,0,0,0-.5.48l0,0h-.1v0a1.14,1.14,0,0,0-1.18-.65,1.45,1.45,0,0,0-.68.16,1.15,1.15,0,0,0-.47.44l0,0h-.11l-.1-.55h-.39v3.92h.5v-2.06a1.93,1.93,0,0,1,.28-1.16,1.06,1.06,0,0,1,.89-.37.86.86,0,0,1,.69.26,1.15,1.15,0,0,1,.22.76v2.57h.5v-2.2a1.62,1.62,0,0,1,.29-1,1.09,1.09,0,0,1,.89-.35.85.85,0,0,1,.68.26,1.15,1.15,0,0,1,.22.76Z"/><path class="cls-9" d="M168.47,106.32h-.61V100.6h.61Z"/><path class="cls-9" d="M168.52,106.38h-.72v-5.84h.72Zm-.61-.11h.5v-5.61h-.5Z"/><path class="cls-9" d="M172.24,106.32l-.12-.57h0a1.71,1.71,0,0,1-.6.51,1.84,1.84,0,0,1-.75.13,1.35,1.35,0,0,1-.94-.31,1.13,1.13,0,0,1-.34-.88q0-1.22,2-1.28l.68,0v-.25a1,1,0,0,0-.2-.7.84.84,0,0,0-.65-.23,2.66,2.66,0,0,0-1.14.31l-.19-.47a2.93,2.93,0,0,1,1.37-.35,1.53,1.53,0,0,1,1.07.32,1.33,1.33,0,0,1,.35,1v2.75Zm-1.38-.43a1.24,1.24,0,0,0,.9-.31,1.15,1.15,0,0,0,.33-.88v-.36l-.61,0a2.21,2.21,0,0,0-1.05.23.68.68,0,0,0-.32.62.63.63,0,0,0,.2.5A.83.83,0,0,0,170.86,105.89Z"/><path class="cls-9" d="M170.74,106.45a1.41,1.41,0,0,1-1-.32,1.19,1.19,0,0,1-.36-.92c0-.85.68-1.3,2-1.34l.63,0v-.2a1,1,0,0,0-.19-.66.8.8,0,0,0-.61-.21,2.62,2.62,0,0,0-1.12.3l-.06,0-.23-.57,0,0a3,3,0,0,1,1.39-.35,1.59,1.59,0,0,1,1.11.34,1.39,1.39,0,0,1,.37,1.07v2.81h-.55l-.11-.53a1.68,1.68,0,0,1-.57.47A1.91,1.91,0,0,1,170.74,106.45Zm.5-3.78a.9.9,0,0,1,.7.24,1.09,1.09,0,0,1,.22.74v.3l-.74,0c-1.28,0-1.9.44-1.9,1.22a1.08,1.08,0,0,0,.32.84,1.3,1.3,0,0,0,.9.29,1.81,1.81,0,0,0,.73-.13,1.66,1.66,0,0,0,.58-.5l0,0h.1l.12.57h.35v-2.7a1.29,1.29,0,0,0-.33-1,1.48,1.48,0,0,0-1-.31,2.87,2.87,0,0,0-1.29.32l.15.36A2.67,2.67,0,0,1,171.24,102.67Zm-.38,3.28a.89.89,0,0,1-.6-.19.69.69,0,0,1-.22-.55.74.74,0,0,1,.35-.67,2.27,2.27,0,0,1,1.08-.24l.67,0v.42a1.21,1.21,0,0,1-.34.92A1.3,1.3,0,0,1,170.86,105.95ZM172,104.4l-.55,0a2.17,2.17,0,0,0-1,.22.62.62,0,0,0-.3.58.57.57,0,0,0,.18.46.79.79,0,0,0,.52.16,1.19,1.19,0,0,0,.86-.3,1.11,1.11,0,0,0,.31-.84Z"/><path class="cls-9" d="M176.71,106.32v-2.61a1.05,1.05,0,0,0-.22-.74.91.91,0,0,0-.7-.24,1.16,1.16,0,0,0-.93.34,1.73,1.73,0,0,0-.29,1.13v2.12H174v-4h.5l.1.55h0a1.25,1.25,0,0,1,.53-.46,1.71,1.71,0,0,1,.75-.16,1.53,1.53,0,0,1,1.1.35,1.5,1.5,0,0,1,.37,1.12v2.63Z"/><path class="cls-9" d="M177.38,106.38h-.72v-2.67a1,1,0,0,0-.21-.7.87.87,0,0,0-.66-.22,1.11,1.11,0,0,0-.88.32,1.69,1.69,0,0,0-.28,1.09v2.17h-.72v-4.15h.6l.09.5a1.33,1.33,0,0,1,.49-.4,1.78,1.78,0,0,1,.78-.17,1.59,1.59,0,0,1,1.14.37,1.55,1.55,0,0,1,.39,1.16Zm-.61-.11h.5v-2.57a1.45,1.45,0,0,0-.35-1.08,1.48,1.48,0,0,0-1.06-.34,1.67,1.67,0,0,0-.73.16,1.2,1.2,0,0,0-.5.44l0,0h-.11l-.1-.55H174v3.92h.5v-2.06a1.78,1.78,0,0,1,.31-1.17,1.22,1.22,0,0,1,1-.36,1,1,0,0,1,.74.26,1.11,1.11,0,0,1,.24.77Z"/><path class="cls-9" d="M180.28,106.4a1.85,1.85,0,0,1-1.41-.54,2.11,2.11,0,0,1-.52-1.51,2.34,2.34,0,0,1,.48-1.55,1.59,1.59,0,0,1,1.29-.57,1.52,1.52,0,0,1,1.2.5,1.91,1.91,0,0,1,.44,1.32v.39H179a1.6,1.6,0,0,0,.36,1.08,1.24,1.24,0,0,0,1,.37,3.25,3.25,0,0,0,1.29-.27v.54a3.26,3.26,0,0,1-.61.2A3.49,3.49,0,0,1,180.28,106.4Zm-.17-3.67a1,1,0,0,0-.77.32,1.46,1.46,0,0,0-.34.88h2.11a1.35,1.35,0,0,0-.26-.89A.91.91,0,0,0,180.12,102.73Z"/><path class="cls-9" d="M180.28,106.45a1.92,1.92,0,0,1-1.45-.56,2.17,2.17,0,0,1-.53-1.55,2.4,2.4,0,0,1,.49-1.59,1.65,1.65,0,0,1,1.33-.59,1.58,1.58,0,0,1,1.24.52,2,2,0,0,1,.46,1.35v.44H179a1.52,1.52,0,0,0,.34,1,1.2,1.2,0,0,0,.92.35,3.2,3.2,0,0,0,1.27-.27l.08,0v.67h0a3.31,3.31,0,0,1-.62.2A3.54,3.54,0,0,1,180.28,106.45Zm-.16-4.18a1.55,1.55,0,0,0-1.25.55,2.29,2.29,0,0,0-.47,1.51,2.06,2.06,0,0,0,.5,1.47,1.81,1.81,0,0,0,1.37.53,3.46,3.46,0,0,0,.69-.06,3.15,3.15,0,0,0,.57-.18v-.42a3.3,3.3,0,0,1-1.23.24,1.3,1.3,0,0,1-1-.39,1.66,1.66,0,0,1-.37-1.12v-.06h2.78V104a1.86,1.86,0,0,0-.43-1.28A1.47,1.47,0,0,0,180.13,102.27Zm1,1.7h-2.23v-.06a1.52,1.52,0,0,1,.35-.91,1.05,1.05,0,0,1,.82-.33,1,1,0,0,1,.78.33,1.41,1.41,0,0,1,.27.92Zm-2.1-.11h2a1.26,1.26,0,0,0-.24-.79.86.86,0,0,0-.69-.29.94.94,0,0,0-.73.3A1.37,1.37,0,0,0,179.07,103.86Z"/><path class="cls-9" d="M187.93,100.94h.67l-1.94,5.38H186l-1.93-5.38h.66l1.24,3.48a9.76,9.76,0,0,1,.34,1.17,9.8,9.8,0,0,1,.35-1.19Z"/><path class="cls-9" d="M186.7,106.38H186v0l-2-5.46h.78v0l1.24,3.48c.11.32.21.64.29.94a10,10,0,0,1,.29-1l1.24-3.5h.79Zm-.62-.11h.54l1.9-5.27H188l-1.22,3.42a9.78,9.78,0,0,0-.34,1.18l-.06.25-.06-.25a9.75,9.75,0,0,0-.34-1.16L184.74,101h-.54Z"/><path class="cls-9" d="M189.2,101.19a.41.41,0,0,1,.1-.31.38.38,0,0,1,.51,0,.4.4,0,0,1,.11.31.4.4,0,0,1-.11.31.36.36,0,0,1-.25.1.35.35,0,0,1-.26-.1A.41.41,0,0,1,189.2,101.19Zm.66,5.13h-.61v-4h.61Z"/><path class="cls-9" d="M189.92,106.38h-.72v-4.15h.72Zm-.61-.11h.5v-3.92h-.5Zm.25-4.6a.41.41,0,0,1-.3-.12.47.47,0,0,1-.12-.35.46.46,0,0,1,.12-.35.44.44,0,0,1,.59,0,.45.45,0,0,1,.13.35.46.46,0,0,1-.12.35A.41.41,0,0,1,189.56,101.66Zm0-.81a.3.3,0,0,0-.22.08.46.46,0,0,0,0,.53.32.32,0,0,0,.43,0,.35.35,0,0,0,.09-.27.34.34,0,0,0-.09-.26A.3.3,0,0,0,189.56,100.85Z"/><path class="cls-9" d="M192.86,106.4a1.85,1.85,0,0,1-1.41-.54,2.11,2.11,0,0,1-.52-1.51,2.34,2.34,0,0,1,.48-1.55,1.59,1.59,0,0,1,1.29-.57,1.52,1.52,0,0,1,1.2.5,1.91,1.91,0,0,1,.44,1.32v.39h-2.78a1.6,1.6,0,0,0,.36,1.08,1.24,1.24,0,0,0,1,.37,3.25,3.25,0,0,0,1.29-.27v.54a3.26,3.26,0,0,1-.61.2A3.49,3.49,0,0,1,192.86,106.4Zm-.17-3.67a1,1,0,0,0-.77.32,1.46,1.46,0,0,0-.34.88h2.11a1.35,1.35,0,0,0-.26-.89A.91.91,0,0,0,192.7,102.73Z"/><path class="cls-9" d="M192.86,106.45a1.92,1.92,0,0,1-1.45-.56,2.17,2.17,0,0,1-.53-1.55,2.4,2.4,0,0,1,.49-1.59,1.65,1.65,0,0,1,1.33-.59,1.58,1.58,0,0,1,1.24.52,2,2,0,0,1,.46,1.35v.44h-2.78a1.52,1.52,0,0,0,.34,1,1.2,1.2,0,0,0,.92.35,3.2,3.2,0,0,0,1.27-.27l.08,0v.67h0a3.31,3.31,0,0,1-.62.2A3.54,3.54,0,0,1,192.86,106.45Zm-.16-4.18a1.55,1.55,0,0,0-1.25.55,2.29,2.29,0,0,0-.47,1.51,2.06,2.06,0,0,0,.5,1.47,1.81,1.81,0,0,0,1.37.53,3.46,3.46,0,0,0,.69-.06,3.15,3.15,0,0,0,.57-.18v-.42a3.3,3.3,0,0,1-1.23.24,1.3,1.3,0,0,1-1-.39,1.66,1.66,0,0,1-.37-1.12v-.06h2.78V104a1.86,1.86,0,0,0-.43-1.28A1.47,1.47,0,0,0,192.7,102.27Zm1,1.7h-2.23v-.06a1.52,1.52,0,0,1,.35-.91,1.05,1.05,0,0,1,.82-.33,1,1,0,0,1,.78.33,1.41,1.41,0,0,1,.27.92Zm-2.1-.11h2a1.26,1.26,0,0,0-.24-.79.86.86,0,0,0-.69-.29.94.94,0,0,0-.73.3A1.37,1.37,0,0,0,191.64,103.86Z"/><path class="cls-9" d="M198.68,106.32l-.74-2.37q-.07-.22-.26-1h0q-.15.64-.26,1l-.76,2.36h-.71l-1.1-4h.64l.59,2.31a9.3,9.3,0,0,1,.23,1.07h0q0-.21.13-.54t.16-.53l.74-2.31H198l.72,2.31a7.8,7.8,0,0,1,.28,1.06h0a3.88,3.88,0,0,1,.08-.41q.07-.28.77-3h.63l-1.12,4Z"/><path class="cls-9" d="M199.45,106.38h-.81l-.75-2.41c0-.13-.12-.42-.22-.82-.08.35-.16.63-.22.83l-.77,2.4h-.79v0l-1.12-4.1h.76v0l.59,2.31c.09.37.16.65.2.86l.08-.33c.06-.22.11-.4.16-.53l.75-2.35h.75v0l.72,2.31c.1.32.18.6.24.85l0-.19c0-.2.33-1.28.77-3v0h.75l0,.07Zm-.73-.11h.64l1.08-3.92h-.52c-.44,1.67-.71,2.73-.76,2.93a3.8,3.8,0,0,0-.08.4v.05H199v0a7.81,7.81,0,0,0-.28-1.06l-.71-2.28h-.58l-.73,2.28c0,.13-.1.31-.16.53s-.1.4-.13.54v0h-.13v-.05a9.5,9.5,0,0,0-.23-1.06l-.58-2.27h-.52l1.07,3.92h.62l.75-2.32c.07-.23.16-.57.26-1v0h.12v0c.12.49.21.83.26,1Z"/><path class="cls-10" d="M150.69,126.65h-.63v-4.82h-1.7v-.56h4v.56h-1.7Z"/><path class="cls-10" d="M150.74,126.71H150v-4.82h-1.7v-.67h4.15v.67h-1.7Zm-.63-.11h.51v-4.82h1.7v-.44h-3.92v.44h1.7Z"/><path class="cls-10" d="M153.06,121.53a.41.41,0,0,1,.1-.31.38.38,0,0,1,.51,0,.4.4,0,0,1,.11.31.4.4,0,0,1-.11.31.36.36,0,0,1-.25.1.35.35,0,0,1-.26-.1A.41.41,0,0,1,153.06,121.53Zm.66,5.13h-.61v-4h.61Z"/><path class="cls-10" d="M153.78,126.71h-.72v-4.15h.72Zm-.61-.11h.5v-3.92h-.5Zm.25-4.6a.41.41,0,0,1-.3-.12.47.47,0,0,1-.12-.35.46.46,0,0,1,.12-.35.44.44,0,0,1,.59,0,.45.45,0,0,1,.13.35.46.46,0,0,1-.12.35A.41.41,0,0,1,153.42,122Zm0-.81a.3.3,0,0,0-.22.08.46.46,0,0,0,0,.53.32.32,0,0,0,.43,0,.35.35,0,0,0,.09-.27.34.34,0,0,0-.09-.26A.3.3,0,0,0,153.42,121.18Z"/><path class="cls-10" d="M160.16,126.65V124a1.09,1.09,0,0,0-.21-.72.8.8,0,0,0-.64-.24,1,1,0,0,0-.84.33,1.56,1.56,0,0,0-.27,1v2.25h-.61V124a1.09,1.09,0,0,0-.21-.72.8.8,0,0,0-.64-.24,1,1,0,0,0-.84.34,1.87,1.87,0,0,0-.27,1.13v2.12H155v-4h.5l.1.55h0a1.2,1.2,0,0,1,.49-.46,1.49,1.49,0,0,1,.71-.17,1.2,1.2,0,0,1,1.24.68h0a1.28,1.28,0,0,1,.52-.5,1.62,1.62,0,0,1,.78-.18,1.36,1.36,0,0,1,1,.35,1.57,1.57,0,0,1,.34,1.12v2.63Z"/><path class="cls-10" d="M160.82,126.71h-.72V124a1,1,0,0,0-.19-.69.75.75,0,0,0-.6-.22,1,1,0,0,0-.8.31,1.51,1.51,0,0,0-.26,1v2.31h-.72V124a1,1,0,0,0-.19-.69.76.76,0,0,0-.6-.22,1,1,0,0,0-.8.32,1.82,1.82,0,0,0-.25,1.09v2.17H155v-4.15h.6l.09.49a1.28,1.28,0,0,1,.45-.39,1.56,1.56,0,0,1,.73-.17,1.27,1.27,0,0,1,1.26.65,1.36,1.36,0,0,1,.51-.46,1.68,1.68,0,0,1,.81-.19,1.42,1.42,0,0,1,1.07.37,1.62,1.62,0,0,1,.36,1.16Zm-.61-.11h.5V124a1.52,1.52,0,0,0-.32-1.08,1.31,1.31,0,0,0-1-.33,1.57,1.57,0,0,0-.75.18,1.23,1.23,0,0,0-.5.48l0,0H158v0a1.14,1.14,0,0,0-1.18-.65,1.45,1.45,0,0,0-.68.16,1.15,1.15,0,0,0-.47.44l0,0h-.11l-.1-.55h-.39v3.92h.5v-2.06a1.93,1.93,0,0,1,.28-1.16,1.06,1.06,0,0,1,.89-.37.86.86,0,0,1,.69.26,1.15,1.15,0,0,1,.22.76v2.57h.5v-2.2a1.62,1.62,0,0,1,.29-1,1.09,1.09,0,0,1,.89-.35.85.85,0,0,1,.68.26,1.15,1.15,0,0,1,.22.76Z"/><path class="cls-10" d="M163.73,126.73a1.85,1.85,0,0,1-1.41-.54,2.11,2.11,0,0,1-.52-1.51,2.34,2.34,0,0,1,.48-1.55,1.59,1.59,0,0,1,1.29-.57,1.52,1.52,0,0,1,1.2.5,1.91,1.91,0,0,1,.44,1.32v.39h-2.78a1.6,1.6,0,0,0,.36,1.08,1.24,1.24,0,0,0,1,.37,3.25,3.25,0,0,0,1.29-.27v.54a3.26,3.26,0,0,1-.61.2A3.49,3.49,0,0,1,163.73,126.73Zm-.17-3.67a1,1,0,0,0-.77.32,1.46,1.46,0,0,0-.34.88h2.11a1.35,1.35,0,0,0-.26-.89A.91.91,0,0,0,163.56,123.06Z"/><path class="cls-10" d="M163.73,126.78a1.92,1.92,0,0,1-1.45-.56,2.17,2.17,0,0,1-.53-1.55,2.4,2.4,0,0,1,.49-1.59,1.65,1.65,0,0,1,1.33-.59,1.58,1.58,0,0,1,1.24.52,2,2,0,0,1,.46,1.35v.44h-2.78a1.52,1.52,0,0,0,.34,1,1.2,1.2,0,0,0,.92.35,3.2,3.2,0,0,0,1.27-.27l.08,0v.67h0a3.31,3.31,0,0,1-.62.2A3.54,3.54,0,0,1,163.73,126.78Zm-.16-4.18a1.55,1.55,0,0,0-1.25.55,2.29,2.29,0,0,0-.47,1.51,2.06,2.06,0,0,0,.5,1.47,1.81,1.81,0,0,0,1.37.53,3.46,3.46,0,0,0,.69-.06,3.15,3.15,0,0,0,.57-.18V126a3.3,3.3,0,0,1-1.23.24,1.3,1.3,0,0,1-1-.39,1.66,1.66,0,0,1-.37-1.12v-.06h2.78v-.33a1.86,1.86,0,0,0-.43-1.28A1.47,1.47,0,0,0,163.57,122.6Zm1,1.7h-2.23v-.06a1.52,1.52,0,0,1,.35-.91,1.05,1.05,0,0,1,.82-.33,1,1,0,0,1,.78.33,1.41,1.41,0,0,1,.27.92Zm-2.1-.11h2a1.26,1.26,0,0,0-.24-.79.86.86,0,0,0-.69-.29.94.94,0,0,0-.73.3A1.37,1.37,0,0,0,162.51,124.19Z"/><path class="cls-10" d="M166.87,126.65h-.61v-5.73h.61Z"/><path class="cls-10" d="M166.92,126.71h-.72v-5.84h.72Zm-.61-.11h.5V121h-.5Z"/><path class="cls-10" d="M168.11,121.53a.41.41,0,0,1,.1-.31.38.38,0,0,1,.51,0,.4.4,0,0,1,.11.31.4.4,0,0,1-.11.31.36.36,0,0,1-.25.1.35.35,0,0,1-.26-.1A.41.41,0,0,1,168.11,121.53Zm.66,5.13h-.61v-4h.61Z"/><path class="cls-10" d="M168.83,126.71h-.72v-4.15h.72Zm-.61-.11h.5v-3.92h-.5Zm.25-4.6a.41.41,0,0,1-.3-.12.47.47,0,0,1-.12-.35.46.46,0,0,1,.12-.35.44.44,0,0,1,.59,0,.45.45,0,0,1,.13.35.46.46,0,0,1-.12.35A.41.41,0,0,1,168.47,122Zm0-.81a.3.3,0,0,0-.22.08.46.46,0,0,0,0,.53.32.32,0,0,0,.43,0,.35.35,0,0,0,.09-.27.34.34,0,0,0-.09-.26A.3.3,0,0,0,168.47,121.18Z"/><path class="cls-10" d="M172.83,126.65V124a1.05,1.05,0,0,0-.22-.74.91.91,0,0,0-.7-.24,1.16,1.16,0,0,0-.93.34,1.73,1.73,0,0,0-.29,1.13v2.12h-.61v-4h.5l.1.55h0a1.25,1.25,0,0,1,.53-.46,1.71,1.71,0,0,1,.75-.16,1.53,1.53,0,0,1,1.1.35,1.5,1.5,0,0,1,.37,1.12v2.63Z"/><path class="cls-10" d="M173.49,126.71h-.72V124a1,1,0,0,0-.21-.7.87.87,0,0,0-.66-.22,1.11,1.11,0,0,0-.88.32,1.69,1.69,0,0,0-.28,1.09v2.17H170v-4.15h.6l.09.5a1.33,1.33,0,0,1,.49-.4,1.78,1.78,0,0,1,.78-.17,1.59,1.59,0,0,1,1.14.37,1.55,1.55,0,0,1,.39,1.16Zm-.61-.11h.5V124a1.45,1.45,0,0,0-.35-1.08,1.48,1.48,0,0,0-1.06-.34,1.67,1.67,0,0,0-.73.16,1.2,1.2,0,0,0-.5.44l0,0h-.11l-.1-.55h-.39v3.92h.5v-2.06a1.78,1.78,0,0,1,.31-1.17,1.22,1.22,0,0,1,1-.36,1,1,0,0,1,.74.26,1.11,1.11,0,0,1,.24.77Z"/><path class="cls-10" d="M176.4,126.73a1.85,1.85,0,0,1-1.41-.54,2.11,2.11,0,0,1-.52-1.51,2.34,2.34,0,0,1,.48-1.55,1.59,1.59,0,0,1,1.29-.57,1.52,1.52,0,0,1,1.2.5,1.91,1.91,0,0,1,.44,1.32v.39H175.1a1.6,1.6,0,0,0,.36,1.08,1.24,1.24,0,0,0,1,.37,3.25,3.25,0,0,0,1.29-.27v.54a3.26,3.26,0,0,1-.61.2A3.49,3.49,0,0,1,176.4,126.73Zm-.17-3.67a1,1,0,0,0-.77.32,1.46,1.46,0,0,0-.34.88h2.11a1.35,1.35,0,0,0-.26-.89A.91.91,0,0,0,176.23,123.06Z"/><path class="cls-10" d="M176.4,126.78a1.92,1.92,0,0,1-1.45-.56,2.17,2.17,0,0,1-.53-1.55,2.4,2.4,0,0,1,.49-1.59,1.65,1.65,0,0,1,1.33-.59,1.58,1.58,0,0,1,1.24.52,2,2,0,0,1,.46,1.35v.44h-2.78a1.52,1.52,0,0,0,.34,1,1.2,1.2,0,0,0,.92.35,3.2,3.2,0,0,0,1.27-.27l.08,0v.67h0a3.31,3.31,0,0,1-.62.2A3.54,3.54,0,0,1,176.4,126.78Zm-.16-4.18a1.55,1.55,0,0,0-1.25.55,2.29,2.29,0,0,0-.47,1.51,2.06,2.06,0,0,0,.5,1.47,1.81,1.81,0,0,0,1.37.53,3.46,3.46,0,0,0,.69-.06,3.15,3.15,0,0,0,.57-.18V126a3.3,3.3,0,0,1-1.23.24,1.3,1.3,0,0,1-1-.39,1.66,1.66,0,0,1-.37-1.12v-.06h2.78v-.33a1.86,1.86,0,0,0-.43-1.28A1.47,1.47,0,0,0,176.24,122.6Zm1,1.7h-2.23v-.06a1.52,1.52,0,0,1,.35-.91,1.05,1.05,0,0,1,.82-.33,1,1,0,0,1,.78.33,1.41,1.41,0,0,1,.27.92Zm-2.1-.11h2a1.26,1.26,0,0,0-.24-.79.86.86,0,0,0-.69-.29.94.94,0,0,0-.73.3A1.37,1.37,0,0,0,175.18,124.19Z"/><path class="cls-10" d="M184,121.27h.67l-1.94,5.38h-.62l-1.93-5.38h.66l1.24,3.48a9.76,9.76,0,0,1,.34,1.17,9.8,9.8,0,0,1,.35-1.19Z"/><path class="cls-10" d="M182.82,126.71h-.7v0l-2-5.46h.78v0l1.24,3.48c.11.32.21.64.29.94a10,10,0,0,1,.29-1l1.24-3.5h.79Zm-.62-.11h.54l1.9-5.27h-.55l-1.22,3.42a9.78,9.78,0,0,0-.34,1.18l-.06.25-.06-.25a9.75,9.75,0,0,0-.34-1.16l-1.22-3.44h-.54Z"/><path class="cls-10" d="M185.31,121.53a.41.41,0,0,1,.1-.31.38.38,0,0,1,.51,0,.4.4,0,0,1,.11.31.4.4,0,0,1-.11.31.36.36,0,0,1-.25.1.35.35,0,0,1-.26-.1A.41.41,0,0,1,185.31,121.53Zm.66,5.13h-.61v-4H186Z"/><path class="cls-10" d="M186,126.71h-.72v-4.15H186Zm-.61-.11h.5v-3.92h-.5Zm.25-4.6a.41.41,0,0,1-.3-.12.47.47,0,0,1-.12-.35.46.46,0,0,1,.12-.35.44.44,0,0,1,.59,0,.45.45,0,0,1,.13.35.46.46,0,0,1-.12.35A.41.41,0,0,1,185.67,122Zm0-.81a.3.3,0,0,0-.22.08.46.46,0,0,0,0,.53.32.32,0,0,0,.43,0,.35.35,0,0,0,.09-.27.34.34,0,0,0-.09-.26A.3.3,0,0,0,185.67,121.18Z"/><path class="cls-10" d="M189,126.73a1.85,1.85,0,0,1-1.41-.54,2.11,2.11,0,0,1-.52-1.51,2.34,2.34,0,0,1,.48-1.55,1.59,1.59,0,0,1,1.29-.57,1.52,1.52,0,0,1,1.2.5,1.91,1.91,0,0,1,.44,1.32v.39h-2.78a1.6,1.6,0,0,0,.36,1.08,1.24,1.24,0,0,0,1,.37,3.25,3.25,0,0,0,1.29-.27v.54a3.26,3.26,0,0,1-.61.2A3.49,3.49,0,0,1,189,126.73Zm-.17-3.67a1,1,0,0,0-.77.32,1.46,1.46,0,0,0-.34.88h2.11a1.35,1.35,0,0,0-.26-.89A.91.91,0,0,0,188.81,123.06Z"/><path class="cls-10" d="M189,126.78a1.92,1.92,0,0,1-1.45-.56,2.17,2.17,0,0,1-.53-1.55,2.4,2.4,0,0,1,.49-1.59,1.65,1.65,0,0,1,1.33-.59,1.58,1.58,0,0,1,1.24.52,2,2,0,0,1,.46,1.35v.44h-2.78a1.52,1.52,0,0,0,.34,1,1.2,1.2,0,0,0,.92.35,3.2,3.2,0,0,0,1.27-.27l.08,0v.67h0a3.31,3.31,0,0,1-.62.2A3.54,3.54,0,0,1,189,126.78Zm-.16-4.18a1.55,1.55,0,0,0-1.25.55,2.29,2.29,0,0,0-.47,1.51,2.06,2.06,0,0,0,.5,1.47,1.81,1.81,0,0,0,1.37.53,3.46,3.46,0,0,0,.69-.06,3.15,3.15,0,0,0,.57-.18V126a3.3,3.3,0,0,1-1.23.24,1.3,1.3,0,0,1-1-.39,1.66,1.66,0,0,1-.37-1.12v-.06h2.78v-.33a1.86,1.86,0,0,0-.43-1.28A1.47,1.47,0,0,0,188.82,122.6Zm1,1.7h-2.23v-.06a1.52,1.52,0,0,1,.35-.91,1.05,1.05,0,0,1,.82-.33,1,1,0,0,1,.78.33,1.41,1.41,0,0,1,.27.92Zm-2.1-.11h2a1.26,1.26,0,0,0-.24-.79.86.86,0,0,0-.69-.29.94.94,0,0,0-.73.3A1.37,1.37,0,0,0,187.76,124.19Z"/><path class="cls-10" d="M194.79,126.65l-.74-2.37q-.07-.22-.26-1h0q-.15.64-.26,1l-.76,2.36H192l-1.1-4h.64l.59,2.31a9.3,9.3,0,0,1,.23,1.07h0q0-.21.13-.54t.16-.53l.74-2.31h.66l.72,2.31a7.8,7.8,0,0,1,.28,1.06h0a3.88,3.88,0,0,1,.08-.41q.07-.28.77-3h.63l-1.12,4Z"/><path class="cls-10" d="M195.56,126.71h-.81L194,124.3c0-.13-.12-.42-.22-.82-.08.35-.16.63-.22.83l-.77,2.4H192v0l-1.12-4.1h.76v0l.59,2.31c.09.37.16.65.2.86l.08-.33c.06-.22.11-.4.16-.53l.75-2.35h.75v0l.72,2.31c.1.32.18.6.24.85l0-.19c0-.2.33-1.28.77-3v0h.75l0,.07Zm-.73-.11h.64l1.08-3.92H196c-.44,1.67-.71,2.73-.76,2.93a3.8,3.8,0,0,0-.08.4v.05h-.13v0a7.81,7.81,0,0,0-.28-1.06l-.71-2.28h-.58l-.73,2.28c0,.13-.1.31-.16.53s-.1.4-.13.54v0h-.13V126a9.5,9.5,0,0,0-.23-1.06l-.58-2.27H191l1.07,3.92h.62l.75-2.32c.07-.23.16-.57.26-1v0h.12v0c.12.49.21.83.26,1Z"/><path class="cls-9" d="M149,147v-5.38h.63V147Z"/><path class="cls-9" d="M149.71,147H149v-5.49h.74Zm-.63-.11h.51v-5.27h-.51Z"/><path class="cls-9" d="M152.34,146.56l.31,0,.24,0V147a1.14,1.14,0,0,1-.29.08l-.35,0q-1.17,0-1.17-1.23v-2.4h-.58v-.29l.58-.25.26-.86h.35V143h1.17v.47H151.7v2.37a.82.82,0,0,0,.17.56A.6.6,0,0,0,152.34,146.56Z"/><path class="cls-9" d="M152.25,147.12c-.81,0-1.23-.43-1.23-1.29v-2.34h-.58v-.39l.59-.26.26-.88h.45v.93h1.17v.59h-1.17v2.32a.77.77,0,0,0,.16.52.54.54,0,0,0,.43.18l.3,0,.23,0,.07,0V147l0,0a1.2,1.2,0,0,1-.31.08Zm-1.69-3.75h.58v2.46c0,.79.36,1.18,1.11,1.18l.34,0,.25-.06v-.36l-.17,0-.32,0a.66.66,0,0,1-.52-.21.87.87,0,0,1-.19-.6v-2.43h1.17V143h-1.17v-.93h-.25l-.25.85-.57.25Z"/><path class="cls-9" d="M155.41,147.06a1.85,1.85,0,0,1-1.41-.54,2.11,2.11,0,0,1-.52-1.51,2.34,2.34,0,0,1,.48-1.55,1.59,1.59,0,0,1,1.29-.57,1.52,1.52,0,0,1,1.2.5,1.91,1.91,0,0,1,.44,1.32v.39h-2.78a1.6,1.6,0,0,0,.36,1.08,1.24,1.24,0,0,0,1,.37,3.25,3.25,0,0,0,1.29-.27v.54a3.26,3.26,0,0,1-.61.2A3.49,3.49,0,0,1,155.41,147.06Zm-.17-3.67a1,1,0,0,0-.77.32,1.46,1.46,0,0,0-.34.88h2.11a1.35,1.35,0,0,0-.26-.89A.91.91,0,0,0,155.24,143.39Z"/><path class="cls-9" d="M155.41,147.12a1.92,1.92,0,0,1-1.45-.56,2.17,2.17,0,0,1-.53-1.55,2.4,2.4,0,0,1,.49-1.59,1.65,1.65,0,0,1,1.33-.59,1.58,1.58,0,0,1,1.24.52,2,2,0,0,1,.46,1.35v.44h-2.78a1.52,1.52,0,0,0,.34,1,1.2,1.2,0,0,0,.92.35,3.2,3.2,0,0,0,1.27-.27l.08,0v.67h0a3.31,3.31,0,0,1-.62.2A3.54,3.54,0,0,1,155.41,147.12Zm-.16-4.18a1.55,1.55,0,0,0-1.25.55,2.29,2.29,0,0,0-.47,1.51,2.06,2.06,0,0,0,.5,1.47,1.81,1.81,0,0,0,1.37.53,3.46,3.46,0,0,0,.69-.06,3.15,3.15,0,0,0,.57-.18v-.42a3.3,3.3,0,0,1-1.23.24,1.3,1.3,0,0,1-1-.39,1.66,1.66,0,0,1-.37-1.12V145h2.78v-.33a1.86,1.86,0,0,0-.43-1.28A1.47,1.47,0,0,0,155.25,142.94Zm1,1.7h-2.23v-.06a1.52,1.52,0,0,1,.35-.91,1.05,1.05,0,0,1,.82-.33,1,1,0,0,1,.78.33,1.41,1.41,0,0,1,.27.92Zm-2.1-.11h2a1.26,1.26,0,0,0-.24-.79.86.86,0,0,0-.69-.29.94.94,0,0,0-.73.3A1.37,1.37,0,0,0,154.19,144.53Z"/><path class="cls-9" d="M163.07,147v-2.62a1.09,1.09,0,0,0-.21-.72.8.8,0,0,0-.64-.24,1,1,0,0,0-.84.33,1.56,1.56,0,0,0-.27,1V147h-.61v-2.62a1.09,1.09,0,0,0-.21-.72.8.8,0,0,0-.64-.24,1,1,0,0,0-.84.34,1.87,1.87,0,0,0-.27,1.13V147h-.61v-4h.5l.1.55h0A1.2,1.2,0,0,1,159,143a1.49,1.49,0,0,1,.71-.17,1.2,1.2,0,0,1,1.24.68h0a1.28,1.28,0,0,1,.52-.5,1.62,1.62,0,0,1,.78-.18,1.36,1.36,0,0,1,1,.35,1.57,1.57,0,0,1,.34,1.12V147Z"/><path class="cls-9" d="M163.74,147H163v-2.68a1,1,0,0,0-.19-.69.75.75,0,0,0-.6-.22,1,1,0,0,0-.8.31,1.51,1.51,0,0,0-.26,1V147h-.72v-2.68a1,1,0,0,0-.19-.69.76.76,0,0,0-.6-.22,1,1,0,0,0-.8.32,1.82,1.82,0,0,0-.25,1.09V147h-.72V142.9h.6l.09.49A1.28,1.28,0,0,1,159,143a1.56,1.56,0,0,1,.73-.17,1.27,1.27,0,0,1,1.26.65,1.36,1.36,0,0,1,.51-.46,1.68,1.68,0,0,1,.81-.19,1.42,1.42,0,0,1,1.07.37,1.62,1.62,0,0,1,.36,1.16Zm-.61-.11h.5v-2.57a1.52,1.52,0,0,0-.32-1.08,1.31,1.31,0,0,0-1-.33,1.57,1.57,0,0,0-.75.18,1.23,1.23,0,0,0-.5.48l0,0h-.1v0a1.14,1.14,0,0,0-1.18-.65,1.45,1.45,0,0,0-.68.16,1.15,1.15,0,0,0-.47.44l0,0h-.11l-.1-.55H158v3.92h.5v-2.06a1.93,1.93,0,0,1,.28-1.16,1.06,1.06,0,0,1,.89-.37.86.86,0,0,1,.69.26,1.15,1.15,0,0,1,.22.76v2.57h.5v-2.2a1.62,1.62,0,0,1,.29-1,1.09,1.09,0,0,1,.89-.35.85.85,0,0,1,.68.26,1.15,1.15,0,0,1,.22.76Z"/><path class="cls-9" d="M167.54,145.89a1,1,0,0,1-.42.87,2,2,0,0,1-1.18.31,2.56,2.56,0,0,1-1.25-.25v-.57a3.06,3.06,0,0,0,.62.23,2.6,2.6,0,0,0,.64.08,1.46,1.46,0,0,0,.74-.15.53.53,0,0,0,.05-.87,3.22,3.22,0,0,0-.8-.4,4.27,4.27,0,0,1-.8-.37,1.07,1.07,0,0,1-.35-.35.92.92,0,0,1-.12-.47.9.9,0,0,1,.4-.78,1.87,1.87,0,0,1,1.1-.29,3.22,3.22,0,0,1,1.27.26l-.22.5a2.92,2.92,0,0,0-1.1-.25,1.27,1.27,0,0,0-.66.14.42.42,0,0,0-.22.38.46.46,0,0,0,.08.28.82.82,0,0,0,.27.22,6.09,6.09,0,0,0,.71.3,2.64,2.64,0,0,1,1,.53A.93.93,0,0,1,167.54,145.89Z"/><path class="cls-9" d="M165.95,147.12a2.63,2.63,0,0,1-1.28-.26l0,0v-.69l.08,0a3,3,0,0,0,.61.23,2.58,2.58,0,0,0,.63.08,1.41,1.41,0,0,0,.71-.14.47.47,0,0,0,0-.78,3.19,3.19,0,0,0-.78-.39,4.26,4.26,0,0,1-.81-.37,1.11,1.11,0,0,1-.37-.37,1,1,0,0,1-.12-.5,1,1,0,0,1,.43-.82,1.93,1.93,0,0,1,1.13-.3,3.29,3.29,0,0,1,1.3.27l.05,0-.26.6-.05,0a2.88,2.88,0,0,0-1.08-.25,1.22,1.22,0,0,0-.63.13.37.37,0,0,0-.19.33.41.41,0,0,0,.07.24.77.77,0,0,0,.25.2,6.1,6.1,0,0,0,.7.29,2.67,2.67,0,0,1,1,.54,1,1,0,0,1,.27.71,1.07,1.07,0,0,1-.44.91A2,2,0,0,1,165.95,147.12Zm-1.19-.34a2.58,2.58,0,0,0,1.19.23,1.93,1.93,0,0,0,1.14-.29,1,1,0,0,0,.4-.82.87.87,0,0,0-.24-.63,2.6,2.6,0,0,0-.95-.51,6,6,0,0,1-.71-.3.88.88,0,0,1-.29-.23.52.52,0,0,1-.09-.31.47.47,0,0,1,.25-.42,1.32,1.32,0,0,1,.68-.15,2.94,2.94,0,0,1,1.07.23l.17-.39a3.17,3.17,0,0,0-1.2-.24,1.82,1.82,0,0,0-1.07.28.84.84,0,0,0-.38.73.87.87,0,0,0,.11.45,1,1,0,0,0,.34.34,4.26,4.26,0,0,0,.79.36,3.26,3.26,0,0,1,.81.41.58.58,0,0,1-.06,1,1.51,1.51,0,0,1-.76.16,2.67,2.67,0,0,1-.66-.09,3.17,3.17,0,0,1-.55-.2Z"/><path class="cls-9" d="M172.24,147h-.63v-4.82h-1.7v-.56h4v.56h-1.7Z"/><path class="cls-9" d="M172.3,147h-.74v-4.82h-1.7v-.67H174v.67h-1.7Zm-.63-.11h.51v-4.82h1.7v-.44H170v.44h1.7Z"/><path class="cls-9" d="M177.14,147l-.12-.57h0a1.71,1.71,0,0,1-.6.51,1.84,1.84,0,0,1-.75.13,1.35,1.35,0,0,1-.94-.31,1.13,1.13,0,0,1-.34-.88q0-1.22,2-1.28l.68,0v-.25a1,1,0,0,0-.2-.7.84.84,0,0,0-.65-.23,2.66,2.66,0,0,0-1.14.31l-.19-.47a2.93,2.93,0,0,1,1.37-.35,1.53,1.53,0,0,1,1.07.32,1.33,1.33,0,0,1,.35,1V147Zm-1.38-.43a1.24,1.24,0,0,0,.9-.31,1.15,1.15,0,0,0,.33-.88V145l-.61,0a2.21,2.21,0,0,0-1.05.23.68.68,0,0,0-.32.62.63.63,0,0,0,.2.5A.83.83,0,0,0,175.76,146.56Z"/><path class="cls-9" d="M175.64,147.12a1.41,1.41,0,0,1-1-.32,1.19,1.19,0,0,1-.36-.92c0-.85.68-1.3,2-1.34l.63,0v-.2a1,1,0,0,0-.19-.66.8.8,0,0,0-.61-.21,2.62,2.62,0,0,0-1.12.3l-.06,0-.23-.57,0,0a3,3,0,0,1,1.39-.35,1.59,1.59,0,0,1,1.11.34,1.39,1.39,0,0,1,.37,1.07V147h-.55l-.11-.53a1.68,1.68,0,0,1-.57.47A1.91,1.91,0,0,1,175.64,147.12Zm.5-3.78a.9.9,0,0,1,.7.24,1.09,1.09,0,0,1,.22.74v.3l-.74,0c-1.28,0-1.9.44-1.9,1.22a1.08,1.08,0,0,0,.32.84,1.3,1.3,0,0,0,.9.29,1.81,1.81,0,0,0,.73-.13,1.66,1.66,0,0,0,.58-.5l0,0h.1l.12.57h.35v-2.7a1.29,1.29,0,0,0-.33-1,1.48,1.48,0,0,0-1-.31,2.87,2.87,0,0,0-1.29.32l.15.36A2.67,2.67,0,0,1,176.14,143.34Zm-.38,3.28a.89.89,0,0,1-.6-.19.69.69,0,0,1-.22-.55.74.74,0,0,1,.35-.67,2.27,2.27,0,0,1,1.08-.24l.67,0v.42a1.21,1.21,0,0,1-.34.92A1.3,1.3,0,0,1,175.76,146.61Zm1.17-1.55-.55,0a2.17,2.17,0,0,0-1,.22.62.62,0,0,0-.3.58.57.57,0,0,0,.18.46.79.79,0,0,0,.52.16,1.19,1.19,0,0,0,.86-.3,1.11,1.11,0,0,0,.31-.84Z"/><path class="cls-9" d="M180.73,142.89a1.5,1.5,0,0,1,1.24.54,2.91,2.91,0,0,1,0,3.08,1.49,1.49,0,0,1-1.23.55,1.75,1.75,0,0,1-.72-.15,1.35,1.35,0,0,1-.55-.45h0l-.13.52h-.44v-5.73h.61v1.39q0,.47,0,.84h0A1.45,1.45,0,0,1,180.73,142.89Zm-.09.51a1.07,1.07,0,0,0-.9.36,2.77,2.77,0,0,0,0,2.43,1.08,1.08,0,0,0,.91.37.94.94,0,0,0,.84-.41,2.11,2.11,0,0,0,.28-1.18,2,2,0,0,0-.28-1.17A1,1,0,0,0,180.64,143.4Z"/><path class="cls-9" d="M180.73,147.12A1.81,1.81,0,0,1,180,147a1.4,1.4,0,0,1-.53-.41l-.12.49h-.54V141.2h.72v1.45c0,.25,0,.49,0,.7a1.53,1.53,0,0,1,1.23-.52,1.56,1.56,0,0,1,1.28.56,3,3,0,0,1,0,3.15A1.55,1.55,0,0,1,180.73,147.12Zm-1.35-.71h.12l0,0a1.3,1.3,0,0,0,.52.43,1.7,1.7,0,0,0,.7.14,1.44,1.44,0,0,0,1.19-.53,2.85,2.85,0,0,0,0-3,1.45,1.45,0,0,0-1.19-.52,1.39,1.39,0,0,0-1.22.58l0,0h-.12v-.06c0-.24,0-.52,0-.83v-1.33h-.5v5.61h.34Zm1.28.19a1.14,1.14,0,0,1-1-.39,2.08,2.08,0,0,1-.3-1.25,2.06,2.06,0,0,1,.29-1.24,1.13,1.13,0,0,1,.95-.38,1,1,0,0,1,.9.41,2.09,2.09,0,0,1,.29,1.21,2.18,2.18,0,0,1-.29,1.21A1,1,0,0,1,180.66,146.61Zm0-3.15a1,1,0,0,0-.86.34,2.73,2.73,0,0,0,0,2.36,1,1,0,0,0,.86.34.88.88,0,0,0,.79-.38,2.07,2.07,0,0,0,.27-1.15,2,2,0,0,0-.26-1.14A.92.92,0,0,0,180.64,143.46Z"/><path class="cls-9" d="M184.09,147h-.61v-5.73h.61Z"/><path class="cls-9" d="M184.14,147h-.72V141.2h.72Zm-.61-.11h.5v-5.61h-.5Z"/><path class="cls-9" d="M187.08,147.06a1.85,1.85,0,0,1-1.41-.54,2.11,2.11,0,0,1-.52-1.51,2.34,2.34,0,0,1,.48-1.55,1.59,1.59,0,0,1,1.29-.57,1.52,1.52,0,0,1,1.2.5,1.91,1.91,0,0,1,.44,1.32v.39h-2.78a1.6,1.6,0,0,0,.36,1.08,1.24,1.24,0,0,0,1,.37,3.25,3.25,0,0,0,1.29-.27v.54a3.26,3.26,0,0,1-.61.2A3.49,3.49,0,0,1,187.08,147.06Zm-.17-3.67a1,1,0,0,0-.77.32,1.46,1.46,0,0,0-.34.88h2.11a1.35,1.35,0,0,0-.26-.89A.91.91,0,0,0,186.92,143.39Z"/><path class="cls-9" d="M187.08,147.12a1.92,1.92,0,0,1-1.45-.56,2.17,2.17,0,0,1-.53-1.55,2.4,2.4,0,0,1,.49-1.59,1.65,1.65,0,0,1,1.33-.59,1.58,1.58,0,0,1,1.24.52,2,2,0,0,1,.46,1.35v.44h-2.78a1.52,1.52,0,0,0,.34,1,1.2,1.2,0,0,0,.92.35,3.2,3.2,0,0,0,1.27-.27l.08,0v.67h0a3.31,3.31,0,0,1-.62.2A3.54,3.54,0,0,1,187.08,147.12Zm-.16-4.18a1.55,1.55,0,0,0-1.25.55,2.29,2.29,0,0,0-.47,1.51,2.06,2.06,0,0,0,.5,1.47,1.81,1.81,0,0,0,1.37.53,3.46,3.46,0,0,0,.69-.06,3.15,3.15,0,0,0,.57-.18v-.42a3.3,3.3,0,0,1-1.23.24,1.3,1.3,0,0,1-1-.39,1.66,1.66,0,0,1-.37-1.12V145h2.78v-.33a1.86,1.86,0,0,0-.43-1.28A1.47,1.47,0,0,0,186.93,142.94Zm1,1.7h-2.23v-.06a1.52,1.52,0,0,1,.35-.91,1.05,1.05,0,0,1,.82-.33,1,1,0,0,1,.78.33,1.41,1.41,0,0,1,.27.92Zm-2.1-.11h2a1.26,1.26,0,0,0-.24-.79.86.86,0,0,0-.69-.29.94.94,0,0,0-.73.3A1.37,1.37,0,0,0,185.87,144.53Z"/><path class="cls-9" d="M151.41,165.06l-1.83-4.77h0q.05.57.05,1.35v3.42H149v-5.38H150l1.7,4.44h0l1.72-4.44h.93v5.38h-.63V161.6q0-.6.05-1.3h0l-1.84,4.76Z"/><path class="cls-9" d="M154.42,165.12h-.74V161.6c0-.32,0-.66,0-1L152,165.12h-.58v0l-1.72-4.5c0,.31,0,.67,0,1.06v3.48H149v-5.49h1v0l1.67,4.34,1.69-4.38h1Zm-.63-.11h.51v-5.27h-.84l-1.72,4.44h-.11v0l-1.69-4.4h-.85V165h.46v-3.37c0-.52,0-1-.05-1.34v-.06h.13v0l1.81,4.73h.43l1.84-4.76h.13v.06c0,.46-.05.89-.05,1.29Z"/><path class="cls-9" d="M155.69,159.94a.41.41,0,0,1,.1-.31.38.38,0,0,1,.51,0,.4.4,0,0,1,.11.31.4.4,0,0,1-.11.31.36.36,0,0,1-.25.1.35.35,0,0,1-.26-.1A.41.41,0,0,1,155.69,159.94Zm.66,5.13h-.61v-4h.61Z"/><path class="cls-9" d="M156.41,165.12h-.72V161h.72Zm-.61-.11h.5v-3.92h-.5Zm.25-4.6a.41.41,0,0,1-.3-.12.47.47,0,0,1-.12-.35.46.46,0,0,1,.12-.35.44.44,0,0,1,.59,0,.45.45,0,0,1,.13.35.46.46,0,0,1-.12.35A.41.41,0,0,1,156.05,160.4Zm0-.81a.3.3,0,0,0-.22.08.46.46,0,0,0,0,.53.32.32,0,0,0,.43,0,.35.35,0,0,0,.09-.27.34.34,0,0,0-.09-.26A.3.3,0,0,0,156.05,159.59Z"/><path class="cls-9" d="M158.26,165.06h-.61v-5.73h.61Z"/><path class="cls-9" d="M158.32,165.12h-.72v-5.84h.72Zm-.61-.11h.5V159.4h-.5Z"/><path class="cls-9" d="M161.26,165.14a1.85,1.85,0,0,1-1.41-.54,2.11,2.11,0,0,1-.52-1.51,2.34,2.34,0,0,1,.48-1.55,1.59,1.59,0,0,1,1.29-.57,1.52,1.52,0,0,1,1.2.5,1.91,1.91,0,0,1,.44,1.32v.39H160a1.6,1.6,0,0,0,.36,1.08,1.24,1.24,0,0,0,1,.37,3.25,3.25,0,0,0,1.29-.27v.54a3.26,3.26,0,0,1-.61.2A3.49,3.49,0,0,1,161.26,165.14Zm-.17-3.67a1,1,0,0,0-.77.32,1.46,1.46,0,0,0-.34.88h2.11a1.35,1.35,0,0,0-.26-.89A.91.91,0,0,0,161.09,161.47Z"/><path class="cls-9" d="M161.26,165.2a1.91,1.91,0,0,1-1.45-.56,2.17,2.17,0,0,1-.53-1.55,2.4,2.4,0,0,1,.49-1.59,1.65,1.65,0,0,1,1.33-.59,1.58,1.58,0,0,1,1.24.52,2,2,0,0,1,.46,1.35v.44H160a1.52,1.52,0,0,0,.34,1,1.2,1.2,0,0,0,.92.35,3.2,3.2,0,0,0,1.27-.27l.08,0v.67h0a3.31,3.31,0,0,1-.62.2A3.54,3.54,0,0,1,161.26,165.2ZM161.1,161a1.55,1.55,0,0,0-1.25.55,2.29,2.29,0,0,0-.47,1.51,2.06,2.06,0,0,0,.5,1.47,1.81,1.81,0,0,0,1.37.53,3.46,3.46,0,0,0,.69-.06,3.15,3.15,0,0,0,.57-.18v-.42a3.3,3.3,0,0,1-1.23.24,1.3,1.3,0,0,1-1-.39,1.66,1.66,0,0,1-.37-1.12v-.06h2.78v-.33a1.86,1.86,0,0,0-.43-1.28A1.47,1.47,0,0,0,161.1,161Zm1,1.7h-2.23v-.06a1.52,1.52,0,0,1,.35-.91,1.05,1.05,0,0,1,.82-.33,1,1,0,0,1,.78.33,1.41,1.41,0,0,1,.27.92Zm-2.1-.11h2a1.26,1.26,0,0,0-.24-.79.86.86,0,0,0-.69-.29.94.94,0,0,0-.73.3A1.37,1.37,0,0,0,160,162.61Z"/><path class="cls-9" d="M166.39,164a1,1,0,0,1-.42.87,2,2,0,0,1-1.18.31,2.56,2.56,0,0,1-1.25-.25v-.57a3.06,3.06,0,0,0,.62.23,2.6,2.6,0,0,0,.64.08,1.46,1.46,0,0,0,.74-.15.53.53,0,0,0,.05-.87,3.22,3.22,0,0,0-.8-.4,4.27,4.27,0,0,1-.8-.37,1.07,1.07,0,0,1-.35-.35.92.92,0,0,1-.12-.47.9.9,0,0,1,.4-.78A1.87,1.87,0,0,1,165,161a3.22,3.22,0,0,1,1.27.26l-.22.5a2.92,2.92,0,0,0-1.1-.25,1.27,1.27,0,0,0-.66.14.42.42,0,0,0-.22.38.46.46,0,0,0,.08.28.82.82,0,0,0,.27.22,6.09,6.09,0,0,0,.71.3,2.64,2.64,0,0,1,1,.53A.93.93,0,0,1,166.39,164Z"/><path class="cls-9" d="M164.79,165.2a2.63,2.63,0,0,1-1.28-.26l0,0v-.69l.08,0a3,3,0,0,0,.61.23,2.58,2.58,0,0,0,.63.08,1.41,1.41,0,0,0,.71-.14.47.47,0,0,0,0-.78,3.19,3.19,0,0,0-.78-.39,4.26,4.26,0,0,1-.81-.37,1.11,1.11,0,0,1-.37-.37,1,1,0,0,1-.12-.5,1,1,0,0,1,.43-.82,1.93,1.93,0,0,1,1.13-.3,3.29,3.29,0,0,1,1.3.27l.05,0-.26.6-.05,0a2.88,2.88,0,0,0-1.08-.25,1.22,1.22,0,0,0-.63.13.37.37,0,0,0-.19.33.41.41,0,0,0,.07.24.77.77,0,0,0,.25.2,6.1,6.1,0,0,0,.7.29,2.67,2.67,0,0,1,1,.54,1,1,0,0,1,.27.71,1.07,1.07,0,0,1-.44.91A2,2,0,0,1,164.79,165.2Zm-1.19-.34a2.58,2.58,0,0,0,1.19.23,1.93,1.93,0,0,0,1.14-.29,1,1,0,0,0,.4-.82.87.87,0,0,0-.24-.63,2.6,2.6,0,0,0-.95-.51,6,6,0,0,1-.71-.3.88.88,0,0,1-.29-.23.52.52,0,0,1-.09-.31.47.47,0,0,1,.25-.42,1.32,1.32,0,0,1,.68-.15,2.94,2.94,0,0,1,1.07.23l.17-.39A3.17,3.17,0,0,0,165,161a1.82,1.82,0,0,0-1.07.28.84.84,0,0,0-.38.73.87.87,0,0,0,.11.45,1,1,0,0,0,.34.34,4.26,4.26,0,0,0,.79.36,3.26,3.26,0,0,1,.81.41.58.58,0,0,1-.06,1,1.51,1.51,0,0,1-.76.16,2.67,2.67,0,0,1-.66-.09,3.17,3.17,0,0,1-.55-.2Z"/><path class="cls-9" d="M168.68,164.63l.31,0,.24,0V165a1.14,1.14,0,0,1-.29.08l-.35,0q-1.17,0-1.17-1.23v-2.4h-.58v-.29l.58-.25.26-.86H168V161h1.17v.47H168v2.37a.82.82,0,0,0,.17.56A.6.6,0,0,0,168.68,164.63Z"/><path class="cls-9" d="M168.59,165.2c-.81,0-1.23-.43-1.23-1.29v-2.34h-.58v-.39l.59-.26.26-.88h.45V161h1.17v.59h-1.17v2.32a.77.77,0,0,0,.16.52.54.54,0,0,0,.43.18l.3,0,.23,0,.07,0v.58l0,0a1.2,1.2,0,0,1-.31.08Zm-1.69-3.75h.58v2.46c0,.79.36,1.18,1.11,1.18l.34,0,.25-.06v-.36l-.17,0-.32,0a.66.66,0,0,1-.52-.21.87.87,0,0,1-.19-.6v-2.43h1.17v-.36H168v-.93h-.25l-.25.85-.57.25Z"/><path class="cls-9" d="M173.52,163a2.23,2.23,0,0,1-.5,1.54,1.75,1.75,0,0,1-1.37.55,1.82,1.82,0,0,1-1-.25,1.68,1.68,0,0,1-.65-.73,2.54,2.54,0,0,1-.23-1.11,2.22,2.22,0,0,1,.49-1.54,1.74,1.74,0,0,1,1.37-.55,1.7,1.7,0,0,1,1.34.56A2.21,2.21,0,0,1,173.52,163Zm-3.07,0a1.92,1.92,0,0,0,.31,1.18,1.23,1.23,0,0,0,1.82,0,1.91,1.91,0,0,0,.31-1.18,1.87,1.87,0,0,0-.31-1.17,1.09,1.09,0,0,0-.92-.4,1.08,1.08,0,0,0-.91.39A1.89,1.89,0,0,0,170.45,163Z"/><path class="cls-9" d="M171.65,165.2a1.89,1.89,0,0,1-1-.26,1.75,1.75,0,0,1-.67-.75,2.6,2.6,0,0,1-.23-1.14,2.28,2.28,0,0,1,.51-1.57,1.8,1.8,0,0,1,1.41-.57,1.77,1.77,0,0,1,1.39.58,2.66,2.66,0,0,1,0,3.14A1.81,1.81,0,0,1,171.65,165.2Zm0-4.18a1.7,1.7,0,0,0-1.33.53,2.18,2.18,0,0,0-.48,1.5,2.5,2.5,0,0,0,.22,1.09,1.63,1.63,0,0,0,.63.7,1.77,1.77,0,0,0,.93.25,1.7,1.7,0,0,0,1.33-.53,2.55,2.55,0,0,0,0-3A1.66,1.66,0,0,0,171.68,161Zm0,3.67a1.13,1.13,0,0,1-1-.43,2,2,0,0,1-.32-1.21,2,2,0,0,1,.32-1.21,1.13,1.13,0,0,1,1-.42,1.15,1.15,0,0,1,1,.42,1.94,1.94,0,0,1,.32,1.2,2,2,0,0,1-.32,1.21A1.14,1.14,0,0,1,171.67,164.68Zm0-3.15a1,1,0,0,0-.86.37,1.85,1.85,0,0,0-.29,1.14,1.87,1.87,0,0,0,.3,1.14,1,1,0,0,0,.86.38,1,1,0,0,0,.87-.38,1.86,1.86,0,0,0,.3-1.15,1.83,1.83,0,0,0-.3-1.13A1,1,0,0,0,171.66,161.53Z"/><path class="cls-9" d="M177.35,165.06v-2.61a1.05,1.05,0,0,0-.22-.74.91.91,0,0,0-.7-.24,1.16,1.16,0,0,0-.93.34,1.73,1.73,0,0,0-.29,1.13v2.12h-.61v-4h.5l.1.55h0a1.25,1.25,0,0,1,.53-.46,1.71,1.71,0,0,1,.75-.16,1.53,1.53,0,0,1,1.1.35,1.5,1.5,0,0,1,.37,1.12v2.63Z"/><path class="cls-9" d="M178,165.12h-.72v-2.67a1,1,0,0,0-.21-.7.87.87,0,0,0-.66-.22,1.11,1.11,0,0,0-.88.32,1.69,1.69,0,0,0-.28,1.09v2.17h-.72V161h.6l.09.5a1.33,1.33,0,0,1,.49-.4,1.78,1.78,0,0,1,.78-.17,1.59,1.59,0,0,1,1.14.37,1.55,1.55,0,0,1,.39,1.16Zm-.61-.11h.5v-2.57a1.45,1.45,0,0,0-.35-1.08,1.48,1.48,0,0,0-1.06-.34,1.67,1.67,0,0,0-.73.16,1.2,1.2,0,0,0-.5.44l0,0h-.11l-.1-.55h-.39V165h.5v-2.06a1.78,1.78,0,0,1,.31-1.17,1.22,1.22,0,0,1,1-.36,1,1,0,0,1,.74.26,1.11,1.11,0,0,1,.24.77Z"/><path class="cls-9" d="M180.92,165.14a1.85,1.85,0,0,1-1.41-.54,2.11,2.11,0,0,1-.52-1.51,2.34,2.34,0,0,1,.48-1.55,1.59,1.59,0,0,1,1.29-.57,1.52,1.52,0,0,1,1.2.5,1.91,1.91,0,0,1,.44,1.32v.39h-2.78a1.6,1.6,0,0,0,.36,1.08,1.24,1.24,0,0,0,1,.37,3.25,3.25,0,0,0,1.29-.27v.54a3.26,3.26,0,0,1-.61.2A3.49,3.49,0,0,1,180.92,165.14Zm-.17-3.67a1,1,0,0,0-.77.32,1.46,1.46,0,0,0-.34.88h2.11a1.35,1.35,0,0,0-.26-.89A.91.91,0,0,0,180.76,161.47Z"/><path class="cls-9" d="M180.92,165.2a1.92,1.92,0,0,1-1.45-.56,2.17,2.17,0,0,1-.53-1.55,2.4,2.4,0,0,1,.49-1.59,1.65,1.65,0,0,1,1.33-.59,1.58,1.58,0,0,1,1.24.52,2,2,0,0,1,.46,1.35v.44h-2.78a1.52,1.52,0,0,0,.34,1,1.2,1.2,0,0,0,.92.35,3.2,3.2,0,0,0,1.27-.27l.08,0v.67h0a3.31,3.31,0,0,1-.62.2A3.54,3.54,0,0,1,180.92,165.2Zm-.16-4.18a1.55,1.55,0,0,0-1.25.55,2.29,2.29,0,0,0-.47,1.51,2.06,2.06,0,0,0,.5,1.47,1.81,1.81,0,0,0,1.37.53,3.46,3.46,0,0,0,.69-.06,3.15,3.15,0,0,0,.57-.18v-.42a3.3,3.3,0,0,1-1.23.24,1.3,1.3,0,0,1-1-.39,1.66,1.66,0,0,1-.37-1.12v-.06h2.78v-.33a1.86,1.86,0,0,0-.43-1.28A1.47,1.47,0,0,0,180.77,161Zm1,1.7h-2.23v-.06a1.52,1.52,0,0,1,.35-.91,1.05,1.05,0,0,1,.82-.33,1,1,0,0,1,.78.33,1.41,1.41,0,0,1,.27.92Zm-2.1-.11h2a1.26,1.26,0,0,0-.24-.79.86.86,0,0,0-.69-.29.94.94,0,0,0-.73.3A1.37,1.37,0,0,0,179.71,162.61Z"/><path class="cls-9" d="M187.15,165.06h-.63v-4.82h-1.7v-.56h4v.56h-1.7Z"/><path class="cls-9" d="M187.21,165.12h-.74V160.3h-1.7v-.67h4.15v.67h-1.7Zm-.63-.11h.51v-4.82h1.7v-.44h-3.92v.44h1.7Z"/><path class="cls-9" d="M192.06,165.06l-.12-.57h0a1.71,1.71,0,0,1-.6.51,1.84,1.84,0,0,1-.75.13,1.35,1.35,0,0,1-.94-.31,1.13,1.13,0,0,1-.34-.88q0-1.22,2-1.28l.68,0v-.25a1,1,0,0,0-.2-.7.84.84,0,0,0-.65-.23,2.66,2.66,0,0,0-1.14.31l-.19-.47a2.93,2.93,0,0,1,1.37-.35,1.53,1.53,0,0,1,1.07.32,1.33,1.33,0,0,1,.35,1v2.75Zm-1.38-.43a1.24,1.24,0,0,0,.9-.31,1.15,1.15,0,0,0,.33-.88v-.36l-.61,0a2.21,2.21,0,0,0-1.05.23.68.68,0,0,0-.32.62.63.63,0,0,0,.2.5A.83.83,0,0,0,190.68,164.63Z"/><path class="cls-9" d="M190.55,165.2a1.41,1.41,0,0,1-1-.32,1.19,1.19,0,0,1-.36-.92c0-.85.68-1.3,2-1.34l.63,0v-.2a1,1,0,0,0-.19-.66.8.8,0,0,0-.61-.21,2.62,2.62,0,0,0-1.12.3l-.06,0-.23-.57,0,0a3,3,0,0,1,1.39-.35,1.59,1.59,0,0,1,1.11.34,1.39,1.39,0,0,1,.37,1.07v2.81H192l-.11-.53a1.68,1.68,0,0,1-.57.47A1.91,1.91,0,0,1,190.55,165.2Zm.5-3.78a.9.9,0,0,1,.7.24,1.09,1.09,0,0,1,.22.74v.3l-.74,0c-1.28,0-1.9.44-1.9,1.22a1.08,1.08,0,0,0,.32.84,1.3,1.3,0,0,0,.9.29,1.81,1.81,0,0,0,.73-.13,1.66,1.66,0,0,0,.58-.5l0,0h.1l.12.57h.35v-2.7a1.29,1.29,0,0,0-.33-1,1.48,1.48,0,0,0-1-.31,2.87,2.87,0,0,0-1.29.32l.15.36A2.67,2.67,0,0,1,191.06,161.41Zm-.38,3.28a.89.89,0,0,1-.6-.19.69.69,0,0,1-.22-.55.74.74,0,0,1,.35-.67,2.27,2.27,0,0,1,1.08-.24l.67,0v.42a1.21,1.21,0,0,1-.34.92A1.3,1.3,0,0,1,190.68,164.69Zm1.17-1.55-.55,0a2.17,2.17,0,0,0-1,.22.62.62,0,0,0-.3.58.57.57,0,0,0,.18.46.79.79,0,0,0,.52.16,1.19,1.19,0,0,0,.86-.3,1.11,1.11,0,0,0,.31-.84Z"/><path class="cls-9" d="M195.64,161a1.5,1.5,0,0,1,1.24.54,2.91,2.91,0,0,1,0,3.08,1.49,1.49,0,0,1-1.23.55,1.75,1.75,0,0,1-.72-.15,1.35,1.35,0,0,1-.55-.45h0l-.13.52h-.44v-5.73h.61v1.39q0,.47,0,.84h0A1.45,1.45,0,0,1,195.64,161Zm-.09.51a1.07,1.07,0,0,0-.9.36,2.77,2.77,0,0,0,0,2.43,1.08,1.08,0,0,0,.91.37.94.94,0,0,0,.84-.41,2.11,2.11,0,0,0,.28-1.18,2,2,0,0,0-.28-1.17A1,1,0,0,0,195.56,161.48Z"/><path class="cls-9" d="M195.64,165.2a1.81,1.81,0,0,1-.74-.15,1.4,1.4,0,0,1-.53-.41l-.12.49h-.54v-5.84h.72v1.45c0,.25,0,.49,0,.7a1.53,1.53,0,0,1,1.23-.52,1.56,1.56,0,0,1,1.28.56,3,3,0,0,1,0,3.15A1.55,1.55,0,0,1,195.64,165.2Zm-1.35-.71h.12l0,0a1.3,1.3,0,0,0,.52.43,1.7,1.7,0,0,0,.7.14,1.44,1.44,0,0,0,1.19-.53,2.85,2.85,0,0,0,0-3,1.45,1.45,0,0,0-1.19-.52,1.39,1.39,0,0,0-1.22.58l0,0h-.12v-.06c0-.24,0-.52,0-.83V159.4h-.5V165h.34Zm1.28.19a1.14,1.14,0,0,1-1-.39,2.08,2.08,0,0,1-.3-1.25,2.06,2.06,0,0,1,.29-1.24,1.13,1.13,0,0,1,.95-.38,1,1,0,0,1,.9.41,2.09,2.09,0,0,1,.29,1.21,2.18,2.18,0,0,1-.29,1.21A1,1,0,0,1,195.57,164.68Zm0-3.15a1,1,0,0,0-.86.34,2.73,2.73,0,0,0,0,2.36,1,1,0,0,0,.86.34.88.88,0,0,0,.79-.38,2.07,2.07,0,0,0,.27-1.15,2,2,0,0,0-.26-1.14A.92.92,0,0,0,195.56,161.53Z"/><path class="cls-9" d="M199,165.06h-.61v-5.73H199Z"/><path class="cls-9" d="M199.05,165.12h-.72v-5.84h.72Zm-.61-.11h.5V159.4h-.5Z"/><path class="cls-9" d="M202,165.14a1.85,1.85,0,0,1-1.41-.54,2.11,2.11,0,0,1-.52-1.51,2.34,2.34,0,0,1,.48-1.55,1.59,1.59,0,0,1,1.29-.57,1.52,1.52,0,0,1,1.2.5,1.91,1.91,0,0,1,.44,1.32v.39H200.7a1.6,1.6,0,0,0,.36,1.08,1.24,1.24,0,0,0,1,.37,3.25,3.25,0,0,0,1.29-.27v.54a3.26,3.26,0,0,1-.61.2A3.49,3.49,0,0,1,202,165.14Zm-.17-3.67a1,1,0,0,0-.77.32,1.46,1.46,0,0,0-.34.88h2.11a1.35,1.35,0,0,0-.26-.89A.91.91,0,0,0,201.83,161.47Z"/><path class="cls-9" d="M202,165.2a1.92,1.92,0,0,1-1.45-.56,2.17,2.17,0,0,1-.53-1.55,2.4,2.4,0,0,1,.49-1.59,1.65,1.65,0,0,1,1.33-.59,1.58,1.58,0,0,1,1.24.52,2,2,0,0,1,.46,1.35v.44h-2.78a1.52,1.52,0,0,0,.34,1,1.2,1.2,0,0,0,.92.35,3.2,3.2,0,0,0,1.27-.27l.08,0v.67h0a3.31,3.31,0,0,1-.62.2A3.54,3.54,0,0,1,202,165.2Zm-.16-4.18a1.55,1.55,0,0,0-1.25.55,2.29,2.29,0,0,0-.47,1.51,2.06,2.06,0,0,0,.5,1.47,1.81,1.81,0,0,0,1.37.53,3.46,3.46,0,0,0,.69-.06,3.15,3.15,0,0,0,.57-.18v-.42a3.3,3.3,0,0,1-1.23.24,1.3,1.3,0,0,1-1-.39,1.66,1.66,0,0,1-.37-1.12v-.06h2.78v-.33a1.86,1.86,0,0,0-.43-1.28A1.47,1.47,0,0,0,201.84,161Zm1,1.7h-2.23v-.06a1.52,1.52,0,0,1,.35-.91,1.05,1.05,0,0,1,.82-.33,1,1,0,0,1,.78.33,1.41,1.41,0,0,1,.27.92Zm-2.1-.11h2a1.26,1.26,0,0,0-.24-.79.86.86,0,0,0-.69-.29.94.94,0,0,0-.73.3A1.37,1.37,0,0,0,200.78,162.61Z"/><path class="cls-10" d="M132.49,123.25a1.55,1.55,0,0,0,1.44-.94H138a1.55,1.55,0,0,0,1.44.94,1.5,1.5,0,1,0,0-3,1.55,1.55,0,0,0-1.44.94h-4.1a1.55,1.55,0,0,0-1.44-.94,1.5,1.5,0,1,0,0,3Z"/><path class="cls-10" d="M139.47,125.47a1.55,1.55,0,0,0-1.44.94h-4.1a1.55,1.55,0,0,0-1.44-.94,1.5,1.5,0,1,0,0,3,1.55,1.55,0,0,0,1.44-.94H138a1.55,1.55,0,0,0,1.44.94,1.5,1.5,0,1,0,0-3Z"/><rect class="cls-9" x="131.86" y="99.55" width="3.68" height="3.68"/><rect class="cls-9" x="136.41" y="99.55" width="3.68" height="3.68"/><rect class="cls-9" x="131.86" y="104.45" width="3.68" height="3.68"/><rect class="cls-9" x="136.41" y="104.45" width="3.68" height="3.68"/><path class="cls-9" d="M139.46,140.88h-6.09a1.1,1.1,0,0,0-1.09,1.09v5.83a1.1,1.1,0,0,0,1.09,1.09h6.09a1.1,1.1,0,0,0,1.09-1.09V142A1.1,1.1,0,0,0,139.46,140.88Zm-2.73,4.66V142.9H140v2.64Zm3.25.55v1.53a.77.77,0,0,1-.77.78h-2.48v-2.3Zm-3.89-3.2v2.64h-3.3V142.9Zm-3.3,4.61V146.1h3.3v2.3h-2.27A1,1,0,0,1,132.8,147.51Z"/><polygon class="cls-9" points="140.17 162.59 137.42 160.27 140.17 157.96 133.36 157.96 133.05 157.96 132.62 157.96 132.62 166.19 131.79 166.19 131.79 166.8 134.09 166.8 134.09 166.19 133.36 166.19 133.36 162.59 140.17 162.59"/><rect class="cls-9" x="134.67" y="81.52" width="5.9" height="1.34"/><rect class="cls-9" x="134.67" y="84.2" width="5.9" height="1.34"/><rect class="cls-9" x="134.67" y="86.88" width="5.9" height="1.34"/><rect class="cls-9" x="131.86" y="81.52" width="1.48" height="1.34"/><rect class="cls-9" x="131.86" y="84.2" width="1.48" height="1.34"/><rect class="cls-9" x="131.86" y="86.88" width="1.48" height="1.34"/><path class="cls-11" d="M231.56,231.56H0V0H231.56ZM2,229.56H229.56V2H2Z"/></g></g></svg>