<svg xmlns="http://www.w3.org/2000/svg" viewBox="0 0 231.56 231.56"><defs><style>.cls-1{isolation:isolate;}.cls-2{fill:#fff;}.cls-3{fill:#f58a67;}.cls-4{fill:#7b93df;}.cls-5{fill:#92e1b7;}.cls-6{fill:#ee624e;}.cls-7{fill:#4bcae2;}.cls-8{fill:#277ec2;}.cls-9{fill:#285eac;}.cls-10{mix-blend-mode:multiply;}.cls-11{fill:#9ad3b4;}.cls-12{fill:#eaeaea;}.cls-13{fill:#f3f4f4;}.cls-14{fill:#f47c69;}.cls-15{fill:#7e92ca;}.cls-16{fill:#cacac9;}.cls-17{opacity:0.8;mix-blend-mode:lighten;}.cls-18{fill:#ffd547;}.cls-19{fill:#fbc32a;}.cls-20{fill:#e2e2e2;}</style></defs><title>choose-workflow</title><g class="cls-1"><g id="Layer_2" data-name="Layer 2"><g id="Top_layer" data-name="Top layer"><rect class="cls-2" x="1" y="1" width="229.56" height="229.56"/><rect class="cls-3" x="14.23" y="49.76" width="37.6" height="65.81"/><rect class="cls-4" x="14.23" y="119.59" width="37.6" height="86.97"/><rect class="cls-5" x="14.23" y="211.02" width="37.6" height="19.53"/><rect class="cls-6" x="29.81" y="66.86" width="6.44" height="31.6" rx="1.03" ry="1.03"/><rect class="cls-7" x="126.84" y="-51.39" width="33.85" height="154.03" transform="translate(169.39 -118.14) rotate(90)"/><rect class="cls-8" x="140.86" y="-11.35" width="5.8" height="73.96" rx="1.49" ry="1.49" transform="translate(169.39 -118.14) rotate(90)"/><rect class="cls-9" x="29.81" y="142.3" width="6.44" height="41.56" rx="1.03" ry="1.03"/><g class="cls-10"><path class="cls-11" d="M35.23,230.56H29.81V225.3a1,1,0,0,1,1-1h4.39a1,1,0,0,1,1,1v5.26Z"/></g><g class="cls-10"><path class="cls-12" d="M224.25,53.38H68.94c-1.21,0-2.19,1.26-2.19,2.82V70.61c0,1.56,1,2.82,2.19,2.82H224.25c1.21,0,2.19-1.26,2.19-2.82V56.2C226.44,54.64,225.46,53.38,224.25,53.38Z"/></g><path class="cls-13" d="M224.25,52.44H68.94c-1.21,0-2.19,1.26-2.19,2.82V69.68c0,1.56,1,2.82,2.19,2.82H224.25c1.21,0,2.19-1.26,2.19-2.82V55.27C226.44,53.71,225.46,52.44,224.25,52.44Z"/><path class="cls-14" d="M70.88,72.5H68.94c-1.21,0-2.19-1.26-2.19-2.82V55.27c0-1.56,1-2.82,2.19-2.82h1.94"/><g class="cls-10"><path class="cls-12" d="M224.22,122.26H68.91c-1.21,0-2.19,1.26-2.19,2.82V139.5c0,1.56,1,2.82,2.19,2.82H224.22c1.21,0,2.19-1.26,2.19-2.82V125.09C226.42,123.53,225.44,122.26,224.22,122.26Z"/></g><path class="cls-13" d="M224.22,121.33H68.91c-1.21,0-2.19,1.26-2.19,2.82v14.41c0,1.56,1,2.82,2.19,2.82H224.22c1.21,0,2.19-1.26,2.19-2.82V124.15C226.42,122.59,225.44,121.33,224.22,121.33Z"/><path class="cls-15" d="M70.86,141.38H68.91c-1.21,0-2.19-1.26-2.19-2.82V124.15c0-1.56,1-2.82,2.19-2.82h1.94"/><g class="cls-10"><path class="cls-12" d="M224.25,79.23H68.94c-1.21,0-2.19,1.26-2.19,2.82V96.46c0,1.56,1,2.82,2.19,2.82H224.25c1.21,0,2.19-1.26,2.19-2.82V82.05C226.44,80.49,225.46,79.23,224.25,79.23Z"/></g><path class="cls-13" d="M224.25,78.29H68.94c-1.21,0-2.19,1.26-2.19,2.82V95.53c0,1.56,1,2.82,2.19,2.82H224.25c1.21,0,2.19-1.26,2.19-2.82V81.12C226.44,79.56,225.46,78.29,224.25,78.29Z"/><path class="cls-14" d="M70.88,98.35H68.94c-1.21,0-2.19-1.26-2.19-2.82V81.12c0-1.56,1-2.82,2.19-2.82h1.94"/><path class="cls-13" d="M224.25,212H68.94c-1.21,0-2.19,1.26-2.19,2.82v15.72c0,1.56,1,0,2.19,0H224.25c1.21,0,2.19,1.56,2.19,0V214.84C226.44,213.28,225.46,212,224.25,212Z"/><path class="cls-5" d="M70.88,230.56H66.75V214.84c0-1.56,1-2.82,2.19-2.82h1.94"/><g class="cls-10"><path class="cls-12" d="M224.22,149.1H68.91c-1.21,0-2.19,1.26-2.19,2.82v14.41c0,1.56,1,2.82,2.19,2.82H224.22c1.21,0,2.19-1.26,2.19-2.82V151.93C226.42,150.37,225.44,149.1,224.22,149.1Z"/></g><path class="cls-13" d="M224.22,148.17H68.91c-1.21,0-2.19,1.26-2.19,2.82V165.4c0,1.56,1,2.82,2.19,2.82H224.22c1.21,0,2.19-1.26,2.19-2.82V151C226.42,149.43,225.44,148.17,224.22,148.17Z"/><path class="cls-4" d="M70.86,168.22H68.91c-1.21,0-2.19-1.26-2.19-2.82V151c0-1.56,1-2.82,2.19-2.82h1.94"/><g class="cls-10"><path class="cls-12" d="M224.22,175.94H68.91c-1.21,0-2.19,1.26-2.19,2.82v14.41c0,1.56,1,2.82,2.19,2.82H224.22c1.21,0,2.19-1.26,2.19-2.82V178.76C226.42,177.21,225.44,175.94,224.22,175.94Z"/></g><path class="cls-13" d="M224.22,175H68.91c-1.21,0-2.19,1.26-2.19,2.82v14.41c0,1.56,1,2.82,2.19,2.82H224.22c1.21,0,2.19-1.26,2.19-2.82V177.83C226.42,176.27,225.44,175,224.22,175Z"/><path class="cls-4" d="M70.86,195.06H68.91c-1.21,0-2.19-1.26-2.19-2.82V177.83c0-1.56,1-2.82,2.19-2.82h1.94"/><rect class="cls-16" x="82.96" y="60.07" width="76.33" height="5.33"/><rect class="cls-16" x="82.96" y="85.65" width="54.04" height="5.33"/><rect class="cls-16" x="82.96" y="128.69" width="54.04" height="5.33"/><rect class="cls-16" x="82.96" y="220.37" width="87.36" height="5.33"/><rect class="cls-16" x="82.96" y="155.53" width="67.69" height="5.33"/><rect class="cls-16" x="82.96" y="182.37" width="67.69" height="5.33"/><g class="cls-17"><path class="cls-2" d="M115.78,148.2c-22,0-34.55-1.78-35.07-1.85L75,145.52V104.57L96.39,119l19.39-35.68L135.17,119l21.35-14.47v41l-5.74.78A284,284,0,0,1,115.78,148.2Z"/></g><path class="cls-18" d="M132.84,128.63,115.78,97.25,98.72,128.63,81.67,117.08v22.7s12.29,1.79,34.11,1.79a279.38,279.38,0,0,0,34.11-1.79v-22.7Z"/><path class="cls-19" d="M115.78,141.57a279.38,279.38,0,0,0,34.11-1.79v-22.7l-17.06,11.56L115.78,97.25Z"/><path class="cls-20" d="M231.56,231.56H0V0H231.56ZM2,229.56H229.56V2H2Z"/></g></g></g></svg>