<svg xmlns="http://www.w3.org/2000/svg" viewBox="0 0 231.56 231.56"><defs><style>.cls-1{isolation:isolate;}.cls-2{fill:#fff;}.cls-3{fill:#f3f4f4;}.cls-4{fill:none;stroke:#e3e3e3;stroke-miterlimit:10;stroke-width:0.87px;}.cls-5{fill:#7b93df;}.cls-6{fill:#f58a67;}.cls-7{fill:#92e1b7;}.cls-8{fill:#4bcae2;}.cls-9{fill:#b2b2b2;}.cls-10{fill:#ee624e;}.cls-11{fill:#285eac;}.cls-12{fill:#9ad3b4;mix-blend-mode:multiply;}.cls-13{opacity:0.8;mix-blend-mode:lighten;}.cls-14{fill:#ffd547;}.cls-15{fill:#fbc32a;}.cls-16{fill:#e2e2e2;}</style></defs><title>choose-workflow-2</title><g class="cls-1"><g id="Layer_2" data-name="Layer 2"><g id="Top_layer" data-name="Top layer"><rect class="cls-2" x="1" y="1" width="229.56" height="229.56"/><rect class="cls-3" x="65.45" y="60.41" width="165.11" height="4.66"/><rect class="cls-3" x="65.45" y="92.91" width="165.11" height="4.66"/><rect class="cls-3" x="65.45" y="115.42" width="165.11" height="4.66"/><rect class="cls-3" x="65.45" y="191.6" width="165.11" height="4.66"/><rect class="cls-3" x="65.45" y="169.03" width="165.11" height="4.66"/><rect class="cls-3" x="65.45" y="214.1" width="165.11" height="4.66"/><rect class="cls-3" x="65.45" y="137.92" width="165.11" height="4.66"/><rect class="cls-3" x="65.45" y="15.4" width="165.11" height="4.66"/><rect class="cls-3" x="65.45" y="37.9" width="165.11" height="4.66"/><line class="cls-4" x1="65.45" y1="8.85" x2="65.45" y2="229.44"/><polygon class="cls-5" points="14.36 84.32 14.36 144.37 14.36 151.04 57.46 151.04 57.46 144.37 57.46 84.32 14.36 84.32"/><polygon class="cls-6" points="14.36 8.7 14.36 20.96 14.36 30.98 14.36 40.67 14.36 63.32 14.36 75.44 57.46 75.44 57.46 63.32 57.46 40.67 57.46 30.98 57.46 20.96 57.46 8.7 14.36 8.7"/><polygon class="cls-7" points="14.41 159.65 14.41 216.58 14.41 229.85 57.46 229.85 57.46 216.58 57.46 159.65 14.41 159.65"/><polygon class="cls-8" points="81.02 49.44 88.68 40.23 81.02 31.02 73.36 40.23 81.02 49.44"/><polygon class="cls-8" points="203.26 49.44 210.92 40.23 203.26 31.02 195.6 40.23 203.26 49.44"/><rect class="cls-6" x="65.78" y="56.42" width="124.11" height="13.64" rx="6.82" ry="6.82"/><rect class="cls-5" x="86.34" y="88.42" width="120.4" height="13.64" rx="6.82" ry="6.82"/><path class="cls-5" d="M230.56,124.56H192.67a6.82,6.82,0,0,1-6.82-6.82h0a6.82,6.82,0,0,1,6.82-6.82h37.89v6.82h0Z"/><rect class="cls-5" x="156.52" y="133.43" width="54.28" height="13.64" rx="6.82" ry="6.82"/><rect class="cls-5" x="75.67" y="133.43" width="54.28" height="13.64" rx="6.82" ry="6.82"/><rect class="cls-7" x="86.34" y="209.89" width="93.52" height="13.64" rx="6.82" ry="6.82"/><rect class="cls-7" x="96.75" y="164.82" width="125.11" height="13.03" rx="6.52" ry="6.52"/><rect class="cls-8" x="135.01" y="10.47" width="14.34" height="14.52"/><rect class="cls-9" x="155.19" y="15.59" width="38.98" height="4.27"/><rect class="cls-9" x="97.18" y="38.09" width="38.98" height="4.27"/><rect class="cls-9" x="217.12" y="38.09" width="13.44" height="4.27"/><rect class="cls-10" x="33.19" y="26.59" width="5.74" height="31.24"/><rect class="cls-11" x="33.19" y="101.71" width="5.74" height="31.24"/><rect class="cls-12" x="33.19" y="177.76" width="5.74" height="31.24"/><path class="cls-7" d="M230.56,201.57H174.09a6.82,6.82,0,0,1-6.82-6.82h0a6.82,6.82,0,0,1,6.82-6.82h56.47v6.82h0Z"/><g class="cls-13"><path class="cls-2" d="M115.78,148.2c-22,0-34.55-1.78-35.07-1.85L75,145.52V104.57L96.39,119l19.39-35.68L135.17,119l21.35-14.47v41l-5.74.78A284,284,0,0,1,115.78,148.2Z"/></g><path class="cls-14" d="M132.84,128.63,115.78,97.25,98.72,128.63,81.67,117.08v22.7s12.29,1.79,34.11,1.79a279.38,279.38,0,0,0,34.11-1.79v-22.7Z"/><path class="cls-15" d="M115.78,141.57a279.38,279.38,0,0,0,34.11-1.79v-22.7l-17.06,11.56L115.78,97.25Z"/><path class="cls-16" d="M231.56,231.56H0V0H231.56ZM2,229.56H229.56V2H2Z"/></g></g></g></svg>