<svg xmlns="http://www.w3.org/2000/svg" viewBox="0 0 284.13 450.77"><defs><style>.cls-1{isolation:isolate;}.cls-2{opacity:0.38;mix-blend-mode:soft-light;}.cls-3{fill:#fafafa;}.cls-4{opacity:0.35;}.cls-5{fill:none;}.cls-6{fill:#61cae2;}.cls-7{opacity:0.9;}.cls-8{fill:#fff;}.cls-9{fill:#4bcae2;}</style></defs><title>circle-left</title><g class="cls-1"><g id="Layer_2" data-name="Layer 2"><g id="Top_layer" data-name="Top layer"><g class="cls-2"><path class="cls-3" d="M129.66,449.85A330.71,330.71,0,0,1,121.51,1.48l2.24,2a327.71,327.71,0,0,0,8.08,444.3Z"/></g><g class="cls-4"><path class="cls-3" d="M283.09,450.77A246.82,246.82,0,0,1,255.35,0l1.38,2.66a243.72,243.72,0,0,0-131.85,216.6A243.84,243.84,0,0,0,284.13,448Z"/></g><g id="Frame_-_24px" data-name="Frame - 24px"><rect class="cls-5" x="46.03" y="342.12" width="62.2" height="62.2"/></g><g id="Filled_Icons" data-name="Filled Icons"><path class="cls-6" d="M62.49,358.58a20.7,20.7,0,0,1,35.37,14.64H103a25.88,25.88,0,0,0-44.22-18.3l-5-5v15.55H69.35Z"/><path class="cls-6" d="M91.77,387.86a20.7,20.7,0,0,1-35.37-14.64H51.21a25.88,25.88,0,0,0,44.22,18.3l5,5V381H84.9Z"/><circle class="cls-6" cx="77.13" cy="373.22" r="5.18"/></g><g id="Frame_-_24px-2" data-name="Frame - 24px"><rect class="cls-5" x="41.29" y="37.55" width="62.2" height="62.2"/></g><path class="cls-6" d="M66.4,94.57H52V71.4H43.36l28.87-26,28.87,26H92.42V94.57H78.05V77.23H66.4Z"/><g id="Frame_-_24px-3" data-name="Frame - 24px"><rect class="cls-5" y="192.35" width="62.2" height="62.2"/></g><g id="Filled_Icons-2" data-name="Filled Icons"><path class="cls-6" d="M51.83,210.49H31.1l-3.75-4.91a5.19,5.19,0,0,0-4.64-2.87H7.78a2.59,2.59,0,0,0-2.59,2.59v36.28a5.18,5.18,0,0,0,5.18,5.18H51.83A5.19,5.19,0,0,0,57,241.59V215.68A5.19,5.19,0,0,0,51.83,210.49ZM25.92,228.64c0,.14,0,.26,0,.4l7,3.5a5.16,5.16,0,1,1-1.78,3.88c0-.14,0-.26,0-.4l-7-3.5a5.18,5.18,0,1,1,0-7.75l7-3.5c0-.13,0-.26,0-.4a5.24,5.24,0,1,1,1.78,3.88l-7,3.5C25.89,228.37,25.92,228.5,25.92,228.64Z"/></g><g class="cls-7"><g id="Frame_-_24px-4" data-name="Frame - 24px"><rect class="cls-5" x="114.74" y="133.48" width="43.2" height="43.2"/></g><g id="Filled_Icons-3" data-name="Filled Icons"><path class="cls-6" d="M150.74,137.08a3.6,3.6,0,0,0-3.6-3.6h-28.8a3.6,3.6,0,0,0-3.6,3.6v3.6h36Zm-30.6,1.8a1.8,1.8,0,1,1,1.8-1.8A1.8,1.8,0,0,1,120.14,138.88Zm5.4,0a1.8,1.8,0,1,1,1.8-1.8A1.8,1.8,0,0,1,125.54,138.88Z"/><path class="cls-6" d="M147.14,151.48a14.49,14.49,0,0,1,3.6.47v-9.47h-36v19.8a3.6,3.6,0,0,0,3.6,3.6h14.4A14.4,14.4,0,0,1,147.14,151.48Z"/><path class="cls-8" d="M147.14,155.05a10.8,10.8,0,1,0,10.8,10.8A10.81,10.81,0,0,0,147.14,155.05Zm5.4,12.6h-7.2v-9h3.6v5.4h3.6Z"/></g></g><g class="cls-7"><g id="Frame_-_24px-5" data-name="Frame - 24px"><rect class="cls-5" x="114.78" y="275.75" width="43.2" height="43.2"/></g><g id="Filled_Icons-4" data-name="Filled Icons"><path class="cls-9" d="M114.78,281.15v1.8a1.79,1.79,0,0,0,.53,1.27l10.27,10.27v13.65a1.8,1.8,0,0,0,1.11,1.66,1.78,1.78,0,0,0,.69.14,1.8,1.8,0,0,0,1.27-.53l3.6-3.6a1.8,1.8,0,0,0,.53-1.27V294.49L143,284.22a1.79,1.79,0,0,0,.53-1.27v-1.8Z"/><path class="cls-8" d="M140,275.75h-21.6a3.6,3.6,0,0,0-3.6,3.6h28.8A3.6,3.6,0,0,0,140,275.75Z"/><g id="Filled_Icons-5" data-name="Filled Icons"><rect class="cls-8" x="140.32" y="298.66" width="10" height="5"/><path class="cls-6" d="M154.73,300.07l-2.83-2.83a2,2,0,0,0-1.41-.59H139.32a2,2,0,0,0-2,2v14a2,2,0,0,0,2,2h14a2,2,0,0,0,2-2V301.48A2,2,0,0,0,154.73,300.07Zm-8.41,11.09a2.5,2.5,0,1,1,2.5-2.5A2.5,2.5,0,0,1,146.32,311.16Zm4-7.5h-10v-5h10Z"/></g></g></g></g></g></g></svg>