<svg xmlns="http://www.w3.org/2000/svg" viewBox="0 0 280.73 455.89"><defs><style>.cls-1{isolation:isolate;}.cls-2{opacity:0.38;mix-blend-mode:soft-light;}.cls-3{fill:#fafafa;}.cls-4{opacity:0.35;}.cls-5{fill:#61cae2;}.cls-6{fill:none;}.cls-7{opacity:0.9;}.cls-8{fill:#fff;}.cls-9{fill:#4bcae2;}</style></defs><title>circle-right</title><g class="cls-1"><g id="Layer_2" data-name="Layer 2"><g id="Top_layer" data-name="Top layer"><g class="cls-2"><path class="cls-3" d="M149.33,455.89l-2.12-2.12a325.55,325.55,0,0,0,96-231.72A327,327,0,0,0,158.34,2l2.22-2a329.94,329.94,0,0,1,85.63,222A328.53,328.53,0,0,1,149.33,455.89Z"/></g><g class="cls-4"><path class="cls-3" d="M1,451.57l-1-2.81a243.18,243.18,0,0,0,114.48-87.9,242.13,242.13,0,0,0,44.75-140.8A243.14,243.14,0,0,0,122.68,91.61,244.68,244.68,0,0,0,27.38,3.46L28.76.8A247.68,247.68,0,0,1,125.23,90a246.14,246.14,0,0,1,37,130,245.12,245.12,0,0,1-45.31,142.53A246.17,246.17,0,0,1,1,451.57Z"/></g><rect class="cls-5" x="222.74" y="220.06" width="32.9" height="9.13" rx="4.56" ry="4.56"/><rect class="cls-5" x="229.47" y="204.54" width="44.02" height="9.13" rx="4.56" ry="4.56"/><rect class="cls-5" x="229.47" y="236.11" width="44.02" height="9.13" rx="4.56" ry="4.56"/><g id="Frame_-_24px" data-name="Frame - 24px"><rect class="cls-6" x="218.52" y="193.15" width="62.2" height="62.2"/></g><circle class="cls-5" cx="266.72" cy="224.62" r="4.56"/><polygon class="cls-5" points="180.14 77.64 227.88 77.64 227.88 58.84 215.72 66.13 204.13 47.17 193.11 65.73 180.14 58.84 180.14 77.64"/><rect class="cls-5" x="180.14" y="81.92" width="47.74" height="5.38" rx="2.69" ry="2.69"/><g id="Frame_-_24px-2" data-name="Frame - 24px"><rect class="cls-6" x="172.91" y="38.35" width="62.2" height="62.2"/></g><g id="Frame_-_24px-3" data-name="Frame - 24px"><rect class="cls-6" x="183.28" y="342.92" width="62.2" height="62.2"/></g><g id="Filled_Icons" data-name="Filled Icons"><path class="cls-5" d="M235.11,361.06H214.38l-3.75-4.91a5.19,5.19,0,0,0-4.64-2.87H191.05a2.59,2.59,0,0,0-2.59,2.59v36.28a5.18,5.18,0,0,0,5.18,5.18h41.47a5.19,5.19,0,0,0,5.18-5.18V366.24A5.19,5.19,0,0,0,235.11,361.06ZM204,381.79l-5.18-5.18-5.18,5.18V358.47H204Z"/></g><g class="cls-7"><g id="Frame_-_24px-4" data-name="Frame - 24px"><rect class="cls-6" x="122.91" y="275.76" width="44.79" height="44.79"/></g><g id="Filled_Icons-2" data-name="Filled Icons"><path class="cls-5" d="M133.28,316.81a7.4,7.4,0,0,0,12.86,0Z"/><path class="cls-5" d="M150.9,307.48v-6.66a14.93,14.93,0,0,1-9.32-13.69,11.07,11.07,0,0,0-1.87-.17,11.2,11.2,0,0,0-11.2,11.2v9.33a5.6,5.6,0,0,1-5.6,5.6v1.87H156.5v-1.87A5.6,5.6,0,0,1,150.9,307.48Z"/><path class="cls-8" d="M156.5,275.76A11.2,11.2,0,1,0,167.7,287,11.21,11.21,0,0,0,156.5,275.76Zm5.6,13.06h-7.46v-9.33h3.73v5.6h3.73Z"/></g></g><g class="cls-7"><g id="Frame_-_24px-5" data-name="Frame - 24px"><rect class="cls-6" x="127.63" y="133.24" width="45.28" height="45.28"/></g><g id="Filled_Icons-3" data-name="Filled Icons"><path class="cls-9" d="M161.59,150.48a15.19,15.19,0,0,1,3.77.49V138.69a3.83,3.83,0,0,0-3.83-3.83h-30a3.87,3.87,0,0,0-3.87,3.87V161.8a3.77,3.77,0,0,0,3.77,3.77H146.5A15.09,15.09,0,0,1,161.59,150.48Z"/><path class="cls-8" d="M171.48,162.34h-6.3a.52.52,0,0,1-.49-.33l-2.62-6.54a.52.52,0,0,0-1,0L158.49,162a.52.52,0,0,1-.49.33h-6.3a.52.52,0,0,0-.34.92L157,168a.52.52,0,0,1,.14.61l-2.9,6.67a.52.52,0,0,0,.77.65l6.32-4.18a.52.52,0,0,1,.58,0l6.32,4.18a.52.52,0,0,0,.77-.65l-2.9-6.67a.52.52,0,0,1,.14-.61l5.6-4.73A.52.52,0,0,0,171.48,162.34Z"/></g></g></g></g></g></svg>