<svg xmlns="http://www.w3.org/2000/svg" viewBox="0 0 231.56 231.56"><defs><style>.cls-1{fill:#fff;}.cls-2{fill:#eee;}.cls-3{fill:#555b60;}.cls-4{fill:#1d86e0;}.cls-5{fill:#ccc;}.cls-6{fill:#43474a;stroke:#43474a;stroke-miterlimit:10;stroke-width:0.09px;}.cls-7{fill:#ffd547;}.cls-8{fill:#e2e2e2;}</style></defs><title>field-management</title><g id="Layer_2" data-name="Layer 2"><g id="Top_layer" data-name="Top layer"><rect class="cls-1" x="1" y="3.92" width="229.56" height="226.71"/><path class="cls-2" d="M2.21.92H229.35a1.21,1.21,0,0,1,1.21,1.21V20.22a0,0,0,0,1,0,0H1a0,0,0,0,1,0,0V2.13A1.21,1.21,0,0,1,2.21.92Z"/><path class="cls-3" d="M76.38,50.06a1.59,1.59,0,0,1-.61,1.32,2.64,2.64,0,0,1-1.67.48,4,4,0,0,1-1.75-.33v-1a4.81,4.81,0,0,0,.91.32,3.9,3.9,0,0,0,.9.12,1.44,1.44,0,0,0,.9-.23.76.76,0,0,0,.29-.62.78.78,0,0,0-.27-.6A4,4,0,0,0,74,49a2.91,2.91,0,0,1-1.21-.8,1.68,1.68,0,0,1-.35-1.08A1.51,1.51,0,0,1,73,45.84a2.32,2.32,0,0,1,1.5-.45,4.41,4.41,0,0,1,1.8.4l-.33.84a3.93,3.93,0,0,0-1.5-.35,1.15,1.15,0,0,0-.76.22.72.72,0,0,0-.26.58.81.81,0,0,0,.1.42,1.07,1.07,0,0,0,.34.33,5.85,5.85,0,0,0,.85.41,4.68,4.68,0,0,1,1,.54,1.58,1.58,0,0,1,.47.56A1.69,1.69,0,0,1,76.38,50.06Z"/><path class="cls-3" d="M79.26,51a2.47,2.47,0,0,0,.74-.12v.76a2,2,0,0,1-.43.12,3,3,0,0,1-.55,0q-1.44,0-1.44-1.51V47.78h-.65v-.45l.7-.37L78,46h.62V47H80v.77H78.6v2.55a.71.71,0,0,0,.18.54A.67.67,0,0,0,79.26,51Z"/><path class="cls-3" d="M83.93,51.77l-.2-.66h0a1.94,1.94,0,0,1-.69.59,2.18,2.18,0,0,1-.9.16,1.51,1.51,0,0,1-1.1-.38,1.41,1.41,0,0,1-.39-1.07,1.26,1.26,0,0,1,.55-1.11,3.15,3.15,0,0,1,1.67-.41l.82,0v-.25a1,1,0,0,0-.21-.68.87.87,0,0,0-.66-.23,2.3,2.3,0,0,0-.7.11,5.34,5.34,0,0,0-.65.25l-.33-.72a3.52,3.52,0,0,1,.85-.31,3.91,3.91,0,0,1,.87-.11,2.06,2.06,0,0,1,1.37.4,1.55,1.55,0,0,1,.46,1.24v3.21Zm-1.51-.69a1.25,1.25,0,0,0,.88-.31,1.12,1.12,0,0,0,.33-.86V49.5l-.61,0a2.09,2.09,0,0,0-1,.24.72.72,0,0,0-.33.65.64.64,0,0,0,.19.49A.81.81,0,0,0,82.42,51.08Z"/><path class="cls-3" d="M88.48,46.93a2.39,2.39,0,0,1,.5,0l-.1.94a1.93,1.93,0,0,0-.45-.05,1.29,1.29,0,0,0-1,.4,1.43,1.43,0,0,0-.38,1v2.49h-1V47h.79l.13.84H87a1.9,1.9,0,0,1,.62-.68A1.47,1.47,0,0,1,88.48,46.93Z"/><path class="cls-3" d="M93.93,51a2.47,2.47,0,0,0,.74-.12v.76a2,2,0,0,1-.43.12,3,3,0,0,1-.55,0q-1.44,0-1.44-1.51V47.78H91.6v-.45l.7-.37.34-1h.62V47h1.36v.77H93.27v2.55a.71.71,0,0,0,.18.54A.67.67,0,0,0,93.93,51Z"/><path class="cls-3" d="M99.81,51.77h-1V48.85a1.28,1.28,0,0,0-.22-.82.86.86,0,0,0-.7-.27,1.12,1.12,0,0,0-.94.38,2.09,2.09,0,0,0-.3,1.28v2.36h-1v-6.7h1v1.7a8,8,0,0,1-.05.87h.06a1.4,1.4,0,0,1,.57-.53,1.84,1.84,0,0,1,.86-.19,1.53,1.53,0,0,1,1.73,1.74Z"/><path class="cls-3" d="M101.16,45.75a.56.56,0,0,1,.15-.42.58.58,0,0,1,.42-.15.56.56,0,0,1,.42.15.56.56,0,0,1,.15.42.55.55,0,0,1-.15.41.56.56,0,0,1-.42.15.57.57,0,0,1-.42-.15A.55.55,0,0,1,101.16,45.75Zm1.07,6h-1V47h1Z"/><path class="cls-3" d="M106.87,50.42a1.25,1.25,0,0,1-.51,1.07,2.44,2.44,0,0,1-1.46.37,3.44,3.44,0,0,1-1.53-.29V50.7a3.76,3.76,0,0,0,1.56.39q.93,0,.93-.56a.45.45,0,0,0-.1-.3,1.21,1.21,0,0,0-.34-.25,5.87,5.87,0,0,0-.66-.29,3,3,0,0,1-1.11-.64,1.18,1.18,0,0,1-.29-.83,1.08,1.08,0,0,1,.49-.95,2.34,2.34,0,0,1,1.34-.34,3.8,3.8,0,0,1,1.59.34l-.33.76a3.54,3.54,0,0,0-1.29-.32q-.8,0-.8.46a.46.46,0,0,0,.21.38,4.6,4.6,0,0,0,.91.43,4.19,4.19,0,0,1,.86.42,1.16,1.16,0,0,1,.53,1Z"/><path class="cls-3" d="M112.65,47.78h-1.16v4h-1v-4h-.78V47.3l.78-.31v-.31a1.74,1.74,0,0,1,.4-1.25,1.62,1.62,0,0,1,1.21-.41,3.24,3.24,0,0,1,1,.18l-.27.77a2.34,2.34,0,0,0-.71-.12.58.58,0,0,0-.5.21,1.07,1.07,0,0,0-.16.64V47h1.16Zm.75-2a.56.56,0,0,1,.15-.42.58.58,0,0,1,.42-.15.57.57,0,0,1,.42.15.56.56,0,0,1,.15.42.55.55,0,0,1-.15.41.57.57,0,0,1-.42.15.57.57,0,0,1-.42-.15A.55.55,0,0,1,113.4,45.75Zm1.07,6h-1V47h1Z"/><path class="cls-3" d="M118,51.86a2.3,2.3,0,0,1-1.74-.65,2.46,2.46,0,0,1-.63-1.78,2.7,2.7,0,0,1,.58-1.83,2,2,0,0,1,1.6-.67,2,2,0,0,1,1.49.57,2.19,2.19,0,0,1,.55,1.58v.55h-3.17a1.57,1.57,0,0,0,.38,1.07,1.3,1.3,0,0,0,1,.37,3.7,3.7,0,0,0,.79-.08,4.22,4.22,0,0,0,.78-.26v.82a3.14,3.14,0,0,1-.75.25A4.59,4.59,0,0,1,118,51.86Zm-.19-4.17A1,1,0,0,0,117,48a1.45,1.45,0,0,0-.35.89h2.16a1.32,1.32,0,0,0-.28-.89A1,1,0,0,0,117.81,47.69Z"/><path class="cls-3" d="M122,51.77h-1v-6.7h1Z"/><path class="cls-3" d="M125.06,51.86a1.66,1.66,0,0,1-1.39-.65,3.54,3.54,0,0,1,0-3.64,1.67,1.67,0,0,1,1.4-.65,1.64,1.64,0,0,1,1.43.69h.05a6.05,6.05,0,0,1-.07-.81V45.07h1v6.7h-.79l-.18-.62h0A1.62,1.62,0,0,1,125.06,51.86Zm.27-.82a1.1,1.1,0,0,0,.91-.35,1.85,1.85,0,0,0,.29-1.14v-.14a2.13,2.13,0,0,0-.29-1.28,1.08,1.08,0,0,0-.92-.38.93.93,0,0,0-.82.43,2.21,2.21,0,0,0-.29,1.23,2.16,2.16,0,0,0,.28,1.21A.94.94,0,0,0,125.33,51Z"/><path class="cls-4" d="M75.47,80.15l-1.83-5.26h0q.07,1.17.07,2.2v3.06h-.93V73.86H74.2l1.75,5h0l1.8-5h1.46v6.29h-1V77q0-.47,0-1.22c0-.5,0-.81,0-.91h0l-1.89,5.25Z"/><path class="cls-4" d="M82.85,80.24a2.3,2.3,0,0,1-1.74-.65,2.46,2.46,0,0,1-.63-1.78A2.7,2.7,0,0,1,81.07,76a2,2,0,0,1,1.6-.67,2,2,0,0,1,1.49.57,2.19,2.19,0,0,1,.55,1.58V78H81.53a1.57,1.57,0,0,0,.38,1.07,1.3,1.3,0,0,0,1,.37,3.7,3.7,0,0,0,.79-.08,4.22,4.22,0,0,0,.78-.26v.82a3.14,3.14,0,0,1-.75.25A4.59,4.59,0,0,1,82.85,80.24Zm-.19-4.17a1,1,0,0,0-.77.31,1.45,1.45,0,0,0-.35.89h2.16a1.32,1.32,0,0,0-.28-.89A1,1,0,0,0,82.67,76.07Z"/><path class="cls-4" d="M88.27,75.3a2.39,2.39,0,0,1,.5,0l-.1.94a1.93,1.93,0,0,0-.45-.05,1.29,1.29,0,0,0-1,.4,1.43,1.43,0,0,0-.38,1v2.49h-1V75.39h.79l.13.84h.05a1.9,1.9,0,0,1,.62-.68A1.47,1.47,0,0,1,88.27,75.3Z"/><path class="cls-4" d="M93.68,75.39v.55l-.81.15a1.3,1.3,0,0,1,.19.37,1.46,1.46,0,0,1,.07.46,1.42,1.42,0,0,1-.51,1.16,2.13,2.13,0,0,1-1.4.42,2.22,2.22,0,0,1-.41,0,.57.57,0,0,0-.33.47.26.26,0,0,0,.15.25,1.32,1.32,0,0,0,.56.08H92a1.85,1.85,0,0,1,1.2.34,1.18,1.18,0,0,1,.41,1A1.41,1.41,0,0,1,93,81.83a3.51,3.51,0,0,1-1.93.44,2.66,2.66,0,0,1-1.49-.34,1.11,1.11,0,0,1-.51-1,1,1,0,0,1,.28-.74,1.48,1.48,0,0,1,.78-.42.76.76,0,0,1-.33-.28.72.72,0,0,1,0-.85,1.72,1.72,0,0,1,.45-.37,1.33,1.33,0,0,1-.6-.52,1.53,1.53,0,0,1-.23-.84,1.51,1.51,0,0,1,.49-1.2,2.05,2.05,0,0,1,1.39-.43l.42,0,.33.06Zm-3.74,5.5a.56.56,0,0,0,.29.5,1.62,1.62,0,0,0,.83.18,2.5,2.5,0,0,0,1.23-.24.71.71,0,0,0,.41-.63.47.47,0,0,0-.22-.44,1.78,1.78,0,0,0-.83-.13h-.77a1.08,1.08,0,0,0-.69.21A.67.67,0,0,0,89.94,80.89Zm.43-4a1,1,0,0,0,.23.69.87.87,0,0,0,.66.24q.88,0,.88-.94a1.06,1.06,0,0,0-.22-.72.82.82,0,0,0-.66-.25.85.85,0,0,0-.67.25A1,1,0,0,0,90.37,76.93Z"/><path class="cls-4" d="M96.64,80.24a2.3,2.3,0,0,1-1.74-.65,2.46,2.46,0,0,1-.63-1.78A2.7,2.7,0,0,1,94.86,76a2,2,0,0,1,1.6-.67,2,2,0,0,1,1.49.57,2.19,2.19,0,0,1,.55,1.58V78H95.32a1.57,1.57,0,0,0,.38,1.07,1.3,1.3,0,0,0,1,.37,3.7,3.7,0,0,0,.79-.08,4.22,4.22,0,0,0,.78-.26v.82a3.14,3.14,0,0,1-.75.25A4.59,4.59,0,0,1,96.64,80.24Zm-.19-4.17a1,1,0,0,0-.77.31,1.45,1.45,0,0,0-.35.89h2.16a1.32,1.32,0,0,0-.28-.89A1,1,0,0,0,96.45,76.07Z"/><path class="cls-4" d="M104.32,76.16h-1.16v4h-1v-4h-.78v-.47l.78-.31v-.31a1.74,1.74,0,0,1,.4-1.25,1.62,1.62,0,0,1,1.21-.41,3.24,3.24,0,0,1,1,.18l-.27.77a2.34,2.34,0,0,0-.71-.12.58.58,0,0,0-.5.21,1.07,1.07,0,0,0-.16.64v.31h1.16Zm.75-2a.56.56,0,0,1,.15-.42.58.58,0,0,1,.42-.15.57.57,0,0,1,.42.15.56.56,0,0,1,.15.42.55.55,0,0,1-.15.41.57.57,0,0,1-.42.15.57.57,0,0,1-.42-.15A.55.55,0,0,1,105.07,74.13Zm1.07,6h-1V75.39h1Z"/><path class="cls-4" d="M109.67,80.24a2.3,2.3,0,0,1-1.74-.65,2.46,2.46,0,0,1-.63-1.78,2.7,2.7,0,0,1,.58-1.83,2,2,0,0,1,1.6-.67,2,2,0,0,1,1.49.57,2.19,2.19,0,0,1,.55,1.58V78h-3.17a1.57,1.57,0,0,0,.38,1.07,1.3,1.3,0,0,0,1,.37,3.7,3.7,0,0,0,.79-.08,4.22,4.22,0,0,0,.78-.26v.82a3.14,3.14,0,0,1-.75.25A4.59,4.59,0,0,1,109.67,80.24Zm-.19-4.17a1,1,0,0,0-.77.31,1.45,1.45,0,0,0-.35.89h2.16a1.32,1.32,0,0,0-.28-.89A1,1,0,0,0,109.48,76.07Z"/><path class="cls-4" d="M113.68,80.15h-1v-6.7h1Z"/><path class="cls-4" d="M116.73,80.24a1.66,1.66,0,0,1-1.39-.65,3.54,3.54,0,0,1,0-3.64,1.67,1.67,0,0,1,1.4-.65,1.64,1.64,0,0,1,1.43.69h.05a6.05,6.05,0,0,1-.07-.81V73.45h1v6.7h-.79l-.18-.62h0A1.62,1.62,0,0,1,116.73,80.24Zm.27-.82a1.1,1.1,0,0,0,.91-.35,1.85,1.85,0,0,0,.29-1.14v-.14a2.13,2.13,0,0,0-.29-1.28,1.08,1.08,0,0,0-.92-.38.93.93,0,0,0-.82.43,2.21,2.21,0,0,0-.29,1.23,2.16,2.16,0,0,0,.28,1.21A.94.94,0,0,0,117,79.42Z"/><path class="cls-4" d="M123.82,78.79a1.25,1.25,0,0,1-.51,1.07,2.44,2.44,0,0,1-1.46.37,3.44,3.44,0,0,1-1.53-.29v-.87a3.76,3.76,0,0,0,1.56.39q.93,0,.93-.56a.45.45,0,0,0-.1-.3,1.21,1.21,0,0,0-.34-.25,5.87,5.87,0,0,0-.66-.29,3,3,0,0,1-1.11-.64,1.18,1.18,0,0,1-.29-.83,1.08,1.08,0,0,1,.49-.95,2.34,2.34,0,0,1,1.34-.34,3.8,3.8,0,0,1,1.59.34l-.33.76a3.54,3.54,0,0,0-1.29-.32q-.8,0-.8.46a.46.46,0,0,0,.21.38,4.6,4.6,0,0,0,.91.43,4.19,4.19,0,0,1,.86.42,1.16,1.16,0,0,1,.53,1Z"/><path class="cls-4" d="M77.86,105.82A3.14,3.14,0,0,1,77,108.2a3.48,3.48,0,0,1-2.49.82H72.75v-6.29h1.95a3.22,3.22,0,0,1,2.34.81A3,3,0,0,1,77.86,105.82Zm-1.08,0q0-2.26-2.11-2.26h-.89v4.57h.73A2,2,0,0,0,76.78,105.85Z"/><path class="cls-4" d="M81.19,109.11a2.3,2.3,0,0,1-1.74-.65,2.46,2.46,0,0,1-.63-1.78,2.7,2.7,0,0,1,.58-1.83,2,2,0,0,1,1.6-.67,2,2,0,0,1,1.49.57,2.19,2.19,0,0,1,.55,1.58v.55H79.87a1.57,1.57,0,0,0,.38,1.07,1.3,1.3,0,0,0,1,.37,3.7,3.7,0,0,0,.79-.08,4.22,4.22,0,0,0,.78-.26v.82a3.14,3.14,0,0,1-.75.25A4.59,4.59,0,0,1,81.19,109.11ZM81,104.95a1,1,0,0,0-.77.31,1.45,1.45,0,0,0-.35.89H82a1.32,1.32,0,0,0-.28-.89A1,1,0,0,0,81,104.95Z"/><path class="cls-4" d="M85.2,109h-1v-6.7h1Z"/><path class="cls-4" d="M88.73,109.11a2.3,2.3,0,0,1-1.74-.65,2.46,2.46,0,0,1-.63-1.78,2.7,2.7,0,0,1,.58-1.83,2,2,0,0,1,1.6-.67,2,2,0,0,1,1.49.57,2.19,2.19,0,0,1,.55,1.58v.55H87.4a1.57,1.57,0,0,0,.38,1.07,1.3,1.3,0,0,0,1,.37,3.7,3.7,0,0,0,.79-.08,4.22,4.22,0,0,0,.78-.26v.82a3.14,3.14,0,0,1-.75.25A4.59,4.59,0,0,1,88.73,109.11Zm-.19-4.17a1,1,0,0,0-.77.31,1.45,1.45,0,0,0-.35.89h2.16a1.32,1.32,0,0,0-.28-.89A1,1,0,0,0,88.54,104.95Z"/><path class="cls-4" d="M93.5,108.3a2.47,2.47,0,0,0,.74-.12v.76a2,2,0,0,1-.43.12,3,3,0,0,1-.55,0q-1.44,0-1.44-1.51V105h-.65v-.45l.7-.37.34-1h.62v1.06h1.36V105H92.84v2.55a.71.71,0,0,0,.18.54A.67.67,0,0,0,93.5,108.3Z"/><path class="cls-4" d="M97.27,109.11a2.3,2.3,0,0,1-1.74-.65,2.46,2.46,0,0,1-.63-1.78,2.7,2.7,0,0,1,.58-1.83,2,2,0,0,1,1.6-.67,2,2,0,0,1,1.49.57,2.19,2.19,0,0,1,.55,1.58v.55H95.95a1.57,1.57,0,0,0,.38,1.07,1.3,1.3,0,0,0,1,.37,3.7,3.7,0,0,0,.79-.08,4.22,4.22,0,0,0,.78-.26v.82a3.14,3.14,0,0,1-.75.25A4.59,4.59,0,0,1,97.27,109.11Zm-.19-4.17a1,1,0,0,0-.77.31,1.45,1.45,0,0,0-.35.89h2.16a1.32,1.32,0,0,0-.28-.89A1,1,0,0,0,97.08,104.95Z"/><path class="cls-4" d="M104.95,105h-1.16v4h-1v-4H102v-.47l.78-.31v-.31a1.74,1.74,0,0,1,.4-1.25,1.62,1.62,0,0,1,1.21-.41,3.24,3.24,0,0,1,1,.18l-.27.77a2.34,2.34,0,0,0-.71-.12.58.58,0,0,0-.5.21,1.07,1.07,0,0,0-.16.64v.31h1.16Zm.75-2a.56.56,0,0,1,.15-.42.58.58,0,0,1,.42-.15.57.57,0,0,1,.42.15.56.56,0,0,1,.15.42.55.55,0,0,1-.15.41.57.57,0,0,1-.42.15.57.57,0,0,1-.42-.15A.55.55,0,0,1,105.7,103Zm1.07,6h-1v-4.76h1Z"/><path class="cls-4" d="M110.3,109.11a2.3,2.3,0,0,1-1.74-.65,2.46,2.46,0,0,1-.63-1.78,2.7,2.7,0,0,1,.58-1.83,2,2,0,0,1,1.6-.67,2,2,0,0,1,1.49.57,2.19,2.19,0,0,1,.55,1.58v.55H109a1.57,1.57,0,0,0,.38,1.07,1.3,1.3,0,0,0,1,.37,3.7,3.7,0,0,0,.79-.08,4.22,4.22,0,0,0,.78-.26v.82a3.14,3.14,0,0,1-.75.25A4.59,4.59,0,0,1,110.3,109.11Zm-.19-4.17a1,1,0,0,0-.77.31,1.45,1.45,0,0,0-.35.89h2.16a1.32,1.32,0,0,0-.28-.89A1,1,0,0,0,110.11,104.95Z"/><path class="cls-4" d="M114.31,109h-1v-6.7h1Z"/><path class="cls-4" d="M117.36,109.11a1.66,1.66,0,0,1-1.39-.65,3.54,3.54,0,0,1,0-3.64,1.67,1.67,0,0,1,1.4-.65,1.64,1.64,0,0,1,1.43.69h.05a6.05,6.05,0,0,1-.07-.81v-1.74h1V109H119l-.18-.62h0A1.62,1.62,0,0,1,117.36,109.11Zm.27-.82a1.1,1.1,0,0,0,.91-.35,1.85,1.85,0,0,0,.29-1.14v-.14a2.13,2.13,0,0,0-.29-1.28,1.08,1.08,0,0,0-.92-.38.93.93,0,0,0-.82.43,2.21,2.21,0,0,0-.29,1.23,2.16,2.16,0,0,0,.28,1.21A.94.94,0,0,0,117.63,108.3Z"/><path class="cls-4" d="M50.26,217.34H46.89v-6h3.38v.82h-2.4v1.63h2.25v.82H47.86v1.87h2.4Z"/><path class="cls-4" d="M53,217.42a1.57,1.57,0,0,1-1.32-.61,3.36,3.36,0,0,1,0-3.45,1.59,1.59,0,0,1,1.33-.62,1.56,1.56,0,0,1,1.36.66h0a5.82,5.82,0,0,1-.07-.77V211h1v6.35h-.75l-.17-.59h0A1.53,1.53,0,0,1,53,217.42Zm.26-.78a1,1,0,0,0,.86-.33,1.75,1.75,0,0,0,.28-1.08v-.13a2,2,0,0,0-.28-1.21,1,1,0,0,0-.87-.36.88.88,0,0,0-.78.41,2.1,2.1,0,0,0-.27,1.17,2,2,0,0,0,.27,1.15A.9.9,0,0,0,53.23,216.65Z"/><path class="cls-4" d="M56.61,211.63a.53.53,0,0,1,.14-.4.55.55,0,0,1,.4-.14.54.54,0,0,1,.39.14.53.53,0,0,1,.14.4.52.52,0,0,1-.14.39.53.53,0,0,1-.39.14.54.54,0,0,1-.4-.14A.52.52,0,0,1,56.61,211.63Zm1,5.71h-1v-4.52h1Z"/><path class="cls-4" d="M60.68,216.65a2.31,2.31,0,0,0,.7-.11v.72a2,2,0,0,1-.41.12,2.84,2.84,0,0,1-.52,0q-1.36,0-1.36-1.44v-2.43h-.62v-.42l.66-.35.33-1H60v1h1.29v.73H60V216a.68.68,0,0,0,.17.51A.63.63,0,0,0,60.68,216.65Z"/><path class="cls-4" d="M68.51,213.18a1.74,1.74,0,0,1-.61,1.43,2.7,2.7,0,0,1-1.74.5h-.62v2.23h-1v-6h1.72a2.6,2.6,0,0,1,1.68.46A1.64,1.64,0,0,1,68.51,213.18Zm-3,1.11H66a1.85,1.85,0,0,0,1.1-.26,1,1,0,0,0,.35-.82.93.93,0,0,0-.31-.77,1.55,1.55,0,0,0-1-.25h-.68Z"/><path class="cls-4" d="M71.57,217.42a2.18,2.18,0,0,1-1.65-.62,2.33,2.33,0,0,1-.59-1.69,2.56,2.56,0,0,1,.55-1.74,1.9,1.9,0,0,1,1.51-.63,1.86,1.86,0,0,1,1.41.54,2.08,2.08,0,0,1,.52,1.5v.52h-3a1.48,1.48,0,0,0,.36,1,1.24,1.24,0,0,0,.94.35,3.52,3.52,0,0,0,.75-.08,4,4,0,0,0,.74-.25v.78a3,3,0,0,1-.71.24A4.39,4.39,0,0,1,71.57,217.42Zm-.18-4a1,1,0,0,0-.73.29,1.38,1.38,0,0,0-.33.85h2a1.25,1.25,0,0,0-.27-.85A.92.92,0,0,0,71.39,213.47Z"/><path class="cls-4" d="M76.71,212.74a2.3,2.3,0,0,1,.48,0l-.09.89a1.79,1.79,0,0,0-.42,0,1.23,1.23,0,0,0-.93.38,1.36,1.36,0,0,0-.36,1v2.36h-1v-4.52h.75l.13.8h0a1.78,1.78,0,0,1,.59-.64A1.39,1.39,0,0,1,76.71,212.74Z"/><path class="cls-4" d="M81.82,217.34h-1v-2.78a1.27,1.27,0,0,0-.2-.77.72.72,0,0,0-.61-.25.93.93,0,0,0-.81.36,2.12,2.12,0,0,0-.26,1.2v2.25H78v-4.52h.75l.13.59h0a1.25,1.25,0,0,1,.54-.5,1.76,1.76,0,0,1,.79-.18,1.37,1.37,0,0,1,1.38.71h.06a1.38,1.38,0,0,1,.56-.52,1.79,1.79,0,0,1,.83-.19,1.52,1.52,0,0,1,1.18.41,1.81,1.81,0,0,1,.37,1.25v2.94h-1v-2.78a1.26,1.26,0,0,0-.2-.77.73.73,0,0,0-.61-.25,1,1,0,0,0-.82.35,1.8,1.8,0,0,0-.26,1.07Z"/><path class="cls-4" d="M86,211.63a.53.53,0,0,1,.14-.4.55.55,0,0,1,.4-.14.54.54,0,0,1,.39.14.53.53,0,0,1,.14.4.52.52,0,0,1-.14.39.53.53,0,0,1-.39.14.54.54,0,0,1-.4-.14A.52.52,0,0,1,86,211.63Zm1,5.71H86v-4.52h1Z"/><path class="cls-4" d="M91.38,216.05a1.18,1.18,0,0,1-.48,1,2.31,2.31,0,0,1-1.38.35,3.27,3.27,0,0,1-1.45-.27v-.83a3.56,3.56,0,0,0,1.48.37q.89,0,.89-.54a.42.42,0,0,0-.1-.29,1.17,1.17,0,0,0-.32-.24,5.68,5.68,0,0,0-.62-.28,2.89,2.89,0,0,1-1.06-.6,1.12,1.12,0,0,1-.28-.78,1,1,0,0,1,.47-.9,2.22,2.22,0,0,1,1.27-.32,3.61,3.61,0,0,1,1.51.32l-.31.72a3.34,3.34,0,0,0-1.23-.3q-.76,0-.76.43a.43.43,0,0,0,.2.36,4.28,4.28,0,0,0,.86.4,3.93,3.93,0,0,1,.81.4,1.1,1.1,0,0,1,.5,1Z"/><path class="cls-4" d="M95.45,216.05a1.18,1.18,0,0,1-.48,1,2.31,2.31,0,0,1-1.38.35,3.27,3.27,0,0,1-1.45-.27v-.83a3.56,3.56,0,0,0,1.48.37q.89,0,.89-.54a.42.42,0,0,0-.1-.29,1.17,1.17,0,0,0-.32-.24,5.68,5.68,0,0,0-.62-.28,2.89,2.89,0,0,1-1.06-.6,1.12,1.12,0,0,1-.28-.78,1,1,0,0,1,.47-.9,2.22,2.22,0,0,1,1.27-.32,3.61,3.61,0,0,1,1.51.32l-.31.72a3.34,3.34,0,0,0-1.23-.3q-.76,0-.76.43a.43.43,0,0,0,.2.36,4.28,4.28,0,0,0,.86.4,3.93,3.93,0,0,1,.81.4,1.1,1.1,0,0,1,.5,1Z"/><path class="cls-4" d="M96.43,211.63a.53.53,0,0,1,.14-.4.55.55,0,0,1,.4-.14.54.54,0,0,1,.39.14.53.53,0,0,1,.14.4.52.52,0,0,1-.14.39.53.53,0,0,1-.39.14.54.54,0,0,1-.4-.14A.52.52,0,0,1,96.43,211.63Zm1,5.71h-1v-4.52h1Z"/><path class="cls-4" d="M102.82,215.08a2.46,2.46,0,0,1-.57,1.73,2,2,0,0,1-1.58.62,2.17,2.17,0,0,1-1.12-.29,1.89,1.89,0,0,1-.75-.82,2.79,2.79,0,0,1-.26-1.24,2.45,2.45,0,0,1,.56-1.71,2,2,0,0,1,1.59-.62,2,2,0,0,1,1.55.63A2.44,2.44,0,0,1,102.82,215.08Zm-3.29,0q0,1.56,1.16,1.56t1.14-1.56q0-1.55-1.15-1.55a1,1,0,0,0-.88.4A2,2,0,0,0,99.54,215.08Z"/><path class="cls-4" d="M107.9,217.34h-1v-2.78a1.21,1.21,0,0,0-.21-.78.81.81,0,0,0-.67-.26,1.06,1.06,0,0,0-.89.36,2,2,0,0,0-.28,1.2v2.25h-1v-4.52h.75l.13.59h0a1.33,1.33,0,0,1,.58-.5,1.94,1.94,0,0,1,.83-.18,1.45,1.45,0,0,1,1.63,1.65Z"/><path class="cls-4" d="M112.27,216.05a1.18,1.18,0,0,1-.48,1,2.31,2.31,0,0,1-1.38.35,3.27,3.27,0,0,1-1.45-.27v-.83a3.56,3.56,0,0,0,1.48.37q.89,0,.89-.54a.42.42,0,0,0-.1-.29,1.17,1.17,0,0,0-.32-.24,5.68,5.68,0,0,0-.62-.28,2.89,2.89,0,0,1-1.06-.6,1.12,1.12,0,0,1-.28-.78,1,1,0,0,1,.47-.9,2.22,2.22,0,0,1,1.27-.32,3.61,3.61,0,0,1,1.51.32l-.31.72a3.34,3.34,0,0,0-1.23-.3q-.76,0-.76.43a.43.43,0,0,0,.2.36,4.28,4.28,0,0,0,.86.4,3.93,3.93,0,0,1,.81.4,1.1,1.1,0,0,1,.5,1Z"/><rect class="cls-5" x="1" y="19.96" width="229.56" height="0.53"/><path class="cls-6" d="M49,175.68a1.37,1.37,0,0,1-.32.94,1.61,1.61,0,0,1-.91.49v0a1.72,1.72,0,0,1,1.07.46,1.36,1.36,0,0,1,.35,1,1.57,1.57,0,0,1-.6,1.32,2.71,2.71,0,0,1-1.69.46,4.91,4.91,0,0,1-.87-.07,3,3,0,0,1-.77-.25v-.65a3.94,3.94,0,0,0,1.67.39q1.56,0,1.56-1.22t-1.72-1.09h-.59v-.59h.6a1.81,1.81,0,0,0,1.11-.31,1,1,0,0,0,.41-.86A.85.85,0,0,0,48,175a1.24,1.24,0,0,0-.82-.25,2.56,2.56,0,0,0-.74.11,3.34,3.34,0,0,0-.8.39l-.34-.46a2.89,2.89,0,0,1,.85-.46,3.11,3.11,0,0,1,1-.17,2.08,2.08,0,0,1,1.36.4A1.35,1.35,0,0,1,49,175.68Z"/><path class="cls-6" d="M54.64,175.69a2.65,2.65,0,0,1,.54,0l-.09.63a2.32,2.32,0,0,0-.49-.06,1.2,1.2,0,0,0-.93.44,1.62,1.62,0,0,0-.39,1.1v2.41h-.68v-4.5h.56l.08.83h0a2,2,0,0,1,.6-.68A1.36,1.36,0,0,1,54.64,175.69Z"/><path class="cls-6" d="M59.91,178a2.48,2.48,0,0,1-.55,1.72,2,2,0,0,1-1.53.62,2,2,0,0,1-1.07-.28,1.87,1.87,0,0,1-.72-.81,2.84,2.84,0,0,1-.25-1.24,2.48,2.48,0,0,1,.55-1.71,2,2,0,0,1,1.53-.61,1.91,1.91,0,0,1,1.5.63A2.47,2.47,0,0,1,59.91,178Zm-3.43,0a2.13,2.13,0,0,0,.35,1.31,1.37,1.37,0,0,0,2,0A2.12,2.12,0,0,0,59.2,178a2.09,2.09,0,0,0-.35-1.3,1.22,1.22,0,0,0-1-.45,1.2,1.2,0,0,0-1,.44A2.12,2.12,0,0,0,56.48,178Z"/><path class="cls-6" d="M63.87,180.27l-.14-.64h0a1.9,1.9,0,0,1-.67.57,2.05,2.05,0,0,1-.84.15,1.51,1.51,0,0,1-1-.34,1.26,1.26,0,0,1-.38-1q0-1.36,2.18-1.43l.76,0v-.28a1.14,1.14,0,0,0-.23-.78.94.94,0,0,0-.73-.25,3,3,0,0,0-1.27.35l-.21-.52a3.27,3.27,0,0,1,1.52-.39,1.71,1.71,0,0,1,1.19.36,1.49,1.49,0,0,1,.39,1.15v3.07Zm-1.54-.48a1.38,1.38,0,0,0,1-.35,1.29,1.29,0,0,0,.36-1v-.41l-.68,0a2.48,2.48,0,0,0-1.17.25.76.76,0,0,0-.36.7.7.7,0,0,0,.22.56A.93.93,0,0,0,62.33,179.79Z"/><path class="cls-6" d="M68.84,179.67h0a1.6,1.6,0,0,1-1.41.69,1.67,1.67,0,0,1-1.37-.6,2.66,2.66,0,0,1-.49-1.72A2.7,2.7,0,0,1,66,176.3a1.66,1.66,0,0,1,1.37-.62,1.64,1.64,0,0,1,1.4.67h.05l0-.32,0-.32v-1.83h.68v6.39h-.55Zm-1.36.12a1.24,1.24,0,0,0,1-.38,1.92,1.92,0,0,0,.31-1.23V178a2.26,2.26,0,0,0-.32-1.37,1.21,1.21,0,0,0-1-.41,1,1,0,0,0-.92.47,2.31,2.31,0,0,0-.32,1.32,2.22,2.22,0,0,0,.32,1.3A1.07,1.07,0,0,0,67.48,179.78Z"/><path class="cls-6" d="M76.67,180.27v-2.93a1.22,1.22,0,0,0-.23-.81.89.89,0,0,0-.71-.27,1.16,1.16,0,0,0-.94.37,1.74,1.74,0,0,0-.3,1.13v2.51H73.8v-2.93a1.22,1.22,0,0,0-.23-.81.9.9,0,0,0-.72-.27,1.11,1.11,0,0,0-.94.38,2.08,2.08,0,0,0-.3,1.26v2.36h-.68v-4.5h.55l.11.62h0a1.34,1.34,0,0,1,.54-.51,1.66,1.66,0,0,1,.79-.18,1.34,1.34,0,0,1,1.38.76h0a1.44,1.44,0,0,1,.58-.56,1.81,1.81,0,0,1,.87-.21,1.52,1.52,0,0,1,1.14.39,1.75,1.75,0,0,1,.38,1.25v2.94Z"/><path class="cls-6" d="M81.52,180.27l-.14-.64h0a1.9,1.9,0,0,1-.67.57,2.05,2.05,0,0,1-.84.15,1.51,1.51,0,0,1-1-.34,1.26,1.26,0,0,1-.38-1q0-1.36,2.18-1.43l.76,0v-.28a1.14,1.14,0,0,0-.23-.78.94.94,0,0,0-.73-.25,3,3,0,0,0-1.27.35l-.21-.52a3.27,3.27,0,0,1,1.52-.39,1.71,1.71,0,0,1,1.19.36A1.49,1.49,0,0,1,82,177.2v3.07ZM80,179.79a1.38,1.38,0,0,0,1-.35,1.29,1.29,0,0,0,.36-1v-.41l-.68,0a2.48,2.48,0,0,0-1.17.25.76.76,0,0,0-.36.7.7.7,0,0,0,.22.56A.93.93,0,0,0,80,179.79Z"/><path class="cls-6" d="M85.52,180.35a1.94,1.94,0,0,1-.8-.16,1.51,1.51,0,0,1-.61-.5h0a6.06,6.06,0,0,1,0,.75v1.85h-.68v-6.52H84l.09.62h0a1.58,1.58,0,0,1,.61-.53,1.86,1.86,0,0,1,.8-.16,1.66,1.66,0,0,1,1.38.61,3.26,3.26,0,0,1,0,3.44A1.67,1.67,0,0,1,85.52,180.35Zm-.1-4.08a1.21,1.21,0,0,0-1,.38,2,2,0,0,0-.32,1.21V178a2.25,2.25,0,0,0,.32,1.36,1.2,1.2,0,0,0,1,.41,1.05,1.05,0,0,0,.91-.47,2.24,2.24,0,0,0,.33-1.3,2.16,2.16,0,0,0-.33-1.29A1.09,1.09,0,0,0,85.42,176.27Z"/><path class="cls-6" d="M91.49,179a1.13,1.13,0,0,1-.47,1,2.2,2.2,0,0,1-1.31.34,2.86,2.86,0,0,1-1.4-.28v-.63a3.34,3.34,0,0,0,.7.26,2.88,2.88,0,0,0,.72.09,1.63,1.63,0,0,0,.82-.17.59.59,0,0,0,.06-1,3.61,3.61,0,0,0-.89-.44,4.8,4.8,0,0,1-.89-.41,1.22,1.22,0,0,1-.39-.4,1,1,0,0,1-.13-.53,1,1,0,0,1,.45-.87,2.09,2.09,0,0,1,1.23-.32,3.59,3.59,0,0,1,1.42.3l-.24.55a3.27,3.27,0,0,0-1.23-.28,1.41,1.41,0,0,0-.73.15.47.47,0,0,0-.25.42.51.51,0,0,0,.09.31.9.9,0,0,0,.3.24,6.6,6.6,0,0,0,.79.33,2.94,2.94,0,0,1,1.08.59A1,1,0,0,1,91.49,179Z"/><path class="cls-6" d="M95.42,175.77v2.92a1.17,1.17,0,0,0,.25.82,1,1,0,0,0,.78.27,1.28,1.28,0,0,0,1-.39,2,2,0,0,0,.33-1.26v-2.37h.68v4.5h-.56l-.1-.6h0a1.35,1.35,0,0,1-.58.51,2,2,0,0,1-.85.18,1.72,1.72,0,0,1-1.23-.39,1.66,1.66,0,0,1-.41-1.25v-2.94Z"/><path class="cls-6" d="M102.84,179a1.13,1.13,0,0,1-.47,1,2.2,2.2,0,0,1-1.31.34,2.86,2.86,0,0,1-1.4-.28v-.63a3.34,3.34,0,0,0,.7.26,2.88,2.88,0,0,0,.72.09,1.63,1.63,0,0,0,.82-.17.59.59,0,0,0,.06-1,3.61,3.61,0,0,0-.89-.44,4.8,4.8,0,0,1-.89-.41,1.22,1.22,0,0,1-.39-.4,1,1,0,0,1-.13-.53,1,1,0,0,1,.45-.87,2.09,2.09,0,0,1,1.23-.32,3.59,3.59,0,0,1,1.42.3l-.24.55a3.27,3.27,0,0,0-1.23-.28,1.41,1.41,0,0,0-.73.15.47.47,0,0,0-.25.42.51.51,0,0,0,.09.31.9.9,0,0,0,.3.24,6.6,6.6,0,0,0,.79.33,2.94,2.94,0,0,1,1.08.59A1,1,0,0,1,102.84,179Z"/><path class="cls-6" d="M105.85,180.35a2.07,2.07,0,0,1-1.57-.61,2.35,2.35,0,0,1-.58-1.69,2.61,2.61,0,0,1,.54-1.73,1.78,1.78,0,0,1,1.44-.64,1.7,1.7,0,0,1,1.34.56,2.13,2.13,0,0,1,.49,1.47v.43h-3.1a1.78,1.78,0,0,0,.4,1.2,1.38,1.38,0,0,0,1.07.41,3.61,3.61,0,0,0,1.44-.3v.61a3.69,3.69,0,0,1-.68.22A3.86,3.86,0,0,1,105.85,180.35Zm-.18-4.09a1.11,1.11,0,0,0-.86.35,1.63,1.63,0,0,0-.38,1h2.35a1.5,1.5,0,0,0-.29-1A1,1,0,0,0,105.67,176.26Z"/><path class="cls-6" d="M112.3,179.79l.35,0,.27-.06v.52a1.24,1.24,0,0,1-.33.09,2.43,2.43,0,0,1-.39,0q-1.31,0-1.31-1.37V176.3h-.64V176l.64-.28.29-1h.39v1h1.31v.53h-1.31v2.65a.91.91,0,0,0,.19.62A.67.67,0,0,0,112.3,179.79Z"/><path class="cls-6" d="M116.9,180.27v-2.91a1.18,1.18,0,0,0-.25-.82,1,1,0,0,0-.78-.27,1.29,1.29,0,0,0-1,.39,2,2,0,0,0-.33,1.26v2.35h-.68v-6.39h.68v1.93a4.19,4.19,0,0,1,0,.58h0a1.39,1.39,0,0,1,.57-.51,1.86,1.86,0,0,1,.85-.19,1.73,1.73,0,0,1,1.24.39,1.65,1.65,0,0,1,.41,1.25v2.94Z"/><path class="cls-6" d="M118.92,174.55a.46.46,0,0,1,.12-.34.42.42,0,0,1,.57,0,.44.44,0,0,1,.12.34.45.45,0,0,1-.12.34.42.42,0,0,1-.57,0A.46.46,0,0,1,118.92,174.55Zm.74,5.72H119v-4.5h.68Z"/><path class="cls-6" d="M124,179a1.13,1.13,0,0,1-.47,1,2.2,2.2,0,0,1-1.31.34,2.86,2.86,0,0,1-1.4-.28v-.63a3.33,3.33,0,0,0,.7.26,2.88,2.88,0,0,0,.72.09,1.63,1.63,0,0,0,.82-.17.59.59,0,0,0,.06-1,3.61,3.61,0,0,0-.89-.44,4.81,4.81,0,0,1-.89-.41,1.22,1.22,0,0,1-.39-.4,1,1,0,0,1-.13-.53,1,1,0,0,1,.45-.87,2.09,2.09,0,0,1,1.23-.32,3.59,3.59,0,0,1,1.42.3l-.24.55a3.28,3.28,0,0,0-1.23-.28,1.41,1.41,0,0,0-.73.15.47.47,0,0,0-.25.42.51.51,0,0,0,.09.31.9.9,0,0,0,.3.24,6.6,6.6,0,0,0,.79.33,3,3,0,0,1,1.08.59A1,1,0,0,1,124,179Z"/><path class="cls-6" d="M129.33,176.3h-1.15v4h-.68v-4h-.8V176l.8-.25v-.25q0-1.66,1.45-1.66a3,3,0,0,1,.84.14l-.18.55a2.25,2.25,0,0,0-.67-.13.66.66,0,0,0-.57.26,1.43,1.43,0,0,0-.18.82v.29h1.15Zm.76-1.75a.45.45,0,0,1,.12-.34.42.42,0,0,1,.57,0,.44.44,0,0,1,.12.34.45.45,0,0,1-.12.34.4.4,0,0,1-.28.11.39.39,0,0,1-.29-.11A.46.46,0,0,1,130.09,174.55Zm.74,5.72h-.68v-4.5h.68Z"/><path class="cls-6" d="M134.18,180.35a2.07,2.07,0,0,1-1.57-.61,2.35,2.35,0,0,1-.58-1.69,2.61,2.61,0,0,1,.54-1.73,1.78,1.78,0,0,1,1.44-.64,1.7,1.7,0,0,1,1.34.56,2.13,2.13,0,0,1,.49,1.47v.43h-3.1a1.78,1.78,0,0,0,.4,1.2,1.39,1.39,0,0,0,1.07.41,3.61,3.61,0,0,0,1.44-.3v.61a3.7,3.7,0,0,1-.68.22A3.87,3.87,0,0,1,134.18,180.35Zm-.18-4.09a1.11,1.11,0,0,0-.86.35,1.63,1.63,0,0,0-.38,1h2.35a1.5,1.5,0,0,0-.29-1A1,1,0,0,0,134,176.26Z"/><path class="cls-6" d="M137.68,180.27H137v-6.39h.68Z"/><path class="cls-6" d="M142.19,179.67h0a1.6,1.6,0,0,1-1.41.69,1.67,1.67,0,0,1-1.37-.6,2.66,2.66,0,0,1-.49-1.72,2.7,2.7,0,0,1,.49-1.73,1.66,1.66,0,0,1,1.37-.62,1.64,1.64,0,0,1,1.4.67h.05l0-.32,0-.32v-1.83h.68v6.39h-.55Zm-1.36.12a1.24,1.24,0,0,0,1-.38,1.92,1.92,0,0,0,.31-1.23V178a2.26,2.26,0,0,0-.32-1.37,1.21,1.21,0,0,0-1-.41,1,1,0,0,0-.92.47,2.31,2.31,0,0,0-.32,1.32,2.22,2.22,0,0,0,.32,1.3A1.07,1.07,0,0,0,140.82,179.78Z"/><path class="cls-6" d="M144.18,179.83a.61.61,0,0,1,.13-.42.45.45,0,0,1,.36-.14.49.49,0,0,1,.37.14.58.58,0,0,1,.13.42.58.58,0,0,1-.13.41.54.54,0,0,1-.72,0A.56.56,0,0,1,144.18,179.83Z"/><path class="cls-6" d="M47.81,201.53h-.67v-4.28q0-.53,0-1l-.19.18-1,.8-.36-.47,1.59-1.23h.57Z"/><path class="cls-6" d="M53.23,197V200a1.17,1.17,0,0,0,.25.82,1,1,0,0,0,.78.27,1.28,1.28,0,0,0,1-.39,2,2,0,0,0,.33-1.26V197h.68v4.5h-.56l-.1-.6h0a1.35,1.35,0,0,1-.58.51,2,2,0,0,1-.85.18,1.72,1.72,0,0,1-1.23-.39,1.66,1.66,0,0,1-.41-1.25V197Z"/><path class="cls-6" d="M60.66,200.31a1.13,1.13,0,0,1-.47,1,2.2,2.2,0,0,1-1.31.34,2.86,2.86,0,0,1-1.4-.28v-.63a3.34,3.34,0,0,0,.7.26,2.88,2.88,0,0,0,.72.09,1.63,1.63,0,0,0,.82-.17.59.59,0,0,0,.06-1,3.61,3.61,0,0,0-.89-.44,4.8,4.8,0,0,1-.89-.41,1.22,1.22,0,0,1-.39-.4,1,1,0,0,1-.13-.53,1,1,0,0,1,.45-.87,2.09,2.09,0,0,1,1.23-.32,3.59,3.59,0,0,1,1.42.3l-.24.55a3.27,3.27,0,0,0-1.23-.28,1.41,1.41,0,0,0-.73.15.47.47,0,0,0-.25.42.51.51,0,0,0,.09.31.9.9,0,0,0,.3.24,6.6,6.6,0,0,0,.79.33,2.94,2.94,0,0,1,1.08.59A1,1,0,0,1,60.66,200.31Z"/><path class="cls-6" d="M63.66,201.62a2.07,2.07,0,0,1-1.57-.61,2.35,2.35,0,0,1-.58-1.69,2.61,2.61,0,0,1,.54-1.73,1.78,1.78,0,0,1,1.44-.64,1.7,1.7,0,0,1,1.34.56,2.13,2.13,0,0,1,.49,1.47v.43h-3.1a1.78,1.78,0,0,0,.4,1.2,1.38,1.38,0,0,0,1.07.41,3.61,3.61,0,0,0,1.44-.3v.61a3.69,3.69,0,0,1-.68.22A3.86,3.86,0,0,1,63.66,201.62Zm-.18-4.09a1.11,1.11,0,0,0-.86.35,1.63,1.63,0,0,0-.38,1h2.35a1.5,1.5,0,0,0-.29-1A1,1,0,0,0,63.48,197.52Z"/><path class="cls-6" d="M68.53,197a2.65,2.65,0,0,1,.54,0l-.09.63a2.32,2.32,0,0,0-.49-.06,1.2,1.2,0,0,0-.93.44,1.62,1.62,0,0,0-.39,1.1v2.41h-.68V197H67l.08.83h0a2,2,0,0,1,.6-.68A1.36,1.36,0,0,1,68.53,197Z"/><path class="cls-6" d="M73.9,201.62a1.92,1.92,0,0,1-1.51-.6,2.47,2.47,0,0,1-.54-1.7,2.55,2.55,0,0,1,.54-1.75,2,2,0,0,1,1.55-.62,3.06,3.06,0,0,1,.65.07,2.08,2.08,0,0,1,.51.16l-.21.58a3.22,3.22,0,0,0-.49-.15,2.18,2.18,0,0,0-.47-.06q-1.37,0-1.37,1.75a2.08,2.08,0,0,0,.33,1.27,1.16,1.16,0,0,0,1,.44,3,3,0,0,0,1.15-.24v.6A2.46,2.46,0,0,1,73.9,201.62Z"/><path class="cls-6" d="M78.87,201.53l-.14-.64h0a1.9,1.9,0,0,1-.67.57,2.05,2.05,0,0,1-.84.15,1.51,1.51,0,0,1-1-.34,1.26,1.26,0,0,1-.38-1q0-1.36,2.18-1.43l.76,0v-.28a1.14,1.14,0,0,0-.23-.78.94.94,0,0,0-.73-.25,3,3,0,0,0-1.27.35l-.21-.52a3.27,3.27,0,0,1,1.52-.39,1.71,1.71,0,0,1,1.19.36,1.49,1.49,0,0,1,.39,1.15v3.07Zm-1.54-.48a1.38,1.38,0,0,0,1-.35,1.29,1.29,0,0,0,.36-1v-.41l-.68,0a2.48,2.48,0,0,0-1.17.25.76.76,0,0,0-.36.7.7.7,0,0,0,.22.56A.93.93,0,0,0,77.33,201.05Z"/><path class="cls-6" d="M83.86,201.53v-2.91a1.18,1.18,0,0,0-.25-.82,1,1,0,0,0-.78-.27,1.29,1.29,0,0,0-1,.38,1.93,1.93,0,0,0-.33,1.26v2.36h-.68V197h.55l.11.62h0a1.39,1.39,0,0,1,.59-.52,1.92,1.92,0,0,1,.84-.18,1.71,1.71,0,0,1,1.22.39,1.67,1.67,0,0,1,.41,1.25v2.94Z"/><path class="cls-6" d="M93.86,201.53v-2.93a1.22,1.22,0,0,0-.23-.81.89.89,0,0,0-.71-.27,1.16,1.16,0,0,0-.94.37,1.74,1.74,0,0,0-.3,1.13v2.51H91v-2.93a1.22,1.22,0,0,0-.23-.81.9.9,0,0,0-.72-.27,1.11,1.11,0,0,0-.94.38,2.08,2.08,0,0,0-.3,1.26v2.36h-.68V197h.55l.11.62h0a1.34,1.34,0,0,1,.54-.51,1.66,1.66,0,0,1,.79-.18,1.34,1.34,0,0,1,1.38.76h0a1.44,1.44,0,0,1,.58-.56A1.81,1.81,0,0,1,93,197a1.52,1.52,0,0,1,1.14.39,1.75,1.75,0,0,1,.38,1.25v2.94Z"/><path class="cls-6" d="M99.83,199.28a2.48,2.48,0,0,1-.55,1.72,2,2,0,0,1-1.53.62,2,2,0,0,1-1.07-.28,1.87,1.87,0,0,1-.72-.81,2.84,2.84,0,0,1-.25-1.24,2.48,2.48,0,0,1,.55-1.71,2,2,0,0,1,1.53-.61,1.91,1.91,0,0,1,1.5.63A2.47,2.47,0,0,1,99.83,199.28Zm-3.43,0a2.13,2.13,0,0,0,.35,1.31,1.37,1.37,0,0,0,2,0,2.12,2.12,0,0,0,.35-1.32,2.09,2.09,0,0,0-.35-1.3,1.22,1.22,0,0,0-1-.45,1.2,1.2,0,0,0-1,.44A2.12,2.12,0,0,0,96.4,199.28Z"/><path class="cls-6" d="M104.09,200.93h0a1.6,1.6,0,0,1-1.41.69,1.67,1.67,0,0,1-1.37-.6,2.66,2.66,0,0,1-.49-1.72,2.7,2.7,0,0,1,.49-1.73,1.66,1.66,0,0,1,1.37-.62,1.64,1.64,0,0,1,1.4.67h.05l0-.32,0-.32v-1.83h.68v6.39h-.55Zm-1.36.12a1.24,1.24,0,0,0,1-.38,1.92,1.92,0,0,0,.31-1.23v-.14a2.26,2.26,0,0,0-.32-1.37,1.21,1.21,0,0,0-1-.41,1,1,0,0,0-.92.47,2.31,2.31,0,0,0-.32,1.32,2.22,2.22,0,0,0,.32,1.3A1.07,1.07,0,0,0,102.72,201Z"/><path class="cls-6" d="M106.12,195.81a.46.46,0,0,1,.12-.34.42.42,0,0,1,.57,0,.44.44,0,0,1,.12.34.45.45,0,0,1-.12.34.4.4,0,0,1-.28.11.39.39,0,0,1-.29-.11A.46.46,0,0,1,106.12,195.81Zm.74,5.72h-.68V197h.68Z"/><path class="cls-6" d="M110.33,197.56h-1.15v4h-.68v-4h-.8v-.31l.8-.25v-.25q0-1.66,1.45-1.66a3,3,0,0,1,.84.14l-.18.55a2.25,2.25,0,0,0-.67-.13.66.66,0,0,0-.57.26,1.43,1.43,0,0,0-.18.82V197h1.15Z"/><path class="cls-6" d="M110.44,197h.73l1,2.57a9.89,9.89,0,0,1,.4,1.27h0q.05-.21.22-.72t1.11-3.12h.73l-1.93,5.12a2.56,2.56,0,0,1-.67,1.08,1.43,1.43,0,0,1-.94.32,2.72,2.72,0,0,1-.62-.07v-.55a2.42,2.42,0,0,0,.5,0,1,1,0,0,0,1-.79l.25-.64Z"/><path class="cls-6" d="M119,201.05l.35,0,.27-.06v.52a1.24,1.24,0,0,1-.33.09,2.44,2.44,0,0,1-.39,0q-1.31,0-1.31-1.37v-2.68H117v-.33l.65-.28.29-1h.39v1h1.3v.53h-1.3v2.65a.91.91,0,0,0,.19.62A.67.67,0,0,0,119,201.05Z"/><path class="cls-6" d="M123.62,201.53v-2.91a1.18,1.18,0,0,0-.25-.82,1,1,0,0,0-.78-.27,1.29,1.29,0,0,0-1,.39,2,2,0,0,0-.33,1.26v2.35h-.68v-6.39h.68v1.93a4.11,4.11,0,0,1,0,.58h0a1.39,1.39,0,0,1,.57-.51,1.86,1.86,0,0,1,.85-.19,1.74,1.74,0,0,1,1.24.39,1.65,1.65,0,0,1,.41,1.25v2.94Z"/><path class="cls-6" d="M125.64,195.81a.45.45,0,0,1,.12-.34.42.42,0,0,1,.57,0,.44.44,0,0,1,.12.34.45.45,0,0,1-.12.34.4.4,0,0,1-.28.11.39.39,0,0,1-.29-.11A.46.46,0,0,1,125.64,195.81Zm.74,5.72h-.68V197h.68Z"/><path class="cls-6" d="M130.73,200.31a1.13,1.13,0,0,1-.47,1,2.2,2.2,0,0,1-1.31.34,2.86,2.86,0,0,1-1.4-.28v-.63a3.33,3.33,0,0,0,.7.26,2.88,2.88,0,0,0,.72.09,1.63,1.63,0,0,0,.82-.17.59.59,0,0,0,.06-1,3.61,3.61,0,0,0-.89-.44,4.81,4.81,0,0,1-.89-.41,1.22,1.22,0,0,1-.39-.4,1,1,0,0,1-.13-.53,1,1,0,0,1,.45-.87,2.09,2.09,0,0,1,1.23-.32,3.59,3.59,0,0,1,1.42.3l-.24.55a3.28,3.28,0,0,0-1.23-.28,1.41,1.41,0,0,0-.73.15.47.47,0,0,0-.25.42.51.51,0,0,0,.09.31.9.9,0,0,0,.3.24,6.6,6.6,0,0,0,.79.33,3,3,0,0,1,1.08.59A1,1,0,0,1,130.73,200.31Z"/><path class="cls-6" d="M136.05,197.56h-1.15v4h-.68v-4h-.8v-.31l.8-.25v-.25q0-1.66,1.45-1.66a3,3,0,0,1,.84.14l-.18.55a2.25,2.25,0,0,0-.67-.13.66.66,0,0,0-.57.26,1.43,1.43,0,0,0-.18.82V197h1.15Zm.76-1.75a.46.46,0,0,1,.11-.34.43.43,0,0,1,.57,0,.44.44,0,0,1,.12.34.45.45,0,0,1-.12.34.42.42,0,0,1-.57,0A.46.46,0,0,1,136.82,195.81Zm.74,5.72h-.68V197h.68Z"/><path class="cls-6" d="M140.9,201.62a2.07,2.07,0,0,1-1.58-.61,2.36,2.36,0,0,1-.58-1.69,2.61,2.61,0,0,1,.54-1.73,1.78,1.78,0,0,1,1.44-.64,1.7,1.7,0,0,1,1.34.56,2.13,2.13,0,0,1,.49,1.47v.43h-3.1a1.78,1.78,0,0,0,.4,1.2,1.38,1.38,0,0,0,1.07.41,3.61,3.61,0,0,0,1.44-.3v.61a3.68,3.68,0,0,1-.68.22A3.86,3.86,0,0,1,140.9,201.62Zm-.18-4.09a1.11,1.11,0,0,0-.86.35,1.63,1.63,0,0,0-.38,1h2.35a1.49,1.49,0,0,0-.29-1A1,1,0,0,0,140.72,197.52Z"/><path class="cls-6" d="M144.4,201.53h-.68v-6.39h.68Z"/><path class="cls-6" d="M148.91,200.93h0a1.6,1.6,0,0,1-1.41.69,1.67,1.67,0,0,1-1.37-.6,2.66,2.66,0,0,1-.49-1.72,2.7,2.7,0,0,1,.49-1.73,1.66,1.66,0,0,1,1.37-.62,1.64,1.64,0,0,1,1.4.67h.05l0-.32,0-.32v-1.83h.68v6.39H149Zm-1.36.12a1.24,1.24,0,0,0,1-.38,1.92,1.92,0,0,0,.31-1.23v-.14a2.26,2.26,0,0,0-.32-1.37,1.21,1.21,0,0,0-1-.41,1,1,0,0,0-.92.47,2.32,2.32,0,0,0-.32,1.32,2.22,2.22,0,0,0,.32,1.3A1.07,1.07,0,0,0,147.54,201Z"/><path class="cls-6" d="M46.4,158.4h-.7v-6H49V153H46.4v2.2h2.49v.62H46.4Z"/><path class="cls-6" d="M50,158.4v-6h.7v6Z"/><path class="cls-6" d="M55.73,158.4H52.39v-6h3.35V153H53.08V155h2.49v.62H53.08v2.21h2.65Z"/><path class="cls-6" d="M57.06,158.4v-6h.7v5.37h2.65v.63Z"/><path class="cls-6" d="M66.22,155.34a3,3,0,0,1-.81,2.27,3.19,3.19,0,0,1-2.32.79H61.43v-6h1.84a2.69,2.69,0,0,1,3,2.94Zm-.74,0a2.42,2.42,0,0,0-.59-1.77,2.36,2.36,0,0,0-1.75-.6h-1v4.8H63a2.59,2.59,0,0,0,1.88-.61A2.43,2.43,0,0,0,65.48,155.37Z"/><path class="cls-6" d="M73.13,156.8a1.47,1.47,0,0,1-.57,1.24,2.49,2.49,0,0,1-1.56.44,3.9,3.9,0,0,1-1.64-.28v-.67a4.32,4.32,0,0,0,.8.25,4.21,4.21,0,0,0,.86.09,1.74,1.74,0,0,0,1.05-.27.87.87,0,0,0,.35-.74,1,1,0,0,0-.13-.51,1.17,1.17,0,0,0-.42-.37,5.89,5.89,0,0,0-.89-.38,2.84,2.84,0,0,1-1.2-.71,1.57,1.57,0,0,1-.36-1.07,1.33,1.33,0,0,1,.52-1.1,2.16,2.16,0,0,1,1.38-.41,4.07,4.07,0,0,1,1.65.33l-.22.61a3.72,3.72,0,0,0-1.44-.31,1.4,1.4,0,0,0-.87.24.79.79,0,0,0-.31.66,1,1,0,0,0,.12.51,1.09,1.09,0,0,0,.39.37,4.84,4.84,0,0,0,.84.37,3.3,3.3,0,0,1,1.3.72A1.42,1.42,0,0,1,73.13,156.8Z"/><path class="cls-6" d="M78.91,158.4h-.7v-2.82H75.05v2.82h-.7v-6h.7V155h3.16V152.4h.7Z"/><path class="cls-6" d="M84.33,158.4l-.75-1.91H81.18l-.74,1.91h-.71l2.37-6h.59l2.36,6Zm-1-2.54-.7-1.86c-.09-.24-.18-.52-.28-.87a7.81,7.81,0,0,1-.26.87l-.71,1.86Z"/><path class="cls-6" d="M86.58,155.9v2.5h-.7v-6h1.65a2.59,2.59,0,0,1,1.63.42,1.54,1.54,0,0,1,.53,1.27,1.59,1.59,0,0,1-1.21,1.61l1.63,2.7h-.83l-1.45-2.5Zm0-.6h1a1.65,1.65,0,0,0,1.08-.29,1.09,1.09,0,0,0,.34-.88,1,1,0,0,0-.35-.86,1.9,1.9,0,0,0-1.13-.26h-.91Z"/><path class="cls-6" d="M91.08,158.4v-6h.7v6Z"/><path class="cls-6" d="M98.11,158.4h-.8l-3.28-5h0q.07.89.07,1.63v3.41h-.64v-6h.79l3.27,5h0q0-.11,0-.71t0-.86V152.4h.65Z"/><path class="cls-6" d="M102.4,155.26h2v2.92a6.62,6.62,0,0,1-1,.23,7.4,7.4,0,0,1-1.14.08,2.77,2.77,0,0,1-2.12-.81,3.19,3.19,0,0,1-.76-2.27,3.44,3.44,0,0,1,.38-1.64,2.54,2.54,0,0,1,1.08-1.08,3.5,3.5,0,0,1,1.65-.37,4.52,4.52,0,0,1,1.79.35l-.27.62a4,4,0,0,0-1.56-.34,2.24,2.24,0,0,0-1.71.65,2.53,2.53,0,0,0-.62,1.81,2.58,2.58,0,0,0,.59,1.84,2.28,2.28,0,0,0,1.74.63,5.18,5.18,0,0,0,1.22-.14v-1.85H102.4Z"/><rect class="cls-5" x="22.12" y="135.06" width="207.43" height="0.4"/><rect class="cls-5" x="21.92" y="20.22" width="0.4" height="210.41"/><polygon class="cls-7" points="50.89 40.26 53.49 45.53 59.3 46.37 55.1 50.47 56.09 56.27 50.89 53.53 45.69 56.27 46.68 50.47 42.47 46.37 48.29 45.53 50.89 40.26"/><path class="cls-4" d="M42.47,82.28,44,83.76l3.59-3.59-1.49-1.49Zm13.07-10V76H49.65L44,70.26l-1.49,1.49,6.32,6.32h6.75v3.69L60.28,77Z"/><path class="cls-4" d="M45.8,112a1.84,1.84,0,0,0,1.84,1.84H55A1.84,1.84,0,0,0,56.82,112V101h-11Zm2.26-6.54,1.3-1.3,2,1.95,1.95-1.95,1.3,1.3-1.95,1.95,1.95,1.95-1.3,1.3-1.95-1.95-1.95,1.95-1.3-1.3L50,107.43Zm6.47-7.24-.92-.92H49l-.92.92H44.88v1.84H57.74V98.25Z"/><path class="cls-8" d="M231.56,231.56H0V0H231.56ZM2,229.56H229.56V2H2Z"/></g></g></svg>