<svg xmlns="http://www.w3.org/2000/svg" viewBox="0 0 231.56 231.56"><defs><style>.cls-1{isolation:isolate;}.cls-2{fill:#fff;}.cls-3{fill:#f3f4f4;}.cls-4{fill:#92e1b7;}.cls-5{fill:#61cae2;}.cls-6{fill:#f58a67;}.cls-7{fill:#277ec2;}.cls-8{fill:#b2b2b2;}.cls-9{fill:#ee624e;}.cls-10{opacity:0.69;mix-blend-mode:lighten;}.cls-11{fill:#015abc;}.cls-12{fill:#e2e2e2;}</style></defs><title>in-sync</title><g class="cls-1"><g id="Layer_2" data-name="Layer 2"><g id="Top_layer" data-name="Top layer"><rect class="cls-2" x="1" y="1" width="229.56" height="229.56"/><rect class="cls-3" x="1" y="59.13" width="229.56" height="15.03"/><rect class="cls-3" x="1" y="89.56" width="229.56" height="15.03"/><rect class="cls-3" x="1" y="110.63" width="229.56" height="15.03"/><rect class="cls-3" x="1" y="181.95" width="229.56" height="15.03"/><rect class="cls-3" x="1" y="160.83" width="229.56" height="15.03"/><rect class="cls-3" x="1" y="203.02" width="229.56" height="15.03"/><rect class="cls-3" x="1" y="131.7" width="229.56" height="15.03"/><rect class="cls-3" x="1" y="17" width="229.56" height="15.03"/><rect class="cls-3" x="1" y="38.06" width="229.56" height="15.03"/><polygon class="cls-4" points="101.84 54.2 109.01 45.58 101.84 36.96 94.67 45.58 101.84 54.2"/><polygon class="cls-4" points="200.97 54.2 208.14 45.58 200.97 36.96 193.8 45.58 200.97 54.2"/><rect class="cls-5" x="1" y="58.87" width="98.33" height="16.49"/><rect class="cls-5" x="167.54" y="58.87" width="63.02" height="16.49"/><rect class="cls-5" x="1" y="88.83" width="94.54" height="16.49"/><rect class="cls-5" x="173.32" y="130.97" width="57.24" height="16.49"/><rect class="cls-5" x="95.54" y="109.9" width="72.95" height="16.49"/><rect class="cls-5" x="17.27" y="130.97" width="101.64" height="16.49"/><rect class="cls-6" x="2.39" y="202.55" width="87.55" height="16.49"/><rect class="cls-6" x="12.13" y="160.44" width="117.13" height="15.76"/><rect class="cls-6" x="153.21" y="160.1" width="56.19" height="16.49"/><rect class="cls-4" x="37.95" y="17.71" width="13.43" height="13.59"/><rect class="cls-4" x="146.86" y="17.71" width="13.43" height="13.59"/><rect class="cls-5" x="143.06" y="89.75" width="87.5" height="15.81"/><rect class="cls-7" x="17.27" y="65.12" width="57.4" height="4"/><rect class="cls-8" x="56.84" y="22.51" width="36.49" height="4"/><rect class="cls-8" x="114.82" y="43.58" width="24.87" height="4"/><rect class="cls-8" x="168.48" y="22.51" width="24.87" height="4"/><rect class="cls-8" x="214.42" y="43.58" width="16.13" height="4"/><rect class="cls-7" x="23.96" y="95.41" width="26.81" height="4"/><rect class="cls-7" x="117.42" y="116.28" width="26.81" height="4"/><rect class="cls-7" x="49.02" y="137.21" width="38.14" height="4"/><rect class="cls-9" x="46.16" y="166.32" width="49.06" height="4"/><rect class="cls-9" x="157.28" y="166.32" width="27.46" height="4"/><rect class="cls-6" x="78.15" y="181.99" width="76.78" height="16.49"/><rect class="cls-9" x="102.81" y="188.21" width="27.46" height="4"/><rect class="cls-9" x="29.77" y="208.8" width="32.79" height="4"/><rect class="cls-6" x="177.88" y="202.55" width="52.68" height="16.49"/><rect class="cls-9" x="205.27" y="208.8" width="25.29" height="4"/><rect class="cls-7" x="193.07" y="137.21" width="37.48" height="4"/><rect class="cls-7" x="171.3" y="95.66" width="54.79" height="4"/><rect class="cls-7" x="198.7" y="65.12" width="31.86" height="4"/><g class="cls-10"><circle class="cls-2" cx="115.78" cy="115.78" r="44.03"/></g><g id="Filled_Icons" data-name="Filled Icons"><path class="cls-11" d="M97,97.69a25.82,25.82,0,0,1,44.12,18.26h6.46A32.28,32.28,0,0,0,92.45,93.12l-6.26-6.26v19.39h19.39Z"/><path class="cls-11" d="M133.53,134.21a25.82,25.82,0,0,1-44.12-18.26H83a32.28,32.28,0,0,0,55.15,22.83l6.26,6.26V125.65H125Z"/></g><path class="cls-12" d="M231.56,231.56H0V0H231.56ZM2,229.56H229.56V2H2Z"/></g></g></g></svg>