<svg xmlns="http://www.w3.org/2000/svg" xmlns:xlink="http://www.w3.org/1999/xlink" viewBox="0 0 231.56 231.56"><defs><style>.cls-1{fill:#fff;}.cls-2{mask:url(#mask);}.cls-3{fill:#f2f2f2;}.cls-4{fill:#e1e1e5;}.cls-5{fill:#0380d3;}.cls-6{fill:#cdcbca;}.cls-7{fill:#ebebec;}.cls-8{fill:#757575;}.cls-9{fill:#1d86e0;}.cls-10{fill:none;}.cls-11{fill:#666;}.cls-12{fill:#ccc;}.cls-13{fill:#e2e2e2;}</style><mask id="mask" x="0.7" y="-22.85" width="507.86" height="293.61" maskUnits="userSpaceOnUse"><path class="cls-1" d="M508.56-22.85H.7V264.83a5.94,5.94,0,0,0,5.91,5.93h496a5.94,5.94,0,0,0,5.91-5.93V101h0Z"/></mask></defs><title>manage-roadmaps</title><g id="Layer_2" data-name="Layer 2"><g id="Top_layer" data-name="Top layer"><g class="cls-2"><polygon class="cls-1" points="230.56 230.56 6.76 230.56 0.7 230.56 0.7 0.83 230.56 0.83 230.56 230.56 230.56 230.56"/><polygon class="cls-3" points="132.02 230.56 9.53 230.56 0.7 230.56 0.7 0.83 132.02 0.83 132.02 230.56"/></g><rect class="cls-4" x="0.7" y="0.83" width="229.85" height="25.06"/><rect class="cls-5" x="13.9" y="6.97" width="49.12" height="13.1"/><rect class="cls-6" x="138.81" y="65.29" width="91.75" height="0.86"/><rect class="cls-6" x="138.81" y="92.25" width="91.75" height="0.86"/><rect class="cls-6" x="138.81" y="119.21" width="91.75" height="0.86"/><rect class="cls-6" x="138.81" y="146.16" width="91.75" height="0.86"/><line class="cls-7" x1="164.3" y1="133.42" x2="200.76" y2="133.42"/><rect class="cls-6" x="164.3" y="132.07" width="36.45" height="2.69"/><line class="cls-7" x1="164.3" y1="106.28" x2="208.98" y2="106.28"/><rect class="cls-6" x="164.3" y="104.94" width="44.68" height="2.69"/><line class="cls-7" x1="164.3" y1="79.7" x2="223.76" y2="79.7"/><rect class="cls-6" x="164.3" y="78.35" width="59.45" height="2.69"/><rect class="cls-3" x="132.02" y="25.89" width="98.53" height="18.56"/><line class="cls-7" x1="164.3" y1="35.17" x2="202.67" y2="35.17"/><rect class="cls-6" x="164.3" y="33.82" width="38.36" height="2.69"/><rect class="cls-8" x="148.51" y="130.37" width="6.02" height="6.02"/><rect class="cls-8" x="148.51" y="103.27" width="6.02" height="6.02"/><rect class="cls-6" x="138.81" y="174.32" width="91.75" height="0.86"/><rect class="cls-6" x="138.81" y="201.28" width="91.75" height="0.86"/><line class="cls-7" x1="164.3" y1="188.53" x2="222.42" y2="188.53"/><rect class="cls-6" x="164.3" y="187.18" width="58.12" height="2.69"/><line class="cls-7" x1="164.3" y1="161.39" x2="208.98" y2="161.39"/><rect class="cls-6" x="164.3" y="160.05" width="44.68" height="2.69"/><rect class="cls-8" x="148.51" y="185.49" width="6.02" height="6.02"/><rect class="cls-8" x="148.51" y="158.38" width="6.02" height="6.02"/><line class="cls-7" x1="164.3" y1="216.68" x2="208.98" y2="216.68"/><rect class="cls-6" x="164.3" y="215.34" width="44.68" height="2.69"/><rect class="cls-8" x="148.51" y="213.68" width="6.02" height="6.02"/><rect class="cls-8" x="148.51" y="76.69" width="6.02" height="6.02"/><rect class="cls-9" x="0.7" y="63.37" width="4.14" height="18.36"/><rect class="cls-8" x="22.53" y="213.83" width="10.27" height="1.69"/><rect class="cls-8" x="22.53" y="216.97" width="10.27" height="1.69"/><rect class="cls-8" x="22.53" y="220.11" width="10.27" height="1.69"/><path class="cls-8" d="M27.67,158.6a5.53,5.53,0,1,1,5.53-5.53A5.54,5.54,0,0,1,27.67,158.6Zm0-10.08a4.55,4.55,0,1,0,4.55,4.55A4.55,4.55,0,0,0,27.67,148.52Z"/><polygon class="cls-8" points="31.15 153.47 27.26 153.47 27.26 149.64 28.2 149.64 28.2 152.55 31.15 152.55 31.15 153.47"/><rect class="cls-8" x="24.98" y="40.16" width="8.22" height="1.87"/><rect class="cls-8" x="24.98" y="43.89" width="8.22" height="1.87"/><rect class="cls-8" x="24.98" y="47.63" width="8.22" height="1.87"/><rect class="cls-8" x="21.06" y="40.16" width="2.06" height="1.87"/><rect class="cls-8" x="21.06" y="43.89" width="2.06" height="1.87"/><rect class="cls-8" x="21.06" y="47.63" width="2.06" height="1.87"/><g id="Frame_-_24px" data-name="Frame - 24px"><rect class="cls-10" x="19.28" y="64.27" width="15.36" height="15.36"/></g><g id="Filled_Icons" data-name="Filled Icons"><path class="cls-5" d="M27,72A2.56,2.56,0,1,0,24.4,69.4,2.56,2.56,0,0,0,27,72Z"/><path class="cls-5" d="M27,72.6c-3,0-5.12,1.58-5.12,3.84v.64H32.08v-.64C32.08,74.18,30,72.6,27,72.6Z"/></g><g id="Frame_-_24px-2" data-name="Frame - 24px"><rect class="cls-10" x="19.28" y="90.19" width="15.36" height="15.36"/></g><g id="Filled_Icons-2" data-name="Filled Icons"><path class="cls-8" d="M29.33,98.36A2.32,2.32,0,1,0,27,96,2.32,2.32,0,0,0,29.33,98.36Z"/><path class="cls-8" d="M29.33,98.94c-2.73,0-4.64,1.43-4.64,3.48V103H34v-.58C34,100.37,32.06,98.94,29.33,98.94Z"/></g><g id="Filled_Icons-3" data-name="Filled Icons"><path class="cls-8" d="M23.77,99.18a1.91,1.91,0,1,0-1.91-1.91A1.91,1.91,0,0,0,23.77,99.18Z"/><path class="cls-8" d="M25,99.8a5.64,5.64,0,0,0-1.27-.14c-2.25,0-3.82,1.18-3.82,2.86V103h3.82A4.54,4.54,0,0,1,25,99.8Z"/></g><path class="cls-11" d="M49.49,47.75,48.9,46.1H46.63L46,47.75H45l2.22-6H48.3l2.22,6Zm-.85-2.49-.56-1.62q-.06-.16-.17-.51t-.15-.51a9.16,9.16,0,0,1-.32,1.09l-.54,1.55Z"/><path class="cls-11" d="M52.16,47.75h-1V41.43h1Z"/><path class="cls-11" d="M54.48,47.75h-1V41.43h1Z"/><path class="cls-11" d="M59.08,45.38v2.37h-1V41.81h1.68a2.76,2.76,0,0,1,1.7.43,1.55,1.55,0,0,1,.55,1.3,1.62,1.62,0,0,1-1.15,1.58l1.68,2.63H61.46L60,45.38Zm0-.8h.67a1.54,1.54,0,0,0,1-.25.92.92,0,0,0,.3-.75.8.8,0,0,0-.33-.72,1.8,1.8,0,0,0-1-.22h-.64Z"/><path class="cls-11" d="M67.31,45.49a2.45,2.45,0,0,1-.56,1.72,2,2,0,0,1-1.57.62,2.16,2.16,0,0,1-1.11-.28,1.88,1.88,0,0,1-.74-.82,2.78,2.78,0,0,1-.26-1.24,2.44,2.44,0,0,1,.56-1.71,2,2,0,0,1,1.58-.61,2,2,0,0,1,1.54.63A2.42,2.42,0,0,1,67.31,45.49Zm-3.27,0q0,1.56,1.15,1.56t1.14-1.56q0-1.54-1.15-1.54a1,1,0,0,0-.87.4A2,2,0,0,0,64,45.49Z"/><path class="cls-11" d="M71.22,47.75,71,47.12h0a1.84,1.84,0,0,1-.65.56,2.07,2.07,0,0,1-.85.15,1.43,1.43,0,0,1-1-.36,1.33,1.33,0,0,1-.37-1,1.19,1.19,0,0,1,.52-1A3,3,0,0,1,70.18,45L71,45v-.24a.91.91,0,0,0-.2-.64.82.82,0,0,0-.62-.21,2.14,2.14,0,0,0-.66.1,5,5,0,0,0-.61.24l-.31-.68a3.31,3.31,0,0,1,.8-.29,3.68,3.68,0,0,1,.82-.1,1.94,1.94,0,0,1,1.29.37,1.46,1.46,0,0,1,.44,1.17v3ZM69.8,47.1a1.18,1.18,0,0,0,.84-.29,1.05,1.05,0,0,0,.32-.81V45.6l-.58,0a2,2,0,0,0-1,.23.68.68,0,0,0-.31.62.6.6,0,0,0,.18.47A.77.77,0,0,0,69.8,47.1Z"/><path class="cls-11" d="M74.75,47.83a1.57,1.57,0,0,1-1.31-.61,3.34,3.34,0,0,1,0-3.43,1.58,1.58,0,0,1,1.32-.62,1.55,1.55,0,0,1,1.35.65h0a5.69,5.69,0,0,1-.07-.76V41.43h1v6.32h-.75l-.17-.59h0A1.53,1.53,0,0,1,74.75,47.83Zm.26-.77a1,1,0,0,0,.86-.33,1.74,1.74,0,0,0,.28-1.07v-.13a2,2,0,0,0-.28-1.21A1,1,0,0,0,75,44a.88.88,0,0,0-.78.41,2.09,2.09,0,0,0-.27,1.16,2,2,0,0,0,.26,1.14A.89.89,0,0,0,75,47.06Z"/><path class="cls-11" d="M82.2,47.75h-1V45a1.26,1.26,0,0,0-.2-.77.72.72,0,0,0-.61-.25.93.93,0,0,0-.81.36,2.11,2.11,0,0,0-.26,1.2v2.24h-1V43.26h.75l.13.59h0a1.25,1.25,0,0,1,.54-.5,1.75,1.75,0,0,1,.78-.17,1.37,1.37,0,0,1,1.37.71h.07a1.37,1.37,0,0,1,.56-.52,1.78,1.78,0,0,1,.83-.19,1.51,1.51,0,0,1,1.17.41A1.8,1.8,0,0,1,85,44.82v2.93h-1V45a1.25,1.25,0,0,0-.2-.77.72.72,0,0,0-.61-.25,1,1,0,0,0-.82.35,1.79,1.79,0,0,0-.26,1.07Z"/><path class="cls-11" d="M89.18,47.75,89,47.12h0a1.84,1.84,0,0,1-.65.56,2.07,2.07,0,0,1-.85.15,1.43,1.43,0,0,1-1-.36,1.34,1.34,0,0,1-.37-1,1.19,1.19,0,0,1,.52-1A3,3,0,0,1,88.14,45l.78,0v-.24a.91.91,0,0,0-.2-.64.82.82,0,0,0-.62-.21,2.14,2.14,0,0,0-.66.1,5,5,0,0,0-.61.24l-.31-.68a3.31,3.31,0,0,1,.8-.29,3.69,3.69,0,0,1,.82-.1,1.94,1.94,0,0,1,1.29.37,1.46,1.46,0,0,1,.44,1.17v3Zm-1.42-.65a1.18,1.18,0,0,0,.84-.29,1.05,1.05,0,0,0,.31-.81V45.6l-.58,0a2,2,0,0,0-1,.23.68.68,0,0,0-.31.62.6.6,0,0,0,.18.47A.77.77,0,0,0,87.76,47.1Z"/><path class="cls-11" d="M93.48,47.83a1.57,1.57,0,0,1-1.32-.61H92.1q.06.57.06.69v1.84h-1V43.26H92c0,.08.07.28.13.6h0a1.5,1.5,0,0,1,1.34-.68,1.56,1.56,0,0,1,1.31.61,3.34,3.34,0,0,1,0,3.43A1.57,1.57,0,0,1,93.48,47.83ZM93.25,44a1,1,0,0,0-.83.33,1.72,1.72,0,0,0-.26,1.06v.14a2.1,2.1,0,0,0,.26,1.19,1,1,0,0,0,.85.37.86.86,0,0,0,.76-.41,2.1,2.1,0,0,0,.27-1.16A2,2,0,0,0,94,44.34.89.89,0,0,0,93.25,44Z"/><path class="cls-11" d="M99.4,46.47a1.18,1.18,0,0,1-.48,1,2.29,2.29,0,0,1-1.37.35,3.24,3.24,0,0,1-1.44-.27v-.82a3.54,3.54,0,0,0,1.48.37q.88,0,.88-.53a.42.42,0,0,0-.1-.28A1.14,1.14,0,0,0,98,46a5.59,5.59,0,0,0-.62-.28,2.87,2.87,0,0,1-1.05-.6,1.11,1.11,0,0,1-.27-.78,1,1,0,0,1,.47-.9,2.21,2.21,0,0,1,1.27-.32,3.59,3.59,0,0,1,1.5.32l-.31.72a3.33,3.33,0,0,0-1.22-.3q-.76,0-.76.43a.43.43,0,0,0,.2.36,4.32,4.32,0,0,0,.86.4,3.94,3.94,0,0,1,.81.39,1.18,1.18,0,0,1,.37.41A1.19,1.19,0,0,1,99.4,46.47Z"/><path class="cls-11" d="M48.37,74.84l-1.72-5h0q.07,1.1.07,2.07v2.89h-.88V68.9h1.37l1.65,4.72h0l1.7-4.72h1.37v5.94H51V71.9q0-.44,0-1.15t0-.86h0l-1.78,5Z"/><path class="cls-11" d="M52.7,70.35h1l.91,2.55a4.81,4.81,0,0,1,.28,1h0a4.28,4.28,0,0,1,.13-.54q.1-.32,1-3h1l-1.92,5.09a1.82,1.82,0,0,1-1.75,1.4,2.77,2.77,0,0,1-.62-.07V76a2.24,2.24,0,0,0,.49,0,1,1,0,0,0,1-.8l.17-.42Z"/><path class="cls-11" d="M61.08,72.47v2.37h-1V68.9h1.68a2.76,2.76,0,0,1,1.7.43,1.55,1.55,0,0,1,.55,1.3,1.62,1.62,0,0,1-1.15,1.58l1.68,2.63H63.46L62,72.47Zm0-.8h.67a1.54,1.54,0,0,0,1-.25.92.92,0,0,0,.3-.75.8.8,0,0,0-.33-.72,1.8,1.8,0,0,0-1-.22h-.64Z"/><path class="cls-11" d="M69.31,72.58a2.45,2.45,0,0,1-.56,1.72,2,2,0,0,1-1.57.62,2.16,2.16,0,0,1-1.11-.28,1.88,1.88,0,0,1-.74-.82,2.78,2.78,0,0,1-.26-1.24,2.44,2.44,0,0,1,.56-1.71,2,2,0,0,1,1.58-.61,2,2,0,0,1,1.54.63A2.42,2.42,0,0,1,69.31,72.58Zm-3.27,0q0,1.56,1.15,1.56t1.14-1.56q0-1.54-1.15-1.54a1,1,0,0,0-.87.4A2,2,0,0,0,66,72.58Z"/><path class="cls-11" d="M73.22,74.84,73,74.21h0a1.84,1.84,0,0,1-.65.56,2.07,2.07,0,0,1-.85.15,1.43,1.43,0,0,1-1-.36,1.33,1.33,0,0,1-.37-1,1.19,1.19,0,0,1,.52-1,3,3,0,0,1,1.57-.39l.78,0v-.24a.91.91,0,0,0-.2-.64.82.82,0,0,0-.62-.21,2.14,2.14,0,0,0-.66.1,5,5,0,0,0-.61.24l-.31-.68a3.31,3.31,0,0,1,.8-.29,3.68,3.68,0,0,1,.82-.1,1.94,1.94,0,0,1,1.29.37,1.46,1.46,0,0,1,.44,1.17v3Zm-1.42-.65a1.18,1.18,0,0,0,.84-.29,1.05,1.05,0,0,0,.32-.81v-.39l-.58,0a2,2,0,0,0-1,.23.68.68,0,0,0-.31.62.6.6,0,0,0,.18.47A.77.77,0,0,0,71.8,74.19Z"/><path class="cls-11" d="M76.75,74.92a1.57,1.57,0,0,1-1.31-.61,3.34,3.34,0,0,1,0-3.43,1.58,1.58,0,0,1,1.32-.62,1.55,1.55,0,0,1,1.35.65h0a5.69,5.69,0,0,1-.07-.76V68.52h1v6.32H78.3l-.17-.59h0A1.53,1.53,0,0,1,76.75,74.92Zm.26-.77a1,1,0,0,0,.86-.33,1.74,1.74,0,0,0,.28-1.07v-.13a2,2,0,0,0-.28-1.21A1,1,0,0,0,77,71a.88.88,0,0,0-.78.41,2.09,2.09,0,0,0-.27,1.16,2,2,0,0,0,.26,1.14A.89.89,0,0,0,77,74.15Z"/><path class="cls-11" d="M84.2,74.84h-1V72.07a1.26,1.26,0,0,0-.2-.77.72.72,0,0,0-.61-.25.93.93,0,0,0-.81.36,2.11,2.11,0,0,0-.26,1.2v2.24h-1V70.35h.75l.13.59h0a1.25,1.25,0,0,1,.54-.5,1.75,1.75,0,0,1,.78-.17A1.37,1.37,0,0,1,84,71h.07a1.37,1.37,0,0,1,.56-.52,1.78,1.78,0,0,1,.83-.19,1.51,1.51,0,0,1,1.17.41A1.8,1.8,0,0,1,87,71.91v2.93h-1V72.07a1.25,1.25,0,0,0-.2-.77.72.72,0,0,0-.61-.25,1,1,0,0,0-.82.35,1.79,1.79,0,0,0-.26,1.07Z"/><path class="cls-11" d="M91.18,74.84,91,74.21h0a1.84,1.84,0,0,1-.65.56,2.07,2.07,0,0,1-.85.15,1.43,1.43,0,0,1-1-.36,1.34,1.34,0,0,1-.37-1,1.19,1.19,0,0,1,.52-1,3,3,0,0,1,1.57-.39l.78,0v-.24a.91.91,0,0,0-.2-.64.82.82,0,0,0-.62-.21,2.14,2.14,0,0,0-.66.1,5,5,0,0,0-.61.24l-.31-.68a3.31,3.31,0,0,1,.8-.29,3.69,3.69,0,0,1,.82-.1,1.94,1.94,0,0,1,1.29.37,1.46,1.46,0,0,1,.44,1.17v3Zm-1.42-.65a1.18,1.18,0,0,0,.84-.29,1.05,1.05,0,0,0,.31-.81v-.39l-.58,0a2,2,0,0,0-1,.23.68.68,0,0,0-.31.62.6.6,0,0,0,.18.47A.77.77,0,0,0,89.76,74.19Z"/><path class="cls-11" d="M95.48,74.92a1.57,1.57,0,0,1-1.32-.61h-.06q.06.57.06.69v1.84h-1V70.35H94c0,.08.07.28.13.6h0a1.5,1.5,0,0,1,1.34-.68,1.56,1.56,0,0,1,1.31.61,3.34,3.34,0,0,1,0,3.43A1.57,1.57,0,0,1,95.48,74.92ZM95.24,71a1,1,0,0,0-.83.33,1.72,1.72,0,0,0-.26,1.06v.14a2.1,2.1,0,0,0,.26,1.19,1,1,0,0,0,.85.37.86.86,0,0,0,.76-.41,2.1,2.1,0,0,0,.27-1.16A2,2,0,0,0,96,71.43.89.89,0,0,0,95.24,71Z"/><path class="cls-11" d="M101.4,73.56a1.18,1.18,0,0,1-.48,1,2.29,2.29,0,0,1-1.37.35,3.24,3.24,0,0,1-1.44-.27v-.82a3.54,3.54,0,0,0,1.48.37q.88,0,.88-.53a.42.42,0,0,0-.1-.28,1.14,1.14,0,0,0-.32-.24,5.59,5.59,0,0,0-.62-.28,2.87,2.87,0,0,1-1.05-.6,1.11,1.11,0,0,1-.27-.78,1,1,0,0,1,.47-.9,2.21,2.21,0,0,1,1.27-.32,3.59,3.59,0,0,1,1.5.32l-.31.72a3.33,3.33,0,0,0-1.22-.3q-.76,0-.76.43a.43.43,0,0,0,.2.36,4.32,4.32,0,0,0,.86.4,3.94,3.94,0,0,1,.81.39,1.18,1.18,0,0,1,.37.41A1.19,1.19,0,0,1,101.4,73.56Z"/><path class="cls-11" d="M49.23,100.32a1.49,1.49,0,0,1-.57,1.24,2.49,2.49,0,0,1-1.58.45,3.77,3.77,0,0,1-1.65-.31v-.92a4.52,4.52,0,0,0,.86.3,3.7,3.7,0,0,0,.85.11A1.35,1.35,0,0,0,48,101a.72.72,0,0,0,.27-.59.74.74,0,0,0-.25-.57,3.79,3.79,0,0,0-1-.55,2.74,2.74,0,0,1-1.15-.75,1.59,1.59,0,0,1-.33-1A1.42,1.42,0,0,1,46,96.33a2.19,2.19,0,0,1,1.42-.43,4.17,4.17,0,0,1,1.7.37l-.31.79a3.71,3.71,0,0,0-1.41-.33,1.09,1.09,0,0,0-.72.21.67.67,0,0,0-.24.54.76.76,0,0,0,.1.4,1,1,0,0,0,.32.31,5.45,5.45,0,0,0,.8.39,4.41,4.41,0,0,1,1,.51,1.49,1.49,0,0,1,.45.53A1.6,1.6,0,0,1,49.23,100.32Z"/><path class="cls-11" d="M54.23,101.93h-1V99.17a1.21,1.21,0,0,0-.21-.78.81.81,0,0,0-.66-.26,1.05,1.05,0,0,0-.88.36,2,2,0,0,0-.28,1.21v2.23h-1V95.61h1v1.61a7.49,7.49,0,0,1,0,.82h.06a1.32,1.32,0,0,1,.54-.5,1.74,1.74,0,0,1,.81-.18A1.45,1.45,0,0,1,54.23,99Z"/><path class="cls-11" d="M58.37,101.93l-.19-.63h0a1.84,1.84,0,0,1-.65.56,2.07,2.07,0,0,1-.85.15,1.43,1.43,0,0,1-1-.36,1.34,1.34,0,0,1-.37-1,1.19,1.19,0,0,1,.52-1,3,3,0,0,1,1.57-.39l.78,0v-.24a.91.91,0,0,0-.2-.64.82.82,0,0,0-.62-.21,2.14,2.14,0,0,0-.66.1,5,5,0,0,0-.61.24l-.31-.68a3.31,3.31,0,0,1,.8-.29,3.69,3.69,0,0,1,.82-.1,1.94,1.94,0,0,1,1.29.37,1.46,1.46,0,0,1,.44,1.17v3ZM57,101.28a1.18,1.18,0,0,0,.84-.29,1.05,1.05,0,0,0,.31-.81v-.39l-.58,0a2,2,0,0,0-1,.23.68.68,0,0,0-.31.62.6.6,0,0,0,.18.47A.77.77,0,0,0,57,101.28Z"/><path class="cls-11" d="M62.67,97.35a2.32,2.32,0,0,1,.48,0l-.09.89a1.8,1.8,0,0,0-.42,0,1.22,1.22,0,0,0-.93.37,1.35,1.35,0,0,0-.36,1v2.35h-1V97.43h.75l.13.79h0a1.79,1.79,0,0,1,.58-.64A1.39,1.39,0,0,1,62.67,97.35Z"/><path class="cls-11" d="M65.94,102a2.17,2.17,0,0,1-1.64-.61,2.32,2.32,0,0,1-.59-1.68A2.55,2.55,0,0,1,64.25,98a1.9,1.9,0,0,1,1.51-.63,1.85,1.85,0,0,1,1.41.54,2.06,2.06,0,0,1,.52,1.49v.52h-3a1.48,1.48,0,0,0,.35,1,1.23,1.23,0,0,0,.94.35,3.47,3.47,0,0,0,.74-.08,3.89,3.89,0,0,0,.74-.25v.78a2.93,2.93,0,0,1-.71.24A4.37,4.37,0,0,1,65.94,102Zm-.18-3.93a1,1,0,0,0-.73.29,1.37,1.37,0,0,0-.33.84h2a1.24,1.24,0,0,0-.27-.84A.92.92,0,0,0,65.76,98.08Z"/><path class="cls-11" d="M70.28,102A1.57,1.57,0,0,1,69,101.4,3.34,3.34,0,0,1,69,98a1.58,1.58,0,0,1,1.32-.62,1.55,1.55,0,0,1,1.35.65h0a5.8,5.8,0,0,1-.07-.76V95.61h1v6.32h-.75l-.17-.59h0A1.53,1.53,0,0,1,70.28,102Zm.26-.77a1,1,0,0,0,.86-.33,1.74,1.74,0,0,0,.28-1.07V99.7a2,2,0,0,0-.28-1.21,1,1,0,0,0-.87-.36.88.88,0,0,0-.78.41,2.09,2.09,0,0,0-.27,1.16,2,2,0,0,0,.26,1.14A.89.89,0,0,0,70.54,101.24Z"/><path class="cls-11" d="M79.8,101.93l-.58-2.1q-.11-.33-.38-1.55h0q-.24,1.1-.37,1.56l-.6,2.09H76.77l-1.26-4.49h1l.57,2.21q.2.82.28,1.41h0q0-.3.12-.68c.06-.26.1-.45.14-.58l.68-2.36h1L80,99.8q.06.2.15.61a4.7,4.7,0,0,1,.11.64h0a12.47,12.47,0,0,1,.28-1.4l.58-2.21h1l-1.27,4.49Z"/><path class="cls-11" d="M82.85,96.24a.53.53,0,0,1,.14-.39.55.55,0,0,1,.4-.14.54.54,0,0,1,.39.14.53.53,0,0,1,.14.39.52.52,0,0,1-.14.38.53.53,0,0,1-.39.14.54.54,0,0,1-.4-.14A.52.52,0,0,1,82.85,96.24Zm1,5.68h-1V97.43h1Z"/><path class="cls-11" d="M86.9,101.24a2.34,2.34,0,0,0,.7-.11v.72a1.93,1.93,0,0,1-.41.12,2.81,2.81,0,0,1-.52,0q-1.36,0-1.36-1.43V98.16h-.61v-.42l.66-.35.33-1h.59v1h1.28v.72H86.28v2.41a.68.68,0,0,0,.17.51A.63.63,0,0,0,86.9,101.24Z"/><path class="cls-11" d="M92.45,101.93h-1V99.17a1.21,1.21,0,0,0-.21-.78.81.81,0,0,0-.66-.26,1.05,1.05,0,0,0-.88.36,2,2,0,0,0-.28,1.21v2.23h-1V95.61h1v1.61a7.49,7.49,0,0,1,0,.82h.06a1.32,1.32,0,0,1,.54-.5,1.74,1.74,0,0,1,.81-.18A1.45,1.45,0,0,1,92.45,99Z"/><path class="cls-11" d="M98.61,101.93l-1.72-5h0q.07,1.1.07,2.07v2.89H96V96h1.37l1.65,4.72h0l1.7-4.72h1.37v5.94h-.94V99q0-.44,0-1.15t0-.86h0l-1.78,5Z"/><path class="cls-11" d="M105.58,102a2.17,2.17,0,0,1-1.64-.61,2.32,2.32,0,0,1-.59-1.68A2.55,2.55,0,0,1,103.9,98a1.9,1.9,0,0,1,1.51-.63,1.85,1.85,0,0,1,1.41.54,2.06,2.06,0,0,1,.52,1.49v.52h-3a1.47,1.47,0,0,0,.35,1,1.23,1.23,0,0,0,.94.35,3.47,3.47,0,0,0,.74-.08,3.88,3.88,0,0,0,.74-.25v.78a2.93,2.93,0,0,1-.71.24A4.38,4.38,0,0,1,105.58,102Zm-.17-3.93a1,1,0,0,0-.73.29,1.37,1.37,0,0,0-.33.84h2a1.24,1.24,0,0,0-.27-.84A.92.92,0,0,0,105.41,98.08Z"/><path class="cls-11" d="M48.37,129l-1.72-5h0q.07,1.1.07,2.07V129h-.88v-5.94h1.37l1.65,4.72h0l1.7-4.72h1.37V129H51v-2.94q0-.44,0-1.15t0-.86h0l-1.78,5Z"/><path class="cls-11" d="M56.19,129l-.19-.63h0a1.84,1.84,0,0,1-.65.56,2.07,2.07,0,0,1-.85.15,1.43,1.43,0,0,1-1-.36,1.34,1.34,0,0,1-.37-1,1.19,1.19,0,0,1,.52-1,3,3,0,0,1,1.57-.39l.78,0V126a.91.91,0,0,0-.2-.64.82.82,0,0,0-.62-.21,2.14,2.14,0,0,0-.66.1,5,5,0,0,0-.61.24l-.31-.68a3.31,3.31,0,0,1,.8-.29,3.69,3.69,0,0,1,.82-.1,1.94,1.94,0,0,1,1.29.37,1.46,1.46,0,0,1,.44,1.17v3Zm-1.42-.65a1.18,1.18,0,0,0,.84-.29,1.05,1.05,0,0,0,.31-.81v-.39l-.58,0a2,2,0,0,0-1,.23.68.68,0,0,0-.31.62.6.6,0,0,0,.18.47A.77.77,0,0,0,54.77,128.37Z"/><path class="cls-11" d="M61.23,127.74a1.18,1.18,0,0,1-.48,1,2.29,2.29,0,0,1-1.37.35,3.24,3.24,0,0,1-1.44-.27V128a3.54,3.54,0,0,0,1.48.37q.88,0,.88-.53a.42.42,0,0,0-.1-.28,1.14,1.14,0,0,0-.32-.24,5.59,5.59,0,0,0-.62-.28,2.87,2.87,0,0,1-1.05-.6,1.11,1.11,0,0,1-.27-.78,1,1,0,0,1,.47-.9,2.21,2.21,0,0,1,1.27-.32,3.59,3.59,0,0,1,1.5.32l-.31.72a3.33,3.33,0,0,0-1.22-.3q-.76,0-.76.43a.43.43,0,0,0,.2.36,4.32,4.32,0,0,0,.86.4,3.94,3.94,0,0,1,.81.39,1.18,1.18,0,0,1,.37.41A1.19,1.19,0,0,1,61.23,127.74Z"/><path class="cls-11" d="M63.93,128.33a2.34,2.34,0,0,0,.7-.11v.72a1.93,1.93,0,0,1-.41.12,2.81,2.81,0,0,1-.52,0q-1.36,0-1.36-1.43v-2.42h-.61v-.42l.66-.35.33-1h.59v1h1.28v.72H63.31v2.41a.68.68,0,0,0,.17.51A.63.63,0,0,0,63.93,128.33Z"/><path class="cls-11" d="M67.49,129.1a2.17,2.17,0,0,1-1.64-.61,2.32,2.32,0,0,1-.59-1.68,2.55,2.55,0,0,1,.55-1.73,1.9,1.9,0,0,1,1.51-.63,1.85,1.85,0,0,1,1.41.54,2.06,2.06,0,0,1,.52,1.49V127h-3a1.47,1.47,0,0,0,.35,1,1.23,1.23,0,0,0,.94.35,3.47,3.47,0,0,0,.74-.08A3.88,3.88,0,0,0,69,128v.78a2.93,2.93,0,0,1-.71.24A4.38,4.38,0,0,1,67.49,129.1Zm-.17-3.93a1,1,0,0,0-.73.29,1.37,1.37,0,0,0-.33.84h2a1.24,1.24,0,0,0-.27-.84A.92.92,0,0,0,67.32,125.17Z"/><path class="cls-11" d="M72.6,124.44a2.31,2.31,0,0,1,.48,0l-.09.89a1.81,1.81,0,0,0-.42,0,1.22,1.22,0,0,0-.93.37,1.35,1.35,0,0,0-.36,1V129h-1v-4.49h.75l.13.79h0a1.78,1.78,0,0,1,.58-.64A1.39,1.39,0,0,1,72.6,124.44Z"/><path class="cls-11" d="M76.93,127.74a1.18,1.18,0,0,1-.48,1,2.3,2.3,0,0,1-1.37.35,3.24,3.24,0,0,1-1.44-.27V128a3.54,3.54,0,0,0,1.47.37q.88,0,.88-.53a.42.42,0,0,0-.1-.28,1.15,1.15,0,0,0-.32-.24A5.59,5.59,0,0,0,75,127a2.87,2.87,0,0,1-1.05-.6,1.11,1.11,0,0,1-.27-.78,1,1,0,0,1,.47-.9,2.21,2.21,0,0,1,1.27-.32,3.59,3.59,0,0,1,1.5.32l-.31.72a3.33,3.33,0,0,0-1.22-.3q-.76,0-.76.43a.43.43,0,0,0,.2.36,4.33,4.33,0,0,0,.86.4,3.93,3.93,0,0,1,.81.39,1.09,1.09,0,0,1,.5,1Z"/><path class="cls-11" d="M46.78,153.73v2.37h-1v-5.94h1.68a2.76,2.76,0,0,1,1.7.43,1.55,1.55,0,0,1,.55,1.3,1.62,1.62,0,0,1-1.15,1.58l1.68,2.63H49.16l-1.42-2.37Zm0-.8h.67a1.54,1.54,0,0,0,1-.25.92.92,0,0,0,.3-.75.8.8,0,0,0-.33-.72,1.8,1.8,0,0,0-1-.22h-.64Z"/><path class="cls-11" d="M53,156.19a2.17,2.17,0,0,1-1.64-.61,2.32,2.32,0,0,1-.59-1.68,2.55,2.55,0,0,1,.55-1.73,1.9,1.9,0,0,1,1.51-.63,1.85,1.85,0,0,1,1.41.54,2.06,2.06,0,0,1,.52,1.49v.52h-3a1.48,1.48,0,0,0,.35,1,1.23,1.23,0,0,0,.94.35,3.47,3.47,0,0,0,.74-.08,3.89,3.89,0,0,0,.74-.25v.78a2.93,2.93,0,0,1-.71.24A4.37,4.37,0,0,1,53,156.19Zm-.18-3.93a1,1,0,0,0-.73.29,1.37,1.37,0,0,0-.33.84h2a1.24,1.24,0,0,0-.27-.84A.92.92,0,0,0,52.81,152.26Z"/><path class="cls-11" d="M57.63,156.19a2,2,0,0,1-1.55-.6,3,3,0,0,1,0-3.45,2.06,2.06,0,0,1,1.6-.61,3,3,0,0,1,1.28.26l-.29.77a2.89,2.89,0,0,0-1-.24q-1.17,0-1.17,1.55a1.85,1.85,0,0,0,.29,1.14,1,1,0,0,0,.85.38,2.44,2.44,0,0,0,1.21-.32v.83a1.89,1.89,0,0,1-.55.22A3.29,3.29,0,0,1,57.63,156.19Z"/><path class="cls-11" d="M61.9,156.19a2.17,2.17,0,0,1-1.64-.61,2.32,2.32,0,0,1-.59-1.68,2.54,2.54,0,0,1,.55-1.73,1.89,1.89,0,0,1,1.51-.63,1.85,1.85,0,0,1,1.41.54,2.06,2.06,0,0,1,.52,1.49v.52h-3a1.47,1.47,0,0,0,.35,1,1.23,1.23,0,0,0,.94.35,3.47,3.47,0,0,0,.74-.08,3.89,3.89,0,0,0,.74-.25v.78a2.93,2.93,0,0,1-.71.24A4.37,4.37,0,0,1,61.9,156.19Zm-.17-3.93a1,1,0,0,0-.73.29,1.38,1.38,0,0,0-.33.84h2a1.24,1.24,0,0,0-.27-.84A.92.92,0,0,0,61.72,152.26Z"/><path class="cls-11" d="M68.68,156.11h-1v-2.76a1.21,1.21,0,0,0-.21-.78.81.81,0,0,0-.66-.26,1.06,1.06,0,0,0-.89.36,2,2,0,0,0-.28,1.2v2.24h-1v-4.49h.75l.13.59h0a1.33,1.33,0,0,1,.58-.5,1.94,1.94,0,0,1,.83-.17,1.44,1.44,0,0,1,1.62,1.65Z"/><path class="cls-11" d="M71.69,155.42a2.34,2.34,0,0,0,.7-.11V156a1.93,1.93,0,0,1-.41.12,2.81,2.81,0,0,1-.52,0q-1.36,0-1.36-1.43v-2.42h-.61v-.42l.66-.35.33-1h.59v1h1.28v.72H71.06v2.41a.68.68,0,0,0,.17.51A.63.63,0,0,0,71.69,155.42Z"/><path class="cls-11" d="M46.77,220.76h-1v-5.94h3.35v.82H46.77v1.86H49v.83H46.77Z"/><path class="cls-11" d="M50.08,215.07a.53.53,0,0,1,.14-.39.55.55,0,0,1,.4-.14.54.54,0,0,1,.39.14.53.53,0,0,1,.14.39.52.52,0,0,1-.14.38.53.53,0,0,1-.39.14.54.54,0,0,1-.4-.14A.52.52,0,0,1,50.08,215.07Zm1,5.68h-1v-4.49h1Z"/><path class="cls-11" d="M54.42,220.84a2.17,2.17,0,0,1-1.64-.61,2.32,2.32,0,0,1-.59-1.68,2.55,2.55,0,0,1,.55-1.73,1.9,1.9,0,0,1,1.51-.63,1.85,1.85,0,0,1,1.41.54,2.06,2.06,0,0,1,.52,1.49v.52h-3a1.48,1.48,0,0,0,.35,1,1.23,1.23,0,0,0,.94.35,3.47,3.47,0,0,0,.74-.08,3.89,3.89,0,0,0,.74-.25v.78a2.93,2.93,0,0,1-.71.24A4.37,4.37,0,0,1,54.42,220.84Zm-.18-3.93a1,1,0,0,0-.73.29,1.37,1.37,0,0,0-.33.84h2a1.24,1.24,0,0,0-.27-.84A.92.92,0,0,0,54.24,216.9Z"/><path class="cls-11" d="M58.2,220.76h-1v-6.32h1Z"/><path class="cls-11" d="M61.08,220.84a1.57,1.57,0,0,1-1.31-.61,3.34,3.34,0,0,1,0-3.43,1.58,1.58,0,0,1,1.32-.62,1.55,1.55,0,0,1,1.35.65h0a5.69,5.69,0,0,1-.07-.76v-1.64h1v6.32h-.75l-.17-.59h0A1.53,1.53,0,0,1,61.08,220.84Zm.26-.77a1,1,0,0,0,.86-.33,1.74,1.74,0,0,0,.28-1.07v-.13a2,2,0,0,0-.28-1.21,1,1,0,0,0-.87-.36.88.88,0,0,0-.78.41,2.09,2.09,0,0,0-.27,1.16,2,2,0,0,0,.26,1.14A.89.89,0,0,0,61.34,220.06Z"/><path class="cls-11" d="M67.77,219.48a1.18,1.18,0,0,1-.48,1,2.3,2.3,0,0,1-1.37.35,3.24,3.24,0,0,1-1.44-.27v-.82a3.54,3.54,0,0,0,1.47.37q.88,0,.88-.53a.42.42,0,0,0-.1-.28,1.15,1.15,0,0,0-.32-.24,5.57,5.57,0,0,0-.62-.28,2.86,2.86,0,0,1-1.05-.6,1.11,1.11,0,0,1-.28-.78,1,1,0,0,1,.47-.9,2.21,2.21,0,0,1,1.27-.32,3.59,3.59,0,0,1,1.5.32l-.31.72a3.33,3.33,0,0,0-1.22-.3q-.76,0-.76.43a.43.43,0,0,0,.2.36,4.3,4.3,0,0,0,.86.4,3.91,3.91,0,0,1,.81.39,1.09,1.09,0,0,1,.5,1Z"/><path class="cls-11" d="M47.86,183.95h-1v-5.11H45.14V178h4.47v.83H47.86Z"/><path class="cls-11" d="M52.38,184a2.17,2.17,0,0,1-1.64-.61,2.32,2.32,0,0,1-.59-1.68,2.54,2.54,0,0,1,.55-1.73,1.89,1.89,0,0,1,1.51-.63,1.85,1.85,0,0,1,1.41.54,2.06,2.06,0,0,1,.52,1.49v.52h-3a1.47,1.47,0,0,0,.35,1,1.23,1.23,0,0,0,.94.35,3.47,3.47,0,0,0,.74-.08,3.89,3.89,0,0,0,.74-.25v.78a2.93,2.93,0,0,1-.71.24A4.37,4.37,0,0,1,52.38,184Zm-.17-3.93a1,1,0,0,0-.73.29,1.38,1.38,0,0,0-.33.84h2a1.24,1.24,0,0,0-.27-.84A.92.92,0,0,0,52.2,180.09Z"/><path class="cls-11" d="M59,183.95H58v-2.77a1.26,1.26,0,0,0-.2-.77.72.72,0,0,0-.61-.25.93.93,0,0,0-.81.36,2.11,2.11,0,0,0-.26,1.2v2.24h-1v-4.49H56l.13.59h0a1.24,1.24,0,0,1,.54-.5,1.75,1.75,0,0,1,.78-.17,1.37,1.37,0,0,1,1.37.71h.07a1.37,1.37,0,0,1,.56-.52,1.78,1.78,0,0,1,.83-.19,1.51,1.51,0,0,1,1.17.41,1.8,1.8,0,0,1,.37,1.24v2.93h-1v-2.77a1.24,1.24,0,0,0-.2-.77.72.72,0,0,0-.61-.25,1,1,0,0,0-.81.35,1.79,1.79,0,0,0-.26,1.07Z"/><path class="cls-11" d="M65.44,184a1.57,1.57,0,0,1-1.32-.61h-.06q.06.57.06.69v1.84h-1v-6.49h.77c0,.08.07.28.13.6h0a1.49,1.49,0,0,1,1.34-.68,1.56,1.56,0,0,1,1.31.61,3.34,3.34,0,0,1,0,3.43A1.57,1.57,0,0,1,65.44,184Zm-.23-3.88a1,1,0,0,0-.83.33,1.72,1.72,0,0,0-.26,1.06v.14a2.1,2.1,0,0,0,.26,1.19,1,1,0,0,0,.85.37.86.86,0,0,0,.76-.41,2.1,2.1,0,0,0,.27-1.16,2,2,0,0,0-.27-1.14A.89.89,0,0,0,65.21,180.15Z"/><path class="cls-11" d="M69.3,183.95h-1v-6.32h1Z"/><path class="cls-11" d="M73.48,183.95l-.19-.63h0a1.84,1.84,0,0,1-.65.56,2.07,2.07,0,0,1-.85.15,1.43,1.43,0,0,1-1-.36,1.33,1.33,0,0,1-.37-1,1.19,1.19,0,0,1,.52-1,3,3,0,0,1,1.57-.39l.78,0V181a.91.91,0,0,0-.2-.64.82.82,0,0,0-.62-.21,2.14,2.14,0,0,0-.66.1,5,5,0,0,0-.61.24l-.31-.68a3.31,3.31,0,0,1,.8-.29,3.68,3.68,0,0,1,.82-.1,1.94,1.94,0,0,1,1.29.37,1.46,1.46,0,0,1,.44,1.17v3Zm-1.42-.65a1.18,1.18,0,0,0,.84-.29,1.05,1.05,0,0,0,.32-.81v-.39l-.58,0a2,2,0,0,0-1,.23.68.68,0,0,0-.31.62.6.6,0,0,0,.18.47A.77.77,0,0,0,72.06,183.3Z"/><path class="cls-11" d="M77.17,183.26a2.34,2.34,0,0,0,.7-.11v.72a1.94,1.94,0,0,1-.41.12,2.8,2.8,0,0,1-.52,0q-1.36,0-1.36-1.43v-2.42H75v-.42l.66-.35.33-1h.59v1h1.28v.72H76.54v2.41a.68.68,0,0,0,.17.51A.63.63,0,0,0,77.17,183.26Z"/><path class="cls-11" d="M80.73,184a2.17,2.17,0,0,1-1.64-.61,2.32,2.32,0,0,1-.59-1.68A2.55,2.55,0,0,1,79,180a1.9,1.9,0,0,1,1.51-.63,1.85,1.85,0,0,1,1.41.54,2.06,2.06,0,0,1,.52,1.49v.52h-3a1.48,1.48,0,0,0,.35,1,1.23,1.23,0,0,0,.94.35,3.47,3.47,0,0,0,.74-.08,3.89,3.89,0,0,0,.74-.25v.78a2.93,2.93,0,0,1-.71.24A4.37,4.37,0,0,1,80.73,184Zm-.18-3.93a1,1,0,0,0-.73.29,1.37,1.37,0,0,0-.33.84h2a1.24,1.24,0,0,0-.27-.84A.92.92,0,0,0,80.55,180.09Z"/><path class="cls-11" d="M86.58,182.67a1.18,1.18,0,0,1-.48,1,2.29,2.29,0,0,1-1.37.35,3.24,3.24,0,0,1-1.44-.27v-.82a3.54,3.54,0,0,0,1.48.37q.88,0,.88-.53a.42.42,0,0,0-.1-.28,1.14,1.14,0,0,0-.32-.24,5.57,5.57,0,0,0-.62-.28,2.86,2.86,0,0,1-1.05-.6,1.11,1.11,0,0,1-.27-.78,1,1,0,0,1,.47-.9,2.21,2.21,0,0,1,1.27-.32,3.59,3.59,0,0,1,1.5.32l-.31.72a3.33,3.33,0,0,0-1.22-.3q-.76,0-.76.43a.43.43,0,0,0,.2.36,4.29,4.29,0,0,0,.86.4,3.92,3.92,0,0,1,.81.39,1.18,1.18,0,0,1,.37.41A1.19,1.19,0,0,1,86.58,182.67Z"/><polygon class="cls-8" points="21.37 127.65 33.2 127.65 33.2 122.99 30.19 124.8 27.31 120.1 24.58 124.7 21.37 122.99 21.37 127.65"/><rect class="cls-8" x="21.37" y="128.52" width="11.83" height="1.33"/><g id="Filled_Icons-4" data-name="Filled Icons"><path class="cls-8" d="M32.72,177.2H28l-.85-1.11a1.17,1.17,0,0,0-1-.65H22.74a.59.59,0,0,0-.59.59v8.21a1.17,1.17,0,0,0,1.17,1.17h9.39a1.17,1.17,0,0,0,1.17-1.17v-5.87A1.17,1.17,0,0,0,32.72,177.2Zm-7,4.69-1.17-1.17-1.17,1.17v-5.28h2.35Z"/></g><rect class="cls-12" x="15.12" y="200.12" width="99.21" height="0.75"/><path class="cls-1" d="M31.62,11.3h.88L34,14l.5,1h0c0-.49-.11-1.1-.11-1.64V11.3h.81v4.81h-.87l-1.49-2.71-.5-1h0c0,.51.11,1.09.11,1.63v2.1h-.81Z"/><path class="cls-1" d="M36.61,11.3H39.5V12h-2v1.23h1.73V14H37.46v1.42h2.11v.72h-3Z"/><path class="cls-1" d="M40.23,11.3h.88l.41,2.43.24,1.54h0c.1-.51.21-1,.31-1.54l.6-2.43h.74l.6,2.43c.1.5.21,1,.32,1.54h0c.08-.51.15-1,.24-1.54L45,11.3h.82l-.93,4.81H43.86l-.6-2.53c-.08-.37-.15-.74-.21-1.11h0c-.07.37-.13.74-.21,1.11l-.58,2.53h-1Z"/><path class="cls-13" d="M231.56,231.56H0V0H231.56ZM2,229.56H229.56V2H2Z"/></g></g></svg>