<svg xmlns="http://www.w3.org/2000/svg" viewBox="0 0 542.97 381.61"><defs><style>.cls-1{isolation:isolate;}.cls-14,.cls-2{fill:none;}.cls-3{fill:#ccd3d3;}.cls-4{fill:#7b93df;}.cls-5{fill:#fc7d69;}.cls-6{fill:#92e1b7;}.cls-7{fill:#f83d2c;}.cls-8{fill:#015abc;}.cls-9{fill:#93e2b8;}.cls-10,.cls-9{mix-blend-mode:multiply;}.cls-11{fill:#cacac9;}.cls-12{fill:#fff;}.cls-13{fill:#e5e5e5;}.cls-14{stroke:#ccd3d3;stroke-miterlimit:10;stroke-width:1.69px;}.cls-15{fill:#ffd547;}.cls-16{fill:#fbc32a;}.cls-17{fill:#a5a5af;}</style></defs><title>master-roadmapping</title><g class="cls-1"><g id="Layer_2" data-name="Layer 2"><g id="Top_layer" data-name="Top layer"><rect class="cls-2" width="542.97" height="381.61"/><path class="cls-3" d="M444.06,122.93H133.79c-.27,0-.48-.16-.48-.36v-1.23c0-.2.22-.36.48-.36H444.06c.27,0,0,.16,0,.36v1.23C444.06,122.76,444.33,122.93,444.06,122.93Z"/><path class="cls-3" d="M444.06,141.15H133.79c-.27,0-.48-.16-.48-.36v-1.23c0-.2.22-.36.48-.36H444.06c.27,0,0,.16,0,.36v1.23C444.06,141,444.33,141.15,444.06,141.15Z"/><path class="cls-3" d="M444.06,159.7H133.79c-.27,0-.48-.16-.48-.36v-1.23c0-.2.22-.36.48-.36H444.06c.27,0,0,.16,0,.36v1.23C444.06,159.54,444.33,159.7,444.06,159.7Z"/><path class="cls-3" d="M444.06,206.07H133.79c-.27,0-.48-.16-.48-.36v-1.23c0-.2.22-.36.48-.36H444.06c.27,0,0,.16,0,.36v1.23C444.06,205.91,444.33,206.07,444.06,206.07Z"/><path class="cls-3" d="M444.06,224H133.79c-.27,0-.48-.16-.48-.36v-1.23c0-.2.22-.36.48-.36H444.06c.27,0,0,.16,0,.36v1.23C444.06,223.87,444.33,224,444.06,224Z"/><path class="cls-3" d="M444.06,242.4H133.79c-.27,0-.48-.16-.48-.36v-1.23c0-.2.22-.36.48-.36H444.06c.27,0,0,.16,0,.36V242C444.06,242.23,444.33,242.4,444.06,242.4Z"/><rect class="cls-4" x="148.63" y="117.6" width="84.9" height="8.68" rx="4.34" ry="4.34"/><path class="cls-3" d="M444.06,178.25H133.79c-.27,0-.48-.16-.48-.36v-1.23c0-.2.22-.36.48-.36H444.06c.27,0,0,.16,0,.36v1.23C444.06,178.08,444.33,178.25,444.06,178.25Z"/><path class="cls-3" d="M444.06,94.75H133.79c-.27,0-.48-.16-.48-.36V93.16c0-.2.22-.36.48-.36H444.06c.27,0,0,.16,0,.36v1.23C444.06,94.59,444.33,94.75,444.06,94.75Z"/><path class="cls-3" d="M444.06,76.9H133.79c-.27,0-.48-.16-.48-.36V75.31c0-.2.22-.36.48-.36H444.06c.27,0,0,.16,0,.36v1.23C444.06,76.74,444.33,76.9,444.06,76.9Z"/><path class="cls-3" d="M444.06,58.62H133.79c-.27,0-.48-.16-.48-.36V57c0-.2.22-.36.48-.36H444.06c.27,0,0,.16,0,.36v1.23C444.06,58.45,444.33,58.62,444.06,58.62Z"/><rect class="cls-5" x="95.51" y="49.23" width="34.25" height="59.94"/><rect class="cls-4" x="95.51" y="112.83" width="34.25" height="79.21"/><rect class="cls-6" x="95.51" y="196.11" width="34.25" height="52.91"/><rect class="cls-5" x="284.43" y="89.62" width="85.92" height="8.68" rx="4.34" ry="4.34" transform="translate(654.77 187.91) rotate(-180)"/><rect class="cls-5" x="260.93" y="71.59" width="47.14" height="8.68" rx="4.34" ry="4.34" transform="translate(569 151.86) rotate(180)"/><rect class="cls-4" x="250" y="172.93" width="111.52" height="8.68" rx="4.34" ry="4.34" transform="translate(611.51 354.54) rotate(180)"/><rect class="cls-6" x="169.76" y="237.08" width="106.6" height="8.68" rx="4.34" ry="4.34" transform="translate(446.13 482.84) rotate(180)"/><rect class="cls-4" x="164.68" y="154.54" width="76.01" height="8.68" rx="4.34" ry="4.34" transform="translate(405.36 317.76) rotate(180)"/><rect class="cls-6" x="209.75" y="200.95" width="81.47" height="8.68" rx="4.34" ry="4.34" transform="translate(500.98 410.57) rotate(-180)"/><rect class="cls-6" x="155.98" y="218.72" width="49.75" height="8.68" rx="4.34" ry="4.34" transform="translate(361.71 446.11) rotate(180)"/><rect class="cls-6" x="308.37" y="218.72" width="92.37" height="8.68" rx="4.34" ry="4.34" transform="translate(709.11 446.11) rotate(-180)"/><rect class="cls-4" x="247.06" y="135.99" width="76.01" height="8.68" rx="4.34" ry="4.34" transform="translate(570.12 280.66) rotate(-180)"/><rect class="cls-5" x="159.61" y="89.62" width="82.1" height="8.68" rx="4.34" ry="4.34" transform="translate(401.32 187.91) rotate(-180)"/><rect class="cls-4" x="353.12" y="117.6" width="84.9" height="8.68" rx="4.34" ry="4.34"/><rect class="cls-4" x="354.2" y="154.54" width="76.01" height="8.68" rx="4.34" ry="4.34" transform="translate(784.41 317.76) rotate(180)"/><rect class="cls-6" x="380.81" y="237.08" width="49.75" height="8.68" rx="4.34" ry="4.34" transform="translate(811.36 482.84) rotate(-180)"/><rect class="cls-5" x="364.1" y="71.66" width="82.1" height="8.68" rx="4.34" ry="4.34" transform="translate(810.31 151.99) rotate(-180)"/><circle class="cls-5" cx="192" cy="57.63" r="4.7"/><circle class="cls-5" cx="219.72" cy="57.63" r="4.7"/><circle class="cls-5" cx="340.71" cy="57.63" r="4.7"/><circle class="cls-4" cx="262.43" cy="121.95" r="4.7"/><circle class="cls-4" cx="309.04" cy="121.95" r="4.7"/><rect class="cls-7" x="109.7" y="64.81" width="5.87" height="28.78" rx="0.93" ry="0.93"/><rect class="cls-8" x="109.7" y="133.51" width="5.87" height="37.85" rx="0.93" ry="0.93"/><rect class="cls-9" x="109.7" y="208.18" width="5.87" height="28.78" rx="0.93" ry="0.93"/><g class="cls-10"><path class="cls-11" d="M167,274.31H18.82a2,2,0,0,0-2,2v5.91h0v5h0v80.82a2.31,2.31,0,0,0,2.31,2.31H166.43a2.31,2.31,0,0,0,2.31-2.31V276A1.74,1.74,0,0,0,167,274.31Z"/></g><path class="cls-12" d="M18.73,369.81a1.53,1.53,0,0,1-1.53-1.53V280.65h151v87.63a1.53,1.53,0,0,1-1.53,1.53Z"/><path class="cls-11" d="M167.61,281.2v87.08a1,1,0,0,1-1,1H18.73a1,1,0,0,1-1-1V281.2H167.61m1.12-1.12H16.64v88.19a2.08,2.08,0,0,0,2.08,2.08H166.64a2.08,2.08,0,0,0,2.08-2.08V280.09Z"/><rect class="cls-13" x="16.64" y="280.09" width="152.08" height="6.47"/><line class="cls-14" x1="51.87" y1="299.78" x2="158.88" y2="299.78"/><line class="cls-14" x1="51.87" y1="319.85" x2="158.88" y2="319.85"/><line class="cls-14" x1="51.87" y1="338.86" x2="158.88" y2="338.86"/><line class="cls-14" x1="51.87" y1="358.81" x2="158.88" y2="358.81"/><rect class="cls-5" x="24.64" y="295.33" width="23.54" height="31.06"/><rect class="cls-5" x="24.64" y="331.08" width="23.54" height="31.06"/><rect class="cls-5" x="24.64" y="295.33" width="23.54" height="31.06"/><rect class="cls-5" x="24.64" y="331.08" width="23.54" height="31.06"/><rect class="cls-5" x="107.33" y="297.05" width="51.55" height="5.45" rx="2.73" ry="2.73"/><rect class="cls-5" x="107.33" y="336.13" width="51.55" height="5.45" rx="2.73" ry="2.73"/><rect class="cls-5" x="60.77" y="336.13" width="29.93" height="5.45" rx="2.73" ry="2.73"/><rect class="cls-5" x="55.78" y="356.08" width="67.35" height="5.45" rx="2.73" ry="2.73"/><rect class="cls-5" x="99.01" y="317.01" width="49.05" height="5.45" rx="2.73" ry="2.73"/><rect class="cls-5" x="57.44" y="317.01" width="24.11" height="5.45" rx="2.73" ry="2.73"/><rect class="cls-5" x="136.43" y="356.08" width="24.11" height="5.45" rx="2.73" ry="2.73"/><ellipse class="cls-5" cx="92.36" cy="299.78" rx="3.33" ry="2.73"/><ellipse class="cls-5" cx="66.59" cy="299.78" rx="3.33" ry="2.73"/><g class="cls-10"><path class="cls-11" d="M344.4,274.31H196.22a2,2,0,0,0-2,2v5.91h0v5h0v80.82a2.31,2.31,0,0,0,2.31,2.31H343.83a2.31,2.31,0,0,0,2.31-2.31V276A1.74,1.74,0,0,0,344.4,274.31Z"/></g><path class="cls-12" d="M196.13,369.81a1.53,1.53,0,0,1-1.53-1.53V280.65h151v87.63a1.53,1.53,0,0,1-1.53,1.53Z"/><path class="cls-11" d="M345,281.2v87.08a1,1,0,0,1-1,1H196.13a1,1,0,0,1-1-1V281.2H345m1.12-1.12H194v88.19a2.08,2.08,0,0,0,2.08,2.08H344a2.08,2.08,0,0,0,2.08-2.08V280.09Z"/><rect class="cls-13" x="194.05" y="280.09" width="152.08" height="6.47"/><line class="cls-14" x1="230.94" y1="298.94" x2="337.95" y2="298.94"/><line class="cls-14" x1="230.94" y1="319.01" x2="337.95" y2="319.01"/><line class="cls-14" x1="230.94" y1="338.01" x2="337.95" y2="338.01"/><line class="cls-14" x1="230.94" y1="357.97" x2="337.95" y2="357.97"/><rect class="cls-6" x="201.39" y="294.48" width="23.66" height="50.43"/><rect class="cls-6" x="201.39" y="349.92" width="23.66" height="13.37"/><rect class="cls-6" x="201.39" y="294.48" width="23.66" height="50.43"/><rect class="cls-6" x="201.39" y="349.92" width="23.66" height="13.37"/><rect class="cls-6" x="244.75" y="296.22" width="51.8" height="5.48" rx="2.74" ry="2.74"/><rect class="cls-6" x="234.35" y="316.27" width="51.8" height="5.48" rx="2.74" ry="2.74" transform="translate(520.5 638.02) rotate(-180)"/><rect class="cls-6" x="302.86" y="316.27" width="30.08" height="5.48" rx="2.74" ry="2.74" transform="translate(635.79 638.02) rotate(-180)"/><rect class="cls-6" x="232.68" y="355.53" width="67.67" height="5.48" rx="2.74" ry="2.74"/><rect class="cls-6" x="256.54" y="335.48" width="49.29" height="5.48" rx="2.74" ry="2.74" transform="translate(562.37 676.45) rotate(180)"/><rect class="cls-6" x="312.05" y="335.48" width="24.23" height="5.48" rx="2.74" ry="2.74" transform="translate(648.32 676.45) rotate(180)"/><rect class="cls-6" x="313.6" y="296.22" width="16.66" height="5.48" rx="2.74" ry="2.74"/><rect class="cls-6" x="233.81" y="335.48" width="16.66" height="5.48" rx="2.74" ry="2.74"/><rect class="cls-6" x="313.72" y="355.53" width="24.23" height="5.48" rx="2.74" ry="2.74"/><g class="cls-10"><path class="cls-11" d="M524.51,274.31H376.33a2,2,0,0,0-2,2v5.91h0v5h0v80.82a2.31,2.31,0,0,0,2.31,2.31H523.94a2.31,2.31,0,0,0,2.31-2.31V276A1.74,1.74,0,0,0,524.51,274.31Z"/></g><path class="cls-12" d="M376.24,369.81a1.53,1.53,0,0,1-1.53-1.53V280.65h151v87.63a1.53,1.53,0,0,1-1.53,1.53Z"/><path class="cls-11" d="M525.12,281.2v87.08a1,1,0,0,1-1,1H376.24a1,1,0,0,1-1-1V281.2H525.12m1.12-1.12H374.16v88.19a2.08,2.08,0,0,0,2.08,2.08H524.16a2.08,2.08,0,0,0,2.08-2.08V280.09Z"/><rect class="cls-13" x="374.25" y="280.09" width="152.08" height="6.47"/><line class="cls-14" x1="410.73" y1="298.94" x2="517.73" y2="298.94"/><line class="cls-14" x1="410.73" y1="319.01" x2="517.73" y2="319.01"/><line class="cls-14" x1="410.73" y1="338.01" x2="517.73" y2="338.01"/><line class="cls-14" x1="410.73" y1="357.97" x2="517.73" y2="357.97"/><rect class="cls-4" x="382.34" y="333.89" width="23.74" height="31.23"/><rect class="cls-4" x="382.34" y="294.48" width="23.74" height="34.41"/><rect class="cls-4" x="382.34" y="333.89" width="23.74" height="31.23"/><rect class="cls-4" x="382.34" y="294.48" width="23.74" height="34.41"/><rect class="cls-4" x="447.71" y="296.43" width="51.99" height="5.5" rx="2.75" ry="2.75"/><rect class="cls-4" x="465.74" y="335.84" width="51.99" height="5.5" rx="2.75" ry="2.75"/><rect class="cls-4" x="418.78" y="335.84" width="30.19" height="5.5" rx="2.75" ry="2.75"/><rect class="cls-4" x="428.29" y="316.31" width="15.89" height="5.5" rx="2.75" ry="2.75"/><rect class="cls-4" x="417.2" y="296.43" width="15.89" height="5.5" rx="2.75" ry="2.75"/><rect class="cls-4" x="413.75" y="355.25" width="67.92" height="5.5" rx="2.75" ry="2.75"/><rect class="cls-4" x="453.72" y="316.55" width="49.47" height="5.5" rx="2.75" ry="2.75"/><rect class="cls-4" x="489.39" y="355.25" width="24.32" height="5.5" rx="2.75" ry="2.75"/><path class="cls-15" d="M284.18,29,271.49,5.67,258.8,29l-12.69-8.6V37.31a195.9,195.9,0,0,0,25.38,1.33,207.86,207.86,0,0,0,25.38-1.33V20.42Z"/><path class="cls-16" d="M271.49,38.64a207.86,207.86,0,0,0,25.38-1.33V20.42L284.18,29,271.49,5.67Z"/><path class="cls-17" d="M60.73,262.53c-.2-1-18.85-96.28,11.5-172.14A2.86,2.86,0,0,1,76,88.83L78.73,90c-31.19,74.58-12.4,171.42-12.21,172.39Z"/><polygon class="cls-17" points="80.22 106.81 79.31 83.33 62.11 99.33 80.22 106.81"/><path class="cls-17" d="M287.54,262.16,282,262c0-.26,2.85-23.7-7.53-42.3l4.9-2.73C290.68,237.18,287.67,261,287.54,262.16Z"/><polygon class="cls-17" points="288 220.9 273.5 206.94 272.22 227.03 288 220.9"/><path class="cls-17" d="M475.87,262.34,470,262c.15-.69,14.74-69.45-13.13-120.09l5.26-2.89C491.09,191.62,476.5,259.44,475.87,262.34Z"/><path class="cls-17" d="M472.64,146.72,456,134.05a.05.05,0,0,0-.08,0l.75,21.37Z"/></g></g></g></svg>