<svg xmlns="http://www.w3.org/2000/svg" viewBox="0 0 53.86 53.86"><defs><style>.cls-1{fill:#81dcef;}</style></defs><title>shine-l</title><g id="Layer_2" data-name="Layer 2"><g id="Top_layer" data-name="Top layer"><path class="cls-1" d="M21.42,18.6l-11-11L7.58,10.41l11,11A15.36,15.36,0,0,1,21.42,18.6Z"/><path class="cls-1" d="M15.43,30.72a15.35,15.35,0,0,1,.15-2H0v4H15.57A15.35,15.35,0,0,1,15.43,30.72Z"/><path class="cls-1" d="M42.85,21.42l11-11L51,7.58l-11,11A15.36,15.36,0,0,1,42.85,21.42Z"/><path class="cls-1" d="M18.6,40l-11,11,2.83,2.83,11-11A15.36,15.36,0,0,1,18.6,40Z"/><path class="cls-1" d="M28.72,15.57a13.82,13.82,0,0,1,4,0V0h-4Z"/></g></g></svg>