<svg xmlns="http://www.w3.org/2000/svg" viewBox="0 0 53.86 53.86"><defs><style>.cls-1{fill:#81dcef;}</style></defs><title>shine-r</title><g id="Layer_2" data-name="Layer 2"><g id="Top_layer" data-name="Top layer"><path class="cls-1" d="M35.27,21.42l11-11L43.45,7.58l-11,11A15.36,15.36,0,0,1,35.27,21.42Z"/><path class="cls-1" d="M23.14,15.43a15.35,15.35,0,0,1,2,.15V0h-4V15.57A15.35,15.35,0,0,1,23.14,15.43Z"/><path class="cls-1" d="M32.44,42.85l11,11L46.28,51l-11-11A15.36,15.36,0,0,1,32.44,42.85Z"/><path class="cls-1" d="M13.84,18.6l-11-11L0,10.41l11,11A15.36,15.36,0,0,1,13.84,18.6Z"/><path class="cls-1" d="M38.29,28.72a13.82,13.82,0,0,1,0,4H53.86v-4Z"/></g></g></svg>