<svg xmlns="http://www.w3.org/2000/svg" viewBox="0 0 449.6 140.85"><defs><style>.cls-1{opacity:0.8;}.cls-2{fill:#eaf7f9;}.cls-3{fill:#545454;}.cls-4{fill:#81dcef;}</style></defs><title>why-its-better</title><g id="Layer_2" data-name="Layer 2"><g id="Top_layer" data-name="Top layer"><g class="cls-1"><path class="cls-2" d="M232.63,5.33C178.66,20.42,98.82-8.54,67.79,58.68c-10.55,22.85,14,103.76,147.53,76.69,49.06-9.95,98.25,5.94,132.71-11.53C442.5,76,338.05-24.14,232.63,5.33Z"/></g><path class="cls-3" d="M72.81,74.66l7.6-24.52h5.17l7.6,24.52,8.58-24.52H108L96.06,84.21h-5.7L83.2,60.86h-.39L75.64,84.21h-5.7L58,50.14h6.19Z"/><path class="cls-3" d="M116.73,70.18v14h-5.46V48.09h5.46V63a8.65,8.65,0,0,1,3.53-3.75,10,10,0,0,1,5.09-1.37,9.64,9.64,0,0,1,7.09,2.68q2.7,2.68,2.71,7.75V84.21H129.7V70q0-7.17-5.95-7.17a7.15,7.15,0,0,0-4.92,1.88A7,7,0,0,0,116.73,70.18Z"/><path class="cls-3" d="M144.81,94.55A9.39,9.39,0,0,1,138.37,92l2.49-4.44a5.14,5.14,0,0,0,3.53,1.61,3.76,3.76,0,0,0,3-1.32,4.3,4.3,0,0,0,1.15-2.88q0-.68-10.48-26.66h5.85l7.75,19.11,7.75-19.11h5.85L152.66,89.09a9.38,9.38,0,0,1-3.22,4A7.91,7.91,0,0,1,144.81,94.55Z"/><path class="cls-3" d="M180.78,53.11a3.41,3.41,0,1,1,2.44,1A3.33,3.33,0,0,1,180.78,53.11Zm5.12,31.1h-5.46V58.28h5.46Z"/><path class="cls-3" d="M199.3,62.67V75.83a4.27,4.27,0,0,0,1,2.95,3.46,3.46,0,0,0,2.73,1.1,4.65,4.65,0,0,0,3.36-1.71L208.61,82a9.31,9.31,0,0,1-6.36,2.58,8.18,8.18,0,0,1-5.95-2.41,8.7,8.7,0,0,1-2.46-6.51v-13h-3.27V58.28h3.27V50.14h5.46v8.14h6.82v4.39Z"/><path class="cls-3" d="M211.34,55.65A2.53,2.53,0,0,1,210,53.33a3.18,3.18,0,0,1,.88-2.39,3,3,0,0,1,2.19-.85,3.16,3.16,0,0,1,2.22.83,2.81,2.81,0,0,1,.9,2.17,4.53,4.53,0,0,1-.88,2.61l-2.88,4.14h-3Z"/><path class="cls-3" d="M238.4,76.46a7.3,7.3,0,0,1-2.68,5.92,10.42,10.42,0,0,1-6.87,2.22,18.4,18.4,0,0,1-5.87-1,17.64,17.64,0,0,1-5.39-2.88l2.63-4.24q4.53,3.41,8.77,3.41a4.57,4.57,0,0,0,2.92-.85A2.66,2.66,0,0,0,233,76.85q0-1.95-5.17-3.51c-.26-.1-.46-.16-.58-.2q-8.09-2.19-8.09-7.31a6.94,6.94,0,0,1,2.8-5.78,11.57,11.57,0,0,1,7.29-2.17,15.16,15.16,0,0,1,8.48,2.63l-2,4a12.21,12.21,0,0,0-6.87-2.1,6.27,6.27,0,0,0-3.17.71,2.3,2.3,0,0,0-1.22,2.12,1.94,1.94,0,0,0,1.27,1.85,12.26,12.26,0,0,0,2.46.83q1.58.39,2.8.78t2.36.88A15.34,15.34,0,0,1,235.76,71,6.1,6.1,0,0,1,238.4,76.46Z"/><path class="cls-3" d="M269.4,57.89a12.33,12.33,0,0,1,8.92,3.61,12.79,12.79,0,0,1,3.7,9.6,13.33,13.33,0,0,1-3.68,9.75,11.65,11.65,0,0,1-8.58,3.75q-4.9,0-8.8-4.29v3.9H255.5V48H261V62.81Q264.18,57.89,269.4,57.89ZM260.87,71.3a8.46,8.46,0,0,0,2.24,6.07,7.24,7.24,0,0,0,5.46,2.36,7.75,7.75,0,0,0,5.61-2.34,8.12,8.12,0,0,0,2.39-6.07,8.63,8.63,0,0,0-2.34-6.19,7.47,7.47,0,0,0-5.61-2.46,7.16,7.16,0,0,0-5.51,2.46A8.81,8.81,0,0,0,260.87,71.3Z"/><path class="cls-3" d="M311.17,73.64H290.84a5.91,5.91,0,0,0,2.58,4.56,9.07,9.07,0,0,0,5.46,1.73q4.87,0,7.41-3.07l3.12,3.41A14.5,14.5,0,0,1,298.5,84.6,13,13,0,0,1,289.21,81a12.81,12.81,0,0,1-3.83-9.75,12.6,12.6,0,0,1,3.9-9.72,13.09,13.09,0,0,1,9.19-3.61,13.31,13.31,0,0,1,9,3.19,11,11,0,0,1,3.71,8.8Zm-20.33-4.29h14.87a6.25,6.25,0,0,0-2-5,7.48,7.48,0,0,0-5-1.75,8.64,8.64,0,0,0-5.39,1.83A5.9,5.9,0,0,0,290.84,69.35Z"/><path class="cls-3" d="M322.48,62.67V75.83a4.27,4.27,0,0,0,1,2.95,3.46,3.46,0,0,0,2.73,1.1,4.65,4.65,0,0,0,3.36-1.71L331.79,82a9.31,9.31,0,0,1-6.36,2.58,8.18,8.18,0,0,1-5.95-2.41A8.7,8.7,0,0,1,317,75.68v-13h-3.27V58.28H317V50.14h5.46v8.14h6.82v4.39Z"/><path class="cls-3" d="M341.64,62.67V75.83a4.27,4.27,0,0,0,1,2.95,3.46,3.46,0,0,0,2.73,1.1,4.65,4.65,0,0,0,3.36-1.71L350.95,82a9.31,9.31,0,0,1-6.36,2.58,8.18,8.18,0,0,1-5.95-2.41,8.7,8.7,0,0,1-2.46-6.51v-13h-3.27V58.28h3.27V50.14h5.46v8.14h6.82v4.39Z"/><path class="cls-3" d="M378.19,73.64H357.87a5.91,5.91,0,0,0,2.58,4.56,9.07,9.07,0,0,0,5.46,1.73q4.87,0,7.41-3.07l3.12,3.41a14.5,14.5,0,0,1-10.92,4.34A13,13,0,0,1,356.23,81a12.81,12.81,0,0,1-3.83-9.75,12.6,12.6,0,0,1,3.9-9.72,13.09,13.09,0,0,1,9.19-3.61,13.31,13.31,0,0,1,9,3.19,11,11,0,0,1,3.71,8.8Zm-20.33-4.29h14.87a6.25,6.25,0,0,0-2-5,7.48,7.48,0,0,0-5-1.75,8.64,8.64,0,0,0-5.39,1.83A5.9,5.9,0,0,0,357.87,69.35Z"/><path class="cls-3" d="M396.57,63.4A7.24,7.24,0,0,0,390.48,66a11.21,11.21,0,0,0-2,7.07V84.21H383V58.28h5.46V63.5a11.33,11.33,0,0,1,3.58-4,8.64,8.64,0,0,1,4.8-1.61l0,5.51Z"/><path class="cls-4" d="M420.68,73.93l28.74.69.18-7.38-28.74-.69A28.35,28.35,0,0,1,420.68,73.93Z"/><path class="cls-4" d="M413.25,50.08a28.34,28.34,0,0,1,2.35,2.86l20.81-19.83-5.09-5.35L410.51,47.6A28.34,28.34,0,0,1,413.25,50.08Z"/><path class="cls-4" d="M414.78,87.27a25.51,25.51,0,0,1-5.35,5.09l19.83,20.81,5.35-5.09Z"/><path class="cls-4" d="M28.92,73.93.18,74.62,0,67.24l28.74-.69A28.35,28.35,0,0,0,28.92,73.93Z"/><path class="cls-4" d="M36.35,50.08A28.34,28.34,0,0,0,34,52.94L13.18,33.11l5.09-5.35L39.09,47.6A28.34,28.34,0,0,0,36.35,50.08Z"/><path class="cls-4" d="M34.82,87.27a25.51,25.51,0,0,0,5.35,5.09L20.33,113.17,15,108.08Z"/></g></g></svg>