<svg xmlns="http://www.w3.org/2000/svg" viewBox="0 0 516 552"><defs><style>.cls-1{fill:none;}.cls-2{fill:#43474a;}.cls-3{fill:#f6f6f6;}.cls-4{fill:#ccc;}.cls-5{fill:#0380d3;}.cls-6{fill:#555b60;}.cls-7{fill:#a5a5ae;}.cls-8{fill:#fff;}.cls-9{fill:#e5e5e5;}.cls-10{fill:#efefef;}.cls-11{fill:#e2e2e6;}.cls-12{fill:#fd8e7e;}.cls-13{fill:#73d19f;}.cls-14{fill:#94b8f5;}.cls-15{fill:#9fdd85;}.cls-16{fill:#79a6f3;}.cls-17{fill:#76cf56;}.cls-18{fill:#50c687;}.cls-19{opacity:0.15;}.cls-20{fill:#4d8237;}.cls-21{fill:#fc725e;}.cls-22{fill:#4a525a;}.cls-23{fill:#5250d0;}.cls-24{fill:#5374a5;}.cls-25{fill:gray;}</style></defs><title>key-dates</title><g id="Layer_2" data-name="Layer 2"><g id="image-layer"><rect class="cls-1" x="1" y="92.19" width="514" height="458.81"/><rect class="cls-2" x="1" y="37.08" width="513.86" height="34.86"/><rect class="cls-3" x="1" y="71.93" width="513.78" height="34.46"/><rect class="cls-4" x="494.71" y="71.93" width="0.5" height="34.46"/><rect class="cls-4" x="455.77" y="71.93" width="0.5" height="34.46"/><path class="cls-5" d="M444.14,100.34h-64.6a1.85,1.85,0,0,1-1.85-1.85V79.84A1.85,1.85,0,0,1,379.54,78h64.6A1.85,1.85,0,0,1,446,79.84V98.49A1.85,1.85,0,0,1,444.14,100.34ZM379.54,79a.85.85,0,0,0-.85.85V98.49a.85.85,0,0,0,.85.85h64.6a.85.85,0,0,0,.85-.85V79.84a.85.85,0,0,0-.85-.85Z"/><polygon class="cls-5" points="417.23 87.66 412.96 87.66 412.96 83.51 410.73 83.51 410.73 87.66 406.46 87.66 406.46 89.76 410.73 89.76 410.73 93.91 412.96 93.91 412.96 89.76 417.23 89.76 417.23 87.66"/><polygon class="cls-6" points="481.53 91.41 481.53 93.36 469.45 93.36 469.45 91.41 466.26 91.41 466.26 93.36 466.26 94.61 466.26 96.13 484.72 96.13 484.72 94.61 484.72 93.36 484.72 91.41 481.53 91.41"/><polygon class="cls-6" points="475.49 90.23 479.78 85.94 476.35 85.94 476.35 81.27 474.63 81.27 474.63 85.94 471.2 85.94 475.49 90.23"/><rect class="cls-7" x="494.71" y="37.08" width="0.5" height="34.86"/><path class="cls-6" d="M509.15,83.18a.85.85,0,0,0,.25.6l4.85,4.85v6.45a.85.85,0,0,0,.52.79.81.81,0,0,0,.22,0V81.48h-5.85Z"/><path class="cls-7" d="M510.87,52V56.2a2.54,2.54,0,0,1-2.54,2.54v.85H515V47A5.07,5.07,0,0,0,510.87,52Z"/><path class="cls-7" d="M515,62V60.43h-2A3.4,3.4,0,0,0,515,62Z"/><rect class="cls-8" x="1" y="1" width="514" height="36.08" transform="translate(516 38.08) rotate(-180)"/><path class="cls-9" d="M516,552H0V0H516ZM2,550H514V2H2Z"/><rect class="cls-10" x="26.85" y="405.45" width="487.17" height="21.28"/><rect class="cls-10" x="26.85" y="378.58" width="487.17" height="21.28"/><rect class="cls-10" x="26.85" y="430.82" width="487.17" height="21.28"/><rect class="cls-10" x="26.85" y="483.76" width="487.17" height="21.28"/><rect class="cls-10" x="26.85" y="510.17" width="487.17" height="21.28"/><rect class="cls-10" x="26.85" y="314.92" width="487.17" height="21.28"/><rect class="cls-10" x="26.85" y="339.97" width="487.17" height="21.28"/><rect class="cls-10" x="26.85" y="237" width="487.17" height="21.28"/><rect class="cls-10" x="26.85" y="263.12" width="487.17" height="21.28"/><rect class="cls-11" x="212.71" y="154.9" width="0.56" height="384.18"/><rect class="cls-11" x="409.77" y="154.9" width="0.56" height="384.18"/><rect class="cls-11" x="26.56" y="154.9" width="0.56" height="384.18"/><rect class="cls-12" x="1.98" y="153.9" width="12.16" height="73.26"/><rect class="cls-13" x="1.98" y="479.13" width="12.16" height="55.02"/><rect class="cls-14" x="1.98" y="262.99" width="12.16" height="47.27"/><rect class="cls-14" x="1.98" y="237" width="12.16" height="21.28"/><rect class="cls-14" x="1.98" y="314.92" width="12.16" height="21.28"/><rect class="cls-14" x="1.98" y="339.97" width="12.16" height="21.28"/><rect class="cls-15" x="1.98" y="378.58" width="12.16" height="21.28"/><rect class="cls-15" x="1.98" y="404.7" width="12.16" height="21.28"/><rect class="cls-10" x="26.85" y="164.83" width="487.17" height="21.28"/><rect class="cls-10" x="26.85" y="196.94" width="487.17" height="21.28"/><rect class="cls-16" x="29.31" y="237" width="134.63" height="21.28"/><path class="cls-8" d="M78.42,250.78h-.91v-3.56H73.39v3.56h-.91v-7.57h.91v3.22h4.12v-3.22h.91Z"/><path class="cls-8" d="M86.48,243.21v4.9a2.62,2.62,0,0,1-.81,2,3.16,3.16,0,0,1-2.22.74,3,3,0,0,1-2.19-.75,2.71,2.71,0,0,1-.77-2v-4.87h.91v4.94a1.9,1.9,0,0,0,.54,1.45,2.2,2.2,0,0,0,1.57.51A2.13,2.13,0,0,0,85,249.6a1.92,1.92,0,0,0,.54-1.46v-4.93Z"/><path class="cls-8" d="M88.55,243.21h2.21a4.31,4.31,0,0,1,2.25.45,1.57,1.57,0,0,1,.7,1.42,1.61,1.61,0,0,1-.39,1.11,1.89,1.89,0,0,1-1.13.57v.05q1.78.29,1.78,1.81a1.92,1.92,0,0,1-.71,1.58,3.09,3.09,0,0,1-2,.57H88.55Zm.91,3.24H91a2.51,2.51,0,0,0,1.39-.29,1.11,1.11,0,0,0,.42-1,1,1,0,0,0-.47-.92,3,3,0,0,0-1.5-.28H89.46Zm0,.75V250H91.1a2.38,2.38,0,0,0,1.43-.36,1.29,1.29,0,0,0,.48-1.11,1.16,1.16,0,0,0-.49-1A2.69,2.69,0,0,0,91,247.2Z"/><path class="cls-8" d="M100.08,248.77a1.83,1.83,0,0,1-.75,1.56,3.33,3.33,0,0,1-2,.56,5.23,5.23,0,0,1-2.14-.35v-.85a6,6,0,0,0,2.17.43,2.32,2.32,0,0,0,1.37-.33,1.08,1.08,0,0,0,.46-.93,1.17,1.17,0,0,0-.16-.65,1.52,1.52,0,0,0-.55-.46,7.91,7.91,0,0,0-1.16-.48,3.74,3.74,0,0,1-1.56-.89,1.94,1.94,0,0,1-.47-1.35,1.66,1.66,0,0,1,.68-1.39,2.9,2.9,0,0,1,1.8-.52,5.48,5.48,0,0,1,2.15.41l-.28.77a5,5,0,0,0-1.89-.39,1.87,1.87,0,0,0-1.13.3,1,1,0,0,0-.41.83,1.24,1.24,0,0,0,.15.64,1.39,1.39,0,0,0,.51.46,6.46,6.46,0,0,0,1.09.46,4.35,4.35,0,0,1,1.7.91A1.76,1.76,0,0,1,100.08,248.77Z"/><path class="cls-8" d="M106.64,245.42a2.09,2.09,0,0,1-.81,1.77,3.77,3.77,0,0,1-2.32.62h-.92v3h-.91v-7.57h2Q106.64,243.21,106.64,245.42ZM102.59,247h.82a3.13,3.13,0,0,0,1.75-.38,1.37,1.37,0,0,0,.54-1.21,1.29,1.29,0,0,0-.51-1.12,2.73,2.73,0,0,0-1.59-.37h-1Z"/><path class="cls-8" d="M115.08,247a4.08,4.08,0,0,1-1,2.86,3.4,3.4,0,0,1-2.64,1,3.44,3.44,0,0,1-2.67-1,4.11,4.11,0,0,1-.94-2.89,4.06,4.06,0,0,1,.94-2.86,3.47,3.47,0,0,1,2.68-1,3.39,3.39,0,0,1,2.64,1A4.07,4.07,0,0,1,115.08,247Zm-6.24,0a3.51,3.51,0,0,0,.68,2.33,2.83,2.83,0,0,0,3.93,0,4.41,4.41,0,0,0,0-4.65,2.41,2.41,0,0,0-2-.79,2.46,2.46,0,0,0-2,.79A3.47,3.47,0,0,0,108.84,247Z"/><path class="cls-8" d="M119.23,250.78h-.91V244h-2.48v-.78h5.87V244h-2.48Z"/><rect class="cls-17" x="46.39" y="378.58" width="134.63" height="21.28"/><path class="cls-8" d="M66.21,390.31a1.83,1.83,0,0,1-.75,1.56,3.33,3.33,0,0,1-2,.56,5.23,5.23,0,0,1-2.14-.35v-.85a6,6,0,0,0,2.17.43,2.32,2.32,0,0,0,1.37-.33,1.08,1.08,0,0,0,.46-.93,1.17,1.17,0,0,0-.16-.65,1.52,1.52,0,0,0-.55-.46,7.91,7.91,0,0,0-1.16-.48,3.74,3.74,0,0,1-1.56-.89,1.94,1.94,0,0,1-.47-1.35,1.66,1.66,0,0,1,.68-1.39,2.9,2.9,0,0,1,1.8-.52,5.48,5.48,0,0,1,2.15.41l-.28.77a5,5,0,0,0-1.89-.39,1.87,1.87,0,0,0-1.13.3,1,1,0,0,0-.41.83,1.24,1.24,0,0,0,.15.64,1.39,1.39,0,0,0,.51.46,6.46,6.46,0,0,0,1.09.46,4.35,4.35,0,0,1,1.7.91A1.76,1.76,0,0,1,66.21,390.31Z"/><path class="cls-8" d="M74.61,388.53a4.46,4.46,0,0,1-.6,2.42,3,3,0,0,1-1.71,1.3l1.86,1.87H72.84l-1.53-1.71H71a3.44,3.44,0,0,1-2.67-1,4.11,4.11,0,0,1-.94-2.89,4.06,4.06,0,0,1,.94-2.86,3.47,3.47,0,0,1,2.68-1,3.39,3.39,0,0,1,2.64,1A4.07,4.07,0,0,1,74.61,388.53Zm-6.24,0a3.51,3.51,0,0,0,.68,2.33,2.83,2.83,0,0,0,3.93,0,4.41,4.41,0,0,0,0-4.65,2.41,2.41,0,0,0-2-.79,2.46,2.46,0,0,0-2,.79A3.47,3.47,0,0,0,68.37,388.53Z"/><path class="cls-8" d="M76.36,392.32v-7.57h.91v6.77h3.45v.8Z"/><path class="cls-8" d="M91.15,388.47a3.74,3.74,0,0,1-1.05,2.86,4.25,4.25,0,0,1-3,1H84.9v-7.57h2.4a3.91,3.91,0,0,1,2.84,1A3.62,3.62,0,0,1,91.15,388.47Zm-1,0a3,3,0,0,0-.77-2.23,3.15,3.15,0,0,0-2.28-.75H85.81v6h1.11a3.45,3.45,0,0,0,2.45-.77A3,3,0,0,0,90.18,388.5Z"/><path class="cls-8" d="M92.89,384.75h2.21a4.31,4.31,0,0,1,2.25.45,1.57,1.57,0,0,1,.7,1.42,1.61,1.61,0,0,1-.39,1.11,1.89,1.89,0,0,1-1.13.57v.05q1.78.29,1.78,1.81a1.92,1.92,0,0,1-.71,1.58,3.09,3.09,0,0,1-2,.57H92.89ZM93.8,388h1.5a2.51,2.51,0,0,0,1.39-.29,1.11,1.11,0,0,0,.42-1,1,1,0,0,0-.47-.92,3,3,0,0,0-1.5-.28H93.8Zm0,.75v2.83h1.63a2.38,2.38,0,0,0,1.43-.36,1.29,1.29,0,0,0,.48-1.11,1.16,1.16,0,0,0-.49-1,2.69,2.69,0,0,0-1.49-.33Z"/><path class="cls-8" d="M107.27,390.31a1.83,1.83,0,0,1-.75,1.56,3.33,3.33,0,0,1-2,.56,5.23,5.23,0,0,1-2.14-.35v-.85a6,6,0,0,0,2.17.43,2.32,2.32,0,0,0,1.37-.33,1.08,1.08,0,0,0,.46-.93,1.17,1.17,0,0,0-.16-.65,1.52,1.52,0,0,0-.55-.46,7.91,7.91,0,0,0-1.16-.48,3.74,3.74,0,0,1-1.56-.89,1.94,1.94,0,0,1-.47-1.35,1.66,1.66,0,0,1,.68-1.39,2.9,2.9,0,0,1,1.8-.52,5.48,5.48,0,0,1,2.15.41l-.28.77a5,5,0,0,0-1.89-.39,1.87,1.87,0,0,0-1.13.3,1,1,0,0,0-.41.83,1.24,1.24,0,0,0,.15.64,1.39,1.39,0,0,0,.51.46,6.46,6.46,0,0,0,1.09.46,4.35,4.35,0,0,1,1.7.91A1.76,1.76,0,0,1,107.27,390.31Z"/><path class="cls-8" d="M111.28,392.32h-.91v-6.78h-2.48v-.78h5.87v.78h-2.48Z"/><path class="cls-8" d="M115.85,389.17v3.15h-.91v-7.57h2.15a3.48,3.48,0,0,1,2.13.53,1.91,1.91,0,0,1,.69,1.61,2,2,0,0,1-1.57,2l2.13,3.4h-1.08l-1.9-3.15Zm0-.76h1.25a2.21,2.21,0,0,0,1.41-.37,1.35,1.35,0,0,0,.45-1.11,1.24,1.24,0,0,0-.46-1.08,2.55,2.55,0,0,0-1.47-.33h-1.18Z"/><path class="cls-8" d="M126.08,392.32h-4.36v-7.57h4.36v.78h-3.45V388h3.25v.78h-3.25v2.78h3.45Z"/><path class="cls-8" d="M132.74,392.32l-1-2.41h-3.14l-1,2.41h-.92l3.1-7.6h.77l3.08,7.6Zm-1.26-3.2-.91-2.34q-.18-.44-.36-1.09a9.48,9.48,0,0,1-.34,1.09l-.92,2.34Z"/><path class="cls-8" d="M138.22,392.32l-2.66-6.71h0q.08.8.07,1.89v4.81h-.84v-7.57h1.37l2.48,6.24h0l2.5-6.24h1.36v7.57h-.91v-4.87q0-.84.07-1.82h0l-2.68,6.7Z"/><path class="cls-8" d="M144.66,392.32v-7.57h.91v6.77H149v.8Z"/><path class="cls-8" d="M150.35,392.32v-7.57h.91v7.57Z"/><path class="cls-8" d="M159.52,392.32h-1L154.21,386h0q.09,1.12.09,2v4.3h-.84v-7.57h1l4.27,6.32h0q0-.14,0-.9t0-1.08v-4.34h.85Z"/><path class="cls-8" d="M166,392.32h-4.36v-7.57H166v.78h-3.45V388h3.25v.78h-3.25v2.78H166Z"/><rect class="cls-18" x="35.55" y="483.76" width="134.63" height="21.28"/><path class="cls-8" d="M80.05,497.54h-.9l-1.58-5.07q-.11-.33-.25-.85a4.76,4.76,0,0,1-.14-.62,11.5,11.5,0,0,1-.37,1.5l-1.53,5h-.9L72.29,490h1l1.24,4.67a16.9,16.9,0,0,1,.37,1.78,12.54,12.54,0,0,1,.43-1.85l1.4-4.6h1l1.47,4.64a13.75,13.75,0,0,1,.43,1.81,15.1,15.1,0,0,1,.39-1.79L81.18,490h1Z"/><path class="cls-8" d="M83.37,497.54V490h.91v7.57Z"/><path class="cls-8" d="M87.34,494.39v3.15h-.91V490h2.15a3.48,3.48,0,0,1,2.13.53,1.91,1.91,0,0,1,.69,1.61,2,2,0,0,1-1.57,2l2.13,3.4H90.87L89,494.39Zm0-.76h1.25a2.21,2.21,0,0,0,1.41-.37,1.35,1.35,0,0,0,.45-1.11,1.24,1.24,0,0,0-.46-1.08,2.55,2.55,0,0,0-1.47-.33H87.34Z"/><path class="cls-8" d="M97.57,497.54H93.21V490h4.36v.78H94.12v2.44h3.25V494H94.12v2.78h3.45Z"/><path class="cls-8" d="M100.22,497.54h-.91V490h4.36v.78h-3.45v2.77h3.25v.78h-3.25Z"/><path class="cls-8" d="M105.88,494.39v3.15H105V490h2.15a3.48,3.48,0,0,1,2.13.53,1.91,1.91,0,0,1,.69,1.61,2,2,0,0,1-1.57,2l2.13,3.4h-1.08l-1.9-3.15Zm0-.76h1.25a2.21,2.21,0,0,0,1.41-.37,1.35,1.35,0,0,0,.45-1.11,1.24,1.24,0,0,0-.46-1.08,2.55,2.55,0,0,0-1.47-.33h-1.18Z"/><path class="cls-8" d="M116.67,497.54l-1-2.41h-3.14l-1,2.41h-.92l3.1-7.6h.77l3.08,7.6Zm-1.26-3.2L114.5,492q-.18-.44-.36-1.09a9.48,9.48,0,0,1-.34,1.09l-.92,2.34Z"/><path class="cls-8" d="M122.16,497.54l-2.66-6.71h0q.08.8.07,1.89v4.81h-.84V490h1.37l2.48,6.24h0l2.5-6.24h1.36v7.57h-.91v-4.87q0-.84.07-1.82h0l-2.68,6.7Z"/><path class="cls-8" d="M133,497.54h-4.36V490H133v.78H129.5v2.44h3.25V494H129.5v2.78H133Z"/><rect class="cls-18" x="62.86" y="509.87" width="134.63" height="21.28"/><path class="cls-8" d="M102.06,523.65l-2.66-6.71h0q.08.8.07,1.89v4.81H98.6v-7.57H100l2.48,6.24h0l2.5-6.24h1.36v7.57h-.91v-4.87q0-.84.07-1.82h0l-2.68,6.7Z"/><path class="cls-8" d="M113,516.08h1l-2.82,7.57h-.9l-2.81-7.57h1l1.8,4.9a13.43,13.43,0,0,1,.49,1.64,13.3,13.3,0,0,1,.5-1.67Z"/><path class="cls-8" d="M120,518.29a2.09,2.09,0,0,1-.81,1.77,3.77,3.77,0,0,1-2.32.62h-.92v3H115v-7.57h2Q120,516.08,120,518.29Zm-4.05,1.63h.82a3.13,3.13,0,0,0,1.75-.38,1.37,1.37,0,0,0,.54-1.21,1.29,1.29,0,0,0-.51-1.12,2.73,2.73,0,0,0-1.59-.37h-1Z"/><path class="cls-8" d="M130.73,519.79a3.74,3.74,0,0,1-1.05,2.86,4.25,4.25,0,0,1-3,1h-2.17v-7.57h2.4a3.91,3.91,0,0,1,2.84,1A3.62,3.62,0,0,1,130.73,519.79Zm-1,0a3,3,0,0,0-.77-2.23,3.15,3.15,0,0,0-2.28-.75h-1.32v6h1.11a3.45,3.45,0,0,0,2.45-.77A3,3,0,0,0,129.77,519.82Z"/><path class="cls-8" d="M136.84,523.65h-4.36v-7.57h4.36v.78h-3.45v2.44h3.25v.78h-3.25v2.78h3.45Z"/><path class="cls-8" d="M143,521.64a1.83,1.83,0,0,1-.75,1.56,3.33,3.33,0,0,1-2,.56,5.23,5.23,0,0,1-2.14-.35v-.85a6,6,0,0,0,2.17.43,2.32,2.32,0,0,0,1.37-.33,1.08,1.08,0,0,0,.46-.93,1.17,1.17,0,0,0-.16-.65,1.52,1.52,0,0,0-.55-.46,7.91,7.91,0,0,0-1.16-.48,3.74,3.74,0,0,1-1.56-.89,1.94,1.94,0,0,1-.47-1.35,1.66,1.66,0,0,1,.68-1.39,2.9,2.9,0,0,1,1.8-.52,5.48,5.48,0,0,1,2.15.41l-.28.77a5,5,0,0,0-1.89-.39,1.87,1.87,0,0,0-1.13.3,1,1,0,0,0-.41.83,1.24,1.24,0,0,0,.15.64,1.39,1.39,0,0,0,.51.46,6.46,6.46,0,0,0,1.09.46,4.35,4.35,0,0,1,1.7.91A1.76,1.76,0,0,1,143,521.64Z"/><path class="cls-8" d="M144.6,523.65v-7.57h.91v7.57Z"/><path class="cls-8" d="M151.1,519.68h2.66v3.68a8.52,8.52,0,0,1-1.26.29,10,10,0,0,1-1.49.1,3.68,3.68,0,0,1-2.77-1,3.94,3.94,0,0,1-1-2.86,4.2,4.2,0,0,1,.49-2.07,3.26,3.26,0,0,1,1.41-1.36,4.69,4.69,0,0,1,2.16-.47,6.08,6.08,0,0,1,2.34.45l-.35.78a5.37,5.37,0,0,0-2-.43,3,3,0,0,0-2.23.82,3.13,3.13,0,0,0-.8,2.28,3.19,3.19,0,0,0,.77,2.32,3,3,0,0,0,2.27.79,7,7,0,0,0,1.59-.18v-2.33H151.1Z"/><path class="cls-8" d="M161.75,523.65h-1l-4.28-6.35h0q.09,1.12.09,2v4.3h-.84v-7.57h1l4.27,6.32h0q0-.14,0-.9t0-1.08v-4.34h.85Z"/><rect class="cls-18" x="204.9" y="483.76" width="134.63" height="21.28"/><path class="cls-8" d="M255.08,497.53h-.91V490h4.36v.78h-3.45v2.77h3.25v.78h-3.25Z"/><path class="cls-8" d="M259.83,497.53V490h.91v6.77h3.45v.8Z"/><path class="cls-8" d="M270.44,497.53l-1-2.41h-3.14l-1,2.41h-.92l3.1-7.6h.77l3.08,7.6Zm-1.26-3.2-.91-2.34q-.18-.44-.36-1.09a9.48,9.48,0,0,1-.34,1.09l-.92,2.34Z"/><path class="cls-8" d="M274.87,497.53H274v-6.78h-2.48V490h5.87v.78h-2.48Z"/><path class="cls-8" d="M287.29,490v4.9a2.62,2.62,0,0,1-.81,2,3.16,3.16,0,0,1-2.22.74,3,3,0,0,1-2.19-.75,2.71,2.71,0,0,1-.77-2V490h.91v4.94a1.9,1.9,0,0,0,.54,1.45,2.2,2.2,0,0,0,1.57.51,2.13,2.13,0,0,0,1.53-.51,1.92,1.92,0,0,0,.54-1.46V490Z"/><path class="cls-8" d="M289.36,497.53V490h.91v7.57Z"/><rect class="cls-18" x="394.39" y="483.76" width="119.62" height="21.28"/><path class="cls-8" d="M421.35,494.39v3.15h-.91V490h2.15a3.48,3.48,0,0,1,2.13.53,1.91,1.91,0,0,1,.69,1.61,2,2,0,0,1-1.57,2l2.13,3.4h-1.08l-1.9-3.15Zm0-.76h1.25a2.21,2.21,0,0,0,1.41-.37,1.35,1.35,0,0,0,.45-1.11,1.24,1.24,0,0,0-.46-1.08,2.55,2.55,0,0,0-1.47-.33h-1.18Z"/><path class="cls-8" d="M431.58,497.53h-4.36V490h4.36v.78h-3.45v2.44h3.25V494h-3.25v2.78h3.45Z"/><path class="cls-8" d="M434.23,497.53h-.91V490h4.36v.78h-3.45v2.77h3.25v.78h-3.25Z"/><path class="cls-8" d="M439,497.53V490h.91v7.57Z"/><path class="cls-8" d="M448.15,497.53h-1l-4.28-6.35h0q.09,1.12.09,2v4.3H442V490h1l4.27,6.32h0q0-.14,0-.9t0-1.08V490h.85Z"/><path class="cls-8" d="M454.67,497.53H450.3V490h4.36v.78h-3.45v2.44h3.25V494h-3.25v2.78h3.45Z"/><path class="cls-8" d="M463.67,495.52a1.83,1.83,0,0,1-.75,1.56,3.33,3.33,0,0,1-2,.56,5.23,5.23,0,0,1-2.14-.35v-.85a6,6,0,0,0,2.17.43,2.32,2.32,0,0,0,1.37-.33,1.08,1.08,0,0,0,.46-.93,1.17,1.17,0,0,0-.16-.65,1.52,1.52,0,0,0-.55-.46,7.91,7.91,0,0,0-1.16-.48,3.74,3.74,0,0,1-1.56-.89,1.94,1.94,0,0,1-.47-1.35,1.66,1.66,0,0,1,.68-1.39,2.9,2.9,0,0,1,1.8-.52,5.48,5.48,0,0,1,2.15.41l-.28.77a5,5,0,0,0-1.89-.39,1.87,1.87,0,0,0-1.13.3,1,1,0,0,0-.41.83,1.24,1.24,0,0,0,.15.64,1.39,1.39,0,0,0,.51.46,6.46,6.46,0,0,0,1.09.46,4.35,4.35,0,0,1,1.7.91A1.76,1.76,0,0,1,463.67,495.52Z"/><path class="cls-8" d="M465.27,497.53V490h.91v7.57Z"/><path class="cls-8" d="M470.74,497.53h-.91v-6.78h-2.48V490h5.87v.78h-2.48Z"/><path class="cls-8" d="M478.76,497.53H474.4V490h4.36v.78h-3.45v2.44h3.25V494h-3.25v2.78h3.45Z"/><path class="cls-8" d="M489.46,497.53h-1l-4.28-6.35h0q.09,1.12.09,2v4.3h-.84V490h1l4.27,6.32h0q0-.14,0-.9t0-1.08V490h.85Z"/><path class="cls-8" d="M496.54,497.53l-1-2.41h-3.14l-1,2.41h-.92l3.1-7.6h.77l3.08,7.6Zm-1.26-3.2-.91-2.34q-.18-.44-.36-1.09a9.48,9.48,0,0,1-.34,1.09l-.92,2.34Z"/><path class="cls-8" d="M503,490h1l-2.82,7.57h-.9L497.48,490h1l1.8,4.9a13.43,13.43,0,0,1,.49,1.64,13.3,13.3,0,0,1,.5-1.67Z"/><rect class="cls-18" x="227.76" y="509.87" width="223.54" height="21.28"/><path class="cls-8" d="M279.41,519.79a3.74,3.74,0,0,1-1.05,2.86,4.25,4.25,0,0,1-3,1h-2.17v-7.57h2.4a3.91,3.91,0,0,1,2.84,1A3.62,3.62,0,0,1,279.41,519.79Zm-1,0a3,3,0,0,0-.77-2.23,3.15,3.15,0,0,0-2.28-.75h-1.32v6h1.11a3.45,3.45,0,0,0,2.45-.77A3,3,0,0,0,278.45,519.82Z"/><path class="cls-8" d="M285.52,523.65h-4.36v-7.57h4.36v.78h-3.45v2.44h3.25v.78h-3.25v2.78h3.45Z"/><path class="cls-8" d="M291.67,521.64a1.83,1.83,0,0,1-.75,1.56,3.33,3.33,0,0,1-2,.56,5.23,5.23,0,0,1-2.14-.35v-.85a6,6,0,0,0,2.17.43,2.32,2.32,0,0,0,1.37-.33,1.08,1.08,0,0,0,.46-.93,1.17,1.17,0,0,0-.16-.65,1.52,1.52,0,0,0-.55-.46,7.91,7.91,0,0,0-1.16-.48,3.74,3.74,0,0,1-1.56-.89,1.94,1.94,0,0,1-.47-1.35,1.66,1.66,0,0,1,.68-1.39,2.9,2.9,0,0,1,1.8-.52,5.48,5.48,0,0,1,2.15.41l-.28.77a5,5,0,0,0-1.89-.39,1.87,1.87,0,0,0-1.13.3,1,1,0,0,0-.41.83,1.24,1.24,0,0,0,.15.64,1.39,1.39,0,0,0,.51.46,6.46,6.46,0,0,0,1.09.46,4.35,4.35,0,0,1,1.7.91A1.76,1.76,0,0,1,291.67,521.64Z"/><path class="cls-8" d="M293.27,523.65v-7.57h.91v7.57Z"/><path class="cls-8" d="M299.78,519.68h2.66v3.68a8.52,8.52,0,0,1-1.26.29,10,10,0,0,1-1.49.1,3.68,3.68,0,0,1-2.77-1,3.94,3.94,0,0,1-1-2.86,4.2,4.2,0,0,1,.49-2.07,3.26,3.26,0,0,1,1.41-1.36A4.69,4.69,0,0,1,300,516a6.08,6.08,0,0,1,2.34.45l-.35.78a5.37,5.37,0,0,0-2-.43,3,3,0,0,0-2.23.82,3.13,3.13,0,0,0-.8,2.28,3.19,3.19,0,0,0,.77,2.32,3,3,0,0,0,2.27.79,7,7,0,0,0,1.59-.18v-2.33h-1.75Z"/><path class="cls-8" d="M310.43,523.65h-1l-4.28-6.35h0q.09,1.12.09,2v4.3h-.84v-7.57h1l4.27,6.32h0q0-.14,0-.9t0-1.08v-4.34h.85Z"/><path class="cls-8" d="M320.36,523.65l-1-2.41h-3.14l-1,2.41h-.92l3.1-7.6h.77l3.08,7.6Zm-1.26-3.2-.91-2.34q-.18-.44-.36-1.09a9.48,9.48,0,0,1-.34,1.09l-.92,2.34Z"/><path class="cls-8" d="M328.63,519.79a3.74,3.74,0,0,1-1.05,2.86,4.25,4.25,0,0,1-3,1h-2.17v-7.57h2.4a3.91,3.91,0,0,1,2.84,1A3.62,3.62,0,0,1,328.63,519.79Zm-1,0a3,3,0,0,0-.77-2.23,3.15,3.15,0,0,0-2.28-.75h-1.32v6h1.11a3.45,3.45,0,0,0,2.45-.77A3,3,0,0,0,327.66,519.82Z"/><path class="cls-8" d="M333.84,523.65l-2.66-6.71h0q.08.8.07,1.89v4.81h-.84v-7.57h1.37l2.48,6.24h0l2.5-6.24h1.36v7.57h-.91v-4.87q0-.84.07-1.82h0l-2.68,6.7Z"/><path class="cls-8" d="M340.27,523.65v-7.57h.91v7.57Z"/><path class="cls-8" d="M349.45,523.65h-1l-4.28-6.35h0q.09,1.12.09,2v4.3h-.84v-7.57h1l4.27,6.32h0q0-.14,0-.9t0-1.08v-4.34h.85Z"/><path class="cls-8" d="M354.45,516.08h2.21a4.31,4.31,0,0,1,2.25.45,1.57,1.57,0,0,1,.7,1.42,1.61,1.61,0,0,1-.39,1.11,1.89,1.89,0,0,1-1.13.57v.05q1.78.29,1.78,1.81a1.92,1.92,0,0,1-.71,1.58,3.09,3.09,0,0,1-2,.57h-2.73Zm.91,3.24h1.5a2.51,2.51,0,0,0,1.39-.29,1.11,1.11,0,0,0,.42-1,1,1,0,0,0-.47-.92,3,3,0,0,0-1.5-.28h-1.34Zm0,.75v2.83H357a2.38,2.38,0,0,0,1.43-.36,1.29,1.29,0,0,0,.48-1.11,1.16,1.16,0,0,0-.49-1,2.69,2.69,0,0,0-1.49-.33Z"/><path class="cls-8" d="M366.48,523.65l-1-2.41h-3.14l-1,2.41h-.92l3.1-7.6h.77l3.08,7.6Zm-1.26-3.2-.91-2.34q-.18-.44-.36-1.09a9.48,9.48,0,0,1-.34,1.09l-.92,2.34Z"/><path class="cls-8" d="M371.85,516.76a2.6,2.6,0,0,0-2,.83,3.27,3.27,0,0,0-.75,2.27,3.34,3.34,0,0,0,.72,2.3,2.6,2.6,0,0,0,2.05.81,7.23,7.23,0,0,0,1.87-.28v.77a6,6,0,0,1-2,.29,3.46,3.46,0,0,1-2.67-1,4.08,4.08,0,0,1-.94-2.88,4.42,4.42,0,0,1,.45-2,3.19,3.19,0,0,1,1.31-1.36,4.08,4.08,0,0,1,2-.48,5,5,0,0,1,2.15.43l-.39.76A4.27,4.27,0,0,0,371.85,516.76Z"/><path class="cls-8" d="M381.07,523.65H380L377.14,520l-.82.7v3h-.91v-7.57h.91v3.75l3.55-3.75H381l-3.15,3.29Z"/><path class="cls-8" d="M381.52,521.2v-.79h2.63v.79Z"/><path class="cls-8" d="M390,523.65h-4.36v-7.57H390v.78h-3.45v2.44h3.25v.78h-3.25v2.78H390Z"/><path class="cls-8" d="M397.89,523.65h-1l-4.28-6.35h0q.09,1.12.09,2v4.3h-.84v-7.57h1l4.27,6.32h0q0-.14,0-.9t0-1.08v-4.34h.85Z"/><path class="cls-8" d="M406.29,519.79a3.74,3.74,0,0,1-1.05,2.86,4.25,4.25,0,0,1-3,1H400v-7.57h2.4a3.91,3.91,0,0,1,2.84,1A3.62,3.62,0,0,1,406.29,519.79Zm-1,0a3,3,0,0,0-.77-2.23,3.15,3.15,0,0,0-2.28-.75H401v6h1.11a3.45,3.45,0,0,0,2.45-.77A3,3,0,0,0,405.33,519.82Z"/><rect class="cls-17" x="220.22" y="405.32" width="134.63" height="21.28"/><path class="cls-8" d="M244.13,411.53h1l-2.82,7.57h-.9l-2.81-7.57h1l1.8,4.9a13.43,13.43,0,0,1,.49,1.64,13.3,13.3,0,0,1,.5-1.67Z"/><path class="cls-8" d="M251.11,419.1l-1-2.41H247l-1,2.41h-.92l3.1-7.6H249l3.08,7.6Zm-1.26-3.2-.91-2.34q-.18-.44-.36-1.09a9.48,9.48,0,0,1-.34,1.09l-.92,2.34Z"/><path class="cls-8" d="M254,416v3.15h-.91v-7.57h2.15a3.48,3.48,0,0,1,2.13.53,1.91,1.91,0,0,1,.69,1.61,2,2,0,0,1-1.57,2l2.13,3.4h-1.08l-1.9-3.15Zm0-.76h1.25a2.21,2.21,0,0,0,1.41-.37,1.35,1.35,0,0,0,.45-1.11,1.24,1.24,0,0,0-.46-1.08,2.55,2.55,0,0,0-1.47-.33H254Z"/><path class="cls-8" d="M259.91,419.1v-7.57h.91v7.57Z"/><path class="cls-8" d="M267.89,419.1l-1-2.41h-3.14l-1,2.41h-.92l3.1-7.6h.77l3.08,7.6Zm-1.26-3.2-.91-2.34q-.18-.44-.36-1.09a9.48,9.48,0,0,1-.34,1.09l-.92,2.34Z"/><path class="cls-8" d="M276.56,419.1h-1.13l-4.65-6.35h0q.09,1.12.09,2v4.3h-.91v-7.57H271l4.64,6.32h0q0-.14-.05-.9t0-1.08v-4.34h.93Z"/><path class="cls-8" d="M281.53,412.21a2.6,2.6,0,0,0-2,.83,3.27,3.27,0,0,0-.75,2.27,3.34,3.34,0,0,0,.72,2.3,2.6,2.6,0,0,0,2.05.81,7.23,7.23,0,0,0,1.87-.28v.77a6,6,0,0,1-2,.29,3.46,3.46,0,0,1-2.67-1,4.08,4.08,0,0,1-.94-2.88,4.42,4.42,0,0,1,.45-2,3.19,3.19,0,0,1,1.31-1.36,4.08,4.08,0,0,1,2-.48,5,5,0,0,1,2.15.43l-.39.76A4.27,4.27,0,0,0,281.53,412.21Z"/><path class="cls-8" d="M289.46,419.1H285.1v-7.57h4.36v.78H286v2.44h3.25v.78H286v2.78h3.45Z"/><path class="cls-8" d="M296.46,419.1h-.91v-6.78h-2.48v-.78h5.87v.78h-2.48Z"/><path class="cls-8" d="M304.48,419.1h-4.36v-7.57h4.36v.78H301v2.44h3.25v.78H301v2.78h3.45Z"/><path class="cls-8" d="M310.63,417.09a1.83,1.83,0,0,1-.75,1.56,3.33,3.33,0,0,1-2,.56,5.23,5.23,0,0,1-2.14-.35V418a6,6,0,0,0,2.17.43,2.32,2.32,0,0,0,1.37-.33,1.08,1.08,0,0,0,.46-.93,1.17,1.17,0,0,0-.16-.65,1.52,1.52,0,0,0-.55-.46,7.91,7.91,0,0,0-1.16-.48,3.74,3.74,0,0,1-1.56-.89,1.94,1.94,0,0,1-.47-1.35,1.66,1.66,0,0,1,.68-1.39,2.9,2.9,0,0,1,1.8-.52,5.48,5.48,0,0,1,2.15.41l-.28.77a5,5,0,0,0-1.89-.39,1.87,1.87,0,0,0-1.13.3,1,1,0,0,0-.41.83,1.24,1.24,0,0,0,.15.64,1.39,1.39,0,0,0,.51.46,6.46,6.46,0,0,0,1.09.46,4.35,4.35,0,0,1,1.7.91A1.76,1.76,0,0,1,310.63,417.09Z"/><path class="cls-8" d="M314.64,419.1h-.91v-6.78h-2.48v-.78h5.87v.78h-2.48Z"/><path class="cls-8" d="M318.3,419.1v-7.57h.91v7.57Z"/><path class="cls-8" d="M327.47,419.1h-1l-4.28-6.35h0q.09,1.12.09,2v4.3h-.84v-7.57h1l4.27,6.32h0q0-.14,0-.9t0-1.08v-4.34h.85Z"/><path class="cls-8" d="M333.07,415.13h2.66v3.68a8.52,8.52,0,0,1-1.26.29,10,10,0,0,1-1.49.1,3.68,3.68,0,0,1-2.77-1,3.94,3.94,0,0,1-1-2.86,4.2,4.2,0,0,1,.49-2.07,3.26,3.26,0,0,1,1.41-1.36,4.69,4.69,0,0,1,2.16-.47,6.08,6.08,0,0,1,2.34.45l-.35.78a5.37,5.37,0,0,0-2-.43A3,3,0,0,0,331,413a3.13,3.13,0,0,0-.8,2.28,3.19,3.19,0,0,0,.77,2.32,3,3,0,0,0,2.27.79,7,7,0,0,0,1.59-.18v-2.33h-1.75Z"/><g class="cls-19"><path class="cls-20" d="M303.77,451.37v11a5,5,0,0,0,4.72,4.78H506.54a4.82,4.82,0,0,0,4.72-4.83V451.37Z"/></g><path class="cls-20" d="M510.51,452.12v10.15a4,4,0,0,1-4,4.1h-198a4.26,4.26,0,0,1-4-4V452.12h206m.75-.75H303.77v11a5,5,0,0,0,4.72,4.78H506.54a4.82,4.82,0,0,0,4.72-4.83V451.37Z"/><polygon class="cls-20" points="415.94 464.87 411.52 464.87 418.33 453.43 422.75 453.43 415.94 464.87"/><rect class="cls-17" x="303.77" y="430.82" width="207.49" height="21.28"/><path class="cls-8" d="M370.16,444.6h-.91v-6.78h-2.48V437h5.87v.78h-2.48Z"/><path class="cls-8" d="M378.18,444.6h-4.36V437h4.36v.78h-3.45v2.44H378V441h-3.25v2.78h3.45Z"/><path class="cls-8" d="M384.33,442.58a1.83,1.83,0,0,1-.75,1.56,3.33,3.33,0,0,1-2,.56,5.23,5.23,0,0,1-2.14-.35v-.85a6,6,0,0,0,2.17.43,2.32,2.32,0,0,0,1.37-.33,1.08,1.08,0,0,0,.46-.93,1.17,1.17,0,0,0-.16-.65,1.52,1.52,0,0,0-.55-.46,7.91,7.91,0,0,0-1.16-.48,3.74,3.74,0,0,1-1.56-.89,1.94,1.94,0,0,1-.47-1.35,1.66,1.66,0,0,1,.68-1.39,2.9,2.9,0,0,1,1.8-.52,5.48,5.48,0,0,1,2.15.41l-.28.77a5,5,0,0,0-1.89-.39,1.87,1.87,0,0,0-1.13.3,1,1,0,0,0-.41.83,1.24,1.24,0,0,0,.15.64,1.39,1.39,0,0,0,.51.46,6.46,6.46,0,0,0,1.09.46,4.35,4.35,0,0,1,1.7.91A1.76,1.76,0,0,1,384.33,442.58Z"/><path class="cls-8" d="M388.34,444.6h-.91v-6.78H385V437h5.87v.78h-2.48Z"/><path class="cls-8" d="M392,444.6V437h.91v7.57Z"/><path class="cls-8" d="M401.17,444.6h-1l-4.28-6.35h0q.09,1.12.09,2v4.3h-.84V437h1l4.27,6.32h0q0-.14,0-.9t0-1.08V437h.85Z"/><path class="cls-8" d="M406.77,440.63h2.66v3.68a8.52,8.52,0,0,1-1.26.29,10,10,0,0,1-1.49.1,3.68,3.68,0,0,1-2.77-1,3.94,3.94,0,0,1-1-2.86,4.2,4.2,0,0,1,.49-2.07,3.26,3.26,0,0,1,1.41-1.36,4.69,4.69,0,0,1,2.16-.47,6.08,6.08,0,0,1,2.34.45l-.35.78a5.37,5.37,0,0,0-2-.43,3,3,0,0,0-2.23.82,3.13,3.13,0,0,0-.8,2.28,3.19,3.19,0,0,0,.77,2.32,3,3,0,0,0,2.27.79,7,7,0,0,0,1.59-.18v-2.33h-1.75Z"/><path class="cls-8" d="M418.58,442.58a1.83,1.83,0,0,1-.75,1.56,3.33,3.33,0,0,1-2,.56,5.23,5.23,0,0,1-2.14-.35v-.85a6,6,0,0,0,2.17.43,2.32,2.32,0,0,0,1.37-.33,1.08,1.08,0,0,0,.46-.93,1.17,1.17,0,0,0-.16-.65,1.52,1.52,0,0,0-.55-.46,7.91,7.91,0,0,0-1.16-.48,3.74,3.74,0,0,1-1.56-.89,1.94,1.94,0,0,1-.47-1.35,1.66,1.66,0,0,1,.68-1.39,2.9,2.9,0,0,1,1.8-.52,5.48,5.48,0,0,1,2.15.41l-.28.77a5,5,0,0,0-1.89-.39,1.87,1.87,0,0,0-1.13.3,1,1,0,0,0-.41.83,1.24,1.24,0,0,0,.15.64,1.39,1.39,0,0,0,.51.46,6.46,6.46,0,0,0,1.09.46,4.35,4.35,0,0,1,1.7.91A1.76,1.76,0,0,1,418.58,442.58Z"/><path class="cls-8" d="M422.17,440.81l2.09-3.78h1l-2.61,4.63v2.93h-.92V441.7L419.1,437h1Z"/><path class="cls-8" d="M430.74,442.58a1.83,1.83,0,0,1-.75,1.56,3.33,3.33,0,0,1-2,.56,5.23,5.23,0,0,1-2.14-.35v-.85a6,6,0,0,0,2.17.43,2.32,2.32,0,0,0,1.37-.33,1.08,1.08,0,0,0,.46-.93,1.17,1.17,0,0,0-.16-.65,1.52,1.52,0,0,0-.55-.46,7.91,7.91,0,0,0-1.16-.48,3.74,3.74,0,0,1-1.56-.89,1.94,1.94,0,0,1-.47-1.35,1.66,1.66,0,0,1,.68-1.39,2.9,2.9,0,0,1,1.8-.52,5.48,5.48,0,0,1,2.15.41l-.28.77a5,5,0,0,0-1.89-.39,1.87,1.87,0,0,0-1.13.3,1,1,0,0,0-.41.83,1.24,1.24,0,0,0,.15.64,1.39,1.39,0,0,0,.51.46,6.46,6.46,0,0,0,1.09.46,4.35,4.35,0,0,1,1.7.91A1.76,1.76,0,0,1,430.74,442.58Z"/><path class="cls-8" d="M434.75,444.6h-.91v-6.78h-2.48V437h5.87v.78h-2.48Z"/><path class="cls-8" d="M442.77,444.6h-4.36V437h4.36v.78h-3.45v2.44h3.25V441h-3.25v2.78h3.45Z"/><path class="cls-8" d="M448,444.6l-2.66-6.71h0q.08.8.07,1.89v4.81h-.84V437h1.37l2.48,6.24h0l2.5-6.24h1.36v7.57h-.91v-4.87q0-.84.07-1.82h0l-2.68,6.7Z"/><rect class="cls-17" x="461.71" y="405.32" width="52.3" height="21.28"/><path class="cls-8" d="M503.6,413.74a2.09,2.09,0,0,1-.81,1.77,3.77,3.77,0,0,1-2.32.62h-.92v3h-.91v-7.57h2Q503.6,411.53,503.6,413.74Zm-4.05,1.63h.82a3.13,3.13,0,0,0,1.75-.38,1.37,1.37,0,0,0,.54-1.21,1.29,1.29,0,0,0-.51-1.12,2.73,2.73,0,0,0-1.59-.37h-1Z"/><path class="cls-8" d="M508.7,419.1,506,412.39h0q.08.8.07,1.89v4.81h-.84v-7.57h1.37l2.48,6.24h0l2.5-6.24H513v7.57h-.91v-4.87q0-.84.07-1.82h0l-2.68,6.7Z"/><rect class="cls-17" x="282.12" y="378.58" width="134.63" height="21.28"/><path class="cls-8" d="M306.11,392.36l-1-2.41H302l-1,2.41h-.92l3.1-7.6H304l3.08,7.6Zm-1.26-3.2-.91-2.34q-.18-.44-.36-1.09a9.48,9.48,0,0,1-.34,1.09l-.92,2.34Z"/><path class="cls-8" d="M307.06,392.37h-1l-1-2.4H302l-1,2.41h-.93l3.1-7.6H304Zm-.95,0H307L304,384.77h-.76l-3.09,7.59H301l1-2.41h3.15Zm-1.25-3.19h-2.54l.92-2.34a9.68,9.68,0,0,0,.34-1.09v0c.12.42.25.79.36,1.09Zm-2.53,0h2.52l-.91-2.34c-.12-.29-.24-.66-.36-1.07a9.6,9.6,0,0,1-.33,1.07Z"/><path class="cls-8" d="M314.25,392.36h-1L308.93,386h0q.09,1.12.09,2v4.3h-.84v-7.57h1l4.27,6.32h0q0-.14,0-.9t0-1.08v-4.34h.85Z"/><path class="cls-8" d="M314.25,392.37h-1L308.93,386h0c.06.73.08,1.42.08,2v4.31h-.85v-7.58h1l4.27,6.33h0c0-.09,0-.37,0-.89s0-.86,0-1.08v-4.35h.86ZM308.88,386h0l4.28,6.35h1V384.8h-.84v4.34c0,.22,0,.59,0,1.08s0,.81,0,.9h0l-4.27-6.33h-1v7.56H309v-4.3c0-.63,0-1.32-.08-2Z"/><path class="cls-8" d="M321.32,392.36l-1-2.41h-3.14l-1,2.41h-.92l3.1-7.6h.77l3.08,7.6Zm-1.26-3.2-.91-2.34q-.18-.44-.36-1.09a9.48,9.48,0,0,1-.34,1.09l-.92,2.34Z"/><path class="cls-8" d="M322.27,392.37h-1l-1-2.4h-3.13l-1,2.41h-.93l3.1-7.6h.77Zm-.95,0h.93l-3.07-7.59h-.76l-3.09,7.59h.91l1-2.41h3.15Zm-1.25-3.19h-2.54l.92-2.34a9.36,9.36,0,0,0,.34-1.09v0c.13.44.25.8.36,1.09Zm-2.53,0h2.52l-.91-2.34c-.11-.29-.23-.64-.36-1.07a9.54,9.54,0,0,1-.33,1.07Z"/><path class="cls-8" d="M323.34,392.36v-7.57h.91v6.77h3.45v.8Z"/><path class="cls-8" d="M327.71,392.37h-4.37v-7.58h.92v6.77h3.46Zm-4.37,0h4.36v-.79h-3.46V384.8h-.9Z"/><path class="cls-8" d="M331,388.58l2.09-3.78h1l-2.61,4.63v2.93h-.92v-2.89L328,384.79h1Z"/><path class="cls-8" d="M331.49,392.37h-.93v-2.9l-2.61-4.68h1l2.07,3.77,2.08-3.78h1l-2.61,4.63Zm-.92,0h.91v-2.93l2.61-4.63h-1L331,388.59h0L329,384.8h-1l2.6,4.67Z"/><path class="cls-8" d="M337.59,392.36h-.91v-6.78H334.2v-.78h5.87v.78h-2.48Z"/><path class="cls-8" d="M337.59,392.37h-.92v-6.78h-2.48v-.79h5.88v.79h-2.48Zm-.91,0h.9v-6.78h2.48v-.77H334.2v.77h2.48Z"/><path class="cls-8" d="M341.24,392.36v-7.57h.91v7.57Z"/><path class="cls-8" d="M342.16,392.37h-.92v-7.58h.92Zm-.91,0h.9V384.8h-.9Z"/><path class="cls-8" d="M347.65,385.47a2.6,2.6,0,0,0-2,.83,3.27,3.27,0,0,0-.75,2.27,3.34,3.34,0,0,0,.72,2.3,2.6,2.6,0,0,0,2.05.81,7.23,7.23,0,0,0,1.87-.28v.77a6,6,0,0,1-2,.29,3.46,3.46,0,0,1-2.67-1,4.08,4.08,0,0,1-.94-2.88,4.42,4.42,0,0,1,.45-2,3.19,3.19,0,0,1,1.31-1.36,4.08,4.08,0,0,1,2-.48,5,5,0,0,1,2.15.43l-.39.76A4.27,4.27,0,0,0,347.65,385.47Z"/><path class="cls-8" d="M347.51,392.47a3.48,3.48,0,0,1-2.67-1,4.1,4.1,0,0,1-.94-2.88,4.44,4.44,0,0,1,.45-2.05,3.21,3.21,0,0,1,1.31-1.36,4.09,4.09,0,0,1,2-.48,5,5,0,0,1,2.15.43h0l-.39.76h0a4.27,4.27,0,0,0-1.78-.4,2.6,2.6,0,0,0-2,.83,3.28,3.28,0,0,0-.75,2.27,3.35,3.35,0,0,0,.72,2.29,2.61,2.61,0,0,0,2,.81,7.29,7.29,0,0,0,1.87-.28h0v.78h0A6,6,0,0,1,347.51,392.47Zm.16-7.78a4.09,4.09,0,0,0-2,.48,3.21,3.21,0,0,0-1.3,1.35,4.43,4.43,0,0,0-.45,2,4.1,4.1,0,0,0,.94,2.88,3.47,3.47,0,0,0,2.67,1,6,6,0,0,0,2-.29v-.76a7.29,7.29,0,0,1-1.86.28,2.62,2.62,0,0,1-2.06-.81,3.36,3.36,0,0,1-.72-2.3,3.29,3.29,0,0,1,.75-2.28,2.61,2.61,0,0,1,2-.83,4.3,4.3,0,0,1,1.78.4l.38-.75A5,5,0,0,0,347.67,384.69Z"/><path class="cls-8" d="M355.64,390.35a1.83,1.83,0,0,1-.75,1.56,3.33,3.33,0,0,1-2,.56,5.23,5.23,0,0,1-2.14-.35v-.85a6,6,0,0,0,2.17.43,2.32,2.32,0,0,0,1.37-.33,1.08,1.08,0,0,0,.46-.93,1.17,1.17,0,0,0-.16-.65,1.52,1.52,0,0,0-.55-.46,7.91,7.91,0,0,0-1.16-.48,3.74,3.74,0,0,1-1.56-.89,1.94,1.94,0,0,1-.47-1.35,1.66,1.66,0,0,1,.68-1.39,2.9,2.9,0,0,1,1.8-.52,5.48,5.48,0,0,1,2.15.41l-.28.77a5,5,0,0,0-1.89-.39,1.87,1.87,0,0,0-1.13.3,1,1,0,0,0-.41.83,1.24,1.24,0,0,0,.15.64,1.39,1.39,0,0,0,.51.46,6.46,6.46,0,0,0,1.09.46,4.35,4.35,0,0,1,1.7.91A1.76,1.76,0,0,1,355.64,390.35Z"/><path class="cls-8" d="M352.86,392.47a5.27,5.27,0,0,1-2.14-.35h0v-.86h0a6,6,0,0,0,2.17.42,2.33,2.33,0,0,0,1.37-.33,1.08,1.08,0,0,0,.46-.92,1.17,1.17,0,0,0-.16-.64,1.54,1.54,0,0,0-.54-.46,8,8,0,0,0-1.17-.48,3.77,3.77,0,0,1-1.56-.9,2,2,0,0,1-.47-1.35,1.67,1.67,0,0,1,.68-1.4,2.92,2.92,0,0,1,1.8-.52,5.53,5.53,0,0,1,2.15.41h0l-.29.77h0a5,5,0,0,0-1.88-.39,1.87,1.87,0,0,0-1.13.3,1,1,0,0,0-.41.83,1.25,1.25,0,0,0,.15.64,1.4,1.4,0,0,0,.5.46,6.4,6.4,0,0,0,1.09.46,4.39,4.39,0,0,1,1.7.91,1.77,1.77,0,0,1,.46,1.27,1.85,1.85,0,0,1-.75,1.56A3.35,3.35,0,0,1,352.86,392.47Zm-2.14-.35a5.28,5.28,0,0,0,2.14.34,3.34,3.34,0,0,0,2-.56,1.84,1.84,0,0,0,.75-1.55,1.76,1.76,0,0,0-.46-1.26,4.35,4.35,0,0,0-1.69-.91,6.4,6.4,0,0,1-1.09-.46,1.4,1.4,0,0,1-.51-.46,1.25,1.25,0,0,1-.15-.65,1,1,0,0,1,.41-.84,1.88,1.88,0,0,1,1.13-.3,5.07,5.07,0,0,1,1.88.39l.28-.76a5.5,5.5,0,0,0-2.14-.41,2.91,2.91,0,0,0-1.8.52,1.66,1.66,0,0,0-.68,1.39,1.94,1.94,0,0,0,.47,1.35,3.77,3.77,0,0,0,1.56.89,7.89,7.89,0,0,1,1.17.48,1.52,1.52,0,0,1,.55.46,1.18,1.18,0,0,1,.16.65,1.09,1.09,0,0,1-.46.93,2.34,2.34,0,0,1-1.37.33,6,6,0,0,1-2.17-.42Z"/><path class="cls-8" d="M364.45,392.36h-4.36v-7.57h4.36v.78H361V388h3.25v.78H361v2.78h3.45Z"/><path class="cls-8" d="M364.46,392.37h-4.37v-7.58h4.38v.79H361V388h3.25v.79H361v2.77h3.46Zm-4.37,0h4.36v-.78H361v-2.79h3.25V388H361v-2.45h3.46v-.77h-4.36Z"/><path class="cls-8" d="M372.31,392.36h-1L367,386h0q.09,1.12.09,2v4.3h-.84v-7.57h1l4.27,6.32h0q0-.14,0-.9t0-1.08v-4.34h.85Z"/><path class="cls-8" d="M372.31,392.37h-1L367,386h0c.06.73.08,1.42.08,2v4.31h-.85v-7.58h1l4.27,6.33h0c0-.09,0-.37,0-.89s0-.86,0-1.08v-4.35h.86ZM366.94,386h0l4.28,6.35h1V384.8h-.84v4.34c0,.22,0,.59,0,1.08s0,.81,0,.9h0l-4.27-6.33h-1v7.56H367v-4.3c0-.63,0-1.32-.08-2Z"/><path class="cls-8" d="M377.9,388.4h2.66v3.68a8.52,8.52,0,0,1-1.26.29,10,10,0,0,1-1.49.1,3.68,3.68,0,0,1-2.77-1,3.94,3.94,0,0,1-1-2.86,4.2,4.2,0,0,1,.49-2.07,3.26,3.26,0,0,1,1.41-1.36,4.69,4.69,0,0,1,2.16-.47,6.08,6.08,0,0,1,2.34.45l-.35.78a5.37,5.37,0,0,0-2-.43,3,3,0,0,0-2.23.82,3.13,3.13,0,0,0-.8,2.28,3.19,3.19,0,0,0,.77,2.32,3,3,0,0,0,2.27.79,7,7,0,0,0,1.59-.18v-2.33H377.9Z"/><path class="cls-8" d="M377.81,392.47a3.7,3.7,0,0,1-2.77-1,4,4,0,0,1-1-2.87,4.23,4.23,0,0,1,.49-2.07,3.27,3.27,0,0,1,1.41-1.36,4.71,4.71,0,0,1,2.16-.47,6.12,6.12,0,0,1,2.34.45h0l-.36.78h0a5.38,5.38,0,0,0-2-.43,3,3,0,0,0-2.23.82,3.13,3.13,0,0,0-.8,2.28,3.2,3.2,0,0,0,.77,2.32,3,3,0,0,0,2.27.79,7,7,0,0,0,1.59-.18v-2.32H377.9v-.8h2.67v3.69h0a8.68,8.68,0,0,1-1.26.29A10,10,0,0,1,377.81,392.47Zm.3-7.78a4.7,4.7,0,0,0-2.16.47,3.27,3.27,0,0,0-1.41,1.35,4.23,4.23,0,0,0-.49,2.06,4,4,0,0,0,1,2.86,3.68,3.68,0,0,0,2.76,1,10,10,0,0,0,1.49-.1,8.47,8.47,0,0,0,1.26-.29V388.4h-2.65v.78h1.75v2.34h0a7,7,0,0,1-1.59.18,3.06,3.06,0,0,1-2.28-.79,3.22,3.22,0,0,1-.77-2.33,3.14,3.14,0,0,1,.8-2.29,3,3,0,0,1,2.24-.82,5.39,5.39,0,0,1,2,.43l.35-.77A6.09,6.09,0,0,0,378.11,384.69Z"/><path class="cls-8" d="M382.44,392.36v-7.57h.91v7.57Z"/><path class="cls-8" d="M383.36,392.37h-.92v-7.58h.92Zm-.91,0h.9V384.8h-.9Z"/><path class="cls-8" d="M391.62,392.36h-1L386.3,386h0q.09,1.12.09,2v4.3h-.84v-7.57h1l4.27,6.32h0q0-.14,0-.9t0-1.08v-4.34h.85Z"/><path class="cls-8" d="M391.62,392.37h-1L386.29,386h0c.06.74.08,1.42.08,2v4.31h-.85v-7.58h1l4.27,6.33h0c0-.09,0-.37,0-.89s0-.86,0-1.08v-4.35h.86ZM386.25,386h0l4.28,6.35h1V384.8h-.84v4.34c0,.22,0,.59,0,1.08s0,.81,0,.9h0l-4.27-6.33h-1v7.56h.83v-4.3c0-.62,0-1.31-.09-2Z"/><path class="cls-8" d="M398.13,392.36h-4.36v-7.57h4.36v.78h-3.45V388h3.25v.78h-3.25v2.78h3.45Z"/><path class="cls-8" d="M398.14,392.37h-4.37v-7.58h4.38v.79h-3.46V388h3.25v.79h-3.25v2.77h3.46Zm-4.37,0h4.36v-.78h-3.46v-2.79h3.25V388h-3.25v-2.45h3.46v-.77h-4.36Z"/><rect class="cls-16" x="180.07" y="314.92" width="149.45" height="21.28"/><rect class="cls-16" x="197.49" y="237" width="134.63" height="21.28"/><path class="cls-8" d="M234,243.89a2.6,2.6,0,0,0-2,.83,3.27,3.27,0,0,0-.75,2.27,3.34,3.34,0,0,0,.72,2.3,2.6,2.6,0,0,0,2.05.81,7.23,7.23,0,0,0,1.87-.28v.77a6,6,0,0,1-2,.29,3.46,3.46,0,0,1-2.67-1,4.08,4.08,0,0,1-.94-2.88,4.42,4.42,0,0,1,.45-2,3.19,3.19,0,0,1,1.31-1.36,4.08,4.08,0,0,1,2-.48,5,5,0,0,1,2.15.43l-.39.76A4.27,4.27,0,0,0,234,243.89Z"/><path class="cls-8" d="M233.86,250.89a3.47,3.47,0,0,1-2.67-1,4.1,4.1,0,0,1-.94-2.88,4.45,4.45,0,0,1,.45-2.05,3.22,3.22,0,0,1,1.31-1.36,4.08,4.08,0,0,1,2-.48,5,5,0,0,1,2.15.43h0l-.39.76h0a4.29,4.29,0,0,0-1.78-.41,2.61,2.61,0,0,0-2,.83,3.28,3.28,0,0,0-.75,2.27,3.35,3.35,0,0,0,.72,2.29,2.61,2.61,0,0,0,2,.81,7.23,7.23,0,0,0,1.87-.28h0v.78h0A6,6,0,0,1,233.86,250.89Zm.16-7.78a4.09,4.09,0,0,0-2,.47,3.22,3.22,0,0,0-1.3,1.36,4.43,4.43,0,0,0-.45,2,4.1,4.1,0,0,0,.94,2.88,3.46,3.46,0,0,0,2.67,1,6,6,0,0,0,2-.29v-.76a7.23,7.23,0,0,1-1.86.28,2.61,2.61,0,0,1-2.06-.81,3.36,3.36,0,0,1-.72-2.3,3.29,3.29,0,0,1,.75-2.28,2.61,2.61,0,0,1,2-.83,4.3,4.3,0,0,1,1.78.4l.38-.75A5,5,0,0,0,234,243.11Z"/><path class="cls-8" d="M244.37,247a4.08,4.08,0,0,1-1,2.86,3.4,3.4,0,0,1-2.64,1,3.44,3.44,0,0,1-2.67-1,4.11,4.11,0,0,1-.94-2.89,4.06,4.06,0,0,1,.94-2.86,3.47,3.47,0,0,1,2.68-1,3.39,3.39,0,0,1,2.64,1A4.07,4.07,0,0,1,244.37,247Zm-6.24,0a3.51,3.51,0,0,0,.68,2.33,2.83,2.83,0,0,0,3.93,0,4.41,4.41,0,0,0,0-4.65,2.41,2.41,0,0,0-2-.79,2.46,2.46,0,0,0-2,.79A3.47,3.47,0,0,0,238.14,247Z"/><path class="cls-8" d="M240.78,250.89a3.46,3.46,0,0,1-2.67-1,4.12,4.12,0,0,1-.94-2.89,4.08,4.08,0,0,1,.94-2.87,3.49,3.49,0,0,1,2.68-1,3.41,3.41,0,0,1,2.64,1,4.78,4.78,0,0,1,0,5.72A3.42,3.42,0,0,1,240.78,250.89Zm0-7.79a3.48,3.48,0,0,0-2.67,1,4.07,4.07,0,0,0-.94,2.86,4.12,4.12,0,0,0,.94,2.88,3.45,3.45,0,0,0,2.67,1,3.41,3.41,0,0,0,2.64-1,4.77,4.77,0,0,0,0-5.71A3.4,3.4,0,0,0,240.79,243.1Zm0,7a2.46,2.46,0,0,1-2-.8,4.32,4.32,0,0,1,0-4.65,2.47,2.47,0,0,1,2-.79,2.42,2.42,0,0,1,2,.79,3.54,3.54,0,0,1,.66,2.32,3.58,3.58,0,0,1-.67,2.34A2.44,2.44,0,0,1,240.78,250.12Zm0-6.23a2.46,2.46,0,0,0-2,.79,4.31,4.31,0,0,0,0,4.64,2.83,2.83,0,0,0,3.93,0,3.57,3.57,0,0,0,.66-2.33,3.53,3.53,0,0,0-.66-2.31A2.41,2.41,0,0,0,240.79,243.89Z"/><path class="cls-8" d="M252.24,250.78h-1l-4.28-6.35h0q.09,1.12.09,2v4.3h-.84v-7.57h1l4.27,6.32h0q0-.14,0-.9t0-1.08v-4.34h.85Z"/><path class="cls-8" d="M252.24,250.78h-1l-4.28-6.35h0c.06.74.08,1.42.08,2v4.31h-.85v-7.58h1l4.27,6.33h0c0-.1,0-.4,0-.89s0-.87,0-1.08v-4.35h.86Zm-5.37-6.36h0l4.28,6.35h1v-7.56h-.84v4.34c0,.22,0,.58,0,1.08s0,.8,0,.9h0l-4.27-6.33h-1v7.56H247v-4.3c0-.62,0-1.31-.09-2Z"/><path class="cls-8" d="M255.3,250.78h-.91v-7.57h4.36V244H255.3v2.77h3.25v.78H255.3Z"/><path class="cls-8" d="M255.3,250.78h-.92v-7.58h4.37V244H255.3v2.76h3.25v.79H255.3Zm-.91,0h.9v-3.23h3.25v-.77h-3.25V244h3.45v-.77h-4.35Z"/><path class="cls-8" d="M260,250.78v-7.57H261V250h3.45v.8Z"/><path class="cls-8" d="M264.42,250.78H260v-7.58H261V250h3.46Zm-4.37,0h4.36V250H261v-6.77h-.9Z"/><path class="cls-8" d="M271.65,243.21v4.9a2.62,2.62,0,0,1-.81,2,3.16,3.16,0,0,1-2.22.74,3,3,0,0,1-2.19-.75,2.71,2.71,0,0,1-.77-2v-4.87h.91v4.94a1.9,1.9,0,0,0,.54,1.45,2.2,2.2,0,0,0,1.57.51,2.13,2.13,0,0,0,1.53-.51,1.92,1.92,0,0,0,.54-1.46v-4.93Z"/><path class="cls-8" d="M268.62,250.89a3,3,0,0,1-2.19-.75,2.73,2.73,0,0,1-.78-2.05v-4.88h.92v4.94a1.9,1.9,0,0,0,.53,1.45,2.21,2.21,0,0,0,1.57.51,2.13,2.13,0,0,0,1.52-.51,1.92,1.92,0,0,0,.54-1.46v-4.93h.92v4.9a2.63,2.63,0,0,1-.81,2A3.18,3.18,0,0,1,268.62,250.89Zm-3-7.67v4.87a2.72,2.72,0,0,0,.77,2,3,3,0,0,0,2.18.74,3.18,3.18,0,0,0,2.22-.74,2.62,2.62,0,0,0,.81-2v-4.89h-.9v4.92a1.94,1.94,0,0,1-.54,1.47,2.14,2.14,0,0,1-1.53.51,2.22,2.22,0,0,1-1.58-.51,1.92,1.92,0,0,1-.54-1.46v-4.93Z"/><path class="cls-8" d="M278.09,250.78h-4.36v-7.57h4.36V244h-3.45v2.44h3.25v.78h-3.25V250h3.45Z"/><path class="cls-8" d="M278.1,250.78h-4.37v-7.58h4.37V244h-3.45v2.43h3.25v.79h-3.25V250h3.45Zm-4.36,0h4.35V250h-3.45V247.2h3.25v-.77h-3.25V244h3.45v-.77h-4.35Z"/><path class="cls-8" d="M286.35,250.78h-1.11l-4.56-6.35h0q.09,1.12.09,2v4.3h-.9v-7.57h1.1l4.55,6.32h0q0-.14-.05-.9t0-1.08v-4.34h.91Z"/><path class="cls-8" d="M286.35,250.78h-1.11l-4.57-6.35h0c.06.74.09,1.42.09,2v4.31h-.91v-7.58h1.1l4.56,6.33h0c0-.09,0-.37-.05-.89s0-.86,0-1.08v-4.35h.92Zm-5.73-6.36h.05l4.57,6.35h1.1v-7.56h-.9v4.34c0,.22,0,.59,0,1.08s0,.81.05.9h-.05l-4.56-6.33h-1.09v7.56h.89v-4.3c0-.62,0-1.31-.09-2Z"/><path class="cls-8" d="M291.45,243.89a2.6,2.6,0,0,0-2,.83,3.27,3.27,0,0,0-.75,2.27,3.34,3.34,0,0,0,.72,2.3,2.6,2.6,0,0,0,2.05.81,7.23,7.23,0,0,0,1.87-.28v.77a6,6,0,0,1-2,.29,3.46,3.46,0,0,1-2.67-1,4.08,4.08,0,0,1-.94-2.88,4.42,4.42,0,0,1,.45-2,3.19,3.19,0,0,1,1.31-1.36,4.08,4.08,0,0,1,2-.48,5,5,0,0,1,2.15.43l-.39.76A4.27,4.27,0,0,0,291.45,243.89Z"/><path class="cls-8" d="M291.3,250.89a3.48,3.48,0,0,1-2.67-1,4.1,4.1,0,0,1-.94-2.88,4.44,4.44,0,0,1,.45-2.05,3.22,3.22,0,0,1,1.31-1.36,4.1,4.1,0,0,1,2-.48,5,5,0,0,1,2.16.43h0l-.39.76h0a4.28,4.28,0,0,0-1.78-.41,2.61,2.61,0,0,0-2,.83,3.28,3.28,0,0,0-.75,2.27,3.35,3.35,0,0,0,.72,2.29,2.61,2.61,0,0,0,2,.81,7.24,7.24,0,0,0,1.87-.28h0v.78h0A6,6,0,0,1,291.3,250.89Zm.16-7.78a4.1,4.1,0,0,0-2,.47,3.21,3.21,0,0,0-1.3,1.36,4.43,4.43,0,0,0-.45,2,4.1,4.1,0,0,0,.94,2.88,3.47,3.47,0,0,0,2.67,1,6,6,0,0,0,2-.29v-.76a7.24,7.24,0,0,1-1.86.28,2.62,2.62,0,0,1-2.06-.81,3.36,3.36,0,0,1-.72-2.3,3.29,3.29,0,0,1,.75-2.28,2.61,2.61,0,0,1,2-.83,4.3,4.3,0,0,1,1.78.4l.38-.75A5,5,0,0,0,291.46,243.11Z"/><path class="cls-8" d="M299.38,250.78H295v-7.57h4.36V244h-3.45v2.44h3.25v.78h-3.25V250h3.45Z"/><path class="cls-8" d="M299.38,250.78H295v-7.58h4.38V244h-3.46v2.43h3.25v.79h-3.25V250h3.46Zm-4.37,0h4.36V250h-3.46V247.2h3.25v-.77h-3.25V244h3.46v-.77H295Z"/><rect class="cls-15" x="1.98" y="430.82" width="12.16" height="33.97"/><polygon class="cls-21" points="206.64 175.46 213.27 165.13 219.9 175.46 213.27 185.8 206.64 175.46"/><path class="cls-22" d="M233.45,171.8h1l-3,7.92h-.94l-2.94-7.92h1l1.89,5.13a13.9,13.9,0,0,1,.52,1.72,14,14,0,0,1,.53-1.75Z"/><path class="cls-22" d="M238.49,179.72h-.91v-5.65c0-.47,0-.91,0-1.33l-.26.24L236,174l-.49-.62,2.17-1.62h.79Z"/><path class="cls-22" d="M241.9,179.15a.78.78,0,0,1,.17-.55.63.63,0,0,1,.49-.19.68.68,0,0,1,.51.19.75.75,0,0,1,.18.55.74.74,0,0,1-.19.54.67.67,0,0,1-.5.19.68.68,0,0,1-.47-.17A.73.73,0,0,1,241.9,179.15Z"/><path class="cls-22" d="M250.1,175.75a5.63,5.63,0,0,1-.67,3.07,2.53,2.53,0,0,1-4.06,0,5.52,5.52,0,0,1-.69-3,5.63,5.63,0,0,1,.67-3.07,2.53,2.53,0,0,1,4.06,0A5.5,5.5,0,0,1,250.1,175.75Zm-4.48,0a5.62,5.62,0,0,0,.42,2.52,1.54,1.54,0,0,0,2.69,0,7.73,7.73,0,0,0,0-5,1.54,1.54,0,0,0-2.69,0A5.58,5.58,0,0,0,245.62,175.75Z"/><path class="cls-22" d="M251.53,179.15a.78.78,0,0,1,.17-.55.63.63,0,0,1,.49-.19.68.68,0,0,1,.51.19.75.75,0,0,1,.18.55.74.74,0,0,1-.19.54.67.67,0,0,1-.5.19.68.68,0,0,1-.47-.17A.73.73,0,0,1,251.53,179.15Z"/><path class="cls-22" d="M259.73,175.75a5.63,5.63,0,0,1-.67,3.07,2.53,2.53,0,0,1-4.06,0,5.52,5.52,0,0,1-.69-3,5.63,5.63,0,0,1,.67-3.07,2.53,2.53,0,0,1,4.06,0A5.5,5.5,0,0,1,259.73,175.75Zm-4.48,0a5.62,5.62,0,0,0,.42,2.52,1.54,1.54,0,0,0,2.69,0,7.73,7.73,0,0,0,0-5,1.54,1.54,0,0,0-2.69,0A5.58,5.58,0,0,0,255.25,175.75Z"/><polygon class="cls-21" points="383.52 175.46 390.15 165.13 396.79 175.46 390.15 185.8 383.52 175.46"/><path class="cls-22" d="M411.27,171.8h1l-3,7.92h-.94l-2.94-7.92h1l1.89,5.13a13.9,13.9,0,0,1,.52,1.72,14,14,0,0,1,.53-1.75Z"/><path class="cls-22" d="M416.31,179.72h-.91v-5.65c0-.47,0-.91,0-1.33l-.26.24L413.85,174l-.49-.62,2.17-1.62h.79Z"/><path class="cls-22" d="M419.72,179.15a.78.78,0,0,1,.17-.55.63.63,0,0,1,.49-.19.68.68,0,0,1,.51.19.75.75,0,0,1,.18.55.74.74,0,0,1-.19.54.67.67,0,0,1-.5.19.68.68,0,0,1-.47-.17A.73.73,0,0,1,419.72,179.15Z"/><path class="cls-22" d="M427.93,175.75a5.63,5.63,0,0,1-.67,3.07,2.53,2.53,0,0,1-4.06,0,5.52,5.52,0,0,1-.69-3,5.63,5.63,0,0,1,.67-3.07,2.53,2.53,0,0,1,4.06,0A5.5,5.5,0,0,1,427.93,175.75Zm-4.48,0a5.62,5.62,0,0,0,.42,2.52,1.54,1.54,0,0,0,2.69,0,7.73,7.73,0,0,0,0-5,1.54,1.54,0,0,0-2.69,0A5.58,5.58,0,0,0,423.44,175.75Z"/><path class="cls-22" d="M429.35,179.15a.78.78,0,0,1,.17-.55.63.63,0,0,1,.49-.19.68.68,0,0,1,.51.19.75.75,0,0,1,.18.55.74.74,0,0,1-.19.54.67.67,0,0,1-.5.19.68.68,0,0,1-.47-.17A.73.73,0,0,1,429.35,179.15Z"/><path class="cls-22" d="M435.57,179.72h-.91v-5.65c0-.47,0-.91,0-1.33l-.26.24L433.1,174l-.49-.62,2.17-1.62h.79Z"/><path class="cls-22" d="M237.33,211.4l-1-2.52H233l-1,2.52h-1l3.24-8h.8l3.23,8ZM236,208.06l-1-2.46q-.19-.47-.38-1.14a9.93,9.93,0,0,1-.35,1.14l-1,2.46Z"/><path class="cls-22" d="M244.64,205.79a2.19,2.19,0,0,1-.85,1.85,4,4,0,0,1-2.43.65h-1v3.12h-1v-7.92h2.13Q244.64,203.48,244.64,205.79Zm-4.25,1.71h.86a3.28,3.28,0,0,0,1.83-.4,1.44,1.44,0,0,0,.57-1.27,1.35,1.35,0,0,0-.53-1.17,2.86,2.86,0,0,0-1.66-.38h-1.07Z"/><path class="cls-22" d="M251.56,205.79a2.19,2.19,0,0,1-.85,1.85,4,4,0,0,1-2.43.65h-1v3.12h-1v-7.92h2.13Q251.56,203.48,251.56,205.79Zm-4.25,1.71h.86a3.28,3.28,0,0,0,1.83-.4,1.44,1.44,0,0,0,.57-1.27,1.35,1.35,0,0,0-.53-1.17,2.86,2.86,0,0,0-1.66-.38h-1.07Z"/><path class="cls-22" d="M256.26,211.4v-7.92h1v7.09h3.62v.83Z"/><path class="cls-22" d="M267.38,211.4l-1-2.52h-3.29l-1,2.52h-1l3.24-8h.8l3.23,8Zm-1.32-3.35-1-2.46q-.19-.47-.38-1.14a9.93,9.93,0,0,1-.35,1.14l-1,2.46Z"/><path class="cls-22" d="M275.69,203.48v5.13a2.74,2.74,0,0,1-.85,2.13,3.32,3.32,0,0,1-2.33.77,3.17,3.17,0,0,1-2.29-.78,2.84,2.84,0,0,1-.81-2.15v-5.1h1v5.17a2,2,0,0,0,.56,1.52,2.31,2.31,0,0,0,1.65.53,2.23,2.23,0,0,0,1.6-.53,2,2,0,0,0,.56-1.53v-5.16Z"/><path class="cls-22" d="M284.27,211.4h-1.09l-4.48-6.65h0q.09,1.17.09,2.15v4.5h-.88v-7.92h1.08l4.47,6.62h0q0-.15-.05-.94c0-.53,0-.91,0-1.13v-4.55h.89Z"/><path class="cls-22" d="M290,204.19a2.72,2.72,0,0,0-2.13.87,3.43,3.43,0,0,0-.78,2.38,3.5,3.5,0,0,0,.75,2.4,2.73,2.73,0,0,0,2.15.85,7.58,7.58,0,0,0,2-.3v.81a6.25,6.25,0,0,1-2.1.31,3.62,3.62,0,0,1-2.8-1.06,4.27,4.27,0,0,1-1-3,4.63,4.63,0,0,1,.47-2.15,3.34,3.34,0,0,1,1.37-1.42,4.26,4.26,0,0,1,2.11-.5,5.23,5.23,0,0,1,2.26.46l-.4.79A4.47,4.47,0,0,0,290,204.19Z"/><path class="cls-22" d="M300,211.4h-1v-3.73h-4.32v3.73h-1v-7.92h1v3.37H299v-3.37h1Z"/><path class="cls-22" d="M146.69,203.48H149a4.5,4.5,0,0,1,2.36.47,1.64,1.64,0,0,1,.73,1.49,1.69,1.69,0,0,1-.41,1.16,2,2,0,0,1-1.19.59v.05q1.87.31,1.87,1.9a2,2,0,0,1-.74,1.66,3.24,3.24,0,0,1-2.08.6h-2.86Zm1,3.39h1.57a2.62,2.62,0,0,0,1.45-.31,1.16,1.16,0,0,0,.44-1,1,1,0,0,0-.49-1,3.17,3.17,0,0,0-1.57-.3h-1.4Zm0,.78v3h1.71a2.51,2.51,0,0,0,1.5-.37,1.35,1.35,0,0,0,.5-1.16,1.22,1.22,0,0,0-.51-1.08,2.82,2.82,0,0,0-1.56-.35Z"/><path class="cls-22" d="M158.71,211.41h-4.57v-7.92h4.57v.82h-3.62v2.55h3.4v.81h-3.4v2.92h3.62Z"/><path class="cls-22" d="M163.05,211.41h-1v-7.1h-2.6v-.82h6.15v.82h-2.6Z"/><path class="cls-22" d="M172,211.41l-1-2.52h-3.29l-1,2.52h-1l3.24-8h.8l3.23,8Zm-1.32-3.35-1-2.46q-.19-.47-.38-1.14a9.93,9.93,0,0,1-.35,1.14l-1,2.46Z"/><path class="cls-23" d="M130.23,196.27l3,6.08a.7.7,0,0,0,.53.38l6.71,1a.7.7,0,0,1,.39,1.2L136,209.64a.7.7,0,0,0-.2.62l1.15,6.68a.7.7,0,0,1-1,.74l-6-3.16a.7.7,0,0,0-.65,0l-6,3.16a.7.7,0,0,1-1-.74l1.15-6.68a.7.7,0,0,0-.2-.62l-4.86-4.73a.7.7,0,0,1,.39-1.2l6.71-1a.7.7,0,0,0,.53-.38l3-6.08A.7.7,0,0,1,130.23,196.27Z"/><circle class="cls-1" cx="129.6" cy="207.58" r="12.7"/><path class="cls-23" d="M213,196.27l3,6.08a.7.7,0,0,0,.53.38l6.71,1a.7.7,0,0,1,.39,1.2l-4.86,4.73a.7.7,0,0,0-.2.62l1.15,6.68a.7.7,0,0,1-1,.74l-6-3.16a.7.7,0,0,0-.65,0l-6,3.16a.7.7,0,0,1-1-.74l1.15-6.68a.7.7,0,0,0-.2-.62l-4.86-4.73a.7.7,0,0,1,.39-1.2l6.71-1a.7.7,0,0,0,.53-.38l3-6.08A.7.7,0,0,1,213,196.27Z"/><circle class="cls-1" cx="212.33" cy="207.58" r="12.7"/><path class="cls-8" d="M200.35,329.23l-.74-2.05h-2.83l-.72,2.05h-1.27l2.77-7.43h1.32l2.77,7.43Zm-1.06-3.1-.69-2q-.08-.2-.21-.64t-.18-.64a11.33,11.33,0,0,1-.4,1.36l-.67,1.93Z"/><path class="cls-8" d="M207.4,324.07a2.16,2.16,0,0,1-.76,1.78,3.34,3.34,0,0,1-2.16.62h-.77v2.77H202.5v-7.4h2.13a3.22,3.22,0,0,1,2.08.57A2,2,0,0,1,207.4,324.07Zm-3.69,1.38h.64a2.3,2.3,0,0,0,1.37-.32,1.18,1.18,0,0,0,.44-1,1.15,1.15,0,0,0-.39-1,1.92,1.92,0,0,0-1.21-.31h-.84Z"/><path class="cls-8" d="M213.67,324.07a2.16,2.16,0,0,1-.76,1.78,3.34,3.34,0,0,1-2.16.62H210v2.77h-1.21v-7.4h2.13a3.22,3.22,0,0,1,2.08.57A2,2,0,0,1,213.67,324.07ZM210,325.44h.64a2.3,2.3,0,0,0,1.37-.32,1.18,1.18,0,0,0,.44-1,1.15,1.15,0,0,0-.39-1,1.92,1.92,0,0,0-1.21-.31H210Z"/><path class="cls-8" d="M215,329.23v-7.4h1.21v6.36h3.13v1Z"/><path class="cls-8" d="M220.56,329.23v-7.4h1.21v7.4Z"/><path class="cls-8" d="M226.76,322.76a2,2,0,0,0-1.64.74,3.88,3.88,0,0,0,0,4.1,2,2,0,0,0,1.66.7,4.36,4.36,0,0,0,.91-.09q.44-.09.92-.24v1a5.56,5.56,0,0,1-2,.33,3.15,3.15,0,0,1-2.49-1,4.12,4.12,0,0,1-.87-2.82,4.55,4.55,0,0,1,.42-2,3,3,0,0,1,1.22-1.33,3.69,3.69,0,0,1,1.88-.46,4.66,4.66,0,0,1,2.09.48l-.44,1a6.52,6.52,0,0,0-.79-.31A2.86,2.86,0,0,0,226.76,322.76Z"/><path class="cls-8" d="M234.67,329.23l-.74-2.05H231.1l-.72,2.05H229.1l2.77-7.43h1.32l2.77,7.43Zm-1.06-3.1-.69-2q-.08-.2-.21-.64t-.18-.64a11.33,11.33,0,0,1-.4,1.36l-.67,1.93Z"/><path class="cls-8" d="M239.38,329.23h-1.21v-6.36H236v-1h5.56v1h-2.18Z"/><path class="cls-8" d="M242.58,329.23v-7.4h1.21v7.4Z"/><path class="cls-8" d="M252.21,325.52a4,4,0,0,1-.9,2.81,3.79,3.79,0,0,1-5.13,0,4.07,4.07,0,0,1-.9-2.83,4,4,0,0,1,.9-2.81,3.33,3.33,0,0,1,2.58-1,3.26,3.26,0,0,1,2.55,1A4,4,0,0,1,252.21,325.52Zm-5.65,0a3.32,3.32,0,0,0,.55,2.07,2.24,2.24,0,0,0,3.26,0,4.2,4.2,0,0,0,0-4.14,1.92,1.92,0,0,0-1.62-.7,2,2,0,0,0-1.64.7A3.28,3.28,0,0,0,246.56,325.52Z"/><path class="cls-8" d="M259.86,329.23h-1.48l-3.64-5.89h0l0,.33q.07.94.07,1.72v3.84h-1.1v-7.4h1.47l3.63,5.86h0q0-.12,0-.85t0-1.14v-3.88h1.11Z"/><path class="cls-8" d="M265.49,329.23h-1.2v-7.4h4.17v1h-3v2.31h2.79v1h-2.79Z"/><path class="cls-8" d="M273.89,329.23H269.7v-7.4h4.18v1h-3v2h2.79v1h-2.79v2.32h3Z"/><path class="cls-8" d="M279.57,329.23h-4.18v-7.4h4.18v1h-3v2h2.79v1h-2.79v2.32h3Z"/><path class="cls-8" d="M287.08,325.46a3.69,3.69,0,0,1-1,2.8,4.08,4.08,0,0,1-2.93,1h-2.07v-7.4h2.29a3.78,3.78,0,0,1,2.75,1A3.55,3.55,0,0,1,287.08,325.46Zm-1.27,0q0-2.66-2.48-2.66h-1v5.37h.86A2.38,2.38,0,0,0,285.8,325.5Z"/><path class="cls-8" d="M288.56,321.83h2.2a4.17,4.17,0,0,1,2.21.45,1.56,1.56,0,0,1,.68,1.41,1.7,1.7,0,0,1-.33,1.08,1.49,1.49,0,0,1-1,.54v.05a1.91,1.91,0,0,1,1.15.58,1.75,1.75,0,0,1,.37,1.17,1.9,1.9,0,0,1-.7,1.56,3,3,0,0,1-1.94.56h-2.67Zm1.21,3.06h1.16a2,2,0,0,0,1.11-.24.92.92,0,0,0,.35-.82.82.82,0,0,0-.38-.75,2.35,2.35,0,0,0-1.2-.23h-1Zm0,1v2.34h1.28a1.89,1.89,0,0,0,1.15-.29,1.07,1.07,0,0,0,.39-.92,1,1,0,0,0-.39-.85,2.09,2.09,0,0,0-1.2-.28Z"/><path class="cls-8" d="M299.89,329.23l-.74-2.05h-2.83l-.72,2.05h-1.27l2.77-7.43h1.32l2.77,7.43Zm-1.06-3.1-.69-2q-.08-.2-.21-.64t-.18-.64a11.33,11.33,0,0,1-.4,1.36l-.67,1.93Z"/><path class="cls-8" d="M305.19,322.76a2,2,0,0,0-1.64.74,3.88,3.88,0,0,0,0,4.1,2,2,0,0,0,1.66.7,4.36,4.36,0,0,0,.91-.09q.44-.09.92-.24v1a5.56,5.56,0,0,1-2,.33,3.15,3.15,0,0,1-2.49-1,4.12,4.12,0,0,1-.87-2.82,4.55,4.55,0,0,1,.42-2,3,3,0,0,1,1.22-1.33,3.69,3.69,0,0,1,1.88-.46,4.66,4.66,0,0,1,2.09.48l-.44,1a6.52,6.52,0,0,0-.79-.31A2.86,2.86,0,0,0,305.19,322.76Z"/><path class="cls-8" d="M314.15,329.23h-1.4l-2.32-3.35-.71.58v2.77h-1.21v-7.4h1.21v3.53q.5-.61,1-1.17l2-2.36h1.38l-2.78,3.24Z"/><rect class="cls-16" x="433.42" y="314.92" width="80.59" height="21.28"/><path class="cls-8" d="M460.78,322.76a2,2,0,0,0-1.64.74,3.88,3.88,0,0,0,0,4.1,2,2,0,0,0,1.66.7,4.36,4.36,0,0,0,.91-.09q.44-.09.92-.24v1a5.56,5.56,0,0,1-2,.33,3.15,3.15,0,0,1-2.49-1,4.12,4.12,0,0,1-.87-2.82,4.55,4.55,0,0,1,.42-2,3,3,0,0,1,1.22-1.33,3.69,3.69,0,0,1,1.88-.46,4.66,4.66,0,0,1,2.09.48l-.44,1a6.52,6.52,0,0,0-.79-.31A2.86,2.86,0,0,0,460.78,322.76Z"/><path class="cls-8" d="M469.9,321.83v4.79a2.84,2.84,0,0,1-.35,1.43,2.34,2.34,0,0,1-1,.95,3.53,3.53,0,0,1-1.59.33,3,3,0,0,1-2.14-.73,2.64,2.64,0,0,1-.76-2v-4.77h1.21v4.68a1.87,1.87,0,0,0,.42,1.35,1.75,1.75,0,0,0,1.31.44q1.71,0,1.71-1.8v-4.67Z"/><path class="cls-8" d="M476,327.22a1.86,1.86,0,0,1-.71,1.55,3.1,3.1,0,0,1-2,.56,4.7,4.7,0,0,1-2.05-.39V327.8a5.56,5.56,0,0,0,1.07.37,4.55,4.55,0,0,0,1.06.14,1.69,1.69,0,0,0,1.06-.27.89.89,0,0,0,.34-.73.92.92,0,0,0-.31-.7,4.72,4.72,0,0,0-1.3-.68,3.43,3.43,0,0,1-1.43-.94,2,2,0,0,1-.41-1.26,1.77,1.77,0,0,1,.66-1.46,2.73,2.73,0,0,1,1.77-.53,5.18,5.18,0,0,1,2.11.47l-.38,1a4.63,4.63,0,0,0-1.76-.41,1.35,1.35,0,0,0-.89.26.84.84,0,0,0-.3.68,1,1,0,0,0,.12.49,1.24,1.24,0,0,0,.4.39,6.76,6.76,0,0,0,1,.48,5.46,5.46,0,0,1,1.19.63,1.86,1.86,0,0,1,.56.66A2,2,0,0,1,476,327.22Z"/><path class="cls-8" d="M479.83,329.23h-1.21v-6.36h-2.18v-1H482v1h-2.18Z"/><path class="cls-8" d="M489.61,325.52a4,4,0,0,1-.9,2.81,3.79,3.79,0,0,1-5.13,0,4.07,4.07,0,0,1-.9-2.83,4,4,0,0,1,.9-2.81,3.33,3.33,0,0,1,2.58-1,3.26,3.26,0,0,1,2.55,1A4,4,0,0,1,489.61,325.52Zm-5.65,0a3.32,3.32,0,0,0,.55,2.07,2.24,2.24,0,0,0,3.26,0,4.2,4.2,0,0,0,0-4.14,1.92,1.92,0,0,0-1.62-.7,2,2,0,0,0-1.64.7A3.28,3.28,0,0,0,484,325.52Z"/><path class="cls-8" d="M494.29,329.23l-2.15-6.18h0q.09,1.38.09,2.58v3.6h-1.1v-7.4h1.7l2.05,5.88h0l2.11-5.88h1.71v7.4h-1.16v-3.66q0-.55,0-1.44t0-1.07h0l-2.22,6.17Z"/><path class="cls-8" d="M504.73,329.23h-4.18v-7.4h4.18v1h-3v2h2.79v1h-2.79v2.32h3Z"/><path class="cls-8" d="M507.44,326.27v3h-1.21v-7.4h2.09a3.43,3.43,0,0,1,2.12.54,1.93,1.93,0,0,1,.69,1.62,2,2,0,0,1-1.44,2l2.09,3.27H510.4l-1.77-3Zm0-1h.84a1.92,1.92,0,0,0,1.22-.31,1.14,1.14,0,0,0,.38-.93,1,1,0,0,0-.41-.9,2.25,2.25,0,0,0-1.23-.27h-.8Z"/><rect class="cls-16" x="43.67" y="339.97" width="144.34" height="21.28"/><path class="cls-8" d="M64.25,350.51a3.69,3.69,0,0,1-1,2.8,4.08,4.08,0,0,1-2.93,1H58.24v-7.4h2.29a3.79,3.79,0,0,1,2.75,1A3.55,3.55,0,0,1,64.25,350.51Zm-1.27,0q0-2.66-2.48-2.66h-1v5.37h.86A2.38,2.38,0,0,0,63,350.55Z"/><path class="cls-8" d="M66.94,351.32v3H65.74v-7.4h2.09a3.43,3.43,0,0,1,2.12.54,1.93,1.93,0,0,1,.69,1.62,2,2,0,0,1-1.44,2l2.09,3.27H69.91l-1.77-3Zm0-1h.84A1.92,1.92,0,0,0,69,350a1.14,1.14,0,0,0,.38-.93,1,1,0,0,0-.41-.9,2.24,2.24,0,0,0-1.23-.27h-.8Z"/><path class="cls-8" d="M76.84,354.28l-.74-2.05H73.28l-.72,2.05H71.28L74,346.85h1.32l2.77,7.43Zm-1.06-3.1-.69-2q-.08-.2-.21-.64t-.18-.64a11.32,11.32,0,0,1-.4,1.36l-.67,1.93Z"/><path class="cls-8" d="M82,350.26h2.72V354a7.87,7.87,0,0,1-1.28.31,9.06,9.06,0,0,1-1.33.09,3.34,3.34,0,0,1-2.59-1,4,4,0,0,1-.91-2.8,3.74,3.74,0,0,1,1-2.8,3.86,3.86,0,0,1,2.83-1,5.51,5.51,0,0,1,2.2.45l-.42,1a4.27,4.27,0,0,0-1.8-.42,2.43,2.43,0,0,0-1.87.74,2.88,2.88,0,0,0-.69,2,3,3,0,0,0,.62,2.06,2.25,2.25,0,0,0,1.78.71,5.88,5.88,0,0,0,1.25-.15V351.3H82Z"/><path class="cls-8" d="M93.6,354.28l-.74-2.05H90l-.72,2.05H88l2.77-7.43h1.32l2.77,7.43Zm-1.06-3.1-.69-2q-.08-.2-.21-.64t-.18-.64a11.32,11.32,0,0,1-.4,1.36l-.67,1.93Z"/><path class="cls-8" d="M101.91,354.28h-1.48l-3.64-5.89h0l0,.33q.07.94.07,1.72v3.84h-1.1v-7.4h1.47l3.63,5.86h0q0-.12,0-.85t0-1.14v-3.87h1.11Z"/><path class="cls-8" d="M109.78,350.51a3.69,3.69,0,0,1-1,2.8,4.08,4.08,0,0,1-2.93,1h-2.07v-7.4h2.29a3.79,3.79,0,0,1,2.75,1A3.55,3.55,0,0,1,109.78,350.51Zm-1.27,0q0-2.66-2.48-2.66h-1v5.37h.86A2.38,2.38,0,0,0,108.5,350.55Z"/><path class="cls-8" d="M119.87,350.51a3.69,3.69,0,0,1-1,2.8,4.08,4.08,0,0,1-2.93,1h-2.07v-7.4h2.29a3.79,3.79,0,0,1,2.75,1A3.55,3.55,0,0,1,119.87,350.51Zm-1.27,0q0-2.66-2.48-2.66h-1v5.37h.86A2.38,2.38,0,0,0,118.59,350.55Z"/><path class="cls-8" d="M122.56,351.32v3h-1.21v-7.4h2.09a3.43,3.43,0,0,1,2.12.54,1.93,1.93,0,0,1,.69,1.62,2,2,0,0,1-1.44,2l2.09,3.27h-1.38l-1.77-3Zm0-1h.84a1.92,1.92,0,0,0,1.22-.31,1.14,1.14,0,0,0,.38-.93,1,1,0,0,0-.41-.9,2.24,2.24,0,0,0-1.23-.27h-.8Z"/><path class="cls-8" d="M134.44,350.57a4,4,0,0,1-.9,2.81,3.79,3.79,0,0,1-5.13,0,4.07,4.07,0,0,1-.9-2.83,4,4,0,0,1,.9-2.81,3.33,3.33,0,0,1,2.58-1,3.26,3.26,0,0,1,2.55,1A4,4,0,0,1,134.44,350.57Zm-5.65,0a3.32,3.32,0,0,0,.55,2.07,2.24,2.24,0,0,0,3.26,0,4.2,4.2,0,0,0,0-4.14,1.92,1.92,0,0,0-1.62-.7,2,2,0,0,0-1.64.7A3.28,3.28,0,0,0,128.79,350.57Z"/><path class="cls-8" d="M140.82,349.12a2.16,2.16,0,0,1-.76,1.78,3.34,3.34,0,0,1-2.16.62h-.77v2.77h-1.21v-7.4h2.13a3.23,3.23,0,0,1,2.08.57A2,2,0,0,1,140.82,349.12Zm-3.69,1.38h.64a2.3,2.3,0,0,0,1.37-.32,1.18,1.18,0,0,0,.44-1,1.15,1.15,0,0,0-.39-1,1.92,1.92,0,0,0-1.21-.31h-.84Z"/><path class="cls-8" d="M147.33,354.28h-1.21v-6.36H144v-1h5.56v1h-2.18Z"/><path class="cls-8" d="M157.11,350.57a4,4,0,0,1-.9,2.81,3.79,3.79,0,0,1-5.13,0,4.07,4.07,0,0,1-.9-2.83,4,4,0,0,1,.9-2.81,3.33,3.33,0,0,1,2.58-1,3.26,3.26,0,0,1,2.55,1A4,4,0,0,1,157.11,350.57Zm-5.65,0a3.32,3.32,0,0,0,.55,2.07,2.24,2.24,0,0,0,3.26,0,4.2,4.2,0,0,0,0-4.14,1.92,1.92,0,0,0-1.62-.7,2,2,0,0,0-1.64.7A3.28,3.28,0,0,0,151.46,350.57Z"/><path class="cls-8" d="M165.16,350.57a4,4,0,0,1-.9,2.81,3.79,3.79,0,0,1-5.13,0,4.07,4.07,0,0,1-.9-2.83,4,4,0,0,1,.9-2.81,3.33,3.33,0,0,1,2.58-1,3.26,3.26,0,0,1,2.55,1A4,4,0,0,1,165.16,350.57Zm-5.65,0a3.32,3.32,0,0,0,.55,2.07,2.24,2.24,0,0,0,3.26,0,4.2,4.2,0,0,0,0-4.14,1.92,1.92,0,0,0-1.62-.7,2,2,0,0,0-1.64.7A3.28,3.28,0,0,0,159.51,350.57Z"/><path class="cls-8" d="M166.64,354.28v-7.4h1.21v6.36H171v1Z"/><rect class="cls-16" x="223.83" y="339.97" width="122.79" height="21.28"/><path class="cls-8" d="M255.09,354.28l-.74-2.05h-2.83l-.72,2.05h-1.27l2.77-7.43h1.32l2.77,7.43Zm-1.06-3.1-.69-2q-.08-.2-.21-.64t-.18-.64a11.32,11.32,0,0,1-.4,1.36l-.67,1.93Z"/><path class="cls-8" d="M262.14,349.12a2.16,2.16,0,0,1-.76,1.78,3.34,3.34,0,0,1-2.16.62h-.77v2.77h-1.21v-7.4h2.13a3.23,3.23,0,0,1,2.08.57A2,2,0,0,1,262.14,349.12Zm-3.69,1.38h.64a2.3,2.3,0,0,0,1.37-.32,1.18,1.18,0,0,0,.44-1,1.15,1.15,0,0,0-.39-1,1.92,1.92,0,0,0-1.21-.31h-.84Z"/><path class="cls-8" d="M268.41,349.12a2.16,2.16,0,0,1-.76,1.78,3.34,3.34,0,0,1-2.16.62h-.77v2.77h-1.21v-7.4h2.13a3.23,3.23,0,0,1,2.08.57A2,2,0,0,1,268.41,349.12Zm-3.69,1.38h.64a2.3,2.3,0,0,0,1.37-.32,1.18,1.18,0,0,0,.44-1,1.15,1.15,0,0,0-.39-1,1.92,1.92,0,0,0-1.21-.31h-.84Z"/><path class="cls-8" d="M278.54,354.28h-1.48l-3.64-5.89h0l0,.33q.07.94.07,1.72v3.84h-1.1v-7.4h1.47l3.63,5.86h0q0-.12,0-.85t0-1.14v-3.87h1.11Z"/><path class="cls-8" d="M285,354.28l-.74-2.05h-2.83l-.72,2.05h-1.27l2.77-7.43h1.32l2.77,7.43Zm-1.06-3.1-.69-2q-.08-.2-.21-.64t-.18-.64a11.32,11.32,0,0,1-.4,1.36l-.67,1.93Z"/><path class="cls-8" d="M291.35,346.88h1.25l-2.59,7.4h-1.27l-2.58-7.4h1.24l1.54,4.6q.12.33.26.85t.18.77q.07-.38.2-.89t.22-.75Z"/><path class="cls-8" d="M297.27,351.32v3h-1.21v-7.4h2.09a3.43,3.43,0,0,1,2.12.54A1.93,1.93,0,0,1,301,349a2,2,0,0,1-1.44,2l2.09,3.27h-1.38l-1.77-3Zm0-1h.84a1.92,1.92,0,0,0,1.22-.31,1.14,1.14,0,0,0,.38-.93,1,1,0,0,0-.41-.9,2.24,2.24,0,0,0-1.23-.27h-.8Z"/><path class="cls-8" d="M306.76,354.28h-4.18v-7.4h4.18v1h-3v2h2.79v1h-2.79v2.32h3Z"/><path class="cls-8" d="M314.82,350.57a4.6,4.6,0,0,1-.51,2.27,2.81,2.81,0,0,1-1.49,1.3l1.77,1.91H313l-1.4-1.66h-.2a3.29,3.29,0,0,1-2.57-1,4.07,4.07,0,0,1-.9-2.83,4,4,0,0,1,.9-2.81,3.33,3.33,0,0,1,2.58-1,3.26,3.26,0,0,1,2.55,1A4,4,0,0,1,314.82,350.57Zm-5.65,0a3.32,3.32,0,0,0,.55,2.07,2.24,2.24,0,0,0,3.26,0,4.2,4.2,0,0,0,0-4.14,1.92,1.92,0,0,0-1.62-.7,2,2,0,0,0-1.64.7A3.28,3.28,0,0,0,309.18,350.57Z"/><path class="cls-8" d="M320.57,352.27a1.86,1.86,0,0,1-.71,1.55,3.1,3.1,0,0,1-2,.56,4.7,4.7,0,0,1-2.05-.39v-1.14a5.55,5.55,0,0,0,1.07.37,4.57,4.57,0,0,0,1.06.14,1.69,1.69,0,0,0,1.06-.27.89.89,0,0,0,.34-.73.92.92,0,0,0-.31-.7,4.72,4.72,0,0,0-1.3-.68,3.43,3.43,0,0,1-1.43-.94,2,2,0,0,1-.41-1.26,1.77,1.77,0,0,1,.66-1.46,2.73,2.73,0,0,1,1.77-.53,5.18,5.18,0,0,1,2.11.47l-.38,1a4.62,4.62,0,0,0-1.76-.42,1.35,1.35,0,0,0-.89.26.84.84,0,0,0-.3.68,1,1,0,0,0,.12.49,1.24,1.24,0,0,0,.4.39,6.77,6.77,0,0,0,1,.48,5.49,5.49,0,0,1,1.19.63,1.86,1.86,0,0,1,.56.66A2,2,0,0,1,320.57,352.27Z"/><g class="cls-19"><path class="cls-24" d="M166,283.62v11a5,5,0,0,0,4.4,4.82H447.31a4.63,4.63,0,0,0,4.4-4.86v-11Z"/></g><path class="cls-24" d="M451,284.37v10.23c-.11,3.9-3.31,4.12-3.65,4.13H170.43a4.2,4.2,0,0,1-3.7-4.07v-10.3H451m.75-.75H166v11a5,5,0,0,0,4.4,4.82H447.31a4.63,4.63,0,0,0,4.4-4.86v-11Z"/><g class="cls-19"><path class="cls-20" d="M26.81,451.37v11a4.94,4.94,0,0,0,4.4,4.78H246a4.62,4.62,0,0,0,4.4-4.83V451.37Z"/></g><path class="cls-20" d="M249.64,452.12v10.15c-.11,3.86-3.31,4.08-3.65,4.1H31.26a4.17,4.17,0,0,1-3.7-4V452.12H249.64m.75-.75H26.81v11a4.94,4.94,0,0,0,4.4,4.78H246a4.62,4.62,0,0,0,4.4-4.83V451.37Z"/><rect class="cls-16" x="165.98" y="263.12" width="285.73" height="21.28"/><rect class="cls-24" x="438.88" y="287.62" width="7.79" height="7.79" transform="translate(335.82 -227.71) rotate(45)"/><polygon class="cls-24" points="330.68 291.56 326.01 297.33 321.21 297.33 325.87 291.56 321.21 285.78 326.01 285.78 330.68 291.56"/><polygon class="cls-24" points="244.57 291.52 239.9 297.3 235.1 297.3 239.77 291.52 235.1 285.74 239.9 285.74 244.57 291.52"/><rect class="cls-17" x="26.85" y="430.82" width="223.54" height="21.28"/><path class="cls-8" d="M87.29,444.6H82.93V437h4.36v.78H83.84v2.44h3.25V441H83.84v2.78h3.45Z"/><path class="cls-8" d="M95.14,444.6h-1l-4.28-6.35h0q.09,1.12.09,2v4.3H89V437h1l4.27,6.32h0q0-.14,0-.9t0-1.08V437h.85Z"/><path class="cls-8" d="M101.77,437h1l-2.82,7.57H99L96.22,437h1l1.8,4.9a13.43,13.43,0,0,1,.49,1.64,13.3,13.3,0,0,1,.5-1.67Z"/><path class="cls-8" d="M103.83,444.6V437h.91v7.57Z"/><path class="cls-8" d="M107.79,441.45v3.15h-.91V437H109a3.48,3.48,0,0,1,2.13.53,1.91,1.91,0,0,1,.69,1.61,2,2,0,0,1-1.57,2l2.13,3.4h-1.08l-1.9-3.15Zm0-.76H109a2.21,2.21,0,0,0,1.41-.37,1.35,1.35,0,0,0,.45-1.11,1.24,1.24,0,0,0-.46-1.08,2.55,2.55,0,0,0-1.47-.33h-1.18Z"/><path class="cls-8" d="M120.46,440.8a4.08,4.08,0,0,1-1,2.86,3.4,3.4,0,0,1-2.64,1,3.44,3.44,0,0,1-2.67-1,4.11,4.11,0,0,1-.94-2.89,4.06,4.06,0,0,1,.94-2.86,3.47,3.47,0,0,1,2.68-1,3.39,3.39,0,0,1,2.64,1A4.07,4.07,0,0,1,120.46,440.8Zm-6.24,0a3.51,3.51,0,0,0,.68,2.33,2.83,2.83,0,0,0,3.93,0,4.41,4.41,0,0,0,0-4.65,2.41,2.41,0,0,0-2-.79,2.46,2.46,0,0,0-2,.79A3.47,3.47,0,0,0,114.22,440.8Z"/><path class="cls-8" d="M128.32,444.6h-1L123,438.25h0q.09,1.12.09,2v4.3h-.84V437h1l4.27,6.32h0q0-.14,0-.9t0-1.08V437h.85Z"/><path class="cls-8" d="M133.94,444.6l-2.66-6.71h0q.08.8.07,1.89v4.81h-.84V437h1.37l2.48,6.24h0l2.5-6.24h1.36v7.57h-.91v-4.87q0-.84.07-1.82h0l-2.68,6.7Z"/><path class="cls-8" d="M144.74,444.6h-4.36V437h4.36v.78h-3.45v2.44h3.25V441h-3.25v2.78h3.45Z"/><path class="cls-8" d="M152.59,444.6h-1l-4.28-6.35h0q.09,1.12.09,2v4.3h-.84V437h1l4.27,6.32h0q0-.14,0-.9t0-1.08V437h.85Z"/><path class="cls-8" d="M157.15,444.6h-.91v-6.78h-2.48V437h5.87v.78h-2.48Z"/><path class="cls-8" d="M168.08,442.58a1.83,1.83,0,0,1-.75,1.56,3.33,3.33,0,0,1-2,.56,5.23,5.23,0,0,1-2.14-.35v-.85a6,6,0,0,0,2.17.43,2.32,2.32,0,0,0,1.37-.33,1.08,1.08,0,0,0,.46-.93A1.17,1.17,0,0,0,167,442a1.52,1.52,0,0,0-.55-.46,7.91,7.91,0,0,0-1.16-.48,3.74,3.74,0,0,1-1.56-.89,1.94,1.94,0,0,1-.47-1.35,1.66,1.66,0,0,1,.68-1.39,2.9,2.9,0,0,1,1.8-.52,5.48,5.48,0,0,1,2.15.41l-.28.77a5,5,0,0,0-1.89-.39,1.87,1.87,0,0,0-1.13.3,1,1,0,0,0-.41.83,1.24,1.24,0,0,0,.15.64,1.39,1.39,0,0,0,.51.46,6.46,6.46,0,0,0,1.09.46,4.35,4.35,0,0,1,1.7.91A1.76,1.76,0,0,1,168.08,442.58Z"/><path class="cls-8" d="M174,444.6h-4.36V437H174v.78h-3.45v2.44h3.25V441h-3.25v2.78H174Z"/><path class="cls-8" d="M178.19,444.6h-.91v-6.78H174.8V437h5.87v.78h-2.48Z"/><path class="cls-8" d="M187.76,437v4.9a2.62,2.62,0,0,1-.81,2,3.16,3.16,0,0,1-2.22.74,3,3,0,0,1-2.19-.75,2.71,2.71,0,0,1-.77-2V437h.91V442a1.9,1.9,0,0,0,.54,1.45,2.2,2.2,0,0,0,1.57.51,2.13,2.13,0,0,0,1.53-.51,1.92,1.92,0,0,0,.54-1.46V437Z"/><path class="cls-8" d="M194.8,439.23A2.09,2.09,0,0,1,194,441a3.77,3.77,0,0,1-2.32.62h-.92v3h-.91V437h2Q194.8,437,194.8,439.23Zm-4.05,1.63h.82a3.13,3.13,0,0,0,1.75-.38,1.37,1.37,0,0,0,.54-1.21,1.29,1.29,0,0,0-.51-1.12,2.73,2.73,0,0,0-1.59-.37h-1Z"/><polygon class="cls-20" points="124.9 465.15 120.53 465.15 127.26 453.84 131.63 453.84 124.9 465.15"/><polygon class="cls-8" points="46.39 439.32 42.13 443.59 40.46 445.26 38.79 443.59 34.52 439.32 36.2 437.66 40.46 441.92 44.72 437.66 46.39 439.32"/><polygon class="cls-8" points="322.21 439.32 317.95 443.59 316.28 445.26 314.61 443.59 310.34 439.32 312.02 437.66 316.28 441.92 320.54 437.66 322.21 439.32"/><polygon class="cls-8" points="185.01 271.92 180.74 276.18 179.08 277.86 177.4 276.18 173.14 271.92 174.81 270.25 179.08 274.52 183.33 270.25 185.01 271.92"/><path class="cls-8" d="M263.85,275.13a1.84,1.84,0,0,1-.72,1.54,3.12,3.12,0,0,1-1.95.55,4.87,4.87,0,0,1-2.05-.34V276a5.41,5.41,0,0,0,1,.31,5.28,5.28,0,0,0,1.08.11,2.17,2.17,0,0,0,1.31-.33,1.09,1.09,0,0,0,.44-.92,1.18,1.18,0,0,0-.16-.64,1.45,1.45,0,0,0-.52-.46,7.36,7.36,0,0,0-1.12-.48,3.55,3.55,0,0,1-1.49-.89,2,2,0,0,1-.45-1.34,1.66,1.66,0,0,1,.65-1.38,2.7,2.7,0,0,1,1.72-.51,5.07,5.07,0,0,1,2.06.41l-.27.76a4.65,4.65,0,0,0-1.8-.39,1.75,1.75,0,0,0-1.08.3,1,1,0,0,0-.39.83,1.27,1.27,0,0,0,.14.64,1.37,1.37,0,0,0,.48.46,6,6,0,0,0,1,.46,4.12,4.12,0,0,1,1.62.9A1.77,1.77,0,0,1,263.85,275.13Z"/><path class="cls-8" d="M261.18,277.29a5,5,0,0,1-2.08-.35l0,0v-1l.08,0a5.32,5.32,0,0,0,1,.3,5.25,5.25,0,0,0,1.06.11,2.12,2.12,0,0,0,1.28-.32,1,1,0,0,0,.42-.87,1.12,1.12,0,0,0-.15-.61,1.4,1.4,0,0,0-.5-.44,7.33,7.33,0,0,0-1.11-.47,3.62,3.62,0,0,1-1.52-.9,2,2,0,0,1-.46-1.38,1.73,1.73,0,0,1,.67-1.43,2.77,2.77,0,0,1,1.76-.53,5.16,5.16,0,0,1,2.08.42l.05,0-.31.87-.06,0a4.6,4.6,0,0,0-1.78-.39,1.7,1.7,0,0,0-1,.29.92.92,0,0,0-.37.78,1.21,1.21,0,0,0,.14.61,1.32,1.32,0,0,0,.46.44,6.05,6.05,0,0,0,1,.45,4.2,4.2,0,0,1,1.65.92,1.84,1.84,0,0,1,.46,1.29,1.91,1.91,0,0,1-.74,1.59A3.2,3.2,0,0,1,261.18,277.29Zm-2-.44a4.93,4.93,0,0,0,2,.32,3.07,3.07,0,0,0,1.91-.54,1.79,1.79,0,0,0,.69-1.5,1.72,1.72,0,0,0-.43-1.21,4.08,4.08,0,0,0-1.6-.89,6,6,0,0,1-1.05-.46,1.42,1.42,0,0,1-.5-.48,1.33,1.33,0,0,1-.15-.67,1,1,0,0,1,.41-.87,1.81,1.81,0,0,1,1.12-.31,4.69,4.69,0,0,1,1.77.37l.23-.65a5,5,0,0,0-2-.38,2.66,2.66,0,0,0-1.69.5,1.61,1.61,0,0,0-.63,1.33,1.9,1.9,0,0,0,.43,1.3,3.51,3.51,0,0,0,1.47.87,7.41,7.41,0,0,1,1.13.48,1.51,1.51,0,0,1,.54.48,1.25,1.25,0,0,1,.17.67,1.15,1.15,0,0,1-.46,1,2.24,2.24,0,0,1-1.35.34,5.35,5.35,0,0,1-1.09-.11,5.62,5.62,0,0,1-.93-.28Z"/><path class="cls-8" d="M269.56,277.13h-4.18v-7.5h4.18v.77h-3.31v2.42h3.11v.77h-3.11v2.76h3.31Z"/><path class="cls-8" d="M269.62,277.19h-4.3v-7.62h4.3v.89h-3.31v2.3h3.11v.89h-3.11v2.64h3.31Zm-4.18-.12h4.06v-.66H266.2v-2.88h3.11v-.65H266.2v-2.53h3.31v-.66h-4.06Z"/><path class="cls-8" d="M273.53,277.13h-.87v-6.72h-2.37v-.77h5.62v.77h-2.37Z"/><path class="cls-8" d="M273.59,277.19h-1v-6.72h-2.37v-.89H276v.89h-2.37Zm-.87-.12h.75v-6.72h2.37v-.66h-5.5v.66h2.37Z"/><path class="cls-8" d="M285.42,269.63v4.85a2.64,2.64,0,0,1-.77,2,3,3,0,0,1-2.13.73,2.84,2.84,0,0,1-2.09-.74,2.74,2.74,0,0,1-.74-2v-4.83h.87v4.89a1.93,1.93,0,0,0,.51,1.44,2.07,2.07,0,0,0,1.51.5A2,2,0,0,0,284,276a1.94,1.94,0,0,0,.51-1.45v-4.88Z"/><path class="cls-8" d="M282.52,277.29a2.91,2.91,0,0,1-2.14-.75,2.81,2.81,0,0,1-.76-2.07v-4.89h1v5a1.88,1.88,0,0,0,.5,1.4,2,2,0,0,0,1.47.49,2,2,0,0,0,1.42-.49,1.9,1.9,0,0,0,.5-1.41v-4.94h1v4.91a2.71,2.71,0,0,1-.79,2.06A3,3,0,0,1,282.52,277.29Zm-2.78-7.6v4.77a2.69,2.69,0,0,0,.72,2,2.8,2.8,0,0,0,2.05.72,2.92,2.92,0,0,0,2.09-.72,2.59,2.59,0,0,0,.76-2v-4.79h-.75v4.82a2,2,0,0,1-.53,1.49,2.06,2.06,0,0,1-1.5.52A2.14,2.14,0,0,1,281,276a2,2,0,0,1-.53-1.48v-4.83Z"/><path class="cls-8" d="M292.16,271.82a2.1,2.1,0,0,1-.78,1.75,3.52,3.52,0,0,1-2.22.61h-.88v2.95h-.87v-7.5h1.94Q292.16,269.63,292.16,271.82Zm-3.88,1.62h.78a2.92,2.92,0,0,0,1.68-.37,1.38,1.38,0,0,0,.52-1.2,1.29,1.29,0,0,0-.49-1.11,2.55,2.55,0,0,0-1.52-.36h-1Z"/><path class="cls-8" d="M288.34,277.19h-1v-7.62h2c1.9,0,2.87.75,2.87,2.24a2.16,2.16,0,0,1-.8,1.8,3.6,3.6,0,0,1-2.26.63h-.82Zm-.87-.12h.75v-2.95h.94a3.48,3.48,0,0,0,2.19-.6,2.05,2.05,0,0,0,.75-1.7c0-1.43-.9-2.12-2.75-2.12h-1.88Zm1.6-3.58h-.84v-3.17h1a2.61,2.61,0,0,1,1.55.38,1.36,1.36,0,0,1,.51,1.16,1.44,1.44,0,0,1-.54,1.25A3,3,0,0,1,289.06,273.49Zm-.72-.12h.72a2.88,2.88,0,0,0,1.64-.36,1.33,1.33,0,0,0,.49-1.15,1.23,1.23,0,0,0-.46-1.06,2.5,2.5,0,0,0-1.48-.35h-.91Z"/><path class="cls-8" d="M302.44,273.31a3.78,3.78,0,0,1-1,2.84,4,4,0,0,1-2.9,1h-2.08v-7.5h2.3a3.37,3.37,0,0,1,3.69,3.68Zm-.92,0a3,3,0,0,0-.74-2.21,3,3,0,0,0-2.19-.74h-1.27v6h1.06a3.23,3.23,0,0,0,2.34-.77A3,3,0,0,0,301.51,273.34Z"/><path class="cls-8" d="M298.53,277.19h-2.14v-7.62h2.36a3.42,3.42,0,0,1,3.75,3.74,3.86,3.86,0,0,1-1,2.88A4.06,4.06,0,0,1,298.53,277.19Zm-2-.12h2a4,4,0,0,0,2.86-1,3.74,3.74,0,0,0,1-2.79,3.31,3.31,0,0,0-3.63-3.62h-2.24Zm1.87-.63h-1.12v-6.11h1.33a3,3,0,0,1,2.23.76,3.74,3.74,0,0,1,0,4.56A3.3,3.3,0,0,1,298.39,276.43Zm-1-.12h1a3.19,3.19,0,0,0,2.3-.75,3.62,3.62,0,0,0,0-4.39,2.91,2.91,0,0,0-2.14-.73h-1.21Z"/><path class="cls-8" d="M308.82,277.13l-.93-2.38h-3l-.92,2.38h-.88l3-7.53h.73l2.95,7.53ZM307.61,274l-.87-2.32q-.17-.44-.35-1.08a9.78,9.78,0,0,1-.32,1.08l-.88,2.32Z"/><path class="cls-8" d="M309.81,277.19h-1v0l-.92-2.35h-2.92l-.92,2.38h-1l3-7.65h.82v0Zm-.95-.12h.77l-2.9-7.41h-.65l-2.92,7.41h.75l.92-2.38h3.09v0Zm-1.16-3h-2.6l0-.08.88-2.32a9.77,9.77,0,0,0,.32-1.07l.05-.23.06.23c.12.42.24.79.35,1.08Zm-2.42-.12h2.25l-.84-2.24c-.09-.24-.19-.53-.29-.87-.07.27-.16.56-.27.87Z"/><path class="cls-8" d="M315,275.13a1.84,1.84,0,0,1-.72,1.54,3.12,3.12,0,0,1-1.95.55,4.87,4.87,0,0,1-2.05-.34V276a5.41,5.41,0,0,0,1,.31,5.28,5.28,0,0,0,1.08.11,2.17,2.17,0,0,0,1.31-.33,1.09,1.09,0,0,0,.44-.92,1.18,1.18,0,0,0-.16-.64,1.45,1.45,0,0,0-.52-.46,7.36,7.36,0,0,0-1.12-.48,3.55,3.55,0,0,1-1.49-.89,2,2,0,0,1-.45-1.34A1.66,1.66,0,0,1,311,270a2.7,2.7,0,0,1,1.72-.51,5.07,5.07,0,0,1,2.06.41l-.27.76a4.65,4.65,0,0,0-1.8-.39,1.75,1.75,0,0,0-1.08.3,1,1,0,0,0-.39.83,1.27,1.27,0,0,0,.14.64,1.37,1.37,0,0,0,.48.46,6,6,0,0,0,1,.46,4.12,4.12,0,0,1,1.62.9A1.77,1.77,0,0,1,315,275.13Z"/><path class="cls-8" d="M312.32,277.29a5,5,0,0,1-2.08-.35l0,0v-1l.08,0a5.32,5.32,0,0,0,1,.3,5.25,5.25,0,0,0,1.06.11,2.12,2.12,0,0,0,1.28-.32,1,1,0,0,0,.42-.87,1.12,1.12,0,0,0-.15-.61,1.4,1.4,0,0,0-.5-.44,7.33,7.33,0,0,0-1.11-.47,3.62,3.62,0,0,1-1.52-.9,2,2,0,0,1-.46-1.38A1.73,1.73,0,0,1,311,270a2.77,2.77,0,0,1,1.76-.53,5.16,5.16,0,0,1,2.08.42l.05,0-.31.87-.06,0a4.6,4.6,0,0,0-1.78-.39,1.7,1.7,0,0,0-1,.29.92.92,0,0,0-.37.78,1.21,1.21,0,0,0,.14.61,1.32,1.32,0,0,0,.46.44,6.05,6.05,0,0,0,1,.45,4.2,4.2,0,0,1,1.65.92,1.84,1.84,0,0,1,.46,1.29,1.91,1.91,0,0,1-.74,1.59A3.2,3.2,0,0,1,312.32,277.29Zm-2-.44a4.93,4.93,0,0,0,2,.32,3.07,3.07,0,0,0,1.91-.54,1.79,1.79,0,0,0,.69-1.5,1.72,1.72,0,0,0-.43-1.21,4.08,4.08,0,0,0-1.6-.89,6,6,0,0,1-1.05-.46,1.42,1.42,0,0,1-.5-.48,1.33,1.33,0,0,1-.15-.67,1,1,0,0,1,.41-.87,1.81,1.81,0,0,1,1.12-.31,4.69,4.69,0,0,1,1.77.37l.23-.65a5,5,0,0,0-2-.38,2.66,2.66,0,0,0-1.69.5,1.61,1.61,0,0,0-.63,1.33,1.9,1.9,0,0,0,.43,1.3,3.51,3.51,0,0,0,1.47.87,7.41,7.41,0,0,1,1.13.48,1.51,1.51,0,0,1,.54.48,1.25,1.25,0,0,1,.17.67,1.15,1.15,0,0,1-.46,1,2.24,2.24,0,0,1-1.35.34,5.35,5.35,0,0,1-1.09-.11,5.62,5.62,0,0,1-.93-.28Z"/><path class="cls-8" d="M322.21,277.13h-.87V273.6h-3.95v3.53h-.87v-7.5h.87v3.19h3.95v-3.19h.87Z"/><path class="cls-8" d="M322.27,277.19h-1v-3.53h-3.83v3.53h-1v-7.62h1v3.19h3.83v-3.19h1Zm-.87-.12h.75v-7.38h-.75v3.19h-4.07v-3.19h-.75v7.38h.75v-3.53h4.07Z"/><path class="cls-8" d="M324.26,269.63h2.12a4,4,0,0,1,2.16.45,1.58,1.58,0,0,1,.67,1.41,1.63,1.63,0,0,1-.37,1.1,1.79,1.79,0,0,1-1.08.56v.05q1.71.29,1.71,1.79a1.92,1.92,0,0,1-.68,1.57,2.89,2.89,0,0,1-1.9.56h-2.62Zm.87,3.21h1.44a2.34,2.34,0,0,0,1.33-.29,1.12,1.12,0,0,0,.4-1,1,1,0,0,0-.45-.91,2.83,2.83,0,0,0-1.44-.28h-1.28Zm0,.74v2.8h1.56a2.23,2.23,0,0,0,1.37-.35,1.3,1.3,0,0,0,.46-1.1,1.16,1.16,0,0,0-.47-1,2.51,2.51,0,0,0-1.43-.33Z"/><path class="cls-8" d="M326.88,277.19H324.2v-7.62h2.18a4.07,4.07,0,0,1,2.19.46,1.64,1.64,0,0,1,.69,1.46,1.7,1.7,0,0,1-.38,1.14,1.78,1.78,0,0,1-1,.55,1.75,1.75,0,0,1,1.59,1.82,2,2,0,0,1-.7,1.61A3,3,0,0,1,326.88,277.19Zm-2.56-.12h2.56a2.85,2.85,0,0,0,1.86-.55,1.88,1.88,0,0,0,.66-1.52c0-1-.54-1.54-1.66-1.74h0v-.15h0a1.73,1.73,0,0,0,1-.54,1.58,1.58,0,0,0,.36-1.06,1.51,1.51,0,0,0-.64-1.36,4,4,0,0,0-2.12-.44h-2.06Zm2.38-.62h-1.62v-2.92h1.55a2.57,2.57,0,0,1,1.46.34,1.23,1.23,0,0,1,.49,1.07,1.36,1.36,0,0,1-.48,1.15A2.29,2.29,0,0,1,326.7,276.44Zm-1.5-.12h1.5A2.18,2.18,0,0,0,328,276a1.25,1.25,0,0,0,.44-1.05,1.1,1.1,0,0,0-.44-1,2.47,2.47,0,0,0-1.39-.32h-1.43Zm1.38-3.42h-1.5v-2.58h1.34a2.89,2.89,0,0,1,1.47.29,1,1,0,0,1,.48,1,1.18,1.18,0,0,1-.43,1A2.4,2.4,0,0,1,326.57,272.9Zm-1.38-.12h1.38a2.3,2.3,0,0,0,1.29-.28,1.07,1.07,0,0,0,.38-.93.93.93,0,0,0-.42-.86,2.79,2.79,0,0,0-1.4-.27h-1.22Z"/><path class="cls-8" d="M337.57,273.37a4.13,4.13,0,0,1-.91,2.83,3.2,3.2,0,0,1-2.53,1,3.24,3.24,0,0,1-2.56-1,4.16,4.16,0,0,1-.9-2.86,4.11,4.11,0,0,1,.9-2.84,3.26,3.26,0,0,1,2.56-1,3.19,3.19,0,0,1,2.52,1A4.12,4.12,0,0,1,337.57,273.37Zm-6,0a3.56,3.56,0,0,0,.65,2.31,2.65,2.65,0,0,0,3.77,0,4.5,4.5,0,0,0,0-4.61,2.27,2.27,0,0,0-1.87-.78,2.31,2.31,0,0,0-1.89.79A3.52,3.52,0,0,0,331.6,273.37Z"/><path class="cls-8" d="M334.13,277.29a3.31,3.31,0,0,1-2.6-1,4.23,4.23,0,0,1-.92-2.9,4.19,4.19,0,0,1,.92-2.88,3.34,3.34,0,0,1,2.61-1,3.26,3.26,0,0,1,2.57,1,4.92,4.92,0,0,1,0,5.74A3.27,3.27,0,0,1,334.13,277.29Zm0-7.72a3.22,3.22,0,0,0-2.52,1,4.07,4.07,0,0,0-.89,2.8,4.12,4.12,0,0,0,.89,2.82,3.19,3.19,0,0,0,2.51,1,3.16,3.16,0,0,0,2.49-1,4.8,4.8,0,0,0,0-5.58A3.15,3.15,0,0,0,334.14,269.57Zm0,7a2.37,2.37,0,0,1-1.93-.81,3.63,3.63,0,0,1-.66-2.35,3.6,3.6,0,0,1,.66-2.33,2.38,2.38,0,0,1,1.94-.81,2.34,2.34,0,0,1,1.92.8,4.56,4.56,0,0,1,0,4.68A2.35,2.35,0,0,1,334.13,276.53Zm0-6.17a2.27,2.27,0,0,0-1.85.77,3.49,3.49,0,0,0-.63,2.25,3.52,3.52,0,0,0,.63,2.27,2.59,2.59,0,0,0,3.67,0,4.44,4.44,0,0,0,0-4.53A2.22,2.22,0,0,0,334.14,270.35Z"/><path class="cls-8" d="M344,277.13l-.93-2.38h-3l-.92,2.38h-.88l3-7.53h.73l2.95,7.53ZM342.75,274l-.87-2.32q-.17-.44-.35-1.08a9.78,9.78,0,0,1-.32,1.08l-.88,2.32Z"/><path class="cls-8" d="M344.94,277.19h-1v0L343,274.8h-2.92l-.92,2.38h-1l3-7.65h.82v0Zm-.95-.12h.77l-2.9-7.41h-.65l-2.92,7.41h.75l.92-2.38h3.09v0Zm-1.16-3h-2.6l0-.08.88-2.32a9.77,9.77,0,0,0,.32-1.07l.05-.23.06.23c.12.42.24.79.35,1.08Zm-2.42-.12h2.25l-.84-2.24c-.09-.24-.19-.53-.29-.87-.07.27-.16.56-.27.87Z"/><path class="cls-8" d="M346.76,274v3.12h-.87v-7.5h2.06a3.24,3.24,0,0,1,2,.53,1.92,1.92,0,0,1,.66,1.59,2,2,0,0,1-1.51,2l2,3.37h-1L348.32,274Zm0-.75H348a2.06,2.06,0,0,0,1.35-.37,1.36,1.36,0,0,0,.43-1.1,1.25,1.25,0,0,0-.44-1.07,2.37,2.37,0,0,0-1.41-.33h-1.13Z"/><path class="cls-8" d="M351.28,277.19H350.1l0,0-1.8-3.09h-1.47v3.12h-1v-7.62h2.12a3.3,3.3,0,0,1,2.08.54,2,2,0,0,1,.68,1.64,2,2,0,0,1-1.48,2Zm-1.1-.12h.89l-2-3.34.07,0a1.92,1.92,0,0,0,1.47-2,1.87,1.87,0,0,0-.64-1.54,3.2,3.2,0,0,0-2-.52h-2v7.38h.75V274h1.66l0,0ZM348,273.32H346.7v-3h1.19a2.44,2.44,0,0,1,1.44.34,1.31,1.31,0,0,1,.46,1.12,1.43,1.43,0,0,1-.45,1.15A2.13,2.13,0,0,1,348,273.32Zm-1.13-.12H348a2,2,0,0,0,1.31-.35,1.31,1.31,0,0,0,.41-1.05,1.2,1.2,0,0,0-.42-1,2.33,2.33,0,0,0-1.37-.32h-1.07Z"/><path class="cls-8" d="M358.36,273.31a3.78,3.78,0,0,1-1,2.84,4,4,0,0,1-2.9,1h-2.08v-7.5h2.3a3.37,3.37,0,0,1,3.69,3.68Zm-.92,0a3,3,0,0,0-.74-2.21,3,3,0,0,0-2.19-.74h-1.27v6h1.06a3.23,3.23,0,0,0,2.34-.77A3,3,0,0,0,357.44,273.34Z"/><path class="cls-8" d="M354.46,277.19h-2.14v-7.62h2.36a3.42,3.42,0,0,1,3.75,3.74,3.86,3.86,0,0,1-1,2.88A4.06,4.06,0,0,1,354.46,277.19Zm-2-.12h2a4,4,0,0,0,2.86-1,3.74,3.74,0,0,0,1-2.79,3.31,3.31,0,0,0-3.63-3.62h-2.24Zm1.87-.63h-1.12v-6.11h1.33a3,3,0,0,1,2.23.76,3.74,3.74,0,0,1,0,4.56A3.3,3.3,0,0,1,354.31,276.43Zm-1-.12h1a3.19,3.19,0,0,0,2.3-.75,3.62,3.62,0,0,0,0-4.39,2.91,2.91,0,0,0-2.14-.73h-1.21Z"/><path class="cls-20" d="M136,461.9H135V457h-1.68v-.8h4.29v.8H136Z"/><path class="cls-20" d="M140.31,462a2.09,2.09,0,0,1-1.58-.59,2.23,2.23,0,0,1-.57-1.62,2.45,2.45,0,0,1,.53-1.66,1.82,1.82,0,0,1,1.45-.61,1.78,1.78,0,0,1,1.35.52,2,2,0,0,1,.5,1.43v.5h-2.88a1.42,1.42,0,0,0,.34,1,1.18,1.18,0,0,0,.9.34,3.35,3.35,0,0,0,.71-.07,3.71,3.71,0,0,0,.71-.24v.75a2.81,2.81,0,0,1-.68.23A4.2,4.2,0,0,1,140.31,462Zm-.17-3.78a.92.92,0,0,0-.7.28,1.32,1.32,0,0,0-.31.81h2a1.19,1.19,0,0,0-.26-.81A.88.88,0,0,0,140.14,458.19Z"/><path class="cls-20" d="M145.94,460.67a1.13,1.13,0,0,1-.46,1,2.2,2.2,0,0,1-1.32.34,3.11,3.11,0,0,1-1.39-.26v-.79a3.4,3.4,0,0,0,1.42.35q.85,0,.85-.51a.41.41,0,0,0-.09-.27,1.1,1.1,0,0,0-.31-.23,5.31,5.31,0,0,0-.6-.27,2.77,2.77,0,0,1-1-.58,1.07,1.07,0,0,1-.26-.75,1,1,0,0,1,.45-.86,2.13,2.13,0,0,1,1.22-.31,3.44,3.44,0,0,1,1.44.31l-.3.69a3.21,3.21,0,0,0-1.18-.29q-.73,0-.73.41a.42.42,0,0,0,.19.34,4.15,4.15,0,0,0,.83.39,3.78,3.78,0,0,1,.78.38,1.14,1.14,0,0,1,.36.4A1.15,1.15,0,0,1,145.94,460.67Z"/><path class="cls-20" d="M148.54,461.23a2.23,2.23,0,0,0,.67-.11v.69a1.89,1.89,0,0,1-.39.11,2.68,2.68,0,0,1-.5,0q-1.31,0-1.3-1.37v-2.33h-.59v-.41l.63-.34.31-.91h.57v1h1.23v.7h-1.23v2.31a.65.65,0,0,0,.17.49A.6.6,0,0,0,148.54,461.23Z"/><path class="cls-20" d="M150,456.43a.51.51,0,0,1,.13-.38.52.52,0,0,1,.38-.13.47.47,0,0,1,.51.51.5.5,0,0,1-.13.37.51.51,0,0,1-.38.13.52.52,0,0,1-.38-.13A.5.5,0,0,1,150,456.43Zm1,5.46h-.92v-4.32H151Z"/><path class="cls-20" d="M156.11,461.9h-.92v-2.66a1.17,1.17,0,0,0-.2-.75.78.78,0,0,0-.64-.25,1,1,0,0,0-.85.34,1.9,1.9,0,0,0-.27,1.15v2.15h-.92v-4.32H153l.13.57h0a1.28,1.28,0,0,1,.55-.48,1.85,1.85,0,0,1,.8-.17,1.39,1.39,0,0,1,1.55,1.58Z"/><path class="cls-20" d="M161,457.58v.5l-.74.14a1.19,1.19,0,0,1,.17.34,1.33,1.33,0,0,1,.07.42,1.29,1.29,0,0,1-.46,1.05,1.93,1.93,0,0,1-1.27.38,2.09,2.09,0,0,1-.37,0,.52.52,0,0,0-.3.43.24.24,0,0,0,.14.22,1.2,1.2,0,0,0,.51.07h.75a1.68,1.68,0,0,1,1.09.3,1.07,1.07,0,0,1,.37.88,1.28,1.28,0,0,1-.61,1.13,3.19,3.19,0,0,1-1.75.4,2.42,2.42,0,0,1-1.35-.31,1,1,0,0,1-.46-.89,1,1,0,0,1,.25-.67,1.35,1.35,0,0,1,.71-.38.69.69,0,0,1-.3-.25.64.64,0,0,1-.12-.37.63.63,0,0,1,.14-.41,1.57,1.57,0,0,1,.41-.33,1.21,1.21,0,0,1-.54-.47,1.38,1.38,0,0,1-.21-.76,1.37,1.37,0,0,1,.44-1.09,1.86,1.86,0,0,1,1.26-.39l.38,0,.3.05Zm-3.39,5a.5.5,0,0,0,.27.46,1.47,1.47,0,0,0,.75.16,2.27,2.27,0,0,0,1.12-.21.64.64,0,0,0,.37-.57.43.43,0,0,0-.2-.4,1.62,1.62,0,0,0-.75-.12h-.7a1,1,0,0,0-.63.19A.61.61,0,0,0,157.64,462.57ZM158,459a.87.87,0,0,0,.21.63.79.79,0,0,0,.6.22q.8,0,.8-.85a1,1,0,0,0-.2-.65.75.75,0,0,0-.6-.23.77.77,0,0,0-.6.23A1,1,0,0,0,158,459Z"/><path class="cls-20" d="M428,457.91a1.66,1.66,0,0,1-.59,1.37,2.58,2.58,0,0,1-1.67.48h-.59v2.14h-.93v-5.71h1.64a2.48,2.48,0,0,1,1.6.44A1.57,1.57,0,0,1,428,457.91ZM425.15,459h.5a1.77,1.77,0,0,0,1.05-.25.91.91,0,0,0,.34-.78.88.88,0,0,0-.3-.73,1.48,1.48,0,0,0-.94-.24h-.65Z"/><path class="cls-20" d="M432.84,461.9h-.92v-2.66a1.16,1.16,0,0,0-.2-.75.77.77,0,0,0-.64-.25,1,1,0,0,0-.85.35,1.91,1.91,0,0,0-.27,1.16v2.14H429v-6.08H430v1.54a7.21,7.21,0,0,1,0,.79H430a1.27,1.27,0,0,1,.52-.48,1.68,1.68,0,0,1,.78-.17,1.39,1.39,0,0,1,1.57,1.58Z"/><path class="cls-20" d="M436.82,461.9l-.18-.6h0a1.76,1.76,0,0,1-.63.54,2,2,0,0,1-.81.14,1.37,1.37,0,0,1-1-.34,1.29,1.29,0,0,1-.36-1,1.14,1.14,0,0,1,.5-1,2.86,2.86,0,0,1,1.51-.37l.75,0V459a.87.87,0,0,0-.19-.62.79.79,0,0,0-.6-.21,2.07,2.07,0,0,0-.64.1,4.8,4.8,0,0,0-.59.23l-.3-.66a3.22,3.22,0,0,1,.77-.28,3.57,3.57,0,0,1,.79-.1,1.87,1.87,0,0,1,1.24.36,1.4,1.4,0,0,1,.42,1.13v2.91Zm-1.37-.62a1.13,1.13,0,0,0,.8-.28,1,1,0,0,0,.3-.78v-.37l-.55,0a1.9,1.9,0,0,0-.94.22.66.66,0,0,0-.29.59.58.58,0,0,0,.17.45A.74.74,0,0,0,435.45,461.27Z"/><path class="cls-20" d="M441.66,460.67a1.13,1.13,0,0,1-.46,1,2.2,2.2,0,0,1-1.32.34,3.12,3.12,0,0,1-1.39-.26v-.79a3.4,3.4,0,0,0,1.42.35c.57,0,.85-.17.85-.51a.41.41,0,0,0-.09-.27,1.08,1.08,0,0,0-.31-.23,5.15,5.15,0,0,0-.6-.27,2.78,2.78,0,0,1-1-.58,1.07,1.07,0,0,1-.26-.75,1,1,0,0,1,.45-.86,2.13,2.13,0,0,1,1.22-.31,3.44,3.44,0,0,1,1.44.31l-.3.69a3.2,3.2,0,0,0-1.18-.29q-.73,0-.73.41a.42.42,0,0,0,.19.34,4.21,4.21,0,0,0,.83.39,3.73,3.73,0,0,1,.78.38,1.13,1.13,0,0,1,.36.4A1.15,1.15,0,0,1,441.66,460.67Z"/><path class="cls-20" d="M444.54,462a2.09,2.09,0,0,1-1.58-.59,2.23,2.23,0,0,1-.57-1.62,2.45,2.45,0,0,1,.53-1.66,1.82,1.82,0,0,1,1.45-.61,1.78,1.78,0,0,1,1.35.52,2,2,0,0,1,.5,1.43v.5h-2.88a1.43,1.43,0,0,0,.34,1,1.19,1.19,0,0,0,.9.34,3.34,3.34,0,0,0,.71-.07,3.66,3.66,0,0,0,.71-.24v.75a2.78,2.78,0,0,1-.68.23A4.19,4.19,0,0,1,444.54,462Zm-.17-3.78a.92.92,0,0,0-.7.28,1.33,1.33,0,0,0-.31.81h2a1.18,1.18,0,0,0-.26-.81A.88.88,0,0,0,444.37,458.19Z"/><path class="cls-20" d="M452.91,461.9H449v-.7l1.47-1.48a12,12,0,0,0,.87-.95,2.22,2.22,0,0,0,.31-.53,1.39,1.39,0,0,0,.1-.53.8.8,0,0,0-.23-.61.89.89,0,0,0-.64-.22,1.71,1.71,0,0,0-.63.12,3,3,0,0,0-.71.44l-.5-.61a3.22,3.22,0,0,1,.93-.57,2.71,2.71,0,0,1,1-.17,1.88,1.88,0,0,1,1.28.42,1.41,1.41,0,0,1,.48,1.12,1.94,1.94,0,0,1-.14.73,3,3,0,0,1-.43.72,9.7,9.7,0,0,1-1,1l-1,1v0h2.71Z"/><polygon class="cls-20" points="339.3 464.87 334.87 464.87 341.68 453.43 346.11 453.43 339.3 464.87"/><path class="cls-20" d="M351.35,457.91a1.66,1.66,0,0,1-.59,1.37,2.58,2.58,0,0,1-1.67.48h-.59v2.14h-.93v-5.71h1.64a2.49,2.49,0,0,1,1.6.44A1.57,1.57,0,0,1,351.35,457.91ZM348.5,459h.5a1.77,1.77,0,0,0,1.05-.25.91.91,0,0,0,.34-.78.89.89,0,0,0-.3-.73,1.49,1.49,0,0,0-.94-.24h-.65Z"/><path class="cls-20" d="M356.2,461.9h-.92v-2.66a1.17,1.17,0,0,0-.2-.75.78.78,0,0,0-.64-.25,1,1,0,0,0-.85.35,1.91,1.91,0,0,0-.27,1.16v2.14h-.92v-6.08h.92v1.54a7.21,7.21,0,0,1,0,.79h.06a1.27,1.27,0,0,1,.52-.48,1.68,1.68,0,0,1,.78-.17,1.39,1.39,0,0,1,1.57,1.58Z"/><path class="cls-20" d="M360.18,461.9l-.18-.6h0a1.77,1.77,0,0,1-.63.54,2,2,0,0,1-.81.14,1.37,1.37,0,0,1-1-.34,1.29,1.29,0,0,1-.36-1,1.14,1.14,0,0,1,.5-1,2.86,2.86,0,0,1,1.51-.37l.75,0V459a.87.87,0,0,0-.19-.62.79.79,0,0,0-.6-.21,2.06,2.06,0,0,0-.64.1,4.8,4.8,0,0,0-.59.23l-.3-.66a3.2,3.2,0,0,1,.77-.28,3.56,3.56,0,0,1,.79-.1,1.87,1.87,0,0,1,1.24.36,1.41,1.41,0,0,1,.42,1.13v2.91Zm-1.37-.62a1.14,1.14,0,0,0,.8-.28,1,1,0,0,0,.3-.78v-.37l-.55,0a1.9,1.9,0,0,0-.94.22.66.66,0,0,0-.29.59.58.58,0,0,0,.17.45A.74.74,0,0,0,358.81,461.27Z"/><path class="cls-20" d="M365,460.67a1.13,1.13,0,0,1-.46,1,2.2,2.2,0,0,1-1.32.34,3.11,3.11,0,0,1-1.39-.26v-.79a3.4,3.4,0,0,0,1.42.35q.85,0,.85-.51a.41.41,0,0,0-.09-.27,1.1,1.1,0,0,0-.31-.23,5.31,5.31,0,0,0-.6-.27,2.77,2.77,0,0,1-1-.58,1.07,1.07,0,0,1-.26-.75,1,1,0,0,1,.45-.86,2.13,2.13,0,0,1,1.22-.31,3.44,3.44,0,0,1,1.44.31l-.3.69a3.21,3.21,0,0,0-1.18-.29q-.73,0-.73.41a.42.42,0,0,0,.19.34,4.15,4.15,0,0,0,.83.39,3.78,3.78,0,0,1,.78.38,1.14,1.14,0,0,1,.36.4A1.15,1.15,0,0,1,365,460.67Z"/><path class="cls-20" d="M367.89,462a2.09,2.09,0,0,1-1.58-.59,2.23,2.23,0,0,1-.57-1.62,2.45,2.45,0,0,1,.53-1.66,1.82,1.82,0,0,1,1.45-.61,1.78,1.78,0,0,1,1.35.52,2,2,0,0,1,.5,1.43v.5H366.7a1.42,1.42,0,0,0,.34,1,1.18,1.18,0,0,0,.9.34,3.35,3.35,0,0,0,.71-.07,3.71,3.71,0,0,0,.71-.24v.75a2.81,2.81,0,0,1-.68.23A4.2,4.2,0,0,1,367.89,462Zm-.17-3.78a.92.92,0,0,0-.7.28,1.32,1.32,0,0,0-.31.81h2a1.19,1.19,0,0,0-.26-.81A.88.88,0,0,0,367.73,458.19Z"/><path class="cls-20" d="M375.09,461.9h-.92v-3.69q0-.66,0-1l-.22.21-.88.72-.46-.58,1.68-1.32h.77Z"/><rect class="cls-20" x="499.07" y="454.88" width="7.69" height="7.69" transform="translate(471.67 -221.26) rotate(45)"/><path class="cls-24" d="M250.56,294.07l-1.66-4.77h0q.07,1.06.07,2v2.78h-.85v-5.71h1.32L251,292.9h0l1.63-4.54H254v5.71h-.9v-2.82c0-.28,0-.65,0-1.11s0-.73,0-.83h0l-1.71,4.76Z"/><path class="cls-24" d="M257.27,294.14a2.09,2.09,0,0,1-1.58-.59,2.23,2.23,0,0,1-.57-1.62,2.45,2.45,0,0,1,.53-1.66,1.82,1.82,0,0,1,1.45-.61,1.78,1.78,0,0,1,1.35.52,2,2,0,0,1,.5,1.43v.5h-2.88a1.42,1.42,0,0,0,.34,1,1.18,1.18,0,0,0,.9.34,3.35,3.35,0,0,0,.71-.07,3.71,3.71,0,0,0,.71-.24v.75a2.81,2.81,0,0,1-.68.23A4.2,4.2,0,0,1,257.27,294.14Zm-.17-3.78a.92.92,0,0,0-.7.28,1.32,1.32,0,0,0-.31.81h2a1.19,1.19,0,0,0-.26-.81A.88.88,0,0,0,257.1,290.36Z"/><path class="cls-24" d="M261.6,293.4a2.23,2.23,0,0,0,.67-.11V294a1.89,1.89,0,0,1-.39.11,2.68,2.68,0,0,1-.5,0q-1.31,0-1.3-1.37v-2.33h-.59V290l.63-.34.31-.91H261v1h1.23v.7H261v2.31a.65.65,0,0,0,.17.49A.6.6,0,0,0,261.6,293.4Z"/><path class="cls-24" d="M265.32,289.67a2.19,2.19,0,0,1,.46,0l-.09.86a1.73,1.73,0,0,0-.41,0,1.18,1.18,0,0,0-.89.36,1.3,1.3,0,0,0-.34.93v2.26h-.92v-4.32h.72l.12.76h0a1.72,1.72,0,0,1,.56-.61A1.33,1.33,0,0,1,265.32,289.67Z"/><path class="cls-24" d="M266.53,288.6a.51.51,0,0,1,.13-.38.52.52,0,0,1,.38-.13.47.47,0,0,1,.51.51.5.5,0,0,1-.13.37.51.51,0,0,1-.38.13.52.52,0,0,1-.38-.13A.5.5,0,0,1,266.53,288.6Zm1,5.46h-.92v-4.32h.92Z"/><path class="cls-24" d="M270.55,294.14a1.89,1.89,0,0,1-1.49-.57,2.9,2.9,0,0,1,0-3.32,2,2,0,0,1,1.54-.59,2.89,2.89,0,0,1,1.23.25l-.28.74a2.77,2.77,0,0,0-1-.23q-1.12,0-1.12,1.49a1.78,1.78,0,0,0,.28,1.09,1,1,0,0,0,.82.37,2.35,2.35,0,0,0,1.16-.3v.8a1.81,1.81,0,0,1-.53.21A3.13,3.13,0,0,1,270.55,294.14Z"/><path class="cls-24" d="M275.68,292.83a1.13,1.13,0,0,1-.46,1,2.2,2.2,0,0,1-1.32.34,3.11,3.11,0,0,1-1.39-.26v-.79a3.4,3.4,0,0,0,1.42.35q.85,0,.85-.51a.41.41,0,0,0-.09-.27,1.1,1.1,0,0,0-.31-.23,5.31,5.31,0,0,0-.6-.27,2.77,2.77,0,0,1-1-.58,1.07,1.07,0,0,1-.26-.75,1,1,0,0,1,.45-.86,2.13,2.13,0,0,1,1.22-.31,3.44,3.44,0,0,1,1.44.31l-.3.69a3.21,3.21,0,0,0-1.18-.29q-.73,0-.73.41a.42.42,0,0,0,.19.34,4.15,4.15,0,0,0,.83.39,3.78,3.78,0,0,1,.78.38,1.14,1.14,0,0,1,.36.4A1.15,1.15,0,0,1,275.68,292.83Z"/><path class="cls-24" d="M337.54,294.07l-.57-1.59h-2.18l-.56,1.59h-1l2.14-5.73h1l2.14,5.73Zm-.82-2.39-.54-1.55q-.06-.16-.16-.49c-.07-.22-.12-.39-.14-.49a8.68,8.68,0,0,1-.31,1.05l-.52,1.49Z"/><path class="cls-24" d="M343,294.07h-.92v-2.66a1.17,1.17,0,0,0-.2-.75.78.78,0,0,0-.64-.25,1,1,0,0,0-.85.34,1.9,1.9,0,0,0-.27,1.15v2.15h-.92v-4.32h.72l.13.57h0a1.28,1.28,0,0,1,.55-.48,1.85,1.85,0,0,1,.8-.17,1.39,1.39,0,0,1,1.55,1.58Z"/><path class="cls-24" d="M347,294.07l-.18-.6h0a1.77,1.77,0,0,1-.63.54,2,2,0,0,1-.81.14,1.37,1.37,0,0,1-1-.34,1.29,1.29,0,0,1-.36-1,1.14,1.14,0,0,1,.5-1,2.86,2.86,0,0,1,1.51-.37l.75,0v-.23a.87.87,0,0,0-.19-.62.79.79,0,0,0-.6-.21,2.06,2.06,0,0,0-.64.1,4.8,4.8,0,0,0-.59.23l-.3-.66a3.2,3.2,0,0,1,.77-.28,3.56,3.56,0,0,1,.79-.1,1.87,1.87,0,0,1,1.24.36,1.41,1.41,0,0,1,.42,1.13v2.91Zm-1.37-.62a1.14,1.14,0,0,0,.8-.28,1,1,0,0,0,.3-.78V292l-.55,0a1.9,1.9,0,0,0-.94.22.66.66,0,0,0-.29.59.58.58,0,0,0,.17.45A.74.74,0,0,0,345.6,293.44Z"/><path class="cls-24" d="M349.82,294.07h-.92V288h.92Z"/><path class="cls-24" d="M350.48,289.75h1l.88,2.45a4.62,4.62,0,0,1,.27,1h0a4.08,4.08,0,0,1,.13-.52q.09-.31,1-2.91h1l-1.85,4.89a1.75,1.75,0,0,1-1.68,1.35,2.66,2.66,0,0,1-.59-.07v-.73a2.15,2.15,0,0,0,.47,0,1,1,0,0,0,.93-.77l.16-.41Z"/><path class="cls-24" d="M358.33,292.83a1.13,1.13,0,0,1-.46,1,2.2,2.2,0,0,1-1.32.34,3.11,3.11,0,0,1-1.39-.26v-.79a3.4,3.4,0,0,0,1.42.35q.85,0,.85-.51a.41.41,0,0,0-.09-.27,1.1,1.1,0,0,0-.31-.23,5.31,5.31,0,0,0-.6-.27,2.77,2.77,0,0,1-1-.58,1.07,1.07,0,0,1-.26-.75,1,1,0,0,1,.45-.86,2.13,2.13,0,0,1,1.22-.31,3.44,3.44,0,0,1,1.44.31l-.3.69a3.21,3.21,0,0,0-1.18-.29q-.73,0-.73.41a.42.42,0,0,0,.19.34,4.15,4.15,0,0,0,.83.39,3.78,3.78,0,0,1,.78.38,1.14,1.14,0,0,1,.36.4A1.15,1.15,0,0,1,358.33,292.83Z"/><path class="cls-24" d="M359.27,288.6a.51.51,0,0,1,.13-.38.52.52,0,0,1,.38-.13.47.47,0,0,1,.51.51.5.5,0,0,1-.13.37.51.51,0,0,1-.38.13.52.52,0,0,1-.38-.13A.5.5,0,0,1,359.27,288.6Zm1,5.46h-.92v-4.32h.92Z"/><path class="cls-24" d="M364.45,292.83a1.13,1.13,0,0,1-.46,1,2.2,2.2,0,0,1-1.32.34,3.11,3.11,0,0,1-1.39-.26v-.79a3.4,3.4,0,0,0,1.42.35q.85,0,.85-.51a.41.41,0,0,0-.09-.27,1.1,1.1,0,0,0-.31-.23,5.31,5.31,0,0,0-.6-.27,2.77,2.77,0,0,1-1-.58,1.07,1.07,0,0,1-.26-.75,1,1,0,0,1,.45-.86,2.13,2.13,0,0,1,1.22-.31,3.44,3.44,0,0,1,1.44.31l-.3.69a3.21,3.21,0,0,0-1.18-.29q-.73,0-.73.41a.42.42,0,0,0,.19.34,4.15,4.15,0,0,0,.83.39,3.78,3.78,0,0,1,.78.38,1.14,1.14,0,0,1,.36.4A1.15,1.15,0,0,1,364.45,292.83Z"/><circle class="cls-20" cx="241.45" cy="458.73" r="5.02"/><path class="cls-4" d="M497.59,130H3.39v-6.31h494.2a2.15,2.15,0,0,1,2.14,2.14v2A2.15,2.15,0,0,1,497.59,130Z"/><path class="cls-25" d="M208.87,120.37a6.7,6.7,0,0,0-5.81,3.31H2V130H203.06a6.7,6.7,0,0,0,5.81,3.31,6.47,6.47,0,1,0,0-12.93Z"/><polygon class="cls-8" points="207.97 124.44 211.45 126.83 207.97 129.23 207.97 124.44"/></g></g></svg>