<svg xmlns="http://www.w3.org/2000/svg" viewBox="0 0 130.66 114.25"><defs><style>.cls-1{fill:#ebf8fe;}.cls-2{fill:#00498d;}.cls-3{fill:#0074e0;}.cls-4{fill:#cceefd;}.cls-5{fill:#2ebaf6;}</style></defs><title>security</title><g id="Layer_2" data-name="Layer 2"><g id="Top_layer" data-name="Top layer"><circle class="cls-1" cx="52" cy="52" r="52"/><path class="cls-2" d="M49.14,41.59h-14c0-7.76-.07-13.52.06-21.27C35.35,8.39,43,.82,54.93.64,62.11.54,69.29.5,76.46.66,87.75.91,95.38,8.47,95.65,19.74c.19,7.94.06,13.9.07,21.85h-14c0-6.79.09-11.57,0-18.36-.08-6-2.51-8.49-8.42-8.6q-7.86-.17-15.71,0c-5.91.11-8.35,2.58-8.42,8.6C49.05,30,49.13,34.8,49.14,41.59Z"/><path class="cls-3" d="M92.72,39.59c3.67,0,7.34,0,11,.16,5.58.28,8.79,3.66,8.84,9.89q.2,27.35,0,54.68c-.06,6.23-3.35,9.82-8.9,9.85q-38.26.17-76.53,0c-5.56,0-8.82-3.64-8.87-9.86Q18,77,18.25,49.63c0-6.19,3.26-9.6,8.85-9.88,3.66-.18,7.33-.11,11-.16H92.72Z"/><circle class="cls-4" cx="65.41" cy="76.92" r="22.12"/><path class="cls-2" d="M71.25,73.91a5.84,5.84,0,1,0-8.15,5.37v6.18a2.31,2.31,0,0,0,4.62,0V79.28A5.84,5.84,0,0,0,71.25,73.91Z"/><path class="cls-5" d="M116.74,37.11,125,28.86l-2.12-2.11L114.62,35A11.2,11.2,0,0,1,116.74,37.11Z"/><path class="cls-5" d="M107.66,32.62a12.32,12.32,0,0,1,1.5.1V21.07h-3V32.72A12.46,12.46,0,0,1,107.66,32.62Z"/><path class="cls-5" d="M119,42.57a10.21,10.21,0,0,1,0,3h11.66v-3Z"/></g></g></svg>