<svg xmlns="http://www.w3.org/2000/svg" viewBox="0 0 730.17 417.19"><defs><style>.cls-1{isolation:isolate;}.cls-2{fill:#fff;}.cls-3{mix-blend-mode:multiply;}.cls-4{fill:#eaeaea;}.cls-5{fill:#f6f6f6;}.cls-6{fill:#ff9796;}.cls-7{fill:#0380d3;}.cls-8{fill:none;}.cls-9{fill:#353d42;}.cls-10{fill:#ccc;}.cls-11{fill:#555b60;}.cls-12{fill:#007ae5;}.cls-13{fill:#a5a5ae;}.cls-14{opacity:0.5;}.cls-15{fill:#333;}.cls-16{fill:#eee;}.cls-17{fill:#757575;}.cls-18{fill:#e6e6e6;}.cls-19{fill:#343a3e;}.cls-20{fill:#cbcbca;}.cls-21,.cls-22{fill:#0074e0;}.cls-21{opacity:0.13;}</style></defs><title>account-admin</title><g class="cls-1"><g id="Layer_2" data-name="Layer 2"><g id="Layer_1-2" data-name="Layer 1"><rect class="cls-2" x="1.47" y="1.47" width="727.86" height="415.72"/><g class="cls-3"><path class="cls-4" d="M729.77,372.09h-264c-2.48,0-4.5,2.59-4.5,5.79v29.57c0,3.2,2,5.79,4.5,5.79h264V372.09Z"/></g><path class="cls-5" d="M729.77,370.17h-264c-2.48,0-4.5,2.59-4.5,5.79v29.57c0,3.2,2,5.79,4.5,5.79h264V370.17Z"/><rect class="cls-6" x="0.74" y="108.85" width="82.32" height="230.11"/><rect class="cls-7" x="0.74" y="367.35" width="82.32" height="48.92"/><g class="cls-3"><path class="cls-4" d="M729.77,167H465.3c-2.48,0-4.5,2.6-4.5,5.8v29.56c0,3.2,2,5.8,4.5,5.8H729.77V167Z"/></g><path class="cls-5" d="M729.77,165.11H465.3c-2.48,0-4.5,2.6-4.5,5.8v29.56c0,3.2,2,5.8,4.5,5.8H729.77V165.11Z"/><g class="cls-3"><path class="cls-4" d="M729.77,113.66H465.3c-2.48,0-4.5,2.6-4.5,5.8V149c0,3.2,2,5.79,4.5,5.79H729.77V113.66Z"/></g><path class="cls-5" d="M729.77,111.74H465.3c-2.48,0-4.5,2.6-4.5,5.8v29.57c0,3.2,2,5.79,4.5,5.79H729.77V111.74Z"/><rect class="cls-8" x="0.74" y="1.03" width="728.6" height="416.16"/><rect class="cls-9" x="0.74" y="0.59" width="728.76" height="51.02"/><rect class="cls-5" x="0.74" y="51.6" width="728.64" height="50.44"/><rect class="cls-10" x="664.33" y="51.6" width="0.74" height="50.44"/><rect class="cls-10" x="598.32" y="51.6" width="0.74" height="50.44"/><rect class="cls-10" x="533.46" y="51.6" width="0.74" height="50.44"/><rect class="cls-10" x="467.22" y="51.6" width="0.74" height="50.44"/><g id="Filled_Icons" data-name="Filled Icons"><path class="cls-11" d="M556,65.57v2.49a1.26,1.26,0,0,0,.36.88l7.1,7.1v9.43a1.23,1.23,0,0,0,.77,1.15,1.1,1.1,0,0,0,.47.1,1.22,1.22,0,0,0,.88-.37l2.49-2.49a1.23,1.23,0,0,0,.37-.87V76l7.1-7.1a1.26,1.26,0,0,0,.36-.88V65.57Z"/></g><polygon class="cls-11" points="508.1 80.21 508.06 83.06 493.37 82.87 493.41 80.02 489.52 79.97 489.49 82.81 489.46 84.64 489.43 86.86 511.89 87.16 511.92 84.94 511.94 83.11 511.98 80.26 508.1 80.21"/><polygon class="cls-11" points="500.71 78.38 506.98 72.11 501.96 72.11 501.96 65.27 499.45 65.27 499.45 72.11 494.43 72.11 500.71 78.38"/><polygon class="cls-11" points="704.4 80.1 704.4 82.93 689.13 82.93 689.13 80.1 685.1 80.1 685.1 82.93 685.1 84.75 685.1 86.96 708.44 86.96 708.44 84.75 708.44 82.93 708.44 80.1 704.4 80.1"/><polygon class="cls-11" points="696.77 65.33 690.52 71.57 695.51 71.57 695.51 78.37 698.02 78.37 698.02 71.57 703.01 71.57 696.77 65.33"/><g id="Filled_Icons-2" data-name="Filled Icons"><path class="cls-12" d="M641.45,67a2.18,2.18,0,0,0-2.18-2.18H621.81A2.19,2.19,0,0,0,619.63,67v2.19h21.82Zm-18.55,1.1A1.1,1.1,0,1,1,624,67,1.09,1.09,0,0,1,622.9,68.05Zm3.28,0a1.1,1.1,0,1,1,1.09-1.1A1.09,1.09,0,0,1,626.18,68.05Z"/><path class="cls-12" d="M638.73,74.59a9.37,9.37,0,0,1,2.72.41V70.23H619.63v12a2.19,2.19,0,0,0,2.18,2.18h7.67c0-.18,0-.36,0-.54A9.28,9.28,0,0,1,638.73,74.59Z"/><path class="cls-12" d="M636,88.33l-1.73-1.73,2.5-2.51-1.54-1.54L632,85.82a1.11,1.11,0,0,0,0,1.55l3.28,3.27a1.09,1.09,0,0,0,1.54,0L640,87.37l-1.54-1.55Z"/><path class="cls-12" d="M645.5,80.37l-3.27-3.28a1.11,1.11,0,0,0-1.55,0l-3.27,3.28L639,81.91l2.5-2.5,1.74,1.73-2.51,2.5,1.55,1.54,3.27-3.27A1.08,1.08,0,0,0,645.5,80.37Z"/><rect class="cls-12" x="636.41" y="82.78" width="4.63" height="2.18" transform="translate(127.83 476.28) rotate(-45.01)"/></g><g id="Filled_Icons-3" data-name="Filled Icons"><path class="cls-13" d="M695.5,16a10.15,10.15,0,1,0,10.15,10.14A10.16,10.16,0,0,0,695.5,16Zm0,16.49a1.27,1.27,0,1,1,1.27-1.27A1.27,1.27,0,0,1,695.5,32.44Zm1-4.44v1.14h-2V26.09h1a2,2,0,1,0-2-2h-2A4.06,4.06,0,1,1,696.51,28Z"/></g><rect class="cls-13" x="664.33" y="0.59" width="0.74" height="51.02"/><rect class="cls-13" x="598.32" y="0.59" width="0.74" height="51.02"/><g id="Filled_Icons-4" data-name="Filled Icons"><path class="cls-13" d="M563.94,27a3,3,0,1,0-3-3A3,3,0,0,0,563.94,27Z"/><path class="cls-13" d="M563.94,27.71c-3.58,0-6.07,1.88-6.07,4.56V33H570v-.75C570,29.59,567.51,27.71,563.94,27.71Z"/></g><path class="cls-13" d="M565,43.57c-.26,0-.52,0-.77,0l.13-2.94a14.54,14.54,0,0,0,3.89-.35l.65,2.87A17.53,17.53,0,0,1,565,43.57Zm-3.87-.43a17.52,17.52,0,0,1-4.4-1.64l1.4-2.6a14.21,14.21,0,0,0,3.65,1.37Zm10.75-1-1.16-2.7a14.76,14.76,0,0,0,3.34-2l1.84,2.3A17.65,17.65,0,0,1,571.92,42.16Zm-17.76-2.39a17.36,17.36,0,0,1-3.25-3.38l2.38-1.74a14.44,14.44,0,0,0,2.7,2.82Zm24-2.18L576,35.65a14.66,14.66,0,0,0,2.15-3.25l2.65,1.28A17.47,17.47,0,0,1,578.2,37.59Zm-28.9-3.88a17.27,17.27,0,0,1-1.46-4.46l2.9-.53a14.2,14.2,0,0,0,1.21,3.7Zm32.59-3L579.05,30a14.33,14.33,0,0,0,.52-3.87l2.37-.05h.57A17.75,17.75,0,0,1,581.89,30.74Zm-34.33-4.61v0a17.9,17.9,0,0,1,.61-4.61l2.84.78a14.49,14.49,0,0,0-.51,3.83Zm31.77-2.69a14.61,14.61,0,0,0-1.22-3.7l2.65-1.29a17,17,0,0,1,1.46,4.46Zm-27.41-3.62-2.65-1.28a17.2,17.2,0,0,1,2.58-3.91l2.22,1.93A14.73,14.73,0,0,0,551.92,19.82Zm24.85-2.31a15,15,0,0,0-2.71-2.81l1.83-2.31a17.64,17.64,0,0,1,3.25,3.38ZM556,14.75l-1.85-2.29a17.34,17.34,0,0,1,4-2.42l1.17,2.7A14.91,14.91,0,0,0,556,14.75Zm15.93-1.48a14.47,14.47,0,0,0-3.65-1.36L568.87,9a17.4,17.4,0,0,1,4.4,1.63Zm-10.12-1.34-.66-2.87A17.78,17.78,0,0,1,565,8.62a6.17,6.17,0,0,1,.75,0l-.13,2.94H565A14.23,14.23,0,0,0,561.76,11.93Z"/><polygon class="cls-13" points="572.84 19.92 570.58 19.92 570.58 17.65 569.63 17.65 569.63 19.92 567.37 19.92 567.37 20.86 569.63 20.86 569.63 23.13 570.58 23.13 570.58 20.86 572.84 20.86 572.84 19.92"/><path class="cls-13" d="M630.55,34.67h0a1.47,1.47,0,0,1-1.42-1.15L627.38,26l-.67,1.27a1.45,1.45,0,0,1-1.3.79h-4.22a1.47,1.47,0,1,1,0-2.94h3.33l2.1-4a1.51,1.51,0,0,1,1.49-.78,1.48,1.48,0,0,1,1.25,1.13l1.22,5.3,2.65-11.13a1.47,1.47,0,0,1,2.83-.11l3,9.37h3.6a1.47,1.47,0,1,1,0,2.94H638a1.46,1.46,0,0,1-1.4-1l-1.7-5.35L632,33.54A1.48,1.48,0,0,1,630.55,34.67Z"/><g class="cls-14"><rect class="cls-15" x="0.9" y="0.59" width="728.6" height="415.69"/></g><rect class="cls-2" x="36.63" y="35.69" width="660.14" height="380.73"/><rect class="cls-16" x="36.63" y="35.69" width="660.14" height="41.19"/><path class="cls-17" d="M62.72,61.31l-1-2.67H58.09l-.94,2.67H55.49l3.6-9.65H60.8l3.59,9.65Zm-1.37-4-.9-2.62c-.07-.18-.16-.45-.28-.83L59.93,53a13,13,0,0,1-.52,1.77l-.86,2.51Z"/><path class="cls-17" d="M68.43,61.44a3.19,3.19,0,0,1-2.51-1,4.88,4.88,0,0,1,0-5.59,3.32,3.32,0,0,1,2.59-1,4.91,4.91,0,0,1,2.07.43l-.46,1.25a4.61,4.61,0,0,0-1.62-.39c-1.26,0-1.89.84-1.89,2.51a3,3,0,0,0,.47,1.84,1.64,1.64,0,0,0,1.38.61,3.94,3.94,0,0,0,2-.51V61a2.77,2.77,0,0,1-.88.34A4.68,4.68,0,0,1,68.43,61.44Z"/><path class="cls-17" d="M75.1,61.44a3.18,3.18,0,0,1-2.51-1,4,4,0,0,1-.86-2.77,4,4,0,0,1,.9-2.82,3.3,3.3,0,0,1,2.59-1,4.91,4.91,0,0,1,2.07.43l-.47,1.25a4.57,4.57,0,0,0-1.61-.39c-1.26,0-1.89.84-1.89,2.51a3,3,0,0,0,.47,1.84,1.62,1.62,0,0,0,1.38.61,3.94,3.94,0,0,0,2-.51V61a2.87,2.87,0,0,1-.88.34A4.79,4.79,0,0,1,75.1,61.44Z"/><path class="cls-17" d="M85.28,57.66a4,4,0,0,1-.91,2.78,3.27,3.27,0,0,1-2.55,1A3.44,3.44,0,0,1,80,61a3.08,3.08,0,0,1-1.2-1.32,4.53,4.53,0,0,1-.42-2,4,4,0,0,1,.9-2.76,3.31,3.31,0,0,1,2.56-1,3.2,3.2,0,0,1,2.5,1A4,4,0,0,1,85.28,57.66Zm-5.29,0q0,2.52,1.86,2.52c1.23,0,1.84-.84,1.84-2.52s-.62-2.49-1.85-2.49a1.6,1.6,0,0,0-1.42.64A3.31,3.31,0,0,0,80,57.66Z"/><path class="cls-17" d="M92.18,61.31l-.21-1h-.08a2.23,2.23,0,0,1-.92.79,3.12,3.12,0,0,1-1.36.29,2.65,2.65,0,0,1-2-.66,2.74,2.74,0,0,1-.65-2V54h1.56v4.48a1.92,1.92,0,0,0,.34,1.25,1.31,1.31,0,0,0,1.07.42,1.69,1.69,0,0,0,1.43-.58,3.18,3.18,0,0,0,.46-2V54H93.4v7.27Z"/><path class="cls-17" d="M102,61.31h-1.55V56.84a2,2,0,0,0-.34-1.26A1.33,1.33,0,0,0,99,55.17a1.69,1.69,0,0,0-1.43.58,3.2,3.2,0,0,0-.45,1.94v3.62H95.6V54h1.21L97,55h.08a2.15,2.15,0,0,1,.93-.8,3.13,3.13,0,0,1,1.34-.29A2.34,2.34,0,0,1,102,56.57Z"/><path class="cls-17" d="M106.86,60.19A3.7,3.7,0,0,0,108,60v1.17a3.4,3.4,0,0,1-.66.18,3.86,3.86,0,0,1-.84.08q-2.19,0-2.19-2.31V55.21h-1v-.69l1.07-.56.52-1.54h1V54h2.07v1.17h-2.07V59.1a1.06,1.06,0,0,0,.28.82A1,1,0,0,0,106.86,60.19Z"/><path class="cls-17" d="M118.65,58.7a2.42,2.42,0,0,1-.93,2,4,4,0,0,1-2.56.73,6.11,6.11,0,0,1-2.67-.51V59.45a7.22,7.22,0,0,0,1.4.48,5.88,5.88,0,0,0,1.38.18,2.26,2.26,0,0,0,1.38-.35,1.24,1.24,0,0,0,0-1.87A6,6,0,0,0,115,57a4.42,4.42,0,0,1-1.85-1.21,2.6,2.6,0,0,1-.54-1.65,2.29,2.29,0,0,1,.85-1.89,3.56,3.56,0,0,1,2.3-.69,6.75,6.75,0,0,1,2.74.6l-.5,1.28a6.1,6.1,0,0,0-2.28-.53,1.76,1.76,0,0,0-1.16.33,1.09,1.09,0,0,0-.39.88,1.29,1.29,0,0,0,.15.64,1.79,1.79,0,0,0,.52.5,8.08,8.08,0,0,0,1.3.62,7.13,7.13,0,0,1,1.56.83,2.42,2.42,0,0,1,.72.86A2.62,2.62,0,0,1,118.65,58.7Z"/><path class="cls-17" d="M123.52,61.44a3.51,3.51,0,0,1-2.65-1,3.75,3.75,0,0,1-1-2.72,4.15,4.15,0,0,1,.89-2.81,3.09,3.09,0,0,1,2.44-1,3,3,0,0,1,2.27.88,3.32,3.32,0,0,1,.84,2.41V58H121.5a2.43,2.43,0,0,0,.57,1.63,2,2,0,0,0,1.52.57,5.68,5.68,0,0,0,1.2-.12,6.33,6.33,0,0,0,1.2-.41V61a5,5,0,0,1-1.15.38A7.32,7.32,0,0,1,123.52,61.44Zm-.28-6.36a1.54,1.54,0,0,0-1.18.46,2.23,2.23,0,0,0-.53,1.36h3.3a2,2,0,0,0-.43-1.36A1.5,1.5,0,0,0,123.24,55.08Z"/><path class="cls-17" d="M130.81,60.19a3.66,3.66,0,0,0,1.13-.18v1.17a3.4,3.4,0,0,1-.66.18,3.86,3.86,0,0,1-.84.08q-2.19,0-2.19-2.31V55.21h-1v-.69l1.06-.56.53-1.54h1V54h2.07v1.17H129.8V59.1a1.06,1.06,0,0,0,.28.82A1,1,0,0,0,130.81,60.19Z"/><path class="cls-17" d="M136.11,60.19a3.75,3.75,0,0,0,1.13-.18v1.17a3.61,3.61,0,0,1-.66.18,3.86,3.86,0,0,1-.84.08c-1.47,0-2.2-.77-2.2-2.31V55.21h-1v-.69l1.06-.56.53-1.54h1V54h2.07v1.17h-2.07V59.1a1.1,1.1,0,0,0,.28.82A1,1,0,0,0,136.11,60.19Z"/><path class="cls-17" d="M138.6,52.11a.86.86,0,0,1,.22-.64.9.9,0,0,1,.65-.22.87.87,0,0,1,.64.22.86.86,0,0,1,.22.64.84.84,0,0,1-.22.62.88.88,0,0,1-.64.23.9.9,0,0,1-.65-.23A.84.84,0,0,1,138.6,52.11Zm1.63,9.2h-1.54V54h1.54Z"/><path class="cls-17" d="M148.84,61.31h-1.55V56.84a2,2,0,0,0-.34-1.26,1.32,1.32,0,0,0-1.07-.41,1.7,1.7,0,0,0-1.44.58,3.2,3.2,0,0,0-.45,1.94v3.62h-1.55V54h1.21l.22,1H144a2.15,2.15,0,0,1,.93-.8,3.13,3.13,0,0,1,1.34-.29,2.34,2.34,0,0,1,2.62,2.67Z"/><path class="cls-17" d="M157.13,54v.85l-1.24.23a2,2,0,0,1,.28.56,2.07,2.07,0,0,1,.11.71,2.2,2.2,0,0,1-.77,1.77,3.25,3.25,0,0,1-2.14.64,3.1,3.1,0,0,1-.63,0,.89.89,0,0,0-.5.72.41.41,0,0,0,.23.38,2.14,2.14,0,0,0,.86.12h1.27a2.79,2.79,0,0,1,1.83.52,1.78,1.78,0,0,1,.62,1.48,2.14,2.14,0,0,1-1,1.9,5.33,5.33,0,0,1-2.94.67,4.08,4.08,0,0,1-2.27-.52,1.7,1.7,0,0,1-.78-1.5,1.61,1.61,0,0,1,.42-1.13,2.24,2.24,0,0,1,1.19-.63,1.12,1.12,0,0,1-.51-.43,1.08,1.08,0,0,1-.2-.61,1,1,0,0,1,.23-.69,2.51,2.51,0,0,1,.68-.56,2,2,0,0,1-.91-.79,2.32,2.32,0,0,1-.36-1.29,2.28,2.28,0,0,1,.75-1.83,3.12,3.12,0,0,1,2.13-.66,4.85,4.85,0,0,1,.64.05,4.17,4.17,0,0,1,.51.09Zm-5.71,8.4a.85.85,0,0,0,.45.77,2.46,2.46,0,0,0,1.26.27,3.88,3.88,0,0,0,1.89-.36,1.08,1.08,0,0,0,.61-1,.72.72,0,0,0-.34-.68,2.72,2.72,0,0,0-1.25-.2h-1.18a1.68,1.68,0,0,0-1.05.31A1,1,0,0,0,151.42,62.44Zm.66-6a1.46,1.46,0,0,0,.35,1,1.32,1.32,0,0,0,1,.37c.9,0,1.35-.48,1.35-1.43a1.64,1.64,0,0,0-.34-1.1,1.28,1.28,0,0,0-1-.38,1.31,1.31,0,0,0-1,.38A1.59,1.59,0,0,0,152.08,56.39Z"/><path class="cls-17" d="M163.37,59.24a1.89,1.89,0,0,1-.78,1.63,3.72,3.72,0,0,1-2.22.57A5.33,5.33,0,0,1,158,61V59.66a5.69,5.69,0,0,0,2.39.6c1,0,1.43-.29,1.43-.86a.69.69,0,0,0-.16-.46,2,2,0,0,0-.52-.39,8.24,8.24,0,0,0-1-.44,4.75,4.75,0,0,1-1.7-1,1.81,1.81,0,0,1-.44-1.26,1.67,1.67,0,0,1,.75-1.45,3.61,3.61,0,0,1,2-.52,5.78,5.78,0,0,1,2.43.53l-.5,1.16a5.35,5.35,0,0,0-2-.49c-.82,0-1.22.24-1.22.7a.7.7,0,0,0,.31.58,7.36,7.36,0,0,0,1.4.65,5.76,5.76,0,0,1,1.3.64,1.9,1.9,0,0,1,.61.66A2,2,0,0,1,163.37,59.24Z"/><polygon class="cls-11" points="683.34 51.58 682.67 50.9 677.96 55.61 673.25 50.9 672.57 51.58 677.28 56.29 672.57 60.99 673.25 61.67 677.96 56.96 682.67 61.67 683.34 60.99 678.63 56.29 683.34 51.58"/><g id="Frame_-_24px" data-name="Frame - 24px"><rect class="cls-8" x="61.13" y="90.26" width="19.27" height="19.27"/></g><g id="Filled_Icons-5" data-name="Filled Icons"><path class="cls-17" d="M76.39,93.47h-.8v2.41H66V93.47h-.8a1.61,1.61,0,0,0-1.61,1.61v11.24a1.61,1.61,0,0,0,1.61,1.61H76.39A1.61,1.61,0,0,0,78,106.32V95.08A1.61,1.61,0,0,0,76.39,93.47Zm-5.62,4.82a2,2,0,1,1-2,2A2,2,0,0,1,70.77,98.29Zm-3,8a3,3,0,0,1,6,0Z"/><path class="cls-17" d="M72.37,92.67a1.61,1.61,0,1,0-3.21,0h-1.6v2.41H74V92.67Z"/></g><g id="Frame_-_24px-2" data-name="Frame - 24px"><rect class="cls-8" x="148.75" y="88.82" width="22.14" height="22.14"/></g><g id="Filled_Icons-6" data-name="Filled Icons"><path class="cls-17" d="M167.47,98.39l1.31-1.31-2.29-2.28,1.31-1.31-2-1.95-8.75,8.75a4.61,4.61,0,0,0-1.77-.39h-.11a4.65,4.65,0,0,0-4.61,4.51,4.61,4.61,0,0,0,4.5,4.72h.11a4.6,4.6,0,0,0,3.95-7l3.42-3.43,2.28,2.29,1.31-1.31-2.28-2.28,1.3-1.31Zm-12.26,8a1.85,1.85,0,1,1,1.84-1.84A1.84,1.84,0,0,1,155.21,106.35Z"/></g><g id="Frame_-_24px-3" data-name="Frame - 24px"><rect class="cls-8" x="244.34" y="89.47" width="20.85" height="20.85"/></g><g id="Filled_Icons-7" data-name="Filled Icons"><path class="cls-17" d="M262.58,99.89h-3.47V93.81a.87.87,0,0,0-.87-.87h-.87v-.87a.87.87,0,0,0-.87-.87H253a.86.86,0,0,0-.86.87v.87h-.87a.87.87,0,0,0-.87.87v6.08h-3.48a.87.87,0,0,0-.87.87v6.95a.87.87,0,0,0,.87.87H253v-3.47h3.48v3.47h6.08a.87.87,0,0,0,.87-.87v-6.95A.87.87,0,0,0,262.58,99.89Zm-13,7h-1.74v-1.74h1.74Zm0-3.48h-1.74v-1.74h1.74Zm4.34,0h-1.73v-1.74h1.73Zm0-3.48h-1.73V98.16h1.73Zm0-3.47h-1.73V94.68h1.73Zm3.48,7h-1.74v-1.74h1.74Zm0-3.48h-1.74V98.16h1.74Zm0-3.47h-1.74V94.68h1.74Zm4.34,10.43H260v-1.74h1.73Zm0-3.48H260v-1.74h1.73Z"/></g><g id="Frame_-_24px-4" data-name="Frame - 24px"><rect class="cls-8" x="345.99" y="88.82" width="22.14" height="22.14"/></g><g id="Filled_Icons-8" data-name="Filled Icons"><path class="cls-17" d="M360.76,99.9a3.69,3.69,0,1,0-3.69-3.69A3.7,3.7,0,0,0,360.76,99.9Z"/><path class="cls-17" d="M360.76,100.82c-4.35,0-7.38,2.28-7.38,5.54v.92h14.76v-.92C368.14,103.1,365.1,100.82,360.76,100.82Z"/></g><g id="Filled_Icons-9" data-name="Filled Icons"><path class="cls-17" d="M352.23,101.75A2.77,2.77,0,1,0,349.46,99,2.77,2.77,0,0,0,352.23,101.75Z"/><path class="cls-17" d="M354,102.61a8.68,8.68,0,0,0-1.73-.17c-3.26,0-5.54,1.71-5.54,4.15v.69h5.36A5.59,5.59,0,0,1,354,102.61Z"/></g><g id="Frame_-_24px-5" data-name="Frame - 24px"><rect class="cls-8" x="434.72" y="89.96" width="19.86" height="19.86"/></g><g id="Filled_Icons-10" data-name="Filled Icons"><path class="cls-17" d="M436.37,104.86a1.66,1.66,0,0,0,1.66,1.66h13.24a1.66,1.66,0,0,0,1.65-1.66V98.24H436.37Zm10.76-5h3.31v1.65h-3.31Zm-8.28,0h5.8v1.65h-5.8Zm0,2.48H443V104h-4.14Z"/><path class="cls-17" d="M451.27,93.28H438a1.65,1.65,0,0,0-1.66,1.65v1.66h16.55V94.93A1.65,1.65,0,0,0,451.27,93.28Z"/></g><g id="Frame_-_24px-6" data-name="Frame - 24px"><rect class="cls-8" x="527.05" y="88.82" width="22.14" height="22.14"/></g><g id="Filled_Icons-11" data-name="Filled Icons"><path class="cls-12" d="M544.9,92.8a1.69,1.69,0,0,0-1.7-1.69H529.64a1.69,1.69,0,0,0-1.7,1.69v1.7h17Zm-14.41.85a.85.85,0,1,1,.85-.85A.85.85,0,0,1,530.49,93.65Zm2.54,0a.85.85,0,1,1,.85-.85A.85.85,0,0,1,533,93.65Z"/><path class="cls-12" d="M542.78,98.73a7.4,7.4,0,0,1,2.12.32v-3.7h-17v9.32a1.7,1.7,0,0,0,1.7,1.69h6c0-.14,0-.28,0-.42A7.21,7.21,0,0,1,542.78,98.73Z"/><path class="cls-12" d="M540.66,109.4l-1.34-1.34,1.94-1.94-1.2-1.2-2.54,2.54a.85.85,0,0,0,0,1.2l2.54,2.54a.85.85,0,0,0,1.2,0l2.54-2.54-1.2-1.2Z"/><path class="cls-12" d="M548,103.22l-2.54-2.54a.85.85,0,0,0-1.2,0l-2.54,2.54,1.2,1.2,1.94-1.94,1.34,1.34-1.94,2,1.2,1.19,2.54-2.54A.85.85,0,0,0,548,103.22Z"/><rect class="cls-12" x="540.98" y="105.09" width="3.6" height="1.69" transform="translate(84.11 414.9) rotate(-45.01)"/></g><path class="cls-17" d="M94.08,99.38a2.16,2.16,0,0,1-.76,1.76,3.32,3.32,0,0,1-2.15.62h-.76v2.75h-1.2V97.15h2.11a3.19,3.19,0,0,1,2.07.57A2,2,0,0,1,94.08,99.38Zm-3.67,1.36h.64a2.28,2.28,0,0,0,1.36-.32,1.18,1.18,0,0,0,.43-1,1.14,1.14,0,0,0-.39-1,1.91,1.91,0,0,0-1.21-.31h-.83Z"/><path class="cls-17" d="M98.24,98.84a3.09,3.09,0,0,1,.59,0l-.12,1.1a2.18,2.18,0,0,0-.52-.06,1.53,1.53,0,0,0-1.15.47,1.69,1.69,0,0,0-.44,1.2v2.91H95.42V98.94h.92l.16,1h.06a2.33,2.33,0,0,1,.72-.8A1.77,1.77,0,0,1,98.24,98.84Z"/><path class="cls-17" d="M104.8,101.72a3.06,3.06,0,0,1-.7,2.12,2.52,2.52,0,0,1-1.95.77,2.72,2.72,0,0,1-1.38-.35,2.43,2.43,0,0,1-.92-1,3.51,3.51,0,0,1-.32-1.53,3,3,0,0,1,.69-2.12,2.56,2.56,0,0,1,2-.76,2.44,2.44,0,0,1,1.91.78A3,3,0,0,1,104.8,101.72Zm-4,0c0,1.28.47,1.92,1.42,1.92s1.41-.64,1.41-1.92-.47-1.91-1.42-1.91a1.2,1.2,0,0,0-1.08.49A2.55,2.55,0,0,0,100.75,101.72Z"/><path class="cls-17" d="M109,99.84h-1.36v4.67H106.4V99.84h-.91v-.55l.91-.37v-.36a2.06,2.06,0,0,1,.46-1.46,1.89,1.89,0,0,1,1.42-.48,3.79,3.79,0,0,1,1.23.21l-.32.9a2.54,2.54,0,0,0-.83-.14.71.71,0,0,0-.59.24,1.3,1.3,0,0,0-.18.75v.36H109Zm.87-2.37A.64.64,0,0,1,110,97a.68.68,0,0,1,.49-.17A.69.69,0,0,1,111,97a.68.68,0,0,1,.17.49.64.64,0,0,1-.17.47.66.66,0,0,1-.49.18.64.64,0,0,1-.49-.18A.61.61,0,0,1,109.82,97.47Zm1.26,7h-1.19V98.94h1.19Z"/><path class="cls-17" d="M114,104.51h-1.18V96.68H114Z"/><path class="cls-17" d="M118.07,104.61a2.68,2.68,0,0,1-2-.76,2.9,2.9,0,0,1-.73-2.08,3.19,3.19,0,0,1,.68-2.15,2.35,2.35,0,0,1,1.87-.78,2.33,2.33,0,0,1,1.74.67,2.59,2.59,0,0,1,.64,1.84V102h-3.71a1.83,1.83,0,0,0,.44,1.25,1.51,1.51,0,0,0,1.16.43,4.49,4.49,0,0,0,.92-.09,5.16,5.16,0,0,0,.91-.31v1a3.25,3.25,0,0,1-.88.29A5.05,5.05,0,0,1,118.07,104.61Zm-.21-4.87a1.23,1.23,0,0,0-.91.35,1.74,1.74,0,0,0-.4,1h2.52a1.5,1.5,0,0,0-.33-1A1.14,1.14,0,0,0,117.86,99.74Z"/><path class="cls-17" d="M180.29,102.51a1.85,1.85,0,0,1-.71,1.54,3.09,3.09,0,0,1-2,.56,4.64,4.64,0,0,1-2-.39v-1.14a5.43,5.43,0,0,0,1.07.38,4.56,4.56,0,0,0,1,.13,1.7,1.7,0,0,0,1.06-.27.9.9,0,0,0,.34-.73,1,1,0,0,0-.31-.7,4.74,4.74,0,0,0-1.29-.68,3.36,3.36,0,0,1-1.42-.93,2,2,0,0,1-.41-1.26,1.73,1.73,0,0,1,.65-1.44,2.68,2.68,0,0,1,1.76-.53,5.14,5.14,0,0,1,2.1.46l-.38,1a4.72,4.72,0,0,0-1.75-.41,1.35,1.35,0,0,0-.89.25.85.85,0,0,0-.3.67.91.91,0,0,0,.12.49,1.15,1.15,0,0,0,.4.39,6.57,6.57,0,0,0,1,.48,5,5,0,0,1,1.19.63,1.76,1.76,0,0,1,.55.65A2,2,0,0,1,180.29,102.51Z"/><path class="cls-17" d="M184,104.61a2.67,2.67,0,0,1-2-.76,2.85,2.85,0,0,1-.73-2.08,3.13,3.13,0,0,1,.68-2.15,2.33,2.33,0,0,1,1.86-.78,2.3,2.3,0,0,1,1.74.67,2.55,2.55,0,0,1,.64,1.84V102h-3.71a1.88,1.88,0,0,0,.44,1.25,1.52,1.52,0,0,0,1.16.43,4.42,4.42,0,0,0,.92-.09,4.67,4.67,0,0,0,.91-.31v1a3.18,3.18,0,0,1-.87.29A5.12,5.12,0,0,1,184,104.61Zm-.22-4.87a1.21,1.21,0,0,0-.9.35,1.74,1.74,0,0,0-.41,1H185a1.61,1.61,0,0,0-.33-1A1.17,1.17,0,0,0,183.8,99.74Z"/><path class="cls-17" d="M189.77,104.61a2.45,2.45,0,0,1-1.92-.74,3.71,3.71,0,0,1,0-4.27,2.53,2.53,0,0,1,2-.76,3.71,3.71,0,0,1,1.59.33l-.36,1a3.67,3.67,0,0,0-1.24-.29q-1.44,0-1.44,1.92a2.27,2.27,0,0,0,.36,1.4,1.22,1.22,0,0,0,1,.47,3.05,3.05,0,0,0,1.5-.39v1a2.36,2.36,0,0,1-.68.27A4.3,4.3,0,0,1,189.77,104.61Z"/><path class="cls-17" d="M196.55,104.51l-.17-.73h-.06a1.62,1.62,0,0,1-.7.61,2.31,2.31,0,0,1-1,.22,2.08,2.08,0,0,1-1.51-.5,2.12,2.12,0,0,1-.49-1.53V98.94h1.19v3.43a1.51,1.51,0,0,0,.26,1,1,1,0,0,0,.82.32,1.31,1.31,0,0,0,1.09-.44,2.42,2.42,0,0,0,.35-1.49V98.94h1.19v5.57Z"/><path class="cls-17" d="M202,98.84a3.17,3.17,0,0,1,.59,0l-.12,1.1a2.24,2.24,0,0,0-.52-.06,1.51,1.51,0,0,0-1.15.47,1.69,1.69,0,0,0-.44,1.2v2.91h-1.18V98.94h.92l.16,1h.06a2.15,2.15,0,0,1,.72-.8A1.77,1.77,0,0,1,202,98.84Z"/><path class="cls-17" d="M203.54,97.47a.68.68,0,0,1,.17-.49.7.7,0,0,1,.5-.17.65.65,0,0,1,.48.17.64.64,0,0,1,.18.49.61.61,0,0,1-.18.47.62.62,0,0,1-.48.18.67.67,0,0,1-.5-.18A.64.64,0,0,1,203.54,97.47Zm1.25,7h-1.18V98.94h1.18Z"/><path class="cls-17" d="M208.55,103.65a2.91,2.91,0,0,0,.87-.13v.89a3,3,0,0,1-.51.14,3.31,3.31,0,0,1-.64.06q-1.68,0-1.68-1.77v-3h-.76v-.52l.82-.44.4-1.17h.73v1.23h1.58v.9h-1.58v3a.86.86,0,0,0,.21.63A.82.82,0,0,0,208.55,103.65Z"/><path class="cls-17" d="M209.69,98.94H211l1.14,3.16a6.18,6.18,0,0,1,.34,1.27h0a5.32,5.32,0,0,1,.16-.68c.08-.26.51-1.51,1.28-3.75h1.28l-2.38,6.31a2.24,2.24,0,0,1-2.16,1.73,3.94,3.94,0,0,1-.77-.08V106a2.8,2.8,0,0,0,.61.06,1.24,1.24,0,0,0,1.2-1l.21-.52Z"/><path class="cls-17" d="M276,98.08a2,2,0,0,0-1.63.73,3.13,3.13,0,0,0-.6,2,3.19,3.19,0,0,0,.57,2,2,2,0,0,0,1.66.69,4.43,4.43,0,0,0,.9-.09,8.79,8.79,0,0,0,.91-.24v1a5.44,5.44,0,0,1-2,.33,3.14,3.14,0,0,1-2.48-1,4.08,4.08,0,0,1-.86-2.8,4.57,4.57,0,0,1,.42-2,3,3,0,0,1,1.21-1.32,3.72,3.72,0,0,1,1.87-.45,4.57,4.57,0,0,1,2.08.47l-.43,1a6.18,6.18,0,0,0-.79-.31A2.82,2.82,0,0,0,276,98.08Z"/><path class="cls-17" d="M284.17,101.72a3.06,3.06,0,0,1-.7,2.12,2.52,2.52,0,0,1-2,.77,2.72,2.72,0,0,1-1.38-.35,2.43,2.43,0,0,1-.92-1,3.51,3.51,0,0,1-.32-1.53,3,3,0,0,1,.69-2.12,2.56,2.56,0,0,1,2-.76,2.44,2.44,0,0,1,1.91.78A3,3,0,0,1,284.17,101.72Zm-4.05,0c0,1.28.47,1.92,1.42,1.92S283,103,283,101.72s-.47-1.91-1.42-1.91a1.21,1.21,0,0,0-1.08.49A2.55,2.55,0,0,0,280.12,101.72Z"/><path class="cls-17" d="M290.21,104.51H289v-3.43a1.58,1.58,0,0,0-.24-1,.9.9,0,0,0-.76-.31,1.16,1.16,0,0,0-1,.44,2.59,2.59,0,0,0-.32,1.49v2.77h-1.18V98.94h.92l.17.73h.06a1.53,1.53,0,0,1,.67-.61,2.1,2.1,0,0,1,1-.22,1.69,1.69,0,0,1,1.7.88h.08a1.73,1.73,0,0,1,.69-.65,2.26,2.26,0,0,1,1-.23,1.85,1.85,0,0,1,1.45.51,2.22,2.22,0,0,1,.46,1.53v3.63h-1.19v-3.43a1.58,1.58,0,0,0-.24-1,.89.89,0,0,0-.76-.31,1.18,1.18,0,0,0-1,.43,2.25,2.25,0,0,0-.32,1.32Z"/><path class="cls-17" d="M298.2,104.61a1.93,1.93,0,0,1-1.64-.76h-.07c.05.47.07.75.07.85V107h-1.18v-8h.95c0,.11.08.36.17.75h.06a1.84,1.84,0,0,1,1.66-.85,1.92,1.92,0,0,1,1.62.76,4.13,4.13,0,0,1,0,4.24A2,2,0,0,1,298.2,104.61Zm-.29-4.8a1.25,1.25,0,0,0-1,.41,2.21,2.21,0,0,0-.32,1.32v.18a2.67,2.67,0,0,0,.32,1.47,1.21,1.21,0,0,0,1.05.45,1.08,1.08,0,0,0,.95-.5,2.62,2.62,0,0,0,.33-1.44,2.49,2.49,0,0,0-.33-1.41A1.1,1.1,0,0,0,297.91,99.81Z"/><path class="cls-17" d="M305.28,104.51l-.24-.78h0a2.26,2.26,0,0,1-.81.69,2.43,2.43,0,0,1-1.05.19,1.81,1.81,0,0,1-1.28-.44,1.71,1.71,0,0,1-.46-1.26,1.47,1.47,0,0,1,.64-1.29,3.57,3.57,0,0,1,1.95-.48l1,0v-.3a1.11,1.11,0,0,0-.25-.8,1,1,0,0,0-.77-.26,2.76,2.76,0,0,0-.82.12c-.26.09-.51.19-.76.3l-.38-.84a3.88,3.88,0,0,1,1-.36,4.19,4.19,0,0,1,1-.13,2.39,2.39,0,0,1,1.6.47,1.79,1.79,0,0,1,.54,1.45v3.75Zm-1.76-.81a1.45,1.45,0,0,0,1-.36,1.3,1.3,0,0,0,.39-1v-.48l-.71,0a2.51,2.51,0,0,0-1.22.28.86.86,0,0,0-.38.76.78.78,0,0,0,.22.58A.94.94,0,0,0,303.52,103.7Z"/><path class="cls-17" d="M312.67,104.51h-1.19v-3.42a1.51,1.51,0,0,0-.26-1,1,1,0,0,0-.82-.32,1.33,1.33,0,0,0-1.1.44,2.48,2.48,0,0,0-.34,1.49v2.77h-1.19V98.94h.93l.16.73h.07a1.58,1.58,0,0,1,.71-.61,2.32,2.32,0,0,1,1-.22,1.79,1.79,0,0,1,2,2Z"/><path class="cls-17" d="M313.47,98.94h1.29l1.13,3.16a6.18,6.18,0,0,1,.34,1.27h0a5.58,5.58,0,0,1,.17-.68c.08-.26.5-1.51,1.27-3.75H319l-2.38,6.31a2.24,2.24,0,0,1-2.16,1.73,3.94,3.94,0,0,1-.77-.08V106a2.87,2.87,0,0,0,.61.06,1.26,1.26,0,0,0,1.21-1l.2-.52Z"/><path class="cls-17" d="M383.84,97.15v4.76a2.86,2.86,0,0,1-.35,1.43,2.36,2.36,0,0,1-1,.94,3.55,3.55,0,0,1-1.59.33,3,3,0,0,1-2.13-.73,2.63,2.63,0,0,1-.76-2V97.15h1.21v4.66a1.87,1.87,0,0,0,.42,1.34,1.76,1.76,0,0,0,1.3.43c1.14,0,1.7-.59,1.7-1.78V97.15Z"/><path class="cls-17" d="M389.33,102.92a1.46,1.46,0,0,1-.59,1.25,2.87,2.87,0,0,1-1.7.44,3.94,3.94,0,0,1-1.79-.34v-1a4.38,4.38,0,0,0,1.83.45c.72,0,1.09-.22,1.09-.66a.53.53,0,0,0-.12-.35,1.59,1.59,0,0,0-.4-.29,6.09,6.09,0,0,0-.77-.34,3.59,3.59,0,0,1-1.3-.75,1.34,1.34,0,0,1-.34-1,1.25,1.25,0,0,1,.58-1.11,2.73,2.73,0,0,1,1.56-.4,4.5,4.5,0,0,1,1.86.4l-.38.89a4.1,4.1,0,0,0-1.52-.37c-.62,0-.93.18-.93.53a.53.53,0,0,0,.24.44,4.82,4.82,0,0,0,1.06.5,5,5,0,0,1,1,.49,1.57,1.57,0,0,1,.46.51A1.47,1.47,0,0,1,389.33,102.92Z"/><path class="cls-17" d="M393,104.61a2.67,2.67,0,0,1-2-.76,2.85,2.85,0,0,1-.73-2.08,3.18,3.18,0,0,1,.67-2.15,2.37,2.37,0,0,1,1.87-.78,2.3,2.3,0,0,1,1.74.67,2.55,2.55,0,0,1,.64,1.84V102h-3.71a1.88,1.88,0,0,0,.44,1.25,1.52,1.52,0,0,0,1.16.43,4.42,4.42,0,0,0,.92-.09,4.9,4.9,0,0,0,.91-.31v1a3.18,3.18,0,0,1-.87.29A5.12,5.12,0,0,1,393,104.61Zm-.22-4.87a1.21,1.21,0,0,0-.9.35,1.74,1.74,0,0,0-.41,1H394a1.61,1.61,0,0,0-.33-1A1.17,1.17,0,0,0,392.82,99.74Z"/><path class="cls-17" d="M399.37,98.84a3,3,0,0,1,.58,0l-.11,1.1a2.24,2.24,0,0,0-.52-.06,1.5,1.5,0,0,0-1.15.47,1.65,1.65,0,0,0-.44,1.2v2.91h-1.19V98.94h.93l.16,1h.06a2.15,2.15,0,0,1,.72-.8A1.72,1.72,0,0,1,399.37,98.84Z"/><path class="cls-17" d="M404.72,102.92a1.43,1.43,0,0,1-.59,1.25,2.85,2.85,0,0,1-1.7.44,4,4,0,0,1-1.79-.34v-1a4.46,4.46,0,0,0,1.83.45c.73,0,1.09-.22,1.09-.66a.53.53,0,0,0-.12-.35,1.42,1.42,0,0,0-.4-.29,5.5,5.5,0,0,0-.77-.34,3.59,3.59,0,0,1-1.3-.75,1.39,1.39,0,0,1-.34-1,1.27,1.27,0,0,1,.58-1.11,2.76,2.76,0,0,1,1.57-.4,4.49,4.49,0,0,1,1.85.4l-.38.89a4.06,4.06,0,0,0-1.51-.37c-.63,0-.94.18-.94.53a.51.51,0,0,0,.25.44,4.59,4.59,0,0,0,1.06.5,4.87,4.87,0,0,1,1,.49,1.35,1.35,0,0,1,.61,1.2Z"/><path class="cls-17" d="M463.44,97.15h2.18a4.08,4.08,0,0,1,2.2.45A1.54,1.54,0,0,1,468.5,99a1.74,1.74,0,0,1-.33,1.08,1.5,1.5,0,0,1-1,.53v.05a1.88,1.88,0,0,1,1.14.58,1.75,1.75,0,0,1,.36,1.16A1.9,1.9,0,0,1,468,104a3,3,0,0,1-1.92.56h-2.66Zm1.2,3h1.16a2,2,0,0,0,1.1-.24.92.92,0,0,0,.35-.81.81.81,0,0,0-.38-.75,2.33,2.33,0,0,0-1.18-.23h-1.05Zm0,1v2.33h1.28a1.92,1.92,0,0,0,1.14-.29,1.08,1.08,0,0,0,.39-.92,1,1,0,0,0-.4-.85,2.12,2.12,0,0,0-1.19-.27Z"/><path class="cls-17" d="M470.05,97.47a.64.64,0,0,1,.17-.49.7.7,0,0,1,.5-.17.67.67,0,0,1,.48.17.64.64,0,0,1,.18.49.61.61,0,0,1-.18.47.63.63,0,0,1-.48.18.67.67,0,0,1-.5-.18A.61.61,0,0,1,470.05,97.47Zm1.25,7h-1.18V98.94h1.18Z"/><path class="cls-17" d="M474.17,104.51H473V96.68h1.18Z"/><path class="cls-17" d="M477.05,104.51h-1.19V96.68h1.19Z"/><path class="cls-17" d="M478.67,97.47a.64.64,0,0,1,.17-.49.68.68,0,0,1,.49-.17.69.69,0,0,1,.49.17.64.64,0,0,1,.17.49.61.61,0,0,1-.17.47.66.66,0,0,1-.49.18.64.64,0,0,1-.49-.18A.61.61,0,0,1,478.67,97.47Zm1.25,7h-1.18V98.94h1.18Z"/><path class="cls-17" d="M486.5,104.51h-1.18v-3.42a1.51,1.51,0,0,0-.26-1,1,1,0,0,0-.83-.32,1.31,1.31,0,0,0-1.09.44,2.47,2.47,0,0,0-.35,1.49v2.77h-1.18V98.94h.92l.17.73h.06a1.69,1.69,0,0,1,.71-.61,2.35,2.35,0,0,1,1-.22,1.78,1.78,0,0,1,2,2Z"/><path class="cls-17" d="M492.85,98.94v.65l-1,.18a1.57,1.57,0,0,1,.21.43,1.61,1.61,0,0,1,.09.54,1.66,1.66,0,0,1-.6,1.36,2.46,2.46,0,0,1-1.63.49,2.33,2.33,0,0,1-.48,0,.67.67,0,0,0-.39.55.31.31,0,0,0,.18.29,1.61,1.61,0,0,0,.66.1h1a2.18,2.18,0,0,1,1.4.39,1.38,1.38,0,0,1,.48,1.13,1.65,1.65,0,0,1-.78,1.46,4.13,4.13,0,0,1-2.26.51,3.1,3.1,0,0,1-1.73-.4,1.3,1.3,0,0,1-.6-1.15,1.24,1.24,0,0,1,.32-.86,1.77,1.77,0,0,1,.91-.48.89.89,0,0,1-.39-.33.84.84,0,0,1-.15-.47.86.86,0,0,1,.17-.53,2.51,2.51,0,0,1,.53-.43,1.5,1.5,0,0,1-.7-.6,1.79,1.79,0,0,1-.27-1,1.76,1.76,0,0,1,.57-1.4,2.41,2.41,0,0,1,1.63-.5,2.85,2.85,0,0,1,.49,0l.39.06Zm-4.37,6.43a.64.64,0,0,0,.34.59,1.86,1.86,0,0,0,1,.21,2.89,2.89,0,0,0,1.44-.28.83.83,0,0,0,.47-.73.56.56,0,0,0-.26-.52,2.1,2.1,0,0,0-1-.15h-.9a1.21,1.21,0,0,0-.8.24A.77.77,0,0,0,488.48,105.37Zm.5-4.63a1.13,1.13,0,0,0,.27.81,1,1,0,0,0,.78.28c.68,0,1-.36,1-1.1a1.21,1.21,0,0,0-.25-.83,1,1,0,0,0-.77-.3,1,1,0,0,0-.78.29A1.22,1.22,0,0,0,489,100.74Z"/><path class="cls-12" d="M554.33,104.51V97.15h1.2v7.36Z"/><path class="cls-12" d="M562.25,104.51h-1.19v-3.42a1.51,1.51,0,0,0-.26-1,1,1,0,0,0-.82-.32,1.33,1.33,0,0,0-1.1.44,2.47,2.47,0,0,0-.35,1.49v2.77h-1.18V98.94h.93l.16.73h.06a1.66,1.66,0,0,1,.72-.61,2.31,2.31,0,0,1,1-.22,1.79,1.79,0,0,1,2,2Z"/><path class="cls-12" d="M566,103.65a2.91,2.91,0,0,0,.87-.13v.89a3,3,0,0,1-.51.14,3.31,3.31,0,0,1-.64.06q-1.68,0-1.68-1.77v-3h-.76v-.52l.82-.44.4-1.17h.73v1.23h1.58v.9h-1.58v3a.86.86,0,0,0,.21.63A.82.82,0,0,0,566,103.65Z"/><path class="cls-12" d="M570.37,104.61a2.68,2.68,0,0,1-2-.76,2.85,2.85,0,0,1-.73-2.08,3.19,3.19,0,0,1,.68-2.15,2.61,2.61,0,0,1,3.61-.11,2.58,2.58,0,0,1,.63,1.84V102h-3.7a1.83,1.83,0,0,0,.43,1.25,1.55,1.55,0,0,0,1.17.43,4.49,4.49,0,0,0,.92-.09,5.16,5.16,0,0,0,.91-.31v1a3.25,3.25,0,0,1-.88.29A5.05,5.05,0,0,1,570.37,104.61Zm-.22-4.87a1.22,1.22,0,0,0-.9.35,1.74,1.74,0,0,0-.4,1h2.52a1.5,1.5,0,0,0-.33-1A1.15,1.15,0,0,0,570.15,99.74Z"/><path class="cls-12" d="M578.58,98.94v.65l-1,.18a1.57,1.57,0,0,1,.21.43,1.61,1.61,0,0,1,.09.54,1.66,1.66,0,0,1-.6,1.36,2.46,2.46,0,0,1-1.63.49,2.33,2.33,0,0,1-.48,0,.67.67,0,0,0-.39.55.31.31,0,0,0,.18.29,1.61,1.61,0,0,0,.66.1h1a2.18,2.18,0,0,1,1.4.39,1.38,1.38,0,0,1,.48,1.13,1.65,1.65,0,0,1-.78,1.46,4.13,4.13,0,0,1-2.26.51,3.07,3.07,0,0,1-1.73-.4,1.3,1.3,0,0,1-.6-1.15,1.24,1.24,0,0,1,.32-.86,1.77,1.77,0,0,1,.91-.48.89.89,0,0,1-.39-.33.84.84,0,0,1-.15-.47.86.86,0,0,1,.17-.53,2.51,2.51,0,0,1,.53-.43,1.53,1.53,0,0,1-.71-.6,1.87,1.87,0,0,1-.26-1,1.76,1.76,0,0,1,.57-1.4,2.4,2.4,0,0,1,1.62-.5,2.89,2.89,0,0,1,.5,0l.39.06Zm-4.38,6.43a.65.65,0,0,0,.35.59,1.86,1.86,0,0,0,1,.21,2.89,2.89,0,0,0,1.44-.28.83.83,0,0,0,.47-.73.56.56,0,0,0-.26-.52,2.1,2.1,0,0,0-1-.15h-.9a1.26,1.26,0,0,0-.81.24A.77.77,0,0,0,574.2,105.37Zm.51-4.63a1.13,1.13,0,0,0,.27.81,1,1,0,0,0,.77.28c.69,0,1-.36,1-1.1a1.21,1.21,0,0,0-.25-.83,1,1,0,0,0-.78-.3,1,1,0,0,0-.77.29A1.22,1.22,0,0,0,574.71,100.74Z"/><path class="cls-12" d="M582.43,98.84a3.17,3.17,0,0,1,.59,0l-.12,1.1a2.18,2.18,0,0,0-.52-.06,1.51,1.51,0,0,0-1.15.47,1.69,1.69,0,0,0-.44,1.2v2.91h-1.18V98.94h.92l.16,1h.06a2.15,2.15,0,0,1,.72-.8A1.77,1.77,0,0,1,582.43,98.84Z"/><path class="cls-12" d="M587.53,104.51l-.23-.78h0a2.26,2.26,0,0,1-.81.69,2.47,2.47,0,0,1-1.05.19,1.79,1.79,0,0,1-1.28-.44,1.67,1.67,0,0,1-.46-1.26,1.45,1.45,0,0,1,.64-1.29,3.51,3.51,0,0,1,1.94-.48l1,0v-.3a1.16,1.16,0,0,0-.24-.8,1.06,1.06,0,0,0-.78-.26,2.86,2.86,0,0,0-.82.12q-.39.13-.75.3l-.38-.84a3.88,3.88,0,0,1,1-.36,4.18,4.18,0,0,1,1-.13,2.42,2.42,0,0,1,1.61.47,1.79,1.79,0,0,1,.54,1.45v3.75Zm-1.76-.81a1.44,1.44,0,0,0,1-.36,1.3,1.3,0,0,0,.39-1v-.48l-.71,0a2.47,2.47,0,0,0-1.21.28.84.84,0,0,0-.38.76.75.75,0,0,0,.22.58A.92.92,0,0,0,585.77,103.7Z"/><path class="cls-12" d="M592.1,103.65a2.91,2.91,0,0,0,.87-.13v.89a3.29,3.29,0,0,1-.51.14,3.39,3.39,0,0,1-.64.06q-1.68,0-1.68-1.77v-3h-.76v-.52l.81-.44.41-1.17h.73v1.23h1.58v.9h-1.58v3a.86.86,0,0,0,.21.63A.8.8,0,0,0,592.1,103.65Z"/><path class="cls-12" d="M594,97.47a.64.64,0,0,1,.17-.49.7.7,0,0,1,.5-.17.67.67,0,0,1,.48.17.64.64,0,0,1,.18.49.61.61,0,0,1-.18.47.63.63,0,0,1-.48.18.67.67,0,0,1-.5-.18A.61.61,0,0,1,594,97.47Zm1.25,7h-1.18V98.94h1.18Z"/><path class="cls-12" d="M601.89,101.72a3.06,3.06,0,0,1-.7,2.12,2.52,2.52,0,0,1-2,.77,2.72,2.72,0,0,1-1.38-.35,2.37,2.37,0,0,1-.92-1,3.51,3.51,0,0,1-.32-1.53,3,3,0,0,1,.69-2.12,2.56,2.56,0,0,1,2-.76,2.45,2.45,0,0,1,1.91.78A3,3,0,0,1,601.89,101.72Zm-4,0c0,1.28.47,1.92,1.42,1.92s1.41-.64,1.41-1.92-.48-1.91-1.42-1.91a1.2,1.2,0,0,0-1.08.49A2.55,2.55,0,0,0,597.84,101.72Z"/><path class="cls-12" d="M608.14,104.51H607v-3.42a1.45,1.45,0,0,0-.26-1,1,1,0,0,0-.82-.32,1.33,1.33,0,0,0-1.1.44,2.48,2.48,0,0,0-.34,1.49v2.77h-1.19V98.94h.93l.17.73h.06a1.58,1.58,0,0,1,.71-.61,2.32,2.32,0,0,1,1-.22,1.79,1.79,0,0,1,2,2Z"/><path class="cls-12" d="M613.52,102.92a1.46,1.46,0,0,1-.59,1.25,2.85,2.85,0,0,1-1.7.44,4,4,0,0,1-1.79-.34v-1a4.42,4.42,0,0,0,1.83.45c.73,0,1.09-.22,1.09-.66a.53.53,0,0,0-.12-.35,1.42,1.42,0,0,0-.4-.29,5.5,5.5,0,0,0-.77-.34,3.59,3.59,0,0,1-1.3-.75,1.39,1.39,0,0,1-.34-1,1.25,1.25,0,0,1,.58-1.11,2.74,2.74,0,0,1,1.57-.4,4.49,4.49,0,0,1,1.85.4l-.38.89a4.1,4.1,0,0,0-1.52-.37c-.62,0-.93.18-.93.53a.53.53,0,0,0,.24.44,5,5,0,0,0,1.07.5,4.87,4.87,0,0,1,1,.49,1.35,1.35,0,0,1,.61,1.2Z"/><rect class="cls-12" x="511.04" y="119.04" width="117.42" height="1.67"/><rect class="cls-18" x="36.63" y="120.73" width="660.14" height="1.47"/><path class="cls-19" d="M68,162.52h-5.6v-9.9H68V154h-4v2.69h3.73V158H64.06v3.11h4Z"/><path class="cls-19" d="M71.68,158.69,69.17,155H71l1.7,2.62L74.41,155h1.81l-2.52,3.66,2.65,3.83H74.54l-1.85-2.8-1.84,2.8h-1.8Z"/><path class="cls-19" d="M77.57,153a.85.85,0,0,1,.23-.65.9.9,0,0,1,.67-.23.86.86,0,0,1,.65.23.85.85,0,0,1,.23.65.84.84,0,0,1-.23.64.87.87,0,0,1-.65.24.9.9,0,0,1-.67-.24A.84.84,0,0,1,77.57,153Zm1.68,9.48H77.66V155h1.59Z"/><path class="cls-19" d="M86.56,160.39a2,2,0,0,1-.79,1.68,3.87,3.87,0,0,1-2.3.59,5.29,5.29,0,0,1-2.4-.46v-1.37a5.85,5.85,0,0,0,2.46.61c1,0,1.47-.3,1.47-.89a.67.67,0,0,0-.16-.47,2,2,0,0,0-.54-.4c-.25-.13-.59-.28-1-.46a4.86,4.86,0,0,1-1.75-1,1.87,1.87,0,0,1-.45-1.3,1.69,1.69,0,0,1,.77-1.49,3.64,3.64,0,0,1,2.11-.54,5.92,5.92,0,0,1,2.5.54l-.51,1.2a5.45,5.45,0,0,0-2-.5c-.84,0-1.26.24-1.26.71a.72.72,0,0,0,.33.6,7,7,0,0,0,1.43.67,6.49,6.49,0,0,1,1.35.66,1.83,1.83,0,0,1,.82,1.62Z"/><path class="cls-19" d="M91.08,161.37a3.9,3.9,0,0,0,1.16-.18v1.2a3.37,3.37,0,0,1-.68.19,4.82,4.82,0,0,1-.86.08c-1.51,0-2.27-.8-2.27-2.39v-4h-1v-.7l1.1-.58.54-1.59h1V155h2.14v1.2H90v4a1.15,1.15,0,0,0,.29.85A1.07,1.07,0,0,0,91.08,161.37Z"/><path class="cls-19" d="M93.65,153a.85.85,0,0,1,.23-.65.9.9,0,0,1,.67-.23.8.8,0,0,1,.88.88.84.84,0,0,1-.23.64.85.85,0,0,1-.65.24.9.9,0,0,1-.67-.24A.84.84,0,0,1,93.65,153Zm1.68,9.48H93.74V155h1.59Z"/><path class="cls-19" d="M104.2,162.52h-1.6v-4.6a2.06,2.06,0,0,0-.34-1.3,1.39,1.39,0,0,0-1.11-.43,1.75,1.75,0,0,0-1.48.6,3.3,3.3,0,0,0-.47,2v3.73H97.61V155h1.25l.22,1h.08a2.29,2.29,0,0,1,1-.83,3.32,3.32,0,0,1,1.39-.29c1.79,0,2.69.92,2.69,2.75Z"/><path class="cls-19" d="M112.75,155v.87l-1.28.24a2.1,2.1,0,0,1,.29.58,2.25,2.25,0,0,1,.11.74,2.22,2.22,0,0,1-.8,1.82,3.34,3.34,0,0,1-2.2.66,4.29,4.29,0,0,1-.65-.05.89.89,0,0,0-.51.74.43.43,0,0,0,.24.39,2.15,2.15,0,0,0,.88.13h1.31a2.85,2.85,0,0,1,1.88.53,1.85,1.85,0,0,1,.65,1.52,2.22,2.22,0,0,1-1,2,5.56,5.56,0,0,1-3,.69,4.22,4.22,0,0,1-2.34-.54,1.78,1.78,0,0,1-.8-1.55,1.63,1.63,0,0,1,.43-1.16,2.47,2.47,0,0,1,1.23-.66,1.17,1.17,0,0,1-.53-.43,1.1,1.1,0,0,1-.2-.64,1.08,1.08,0,0,1,.23-.71,2.93,2.93,0,0,1,.71-.57,2.09,2.09,0,0,1-1-.82,2.68,2.68,0,0,1,.41-3.22,3.26,3.26,0,0,1,2.19-.67,5.29,5.29,0,0,1,.67.05,4.41,4.41,0,0,1,.52.09Zm-5.89,8.66a.86.86,0,0,0,.46.79,2.53,2.53,0,0,0,1.31.28,3.94,3.94,0,0,0,1.94-.37,1.12,1.12,0,0,0,.63-1,.74.74,0,0,0-.35-.7,2.89,2.89,0,0,0-1.29-.2h-1.21a1.67,1.67,0,0,0-1.09.32A1,1,0,0,0,106.86,163.69Zm.68-6.23a1.5,1.5,0,0,0,.37,1.08,1.38,1.38,0,0,0,1,.38c.92,0,1.38-.49,1.38-1.48a1.68,1.68,0,0,0-.34-1.13,1.32,1.32,0,0,0-1-.39,1.36,1.36,0,0,0-1,.39A1.63,1.63,0,0,0,107.54,157.46Z"/><path class="cls-19" d="M117.91,162.52v-9.9h1.62v9.9Z"/><path class="cls-19" d="M128.57,162.52H127v-4.6a2,2,0,0,0-.35-1.3,1.35,1.35,0,0,0-1.1-.43,1.75,1.75,0,0,0-1.48.6,3.3,3.3,0,0,0-.47,2v3.73H122V155h1.25l.22,1h.08a2.29,2.29,0,0,1,1-.83,3.31,3.31,0,0,1,1.38-.29c1.8,0,2.7.92,2.7,2.75Z"/><path class="cls-19" d="M133.58,161.37a3.85,3.85,0,0,0,1.16-.18v1.2a3.37,3.37,0,0,1-.68.19,4.74,4.74,0,0,1-.86.08c-1.51,0-2.26-.8-2.26-2.39v-4h-1v-.7L131,155l.54-1.59h1V155h2.13v1.2h-2.13v4a1.15,1.15,0,0,0,.28.85A1.09,1.09,0,0,0,133.58,161.37Z"/><path class="cls-19" d="M139.52,162.66a3.64,3.64,0,0,1-2.74-1,3.86,3.86,0,0,1-1-2.81,4.26,4.26,0,0,1,.91-2.89,3.16,3.16,0,0,1,2.51-1.05,3.07,3.07,0,0,1,2.35.91,3.44,3.44,0,0,1,.86,2.47v.87h-5a2.49,2.49,0,0,0,.59,1.67,2.09,2.09,0,0,0,1.57.59,5.48,5.48,0,0,0,1.24-.13,6.56,6.56,0,0,0,1.23-.41v1.29a4.54,4.54,0,0,1-1.18.39A7,7,0,0,1,139.52,162.66Zm-.3-6.56a1.59,1.59,0,0,0-1.21.48,2.27,2.27,0,0,0-.55,1.4h3.4a2,2,0,0,0-.44-1.4A1.54,1.54,0,0,0,139.22,156.1Z"/><path class="cls-19" d="M150.57,155v.87l-1.28.24a2.41,2.41,0,0,1,.29.58,2.25,2.25,0,0,1,.11.74,2.22,2.22,0,0,1-.8,1.82,3.34,3.34,0,0,1-2.2.66,4.29,4.29,0,0,1-.65-.05.89.89,0,0,0-.51.74.43.43,0,0,0,.24.39,2.15,2.15,0,0,0,.88.13H148a2.85,2.85,0,0,1,1.88.53,1.85,1.85,0,0,1,.65,1.52,2.22,2.22,0,0,1-1.05,2,5.56,5.56,0,0,1-3,.69,4.22,4.22,0,0,1-2.34-.54,1.78,1.78,0,0,1-.8-1.55,1.63,1.63,0,0,1,.43-1.16,2.43,2.43,0,0,1,1.23-.66,1.17,1.17,0,0,1-.53-.43,1.11,1.11,0,0,1-.21-.64,1.09,1.09,0,0,1,.24-.71,2.75,2.75,0,0,1,.71-.57,2.09,2.09,0,0,1-.95-.82,2.42,2.42,0,0,1-.36-1.32,2.37,2.37,0,0,1,.77-1.9,3.26,3.26,0,0,1,2.19-.67,5.29,5.29,0,0,1,.67.05,4.41,4.41,0,0,1,.52.09Zm-5.89,8.66a.86.86,0,0,0,.46.79,2.53,2.53,0,0,0,1.31.28,3.94,3.94,0,0,0,1.94-.37,1.12,1.12,0,0,0,.63-1,.74.74,0,0,0-.35-.7,2.89,2.89,0,0,0-1.29-.2h-1.21a1.67,1.67,0,0,0-1.09.32A1,1,0,0,0,144.68,163.69Zm.68-6.23a1.46,1.46,0,0,0,.37,1.08,1.37,1.37,0,0,0,1,.38c.92,0,1.38-.49,1.38-1.48a1.73,1.73,0,0,0-.34-1.13,1.32,1.32,0,0,0-1-.39,1.36,1.36,0,0,0-1.05.39A1.63,1.63,0,0,0,145.36,157.46Z"/><path class="cls-19" d="M155.76,154.89a4.2,4.2,0,0,1,.79.07l-.15,1.48a3.29,3.29,0,0,0-.71-.08,2,2,0,0,0-1.55.63,2.26,2.26,0,0,0-.59,1.62v3.91H152V155h1.24l.21,1.32h.09a2.84,2.84,0,0,1,1-1.06A2.26,2.26,0,0,1,155.76,154.89Z"/><path class="cls-19" d="M162.63,162.52l-.32-1h-.05a3,3,0,0,1-1.09.93,3.39,3.39,0,0,1-1.41.25,2.38,2.38,0,0,1-1.73-.6,2.23,2.23,0,0,1-.62-1.68,2,2,0,0,1,.86-1.75,5,5,0,0,1,2.62-.65l1.3,0v-.4a1.48,1.48,0,0,0-.34-1.07,1.35,1.35,0,0,0-1-.36,3.67,3.67,0,0,0-1.1.17c-.35.12-.69.25-1,.4l-.51-1.14a5.52,5.52,0,0,1,1.33-.48,6.25,6.25,0,0,1,1.37-.17,3.24,3.24,0,0,1,2.16.63,2.42,2.42,0,0,1,.73,2v5Zm-2.37-1.08a2,2,0,0,0,1.39-.48,1.78,1.78,0,0,0,.53-1.36V159l-1,0a3.23,3.23,0,0,0-1.63.37,1.16,1.16,0,0,0-.51,1,1,1,0,0,0,.29.78A1.31,1.31,0,0,0,160.26,161.44Z"/><path class="cls-19" d="M168.78,161.37a4,4,0,0,0,1.17-.18v1.2a3.8,3.8,0,0,1-.68.19,4.94,4.94,0,0,1-.87.08c-1.51,0-2.26-.8-2.26-2.39v-4h-1v-.7l1.09-.58.55-1.59h1V155h2.13v1.2h-2.13v4a1.11,1.11,0,0,0,.29.85A1,1,0,0,0,168.78,161.37Z"/><path class="cls-19" d="M171.35,153a.94.94,0,1,1,.9.88.9.9,0,0,1-.67-.24A.88.88,0,0,1,171.35,153Zm1.69,9.48h-1.59V155H173Z"/><path class="cls-19" d="M182,158.76a4.09,4.09,0,0,1-.94,2.87,3.36,3.36,0,0,1-2.62,1,3.58,3.58,0,0,1-1.86-.48,3.09,3.09,0,0,1-1.24-1.36,4.63,4.63,0,0,1-.43-2.06,4.07,4.07,0,0,1,.93-2.84,3.39,3.39,0,0,1,2.64-1,3.29,3.29,0,0,1,2.57,1.05A4,4,0,0,1,182,158.76Zm-5.45,0c0,1.73.64,2.6,1.92,2.6s1.89-.87,1.89-2.6-.63-2.57-1.91-2.57a1.63,1.63,0,0,0-1.45.67A3.38,3.38,0,0,0,176.51,158.76Z"/><path class="cls-19" d="M190.39,162.52h-1.6v-4.6a2.06,2.06,0,0,0-.35-1.3,1.37,1.37,0,0,0-1.11-.43,1.76,1.76,0,0,0-1.48.6,3.31,3.31,0,0,0-.46,2v3.73h-1.6V155H185l.22,1h.08a2.26,2.26,0,0,1,1-.83,3.25,3.25,0,0,1,1.38-.29c1.8,0,2.7.92,2.7,2.75Z"/><path class="cls-19" d="M197.64,160.39a2,2,0,0,1-.8,1.68,3.85,3.85,0,0,1-2.29.59,5.33,5.33,0,0,1-2.41-.46v-1.37a5.85,5.85,0,0,0,2.46.61c1,0,1.47-.3,1.47-.89a.67.67,0,0,0-.16-.47,2,2,0,0,0-.54-.4c-.24-.13-.59-.28-1-.46a4.83,4.83,0,0,1-1.76-1,1.87,1.87,0,0,1-.45-1.3,1.71,1.71,0,0,1,.77-1.49,3.64,3.64,0,0,1,2.11-.54,5.92,5.92,0,0,1,2.5.54l-.51,1.2a5.45,5.45,0,0,0-2-.5c-.84,0-1.26.24-1.26.71a.72.72,0,0,0,.33.6,7,7,0,0,0,1.43.67,6.49,6.49,0,0,1,1.35.66,1.92,1.92,0,0,1,.62.69A1.94,1.94,0,0,1,197.64,160.39Z"/><rect class="cls-2" x="61.13" y="192.43" width="247.34" height="142.01" rx="4.01" ry="4.01"/><path class="cls-20" d="M302.56,335.18H67a6.65,6.65,0,0,1-6.64-6.64V198.34A6.65,6.65,0,0,1,67,191.7H302.56a6.65,6.65,0,0,1,6.65,6.64v130.2A6.65,6.65,0,0,1,302.56,335.18ZM67,193.17a5.18,5.18,0,0,0-5.17,5.17v130.2A5.18,5.18,0,0,0,67,333.71H302.56a5.18,5.18,0,0,0,5.18-5.17V198.34a5.18,5.18,0,0,0-5.18-5.17Z"/><path class="cls-19" d="M132,269l-1.32-3.7h-5.09l-1.31,3.7H122l5-13.37h2.37l5,13.37Zm-1.9-5.57-1.24-3.63c-.1-.24-.22-.62-.38-1.14s-.27-.91-.34-1.15a21.15,21.15,0,0,1-.71,2.45l-1.21,3.47Z"/><path class="cls-19" d="M139.2,269.14a3.53,3.53,0,0,1-2.94-1.37,7.5,7.5,0,0,1,0-7.69,3.55,3.55,0,0,1,3-1.37,3.48,3.48,0,0,1,3,1.46h.11a13.15,13.15,0,0,1-.15-1.71v-3.67h2.15V269h-1.68l-.37-1.32h-.1A3.43,3.43,0,0,1,139.2,269.14Zm.58-1.73a2.34,2.34,0,0,0,1.92-.74,3.91,3.91,0,0,0,.62-2.41V264a4.51,4.51,0,0,0-.62-2.7,2.28,2.28,0,0,0-1.94-.81,2,2,0,0,0-1.74.92,4.66,4.66,0,0,0-.61,2.61,4.6,4.6,0,0,0,.59,2.55A2,2,0,0,0,139.78,267.41Z"/><path class="cls-19" d="M150.82,269.14a3.5,3.5,0,0,1-2.94-1.37,6.14,6.14,0,0,1-1.06-3.83,6.21,6.21,0,0,1,1.07-3.86,3.58,3.58,0,0,1,3-1.37,3.48,3.48,0,0,1,3,1.46H154a13.15,13.15,0,0,1-.15-1.71v-3.67H156V269h-1.67l-.37-1.32h-.1A3.44,3.44,0,0,1,150.82,269.14Zm.58-1.73a2.35,2.35,0,0,0,1.92-.74,4,4,0,0,0,.62-2.41V264a4.51,4.51,0,0,0-.62-2.7,2.3,2.3,0,0,0-1.94-.81,2,2,0,0,0-1.74.92A4.66,4.66,0,0,0,149,264a4.52,4.52,0,0,0,.59,2.55A2,2,0,0,0,151.4,267.41Z"/><path class="cls-19" d="M170.19,269l-.43-1.4h-.07a4.19,4.19,0,0,1-1.47,1.25,4.64,4.64,0,0,1-1.89.33,3.24,3.24,0,0,1-2.32-.8,3,3,0,0,1-.83-2.27,2.66,2.66,0,0,1,1.15-2.35,6.69,6.69,0,0,1,3.53-.86l1.74-.06v-.53a2,2,0,0,0-.45-1.45,1.84,1.84,0,0,0-1.4-.47,4.93,4.93,0,0,0-1.49.22,10.13,10.13,0,0,0-1.36.54l-.69-1.53a7.18,7.18,0,0,1,1.79-.65,8.16,8.16,0,0,1,1.84-.22,4.4,4.4,0,0,1,2.9.83,3.3,3.3,0,0,1,1,2.63V269ZM167,267.5a2.61,2.61,0,0,0,1.87-.65,2.36,2.36,0,0,0,.71-1.83v-.87l-1.29.05a4.43,4.43,0,0,0-2.2.51,1.53,1.53,0,0,0-.69,1.38,1.32,1.32,0,0,0,.4,1A1.71,1.71,0,0,0,167,267.5Z"/><path class="cls-19" d="M183.56,269h-2.14v-6.19A2.72,2.72,0,0,0,181,261a1.84,1.84,0,0,0-1.49-.58,2.36,2.36,0,0,0-2,.81,4.38,4.38,0,0,0-.63,2.68v5H174.7V258.89h1.68l.3,1.32h.11a2.93,2.93,0,0,1,1.29-1.11,4.36,4.36,0,0,1,1.86-.39c2.42,0,3.62,1.23,3.62,3.68Z"/><path class="cls-19" d="M191.26,256.22a1.17,1.17,0,0,1,.31-.88,1.22,1.22,0,0,1,.9-.31,1.2,1.2,0,0,1,.88.31,1.38,1.38,0,0,1,0,1.74,1.2,1.2,0,0,1-.88.32,1.22,1.22,0,0,1-.9-.32A1.16,1.16,0,0,1,191.26,256.22ZM193.52,269h-2.14V258.89h2.14Z"/><path class="cls-19" d="M205.44,269h-2.15v-6.19a2.72,2.72,0,0,0-.46-1.74,1.84,1.84,0,0,0-1.49-.58,2.36,2.36,0,0,0-2,.81,4.38,4.38,0,0,0-.63,2.68v5h-2.14V258.89h1.68l.3,1.32h.11A2.93,2.93,0,0,1,200,259.1a4.36,4.36,0,0,1,1.86-.39c2.42,0,3.62,1.23,3.62,3.68Z"/><path class="cls-19" d="M212.17,267.41a5,5,0,0,0,1.57-.25v1.62a4.52,4.52,0,0,1-.92.26,7.26,7.26,0,0,1-1.16.1q-3,0-3-3.21v-5.42h-1.37v-.95l1.47-.78.73-2.13h1.32v2.24h2.87v1.62h-2.87v5.39a1.48,1.48,0,0,0,.39,1.14A1.37,1.37,0,0,0,212.17,267.41Z"/><path class="cls-19" d="M220.15,269.14a4.9,4.9,0,0,1-3.68-1.37,5.2,5.2,0,0,1-1.32-3.77,5.7,5.7,0,0,1,1.23-3.88,4.24,4.24,0,0,1,3.38-1.41,4.14,4.14,0,0,1,3.15,1.21,4.6,4.6,0,0,1,1.15,3.33v1.16h-6.71a3.36,3.36,0,0,0,.79,2.25,2.79,2.79,0,0,0,2.11.79,7.91,7.91,0,0,0,1.66-.17,8.7,8.7,0,0,0,1.65-.56v1.74A6.84,6.84,0,0,1,222,269,10.11,10.11,0,0,1,220.15,269.14Zm-.39-8.81a2.16,2.16,0,0,0-1.64.64,3.09,3.09,0,0,0-.73,1.89H222a2.78,2.78,0,0,0-.6-1.89A2,2,0,0,0,219.76,260.33Z"/><path class="cls-19" d="M235,258.89v1.17l-1.72.32a2.71,2.71,0,0,1,.39.78,3.21,3.21,0,0,1,.15,1,3,3,0,0,1-1.07,2.45,4.53,4.53,0,0,1-3,.89,4.65,4.65,0,0,1-.87-.07,1.19,1.19,0,0,0-.7,1,.56.56,0,0,0,.33.52,2.88,2.88,0,0,0,1.19.17h1.75a3.91,3.91,0,0,1,2.53.71,2.49,2.49,0,0,1,.87,2.05,3,3,0,0,1-1.41,2.64,7.42,7.42,0,0,1-4.08.93,5.59,5.59,0,0,1-3.14-.73,2.35,2.35,0,0,1-1.09-2.08,2.21,2.21,0,0,1,.59-1.56,3.2,3.2,0,0,1,1.64-.88,1.57,1.57,0,0,1-.7-.58,1.52,1.52,0,0,1,0-1.81,3.77,3.77,0,0,1,.95-.78,2.74,2.74,0,0,1-1.27-1.09,3.58,3.58,0,0,1,.54-4.32,4.35,4.35,0,0,1,2.95-.9,7.28,7.28,0,0,1,.9.06,4.67,4.67,0,0,1,.7.12Zm-7.91,11.63a1.18,1.18,0,0,0,.62,1.07,3.42,3.42,0,0,0,1.75.37,5.24,5.24,0,0,0,2.61-.5,1.48,1.48,0,0,0,.85-1.33,1,1,0,0,0-.47-.93,3.67,3.67,0,0,0-1.74-.28h-1.62a2.33,2.33,0,0,0-1.46.43A1.42,1.42,0,0,0,227.09,270.52Zm.92-8.37a2.07,2.07,0,0,0,.48,1.46,1.89,1.89,0,0,0,1.4.51c1.24,0,1.86-.67,1.86-2a2.3,2.3,0,0,0-.46-1.52,1.77,1.77,0,0,0-1.4-.53,1.82,1.82,0,0,0-1.41.53A2.2,2.2,0,0,0,228,262.15Z"/><path class="cls-19" d="M242,258.71a5.27,5.27,0,0,1,1.07.09l-.21,2a4.26,4.26,0,0,0-1-.11,2.74,2.74,0,0,0-2.08.84,3,3,0,0,0-.8,2.17V269h-2.14V258.89h1.68l.28,1.77h.11a4,4,0,0,1,1.31-1.43A3.08,3.08,0,0,1,242,258.71Z"/><path class="cls-19" d="M251.2,269l-.42-1.4h-.08a4.09,4.09,0,0,1-1.46,1.25,4.66,4.66,0,0,1-1.9.33,3.21,3.21,0,0,1-2.31-.8,3,3,0,0,1-.84-2.27,2.67,2.67,0,0,1,1.16-2.35,6.67,6.67,0,0,1,3.52-.86l1.74-.06v-.53a2,2,0,0,0-.45-1.45,1.81,1.81,0,0,0-1.39-.47,4.89,4.89,0,0,0-1.49.22,10.13,10.13,0,0,0-1.36.54l-.7-1.53a7.4,7.4,0,0,1,1.8-.65,8.16,8.16,0,0,1,1.84-.22,4.42,4.42,0,0,1,2.9.83,3.29,3.29,0,0,1,1,2.63V269ZM248,267.5a2.61,2.61,0,0,0,1.87-.65,2.36,2.36,0,0,0,.71-1.83v-.87l-1.3.05a4.46,4.46,0,0,0-2.2.51,1.55,1.55,0,0,0-.68,1.38,1.32,1.32,0,0,0,.4,1A1.68,1.68,0,0,0,248,267.5Z"/><path class="cls-19" d="M259.47,267.41a5,5,0,0,0,1.57-.25v1.62a4.52,4.52,0,0,1-.92.26,7.26,7.26,0,0,1-1.16.1q-3,0-3-3.21v-5.42h-1.37v-.95l1.47-.78.73-2.13h1.32v2.24h2.87v1.62h-2.87v5.39a1.48,1.48,0,0,0,.39,1.14A1.38,1.38,0,0,0,259.47,267.41Z"/><path class="cls-19" d="M262.92,256.22a1.17,1.17,0,0,1,.32-.88,1.21,1.21,0,0,1,.89-.31,1.09,1.09,0,0,1,1.2,1.19,1.17,1.17,0,0,1-.32.86,1.19,1.19,0,0,1-.88.32,1.21,1.21,0,0,1-.89-.32A1.17,1.17,0,0,1,262.92,256.22ZM265.19,269h-2.14V258.89h2.14Z"/><path class="cls-19" d="M277.18,263.91a5.53,5.53,0,0,1-1.26,3.85,4.56,4.56,0,0,1-3.53,1.38,4.76,4.76,0,0,1-2.49-.64,4.13,4.13,0,0,1-1.67-1.83,6.16,6.16,0,0,1-.58-2.76,5.46,5.46,0,0,1,1.26-3.83,4.52,4.52,0,0,1,3.54-1.37,4.43,4.43,0,0,1,3.46,1.4A5.46,5.46,0,0,1,277.18,263.91Zm-7.33,0q0,3.48,2.58,3.48t2.55-3.48q0-3.46-2.57-3.46a2.17,2.17,0,0,0-2,.9A4.46,4.46,0,0,0,269.85,263.91Z"/><path class="cls-19" d="M288.5,269h-2.15v-6.19a2.72,2.72,0,0,0-.47-1.74,1.82,1.82,0,0,0-1.49-.58,2.35,2.35,0,0,0-2,.81,4.38,4.38,0,0,0-.63,2.68v5h-2.14V258.89h1.68l.3,1.32h.11A2.93,2.93,0,0,1,283,259.1a4.36,4.36,0,0,1,1.86-.39q3.62,0,3.62,3.68Z"/><path class="cls-12" d="M98.91,248.82a13.41,13.41,0,1,0,13.41,13.41A13.41,13.41,0,0,0,98.91,248.82Zm6.73,15H100v5.65H97.37v-5.65H91.72v-2.62h5.65v-5.65H100v5.65h5.65Z"/><path class="cls-20" d="M730.17,417H0V0H730.17ZM1.47,415.54H728.7V1.47H1.47Z"/><path class="cls-21" d="M728.55,415.51V291.18s-115-2.67-124.67,124.33Z"/><path d="M663.33,373c-.22-.29-.37-.53-.56-.74-3.72-4-2.15-9,3.24-10.38.53-.14,1.32-.56,1.39-1,.51-2.87,2.33-4.58,5.36-6-1.62-1.44-3.1-2.62-4.42-3.95-2.81-2.87-2.89-6.05-.34-8.64s5.64-2.57,8.47.18c5.93,5.77,11.74,11.67,17.61,17.51.4.4.85.77,1.74,1.58,0-3.19-.11-5.9,0-8.6a5.62,5.62,0,0,1,7.55-5.11,5.85,5.85,0,0,1,3.82,4.89c1.32,7.71,3,15.41,1.41,23.29a4.48,4.48,0,0,0,1.63,4.41c3.11,2.94,3.07,3.09,0,6.15q-8.36,8.27-16.76,16.49c-1.93,1.9-2.49,2-4.23,0a14,14,0,0,0-7.78-4.46,25.71,25.71,0,0,1-14.69-9,47.23,47.23,0,0,0-6-6c-3.65-3.14-3.07-7.27,1.38-9.94C662.51,373.4,662.89,373.2,663.33,373ZM709.87,383a11.49,11.49,0,0,1-2.59-2.17c-.68-1-1.42-2.39-1.23-3.46,1.47-8.33.21-16.46-1.43-24.6-.43-2.1-1.69-2.76-3.54-2.71a3.21,3.21,0,0,0-3,3.36,20.56,20.56,0,0,0,0,3c.32,3-.9,6.1,1,8.91.14.2-.11.89-.37,1.08a1.4,1.4,0,0,1-1.2.07,5.82,5.82,0,0,1-1.3-1.14l-20.36-20.32a18.12,18.12,0,0,0-1.42-1.35,3.33,3.33,0,0,0-4.87.17,3.27,3.27,0,0,0-.34,4.68,14.14,14.14,0,0,0,1.59,1.78c4.57,4.58,9.17,9.13,13.68,13.76.52.53.55,1.53.82,2.31a6.2,6.2,0,0,1-2.17-.85c-2.49-2.33-4.83-4.83-7.31-7.17-1.61-1.53-3.37-1.35-5,.29s-1.64,3.26,0,4.93c2.33,2.39,4.75,4.71,7,7.15a6.23,6.23,0,0,1,.83,2.18c-.79-.23-1.79-.24-2.34-.75-2.39-2.21-4.66-4.57-7-6.89-1.43-1.43-2.91-1.76-4.61-.39-2.25,1.8-2.41,3.58-.39,5.63,2.4,2.43,4.86,4.81,7.2,7.29.38.4.31,1.23.45,1.86-.68-.11-1.51,0-2-.38a31.39,31.39,0,0,1-2.81-2.73c-2-2-3.25-2-5.16-.09s-1.94,3.09.1,5.15c3.11,3.15,6.31,6.22,9.37,9.43A15.53,15.53,0,0,0,678,395c4.73,1.64,10.06,2.17,13,6.73Z"/><path class="cls-2" d="M709.87,383,691,401.71c-2.94-4.56-8.27-5.09-13-6.73a15.53,15.53,0,0,1-6.41-3.89c-3.06-3.21-6.26-6.28-9.37-9.43-2-2.06-2-3.2-.1-5.15s3.11-1.91,5.16.09a31.39,31.39,0,0,0,2.81,2.73c.49.37,1.32.27,2,.38-.14-.63-.07-1.46-.45-1.86-2.34-2.48-4.8-4.86-7.2-7.29-2-2.05-1.86-3.83.39-5.63,1.7-1.37,3.18-1,4.61.39,2.31,2.32,4.58,4.68,7,6.89.55.51,1.55.52,2.34.75a6.23,6.23,0,0,0-.83-2.18c-2.28-2.44-4.7-4.76-7-7.15-1.63-1.67-1.6-3.27,0-4.93s3.35-1.82,5-.29c2.48,2.34,4.82,4.84,7.31,7.17a6.2,6.2,0,0,0,2.17.85c-.27-.78-.3-1.78-.82-2.31-4.51-4.63-9.11-9.18-13.68-13.76a14.14,14.14,0,0,1-1.59-1.78,3.27,3.27,0,0,1,.34-4.68,3.33,3.33,0,0,1,4.87-.17,18.12,18.12,0,0,1,1.42,1.35L696.2,365.4a5.82,5.82,0,0,0,1.3,1.14,1.4,1.4,0,0,0,1.2-.07c.26-.19.51-.88.37-1.08-1.9-2.81-.68-5.94-1-8.91a20.56,20.56,0,0,1,0-3,3.21,3.21,0,0,1,3-3.36c1.85-.05,3.11.61,3.54,2.71,1.64,8.14,2.9,16.27,1.43,24.6-.19,1.07.55,2.47,1.23,3.46A11.49,11.49,0,0,0,709.87,383Z"/><rect class="cls-22" x="671.69" y="321.18" width="2.17" height="14" rx="1.08" ry="1.08"/><rect class="cls-22" x="653.51" y="339.32" width="2.17" height="14" rx="1.08" ry="1.08" transform="translate(308.27 1000.91) rotate(-90)"/><rect class="cls-22" x="658.46" y="352.32" width="2.17" height="14" rx="1.08" ry="1.08" transform="translate(871.83 1079.77) rotate(-135)"/><rect class="cls-22" x="658.82" y="326.7" width="2.17" height="14" rx="1.08" ry="1.08" transform="translate(-42.68 564.36) rotate(-45)"/><rect class="cls-22" x="684.64" y="326.7" width="2.17" height="14" rx="1.08" ry="1.08" transform="translate(436.8 -387.14) rotate(45)"/></g></g></g></svg>