<svg xmlns="http://www.w3.org/2000/svg" viewBox="0 0 53.62 53.62"><defs><style>.cls-1{fill:#3cb7f7;opacity:0.15;}.cls-2{fill:none;}.cls-3{fill:#007ae5;}</style></defs><title>date-mapping</title><g id="Layer_2" data-name="Layer 2"><g id="Top_layer" data-name="Top layer"><circle class="cls-1" cx="26.81" cy="26.81" r="26.81"/><g id="Frame_-_24px" data-name="Frame - 24px"><rect class="cls-2" x="10.35" y="10.35" width="32.92" height="32.92"/></g><g id="Line_Icons" data-name="Line Icons"><path class="cls-3" d="M39.15,14.47H35V11.73H32.3V20H35V17.21h4.11V37.78H14.47V17.21h2.74V14.47H14.47a2.75,2.75,0,0,0-2.75,2.74V37.78a2.75,2.75,0,0,0,2.75,2.75H39.15a2.75,2.75,0,0,0,2.75-2.75V17.21A2.75,2.75,0,0,0,39.15,14.47Z"/><polygon class="cls-3" points="30.93 14.47 21.32 14.47 21.32 11.73 18.58 11.73 18.58 19.95 21.32 19.95 21.32 17.21 30.93 17.21 30.93 14.47"/><polygon class="cls-3" points="25.44 34.24 20.36 29.15 22.3 27.21 25.44 30.36 31.33 24.47 33.27 26.41 25.44 34.24"/></g></g></g></svg>