<svg xmlns="http://www.w3.org/2000/svg" viewBox="0 0 53.62 53.62"><defs><style>.cls-1{fill:#3cb7f7;opacity:0.15;}.cls-2{fill:none;}.cls-3{fill:#007ae5;}</style></defs><title>field-mapping</title><g id="Layer_2" data-name="Layer 2"><g id="Top_layer" data-name="Top layer"><circle class="cls-1" cx="26.81" cy="26.81" r="26.81"/><g id="Frame_-_24px" data-name="Frame - 24px"><rect class="cls-2" x="9.33" y="8.3" width="34.96" height="34.96"/></g><g id="Line_Icons" data-name="Line Icons"><path class="cls-3" d="M41,37.15,38.75,26.88a3.39,3.39,0,0,0-3.2-2.56H34.09v2.91h1.46a.47.47,0,0,1,.35.29l2.2,9.91H15.52l2.2-9.91a.49.49,0,0,1,.35-.29h1.46V24.32H18.07a3.38,3.38,0,0,0-3.19,2.56L12.6,37.15a2.57,2.57,0,0,0,2.56,3.19h23.3a2.66,2.66,0,0,0,2.08-1A2.63,2.63,0,0,0,41,37.15Z"/><path class="cls-3" d="M26.81,9.64A7.32,7.32,0,0,0,19.49,17c0,5.49,7.32,14.64,7.32,14.64S34.13,22.45,34.13,17A7.32,7.32,0,0,0,26.81,9.64Zm0,11A3.66,3.66,0,1,1,30.47,17,3.66,3.66,0,0,1,26.81,20.62Z"/></g></g></g></svg>