<svg xmlns="http://www.w3.org/2000/svg" viewBox="0 0 53.62 53.62"><defs><style>.cls-1{fill:#3cb7f7;opacity:0.15;}.cls-2{fill:#007ae5;}</style></defs><title>jira-cloud</title><g id="Layer_2" data-name="Layer 2"><g id="Top_layer" data-name="Top layer"><circle class="cls-1" cx="26.81" cy="26.81" r="26.81"/><path class="cls-2" d="M37.29,34.06a4.31,4.31,0,0,0,3.16-1.33,4.51,4.51,0,0,0-3.16-7.67H35v-.77a8.16,8.16,0,0,0-8.23-8.23,7.9,7.9,0,0,0-5,1.69A8.24,8.24,0,0,0,18.87,22H17.81a5.72,5.72,0,0,0-4.22,1.79,5.88,5.88,0,0,0-1.76,4.25,6,6,0,0,0,6,6Zm.56-12a7.31,7.31,0,0,1,4.92,2.35,7.15,7.15,0,0,1,2,5.1,7.55,7.55,0,0,1-7.52,7.52H17.81a8.66,8.66,0,0,1-6.36-2.63,9,9,0,0,1-.32-12.38,8.65,8.65,0,0,1,5.7-2.91A11.61,11.61,0,0,1,21,14.73,10.65,10.65,0,0,1,26.81,13a11.2,11.2,0,0,1,11,9.07Z"/></g></g></svg>