<?xml version="1.0" encoding="utf-8"?>
<!-- Generator: Adobe Illustrator 22.0.1, SVG Export Plug-In . SVG Version: 6.00 Build 0)  -->
<svg version="1.1" id="Layer_1" xmlns="http://www.w3.org/2000/svg" xmlns:xlink="http://www.w3.org/1999/xlink" x="0px" y="0px"
	 viewBox="0 0 178.3 60.8" style="enable-background:new 0 0 178.3 60.8;" xml:space="preserve">
<style type="text/css">
	.st0{fill:#2684FF;}
	.st1{fill:url(#SVGID_1_);}
	.st2{fill:url(#SVGID_2_);}
	.st3{fill:#CCCCCC;}
	.st4{fill:#FF7B57;}
	.st5{fill:#3CB7F7;}
	.st6{fill:#26D1C4;}
	.st7{fill:#007AE5;}
</style>
<title>jira-roadmunk</title>
<g id="Top_layer">
	<path class="st0" d="M177.6,28.7L151.5,2.5L148.9,0l0,0l-19.7,19.7l0,0l-9,9c-0.9,0.9-0.9,2.5,0,3.4c0,0,0,0,0,0l18,18l10.7,10.7
		l19.7-19.7l0.3-0.3l8.7-8.7C178.6,31.2,178.6,29.6,177.6,28.7C177.6,28.7,177.6,28.7,177.6,28.7z M148.9,39.4l-9-9l9-9l9,9
		L148.9,39.4z"/>
	
		<linearGradient id="SVGID_1_" gradientUnits="userSpaceOnUse" x1="147.3275" y1="1117.3774" x2="134.7875" y2="1129.9175" gradientTransform="matrix(1 0 0 1 0 -1105.0699)">
		<stop  offset="0.18" style="stop-color:#0052CC"/>
		<stop  offset="1" style="stop-color:#2684FF"/>
	</linearGradient>
	<path class="st1" d="M148.9,21.4c-5.9-5.9-5.9-15.4-0.1-21.3l-19.7,19.6l10.7,10.7L148.9,21.4z"/>
	
		<linearGradient id="SVGID_2_" gradientUnits="userSpaceOnUse" x1="150.6833" y1="1153.4332" x2="163.1933" y2="1140.9132" gradientTransform="matrix(1 0 0 1 0 -1105.0699)">
		<stop  offset="0.18" style="stop-color:#0052CC"/>
		<stop  offset="1" style="stop-color:#2684FF"/>
	</linearGradient>
	<path class="st2" d="M158,30.4l-9,9c5.9,5.9,5.9,15.5,0,21.4l0,0L168.7,41L158,30.4z"/>
	<g id="Filled_Icons">
		<path class="st3" d="M82.2,26.3h11.4l-3.4,3.4l2.1,2.1l6-6c0.6-0.6,0.6-1.5,0-2.1l-6-6l-2.1,2.1l3.4,3.4H82.2c-5,0-9,4-9,9
			c0,0,0,0,0,0h3C76.2,29,78.9,26.3,82.2,26.3C82.2,26.3,82.2,26.3,82.2,26.3z"/>
		<path class="st3" d="M100.2,32.3c0,3.3-2.7,6-6,6H82.8l3.4-3.4l-2.1-2.1l-6,6c-0.6,0.6-0.6,1.5,0,2.1l6,6l2.1-2.1l-3.4-3.4h11.3
			c5,0,9-4,9-9L100.2,32.3z"/>
	</g>
</g>
<g>
	<g>
		<g>
			<circle class="st4" cx="45.3" cy="47.1" r="13.5"/>
		</g>
	</g>
	<g>
		<path class="st5" d="M20.3,7.7v37.6c0-13.5,10.7-24.5,24.1-25c0.5,0,0.9-0.4,0.9-0.9V1.1c0-0.5-0.4-1-1-1
			C35.5,0.4,27.2,3.1,20.3,7.7z"/>
		<path class="st6" d="M20.3,7.7V2.5c0-0.5-0.4-0.9-0.9-0.9H1.1C0.6,1.5,0.2,2,0.2,2.5v42.8C0.2,29.7,8.2,15.9,20.3,7.7z"/>
		<path class="st7" d="M0.2,45.3v14.3c0,0.5,0.4,0.9,0.9,0.9h18.2c0.5,0,0.9-0.4,0.9-0.9V45.3V7.7C8.2,15.9,0.2,29.7,0.2,45.3z"/>
	</g>
</g>
</svg>
