<svg xmlns="http://www.w3.org/2000/svg" viewBox="0 0 53.62 53.62"><defs><style>.cls-1{fill:#3cb7f7;opacity:0.15;}.cls-2{fill:#007ae5;}</style></defs><title>two-way-sync</title><g id="Layer_2" data-name="Layer 2"><g id="Top_layer" data-name="Top layer"><circle class="cls-1" cx="26.81" cy="26.81" r="26.81"/><g id="Filled_Icons" data-name="Filled Icons"><path class="cls-2" d="M21.56,20.81H32.94L29.5,24.25l2.12,2.12,6-6a1.49,1.49,0,0,0,0-2.12l-6-6L29.5,14.37l3.44,3.44H21.56a9,9,0,0,0-9,9h3A6,6,0,0,1,21.56,20.81Z"/><path class="cls-2" d="M39.56,26.81a6,6,0,0,1-6,6H22.18l3.44-3.44L23.5,27.25l-6,6a1.49,1.49,0,0,0,0,2.12l6,6,2.12-2.12-3.44-3.44H33.56a9,9,0,0,0,9-9Z"/></g></g></g></svg>